<svg viewBox="0 0 1112.5999755859375 400" xmlns="http://www.w3.org/2000/svg"><g><g><g><g><g><line x1="39.98800086975098" y1="366.1663582376669" x2="34.98800086975098" y2="366.1663582376669" style="visibility: inherit;" fill="rgb(0, 0, 0)" stroke="rgb(204, 204, 204)" stroke-width="1px"></line><line x1="39.98800086975098" y1="331.70866171992765" x2="34.98800086975098" y2="331.70866171992765" style="visibility: inherit;" fill="rgb(0, 0, 0)" stroke="rgb(204, 204, 204)" stroke-width="1px"></line><line x1="39.98800086975098" y1="297.25096520218835" x2="34.98800086975098" y2="297.25096520218835" style="visibility: inherit;" fill="rgb(0, 0, 0)" stroke="rgb(204, 204, 204)" stroke-width="1px"></line><line x1="39.98800086975098" y1="262.79326868444906" x2="34.98800086975098" y2="262.79326868444906" style="visibility: inherit;" fill="rgb(0, 0, 0)" stroke="rgb(204, 204, 204)" stroke-width="1px"></line><line x1="39.98800086975098" y1="228.33557216670977" x2="34.98800086975098" y2="228.33557216670977" style="visibility: inherit;" fill="rgb(0, 0, 0)" stroke="rgb(204, 204, 204)" stroke-width="1px"></line><line x1="39.98800086975098" y1="193.87787564897047" x2="34.98800086975098" y2="193.87787564897047" style="visibility: inherit;" fill="rgb(0, 0, 0)" stroke="rgb(204, 204, 204)" stroke-width="1px"></line><line x1="39.98800086975098" y1="159.42017913123118" x2="34.98800086975098" y2="159.42017913123118" style="visibility: inherit;" fill="rgb(0, 0, 0)" stroke="rgb(204, 204, 204)" stroke-width="1px"></line><line x1="39.98800086975098" y1="124.96248261349194" x2="34.98800086975098" y2="124.96248261349194" style="visibility: inherit;" fill="rgb(0, 0, 0)" stroke="rgb(204, 204, 204)" stroke-width="1px"></line><line x1="39.98800086975098" y1="90.50478609575265" x2="34.98800086975098" y2="90.50478609575265" style="visibility: inherit;" fill="rgb(0, 0, 0)" stroke="rgb(204, 204, 204)" stroke-width="1px"></line><line x1="39.98800086975098" y1="56.047089578013356" x2="34.98800086975098" y2="56.047089578013356" style="visibility: inherit;" fill="rgb(0, 0, 0)" stroke="rgb(204, 204, 204)" stroke-width="1px"></line><line x1="39.98800086975098" y1="21.589393060274062" x2="34.98800086975098" y2="21.589393060274062" style="visibility: inherit;" fill="rgb(0, 0, 0)" stroke="rgb(204, 204, 204)" stroke-width="1px"></line></g><g transform="translate(29.988000869750977, 0)"><text style="text-anchor: end; visibility: inherit; font-family: &quot;Helvetica Neue&quot;, sans-serif; font-size: 12px; font-weight: 200;" x="0" y="366.1663582376669" dx="0em" dy="0.3em" fill="rgb(50, 49, 63)" stroke="none" stroke-width="1px">0</text><text style="text-anchor: end; visibility: inherit; font-family: &quot;Helvetica Neue&quot;, sans-serif; font-size: 12px; font-weight: 200;" x="0" y="331.70866171992765" dx="0em" dy="0.3em" fill="rgb(50, 49, 63)" stroke="none" stroke-width="1px">50</text><text style="text-anchor: end; visibility: inherit; font-family: &quot;Helvetica Neue&quot;, sans-serif; font-size: 12px; font-weight: 200;" x="0" y="297.25096520218835" dx="0em" dy="0.3em" fill="rgb(50, 49, 63)" stroke="none" stroke-width="1px">100</text><text style="text-anchor: end; visibility: inherit; font-family: &quot;Helvetica Neue&quot;, sans-serif; font-size: 12px; font-weight: 200;" x="0" y="262.79326868444906" dx="0em" dy="0.3em" fill="rgb(50, 49, 63)" stroke="none" stroke-width="1px">150</text><text style="text-anchor: end; visibility: inherit; font-family: &quot;Helvetica Neue&quot;, sans-serif; font-size: 12px; font-weight: 200;" x="0" y="228.33557216670977" dx="0em" dy="0.3em" fill="rgb(50, 49, 63)" stroke="none" stroke-width="1px">200</text><text style="text-anchor: end; visibility: inherit; font-family: &quot;Helvetica Neue&quot;, sans-serif; font-size: 12px; font-weight: 200;" x="0" y="193.87787564897047" dx="0em" dy="0.3em" fill="rgb(50, 49, 63)" stroke="none" stroke-width="1px">250</text><text style="text-anchor: end; visibility: inherit; font-family: &quot;Helvetica Neue&quot;, sans-serif; font-size: 12px; font-weight: 200;" x="0" y="159.42017913123118" dx="0em" dy="0.3em" fill="rgb(50, 49, 63)" stroke="none" stroke-width="1px">300</text><text style="text-anchor: end; visibility: inherit; font-family: &quot;Helvetica Neue&quot;, sans-serif; font-size: 12px; font-weight: 200;" x="0" y="124.96248261349194" dx="0em" dy="0.3em" fill="rgb(50, 49, 63)" stroke="none" stroke-width="1px">350</text><text style="text-anchor: end; visibility: inherit; font-family: &quot;Helvetica Neue&quot;, sans-serif; font-size: 12px; font-weight: 200;" x="0" y="90.50478609575265" dx="0em" dy="0.3em" fill="rgb(50, 49, 63)" stroke="none" stroke-width="1px">400</text><text style="text-anchor: end; visibility: inherit; font-family: &quot;Helvetica Neue&quot;, sans-serif; font-size: 12px; font-weight: 200;" x="0" y="56.047089578013356" dx="0em" dy="0.3em" fill="rgb(50, 49, 63)" stroke="none" stroke-width="1px">450</text><text style="text-anchor: end; visibility: inherit; font-family: &quot;Helvetica Neue&quot;, sans-serif; font-size: 12px; font-weight: 200;" x="0" y="21.589393060274062" dx="0em" dy="0.3em" fill="rgb(50, 49, 63)" stroke="none" stroke-width="1px">500</text></g><line x1="39.98800086975098" y1="0" x2="39.98800086975098" y2="378.60799980163574" fill="rgb(0, 0, 0)" stroke="rgb(204, 204, 204)" stroke-width="1px"></line></g></g><g transform="translate(39, 0)" clip-path="url(#clip_0)"><clipPath id="clip_0"><rect width="1072" height="378"></rect></clipPath><g><g><g><line x1="13.022079953605008" y1="0" x2="13.022079953605008" y2="378.60799980163574" fill="rgb(0, 0, 0)" stroke="rgb(60, 60, 60)" stroke-width="1px" opacity="0.25"></line><line x1="82.41270122490712" y1="0" x2="82.41270122490712" y2="378.60799980163574" fill="rgb(0, 0, 0)" stroke="rgb(60, 60, 60)" stroke-width="1px" opacity="0.25"></line><line x1="151.80332249620923" y1="0" x2="151.80332249620923" y2="378.60799980163574" fill="rgb(0, 0, 0)" stroke="rgb(60, 60, 60)" stroke-width="1px" opacity="0.25"></line><line x1="221.19394376751137" y1="0" x2="221.19394376751137" y2="378.60799980163574" fill="rgb(0, 0, 0)" stroke="rgb(60, 60, 60)" stroke-width="1px" opacity="0.25"></line><line x1="290.5845650388135" y1="0" x2="290.5845650388135" y2="378.60799980163574" fill="rgb(0, 0, 0)" stroke="rgb(60, 60, 60)" stroke-width="1px" opacity="0.25"></line><line x1="359.97518631011565" y1="0" x2="359.97518631011565" y2="378.60799980163574" fill="rgb(0, 0, 0)" stroke="rgb(60, 60, 60)" stroke-width="1px" opacity="0.25"></line><line x1="429.3658075814177" y1="0" x2="429.3658075814177" y2="378.60799980163574" fill="rgb(0, 0, 0)" stroke="rgb(60, 60, 60)" stroke-width="1px" opacity="0.25"></line><line x1="498.7564288527198" y1="0" x2="498.7564288527198" y2="378.60799980163574" fill="rgb(0, 0, 0)" stroke="rgb(60, 60, 60)" stroke-width="1px" opacity="0.25"></line><line x1="568.147050124022" y1="0" x2="568.147050124022" y2="378.60799980163574" fill="rgb(0, 0, 0)" stroke="rgb(60, 60, 60)" stroke-width="1px" opacity="0.25"></line><line x1="637.5376713953241" y1="0" x2="637.5376713953241" y2="378.60799980163574" fill="rgb(0, 0, 0)" stroke="rgb(60, 60, 60)" stroke-width="1px" opacity="0.25"></line><line x1="706.9282926666261" y1="0" x2="706.9282926666261" y2="378.60799980163574" fill="rgb(0, 0, 0)" stroke="rgb(60, 60, 60)" stroke-width="1px" opacity="0.25"></line><line x1="776.3189139379282" y1="0" x2="776.3189139379282" y2="378.60799980163574" fill="rgb(0, 0, 0)" stroke="rgb(60, 60, 60)" stroke-width="1px" opacity="0.25"></line><line x1="845.7095352092302" y1="0" x2="845.7095352092302" y2="378.60799980163574" fill="rgb(0, 0, 0)" stroke="rgb(60, 60, 60)" stroke-width="1px" opacity="0.25"></line><line x1="915.1001564805324" y1="0" x2="915.1001564805324" y2="378.60799980163574" fill="rgb(0, 0, 0)" stroke="rgb(60, 60, 60)" stroke-width="1px" opacity="0.25"></line><line x1="984.4907777518346" y1="0" x2="984.4907777518346" y2="378.60799980163574" fill="rgb(0, 0, 0)" stroke="rgb(60, 60, 60)" stroke-width="1px" opacity="0.25"></line><line x1="1053.8813990231367" y1="0" x2="1053.8813990231367" y2="378.60799980163574" fill="rgb(0, 0, 0)" stroke="rgb(60, 60, 60)" stroke-width="1px" opacity="0.25"></line></g><g><line x1="0" y1="366.1663582376669" x2="1072.611999130249" y2="366.1663582376669" fill="rgb(0, 0, 0)" stroke="rgb(60, 60, 60)" stroke-width="1px" opacity="0.25"></line><line x1="0" y1="331.70866171992765" x2="1072.611999130249" y2="331.70866171992765" fill="rgb(0, 0, 0)" stroke="rgb(60, 60, 60)" stroke-width="1px" opacity="0.25"></line><line x1="0" y1="297.25096520218835" x2="1072.611999130249" y2="297.25096520218835" fill="rgb(0, 0, 0)" stroke="rgb(60, 60, 60)" stroke-width="1px" opacity="0.25"></line><line x1="0" y1="262.79326868444906" x2="1072.611999130249" y2="262.79326868444906" fill="rgb(0, 0, 0)" stroke="rgb(60, 60, 60)" stroke-width="1px" opacity="0.25"></line><line x1="0" y1="228.33557216670977" x2="1072.611999130249" y2="228.33557216670977" fill="rgb(0, 0, 0)" stroke="rgb(60, 60, 60)" stroke-width="1px" opacity="0.25"></line><line x1="0" y1="193.87787564897047" x2="1072.611999130249" y2="193.87787564897047" fill="rgb(0, 0, 0)" stroke="rgb(60, 60, 60)" stroke-width="1px" opacity="0.25"></line><line x1="0" y1="159.42017913123118" x2="1072.611999130249" y2="159.42017913123118" fill="rgb(0, 0, 0)" stroke="rgb(60, 60, 60)" stroke-width="1px" opacity="0.25"></line><line x1="0" y1="124.96248261349194" x2="1072.611999130249" y2="124.96248261349194" fill="rgb(0, 0, 0)" stroke="rgb(60, 60, 60)" stroke-width="1px" opacity="0.25"></line><line x1="0" y1="90.50478609575265" x2="1072.611999130249" y2="90.50478609575265" fill="rgb(0, 0, 0)" stroke="rgb(60, 60, 60)" stroke-width="1px" opacity="0.25"></line><line x1="0" y1="56.047089578013356" x2="1072.611999130249" y2="56.047089578013356" fill="rgb(0, 0, 0)" stroke="rgb(60, 60, 60)" stroke-width="1px" opacity="0.25"></line><line x1="0" y1="21.589393060274062" x2="1072.611999130249" y2="21.589393060274062" fill="rgb(0, 0, 0)" stroke="rgb(60, 60, 60)" stroke-width="1px" opacity="0.25"></line></g></g></g><g><g><line x1="0" y1="366.1663582376669" x2="1072.611999130249" y2="366.1663582376669" fill="rgb(0, 0, 0)" stroke="rgb(153, 153, 153)" stroke-width="1.5px"></line></g></g><g><g><line x1="13.022079953605008" y1="0" x2="13.022079953605008" y2="378.60799980163574" fill="rgb(0, 0, 0)" stroke="rgb(153, 153, 153)" stroke-width="1.5px"></line></g></g><g><g><g><g><g><path style="fill: none;" stroke="rgb(204, 51, 17)" stroke-width="2px" d="M15.103798591744072,359.274818934119L15.450751698100582,358.5856650037643L17.185517229883132,354.45074142163554L18.226376548952665,342.0459706752494L18.57332965530918,359.274818934119L19.61418897437871,357.2073571430547L20.30809518709173,353.76158749128075L21.695907612517775,357.8965110734095L25.8593448887959,357.8965110734095L27.24715731422194,344.8025863966686L27.94106352693496,355.8290492823451L28.634969739647982,342.7351246056042L28.981922846004494,353.07243356092596L29.675829058717515,351.00497176986164L31.757547696856577,355.8290492823451L32.104500803213085,357.2073571430547L32.4514539095696,358.5856650037643L32.79840701592611,356.5182032126999L33.145360122282625,355.13989535199033L35.92098497313471,359.274818934119L36.96184429220423,355.8290492823451L38.00270361127377,357.2073571430547L38.349656717630275,357.8965110734095L38.69660982398679,347.5592021180877L39.0435629303433,355.8290492823451L40.778328462125856,354.45074142163554L43.55395331297794,351.00497176986164L43.900906419334454,348.93750997879727L45.98262505747351,355.8290492823451L48.758249908325595,357.8965110734095L49.79910922739513,357.8965110734095L50.146062333751644,355.8290492823451L52.57473407824721,351.69412570021643L53.615593397316744,344.1134324663138L54.30949961002977,334.46527744134676L57.08512446088185,351.69412570021643L58.12598377995138,339.97850888418503L58.47293688630789,351.69412570021643L61.59551484351649,330.33035385921806L62.289421056229514,343.424278535959L62.636374162586016,344.8025863966686L62.98332726894253,351.00497176986164L65.4119990134381,357.8965110734095L67.14676454522066,357.2073571430547L67.84067075793368,353.07243356092596L68.18762386429019,349.62666390915206L69.57543628971624,350.31581783950685L71.31020182149878,346.8700481877329L71.65715492785529,339.97850888418503L72.69801424692483,348.93750997879727L74.7797328850639,349.62666390915206L75.1266859914204,356.5182032126999L75.82059220413342,348.93750997879727L76.86145152320294,315.85812132176756L77.55535773591598,356.5182032126999L77.90231084227248,326.8845842074441L78.5962170549855,333.77612351099197L79.29012326769853,342.0459706752494L79.63707637405504,344.1134324663138L82.06574811855062,335.84358530205634L84.8413729694027,353.07243356092596L85.1883260757592,341.3568167448946L85.53527918211573,346.1808942573781L86.92309160754176,355.8290492823451L90.39262267110686,338.6002010234755L90.73957577746337,329.6411999288633L91.4334819901764,350.31581783950685L92.82129441560244,332.3978156502824L93.86215373467198,348.93750997879727L94.20910684102849,334.46527744134676L94.556059947385,315.85812132176756L95.59691926645452,330.33035385921806L99.76035654273265,331.01950778957286L101.84207518087172,338.6002010234755L102.88293449994124,341.3568167448946L103.57684071265427,340.6676628145398L103.92379381901078,308.9665820182197L104.6177000317238,347.5592021180877L106.00551245714985,319.30389097354146L107.39332488257588,301.38588878431705L108.0872310952889,325.5062763467346L109.82199662707147,282.08957873438305L114.6793401160626,282.77873266473784L116.41410564784515,345.4917403270233L116.76105875420167,249.01019007735334L118.14887117962772,351.00497176986164L118.49582428598423,314.479813461058L119.88363671141026,302.07504271467184L120.23058981776677,236.60541933096718L120.9244960304798,244.87526649522462L121.96535534954933,308.9665820182197L123.70012088133188,349.62666390915206L124.04707398768839,335.15443137170155L124.3940270940449,286.2245023165118L126.12879262582746,330.33035385921806L126.47574573218397,268.30650012728734L126.82269883854048,275.1980394308352L127.86355815761002,249.01019007735334L130.9861361148186,271.7522697790613L131.68004232753162,203.52603067393747L133.76176096567067,300.00758092360746L135.84347960380975,344.1134324663138L136.19043271016625,335.15443137170155L138.27215134830533,287.60281017722133L139.31301066737484,281.40042480402826L140.7008230928009,304.1425045057362L142.08863551822694,284.1570405254474L142.78254173093995,181.47310490258437L144.17035415636602,292.4268876897048L144.5173072627225,293.1160416200596L144.86426036907903,262.10411475409427L145.55816658179202,285.535348386157L147.2929321135746,202.14772281322792L149.02769764535716,160.10933306158597L149.37465075171366,228.33557216670977L149.72160385807018,24.34600878169323L154.92590045341782,21.589393060274062L157.35457219791343,123.58417475278233L159.43629083605248,244.18611256486983L159.783243942409,162.17679485265035L160.47715015512202,113.24686579746054L161.171056367835,133.92148370810415L162.55886879326107,135.9889454991685L165.68144675046966,87.74817037433348L166.37535296318268,78.10001534936652L166.72230606953917,21.589393060274062L167.76316538860874,21.589393060274062L169.84488402674776,58.114551369077674L172.62050887759986,158.73102520087642L172.96746198395638,61.56032102085163L174.00832130302592,90.50478609575265L174.35527440938242,45.70978062269154L177.477852366591,21.589393060274062L177.82480547294756,21.589393060274062L181.64128964286917,22.967700920983646L182.6821489619387,122.89502082242754L183.0291020682952,159.42017913123118L183.72300828100822,111.17940400639617L184.41691449372124,224.88980251493584L189.27425798271238,21.589393060274062L191.00902351449497,21.589393060274062L191.70292972720796,57.42539743872288L192.74378904627753,21.589393060274062L193.43769525899054,21.589393060274062L195.17246079077307,21.589393060274062L195.5194138971296,21.589393060274062L197.60113253526865,194.56702957932526L198.2950387479817,206.28264639535664L198.6419918543382,209.03926211677577L199.3358980670512,137.36725335987805L199.68285117340773,127.71909833491105L200.72371049247724,126.3407904742015L201.41761670519028,159.42017913123118L203.1523822369728,62.24947495120642L203.49933534332934,71.89762997617345L206.62191330053793,69.14101425475428L207.31581951325094,44.33147276198201L208.70363193867698,134.61063763845894L209.05058504503353,96.01801753859093L209.39753815139002,73.27593783688297L210.78535057681606,21.589393060274062L212.17316300224212,21.589393060274062L212.52011610859861,21.589393060274062L213.56097542766813,21.589393060274062L214.25488164038114,21.589393060274062L214.6018347467377,21.589393060274062L214.9487878530942,21.589393060274062L215.2957409594507,21.589393060274062L215.6426940658072,32.61585594595067L215.9896471721637,21.589393060274062L216.68355338487672,21.589393060274062L217.03050649123327,21.589393060274062L218.7652720230158,21.589393060274062L219.1122251293723,21.589393060274062L220.50003755479835,21.589393060274062L221.54089687386787,21.589393060274062L222.23480308658088,21.589393060274062L224.31652172471996,21.589393060274062L225.01042793743298,21.589393060274062L226.74519346921554,35.37247166736978L228.1330058946416,181.47310490258437L228.4799590009981,212.4850317685497L229.1738652137111,204.21518460429226L233.33730248998927,21.589393060274062L235.76597423448482,21.589393060274062L236.11292734084134,21.589393060274062L236.80683355355436,21.589393060274062L237.15378665991085,21.589393060274062L237.50073976626737,21.589393060274062L237.84769287262387,21.589393060274062L238.54159908533688,21.589393060274062L239.58245840440645,21.589393060274062L240.97027082983246,21.589393060274062L241.31722393618898,21.589393060274062L242.70503636161504,21.589393060274062L243.74589568068455,21.589393060274062L245.13370810611062,21.589393060274062L246.17456742518013,213.86333962925926L246.52152053153662,21.589393060274062L246.86847363789317,21.589393060274062L247.21542674424967,21.589393060274062L247.5623798506062,21.589393060274062L248.2562860633192,21.589393060274062L248.6032391696757,21.589393060274062L248.9501922760322,21.589393060274062L249.99105159510177,21.589393060274062L250.33800470145826,21.589393060274062L250.68495780781478,21.589393060274062L251.3788640205278,173.89241166868172L252.0727702332408,67.07355246368991L252.41972333959734,23.656854851338437L254.84839508409289,21.589393060274062L255.88925440316243,21.589393060274062L257.2770668285885,21.589393060274062L258.317926147658,21.589393060274062L259.01183236037105,21.589393060274062L259.70573857308403,39.50739524949847L261.0935509985101,173.89241166868172L262.4813634239361,172.51410380797213L263.52222274300567,114.62517365817013L263.8691758493622,165.62256450442428L264.21612895571866,71.20847604581866L264.5630820620752,59.492859229787314L266.64480070021426,21.589393060274062L268.7265193383533,21.589393060274062L269.42042555106633,21.589393060274062L269.76737865742285,21.589393060274062L271.1551910828489,21.589393060274062L272.19605040191846,21.589393060274062L272.5430035082749,21.589393060274062L273.58386282734443,21.589393060274062L273.930815933701,21.589393060274062L274.2777690400575,21.589393060274062L274.97167525277047,21.589393060274062L275.66558146548357,21.589393060274062L277.7473001036226,21.589393060274062L278.78815942269216,21.589393060274062L279.1351125290486,21.589393060274062L280.1759718481182,21.589393060274062L280.52292495447466,21.589393060274062L280.8698780608312,21.589393060274062L281.56378427354423,21.589393060274062L281.91073737990075,153.21779375803814L283.9924560180398,109.11194221533185L285.3802684434658,53.29047385659419L285.72722154982233,30.54839415488624L286.4211277625354,62.24947495120642L287.11503397524837,51.91216599588466L287.8089401879614,21.589393060274062L288.15589329431793,21.589393060274062L288.5028464006744,21.589393060274062L288.8497995070309,21.589393060274062L289.19675261338745,21.589393060274062L290.23761193245696,21.589393060274062L290.93151814517,21.589393060274062L291.62542435788305,21.589393060274062L292.66628367695256,21.589393060274062L293.36018988966555,21.589393060274062L293.70714299602207,21.589393060274062L294.0540961023786,21.589393060274062L296.1358147405177,21.589393060274062L296.48276784687414,21.589393060274062L297.17667405958724,21.589393060274062L298.2175333786567,21.589393060274062L299.60534580408273,21.589393060274062L300.6462051231523,21.589393060274062L301.6870644422218,21.589393060274062L302.03401754857833,21.589393060274062L302.7279237612914,21.589393060274062L303.4218299740044,21.589393060274062L304.1157361867174,21.589393060274062L305.85050171849997,21.589393060274062L306.8913610375695,21.589393060274062L307.58526725028247,21.589393060274062L312.7895638456302,21.589393060274062L314.1773762710562,21.589393060274062L314.8712824837692,21.589393060274062L315.21823559012574,21.589393060274062L316.6060480155518,21.589393060274062L317.29995422826477,21.589393060274062L317.64690733462135,21.589393060274062L318.68776665369086,21.589393060274062L319.3816728664039,21.589393060274062L320.0755790791169,21.589393060274062L321.1164383981864,21.589393060274062L321.81034461089945,21.589393060274062L322.1572977172559,21.589393060274062L322.85120392996896,21.589393060274062L324.23901635539505,21.589393060274062L325.6268287808211,21.589393060274062L328.05550052531663,21.589393060274062L328.4024536316731,21.589393060274062L328.7494067380297,21.589393060274062L329.09635984438614,21.589393060274062L329.7902660570992,21.589393060274062L330.8311253761687,21.589393060274062L331.1780784825252,21.589393060274062L331.5250315888817,21.589393060274062L332.56589090795126,21.589393060274062L332.9128440143078,21.589393060274062L333.2597971206643,21.589393060274062L333.6067502270208,21.589393060274062L336.3823750778729,21.589393060274062L336.7293281842294,21.589393060274062L337.7701875032989,21.589393060274062L340.1988592477945,21.589393060274062L341.23971856686404,21.589393060274062L344.0153434177161,21.589393060274062L344.36229652407263,21.589393060274062L345.0562027367856,21.589393060274062L345.40315584314214,21.589393060274062L345.7501089494987,21.589393060274062L346.7909682685682,21.589393060274062L347.1379213749247,21.589393060274062L347.83182758763775,21.589393060274062L348.52573380035074,21.589393060274062L350.2604993321333,21.589393060274062L350.6074524384898,21.589393060274062L351.9952648639159,21.589393060274062L352.3422179702724,21.589393060274062L352.6891710766289,21.589393060274062L353.03612418298536,21.589393060274062L354.07698350205493,21.589393060274062L354.42393660841145,21.589393060274062L354.7708897147679,21.589393060274062L355.8117490338375,21.589393060274062L356.15870214019395,21.589393060274062L358.9343269910461,21.589393060274062L360.3221394164721,21.589393060274062L361.0160456291851,21.589393060274062L361.70995184189815,21.589393060274062L362.05690494825467,21.589393060274062L363.09776426732424,21.589393060274062L364.1386235863937,21.589393060274062L364.48557669275027,21.589393060274062L364.8325297991068,21.589393060274062L365.17948290546326,21.589393060274062L366.2203422245328,21.589393060274062L368.99596707538484,21.589393060274062L369.6898732880979,21.589393060274062L370.38377950081093,21.589393060274062L371.077685713524,21.589393060274062L371.42463881988044,21.589393060274062L372.46549813895,21.589393060274062L373.159404351663,21.589393060274062L373.853310564376,21.589393060274062L375.5880760961586,21.589393060274062L378.01674784065415,21.589393060274062L378.36370094701067,21.589393060274062L379.4045602660802,21.589393060274062L380.09846647879317,21.589393060274062L382.1801851169323,21.589393060274062L382.5271382232888,21.589393060274062L383.22104443600176,21.589393060274062L383.91495064871486,21.589393060274062L385.3027630741409,21.589393060274062L386.69057549956693,21.589393060274062L387.3844817122799,21.589393060274062L389.1192472440625,21.589393060274062L389.466200350419,21.589393060274062L389.8131534567755,21.589393060274062L392.24182520127107,21.589393060274062L392.5887783076276,21.589393060274062L394.6704969457667,21.589393060274062L396.0583093711927,21.589393060274062L396.40526247754923,21.589393060274062L396.7522155839057,21.589393060274062L399.87479354111434,21.589393060274062L400.5686997538274,21.589393060274062L401.60955907289684,21.589393060274062L403.691277711036,21.589393060274062L404.03823081739245,21.589393060274062L405.42604324281854,21.589393060274062L406.466902561888,21.589393060274062L406.81385566824457,21.589393060274062L407.16080877460104,21.589393060274062L408.20166809367055,21.589393060274062L412.0181522635922,21.589393060274062L413.05901158266175,21.589393060274062L414.09987090173126,21.589393060274062L414.44682400808773,21.589393060274062L414.7937771144443,21.589393060274062L415.83463643351377,21.589393060274062L416.18158953987034,21.589393060274062L416.52854264622687,21.589393060274062L421.7328392415745,21.589393060274062L422.77369856064405,21.589393060274062L423.46760477335704,21.589393060274062L423.8145578797135,21.589393060274062L424.5084640924266,21.589393060274062L424.8554171987831,21.589393060274062L425.89627651785264,21.589393060274062L426.93713583692215,21.589393060274062L427.2840889432787,21.589393060274062L427.97799515599166,21.589393060274062L428.67190136870465,21.589393060274062L429.3658075814177,21.589393060274062L430.05971379413074,21.589393060274062L431.10057311320026,21.589393060274062L431.79447932591324,21.589393060274062L432.48838553862635,21.589393060274062L433.18229175133933,21.589393060274062L433.8761979640524,21.589393060274062L434.57010417676537,21.589393060274062L438.0396352403305,21.589393060274062L439.4274476657565,21.589393060274062L440.81526009118255,21.589393060274062L441.1622131975391,21.589393060274062L441.5091663038956,21.589393060274062L442.2030725166086,21.589393060274062L443.24393183567815,21.589393060274062L444.28479115474767,21.589393060274062L444.9786973674607,21.589393060274062L446.0195566865303,21.589393060274062L448.1012753246693,21.589393060274062L448.7951815373823,21.589393060274062L449.48908775009534,21.589393060274062L449.83604085645186,21.589393060274062L450.87690017552137,21.589393060274062L451.2238532818779,21.589393060274062L451.5708063882344,21.589393060274062L452.6116657073039,21.589393060274062L455.38729055815605,21.589393060274062L457.1220560899386,21.589393060274062L457.8159623026516,21.589393060274062L459.8976809407906,21.589393060274062L461.28549336621666,21.589393060274062L461.63244647257324,21.589393060274062L461.9793995789297,21.589393060274062L462.3263526852862,21.589393060274062L464.40807132342525,21.589393060274062L465.4489306424948,21.589393060274062L467.8776023869904,21.589393060274062L468.5715085997034,21.589393060274062L469.612367918773,21.589393060274062L469.95932102512944,21.589393060274062L471.00018034419895,21.589393060274062L471.34713345055553,21.589393060274062L473.0818989823381,21.589393060274062L473.42885208869455,21.589393060274062L473.7758051950511,21.589393060274062L474.8166645141206,21.589393060274062L475.85752383319016,21.589393060274062L476.2044769395467,21.589393060274062L476.55143004590315,21.589393060274062L476.89838315225967,21.589393060274062L477.24533625861613,21.589393060274062L479.32705489675527,21.589393060274062L481.4087735348943,21.589393060274062L483.4904921730333,21.589393060274062L484.8783045984594,21.589393060274062L485.57221081117245,21.589393060274062L487.306976342955,21.589393060274062L488.69478876838104,21.589393060274062L491.1234605128766,21.589393060274062L491.81736672558964,21.589393060274062L492.85822604465915,21.589393060274062L493.5521322573722,21.589393060274062L493.89908536372866,21.589393060274062L494.9399446827982,21.589393060274062L495.28689778915475,21.589393060274062L495.98080400186774,21.589393060274062L496.32775710822426,21.589393060274062L497.3686164272938,21.589393060274062L503.2668192353545,21.589393060274062L503.61377234171096,21.589393060274062L503.96072544806754,21.589393060274062L504.307678554424,21.589393060274062L505.6954909798501,21.589393060274062L506.73635029891955,21.589393060274062L508.1241627243456,33.305009876305405L508.4711158307021,162.86594878300514L508.8180689370587,228.33557216670977L510.2058813624847,251.7668057987725L510.5528344688412,246.942728286289L510.8997875751977,256.590883311256L511.5936937879107,255.2125754505464L512.2876000006237,255.9017293809012L512.9815062133367,250.3884979380629L513.6754124260498,255.2125754505464L516.4510372769018,243.49695863451507L518.1858028086845,256.590883311256L518.5327559150409,249.01019007735334L521.6553338722495,262.79326868444906L522.0022869786061,251.7668057987725L525.8187711485276,248.32103614699855L527.5535366803102,256.590883311256L528.5943959993798,243.49695863451507L528.9413491057362,249.01019007735334L529.9822084248058,247.6318822166438L530.6761146375188,243.49695863451507L531.0230677438753,242.80780470416028L533.7986925947274,233.15964967919328L534.1456457010839,238.67288112203155L534.4925988074405,233.15964967919328L534.839551913797,234.53795753990283L535.8804112328664,240.05118898274114L536.5743174455795,237.29457326132197L536.921270551936,237.9837271916768L537.2682236582924,226.26811037564542L540.0438485091446,214.55249355961408L541.7786140409271,224.20064858458107L542.1255671472836,235.91626540061242L543.1664264663532,227.64641823635498L545.5950982108487,228.33557216670977L546.2890044235618,215.93080142032363L549.7585354871269,190.43210599719654L551.4933010189094,202.14772281322792L551.8402541252659,186.98633634542261L552.534160337979,202.8368767435827L552.8811134443355,191.81041385790613L554.9628320824746,196.63449137038964L555.309785188831,193.87787564897047L557.3915038269702,146.32625445449028L557.7384569333266,108.42278828497706L560.8610348905353,51.91216599588466L562.2488473159613,21.589393060274062L562.9427535286743,21.589393060274062L564.3305659541003,21.589393060274062L567.453143911309,21.589393060274062L568.147050124022,21.589393060274062L569.1879094430915,21.589393060274062L569.8818156558045,21.589393060274062L570.2287687621609,21.589393060274062L571.9635342939436,21.589393060274062L573.004393613013,21.589393060274062L574.7391591447956,21.589393060274062L575.4330653575087,21.589393060274062L576.8208777829348,21.589393060274062L577.5147839956477,21.589393060274062L577.8617371020042,21.589393060274062L578.2086902083607,21.589393060274062L578.9025964210738,21.589393060274062L579.5965026337868,21.589393060274062L581.3312681655693,21.589393060274062L582.3721274846389,21.589393060274062L583.0660336973519,21.589393060274062L584.1068930164215,21.589393060274062L585.147752335491,21.589393060274062L586.5355647609169,21.589393060274062L587.5764240799865,21.589393060274062L588.9642365054125,21.589393060274062L589.3111896117691,21.589393060274062L589.6581427181256,21.589393060274062L592.0868144626212,21.589393060274062L592.7807206753342,21.589393060274062L593.4746268880472,21.589393060274062L594.5154862071167,21.589393060274062L594.8624393134733,21.589393060274062L596.9441579516123,21.589393060274062L597.2911110579688,21.589393060274062L598.6789234833948,21.589393060274062L600.0667359088209,21.589393060274062L601.1075952278904,21.589393060274062L601.454548334247,21.589393060274062L601.8015014406035,21.589393060274062L602.14845454696,21.589393060274062L602.842360759673,21.589393060274062L603.8832200787426,21.589393060274062L606.3118918232382,21.589393060274062L606.6588449295947,21.589393060274062L608.3936104613772,21.589393060274062L609.0875166740902,21.589393060274062L609.4344697804466,21.589393060274062L609.7814228868032,21.589393060274062L612.9040008440119,21.589393060274062L614.2918132694379,21.589393060274062L614.6387663757944,21.589393060274062L614.9857194821509,21.589393060274062L615.3326725885074,21.589393060274062L616.0265788012204,21.589393060274062L617.761344333003,21.589393060274062L618.1082974393595,21.589393060274062L618.8022036520725,21.589393060274062L619.1491567584291,21.589393060274062L619.4961098647855,21.589393060274062L620.536969183855,21.589393060274062L621.2308753965681,21.589393060274062L621.5778285029246,21.589393060274062L621.924781609281,21.589393060274062L625.0473595664897,21.589393060274062L626.0882188855593,21.589393060274062L629.2107968427678,21.589393060274062L631.2925154809069,21.589393060274062L631.6394685872634,21.589393060274062L633.7211872254024,21.589393060274062L634.068140331759,21.589393060274062L634.4150934381154,21.589393060274062L635.1089996508285,21.589393060274062L637.1907182889676,21.589393060274062L639.2724369271066,21.589393060274062L639.6193900334632,21.589393060274062L642.3950148843152,21.589393060274062L642.7419679906717,21.589393060274062L643.7828273097413,21.589393060274062L644.8236866288108,21.589393060274062L646.2114990542368,21.589393060274062L646.9054052669499,21.589393060274062L648.293217692376,21.589393060274062L650.3749363305149,21.589393060274062L651.7627487559411,21.589393060274062L652.1097018622976,21.589393060274062L653.150561181367,21.589393060274062L653.8444673940801,21.589393060274062L654.8853267131495,21.589393060274062L656.2731391385756,21.589393060274062L656.9670453512887,21.589393060274062L657.6609515640016,21.589393060274062L658.0079046703582,21.589393060274062L658.3548577767148,21.589393060274062L660.7835295212103,21.589393060274062L661.4774357339232,21.589393060274062L661.8243888402799,21.589393060274062L663.9061074784188,21.589393060274062L664.2530605847754,21.589393060274062L664.600013691132,21.589393060274062L665.293919903845,21.589393060274062L665.9878261165579,21.589393060274062L670.151263392836,21.589393060274062L673.2738413500447,21.589393060274062L674.6616537754707,21.589393060274062L676.3964193072533,21.589393060274062L676.7433724136098,21.589393060274062L678.4781379453923,21.589393060274062L678.8250910517489,21.589393060274062L679.1720441581053,21.589393060274062L680.5598565835314,21.589393060274062L680.9068096898878,21.589393060274062L682.988528328027,21.589393060274062L684.376340753453,21.589393060274062L684.7232938598095,21.589393060274062L685.0702469661661,21.589393060274062L685.764153178879,21.589393060274062L686.1111062852355,21.589393060274062L687.8458718170181,21.589393060274062L688.8867311360876,21.589393060274062L689.5806373488007,21.589393060274062L690.6214966678701,21.589393060274062L691.6623559869397,21.589393060274062L692.7032153060093,21.589393060274062L693.3971215187222,21.589393060274062L695.4788401568613,21.589393060274062L695.8257932632179,21.589393060274062L696.5196994759309,21.589393060274062L697.2136056886438,21.589393060274062L700.3361836458524,21.589393060274062L700.683136752209,21.589393060274062L701.0300898585656,21.589393060274062L701.377042964922,21.589393060274062L706.2343864539132,21.589393060274062L707.6221988793392,21.589393060274062L709.0100113047653,21.589393060274062L709.3569644111217,21.589393060274062L710.3978237301912,21.589393060274062L710.7447768365478,21.589393060274062L711.7856361556173,21.589393060274062L712.4795423683303,21.589393060274062L713.1734485810433,21.589393060274062L714.9082141128258,21.589393060274062L715.9490734318954,21.589393060274062L716.6429796446084,21.589393060274062L716.989932750965,21.589393060274062L717.6838389636779,21.589393060274062L718.7246982827475,21.589393060274062L719.765557601817,21.589393060274062L720.4594638145301,21.589393060274062L721.5003231335996,21.589393060274062L722.541182452669,21.589393060274062L722.8881355590256,21.589393060274062L723.9289948780952,21.589393060274062L724.9698541971646,21.589393060274062L727.7454790480168,21.589393060274062L728.0924321543732,21.589393060274062L728.7863383670862,21.589393060274062L730.5211038988689,21.589393060274062L732.2558694306514,21.589393060274062L732.6028225370079,21.589393060274062L732.9497756433644,21.589393060274062L733.6436818560774,21.589393060274062L733.990634962434,21.589393060274062L734.6845411751469,21.589393060274062L735.37844738786,21.589393060274062L736.4193067069295,21.589393060274062L736.7662598132861,21.589393060274062L738.154072238712,21.589393060274062L739.8888377704945,21.589393060274062L740.5827439832076,21.589393060274062L742.6644626213467,21.589393060274062L743.0114157277033,21.589393060274062L743.3583688340597,21.589393060274062L743.7053219404163,21.589393060274062L744.0522750467727,21.589393060274062L745.0931343658423,21.589393060274062L745.7870405785552,21.589393060274062L746.8278998976248,21.589393060274062L747.1748530039813,21.589393060274062L748.2157123230509,21.589393060274062L748.9096185357639,21.589393060274062L749.6035247484768,21.589393060274062L749.9504778548335,21.589393060274062L750.2974309611899,21.589393060274062L751.685243386616,21.589393060274062L753.073055812042,21.589393060274062L753.4200089183985,21.589393060274062L753.766962024755,21.589393060274062L755.1547744501811,21.589393060274062L755.5017275565376,21.589393060274062L756.1956337692507,21.589393060274062L756.5425868756071,21.589393060274062L757.2364930883202,21.589393060274062L757.5834461946766,21.589393060274062L757.9303993010332,21.589393060274062L758.6243055137462,21.589393060274062L758.9712586201027,21.589393060274062L759.6651648328158,21.589393060274062L760.7060241518852,21.589393060274062L761.3999303645983,21.589393060274062L761.7468834709548,21.589393060274062L763.8286021090938,21.589393060274062L764.1755552154503,21.589393060274062L764.5225083218069,21.589393060274062L765.910320747233,21.589393060274062L766.6042269599459,21.589393060274062L767.2981331726589,21.589393060274062L768.685945598085,21.589393060274062L771.1146173425806,21.589393060274062L772.1554766616501,21.589393060274062L772.8493828743631,21.589393060274062L773.5432890870761,21.589393060274062L773.8902421934326,21.589393060274062L775.2780546188586,21.589393060274062L775.9719608315718,21.589393060274062L776.3189139379282,21.589393060274062L776.6658670442847,21.589393060274062L777.7067263633543,21.589393060274062L778.0536794697107,21.589393060274062L779.0945387887803,21.589393060274062L779.4414918951369,21.589393060274062L780.4823512142062,21.589393060274062L781.5232105332758,21.589393060274062L782.9110229587019,21.589393060274062L784.9927415968409,21.589393060274062L785.3396947031974,21.589393060274062L786.380554022267,21.589393060274062L786.7275071286236,21.589393060274062L787.4214133413366,21.589393060274062L788.1153195540496,21.589393060274062L788.4622726604061,21.589393060274062L789.1561788731192,21.589393060274062L789.5031319794756,21.589393060274062L790.1970381921886,21.589393060274062L790.5439912985452,21.589393060274062L790.8909444049017,21.589393060274062L791.2378975112581,21.589393060274062L791.9318037239713,21.589393060274062L792.6257099366842,21.589393060274062L792.9726630430408,21.589393060274062L794.3604754684668,21.589393060274062L794.7074285748233,21.589393060274062L795.4013347875364,21.589393060274062L796.4421941066058,21.589393060274062L797.1361003193189,21.589393060274062L798.1769596383884,21.589393060274062L802.3403969146665,21.589393060274062L803.7282093400925,21.589393060274062L804.769068659162,21.589393060274062L806.5038341909446,21.589393060274062L807.1977404036577,21.589393060274062L808.2385997227271,21.589393060274062L810.3203183608663,21.589393060274062L810.6672714672228,21.589393060274062L811.3611776799358,21.589393060274062L812.4020369990053,21.589393060274062L813.4428963180749,21.589393060274062L813.7898494244314,21.589393060274062L814.1368025307879,21.589393060274062L817.2593804879964,21.589393060274062L817.606333594353,21.589393060274062L817.9532867007094,21.589393060274062L818.300239807066,21.589393060274062L818.994146019779,21.589393060274062L819.688052232492,21.589393060274062L820.7289115515615,21.589393060274062L822.4636770833441,21.589393060274062L823.1575832960572,21.589393060274062L823.5045364024136,21.589393060274062L823.8514895087702,21.589393060274062L824.1984426151266,21.589393060274062L826.9740674659787,21.589393060274062L830.0966454231874,21.589393060274062L831.8314109549699,21.589393060274062L834.607035805822,21.589393060274062L834.9539889121785,21.589393060274062L835.994848231248,21.589393060274062L837.3826606566741,21.589393060274062L838.4235199757437,21.589393060274062L839.8113324011697,21.589393060274062L840.8521917202393,21.589393060274062L841.8930510393087,21.589393060274062L842.2400041456652,21.589393060274062L842.5869572520218,21.589393060274062L843.2808634647348,21.589393060274062L846.0564883155869,21.589393060274062L846.7503945282998,21.589393060274062L847.4443007410129,21.589393060274062L848.1382069537259,21.589393060274062L849.8729724855085,21.589393060274062L851.607738017291,21.589393060274062L854.3833628681432,21.589393060274062L854.7303159744996,21.589393060274062L855.0772690808561,21.589393060274062L856.4650815062821,21.589393060274062L857.5059408253517,21.589393060274062L858.5468001444212,21.589393060274062L861.3224249952733,21.589393060274062L862.0163312079864,21.589393060274062L863.4041436334123,21.589393060274062L863.7510967397689,21.589393060274062L864.0980498461254,21.589393060274062L864.4450029524819,21.589393060274062L865.138909165195,21.589393060274062L865.832815377908,21.589393060274062L866.8736746969776,21.589393060274062L867.914534016047,21.589393060274062L868.2614871224035,21.589393060274062L868.9553933351165,21.589393060274062L869.6492995478295,21.589393060274062L872.0779712923252,21.589393060274062L873.4657837177512,21.589393060274062L874.1596899304642,21.589393060274062L874.8535961431772,21.589393060274062L875.5475023558903,21.589393060274062L875.8944554622467,21.589393060274062L876.5883616749599,21.589393060274062L877.6292209940292,21.589393060274062L878.3231272067424,21.589393060274062L879.3639865258119,21.589393060274062L880.0578927385249,21.589393060274062L881.0987520575944,21.589393060274062L881.445705163951,21.589393060274062L881.7926582703075,21.589393060274062L885.2621893338726,21.589393060274062L885.6091424402291,21.589393060274062L886.303048652942,21.589393060274062L886.6500017592986,21.589393060274062L886.9969548656551,21.589393060274062L887.3439079720116,21.589393060274062L888.3847672910811,21.589393060274062L888.7317203974376,21.589393060274062L889.4256266101506,21.589393060274062L890.4664859292202,21.589393060274062L891.1603921419331,21.589393060274062L891.8542983546463,21.589393060274062L892.5482045673593,21.589393060274062L895.6707825245678,21.589393060274062L896.0177356309243,21.589393060274062L897.0585949499939,21.589393060274062L897.752501162707,21.589393060274062L898.4464073754199,21.589393060274062L899.1403135881329,21.589393060274062L899.834219800846,21.589393060274062L900.1811729072025,21.589393060274062L901.2220322262721,21.589393060274062L903.3037508644111,21.589393060274062L903.6507039707676,21.589393060274062L905.0385163961937,21.589393060274062L906.0793757152633,21.589393060274062L907.1202350343326,21.589393060274062L907.8141412470458,21.589393060274062L908.1610943534022,21.589393060274062L909.5489067788283,21.589393060274062L910.9367192042544,21.589393060274062L911.9775785233238,21.589393060274062L912.3245316296805,21.589393060274062L912.6714847360369,21.589393060274062L913.0184378423934,21.589393060274062L914.059297161463,21.589393060274062L915.4471095868889,21.589393060274062L916.141015799602,21.589393060274062L917.5288282250281,21.589393060274062L917.8757813313845,21.589393060274062L918.5696875440976,21.589393060274062L918.916640650454,21.589393060274062L920.6514061822365,21.589393060274062L921.6922655013061,21.589393060274062L922.0392186076627,21.589393060274062L922.7331248203757,21.589393060274062L923.4270310330887,21.589393060274062L924.1209372458017,21.589393060274062L924.4678903521583,21.589393060274062L925.5087496712277,21.589393060274062L925.8557027775843,21.589393060274062L926.5496089902973,21.589393060274062L927.5904683093668,21.589393060274062L927.9374214157233,21.589393060274062L928.6313276284363,21.589393060274062L930.7130462665755,21.589393060274062L931.7539055856449,21.589393060274062L932.7947649047145,21.589393060274062L933.141718011071,21.589393060274062L934.5295304364971,21.589393060274062L936.611249074636,21.589393060274062L941.1216394572707,21.589393060274062L942.5094518826968,21.589393060274062L943.2033580954098,21.589393060274062L944.9381236271923,21.589393060274062L945.9789829462619,21.589393060274062L946.672889158975,21.589393060274062L948.060701584401,21.589393060274062L949.7954671161835,21.589393060274062L951.1832795416095,21.589393060274062L952.5710919670355,21.589393060274062L953.6119512861051,21.589393060274062L956.7345292433138,21.589393060274062L958.8162478814527,21.589393060274062L962.2857789450179,21.589393060274062L962.6327320513744,21.589393060274062L962.979685157731,21.589393060274062L964.0205444768005,21.589393060274062L964.3674975831569,21.589393060274062L966.1022631149394,21.589393060274062L966.7961693276525,21.589393060274062L968.1839817530786,21.589393060274062L968.5309348594351,21.589393060274062L968.8778879657916,21.589393060274062L969.2248410721481,21.589393060274062L969.5717941785045,21.589393060274062L969.9187472848611,21.589393060274062L970.2657003912177,21.589393060274062L973.0413252420697,21.589393060274062L974.0821845611392,21.589393060274062L976.1639031992784,21.589393060274062L977.5517156247043,21.589393060274062L981.0212466882693,21.589393060274062L981.368199794626,21.589393060274062L981.7151529009825,21.589393060274062L984.143824645478,21.589393060274062L985.8785901772605,21.589393060274062L986.9194494963301,21.589393060274062L987.6133557090432,21.589393060274062L987.9603088153997,21.589393060274062L988.3072619217561,21.589393060274062L988.6542150281127,21.589393060274062L990.0420274535387,21.589393060274062L992.8176523043908,21.589393060274062L993.1646054107473,21.589393060274062L994.2054647298169,21.589393060274062L994.8993709425299,21.589393060274062L995.2463240488864,21.589393060274062L995.9402302615995,21.589393060274062L997.674995793382,21.589393060274062L1000.1036675378775,21.589393060274062L1000.7975737505906,21.589393060274062L1001.83843306966,21.589393060274062L1002.5323392823731,21.589393060274062L1004.2671048141556,21.589393060274062L1005.3079641332251,21.589393060274062L1006.3488234522947,21.589393060274062L1009.4714014095034,21.589393060274062L1009.8183545158598,21.589393060274062L1010.8592138349294,21.589393060274062L1011.900073153999,21.589393060274062L1012.5939793667119,21.589393060274062L1012.9409324730684,21.589393060274062L1015.0226511112074,21.589393060274062L1016.063510430277,21.589393060274062L1016.4104635366335,21.589393060274062L1017.1043697493466,21.589393060274062L1018.1452290684161,21.589393060274062L1018.8391352811291,21.589393060274062L1019.5330414938421,21.589393060274062L1020.5739008129117,21.589393060274062L1020.9208539192682,21.589393060274062L1021.2678070256246,21.589393060274062L1023.6964787701203,21.589393060274062L1025.4312443019028,21.589393060274062L1026.1251505146158,21.589393060274062L1026.4721036209723,21.589393060274062L1026.8190567273289,21.589393060274062L1028.206869152755,21.589393060274062L1028.5538222591115,21.589393060274062L1030.288587790894,21.589393060274062L1030.6355408972504,21.589393060274062L1032.0233533226765,21.589393060274062L1033.064212641746,21.589393060274062L1033.4111657481026,21.589393060274062L1034.1050719608156,21.589393060274062L1036.5337437053113,21.589393060274062L1036.8806968116676,21.589393060274062L1038.6154623434502,21.589393060274062L1042.7788996197285,21.589393060274062L1044.5136651515108,21.589393060274062L1045.207571364224,21.589393060274062L1045.5545244705804,21.589393060274062L1046.59538378965,21.589393060274062L1046.9423368960065,21.589393060274062L1050.0649148532152,21.589393060274062L1052.1466334913541,21.589393060274062L1053.5344459167802,21.589393060274062L1053.8813990231367,21.589393060274062" fill="none"></path></g><g><path style="fill: none;" stroke="rgb(0, 119, 187)" stroke-width="2px" d="M15.103798591744072,359.274818934119L15.450751698100582,358.5856650037643L17.185517229883132,354.45074142163554L18.226376548952665,342.0459706752494L18.57332965530918,359.274818934119L19.61418897437871,357.2073571430547L20.30809518709173,353.76158749128075L21.695907612517775,357.8965110734095L25.8593448887959,357.8965110734095L27.24715731422194,344.8025863966686L27.94106352693496,355.8290492823451L28.634969739647982,342.7351246056042L28.981922846004494,353.07243356092596L29.675829058717515,351.00497176986164L31.757547696856577,355.8290492823451L32.104500803213085,357.2073571430547L32.4514539095696,358.5856650037643L32.79840701592611,356.5182032126999L33.145360122282625,355.13989535199033L35.92098497313471,359.274818934119L36.96184429220423,355.8290492823451L38.00270361127377,357.2073571430547L38.349656717630275,357.8965110734095L38.69660982398679,347.5592021180877L39.0435629303433,355.8290492823451L40.778328462125856,354.45074142163554L43.55395331297794,351.00497176986164L43.900906419334454,348.93750997879727L45.98262505747351,355.8290492823451L48.758249908325595,357.8965110734095L49.79910922739513,357.8965110734095L50.146062333751644,355.8290492823451L52.57473407824721,351.69412570021643L53.615593397316744,344.1134324663138L54.30949961002977,334.46527744134676L57.08512446088185,351.69412570021643L58.12598377995138,339.97850888418503L58.47293688630789,351.69412570021643L61.59551484351649,330.33035385921806L62.289421056229514,343.424278535959L62.636374162586016,344.8025863966686L62.98332726894253,351.00497176986164L65.4119990134381,357.8965110734095L67.14676454522066,357.2073571430547L67.84067075793368,353.07243356092596L68.18762386429019,349.62666390915206L69.57543628971624,350.31581783950685L71.31020182149878,346.8700481877329L71.65715492785529,339.97850888418503L72.69801424692483,348.93750997879727L74.7797328850639,349.62666390915206L75.1266859914204,356.5182032126999L75.82059220413342,348.93750997879727L76.86145152320294,315.85812132176756L77.55535773591598,356.5182032126999L77.90231084227248,326.8845842074441L78.5962170549855,333.77612351099197L79.29012326769853,342.0459706752494L79.63707637405504,344.1134324663138L82.06574811855062,335.84358530205634L84.8413729694027,353.07243356092596L85.1883260757592,341.3568167448946L85.53527918211573,346.1808942573781L86.92309160754176,355.8290492823451L90.39262267110686,338.6002010234755L90.73957577746337,329.6411999288633L91.4334819901764,350.31581783950685L92.82129441560244,332.3978156502824L93.86215373467198,348.93750997879727L94.20910684102849,334.46527744134676L94.556059947385,315.85812132176756L95.59691926645452,330.33035385921806L99.76035654273265,331.01950778957286L101.84207518087172,338.6002010234755L102.88293449994124,341.3568167448946L103.57684071265427,340.6676628145398L103.92379381901078,308.9665820182197L104.6177000317238,347.5592021180877L106.00551245714985,319.30389097354146L107.39332488257588,301.38588878431705L108.0872310952889,325.5062763467346L109.82199662707147,282.08957873438305L114.6793401160626,282.77873266473784L116.41410564784515,345.4917403270233L116.76105875420167,249.01019007735334L118.14887117962772,351.00497176986164L118.49582428598423,314.479813461058L119.88363671141026,302.07504271467184L120.23058981776677,236.60541933096718L120.9244960304798,244.87526649522462L121.96535534954933,308.9665820182197L123.70012088133188,349.62666390915206L124.04707398768839,335.15443137170155L124.3940270940449,286.2245023165118L126.12879262582746,330.33035385921806L126.47574573218397,268.30650012728734L126.82269883854048,275.1980394308352L127.86355815761002,249.01019007735334L130.9861361148186,271.7522697790613L131.68004232753162,203.52603067393747L133.76176096567067,300.00758092360746L135.84347960380975,344.1134324663138L136.19043271016625,335.15443137170155L138.27215134830533,287.60281017722133L139.31301066737484,281.40042480402826L140.7008230928009,304.1425045057362L142.08863551822694,284.1570405254474L142.78254173093995,181.47310490258437L144.17035415636602,292.4268876897048L144.5173072627225,293.1160416200596L144.86426036907903,262.10411475409427L145.55816658179202,285.535348386157L147.2929321135746,202.14772281322792L149.02769764535716,160.10933306158597L149.37465075171366,228.33557216670977L149.72160385807018,24.34600878169323L154.92590045341782,21.589393060274062L157.35457219791343,123.58417475278233L159.43629083605248,244.18611256486983L159.783243942409,162.17679485265035L160.47715015512202,113.24686579746054L161.171056367835,133.92148370810415L162.55886879326107,135.9889454991685L165.68144675046966,87.74817037433348L166.37535296318268,78.10001534936652L166.72230606953917,21.589393060274062L167.76316538860874,21.589393060274062L169.84488402674776,58.114551369077674L172.62050887759986,158.73102520087642L172.96746198395638,61.56032102085163L174.00832130302592,90.50478609575265L174.35527440938242,45.70978062269154L177.477852366591,21.589393060274062L177.82480547294756,21.589393060274062L181.64128964286917,22.967700920983646L182.6821489619387,122.89502082242754L183.0291020682952,159.42017913123118L183.72300828100822,111.17940400639617L184.41691449372124,224.88980251493584L189.27425798271238,21.589393060274062L191.00902351449497,21.589393060274062L191.70292972720796,57.42539743872288L192.74378904627753,21.589393060274062L193.43769525899054,21.589393060274062L195.17246079077307,21.589393060274062L195.5194138971296,21.589393060274062L197.60113253526865,194.56702957932526L198.2950387479817,206.28264639535664L198.6419918543382,209.03926211677577L199.3358980670512,137.36725335987805L199.68285117340773,127.71909833491105L200.72371049247724,126.3407904742015L201.41761670519028,159.42017913123118L203.1523822369728,62.24947495120642L203.49933534332934,71.89762997617345L206.62191330053793,69.14101425475428L207.31581951325094,44.33147276198201L208.70363193867698,134.61063763845894L209.05058504503353,96.01801753859093L209.39753815139002,73.27593783688297L210.78535057681606,21.589393060274062L212.17316300224212,21.589393060274062L212.52011610859861,21.589393060274062L213.56097542766813,21.589393060274062L214.25488164038114,21.589393060274062L214.6018347467377,21.589393060274062L214.9487878530942,21.589393060274062L215.2957409594507,21.589393060274062L215.6426940658072,32.61585594595067L215.9896471721637,21.589393060274062L216.68355338487672,21.589393060274062L217.03050649123327,21.589393060274062L218.7652720230158,21.589393060274062L219.1122251293723,21.589393060274062L220.50003755479835,21.589393060274062L221.54089687386787,21.589393060274062L222.23480308658088,21.589393060274062L224.31652172471996,21.589393060274062L225.01042793743298,21.589393060274062L226.74519346921554,35.37247166736978L228.1330058946416,181.47310490258437L228.4799590009981,212.4850317685497L229.1738652137111,204.21518460429226L233.33730248998927,21.589393060274062L235.76597423448482,21.589393060274062L236.11292734084134,21.589393060274062L236.80683355355436,21.589393060274062L237.15378665991085,21.589393060274062L237.50073976626737,21.589393060274062L237.84769287262387,21.589393060274062L238.54159908533688,21.589393060274062L239.58245840440645,21.589393060274062L240.97027082983246,21.589393060274062L241.31722393618898,21.589393060274062L242.70503636161504,21.589393060274062L243.74589568068455,21.589393060274062L245.13370810611062,21.589393060274062L246.17456742518013,213.86333962925926L246.52152053153662,21.589393060274062L246.86847363789317,21.589393060274062L247.21542674424967,21.589393060274062L247.5623798506062,21.589393060274062L248.2562860633192,21.589393060274062L248.6032391696757,21.589393060274062L248.9501922760322,21.589393060274062L249.99105159510177,21.589393060274062L250.33800470145826,21.589393060274062L250.68495780781478,21.589393060274062L251.3788640205278,173.89241166868172L252.0727702332408,67.07355246368991L252.41972333959734,23.656854851338437L254.84839508409289,21.589393060274062L255.88925440316243,21.589393060274062L257.2770668285885,21.589393060274062L258.317926147658,21.589393060274062L259.01183236037105,21.589393060274062L259.70573857308403,39.50739524949847L261.0935509985101,173.89241166868172L262.4813634239361,172.51410380797213L263.52222274300567,114.62517365817013L263.8691758493622,165.62256450442428L264.21612895571866,71.20847604581866L264.5630820620752,59.492859229787314L266.64480070021426,21.589393060274062L268.7265193383533,21.589393060274062L269.42042555106633,21.589393060274062L269.76737865742285,21.589393060274062L271.1551910828489,21.589393060274062L272.19605040191846,21.589393060274062L272.5430035082749,21.589393060274062L273.58386282734443,21.589393060274062L273.930815933701,21.589393060274062L274.2777690400575,21.589393060274062L274.97167525277047,21.589393060274062L275.66558146548357,21.589393060274062L277.7473001036226,21.589393060274062L278.78815942269216,21.589393060274062L279.1351125290486,21.589393060274062L280.1759718481182,21.589393060274062L280.52292495447466,21.589393060274062L280.8698780608312,21.589393060274062L281.56378427354423,21.589393060274062L281.91073737990075,153.21779375803814L283.9924560180398,109.11194221533185L285.3802684434658,53.29047385659419L285.72722154982233,30.54839415488624L286.4211277625354,62.24947495120642L287.11503397524837,51.91216599588466L287.8089401879614,21.589393060274062L288.15589329431793,21.589393060274062L288.5028464006744,21.589393060274062L288.8497995070309,21.589393060274062L289.19675261338745,21.589393060274062L290.23761193245696,21.589393060274062L290.93151814517,21.589393060274062L291.62542435788305,21.589393060274062L292.66628367695256,21.589393060274062L293.36018988966555,21.589393060274062L293.70714299602207,21.589393060274062L294.0540961023786,21.589393060274062L296.1358147405177,21.589393060274062L296.48276784687414,21.589393060274062L297.17667405958724,21.589393060274062L298.2175333786567,21.589393060274062L299.60534580408273,21.589393060274062L300.6462051231523,21.589393060274062L301.6870644422218,21.589393060274062L302.03401754857833,21.589393060274062L302.7279237612914,21.589393060274062L303.4218299740044,21.589393060274062L304.1157361867174,21.589393060274062L305.85050171849997,21.589393060274062L306.8913610375695,21.589393060274062L307.58526725028247,21.589393060274062L312.7895638456302,21.589393060274062L314.1773762710562,21.589393060274062L314.8712824837692,21.589393060274062L315.21823559012574,21.589393060274062L316.6060480155518,21.589393060274062L317.29995422826477,21.589393060274062L317.64690733462135,21.589393060274062L318.68776665369086,21.589393060274062L319.3816728664039,21.589393060274062L320.0755790791169,21.589393060274062L321.1164383981864,21.589393060274062L321.81034461089945,21.589393060274062L322.1572977172559,21.589393060274062L322.85120392996896,21.589393060274062L324.23901635539505,21.589393060274062L325.6268287808211,21.589393060274062L328.05550052531663,21.589393060274062L328.4024536316731,21.589393060274062L328.7494067380297,21.589393060274062L329.09635984438614,21.589393060274062L329.7902660570992,21.589393060274062L330.8311253761687,21.589393060274062L331.1780784825252,21.589393060274062L331.5250315888817,21.589393060274062L332.56589090795126,21.589393060274062L332.9128440143078,21.589393060274062L333.2597971206643,21.589393060274062L333.6067502270208,21.589393060274062L336.3823750778729,21.589393060274062L336.7293281842294,21.589393060274062L337.7701875032989,21.589393060274062L340.1988592477945,21.589393060274062L341.23971856686404,21.589393060274062L344.0153434177161,21.589393060274062L344.36229652407263,21.589393060274062L345.0562027367856,21.589393060274062L345.40315584314214,21.589393060274062L345.7501089494987,21.589393060274062L346.7909682685682,21.589393060274062L347.1379213749247,21.589393060274062L347.83182758763775,21.589393060274062L348.52573380035074,21.589393060274062L350.2604993321333,21.589393060274062L350.6074524384898,21.589393060274062L351.9952648639159,21.589393060274062L352.3422179702724,21.589393060274062L352.6891710766289,21.589393060274062L353.03612418298536,21.589393060274062L354.07698350205493,21.589393060274062L354.42393660841145,21.589393060274062L354.7708897147679,21.589393060274062L355.8117490338375,21.589393060274062L356.15870214019395,21.589393060274062L358.9343269910461,21.589393060274062L360.3221394164721,21.589393060274062L361.0160456291851,21.589393060274062L361.70995184189815,21.589393060274062L362.05690494825467,21.589393060274062L363.09776426732424,21.589393060274062L364.1386235863937,21.589393060274062L364.48557669275027,21.589393060274062L364.8325297991068,21.589393060274062L365.17948290546326,21.589393060274062L366.2203422245328,21.589393060274062L368.99596707538484,21.589393060274062L369.6898732880979,21.589393060274062L370.38377950081093,21.589393060274062L371.077685713524,21.589393060274062L371.42463881988044,21.589393060274062L372.46549813895,21.589393060274062L373.159404351663,21.589393060274062L373.853310564376,21.589393060274062L375.5880760961586,21.589393060274062L378.01674784065415,21.589393060274062L378.36370094701067,21.589393060274062L379.4045602660802,21.589393060274062L380.09846647879317,21.589393060274062L382.1801851169323,21.589393060274062L382.5271382232888,21.589393060274062L383.22104443600176,21.589393060274062L383.91495064871486,21.589393060274062L385.3027630741409,21.589393060274062L386.69057549956693,21.589393060274062L387.3844817122799,21.589393060274062L389.1192472440625,21.589393060274062L389.466200350419,21.589393060274062L389.8131534567755,21.589393060274062L392.24182520127107,21.589393060274062L392.5887783076276,21.589393060274062L394.6704969457667,21.589393060274062L396.0583093711927,21.589393060274062L396.40526247754923,21.589393060274062L396.7522155839057,21.589393060274062L399.87479354111434,21.589393060274062L400.5686997538274,21.589393060274062L401.60955907289684,21.589393060274062L403.691277711036,21.589393060274062L404.03823081739245,21.589393060274062L405.42604324281854,21.589393060274062L406.466902561888,21.589393060274062L406.81385566824457,21.589393060274062L407.16080877460104,21.589393060274062L408.20166809367055,21.589393060274062L412.0181522635922,21.589393060274062L413.05901158266175,21.589393060274062L414.09987090173126,21.589393060274062L414.44682400808773,21.589393060274062L414.7937771144443,21.589393060274062L415.83463643351377,21.589393060274062L416.18158953987034,21.589393060274062L416.52854264622687,21.589393060274062L421.7328392415745,21.589393060274062L422.77369856064405,21.589393060274062L423.46760477335704,21.589393060274062L423.8145578797135,21.589393060274062L424.5084640924266,21.589393060274062L424.8554171987831,21.589393060274062L425.89627651785264,21.589393060274062L426.93713583692215,21.589393060274062L427.2840889432787,21.589393060274062L427.97799515599166,21.589393060274062L428.67190136870465,21.589393060274062L429.3658075814177,21.589393060274062L430.05971379413074,21.589393060274062L431.10057311320026,21.589393060274062L431.79447932591324,21.589393060274062L432.48838553862635,21.589393060274062L433.18229175133933,21.589393060274062L433.8761979640524,21.589393060274062L434.57010417676537,21.589393060274062L438.0396352403305,21.589393060274062L439.4274476657565,21.589393060274062L440.81526009118255,21.589393060274062L441.1622131975391,21.589393060274062L441.5091663038956,21.589393060274062L442.2030725166086,21.589393060274062L443.24393183567815,21.589393060274062L444.28479115474767,21.589393060274062L444.9786973674607,21.589393060274062L446.0195566865303,21.589393060274062L448.1012753246693,21.589393060274062L448.7951815373823,21.589393060274062L449.48908775009534,21.589393060274062L449.83604085645186,21.589393060274062L450.87690017552137,21.589393060274062L451.2238532818779,21.589393060274062L451.5708063882344,21.589393060274062L452.6116657073039,21.589393060274062L455.38729055815605,21.589393060274062L457.1220560899386,21.589393060274062L457.8159623026516,21.589393060274062L459.8976809407906,21.589393060274062L461.28549336621666,21.589393060274062L461.63244647257324,21.589393060274062L461.9793995789297,21.589393060274062L462.3263526852862,21.589393060274062L464.40807132342525,21.589393060274062L465.4489306424948,21.589393060274062L467.8776023869904,21.589393060274062L468.5715085997034,21.589393060274062L469.612367918773,21.589393060274062L469.95932102512944,21.589393060274062L471.00018034419895,21.589393060274062L471.34713345055553,21.589393060274062L473.0818989823381,21.589393060274062L473.42885208869455,21.589393060274062L473.7758051950511,21.589393060274062L474.8166645141206,21.589393060274062L475.85752383319016,21.589393060274062L476.2044769395467,21.589393060274062L476.55143004590315,21.589393060274062L476.89838315225967,21.589393060274062L477.24533625861613,21.589393060274062L479.32705489675527,21.589393060274062L481.4087735348943,21.589393060274062L483.4904921730333,21.589393060274062L484.8783045984594,21.589393060274062L485.57221081117245,21.589393060274062L487.306976342955,21.589393060274062L488.69478876838104,21.589393060274062L491.1234605128766,21.589393060274062L491.81736672558964,21.589393060274062L492.85822604465915,21.589393060274062L493.5521322573722,21.589393060274062L493.89908536372866,21.589393060274062L494.9399446827982,21.589393060274062L495.28689778915475,21.589393060274062L495.98080400186774,21.589393060274062L496.32775710822426,21.589393060274062L497.3686164272938,21.589393060274062L503.2668192353545,21.589393060274062L503.61377234171096,21.589393060274062L503.96072544806754,21.589393060274062L504.307678554424,21.589393060274062L505.6954909798501,21.589393060274062L506.73635029891955,21.589393060274062L508.1241627243456,33.305009876305405L508.4711158307021,162.86594878300514L508.8180689370587,228.33557216670977L510.2058813624847,251.7668057987725L510.5528344688412,246.942728286289L510.8997875751977,256.590883311256L511.5936937879107,255.2125754505464L512.2876000006237,255.9017293809012L512.9815062133367,250.3884979380629L513.6754124260498,255.2125754505464L516.4510372769018,243.49695863451507L518.1858028086845,256.590883311256L518.5327559150409,249.01019007735334L521.6553338722495,262.79326868444906L522.0022869786061,251.7668057987725L525.8187711485276,248.32103614699855L527.5535366803102,256.590883311256L528.5943959993798,243.49695863451507L528.9413491057362,249.01019007735334L529.9822084248058,247.6318822166438L530.6761146375188,243.49695863451507L531.0230677438753,242.80780470416028L533.7986925947274,233.15964967919328L534.1456457010839,238.67288112203155L534.4925988074405,233.15964967919328L534.839551913797,234.53795753990283L535.8804112328664,240.05118898274114L536.5743174455795,237.29457326132197L536.921270551936,237.9837271916768L537.2682236582924,226.26811037564542L540.0438485091446,214.55249355961408L541.7786140409271,224.20064858458107L542.1255671472836,235.91626540061242L543.1664264663532,227.64641823635498L545.5950982108487,228.33557216670977L546.2890044235618,215.93080142032363L549.7585354871269,190.43210599719654L551.4933010189094,202.14772281322792L551.8402541252659,186.98633634542261L552.534160337979,202.8368767435827L552.8811134443355,191.81041385790613L554.9628320824746,196.63449137038964L555.309785188831,193.87787564897047L557.3915038269702,146.32625445449028L557.7384569333266,108.42278828497706L560.8610348905353,51.91216599588466L562.2488473159613,21.589393060274062L562.9427535286743,21.589393060274062L564.3305659541003,21.589393060274062L567.453143911309,21.589393060274062L568.147050124022,21.589393060274062L569.1879094430915,21.589393060274062L569.8818156558045,21.589393060274062L570.2287687621609,21.589393060274062L571.9635342939436,21.589393060274062L573.004393613013,21.589393060274062L574.7391591447956,21.589393060274062L575.4330653575087,21.589393060274062L576.8208777829348,21.589393060274062L577.5147839956477,21.589393060274062L577.8617371020042,21.589393060274062L578.2086902083607,21.589393060274062L578.9025964210738,21.589393060274062L579.5965026337868,21.589393060274062L581.3312681655693,21.589393060274062L582.3721274846389,21.589393060274062L583.0660336973519,21.589393060274062L584.1068930164215,21.589393060274062L585.147752335491,21.589393060274062L586.5355647609169,21.589393060274062L587.5764240799865,21.589393060274062L588.9642365054125,21.589393060274062L589.3111896117691,21.589393060274062L589.6581427181256,21.589393060274062L592.0868144626212,21.589393060274062L592.7807206753342,21.589393060274062L593.4746268880472,21.589393060274062L594.5154862071167,21.589393060274062L594.8624393134733,21.589393060274062L596.9441579516123,21.589393060274062L597.2911110579688,21.589393060274062L598.6789234833948,21.589393060274062L600.0667359088209,21.589393060274062L601.1075952278904,21.589393060274062L601.454548334247,21.589393060274062L601.8015014406035,21.589393060274062L602.14845454696,21.589393060274062L602.842360759673,21.589393060274062L603.8832200787426,21.589393060274062L606.3118918232382,21.589393060274062L606.6588449295947,21.589393060274062L608.3936104613772,21.589393060274062L609.0875166740902,21.589393060274062L609.4344697804466,21.589393060274062L609.7814228868032,21.589393060274062L612.9040008440119,21.589393060274062L614.2918132694379,21.589393060274062L614.6387663757944,21.589393060274062L614.9857194821509,21.589393060274062L615.3326725885074,21.589393060274062L616.0265788012204,21.589393060274062L617.761344333003,21.589393060274062L618.1082974393595,21.589393060274062L618.8022036520725,21.589393060274062L619.1491567584291,21.589393060274062L619.4961098647855,21.589393060274062L620.536969183855,21.589393060274062L621.2308753965681,21.589393060274062L621.5778285029246,21.589393060274062L621.924781609281,21.589393060274062L625.0473595664897,21.589393060274062L626.0882188855593,21.589393060274062L629.2107968427678,21.589393060274062L631.2925154809069,21.589393060274062L631.6394685872634,21.589393060274062L633.7211872254024,21.589393060274062L634.068140331759,21.589393060274062L634.4150934381154,21.589393060274062L635.1089996508285,21.589393060274062L637.1907182889676,21.589393060274062L639.2724369271066,21.589393060274062L639.6193900334632,21.589393060274062L642.3950148843152,21.589393060274062L642.7419679906717,21.589393060274062L643.7828273097413,21.589393060274062L644.8236866288108,21.589393060274062L646.2114990542368,21.589393060274062L646.9054052669499,21.589393060274062L648.293217692376,21.589393060274062L650.3749363305149,21.589393060274062L651.7627487559411,21.589393060274062L652.1097018622976,21.589393060274062L653.150561181367,21.589393060274062L653.8444673940801,21.589393060274062L654.8853267131495,21.589393060274062L656.2731391385756,21.589393060274062L656.9670453512887,21.589393060274062L657.6609515640016,21.589393060274062L658.0079046703582,21.589393060274062L658.3548577767148,21.589393060274062L660.7835295212103,21.589393060274062L661.4774357339232,21.589393060274062L661.8243888402799,21.589393060274062L663.9061074784188,21.589393060274062L664.2530605847754,21.589393060274062L664.600013691132,21.589393060274062L665.293919903845,21.589393060274062L665.9878261165579,21.589393060274062L670.151263392836,21.589393060274062L673.2738413500447,21.589393060274062L674.6616537754707,21.589393060274062L676.3964193072533,21.589393060274062L676.7433724136098,21.589393060274062L678.4781379453923,21.589393060274062L678.8250910517489,21.589393060274062L679.1720441581053,21.589393060274062L680.5598565835314,21.589393060274062L680.9068096898878,21.589393060274062L682.988528328027,21.589393060274062L684.376340753453,21.589393060274062L684.7232938598095,21.589393060274062L685.0702469661661,21.589393060274062L685.764153178879,21.589393060274062L686.1111062852355,21.589393060274062L687.8458718170181,21.589393060274062L688.8867311360876,21.589393060274062L689.5806373488007,21.589393060274062L690.6214966678701,21.589393060274062L691.6623559869397,21.589393060274062L692.7032153060093,21.589393060274062L693.3971215187222,21.589393060274062L695.4788401568613,21.589393060274062L695.8257932632179,21.589393060274062L696.5196994759309,21.589393060274062L697.2136056886438,21.589393060274062L700.3361836458524,21.589393060274062L700.683136752209,21.589393060274062L701.0300898585656,21.589393060274062L701.377042964922,21.589393060274062L706.2343864539132,21.589393060274062L707.6221988793392,21.589393060274062L709.0100113047653,21.589393060274062L709.3569644111217,21.589393060274062L710.3978237301912,21.589393060274062L710.7447768365478,21.589393060274062L711.7856361556173,21.589393060274062L712.4795423683303,21.589393060274062L713.1734485810433,21.589393060274062L714.9082141128258,21.589393060274062L715.9490734318954,21.589393060274062L716.6429796446084,21.589393060274062L716.989932750965,21.589393060274062L717.6838389636779,21.589393060274062L718.7246982827475,21.589393060274062L719.765557601817,21.589393060274062L720.4594638145301,21.589393060274062L721.5003231335996,21.589393060274062L722.541182452669,21.589393060274062L722.8881355590256,21.589393060274062L723.9289948780952,21.589393060274062L724.9698541971646,21.589393060274062L727.7454790480168,21.589393060274062L728.0924321543732,21.589393060274062L728.7863383670862,21.589393060274062L730.5211038988689,21.589393060274062L732.2558694306514,21.589393060274062L732.6028225370079,21.589393060274062L732.9497756433644,21.589393060274062L733.6436818560774,21.589393060274062L733.990634962434,21.589393060274062L734.6845411751469,21.589393060274062L735.37844738786,21.589393060274062L736.4193067069295,21.589393060274062L736.7662598132861,21.589393060274062L738.154072238712,21.589393060274062L739.8888377704945,21.589393060274062L740.5827439832076,21.589393060274062L742.6644626213467,21.589393060274062L743.0114157277033,21.589393060274062L743.3583688340597,21.589393060274062L743.7053219404163,21.589393060274062L744.0522750467727,21.589393060274062L745.0931343658423,21.589393060274062L745.7870405785552,21.589393060274062L746.8278998976248,21.589393060274062L747.1748530039813,21.589393060274062L748.2157123230509,21.589393060274062L748.9096185357639,21.589393060274062L749.6035247484768,21.589393060274062L749.9504778548335,21.589393060274062L750.2974309611899,21.589393060274062L751.685243386616,21.589393060274062L753.073055812042,21.589393060274062L753.4200089183985,21.589393060274062L753.766962024755,21.589393060274062L755.1547744501811,21.589393060274062L755.5017275565376,21.589393060274062L756.1956337692507,21.589393060274062L756.5425868756071,21.589393060274062L757.2364930883202,21.589393060274062L757.5834461946766,21.589393060274062L757.9303993010332,21.589393060274062L758.6243055137462,21.589393060274062L758.9712586201027,21.589393060274062L759.6651648328158,21.589393060274062L760.7060241518852,21.589393060274062L761.3999303645983,21.589393060274062L761.7468834709548,21.589393060274062L763.8286021090938,21.589393060274062L764.1755552154503,21.589393060274062L764.5225083218069,21.589393060274062L765.910320747233,21.589393060274062L766.6042269599459,21.589393060274062L767.2981331726589,21.589393060274062L768.685945598085,21.589393060274062L771.1146173425806,21.589393060274062L772.1554766616501,21.589393060274062L772.8493828743631,21.589393060274062L773.5432890870761,21.589393060274062L773.8902421934326,21.589393060274062L775.2780546188586,21.589393060274062L775.9719608315718,21.589393060274062L776.3189139379282,21.589393060274062L776.6658670442847,21.589393060274062L777.7067263633543,21.589393060274062L778.0536794697107,21.589393060274062L779.0945387887803,21.589393060274062L779.4414918951369,21.589393060274062L780.4823512142062,21.589393060274062L781.5232105332758,21.589393060274062L782.9110229587019,21.589393060274062L784.9927415968409,21.589393060274062L785.3396947031974,21.589393060274062L786.380554022267,21.589393060274062L786.7275071286236,21.589393060274062L787.4214133413366,21.589393060274062L788.1153195540496,21.589393060274062L788.4622726604061,21.589393060274062L789.1561788731192,21.589393060274062L789.5031319794756,21.589393060274062L790.1970381921886,21.589393060274062L790.5439912985452,21.589393060274062L790.8909444049017,21.589393060274062L791.2378975112581,21.589393060274062L791.9318037239713,21.589393060274062L792.6257099366842,21.589393060274062L792.9726630430408,21.589393060274062L794.3604754684668,21.589393060274062L794.7074285748233,21.589393060274062L795.4013347875364,21.589393060274062L796.4421941066058,21.589393060274062L797.1361003193189,21.589393060274062L798.1769596383884,21.589393060274062L802.3403969146665,21.589393060274062L803.7282093400925,21.589393060274062L804.769068659162,21.589393060274062L806.5038341909446,21.589393060274062L807.1977404036577,21.589393060274062L808.2385997227271,21.589393060274062L810.3203183608663,21.589393060274062L810.6672714672228,21.589393060274062L811.3611776799358,21.589393060274062L812.4020369990053,21.589393060274062L813.4428963180749,21.589393060274062L813.7898494244314,21.589393060274062L814.1368025307879,21.589393060274062L817.2593804879964,21.589393060274062L817.606333594353,21.589393060274062L817.9532867007094,21.589393060274062L818.300239807066,21.589393060274062L818.994146019779,21.589393060274062L819.688052232492,21.589393060274062L820.7289115515615,21.589393060274062L822.4636770833441,21.589393060274062L823.1575832960572,21.589393060274062L823.5045364024136,21.589393060274062L823.8514895087702,21.589393060274062L824.1984426151266,21.589393060274062L826.9740674659787,21.589393060274062L830.0966454231874,21.589393060274062L831.8314109549699,21.589393060274062L834.607035805822,21.589393060274062L834.9539889121785,21.589393060274062L835.994848231248,21.589393060274062L837.3826606566741,21.589393060274062L838.4235199757437,21.589393060274062L839.8113324011697,21.589393060274062L840.8521917202393,21.589393060274062L841.8930510393087,21.589393060274062L842.2400041456652,21.589393060274062L842.5869572520218,21.589393060274062L843.2808634647348,21.589393060274062L846.0564883155869,21.589393060274062L846.7503945282998,21.589393060274062L847.4443007410129,21.589393060274062L848.1382069537259,21.589393060274062L849.8729724855085,21.589393060274062L851.607738017291,21.589393060274062L854.3833628681432,21.589393060274062L854.7303159744996,21.589393060274062L855.0772690808561,21.589393060274062L856.4650815062821,21.589393060274062L857.5059408253517,21.589393060274062L858.5468001444212,21.589393060274062L861.3224249952733,21.589393060274062L862.0163312079864,21.589393060274062L863.4041436334123,21.589393060274062L863.7510967397689,21.589393060274062L864.0980498461254,21.589393060274062L864.4450029524819,21.589393060274062L865.138909165195,21.589393060274062L865.832815377908,21.589393060274062L866.8736746969776,21.589393060274062L867.914534016047,21.589393060274062L868.2614871224035,21.589393060274062L868.9553933351165,21.589393060274062L869.6492995478295,21.589393060274062L872.0779712923252,21.589393060274062L873.4657837177512,21.589393060274062L874.1596899304642,21.589393060274062L874.8535961431772,21.589393060274062L875.5475023558903,21.589393060274062L875.8944554622467,21.589393060274062L876.5883616749599,21.589393060274062L877.6292209940292,21.589393060274062L878.3231272067424,21.589393060274062L879.3639865258119,21.589393060274062L880.0578927385249,21.589393060274062L881.0987520575944,21.589393060274062L881.445705163951,21.589393060274062L881.7926582703075,21.589393060274062L885.2621893338726,21.589393060274062L885.6091424402291,21.589393060274062L886.303048652942,21.589393060274062L886.6500017592986,21.589393060274062L886.9969548656551,21.589393060274062L887.3439079720116,21.589393060274062L888.3847672910811,21.589393060274062L888.7317203974376,21.589393060274062L889.4256266101506,21.589393060274062L890.4664859292202,21.589393060274062L891.1603921419331,21.589393060274062L891.8542983546463,21.589393060274062L892.5482045673593,21.589393060274062L895.6707825245678,21.589393060274062L896.0177356309243,21.589393060274062L897.0585949499939,21.589393060274062L897.752501162707,21.589393060274062L898.4464073754199,21.589393060274062L899.1403135881329,21.589393060274062L899.834219800846,21.589393060274062L900.1811729072025,21.589393060274062L901.2220322262721,21.589393060274062L903.3037508644111,21.589393060274062L903.6507039707676,21.589393060274062L905.0385163961937,21.589393060274062L906.0793757152633,21.589393060274062L907.1202350343326,21.589393060274062L907.8141412470458,21.589393060274062L908.1610943534022,21.589393060274062L909.5489067788283,21.589393060274062L910.9367192042544,21.589393060274062L911.9775785233238,21.589393060274062L912.3245316296805,21.589393060274062L912.6714847360369,21.589393060274062L913.0184378423934,21.589393060274062L914.059297161463,21.589393060274062L915.4471095868889,21.589393060274062L916.141015799602,21.589393060274062L917.5288282250281,21.589393060274062L917.8757813313845,21.589393060274062L918.5696875440976,21.589393060274062L918.916640650454,21.589393060274062L920.6514061822365,21.589393060274062L921.6922655013061,21.589393060274062L922.0392186076627,21.589393060274062L922.7331248203757,21.589393060274062L923.4270310330887,21.589393060274062L924.1209372458017,21.589393060274062L924.4678903521583,21.589393060274062L925.5087496712277,21.589393060274062L925.8557027775843,21.589393060274062L926.5496089902973,21.589393060274062L927.5904683093668,21.589393060274062L927.9374214157233,21.589393060274062L928.6313276284363,21.589393060274062L930.7130462665755,21.589393060274062L931.7539055856449,21.589393060274062L932.7947649047145,21.589393060274062L933.141718011071,21.589393060274062L934.5295304364971,21.589393060274062L936.611249074636,21.589393060274062L941.1216394572707,21.589393060274062L942.5094518826968,21.589393060274062L943.2033580954098,21.589393060274062L944.9381236271923,21.589393060274062L945.9789829462619,21.589393060274062L946.672889158975,21.589393060274062L948.060701584401,21.589393060274062L949.7954671161835,21.589393060274062L951.1832795416095,21.589393060274062L952.5710919670355,21.589393060274062L953.6119512861051,21.589393060274062L956.7345292433138,21.589393060274062L958.8162478814527,21.589393060274062L962.2857789450179,21.589393060274062L962.6327320513744,21.589393060274062L962.979685157731,21.589393060274062L964.0205444768005,21.589393060274062L964.3674975831569,21.589393060274062L966.1022631149394,21.589393060274062L966.7961693276525,21.589393060274062L968.1839817530786,21.589393060274062L968.5309348594351,21.589393060274062L968.8778879657916,21.589393060274062L969.2248410721481,21.589393060274062L969.5717941785045,21.589393060274062L969.9187472848611,21.589393060274062L970.2657003912177,21.589393060274062L973.0413252420697,21.589393060274062L974.0821845611392,21.589393060274062L976.1639031992784,21.589393060274062L977.5517156247043,21.589393060274062L981.0212466882693,21.589393060274062L981.368199794626,21.589393060274062L981.7151529009825,21.589393060274062L984.143824645478,21.589393060274062L985.8785901772605,21.589393060274062L986.9194494963301,21.589393060274062L987.6133557090432,21.589393060274062L987.9603088153997,21.589393060274062L988.3072619217561,21.589393060274062L988.6542150281127,21.589393060274062L990.0420274535387,21.589393060274062L992.8176523043908,21.589393060274062L993.1646054107473,21.589393060274062L994.2054647298169,21.589393060274062L994.8993709425299,21.589393060274062L995.2463240488864,21.589393060274062L995.9402302615995,21.589393060274062L997.674995793382,21.589393060274062L1000.1036675378775,21.589393060274062L1000.7975737505906,21.589393060274062L1001.83843306966,21.589393060274062L1002.5323392823731,21.589393060274062L1004.2671048141556,21.589393060274062L1005.3079641332251,21.589393060274062L1006.3488234522947,21.589393060274062L1009.4714014095034,21.589393060274062L1009.8183545158598,21.589393060274062L1010.8592138349294,21.589393060274062L1011.900073153999,21.589393060274062L1012.5939793667119,21.589393060274062L1012.9409324730684,21.589393060274062L1015.0226511112074,21.589393060274062L1016.063510430277,21.589393060274062L1016.4104635366335,21.589393060274062L1017.1043697493466,21.589393060274062L1018.1452290684161,21.589393060274062L1018.8391352811291,21.589393060274062L1019.5330414938421,21.589393060274062L1020.5739008129117,21.589393060274062L1020.9208539192682,21.589393060274062L1021.2678070256246,21.589393060274062L1023.6964787701203,21.589393060274062L1025.4312443019028,21.589393060274062L1026.1251505146158,21.589393060274062L1026.4721036209723,21.589393060274062L1026.8190567273289,21.589393060274062L1028.206869152755,21.589393060274062L1028.5538222591115,21.589393060274062L1030.288587790894,21.589393060274062L1030.6355408972504,21.589393060274062L1032.0233533226765,21.589393060274062L1033.064212641746,21.589393060274062L1033.4111657481026,21.589393060274062L1034.1050719608156,21.589393060274062L1036.5337437053113,21.589393060274062L1036.8806968116676,21.589393060274062L1038.6154623434502,21.589393060274062L1042.7788996197285,21.589393060274062L1044.5136651515108,21.589393060274062L1045.207571364224,21.589393060274062L1045.5545244705804,21.589393060274062L1046.59538378965,21.589393060274062L1046.9423368960065,21.589393060274062L1050.0649148532152,21.589393060274062L1052.1466334913541,21.589393060274062L1053.5344459167802,21.589393060274062L1053.8813990231367,21.589393060274062" fill="none"></path></g></g></g></g></g></g><g transform="translate(39, 378)" clip-path="url(#clip_1)"><clipPath id="clip_1"><rect width="1072" height="21"></rect></clipPath><g><g><line x1="13.022079953605008" y1="0" x2="13.022079953605008" y2="5" style="visibility: inherit;" fill="rgb(0, 0, 0)" stroke="rgb(204, 204, 204)" stroke-width="1px"></line><line x1="82.41270122490712" y1="0" x2="82.41270122490712" y2="5" style="visibility: inherit;" fill="rgb(0, 0, 0)" stroke="rgb(204, 204, 204)" stroke-width="1px"></line><line x1="151.80332249620923" y1="0" x2="151.80332249620923" y2="5" style="visibility: inherit;" fill="rgb(0, 0, 0)" stroke="rgb(204, 204, 204)" stroke-width="1px"></line><line x1="221.19394376751137" y1="0" x2="221.19394376751137" y2="5" style="visibility: inherit;" fill="rgb(0, 0, 0)" stroke="rgb(204, 204, 204)" stroke-width="1px"></line><line x1="290.5845650388135" y1="0" x2="290.5845650388135" y2="5" style="visibility: inherit;" fill="rgb(0, 0, 0)" stroke="rgb(204, 204, 204)" stroke-width="1px"></line><line x1="359.97518631011565" y1="0" x2="359.97518631011565" y2="5" style="visibility: inherit;" fill="rgb(0, 0, 0)" stroke="rgb(204, 204, 204)" stroke-width="1px"></line><line x1="429.3658075814177" y1="0" x2="429.3658075814177" y2="5" style="visibility: inherit;" fill="rgb(0, 0, 0)" stroke="rgb(204, 204, 204)" stroke-width="1px"></line><line x1="498.7564288527198" y1="0" x2="498.7564288527198" y2="5" style="visibility: inherit;" fill="rgb(0, 0, 0)" stroke="rgb(204, 204, 204)" stroke-width="1px"></line><line x1="568.147050124022" y1="0" x2="568.147050124022" y2="5" style="visibility: inherit;" fill="rgb(0, 0, 0)" stroke="rgb(204, 204, 204)" stroke-width="1px"></line><line x1="637.5376713953241" y1="0" x2="637.5376713953241" y2="5" style="visibility: inherit;" fill="rgb(0, 0, 0)" stroke="rgb(204, 204, 204)" stroke-width="1px"></line><line x1="706.9282926666261" y1="0" x2="706.9282926666261" y2="5" style="visibility: inherit;" fill="rgb(0, 0, 0)" stroke="rgb(204, 204, 204)" stroke-width="1px"></line><line x1="776.3189139379282" y1="0" x2="776.3189139379282" y2="5" style="visibility: inherit;" fill="rgb(0, 0, 0)" stroke="rgb(204, 204, 204)" stroke-width="1px"></line><line x1="845.7095352092302" y1="0" x2="845.7095352092302" y2="5" style="visibility: inherit;" fill="rgb(0, 0, 0)" stroke="rgb(204, 204, 204)" stroke-width="1px"></line><line x1="915.1001564805324" y1="0" x2="915.1001564805324" y2="5" style="visibility: inherit;" fill="rgb(0, 0, 0)" stroke="rgb(204, 204, 204)" stroke-width="1px"></line><line x1="984.4907777518346" y1="0" x2="984.4907777518346" y2="5" style="visibility: inherit;" fill="rgb(0, 0, 0)" stroke="rgb(204, 204, 204)" stroke-width="1px"></line><line x1="1053.8813990231367" y1="0" x2="1053.8813990231367" y2="5" style="visibility: inherit;" fill="rgb(0, 0, 0)" stroke="rgb(204, 204, 204)" stroke-width="1px"></line></g><g transform="translate(0, 8)"><text style="text-anchor: middle; visibility: inherit; font-family: &quot;Helvetica Neue&quot;, sans-serif; font-size: 12px; font-weight: 200;" x="13.022079953605008" y="0" dx="0em" dy="0.95em" fill="rgb(50, 49, 63)" stroke="none" stroke-width="1px">0</text><text style="text-anchor: middle; visibility: inherit; font-family: &quot;Helvetica Neue&quot;, sans-serif; font-size: 12px; font-weight: 200;" x="82.41270122490712" y="0" dx="0em" dy="0.95em" fill="rgb(50, 49, 63)" stroke="none" stroke-width="1px">200</text><text style="text-anchor: middle; visibility: inherit; font-family: &quot;Helvetica Neue&quot;, sans-serif; font-size: 12px; font-weight: 200;" x="151.80332249620923" y="0" dx="0em" dy="0.95em" fill="rgb(50, 49, 63)" stroke="none" stroke-width="1px">400</text><text style="text-anchor: middle; visibility: inherit; font-family: &quot;Helvetica Neue&quot;, sans-serif; font-size: 12px; font-weight: 200;" x="221.19394376751137" y="0" dx="0em" dy="0.95em" fill="rgb(50, 49, 63)" stroke="none" stroke-width="1px">600</text><text style="text-anchor: middle; visibility: inherit; font-family: &quot;Helvetica Neue&quot;, sans-serif; font-size: 12px; font-weight: 200;" x="290.5845650388135" y="0" dx="0em" dy="0.95em" fill="rgb(50, 49, 63)" stroke="none" stroke-width="1px">800</text><text style="text-anchor: middle; visibility: inherit; font-family: &quot;Helvetica Neue&quot;, sans-serif; font-size: 12px; font-weight: 200;" x="359.97518631011565" y="0" dx="0em" dy="0.95em" fill="rgb(50, 49, 63)" stroke="none" stroke-width="1px">1k</text><text style="text-anchor: middle; visibility: inherit; font-family: &quot;Helvetica Neue&quot;, sans-serif; font-size: 12px; font-weight: 200;" x="429.3658075814177" y="0" dx="0em" dy="0.95em" fill="rgb(50, 49, 63)" stroke="none" stroke-width="1px">1.2k</text><text style="text-anchor: middle; visibility: inherit; font-family: &quot;Helvetica Neue&quot;, sans-serif; font-size: 12px; font-weight: 200;" x="498.7564288527198" y="0" dx="0em" dy="0.95em" fill="rgb(50, 49, 63)" stroke="none" stroke-width="1px">1.4k</text><text style="text-anchor: middle; visibility: inherit; font-family: &quot;Helvetica Neue&quot;, sans-serif; font-size: 12px; font-weight: 200;" x="568.147050124022" y="0" dx="0em" dy="0.95em" fill="rgb(50, 49, 63)" stroke="none" stroke-width="1px">1.6k</text><text style="text-anchor: middle; visibility: inherit; font-family: &quot;Helvetica Neue&quot;, sans-serif; font-size: 12px; font-weight: 200;" x="637.5376713953241" y="0" dx="0em" dy="0.95em" fill="rgb(50, 49, 63)" stroke="none" stroke-width="1px">1.8k</text><text style="text-anchor: middle; visibility: inherit; font-family: &quot;Helvetica Neue&quot;, sans-serif; font-size: 12px; font-weight: 200;" x="706.9282926666261" y="0" dx="0em" dy="0.95em" fill="rgb(50, 49, 63)" stroke="none" stroke-width="1px">2k</text><text style="text-anchor: middle; visibility: inherit; font-family: &quot;Helvetica Neue&quot;, sans-serif; font-size: 12px; font-weight: 200;" x="776.3189139379282" y="0" dx="0em" dy="0.95em" fill="rgb(50, 49, 63)" stroke="none" stroke-width="1px">2.2k</text><text style="text-anchor: middle; visibility: inherit; font-family: &quot;Helvetica Neue&quot;, sans-serif; font-size: 12px; font-weight: 200;" x="845.7095352092302" y="0" dx="0em" dy="0.95em" fill="rgb(50, 49, 63)" stroke="none" stroke-width="1px">2.4k</text><text style="text-anchor: middle; visibility: inherit; font-family: &quot;Helvetica Neue&quot;, sans-serif; font-size: 12px; font-weight: 200;" x="915.1001564805324" y="0" dx="0em" dy="0.95em" fill="rgb(50, 49, 63)" stroke="none" stroke-width="1px">2.6k</text><text style="text-anchor: middle; visibility: inherit; font-family: &quot;Helvetica Neue&quot;, sans-serif; font-size: 12px; font-weight: 200;" x="984.4907777518346" y="0" dx="0em" dy="0.95em" fill="rgb(50, 49, 63)" stroke="none" stroke-width="1px">2.8k</text><text style="text-anchor: middle; visibility: inherit; font-family: &quot;Helvetica Neue&quot;, sans-serif; font-size: 12px; font-weight: 200;" x="1053.8813990231367" y="0" dx="0em" dy="0.95em" fill="rgb(50, 49, 63)" stroke="none" stroke-width="1px">3k</text></g><line x1="0" y1="0" x2="1072.611999130249" y2="0" fill="rgb(0, 0, 0)" stroke="rgb(204, 204, 204)" stroke-width="1px"></line></g></g></g></g></svg>