<svg viewBox="0 0 1129.4000244140625 400" xmlns="http://www.w3.org/2000/svg"><g><g><g><g><g><line x1="49.98400115966797" y1="373.4044481416766" x2="44.98400115966797" y2="373.4044481416766" style="visibility: inherit;" fill="rgb(0, 0, 0)" stroke="rgb(204, 204, 204)" stroke-width="1px"></line><line x1="49.98400115966797" y1="336.9857445050416" x2="44.98400115966797" y2="336.9857445050416" style="visibility: inherit;" fill="rgb(0, 0, 0)" stroke="rgb(204, 204, 204)" stroke-width="1px"></line><line x1="49.98400115966797" y1="300.5670408684066" x2="44.98400115966797" y2="300.5670408684066" style="visibility: inherit;" fill="rgb(0, 0, 0)" stroke="rgb(204, 204, 204)" stroke-width="1px"></line><line x1="49.98400115966797" y1="264.14833723177156" x2="44.98400115966797" y2="264.14833723177156" style="visibility: inherit;" fill="rgb(0, 0, 0)" stroke="rgb(204, 204, 204)" stroke-width="1px"></line><line x1="49.98400115966797" y1="227.72963359513656" x2="44.98400115966797" y2="227.72963359513656" style="visibility: inherit;" fill="rgb(0, 0, 0)" stroke="rgb(204, 204, 204)" stroke-width="1px"></line><line x1="49.98400115966797" y1="191.31092995850156" x2="44.98400115966797" y2="191.31092995850156" style="visibility: inherit;" fill="rgb(0, 0, 0)" stroke="rgb(204, 204, 204)" stroke-width="1px"></line><line x1="49.98400115966797" y1="154.89222632186656" x2="44.98400115966797" y2="154.89222632186656" style="visibility: inherit;" fill="rgb(0, 0, 0)" stroke="rgb(204, 204, 204)" stroke-width="1px"></line><line x1="49.98400115966797" y1="118.4735226852315" x2="44.98400115966797" y2="118.4735226852315" style="visibility: inherit;" fill="rgb(0, 0, 0)" stroke="rgb(204, 204, 204)" stroke-width="1px"></line><line x1="49.98400115966797" y1="82.05481904859653" x2="44.98400115966797" y2="82.05481904859653" style="visibility: inherit;" fill="rgb(0, 0, 0)" stroke="rgb(204, 204, 204)" stroke-width="1px"></line><line x1="49.98400115966797" y1="45.6361154119615" x2="44.98400115966797" y2="45.6361154119615" style="visibility: inherit;" fill="rgb(0, 0, 0)" stroke="rgb(204, 204, 204)" stroke-width="1px"></line><line x1="49.98400115966797" y1="9.217411775326525" x2="44.98400115966797" y2="9.217411775326525" style="visibility: inherit;" fill="rgb(0, 0, 0)" stroke="rgb(204, 204, 204)" stroke-width="1px"></line></g><g transform="translate(39.98400115966797, 0)"><text style="text-anchor: end; visibility: inherit; font-family: &quot;Helvetica Neue&quot;, sans-serif; font-size: 12px; font-weight: 200;" x="0" y="373.4044481416766" dx="0em" dy="0.3em" fill="rgb(50, 49, 63)" stroke="none" stroke-width="1px">-700</text><text style="text-anchor: end; visibility: inherit; font-family: &quot;Helvetica Neue&quot;, sans-serif; font-size: 12px; font-weight: 200;" x="0" y="336.9857445050416" dx="0em" dy="0.3em" fill="rgb(50, 49, 63)" stroke="none" stroke-width="1px">-600</text><text style="text-anchor: end; visibility: inherit; font-family: &quot;Helvetica Neue&quot;, sans-serif; font-size: 12px; font-weight: 200;" x="0" y="300.5670408684066" dx="0em" dy="0.3em" fill="rgb(50, 49, 63)" stroke="none" stroke-width="1px">-500</text><text style="text-anchor: end; visibility: inherit; font-family: &quot;Helvetica Neue&quot;, sans-serif; font-size: 12px; font-weight: 200;" x="0" y="264.14833723177156" dx="0em" dy="0.3em" fill="rgb(50, 49, 63)" stroke="none" stroke-width="1px">-400</text><text style="text-anchor: end; visibility: inherit; font-family: &quot;Helvetica Neue&quot;, sans-serif; font-size: 12px; font-weight: 200;" x="0" y="227.72963359513656" dx="0em" dy="0.3em" fill="rgb(50, 49, 63)" stroke="none" stroke-width="1px">-300</text><text style="text-anchor: end; visibility: inherit; font-family: &quot;Helvetica Neue&quot;, sans-serif; font-size: 12px; font-weight: 200;" x="0" y="191.31092995850156" dx="0em" dy="0.3em" fill="rgb(50, 49, 63)" stroke="none" stroke-width="1px">-200</text><text style="text-anchor: end; visibility: inherit; font-family: &quot;Helvetica Neue&quot;, sans-serif; font-size: 12px; font-weight: 200;" x="0" y="154.89222632186656" dx="0em" dy="0.3em" fill="rgb(50, 49, 63)" stroke="none" stroke-width="1px">-100</text><text style="text-anchor: end; visibility: inherit; font-family: &quot;Helvetica Neue&quot;, sans-serif; font-size: 12px; font-weight: 200;" x="0" y="118.4735226852315" dx="0em" dy="0.3em" fill="rgb(50, 49, 63)" stroke="none" stroke-width="1px">0</text><text style="text-anchor: end; visibility: inherit; font-family: &quot;Helvetica Neue&quot;, sans-serif; font-size: 12px; font-weight: 200;" x="0" y="82.05481904859653" dx="0em" dy="0.3em" fill="rgb(50, 49, 63)" stroke="none" stroke-width="1px">100</text><text style="text-anchor: end; visibility: inherit; font-family: &quot;Helvetica Neue&quot;, sans-serif; font-size: 12px; font-weight: 200;" x="0" y="45.6361154119615" dx="0em" dy="0.3em" fill="rgb(50, 49, 63)" stroke="none" stroke-width="1px">200</text><text style="text-anchor: end; visibility: inherit; font-family: &quot;Helvetica Neue&quot;, sans-serif; font-size: 12px; font-weight: 200;" x="0" y="9.217411775326525" dx="0em" dy="0.3em" fill="rgb(50, 49, 63)" stroke="none" stroke-width="1px">300</text></g><line x1="49.98400115966797" y1="0" x2="49.98400115966797" y2="378.60799980163574" fill="rgb(0, 0, 0)" stroke="rgb(204, 204, 204)" stroke-width="1px"></line></g></g><g transform="translate(49, 0)" clip-path="url(#clip_0)"><clipPath id="clip_0"><rect width="1079" height="378"></rect></clipPath><g><g><g><line x1="16.61350217390509" y1="0" x2="16.61350217390509" y2="378.60799980163574" fill="rgb(0, 0, 0)" stroke="rgb(60, 60, 60)" stroke-width="1px" opacity="0.25"></line><line x1="121.63070158394174" y1="0" x2="121.63070158394174" y2="378.60799980163574" fill="rgb(0, 0, 0)" stroke="rgb(60, 60, 60)" stroke-width="1px" opacity="0.25"></line><line x1="226.6479009939784" y1="0" x2="226.6479009939784" y2="378.60799980163574" fill="rgb(0, 0, 0)" stroke="rgb(60, 60, 60)" stroke-width="1px" opacity="0.25"></line><line x1="331.66510040401505" y1="0" x2="331.66510040401505" y2="378.60799980163574" fill="rgb(0, 0, 0)" stroke="rgb(60, 60, 60)" stroke-width="1px" opacity="0.25"></line><line x1="436.6822998140517" y1="0" x2="436.6822998140517" y2="378.60799980163574" fill="rgb(0, 0, 0)" stroke="rgb(60, 60, 60)" stroke-width="1px" opacity="0.25"></line><line x1="541.6994992240883" y1="0" x2="541.6994992240883" y2="378.60799980163574" fill="rgb(0, 0, 0)" stroke="rgb(60, 60, 60)" stroke-width="1px" opacity="0.25"></line><line x1="646.7166986341249" y1="0" x2="646.7166986341249" y2="378.60799980163574" fill="rgb(0, 0, 0)" stroke="rgb(60, 60, 60)" stroke-width="1px" opacity="0.25"></line><line x1="751.7338980441616" y1="0" x2="751.7338980441616" y2="378.60799980163574" fill="rgb(0, 0, 0)" stroke="rgb(60, 60, 60)" stroke-width="1px" opacity="0.25"></line><line x1="856.7510974541982" y1="0" x2="856.7510974541982" y2="378.60799980163574" fill="rgb(0, 0, 0)" stroke="rgb(60, 60, 60)" stroke-width="1px" opacity="0.25"></line><line x1="961.7682968642349" y1="0" x2="961.7682968642349" y2="378.60799980163574" fill="rgb(0, 0, 0)" stroke="rgb(60, 60, 60)" stroke-width="1px" opacity="0.25"></line><line x1="1066.7854962742715" y1="0" x2="1066.7854962742715" y2="378.60799980163574" fill="rgb(0, 0, 0)" stroke="rgb(60, 60, 60)" stroke-width="1px" opacity="0.25"></line></g><g><line x1="0" y1="373.4044481416766" x2="1079.4159988403321" y2="373.4044481416766" fill="rgb(0, 0, 0)" stroke="rgb(60, 60, 60)" stroke-width="1px" opacity="0.25"></line><line x1="0" y1="336.9857445050416" x2="1079.4159988403321" y2="336.9857445050416" fill="rgb(0, 0, 0)" stroke="rgb(60, 60, 60)" stroke-width="1px" opacity="0.25"></line><line x1="0" y1="300.5670408684066" x2="1079.4159988403321" y2="300.5670408684066" fill="rgb(0, 0, 0)" stroke="rgb(60, 60, 60)" stroke-width="1px" opacity="0.25"></line><line x1="0" y1="264.14833723177156" x2="1079.4159988403321" y2="264.14833723177156" fill="rgb(0, 0, 0)" stroke="rgb(60, 60, 60)" stroke-width="1px" opacity="0.25"></line><line x1="0" y1="227.72963359513656" x2="1079.4159988403321" y2="227.72963359513656" fill="rgb(0, 0, 0)" stroke="rgb(60, 60, 60)" stroke-width="1px" opacity="0.25"></line><line x1="0" y1="191.31092995850156" x2="1079.4159988403321" y2="191.31092995850156" fill="rgb(0, 0, 0)" stroke="rgb(60, 60, 60)" stroke-width="1px" opacity="0.25"></line><line x1="0" y1="154.89222632186656" x2="1079.4159988403321" y2="154.89222632186656" fill="rgb(0, 0, 0)" stroke="rgb(60, 60, 60)" stroke-width="1px" opacity="0.25"></line><line x1="0" y1="118.4735226852315" x2="1079.4159988403321" y2="118.4735226852315" fill="rgb(0, 0, 0)" stroke="rgb(60, 60, 60)" stroke-width="1px" opacity="0.25"></line><line x1="0" y1="82.05481904859653" x2="1079.4159988403321" y2="82.05481904859653" fill="rgb(0, 0, 0)" stroke="rgb(60, 60, 60)" stroke-width="1px" opacity="0.25"></line><line x1="0" y1="45.6361154119615" x2="1079.4159988403321" y2="45.6361154119615" fill="rgb(0, 0, 0)" stroke="rgb(60, 60, 60)" stroke-width="1px" opacity="0.25"></line><line x1="0" y1="9.217411775326525" x2="1079.4159988403321" y2="9.217411775326525" fill="rgb(0, 0, 0)" stroke="rgb(60, 60, 60)" stroke-width="1px" opacity="0.25"></line></g></g></g><g><g><line x1="0" y1="118.4735226852315" x2="1079.4159988403321" y2="118.4735226852315" fill="rgb(0, 0, 0)" stroke="rgb(153, 153, 153)" stroke-width="1.5px"></line></g></g><g><g><line x1="16.61350217390509" y1="0" x2="16.61350217390509" y2="378.60799980163574" fill="rgb(0, 0, 0)" stroke="rgb(153, 153, 153)" stroke-width="1.5px"></line></g></g><g><g><g><g><g><path style="fill: none;" stroke="rgb(0, 153, 136)" stroke-width="2px" d="M19.76401815620619,147.5974048305241L20.289104153256375,271.50309709857555L22.389448141457105,246.51120629218815L22.91453413850729,229.9534440174848L23.964706132607656,211.95480454116162L24.48979212965784,260.72715967759075L25.014878126708023,232.07061458955425L26.06505012080839,262.19559986291995L26.590136117858574,321.51019610643993L27.115222114908754,293.75819479064313L27.640308111958937,278.8003748074179L29.74065210015967,316.1505516959408L34.46642607361132,240.33441944166327L34.99151207066151,283.9686231927319L36.041684064761874,307.65784070976804L37.61694205591242,256.7792735101152L38.14202805296261,365.3511444635416L39.192200047062975,316.9482111075623L40.24237204116334,313.72011892272934L40.76745803821352,214.9672941772131L41.817630032313886,130.04382210141478L42.86780202641425,238.1057299266342L43.39288802346444,158.27767758123542L44.96814601461499,207.3131036146003L45.49323201166517,140.25244482698054L46.018318008715354,221.52463914273494L46.54340400576554,201.596524122118L47.068490002815714,161.42696519510417L48.64374799396627,202.27158938381768L49.16883399101645,235.262474787737L50.219005985116816,170.11126114626973L51.26917797921718,40.37813728915654L51.79426397626737,135.2050692943698L52.31934997331755,116.48399189370184L52.84443597036773,123.50247762854045L54.419693961518284,143.85323745363203L54.94477995856847,170.6430044497338L55.46986595561865,139.93677225402723L55.994951952668835,222.14243897154645L57.0451239467692,142.2908858483035L58.62038193791975,128.99859388729908L61.24581192317067,103.13170893888872L61.770897920220854,110.7771721495024L62.29598391727104,126.7919387827097L62.82106991432122,126.64895094229584L63.346155911371405,110.50609145505774L63.87124190842159,62.37980557153338L66.4966718936725,77.96494739417221L70.69735987007397,34.8563436242913L72.27261786122452,53.29683551204579L72.7977038582747,135.24511619801928L76.47330583762597,119.64283494732058L78.04856382877654,117.67647550457696L79.0987358228769,123.51510533723129L79.62382181992709,152.6431007438151L80.14890781697727,82.1796165700992L82.24925180517799,116.38587691029738L82.77433780222817,132.28725239460147L83.29942379927837,141.9148789598505L84.87468179042891,157.61073673126626L85.3997677874791,155.54593304971803L86.97502577862964,151.76606160622657L89.07536976683038,140.9696922900092L90.12554176093074,147.10159065431262L91.17571375503111,124.55758593587163L91.70079975208131,152.1781643335272L92.22588574913148,115.75879541343329L92.75097174618166,110.47533802819873L94.8513157343824,181.24920168172622L95.90148772848276,147.24990006776574L97.4767457196333,104.18458574205744L98.0018317166835,134.95336812821412L98.52691771373368,152.94477926763008L99.57708970783403,141.20092405082343L100.10217570488423,152.73397245573193L100.62726170193442,161.37058055514305L102.20251969308497,195.6481321567655L103.25269168718532,141.35618116999888L103.7777776842355,102.60124653617964L104.82794967833588,118.19394920721169L105.35303567538605,152.85914507832334L106.92829366653662,100.02176803997042L109.55372365178752,161.99909993951414L110.0788096488377,165.65657728699773L110.6038956458879,184.0810815327902L111.65406763998826,157.6605529343837L112.17915363703845,115.86952803336976L113.2293256311388,122.39556404037376L114.27949762523919,55.413133626767944L114.80458362228936,110.70029170819731L115.32966961933954,119.04588626735438L115.85475561638972,122.21771020644138L116.90492761049009,35.51234263657426L117.43001360754027,35.62623999828941L121.10561558689156,152.64974975792967L123.2059595750923,145.71687303200065L125.30630356329303,84.11953659582065L125.83138956034321,69.53607305625775L126.35647555739338,66.38045040177843L128.45681954559413,69.76824118053065L130.03207753674468,129.65116002998798L131.60733552789523,109.48124303880115L132.1324215249454,140.64710952144245L133.70767951609596,112.58879926727906L134.23276551314615,120.35685419660382L135.28293750724652,69.80851314483346L135.8080235042967,57.87297988239345L136.3331095013469,124.44708601753658L137.38328149544725,61.378908054427484L137.90836749249743,120.77746789814586L138.9585394865978,101.81758534148634L139.48362548364798,71.90717317280291L140.00871148069817,81.52635440650107L141.58396947184872,132.43243596564804L143.15922746299927,121.1301711104843L145.7846574482502,143.04161316740135L146.83482944235055,43.44087935699912L147.88500143645092,129.36499957714244L148.41008743350108,170.77353407157847L151.03551741875202,158.31377897713622L152.61077540990254,132.41946441429246L153.13586140695276,145.3050926137837L153.66094740400294,151.22775820149857L154.18603340105312,141.58161553509643L155.2362053951535,153.91624663116244L157.33654938335422,161.67881918022192L158.3867213774546,159.337504868653L159.43689337155496,153.65599316018242L160.4870653656553,143.16599390991644L163.11249535090624,92.46296846276266L164.16266734500658,170.47135263445182L166.26301133320734,170.5758474622081L168.88844131845823,186.93084953799942L169.93861331255863,131.55481889453014L170.4636993096088,123.53637773675536L172.03895730075934,142.5944509916688L173.0891292948597,160.2537045599109L173.61421529190991,197.90888586856937L174.1393012889601,171.1998878617264L175.18947328306047,158.69437599150532L175.71455928011062,167.68632429864064L176.2396452771608,145.79916465382726L178.33998926536157,146.3794293670209L178.86507526241175,178.80424277153563L179.9152472565121,149.17074828701737L181.49050524766264,184.02636123025263L183.59084923586337,181.77932232566545L184.11593523291356,168.56815639458588L184.64102122996374,174.10699909856805L185.16610722701392,161.63424049971456L186.21627922111432,42.10257979979281L187.79153721226484,166.8012357695394L188.31662320931503,183.6370563135705L188.8417092063652,165.73241994862386L190.4169671975158,178.73191772456437L190.94205319456594,167.76717942222353L191.9922251886663,141.82678021746412L195.1427411709674,153.4720713715072L196.19291316506778,148.77833975614135L197.76817115621833,143.65030220754522L198.29325715326848,203.00888252688372L199.34342914736888,186.75117333794395L199.86851514441906,188.79903634291193L202.49394512966995,137.74174597782186L203.01903112672017,147.72925703102254L204.06920312082053,151.40659806505235L205.1193751149209,115.18438627135674L205.64446111197108,114.7820969526336L206.16954710902124,143.3362064484281L207.74480510017182,121.57815104132197L208.269891097222,39.99759584531904L209.84514908837255,169.92069867905974L210.3702350854227,165.77405339095262L211.4204070795231,160.84573077613288L211.94549307657329,162.250059239072L212.99566507067365,161.97443495903147L215.09600905887436,83.11306535438803L215.62109505592457,123.34008768430908L216.14618105297475,163.21055142259908L217.19635304707512,176.3088758320653L217.72143904412528,172.77556805907645L219.29669703527586,189.75854492802847L219.82178303232604,209.4662449918211L220.34686902937622,182.82061406224383L220.8719550264264,187.43824183448478L221.92212702052674,163.45535628577423L222.44721301757693,179.01768362663503L222.9722990146271,180.98328001651564L223.49738501167732,172.3715036091822L228.22315898512898,147.8732208288989L228.74824498217916,169.16682884639584L229.7984169762795,165.87271331288323L231.37367496743005,146.55587691918618L235.04927694678133,140.32428918885284L235.57436294383152,168.02177025602617L237.67470693203225,185.5971567778687L238.19979292908243,200.6149818211935L238.72487892613262,207.83576669318919L239.77505092023299,224.74877470571283L240.82522291433335,265.9206148560712L242.9255669025341,240.11127041468075L247.65134087598574,161.16100463052143L248.17642687303592,161.85690328454498L248.7015128700861,145.62698769702098L249.2265988671363,163.01035024667053L250.27677086123666,148.9536620050403L250.80185685828684,166.3582886186342L252.37711484943736,162.3855179670759L253.95237284058794,148.805880511638L257.62797481993925,173.47910210415174L258.1530608169894,170.4631559810302L258.67814681403956,174.32162916304526L259.2032328110898,194.94676536242548L260.25340480519014,224.75133095016974L260.7784908022403,187.07488835609348L261.3035767992905,182.94950991045732L262.3537487933909,149.27831616517508L262.87883479044103,179.4361408442324L263.40392078749124,202.90419320226664L264.4540927815916,152.47563894662116L265.504264775692,138.92783507025166L266.02935077274213,141.14268891215764L268.12969476094287,153.70395052901546L271.8052967402942,47.982264359785916L273.3805547314447,141.08149742120688L273.9056407284949,158.93556877012182L274.9558127225953,155.08481989200916L276.00598471669565,121.5559586021829L277.5812427078462,110.26184021330437L283.3571886753982,155.07485053862717L284.93244666654874,167.41585140688613L285.4575326635989,177.8945642821695L285.9826186606491,190.86598226845612L287.0327906547495,162.02846896550284L288.0829626488499,144.39399151880676L288.60804864590006,143.6936944572014L289.6582206400004,125.02351566941314L292.2836506252513,141.96978542366915L292.80873662230147,131.2463385376385L295.95925260460257,152.77070457716715L297.009424598703,74.66362158417519L297.53451059575315,133.91670819545064L298.05959659280336,147.31888532578353L298.5846825898535,149.05235526928993L299.1097685869037,107.01511383993846L299.6348545839539,126.87988887392385L300.1599405810041,143.9779738475498L300.68502657805425,41.14647213121464L301.2101125751044,53.43300554285514L301.7351985721546,45.343819972419396L302.785370566255,44.79165449856578L304.3606285574055,130.48964016491252L304.8857145544557,139.0486190101043L305.41080055150593,36.47593565576864L306.4609725456063,165.47066607328873L308.561316533807,152.41067421656993L309.61148852790734,164.74095830779586L310.6616605220077,165.8171316671048L312.76200451020844,161.62091468621958L313.28709050725865,153.487600556583L313.81217650430887,163.35257580892008L314.86234849840923,161.56308799096158L315.91252049250954,142.89367885503702L316.9626924866099,146.17966719829252L318.0128644807103,145.2329064931416L318.5379504777605,120.63074658629324L320.113208468911,145.69611743842108L321.1633804630114,131.68073755150928L321.6884664600616,122.69645137874409L322.2135524571118,115.49430486307125L322.73863845416196,131.2811479186779L323.26372445121217,130.9978437911603L323.7888104482623,134.9184934518L324.8389824423627,138.29405037800467L325.36406843941285,163.40589851258608L327.98949842466374,142.32222762816662L328.51458442171395,134.65694101964218L329.5647564158144,144.18873342449604L330.0898424128645,163.6252298440427L330.61492840991474,144.3861032818359L332.19018640106526,114.67349685185013L333.24035839516563,126.58537964332623L334.290530389266,159.93476305043194L335.3407023833663,166.04888301239018L336.3908743774667,149.70059385682487L337.44104637156704,152.03862394997194L337.9661323686173,138.3438207354335L338.49121836566746,135.6225123497641L340.066476356818,135.3622616573107L342.1668203450187,154.24722193927494L342.6919063420689,156.29609354939276L343.74207833616924,132.03267823195836L344.26716433321945,144.7635161047402L345.3173363273198,121.16349571638057L347.41768031552056,131.51131967160052L350.0431103007715,69.37217888719721L353.71871228012276,156.9842817921468L354.2437982771729,148.27858007218111L355.29397027127334,144.75726441992708L355.8190562683235,168.72998889692136L356.3441422653737,153.58611321660473L356.86922826242386,157.26189827574774L357.3943142594741,165.23227404946851L357.9194002565242,172.36327361344155L358.9695722506246,158.40373377528041L359.49465824767475,172.19695656920007L361.5950022358755,169.88573370053166L362.12008823292564,166.29177624927584L363.17026022702606,164.62252083364308L364.22043222112643,155.8812317451946L365.79569021227695,142.51265672610057L366.8458622063773,162.28618842023857L367.37094820342753,139.71631006225104L367.8960342004777,153.38173035816789L369.4712921916282,157.5671527632758L369.9963781886784,166.48283885127086L370.5214641857286,152.30316746599703L371.0465501827788,149.16785306231725L371.571636179829,170.935533285509L372.62180817392937,165.7389828284143L373.1468941709796,99.48798946578381L373.67198016802973,148.75698400081973L374.7221521621301,146.36059095678405L375.24723815918026,152.30623773787192L375.77232415623047,155.71847121498016L376.2974101532806,137.16038513589103L376.82249615033084,159.92696094778518L377.347582147381,157.24197901866987L378.39775414148136,161.15152429781818L378.9228401385315,167.95866436025932L380.49809812968215,156.65001670855926L382.5984421178828,184.64058787387768L384.1737001090334,181.57067720744934L384.69878610608356,171.0155103946915L385.2238721031337,173.19194693878924L386.2740440972341,173.68446300394598L386.7991300942843,183.10211770453526L387.32421609133445,150.74506422781488L387.8493020883847,155.1763306650402L388.899474082485,172.0234097987881L389.42456007953524,172.36811936380334L389.9496460765854,154.47547789811816L392.04999006478613,154.52415212680972L394.15033405298686,175.6927320050976L394.675420050037,141.94014410207524L395.7255920441374,163.75665415144726L396.25067804118765,172.14966048969393L396.7757640382378,173.8539086691206L397.30085003528797,155.38145816860148L397.8259360323382,182.25461152600388L398.35102202938833,179.66239070688223L399.9262800205389,162.27284871411072L400.45136601758907,162.95507423881628L403.60188199989017,135.78493112120879L404.65205399399053,146.27260057693442L405.17713999104075,144.0963974290697L405.7022259880909,158.08631767689593L406.2273119851411,151.3144787946995L407.2774839792415,143.41692820273502L408.852741970392,189.0269199791929L409.37782796744216,177.86469512139575L410.95308595859274,135.667464742097L411.4781719556429,156.9532150864155L412.00325795269305,157.69195028477844L413.05342994679347,135.74290590663173L414.10360194089384,116.3475155303367L415.67885993204436,137.88616684332123L416.2039459290946,120.40612754509004L417.25411792319494,165.30827786563646L418.82937591434546,149.8138299292131L419.3544619113956,143.09305758709678L419.87954790844583,145.59182544310548L420.9297199025462,149.69932962722933L421.4548058995964,155.35695712118726L421.9798918966466,143.48694985116845L423.030063890747,139.10096922946602L423.55514988779714,140.61195004605352L424.0802358848473,133.37428701432574L426.70566587009824,141.98631487831503L428.8060098582989,138.63055634328182L429.3310958553492,170.4339870089555L430.38126784944956,147.14833380702865L431.43143984354987,147.5573162489759L432.48161183765023,141.10725436263692L433.00669783470045,155.04778213264973L433.5317838317506,159.19715037680876L434.0568698288008,168.34110075922678L434.58195582585097,153.1672642267591L435.1070418229011,170.86498649555125L436.1572138170015,160.34868571264482L437.20738581110186,151.0435613386916L438.2575578052023,154.18656114690165L439.8328157963528,147.72139657931754L440.88298779045317,155.9524842809046L441.4080737875034,167.71093093006505L441.93315978455354,176.2938495603012L444.0335037727543,212.95691905291113L445.08367576685464,171.49709017921518L445.6087617639048,174.83712364304844L446.6589337580052,190.18063090134396L448.23419174915574,173.4878989193154L449.2843637432561,208.35133897193668L449.8094497403063,200.36716503520174L450.3345357373565,187.25322530633562L451.909793728507,206.10417781217984L453.4850517196576,180.5495742450275L454.01013771670773,139.66390844014757L455.06030971080816,162.99519060563037L456.1104817049085,161.9681777171652L457.1606536990089,136.81324991716826L459.7860836842598,153.15477197123923L460.83625567836015,147.04601734411392L461.3613416754103,142.4407790219093L461.88642767246046,151.29624888178446L462.41151366951067,156.19486349037226L463.98677166066125,174.11654055885617L467.13728764296235,173.00748055890367L468.1874596370627,191.08335196014477L468.71254563411287,184.8850593138628L469.237631631163,188.98037410186436L469.76271762821324,176.0540015885512L470.2878036252634,166.9052304625106L472.3881476134642,178.14693785175842L473.43831960756455,176.6211655489031L473.9634056046147,173.49880185762945L475.5386635957653,178.66641673888248L476.06374959281544,177.79976095513692L476.58883558986565,175.8407052168341L477.1139215869158,163.44640109459527L477.63900758396596,160.7119891775576L478.68917957806633,174.13690715871397L479.2142655751166,161.58446875302243L479.73935157216675,180.2928439457555L480.26443756921697,167.06026668882262L481.3146095633173,178.3594562360321L482.88986755446786,182.7026656087698L483.9400395485682,188.87214493437975L484.4651255456184,191.77983410475082L485.51529753971874,178.13090019631784L486.0403835367689,197.03048247442828L487.61564152791954,188.65091309073992L488.1407275249697,187.98628397488832L489.19089951907006,179.47052788923108L489.7159855161202,172.47135274049063L493.39158749547147,180.16706004731566L493.9166734925217,172.11097228554382L494.44175948957184,193.48283750426805L494.96684548662205,190.92420907154215L495.4919314836722,189.57610131549575L496.0170174807225,173.91433606526084L496.5421034777726,181.92595628758866L497.592275471873,180.03360185845193L498.11736146892315,157.94070899128207L498.64244746597336,174.65153473842307L500.2177054571239,160.32061148004408L500.74279145417404,171.29008994873658L501.26787745122425,174.12069167757207L501.7929634482744,163.81637858036186L502.8431354423748,167.32664958944608L505.99365142467593,177.95184082916396L506.5187374217261,169.10920220505187L507.0438234187763,149.2278886862092L508.0939954128766,140.44386863743148L510.19433940107734,137.28677336386278L511.76959739222787,158.73218340272845L513.3448553833784,152.210942611634L515.4451993715792,158.95508514084503L517.0204573627298,137.2426031267632L517.5455433597799,157.62456545807285L518.0706293568301,132.73196668841388L519.1208013509305,135.7090717884232L519.6458873479806,144.7909373835938L520.1709733450308,131.41816262156868L521.7462313361814,58.567139178775676L522.2713173332317,81.75619690402351L523.321489327332,128.47338776225453L524.3716613214323,127.97772154258365L524.8967473184825,129.43157029555906L525.9469193125828,172.5633330845143L526.9970913066832,178.20056897187519L527.5221773037334,148.59031130517556L528.5723492978337,78.48080308263121L529.6225212919342,125.34113321097499L530.1476072889843,146.3335586716521L530.6726932860346,104.58915727305322L531.1977792830847,132.57983541164504L532.7730372742352,109.55708153263737L533.2981232712855,133.31980149728454L533.8232092683356,117.20964118697458L535.3984672594861,138.45787925169049L535.9235532565364,146.7841745559281L540.1242412329377,157.70599295813201L541.6994992240883,137.06284079238367L542.2245852211385,94.25914975126108L543.2747572152389,114.86940694078606L544.3249292093392,132.91384348152351L544.8500152063893,108.01749300634509L546.4252731975399,115.14636352432342L546.9503591945901,108.17723119426819L548.0005311886905,57.33186738728949L548.5256171857407,113.66796718361348L549.0507031827908,29.76759444158739L549.575789179841,102.37289888595922L551.1510471709917,97.62966920876966L555.3517351473931,116.18469005206333L555.8768211444433,136.47790815452964L556.4019071414934,36.59130563657311L557.4520791355937,102.16491922485983L558.5022511296942,161.770663376443L559.0273371267443,139.40153634264757L559.5524231237945,132.2839598405999L560.6025951178949,136.67634079828773L561.6527671119952,122.15720431692512L562.1778531090454,146.95639596915973L562.7029391060956,132.78671616548056L564.2781970972461,143.92334523638957L564.8032830942963,153.93350961682637L565.3283690913465,138.54449287161793L567.9537990765975,177.508171261347L569.0039710706978,150.38855148187244L569.529057067748,192.4248634940817L570.5792290618484,174.59685333525775L571.1043150588986,152.94393181702208L572.154487052999,136.06977455245365L575.3050030353,127.44473137531517L575.8300890323502,134.21718083872832L576.8802610264505,55.39002739969874L577.9304330205509,137.20867870644068L580.0307770087517,166.80873223426195L581.080949002852,175.9056171548803L582.1311209969524,164.72642105671045L583.1812929910528,177.27458053146324L584.2314649851533,175.31029004907697L585.2816369792536,154.12045999947765L585.8067229763037,133.70973575023788L586.3318089733539,174.0571189893392L586.8568949704041,160.1912321682051L587.3819809674543,160.34907192783996L589.482324955655,157.35989968687807L590.5324969497553,168.69345127234695L591.0575829468055,169.0727923927003L594.2080989291067,162.35973601890663L595.258270923207,156.29145063147155L596.3084429173073,149.39012685342593L596.8335289143575,162.0481020343426L597.3586149114077,129.2296422653588L600.5091308937089,167.04855242074615L602.0843888848594,167.19211888932102L603.1345608789597,153.2014150969982L604.7098188701103,162.37667947401346L606.2850768612609,140.44814895763352L606.8101628583111,159.52942047830922L607.8603348524114,148.74446396003398L608.3854208494615,115.48993632465016L608.9105068465118,161.1622327392714L609.435592843562,150.0233419477233L610.4857648376623,159.4449227063752L611.0108508347124,120.06661434575983L612.0610228288128,144.06037383191324L612.586108825863,166.0164242648405L613.1111948229131,165.62759169767756L614.6864528140637,149.89651054476147L615.2115388111139,153.07413079420323L616.2617108052143,152.13499714452433L620.4623987816158,169.2455945179879L620.987484778666,178.51885474908036L621.5125707757162,151.72576741371114L622.0376567727664,159.9460577609943L623.6129147639169,164.67538508042276L624.1380007609671,65.58687542423479L624.6630867580172,147.0479234133503L626.2383447491678,130.99220893924874L626.763430746218,130.19649032844592L627.2885167432681,114.16456629358487L628.8637747344187,119.94261478236047L635.1648066990209,137.9738974309353L636.7400646901715,108.8540045551851L637.7902366842719,79.41684423222267L638.3153226813221,108.55227462862831L639.3654946754224,53.80241065214551L639.8905806724725,137.86192419887925L641.4658386636231,36.14730264556613L643.0410966547737,115.47935882126222L643.5661826518239,112.67830776459078L644.091268648874,121.84345344242024L644.6163546459242,117.96445346112398L645.1414406429744,117.96553630503098L645.6665266400246,126.02722644468494L646.1916126370747,137.77164709165135L646.7166986341249,130.38343237551746L647.7668706282253,142.3133613498383L648.8170426223256,136.25889913215664L649.3421286193758,156.2756824931096L650.3923006134763,159.88496629700057L651.4424726075766,128.6359788023474L652.4926446016771,146.28223650712636L653.0177305987272,121.56652256025376L653.5428165957774,118.24389723839118L654.0679025928275,45.17069553804805L654.5929885898777,56.9300146445558L655.118074586928,186.6728188882863L657.2184185751286,132.08311960355715L659.8438485603796,109.96328058557947L660.3689345574297,34.11462706690412L661.41910655153,44.49681392867302L661.9441925485802,38.9929362032189L664.0445365367809,126.92371526835868L664.5696225338311,165.52655335699134L665.0947085308813,77.52078880567655L666.1448805249817,121.78314448097558L667.7201385161324,147.99274748547245L669.2953965072828,109.47902924774564L670.3455685013832,111.07544906214741L671.3957404954836,119.29511172290955L671.9208264925338,114.56802919247377L672.9709984866341,15.375993719675591L673.4960844836843,16.23320251303693L675.0713424748349,97.03978662580687L675.596428471885,24.446860517364996L676.1215144689352,117.69290771079244L677.1716864630356,16.781005700154253L677.6967724600858,19.976578009852688L678.2218584571359,22.37306830231887L679.2720304512363,28.680973822324063L679.7971164482865,43.45534436639332L680.3222024453366,40.33992699157875L680.8472884423868,136.3435469445262L681.372374439437,117.76171475237851L681.8974604364872,63.510526964731696L684.5228904217382,145.1109541828606L685.0479764187884,38.35649801808455L686.0981484128887,3.865602809793131L688.1984924010894,141.74594593283058L688.7235783981396,81.9043646126209L689.77375039224,33.18977226533838L691.8740943804407,46.738984854685725L692.924266374541,44.597407705105866L693.9744383686415,24.371929212458383L695.0246103627418,42.054016712164525L695.5496963597919,124.19885835692622L696.0747823568421,134.74587332000365L696.5998683538924,99.7412521638795L697.6500403479927,62.77499540751967L699.2252983391433,46.346534645910936L699.7503843361935,58.73418419698203L700.8005563302938,112.16612216243288L701.3256423273441,31.789433766573268L701.8507283243943,117.22340392377481L702.9009003184946,95.03767900735443L705.0012443066953,140.1127655170961L706.0514163007957,62.14241937433644L706.5765022978459,112.87007715428553L707.6266742919462,29.39472728817384L708.1517602889963,21.190016139444936L709.7270182801469,118.5815191185539L710.2521042771971,116.26545122671615L712.877534262448,131.5309624652833L713.4026202594982,133.30368465383634L713.9277062565484,135.02468595929884L714.4527922535985,143.5753097750537L715.5029642476989,14.536456355385951L716.5531362417994,117.94357739236835L717.0782222388495,119.37334634860827L717.6033082358997,87.18763566291642L718.12839423295,35.74543878872606L718.6534802300001,40.042091170028925L719.1785662270503,122.44382913102595L720.7538242182009,112.94520191410561L722.3290822093513,42.73599494800419L723.3792542034518,25.498716212014244L724.4294261975521,39.35618965465318L724.9545121946022,29.509169241099414L725.4795981916525,116.69701284397132L726.0046841887026,27.045077396854083L726.5297701857528,27.1166966980731L728.6301141739535,25.42105083694929L730.7304581621543,23.834862252060077L731.7806301562546,27.036341709275234L732.3057161533047,114.5929390306116L733.8809741444554,77.57137466065763L734.4060601415056,124.89469761994403L734.9311461385557,127.60151529484824L736.5064041297063,42.750265460537605L738.0816621208569,42.46852286495999L738.606748117907,95.1906243924123L739.1318341149572,81.5894714163743L740.1820061090576,100.89325290291833L740.7070921061078,15.573002368559571L741.2321781031579,23.255194922081955L742.8074360943085,121.98932851927032L743.8576080884088,93.74925955937704L744.382694085459,55.68362318968195L744.9077800825092,19.569201556270798L745.4328660795594,11.36175633738361L745.9579520766096,23.51669873002453L746.4830380736597,102.93640352680046L747.5332100677601,125.88582861610854L748.0582960648103,112.33744680620964L749.6335540559609,106.41411715064129L752.2589840412119,117.06068602657763L758.560016005814,51.88146518446342L759.0851020028641,111.65879655058552L759.6101879999144,49.615710124809084L760.1352739969645,31.49833865051528L762.2356179851653,12.534850260981898L763.8108759763157,29.650835197491062L764.3359619733659,12.494083718947195L765.3861339674663,51.46319690667377L765.9112199645165,28.683613422578503L766.4363059615667,28.325072352229995L766.961391958617,33.91270042596716L768.0115639527173,110.96260615127073L769.0617359468176,66.10989971127952L769.5868219438679,61.6730595497275L770.1119079409181,113.18981505894652L771.1620799350184,125.80555837237148L771.6871659320686,113.4195523197746L772.2122519291188,133.1257130798399L773.2624239232191,141.12985628713125L774.3125959173195,125.88531111553235L777.4631118996206,154.77823449024754L778.5132838937209,150.55897518840447L781.1387138789718,111.63429967096118L781.663799876022,146.00384759313513L783.7641438642229,20.140877843794442L786.3895738494738,31.740192718458616L786.9146598465239,4.551921104156349L789.0150038347247,26.15197004003261L791.1153478229254,9.550712710189487L792.6906058140759,25.496476719587918L794.2658638052264,31.497099427658952L794.7909498022766,21.509768978686225L795.3160357993268,31.78229851030659L796.8912937904773,32.3722463886441L797.4163797875275,43.852368029924776L798.9916377786781,57.12238871109827L800.0418097727785,46.48164883661849L800.5668957698286,37.94311994708204L801.0919817668789,37.558844163516255L804.7675837462301,13.983029430463432L805.2926697432803,46.15436619033562L805.8177557403305,55.16922344915275L806.3428417373807,34.03281057312324L807.393013731481,76.52974116530953L807.9180997285312,52.72388110229366L808.4431857255814,55.29937519138201L808.9682717226316,52.12910414475385L809.4933577196817,93.78258242869418L810.0184437167319,112.5634090913581L810.543529713782,141.99632590959575L811.0686157108323,92.75805632152128L811.5937017078825,27.81575175829562L813.168959699033,13.305746904550062L814.2191316931334,38.786713960183704L816.8445616783844,27.939440647691413L817.3696476754345,25.153951076467308L817.8947336724848,25.429364188487455L818.9449056665851,107.3146174720701L822.6205076459363,121.34204366098515L823.6706796400367,24.130530822874732L826.2961096252876,28.485598947071253L826.8211956223378,26.710709507783008L828.9215396105385,34.147435908803345L829.9717116046388,64.00964480905111L830.4967976016891,30.864223313604782L831.5469695957894,23.35204324468009L832.0720555928395,29.957373364300793L833.1222275869401,102.56652051093772L833.6473135839902,110.54656694643273L836.7978295662913,51.15925388369317L837.3229155633416,18.481230573087828L837.8480015603917,40.59427331504202L840.4734315456426,22.5189187197455L840.9985175426928,31.200336117370398L845.7242915161444,58.16898187639816L846.2493775131945,124.52773622478395L847.8246355043451,128.8537381823894L848.3497215013953,57.13996567026618L848.8748074984454,25.606545271670825L849.924979492546,119.6010485992008L850.9751514866463,131.40993123656472L852.0253234807467,131.24380452139422L853.6005814718972,131.06596631667384L854.1256674689473,141.15375578354016L855.1758394630477,132.50850229866413L855.7009254600979,117.2635855859636L856.7510974541982,122.06321926597138L857.8012694482986,124.20399932573753L858.3263554453488,133.24454788329416L859.3765274394492,127.14113636278913L859.9016134364994,111.66339084429148L862.0019574247001,128.72345793330564L862.5270434217502,25.575753640071298L863.5772154158506,14.907667506955704L864.1023014129007,35.113896367432005L864.627387409951,43.91296769471319L865.1524734070011,117.5248479225803L866.2026454011016,20.21105231119003L866.7277313981518,140.35252874378529L867.252817395202,127.5086228994735L867.7779033922521,134.22351310081237L869.8782473804529,142.73767848000045L870.9284193745532,126.71510696561981L871.4535053716035,152.45833706158507L871.9785913686536,121.67870140327699L873.0287633627539,138.40931477479896L874.0789353568543,85.25980778488679L875.1291073509547,46.78131848571354L876.179279345055,140.51048936932656L876.7043653421052,121.72967277882157L877.2294513391554,21.756302085396385L878.2796233332557,144.30230292007437L878.804709330306,41.855190906894904L879.3297953273561,131.11937654392722L879.8548813244063,51.28114784491595L880.3799673214564,34.85848308976068L880.9050533185066,49.157931199000586L881.955225312607,36.61949656729041L882.4803113096572,121.9426933817752L884.0555693008079,126.13226586365158L884.580655297858,46.97026940750504L885.6308272919583,64.39199785222104L886.1559132890086,17.70521032649947L887.7311712801591,48.820734769867386L888.2562572772092,53.70412305277705L888.7813432742595,42.27108076592896L889.3064292713096,47.91801371106658L889.8315152683598,46.69877401796782L890.8816872624602,115.10930839917279L892.9820312506608,54.95161480417789L894.0322032447613,42.346923427555055L894.5572892418114,52.71666249022945L895.0823752388616,79.26628699076338L896.6576332300122,54.39189729507012L897.1827192270623,80.09177612464629L898.2328912211627,129.03597618395492L900.3332352093635,154.70061912866112L900.8583212064137,122.08387274869898L901.3834072034639,166.67665775163687L901.908493200514,152.99362298644326L902.9586651946145,146.00361141837553L905.0590091828151,129.8566397117937L905.5840951798654,28.353291068213082L906.6342671739657,21.975638973906257L907.1593531710158,27.25598979276242L907.684439168066,39.75386349340516L908.2095251651162,31.06740584855754L909.2596971592166,90.67940724200702L910.8349551503671,27.542911561891913L911.3600411474173,17.973371484136408L911.8851271444674,21.837268350042677L912.4102131415176,28.935214561777173L912.9352991385679,19.169771688717958L914.5105571297183,100.81561809164577L915.0356431267685,139.90870635700622L917.1359871149693,35.31651208296171L917.6610731120196,51.25120088539785L918.7112451061199,25.603677832236542L919.2363311031701,125.04333628879729L919.7614171002202,25.86273097973242L921.861761088421,18.729075144345472L923.4370190795715,32.64714825177282L924.4871910736719,100.52021348085657L926.0624490648224,21.435326694458297L926.5875350618726,15.391664609607119L927.1126210589227,62.635513373022604L927.637707055973,27.845654261388347L928.1627930530232,21.34835881239144L929.2129650471235,14.493189139426079L929.7380510441736,26.376041537840877L930.2631370412239,25.682154537063923L931.8383950323744,25.23204990167926L932.3634810294246,18.014282509553425L933.4136530235251,100.91248030687683L933.9387390205752,15.123247827524494L934.4638250176254,98.43454723245537L936.039083008776,24.49541804794012L937.0892550028764,34.42955082694317L937.6143409999265,30.09332111298346L938.1394269969767,12.06672410217601L938.6645129940268,112.19700340151468L942.3401149733781,100.15812145353425L942.8652009704283,13.307180624267232L944.4404589615789,101.67811858888558L947.0658889468298,41.66940194835553L949.1662329350306,53.32369830705608L950.2164049291309,23.57343624286176L951.2665769232312,17.23354988187924L952.3167489173317,66.52028253062491L952.8418349143818,14.135626110435055L953.366920911432,121.34828371071819L953.8920069084821,75.55391151504091L955.9923508966829,29.375888877936973L956.5174368937331,24.115471208791575L957.0425228907833,34.55575706142366L958.0926948848836,22.88303907147383L958.6177808819338,31.479427998587255L959.142866878984,19.063142952545547L961.2432108671846,33.22803257639458L962.2933828612851,41.61558188843105L963.3435548553854,46.39004081515702L964.3937268494858,45.73111323585499L964.918812846536,31.07615820729592L965.9689848406364,36.3549308230526L968.0693288288371,56.88997607648599L969.1195008229375,55.97476276216531L969.6445868199877,65.05165896254118L971.2198448111383,59.559567746854725L972.7951028022887,93.46682511068008L974.8954467904895,40.36019356447957L975.9456187845898,36.416441844560495L976.47070478164,33.018603913681886L978.0459627727905,65.24403858613687L980.1463067609913,31.278801708091464L980.6713927580414,36.35293028391243L981.1964787550917,30.558679859312008L981.7215647521418,64.37599909615267L983.2968227432925,21.47661559949063L983.8219087403427,51.965704553425155L984.3469947373928,27.795090634619953L985.3971667314931,61.064289932312704L985.9222527285434,62.38684080084306L986.4473387255936,29.895034341870996L987.4975107196939,91.25704069052591L988.022596716744,153.4137751052566L989.5978547078946,67.7938090761142L990.1229407049448,159.08080235464686L991.1731126990452,64.42664052166543L992.2232846931455,47.102560615203686L992.7483706901957,19.484123072280738L993.2734566872459,20.485548509437592L996.9490586665971,60.916444532799005L997.4741446636473,66.88827059135764L997.9992306606975,85.24507047988732L998.5243166577477,70.81137785876058L1001.6748326400489,19.828182462075517L1002.199918637099,114.70385642256588L1002.7250046341493,7.852399463545396L1003.2500906311994,43.07121306620985L1003.7751766282496,37.07033473369307L1004.8253486223499,43.091096202442145L1006.4006066135005,56.33100876955575L1007.9758646046511,22.219060130842763L1010.0762085928518,33.07570819202817L1010.601294589902,29.63249692203931L1011.1263805869521,13.099068983155178L1011.6514665840023,24.564214366150168L1012.1765525810524,34.68404163378875L1013.2267245751528,35.521600687150794L1013.751810572203,14.701678660153505L1015.8521545604038,49.351889025695755L1017.4274125515544,19.022487551574216L1017.9524985486046,18.692242995953166L1019.527756539755,89.38763133391654L1020.0528425368053,175.01872258349974L1020.5779285338555,73.04275420899592L1021.1030145309056,14.960248344023853L1021.6281005279558,134.37439959767178L1022.6782725220562,75.46712423720197L1023.2033585191064,60.0000864655259L1023.7284445161565,82.97764274722971L1024.2535305132067,35.59097493889027L1024.7786165102568,29.039331509917986L1026.8789604984577,76.92925716718639L1027.4040464955078,13.052356394231538L1027.929132492558,23.502972808701543L1029.5043904837084,37.64650667722901L1030.5545624778088,52.532118311599504L1031.0796484748591,50.68244205078696L1031.6047344719093,50.07273884844005L1032.6549064660096,76.67879522388705L1033.17999246306,110.3255421030234L1033.7050784601101,51.245432664210284L1034.7552504542105,120.57435187417326L1035.2803364512606,48.62102539314412L1036.855594442411,40.706581359551365L1037.9057664365114,35.09303518984234L1038.955938430612,42.75082672290745L1039.481024427662,40.13246552568728L1040.5311964217624,66.45753784331396L1042.1064544129129,85.82964190928556L1043.1566264070134,60.20539735184167L1043.6817124040635,127.25201068758133L1044.2067984011137,148.3118223642274L1045.256970395214,23.00109310895806L1046.3071423893143,23.16024711166699L1046.8322283863645,41.56494046291829L1047.3573143834146,20.96234367118427L1049.4576583716155,27.593075080832307L1049.9827443686656,122.80709543314566L1051.0329163627662,101.11163814607323L1052.0830883568665,24.86460643215696L1054.7085183421173,59.747673996564856L1056.808862330318,2.9142464216729422L1057.3339483273683,29.223069915838664L1057.8590343244184,85.4859603991062L1058.3841203214686,150.86605238937142L1064.6851522860707,20.85083584233098L1065.7353242801712,55.17936507118287L1066.7854962742715,138.25130274651588" fill="none"></path></g></g></g></g></g></g><g transform="translate(49, 378)" clip-path="url(#clip_1)"><clipPath id="clip_1"><rect width="1079" height="21"></rect></clipPath><g><g><line x1="16.61350217390509" y1="0" x2="16.61350217390509" y2="5" style="visibility: inherit;" fill="rgb(0, 0, 0)" stroke="rgb(204, 204, 204)" stroke-width="1px"></line><line x1="121.63070158394174" y1="0" x2="121.63070158394174" y2="5" style="visibility: inherit;" fill="rgb(0, 0, 0)" stroke="rgb(204, 204, 204)" stroke-width="1px"></line><line x1="226.6479009939784" y1="0" x2="226.6479009939784" y2="5" style="visibility: inherit;" fill="rgb(0, 0, 0)" stroke="rgb(204, 204, 204)" stroke-width="1px"></line><line x1="331.66510040401505" y1="0" x2="331.66510040401505" y2="5" style="visibility: inherit;" fill="rgb(0, 0, 0)" stroke="rgb(204, 204, 204)" stroke-width="1px"></line><line x1="436.6822998140517" y1="0" x2="436.6822998140517" y2="5" style="visibility: inherit;" fill="rgb(0, 0, 0)" stroke="rgb(204, 204, 204)" stroke-width="1px"></line><line x1="541.6994992240883" y1="0" x2="541.6994992240883" y2="5" style="visibility: inherit;" fill="rgb(0, 0, 0)" stroke="rgb(204, 204, 204)" stroke-width="1px"></line><line x1="646.7166986341249" y1="0" x2="646.7166986341249" y2="5" style="visibility: inherit;" fill="rgb(0, 0, 0)" stroke="rgb(204, 204, 204)" stroke-width="1px"></line><line x1="751.7338980441616" y1="0" x2="751.7338980441616" y2="5" style="visibility: inherit;" fill="rgb(0, 0, 0)" stroke="rgb(204, 204, 204)" stroke-width="1px"></line><line x1="856.7510974541982" y1="0" x2="856.7510974541982" y2="5" style="visibility: inherit;" fill="rgb(0, 0, 0)" stroke="rgb(204, 204, 204)" stroke-width="1px"></line><line x1="961.7682968642349" y1="0" x2="961.7682968642349" y2="5" style="visibility: inherit;" fill="rgb(0, 0, 0)" stroke="rgb(204, 204, 204)" stroke-width="1px"></line><line x1="1066.7854962742715" y1="0" x2="1066.7854962742715" y2="5" style="visibility: inherit;" fill="rgb(0, 0, 0)" stroke="rgb(204, 204, 204)" stroke-width="1px"></line></g><g transform="translate(0, 8)"><text style="text-anchor: middle; visibility: inherit; font-family: &quot;Helvetica Neue&quot;, sans-serif; font-size: 12px; font-weight: 200;" x="16.61350217390509" y="0" dx="0em" dy="0.95em" fill="rgb(50, 49, 63)" stroke="none" stroke-width="1px">0</text><text style="text-anchor: middle; visibility: inherit; font-family: &quot;Helvetica Neue&quot;, sans-serif; font-size: 12px; font-weight: 200;" x="121.63070158394174" y="0" dx="0em" dy="0.95em" fill="rgb(50, 49, 63)" stroke="none" stroke-width="1px">200</text><text style="text-anchor: middle; visibility: inherit; font-family: &quot;Helvetica Neue&quot;, sans-serif; font-size: 12px; font-weight: 200;" x="226.6479009939784" y="0" dx="0em" dy="0.95em" fill="rgb(50, 49, 63)" stroke="none" stroke-width="1px">400</text><text style="text-anchor: middle; visibility: inherit; font-family: &quot;Helvetica Neue&quot;, sans-serif; font-size: 12px; font-weight: 200;" x="331.66510040401505" y="0" dx="0em" dy="0.95em" fill="rgb(50, 49, 63)" stroke="none" stroke-width="1px">600</text><text style="text-anchor: middle; visibility: inherit; font-family: &quot;Helvetica Neue&quot;, sans-serif; font-size: 12px; font-weight: 200;" x="436.6822998140517" y="0" dx="0em" dy="0.95em" fill="rgb(50, 49, 63)" stroke="none" stroke-width="1px">800</text><text style="text-anchor: middle; visibility: inherit; font-family: &quot;Helvetica Neue&quot;, sans-serif; font-size: 12px; font-weight: 200;" x="541.6994992240883" y="0" dx="0em" dy="0.95em" fill="rgb(50, 49, 63)" stroke="none" stroke-width="1px">1k</text><text style="text-anchor: middle; visibility: inherit; font-family: &quot;Helvetica Neue&quot;, sans-serif; font-size: 12px; font-weight: 200;" x="646.7166986341249" y="0" dx="0em" dy="0.95em" fill="rgb(50, 49, 63)" stroke="none" stroke-width="1px">1.2k</text><text style="text-anchor: middle; visibility: inherit; font-family: &quot;Helvetica Neue&quot;, sans-serif; font-size: 12px; font-weight: 200;" x="751.7338980441616" y="0" dx="0em" dy="0.95em" fill="rgb(50, 49, 63)" stroke="none" stroke-width="1px">1.4k</text><text style="text-anchor: middle; visibility: inherit; font-family: &quot;Helvetica Neue&quot;, sans-serif; font-size: 12px; font-weight: 200;" x="856.7510974541982" y="0" dx="0em" dy="0.95em" fill="rgb(50, 49, 63)" stroke="none" stroke-width="1px">1.6k</text><text style="text-anchor: middle; visibility: inherit; font-family: &quot;Helvetica Neue&quot;, sans-serif; font-size: 12px; font-weight: 200;" x="961.7682968642349" y="0" dx="0em" dy="0.95em" fill="rgb(50, 49, 63)" stroke="none" stroke-width="1px">1.8k</text><text style="text-anchor: middle; visibility: inherit; font-family: &quot;Helvetica Neue&quot;, sans-serif; font-size: 12px; font-weight: 200;" x="1066.7854962742715" y="0" dx="0em" dy="0.95em" fill="rgb(50, 49, 63)" stroke="none" stroke-width="1px">2k</text></g><line x1="0" y1="0" x2="1079.4159988403321" y2="0" fill="rgb(0, 0, 0)" stroke="rgb(204, 204, 204)" stroke-width="1px"></line></g></g></g></g></svg>