<svg viewBox="0 0 1129.4000244140625 400" xmlns="http://www.w3.org/2000/svg"><g><g><g><g><g><line x1="39.98800086975098" y1="367.8856268829798" x2="34.98800086975098" y2="367.8856268829798" style="visibility: inherit;" fill="rgb(0, 0, 0)" stroke="rgb(204, 204, 204)" stroke-width="1px"></line><line x1="39.98800086975098" y1="335.06877305656144" x2="34.98800086975098" y2="335.06877305656144" style="visibility: inherit;" fill="rgb(0, 0, 0)" stroke="rgb(204, 204, 204)" stroke-width="1px"></line><line x1="39.98800086975098" y1="302.25191923014313" x2="34.98800086975098" y2="302.25191923014313" style="visibility: inherit;" fill="rgb(0, 0, 0)" stroke="rgb(204, 204, 204)" stroke-width="1px"></line><line x1="39.98800086975098" y1="269.43506540372476" x2="34.98800086975098" y2="269.43506540372476" style="visibility: inherit;" fill="rgb(0, 0, 0)" stroke="rgb(204, 204, 204)" stroke-width="1px"></line><line x1="39.98800086975098" y1="236.61821157730637" x2="34.98800086975098" y2="236.61821157730637" style="visibility: inherit;" fill="rgb(0, 0, 0)" stroke="rgb(204, 204, 204)" stroke-width="1px"></line><line x1="39.98800086975098" y1="203.80135775088803" x2="34.98800086975098" y2="203.80135775088803" style="visibility: inherit;" fill="rgb(0, 0, 0)" stroke="rgb(204, 204, 204)" stroke-width="1px"></line><line x1="39.98800086975098" y1="170.9845039244697" x2="34.98800086975098" y2="170.9845039244697" style="visibility: inherit;" fill="rgb(0, 0, 0)" stroke="rgb(204, 204, 204)" stroke-width="1px"></line><line x1="39.98800086975098" y1="138.16765009805133" x2="34.98800086975098" y2="138.16765009805133" style="visibility: inherit;" fill="rgb(0, 0, 0)" stroke="rgb(204, 204, 204)" stroke-width="1px"></line><line x1="39.98800086975098" y1="105.35079627163293" x2="34.98800086975098" y2="105.35079627163293" style="visibility: inherit;" fill="rgb(0, 0, 0)" stroke="rgb(204, 204, 204)" stroke-width="1px"></line><line x1="39.98800086975098" y1="72.53394244521462" x2="34.98800086975098" y2="72.53394244521462" style="visibility: inherit;" fill="rgb(0, 0, 0)" stroke="rgb(204, 204, 204)" stroke-width="1px"></line><line x1="39.98800086975098" y1="39.717088618796254" x2="34.98800086975098" y2="39.717088618796254" style="visibility: inherit;" fill="rgb(0, 0, 0)" stroke="rgb(204, 204, 204)" stroke-width="1px"></line><line x1="39.98800086975098" y1="6.900234792377887" x2="34.98800086975098" y2="6.900234792377887" style="visibility: inherit;" fill="rgb(0, 0, 0)" stroke="rgb(204, 204, 204)" stroke-width="1px"></line></g><g transform="translate(29.988000869750977, 0)"><text style="text-anchor: end; visibility: inherit; font-family: &quot;Helvetica Neue&quot;, sans-serif; font-size: 12px; font-weight: 200;" x="0" y="367.8856268829798" dx="0em" dy="0.3em" fill="rgb(50, 49, 63)" stroke="none" stroke-width="1px">0</text><text style="text-anchor: end; visibility: inherit; font-family: &quot;Helvetica Neue&quot;, sans-serif; font-size: 12px; font-weight: 200;" x="0" y="335.06877305656144" dx="0em" dy="0.3em" fill="rgb(50, 49, 63)" stroke="none" stroke-width="1px">50</text><text style="text-anchor: end; visibility: inherit; font-family: &quot;Helvetica Neue&quot;, sans-serif; font-size: 12px; font-weight: 200;" x="0" y="302.25191923014313" dx="0em" dy="0.3em" fill="rgb(50, 49, 63)" stroke="none" stroke-width="1px">100</text><text style="text-anchor: end; visibility: inherit; font-family: &quot;Helvetica Neue&quot;, sans-serif; font-size: 12px; font-weight: 200;" x="0" y="269.43506540372476" dx="0em" dy="0.3em" fill="rgb(50, 49, 63)" stroke="none" stroke-width="1px">150</text><text style="text-anchor: end; visibility: inherit; font-family: &quot;Helvetica Neue&quot;, sans-serif; font-size: 12px; font-weight: 200;" x="0" y="236.61821157730637" dx="0em" dy="0.3em" fill="rgb(50, 49, 63)" stroke="none" stroke-width="1px">200</text><text style="text-anchor: end; visibility: inherit; font-family: &quot;Helvetica Neue&quot;, sans-serif; font-size: 12px; font-weight: 200;" x="0" y="203.80135775088803" dx="0em" dy="0.3em" fill="rgb(50, 49, 63)" stroke="none" stroke-width="1px">250</text><text style="text-anchor: end; visibility: inherit; font-family: &quot;Helvetica Neue&quot;, sans-serif; font-size: 12px; font-weight: 200;" x="0" y="170.9845039244697" dx="0em" dy="0.3em" fill="rgb(50, 49, 63)" stroke="none" stroke-width="1px">300</text><text style="text-anchor: end; visibility: inherit; font-family: &quot;Helvetica Neue&quot;, sans-serif; font-size: 12px; font-weight: 200;" x="0" y="138.16765009805133" dx="0em" dy="0.3em" fill="rgb(50, 49, 63)" stroke="none" stroke-width="1px">350</text><text style="text-anchor: end; visibility: inherit; font-family: &quot;Helvetica Neue&quot;, sans-serif; font-size: 12px; font-weight: 200;" x="0" y="105.35079627163293" dx="0em" dy="0.3em" fill="rgb(50, 49, 63)" stroke="none" stroke-width="1px">400</text><text style="text-anchor: end; visibility: inherit; font-family: &quot;Helvetica Neue&quot;, sans-serif; font-size: 12px; font-weight: 200;" x="0" y="72.53394244521462" dx="0em" dy="0.3em" fill="rgb(50, 49, 63)" stroke="none" stroke-width="1px">450</text><text style="text-anchor: end; visibility: inherit; font-family: &quot;Helvetica Neue&quot;, sans-serif; font-size: 12px; font-weight: 200;" x="0" y="39.717088618796254" dx="0em" dy="0.3em" fill="rgb(50, 49, 63)" stroke="none" stroke-width="1px">500</text><text style="text-anchor: end; visibility: inherit; font-family: &quot;Helvetica Neue&quot;, sans-serif; font-size: 12px; font-weight: 200;" x="0" y="6.900234792377887" dx="0em" dy="0.3em" fill="rgb(50, 49, 63)" stroke="none" stroke-width="1px">550</text></g><line x1="39.98800086975098" y1="0" x2="39.98800086975098" y2="378.60799980163574" fill="rgb(0, 0, 0)" stroke="rgb(204, 204, 204)" stroke-width="1px"></line></g></g><g transform="translate(39, 0)" clip-path="url(#clip_0)"><clipPath id="clip_0"><rect width="1072" height="378"></rect></clipPath><g><g><g><line x1="4.647060581570397" y1="0" x2="4.647060581570397" y2="378.60799980163574" fill="rgb(0, 0, 0)" stroke="rgb(60, 60, 60)" stroke-width="1px" opacity="0.25"></line><line x1="137.17013884786613" y1="0" x2="137.17013884786613" y2="378.60799980163574" fill="rgb(0, 0, 0)" stroke="rgb(60, 60, 60)" stroke-width="1px" opacity="0.25"></line><line x1="269.6932171141618" y1="0" x2="269.6932171141618" y2="378.60799980163574" fill="rgb(0, 0, 0)" stroke="rgb(60, 60, 60)" stroke-width="1px" opacity="0.25"></line><line x1="402.21629538045755" y1="0" x2="402.21629538045755" y2="378.60799980163574" fill="rgb(0, 0, 0)" stroke="rgb(60, 60, 60)" stroke-width="1px" opacity="0.25"></line><line x1="534.7393736467533" y1="0" x2="534.7393736467533" y2="378.60799980163574" fill="rgb(0, 0, 0)" stroke="rgb(60, 60, 60)" stroke-width="1px" opacity="0.25"></line><line x1="667.262451913049" y1="0" x2="667.262451913049" y2="378.60799980163574" fill="rgb(0, 0, 0)" stroke="rgb(60, 60, 60)" stroke-width="1px" opacity="0.25"></line><line x1="799.7855301793446" y1="0" x2="799.7855301793446" y2="378.60799980163574" fill="rgb(0, 0, 0)" stroke="rgb(60, 60, 60)" stroke-width="1px" opacity="0.25"></line><line x1="932.3086084456404" y1="0" x2="932.3086084456404" y2="378.60799980163574" fill="rgb(0, 0, 0)" stroke="rgb(60, 60, 60)" stroke-width="1px" opacity="0.25"></line><line x1="1064.831686711936" y1="0" x2="1064.831686711936" y2="378.60799980163574" fill="rgb(0, 0, 0)" stroke="rgb(60, 60, 60)" stroke-width="1px" opacity="0.25"></line></g><g><line x1="0" y1="367.8856268829798" x2="1072.611999130249" y2="367.8856268829798" fill="rgb(0, 0, 0)" stroke="rgb(60, 60, 60)" stroke-width="1px" opacity="0.25"></line><line x1="0" y1="335.06877305656144" x2="1072.611999130249" y2="335.06877305656144" fill="rgb(0, 0, 0)" stroke="rgb(60, 60, 60)" stroke-width="1px" opacity="0.25"></line><line x1="0" y1="302.25191923014313" x2="1072.611999130249" y2="302.25191923014313" fill="rgb(0, 0, 0)" stroke="rgb(60, 60, 60)" stroke-width="1px" opacity="0.25"></line><line x1="0" y1="269.43506540372476" x2="1072.611999130249" y2="269.43506540372476" fill="rgb(0, 0, 0)" stroke="rgb(60, 60, 60)" stroke-width="1px" opacity="0.25"></line><line x1="0" y1="236.61821157730637" x2="1072.611999130249" y2="236.61821157730637" fill="rgb(0, 0, 0)" stroke="rgb(60, 60, 60)" stroke-width="1px" opacity="0.25"></line><line x1="0" y1="203.80135775088803" x2="1072.611999130249" y2="203.80135775088803" fill="rgb(0, 0, 0)" stroke="rgb(60, 60, 60)" stroke-width="1px" opacity="0.25"></line><line x1="0" y1="170.9845039244697" x2="1072.611999130249" y2="170.9845039244697" fill="rgb(0, 0, 0)" stroke="rgb(60, 60, 60)" stroke-width="1px" opacity="0.25"></line><line x1="0" y1="138.16765009805133" x2="1072.611999130249" y2="138.16765009805133" fill="rgb(0, 0, 0)" stroke="rgb(60, 60, 60)" stroke-width="1px" opacity="0.25"></line><line x1="0" y1="105.35079627163293" x2="1072.611999130249" y2="105.35079627163293" fill="rgb(0, 0, 0)" stroke="rgb(60, 60, 60)" stroke-width="1px" opacity="0.25"></line><line x1="0" y1="72.53394244521462" x2="1072.611999130249" y2="72.53394244521462" fill="rgb(0, 0, 0)" stroke="rgb(60, 60, 60)" stroke-width="1px" opacity="0.25"></line><line x1="0" y1="39.717088618796254" x2="1072.611999130249" y2="39.717088618796254" fill="rgb(0, 0, 0)" stroke="rgb(60, 60, 60)" stroke-width="1px" opacity="0.25"></line><line x1="0" y1="6.900234792377887" x2="1072.611999130249" y2="6.900234792377887" fill="rgb(0, 0, 0)" stroke="rgb(60, 60, 60)" stroke-width="1px" opacity="0.25"></line></g></g></g><g><g><line x1="0" y1="367.8856268829798" x2="1072.611999130249" y2="367.8856268829798" fill="rgb(0, 0, 0)" stroke="rgb(153, 153, 153)" stroke-width="1.5px"></line></g></g><g><g><line x1="4.647060581570397" y1="0" x2="4.647060581570397" y2="378.60799980163574" fill="rgb(0, 0, 0)" stroke="rgb(153, 153, 153)" stroke-width="1.5px"></line></g></g><g><g><g><g><g><path style="fill: none;" stroke="rgb(204, 51, 17)" stroke-width="2px" d="M6.237337520765945,353.44621119935573L8.88779908609186,360.6659190411678L9.682937555689634,361.32225611769616L11.273214494885183,360.6659190411678L15.513952999406646,361.32225611769616L16.04404531247183,360.6659190411678L16.574137625537013,361.32225611769616L16.839183782069604,360.6659190411678L17.369276095134786,360.6659190411678L18.959553034330334,359.3532448881111L19.224599190862925,361.9785931942245L19.754691503928107,358.69690781158266L22.140106912721436,361.9785931942245L23.73038385191698,361.32225611769616L23.995430008449574,361.9785931942245L24.260476164982162,360.6659190411678L24.525522321514757,361.9785931942245L25.850753104177713,360.6659190411678L27.971122356438446,361.32225611769616L29.826445452166585,362.6349302707529L32.21186086095991,361.32225611769616L33.00699933055768,361.9785931942245L33.272045487090274,361.32225611769616L35.12736858281841,361.9785931942245L36.45259936548137,360.00958196463944L38.5729686177421,361.32225611769616L39.36810708733987,361.32225611769616L39.633153243872464,361.32225611769616L42.01856865266579,360.6659190411678L42.54866096573097,361.32225611769616L42.81370712226356,360.6659190411678L44.93407637452429,358.69690781158266L46.259307157187244,361.32225611769616L47.054445626785025,361.9785931942245L49.439861035578346,361.32225611769616L49.704907192110944,361.9785931942245L50.50004566170871,361.32225611769616L52.090322600904265,360.00958196463944L52.35536875743686,361.32225611769616L53.68059954009981,361.9785931942245L54.21069185316499,360.6659190411678L54.47573800969759,360.6659190411678L55.53592263582795,360.6659190411678L55.80096879236054,361.9785931942245L57.92133804462127,361.32225611769616L60.04170729688201,360.6659190411678L60.3067534534146,362.6349302707529L60.571799609947185,361.9785931942245L61.63198423607756,361.9785931942245L64.54749195793606,362.6349302707529L66.13776889713161,361.9785931942245L67.46299967979458,361.32225611769616L68.25813814939234,360.00958196463944L71.43869202778345,361.9785931942245L73.028968966979,361.9785931942245L74.35419974964195,361.9785931942245L75.14933821923971,361.32225611769616L76.20952284537009,361.9785931942245L77.26970747150044,361.9785931942245L77.79979978456564,361.32225611769616L82.83567675868487,361.32225611769616L84.42595369788042,361.32225611769616L84.69099985441301,361.32225611769616L86.01623063707596,361.32225611769616L87.07641526320633,358.69690781158266L87.34146141973892,359.3532448881111L87.8715537328041,358.69690781158266L89.99192298506483,360.6659190411678L90.25696914159744,361.32225611769616L91.84724608079297,360.6659190411678L92.11229223732558,361.32225611769616L92.37733839385817,357.38423365852594L93.17247686345593,361.32225611769616L95.55789227224926,360.00958196463944L97.67826152450999,359.3532448881111L101.91900002903145,357.38423365852594L102.97918465516182,360.6659190411678L104.56946159435736,361.32225611769616L105.62964622048773,361.32225611769616L106.15973853355293,359.3532448881111L109.340292411944,358.0405707350543L109.60533856847661,360.00958196463944L114.11112322953066,352.78987412282737L117.55672326445435,342.94481797490187L117.82176942098694,339.00679551573165L118.35186173405212,354.1025482758841L119.94213867324767,360.00958196463944L122.32755408204099,345.57016628101536L122.85764639510619,344.913829204487L123.12269255163876,346.8828404340721L123.91783102123654,342.94481797490187L125.5081079604321,341.63214382184515L127.8935233692254,356.0715595054692L128.6886618388232,351.47719996977065L128.95370799535578,348.1955145871288L131.33912340414912,351.47719996977065L131.6041695606817,352.78987412282737L135.57986190867058,354.7588853524125L136.10995422173576,350.16452581671393L136.64004653480094,346.2265033575437L140.61573888278983,354.7588853524125L141.94096966545277,354.1025482758841L142.47106197851798,354.7588853524125L143.26620044811574,349.5081887401856L145.38656970037644,353.44621119935573L146.97684663957202,346.8828404340721L147.5069389526372,352.78987412282737L148.30207742223496,355.41522242894087L149.8923543614305,355.41522242894087L151.21758514409348,348.85185166365716L153.8680467094194,348.85185166365716L154.39813902248457,342.94481797490187L155.45832364861494,258.93367217927084L157.04860058781048,234.6492003477213L158.10878521394085,237.93088573036312L158.37383137047345,240.55623403647658L159.6990621531364,248.43227895481698L160.2291544662016,235.961874500778L160.49420062273418,241.86890818953333L161.02429293579937,238.58722280689148L161.55438524886455,253.6829755670439L161.81943140539715,249.74495310787373L163.1446621880601,249.08861603134537L163.40970834459267,244.4942564956468L166.0601699099186,241.86890818953333L167.65044684911413,253.02663849051555L168.18053916217931,251.05762726093047L169.50576994484229,252.3703014139872L170.83100072750523,254.9956497201007L171.36109304057044,244.4942564956468L174.5416469189615,250.4012901844021L176.39697001468966,230.05484081202272L176.66201617122226,232.68018911813618L177.19210848428742,254.9956497201007L177.45715464082002,243.18158234259005L177.72220079735263,233.9928632711929L177.9872469538852,258.2773351027425L178.51733926695042,253.02663849051555L179.31247773654817,216.271762204927L180.37266236267854,243.8379194191184L181.69789314534148,241.86890818953333L182.49303161493927,242.5252452660617L183.55321624106963,231.36751496507944L184.3483547106674,205.77036898047314L184.6134008672,207.08304313352986L185.14349318026518,225.46048127632415L185.4085393367978,196.581649909076L186.20367780639555,144.73102086333498L186.46872396292815,97.47475135329256L187.2638624325259,241.21257111300494L187.52890858905852,225.46048127632415L188.85413937172146,277.96744739859355L189.11918552825406,157.20142531737395L191.23955478051477,281.24913278123535L192.03469325011255,273.373087862895L193.09487787624292,308.8152899954268L193.89001634584068,298.9702338475013L194.4201086589059,342.2884808983735L194.95020097197107,271.40407663330984L196.01038559810144,282.5618069342921L197.0705702242318,287.15616646999064L197.8657086938296,354.1025482758841L198.13075485036217,344.913829204487L198.39580100689474,340.9758067453168L200.2511241026229,360.6659190411678L201.84140104181844,320.6293573729374L202.37149335488363,358.0405707350543L202.6365395114162,356.0715595054692L203.69672413754657,357.38423365852594L204.75690876367696,356.7278965819976L205.55204723327472,353.44621119935573L205.81709338980733,361.9785931942245L206.0821395463399,331.78708767391964L206.61223185940509,359.3532448881111L207.14232417247027,345.57016628101536L209.5277395812636,297.00122261791614L209.79278573779618,342.94481797490187L210.58792420739394,361.32225611769616L210.85297036392654,356.7278965819976L211.11801652045915,345.57016628101536L211.64810883352433,314.7223236841821L211.9131549900569,356.0715595054692L213.50343192925246,354.1025482758841L214.56361655538285,326.5363910616927L214.82866271191543,353.44621119935573L215.3587550249806,250.4012901844021L215.8888473380458,229.39850373549436L216.94903196417616,243.18158234259005L217.21407812070876,245.15059357217515L217.47912427724134,241.86890818953333L217.74417043377392,246.46326772523187L218.5393089033717,247.77594187828862L219.59949352950207,237.93088573036312L220.92472431216504,251.71396433745883L221.18977046869762,251.05762726093047L221.45481662523022,238.58722280689148L223.04509356442574,230.05484081202272L224.6353705036213,243.8379194191184L225.69555512975165,245.15059357217515L226.49069359934944,258.2773351027425L227.5508782254798,249.08861603134537L228.61106285161017,230.05484081202272L229.14115516467535,203.14502067435967L230.46638594733832,231.36751496507944L231.26152441693608,274.6857620159517L236.8274937041205,213.64641389881353L237.3575860171857,275.34209909248005L237.6226321737183,174.26618930711152L238.68281679984864,245.8069306487035L239.21290911291385,234.6492003477213L240.2730937390442,192.64362744990578L240.8031860521094,251.05762726093047L241.33327836517455,313.40964953112535L242.92355530437013,237.27454865383476L244.77887840009828,203.80135775088803L245.83906302622862,236.61821157730637L247.69438612195677,244.4942564956468L247.95943227848934,338.3504584392033L248.22447843502195,245.15059357217515L248.48952459155453,241.21257111300494L249.8147553742175,256.3083238731574L250.34484768728268,165.07747023571437L251.13998615688044,342.2884808983735L251.40503231341305,298.3138967709729L251.9351246264782,262.2153575619127L254.05549387873896,255.65198679662905L254.32054003527156,224.8041441997958L255.11567850486932,275.9984361690084L256.97100160059745,351.47719996977065L257.76614007019526,232.68018911813618L260.15155547898854,355.41522242894087L260.68164779205375,256.96466094968576L260.9466939485863,346.2265033575437L261.2117401051189,323.25470567905086L262.0068785747167,306.8462787658417L262.2719247312493,295.03221138833106L263.3321093573797,331.1307505973913L264.6573401400426,39.717088618796254L264.9223862965752,55.46917845547705L265.9825709227056,39.717088618796254L266.2476170792382,102.06911088899108L266.51266323577073,41.02976277185297L266.77770939230334,54.81284137894863L267.8378940184337,39.717088618796254L268.1029401749663,39.717088618796254L268.8980786445641,39.717088618796254L269.1631248010966,39.717088618796254L271.54854020989,240.55623403647658L272.6087248360203,348.1955145871288L273.1388171490855,314.7223236841821L273.66890946215074,353.44621119935573L273.93395561868334,358.0405707350543L275.78927871441147,354.1025482758841L276.0543248709441,360.00958196463944L276.3193710274766,348.1955145871288L277.11450949707444,358.69690781158266L279.23487874933517,357.38423365852594L279.7649710624003,359.3532448881111L280.8251556885307,355.41522242894087L281.0902018450633,356.0715595054692L281.88534031466105,350.8208628932423L282.41543262772626,333.7560989035047L284.2707557234544,340.31946966878843L287.1862634453129,39.717088618796254L287.7163557583781,39.717088618796254L289.3066326975736,39.717088618796254L289.5716788541062,39.717088618796254L290.1017711671714,39.717088618796254L290.6318634802366,39.717088618796254L291.69204810636694,39.717088618796254L292.7522327324973,39.717088618796254L293.2823250455625,39.717088618796254L294.60755582822543,39.717088618796254L294.87260198475803,39.717088618796254L295.13764814129064,39.717088618796254L297.5230635500839,39.717088618796254L299.1133404892795,39.717088618796254L300.17352511540986,39.717088618796254L300.43857127194246,39.717088618796254L300.70361742847507,39.717088618796254L303.08903283726835,39.717088618796254L303.61912515033356,39.717088618796254L304.4142636199313,39.717088618796254L306.0045405591269,39.717088618796254L306.26958671565944,39.717088618796254L308.12490981138757,39.717088618796254L308.6550021244528,39.717088618796254L313.9559252551046,39.717088618796254L314.2209714116372,39.717088618796254L314.4860175681698,39.717088618796254L315.2811560377676,39.717088618796254L315.5462021943002,39.717088618796254L315.8112483508328,39.717088618796254L320.5820791684194,39.717088618796254L321.3772176380172,39.717088618796254L321.90730995108237,39.717088618796254L324.0276792033431,39.717088618796254L324.2927253598757,39.717088618796254L325.8830022990712,275.9984361690084L326.41309461213643,295.6885484648594L327.73832539479935,324.5673798321076L328.26841770786456,308.1589529188984L328.79851002092977,209.70839143964335L329.85869464706013,304.2209304597282L332.5091562123861,308.1589529188984L334.62952546464675,300.282908000558L334.89457162117935,310.1279641484835L335.15961777771196,292.40686308221757L335.6897100907771,321.94203152599414L336.48484856037487,287.15616646999064L337.8100793430379,192.64362744990578L338.6052178126356,316.69133491376715L340.1954947518312,331.78708767391964L340.7255870648964,293.063200158746L341.25567937796154,317.34767199029557L341.5207255344941,347.53917751060044L342.3158640040919,339.00679551573165L342.8459563171571,318.0040090668239L343.6410947867549,350.16452581671393L345.7614640390156,332.443424750448L347.61678713474373,348.1955145871288L349.47211023047186,317.34767199029557L350.5322948566022,259.59000925579926L350.7973410131348,203.80135775088803L351.06238716966743,199.20699821518946L351.32743332620004,333.09976182697636L352.91771026539556,39.717088618796254L353.7128487349933,39.717088618796254L355.56817183072144,39.717088618796254L356.09826414378665,39.717088618796254L356.89340261338447,39.717088618796254L357.1584487699171,39.717088618796254L357.9535872395148,39.717088618796254L359.54386417871035,39.717088618796254L360.07395649177556,39.717088618796254L360.86909496137326,39.717088618796254L361.6642334309711,39.717088618796254L361.9292795875037,39.717088618796254L362.4593719005689,39.717088618796254L362.72441805710145,39.717088618796254L364.31469499629696,39.717088618796254L367.4952488746881,39.717088618796254L370.4107565965466,39.717088618796254L371.47094122267697,39.717088618796254L373.8563566314703,39.717088618796254L375.1815874141332,39.717088618796254L375.4466335706658,39.717088618796254L376.50681819679625,39.717088618796254L376.7718643533288,39.717088618796254L377.30195666639395,39.717088618796254L377.56700282292655,39.717088618796254L378.3621412925243,39.717088618796254L382.8679259535784,39.717088618796254L383.132972110111,39.717088618796254L383.3980182666436,39.717088618796254L384.72324904930656,39.717088618796254L385.51838751890426,39.717088618796254L386.5785721450347,39.717088618796254L386.8436183015673,39.717088618796254L387.1086644580999,39.717088618796254L388.16884908423026,39.717088618796254L388.4338952407628,39.717088618796254L389.22903371036057,39.717088618796254L390.289218336491,39.717088618796254L390.81931064955614,39.717088618796254L394.2649106844798,39.717088618796254L394.5299568410124,39.717088618796254L396.9153722498057,39.717088618796254L397.18041840633833,39.717088618796254L400.0959261281968,39.717088618796254L402.48134153699016,39.717088618796254L402.74638769352276,39.717088618796254L403.5415261631205,39.717088618796254L404.07161847618573,39.717088618796254L404.33666463271834,39.717088618796254L406.45703388497907,39.717088618796254L406.7220800415116,39.717088618796254L406.9871261980442,39.717088618796254L408.0473108241746,39.717088618796254L408.57740313723974,39.717088618796254L409.10749545030495,39.717088618796254L411.2278647025657,39.717088618796254L412.55309548522865,39.717088618796254L412.81814164176126,39.717088618796254L413.61328011135896,39.717088618796254L415.46860320708714,39.717088618796254L418.6491570854783,39.717088618796254L419.9743878681412,39.717088618796254L420.2394340246738,39.717088618796254L420.76952633773897,39.717088618796254L421.0345724942716,39.717088618796254L422.6248494334671,39.717088618796254L424.4801725291952,39.717088618796254L424.7452186857278,39.717088618796254L427.13063409452116,39.717088618796254L428.1908187206515,39.717088618796254L428.98595719024934,39.717088618796254L430.04614181637965,39.717088618796254L432.43155722517304,39.717088618796254L434.28688032090116,39.717088618796254L434.55192647743377,39.717088618796254L435.8771572600967,39.717088618796254L437.99752651235747,39.717088618796254L438.52761882542256,39.717088618796254L440.38294192115075,39.717088618796254L440.64798807768335,39.717088618796254L441.7081727038137,39.717088618796254L443.0334034864767,39.717088618796254L443.8285419560744,39.717088618796254L444.3586342691396,39.717088618796254L445.1537727387374,39.717088618796254L445.9489112083352,39.717088618796254L447.00909583446554,39.717088618796254L449.1294650867262,39.717088618796254L451.249834338987,39.717088618796254L451.7799266520522,39.717088618796254L452.31001896511737,39.717088618796254L453.1051574347151,39.717088618796254L453.37020359124773,39.717088618796254L454.96048053044325,39.717088618796254L455.49057284350846,39.717088618796254L457.6109420957692,39.717088618796254L458.40608056536695,39.717088618796254L458.67112672189955,39.717088618796254L458.93617287843216,39.717088618796254L459.20121903496477,39.717088618796254L459.7313113480299,39.717088618796254L460.5264498176277,39.717088618796254L462.38177291335586,39.717088618796254L462.64681906988847,39.717088618796254L464.5021421656166,39.717088618796254L464.76718832214914,39.717088618796254L465.03223447868174,39.717088618796254L467.4176498874751,39.717088618796254L468.4778345136054,39.717088618796254L469.0079268266706,39.717088618796254L469.2729729832032,39.717088618796254L469.8030652962684,39.717088618796254L471.1282960789314,39.717088618796254L471.39334223546393,39.717088618796254L471.9234345485291,39.717088618796254L472.1884807050617,39.717088618796254L472.4535268615943,39.717088618796254L473.77875764425727,39.717088618796254L477.4894038357135,39.717088618796254L479.87481924450685,39.717088618796254L481.4650961837024,39.717088618796254L483.58546543596316,39.717088618796254L483.85051159249576,39.717088618796254L486.23592700128904,39.717088618796254L488.09125009701717,39.717088618796254L490.21161934927795,39.717088618796254L490.47666550581056,39.717088618796254L491.27180397540826,39.717088618796254L493.12712707113644,39.717088618796254L493.6572193842016,39.717088618796254L494.71740401033196,39.717088618796254L497.3678655756579,39.717088618796254L497.6329117321905,39.717088618796254L498.42805020178827,39.717088618796254L499.75328098445124,39.717088618796254L500.8134656105816,39.717088618796254L504.2590656455053,39.717088618796254L504.78915795857046,39.717088618796254L505.05420411510306,39.717088618796254L506.64448105429864,39.717088618796254L506.90952721083124,39.717088618796254L507.17457336736373,39.717088618796254L507.70466568042895,39.717088618796254L508.49980415002676,39.717088618796254L511.68035802841786,39.717088618796254L514.0657734372112,39.717088618796254L515.1259580633415,39.717088618796254L516.4511888460045,39.717088618796254L516.7162350025371,39.717088618796254L518.0414657852,39.717088618796254L519.6317427243955,39.717088618796254L519.8967888809282,39.717088618796254L521.4870658201237,39.717088618796254L522.5472504462541,39.717088618796254L523.0773427593192,39.717088618796254L523.6074350723844,39.717088618796254L525.1977120115799,39.717088618796254L525.9928504811778,39.717088618796254L526.5229427942429,39.717088618796254L527.3180812638408,39.717088618796254L528.1132197334385,39.717088618796254L528.9083582030363,39.717088618796254L529.4384505161015,39.717088618796254L531.2937736118296,39.717088618796254L531.8238659248948,39.717088618796254L535.2694659598185,39.717088618796254L535.534512116351,39.717088618796254L535.7995582728837,39.717088618796254L539.51020446434,39.717088618796254L540.5703890904703,39.717088618796254L541.6305737166007,39.717088618796254L542.6907583427311,39.717088618796254L542.9558044992635,39.717088618796254L543.7509429688614,39.717088618796254L544.2810352819266,39.717088618796254L544.8111275949917,39.717088618796254L546.9314968472524,39.717088618796254L547.4615891603177,39.717088618796254L548.2567276299154,39.717088618796254L549.0518660995132,39.717088618796254L549.8470045691109,39.717088618796254L550.3770968821761,39.717088618796254L551.1722353517739,39.717088618796254L551.9673738213717,39.717088618796254L552.2324199779042,39.717088618796254L556.2081123258931,39.717088618796254L558.0634354216213,39.717088618796254L559.3886662042842,39.717088618796254L559.6537123608168,39.717088618796254L559.9187585173494,39.717088618796254L560.4488508304146,39.717088618796254L560.7138969869472,39.717088618796254L561.509035456545,39.717088618796254L562.0391277696102,39.717088618796254L562.8342662392079,39.717088618796254L563.0993123957405,39.717088618796254L564.1594970218708,39.717088618796254L565.4847278045339,39.717088618796254L566.0148201175991,39.717088618796254L567.8701432133272,39.717088618796254L568.4002355263924,39.717088618796254L568.665281682925,39.717088618796254L569.4604201525227,39.717088618796254L569.9905124655878,39.717088618796254L571.0506970917182,39.717088618796254L571.8458355613161,39.717088618796254L572.3759278743812,39.717088618796254L572.9060201874464,39.717088618796254L573.171066343979,39.717088618796254L575.8215279093049,39.717088618796254L576.0865740658376,39.717088618796254L577.1467586919679,39.717088618796254L577.9418971615656,39.717088618796254L578.7370356311634,39.717088618796254L579.002081787696,39.717088618796254L579.7972202572938,39.717088618796254L580.0622664138265,39.717088618796254L580.5923587268915,39.717088618796254L581.9175895095545,39.717088618796254L582.1826356660871,39.717088618796254L584.0379587618152,39.717088618796254L584.3030049183478,39.717088618796254L585.3631895444782,39.717088618796254L585.8932818575435,39.717088618796254L586.4233741706086,39.717088618796254L587.4835587967389,39.717088618796254L590.3990665185975,39.717088618796254L590.9291588316626,39.717088618796254L591.4592511447278,39.717088618796254L591.7242973012603,39.717088618796254L592.7844819273907,39.717088618796254L593.314574240456,39.717088618796254L593.5796203969886,39.717088618796254L595.6999896492492,39.717088618796254L596.7601742753797,39.717088618796254L597.5553127449774,39.717088618796254L600.4708204668359,39.717088618796254L601.5310050929662,39.717088618796254L602.0610974060314,39.717088618796254L602.8562358756292,39.717088618796254L603.3863281886944,39.717088618796254L603.651374345227,39.717088618796254L604.1814666582923,39.717088618796254L604.7115589713575,39.717088618796254L604.9766051278899,39.717088618796254L605.5066974409551,39.717088618796254L606.0367897540203,39.717088618796254L606.3018359105529,39.717088618796254L607.3620205366833,39.717088618796254L607.627066693216,39.717088618796254L608.1571590062811,39.717088618796254L608.9522974758788,39.717088618796254L610.2775282585418,39.717088618796254L613.458082136933,39.717088618796254L614.7833129195959,39.717088618796254L615.5784513891936,39.717088618796254L617.4337744849217,39.717088618796254L618.2289129545196,39.717088618796254L619.819189893715,39.717088618796254L620.0842360502477,39.717088618796254L620.6143283633129,39.717088618796254L621.4094668329107,39.717088618796254L622.2046053025084,39.717088618796254L622.469651459041,39.717088618796254L622.7346976155735,39.717088618796254L625.3851591808996,39.717088618796254L625.6502053374321,39.717088618796254L625.9152514939648,39.717088618796254L626.4453438070299,39.717088618796254L629.6258976854209,39.717088618796254L629.8909438419536,39.717088618796254L630.1559899984861,39.717088618796254L630.4210361550187,39.717088618796254L632.5414054072795,39.717088618796254L634.9268208160728,39.717088618796254L636.2520515987358,39.717088618796254L638.3724208509965,39.717088618796254L638.637467007529,39.717088618796254L639.4326054771269,39.717088618796254L642.613159355518,39.717088618796254L643.4082978251158,39.717088618796254L644.2034362947135,39.717088618796254L644.468482451246,39.717088618796254L644.7335286077787,39.717088618796254L645.2636209208439,39.717088618796254L647.3839901731045,39.717088618796254L647.9140824861697,39.717088618796254L648.4441747992349,39.717088618796254L648.9742671123001,39.717088618796254L651.6247286776261,39.717088618796254L653.7450979298868,39.717088618796254L654.0101440864195,39.717088618796254L655.3353748690823,39.717088618796254L656.925651808278,39.717088618796254L659.0460210605386,39.717088618796254L660.6362979997342,39.717088618796254L660.9013441562668,39.717088618796254L661.1663903127994,39.717088618796254L661.4314364693319,39.717088618796254L661.9615287823971,39.717088618796254L663.2867595650602,39.717088618796254L668.5876826957119,39.717088618796254L669.117775008777,39.717088618796254L670.1779596349074,39.717088618796254L670.4430057914401,39.717088618796254L673.0934673567659,39.717088618796254L673.6235596698311,39.717088618796254L674.418698139429,39.717088618796254L674.6837442959616,39.717088618796254L674.9487904524941,39.717088618796254L677.59925201782,39.717088618796254L677.8642981743526,39.717088618796254L678.3943904874178,39.717088618796254L678.6594366439505,39.717088618796254L679.1895289570156,39.717088618796254L680.2497135831459,39.717088618796254L680.7798058962111,39.717088618796254L681.574944365809,39.717088618796254L682.1050366788742,39.717088618796254L682.6351289919392,39.717088618796254L683.1652213050044,39.717088618796254L685.5506367137979,39.717088618796254L686.6108213399281,39.717088618796254L687.6710059660585,39.717088618796254L688.2010982791237,39.717088618796254L688.9962367487215,39.717088618796254L689.7913752183192,39.717088618796254L691.3816521575147,39.717088618796254L691.6466983140474,39.717088618796254L692.7068829401778,39.717088618796254L693.5020214097755,39.717088618796254L694.5622060359059,39.717088618796254L695.0922983489711,39.717088618796254L696.4175291316341,39.717088618796254L697.4777137577644,39.717088618796254L698.2728522273621,39.717088618796254L698.5378983838948,39.717088618796254L698.8029445404273,39.717088618796254L699.06799069696,39.717088618796254L699.8631291665578,39.717088618796254L700.9233137926881,39.717088618796254L702.5135907318836,39.717088618796254L702.7786368884163,39.717088618796254L703.5737753580139,39.717088618796254L705.6941446102747,39.717088618796254L707.0193753929377,39.717088618796254L707.8145138625354,39.717088618796254L708.6096523321332,39.717088618796254L708.8746984886658,39.717088618796254L709.404790801731,39.717088618796254L710.1999292713289,39.717088618796254L710.4649754278614,39.717088618796254L710.9950677409265,39.717088618796254L712.5853446801221,39.717088618796254L713.3804831497199,39.717088618796254L714.1756216193176,39.717088618796254L714.4406677758502,39.717088618796254L715.5008524019806,39.717088618796254L717.0911293411762,39.717088618796254L720.8017755326325,39.717088618796254L721.8619601587627,39.717088618796254L722.3920524718279,39.717088618796254L723.717283254491,39.717088618796254L725.0425140371539,39.717088618796254L726.1026986632843,39.717088618796254L727.4279294459473,39.717088618796254L728.4881140720776,39.717088618796254L729.548298698208,39.717088618796254L730.3434371678057,39.717088618796254L734.3191295157947,39.717088618796254L736.9695910811205,39.717088618796254L737.2346372376531,39.717088618796254L737.4996833941857,39.717088618796254L738.2948218637835,39.717088618796254L739.885098802979,39.717088618796254L741.4753757421746,39.717088618796254L741.7404218987072,39.717088618796254L742.0054680552398,39.717088618796254L742.2705142117724,39.717088618796254L742.5355603683049,39.717088618796254L742.8006065248375,39.717088618796254L743.0656526813701,39.717088618796254L745.1860219336309,39.717088618796254L751.547129690413,39.717088618796254L751.8121758469457,39.717088618796254L752.0772220034783,39.717088618796254L753.9325450992063,39.717088618796254L756.8480528210648,39.717088618796254L757.37814513413,39.717088618796254L758.4383297602604,39.717088618796254L760.5586990125211,39.717088618796254L760.8237451690537,39.717088618796254L761.6188836386515,39.717088618796254L762.1489759517167,39.717088618796254L762.4140221082494,39.717088618796254L762.9441144213146,39.717088618796254L767.9799913954337,39.717088618796254L769.3052221780966,39.717088618796254L770.1003606476945,39.717088618796254L770.8954991172922,39.717088618796254L773.5459606826182,39.717088618796254L773.8110068391508,39.717088618796254L775.4012837783463,39.717088618796254L775.9313760914115,39.717088618796254L776.196422247944,39.717088618796254L777.7866991871396,39.717088618796254L778.5818376567373,39.717088618796254L778.84688381327,39.717088618796254L780.172114595933,39.717088618796254L780.7022069089982,39.717088618796254L781.2322992220633,39.717088618796254L782.027437691661,39.717088618796254L782.2924838481937,39.717088618796254L784.4128531004544,39.717088618796254L785.7380838831173,39.717088618796254L786.2681761961825,39.717088618796254L786.5332223527151,39.717088618796254L786.7982685092477,39.717088618796254L789.7137762311062,39.717088618796254L792.3642377964321,39.717088618796254L794.4846070486929,39.717088618796254L798.9903917097469,39.717088618796254L800.5806686489425,39.717088618796254L801.1107609620077,39.717088618796254L801.3758071185403,39.717088618796254L802.170945588138,39.717088618796254L804.821407153464,39.717088618796254L806.4116840926595,39.717088618796254L807.4718687187898,39.717088618796254L808.7970995014529,39.717088618796254L809.327191814518,39.717088618796254L809.8572841275832,39.717088618796254L810.3873764406483,39.717088618796254L810.9174687537135,39.717088618796254L811.9776533798439,39.717088618796254L812.2426995363766,39.717088618796254L813.0378380059742,39.717088618796254L813.3028841625068,39.717088618796254L813.5679303190394,39.717088618796254L814.6281149451698,39.717088618796254L815.158207258235,39.717088618796254L815.9533457278328,39.717088618796254L816.2183918843654,39.717088618796254L816.7484841974305,39.717088618796254L818.0737149800935,39.717088618796254L818.6038072931586,39.717088618796254L818.8688534496913,39.717088618796254L819.1338996062238,39.717088618796254L820.7241765454194,39.717088618796254L821.2542688584846,39.717088618796254L822.0494073280823,39.717088618796254L824.4348227368756,39.717088618796254L825.2299612064735,39.717088618796254L825.7600535195387,39.717088618796254L826.5551919891365,39.717088618796254L827.0852843022016,39.717088618796254L827.6153766152668,39.717088618796254L830.0007920240602,39.717088618796254L831.0609766501905,39.717088618796254L831.5910689632557,39.717088618796254L832.3862074328534,39.717088618796254L834.5065766851142,39.717088618796254L835.5667613112445,39.717088618796254L836.6269459373749,39.717088618796254L838.2172228765704,39.717088618796254L840.0725459722986,39.717088618796254L840.6026382853638,39.717088618796254L841.9278690680267,39.717088618796254L843.7831921637548,39.717088618796254L844.5783306333526,39.717088618796254L844.8433767898852,39.717088618796254L846.1686075725481,39.717088618796254L846.4336537290808,39.717088618796254L846.6986998856133,39.717088618796254L847.2287921986785,39.717088618796254L848.0239306682764,39.717088618796254L849.3491614509393,39.717088618796254L850.144299920537,39.717088618796254L850.4093460770697,39.717088618796254L850.9394383901349,39.717088618796254L852.5297153293303,39.717088618796254L855.4452230511888,39.717088618796254L857.300546146917,39.717088618796254L858.0956846165149,39.717088618796254L858.3607307730474,39.717088618796254L860.2160538687755,39.717088618796254L860.4811000253081,39.717088618796254L860.7461461818407,39.717088618796254L861.0111923383733,39.717088618796254L862.3364231210362,39.717088618796254L863.131561590634,39.717088618796254L869.4926693474162,39.717088618796254L870.287807817014,39.717088618796254L870.8179001300792,39.717088618796254L872.1431309127422,39.717088618796254L872.9382693823399,39.717088618796254L873.2033155388725,39.717088618796254L873.7334078519376,39.717088618796254L873.9984540084703,39.717088618796254L875.8537771041985,39.717088618796254L876.3838694172636,39.717088618796254L876.9139617303288,39.717088618796254L879.5644232956547,39.717088618796254L880.8896540783177,39.717088618796254L881.1547002348502,39.717088618796254L882.7449771740459,39.717088618796254L883.2750694871111,39.717088618796254L883.8051618001762,39.717088618796254L884.3352541132414,39.717088618796254L885.3954387393717,39.717088618796254L886.1905772089696,39.717088618796254L887.2507618350999,39.717088618796254L889.6361772438933,39.717088618796254L889.9012234004258,39.717088618796254L890.1662695569585,39.717088618796254L891.7565464961539,39.717088618796254L893.8769157484147,39.717088618796254L894.937100374545,39.717088618796254L895.4671926876102,39.717088618796254L895.7322388441428,39.717088618796254L895.9972850006753,39.717088618796254L897.0574696268058,39.717088618796254L898.3827004094687,39.717088618796254L900.2380235051969,39.717088618796254L901.2982081313271,39.717088618796254L902.3583927574575,39.717088618796254L903.418577383588,39.717088618796254L904.4787620097184,39.717088618796254L905.0088543227835,39.717088618796254L906.8641774185116,39.717088618796254L907.6593158881094,39.717088618796254L908.1894082011745,39.717088618796254L908.7195005142397,39.717088618796254L909.2495928273049,39.717088618796254L910.0447312969027,39.717088618796254L910.5748236099679,39.717088618796254L911.3699620795658,39.717088618796254L912.430146705696,39.717088618796254L912.9602390187612,39.717088618796254L914.5505159579568,39.717088618796254L915.8757467406197,39.717088618796254L916.1407928971523,39.717088618796254L917.2009775232827,39.717088618796254L919.0563006190108,39.717088618796254L921.1766698712715,39.717088618796254L921.9718083408694,39.717088618796254L922.7669468104671,39.717088618796254L923.0319929669997,39.717088618796254L923.8271314365975,39.717088618796254L925.1523622192605,39.717088618796254L926.742639158456,39.717088618796254L927.0076853149885,39.717088618796254L928.0678699411189,39.717088618796254L928.5979622541842,39.717088618796254L930.1882391933797,39.717088618796254L930.4532853499122,39.717088618796254L930.9833776629774,39.717088618796254L932.0435622891079,39.717088618796254L934.1639315413686,39.717088618796254L935.7542084805641,39.717088618796254L936.5493469501619,39.717088618796254L938.1396238893574,39.717088618796254L940.2599931416181,39.717088618796254L941.0551316112159,39.717088618796254L941.5852239242811,39.717088618796254L941.8502700808137,39.717088618796254L943.1755008634767,39.717088618796254L943.4405470200091,39.717088618796254L944.235685489607,39.717088618796254L944.7657778026722,39.717088618796254L945.0308239592048,39.717088618796254L945.56091627227,39.717088618796254L946.8861470549328,39.717088618796254L949.5366086202589,39.717088618796254L951.1268855594543,39.717088618796254L951.6569778725195,39.717088618796254L951.9220240290522,39.717088618796254L952.9822086551826,39.717088618796254L953.2472548117152,39.717088618796254L954.3074394378455,39.717088618796254L954.8375317509107,39.717088618796254L956.4278086901063,39.717088618796254L956.6928548466389,39.717088618796254L957.4879933162365,39.717088618796254L958.5481779423669,39.717088618796254L961.9937779772906,39.717088618796254L963.3190087599536,39.717088618796254L963.5840549164863,39.717088618796254L964.1141472295515,39.717088618796254L966.4995626383447,39.717088618796254L966.7646087948773,39.717088618796254L968.3548857340728,39.717088618796254L968.6199318906054,39.717088618796254L969.1500242036706,39.717088618796254L972.3305780820617,39.717088618796254L973.390762708192,39.717088618796254L973.9208550212572,39.717088618796254L974.4509473343224,39.717088618796254L975.2460858039202,39.717088618796254L976.041224273518,39.717088618796254L978.4266396823114,39.717088618796254L980.0169166215069,39.717088618796254L980.5470089345721,39.717088618796254L983.4625166564306,39.717088618796254L983.7275628129631,39.717088618796254L985.5828859086912,39.717088618796254L987.4382090044194,39.717088618796254L993.7993167612016,39.717088618796254L994.0643629177342,39.717088618796254L994.5944552307994,39.717088618796254L995.3895937003972,39.717088618796254L995.9196860134624,39.717088618796254L1001.4856553006467,39.717088618796254L1002.2807937702446,39.717088618796254L1003.3409783963749,39.717088618796254L1003.6060245529075,39.717088618796254L1003.87107070944,39.717088618796254L1004.4011630225052,39.717088618796254L1005.4613476486356,39.717088618796254L1006.2564861182335,39.717088618796254L1006.7865784312985,39.717088618796254L1007.3166707443637,39.717088618796254L1009.171993840092,39.717088618796254L1009.9671323096898,39.717088618796254L1010.2321784662223,39.717088618796254L1011.0273169358201,39.717088618796254L1012.6175938750156,39.717088618796254L1014.7379631272763,39.717088618796254L1015.7981477534067,39.717088618796254L1016.328240066472,39.717088618796254L1016.8583323795372,39.717088618796254L1017.1233785360697,39.717088618796254L1018.7136554752652,39.717088618796254L1019.7738401013956,39.717088618796254L1020.3039324144609,39.717088618796254L1020.8340247275258,39.717088618796254L1021.6291631971237,39.717088618796254L1024.014578605917,39.717088618796254L1024.544670918982,39.717088618796254L1024.8097170755148,39.717088618796254L1025.8699017016452,39.717088618796254L1027.1951324843083,39.717088618796254L1027.7252247973734,39.717088618796254L1030.3756863626993,39.717088618796254L1030.9057786757644,39.717088618796254L1031.4358709888295,39.717088618796254L1034.8814710237534,39.717088618796254L1035.9416556498836,39.717088618796254L1036.471747962949,39.717088618796254L1039.3872556848073,39.717088618796254L1040.7124864674704,39.717088618796254L1042.5678095631984,39.717088618796254L1043.362948032796,39.717088618796254L1043.8930403458614,39.717088618796254L1045.483317285057,39.717088618796254L1047.3386403807851,39.717088618796254L1049.193963476513,39.717088618796254L1049.4590096330458,39.717088618796254L1049.7240557895784,39.717088618796254L1050.2541481026435,39.717088618796254L1051.0492865722413,39.717088618796254L1051.5793788853066,39.717088618796254L1053.1696558245021,39.717088618796254L1054.2298404506325,39.717088618796254L1054.494886607165,39.717088618796254L1056.0851635463605,39.717088618796254L1056.3502097028932,39.717088618796254L1056.6152558594258,39.717088618796254L1057.9404866420887,39.717088618796254L1058.2055327986213,39.717088618796254L1059.2657174247518,39.717088618796254L1062.1812251466101,39.717088618796254L1063.7715020858057,39.717088618796254L1064.5666405554036,39.717088618796254" fill="none"></path></g></g></g></g></g></g><g transform="translate(39, 378)" clip-path="url(#clip_1)"><clipPath id="clip_1"><rect width="1072" height="21"></rect></clipPath><g><g><line x1="4.647060581570397" y1="0" x2="4.647060581570397" y2="5" style="visibility: inherit;" fill="rgb(0, 0, 0)" stroke="rgb(204, 204, 204)" stroke-width="1px"></line><line x1="137.17013884786613" y1="0" x2="137.17013884786613" y2="5" style="visibility: inherit;" fill="rgb(0, 0, 0)" stroke="rgb(204, 204, 204)" stroke-width="1px"></line><line x1="269.6932171141618" y1="0" x2="269.6932171141618" y2="5" style="visibility: inherit;" fill="rgb(0, 0, 0)" stroke="rgb(204, 204, 204)" stroke-width="1px"></line><line x1="402.21629538045755" y1="0" x2="402.21629538045755" y2="5" style="visibility: inherit;" fill="rgb(0, 0, 0)" stroke="rgb(204, 204, 204)" stroke-width="1px"></line><line x1="534.7393736467533" y1="0" x2="534.7393736467533" y2="5" style="visibility: inherit;" fill="rgb(0, 0, 0)" stroke="rgb(204, 204, 204)" stroke-width="1px"></line><line x1="667.262451913049" y1="0" x2="667.262451913049" y2="5" style="visibility: inherit;" fill="rgb(0, 0, 0)" stroke="rgb(204, 204, 204)" stroke-width="1px"></line><line x1="799.7855301793446" y1="0" x2="799.7855301793446" y2="5" style="visibility: inherit;" fill="rgb(0, 0, 0)" stroke="rgb(204, 204, 204)" stroke-width="1px"></line><line x1="932.3086084456404" y1="0" x2="932.3086084456404" y2="5" style="visibility: inherit;" fill="rgb(0, 0, 0)" stroke="rgb(204, 204, 204)" stroke-width="1px"></line><line x1="1064.831686711936" y1="0" x2="1064.831686711936" y2="5" style="visibility: inherit;" fill="rgb(0, 0, 0)" stroke="rgb(204, 204, 204)" stroke-width="1px"></line></g><g transform="translate(0, 8)"><text style="text-anchor: middle; visibility: inherit; font-family: &quot;Helvetica Neue&quot;, sans-serif; font-size: 12px; font-weight: 200;" x="4.647060581570397" y="0" dx="0em" dy="0.95em" fill="rgb(50, 49, 63)" stroke="none" stroke-width="1px">0</text><text style="text-anchor: middle; visibility: inherit; font-family: &quot;Helvetica Neue&quot;, sans-serif; font-size: 12px; font-weight: 200;" x="137.17013884786613" y="0" dx="0em" dy="0.95em" fill="rgb(50, 49, 63)" stroke="none" stroke-width="1px">500</text><text style="text-anchor: middle; visibility: inherit; font-family: &quot;Helvetica Neue&quot;, sans-serif; font-size: 12px; font-weight: 200;" x="269.6932171141618" y="0" dx="0em" dy="0.95em" fill="rgb(50, 49, 63)" stroke="none" stroke-width="1px">1k</text><text style="text-anchor: middle; visibility: inherit; font-family: &quot;Helvetica Neue&quot;, sans-serif; font-size: 12px; font-weight: 200;" x="402.21629538045755" y="0" dx="0em" dy="0.95em" fill="rgb(50, 49, 63)" stroke="none" stroke-width="1px">1.5k</text><text style="text-anchor: middle; visibility: inherit; font-family: &quot;Helvetica Neue&quot;, sans-serif; font-size: 12px; font-weight: 200;" x="534.7393736467533" y="0" dx="0em" dy="0.95em" fill="rgb(50, 49, 63)" stroke="none" stroke-width="1px">2k</text><text style="text-anchor: middle; visibility: inherit; font-family: &quot;Helvetica Neue&quot;, sans-serif; font-size: 12px; font-weight: 200;" x="667.262451913049" y="0" dx="0em" dy="0.95em" fill="rgb(50, 49, 63)" stroke="none" stroke-width="1px">2.5k</text><text style="text-anchor: middle; visibility: inherit; font-family: &quot;Helvetica Neue&quot;, sans-serif; font-size: 12px; font-weight: 200;" x="799.7855301793446" y="0" dx="0em" dy="0.95em" fill="rgb(50, 49, 63)" stroke="none" stroke-width="1px">3k</text><text style="text-anchor: middle; visibility: inherit; font-family: &quot;Helvetica Neue&quot;, sans-serif; font-size: 12px; font-weight: 200;" x="932.3086084456404" y="0" dx="0em" dy="0.95em" fill="rgb(50, 49, 63)" stroke="none" stroke-width="1px">3.5k</text><text style="text-anchor: middle; visibility: inherit; font-family: &quot;Helvetica Neue&quot;, sans-serif; font-size: 12px; font-weight: 200;" x="1064.831686711936" y="0" dx="0em" dy="0.95em" fill="rgb(50, 49, 63)" stroke="none" stroke-width="1px">4k</text></g><line x1="0" y1="0" x2="1072.611999130249" y2="0" fill="rgb(0, 0, 0)" stroke="rgb(204, 204, 204)" stroke-width="1px"></line></g></g></g></g></svg>