<svg viewBox="0 0 1129.4000244140625 400" xmlns="http://www.w3.org/2000/svg"><g><g><g><g><g><line x1="49.98400115966797" y1="366.0098906108526" x2="44.98400115966797" y2="366.0098906108526" style="visibility: inherit;" fill="rgb(0, 0, 0)" stroke="rgb(204, 204, 204)" stroke-width="1px"></line><line x1="49.98400115966797" y1="331.81522994439376" x2="44.98400115966797" y2="331.81522994439376" style="visibility: inherit;" fill="rgb(0, 0, 0)" stroke="rgb(204, 204, 204)" stroke-width="1px"></line><line x1="49.98400115966797" y1="297.620569277935" x2="44.98400115966797" y2="297.620569277935" style="visibility: inherit;" fill="rgb(0, 0, 0)" stroke="rgb(204, 204, 204)" stroke-width="1px"></line><line x1="49.98400115966797" y1="263.4259086114762" x2="44.98400115966797" y2="263.4259086114762" style="visibility: inherit;" fill="rgb(0, 0, 0)" stroke="rgb(204, 204, 204)" stroke-width="1px"></line><line x1="49.98400115966797" y1="229.23124794501734" x2="44.98400115966797" y2="229.23124794501734" style="visibility: inherit;" fill="rgb(0, 0, 0)" stroke="rgb(204, 204, 204)" stroke-width="1px"></line><line x1="49.98400115966797" y1="195.0365872785585" x2="44.98400115966797" y2="195.0365872785585" style="visibility: inherit;" fill="rgb(0, 0, 0)" stroke="rgb(204, 204, 204)" stroke-width="1px"></line><line x1="49.98400115966797" y1="160.84192661209966" x2="44.98400115966797" y2="160.84192661209966" style="visibility: inherit;" fill="rgb(0, 0, 0)" stroke="rgb(204, 204, 204)" stroke-width="1px"></line><line x1="49.98400115966797" y1="126.64726594564084" x2="44.98400115966797" y2="126.64726594564084" style="visibility: inherit;" fill="rgb(0, 0, 0)" stroke="rgb(204, 204, 204)" stroke-width="1px"></line><line x1="49.98400115966797" y1="92.45260527918202" x2="44.98400115966797" y2="92.45260527918202" style="visibility: inherit;" fill="rgb(0, 0, 0)" stroke="rgb(204, 204, 204)" stroke-width="1px"></line><line x1="49.98400115966797" y1="58.25794461272318" x2="44.98400115966797" y2="58.25794461272318" style="visibility: inherit;" fill="rgb(0, 0, 0)" stroke="rgb(204, 204, 204)" stroke-width="1px"></line><line x1="49.98400115966797" y1="24.06328394626439" x2="44.98400115966797" y2="24.06328394626439" style="visibility: inherit;" fill="rgb(0, 0, 0)" stroke="rgb(204, 204, 204)" stroke-width="1px"></line></g><g transform="translate(39.98400115966797, 0)"><text style="text-anchor: end; visibility: inherit; font-family: &quot;Helvetica Neue&quot;, sans-serif; font-size: 12px; font-weight: 200;" x="0" y="366.0098906108526" dx="0em" dy="0.3em" fill="rgb(50, 49, 63)" stroke="none" stroke-width="1px">-800</text><text style="text-anchor: end; visibility: inherit; font-family: &quot;Helvetica Neue&quot;, sans-serif; font-size: 12px; font-weight: 200;" x="0" y="331.81522994439376" dx="0em" dy="0.3em" fill="rgb(50, 49, 63)" stroke="none" stroke-width="1px">-700</text><text style="text-anchor: end; visibility: inherit; font-family: &quot;Helvetica Neue&quot;, sans-serif; font-size: 12px; font-weight: 200;" x="0" y="297.620569277935" dx="0em" dy="0.3em" fill="rgb(50, 49, 63)" stroke="none" stroke-width="1px">-600</text><text style="text-anchor: end; visibility: inherit; font-family: &quot;Helvetica Neue&quot;, sans-serif; font-size: 12px; font-weight: 200;" x="0" y="263.4259086114762" dx="0em" dy="0.3em" fill="rgb(50, 49, 63)" stroke="none" stroke-width="1px">-500</text><text style="text-anchor: end; visibility: inherit; font-family: &quot;Helvetica Neue&quot;, sans-serif; font-size: 12px; font-weight: 200;" x="0" y="229.23124794501734" dx="0em" dy="0.3em" fill="rgb(50, 49, 63)" stroke="none" stroke-width="1px">-400</text><text style="text-anchor: end; visibility: inherit; font-family: &quot;Helvetica Neue&quot;, sans-serif; font-size: 12px; font-weight: 200;" x="0" y="195.0365872785585" dx="0em" dy="0.3em" fill="rgb(50, 49, 63)" stroke="none" stroke-width="1px">-300</text><text style="text-anchor: end; visibility: inherit; font-family: &quot;Helvetica Neue&quot;, sans-serif; font-size: 12px; font-weight: 200;" x="0" y="160.84192661209966" dx="0em" dy="0.3em" fill="rgb(50, 49, 63)" stroke="none" stroke-width="1px">-200</text><text style="text-anchor: end; visibility: inherit; font-family: &quot;Helvetica Neue&quot;, sans-serif; font-size: 12px; font-weight: 200;" x="0" y="126.64726594564084" dx="0em" dy="0.3em" fill="rgb(50, 49, 63)" stroke="none" stroke-width="1px">-100</text><text style="text-anchor: end; visibility: inherit; font-family: &quot;Helvetica Neue&quot;, sans-serif; font-size: 12px; font-weight: 200;" x="0" y="92.45260527918202" dx="0em" dy="0.3em" fill="rgb(50, 49, 63)" stroke="none" stroke-width="1px">0</text><text style="text-anchor: end; visibility: inherit; font-family: &quot;Helvetica Neue&quot;, sans-serif; font-size: 12px; font-weight: 200;" x="0" y="58.25794461272318" dx="0em" dy="0.3em" fill="rgb(50, 49, 63)" stroke="none" stroke-width="1px">100</text><text style="text-anchor: end; visibility: inherit; font-family: &quot;Helvetica Neue&quot;, sans-serif; font-size: 12px; font-weight: 200;" x="0" y="24.06328394626439" dx="0em" dy="0.3em" fill="rgb(50, 49, 63)" stroke="none" stroke-width="1px">200</text></g><line x1="49.98400115966797" y1="0" x2="49.98400115966797" y2="378.60799980163574" fill="rgb(0, 0, 0)" stroke="rgb(204, 204, 204)" stroke-width="1px"></line></g></g><g transform="translate(49, 0)" clip-path="url(#clip_0)"><clipPath id="clip_0"><rect width="1079" height="378"></rect></clipPath><g><g><g><line x1="18.88782607497578" y1="0" x2="18.88782607497578" y2="378.60799980163574" fill="rgb(0, 0, 0)" stroke="rgb(60, 60, 60)" stroke-width="1px" opacity="0.25"></line><line x1="123.44842896583836" y1="0" x2="123.44842896583836" y2="378.60799980163574" fill="rgb(0, 0, 0)" stroke="rgb(60, 60, 60)" stroke-width="1px" opacity="0.25"></line><line x1="228.00903185670091" y1="0" x2="228.00903185670091" y2="378.60799980163574" fill="rgb(0, 0, 0)" stroke="rgb(60, 60, 60)" stroke-width="1px" opacity="0.25"></line><line x1="332.5696347475635" y1="0" x2="332.5696347475635" y2="378.60799980163574" fill="rgb(0, 0, 0)" stroke="rgb(60, 60, 60)" stroke-width="1px" opacity="0.25"></line><line x1="437.1302376384261" y1="0" x2="437.1302376384261" y2="378.60799980163574" fill="rgb(0, 0, 0)" stroke="rgb(60, 60, 60)" stroke-width="1px" opacity="0.25"></line><line x1="541.6908405292886" y1="0" x2="541.6908405292886" y2="378.60799980163574" fill="rgb(0, 0, 0)" stroke="rgb(60, 60, 60)" stroke-width="1px" opacity="0.25"></line><line x1="646.2514434201512" y1="0" x2="646.2514434201512" y2="378.60799980163574" fill="rgb(0, 0, 0)" stroke="rgb(60, 60, 60)" stroke-width="1px" opacity="0.25"></line><line x1="750.8120463110138" y1="0" x2="750.8120463110138" y2="378.60799980163574" fill="rgb(0, 0, 0)" stroke="rgb(60, 60, 60)" stroke-width="1px" opacity="0.25"></line><line x1="855.3726492018764" y1="0" x2="855.3726492018764" y2="378.60799980163574" fill="rgb(0, 0, 0)" stroke="rgb(60, 60, 60)" stroke-width="1px" opacity="0.25"></line><line x1="959.9332520927389" y1="0" x2="959.9332520927389" y2="378.60799980163574" fill="rgb(0, 0, 0)" stroke="rgb(60, 60, 60)" stroke-width="1px" opacity="0.25"></line><line x1="1064.4938549836015" y1="0" x2="1064.4938549836015" y2="378.60799980163574" fill="rgb(0, 0, 0)" stroke="rgb(60, 60, 60)" stroke-width="1px" opacity="0.25"></line></g><g><line x1="0" y1="366.0098906108526" x2="1079.4159988403321" y2="366.0098906108526" fill="rgb(0, 0, 0)" stroke="rgb(60, 60, 60)" stroke-width="1px" opacity="0.25"></line><line x1="0" y1="331.81522994439376" x2="1079.4159988403321" y2="331.81522994439376" fill="rgb(0, 0, 0)" stroke="rgb(60, 60, 60)" stroke-width="1px" opacity="0.25"></line><line x1="0" y1="297.620569277935" x2="1079.4159988403321" y2="297.620569277935" fill="rgb(0, 0, 0)" stroke="rgb(60, 60, 60)" stroke-width="1px" opacity="0.25"></line><line x1="0" y1="263.4259086114762" x2="1079.4159988403321" y2="263.4259086114762" fill="rgb(0, 0, 0)" stroke="rgb(60, 60, 60)" stroke-width="1px" opacity="0.25"></line><line x1="0" y1="229.23124794501734" x2="1079.4159988403321" y2="229.23124794501734" fill="rgb(0, 0, 0)" stroke="rgb(60, 60, 60)" stroke-width="1px" opacity="0.25"></line><line x1="0" y1="195.0365872785585" x2="1079.4159988403321" y2="195.0365872785585" fill="rgb(0, 0, 0)" stroke="rgb(60, 60, 60)" stroke-width="1px" opacity="0.25"></line><line x1="0" y1="160.84192661209966" x2="1079.4159988403321" y2="160.84192661209966" fill="rgb(0, 0, 0)" stroke="rgb(60, 60, 60)" stroke-width="1px" opacity="0.25"></line><line x1="0" y1="126.64726594564084" x2="1079.4159988403321" y2="126.64726594564084" fill="rgb(0, 0, 0)" stroke="rgb(60, 60, 60)" stroke-width="1px" opacity="0.25"></line><line x1="0" y1="92.45260527918202" x2="1079.4159988403321" y2="92.45260527918202" fill="rgb(0, 0, 0)" stroke="rgb(60, 60, 60)" stroke-width="1px" opacity="0.25"></line><line x1="0" y1="58.25794461272318" x2="1079.4159988403321" y2="58.25794461272318" fill="rgb(0, 0, 0)" stroke="rgb(60, 60, 60)" stroke-width="1px" opacity="0.25"></line><line x1="0" y1="24.06328394626439" x2="1079.4159988403321" y2="24.06328394626439" fill="rgb(0, 0, 0)" stroke="rgb(60, 60, 60)" stroke-width="1px" opacity="0.25"></line></g></g></g><g><g><line x1="0" y1="92.45260527918202" x2="1079.4159988403321" y2="92.45260527918202" fill="rgb(0, 0, 0)" stroke="rgb(153, 153, 153)" stroke-width="1.5px"></line></g></g><g><g><line x1="18.88782607497578" y1="0" x2="18.88782607497578" y2="378.60799980163574" fill="rgb(0, 0, 0)" stroke="rgb(153, 153, 153)" stroke-width="1.5px"></line></g></g><g><g><g><g><g><path style="fill: none;" stroke="rgb(187, 187, 187)" stroke-width="2px" d="M22.02464416170166,172.8636330980036L22.547447176155973,142.32337025953828L24.63865923397322,203.3018796392657L25.161462248427537,141.8585574618682L26.207068277336163,196.4084435043074L26.729871291790474,121.21260494431601L27.25267430624479,173.36372270548293L28.29828033515341,178.42479441221417L28.821083349607726,183.9511432911271L29.343886364062037,215.94446006488894L29.86668937851635,112.20682437888809L31.957901436333604,121.3952136988944L36.663128566422415,236.9507176353879L37.18593158087673,180.10045592238157L38.231537609785356,207.811154419303L39.79994665314829,114.06580033636072L40.32274966760261,247.9788400679362L41.36835569651124,136.2202708460461L42.41396172541986,117.61888364660967L42.93676473987418,146.84596058736926L43.9823707687828,128.19495053632943L45.02797679769142,307.2739657546064L45.550779812145734,187.64455901347853L47.119188855508675,225.60261507588166L47.64199186996299,129.25481231141285L48.1647948844173,232.28911758015886L48.687597898871616,183.10573123081446L49.21040091332593,103.78957850348291L50.77880995668887,110.83621648574479L51.30161297114318,169.50277213826163L52.34721900005181,107.8950639925983L53.39282502896043,166.91041968909437L53.91562804341474,160.58125598034985L54.43843105786905,171.20139670714386L54.961234072323364,246.4353948513003L56.529643115686305,224.31752905381978L57.05244613014062,315.111605713955L57.57524914459493,257.03232728789584L58.098052159049246,118.97616425215415L59.14365818795787,136.08788758639804L60.71206723132081,299.6542583188658L63.32608230359237,241.1593803579854L63.84888531804668,187.32568503704266L64.371688332501,234.05417901034872L64.8944913469553,237.4822438319962L65.41729436140963,238.19210027644664L65.94009737586394,164.1125006443251L68.5541124481355,95.66204753756813L72.73653656377,211.14486251434337L74.30494560713294,240.4239885330873L74.82774862158725,172.66377987420177L78.48736972276745,153.44715905917027L80.05577876613039,177.4880101446275L81.10138479503901,195.36784805376485L81.62418780949332,132.95837644303498L82.14699082394763,121.63844419800296L84.23820288176488,186.4819322025131L84.7610058962192,156.08294356940135L85.28380891067351,142.5351824314369L86.85221795403645,106.66550985735785L87.37502096849076,122.46816926989794L88.94343001185369,171.51035185271925L91.03464206967095,127.46139012102213L92.08024809857957,156.3382034554372L93.1258541274882,84.39521899634246L93.64865714194251,104.72121030106717L94.17146015639683,173.06175926603746L94.69426317085114,187.0116843841332L96.78547522866839,155.88276684874876L97.83108125757701,114.20584055775925L99.39949030093996,231.72388509877496L99.92229331539427,141.16015906716498L100.44509632984858,180.64730126018202L101.4907023587572,91.30055440205518L102.01350537321153,178.95545968978408L102.53630838766583,147.59944214745573L104.10471743102877,177.11366689366386L105.1503234599374,144.0882386351559L105.67312647439171,170.87467532323083L106.71873250330034,168.79293656457574L107.24153551775464,143.64494359575434L108.80994456111759,79.66868020937483L111.42395963338916,172.9906369180845L111.94676264784346,190.35240505606805L112.46956566229777,180.4376022531958L113.5151716912064,183.22350495526564L114.03797470566073,217.68271299799258L115.08358073456934,128.78344348482318L116.12918676347797,94.6746875375332L116.65198977793227,135.2287843045295L117.17479279238658,186.41627277718553L117.69759580684091,205.4330351507241L118.74320183574955,138.3879528043422L119.26600485020384,153.2712446023268L122.92562595138403,251.71643919887583L125.0168380092013,174.11653118341212L127.10805006701854,169.07056469253624L127.63085308147285,226.2670149951053L128.15365609592718,203.68391898466336L130.24486815374442,265.6777701898074L131.81327719710734,142.5000360639062L133.3816862404703,94.79371350785846L133.9044892549246,154.44800092090404L135.47289829828756,222.28369391753697L135.99570131274186,161.93139617556687L137.04130734165048,131.28361759343503L137.56411035610478,270.3480107415671L138.0869133705591,278.54631838339674L139.13251939946772,284.0703506074428L139.65532241392205,100.14067359983886L140.70092844283067,261.4208333887666L141.22373145728497,91.73045587287527L141.7465344717393,141.52178158712508L143.31494351510224,113.69047746388532L144.8833525584652,130.6777627776672L147.49736763073673,152.77324728899526L148.54297365964536,124.46581710926728L149.588579688554,197.72390692419648L150.1113827030083,150.97643620820793L152.72539777527987,169.9705538021914L154.29380681864282,96.92681880527539L154.81660983309712,168.43200799753754L155.33941284755142,169.83140319713254L155.86221586200574,244.8122233140187L156.90782189091436,132.89189784019814L158.99903394873164,121.31256547120933L160.04463997764023,169.73248620846755L161.09024600654885,135.6980112689055L162.1358520354575,138.3113779691461L164.74986710772905,139.76672768854505L165.79547313663767,165.28466017700646L167.88668519445494,125.2370362103901L170.50070026672648,186.19964467636308L171.54630629563513,208.2187291451483L172.06910931008943,120.21965744927974L173.63751835345238,168.0689506125135L174.683124382361,196.34008131496844L175.2059273968153,182.4657918476632L175.72873041126962,134.80992632159018L176.77433644017825,125.03018867161282L177.29713945463257,112.2622206057398L177.8199424690869,115.33604985366111L179.9111545269041,161.78798271684522L180.43395754135844,155.6486333941458L181.47956357026706,118.90607500704726L183.04797261363,179.6185395331489L185.13918467144725,189.28000256032547L185.66198768590158,171.11809626806607L186.18479070035588,153.64484694114827L186.7075937148102,257.20781911175686L187.75319974371882,222.57866043316142L189.32160878708174,131.84498898337407L189.84441180153607,128.36308280683505L190.3672148159904,233.77750571986724L191.93562385935334,132.89060124394945L192.45842687380764,180.47574357544187L193.50403290271626,176.61151629818352L196.64085098944216,236.47228666383785L197.68645701835075,160.95910030206954L199.2548660617137,199.81524101686117L199.77766907616802,173.2372406545162L200.82327510507665,161.63953418617177L201.34607811953097,147.5584884896843L203.9600931918025,113.0941958069397L204.48289620625684,232.06457945956552L205.52850223516546,193.58474384760683L206.5741082640741,154.1890051680107L207.09691127852838,160.15481408333608L207.6197142929827,207.54347642834983L209.18812333634565,187.82277447211553L209.71092635079998,106.46256123828618L211.27933539416293,172.9983538832831L211.8021384086172,172.24976651748761L212.84774443752585,117.26042565632707L213.37054745198014,148.01832361000518L214.4161534808888,214.2193348426979L216.507365538706,255.6833454201123L217.03016855316034,167.11736375515775L217.55297156761466,159.43815376963678L218.59857759652328,180.70326621536825L219.1213806109776,170.68891508320286L220.68978965434056,182.66370930805147L221.21259266879483,236.36923726378865L221.73539568324915,125.68553850555114L222.25819869770348,184.83163910667676L223.3038047266121,194.27425129660452L223.82660774106643,145.06347206876603L224.34941075552072,176.50501800428964L224.87221376997505,152.20225447659087L229.57744090006386,187.5005507379667L230.1002439145182,142.31465149764045L231.14584994342678,113.32865275839345L232.71425898678973,126.29060023226546L236.37388008796992,190.07288290622316L236.89668310242422,123.46956159804714L238.9878951602415,111.50857077511404L239.51069817469582,215.93403511798775L240.0335011891501,193.8823296441844L241.07910721805874,208.60483828963652L242.12471324696736,121.37475252308207L244.21592530478463,220.92050949446562L248.92115243487345,217.18420435092918L249.44395544932772,154.98081066953318L249.96675846378204,189.99109037988535L250.48956147823637,120.46200876743092L251.535167507145,215.60673978804914L252.05797052159932,231.33801596807928L253.62637956496226,169.53207990940476L255.19478860832518,124.53589331014635L258.8544097095054,137.0771487826427L259.37721272395964,91.42140012369248L259.90001573841397,137.75166058729906L260.4228187528683,173.65462463970795L261.46842478177695,158.44143910159622L261.99122779623127,116.92202186194777L262.5140308106856,111.29549592195912L263.5596368395942,115.98777078341038L264.08243985404846,135.74361649832983L264.6052428685028,112.5092913255287L265.65084889741144,138.81677918620775L266.6964549263201,120.65850962467414L267.2192579407744,120.04815455029654L269.31046999859166,102.5636454458949L272.9700910997718,159.78732166084154L274.5385001431348,181.22544230945056L275.0613031575891,182.7959673431121L276.1069091864977,165.90868038448426L277.15251521540637,175.00825025260764L278.7209242587693,110.30623342129167L284.47175741776675,102.36882272856508L286.0401664611297,219.09724993728085L286.562969475584,97.51336033728211L287.08577249003827,182.6238565831109L288.1313785189469,215.11353231518575L289.17698454785557,93.02877073937884L289.69978756230984,158.15592182462942L290.7453935912185,168.5872969212978L293.35940866349006,180.4423294813702L293.8822116779444,106.08769360936287L297.0190297646703,171.82429511102615L298.0646357935789,120.23444177712986L298.5874388080332,167.95278915462512L299.11024182248747,167.1504021754672L299.6330448369418,135.79805788770267L300.1558478513961,164.81385746990566L300.67865086585044,171.8265282828348L301.2014538803047,145.6112096317517L301.7242568947591,150.5950282034384L302.24705990921336,160.73812064683491L302.7698629236677,139.0944073141682L303.8154689525763,139.78093546152397L305.38387799593926,121.3751255879987L305.9066810103935,151.1698768895965L306.4294840248479,109.94685842179092L307.4750900537565,202.6350587113523L309.56630211157375,211.20042048962054L310.61190814048234,156.79102599886357L311.657514169391,153.60660126507935L313.74872622720824,122.75737806334752L314.27152924166256,125.83120600684603L314.7943322561169,177.86046980908893L315.83993828502554,139.5942777786196L316.88554431393413,164.62962079569107L317.9311503428427,175.19033723807183L318.9767563717514,141.06055856096043L319.4995593862057,196.58961217613066L321.0679684295686,136.48641744464913L322.1135744584773,137.16093446699665L322.63637747293154,106.36291377286142L323.15918048738587,154.1081518260784L323.6819835018402,134.2075308350493L324.2047865162945,185.21862482327677L324.7275895307488,129.0309681437414L325.77319555965744,127.47604400659367L326.29599857411176,159.14737184230802L328.91001364638333,173.83265747915502L329.4328166608376,121.50644704749936L330.47842268974625,125.46408143157697L331.0012257042006,141.71880682232802L331.5240287186549,173.78449818991683L333.0924377620178,115.04648886605952L334.1380437909264,137.0173957836876L335.18364981983507,178.73982295027855L336.2292558487437,113.25111265033621L337.2748618776523,131.02663326047687L338.32046790656096,164.785708026196L338.84327092101523,134.67374980048208L339.3660739354696,95.34826080999545L340.93448297883253,154.8050892672619L343.0256950366498,144.9551475829725L343.54849805110405,121.66173075356852L344.5941040800127,157.20819605871853L345.116907094467,107.98534439800085L346.1625131233756,119.35400335618272L348.25372518119286,122.25091243729293L350.86774025346443,146.58360985907183L354.52736135464465,185.30474803326223L355.050164369099,196.35676749123968L356.0957703980076,152.95137926457397L356.6185734124619,138.7255739450503L357.1413764269162,204.01731901323782L357.6641794413705,129.05500604683135L358.1869824558249,142.77810247792257L358.70978547027914,126.01998729004507L359.7553914991878,112.43913294601418L360.27819451364206,134.75011853687806L362.3694065714593,145.2009738834241L362.8922095859137,133.81109327094603L363.9378156148223,118.42458907733374L364.9834216437309,125.03326189169528L366.55183068709385,120.27395013445505L367.5974367160025,94.2947465192388L368.1202397304568,145.6140010965125L368.6430427449111,135.6437029306568L370.211451788274,172.52733725084548L370.73425480272834,120.81033139267072L371.25705781718267,143.34188444116907L371.77986083163694,174.05789998805247L372.3026638460913,119.18634067787985L373.3482698749999,116.16402699902363L373.87107288945424,115.68041486016989L374.3938759039085,135.22397881098794L375.43948193281716,142.0287063700001L375.9622849472715,105.72949519921457L376.48508796172575,134.63562674015503L377.00789097618014,18.16764775910417L377.5306939906344,133.88170689401267L378.05349700508873,126.26732672092774L379.0991030339973,127.89540549672816L379.62190604845165,133.53371559216038L381.19031509181457,110.15081144640732L383.28152714963187,109.82072856497626L384.8499361929948,146.16526060101884L385.3727392074491,140.66243307377283L385.8955422219034,112.5177713780568L386.94114825081203,135.7914914234008L387.46395126526636,99.37626489007886L387.9867542797207,140.12518306998203L388.50955729417495,90.49023327130487L389.5551633230836,132.02657246164307L390.07796633753793,102.91236918114117L390.6007693519922,131.79140329534846L392.6919814098095,96.77327682973055L394.78319346762675,150.832203571977L395.305996482081,124.15872728827506L396.35160251098966,132.69054453019308L396.874405525444,124.9953110151759L397.3972085398983,134.82978485407563L397.9200115543526,125.57122150148135L398.4428145688069,132.49312275046336L398.96561758326123,126.09127921296013L400.5340266266242,119.70730887646283L401.0568296410785,116.52338504102823L404.1936477278044,130.16196009331452L405.239253756713,137.11987645540233L405.7620567711673,136.05244381047223L406.2848597856216,139.3454460880704L406.80766280007595,133.83483376564092L407.85326882898454,145.91789508168046L409.42167787234746,127.60686456774474L409.94448088680184,143.94317638603349L411.51288993016476,150.8884033232646L412.03569294461903,125.66071794878991L412.55849595907335,125.41580213544256L413.604101987982,131.2507487480877L414.64970801689066,141.17826967311794L416.2181170602536,135.64783795088658L416.74092007470784,137.3984437677683L417.7865261036165,136.30567662349952L419.35493514697947,175.7534513368522L419.87773816143374,137.43391884984095L420.40054117588807,140.12851717462163L421.44614720479666,138.9392331796131L421.968950219251,148.20399514928374L422.4917532337053,113.68230655955733L423.5373592626139,138.0224117983347L424.0601622770683,144.08311486245475L424.58296529152256,135.93359785049142L427.1969803637941,151.122072403356L429.28819242161137,136.75811305778146L429.8109954360657,154.81516984654772L430.8566014649743,132.34260540525224L431.90220749388294,144.1065162072254L432.94781352279153,142.2828392347493L433.4706165372459,164.09276211873592L433.9934195517002,135.23118966014584L434.5162225661545,177.84930916773675L435.03902558060884,150.04629927913584L435.5618285950631,140.65533701382006L436.60743462397176,142.40028424465856L437.65304065288035,129.1393213268362L438.698646681789,160.90705383293079L440.2670557251519,145.21099185041624L441.31266175406057,134.61666043285484L441.8354647685149,130.7015554492735L442.35826778296916,137.1107246251397L444.44947984078647,127.63920903513235L445.49508586969506,137.891625152176L446.0178888841494,129.84195648674645L447.063494913058,137.0388039704421L448.63190395642096,143.47468511610845L449.67750998532955,138.95473493999515L450.2003129997839,137.647734615138L450.7231160142382,134.69785553355692L452.2915250576012,134.8744430725577L453.8599341009641,123.66382145694499L454.38273711541837,146.7538526856443L455.428343144327,144.09043006543544L456.4739491732356,138.5961073747505L457.51955520214426,136.9817433001161L460.13357027441583,135.56949170954792L461.1791763033244,172.67896335542423L461.7019793177788,150.78436256189846L462.2247823322331,127.86913963952065L462.7475853466874,140.97374139805316L464.3159943900503,140.61128926520155L467.4528124767762,137.30781769032757L468.4984185056848,139.11325361457216L469.02122152013914,136.98012581586218L469.54402453459346,143.32363295755528L470.0668275490478,129.54586034098986L470.58963056350206,137.64989995696183L472.68084262131936,143.56927663881692L473.72644865022795,136.76069581489662L474.2492516646823,131.25947794536782L475.81766070804525,142.66424202182768L476.3404637224995,131.95620667890563L476.8632667369539,152.58327115452474L477.3860697514082,135.19259439877044L477.90887276586244,137.644311809749L478.9544787947711,139.051658770644L479.4772818092254,121.63687367296927L480.0000848236797,141.08759663645694L480.52288783813407,133.20024773360112L481.5684938670427,140.41556845278407L483.1369029104056,139.6546986420409L484.18250893931423,142.77560320386567L484.7053119537685,128.7030936500861L485.75091798267715,120.97093192601324L486.27372099713153,131.5252201729074L487.84213004049445,144.2924434133699L488.3649330549487,136.55436743638796L489.4105390838573,134.11272277815846L489.9333420983117,153.71537447231105L493.59296319949186,139.6359201716218L494.11576621394613,163.41309523523154L494.6385692284005,139.0061865923438L495.1613722428548,139.57426271539993L495.68417525730916,138.59760485210813L496.20697827176343,160.01650874424215L496.7297812862177,144.2960436202577L497.77538731512635,134.1375850764488L498.2981903295807,137.6986227568433L498.820993344035,132.93646474908525L500.389402387398,137.02793030210273L500.91220540185225,138.9330502156101L501.4350084163065,133.50403214725506L501.9578114307609,135.34833465281443L503.0034174596695,129.6282320310444L506.14023554639533,122.5664731798538L506.6630385608497,139.76792775750764L507.185841575304,168.25559786003558L508.23144760421263,141.86231941718137L510.3226596620299,139.37673136415623L511.8910687053928,171.0508871884694L513.4594777487557,129.77559528196036L515.550689806573,143.53696869526732L517.119098849936,122.97164776777387L517.6419018643902,106.96015939824542L518.1647048788445,117.76872530081795L519.2103109077532,120.42942428625082L519.7331139222075,134.75076813942522L520.2559169366618,136.05747627357846L521.8243259800248,136.41113137916508L522.347128994479,132.68171358793572L523.3927350233877,131.1888251896176L524.4383410522963,128.78053723085722L524.9611440667506,123.08607956104879L526.0067500956592,124.69359280721406L527.0523561245678,168.39956961170938L527.5751591390222,125.86327132775753L528.6207651679308,137.41593346847537L529.6663711968395,143.67428267304427L530.1891742112938,132.49079566021416L530.711977225748,123.66053170268012L531.2347802402024,127.02052652569253L532.8031892835653,130.435228840326L533.3259922980196,130.94762176351762L533.848795312474,116.97879295041537L535.4172043558368,110.67493243486274L535.9400073702913,131.04106017648374L540.1224314859256,133.94214080166176L541.6908405292886,124.575307749031L542.2136435437429,122.62961246035991L543.2592495726515,130.32889490370312L544.3048556015602,134.45255621991063L544.8276586160146,121.97673320317716L546.3960676593774,128.26509978488448L546.9188706738319,128.3170184205903L547.9644767027404,122.93438301763965L548.4872797171947,127.21724652596373L549.0100827316489,123.92165888240484L549.5328857461033,132.61165043128452L551.1012947894662,141.30623354836894L555.2837189051007,138.7575949155871L555.806521919555,126.24712382082694L556.3293249340095,133.30785478686263L557.374930962918,151.09464300102385L558.4205369918266,127.14967481683271L558.9433400062809,125.95565576711306L559.4661430207353,129.5648683898192L560.5117490496439,134.3006587953925L561.5573550785525,139.79980263269246L562.0801580930067,105.87035981581352L562.6029611074612,127.68382290323976L564.171370150824,136.91616214015568L564.6941731652784,125.72271455493598L565.2169761797327,106.48053879311504L567.8309912520042,128.65516393925813L568.876597280913,126.79723804212767L569.3994002953673,129.09137857178035L570.4450063242758,131.35583826537334L570.9678093387301,132.84353245215988L572.0134153676388,128.8394188753917L575.1502334543648,130.6877911800416L575.673036468819,124.85691175764143L576.7186424977276,123.5412761539447L577.7642485266362,125.52701200443747L579.8554605844535,121.16015671295935L580.901066613362,136.9084869164862L581.9466726422708,110.37049189654766L582.9922786711793,116.96794015284053L584.037884700088,116.42640120693125L585.0834907289966,124.61264293799564L585.6062937434509,121.30732169161189L586.1290967579052,152.92243151411967L586.6518997723595,122.26237309588578L587.1747027868138,115.52720518632964L589.2659148446311,129.91320927697797L590.3115208735396,147.410045176702L590.8343238879941,157.0624815982034L593.97114197472,107.73702795445189L595.0167480036285,134.30682871516763L596.0623540325371,119.22816047238086L596.5851570469914,162.97093765249886L597.1079600614459,120.2048313799005L600.2447781481717,124.9509058547142L601.8131871915346,130.41773653077337L602.8587932204433,117.39326546395006L604.4272022638062,127.9686488361302L605.995611307169,126.85749454827797L606.5184143216235,137.21900736940412L607.564020350532,116.71907976499006L608.0868233649863,119.95601534242473L608.6096263794407,160.897489805068L609.1324293938949,118.62218825856229L610.1780354228036,176.2234192133703L610.700838437258,126.98325916671274L611.7464444661665,128.12993810470346L612.269247480621,131.36515706175248L612.7920504950753,136.7563964373958L614.3604595384381,116.62737101663737L614.8832625528923,137.17677537730293L615.9288685818011,85.86194850012151L620.1112926974356,123.92994457593795L620.6340957118898,119.10077054315548L621.1568987263441,156.82142948514647L621.6797017407986,134.0176642720928L623.2481107841614,123.78533365709924L623.7709137986158,123.26277928040918L624.29371681307,170.5414683492286L625.8621258564331,68.55446848183351L626.3849288708873,121.94397653818936L626.9077318853416,168.76136431547715L628.4761409287046,130.60761352911217L634.7497771021564,133.6477169259161L636.3181861455192,124.89090240658425L637.3637921744278,125.46986524220762L637.8865951888822,123.19593283034686L638.9322012177909,127.08907133422147L639.4550042322451,128.35824600714668L641.0234132756082,121.41096069076013L642.591822318971,124.55435871909691L643.1146253334252,123.31897903169676L643.6374283478797,141.48816922079L644.160231362334,123.11768311629427L644.6830343767883,156.34423510639704L645.2058373912425,220.92006077302742L645.7286404056969,116.73364755865776L646.2514434201512,123.31497445374546L647.2970494490598,134.06123721081738L648.3426554779685,125.04014402631122L648.8654584924227,145.3139473320249L649.9110645213315,144.50024318078056L650.95667055024,124.37498232418088L652.0022765791487,154.52681414559987L652.5250795936029,123.34116726327696L653.0478826080573,124.2969674062297L653.5706856225116,120.74357625220335L654.093488636966,129.41870259902026L654.6162916514202,124.68536711712909L656.7075037092375,128.53196903371068L659.3215187815091,125.49934258831283L659.8443217959634,114.93367455703856L660.889927824872,146.4541641595366L661.4127308393263,129.415877219267L663.5039428971436,127.18615952214128L664.0267459115978,117.94885565210399L664.5495489260521,128.35347703744313L665.5951549549608,137.30695155359803L667.1635639983238,148.85081144935975L668.7319730416867,158.99099242109918L669.7775790705953,121.21540423561356L670.8231850995039,112.36069148181218L671.3459881139581,75.41511534123435L672.3915941428669,76.86371467271869L672.9143971573212,114.96346757345788L674.4828062006841,125.79622399658629L675.0056092151384,124.6503746714871L675.5284122295927,118.36913284703382L676.5740182585014,121.38067199368237L677.0968212729556,120.45590145994953L677.6196242874099,114.76653103900429L678.6652303163187,101.43345310748924L679.1880333307729,154.90726731289044L679.7108363452272,122.9553659625661L680.2336393596815,111.63030733598737L680.7564423741358,111.65428001793805L681.2792453885902,116.47549707172936L683.8932604608617,119.71835733745547L684.416063475316,116.71581349033534L685.4616695042247,129.79513292644057L687.552881562042,122.29914216536156L688.0756845764963,154.52877599746915L689.1212906054049,111.59183077708548L691.2125026632222,124.91066702062912L692.2581086921307,123.2003339528249L693.3037147210393,117.47443708504198L694.349320749948,114.06370543336732L694.8721237644023,156.2878944774486L695.3949267788566,136.32232105824167L695.9177297933109,57.94052898096146L696.9633358222196,118.46314781487115L698.5317448655825,125.519670713001L699.0545478800368,120.33472319202838L700.1001539089455,115.0111572704933L700.6229569233998,119.4145677061104L701.1457599378541,71.82229931294114L702.1913659667626,121.79396009132785L704.28257802458,112.46539228110771L705.3281840534885,119.88020750782647L705.8509870679428,114.99494590411592L706.8965930968516,122.25210989740998L707.4193961113058,126.32191159680698L708.9878051546686,58.30821184918267L709.5106081691231,128.17284839665308L712.1246232413946,65.89782364241779L712.6474262558489,112.82421811861582L713.1702292703033,132.5919979975992L713.6930322847576,26.429428613672997L714.7386383136661,121.84015231100562L715.7842443425749,120.9423859377768L716.3070473570292,119.25269405612931L716.8298503714834,145.0642025455259L717.3526533859377,125.55494752281027L717.8754564003921,165.25078170842318L718.3982594148463,113.84803477886936L719.9666684582094,159.28541107915373L721.5350775015722,131.45928942764047L722.5806835304809,117.90293736121117L723.6262895593895,133.89944965274015L724.1490925738437,118.02310600589641L724.6718955882981,131.35696006896882L725.1946986027525,116.02194926923431L725.7175016172068,120.19780054108702L727.8087136750239,116.19459484257749L729.8999257328412,121.37796140313424L730.9455317617499,191.27397453628544L731.4683347762042,115.53751012633455L733.0367438195672,57.47888332181441L733.5595468340214,133.14226874963418L734.0823498484757,125.17582225791529L735.6507588918387,118.75268010517146L737.2191679352015,121.73312442146084L737.741970949656,33.00344813231669L738.2647739641103,116.04927692658913L739.3103799930188,115.3456373611341L739.8331830074732,46.40646530031836L740.3559860219275,55.41497602263621L741.9243950652905,116.34454606829973L742.970001094199,125.25523551709247L743.4928041086533,68.6028338698718L744.0156071231078,34.1379307172636L744.5384101375621,56.57592273705404L745.0612131520163,129.05528780215303L745.5840161664706,122.373963856334L746.6296221953792,126.29454741561418L747.1524252098336,101.51586458243872L748.7208342531965,132.13175067967813L751.3348493254681,66.20300378845212L757.6084854989199,121.57908774357458L758.1312885133741,129.51789612531576L758.6540915278284,118.54370113956281L759.1768945422828,37.653845804664456L761.2681066001,87.8742110923788L762.836515643463,41.69575633606331L763.3593186579174,65.80608619676383L764.4049246868259,181.96414215053247L764.9277277012802,47.423967249867644L765.4505307157344,124.38402197408394L765.9733337301889,119.64715150644423L767.0189397590975,112.58596660127927L768.0645457880061,130.11218071097682L768.5873488024604,126.44527085962537L769.1101518169147,38.67730635749757L770.1557578458234,108.95341133282778L770.6785608602777,118.07914661760418L771.2013638747319,135.56032944390304L772.2469699036407,130.06480407540988L773.2925759325492,45.552866682604304L776.4293940192752,170.31207255818234L777.4750000481837,103.29020241526723L780.0890151204553,47.12329779782527L780.6118181349095,112.9367337148189L782.7030301927268,152.06764848051645L785.3170452649985,127.77882140585726L785.8398482794528,116.24527688548272L787.93106033727,105.01213180163398L790.0222723950872,115.7966415391976L791.5906814384502,120.17276605898894L793.1590904818131,23.177137371208232L793.6818934962673,39.29917165853385L794.2046965107218,136.53225486132925L795.7731055540846,56.68564034638234L796.295908568539,115.4954477091955L797.8643176119019,108.91245506621078L798.9099236408106,57.764139714224086L799.4327266552648,121.41466786031634L799.9555296697191,143.91398862178661L803.6151507708994,39.88257735816438L804.1379537853537,111.46948374634854L804.660756799808,58.32393536143826L805.1835598142623,121.33708601072988L806.2291658431709,119.02279475788782L806.7519688576252,21.900493573413655L807.2747718720796,152.74773277931217L807.7975748865339,192.81832763118L808.3203779009882,123.50090687758112L808.8431809154424,50.34898664200392L809.3659839298967,28.668590331765245L809.8887869443512,114.77062692655056L810.4115899588055,123.98446162183234L811.9799990021684,44.82367869247378L813.025605031077,113.26064145878377L815.6396201033485,124.0937409451048L816.1624231178029,120.7655792557481L816.6852261322572,103.95705725817305L817.7308321611658,47.60853785631525L821.390453262346,123.3783537480441L822.4360592912547,44.99269536162791L825.0500743635262,18.148613621819152L825.5728773779805,116.56822326985468L827.6640894357977,116.96724619991869L828.7096954647064,119.7688802407809L829.2324984791608,105.39738133150655L830.2781045080693,106.9236577354406L830.8009075225236,121.32009720837243L831.8465135514323,106.3749940322773L832.3693165658866,123.08611608488681L835.5061346526124,60.909129138359106L836.0289376670668,120.33031946070474L836.5517406815211,117.54320886313559L839.1657557537926,123.72095778379253L839.6885587682469,113.96522020864433L844.3937858983358,71.571491421872L844.9165889127901,55.73448133970021L846.4849979561529,114.4175718554452L847.0078009706073,142.05302081072054L847.5306039850617,113.0611926060455L848.5762100139702,103.8553096720637L849.6218160428789,122.48045432369122L850.6674220717875,24.200676189408455L852.2358311151504,116.95753607670395L852.7586341296047,49.527153327960775L853.8042401585134,46.648988802277245L854.3270431729677,120.99440110076875L855.3726492018764,108.90923575077636L856.418255230785,128.42324278569924L856.9410582452393,42.22248747451238L857.9866642741479,36.30953898814391L858.5094672886022,117.88797563186228L860.6006793464195,140.15274291459266L861.1234823608738,108.5954568497404L862.1690883897824,115.23279957250293L862.6918914042368,121.87667614899777L863.214694418691,114.27830907002681L863.7374974331453,115.3151243033372L864.783103462054,106.65966604327906L865.3059064765082,16.29441837385508L865.8287094909626,117.60251314065249L866.351512505417,39.71836618255179L868.4427245632342,114.57348168445134L869.4883305921428,128.96302858738488L870.0111336065971,54.39431997879177L870.5339366210515,62.86491544169826L871.57954264996,95.65015087565928L872.6251486788686,112.24749497691505L873.6707547077773,65.05960938703515L874.7163607366858,26.848377906207304L875.2391637511403,34.62006103183319L875.7619667655946,109.2002107326773L876.8075727945031,121.7753590224076L877.3303758089575,106.27764365537763L877.8531788234118,28.075704087330223L878.375981837866,157.83339024670323L878.8987848523204,117.9566378384419L879.4215878667748,123.20382719704429L880.4671938956833,35.819352558451556L880.9899969101376,111.16653025000886L882.5584059535006,36.61252509505317L883.0812089679549,25.108225733528002L884.1268149968635,114.0907904680841L884.6496180113179,132.19582392689856L886.2180270546808,118.30223943775127L886.7408300691351,29.41527845798521L887.2636330835894,107.61608839590042L887.7864360980437,114.58453014544398L888.3092391124981,38.054131415984784L889.3548451414067,105.46360426747742L891.4460571992239,159.0211611112807L892.4916632281326,112.76351028218181L893.0144662425869,54.51511996410517L893.5372692570411,52.39773915726096L895.1056783004042,128.93464695641947L895.6284813148584,165.79624435807105L896.674087343767,118.00377706906187L898.7652994015843,28.320288577290057L899.2881024160386,11.036190989642307L899.8109054304929,99.9058768462495L900.3337084449473,112.57261452964752L901.3793144738559,119.69586908863465L903.4705265316732,124.1330327682476L903.9933295461275,118.36183590597216L905.038935575036,45.240269588611966L905.5617385894903,121.06173801379839L906.0845416039447,128.02525295848133L906.607344618399,103.60396044553858L907.6529506473076,120.71592770684333L909.2213596906705,134.5434849234376L909.744162705125,131.68793908885345L910.2669657195792,37.68740077639694L910.7897687340335,117.85172050496396L911.3125717484878,35.090378493657795L912.8809807918508,39.00867148652674L913.4037838063051,61.75528471965947L915.4949958641223,125.77477145945704L916.0177988785766,157.34979376092292L917.0634049074853,122.36726955859916L917.5862079219396,42.803952193038185L918.1090109363938,132.78546998513463L920.2002229942111,142.41491465062L921.768632037574,43.18090428957265L922.8142380664827,111.73850007507951L924.3826471098456,113.22080438691665L924.9054501242999,140.5137340939246L925.4282531387543,26.93840394916674L925.9510561532086,113.61263472974179L926.4738591676629,118.60175056236011L927.5194651965714,136.23542562996724L928.0422682110258,35.814745337173406L928.5650712254802,124.26382202325183L930.1334802688431,128.50816853556765L930.6562832832974,71.07630383522024L931.701889312206,118.93264088149544L932.2246923266604,124.62297657530183L932.7474953411147,132.61471060713913L934.3159043844776,114.76210382807051L935.3615104133862,90.05407456590956L935.8843134278405,119.19842224171856L936.4071164422949,18.872349124706602L936.9299194567491,33.394994110974665L940.5895405579292,120.88744104120883L941.1123435723837,181.34750497602025L942.6807526157465,25.65859301284911L945.2947676880182,31.141186333847486L947.3859797458355,124.11460127428944L948.431585774744,30.240758938136423L949.4771918036527,128.03766845455306L950.5227978325613,125.23127066167845L951.0456008470156,110.73289446133344L951.56840386147,97.02481258871393L952.0912068759242,25.29349029289756L954.1824189337415,20.5439460534746L954.7052219481958,22.242455833151666L955.2280249626501,119.3350474842648L956.2736309915587,37.12295094868426L956.7964340060131,32.15381495987043L957.3192370204673,26.05462620588895L959.4104490782845,117.89937367816134L960.4560551071933,117.31856638871943L961.5016611361018,130.27787892856483L962.5472671650105,122.56784804146963L963.0700701794648,26.744952832395825L964.1156762083734,41.38698380967787L966.2068882661907,37.93111391193611L967.2524942950993,162.10394000393285L967.7752973095536,104.80860010557723L969.3437063529166,102.35975372914936L970.9121153962794,14.260384965308845L973.0033274540967,35.65997818252731L974.0489334830054,126.0152104938048L974.5717364974596,23.44967825030551L976.1401455408226,125.13041790959991L978.2313575986398,35.76383110701238L978.7541606130942,135.75554414027982L979.2769636275485,139.90535130679856L979.7997666420029,126.93375632200554L981.3681756853657,146.3080844606415L981.89097869982,19.382399304575472L982.4137817142744,131.31541159440718L983.459387743183,12.119211486858319L983.9821907576372,131.18417100911918L984.5049937720916,128.96193287224511L985.5505998010002,134.0910510980013L986.0734028154545,3.819226697749741L987.6418118588174,116.74213413329983L988.1646148732718,139.87042929998697L989.2102209021805,126.1716238300061L990.255826931089,14.22944405683836L990.7786299455433,145.07657369122293L991.3014329599977,119.79446779813998L994.9610540611778,110.49652000838506L995.4838570756322,123.66286661946609L996.0066600900865,21.109705521663784L996.5294631045408,126.07940635676712L999.6662811912666,104.78000976696609L1000.189084205721,105.45597600302824L1000.7118872201753,133.16023326023515L1001.2346902346296,124.4160742507676L1001.757493249084,29.91081302109785L1002.8030992779925,127.69611578356964L1004.3715083213555,142.6464131711964L1005.9399173647184,127.39725426150795L1008.0311294225357,121.55695690659695L1008.55393243699,121.38078156519634L1009.0767354514443,114.62589078312448L1009.5995384658986,101.97582427513566L1010.1223414803529,4.160808066034406L1011.1679475092616,97.53316604064474L1011.6907505237159,107.32159277690153L1013.7819625815331,105.15478739071727L1015.3503716248961,100.3985586367304L1015.8731746393503,29.573833656400154L1017.4415836827134,13.95324035855964L1017.9643866971676,115.91407350487896L1018.4871897116219,116.50667538514682L1019.0099927260762,115.78260595002627L1019.5327957405306,120.93126442910824L1020.5784017694392,103.57444005348145L1021.1012047838935,133.40560562155744L1021.6240077983477,123.92212586576204L1022.1468108128021,160.21456186460003L1022.6696138272565,107.85496994944242L1024.7608258850737,100.87023465488608L1025.283628899528,0.528929793008615L1025.8064319139824,12.640182294286888L1027.3748409573452,120.54926682523967L1028.4204469862539,106.00070556707067L1028.943250000708,121.18796439789918L1029.4660530151625,135.3116021071766L1030.5116590440712,11.36754046559804L1031.0344620585254,109.76850208549308L1031.5572650729798,125.81691996849995L1032.6028711018882,112.61362819086719L1033.1256741163427,90.5806234112743L1034.6940831597055,93.84078945409476L1035.7396891886142,127.47398040974713L1036.7852952175228,119.11139898001113L1037.3080982319773,121.26543667597161L1038.3537042608857,107.81047347938573L1039.9221133042488,107.97574515072284L1040.9677193331574,109.8404657861426L1041.4905223476117,109.62262326770696L1042.0133253620659,80.73481234478783L1043.0589313909747,102.04456670371655L1044.1045374198832,17.545641580407107L1044.6273404343376,115.27136874542265L1045.1501434487918,101.05439567257906L1047.2413555066091,20.94234286060157L1047.7641585210633,103.50647049540089L1048.809764549972,118.31080949545156L1049.8553705788806,115.3083178252428L1052.4693856511524,119.49084513291137L1054.5605977089695,126.49438237749698L1055.083400723424,118.25706727669171L1055.606203737878,103.28090579407541L1056.1290067523325,120.04783105344575L1062.4026429257842,118.42139063266387L1063.4482489546929,90.7852020696692L1064.4938549836015,30.085266524421684" fill="none"></path></g></g></g></g></g></g><g transform="translate(49, 378)" clip-path="url(#clip_1)"><clipPath id="clip_1"><rect width="1079" height="21"></rect></clipPath><g><g><line x1="18.88782607497578" y1="0" x2="18.88782607497578" y2="5" style="visibility: inherit;" fill="rgb(0, 0, 0)" stroke="rgb(204, 204, 204)" stroke-width="1px"></line><line x1="123.44842896583836" y1="0" x2="123.44842896583836" y2="5" style="visibility: inherit;" fill="rgb(0, 0, 0)" stroke="rgb(204, 204, 204)" stroke-width="1px"></line><line x1="228.00903185670091" y1="0" x2="228.00903185670091" y2="5" style="visibility: inherit;" fill="rgb(0, 0, 0)" stroke="rgb(204, 204, 204)" stroke-width="1px"></line><line x1="332.5696347475635" y1="0" x2="332.5696347475635" y2="5" style="visibility: inherit;" fill="rgb(0, 0, 0)" stroke="rgb(204, 204, 204)" stroke-width="1px"></line><line x1="437.1302376384261" y1="0" x2="437.1302376384261" y2="5" style="visibility: inherit;" fill="rgb(0, 0, 0)" stroke="rgb(204, 204, 204)" stroke-width="1px"></line><line x1="541.6908405292886" y1="0" x2="541.6908405292886" y2="5" style="visibility: inherit;" fill="rgb(0, 0, 0)" stroke="rgb(204, 204, 204)" stroke-width="1px"></line><line x1="646.2514434201512" y1="0" x2="646.2514434201512" y2="5" style="visibility: inherit;" fill="rgb(0, 0, 0)" stroke="rgb(204, 204, 204)" stroke-width="1px"></line><line x1="750.8120463110138" y1="0" x2="750.8120463110138" y2="5" style="visibility: inherit;" fill="rgb(0, 0, 0)" stroke="rgb(204, 204, 204)" stroke-width="1px"></line><line x1="855.3726492018764" y1="0" x2="855.3726492018764" y2="5" style="visibility: inherit;" fill="rgb(0, 0, 0)" stroke="rgb(204, 204, 204)" stroke-width="1px"></line><line x1="959.9332520927389" y1="0" x2="959.9332520927389" y2="5" style="visibility: inherit;" fill="rgb(0, 0, 0)" stroke="rgb(204, 204, 204)" stroke-width="1px"></line><line x1="1064.4938549836015" y1="0" x2="1064.4938549836015" y2="5" style="visibility: inherit;" fill="rgb(0, 0, 0)" stroke="rgb(204, 204, 204)" stroke-width="1px"></line></g><g transform="translate(0, 8)"><text style="text-anchor: middle; visibility: inherit; font-family: &quot;Helvetica Neue&quot;, sans-serif; font-size: 12px; font-weight: 200;" x="18.88782607497578" y="0" dx="0em" dy="0.95em" fill="rgb(50, 49, 63)" stroke="none" stroke-width="1px">0</text><text style="text-anchor: middle; visibility: inherit; font-family: &quot;Helvetica Neue&quot;, sans-serif; font-size: 12px; font-weight: 200;" x="123.44842896583836" y="0" dx="0em" dy="0.95em" fill="rgb(50, 49, 63)" stroke="none" stroke-width="1px">200</text><text style="text-anchor: middle; visibility: inherit; font-family: &quot;Helvetica Neue&quot;, sans-serif; font-size: 12px; font-weight: 200;" x="228.00903185670091" y="0" dx="0em" dy="0.95em" fill="rgb(50, 49, 63)" stroke="none" stroke-width="1px">400</text><text style="text-anchor: middle; visibility: inherit; font-family: &quot;Helvetica Neue&quot;, sans-serif; font-size: 12px; font-weight: 200;" x="332.5696347475635" y="0" dx="0em" dy="0.95em" fill="rgb(50, 49, 63)" stroke="none" stroke-width="1px">600</text><text style="text-anchor: middle; visibility: inherit; font-family: &quot;Helvetica Neue&quot;, sans-serif; font-size: 12px; font-weight: 200;" x="437.1302376384261" y="0" dx="0em" dy="0.95em" fill="rgb(50, 49, 63)" stroke="none" stroke-width="1px">800</text><text style="text-anchor: middle; visibility: inherit; font-family: &quot;Helvetica Neue&quot;, sans-serif; font-size: 12px; font-weight: 200;" x="541.6908405292886" y="0" dx="0em" dy="0.95em" fill="rgb(50, 49, 63)" stroke="none" stroke-width="1px">1k</text><text style="text-anchor: middle; visibility: inherit; font-family: &quot;Helvetica Neue&quot;, sans-serif; font-size: 12px; font-weight: 200;" x="646.2514434201512" y="0" dx="0em" dy="0.95em" fill="rgb(50, 49, 63)" stroke="none" stroke-width="1px">1.2k</text><text style="text-anchor: middle; visibility: inherit; font-family: &quot;Helvetica Neue&quot;, sans-serif; font-size: 12px; font-weight: 200;" x="750.8120463110138" y="0" dx="0em" dy="0.95em" fill="rgb(50, 49, 63)" stroke="none" stroke-width="1px">1.4k</text><text style="text-anchor: middle; visibility: inherit; font-family: &quot;Helvetica Neue&quot;, sans-serif; font-size: 12px; font-weight: 200;" x="855.3726492018764" y="0" dx="0em" dy="0.95em" fill="rgb(50, 49, 63)" stroke="none" stroke-width="1px">1.6k</text><text style="text-anchor: middle; visibility: inherit; font-family: &quot;Helvetica Neue&quot;, sans-serif; font-size: 12px; font-weight: 200;" x="959.9332520927389" y="0" dx="0em" dy="0.95em" fill="rgb(50, 49, 63)" stroke="none" stroke-width="1px">1.8k</text><text style="text-anchor: middle; visibility: inherit; font-family: &quot;Helvetica Neue&quot;, sans-serif; font-size: 12px; font-weight: 200;" x="1064.4938549836015" y="0" dx="0em" dy="0.95em" fill="rgb(50, 49, 63)" stroke="none" stroke-width="1px">2k</text></g><line x1="0" y1="0" x2="1079.4159988403321" y2="0" fill="rgb(0, 0, 0)" stroke="rgb(204, 204, 204)" stroke-width="1px"></line></g></g></g></g></svg>