<svg viewBox="0 0 1129.4000244140625 400" xmlns="http://www.w3.org/2000/svg"><g><g><g><g><g><line x1="49.98400115966797" y1="366.0098906108526" x2="44.98400115966797" y2="366.0098906108526" style="visibility: inherit;" fill="rgb(0, 0, 0)" stroke="rgb(204, 204, 204)" stroke-width="1px"></line><line x1="49.98400115966797" y1="331.81522994439376" x2="44.98400115966797" y2="331.81522994439376" style="visibility: inherit;" fill="rgb(0, 0, 0)" stroke="rgb(204, 204, 204)" stroke-width="1px"></line><line x1="49.98400115966797" y1="297.620569277935" x2="44.98400115966797" y2="297.620569277935" style="visibility: inherit;" fill="rgb(0, 0, 0)" stroke="rgb(204, 204, 204)" stroke-width="1px"></line><line x1="49.98400115966797" y1="263.4259086114762" x2="44.98400115966797" y2="263.4259086114762" style="visibility: inherit;" fill="rgb(0, 0, 0)" stroke="rgb(204, 204, 204)" stroke-width="1px"></line><line x1="49.98400115966797" y1="229.23124794501734" x2="44.98400115966797" y2="229.23124794501734" style="visibility: inherit;" fill="rgb(0, 0, 0)" stroke="rgb(204, 204, 204)" stroke-width="1px"></line><line x1="49.98400115966797" y1="195.0365872785585" x2="44.98400115966797" y2="195.0365872785585" style="visibility: inherit;" fill="rgb(0, 0, 0)" stroke="rgb(204, 204, 204)" stroke-width="1px"></line><line x1="49.98400115966797" y1="160.84192661209966" x2="44.98400115966797" y2="160.84192661209966" style="visibility: inherit;" fill="rgb(0, 0, 0)" stroke="rgb(204, 204, 204)" stroke-width="1px"></line><line x1="49.98400115966797" y1="126.64726594564084" x2="44.98400115966797" y2="126.64726594564084" style="visibility: inherit;" fill="rgb(0, 0, 0)" stroke="rgb(204, 204, 204)" stroke-width="1px"></line><line x1="49.98400115966797" y1="92.45260527918202" x2="44.98400115966797" y2="92.45260527918202" style="visibility: inherit;" fill="rgb(0, 0, 0)" stroke="rgb(204, 204, 204)" stroke-width="1px"></line><line x1="49.98400115966797" y1="58.25794461272318" x2="44.98400115966797" y2="58.25794461272318" style="visibility: inherit;" fill="rgb(0, 0, 0)" stroke="rgb(204, 204, 204)" stroke-width="1px"></line><line x1="49.98400115966797" y1="24.06328394626439" x2="44.98400115966797" y2="24.06328394626439" style="visibility: inherit;" fill="rgb(0, 0, 0)" stroke="rgb(204, 204, 204)" stroke-width="1px"></line></g><g transform="translate(39.98400115966797, 0)"><text style="text-anchor: end; visibility: inherit; font-family: &quot;Helvetica Neue&quot;, sans-serif; font-size: 12px; font-weight: 200;" x="0" y="366.0098906108526" dx="0em" dy="0.3em" fill="rgb(50, 49, 63)" stroke="none" stroke-width="1px">-800</text><text style="text-anchor: end; visibility: inherit; font-family: &quot;Helvetica Neue&quot;, sans-serif; font-size: 12px; font-weight: 200;" x="0" y="331.81522994439376" dx="0em" dy="0.3em" fill="rgb(50, 49, 63)" stroke="none" stroke-width="1px">-700</text><text style="text-anchor: end; visibility: inherit; font-family: &quot;Helvetica Neue&quot;, sans-serif; font-size: 12px; font-weight: 200;" x="0" y="297.620569277935" dx="0em" dy="0.3em" fill="rgb(50, 49, 63)" stroke="none" stroke-width="1px">-600</text><text style="text-anchor: end; visibility: inherit; font-family: &quot;Helvetica Neue&quot;, sans-serif; font-size: 12px; font-weight: 200;" x="0" y="263.4259086114762" dx="0em" dy="0.3em" fill="rgb(50, 49, 63)" stroke="none" stroke-width="1px">-500</text><text style="text-anchor: end; visibility: inherit; font-family: &quot;Helvetica Neue&quot;, sans-serif; font-size: 12px; font-weight: 200;" x="0" y="229.23124794501734" dx="0em" dy="0.3em" fill="rgb(50, 49, 63)" stroke="none" stroke-width="1px">-400</text><text style="text-anchor: end; visibility: inherit; font-family: &quot;Helvetica Neue&quot;, sans-serif; font-size: 12px; font-weight: 200;" x="0" y="195.0365872785585" dx="0em" dy="0.3em" fill="rgb(50, 49, 63)" stroke="none" stroke-width="1px">-300</text><text style="text-anchor: end; visibility: inherit; font-family: &quot;Helvetica Neue&quot;, sans-serif; font-size: 12px; font-weight: 200;" x="0" y="160.84192661209966" dx="0em" dy="0.3em" fill="rgb(50, 49, 63)" stroke="none" stroke-width="1px">-200</text><text style="text-anchor: end; visibility: inherit; font-family: &quot;Helvetica Neue&quot;, sans-serif; font-size: 12px; font-weight: 200;" x="0" y="126.64726594564084" dx="0em" dy="0.3em" fill="rgb(50, 49, 63)" stroke="none" stroke-width="1px">-100</text><text style="text-anchor: end; visibility: inherit; font-family: &quot;Helvetica Neue&quot;, sans-serif; font-size: 12px; font-weight: 200;" x="0" y="92.45260527918202" dx="0em" dy="0.3em" fill="rgb(50, 49, 63)" stroke="none" stroke-width="1px">0</text><text style="text-anchor: end; visibility: inherit; font-family: &quot;Helvetica Neue&quot;, sans-serif; font-size: 12px; font-weight: 200;" x="0" y="58.25794461272318" dx="0em" dy="0.3em" fill="rgb(50, 49, 63)" stroke="none" stroke-width="1px">100</text><text style="text-anchor: end; visibility: inherit; font-family: &quot;Helvetica Neue&quot;, sans-serif; font-size: 12px; font-weight: 200;" x="0" y="24.06328394626439" dx="0em" dy="0.3em" fill="rgb(50, 49, 63)" stroke="none" stroke-width="1px">200</text></g><line x1="49.98400115966797" y1="0" x2="49.98400115966797" y2="378.60799980163574" fill="rgb(0, 0, 0)" stroke="rgb(204, 204, 204)" stroke-width="1px"></line></g></g><g transform="translate(49, 0)" clip-path="url(#clip_0)"><clipPath id="clip_0"><rect width="1079" height="378"></rect></clipPath><g><g><g><line x1="18.88782607497578" y1="0" x2="18.88782607497578" y2="378.60799980163574" fill="rgb(0, 0, 0)" stroke="rgb(60, 60, 60)" stroke-width="1px" opacity="0.25"></line><line x1="123.44842896583836" y1="0" x2="123.44842896583836" y2="378.60799980163574" fill="rgb(0, 0, 0)" stroke="rgb(60, 60, 60)" stroke-width="1px" opacity="0.25"></line><line x1="228.00903185670091" y1="0" x2="228.00903185670091" y2="378.60799980163574" fill="rgb(0, 0, 0)" stroke="rgb(60, 60, 60)" stroke-width="1px" opacity="0.25"></line><line x1="332.5696347475635" y1="0" x2="332.5696347475635" y2="378.60799980163574" fill="rgb(0, 0, 0)" stroke="rgb(60, 60, 60)" stroke-width="1px" opacity="0.25"></line><line x1="437.1302376384261" y1="0" x2="437.1302376384261" y2="378.60799980163574" fill="rgb(0, 0, 0)" stroke="rgb(60, 60, 60)" stroke-width="1px" opacity="0.25"></line><line x1="541.6908405292886" y1="0" x2="541.6908405292886" y2="378.60799980163574" fill="rgb(0, 0, 0)" stroke="rgb(60, 60, 60)" stroke-width="1px" opacity="0.25"></line><line x1="646.2514434201512" y1="0" x2="646.2514434201512" y2="378.60799980163574" fill="rgb(0, 0, 0)" stroke="rgb(60, 60, 60)" stroke-width="1px" opacity="0.25"></line><line x1="750.8120463110138" y1="0" x2="750.8120463110138" y2="378.60799980163574" fill="rgb(0, 0, 0)" stroke="rgb(60, 60, 60)" stroke-width="1px" opacity="0.25"></line><line x1="855.3726492018764" y1="0" x2="855.3726492018764" y2="378.60799980163574" fill="rgb(0, 0, 0)" stroke="rgb(60, 60, 60)" stroke-width="1px" opacity="0.25"></line><line x1="959.9332520927389" y1="0" x2="959.9332520927389" y2="378.60799980163574" fill="rgb(0, 0, 0)" stroke="rgb(60, 60, 60)" stroke-width="1px" opacity="0.25"></line><line x1="1064.4938549836015" y1="0" x2="1064.4938549836015" y2="378.60799980163574" fill="rgb(0, 0, 0)" stroke="rgb(60, 60, 60)" stroke-width="1px" opacity="0.25"></line></g><g><line x1="0" y1="366.0098906108526" x2="1079.4159988403321" y2="366.0098906108526" fill="rgb(0, 0, 0)" stroke="rgb(60, 60, 60)" stroke-width="1px" opacity="0.25"></line><line x1="0" y1="331.81522994439376" x2="1079.4159988403321" y2="331.81522994439376" fill="rgb(0, 0, 0)" stroke="rgb(60, 60, 60)" stroke-width="1px" opacity="0.25"></line><line x1="0" y1="297.620569277935" x2="1079.4159988403321" y2="297.620569277935" fill="rgb(0, 0, 0)" stroke="rgb(60, 60, 60)" stroke-width="1px" opacity="0.25"></line><line x1="0" y1="263.4259086114762" x2="1079.4159988403321" y2="263.4259086114762" fill="rgb(0, 0, 0)" stroke="rgb(60, 60, 60)" stroke-width="1px" opacity="0.25"></line><line x1="0" y1="229.23124794501734" x2="1079.4159988403321" y2="229.23124794501734" fill="rgb(0, 0, 0)" stroke="rgb(60, 60, 60)" stroke-width="1px" opacity="0.25"></line><line x1="0" y1="195.0365872785585" x2="1079.4159988403321" y2="195.0365872785585" fill="rgb(0, 0, 0)" stroke="rgb(60, 60, 60)" stroke-width="1px" opacity="0.25"></line><line x1="0" y1="160.84192661209966" x2="1079.4159988403321" y2="160.84192661209966" fill="rgb(0, 0, 0)" stroke="rgb(60, 60, 60)" stroke-width="1px" opacity="0.25"></line><line x1="0" y1="126.64726594564084" x2="1079.4159988403321" y2="126.64726594564084" fill="rgb(0, 0, 0)" stroke="rgb(60, 60, 60)" stroke-width="1px" opacity="0.25"></line><line x1="0" y1="92.45260527918202" x2="1079.4159988403321" y2="92.45260527918202" fill="rgb(0, 0, 0)" stroke="rgb(60, 60, 60)" stroke-width="1px" opacity="0.25"></line><line x1="0" y1="58.25794461272318" x2="1079.4159988403321" y2="58.25794461272318" fill="rgb(0, 0, 0)" stroke="rgb(60, 60, 60)" stroke-width="1px" opacity="0.25"></line><line x1="0" y1="24.06328394626439" x2="1079.4159988403321" y2="24.06328394626439" fill="rgb(0, 0, 0)" stroke="rgb(60, 60, 60)" stroke-width="1px" opacity="0.25"></line></g></g></g><g><g><line x1="0" y1="92.45260527918202" x2="1079.4159988403321" y2="92.45260527918202" fill="rgb(0, 0, 0)" stroke="rgb(153, 153, 153)" stroke-width="1.5px"></line></g></g><g><g><line x1="18.88782607497578" y1="0" x2="18.88782607497578" y2="378.60799980163574" fill="rgb(0, 0, 0)" stroke="rgb(153, 153, 153)" stroke-width="1.5px"></line></g></g><g><g><g><g><g><path style="fill: none;" stroke="rgb(204, 51, 17)" stroke-width="2px" d="M22.02464416170166,148.46566236004165L22.547447176155973,120.47939150546961L24.63865923397322,165.221103481209L25.161462248427537,124.80553837065992L26.207068277336163,183.4679642206381L26.729871291790474,130.57060705468945L27.25267430624479,148.8324243057763L28.29828033515341,138.81588174333137L28.821083349607726,187.67020918313128L29.343886364062037,224.70979507385525L29.86668937851635,127.53410647361886L31.957901436333604,206.5801654189986L36.663128566422415,182.81325877155578L37.18593158087673,199.2985121923308L38.231537609785356,170.45702523579084L39.79994665314829,234.36727178499953L40.32274966760261,88.31388538023373L41.36835569651124,256.30339496463125L42.41396172541986,153.57918229812952L42.93676473987418,242.38884579247642L43.9823707687828,219.861652124927L45.02797679769142,248.22672213869762L45.550779812145734,194.47580027002735L47.119188855508675,347.7858103109483L47.64199186996299,147.90370658869475L48.1647948844173,112.40707936490776L48.687597898871616,240.84592234495466L49.21040091332593,252.24725578948883L50.77880995668887,264.5248587197479L51.30161297114318,143.50267281139267L52.34721900005181,147.52595618541557L53.39282502896043,139.22625836931977L53.91562804341474,130.46631062645736L54.43843105786905,166.39697279229216L54.961234072323364,178.83868254434094L56.529643115686305,118.33591180753444L57.05244613014062,207.56904311494432L57.57524914459493,147.5463625754709L58.098052159049246,150.92111302903214L59.14365818795787,169.3650250921199L60.71206723132081,160.07531212340947L63.32608230359237,140.57292879992755L63.84888531804668,296.63899634958767L64.371688332501,240.9740166624842L64.8944913469553,201.62439193719868L65.41729436140963,154.5166292124912L65.94009737586394,136.86297299665685L68.5541124481355,193.6206206918974L72.73653656377,124.67501260905834L74.30494560713294,116.11785304126494L74.82774862158725,160.0284937807947L78.48736972276745,201.12699987603958L80.05577876613039,216.67615776445868L81.10138479503901,180.55287148589895L81.62418780949332,173.72300769981152L82.14699082394763,226.0673443904935L84.23820288176488,217.77786281365323L84.7610058962192,149.6857463858598L85.28380891067351,201.1750235053081L86.85221795403645,206.31379185083085L87.37502096849076,153.40290260290612L88.94343001185369,203.89322144712284L91.03464206967095,184.7897932237201L92.08024809857957,183.85871711024245L93.1258541274882,202.2527063044861L93.64865714194251,143.84827701954762L94.17146015639683,148.62742122081764L94.69426317085114,101.78528854329016L96.78547522866839,167.90275671426707L97.83108125757701,276.2303522516982L99.39949030093996,111.09013933842556L99.92229331539427,192.27562514014613L100.44509632984858,168.64260444740017L101.4907023587572,199.2264037007521L102.01350537321153,149.53274802851078L102.53630838766583,115.45488537825963L104.10471743102877,232.52048044076557L105.1503234599374,176.46590097380005L105.67312647439171,181.84213166087423L106.71873250330034,278.08242389936765L107.24153551775464,192.96155325302058L108.80994456111759,169.15011361168308L111.42395963338916,118.66953619682795L111.94676264784346,113.09106127898633L112.46956566229777,143.8736767400256L113.5151716912064,192.45034474571818L114.03797470566073,100.23611495399206L115.08358073456934,135.6543391940492L116.12918676347797,97.82480758258907L116.65198977793227,159.56798557831652L117.17479279238658,109.11253004188609L117.69759580684091,111.12349864674025L118.74320183574955,98.70663814875394L119.26600485020384,187.0554295066655L122.92562595138403,162.63740196395472L125.0168380092013,160.14053326268112L127.10805006701854,185.6773850992225L127.63085308147285,187.54342972376944L128.15365609592718,163.6758216372912L130.24486815374442,114.34775393027769L131.81327719710734,165.03128909516394L133.3816862404703,122.88975871414996L133.9044892549246,101.91090837079577L135.47289829828756,179.8086408922068L135.99570131274186,119.78888747746385L137.04130734165048,144.40694564547522L137.56411035610478,122.51718947817454L138.0869133705591,276.44730384937145L139.13251939946772,277.52223170762664L139.65532241392205,182.54783482317583L140.70092844283067,154.00215443053412L141.22373145728497,139.57768552078892L141.7465344717393,299.9911542005052L143.31494351510224,199.33797880812688L144.8833525584652,297.92400932397356L147.49736763073673,126.93705651165268L148.54297365964536,150.64131955924788L149.588579688554,185.59737702325518L150.1113827030083,164.7198920701342L152.72539777527987,236.42583877729416L154.29380681864282,187.04319923862926L154.81660983309712,242.88196978228154L155.33941284755142,224.26346333820914L155.86221586200574,197.22979157307438L156.90782189091436,102.01510174962783L158.99903394873164,301.58355179543287L160.04463997764023,213.40363231574625L161.09024600654885,201.64909248706365L162.1358520354575,210.8805968933969L164.74986710772905,260.04428124099013L165.79547313663767,128.8616514573466L167.88668519445494,234.3206569323393L170.50070026672648,125.71316878899219L171.54630629563513,119.06456759316853L172.06910931008943,198.0398902997398L173.63751835345238,164.24949634294242L174.683124382361,176.62353785857408L175.2059273968153,186.29212303415912L175.72873041126962,175.14945662797635L176.77433644017825,186.70865131800366L177.29713945463257,193.63379014433912L177.8199424690869,116.8406154447544L179.9111545269041,144.81379511225182L180.43395754135844,181.19610844985172L181.47956357026706,179.08898562379215L183.04797261363,206.9718992345376L185.13918467144725,206.51969237866592L185.66198768590158,130.49879597150576L186.18479070035588,173.51844290090872L186.7075937148102,174.11503892374557L187.75319974371882,218.00630376722057L189.32160878708174,120.0158570421292L189.84441180153607,131.61043550463418L190.3672148159904,146.11097574238028L191.93562385935334,147.60525987307875L192.45842687380764,199.30536823849107L193.50403290271626,122.41524883749292L196.64085098944216,165.24648754861354L197.68645701835075,137.99555634202818L199.2548660617137,171.95967332538953L199.77766907616802,185.52187703243428L200.82327510507665,187.11160316949739L201.34607811953097,159.10444067959384L203.9600931918025,176.9498470448869L204.48289620625684,185.48972561961895L205.52850223516546,225.6525170739612L206.5741082640741,146.7275868284368L207.09691127852838,105.88170698962398L207.6197142929827,111.46652531547119L209.18812333634565,185.2231537791878L209.71092635079998,182.19696596465892L211.27933539416293,219.9601412629183L211.8021384086172,159.957601011252L212.84774443752585,84.20232747694655L213.37054745198014,148.4829485707942L214.4161534808888,144.38330950460318L216.507365538706,180.22021236946665L217.03016855316034,178.3324673674612L217.55297156761466,119.13536644427069L218.59857759652328,143.85031713678404L219.1213806109776,108.15542547614797L220.68978965434056,199.86077058976392L221.21259266879483,118.7119690700381L221.73539568324915,158.53650021650742L222.25819869770348,159.0399708878466L223.3038047266121,117.10906043630541L223.82660774106643,191.98331964700398L224.34941075552072,160.80292958850637L224.87221376997505,221.68177063204442L229.57744090006386,117.89981457306283L230.1002439145182,167.00267890386246L231.14584994342678,159.17559433369368L232.71425898678973,119.05832723456302L236.37388008796992,257.9993428579577L236.89668310242422,218.00681510095245L238.9878951602415,125.3199192341765L239.51069817469582,222.56045069107677L240.0335011891501,208.98653326741882L241.07910721805874,118.67869585362729L242.12471324696736,186.86073657940287L244.21592530478463,184.52930521116022L248.92115243487345,172.4682886401945L249.44395544932772,240.54620773039127L249.96675846378204,137.3303059391484L250.48956147823637,240.09555574647982L251.535167507145,204.76920917752605L252.05797052159932,176.8686545530304L253.62637956496226,114.1899344263137L255.19478860832518,152.40688188778736L258.8544097095054,197.04452179601375L259.37721272395964,218.82283068937258L259.90001573841397,228.71014669531021L260.4228187528683,173.45462532055421L261.46842478177695,232.9432490832156L261.99122779623127,224.3130314040556L262.5140308106856,119.26258158084283L263.5596368395942,167.7535046591578L264.08243985404846,190.14255995372986L264.6052428685028,192.8042607358619L265.65084889741144,186.17732339365875L266.6964549263201,197.8286572915579L267.2192579407744,152.04998137831055L269.31046999859166,180.97993950584976L272.9700910997718,194.5048210681577L274.5385001431348,138.06187841413077L275.0613031575891,213.4278424026439L276.1069091864977,164.73110488839774L277.15251521540637,89.71429574686147L278.7209242587693,127.03124366329766L284.47175741776675,153.85586602399331L286.0401664611297,151.15389510162942L286.562969475584,169.3972078110821L287.08577249003827,151.8855562773611L288.1313785189469,117.20537901478184L289.17698454785557,160.39821415740673L289.69978756230984,198.00300122336773L290.7453935912185,137.50692478429607L293.35940866349006,130.8566774069172L293.8822116779444,111.39831574359806L297.0190297646703,251.54543458939668L298.0646357935789,182.3763397507294L298.5874388080332,125.95304953038774L299.11024182248747,151.56444912911664L299.6330448369418,144.4095179672081L300.1558478513961,123.54797827821625L300.67865086585044,193.17673083570563L301.2014538803047,119.48626921778009L301.7242568947591,148.89929423544874L302.24705990921336,162.83364454548644L302.7698629236677,165.68066728159056L303.8154689525763,109.2779399820385L305.38387799593926,159.03306266477495L305.9066810103935,126.21212876633936L306.4294840248479,120.95194735679405L307.4750900537565,154.12003250880812L309.56630211157375,94.67304282345367L310.61190814048234,115.58900873790344L311.657514169391,88.18568246950736L313.74872622720824,212.83161683587812L314.27152924166256,107.55932774281513L314.7943322561169,173.41069757883196L315.83993828502554,127.3781235969368L316.88554431393413,134.1345770775056L317.9311503428427,100.1068283940366L318.9767563717514,159.1364773032041L319.4995593862057,117.72124431142822L321.0679684295686,149.7112348070872L322.1135744584773,126.13229026533415L322.63637747293154,135.47089821773372L323.15918048738587,130.9022382859668L323.6819835018402,145.68334421178614L324.2047865162945,171.48240589896415L324.7275895307488,21.459238651248484L325.77319555965744,146.3377679055468L326.29599857411176,70.80282898940862L328.91001364638333,148.93519195050385L329.4328166608376,32.86205913775808L330.47842268974625,160.33039460794652L331.0012257042006,137.1005449097222L331.5240287186549,142.92822588745253L333.0924377620178,160.19615385025202L334.1380437909264,165.02702624150112L335.18364981983507,159.77445483448605L336.2292558487437,145.03030842386914L337.2748618776523,148.96628417201745L338.32046790656096,143.96439673590692L338.84327092101523,142.6098945508954L339.3660739354696,145.08946660603416L340.93448297883253,154.99277483532117L343.0256950366498,146.63040733092203L343.54849805110405,143.82008583430886L344.5941040800127,133.61205661580792L345.116907094467,133.9994414857803L346.1625131233756,140.7781145040762L348.25372518119286,154.6607209710613L350.86774025346443,147.33480607043822L354.52736135464465,135.20837008793745L355.050164369099,137.79391866785593L356.0957703980076,126.47572391397412L356.6185734124619,138.0620245094827L357.1413764269162,150.70276309013292L357.6641794413705,142.02526269384654L358.1869824558249,145.5154284754629L358.70978547027914,124.71719242424811L359.7553914991878,141.3430391416827L360.27819451364206,136.52930686583417L362.3694065714593,161.0752304538111L362.8922095859137,146.54603726516018L363.9378156148223,129.10037387130873L364.9834216437309,142.42441606618908L366.55183068709385,137.97505081584114L367.5974367160025,122.54767383867011L368.1202397304568,113.35009746898595L368.6430427449111,122.89622865116573L370.211451788274,109.69140156791445L370.73425480272834,108.29010321547554L371.25705781718267,117.80394993371578L371.77986083163694,119.9541448001504L372.3026638460913,108.1925963078416L373.3482698749999,129.7197216363691L373.87107288945424,125.5884737972415L374.3938759039085,128.82922350690075L375.43948193281716,136.2608253504452L375.9622849472715,128.82353622355626L376.48508796172575,129.13218874304545L377.00789097618014,124.94694562713761L377.5306939906344,138.3724406085778L378.05349700508873,150.65612214901697L379.0991030339973,116.4271942959848L379.62190604845165,119.45290469177428L381.19031509181457,113.21608368085617L383.28152714963187,135.20028788435891L384.8499361929948,131.04594132654685L385.3727392074491,113.49818076127951L385.8955422219034,118.48410206249639L386.94114825081203,114.5869876779717L387.46395126526636,117.5854199844722L387.9867542797207,118.43567406216437L388.50955729417495,136.7155627865206L389.5551633230836,128.1943348487747L390.07796633753793,134.8364478456636L390.6007693519922,135.9876374776464L392.6919814098095,111.90784545877563L394.78319346762675,137.42302431073702L395.305996482081,131.27481534847894L396.35160251098966,225.24937738558637L396.874405525444,122.45751474458655L397.3972085398983,128.59234032906608L397.9200115543526,134.66621545447344L398.4428145688069,126.7233059674949L398.96561758326123,137.26694229792324L400.5340266266242,133.3514120725138L401.0568296410785,128.08539728427206L404.1936477278044,145.03766015068786L405.239253756713,141.79969147040717L405.7620567711673,134.33070747867777L406.2848597856216,132.99416197773053L406.80766280007595,139.0489820950883L407.85326882898454,136.66759133416352L409.42167787234746,145.4823170074775L409.94448088680184,139.77872316047987L411.51288993016476,129.12533530573077L412.03569294461903,129.54776218941103L412.55849595907335,137.94314985220063L413.604101987982,136.70155328580506L414.64970801689066,129.0045248850351L416.2181170602536,145.2817646130627L416.74092007470784,139.32675110070957L417.7865261036165,135.43885376758678L419.35493514697947,131.12469715664017L419.87773816143374,139.1497409287263L420.40054117588807,128.92123227249402L421.44614720479666,135.4480551659152L421.968950219251,256.27243318539615L422.4917532337053,138.80013475146563L423.5373592626139,131.34833261666594L424.0601622770683,127.74184623758137L424.58296529152256,138.90705046065088L427.1969803637941,137.82402996343484L429.28819242161137,135.1138490040594L429.8109954360657,277.3501522537723L430.8566014649743,141.8368414313363L431.90220749388294,261.02829604879173L432.94781352279153,140.7860819184496L433.4706165372459,287.952500653773L433.9934195517002,140.49920282409488L434.5162225661545,145.26024163710304L435.03902558060884,122.04131256643842L435.5618285950631,143.05308523647417L436.60743462397176,137.88997114408406L437.65304065288035,128.39512203929087L438.698646681789,129.64832796847676L440.2670557251519,129.65750849604063L441.31266175406057,130.1014270495337L441.8354647685149,127.33136786661572L442.35826778296916,113.56974139528842L444.44947984078647,126.92689244930861L445.49508586969506,124.31890518863511L446.0178888841494,130.4363584704582L447.063494913058,132.68901835553416L448.63190395642096,117.2940041076697L449.67750998532955,138.55208049689654L450.2003129997839,146.50884556270196L450.7231160142382,123.6708053365382L452.2915250576012,129.6467861407444L453.8599341009641,122.82269051221417L454.38273711541837,131.10255066658908L455.428343144327,136.98666358286275L456.4739491732356,146.25360132973955L457.51955520214426,129.87987605711902L460.13357027441583,136.30725236622433L461.1791763033244,125.08122812636122L461.7019793177788,141.1322652903213L462.2247823322331,118.44456761671546L462.7475853466874,167.33188390875895L464.3159943900503,141.46646884333154L467.4528124767762,126.03121315253648L468.4984185056848,133.51518235322496L469.02122152013914,130.75332798962734L469.54402453459346,125.20799454149522L470.0668275490478,132.7390455782011L470.58963056350206,128.8834379267089L472.68084262131936,144.49158181348528L473.72644865022795,119.64627232548685L474.2492516646823,132.01820850274285L475.81766070804525,127.84306422803985L476.3404637224995,23.20081525360939L476.8632667369539,131.57094280038243L477.3860697514082,144.89596331235185L477.90887276586244,145.70814911547393L478.9544787947711,122.97496100164892L479.4772818092254,13.874041024719247L480.0000848236797,134.70669169350543L480.52288783813407,109.42800860581144L481.5684938670427,181.76725779299036L483.1369029104056,73.91752710762034L484.18250893931423,150.72855413744648L484.7053119537685,94.16437549479014L485.75091798267715,120.0901465286052L486.27372099713153,97.95923911211594L487.84213004049445,122.61981363639572L488.3649330549487,116.24318980902603L489.4105390838573,43.254979850711834L489.9333420983117,18.247478433572724L493.59296319949186,113.48334947420915L494.11576621394613,77.1763274197844L494.6385692284005,120.83565023893595L495.1613722428548,91.81200634725991L495.68417525730916,116.54302182164014L496.20697827176343,110.89664648012553L496.7297812862177,128.76618858021746L497.77538731512635,110.88007117979106L498.2981903295807,124.31277179269799L498.820993344035,127.0472437131838L500.389402387398,118.33619095401053L500.91220540185225,120.07838324392617L501.4350084163065,124.402192583485L501.9578114307609,129.12784501516992L503.0034174596695,139.0697276350678L506.14023554639533,130.7157553957157L506.6630385608497,114.33733680991321L507.185841575304,129.24557178040087L508.23144760421263,119.84391324824458L510.3226596620299,111.9334838886233L511.8910687053928,129.6073403957129L513.4594777487557,168.52841527676335L515.550689806573,104.55411635109874L517.119098849936,124.23602216484869L517.6419018643902,127.54666806504258L518.1647048788445,123.95325982880476L519.2103109077532,121.06555214602298L519.7331139222075,142.40805860445974L520.2559169366618,98.2294900770134L521.8243259800248,122.49844753159346L522.347128994479,118.35269451109184L523.3927350233877,100.4428653132718L524.4383410522963,96.11597101382546L524.9611440667506,103.82551274237602L526.0067500956592,129.19883952968993L527.0523561245678,110.34817844038002L527.5751591390222,127.23259958214828L528.6207651679308,50.13329250789582L529.6663711968395,125.82216113925185L530.1891742112938,116.49771139176534L530.711977225748,122.5278413946404L531.2347802402024,119.05202165481825L532.8031892835653,21.86664641097724L533.3259922980196,120.64591411825802L533.848795312474,91.2522282282269L535.4172043558368,113.05297865576557L535.9400073702913,122.00321559456705L540.1224314859256,154.5135612100999L541.6908405292886,157.3558932418676L542.2136435437429,146.93136897366833L543.2592495726515,120.12076915791602L544.3048556015602,107.72550859683372L544.8276586160146,119.82152152670983L546.3960676593774,105.25302347068822L546.9188706738319,135.44738730144908L547.9644767027404,131.37215398557353L548.4872797171947,132.31677000756397L549.0100827316489,124.67631964068934L549.5328857461033,166.66082621563842L551.1012947894662,118.05131806189974L555.2837189051007,124.85707872375798L555.806521919555,148.0385943400908L556.3293249340095,78.87886525702294L557.374930962918,136.73178980597143L558.4205369918266,162.32381872633658L558.9433400062809,148.98575137766727L559.4661430207353,119.41524078826768L560.5117490496439,118.08446344487766L561.5573550785525,128.40390863117355L562.0801580930067,128.9010111104743L562.6029611074612,116.96405558178554L564.171370150824,127.30418369576728L564.6941731652784,104.87911720135776L565.2169761797327,109.9434499650526L567.8309912520042,122.42835828648657L568.876597280913,118.18898945152L569.3994002953673,100.70341724254814L570.4450063242758,164.57212183930915L570.9678093387301,104.91997954953422L572.0134153676388,122.08269668372907L575.1502334543648,128.92706565119053L575.673036468819,129.3097102487606L576.7186424977276,163.93071628494712L577.7642485266362,138.59452119664337L579.8554605844535,125.92893597077622L580.901066613362,115.95108780583843L581.9466726422708,117.99006758558698L582.9922786711793,111.54089437173707L584.037884700088,125.26869194254698L585.0834907289966,164.7695697074946L585.6062937434509,127.56525087204386L586.1290967579052,65.10802695198487L586.6518997723595,63.66273433226161L587.1747027868138,62.60624840334691L589.2659148446311,118.52800632460844L590.3115208735396,123.29696820161536L590.8343238879941,93.91209654092472L593.97114197472,130.19076957495358L595.0167480036285,27.76378529318623L596.0623540325371,129.78442622421775L596.5851570469914,111.35519543957997L597.1079600614459,127.81216506109851L600.2447781481717,89.96602390820578L601.8131871915346,132.91498090580913L602.8587932204433,137.05970082346474L604.4272022638062,135.87185691121132L605.995611307169,144.4942480536587L606.5184143216235,133.955033716473L607.564020350532,133.80830441503076L608.0868233649863,101.89787131726678L608.6096263794407,105.41774076234162L609.1324293938949,40.74312072278809L610.1780354228036,110.55504554549907L610.700838437258,38.29032064089756L611.7464444661665,78.71975698334694L612.269247480621,145.36647904643985L612.7920504950753,30.185435758960637L614.3604595384381,36.143929471305285L614.8832625528923,45.682573266696636L615.9288685818011,29.38753599418459L620.1112926974356,50.480644642583286L620.6340957118898,124.50541677618747L621.1568987263441,34.529267988275876L621.6797017407986,126.66235811726833L623.2481107841614,136.7426947804576L623.7709137986158,128.15947284541122L624.29371681307,56.292555148837664L625.8621258564331,123.68645580111786L626.3849288708873,41.59336958278908L626.9077318853416,125.66569040844797L628.4761409287046,135.18961770597406L634.7497771021564,119.15326573373244L636.3181861455192,116.50265515412212L637.3637921744278,111.42256365875647L637.8865951888822,47.28362701122842L638.9322012177909,123.67157755482717L639.4550042322451,54.217526340990844L641.0234132756082,85.29194639682265L642.591822318971,125.80570454139078L643.1146253334252,120.84704306754395L643.6374283478797,168.0706359267523L644.160231362334,188.02005537418444L644.6830343767883,120.29088415105554L645.2058373912425,127.49760089754571L645.7286404056969,117.92703265890373L646.2514434201512,34.30186013755457L647.2970494490598,117.25504360791439L648.3426554779685,122.82493672825063L648.8654584924227,41.94336708688536L649.9110645213315,135.1243730870923L650.95667055024,119.25495592523919L652.0022765791487,130.46932906078285L652.5250795936029,99.90127288602832L653.0478826080573,131.14880549856053L653.5706856225116,129.5333639707054L654.093488636966,129.52538872979525L654.6162916514202,131.77887822776273L656.7075037092375,35.22600715719602L659.3215187815091,70.88470238995916L659.8443217959634,134.8805790773404L660.889927824872,131.65810433090505L661.4127308393263,139.38284649817433L663.5039428971436,124.49291518821187L664.0267459115978,125.94303678108679L664.5495489260521,130.0758629717848L665.5951549549608,43.360257204878565L667.1635639983238,141.3330994400577L668.7319730416867,129.5452890038098L669.7775790705953,130.96192606378267L670.8231850995039,122.30922796233853L671.3459881139581,129.00768158817584L672.3915941428669,44.32750757104185L672.9143971573212,124.46344305979781L674.4828062006841,129.4860238589765L675.0056092151384,114.67875382092694L675.5284122295927,34.59465609366407L676.5740182585014,147.137551256825L677.0968212729556,118.30044455199851L677.6196242874099,108.94248287873143L678.6652303163187,32.42336610194343L679.1880333307729,139.8711389059822L679.7108363452272,59.58201200530499L680.2336393596815,48.45073060119347L680.7564423741358,48.277007574629465L681.2792453885902,171.26402987160918L683.8932604608617,111.16663460383177L684.416063475316,40.40996070800617L685.4616695042247,115.95215482367689L687.552881562042,30.639134874498836L688.0756845764963,119.48140111194488L689.1212906054049,115.40587038767421L691.2125026632222,44.90930100410958L692.2581086921307,129.43307472927017L693.3037147210393,178.25292888369665L694.349320749948,119.34920047148677L694.8721237644023,119.543786436081L695.3949267788566,48.05995162313343L695.9177297933109,43.686472472750836L696.9633358222196,133.33298840509235L698.5317448655825,129.0687285745341L699.0545478800368,132.31074096544967L700.1001539089455,123.80528610802523L700.6229569233998,127.20765640964524L701.1457599378541,55.73419175784187L702.1913659667626,32.406377299585984L704.28257802458,117.70974712899738L705.3281840534885,129.79641908730702L705.8509870679428,53.47557848717321L706.8965930968516,40.899505361688114L707.4193961113058,132.78594218618298L708.9878051546686,48.58007194690589L709.5106081691231,122.5750875879288L712.1246232413946,135.0704299872235L712.6474262558489,41.28887556313987L713.1702292703033,127.56382383351661L713.6930322847576,122.61828485289118L714.7386383136661,97.57677126383328L715.7842443425749,156.1108321285539L716.3070473570292,124.33379126146247L716.8298503714834,34.31385039179827L717.3526533859377,128.2120384748186L717.8754564003921,124.14431341649603L718.3982594148463,118.35866354975798L719.9666684582094,36.436104522168876L721.5350775015722,31.177605818016787L722.5806835304809,101.09528932690239L723.6262895593895,126.88884504550307L724.1490925738437,127.42717772020578L724.6718955882981,32.10174240227593L725.1946986027525,124.09466447643686L725.7175016172068,129.26274320194833L727.8087136750239,53.30568524590723L729.8999257328412,117.95789530200705L730.9455317617499,31.82161500025859L731.4683347762042,33.43175274506814L733.0367438195672,136.7485072883895L733.5595468340214,146.75095164936948L734.0823498484757,141.24680926395573L735.6507588918387,126.06459854930685L737.2191679352015,154.88415294113258L737.741970949656,29.532248658000526L738.2647739641103,116.23631550094683L739.3103799930188,50.32694450577566L739.8331830074732,112.44988008534335L740.3559860219275,39.152100598321795L741.9243950652905,38.66136631105957L742.970001094199,134.03725409348442L743.4928041086533,58.6853570002894L744.0156071231078,116.14143961407115L744.5384101375621,113.36151508162692L745.0612131520163,122.21860449374333L745.5840161664706,116.28641055359856L746.6296221953792,119.99006077712448L747.1524252098336,125.36095376616066L748.7208342531965,32.21458540859817L751.3348493254681,149.59829266463322L757.6084854989199,109.43525467438451L758.1312885133741,128.36792743306015L758.6540915278284,132.6090755007061L759.1768945422828,148.89050242587493L761.2681066001,148.6874924989324L762.836515643463,142.88368245817554L763.3593186579174,23.465978317432302L764.4049246868259,138.18339322313054L764.9277277012802,146.70680476461928L765.4505307157344,123.19180302780816L765.9733337301889,120.40592902303956L767.0189397590975,122.21067360320791L768.0645457880061,40.28726148311716L768.5873488024604,43.09564199862564L769.1101518169147,149.04600005728085L770.1557578458234,38.02600284303969L770.6785608602777,34.16705065152564L771.2013638747319,130.82014313354279L772.2469699036407,129.44112823554744L773.2925759325492,156.7096300170526L776.4293940192752,128.77811883101302L777.4750000481837,118.91423808483847L780.0890151204553,122.90055672596779L780.6118181349095,114.0886590412527L782.7030301927268,142.94075356388382L785.3170452649985,128.98874919586808L785.8398482794528,163.49437642783744L787.93106033727,111.11457509046505L790.0222723950872,41.79437069864207L791.5906814384502,27.893330128853165L793.1590904818131,74.89648336386011L793.6818934962673,38.305707612074514L794.2046965107218,118.30316036023777L795.7731055540846,119.1418155105219L796.295908568539,136.61315516248186L797.8643176119019,115.60268430638592L798.9099236408106,47.10390363985147L799.4327266552648,79.34006349915461L799.9555296697191,107.25560985472322L803.6151507708994,112.41615684307158L804.1379537853537,112.45851666860574L804.660756799808,126.58458321310965L805.1835598142623,55.62304710998626L806.2291658431709,12.146734807630935L806.7519688576252,39.88310956266082L807.2747718720796,116.17002734383664L807.7975748865339,147.88216274197052L808.3203779009882,110.33733607818755L808.8431809154424,34.03896155168724L809.3659839298967,123.6658615741814L809.8887869443512,31.23731707544283L810.4115899588055,53.98795575729133L811.9799990021684,137.65210704031477L813.025605031077,31.05324736734474L815.6396201033485,128.3649585668005L816.1624231178029,127.96478513583975L816.6852261322572,25.12889822583162L817.7308321611658,40.97806813720916L821.390453262346,53.96760154414744L822.4360592912547,30.93117426539277L825.0500743635262,40.34797975493353L825.5728773779805,96.16853403438722L827.6640894357977,110.6112752985108L828.7096954647064,30.006354163594096L829.2324984791608,34.68587698789497L830.2781045080693,121.11264963511383L830.8009075225236,13.129492151867453L831.8465135514323,37.402180907825255L832.3693165658866,26.836319821978748L835.5061346526124,124.4097608444861L836.0289376670668,43.45377910090298L836.5517406815211,148.6891099831863L839.1657557537926,82.41711336693311L839.6885587682469,57.57524103297436L844.3937858983358,38.788923206401535L844.9165889127901,126.07276945363483L846.4849979561529,137.18581763605155L847.0078009706073,113.6069826658125L847.5306039850617,119.3764107307909L848.5762100139702,101.4933743769837L849.6218160428789,116.2062015965223L850.6674220717875,134.57928089351546L852.2358311151504,113.07416378622383L852.7586341296047,138.15787871344747L853.8042401585134,105.09174594192007L854.3270431729677,32.772533993148215L855.3726492018764,122.84241338472992L856.418255230785,126.89002163485557L856.9410582452393,134.69508233071508L857.9866642741479,112.2606853001214L858.5094672886022,111.81756244452743L860.6006793464195,139.89058002317634L861.1234823608738,119.29682789665162L862.1690883897824,108.97687398546935L862.6918914042368,34.86931535536485L863.214694418691,141.07973879359747L863.7374974331453,22.2571905929359L864.783103462054,116.47254385854319L865.3059064765082,112.2066600216171L865.8287094909626,122.22564315909352L866.351512505417,108.86337094121768L868.4427245632342,70.40536354015046L869.4883305921428,146.49408993215312L870.0111336065971,27.143954891695273L870.5339366210515,125.43831908156471L871.57954264996,149.45264081641176L872.6251486788686,118.77366305009792L873.6707547077773,37.12404666382406L874.7163607366858,36.09798770080238L875.2391637511403,89.43467283035642L875.7619667655946,129.79003002450395L876.8075727945031,119.03388756925517L877.3303758089575,16.718616663677892L877.8531788234118,120.95908254943038L878.375981837866,113.1342441952981L878.8987848523204,110.4250937299231L879.4215878667748,109.25929717158908L880.4671938956833,48.50349189401868L880.9899969101376,130.0730662893328L882.5584059535006,29.464710863861967L883.0812089679549,34.820472548587134L884.1268149968635,144.32115115003174L884.6496180113179,27.88407916245893L886.2180270546808,110.20417146929105L886.7408300691351,134.28561880067647L887.2636330835894,119.5684687240269L887.7864360980437,36.580707614470896L888.3092391124981,64.18778015647189L889.3548451414067,33.491333560215594L891.4460571992239,125.07598695560938L892.4916632281326,36.184382230727124L893.0144662425869,118.46522706479112L893.5372692570411,19.757353025402665L895.1056783004042,129.59762505480697L895.6284813148584,12.836852726492225L896.674087343767,35.99074327707518L898.7652994015843,136.13806873095365L899.2881024160386,129.18319689164704L899.8109054304929,109.54231908776734L900.3337084449473,128.92828919976324L901.3793144738559,23.84403656448876L903.4705265316732,142.63365069866367L903.9933295461275,46.633601831100236L905.038935575036,107.54846190101244L905.5617385894903,111.05846925761807L906.0845416039447,128.293760562326L906.607344618399,35.89466471239132L907.6529506473076,110.79810646964557L909.2213596906705,18.14502906800476L909.744162705125,48.92027584472913L910.2669657195792,126.60513308967137L910.7897687340335,124.9992216746866L911.3125717484878,132.87920580649586L912.8809807918508,33.73259959860928L913.4037838063051,132.71892094346742L915.4949958641223,60.25946137007412L916.0177988785766,55.73147594960261L917.0634049074853,154.70940724710482L917.5862079219396,109.30473804374242L918.1090109363938,33.16798280478014L920.2002229942111,39.499557086832056L921.768632037574,138.88890854855106L922.8142380664827,20.492849204123615L924.3826471098456,125.27895253217719L924.9054501242999,75.27083574578319L925.4282531387543,23.10255047633717L925.9510561532086,137.52481102952993L926.4738591676629,123.63781126660348L927.5194651965714,40.22018284579906L928.0422682110258,23.852228339581302L928.5650712254802,111.27970588414138L930.1334802688431,116.75028938455432L930.6562832832974,110.27283237144786L931.701889312206,121.56757490807036L932.2246923266604,116.17517720499353L932.7474953411147,29.753812694643102L934.3159043844776,45.19031541362102L935.3615104133862,59.535044958492676L935.8843134278405,114.17189165034557L936.4071164422949,111.08809922118911L936.9299194567491,147.28441882708253L940.5895405579292,16.380265046209956L941.1123435723837,47.54445939140362L942.6807526157465,122.21332679915349L945.2947676880182,113.15732465206355L947.3859797458355,32.14163686874559L948.431585774744,26.440625778863193L949.4771918036527,123.41104258304705L950.5227978325613,13.414925945775963L951.0456008470156,121.75930679561003L951.56840386147,142.54879538762572L952.0912068759242,110.3559371471078L954.1824189337415,68.62666045647052L954.7052219481958,115.80890833107179L955.2280249626501,119.41152579217476L956.2736309915587,37.509477508463874L956.7964340060131,134.19982430523297L957.3192370204673,55.67082029007997L959.4104490782845,39.25652746883247L960.4560551071933,13.829554990044869L961.5016611361018,122.8410593938786L962.5472671650105,142.99860210557222L963.0700701794648,47.73577125480642L964.1156762083734,35.82699647597417L966.2068882661907,31.101161425099292L967.2524942950993,104.60826294092209L967.7752973095536,90.18314556999968L969.3437063529166,114.19097274685095L970.9121153962794,114.9385583159472L973.0033274540967,102.6071016387802L974.0489334830054,24.65186559550756L974.5717364974596,24.090796831654757L976.1401455408226,51.36769126936133L978.2313575986398,111.98303238812798L978.7541606130942,34.03930070161147L979.2769636275485,36.46279823005L979.7997666420029,127.20932085311941L981.3681756853657,32.99692080069843L981.89097869982,48.7797086365253L982.4137817142744,132.5104454850539L983.459387743183,36.42486561544962L983.9821907576372,36.66949184693863L984.5049937720916,20.344985054858057L985.5505998010002,12.337984058740062L986.0734028154545,27.765590614321297L987.6418118588174,186.92877527189108L988.1646148732718,10.64418063647281L989.2102209021805,30.13702080285651L990.255826931089,112.18204686807871L990.7786299455433,33.43817050517242L991.3014329599977,25.124645807551076L994.9610540611778,11.447193738567762L995.4838570756322,126.6318059267879L996.0066600900865,21.684115921766022L996.5294631045408,35.66032776783379L999.6662811912666,14.063881499220088L1000.189084205721,99.25408612988122L1000.7118872201753,109.07382390457394L1001.2346902346296,62.91398000034957L1001.757493249084,15.665587455144589L1002.8030992779925,35.438857649631814L1004.3715083213555,13.196210768496769L1005.9399173647184,12.099144246727235L1008.0311294225357,117.64647479736715L1008.55393243699,17.495499568535024L1009.0767354514443,32.430827400276144L1009.5995384658986,26.776707700684483L1010.1223414803529,13.47896266915842L1011.1679475092616,115.28687572349588L1011.6907505237159,28.11430978408788L1013.7819625815331,123.26552900364084L1015.3503716248961,13.848792617284403L1015.8731746393503,22.939977655743064L1017.4415836827134,36.36769537360965L1017.9643866971676,132.91955160324932L1018.4871897116219,107.69278584683838L1019.0099927260762,27.42960782863173L1019.5327957405306,9.542658206468218L1020.5784017694392,95.4929027088753L1021.1012047838935,31.200741060539258L1021.6240077983477,109.01212340240016L1022.1468108128021,146.55816317937362L1022.6696138272565,109.05263094757896L1024.7608258850737,27.39392403891344L1025.283628899528,105.21282246486396L1025.8064319139824,26.754887316329757L1027.3748409573452,106.43354304900146L1028.4204469862539,22.448705946293273L1028.943250000708,28.749615857505262L1029.4660530151625,20.919473720327403L1030.5116590440712,32.23703191588987L1031.0344620585254,100.6535100267775L1031.5572650729798,9.500347948999888L1032.6028711018882,103.98250785113964L1033.1256741163427,30.739444986698686L1034.6940831597055,111.91133870299501L1035.7396891886142,99.76010173007478L1036.7852952175228,15.782135022177442L1037.3080982319773,88.98578768710786L1038.3537042608857,23.9272326497437L1039.9221133042488,15.423366579271885L1040.9677193331574,36.20188236681656L1041.4905223476117,112.67014883015997L1042.0133253620659,92.09612560910637L1043.0589313909747,6.413092277348142L1044.1045374198832,110.14111045415206L1044.6273404343376,35.22965432330403L1045.1501434487918,10.089947048015688L1047.2413555066091,33.519889983834275L1047.7641585210633,122.72803637721199L1048.809764549972,115.29112292408524L1049.8553705788806,15.390244675904171L1052.4693856511524,30.426200899004755L1054.5605977089695,31.79430560482274L1055.083400723424,71.89390560174746L1055.606203737878,38.32062499104876L1056.1290067523325,106.86465999727824L1062.4026429257842,46.21367683032247L1063.4482489546929,114.60727927882192L1064.4938549836015,115.25814189837837" fill="none"></path></g></g></g></g></g></g><g transform="translate(49, 378)" clip-path="url(#clip_1)"><clipPath id="clip_1"><rect width="1079" height="21"></rect></clipPath><g><g><line x1="18.88782607497578" y1="0" x2="18.88782607497578" y2="5" style="visibility: inherit;" fill="rgb(0, 0, 0)" stroke="rgb(204, 204, 204)" stroke-width="1px"></line><line x1="123.44842896583836" y1="0" x2="123.44842896583836" y2="5" style="visibility: inherit;" fill="rgb(0, 0, 0)" stroke="rgb(204, 204, 204)" stroke-width="1px"></line><line x1="228.00903185670091" y1="0" x2="228.00903185670091" y2="5" style="visibility: inherit;" fill="rgb(0, 0, 0)" stroke="rgb(204, 204, 204)" stroke-width="1px"></line><line x1="332.5696347475635" y1="0" x2="332.5696347475635" y2="5" style="visibility: inherit;" fill="rgb(0, 0, 0)" stroke="rgb(204, 204, 204)" stroke-width="1px"></line><line x1="437.1302376384261" y1="0" x2="437.1302376384261" y2="5" style="visibility: inherit;" fill="rgb(0, 0, 0)" stroke="rgb(204, 204, 204)" stroke-width="1px"></line><line x1="541.6908405292886" y1="0" x2="541.6908405292886" y2="5" style="visibility: inherit;" fill="rgb(0, 0, 0)" stroke="rgb(204, 204, 204)" stroke-width="1px"></line><line x1="646.2514434201512" y1="0" x2="646.2514434201512" y2="5" style="visibility: inherit;" fill="rgb(0, 0, 0)" stroke="rgb(204, 204, 204)" stroke-width="1px"></line><line x1="750.8120463110138" y1="0" x2="750.8120463110138" y2="5" style="visibility: inherit;" fill="rgb(0, 0, 0)" stroke="rgb(204, 204, 204)" stroke-width="1px"></line><line x1="855.3726492018764" y1="0" x2="855.3726492018764" y2="5" style="visibility: inherit;" fill="rgb(0, 0, 0)" stroke="rgb(204, 204, 204)" stroke-width="1px"></line><line x1="959.9332520927389" y1="0" x2="959.9332520927389" y2="5" style="visibility: inherit;" fill="rgb(0, 0, 0)" stroke="rgb(204, 204, 204)" stroke-width="1px"></line><line x1="1064.4938549836015" y1="0" x2="1064.4938549836015" y2="5" style="visibility: inherit;" fill="rgb(0, 0, 0)" stroke="rgb(204, 204, 204)" stroke-width="1px"></line></g><g transform="translate(0, 8)"><text style="text-anchor: middle; visibility: inherit; font-family: &quot;Helvetica Neue&quot;, sans-serif; font-size: 12px; font-weight: 200;" x="18.88782607497578" y="0" dx="0em" dy="0.95em" fill="rgb(50, 49, 63)" stroke="none" stroke-width="1px">0</text><text style="text-anchor: middle; visibility: inherit; font-family: &quot;Helvetica Neue&quot;, sans-serif; font-size: 12px; font-weight: 200;" x="123.44842896583836" y="0" dx="0em" dy="0.95em" fill="rgb(50, 49, 63)" stroke="none" stroke-width="1px">200</text><text style="text-anchor: middle; visibility: inherit; font-family: &quot;Helvetica Neue&quot;, sans-serif; font-size: 12px; font-weight: 200;" x="228.00903185670091" y="0" dx="0em" dy="0.95em" fill="rgb(50, 49, 63)" stroke="none" stroke-width="1px">400</text><text style="text-anchor: middle; visibility: inherit; font-family: &quot;Helvetica Neue&quot;, sans-serif; font-size: 12px; font-weight: 200;" x="332.5696347475635" y="0" dx="0em" dy="0.95em" fill="rgb(50, 49, 63)" stroke="none" stroke-width="1px">600</text><text style="text-anchor: middle; visibility: inherit; font-family: &quot;Helvetica Neue&quot;, sans-serif; font-size: 12px; font-weight: 200;" x="437.1302376384261" y="0" dx="0em" dy="0.95em" fill="rgb(50, 49, 63)" stroke="none" stroke-width="1px">800</text><text style="text-anchor: middle; visibility: inherit; font-family: &quot;Helvetica Neue&quot;, sans-serif; font-size: 12px; font-weight: 200;" x="541.6908405292886" y="0" dx="0em" dy="0.95em" fill="rgb(50, 49, 63)" stroke="none" stroke-width="1px">1k</text><text style="text-anchor: middle; visibility: inherit; font-family: &quot;Helvetica Neue&quot;, sans-serif; font-size: 12px; font-weight: 200;" x="646.2514434201512" y="0" dx="0em" dy="0.95em" fill="rgb(50, 49, 63)" stroke="none" stroke-width="1px">1.2k</text><text style="text-anchor: middle; visibility: inherit; font-family: &quot;Helvetica Neue&quot;, sans-serif; font-size: 12px; font-weight: 200;" x="750.8120463110138" y="0" dx="0em" dy="0.95em" fill="rgb(50, 49, 63)" stroke="none" stroke-width="1px">1.4k</text><text style="text-anchor: middle; visibility: inherit; font-family: &quot;Helvetica Neue&quot;, sans-serif; font-size: 12px; font-weight: 200;" x="855.3726492018764" y="0" dx="0em" dy="0.95em" fill="rgb(50, 49, 63)" stroke="none" stroke-width="1px">1.6k</text><text style="text-anchor: middle; visibility: inherit; font-family: &quot;Helvetica Neue&quot;, sans-serif; font-size: 12px; font-weight: 200;" x="959.9332520927389" y="0" dx="0em" dy="0.95em" fill="rgb(50, 49, 63)" stroke="none" stroke-width="1px">1.8k</text><text style="text-anchor: middle; visibility: inherit; font-family: &quot;Helvetica Neue&quot;, sans-serif; font-size: 12px; font-weight: 200;" x="1064.4938549836015" y="0" dx="0em" dy="0.95em" fill="rgb(50, 49, 63)" stroke="none" stroke-width="1px">2k</text></g><line x1="0" y1="0" x2="1079.4159988403321" y2="0" fill="rgb(0, 0, 0)" stroke="rgb(204, 204, 204)" stroke-width="1px"></line></g></g></g></g></svg>