<svg viewBox="0 0 1129.4000244140625 400" xmlns="http://www.w3.org/2000/svg"><g><g><g><g><g><line x1="39.98800086975098" y1="367.40998444839926" x2="34.98800086975098" y2="367.40998444839926" style="visibility: inherit;" fill="rgb(0, 0, 0)" stroke="rgb(204, 204, 204)" stroke-width="1px"></line><line x1="39.98800086975098" y1="334.6590379269145" x2="34.98800086975098" y2="334.6590379269145" style="visibility: inherit;" fill="rgb(0, 0, 0)" stroke="rgb(204, 204, 204)" stroke-width="1px"></line><line x1="39.98800086975098" y1="301.9080914054297" x2="34.98800086975098" y2="301.9080914054297" style="visibility: inherit;" fill="rgb(0, 0, 0)" stroke="rgb(204, 204, 204)" stroke-width="1px"></line><line x1="39.98800086975098" y1="269.1571448839449" x2="34.98800086975098" y2="269.1571448839449" style="visibility: inherit;" fill="rgb(0, 0, 0)" stroke="rgb(204, 204, 204)" stroke-width="1px"></line><line x1="39.98800086975098" y1="236.40619836246012" x2="34.98800086975098" y2="236.40619836246012" style="visibility: inherit;" fill="rgb(0, 0, 0)" stroke="rgb(204, 204, 204)" stroke-width="1px"></line><line x1="39.98800086975098" y1="203.65525184097535" x2="34.98800086975098" y2="203.65525184097535" style="visibility: inherit;" fill="rgb(0, 0, 0)" stroke="rgb(204, 204, 204)" stroke-width="1px"></line><line x1="39.98800086975098" y1="170.90430531949056" x2="34.98800086975098" y2="170.90430531949056" style="visibility: inherit;" fill="rgb(0, 0, 0)" stroke="rgb(204, 204, 204)" stroke-width="1px"></line><line x1="39.98800086975098" y1="138.15335879800574" x2="34.98800086975098" y2="138.15335879800574" style="visibility: inherit;" fill="rgb(0, 0, 0)" stroke="rgb(204, 204, 204)" stroke-width="1px"></line><line x1="39.98800086975098" y1="105.40241227652098" x2="34.98800086975098" y2="105.40241227652098" style="visibility: inherit;" fill="rgb(0, 0, 0)" stroke="rgb(204, 204, 204)" stroke-width="1px"></line><line x1="39.98800086975098" y1="72.65146575503616" x2="34.98800086975098" y2="72.65146575503616" style="visibility: inherit;" fill="rgb(0, 0, 0)" stroke="rgb(204, 204, 204)" stroke-width="1px"></line><line x1="39.98800086975098" y1="39.90051923355139" x2="34.98800086975098" y2="39.90051923355139" style="visibility: inherit;" fill="rgb(0, 0, 0)" stroke="rgb(204, 204, 204)" stroke-width="1px"></line><line x1="39.98800086975098" y1="7.149572712066629" x2="34.98800086975098" y2="7.149572712066629" style="visibility: inherit;" fill="rgb(0, 0, 0)" stroke="rgb(204, 204, 204)" stroke-width="1px"></line></g><g transform="translate(29.988000869750977, 0)"><text style="text-anchor: end; visibility: inherit; font-family: &quot;Helvetica Neue&quot;, sans-serif; font-size: 12px; font-weight: 200;" x="0" y="367.40998444839926" dx="0em" dy="0.3em" fill="rgb(50, 49, 63)" stroke="none" stroke-width="1px">0</text><text style="text-anchor: end; visibility: inherit; font-family: &quot;Helvetica Neue&quot;, sans-serif; font-size: 12px; font-weight: 200;" x="0" y="334.6590379269145" dx="0em" dy="0.3em" fill="rgb(50, 49, 63)" stroke="none" stroke-width="1px">50</text><text style="text-anchor: end; visibility: inherit; font-family: &quot;Helvetica Neue&quot;, sans-serif; font-size: 12px; font-weight: 200;" x="0" y="301.9080914054297" dx="0em" dy="0.3em" fill="rgb(50, 49, 63)" stroke="none" stroke-width="1px">100</text><text style="text-anchor: end; visibility: inherit; font-family: &quot;Helvetica Neue&quot;, sans-serif; font-size: 12px; font-weight: 200;" x="0" y="269.1571448839449" dx="0em" dy="0.3em" fill="rgb(50, 49, 63)" stroke="none" stroke-width="1px">150</text><text style="text-anchor: end; visibility: inherit; font-family: &quot;Helvetica Neue&quot;, sans-serif; font-size: 12px; font-weight: 200;" x="0" y="236.40619836246012" dx="0em" dy="0.3em" fill="rgb(50, 49, 63)" stroke="none" stroke-width="1px">200</text><text style="text-anchor: end; visibility: inherit; font-family: &quot;Helvetica Neue&quot;, sans-serif; font-size: 12px; font-weight: 200;" x="0" y="203.65525184097535" dx="0em" dy="0.3em" fill="rgb(50, 49, 63)" stroke="none" stroke-width="1px">250</text><text style="text-anchor: end; visibility: inherit; font-family: &quot;Helvetica Neue&quot;, sans-serif; font-size: 12px; font-weight: 200;" x="0" y="170.90430531949056" dx="0em" dy="0.3em" fill="rgb(50, 49, 63)" stroke="none" stroke-width="1px">300</text><text style="text-anchor: end; visibility: inherit; font-family: &quot;Helvetica Neue&quot;, sans-serif; font-size: 12px; font-weight: 200;" x="0" y="138.15335879800574" dx="0em" dy="0.3em" fill="rgb(50, 49, 63)" stroke="none" stroke-width="1px">350</text><text style="text-anchor: end; visibility: inherit; font-family: &quot;Helvetica Neue&quot;, sans-serif; font-size: 12px; font-weight: 200;" x="0" y="105.40241227652098" dx="0em" dy="0.3em" fill="rgb(50, 49, 63)" stroke="none" stroke-width="1px">400</text><text style="text-anchor: end; visibility: inherit; font-family: &quot;Helvetica Neue&quot;, sans-serif; font-size: 12px; font-weight: 200;" x="0" y="72.65146575503616" dx="0em" dy="0.3em" fill="rgb(50, 49, 63)" stroke="none" stroke-width="1px">450</text><text style="text-anchor: end; visibility: inherit; font-family: &quot;Helvetica Neue&quot;, sans-serif; font-size: 12px; font-weight: 200;" x="0" y="39.90051923355139" dx="0em" dy="0.3em" fill="rgb(50, 49, 63)" stroke="none" stroke-width="1px">500</text><text style="text-anchor: end; visibility: inherit; font-family: &quot;Helvetica Neue&quot;, sans-serif; font-size: 12px; font-weight: 200;" x="0" y="7.149572712066629" dx="0em" dy="0.3em" fill="rgb(50, 49, 63)" stroke="none" stroke-width="1px">550</text></g><line x1="39.98800086975098" y1="0" x2="39.98800086975098" y2="378.60799980163574" fill="rgb(0, 0, 0)" stroke="rgb(204, 204, 204)" stroke-width="1px"></line></g></g><g transform="translate(39, 0)" clip-path="url(#clip_0)"><clipPath id="clip_0"><rect width="1089" height="378"></rect></clipPath><g><g><g><line x1="11.098364762747247" y1="0" x2="11.098364762747247" y2="378.60799980163574" fill="rgb(0, 0, 0)" stroke="rgb(60, 60, 60)" stroke-width="1px" opacity="0.25"></line><line x1="82.16256299229458" y1="0" x2="82.16256299229458" y2="378.60799980163574" fill="rgb(0, 0, 0)" stroke="rgb(60, 60, 60)" stroke-width="1px" opacity="0.25"></line><line x1="153.2267612218419" y1="0" x2="153.2267612218419" y2="378.60799980163574" fill="rgb(0, 0, 0)" stroke="rgb(60, 60, 60)" stroke-width="1px" opacity="0.25"></line><line x1="224.29095945138926" y1="0" x2="224.29095945138926" y2="378.60799980163574" fill="rgb(0, 0, 0)" stroke="rgb(60, 60, 60)" stroke-width="1px" opacity="0.25"></line><line x1="295.35515768093666" y1="0" x2="295.35515768093666" y2="378.60799980163574" fill="rgb(0, 0, 0)" stroke="rgb(60, 60, 60)" stroke-width="1px" opacity="0.25"></line><line x1="366.41935591048394" y1="0" x2="366.41935591048394" y2="378.60799980163574" fill="rgb(0, 0, 0)" stroke="rgb(60, 60, 60)" stroke-width="1px" opacity="0.25"></line><line x1="437.4835541400313" y1="0" x2="437.4835541400313" y2="378.60799980163574" fill="rgb(0, 0, 0)" stroke="rgb(60, 60, 60)" stroke-width="1px" opacity="0.25"></line><line x1="508.54775236957863" y1="0" x2="508.54775236957863" y2="378.60799980163574" fill="rgb(0, 0, 0)" stroke="rgb(60, 60, 60)" stroke-width="1px" opacity="0.25"></line><line x1="579.6119505991261" y1="0" x2="579.6119505991261" y2="378.60799980163574" fill="rgb(0, 0, 0)" stroke="rgb(60, 60, 60)" stroke-width="1px" opacity="0.25"></line><line x1="650.6761488286734" y1="0" x2="650.6761488286734" y2="378.60799980163574" fill="rgb(0, 0, 0)" stroke="rgb(60, 60, 60)" stroke-width="1px" opacity="0.25"></line><line x1="721.7403470582207" y1="0" x2="721.7403470582207" y2="378.60799980163574" fill="rgb(0, 0, 0)" stroke="rgb(60, 60, 60)" stroke-width="1px" opacity="0.25"></line><line x1="792.8045452877681" y1="0" x2="792.8045452877681" y2="378.60799980163574" fill="rgb(0, 0, 0)" stroke="rgb(60, 60, 60)" stroke-width="1px" opacity="0.25"></line><line x1="863.8687435173154" y1="0" x2="863.8687435173154" y2="378.60799980163574" fill="rgb(0, 0, 0)" stroke="rgb(60, 60, 60)" stroke-width="1px" opacity="0.25"></line><line x1="934.9329417468628" y1="0" x2="934.9329417468628" y2="378.60799980163574" fill="rgb(0, 0, 0)" stroke="rgb(60, 60, 60)" stroke-width="1px" opacity="0.25"></line><line x1="1005.99713997641" y1="0" x2="1005.99713997641" y2="378.60799980163574" fill="rgb(0, 0, 0)" stroke="rgb(60, 60, 60)" stroke-width="1px" opacity="0.25"></line><line x1="1077.0613382059573" y1="0" x2="1077.0613382059573" y2="378.60799980163574" fill="rgb(0, 0, 0)" stroke="rgb(60, 60, 60)" stroke-width="1px" opacity="0.25"></line></g><g><line x1="0" y1="367.40998444839926" x2="1089.4119991302491" y2="367.40998444839926" fill="rgb(0, 0, 0)" stroke="rgb(60, 60, 60)" stroke-width="1px" opacity="0.25"></line><line x1="0" y1="334.6590379269145" x2="1089.4119991302491" y2="334.6590379269145" fill="rgb(0, 0, 0)" stroke="rgb(60, 60, 60)" stroke-width="1px" opacity="0.25"></line><line x1="0" y1="301.9080914054297" x2="1089.4119991302491" y2="301.9080914054297" fill="rgb(0, 0, 0)" stroke="rgb(60, 60, 60)" stroke-width="1px" opacity="0.25"></line><line x1="0" y1="269.1571448839449" x2="1089.4119991302491" y2="269.1571448839449" fill="rgb(0, 0, 0)" stroke="rgb(60, 60, 60)" stroke-width="1px" opacity="0.25"></line><line x1="0" y1="236.40619836246012" x2="1089.4119991302491" y2="236.40619836246012" fill="rgb(0, 0, 0)" stroke="rgb(60, 60, 60)" stroke-width="1px" opacity="0.25"></line><line x1="0" y1="203.65525184097535" x2="1089.4119991302491" y2="203.65525184097535" fill="rgb(0, 0, 0)" stroke="rgb(60, 60, 60)" stroke-width="1px" opacity="0.25"></line><line x1="0" y1="170.90430531949056" x2="1089.4119991302491" y2="170.90430531949056" fill="rgb(0, 0, 0)" stroke="rgb(60, 60, 60)" stroke-width="1px" opacity="0.25"></line><line x1="0" y1="138.15335879800574" x2="1089.4119991302491" y2="138.15335879800574" fill="rgb(0, 0, 0)" stroke="rgb(60, 60, 60)" stroke-width="1px" opacity="0.25"></line><line x1="0" y1="105.40241227652098" x2="1089.4119991302491" y2="105.40241227652098" fill="rgb(0, 0, 0)" stroke="rgb(60, 60, 60)" stroke-width="1px" opacity="0.25"></line><line x1="0" y1="72.65146575503616" x2="1089.4119991302491" y2="72.65146575503616" fill="rgb(0, 0, 0)" stroke="rgb(60, 60, 60)" stroke-width="1px" opacity="0.25"></line><line x1="0" y1="39.90051923355139" x2="1089.4119991302491" y2="39.90051923355139" fill="rgb(0, 0, 0)" stroke="rgb(60, 60, 60)" stroke-width="1px" opacity="0.25"></line><line x1="0" y1="7.149572712066629" x2="1089.4119991302491" y2="7.149572712066629" fill="rgb(0, 0, 0)" stroke="rgb(60, 60, 60)" stroke-width="1px" opacity="0.25"></line></g></g></g><g><g><line x1="0" y1="367.40998444839926" x2="1089.4119991302491" y2="367.40998444839926" fill="rgb(0, 0, 0)" stroke="rgb(153, 153, 153)" stroke-width="1.5px"></line></g></g><g><g><line x1="11.098364762747247" y1="0" x2="11.098364762747247" y2="378.60799980163574" fill="rgb(0, 0, 0)" stroke="rgb(153, 153, 153)" stroke-width="1.5px"></line></g></g><g><g><g><g><g><path style="fill: none;" stroke="rgb(204, 51, 17)" stroke-width="2px" d="M13.230290709633667,359.5497572832429L13.585611700781405,360.20477621367263L15.006895665372351,360.20477621367263L15.362216656520088,356.92968156152415L16.4281796299633,361.514814074532L16.783500621111035,361.514814074532L17.849463594554244,361.514814074532L18.20478458570198,358.89473835281325L18.56010557684972,359.5497572832429L19.981389541440667,359.5497572832429L24.245241435213508,362.16983300496173L25.666525399804453,360.20477621367263L26.377167382099927,359.5497572832429L27.0878093643954,358.89473835281325L27.443130355543136,359.5497572832429L28.15377233783861,361.514814074532L28.864414320134085,357.58470049195387L30.28569828472503,360.85979514410235L30.641019275872765,360.20477621367263L30.996340267020503,358.89473835281325L31.35166125816824,360.20477621367263L31.706982249315978,360.85979514410235L33.8389081962024,361.514814074532L34.549550178497874,359.5497572832429L34.90487116964561,360.85979514410235L35.26019216079334,361.514814074532L35.61551315194108,361.514814074532L36.681476125384286,358.89473835281325L37.03679711653203,361.514814074532L37.392118107679764,360.85979514410235L37.7474390988275,360.20477621367263L39.52404405456618,360.85979514410235L41.30064901030487,360.20477621367263L42.36661198374808,358.89473835281325L42.721932974895815,360.20477621367263L44.85385892178223,361.514814074532L48.051747842111865,362.16983300496173L49.11771081555508,361.514814074532L49.473031806702814,358.23971942238353L51.96027874473697,358.23971942238353L53.02624171818018,361.514814074532L53.73688370047565,361.514814074532L56.22413063850981,362.16983300496173L56.57945162965755,362.16983300496173L57.64541460310076,360.20477621367263L58.000735594248496,360.85979514410235L60.48798253228265,361.514814074532L61.19862451457812,362.16983300496173L61.9092664968736,360.85979514410235L62.264587488021334,358.23971942238353L62.61990847916907,361.514814074532L65.10715541720323,362.16983300496173L66.88376037294191,360.20477621367263L67.59440235523738,360.85979514410235L67.94972334638513,360.20477621367263L68.30504433753285,361.514814074532L69.37100731097607,360.85979514410235L70.43697028441927,358.89473835281325L71.14761226671475,360.85979514410235L71.5029332578625,361.514814074532L72.5688962313057,360.85979514410235L74.70082217819213,361.514814074532L75.05614316933986,360.20477621367263L75.76678515163533,360.85979514410235L76.83274812507854,360.85979514410235L77.54339010737402,361.514814074532L77.89871109852176,362.16983300496173L78.60935308081723,361.514814074532L79.31999506311269,360.20477621367263L79.67531605426042,360.85979514410235L82.51788398344232,360.85979514410235L85.36045191262421,361.514814074532L85.71577290377195,361.514814074532L86.0710938949197,360.20477621367263L87.49237785951064,360.85979514410235L91.045587770988,361.514814074532L91.40090876213574,360.85979514410235L92.11155074443123,362.16983300496173L92.8221927267267,360.20477621367263L93.53283470902217,361.514814074532L94.59879768246537,361.514814074532L94.95411867361312,361.514814074532L95.30943966476086,359.5497572832429L96.37540263820405,361.514814074532L99.92861254968142,360.85979514410235L100.6392545319769,361.514814074532L102.77118047886331,362.16983300496173L103.83714345230653,361.514814074532L104.19246444345427,360.85979514410235L104.547785434602,362.16983300496173L104.90310642574974,360.85979514410235L105.61374840804521,361.514814074532L107.03503237263617,360.20477621367263L107.74567435493164,360.20477621367263L108.45631633722711,360.20477621367263L109.16695831952258,360.85979514410235L110.94356327526127,360.85979514410235L113.07548922214768,360.20477621367263L115.56273616018184,359.5497572832429L115.91805715132958,362.16983300496173L118.049983098216,361.514814074532L118.40530408936374,361.514814074532L119.47126706280694,360.85979514410235L119.82658805395468,360.20477621367263L120.18190904510242,360.20477621367263L121.60319300969337,360.20477621367263L121.9585140008411,356.92968156152415L122.66915598313658,356.27466263109443L123.73511895657978,355.61964370066477L125.15640292117074,352.3445490485163L125.51172391231847,351.68953011808657L125.86704490346621,356.92968156152415L126.22236589461394,351.68953011808657L126.93300787690943,344.48432188335994L127.99897085035262,362.16983300496173L128.35429184150036,360.85979514410235L128.7096128326481,361.514814074532L129.77557580609133,361.514814074532L130.84153877953452,362.16983300496173L132.97346472642096,360.85979514410235L133.68410670871643,359.5497572832429L134.75006968215962,361.514814074532L135.10539067330734,360.85979514410235L135.81603265560284,360.85979514410235L136.17135364675056,360.85979514410235L137.94795860248925,360.85979514410235L138.303279593637,360.85979514410235L139.72456355822794,361.514814074532L140.4352055405234,360.20477621367263L141.5011685139666,361.514814074532L142.92245247855757,361.514814074532L144.34373644314852,361.514814074532L145.05437842544399,362.16983300496173L146.47566239003493,360.85979514410235L146.83098338118268,362.16983300496173L147.1863043723304,361.514814074532L147.89694635462587,360.85979514410235L149.6735513103646,361.514814074532L150.0288723015123,361.514814074532L151.45015626610325,361.514814074532L151.80547725725097,362.16983300496173L152.16079824839872,361.514814074532L156.06932915102382,361.514814074532L157.8459341067625,361.514814074532L160.33318104479665,362.16983300496173L160.68850203594442,360.85979514410235L162.4651069916831,362.16983300496173L162.82042798283084,360.85979514410235L163.5310699651263,360.85979514410235L164.24171194742178,360.85979514410235L165.66299591201272,360.20477621367263L168.86088483234235,360.85979514410235L169.57152681463782,360.85979514410235L169.92684780578554,361.514814074532L170.99281077922876,361.514814074532L173.1247367261152,360.85979514410235L175.96730465529708,360.85979514410235L176.3226256464448,360.85979514410235L176.67794663759256,360.85979514410235L177.38858861988803,360.85979514410235L177.74390961103575,360.85979514410235L178.809872584479,361.514814074532L179.16519357562672,361.514814074532L180.9417985313654,362.16983300496173L181.29711952251313,360.85979514410235L185.20565042513823,218.06566831042863L186.27161339858145,260.64189878835884L186.62693438972917,242.95638766675708L187.33757637202464,234.44114157117102L188.0482183543201,265.22703130136676L189.46950231891105,259.33186092749946L193.37803322153619,342.51926509207084L194.79931718612713,339.8991893703521L195.15463817727485,326.79881076175815L195.86528015957035,340.55420830078174L196.93124313301357,336.6240947182036L197.64188511530904,345.7943597442193L199.4184900710477,342.51926509207084L199.77381106219542,343.17428402250056L201.90573700908186,345.7943597442193L202.61637899137733,339.24417043992236L202.97169998252508,347.1043976050787L203.3270209736728,341.8642461616412L203.68234196482055,344.48432188335994L204.03766295596827,335.9690757877739L204.39298394711602,347.1043976050787L205.1036259294115,348.4144354659381L205.81426791170696,347.7594165355084L207.59087286744565,341.20922723121146L207.9461938585934,344.48432188335994L208.30151484974112,344.48432188335994L209.0121568320366,341.8642461616412L210.43344079662754,347.1043976050787L211.144082778923,341.20922723121146L211.85472476121848,337.934132579063L213.27600872580945,340.55420830078174L213.6313297169572,343.8293029529302L213.98665070810492,343.17428402250056L215.40793467269586,343.17428402250056L216.8292186372868,347.7594165355084L217.18453962843452,348.4144354659381L218.25050260187774,341.20922723121146L218.96114458417324,345.1393408137896L219.31646557532096,345.1393408137896L219.6717865664687,344.48432188335994L220.02710755761643,343.8293029529302L220.38242854876418,343.8293029529302L220.7377495399119,343.8293029529302L221.44839152220737,341.8642461616412L221.80371251335512,348.4144354659381L223.58031746909379,343.8293029529302L223.93563846024153,343.8293029529302L225.3569224248325,343.8293029529302L225.71224341598023,349.0694543963678L226.77820638942345,349.0694543963678L227.48884837171892,347.1043976050787L228.91013233630986,345.7943597442193L229.62077431860533,346.44937867464904L230.3314163009008,343.8293029529302L231.0420582831963,339.8991893703521L232.1080212566395,338.5891515094927L233.52930522123043,341.20922723121146L233.88462621237815,334.0040189964848L234.59526819467362,347.7594165355084L235.66123116811684,334.0040189964848L237.0825151327078,343.8293029529302L238.85912008844647,315.6634889444533L241.34636702648064,332.6939811356254L241.70168801762836,319.59360252703146L242.41232999992386,323.52371610960967L242.7676509910716,337.934132579063L243.12297198221933,344.48432188335994L243.47829297336708,340.55420830078174L244.18893495566255,339.8991893703521L245.25489792910574,328.76386755304725L246.67618189369668,348.4144354659381L247.0315028848444,339.24417043992236L248.4527868494354,331.383943274766L249.5187498228786,320.9036403878909L250.94003378746953,347.7594165355084L252.00599676091272,318.2835646661721L252.36131775206047,347.7594165355084L252.7166387432082,345.7943597442193L253.07195973435594,339.8991893703521L253.42728072550366,334.6590379269145L254.13792270779916,319.59360252703146L254.4932436989469,346.44937867464904L254.84856469009463,335.3140568573442L255.5592066723901,334.0040189964848L255.91452766353785,334.0040189964848L256.2698486546856,348.4144354659381L256.6251696458333,309.7683185705861L257.3358116281288,334.0040189964848L258.04645361042424,306.4932239184376L258.401774601572,341.20922723121146L261.2443425307539,347.1043976050787L262.3103055041971,343.8293029529302L262.66562649534484,326.14379183132843L263.02094748649256,348.4144354659381L263.73158946878806,346.44937867464904L264.7975524422312,330.7289243443363L265.5081944245267,338.5891515094927L266.2188364068222,332.6939811356254L267.64012037141316,345.1393408137896L269.0614043360041,330.7289243443363L270.1273673094473,332.03896220519573L270.48268830059504,335.3140568573442L270.83800929174276,322.86869717917995L271.1933302828905,324.1787350400394L271.54865127403826,328.10884862261753L273.3252562297769,341.20922723121146L275.45718217666337,319.59360252703146L276.1678241589588,341.8642461616412L276.5231451501066,344.48432188335994L276.8784661412543,314.35345108359394L277.9444291146975,344.48432188335994L279.0103920881407,345.1393408137896L279.3657130792884,343.17428402250056L280.4316760527317,341.8642461616412L280.78699704387947,325.48877290089877L281.1423180350272,313.6984321531642L281.85296001732263,342.51926509207084L282.56360199961813,336.6240947182036L284.6955279465045,337.27911364863326L285.76149091994773,344.48432188335994L286.11681191109545,324.83375397046905L287.1827748845387,343.17428402250056L287.5380958756864,345.1393408137896L287.8934168668341,344.48432188335994L288.6040588491296,328.10884862261753L288.95937984027734,345.7943597442193L291.0913057871638,339.24417043992236L292.5125897517548,343.17428402250056L292.8679107429025,347.1043976050787L293.57855272519794,331.383943274766L294.28919470749344,345.1393408137896L294.9998366897889,319.59360252703146L295.7104786720844,340.55420830078174L296.0657996632321,341.8642461616412L296.4211206543798,309.7683185705861L296.77644164552754,271.77722060566373L297.84240461897076,330.7289243443363L298.55304660126626,322.86869717917995L299.2636885835617,342.51926509207084L300.3296515570049,342.51926509207084L301.04029353930036,332.6939811356254L301.39561453044814,345.7943597442193L301.75093552159586,320.2486214574612L303.1722194861868,337.27911364863326L303.8828614684823,337.934132579063L304.2381824596301,305.8382049880079L304.9488244419255,334.6590379269145L306.01478741536874,324.83375397046905L307.4360713799597,334.0040189964848L308.5020343534029,297.9779778228515L309.56799732684607,298.63299675328125L309.92331831799385,332.03896220519573L310.6339603002893,338.5891515094927L311.34460228258473,305.18318605757815L312.05524426488023,333.3490000660551L313.8318492206189,320.9036403878909L314.8978121940621,334.0040189964848L315.25313318520983,337.27911364863326L315.6084541763576,337.27911364863326L316.67441714980083,316.9735268053127L319.5169850789827,303.2181292662891L319.87230607013043,286.187637075117L320.93826904357365,39.90051923355139L322.3595530081646,198.41510039753777L323.0701949904601,217.41064937999894L323.4255159816078,220.68574403214743L324.84679994619876,242.3013687363274L325.5574419284942,233.78612264074135L325.912762919642,260.64189878835884L326.97872589308514,252.12665269277284L327.6893678753807,251.47163376234312L328.40000985767614,245.57646338847587L329.46597283111936,242.3013687363274L330.1766148134148,234.44114157117102L330.5319358045626,253.43669055363222L331.59789877800574,254.0917094840619L331.9532197691535,269.1571448839449L333.0191827425967,248.85155804062435L334.0851457160399,276.36235311867154L334.4404667071876,254.7467284144916L336.9277136452218,263.26197451007766L337.2830346363695,264.57201237093705L337.6383556275173,256.7117852057807L337.993676618665,269.81216381437457L338.70431860096045,263.9169934405073L339.0596395921083,258.0218230666401L339.7702815744037,263.9169934405073L340.12560256555145,258.0218230666401L340.4809235566992,263.26197451007766L341.5468865301424,261.9519366492183L341.90220752129017,261.29691771878856L342.2575285124379,269.81216381437457L342.6128495035856,258.0218230666401L343.3234914858811,267.8471070230855L345.4554174327675,279.63744777082L345.8107384239152,270.4671827448043L346.87670139735843,267.1920880926558L349.3639483353926,273.0872584665231L350.42991130883576,271.122201675234L352.91715824687,277.672390979531L353.2724792380177,284.8775992142576L353.6278002291655,289.46273172726546L354.3384422114609,287.4976749359764L354.69376320260864,278.98242884039036L355.0490841937564,287.4976749359764L356.1150471671996,278.98242884039036L356.47036815834736,290.1177506576952L357.1810101406428,289.46273172726546L357.8916521229383,277.672390979531L358.246973114086,279.63744777082L359.66825707867696,279.63744777082L360.0235780698247,280.29246670124974L361.4448620344156,288.1526938664061L361.80018302556334,286.8426560055467L362.15550401671106,272.4322395360934L362.5108250078589,267.8471070230855L363.57678798130206,278.32740990996064L363.93210897244984,275.7073341882419L364.28742996359756,284.22258028382794L365.3533929370408,278.32740990996064L365.7087139281885,285.5326181446873L368.9066028485181,277.01737204910125L370.32788681310905,281.6025045621091L371.03852879540455,276.36235311867154L371.7491707777,270.4671827448043L372.1044917688477,282.25752349253884L373.17045474229093,275.7073341882419L373.52577573343865,281.6025045621091L374.2364177157342,278.98242884039036L374.5917387068819,286.8426560055467L374.94705969802965,282.25752349253884L375.3023806891774,275.05231525781215L376.3683436626206,279.63744777082L379.21091159180247,271.77722060566373L379.92155357409797,273.0872584665231L380.6321955563934,273.7422773969528L381.3428375386889,278.32740990996064L381.69815852983663,277.672390979531L382.05347952098435,277.01737204910125L382.76412150327985,282.25752349253884L383.4747634855753,283.5675613533982L383.830084476723,287.4976749359764L384.1854054678708,284.22258028382794L385.25136844131396,278.32740990996064L385.9620104236095,278.98242884039036L388.4492573616437,270.4671827448043L388.8045783527914,283.5675613533982L389.8705413262346,275.7073341882419L390.58118330853006,284.8775992142576L392.71310925541644,280.94748563167946L393.0684302465642,282.9125424229685L393.77907222885966,277.01737204910125L394.48971421115516,276.36235311867154L395.9109981757461,270.4671827448043L397.3322821403371,285.5326181446873L398.04292412263254,285.5326181446873L398.75356610492804,280.94748563167946L399.8195290783712,274.3972963273825L400.174850069519,280.94748563167946L400.5301710606667,284.22258028382794L400.8854920518144,290.1177506576952L403.3727389898486,288.1526938664061L403.7280599809963,290.7727695881249L405.85998592788275,286.187637075117L406.5706279101782,290.1177506576952L407.28126989247363,273.0872584665231L407.6365908836214,280.94748563167946L407.99191187476913,277.672390979531L411.1898007950988,288.1526938664061L411.9004427773943,278.32740990996064L412.96640575083745,279.63744777082L414.3876897154284,291.42778851855456L415.0983316977239,266.53706916222615L415.4536526888716,273.7422773969528L416.87493665346256,271.122201675234L417.2302576446103,288.1526938664061L417.9408996269058,278.98242884039036L418.2962206180535,264.57201237093705L418.6515416092012,265.8820502317964L419.71750458264444,267.8471070230855L420.07282557379216,282.25752349253884L423.6260354852696,265.8820502317964L424.33667746756504,278.32740990996064L424.69199845871276,266.53706916222615L425.757961432156,273.7422773969528L426.1132824233037,262.60695557964794L426.4686034144515,260.64189878835884L427.53456638789464,262.60695557964794L427.8898873790424,247.54152017976494L428.24520837019014,277.672390979531L433.57502323740624,257.36680413621036L434.6409862108494,267.1920880926558L435.3516281931449,254.7467284144916L435.7069491842926,250.16159590148374L436.4175911665881,277.01737204910125L436.77291215773585,265.22703130136676L438.1941961223268,251.47163376234312L439.26015909577,263.26197451007766L439.6154800869177,242.3013687363274L439.97080107806545,238.37125515374922L440.32612206921317,220.03072510171774L441.03676405150867,254.7467284144916L441.7474060338041,237.71623622331953L442.4580480160996,248.85155804062435L443.16868999839505,240.33631194503832L443.5240109895428,250.16159590148374L444.23465297183833,245.57646338847587L444.9452949541338,217.41064937999894L445.65593693642927,257.36680413621036L446.011257927577,232.47608477988194L446.3665789187247,256.05676627535104L446.7218999098725,256.7117852057807L447.0772209010202,272.4322395360934L450.63043081249754,253.43669055363222L452.0517147770885,215.44559258870987L453.4729987416794,260.64189878835884L453.8283197328272,251.47163376234312L454.1836407239749,239.0262740841789L454.89428270627036,242.95638766675708L455.96024567971364,243.61140659718677L457.02620865315686,250.16159590148374L457.7368506354523,241.6463498058977L458.4474926177478,258.6768419970698L458.8028136088955,256.7117852057807L459.51345559119096,237.0612172928898L460.9347395557819,211.51547900613167L461.2900605469297,247.54152017976494L461.6453815380774,233.13110371031166L462.35602352037284,197.76008146710808L462.7113445115206,218.06566831042863L463.7773074849638,209.5504222148426L464.13262847611156,238.37125515374922L464.4879494672593,222.6508008234365L464.843270458407,229.85600905816315L465.5539124407025,223.9608386842959L467.33051739644117,204.31027077140502L468.39648036988444,192.5199300236705L470.1730853256231,109.98754478952884L470.88372730791855,47.76074639870774L472.3050112725095,39.90051923355139L473.3709742459527,39.90051923355139L474.79225821054365,39.90051923355139L475.14757920169137,39.90051923355139L475.5029001928391,39.90051923355139L475.85822118398687,39.90051923355139L476.5688631662823,39.90051923355139L477.63482613972553,39.90051923355139L477.99014713087325,39.90051923355139L478.70078911316875,39.90051923355139L479.0561101043165,39.90051923355139L479.41143109546425,39.90051923355139L481.5433570423507,39.90051923355139L482.25399902464613,39.90051923355139L482.60932001579386,39.90051923355139L483.31996199808935,39.90051923355139L483.6752829892371,39.90051923355139L484.7412459626803,39.90051923355139L485.096566953828,39.90051923355139L486.8731719095667,39.90051923355139L487.22849290071446,39.90051923355139L487.5838138918622,39.90051923355139L488.64977686530534,39.90051923355139L489.36041884760084,39.90051923355139L489.71573983874856,39.90051923355139L490.0710608298963,39.90051923355139L490.42638182104406,39.90051923355139L490.7817028121918,39.90051923355139L491.13702380333956,39.90051923355139L493.268949750226,39.90051923355139L495.04555470596466,39.90051923355139L495.4008756971124,39.90051923355139L495.7561966882601,39.90051923355139L497.5328016439988,39.90051923355139L498.95408560858976,39.90051923355139L499.6647275908852,39.90051923355139L500.0200485820329,39.90051923355139L501.44133254662387,39.90051923355139L502.86261651121487,39.90051923355139L505.349863449249,39.90051923355139L506.06050543154447,39.90051923355139L507.1264684049877,39.90051923355139L507.8371103872832,39.90051923355139L508.1924313784309,39.90051923355139L509.61371534302185,39.90051923355139L509.9690363341696,39.90051923355139L510.6796783164651,39.90051923355139L511.0349993076128,39.90051923355139L512.100962281056,39.90051923355139L518.1414191305676,39.90051923355139L518.4967401217153,39.90051923355139L518.852061112863,39.90051923355139L519.2073821040108,39.90051923355139L520.6286660686017,39.90051923355139L521.6946290420449,39.90051923355139L522.0499500331927,39.90051923355139L523.1159130066359,39.90051923355139L523.4712339977835,39.90051923355139L523.8265549889313,39.90051923355139L525.2478389535222,39.90051923355139L525.60315994467,39.90051923355139L525.9584809358178,39.90051923355139L526.6691229181132,39.90051923355139L527.3797649004088,39.90051923355139L528.0904068827042,39.90051923355139L528.8010488649996,39.90051923355139L530.9329748118861,39.90051923355139L531.6436167941815,39.90051923355139L533.4202217499202,39.90051923355139L533.775542741068,39.90051923355139L536.9734316613975,39.90051923355139L537.3287526525453,39.90051923355139L541.2372835551704,39.90051923355139L542.6585675197614,39.90051923355139L543.013888510909,39.90051923355139L544.4351724755,39.90051923355139L544.7904934666478,39.90051923355139L545.8564564400909,39.90051923355139L546.5670984223865,39.90051923355139L546.9224194135342,39.90051923355139L547.2777404046819,39.90051923355139L549.764987342716,39.90051923355139L550.1203083338638,39.90051923355139L550.4756293250115,39.90051923355139L550.8309503161593,39.90051923355139L551.8969132896025,39.90051923355139L552.6075552718979,39.90051923355139L552.9628762630457,39.90051923355139L553.3181972541934,39.90051923355139L553.6735182453411,39.90051923355139L555.4501232010799,39.90051923355139L556.1607651833754,39.90051923355139L557.9373701391141,39.90051923355139L558.2926911302618,39.90051923355139L559.358654103705,39.90051923355139L561.8459010417391,39.90051923355139L562.5565430240347,39.90051923355139L566.109752935512,39.90051923355139L566.8203949178074,39.90051923355139L567.1757159089552,39.90051923355139L567.8863578912507,39.90051923355139L568.2416788823984,39.90051923355139L568.9523208646939,39.90051923355139L569.3076418558416,39.90051923355139L571.439567802728,39.90051923355139L571.7948887938758,39.90051923355139L573.9268147407622,39.90051923355139L574.2821357319099,39.90051923355139L577.4800246522395,39.90051923355139L578.9013086168305,39.90051923355139L579.9672715902738,39.90051923355139L581.3885555548648,39.90051923355139L583.5204815017511,39.90051923355139L584.5864444751943,39.90051923355139L585.2970864574899,39.90051923355139L586.363049430933,39.90051923355139L587.0736914132285,39.90051923355139L587.4290124043762,39.90051923355139L588.8502963689672,39.90051923355139L589.2056173601148,39.90051923355139L589.9162593424104,39.90051923355139L590.2715803335581,39.90051923355139L590.9822223158535,39.90051923355139L592.0481852892967,39.90051923355139L592.4035062804445,39.90051923355139L592.7588272715923,39.90051923355139L594.1801112361832,39.90051923355139L594.8907532184786,39.90051923355139L595.2460742096264,39.90051923355139L595.6013952007742,39.90051923355139L596.3120371830696,39.90051923355139L597.022679165365,39.90051923355139L597.7333211476605,39.90051923355139L598.7992841211037,39.90051923355139L599.8652470945469,39.90051923355139L600.2205680856947,39.90051923355139L600.5758890768424,39.90051923355139L601.6418520502856,39.90051923355139L602.3524940325811,39.90051923355139L602.7078150237289,39.90051923355139L603.7737779971721,39.90051923355139L604.1290989883198,39.90051923355139L605.195061961763,39.90051923355139L606.616345926354,39.90051923355139L606.9716669175017,39.90051923355139L607.3269879086495,39.90051923355139L609.8142348466836,39.90051923355139L610.5248768289791,39.90051923355139L610.8801978201268,39.90051923355139L611.2355188112746,39.90051923355139L612.3014817847178,39.90051923355139L612.6568027758655,39.90051923355139L613.367444758161,39.90051923355139L614.7887287227519,39.90051923355139L615.4993707050473,39.90051923355139L615.8546916961951,39.90051923355139L616.9206546696383,39.90051923355139L618.3419386342292,39.90051923355139L618.697259625377,39.90051923355139L619.4079016076724,39.90051923355139L619.7632225988202,39.90051923355139L620.1185435899679,39.90051923355139L620.4738645811157,39.90051923355139L621.1845065634111,39.90051923355139L622.2504695368543,39.90051923355139L622.6057905280021,39.90051923355139L622.9611115191498,39.90051923355139L623.3164325102975,39.90051923355139L624.7377164748885,39.90051923355139L625.0930374660362,39.90051923355139L626.869642421775,39.90051923355139L627.5802844040705,39.90051923355139L627.9356053952182,39.90051923355139L628.290926386366,39.90051923355139L629.7122103509569,39.90051923355139L630.7781733244001,39.90051923355139L631.4888153066955,39.90051923355139L632.5547782801387,39.90051923355139L632.9100992712865,39.90051923355139L633.2654202624343,39.90051923355139L633.620741253582,39.90051923355139L633.9760622447297,39.90051923355139L634.6867042270252,39.90051923355139L635.3973462093206,39.90051923355139L636.4633091827639,39.90051923355139L636.8186301739116,39.90051923355139L637.5292721562071,39.90051923355139L637.8845931473548,39.90051923355139L638.2399141385025,39.90051923355139L639.3058771119457,39.90051923355139L640.0165190942412,39.90051923355139L640.371840085389,39.90051923355139L640.7271610765367,39.90051923355139L641.0824820676844,39.90051923355139L643.5697290057186,39.90051923355139L643.9250499968663,39.90051923355139L644.9910129703095,39.90051923355139L646.7676179260482,39.90051923355139L648.1889018906392,39.90051923355139L650.3208278375256,39.90051923355139L651.0314698198212,39.90051923355139L651.7421118021166,39.90051923355139L653.1633957667075,39.90051923355139L653.5187167578553,39.90051923355139L653.874037749003,39.90051923355139L654.5846797312985,39.90051923355139L654.9400007224461,39.90051923355139L655.2953217135939,39.90051923355139L656.7166056781849,39.90051923355139L658.1378896427758,39.90051923355139L658.8485316250712,39.90051923355139L659.203852616219,39.90051923355139L662.0464205454009,39.90051923355139L662.4017415365487,39.90051923355139L663.4677045099918,39.90051923355139L664.533667483435,39.90051923355139L665.954951448026,39.90051923355139L666.6655934303215,39.90051923355139L668.0868773949123,39.90051923355139L669.8634823506511,39.90051923355139L670.2188033417988,39.90051923355139L671.6400873063898,39.90051923355139L671.9954082975374,39.90051923355139L673.0613712709808,39.90051923355139L673.4166922621285,39.90051923355139L673.7720132532762,39.90051923355139L674.8379762267194,39.90051923355139L675.9039392001627,39.90051923355139L676.2592601913104,39.90051923355139L676.9699021736059,39.90051923355139L677.6805441559013,39.90051923355139L678.0358651470491,39.90051923355139L678.3911861381969,39.90051923355139L680.878433076231,39.90051923355139L681.5890750585264,39.90051923355139L681.9443960496742,39.90051923355139L684.0763219965605,39.90051923355139L684.4316429877083,39.90051923355139L684.7869639788561,39.90051923355139L685.1422849700037,39.90051923355139L685.4976059611515,39.90051923355139L686.5635689345947,39.90051923355139L687.629531908038,39.90051923355139L690.1167788460721,39.90051923355139L690.4720998372198,39.90051923355139L690.8274208283675,39.90051923355139L694.0253097486972,39.90051923355139L695.0912727221404,39.90051923355139L695.446593713288,39.90051923355139L696.8678776778792,39.90051923355139L697.2231986690269,39.90051923355139L697.5785196601746,39.90051923355139L697.9338406513224,39.90051923355139L698.9998036247656,39.90051923355139L699.3551246159133,39.90051923355139L699.710445607061,39.90051923355139L700.0657665982087,39.90051923355139L701.4870505627997,39.90051923355139L701.8423715539475,39.90051923355139L702.1976925450952,39.90051923355139L703.2636555185384,39.90051923355139L703.9742975008338,39.90051923355139L704.6849394831294,39.90051923355139L705.3955814654248,39.90051923355139L705.7509024565725,39.90051923355139L706.1062234477203,39.90051923355139L706.8168654300157,39.90051923355139L707.1721864211635,39.90051923355139L708.9487913769021,39.90051923355139L710.0147543503454,39.90051923355139L710.7253963326408,39.90051923355139L711.791359306084,39.90051923355139L712.8573222795272,39.90051923355139L713.2126432706749,39.90051923355139L713.9232852529705,39.90051923355139L714.6339272352659,39.90051923355139L716.7658531821523,39.90051923355139L717.1211741733,39.90051923355139L717.8318161555956,39.90051923355139L718.542458137891,39.90051923355139L722.0956680493684,39.90051923355139L722.4509890405162,39.90051923355139L722.8063100316639,39.90051923355139L723.1616310228117,39.90051923355139L727.4254829165844,39.90051923355139L728.1361248988801,39.90051923355139L728.8467668811755,39.90051923355139L729.557408863471,39.90051923355139L730.978692828062,39.90051923355139L731.3340138192096,39.90051923355139L731.6893348103574,39.90051923355139L732.0446558015052,39.90051923355139L732.3999767926529,39.90051923355139L732.7552977838006,39.90051923355139L733.1106187749483,39.90051923355139L733.8212607572439,39.90051923355139L734.1765817483915,39.90051923355139L734.5319027395393,39.90051923355139L735.2425447218347,39.90051923355139L737.0191496775734,39.90051923355139L738.0851126510166,39.90051923355139L738.7957546333121,39.90051923355139L739.1510756244598,39.90051923355139L739.8617176067553,39.90051923355139L740.9276805801985,39.90051923355139L741.9936435536417,39.90051923355139L742.7042855359372,39.90051923355139L743.7702485093804,39.90051923355139L744.8362114828236,39.90051923355139L745.1915324739714,39.90051923355139L746.2574954474145,39.90051923355139L746.96813742971,39.90051923355139L747.3234584208577,39.90051923355139L750.1660263500397,39.90051923355139L750.5213473411875,39.90051923355139L751.2319893234829,39.90051923355139L753.0085942792216,39.90051923355139L754.7851992349603,39.90051923355139L755.140520226108,39.90051923355139L755.4958412172558,39.90051923355139L756.2064831995513,39.90051923355139L756.5618041906989,39.90051923355139L757.6277671641421,39.90051923355139L758.3384091464377,39.90051923355139L759.4043721198808,39.90051923355139L759.7596931110286,39.90051923355139L761.1809770756196,39.90051923355139L762.9575820313582,39.90051923355139L763.6682240136537,39.90051923355139L765.8001499605401,39.90051923355139L766.1554709516878,39.90051923355139L766.5107919428356,39.90051923355139L766.8661129339832,39.90051923355139L767.221433925131,39.90051923355139L768.2873968985742,39.90051923355139L768.9980388808697,39.90051923355139L770.0640018543129,39.90051923355139L770.4193228454607,39.90051923355139L771.4852858189039,39.90051923355139L772.1959278011993,39.90051923355139L772.9065697834948,39.90051923355139L773.2618907746426,39.90051923355139L773.6172117657903,39.90051923355139L775.0384957303813,39.90051923355139L776.4597796949722,39.90051923355139L776.81510068612,39.90051923355139L777.1704216772678,39.90051923355139L778.5917056418587,39.90051923355139L778.9470266330064,39.90051923355139L779.6576686153019,39.90051923355139L780.0129896064497,39.90051923355139L780.7236315887451,39.90051923355139L781.0789525798928,39.90051923355139L781.4342735710405,39.90051923355139L782.144915553336,39.90051923355139L782.5002365444838,39.90051923355139L782.8555575356315,39.90051923355139L783.2108785267792,39.90051923355139L784.2768415002224,39.90051923355139L784.9874834825179,39.90051923355139L785.3428044736656,39.90051923355139L787.4747304205521,39.90051923355139L787.8300514116997,39.90051923355139L788.1853724028475,39.90051923355139L789.6066563674384,39.90051923355139L790.317298349734,39.90051923355139L791.0279403320294,39.90051923355139L792.4492242966203,39.90051923355139L795.2917922258022,39.90051923355139L796.3577551992454,39.90051923355139L797.068397181541,39.90051923355139L797.7790391638365,39.90051923355139L798.1343601549842,39.90051923355139L798.8450021372797,39.90051923355139L799.5556441195752,39.90051923355139L800.2662861018706,39.90051923355139L800.6216070930184,39.90051923355139L800.976928084166,39.90051923355139L802.0428910576093,39.90051923355139L802.398212048757,39.90051923355139L803.4641750222003,39.90051923355139L803.8194960133479,39.90051923355139L804.8854589867911,39.90051923355139L805.9514219602344,39.90051923355139L807.3727059248253,39.90051923355139L809.5046318717117,39.90051923355139L809.8599528628595,39.90051923355139L810.9259158363027,39.90051923355139L811.2812368274504,39.90051923355139L811.9918788097459,39.90051923355139L812.7025207920414,39.90051923355139L813.057841783189,39.90051923355139L813.7684837654846,39.90051923355139L814.1238047566322,39.90051923355139L814.8344467389277,39.90051923355139L815.1897677300755,39.90051923355139L815.5450887212232,39.90051923355139L815.9004097123709,39.90051923355139L816.6110516946665,39.90051923355139L817.3216936769619,39.90051923355139L817.6770146681096,39.90051923355139L819.0982986327006,39.90051923355139L819.4536196238483,39.90051923355139L820.1642616061438,39.90051923355139L821.2302245795871,39.90051923355139L821.9408665618826,39.90051923355139L823.0068295353258,39.90051923355139L825.1387554822122,39.90051923355139L827.2706814290985,39.90051923355139L829.0472863848372,39.90051923355139L830.1132493582804,39.90051923355139L831.8898543140191,39.90051923355139L832.6004962963146,39.90051923355139L833.6664592697578,39.90051923355139L835.7983852166442,39.90051923355139L836.153706207792,39.90051923355139L836.8643481900874,39.90051923355139L837.9303111635306,39.90051923355139L838.9962741369739,39.90051923355139L839.3515951281215,39.90051923355139L839.7069161192693,39.90051923355139L842.904805039599,39.90051923355139L843.2601260307466,39.90051923355139L843.6154470218945,39.90051923355139L843.9707680130423,39.90051923355139L844.6814099953377,39.90051923355139L845.3920519776332,39.90051923355139L846.4580149510764,39.90051923355139L846.8133359422242,39.90051923355139L848.234619906815,39.90051923355139L848.9452618891105,39.90051923355139L849.3005828802583,39.90051923355139L849.6559038714059,39.90051923355139L850.0112248625537,39.90051923355139L852.8537927917356,39.90051923355139L856.0516817120653,39.90051923355139L856.7623236943607,39.90051923355139L857.8282866678039,39.90051923355139L859.6048916235426,39.90051923355139L860.6708545969858,39.90051923355139L861.0261755881335,39.90051923355139L862.0921385615767,39.90051923355139L862.4474595527245,39.90051923355139L863.5134225261677,39.90051923355139L864.9347064907586,39.90051923355139L865.645348473054,39.90051923355139L866.3559904553496,39.90051923355139L867.4219534287929,39.90051923355139L868.487916402236,39.90051923355139L868.8432373933838,39.90051923355139L869.1985583845316,39.90051923355139L869.909200366827,39.90051923355139L872.7517682960089,39.90051923355139L873.4624102783043,39.90051923355139L874.1730522605998,39.90051923355139L874.8836942428953,39.90051923355139L876.660299198634,39.90051923355139L878.4369041543727,39.90051923355139L879.8581881189635,39.90051923355139L881.2794720835545,39.90051923355139L881.6347930747022,39.90051923355139L881.99011406585,39.90051923355139L883.411398030441,39.90051923355139L883.7667190215886,39.90051923355139L884.1220400127364,39.90051923355139L884.4773610038841,39.90051923355139L885.5433239773273,39.90051923355139L887.319928933066,39.90051923355139L888.3858919065092,39.90051923355139L889.0965338888047,39.90051923355139L890.5178178533957,39.90051923355139L890.8731388445435,39.90051923355139L891.2284598356912,39.90051923355139L891.583780826839,39.90051923355139L892.2944228091344,39.90051923355139L893.0050647914298,39.90051923355139L894.0710277648731,39.90051923355139L895.1369907383163,39.90051923355139L895.4923117294641,39.90051923355139L896.2029537117595,39.90051923355139L896.913595694055,39.90051923355139L899.7561636232368,39.90051923355139L900.82212659668,39.90051923355139L901.1774475878278,39.90051923355139L901.8880895701233,39.90051923355139L902.5987315524187,39.90051923355139L903.3093735347142,39.90051923355139L903.6646945258619,39.90051923355139L904.3753365081574,39.90051923355139L905.4412994816006,39.90051923355139L906.151941463896,39.90051923355139L907.2179044373393,39.90051923355139L907.9285464196348,39.90051923355139L908.9945093930779,39.90051923355139L909.3498303842257,39.90051923355139L909.7051513753735,39.90051923355139" fill="none"></path></g></g></g></g></g></g><g transform="translate(39, 378)" clip-path="url(#clip_1)"><clipPath id="clip_1"><rect width="1089" height="21"></rect></clipPath><g><g><line x1="11.098364762747247" y1="0" x2="11.098364762747247" y2="5" style="visibility: inherit;" fill="rgb(0, 0, 0)" stroke="rgb(204, 204, 204)" stroke-width="1px"></line><line x1="82.16256299229458" y1="0" x2="82.16256299229458" y2="5" style="visibility: inherit;" fill="rgb(0, 0, 0)" stroke="rgb(204, 204, 204)" stroke-width="1px"></line><line x1="153.2267612218419" y1="0" x2="153.2267612218419" y2="5" style="visibility: inherit;" fill="rgb(0, 0, 0)" stroke="rgb(204, 204, 204)" stroke-width="1px"></line><line x1="224.29095945138926" y1="0" x2="224.29095945138926" y2="5" style="visibility: inherit;" fill="rgb(0, 0, 0)" stroke="rgb(204, 204, 204)" stroke-width="1px"></line><line x1="295.35515768093666" y1="0" x2="295.35515768093666" y2="5" style="visibility: inherit;" fill="rgb(0, 0, 0)" stroke="rgb(204, 204, 204)" stroke-width="1px"></line><line x1="366.41935591048394" y1="0" x2="366.41935591048394" y2="5" style="visibility: inherit;" fill="rgb(0, 0, 0)" stroke="rgb(204, 204, 204)" stroke-width="1px"></line><line x1="437.4835541400313" y1="0" x2="437.4835541400313" y2="5" style="visibility: inherit;" fill="rgb(0, 0, 0)" stroke="rgb(204, 204, 204)" stroke-width="1px"></line><line x1="508.54775236957863" y1="0" x2="508.54775236957863" y2="5" style="visibility: inherit;" fill="rgb(0, 0, 0)" stroke="rgb(204, 204, 204)" stroke-width="1px"></line><line x1="579.6119505991261" y1="0" x2="579.6119505991261" y2="5" style="visibility: inherit;" fill="rgb(0, 0, 0)" stroke="rgb(204, 204, 204)" stroke-width="1px"></line><line x1="650.6761488286734" y1="0" x2="650.6761488286734" y2="5" style="visibility: inherit;" fill="rgb(0, 0, 0)" stroke="rgb(204, 204, 204)" stroke-width="1px"></line><line x1="721.7403470582207" y1="0" x2="721.7403470582207" y2="5" style="visibility: inherit;" fill="rgb(0, 0, 0)" stroke="rgb(204, 204, 204)" stroke-width="1px"></line><line x1="792.8045452877681" y1="0" x2="792.8045452877681" y2="5" style="visibility: inherit;" fill="rgb(0, 0, 0)" stroke="rgb(204, 204, 204)" stroke-width="1px"></line><line x1="863.8687435173154" y1="0" x2="863.8687435173154" y2="5" style="visibility: inherit;" fill="rgb(0, 0, 0)" stroke="rgb(204, 204, 204)" stroke-width="1px"></line><line x1="934.9329417468628" y1="0" x2="934.9329417468628" y2="5" style="visibility: inherit;" fill="rgb(0, 0, 0)" stroke="rgb(204, 204, 204)" stroke-width="1px"></line><line x1="1005.99713997641" y1="0" x2="1005.99713997641" y2="5" style="visibility: inherit;" fill="rgb(0, 0, 0)" stroke="rgb(204, 204, 204)" stroke-width="1px"></line><line x1="1077.0613382059573" y1="0" x2="1077.0613382059573" y2="5" style="visibility: inherit;" fill="rgb(0, 0, 0)" stroke="rgb(204, 204, 204)" stroke-width="1px"></line></g><g transform="translate(0, 8)"><text style="text-anchor: middle; visibility: inherit; font-family: &quot;Helvetica Neue&quot;, sans-serif; font-size: 12px; font-weight: 200;" x="11.098364762747247" y="0" dx="0em" dy="0.95em" fill="rgb(50, 49, 63)" stroke="none" stroke-width="1px">0</text><text style="text-anchor: middle; visibility: inherit; font-family: &quot;Helvetica Neue&quot;, sans-serif; font-size: 12px; font-weight: 200;" x="82.16256299229458" y="0" dx="0em" dy="0.95em" fill="rgb(50, 49, 63)" stroke="none" stroke-width="1px">200</text><text style="text-anchor: middle; visibility: inherit; font-family: &quot;Helvetica Neue&quot;, sans-serif; font-size: 12px; font-weight: 200;" x="153.2267612218419" y="0" dx="0em" dy="0.95em" fill="rgb(50, 49, 63)" stroke="none" stroke-width="1px">400</text><text style="text-anchor: middle; visibility: inherit; font-family: &quot;Helvetica Neue&quot;, sans-serif; font-size: 12px; font-weight: 200;" x="224.29095945138926" y="0" dx="0em" dy="0.95em" fill="rgb(50, 49, 63)" stroke="none" stroke-width="1px">600</text><text style="text-anchor: middle; visibility: inherit; font-family: &quot;Helvetica Neue&quot;, sans-serif; font-size: 12px; font-weight: 200;" x="295.35515768093666" y="0" dx="0em" dy="0.95em" fill="rgb(50, 49, 63)" stroke="none" stroke-width="1px">800</text><text style="text-anchor: middle; visibility: inherit; font-family: &quot;Helvetica Neue&quot;, sans-serif; font-size: 12px; font-weight: 200;" x="366.41935591048394" y="0" dx="0em" dy="0.95em" fill="rgb(50, 49, 63)" stroke="none" stroke-width="1px">1k</text><text style="text-anchor: middle; visibility: inherit; font-family: &quot;Helvetica Neue&quot;, sans-serif; font-size: 12px; font-weight: 200;" x="437.4835541400313" y="0" dx="0em" dy="0.95em" fill="rgb(50, 49, 63)" stroke="none" stroke-width="1px">1.2k</text><text style="text-anchor: middle; visibility: inherit; font-family: &quot;Helvetica Neue&quot;, sans-serif; font-size: 12px; font-weight: 200;" x="508.54775236957863" y="0" dx="0em" dy="0.95em" fill="rgb(50, 49, 63)" stroke="none" stroke-width="1px">1.4k</text><text style="text-anchor: middle; visibility: inherit; font-family: &quot;Helvetica Neue&quot;, sans-serif; font-size: 12px; font-weight: 200;" x="579.6119505991261" y="0" dx="0em" dy="0.95em" fill="rgb(50, 49, 63)" stroke="none" stroke-width="1px">1.6k</text><text style="text-anchor: middle; visibility: inherit; font-family: &quot;Helvetica Neue&quot;, sans-serif; font-size: 12px; font-weight: 200;" x="650.6761488286734" y="0" dx="0em" dy="0.95em" fill="rgb(50, 49, 63)" stroke="none" stroke-width="1px">1.8k</text><text style="text-anchor: middle; visibility: inherit; font-family: &quot;Helvetica Neue&quot;, sans-serif; font-size: 12px; font-weight: 200;" x="721.7403470582207" y="0" dx="0em" dy="0.95em" fill="rgb(50, 49, 63)" stroke="none" stroke-width="1px">2k</text><text style="text-anchor: middle; visibility: inherit; font-family: &quot;Helvetica Neue&quot;, sans-serif; font-size: 12px; font-weight: 200;" x="792.8045452877681" y="0" dx="0em" dy="0.95em" fill="rgb(50, 49, 63)" stroke="none" stroke-width="1px">2.2k</text><text style="text-anchor: middle; visibility: inherit; font-family: &quot;Helvetica Neue&quot;, sans-serif; font-size: 12px; font-weight: 200;" x="863.8687435173154" y="0" dx="0em" dy="0.95em" fill="rgb(50, 49, 63)" stroke="none" stroke-width="1px">2.4k</text><text style="text-anchor: middle; visibility: inherit; font-family: &quot;Helvetica Neue&quot;, sans-serif; font-size: 12px; font-weight: 200;" x="934.9329417468628" y="0" dx="0em" dy="0.95em" fill="rgb(50, 49, 63)" stroke="none" stroke-width="1px">2.6k</text><text style="text-anchor: middle; visibility: inherit; font-family: &quot;Helvetica Neue&quot;, sans-serif; font-size: 12px; font-weight: 200;" x="1005.99713997641" y="0" dx="0em" dy="0.95em" fill="rgb(50, 49, 63)" stroke="none" stroke-width="1px">2.8k</text><text style="text-anchor: middle; visibility: inherit; font-family: &quot;Helvetica Neue&quot;, sans-serif; font-size: 12px; font-weight: 200;" x="1077.0613382059573" y="0" dx="0em" dy="0.95em" fill="rgb(50, 49, 63)" stroke="none" stroke-width="1px">3k</text></g><line x1="0" y1="0" x2="1089.4119991302491" y2="0" fill="rgb(0, 0, 0)" stroke="rgb(204, 204, 204)" stroke-width="1px"></line></g></g></g></g></svg>