<svg viewBox="0 0 1129.4000244140625 400" xmlns="http://www.w3.org/2000/svg"><g><g><g><g><g><line x1="39.98800086975098" y1="371.1775982918059" x2="34.98800086975098" y2="371.1775982918059" style="visibility: inherit;" fill="rgb(0, 0, 0)" stroke="rgb(204, 204, 204)" stroke-width="1px"></line><line x1="39.98800086975098" y1="337.96536068434636" x2="34.98800086975098" y2="337.96536068434636" style="visibility: inherit;" fill="rgb(0, 0, 0)" stroke="rgb(204, 204, 204)" stroke-width="1px"></line><line x1="39.98800086975098" y1="304.7531230768868" x2="34.98800086975098" y2="304.7531230768868" style="visibility: inherit;" fill="rgb(0, 0, 0)" stroke="rgb(204, 204, 204)" stroke-width="1px"></line><line x1="39.98800086975098" y1="271.5408854694273" x2="34.98800086975098" y2="271.5408854694273" style="visibility: inherit;" fill="rgb(0, 0, 0)" stroke="rgb(204, 204, 204)" stroke-width="1px"></line><line x1="39.98800086975098" y1="238.32864786196777" x2="34.98800086975098" y2="238.32864786196777" style="visibility: inherit;" fill="rgb(0, 0, 0)" stroke="rgb(204, 204, 204)" stroke-width="1px"></line><line x1="39.98800086975098" y1="205.11641025450822" x2="34.98800086975098" y2="205.11641025450822" style="visibility: inherit;" fill="rgb(0, 0, 0)" stroke="rgb(204, 204, 204)" stroke-width="1px"></line><line x1="39.98800086975098" y1="171.90417264704865" x2="34.98800086975098" y2="171.90417264704865" style="visibility: inherit;" fill="rgb(0, 0, 0)" stroke="rgb(204, 204, 204)" stroke-width="1px"></line><line x1="39.98800086975098" y1="138.69193503958914" x2="34.98800086975098" y2="138.69193503958914" style="visibility: inherit;" fill="rgb(0, 0, 0)" stroke="rgb(204, 204, 204)" stroke-width="1px"></line><line x1="39.98800086975098" y1="105.47969743212963" x2="34.98800086975098" y2="105.47969743212963" style="visibility: inherit;" fill="rgb(0, 0, 0)" stroke="rgb(204, 204, 204)" stroke-width="1px"></line><line x1="39.98800086975098" y1="72.26745982467008" x2="34.98800086975098" y2="72.26745982467008" style="visibility: inherit;" fill="rgb(0, 0, 0)" stroke="rgb(204, 204, 204)" stroke-width="1px"></line><line x1="39.98800086975098" y1="39.055222217210485" x2="34.98800086975098" y2="39.055222217210485" style="visibility: inherit;" fill="rgb(0, 0, 0)" stroke="rgb(204, 204, 204)" stroke-width="1px"></line><line x1="39.98800086975098" y1="5.842984609750943" x2="34.98800086975098" y2="5.842984609750943" style="visibility: inherit;" fill="rgb(0, 0, 0)" stroke="rgb(204, 204, 204)" stroke-width="1px"></line></g><g transform="translate(29.988000869750977, 0)"><text style="text-anchor: end; visibility: inherit; font-family: &quot;Helvetica Neue&quot;, sans-serif; font-size: 12px; font-weight: 200;" x="0" y="371.1775982918059" dx="0em" dy="0.3em" fill="rgb(50, 49, 63)" stroke="none" stroke-width="1px">0</text><text style="text-anchor: end; visibility: inherit; font-family: &quot;Helvetica Neue&quot;, sans-serif; font-size: 12px; font-weight: 200;" x="0" y="337.96536068434636" dx="0em" dy="0.3em" fill="rgb(50, 49, 63)" stroke="none" stroke-width="1px">50</text><text style="text-anchor: end; visibility: inherit; font-family: &quot;Helvetica Neue&quot;, sans-serif; font-size: 12px; font-weight: 200;" x="0" y="304.7531230768868" dx="0em" dy="0.3em" fill="rgb(50, 49, 63)" stroke="none" stroke-width="1px">100</text><text style="text-anchor: end; visibility: inherit; font-family: &quot;Helvetica Neue&quot;, sans-serif; font-size: 12px; font-weight: 200;" x="0" y="271.5408854694273" dx="0em" dy="0.3em" fill="rgb(50, 49, 63)" stroke="none" stroke-width="1px">150</text><text style="text-anchor: end; visibility: inherit; font-family: &quot;Helvetica Neue&quot;, sans-serif; font-size: 12px; font-weight: 200;" x="0" y="238.32864786196777" dx="0em" dy="0.3em" fill="rgb(50, 49, 63)" stroke="none" stroke-width="1px">200</text><text style="text-anchor: end; visibility: inherit; font-family: &quot;Helvetica Neue&quot;, sans-serif; font-size: 12px; font-weight: 200;" x="0" y="205.11641025450822" dx="0em" dy="0.3em" fill="rgb(50, 49, 63)" stroke="none" stroke-width="1px">250</text><text style="text-anchor: end; visibility: inherit; font-family: &quot;Helvetica Neue&quot;, sans-serif; font-size: 12px; font-weight: 200;" x="0" y="171.90417264704865" dx="0em" dy="0.3em" fill="rgb(50, 49, 63)" stroke="none" stroke-width="1px">300</text><text style="text-anchor: end; visibility: inherit; font-family: &quot;Helvetica Neue&quot;, sans-serif; font-size: 12px; font-weight: 200;" x="0" y="138.69193503958914" dx="0em" dy="0.3em" fill="rgb(50, 49, 63)" stroke="none" stroke-width="1px">350</text><text style="text-anchor: end; visibility: inherit; font-family: &quot;Helvetica Neue&quot;, sans-serif; font-size: 12px; font-weight: 200;" x="0" y="105.47969743212963" dx="0em" dy="0.3em" fill="rgb(50, 49, 63)" stroke="none" stroke-width="1px">400</text><text style="text-anchor: end; visibility: inherit; font-family: &quot;Helvetica Neue&quot;, sans-serif; font-size: 12px; font-weight: 200;" x="0" y="72.26745982467008" dx="0em" dy="0.3em" fill="rgb(50, 49, 63)" stroke="none" stroke-width="1px">450</text><text style="text-anchor: end; visibility: inherit; font-family: &quot;Helvetica Neue&quot;, sans-serif; font-size: 12px; font-weight: 200;" x="0" y="39.055222217210485" dx="0em" dy="0.3em" fill="rgb(50, 49, 63)" stroke="none" stroke-width="1px">500</text><text style="text-anchor: end; visibility: hidden; font-family: &quot;Helvetica Neue&quot;, sans-serif; font-size: 12px; font-weight: 200;" x="0" y="5.842984609750943" dx="0em" dy="0.3em" fill="rgb(50, 49, 63)" stroke="none" stroke-width="1px">550</text></g><line x1="39.98800086975098" y1="0" x2="39.98800086975098" y2="378.60799980163574" fill="rgb(0, 0, 0)" stroke="rgb(204, 204, 204)" stroke-width="1px"></line></g></g><g transform="translate(39, 0)" clip-path="url(#clip_0)"><clipPath id="clip_0"><rect width="1072" height="378"></rect></clipPath><g><g><g><line x1="6.616619105831071" y1="0" x2="6.616619105831071" y2="378.60799980163574" fill="rgb(0, 0, 0)" stroke="rgb(60, 60, 60)" stroke-width="1px" opacity="0.25"></line><line x1="76.68339746625672" y1="0" x2="76.68339746625672" y2="378.60799980163574" fill="rgb(0, 0, 0)" stroke="rgb(60, 60, 60)" stroke-width="1px" opacity="0.25"></line><line x1="146.75017582668235" y1="0" x2="146.75017582668235" y2="378.60799980163574" fill="rgb(0, 0, 0)" stroke="rgb(60, 60, 60)" stroke-width="1px" opacity="0.25"></line><line x1="216.81695418710802" y1="0" x2="216.81695418710802" y2="378.60799980163574" fill="rgb(0, 0, 0)" stroke="rgb(60, 60, 60)" stroke-width="1px" opacity="0.25"></line><line x1="286.88373254753367" y1="0" x2="286.88373254753367" y2="378.60799980163574" fill="rgb(0, 0, 0)" stroke="rgb(60, 60, 60)" stroke-width="1px" opacity="0.25"></line><line x1="356.95051090795926" y1="0" x2="356.95051090795926" y2="378.60799980163574" fill="rgb(0, 0, 0)" stroke="rgb(60, 60, 60)" stroke-width="1px" opacity="0.25"></line><line x1="427.01728926838496" y1="0" x2="427.01728926838496" y2="378.60799980163574" fill="rgb(0, 0, 0)" stroke="rgb(60, 60, 60)" stroke-width="1px" opacity="0.25"></line><line x1="497.0840676288106" y1="0" x2="497.0840676288106" y2="378.60799980163574" fill="rgb(0, 0, 0)" stroke="rgb(60, 60, 60)" stroke-width="1px" opacity="0.25"></line><line x1="567.1508459892362" y1="0" x2="567.1508459892362" y2="378.60799980163574" fill="rgb(0, 0, 0)" stroke="rgb(60, 60, 60)" stroke-width="1px" opacity="0.25"></line><line x1="637.217624349662" y1="0" x2="637.217624349662" y2="378.60799980163574" fill="rgb(0, 0, 0)" stroke="rgb(60, 60, 60)" stroke-width="1px" opacity="0.25"></line><line x1="707.2844027100875" y1="0" x2="707.2844027100875" y2="378.60799980163574" fill="rgb(0, 0, 0)" stroke="rgb(60, 60, 60)" stroke-width="1px" opacity="0.25"></line><line x1="777.3511810705131" y1="0" x2="777.3511810705131" y2="378.60799980163574" fill="rgb(0, 0, 0)" stroke="rgb(60, 60, 60)" stroke-width="1px" opacity="0.25"></line><line x1="847.4179594309388" y1="0" x2="847.4179594309388" y2="378.60799980163574" fill="rgb(0, 0, 0)" stroke="rgb(60, 60, 60)" stroke-width="1px" opacity="0.25"></line><line x1="917.4847377913644" y1="0" x2="917.4847377913644" y2="378.60799980163574" fill="rgb(0, 0, 0)" stroke="rgb(60, 60, 60)" stroke-width="1px" opacity="0.25"></line><line x1="987.5515161517901" y1="0" x2="987.5515161517901" y2="378.60799980163574" fill="rgb(0, 0, 0)" stroke="rgb(60, 60, 60)" stroke-width="1px" opacity="0.25"></line><line x1="1057.6182945122157" y1="0" x2="1057.6182945122157" y2="378.60799980163574" fill="rgb(0, 0, 0)" stroke="rgb(60, 60, 60)" stroke-width="1px" opacity="0.25"></line></g><g><line x1="0" y1="371.1775982918059" x2="1072.611999130249" y2="371.1775982918059" fill="rgb(0, 0, 0)" stroke="rgb(60, 60, 60)" stroke-width="1px" opacity="0.25"></line><line x1="0" y1="337.96536068434636" x2="1072.611999130249" y2="337.96536068434636" fill="rgb(0, 0, 0)" stroke="rgb(60, 60, 60)" stroke-width="1px" opacity="0.25"></line><line x1="0" y1="304.7531230768868" x2="1072.611999130249" y2="304.7531230768868" fill="rgb(0, 0, 0)" stroke="rgb(60, 60, 60)" stroke-width="1px" opacity="0.25"></line><line x1="0" y1="271.5408854694273" x2="1072.611999130249" y2="271.5408854694273" fill="rgb(0, 0, 0)" stroke="rgb(60, 60, 60)" stroke-width="1px" opacity="0.25"></line><line x1="0" y1="238.32864786196777" x2="1072.611999130249" y2="238.32864786196777" fill="rgb(0, 0, 0)" stroke="rgb(60, 60, 60)" stroke-width="1px" opacity="0.25"></line><line x1="0" y1="205.11641025450822" x2="1072.611999130249" y2="205.11641025450822" fill="rgb(0, 0, 0)" stroke="rgb(60, 60, 60)" stroke-width="1px" opacity="0.25"></line><line x1="0" y1="171.90417264704865" x2="1072.611999130249" y2="171.90417264704865" fill="rgb(0, 0, 0)" stroke="rgb(60, 60, 60)" stroke-width="1px" opacity="0.25"></line><line x1="0" y1="138.69193503958914" x2="1072.611999130249" y2="138.69193503958914" fill="rgb(0, 0, 0)" stroke="rgb(60, 60, 60)" stroke-width="1px" opacity="0.25"></line><line x1="0" y1="105.47969743212963" x2="1072.611999130249" y2="105.47969743212963" fill="rgb(0, 0, 0)" stroke="rgb(60, 60, 60)" stroke-width="1px" opacity="0.25"></line><line x1="0" y1="72.26745982467008" x2="1072.611999130249" y2="72.26745982467008" fill="rgb(0, 0, 0)" stroke="rgb(60, 60, 60)" stroke-width="1px" opacity="0.25"></line><line x1="0" y1="39.055222217210485" x2="1072.611999130249" y2="39.055222217210485" fill="rgb(0, 0, 0)" stroke="rgb(60, 60, 60)" stroke-width="1px" opacity="0.25"></line><line x1="0" y1="5.842984609750943" x2="1072.611999130249" y2="5.842984609750943" fill="rgb(0, 0, 0)" stroke="rgb(60, 60, 60)" stroke-width="1px" opacity="0.25"></line></g></g></g><g><g><line x1="0" y1="371.1775982918059" x2="1072.611999130249" y2="371.1775982918059" fill="rgb(0, 0, 0)" stroke="rgb(153, 153, 153)" stroke-width="1.5px"></line></g></g><g><g><line x1="6.616619105831071" y1="0" x2="6.616619105831071" y2="378.60799980163574" fill="rgb(0, 0, 0)" stroke="rgb(153, 153, 153)" stroke-width="1.5px"></line></g></g><g><g><g><g><g><path style="fill: none;" stroke="rgb(0, 119, 187)" stroke-width="2px" d="M8.71862245664384,364.53515077031403L9.068956348445967,360.5496822574189L10.82062580745661,352.5787452316286L11.871627482862994,361.21392700956807L12.221961374665124,364.53515077031403L13.272963050071507,363.20666126601566L13.623296941873637,361.8781717617173L13.973630833675763,361.8781717617173L15.374966400884277,363.8709060181648L19.578973102509813,364.53515077031403L20.980308669718326,363.8709060181648L21.680976453322586,363.8709060181648L22.381644236926842,363.20666126601566L22.73197812872897,364.53515077031403L23.432645912333225,362.54241651386644L25.534649263145997,364.53515077031403L25.884983154948124,365.1993955224632L26.23531704675025,365.1993955224632L26.58565093855238,365.1993955224632L26.93598483035451,363.8709060181648L29.738655964771535,363.8709060181648L30.789657640177918,362.54241651386644L31.840659315584304,363.8709060181648L32.190993207386434,361.8781717617173L32.54132709918856,363.20666126601566L32.89166099099069,361.21392700956807L34.643330450001336,364.53515077031403L37.44600158441836,363.8709060181648L37.796335476220484,365.1993955224632L39.89833882703326,364.53515077031403L43.051343853252405,365.8636402746124L44.102345528658795,365.1993955224632L44.452679420460925,364.53515077031403L46.90501666307582,364.53515077031403L47.9560183384822,363.8709060181648L48.656686122086455,364.53515077031403L51.45935725650348,363.20666126601566L52.51035893190987,363.8709060181648L52.860692823712,365.8636402746124L56.013697849931155,364.53515077031403L56.71436563353541,365.8636402746124L57.06469952533754,364.53515077031403L57.41503341713967,364.53515077031403L59.86737065975456,365.8636402746124L61.619040118765206,365.1993955224632L62.31970790236946,365.1993955224632L62.67004179417159,365.1993955224632L64.0713773613801,363.8709060181648L65.82304682039074,363.8709060181648L66.17338071219287,365.1993955224632L67.22438238759926,365.1993955224632L69.32638573841201,365.1993955224632L69.67671963021415,365.1993955224632L70.37738741381841,363.8709060181648L71.4283890892248,365.1993955224632L72.12905687282905,363.20666126601566L72.47939076463118,365.1993955224632L73.18005854823544,365.8636402746124L73.88072633183968,365.8636402746124L74.23106022364182,364.53515077031403L77.03373135805884,364.53515077031403L79.83640249247587,364.53515077031403L80.18673638427799,364.53515077031403L80.53707027608013,364.53515077031403L81.93840584328865,365.1993955224632L85.44174476130992,365.8636402746124L85.79207865311204,365.1993955224632L86.4927464367163,364.53515077031403L87.89408200392482,365.1993955224632L88.9450836793312,365.8636402746124L89.29541757113334,364.53515077031403L89.64575146293546,364.53515077031403L90.69675313834185,365.1993955224632L94.90075983996739,363.8709060181648L97.00276319078016,364.53515077031403L98.05376486618654,364.53515077031403L98.7544326497908,364.53515077031403L99.10476654159292,365.8636402746124L99.80543432519718,363.8709060181648L101.20676989240569,364.53515077031403L102.60810545961421,364.53515077031403L103.30877324321847,365.1993955224632L105.06044270222911,364.53515077031403L109.9651171874589,364.53515077031403L112.06712053827167,365.1993955224632L112.41745443007379,365.1993955224632L113.81878999728231,364.53515077031403L114.16912388908445,364.53515077031403L115.57045945629295,364.53515077031403L115.92079334809509,364.53515077031403L116.62146113169935,365.8636402746124L117.67246280710572,363.8709060181648L119.42413226611636,365.1993955224632L119.7744661579185,364.53515077031403L120.12480004972062,365.1993955224632L121.87646950873126,365.1993955224632L122.2268034005334,365.8636402746124L122.57713729233551,364.53515077031403L123.6281389677419,365.1993955224632L126.78114399396107,365.1993955224632L127.48181177756533,365.1993955224632L129.5838151283781,364.53515077031403L131.68581847919086,365.8636402746124L132.03615237099297,365.1993955224632L134.13815572180576,364.53515077031403L135.18915739721214,364.53515077031403L136.59049296442063,364.53515077031403L137.99182853162915,363.8709060181648L138.6924963152334,365.1993955224632L140.09383188244192,365.1993955224632L140.44416577424406,365.1993955224632L140.7944996660462,364.53515077031403L141.49516744965044,364.53515077031403L143.2468369086611,364.53515077031403L144.99850636767172,363.8709060181648L145.34884025947386,365.1993955224632L145.699174151276,365.1993955224632L151.30451642011002,365.1993955224632L153.75685366272495,364.53515077031403L155.85885701353772,365.1993955224632L156.20919090533985,363.8709060181648L156.9098586889441,362.54241651386644L157.61052647254832,365.1993955224632L159.01186203975683,365.1993955224632L162.164867065976,365.1993955224632L162.86553484958026,364.53515077031403L163.2158687413824,365.1993955224632L164.26687041678878,365.8636402746124L166.36887376760157,365.8636402746124L169.17154490201855,364.53515077031403L169.5218787938207,365.1993955224632L170.57288046922707,365.1993955224632L170.9232143610292,365.1993955224632L174.07621938724836,364.53515077031403L174.4265532790505,365.1993955224632L178.28022608887392,364.53515077031403L179.33122776428027,365.8636402746124L179.6815616560824,365.1993955224632L180.38222943968665,364.53515077031403L181.08289722329093,364.53515077031403L186.33790560032287,365.1993955224632L188.0895750593335,363.8709060181648L188.79024284293777,365.8636402746124L189.84124451834413,363.20666126601566L190.54191230194837,364.53515077031403L192.29358176095903,364.53515077031403L192.64391565276117,365.1993955224632L194.74591900357393,365.1993955224632L195.4465867871782,364.53515077031403L195.7969206789803,365.1993955224632L196.4975884625846,363.8709060181648L196.8479223543867,363.20666126601566L197.8989240297931,364.53515077031403L198.59959181339735,365.1993955224632L200.351261272408,365.1993955224632L200.7015951642101,365.1993955224632L203.85460019042927,364.53515077031403L204.5552679740335,364.53515077031403L205.95660354124203,365.1993955224632L206.30693743304417,362.54241651386644L206.6572713248463,365.8636402746124L208.05860689205483,365.1993955224632L209.45994245926335,363.8709060181648L209.81027635106545,364.53515077031403L210.8612780264718,363.8709060181648L211.56194581007608,364.53515077031403L211.91227970187822,363.20666126601566L212.26261359368033,365.1993955224632L212.61294748548247,364.53515077031403L212.9632813772846,364.53515077031403L213.3136152690867,364.53515077031403L214.01428305269098,363.8709060181648L214.36461694449312,365.1993955224632L216.11628640350375,363.20666126601566L216.4666202953059,363.8709060181648L218.21828975431654,364.53515077031403L219.26929142972293,365.8636402746124L219.96995921332717,365.1993955224632L222.07196256413994,363.8709060181648L222.77263034774418,364.53515077031403L224.52429980675484,362.54241651386644L225.92563537396333,361.8781717617173L226.27596926576547,362.54241651386644L226.97663704936974,363.8709060181648L231.18064375099527,359.8854375052697L233.63298099361015,364.53515077031403L233.98331488541228,365.1993955224632L234.68398266901656,363.20666126601566L235.03431656081867,361.21392700956807L235.3846504526208,362.54241651386644L235.73498434442294,361.8781717617173L236.4356521280272,360.5496822574189L237.48665380343357,361.21392700956807L238.8879893706421,358.5569480009713L239.23832326244423,359.2211927531205L240.63965882965275,357.8927032488221L241.69066050505913,365.1993955224632L243.09199607226765,363.20666126601566L244.142997747674,358.5569480009713L244.49333163947614,362.54241651386644L244.84366553127828,358.5569480009713L245.19399942308038,359.8854375052697L245.54433331488252,354.57147948807614L246.24500109848677,353.24298998377776L246.5953349902889,356.5642137445237L246.94566888209104,357.22845849667294L247.99667055749742,356.5642137445237L248.34700444929956,353.24298998377776L248.6973383411017,361.21392700956807L249.39800612470594,353.907234735927L250.0986739083102,359.2211927531205L250.44900780011233,355.89996899237457L253.25167893452937,360.5496822574189L254.30268060993572,357.8927032488221L255.70401617714424,357.22845849667294L256.7550178525506,359.2211927531205L257.4556856361549,361.8781717617173L258.15635341975917,355.23572424022535L259.55768898696766,359.2211927531205L260.95902455417615,361.21392700956807L262.01002622958254,361.8781717617173L262.3603601213847,357.8927032488221L262.7106940131868,361.21392700956807L263.0610279049889,356.5642137445237L265.1630312558017,355.89996899237457L267.2650346066145,359.8854375052697L267.9657023902187,353.907234735927L268.3160362820209,360.5496822574189L269.7173718492293,360.5496822574189L270.76837352463576,363.8709060181648L271.11870741643787,363.8709060181648L272.16970909184425,357.22845849667294L272.52004298364636,359.2211927531205L272.8703768754485,360.5496822574189L273.57104465905275,361.8781717617173L274.271712442657,359.8854375052697L276.3737157934698,360.5496822574189L277.42471746887617,358.5569480009713L277.77505136067833,361.8781717617173L278.8260530360847,359.2211927531205L279.1763869278868,361.8781717617173L279.526720819689,357.8927032488221L280.2273886032932,361.21392700956807L280.5777224950954,359.2211927531205L282.67972584590814,357.8927032488221L284.08106141311663,361.21392700956807L284.4313953049188,359.8854375052697L285.132063088523,361.21392700956807L285.8327308721273,358.5569480009713L286.53339865573156,357.22845849667294L287.23406643933583,357.22845849667294L287.58440033113794,361.21392700956807L287.93473422294005,356.5642137445237L288.2850681147422,360.5496822574189L289.3360697901486,358.5569480009713L290.0367375737528,357.8927032488221L290.7374053573571,355.89996899237457L291.7884070327634,360.5496822574189L292.4890748163677,358.5569480009713L292.8394087081698,359.8854375052697L293.18974259997196,359.2211927531205L295.29174595078473,355.23572424022535L295.64207984258684,356.5642137445237L296.3427476261911,356.5642137445237L297.3937493015975,354.57147948807614L298.795084868806,357.8927032488221L299.8460865442124,357.8927032488221L300.8970882196188,351.2502557273302L301.2474221114209,354.57147948807614L301.9480898950252,353.907234735927L302.6487576786294,351.9145004794794L303.3494254622337,351.9145004794794L305.10109492124434,347.92903196658426L306.1520965966507,353.907234735927L306.852764380255,352.5787452316286L312.1077727572869,284.82578051241114L313.50910832449546,276.1905987344717L314.2097761080996,280.84031199951596L314.5601099999018,267.55541695653216L315.9614455671103,269.54815121297975L316.66211335071455,267.55541695653216L317.01244724251666,281.5045567516652L318.06344891792304,280.84031199951596L318.7641167015273,278.8475777430684L319.4647844851316,280.1760672473668L320.51578616053797,293.4609622903506L321.21645394414224,288.1470042731571L321.56678783594435,275.52635398232246L322.61778951135074,280.1760672473668L324.0191250785592,278.8475777430684L325.4204606457678,287.4827595210079L327.87279788838265,276.85484348662084L328.2231317801848,278.1833329909192L328.5734656719869,282.1688015038144L328.9237995637891,289.4754937774554L329.6244673473933,290.13973852960464L330.6754690227997,283.4972910081127L331.02580291460185,285.4900252645603L331.37613680640396,282.1688015038144L332.42713848181035,288.1470042731571L332.7774723736125,282.1688015038144L333.1278062654146,291.468228033903L333.4781401572167,286.8185147688587L336.2808112916337,290.80398328175386L336.6311451834359,286.1542700167095L337.68214685884226,269.54815121297975L340.13448410145713,270.8766407172781L341.1854857768635,277.51908823877L343.98815691128056,283.4972910081127L344.33849080308266,278.1833329909192L345.03915858668694,248.95656389635482L345.3894924784891,256.9275009221451L345.7398263702912,264.23419319578625L346.7908280456976,276.85484348662084L347.1411619374997,289.4754937774554L347.841829721104,314.0525496069755L348.54249750470825,250.2850534006532L350.2941669637189,307.41010208548363L350.644500855521,207.77338926310497L352.0458364227295,311.39557059837875L352.3961703145317,312.72406010267713L352.7465042063338,313.38830485482634L353.09683809813595,320.69499712846743L354.14783977354233,307.41010208548363L354.49817366534444,300.7676545639917L354.84850755714655,310.0670810940804L355.8995092325529,289.4754937774554L356.2498431243551,285.4900252645603L359.4028481505742,325.3447103935118L360.8041837177827,315.3810391112739L361.50485150138695,322.0234866327658L362.2055192849912,314.7167943591247L362.55585317679333,328.66593415425774L363.6068548521997,300.10340981184254L364.6578565276061,306.7458573333344L365.00819041940827,315.3810391112739L365.3585243112104,306.7458573333344L365.70885820301254,321.35924188061665L366.7598598784189,315.3810391112739L369.56253101283596,306.08161258118525L370.2631987964402,335.3083816757496L370.96386658004445,329.3301789064069L371.6645343636487,339.2938501886448L372.01486825545084,312.05981535052797L373.0658699308572,322.0234866327658L373.7665377144615,294.789451794649L374.46720549806577,302.7603888204393L376.21887495707637,324.68046564136256L378.67121219969124,301.4318993161409L379.02154609149335,328.0016894021085L380.07254776689973,335.3083816757496L380.773215550504,334.64413692360046L382.87521890131677,326.00895514566093L383.22555279311894,331.3229131628545L383.92622057672315,344.6078082058383L384.6268883603274,336.636871180048L386.0282239275359,341.95082919724155L387.42955949474447,339.2938501886448L388.13022727834874,335.3083816757496L389.88189673735934,337.3011159321972L390.2322306291615,333.97989217145124L390.5825645209636,335.97262642789883L393.38523565538065,331.98715791500365L393.73556954718276,331.3229131628545L395.8375728979956,344.6078082058383L397.2389084652041,339.2938501886448L397.5892423570062,331.3229131628545L397.93957624880835,329.9944236585561L401.09258127502744,335.3083816757496L401.7932490586317,333.97989217145124L402.8442507340381,331.3229131628545L404.94625408485086,329.9944236585561L405.296587976653,310.0670810940804L406.6979235438615,306.08161258118525L407.7489252192679,305.41736782903604L408.09925911107,312.72406010267713L408.4495930028722,323.3519761370642L409.50059467827856,295.45369654679814L413.354267488102,270.2123959651289L414.40526916350836,266.2269274522338L415.45627083891475,240.98562687056452L415.80660473071686,299.4391650596933L416.156938622519,296.7821860510966L417.2079402979254,266.891172204383L417.5582741897275,255.59901141784673L417.9086080815296,274.19786447802403L423.16361645856153,331.98715791500365L424.2146181339679,359.8854375052697L424.9152859175722,343.2793187015399L425.2656198093743,330.6586684107053L425.9662875929786,347.26478721443505L426.3166214847807,308.0743468376328L427.71795705198923,327.33744464995937L428.7689587273956,281.5045567516652L429.1192926191977,360.5496822574189L429.819960402802,312.72406010267713L430.5206281864062,352.5787452316286L431.2212959700105,360.5496822574189L431.92196375361476,342.6150739493907L432.97296542902114,341.95082919724155L433.6736332126254,355.89996899237457L434.37430099622964,314.0525496069755L435.0749687798339,336.636871180048L435.7756365634382,356.5642137445237L436.47630434704246,355.23572424022535L439.9796432650637,363.8709060181648L441.38097883227226,344.6078082058383L442.7823143994807,333.3156474193021L443.1326482912828,360.5496822574189L443.48298218308497,345.93629771013667L444.18364996668925,361.8781717617173L445.2346516420956,363.20666126601566L446.285653317502,355.23572424022535L446.9863211011062,362.54241651386644L448.0373227765126,344.6078082058383L450.13932612732543,337.96536068434636L450.83999391092965,355.89996899237457L451.5406616945339,349.92176622303185L451.89099558633603,353.907234735927L452.9419972617425,352.5787452316286L453.2923311535446,351.2502557273302L453.6426650453467,337.96536068434636L454.6936667207531,351.2502557273302L457.4963378551701,353.24298998377776L459.24800731418077,359.8854375052697L459.94867509778504,361.8781717617173L462.4010123403999,361.8781717617173L463.80234790760846,314.0525496069755L464.1526817994105,317.37377336772147L464.5030156912126,321.35924188061665L464.8533495830148,267.55541695653216L466.95535293382756,290.13973852960464L468.00635460923394,304.7531230768868L470.45869185184887,288.81124902530627L471.1593596354531,287.4827595210079L472.21036131085947,280.1760672473668L472.56069520266163,279.5118224952176L473.611696878068,286.1542700167095L473.9620307698701,289.4754937774554L475.7137002288808,282.83304625596355L476.0640341206829,274.86210923017325L476.41436801248506,252.94203240924998L477.46536968789144,361.21392700956807L478.5163713632978,264.8984379479354L478.86670525509993,362.54241651386644L479.2170391469021,270.2123959651289L479.5673730387042,278.1833329909192L479.9177069305063,274.19786447802403L482.01971028131913,307.41010208548363L484.1217136321319,301.4318993161409L484.472047523934,249.620808648504L486.2237169829446,237.66440310981858L487.6250525501531,304.7531230768868L488.3257203337574,308.0743468376328L490.07738979276803,245.63534013560886L491.4787253599765,247.62807439205642L493.93106260259145,246.96382963990723L494.6317303861957,248.2923191442056L495.6827320616021,240.98562687056452L496.3833998452063,247.62807439205642L496.7337337370085,252.27778765710076L498.135069304217,240.32138211841533L498.48540319601915,306.08161258118525L499.18607097962337,248.2923191442056L499.53640487142553,326.00895514566093L500.5874065468319,249.620808648504L506.5430827074681,357.22845849667294L506.89341659927015,362.54241651386644L507.2437504910723,288.1470042731571L507.5940843828744,296.7821860510966L508.9954199500829,308.0743468376328L510.04642162548936,154.63380909116972L511.44775719269785,318.70226287201984L511.79809108449996,360.5496822574189L512.1484249763022,361.8781717617173L513.5497605435106,39.055222217210485L513.9000944353128,361.8781717617173L514.250428327115,39.055222217210485L514.9510961107192,39.055222217210485L515.6517638943234,158.61927760406488L516.3524316779277,158.61927760406488L517.0530994615319,159.94776710836325L519.8557705959489,39.055222217210485L521.6074400549595,76.91717308971437L521.9577739467617,229.69346608402827L525.1107789729808,58.98256478168622L525.461112864783,231.02195558832665L529.3147856746064,39.055222217210485L531.0664551336171,39.055222217210485L532.4677907008256,39.055222217210485L532.8181245926277,39.055222217210485L533.869126268034,39.055222217210485L534.5697940516384,39.055222217210485L534.9201279434404,145.33438256108104L535.2704618352426,194.48849422012117L537.7227990778575,362.54241651386644L538.0731329696596,135.37071127884317L538.4234668614617,179.875109672839L538.7738007532639,153.30531958687135L539.8248024286703,353.907234735927L540.5254702122745,288.1470042731571L540.8758041040767,289.4754937774554L541.2261379958787,191.8315152115244L544.0288091302958,270.8766407172781L545.7804785893064,39.055222217210485L546.1308124811086,39.055222217210485L547.181814156515,39.055222217210485L549.6341513991299,39.055222217210485L550.3348191827341,39.055222217210485L553.8381581007554,39.055222217210485L555.589827559766,39.055222217210485L555.9401614515682,39.055222217210485L556.6408292351724,39.055222217210485L556.9911631269746,39.055222217210485L559.0931664777873,39.055222217210485L559.4435003695895,39.055222217210485L561.5455037204022,39.055222217210485L561.8958376122043,39.055222217210485L565.0488426384235,39.055222217210485L566.4501782056319,39.055222217210485L567.5011798810383,39.055222217210485L568.9025154482468,39.055222217210485L572.055520474466,39.055222217210485L572.7561882580703,39.055222217210485L573.8071899334767,39.055222217210485L574.5078577170809,39.055222217210485L574.8581916088831,39.055222217210485L576.6098610678937,39.055222217210485L577.6608627433001,39.055222217210485L579.4125322023108,39.055222217210485L580.113199985915,39.055222217210485L581.5145355531236,39.055222217210485L582.2152033367278,39.055222217210485L582.5655372285299,39.055222217210485L582.915871120332,39.055222217210485L583.6165389039363,39.055222217210485L584.3172066875405,39.055222217210485L586.0688761465511,39.055222217210485L587.1198778219576,39.055222217210485L587.8205456055618,39.055222217210485L588.8715472809682,39.055222217210485L589.9225489563746,39.055222217210485L591.3238845235832,39.055222217210485L592.3748861989895,39.055222217210485L593.776221766198,39.055222217210485L594.1265556580001,39.055222217210485L594.4768895498023,39.055222217210485L596.9292267924172,39.055222217210485L597.6298945760215,39.055222217210485L598.3305623596257,39.055222217210485L599.381564035032,39.055222217210485L599.7318979268342,39.055222217210485L601.833901277647,39.055222217210485L602.5345690612512,39.055222217210485L603.9359046284596,39.055222217210485L605.3372401956682,39.055222217210485L606.3882418710746,39.055222217210485L606.7385757628767,39.055222217210485L607.0889096546788,39.055222217210485L607.439243546481,39.055222217210485L608.1399113300852,39.055222217210485L609.1909130054916,39.055222217210485L611.6432502481065,39.055222217210485L611.9935841399086,39.055222217210485L613.7452535989192,39.055222217210485L614.4459213825236,39.055222217210485L614.7962552743256,39.055222217210485L615.1465891661278,39.055222217210485L618.299594192347,39.055222217210485L619.7009297595555,39.055222217210485L620.0512636513577,39.055222217210485L620.4015975431597,39.055222217210485L620.7519314349619,39.055222217210485L621.4525992185661,39.055222217210485L623.2042686775768,39.055222217210485L623.5546025693789,39.055222217210485L624.2552703529832,39.055222217210485L624.6056042447852,39.055222217210485L624.9559381365874,39.055222217210485L626.0069398119938,39.055222217210485L626.707607595598,39.055222217210485L627.0579414874002,39.055222217210485L627.4082753792023,39.055222217210485L630.5612804054215,39.055222217210485L631.6122820808279,39.055222217210485L634.765287107047,39.055222217210485L636.8672904578598,39.055222217210485L637.5679582414641,39.055222217210485L639.6699615922769,39.055222217210485L640.0202954840789,39.055222217210485L640.3706293758811,39.055222217210485L641.0712971594853,39.055222217210485L643.1733005102981,39.055222217210485L645.275303861111,39.055222217210485L645.625637752913,39.055222217210485L648.42830888733,39.055222217210485L648.778642779132,39.055222217210485L649.8296444545384,39.055222217210485L650.8806461299448,39.055222217210485L652.2819816971534,39.055222217210485L652.9826494807577,39.055222217210485L654.3839850479661,39.055222217210485L656.4859883987789,39.055222217210485L657.8873239659874,39.055222217210485L658.2376578577896,39.055222217210485L659.288659533196,39.055222217210485L659.9893273168002,39.055222217210485L661.0403289922066,39.055222217210485L662.4416645594151,39.055222217210485L663.1423323430193,39.055222217210485L663.8430001266237,39.055222217210485L664.1933340184257,39.055222217210485L664.5436679102279,39.055222217210485L666.9960051528428,39.055222217210485L667.696672936447,39.055222217210485L668.0470068282492,39.055222217210485L670.149010179062,39.055222217210485L670.4993440708641,39.055222217210485L670.8496779626662,39.055222217210485L671.5503457462705,39.055222217210485L672.6013474216769,39.055222217210485L676.8053541233024,39.055222217210485L679.9583591495216,39.055222217210485L681.3596947167301,39.055222217210485L683.1113641757407,39.055222217210485L683.4616980675429,39.055222217210485L685.2133675265535,39.055222217210485L685.5637014183557,39.055222217210485L685.9140353101578,39.055222217210485L687.3153708773663,39.055222217210485L687.6657047691684,39.055222217210485L689.7677081199811,39.055222217210485L690.4683759035853,39.055222217210485L691.1690436871896,39.055222217210485L691.5193775789917,39.055222217210485L691.8697114707938,39.055222217210485L692.5703792543981,39.055222217210485L692.9207131462002,39.055222217210485L694.6723826052109,39.055222217210485L695.7233842806173,39.055222217210485L696.4240520642215,39.055222217210485L697.4750537396279,39.055222217210485L698.5260554150343,39.055222217210485L699.5770570904407,39.055222217210485L700.2777248740449,39.055222217210485L702.3797282248578,39.055222217210485L702.7300621166598,39.055222217210485L703.4307299002642,39.055222217210485L704.1313976838684,39.055222217210485L707.6347366018897,39.055222217210485L707.9850704936918,39.055222217210485L708.3354043854939,39.055222217210485L708.6857382772961,39.055222217210485L713.5904127625258,39.055222217210485L714.9917483297344,39.055222217210485L716.3930838969429,39.055222217210485L716.743417788745,39.055222217210485L717.7944194641514,39.055222217210485L718.1447533559534,39.055222217210485L719.1957550313599,39.055222217210485L719.8964228149641,39.055222217210485L720.5970905985683,39.055222217210485L722.348760057579,39.055222217210485L723.3997617329854,39.055222217210485L724.1004295165897,39.055222217210485L724.4507634083918,39.055222217210485L725.151431191996,39.055222217210485L726.2024328674024,39.055222217210485L727.2534345428088,39.055222217210485L727.9541023264131,39.055222217210485L729.0051040018195,39.055222217210485L730.0561056772259,39.055222217210485L730.406439569028,39.055222217210485L731.4574412444342,39.055222217210485L732.5084429198406,39.055222217210485L735.3111140542577,39.055222217210485L735.6614479460599,39.055222217210485L736.3621157296641,39.055222217210485L738.1137851886747,39.055222217210485L739.8654546476854,39.055222217210485L740.2157885394874,39.055222217210485L740.5661224312896,39.055222217210485L741.2667902148938,39.055222217210485L741.617124106696,39.055222217210485L742.6681257821024,39.055222217210485L743.3687935657066,39.055222217210485L744.4197952411131,39.055222217210485L744.7701291329151,39.055222217210485L746.1714647001237,39.055222217210485L747.9231341591343,39.055222217210485L748.6238019427386,39.055222217210485L750.7258052935514,39.055222217210485L751.0761391853534,39.055222217210485L751.4264730771556,39.055222217210485L751.7768069689578,39.055222217210485L752.1271408607599,39.055222217210485L753.1781425361663,39.055222217210485L753.8788103197705,39.055222217210485L754.9298119951769,39.055222217210485L755.2801458869791,39.055222217210485L756.3311475623855,39.055222217210485L757.0318153459897,39.055222217210485L757.7324831295939,39.055222217210485L758.0828170213961,39.055222217210485L758.4331509131982,39.055222217210485L759.8344864804067,39.055222217210485L761.2358220476152,39.055222217210485L761.5861559394174,39.055222217210485L761.9364898312195,39.055222217210485L763.337825398428,39.055222217210485L763.6881592902301,39.055222217210485L764.3888270738344,39.055222217210485L764.7391609656365,39.055222217210485L765.4398287492407,39.055222217210485L765.7901626410429,39.055222217210485L766.1404965328451,39.055222217210485L766.8411643164493,39.055222217210485L767.1914982082515,39.055222217210485L767.8921659918557,39.055222217210485L768.9431676672621,39.055222217210485L769.6438354508664,39.055222217210485L769.9941693426684,39.055222217210485L772.0961726934812,39.055222217210485L772.4465065852834,39.055222217210485L772.7968404770855,39.055222217210485L774.1981760442939,39.055222217210485L774.8988438278982,39.055222217210485L775.5995116115024,39.055222217210485L777.000847178711,39.055222217210485L779.8035183131279,39.055222217210485L780.8545199885343,39.055222217210485L781.5551877721387,39.055222217210485L782.2558555557429,39.055222217210485L782.606189447545,39.055222217210485L784.0075250147535,39.055222217210485L784.7081927983578,39.055222217210485L785.05852669016,39.055222217210485L785.408860581962,39.055222217210485L786.4598622573684,39.055222217210485L786.8101961491706,39.055222217210485L787.861197824577,39.055222217210485L788.2115317163791,39.055222217210485L789.2625333917855,39.055222217210485L790.3135350671919,39.055222217210485L791.7148706344003,39.055222217210485L793.8168739852132,39.055222217210485L794.1672078770152,39.055222217210485L795.2182095524216,39.055222217210485L795.5685434442238,39.055222217210485L796.269211227828,39.055222217210485L796.9698790114323,39.055222217210485L797.3202129032344,39.055222217210485L798.0208806868387,39.055222217210485L798.3712145786408,39.055222217210485L799.0718823622451,39.055222217210485L799.4222162540472,39.055222217210485L799.7725501458493,39.055222217210485L800.1228840376515,39.055222217210485L800.8235518212557,39.055222217210485L801.52421960486,39.055222217210485L801.8745534966621,39.055222217210485L803.2758890638706,39.055222217210485L803.6262229556728,39.055222217210485L804.326890739277,39.055222217210485L805.3778924146834,39.055222217210485L806.0785601982876,39.055222217210485L807.129561873694,39.055222217210485L809.2315652245068,39.055222217210485L811.3335685753196,39.055222217210485L813.0852380343302,39.055222217210485L814.1362397097366,39.055222217210485L815.8879091687472,39.055222217210485L816.5885769523516,39.055222217210485L817.6395786277579,39.055222217210485L819.7415819785706,39.055222217210485L820.0919158703728,39.055222217210485L820.792583653977,39.055222217210485L821.8435853293834,39.055222217210485L822.8945870047897,39.055222217210485L823.2449208965919,39.055222217210485L823.595254788394,39.055222217210485L826.7482598146132,39.055222217210485L827.0985937064153,39.055222217210485L827.4489275982174,39.055222217210485L827.7992614900196,39.055222217210485L828.4999292736238,39.055222217210485L829.200597057228,39.055222217210485L830.2515987326344,39.055222217210485L832.0032681916451,39.055222217210485L832.7039359752494,39.055222217210485L833.0542698670515,39.055222217210485L833.4046037588536,39.055222217210485L833.7549376506557,39.055222217210485L836.5576087850728,39.055222217210485L839.710613811292,39.055222217210485L841.4622832703026,39.055222217210485L844.2649544047197,39.055222217210485L844.6152882965217,39.055222217210485L845.6662899719281,39.055222217210485L847.0676255391367,39.055222217210485L848.4689611063452,39.055222217210485L849.8702966735536,39.055222217210485L850.92129834896,39.055222217210485L851.9723000243665,39.055222217210485L852.3226339161686,39.055222217210485L852.6729678079707,39.055222217210485L853.373635591575,39.055222217210485L856.176306725992,39.055222217210485L856.8769745095963,39.055222217210485L857.5776422932005,39.055222217210485L858.2783100768048,39.055222217210485L860.0299795358153,39.055222217210485L861.781648994826,39.055222217210485L864.584320129243,39.055222217210485L864.9346540210452,39.055222217210485L865.2849879128472,39.055222217210485L866.6863234800558,39.055222217210485L867.7373251554621,39.055222217210485L868.7883268308685,39.055222217210485L871.5909979652856,39.055222217210485L872.2916657488898,39.055222217210485L873.6930013160984,39.055222217210485L874.0433352079004,39.055222217210485L874.3936690997026,39.055222217210485L874.7440029915048,39.055222217210485L875.444670775109,39.055222217210485L876.1453385587133,39.055222217210485L877.1963402341197,39.055222217210485L878.2473419095261,39.055222217210485L878.5976758013281,39.055222217210485L879.2983435849325,39.055222217210485L879.9990113685367,39.055222217210485L882.8016825029537,39.055222217210485L884.2030180701622,39.055222217210485L884.9036858537665,39.055222217210485L885.6043536373708,39.055222217210485L886.305021420975,39.055222217210485L886.6553553127771,39.055222217210485L887.3560230963814,39.055222217210485L888.4070247717877,39.055222217210485L889.1076925553921,39.055222217210485L890.1586942307985,39.055222217210485L890.8593620144027,39.055222217210485L891.9103636898091,39.055222217210485L892.2606975816112,39.055222217210485L892.6110314734134,39.055222217210485L896.1143703914346,39.055222217210485L896.4647042832368,39.055222217210485L897.165372066841,39.055222217210485L897.5157059586431,39.055222217210485L897.8660398504453,39.055222217210485L898.2163737422474,39.055222217210485L899.2673754176537,39.055222217210485L899.6177093094559,39.055222217210485L900.3183770930601,39.055222217210485L901.3693787684666,39.055222217210485L902.0700465520708,39.055222217210485L902.770714335675,39.055222217210485L903.4713821192794,39.055222217210485L906.6243871454984,39.055222217210485L906.9747210373005,39.055222217210485L908.0257227127069,39.055222217210485L908.7263904963112,39.055222217210485L909.4270582799154,39.055222217210485L910.1277260635197,39.055222217210485L910.828393847124,39.055222217210485L911.1787277389261,39.055222217210485L912.2297294143325,39.055222217210485L914.3317327651453,39.055222217210485L914.6820666569473,39.055222217210485L916.0834022241559,39.055222217210485L917.1344038995622,39.055222217210485L918.5357394667708,39.055222217210485L919.236407250375,39.055222217210485L919.5867411421772,39.055222217210485L920.9880767093857,39.055222217210485L922.3894122765942,39.055222217210485L923.4404139520005,39.055222217210485L923.7907478438027,39.055222217210485L924.1410817356049,39.055222217210485L924.4914156274069,39.055222217210485L925.5424173028134,39.055222217210485L926.9437528700219,39.055222217210485L927.6444206536262,39.055222217210485L929.0457562208346,39.055222217210485L929.3960901126368,39.055222217210485L930.096757896241,39.055222217210485L930.4470917880432,39.055222217210485L932.1987612470538,39.055222217210485L933.2497629224601,39.055222217210485L933.6000968142623,39.055222217210485L934.3007645978666,39.055222217210485L935.0014323814709,39.055222217210485L935.7021001650751,39.055222217210485L936.0524340568772,39.055222217210485L937.1034357322836,39.055222217210485L937.4537696240858,39.055222217210485L938.15443740769,39.055222217210485L939.2054390830964,39.055222217210485L939.5557729748986,39.055222217210485L940.2564407585028,39.055222217210485L942.3584441093155,39.055222217210485L943.4094457847219,39.055222217210485L944.4604474601283,39.055222217210485L944.8107813519305,39.055222217210485L946.212116919139,39.055222217210485L948.3141202699517,39.055222217210485L950.7664575125666,39.055222217210485L953.2187947551814,39.055222217210485L954.62013032239,39.055222217210485L955.3207981059942,39.055222217210485L957.0724675650049,39.055222217210485L958.1234692404113,39.055222217210485L958.8241370240155,39.055222217210485L960.225472591224,39.055222217210485L961.9771420502346,39.055222217210485L963.3784776174432,39.055222217210485L964.7798131846517,39.055222217210485L965.8308148600581,39.055222217210485L968.9838198862773,39.055222217210485L971.08582323709,39.055222217210485L974.5891621551114,39.055222217210485L974.9394960469135,39.055222217210485L975.2898299387156,39.055222217210485L976.340831614122,39.055222217210485L976.6911655059241,39.055222217210485L978.4428349649347,39.055222217210485L979.143502748539,39.055222217210485L980.5448383157475,39.055222217210485L980.8951722075496,39.055222217210485L981.2455060993518,39.055222217210485L981.5958399911539,39.055222217210485L981.946173882956,39.055222217210485L982.2965077747582,39.055222217210485L982.6468416665602,39.055222217210485L985.4495128009773,39.055222217210485L986.5005144763837,39.055222217210485L988.9528517189987,39.055222217210485L990.354187286207,39.055222217210485L993.5071923124262,39.055222217210485L993.8575262042283,39.055222217210485L994.2078600960305,39.055222217210485L994.5581939878326,39.055222217210485L997.0105312304474,39.055222217210485L998.7622006894582,39.055222217210485L999.8132023648645,39.055222217210485L1000.5138701484688,39.055222217210485L1000.8642040402709,39.055222217210485L1001.2145379320731,39.055222217210485L1001.5648718238751,39.055222217210485L1002.9662073910837,39.055222217210485L1005.7688785255007,39.055222217210485L1006.1192124173028,39.055222217210485L1007.1702140927092,39.055222217210485L1007.8708818763134,39.055222217210485L1008.2212157681156,39.055222217210485L1008.9218835517199,39.055222217210485L1010.6735530107305,39.055222217210485L1012.4252224697411,39.055222217210485L1013.1258902533455,39.055222217210485L1013.8265580369497,39.055222217210485L1014.8775597123561,39.055222217210485L1015.5782274959603,39.055222217210485L1017.329896954971,39.055222217210485L1018.3808986303774,39.055222217210485L1019.4319003057838,39.055222217210485L1022.9352392238051,39.055222217210485L1023.2855731156071,39.055222217210485L1024.3365747910134,39.055222217210485L1025.38757646642,39.055222217210485L1026.0882442500242,39.055222217210485L1026.4385781418264,39.055222217210485L1028.5405814926391,39.055222217210485L1029.5915831680454,39.055222217210485L1029.9419170598476,39.055222217210485L1030.642584843452,39.055222217210485L1031.6935865188582,39.055222217210485L1032.3942543024625,39.055222217210485L1033.0949220860668,39.055222217210485L1034.1459237614731,39.055222217210485L1034.4962576532753,39.055222217210485L1034.8465915450774,39.055222217210485L1037.2989287876924,39.055222217210485L1039.050598246703,39.055222217210485L1039.751266030307,39.055222217210485L1040.1015999221092,39.055222217210485L1040.4519338139114,39.055222217210485L1041.85326938112,39.055222217210485L1042.203603272922,39.055222217210485L1043.9552727319328,39.055222217210485L1044.3056066237348,39.055222217210485L1045.7069421909434,39.055222217210485L1046.7579438663497,39.055222217210485L1047.1082777581519,39.055222217210485L1047.8089455417562,39.055222217210485L1050.2612827843711,39.055222217210485L1050.6116166761733,39.055222217210485L1052.363286135184,39.055222217210485L1056.5672928368092,39.055222217210485L1057.2679606204135,39.055222217210485" fill="none"></path></g></g></g></g></g></g><g transform="translate(39, 378)" clip-path="url(#clip_1)"><clipPath id="clip_1"><rect width="1072" height="21"></rect></clipPath><g><g><line x1="6.616619105831071" y1="0" x2="6.616619105831071" y2="5" style="visibility: inherit;" fill="rgb(0, 0, 0)" stroke="rgb(204, 204, 204)" stroke-width="1px"></line><line x1="76.68339746625672" y1="0" x2="76.68339746625672" y2="5" style="visibility: inherit;" fill="rgb(0, 0, 0)" stroke="rgb(204, 204, 204)" stroke-width="1px"></line><line x1="146.75017582668235" y1="0" x2="146.75017582668235" y2="5" style="visibility: inherit;" fill="rgb(0, 0, 0)" stroke="rgb(204, 204, 204)" stroke-width="1px"></line><line x1="216.81695418710802" y1="0" x2="216.81695418710802" y2="5" style="visibility: inherit;" fill="rgb(0, 0, 0)" stroke="rgb(204, 204, 204)" stroke-width="1px"></line><line x1="286.88373254753367" y1="0" x2="286.88373254753367" y2="5" style="visibility: inherit;" fill="rgb(0, 0, 0)" stroke="rgb(204, 204, 204)" stroke-width="1px"></line><line x1="356.95051090795926" y1="0" x2="356.95051090795926" y2="5" style="visibility: inherit;" fill="rgb(0, 0, 0)" stroke="rgb(204, 204, 204)" stroke-width="1px"></line><line x1="427.01728926838496" y1="0" x2="427.01728926838496" y2="5" style="visibility: inherit;" fill="rgb(0, 0, 0)" stroke="rgb(204, 204, 204)" stroke-width="1px"></line><line x1="497.0840676288106" y1="0" x2="497.0840676288106" y2="5" style="visibility: inherit;" fill="rgb(0, 0, 0)" stroke="rgb(204, 204, 204)" stroke-width="1px"></line><line x1="567.1508459892362" y1="0" x2="567.1508459892362" y2="5" style="visibility: inherit;" fill="rgb(0, 0, 0)" stroke="rgb(204, 204, 204)" stroke-width="1px"></line><line x1="637.217624349662" y1="0" x2="637.217624349662" y2="5" style="visibility: inherit;" fill="rgb(0, 0, 0)" stroke="rgb(204, 204, 204)" stroke-width="1px"></line><line x1="707.2844027100875" y1="0" x2="707.2844027100875" y2="5" style="visibility: inherit;" fill="rgb(0, 0, 0)" stroke="rgb(204, 204, 204)" stroke-width="1px"></line><line x1="777.3511810705131" y1="0" x2="777.3511810705131" y2="5" style="visibility: inherit;" fill="rgb(0, 0, 0)" stroke="rgb(204, 204, 204)" stroke-width="1px"></line><line x1="847.4179594309388" y1="0" x2="847.4179594309388" y2="5" style="visibility: inherit;" fill="rgb(0, 0, 0)" stroke="rgb(204, 204, 204)" stroke-width="1px"></line><line x1="917.4847377913644" y1="0" x2="917.4847377913644" y2="5" style="visibility: inherit;" fill="rgb(0, 0, 0)" stroke="rgb(204, 204, 204)" stroke-width="1px"></line><line x1="987.5515161517901" y1="0" x2="987.5515161517901" y2="5" style="visibility: inherit;" fill="rgb(0, 0, 0)" stroke="rgb(204, 204, 204)" stroke-width="1px"></line><line x1="1057.6182945122157" y1="0" x2="1057.6182945122157" y2="5" style="visibility: inherit;" fill="rgb(0, 0, 0)" stroke="rgb(204, 204, 204)" stroke-width="1px"></line></g><g transform="translate(0, 8)"><text style="text-anchor: middle; visibility: inherit; font-family: &quot;Helvetica Neue&quot;, sans-serif; font-size: 12px; font-weight: 200;" x="6.616619105831071" y="0" dx="0em" dy="0.95em" fill="rgb(50, 49, 63)" stroke="none" stroke-width="1px">0</text><text style="text-anchor: middle; visibility: inherit; font-family: &quot;Helvetica Neue&quot;, sans-serif; font-size: 12px; font-weight: 200;" x="76.68339746625672" y="0" dx="0em" dy="0.95em" fill="rgb(50, 49, 63)" stroke="none" stroke-width="1px">200</text><text style="text-anchor: middle; visibility: inherit; font-family: &quot;Helvetica Neue&quot;, sans-serif; font-size: 12px; font-weight: 200;" x="146.75017582668235" y="0" dx="0em" dy="0.95em" fill="rgb(50, 49, 63)" stroke="none" stroke-width="1px">400</text><text style="text-anchor: middle; visibility: inherit; font-family: &quot;Helvetica Neue&quot;, sans-serif; font-size: 12px; font-weight: 200;" x="216.81695418710802" y="0" dx="0em" dy="0.95em" fill="rgb(50, 49, 63)" stroke="none" stroke-width="1px">600</text><text style="text-anchor: middle; visibility: inherit; font-family: &quot;Helvetica Neue&quot;, sans-serif; font-size: 12px; font-weight: 200;" x="286.88373254753367" y="0" dx="0em" dy="0.95em" fill="rgb(50, 49, 63)" stroke="none" stroke-width="1px">800</text><text style="text-anchor: middle; visibility: inherit; font-family: &quot;Helvetica Neue&quot;, sans-serif; font-size: 12px; font-weight: 200;" x="356.95051090795926" y="0" dx="0em" dy="0.95em" fill="rgb(50, 49, 63)" stroke="none" stroke-width="1px">1k</text><text style="text-anchor: middle; visibility: inherit; font-family: &quot;Helvetica Neue&quot;, sans-serif; font-size: 12px; font-weight: 200;" x="427.01728926838496" y="0" dx="0em" dy="0.95em" fill="rgb(50, 49, 63)" stroke="none" stroke-width="1px">1.2k</text><text style="text-anchor: middle; visibility: inherit; font-family: &quot;Helvetica Neue&quot;, sans-serif; font-size: 12px; font-weight: 200;" x="497.0840676288106" y="0" dx="0em" dy="0.95em" fill="rgb(50, 49, 63)" stroke="none" stroke-width="1px">1.4k</text><text style="text-anchor: middle; visibility: inherit; font-family: &quot;Helvetica Neue&quot;, sans-serif; font-size: 12px; font-weight: 200;" x="567.1508459892362" y="0" dx="0em" dy="0.95em" fill="rgb(50, 49, 63)" stroke="none" stroke-width="1px">1.6k</text><text style="text-anchor: middle; visibility: inherit; font-family: &quot;Helvetica Neue&quot;, sans-serif; font-size: 12px; font-weight: 200;" x="637.217624349662" y="0" dx="0em" dy="0.95em" fill="rgb(50, 49, 63)" stroke="none" stroke-width="1px">1.8k</text><text style="text-anchor: middle; visibility: inherit; font-family: &quot;Helvetica Neue&quot;, sans-serif; font-size: 12px; font-weight: 200;" x="707.2844027100875" y="0" dx="0em" dy="0.95em" fill="rgb(50, 49, 63)" stroke="none" stroke-width="1px">2k</text><text style="text-anchor: middle; visibility: inherit; font-family: &quot;Helvetica Neue&quot;, sans-serif; font-size: 12px; font-weight: 200;" x="777.3511810705131" y="0" dx="0em" dy="0.95em" fill="rgb(50, 49, 63)" stroke="none" stroke-width="1px">2.2k</text><text style="text-anchor: middle; visibility: inherit; font-family: &quot;Helvetica Neue&quot;, sans-serif; font-size: 12px; font-weight: 200;" x="847.4179594309388" y="0" dx="0em" dy="0.95em" fill="rgb(50, 49, 63)" stroke="none" stroke-width="1px">2.4k</text><text style="text-anchor: middle; visibility: inherit; font-family: &quot;Helvetica Neue&quot;, sans-serif; font-size: 12px; font-weight: 200;" x="917.4847377913644" y="0" dx="0em" dy="0.95em" fill="rgb(50, 49, 63)" stroke="none" stroke-width="1px">2.6k</text><text style="text-anchor: middle; visibility: inherit; font-family: &quot;Helvetica Neue&quot;, sans-serif; font-size: 12px; font-weight: 200;" x="987.5515161517901" y="0" dx="0em" dy="0.95em" fill="rgb(50, 49, 63)" stroke="none" stroke-width="1px">2.8k</text><text style="text-anchor: middle; visibility: inherit; font-family: &quot;Helvetica Neue&quot;, sans-serif; font-size: 12px; font-weight: 200;" x="1057.6182945122157" y="0" dx="0em" dy="0.95em" fill="rgb(50, 49, 63)" stroke="none" stroke-width="1px">3k</text></g><line x1="0" y1="0" x2="1072.611999130249" y2="0" fill="rgb(0, 0, 0)" stroke="rgb(204, 204, 204)" stroke-width="1px"></line></g></g></g></g></svg>