<svg viewBox="0 0 330 200" xmlns="http://www.w3.org/2000/svg"><g><g><g><g><g><line x1="40" y1="178" x2="35" y2="178" style="visibility: inherit;" fill="rgb(0, 0, 0)" stroke="rgb(204, 204, 204)" stroke-width="1px"></line><line x1="40" y1="161.8181818181818" x2="35" y2="161.8181818181818" style="visibility: inherit;" fill="rgb(0, 0, 0)" stroke="rgb(204, 204, 204)" stroke-width="1px"></line><line x1="40" y1="145.63636363636363" x2="35" y2="145.63636363636363" style="visibility: inherit;" fill="rgb(0, 0, 0)" stroke="rgb(204, 204, 204)" stroke-width="1px"></line><line x1="40" y1="129.45454545454547" x2="35" y2="129.45454545454547" style="visibility: inherit;" fill="rgb(0, 0, 0)" stroke="rgb(204, 204, 204)" stroke-width="1px"></line><line x1="40" y1="113.27272727272727" x2="35" y2="113.27272727272727" style="visibility: inherit;" fill="rgb(0, 0, 0)" stroke="rgb(204, 204, 204)" stroke-width="1px"></line><line x1="40" y1="97.09090909090908" x2="35" y2="97.09090909090908" style="visibility: inherit;" fill="rgb(0, 0, 0)" stroke="rgb(204, 204, 204)" stroke-width="1px"></line><line x1="40" y1="80.90909090909092" x2="35" y2="80.90909090909092" style="visibility: inherit;" fill="rgb(0, 0, 0)" stroke="rgb(204, 204, 204)" stroke-width="1px"></line><line x1="40" y1="64.72727272727273" x2="35" y2="64.72727272727273" style="visibility: inherit;" fill="rgb(0, 0, 0)" stroke="rgb(204, 204, 204)" stroke-width="1px"></line><line x1="40" y1="48.54545454545454" x2="35" y2="48.54545454545454" style="visibility: inherit;" fill="rgb(0, 0, 0)" stroke="rgb(204, 204, 204)" stroke-width="1px"></line><line x1="40" y1="32.36363636363635" x2="35" y2="32.36363636363635" style="visibility: inherit;" fill="rgb(0, 0, 0)" stroke="rgb(204, 204, 204)" stroke-width="1px"></line><line x1="40" y1="16.181818181818187" x2="35" y2="16.181818181818187" style="visibility: inherit;" fill="rgb(0, 0, 0)" stroke="rgb(204, 204, 204)" stroke-width="1px"></line><line x1="40" y1="0" x2="35" y2="0" style="visibility: inherit;" fill="rgb(0, 0, 0)" stroke="rgb(204, 204, 204)" stroke-width="1px"></line></g><g transform="translate(30, 0)"><text x="0" y="178" dx="0em" dy="0.3em" style="text-anchor: end; visibility: hidden; font-family: Roboto, sans-serif; font-size: 12px; font-weight: 200;" fill="rgb(50, 49, 63)" stroke="none" stroke-width="1px">-60</text><text x="0" y="161.8181818181818" dx="0em" dy="0.3em" style="text-anchor: end; visibility: inherit; font-family: Roboto, sans-serif; font-size: 12px; font-weight: 200;" fill="rgb(50, 49, 63)" stroke="none" stroke-width="1px">-40</text><text x="0" y="145.63636363636363" dx="0em" dy="0.3em" style="text-anchor: end; visibility: hidden; font-family: Roboto, sans-serif; font-size: 12px; font-weight: 200;" fill="rgb(50, 49, 63)" stroke="none" stroke-width="1px">-20</text><text x="0" y="129.45454545454547" dx="0em" dy="0.3em" style="text-anchor: end; visibility: inherit; font-family: Roboto, sans-serif; font-size: 12px; font-weight: 200;" fill="rgb(50, 49, 63)" stroke="none" stroke-width="1px">0</text><text x="0" y="113.27272727272727" dx="0em" dy="0.3em" style="text-anchor: end; visibility: hidden; font-family: Roboto, sans-serif; font-size: 12px; font-weight: 200;" fill="rgb(50, 49, 63)" stroke="none" stroke-width="1px">20</text><text x="0" y="97.09090909090908" dx="0em" dy="0.3em" style="text-anchor: end; visibility: inherit; font-family: Roboto, sans-serif; font-size: 12px; font-weight: 200;" fill="rgb(50, 49, 63)" stroke="none" stroke-width="1px">40</text><text x="0" y="80.90909090909092" dx="0em" dy="0.3em" style="text-anchor: end; visibility: hidden; font-family: Roboto, sans-serif; font-size: 12px; font-weight: 200;" fill="rgb(50, 49, 63)" stroke="none" stroke-width="1px">60</text><text x="0" y="64.72727272727273" dx="0em" dy="0.3em" style="text-anchor: end; visibility: inherit; font-family: Roboto, sans-serif; font-size: 12px; font-weight: 200;" fill="rgb(50, 49, 63)" stroke="none" stroke-width="1px">80</text><text x="0" y="48.54545454545454" dx="0em" dy="0.3em" style="text-anchor: end; visibility: hidden; font-family: Roboto, sans-serif; font-size: 12px; font-weight: 200;" fill="rgb(50, 49, 63)" stroke="none" stroke-width="1px">100</text><text x="0" y="32.36363636363635" dx="0em" dy="0.3em" style="text-anchor: end; visibility: inherit; font-family: Roboto, sans-serif; font-size: 12px; font-weight: 200;" fill="rgb(50, 49, 63)" stroke="none" stroke-width="1px">120</text><text x="0" y="16.181818181818187" dx="0em" dy="0.3em" style="text-anchor: end; visibility: hidden; font-family: Roboto, sans-serif; font-size: 12px; font-weight: 200;" fill="rgb(50, 49, 63)" stroke="none" stroke-width="1px">140</text><text x="0" y="0" dx="0em" dy="0.3em" style="text-anchor: end; visibility: hidden; font-family: Roboto, sans-serif; font-size: 12px; font-weight: 200;" fill="rgb(50, 49, 63)" stroke="none" stroke-width="1px">160</text></g><line x1="40" y1="0" x2="40" y2="178" fill="rgb(0, 0, 0)" stroke="rgb(204, 204, 204)" stroke-width="1px"></line></g></g><g transform="translate(40, 0)" clip-path="url(#clip_0)"><clipPath id="clip_0"><rect width="290" height="178"></rect></clipPath><g><g><g><line x1="0" y1="0" x2="0" y2="178" fill="rgb(0, 0, 0)" stroke="rgb(60, 60, 60)" stroke-width="1px" opacity="0.25"></line><line x1="29" y1="0" x2="29" y2="178" fill="rgb(0, 0, 0)" stroke="rgb(60, 60, 60)" stroke-width="1px" opacity="0.25"></line><line x1="58" y1="0" x2="58" y2="178" fill="rgb(0, 0, 0)" stroke="rgb(60, 60, 60)" stroke-width="1px" opacity="0.25"></line><line x1="87" y1="0" x2="87" y2="178" fill="rgb(0, 0, 0)" stroke="rgb(60, 60, 60)" stroke-width="1px" opacity="0.25"></line><line x1="116" y1="0" x2="116" y2="178" fill="rgb(0, 0, 0)" stroke="rgb(60, 60, 60)" stroke-width="1px" opacity="0.25"></line><line x1="145" y1="0" x2="145" y2="178" fill="rgb(0, 0, 0)" stroke="rgb(60, 60, 60)" stroke-width="1px" opacity="0.25"></line><line x1="174" y1="0" x2="174" y2="178" fill="rgb(0, 0, 0)" stroke="rgb(60, 60, 60)" stroke-width="1px" opacity="0.25"></line><line x1="203" y1="0" x2="203" y2="178" fill="rgb(0, 0, 0)" stroke="rgb(60, 60, 60)" stroke-width="1px" opacity="0.25"></line><line x1="232" y1="0" x2="232" y2="178" fill="rgb(0, 0, 0)" stroke="rgb(60, 60, 60)" stroke-width="1px" opacity="0.25"></line><line x1="261" y1="0" x2="261" y2="178" fill="rgb(0, 0, 0)" stroke="rgb(60, 60, 60)" stroke-width="1px" opacity="0.25"></line><line x1="290" y1="0" x2="290" y2="178" fill="rgb(0, 0, 0)" stroke="rgb(60, 60, 60)" stroke-width="1px" opacity="0.25"></line></g><g><line x1="0" y1="178" x2="290" y2="178" fill="rgb(0, 0, 0)" stroke="rgb(60, 60, 60)" stroke-width="1px" opacity="0.25"></line><line x1="0" y1="161.8181818181818" x2="290" y2="161.8181818181818" fill="rgb(0, 0, 0)" stroke="rgb(60, 60, 60)" stroke-width="1px" opacity="0.25"></line><line x1="0" y1="145.63636363636363" x2="290" y2="145.63636363636363" fill="rgb(0, 0, 0)" stroke="rgb(60, 60, 60)" stroke-width="1px" opacity="0.25"></line><line x1="0" y1="129.45454545454547" x2="290" y2="129.45454545454547" fill="rgb(0, 0, 0)" stroke="rgb(60, 60, 60)" stroke-width="1px" opacity="0.25"></line><line x1="0" y1="113.27272727272727" x2="290" y2="113.27272727272727" fill="rgb(0, 0, 0)" stroke="rgb(60, 60, 60)" stroke-width="1px" opacity="0.25"></line><line x1="0" y1="97.09090909090908" x2="290" y2="97.09090909090908" fill="rgb(0, 0, 0)" stroke="rgb(60, 60, 60)" stroke-width="1px" opacity="0.25"></line><line x1="0" y1="80.90909090909092" x2="290" y2="80.90909090909092" fill="rgb(0, 0, 0)" stroke="rgb(60, 60, 60)" stroke-width="1px" opacity="0.25"></line><line x1="0" y1="64.72727272727273" x2="290" y2="64.72727272727273" fill="rgb(0, 0, 0)" stroke="rgb(60, 60, 60)" stroke-width="1px" opacity="0.25"></line><line x1="0" y1="48.54545454545454" x2="290" y2="48.54545454545454" fill="rgb(0, 0, 0)" stroke="rgb(60, 60, 60)" stroke-width="1px" opacity="0.25"></line><line x1="0" y1="32.36363636363635" x2="290" y2="32.36363636363635" fill="rgb(0, 0, 0)" stroke="rgb(60, 60, 60)" stroke-width="1px" opacity="0.25"></line><line x1="0" y1="16.181818181818187" x2="290" y2="16.181818181818187" fill="rgb(0, 0, 0)" stroke="rgb(60, 60, 60)" stroke-width="1px" opacity="0.25"></line><line x1="0" y1="0" x2="290" y2="0" fill="rgb(0, 0, 0)" stroke="rgb(60, 60, 60)" stroke-width="1px" opacity="0.25"></line></g></g></g><g><g><line x1="0" y1="129.45454545454547" x2="290" y2="129.45454545454547" fill="rgb(0, 0, 0)" stroke="rgb(153, 153, 153)" stroke-width="1.5px"></line></g></g><g><g><line x1="29" y1="0" x2="29" y2="178" fill="rgb(0, 0, 0)" stroke="rgb(153, 153, 153)" stroke-width="1.5px"></line></g></g><g><g><g><g><g><path stroke="rgb(238, 51, 119)" stroke-width="2px" d="M29.290000000000003,134.21095610531893L29.869999999999997,132.64466016048735L30.044,132.21218964124657L30.392000000000003,131.95903717872295L31.32,132.19868038656523L31.436,132.8543571667098L31.552,131.0709750241331L31.61,131.51123558548048L31.726,130.45584864745058L32.074,131.58401962441317L32.248,130.48207097325385L32.77,131.3047655269303L33.118,128.38715328958727L33.176,129.3231310148858L33.233999999999995,129.894180935291L33.292,130.07164578182054L33.582,130.00224795593155L34.046,130.37746009531207L34.452,129.84041833717447L34.916,128.04273708710141L35.089999999999996,124.51059818118414L35.148,123.9570804523396L35.554,122.96810206531289L35.844,123.3427307611947L36.308,118.96947921446565L36.54,117.60080584383064L37.062,116.5925983829438L37.7,110.4392008670116L37.99,110.88148491795502L38.164,102.29250600920477L38.686,104.09368901955501L38.744,102.74233066369113L39.324,102.02984836807632L39.614,100.20540183855726L39.730000000000004,99.16413178236664L39.788,98.60140343828286L40.02,97.72337207573545L40.484,95.98881569172603L40.948,92.31617960183287L41.006,89.6363348160668L41.064,87.4682112577742L41.296,86.98046509283091L41.934000000000005,92.43928387627771L42.282000000000004,27.508180632788388L42.572,53.54468674153249L42.746,71.32101347036675L43.442,65.68439929738555L43.79,71.23337664465143L44.08,80.96575784006028L44.254000000000005,81.3714662840732L44.486000000000004,88.76956438240718L44.718,79.2702804717906L44.833999999999996,90.73806340527567L45.93600000000001,93.80358977434757L46.226,89.9824322126619L46.284,70.60959846000283L46.574,83.81922859171847L46.864,79.80538239761754L46.980000000000004,92.57508729324131L47.443999999999996,86.4078952270631L47.502,81.10951433017414L47.85,82.63813166606438L47.908,92.17653632330261L47.965999999999994,95.7080323896847L48.14,85.40259442493296L48.662,92.34988228029269L49.126,89.90189112132727L50.054,91.66722548201155L50.286,93.48637599410749L50.634,91.73403076891655L50.866,94.44703340996944L50.982000000000006,97.88126847460383L51.678,89.76932590964688L51.736000000000004,95.40766495801958L52.664,92.57294808480819L53.418,92.22637609242877L53.476,96.13388906543597L53.592,95.50055440039883L53.94,91.26284824581903L54.461999999999996,89.98324143761482L54.578,88.20156061574272L54.636,88.6395394966651L54.81,93.71088683942305L55.158,97.77759104974315L55.68,97.1950733482186L55.854,94.53639065532674L55.912,97.4777531248855L56.434,98.67548844775177L56.492,91.6967931047173L57.362,96.47096265926149L57.477999999999994,97.01097371649529L57.594,97.34727794993447L58.406,96.66718028813804L58.696,95.46601482127595L58.812000000000005,95.91307510703227L58.986,99.60451237129277L59.449999999999996,102.66476028476964L59.798,102.76413272947774L59.914,104.33795286960913L60.088,98.23885216887575L60.436,99.05370916731444L60.726,104.84411018971971L61.306000000000004,105.59548384315757L61.422,87.02584385592117L61.654,96.1145665594134L62.001999999999995,103.0277977886532L62.234,90.82052108596713L62.291999999999994,96.28218279928534L62.582,96.72695917408913L62.698,101.87513665141505L62.756,102.50309059403173L62.872,98.99573153149005L62.988,105.13619208856068L63.046,104.48802771707018L63.336000000000006,106.46562185457405L63.394,105.24410262990085L63.916000000000004,105.74060038575746L64.264,101.10915070053738L64.38,106.2589637715409L64.67,106.2403510329219L64.96000000000001,98.20137711811074L65.076,100.71666805664415L65.772,106.6189311928732L66.178,108.3035306240158L66.236,109.8884391474475L66.352,111.57715996008159L66.41,111.92954063269846L66.46799999999999,108.11488867238808L66.526,102.44820591405961L66.642,101.94031971376336L66.816,103.85543858229744L67.048,102.12004575047487L67.338,104.23673991921248L67.512,106.34613083091092L67.744,107.27822895936198L67.91799999999999,108.89178566163903L68.092,107.53560123069036L68.324,108.00261990062347L68.382,110.41619417437178L68.614,111.0881745554376L68.904,106.18715619255767L68.962,110.10543508405378L69.368,112.19963124113939L69.542,114.92962779017701L69.774,114.69366377848742L69.948,113.86146240366695L70.17999999999999,116.56097599455723L70.41199999999999,112.89756285975149L70.644,114.40498553911526L70.818,116.32083673390285L70.876,117.62654492239403L70.934,117.52988347074266L71.34,113.43558920387228L71.688,113.51288040692252L71.804,115.86542965323332L71.862,115.98510944044408L72.094,116.86228783084803L72.32600000000001,110.69600649589431L72.5,112.60930834588973L72.55799999999999,111.6963132054986L72.616,114.24171692623439L72.848,116.95884137816383L73.37,117.48985532031205L73.602,112.6498878404028L73.66,114.60913279343622L73.71799999999999,116.38339358111877L73.834,117.48778422537026L73.89200000000001,115.91486454101496L74.24,115.65771407095573L74.472,113.77786606630835L74.53,113.24661242598441L74.646,115.88818160575933L74.76199999999999,117.22973596069235L74.936,118.15006149787428L74.994,118.86414568140613L75.05199999999999,117.34714218706411L75.11,116.91870078825718L75.284,110.86298463865923L75.516,112.83646692372065L75.80600000000001,111.46726681888303L75.864,110.93886381447437L75.922,114.38307312849506L76.27000000000001,115.1513390442224L76.618,115.97994291752798L76.85000000000001,115.30772622220758L77.024,108.39924714745362L77.25600000000001,111.82355077634838L77.488,110.42903943326064L77.604,112.51955133856744L77.894,114.4534585488902L79.28599999999999,116.73726435565801L79.402,115.07403008195615L79.46000000000001,116.82708286837092L79.692,112.48579973933309L79.808,114.68288706114582L80.04,115.33958424030521L80.15599999999999,113.88262993177855L80.62,115.64984453357997L80.968,110.09736592369467L81.2,113.00895012658786L81.606,114.45501749735607L81.664,110.01018677626787L81.722,108.55587408413786L81.77999999999999,104.15968420168122L82.07,109.71388146674848L82.18599999999999,108.38855391944449L82.36,110.64793359900335L82.418,107.07256861443572L82.534,106.91080322171766L82.998,106.19270226855748L83.056,106.48802659018278L83.22999999999999,103.44459714030019L83.636,107.76766371297985L83.80999999999999,108.50379334885946L84.33200000000001,110.67576900275718L84.44800000000001,108.55414588596271L84.56400000000001,108.76663581371541L84.738,111.41113447700987L84.79599999999999,109.25287338945299L85.028,110.61780495241736L85.31800000000001,112.94527102576062L85.376,111.14631689013675L85.608,106.94796784348814L85.666,102.94856131244941L85.72399999999999,105.15002625696316L85.782,106.94817515581141L86.014,107.52099255131711L86.072,108.47051474521231L86.246,108.05905101243277L86.30399999999999,106.23385166958236L86.768,104.65120837113417L87,108.53117017704398L87.116,108.36835936608078L87.232,110.28151860482247L87.28999999999999,110.8323805884417L87.75399999999999,106.61079906395814L87.812,108.22155462259009L87.986,101.09751615312612L88.45,96.70478377301914L88.566,105.09134315726631L88.798,108.01263497788916L88.856,111.00530090056296L89.146,113.14704928839575L89.552,113.32655576710705L90.19,108.628273728486L90.306,110.7653313871382L90.654,105.393072886238L90.712,107.75493581298615L90.82799999999999,110.69605523501735L90.944,112.50415922799108L91.176,107.86069477773923L91.408,110.2734505094991L91.524,112.95379875127276L91.814,112.96720347700432L91.87200000000001,111.7048213621037L91.93,107.96975334915587L92.394,111.24500858131526L92.74199999999999,112.6862878261795L92.974,108.9986048046388L93.032,110.66183254664604L93.09,109.6548772032695L93.612,111.24468592390151L93.90199999999999,112.16870987948073L94.25,110.16667426559016L94.714,109.49327681360437L94.83,111.5884719627964L95.99000000000001,112.83313898323094L96.048,112.13342993479385L96.28,105.73495775224704L96.338,107.69858194837857L96.39599999999999,112.44582009659509L97.44000000000001,111.271824617716L97.73,112.47702064204518L98.136,114.24171533225415L98.194,114.78140735237317L98.542,114.649502751878L98.658,108.53128389045122L98.94800000000001,108.87390817662245L99.06400000000001,106.92842513391203L99.18,106.41543955605525L99.41199999999999,105.5400598748241L100.45599999999999,108.22021960464855L100.572,105.10220526853753L100.688,100.24238131652912L101.152,106.39970951140852L101.326,106.75766939719712L101.674,106.00616342392952L101.78999999999999,110.20921776177737L101.90599999999999,110.01062847977593L101.96400000000001,109.31421121373114L102.138,107.3182477767672L102.254,112.5336139395533L102.428,111.81554994443155L102.892,112.69240584029397L103.298,107.37050112691253L103.646,109.09096272310019L103.878,111.17485477508437L103.93599999999999,114.43555949438414L103.99399999999999,110.08148403980343L104.052,110.91810913920297L104.39999999999999,112.66563864081493L104.97999999999999,113.88532148904328L105.096,113.93067491995963L105.27,114.84998884202372L105.328,115.72648887461675L105.50200000000001,112.38040321246535L105.85,112.27627163634153L105.966,110.75821300927075L106.14,109.51309881774728L106.314,109.79687244233737L106.48800000000001,111.03969071643448L106.546,110.92036638742461L107.59,110.12808013685373L108.228,110.33586526350872L108.46,107.92936982588533L109.272,108.3804633248081L109.33,109.37887593134172L109.50399999999999,110.3988184232404L109.56200000000001,111.25802170996118L109.678,111.35508210085021L109.736,108.10827221916158L110.896,111.83004861425617L110.954,109.9570891994042L111.01199999999999,111.57694914425412L111.30199999999999,112.12762820597939L111.476,113.73290938347091L111.708,111.3437236865567L111.824,111.58523082170852L112.05600000000001,112.91134474330255L112.288,109.85343862781967L112.52000000000001,108.91873266854638L113.448,106.08225325635689L113.97,108.76260720838621L114.02799999999999,109.52599143518356L114.666,107.47971918694907L115.13000000000001,109.7133392414397L115.188,109.85320770052566L115.362,107.40515608504816L115.478,109.93606212359637L115.53599999999999,107.81317504798372L116,107.172932737364L116.058,109.22876570431916L116.464,107.7029612852735L116.58000000000001,108.93773809568248L117.04400000000001,104.6150680615998L117.334,105.98688927834397L117.392,103.8026850751296L117.56599999999999,107.30883063708549L117.972,109.17730555804363L118.668,108.98769743561186L118.958,108.77189372437317L119.01599999999999,106.1021146864394L119.132,106.58441870449727L119.19,108.92024086530978L119.538,108.29563526542388L119.944,106.91715892886327L120.002,108.76339351572085L120.524,110.90079985760144L120.756,108.65292345704135L120.872,111.13486640249405L121.10400000000001,110.17390499469468L121.626,111.59057933326477L122.032,109.34376613605838L122.08999999999999,108.27978349783044L122.38,108.15582454705141L122.844,107.36949584350963L122.96,108.72272047613195L123.366,108.82670688312457L123.42399999999999,108.96032628302859L123.656,110.82687758799898L123.946,109.39815534058569L124.12,110.75443736051264L124.236,110.0926829532505L124.41,110.90492961142783L124.58399999999999,110.53471235420356L124.816,110.09962341083535L125.28,105.97688688940781L125.744,105.31513712881736L125.86,107.56607048363361L125.976,104.92112931466082L126.15,106.61839579919022L126.208,109.1985396642953L126.556,110.95549998182693L126.61399999999999,107.62056478179856L127.07799999999999,109.24888799683127L127.25200000000001,107.09531393823548L127.31,108.25793374091538L127.368,110.18347169529939L127.426,110.1415791830621L127.542,108.14919263673491L127.71600000000001,104.89271038406508L128.122,106.59772343308687L128.18,108.87529563100802L128.586,109.59791006820218L128.644,106.19956672795523L128.702,108.26433225950707L129.224,110.01295119702392L129.45600000000002,109.72042684336972L129.572,111.77199804521972L129.63,112.29458251493145L129.746,112.103907559496L130.036,111.97039383823221L130.094,111.0981342965473L130.21,109.81435953744541L130.268,109.34385498721556L130.326,110.88340742758767L130.616,109.86603429419908L131.428,110.13350664330302L131.95000000000002,111.1001624271439L132.298,108.28840683100893L132.704,110.97080981654526L132.762,112.96774881967013L133.284,114.2071525738289L133.69,114.58308784778633L134.212,114.74310729047001L134.386,114.38379667658357L134.792,111.05054671322554L134.908,113.00940141716205L135.14000000000001,113.11313977524618L135.72,113.17989886453736L135.778,112.11646177549844L135.952,111.52094111614689L136.242,113.85543995266931L136.47400000000002,110.38798693441451L137.228,112.53586883190228L137.344,112.81256704637812L137.402,114.57913096699036L137.75,114.57298161391891L137.808,116.18398429472298L137.86599999999999,116.39569652942612L137.982,113.52621094744082L138.098,110.11670591222561L138.794,112.64093256888631L139.838,114.99392290650512L140.186,117.51500135049265L140.534,118.16759457069931L140.592,117.83390265153824L140.94,117.26663021646672L141.172,115.84918423589255L141.288,117.39874231005692L141.404,117.33210681126054L141.752,118.60600625899752L141.926,118.25876722904799L142.042,119.2367032327979L142.216,118.7440208826608L142.39,117.06481984493738L142.564,118.93087658644463L143.086,117.86703400989457L143.202,116.14175329695014L143.898,117.03916472813678L143.956,118.19177888351847L144.014,117.99257885396474L144.826,118.27974720390272L145.058,117.86386069097735L145.29,117.35808291696677L145.52200000000002,118.30136638017939L145.58,118.84891413366626L145.75400000000002,118.29621876037889L145.87,120.90755999539358L145.986,117.78550677526793L146.45,117.23416180747033L146.566,114.89505602918436L146.74,115.75138380463885L146.91400000000002,116.3999617733173L147.088,117.16721960313612L147.204,116.05790231990946L147.378,117.54042386902975L147.55200000000002,115.38007481424899L148.48,117.44525502010791L148.886,116.28952269507032L149.176,113.77820469481208L149.23399999999998,113.58634526478544L149.292,114.09272441323249L149.408,111.54799350414066L149.46599999999998,110.99213874136713L149.58200000000002,109.22183025714938L149.698,108.64895343715983L149.93,110.6716478829413L150.162,107.5065772917765L150.452,106.02874221246825L150.568,102.79294418002002L150.974,103.5695804423382L151.09,102.16646047076956L151.148,97.83041107527514L151.322,102.09281088189272L151.438,104.38036284860472L151.67000000000002,99.85569340607334L151.844,108.33430415718605L151.96,105.46118477258756L152.076,102.82290930271714L152.134,102.30953760988402L152.714,102.50988037787555L152.77200000000002,102.10243743193661L153.004,100.58879178267048L153.178,109.35817383100478L153.352,110.40412812561813L153.41,108.70586557498913L153.58399999999997,109.0588317062772L153.64200000000002,111.57383836231169L153.758,105.77173080169986L154.048,105.42709724955242L154.106,104.16668781528541L154.51200000000003,108.68616648944204L154.57000000000002,109.11834845323551L154.80200000000002,112.33707837319976L154.918,116.85781032292553L155.034,115.33007781751242L155.266,110.83412894786497L155.846,112.51151723438616L155.962,111.57122767628064L156.078,116.06600701162444L156.136,120.12457013132438L156.368,122.54561749286268L156.54199999999997,114.5627599138861L157.006,112.87270577521377L157.238,108.63227020474119L157.41199999999998,106.78933744522132L158.05,106.35149816221225L158.28199999999998,108.5609965813206L158.398,108.5636148347232L158.57199999999997,111.35840066796816L158.68800000000002,107.72842790743928L158.746,106.28978353861972L158.862,104.29932955143887L158.978,105.4109119287504L159.036,106.94370319640153L159.152,107.54486816501111L159.268,106.78077386808958L159.326,104.67158714300841L159.558,106.82151010829261L159.732,108.84135929539993L159.906,108.3861632612332L160.196,107.68783402213631L160.892,105.92309259190395L161.124,104.77234598926879L161.298,102.40143808617047L161.87800000000001,102.76289460108084L162.226,106.79158657393641L162.284,108.82283665311319L162.4,110.57847918580434L162.57399999999998,102.81860098915483L162.74800000000002,101.94110614735919L162.806,104.70318921775679L162.864,100.91820762855446L163.444,103.24182256380483L163.50199999999998,107.18034391420397L163.55999999999997,108.30139057343139L163.67600000000002,108.19737228434427L164.37199999999999,106.44643218879946L164.42999999999998,107.81062967821441L164.488,108.80464297277783L164.546,110.52308248388421L165.01,114.80476885664689L165.53199999999998,117.41742505827301L166.518,114.5248384758485L167.32999999999998,112.42243942917031L167.504,109.43142003401142L167.56199999999998,100.57436180267779L167.61999999999998,103.47006871401967L167.73600000000002,105.19892306018782L168.2,107.30112676174969L168.316,104.04896529710663L168.432,107.48982117683244L168.548,110.4650897581014L169.12800000000001,111.7137034853207L169.59199999999998,104.91038537133271L169.64999999999998,108.01813809979711L170.288,107.78323919837925L170.752,103.96229116695459L171.1,105.12581312957171L171.158,107.16151459310836L171.274,105.88302839031991L171.39,100.33941016551742L171.67999999999998,97.94826911011921L172.782,101.96036469899278L172.898,102.2201996432593L173.13,106.030207304821L173.188,102.86722858100161L173.768,107.28089920609608L173.88400000000001,102.69038549034356L174.058,105.81637470324155L174.116,105.64728651544856L174.174,103.92498078211626L174.75400000000002,103.4903759731538L174.812,106.27033613243186L174.98600000000002,109.35695219825796L175.102,111.67959543699676L175.334,110.96777401912279L175.45,103.94097788248752L175.624,106.40470146171464L175.74,105.76695534996247L175.85600000000002,110.03973660053589L175.972,111.0471775801613L176.494,110.92896963958292L176.72600000000003,107.0356174932002L176.958,107.76118862502614L177.074,110.24247352047466L177.248,108.20988170916422L177.422,107.50046402083767L177.77,108.90663591760735L177.828,109.89188675464379L178.06,110.20670671126683L178.234,111.94626901771579L178.408,110.04851785816143L178.524,110.96606067023023L179.046,109.90075887334064L179.22,114.08373510707989L179.278,117.0356961402922L179.33599999999998,114.24563541461079L179.394,115.72020564715402L179.56799999999998,113.8504575030607L179.8,114.28095920531653L180.148,113.32734609481192L180.206,112.40475282734168L180.38,111.76674084268964L180.84400000000002,109.9497269285985L181.13400000000001,109.3566781288166L181.308,109.42896048363542L181.482,109.65957970093675L181.54,108.86408679039957L181.65599999999998,108.59774221456513L181.83,106.81930056194885L181.888,106.88869557986729L182.00400000000002,108.72643206266424L182.352,105.24796273102893L182.52599999999998,104.70145943321741L182.7,96.37199021737007L182.75799999999998,101.46258565152912L182.99,105.16868973819642L184.092,106.7690512008724L184.324,105.60037231542755L184.44,105.96732646653814L184.73,107.32105462958995L185.02,106.94599666796837L185.542,106.10142512008811L185.77399999999997,103.4624376442963L186.006,98.6429605363514L186.18,102.22290832836936L187.05,104.20974462803635L187.688,103.22464050018827L187.74599999999998,105.28314272490655L187.92000000000002,105.37719451861092L188.268,104.49208765454813L188.67399999999998,106.09673168263922L188.732,106.48553034675281L188.79000000000002,108.37199402675508L188.848,103.49386666529846L188.906,105.88108825285227L188.964,101.65994600923975L189.428,102.30939313433025L190.76200000000003,101.3874282057047L190.82000000000002,105.43632169725981L190.87800000000001,108.09768685741173L191.284,107.11671140338746L191.92200000000003,102.83199389414541L192.038,106.48165469386474L192.73399999999998,106.38919838688659L192.79199999999997,94.51881768824877L192.966,97.9338218102371L193.082,104.24826400011597L193.14000000000001,110.29989680866112L193.256,113.32455677152592L194.358,111.85099654044352L194.648,110.43164879013301L194.82199999999997,111.17958234853161L194.996,113.80263201701248L195.518,112.29236229819799L195.576,114.32778129479571L195.924,111.74281558584849L196.04000000000002,112.62322434268674L196.098,110.24015714672754L196.446,114.53297358199848L196.62,117.45512801988224L196.678,119.88698015755757L196.96800000000002,119.57633640441556L197.084,122.20820899985371L197.20000000000002,124.46753158591201L197.374,123.36144770548677L197.432,116.17956244459221L197.89600000000002,118.5783413472041L198.186,115.15615578849157L198.302,119.46020812291961L198.36,122.16253154683638L198.418,113.24384180962703L199.056,118.46619203722275L199.636,121.41962663812734L200.1,123.61368387597055L201.086,122.45490787973718L201.376,122.97872219435618L201.492,120.27241099827654L201.54999999999998,121.1230562201873L201.724,115.62575415475308L202.304,113.20812348145493L202.652,114.8762457152934L202.884,109.68148344380228L203.174,108.34586065565902L203.29,111.39823861268918L203.406,104.60717248224418L203.522,109.84870023658883L203.638,107.59334896219922L203.86999999999998,105.29136997024834L203.92800000000003,105.8792255993143L204.102,104.04463424763901L204.21800000000002,107.0639572356506L204.45,104.80990563023093L204.566,105.29781574252952L204.73999999999998,108.9150598859141L204.798,106.73569520001439L204.91400000000002,108.59807484178819L205.204,110.88145539257737L205.32,107.9037867598273L205.37800000000001,108.66547811474537L205.436,107.86003839195179L205.89999999999998,112.28383944003392L206.596,115.36523046344773L206.76999999999998,109.5427385616047L206.88600000000002,110.5385059840309L207.002,112.73113269586509L207.118,113.14397038068047L207.234,114.0806897776248L207.756,117.96326545751172L207.98799999999997,116.80888443569533L208.104,116.00786015943079L208.742,113.98737223468547L208.97400000000002,112.54530413082814L209.554,115.33415021031952L210.07600000000002,116.80839842017586L210.366,117.98366408262311L210.772,111.20828197341086L210.94600000000003,104.74070234111771L211.00400000000002,107.44064292622159L211.352,112.30279810647426L211.41,117.30468842941134L211.526,116.59638367670973L211.7,118.61146775915418L211.99,118.20810833604558L212.16400000000002,115.68828806820005L212.222,110.71231804466649L212.338,115.61733907176172L213.26600000000002,119.00914769673577L213.672,116.3878758625261L213.846,108.14127634870351L213.904,112.79342330281341L214.31,115.98596246710065L214.368,109.51564715189124L214.426,113.8763577118279L214.774,112.80852564227783L214.94799999999998,119.06957376207778L216.34,121.3128859423857L216.514,116.42564283141154L216.63,117.36143571160883L216.92,113.61592457893175L217.09400000000002,114.53100828573349L217.15200000000002,113.2349661733333L217.268,111.49519544385706L217.326,109.14702638635373L217.732,110.13095674728412L217.84799999999998,106.20917573016644L217.96400000000003,109.72149151653561L218.486,109.98789423021165L218.77599999999998,108.05559338571668L219.298,110.50369832768355L219.41400000000002,109.0873496049087L219.53,104.10982919653897L219.762,107.68452187566706L219.93599999999998,108.96409811435842L220.69,110.55619349330432L220.748,111.37715738293662L220.80599999999998,111.50294108891946L221.154,114.06408066009882L221.618,111.71941694075925L221.96599999999998,113.37705361377417L222.02399999999997,112.18864264078758L222.08200000000002,105.06784074971134L222.314,109.5887485296941L222.60399999999998,111.10434458096232L223.01,115.9545163617532L223.474,118.56221528316632L223.706,119.54535486639415L223.938,115.77968265888344L224.05399999999997,115.90226662519291L224.40200000000002,111.99620788660367L224.576,107.37766125539969L224.692,107.60704004880533L224.808,105.18818523866707L224.92399999999998,108.34661953525679L225.098,91.40038729843567L225.214,98.72501229877244L225.388,103.93300539145937L226.08399999999997,113.92951306385929L226.374,120.45512150196295L226.43200000000002,114.65467287537655L226.664,114.11327370980068L227.07000000000002,111.31069577106864L227.708,110.0013973695903L227.882,112.26866674927993L227.94,110.68710958436908L228.11399999999998,110.57584660000889L228.404,112.18749256666149L228.75199999999998,112.31373474093573L228.81,109.71214173317783L229.04199999999997,112.15628654636534L229.15800000000002,109.6429741913912L229.506,112.8962465301601L229.564,112.09654281361496L229.91199999999998,113.2277486584726L230.318,110.777631347849L230.666,116.14201014866691L230.84,114.81463674216533L231.18800000000002,112.97506802136233L231.826,112.5225754641402L231.94199999999998,112.59591826293679L232,112.75895238043609L232.29000000000002,113.72951473048555L232.348,117.92254300819933L232.522,109.533848389592L232.638,107.44919859618864L232.696,104.99074152543334L232.81199999999998,108.12586385086237L233.10199999999998,110.28903572495722L233.682,119.22468138266444L234.03,114.54247338870289L234.14600000000002,123.27163514586489L234.204,112.39319802588453L234.436,109.12270999622807L234.494,115.39945085666241L234.726,114.09186567807102L234.84199999999998,112.99392332585451L235.19000000000003,118.6801507593663L235.24800000000002,117.77174017763238L235.422,127.20063867639256L235.654,129.5112721690147L236.35,130.83371549007404L236.64,120.22513673561714L236.698,116.35910520143776L236.814,115.75468592137757L237.336,109.22367913982939L237.394,118.92135494344797L237.742,126.06677673823565L237.79999999999998,114.94048163686894L238.612,112.38478546150256L238.844,122.06038828420911L238.95999999999998,127.24182506529365L239.076,134.2329785827109L239.25,133.27668871725905L239.424,123.57325951137238L239.946,118.91821031497774L240.294,117.18325765566144L240.41,110.76137904297073L241.048,112.90735059417288L241.106,114.65093759829728L241.454,108.41790218910532L241.85999999999999,107.3624711468927L243.252,110.10961769790124L243.31,114.38608440880202L243.42600000000002,112.09973874675491L243.6,117.92451317877112L243.716,118.13520629746043L244.934,119.21464844430876L245.10799999999998,121.91818563349644L245.34,119.4763622495714L245.398,118.92873472964229L245.45600000000002,121.39884704901418L245.572,121.6694152802175L245.804,122.52139739117516L245.97799999999998,123.89829254146944L246.094,123.48899577052045L246.20999999999998,121.16966021380485L246.616,124.17930183840787L246.84799999999998,126.40753816375025L247.022,124.51764883111704L247.312,122.44416588253252L247.776,122.32010485885968L248.00799999999998,121.77890917330586L248.124,122.24246897533028L248.24,121.37115094779804L248.298,121.54045779862601L248.64600000000002,117.51857828885024L248.878,115.37908728647596L248.994,117.25213766976489L249.10999999999999,120.49708630482026L249.28400000000002,119.85641998607264L249.806,116.62301549789136L249.922,110.55509002438735L249.98,112.48680516597739L250.212,111.10403619684318L250.502,107.97414600288485L250.618,111.53549453615697L251.19799999999998,110.71344711509349L251.31400000000002,105.26432449741637L251.43,102.48538945109097L252.184,102.73294398670572L252.416,100.7462772063434L252.532,99.92948045455444L253.112,116.0714595032569L253.40200000000002,111.22961447564688L253.808,107.5671828866044L253.982,107.35785101392285L254.09799999999998,105.3230659883253L255.25799999999998,109.0411927479579L255.316,68.16121478318527L255.37400000000002,86.98709695351822L255.49,100.4561256613188L255.66400000000002,107.47474192719234L255.78,114.69326957710564L256.128,118.69303155071506L256.36,120.05306552702551L256.76599999999996,119.98529057686869L256.824,118.47900944993647L256.882,117.71662489159718L257.172,118.70106666316877L257.23,117.20613527738678L257.462,113.51133376125851L258.1,114.14816251289191L258.448,113.47653786778709L258.796,113.94593643971079L258.97,111.5944424540919L259.086,114.3553621117762L259.43399999999997,114.6979056895289L259.608,121.7505793191392L259.84000000000003,121.91542057704592L260.072,119.89694691659554L260.188,119.8681303913902L260.362,120.43231252979484L260.478,122.80300446210326L260.71,121.14920371014325L260.826,121.68393389226247L261,121.41150883319905L261.29,120.45426266492078L261.522,121.46560323764375L261.58,119.89266940649229L261.69599999999997,121.5047151099848L262.218,123.18994512711481L262.276,124.19083122865702L262.914,125.37681798990195L263.03000000000003,131.69692203034697L263.088,129.63461778886054L263.49399999999997,129.18222409031407L263.61,128.80864328436297L263.668,127.63740084974042L263.726,128.1150504030362L263.784,130.07973088900246L264.016,127.85425192728908L264.132,127.93448633192233L265.408,126.91206281695625L265.582,125.96450947764377L266.104,125.41988285361175L266.278,131.10193342976294L266.394,130.33380631833603L266.626,128.6695045662591L266.68399999999997,128.40229790492143L266.74199999999996,127.96034977604917L266.858,126.93727723353L267.322,127.37387105655768L267.61199999999997,127.28489619794385L268.01800000000003,126.42397470329666L269.642,127.26277072342911L270.048,129.06116304475583L270.628,132.47849860324843L270.686,131.69204060201113L270.976,132.7836054175588L271.44,135.95677556354573L271.498,134.89065515309383L271.556,132.64731947552502L272.136,131.27730579261603L272.194,146.41320573564596L272.252,141.5301733099539L272.368,136.63731578742542L272.484,135.29330749669177L272.59999999999997,138.07349032409815L272.658,135.05040169148344L272.716,132.6644570949271L272.832,133.04173205759602L273.87600000000003,130.59804209662093L274.166,129.513500376679L274.456,128.22873340073022L274.63,130.79045675269623L274.804,130.00428593656716L275.094,129.4466758714558L275.73199999999997,130.14690110645975L276.254,130.64121520843568L276.428,134.09929165904688L276.486,134.924741090815L277.00800000000004,130.69119083861264L277.356,146.02732175858307L278.226,138.39840098261095L278.284,135.2476177365302L278.4,132.11959103789064L278.632,131.2343786303062L278.864,129.76508429040933L279.038,128.6018670805447L279.386,126.603906007299L279.502,126.68355158028714L280.024,127.30384044172267L280.25600000000003,127.0575842083264L280.604,127.13072706433022L280.894,127.054168591115L281.242,127.08716249451552L281.474,127.11012343744834L281.706,128.20451381162317" style="fill: none;" fill="none"></path></g></g></g></g><g opacity="0.2"><g><g><g><path stroke="rgb(238, 51, 119)" stroke-width="2px" d="M29.290000000000003,134.21095610531893L29.869999999999997,131.7048825935884L30.044,131.79701794277537L30.392000000000003,131.66132988279517L31.32,132.51155855872415L31.436,133.7613941972906L31.552,128.52071002613414L31.61,132.15313971042633L31.726,128.89935791221532L32.074,133.2592220436443L32.248,128.83914258967746L32.77,132.5343302900141L33.118,124.020261443745L33.176,130.72526392503218L33.233999999999995,130.75008456815374L33.292,130.33771788965572L33.582,129.89818058393217L34.046,130.9401830380613L34.452,129.03493751287462L34.916,125.34637952717868L35.089999999999996,119.21258353320034L35.148,123.12682207280939L35.554,121.48465401042591L35.844,123.90466936718335L36.308,112.40963297757234L36.54,115.54780162464488L37.062,115.08028977134012L37.7,101.20911404002797L37.99,111.544910586964L38.164,89.4090423930775L38.686,106.79546293778854L38.744,100.71529339877041L39.324,100.96112500971013L39.614,97.46873217496004L39.730000000000004,97.60222674283115L39.788,97.7573109366677L40.02,96.40632504549895L40.484,93.38698113181373L40.948,86.80722548744895L41.006,85.6165676463734L41.064,84.21602592468261L41.296,86.24884584600275L41.934000000000005,100.62751204750754L42.282000000000004,-69.88847420432349L42.572,92.59944589788263L42.746,97.98550356084651L43.442,57.22947803844106L43.79,79.5568426652388L44.08,95.5643296328458L44.254000000000005,81.98002895008433L44.486000000000004,99.86671152981846L44.718,65.02135460593485L44.833999999999996,107.93973780545322L45.93600000000001,98.40187932794744L46.226,84.25069587013938L46.284,41.55034783103249L46.574,103.63367378928443L46.864,73.7846131064675L46.980000000000004,111.72964463667438L47.443999999999996,77.15710712779652L47.502,73.16194298484109L47.85,84.93105766989969L47.908,106.4841433091597L47.965999999999994,101.00527648925781L48.14,69.9444374778054L48.662,102.77081406333228L49.126,86.22990438287908L50.054,94.31522702303799L50.286,96.21510176225142L50.634,89.10551293113016L50.866,98.51653737154875L50.982000000000006,103.03262107155538L51.678,77.60141206221147L51.736000000000004,103.86517353057862L52.664,88.32087277499112L53.418,91.70651810385965L53.476,101.99515852494675L53.592,94.55055240284312L53.94,84.90628901394932L54.461999999999996,88.06383122530852L54.578,85.52903938293457L54.636,89.29650781804865L54.81,101.31790785356002L55.158,103.87764736522328L55.68,96.32129679593172L55.854,90.54836661598898L55.912,101.88979682922363L56.434,100.47209143205123L56.492,81.22875009016556L57.362,103.63221699107777L57.477999999999994,97.82099030234598L57.594,97.8517343000932L58.406,95.64703379544343L58.696,93.66426662098277L58.812000000000005,96.58366553566671L58.986,105.14166826768356L59.449999999999996,107.2551321549849L59.798,102.91319139653986L59.914,106.69868307980623L60.088,89.09020111777566L60.436,100.27599466497249L60.726,113.52971172332764L61.306000000000004,106.72254432331431L61.422,59.17138387506658L61.654,109.74765061465176L62.001999999999995,113.39764463251286L62.234,72.50960603193803L62.291999999999994,104.4746753692627L62.582,97.39412373629484L62.698,109.59740286740389L62.756,103.44502150795678L62.872,93.73469293767756L62.988,114.34688292416658L63.046,103.51578115983443L63.336000000000006,109.43201306082986L63.394,103.41182379289107L63.916000000000004,106.48534701954235L64.264,94.16197617270731L64.38,113.98368337804621L64.67,106.21243192499334L64.96000000000001,86.142916245894L65.076,104.48960446444424L65.772,115.47232589721679L66.178,110.83042977072976L66.236,112.265801932595L66.352,114.11024117903276L66.41,112.45811164162377L66.46799999999999,102.3929107319225L66.526,93.94818177656693L66.642,101.17849041331898L66.816,106.72811688509856L67.048,99.51695650274102L67.338,107.41178117231891L67.512,109.51021719845859L67.744,108.67637615203857L67.91799999999999,111.31212071505459L68.092,105.50132458426737L68.324,108.70314790552312L68.382,114.03655558499422L68.614,112.09614512703635L68.904,98.83562864823773L68.962,115.98285342129795L69.368,115.3409254767678L69.542,119.02462261373346L69.774,114.33971776095305L69.948,112.61316034143621L70.17999999999999,120.61024638089268L70.41199999999999,107.40244315754283L70.644,116.66611955816096L70.818,119.1946135260842L70.876,119.58510720513085L70.934,117.3848912932656L71.34,107.29414780356669L71.688,113.6288172114979L71.804,119.39425352269953L71.862,116.16462912126019L72.094,118.17805541645396L72.32600000000001,101.44658449346369L72.5,115.47926112088291L72.55799999999999,110.32682049491187L72.616,118.0598225073381L72.848,121.03452805605801L73.37,118.28637623353438L73.602,105.38993662053888L73.66,117.5480002229864L73.71799999999999,119.0447847626426L73.834,119.14437019174748L73.89200000000001,113.55548501448197L74.24,115.27198836586692L74.472,110.95809405933727L74.53,112.44973196549847L74.646,119.8505353754217L74.76199999999999,119.24206749309192L74.936,119.53054980364712L74.994,119.93527195670389L75.05199999999999,115.07163694555109L75.11,116.27603869004683L75.284,101.77941041426224L75.516,115.79669035131282L75.80600000000001,109.41346666162664L75.864,110.14625930786133L75.922,119.54938709952613L76.27000000000001,116.30373791781338L76.618,117.22284872748637L76.85000000000001,114.29940117922698L77.024,98.03652853532272L77.25600000000001,116.9600062196905L77.488,108.33727241862904L77.604,115.65531919652766L77.894,117.35431936437433L79.28599999999999,120.16297306580975L79.402,112.57917867140338L79.46000000000001,119.45666204799306L79.692,105.97387504577637L79.808,117.97851804386485L80.04,116.3246300090443L80.15599999999999,111.69719846898859L80.62,118.30066643628206L80.968,101.76864800886676L81.2,117.37632643092763L81.606,116.62411855350841L81.664,103.34294069463557L81.722,106.37440504594281L81.77999999999999,97.56539937799627L82.07,118.04517736434937L82.18599999999999,106.40056259848856L82.36,114.03700311834162L82.418,101.70952113758435L82.534,106.66815513264049L82.998,105.11555083881726L83.056,106.93101307262074L83.22999999999999,98.87945296547629L83.636,114.2522635719993L83.80999999999999,109.60798780267889L84.33200000000001,113.93373248360373L84.44800000000001,105.37171121077104L84.56400000000001,109.08537070534445L84.738,115.37788247195157L84.79599999999999,106.01548175811767L85.028,112.6652022968639L85.31800000000001,116.43647013577547L85.376,108.44788568670099L85.608,100.65044427351518L85.666,96.94945151589133L85.72399999999999,108.45222367373381L85.782,109.64539850408381L86.014,108.38021864457562L86.072,109.89479803605514L86.246,107.4418554132635L86.30399999999999,103.49605265530674L86.768,102.27724342346191L87,114.35111288590865L87.116,108.12414314963601L87.232,113.15125746293502L87.28999999999999,111.65867356387051L87.75399999999999,100.27842677723277L87.812,110.63768796053799L87.986,90.41145844893022L88.45,90.11568520285867L88.566,117.67118223363703L88.798,112.39457270882346L88.856,115.49429978457366L89.146,116.35967187014492L89.552,113.59581548517401L90.19,101.58085067055441L90.306,113.97091787511651L90.654,97.33468513488769L90.712,111.29773020310836L90.82799999999999,115.10773436806417L90.944,115.21631521745162L91.176,100.89549810236151L91.408,113.89258410713889L91.524,116.97432111393321L91.814,112.98731056560169L91.87200000000001,109.81124818975276L91.93,102.3671513297341L92.394,116.15789142955433L92.74199999999999,114.84820669347589L92.974,103.46708027232776L93.032,113.15667415965687L93.09,108.14444418820469L93.612,113.62939900484953L93.90199999999999,113.55474581284955L94.25,107.16362084475432L94.714,108.48318063562566L94.83,114.73126468658447L95.99000000000001,114.70013951388272L96.048,111.08386636213822L96.28,96.13724947842685L96.338,110.6440182425759L96.39599999999999,119.56667731891979L97.44000000000001,109.51083139939742L97.73,114.28481467853894L98.136,116.88875736756756L98.194,115.5909453825517L98.542,114.45164585113525L98.658,99.353955598311L98.94800000000001,109.38784460587935L99.06400000000001,104.0102005698464L99.18,105.64596118927003L99.41199999999999,104.2269903529774L100.45599999999999,112.24045919938521L100.572,100.425183764371L100.688,92.9526453885165L101.152,115.63570180372757L101.326,107.29460922588001L101.674,104.87890446402808L101.78999999999999,116.51379926854914L101.90599999999999,109.7127445567738L101.96400000000001,108.26958531466398L102.138,104.32430262132125L102.254,120.35666318373246L102.428,110.73845395174892L102.892,114.00768968408758L103.298,99.38764405684037L103.646,111.6716551173817L103.878,114.30069285306062L103.93599999999999,119.32661657333374L103.99399999999999,103.55037085793234L104.052,112.17304678830234L104.39999999999999,115.28693289323287L104.97999999999999,115.71484576138582L105.096,113.99870506633411L105.27,116.22895972511984L105.328,117.04123892350628L105.50200000000001,107.36127471923828L105.85,112.12007427215576L105.966,108.48112506866455L106.14,107.6454275304621L106.314,110.22253287922251L106.48800000000001,112.90391812758014L106.546,110.7413798939098L107.59,108.93965076099742L108.228,110.64754295349121L108.46,104.31962666945026L109.272,109.05710357319225L109.33,110.87649484114213L109.50399999999999,111.92873216108842L109.56200000000001,112.54682664004238L109.678,111.50067268718374L109.736,103.23805739662863L110.896,117.41271320689808L110.954,107.14765007712626L111.01199999999999,114.00673906152899L111.30199999999999,112.95364679856732L111.476,116.14083114970813L111.708,107.75994514118541L111.824,111.94749152443627L112.05600000000001,114.90051562569357L112.288,105.2665794545954L112.52000000000001,107.51667372963644L113.448,101.82753413807262L113.97,112.78313813643024L114.02799999999999,110.67106777537953L114.666,104.41031081459738L115.13000000000001,113.0637693231756L115.188,110.0630103891546L115.362,103.73307866183195L115.478,113.73242118141867L115.53599999999999,104.62884443456475L116,106.21256927143443L116.058,112.31251515475188L116.464,105.41425465670498L116.58000000000001,110.78990331129593L117.04400000000001,98.13106301047586L117.334,108.04462110346013L117.392,100.52637877030804L117.56599999999999,112.56804898001931L117.972,111.98001793948086L118.668,108.70328525196422L118.958,108.4481881575151L119.01599999999999,102.09744612953878L119.132,107.30787473158402L119.19,112.42397410652853L119.538,107.35872686559505L119.944,104.84944442402232L120.002,111.53274539600719L120.524,114.10690937042236L120.756,105.28110885620117L120.872,114.85778082067317L121.10400000000001,108.7324628829956L121.626,113.71559084111995L122.032,105.97354634024882L122.08999999999999,106.6838095404885L122.38,107.96988612088289L122.844,106.19000278819692L122.96,110.75255742506546L123.366,108.9826864936135L123.42399999999999,109.16075538288463L123.656,113.62670454545456L123.946,107.25507196946579L124.12,112.78886039040304L124.236,109.10005134235729L124.41,112.12329959869385L124.58399999999999,109.97938646836712L124.816,109.44698999578303L125.28,99.7927821072665L125.744,104.3225124879317L125.86,110.94247051585805L125.976,100.95371756120163L126.15,109.16429552598434L126.208,113.06875546195292L126.556,113.59094045812434L126.61399999999999,102.61816198175605L127.07799999999999,111.69137281938033L127.25200000000001,103.8649528503418L127.31,110.0018634449352L127.368,113.07177862687546L127.426,110.07874041470613L127.542,105.1606128172441L127.71600000000001,100.00798700506037L128.122,109.15524300661953L128.18,112.29165392788973L128.586,110.68183172399348L128.644,101.10205171758479L128.702,111.36148055683483L129.224,112.63587960329922L129.45600000000002,109.2816403128884L129.572,114.8493548479947L129.63,113.07845921949907L129.746,111.81789512634278L130.036,111.77012325633656L130.094,109.78974498401988L130.21,107.88869739879262L130.268,108.63809816187079L130.326,113.19273608814586L130.616,108.33997459411621L131.428,110.53471516695889L131.95000000000002,112.55014610290527L132.298,104.07077343680643L132.704,114.99441429484975L132.762,115.96315732435745L133.284,116.06625820506703L133.69,115.14699075872248L134.212,114.98313645449551L134.386,113.84483075575395L134.792,106.05067176818848L134.908,115.94768347306683L135.14000000000001,113.26874731237238L135.72,113.28003749847412L135.778,110.52130614194002L135.952,110.6276601271196L136.242,117.35718820745295L136.47400000000002,105.18680740703236L137.228,115.75769167813387L137.344,113.22761436809193L137.402,117.2289768479087L137.75,114.56375758431173L137.808,118.60048831592906L137.86599999999999,116.71326488148082L137.982,109.22198257446288L138.098,105.00244835940273L138.794,116.4272725538774L139.838,118.52340841293335L140.186,121.29661901647394L140.534,119.1464844010093L140.592,117.33336477279663L140.94,116.4157215638594L141.172,113.7230152650313L141.288,119.7230794213035L141.404,117.23215356306595L141.752,120.51685543060303L141.926,117.73790868412365L142.042,120.70360723842273L142.216,118.00499735745515L142.39,114.54601828835226L142.564,121.72996169870551L143.086,116.27127014506948L143.202,113.5538322275335L143.898,118.38528187491679L143.956,119.92070011659102L144.014,117.69377880963411L144.826,118.71049972880971L145.058,117.24003092158924L145.29,116.59941625595093L145.52200000000002,119.71629157499832L145.58,119.67023576389659L145.75400000000002,117.46717570044778L145.87,124.82457184791565L145.986,113.10242694507946L146.45,116.40714435577392L146.566,111.38639736175537L146.74,117.03587546782059L146.91400000000002,117.372828726335L147.088,118.31810634786432L147.204,114.39392639506947L147.378,119.76420619271018L147.55200000000002,112.13955123207785L148.48,120.54302532889628L148.886,114.55592420751398L149.176,110.0112276944247L149.23399999999998,113.29855611974543L149.292,114.85229313590308L149.408,107.73089714050293L149.46599999999998,110.15835659720682L149.58200000000002,106.56636753082276L149.698,107.7896382071755L149.93,113.70568955161353L150.162,102.7589714050293L150.452,103.81198959350586L150.568,97.93924713134766L150.974,104.73453483581542L151.09,100.06178051341664L151.148,91.32633698203345L151.322,108.48641059181907L151.438,107.81169079867276L151.67000000000002,93.06868924227629L151.844,121.05222028385509L151.96,101.1515056956898L152.076,98.86549609791149L152.134,101.53948007063434L152.714,102.81039452986283L152.77200000000002,101.49127301302822L153.004,98.3183233087713L153.178,122.51224690350618L153.352,111.97305956753819L153.41,106.15847174904562L153.58399999999997,109.58828090320934L153.64200000000002,115.34634834636341L153.758,97.06856946078213L154.048,104.91014692133123L154.106,102.27607366388494L154.51200000000003,115.46538450067693L154.57000000000002,109.76662139892578L154.80200000000002,117.1651732531461L154.918,123.63890824751422L155.034,113.03847905939276L155.266,104.09020564339377L155.846,115.02759966416794L155.962,110.16079333912242L156.078,122.80817601464011L156.136,126.21241481087424L156.368,126.1771885351701L156.54199999999997,102.58847354542125L157.006,110.33762456720525L157.238,102.27161684903233L157.41199999999998,104.0249383059415L158.05,105.69473923769866L158.28199999999998,111.87524420998312L158.398,108.56754221482709L158.57199999999997,115.55057941783559L158.68800000000002,102.28346876664595L158.746,104.13181698539039L158.862,101.31364857066762L158.978,107.07828549471768L159.036,109.2428900978782L159.152,108.44661561792547L159.268,105.63463242270731L159.326,101.50780705538662L159.558,110.04639455621893L159.732,111.8711330760609L159.906,107.70336920998312L160.196,106.640340163491L160.892,103.2759804465554L161.124,103.04622608531605L161.298,98.84507623152298L161.87800000000001,103.30507937344639L162.226,112.83462453321977L162.284,111.86971177187834L162.4,113.2119429848411L162.57399999999998,91.17878369418057L162.74800000000002,100.62486388466574L162.806,108.84631382335317L162.864,95.24073524475098L163.444,106.72724496668035L163.50199999999998,113.0881259398027L163.55999999999997,109.98296056227252L163.67600000000002,108.04134485071356L164.37199999999999,103.82002204548229L164.42999999999998,109.85692591233688L164.488,110.29566291462291L164.546,113.10074175054378L165.01,121.2272984157909L165.53199999999998,121.33640936071222L166.518,110.1859586022117L167.32999999999998,109.26884085915304L167.504,104.94489094127309L167.56199999999998,87.28877445567738L167.61999999999998,107.8136290810325L167.73600000000002,107.79220457944004L168.2,110.45443231409247L168.316,99.17072310014203L168.432,112.65110499642111L168.548,114.92799263000488L169.12800000000001,113.58662407614969L169.59199999999998,94.70540820035066L169.64999999999998,112.67976719249378L170.288,107.43089084625244L170.752,98.23086911981757L171.1,106.87109607349743L171.158,110.21506678841332L171.274,103.96529908613725L171.39,92.02398282831366L171.67999999999998,94.36155752702193L172.782,107.97850808230312L172.898,102.60995205965908L173.13,111.74521879716353L173.188,98.12276049527256L173.768,113.90140514373779L173.88400000000001,95.80461491671477L174.058,110.50535852258857L174.116,105.39365423375911L174.174,101.34152218211781L174.75400000000002,102.83846875971014L174.812,110.44027637134899L174.98600000000002,113.98687629699707L175.102,115.16356029510499L175.334,109.9000418923118L175.45,93.4007836775346L175.624,110.10028683055532L175.74,104.8103361823342L175.85600000000002,116.44890847639603L175.972,112.5583390495994L176.494,110.75165772871537L176.72600000000003,101.19558927362615L176.958,108.84954532276501L177.074,113.96440086364746L177.248,105.1609939921986L177.422,106.43633748834783L177.77,111.0158937627619L177.828,111.36976301019841L178.06,110.67893664620138L178.234,114.55561247738926L178.408,107.20189111882989L178.524,112.3423748883334L179.046,108.30280617800625L179.22,120.35819945768878L179.278,121.46363769011066L179.33599999999998,110.06054432608866L179.394,117.9320609959689L179.56799999999998,111.04583528692072L179.8,114.92671175870029L180.148,111.89692642905496L180.206,111.02086292613637L180.38,110.80972286571156L180.84400000000002,107.22420605746181L181.13400000000001,108.46710492914373L181.308,109.5373840158636L181.482,110.00550852688875L181.54,107.67084742459384L181.65599999999998,108.19822535081344L181.83,104.15163808302445L181.888,106.99278810674494L182.00400000000002,111.48303678685969L182.352,100.03025873357599L182.52599999999998,103.88170448650013L182.7,83.87778639359908L182.75799999999998,109.09847880276767L182.99,110.72784586819736L184.092,109.16959339488636L184.324,103.84735398726029L184.44,106.517757693204L184.73,109.3516468741677L185.02,106.383409725536L185.542,104.83456779826771L185.77399999999997,99.50395643060857L186.006,91.41374487443404L186.18,107.59283001639628L187.05,107.18999907753684L187.688,101.7469843084162L187.74599999999998,108.37089606198398L187.92000000000002,105.51827220916748L188.268,103.16442735845392L188.67399999999998,108.50369772477585L188.732,107.06872834292327L188.79000000000002,111.20168954675849L188.848,96.17667562311347L188.906,109.46192063418303L188.964,95.32823264382104L189.428,103.283563821966L190.76200000000003,100.00448081276633L190.82000000000002,111.5096619345925L190.87800000000001,112.0897345976396L191.284,105.64524822235107L191.92200000000003,96.40491763028233L192.038,111.9561458934437L192.73399999999998,106.25051392641936L192.79199999999997,76.71324664029207L192.966,103.05632799321954L193.082,113.7199272849343L193.14000000000001,119.37734602147883L193.256,117.8615467158231L194.358,109.64065619381992L194.648,108.3026271646673L194.82199999999997,112.30148268612949L194.996,117.73720651973377L195.518,110.02695771997625L195.576,117.38090978969228L195.924,107.86536702242763L196.04000000000002,113.94383747794413L196.098,106.66555635278876L196.446,120.9721982349049L196.62,121.83835967670788L196.678,123.53475836407054L196.96800000000002,119.11037077470257L197.084,126.15601789301091L197.20000000000002,127.85651546499948L197.374,121.70232188484887L197.432,105.40673455325039L197.89600000000002,122.17650970112194L198.186,110.02287745042281L198.302,125.91628662456165L198.36,126.21601668271153L198.418,99.86580720381302L199.056,126.29971737861634L199.636,125.8497785394842L200.1,126.90476973273539L201.086,120.71674388538707L201.376,123.76444366628473L201.492,116.21294420415704L201.54999999999998,122.39902405305342L201.724,107.37980105660178L202.304,109.58167747150767L202.652,117.37842906605113L202.884,101.8893400365656L203.174,106.34242647344415L203.29,115.97680554823444L203.406,94.4205732865767L203.522,117.71099186810581L203.638,104.21032205061478L203.86999999999998,101.83840148232198L203.92800000000003,106.76100904291327L204.102,101.29274722012607L204.21800000000002,111.59294171766801L204.45,101.42882822210139L204.566,106.02968091097746L204.73999999999998,114.340926100991L204.798,103.46664817116476L204.91400000000002,111.39164430444892L205.204,114.30652621876109L205.32,103.43728381070223L205.37800000000001,109.80801514712246L205.436,106.65187880776145L205.89999999999998,118.91954101215708L206.596,119.98731699856846L206.76999999999998,100.80900070884012L206.88600000000002,112.03215711767022L207.002,116.0200727636164L207.118,113.7632269079035L207.234,115.48576887304132L207.756,123.78712897734208L207.98799999999997,115.07731290297075L208.104,114.80632374503396L208.742,110.95664034756746L208.97400000000002,110.38220197504218L209.554,119.51741932955655L210.07600000000002,119.01977073496037L210.366,119.74656257629394L210.772,101.04520880959252L210.94600000000003,95.039332892678L211.00400000000002,111.4905538038774L211.352,119.59603087685323L211.41,124.80752391381698L211.526,115.53392654765736L211.7,121.6340938828208L211.99,117.60306920138274L212.16400000000002,111.90855766643178L212.222,103.24836300936612L212.338,122.97487061240457L213.26600000000002,124.09686063419689L213.672,112.4559681112116L213.846,95.77137707796963L213.904,119.77164373397827L214.31,120.7747712135315L214.368,99.81017417907715L214.426,120.41742355173285L214.774,111.20677753795277L214.94799999999998,128.46114594177766L216.34,124.67785421284763L216.514,109.09477816495027L216.63,118.76512503190474L216.92,107.99765787991609L217.09400000000002,115.90363384593617L217.15200000000002,111.29090300473301L217.268,108.88553934964266L217.326,105.62477280009877L217.732,111.60685228867965L217.84799999999998,100.32650420448996L217.96400000000003,114.98996519608932L218.486,110.38749830072577L218.77599999999998,105.15714211897416L219.298,114.17585574063386L219.41400000000002,106.9628265207464L219.53,96.64354858398437L219.762,113.04656089435923L219.93599999999998,110.88346247239546L220.69,112.94433656172318L220.748,112.60860321738504L220.80599999999998,111.69161664789372L221.154,117.90579001686788L221.618,108.20242136174981L221.96599999999998,115.86350862329657L222.02399999999997,110.4060261813077L222.08200000000002,94.38663791309703L222.314,116.37011019966818L222.60399999999998,113.37773865786467L223.01,123.22977403293956L223.474,122.47376366528599L223.706,121.02006424123591L223.938,110.1311743476174L224.05399999999997,116.08614257465709L224.40200000000002,106.13711977871982L224.576,100.44984130859375L224.692,107.95110823891379L224.808,101.55990302345971L224.92399999999998,113.08427098014138L225.098,65.98103894320403L225.214,109.71194979927756L225.388,111.74499503048985L226.08399999999997,128.92427457245913L226.374,130.2435341591185L226.43200000000002,105.95399993549694L226.664,113.30117496143689L227.07000000000002,107.10682886297052L227.708,108.03744976737283L227.882,115.66957081881438L227.94,108.31477383700283L228.11399999999998,110.40895212346858L228.404,114.60496151664039L228.75199999999998,112.50309800234707L228.81,105.80975222154098L229.04199999999997,115.82250376614658L229.15800000000002,105.87300565893L229.506,117.77615503831343L229.564,110.89698723879727L229.91199999999998,114.92455742575906L230.318,107.10245538191361L230.666,124.18857834989375L230.84,112.82357663241301L231.18800000000002,110.21571494015781L231.826,111.843836628307L231.94199999999998,112.70593246113171L232,113.00350355668502L232.29000000000002,115.18535825555975L232.348,124.21208542477001L232.522,96.95080646168103L232.638,104.32222390608354L232.696,101.30305591930042L232.81199999999998,112.82854733900592L233.10199999999998,113.53379353609951L233.682,132.62814986922524L234.03,107.51916139776056L234.14600000000002,136.3653777816079L234.204,96.07554234591399L234.436,104.2169779517434L234.494,124.81456214731391L234.726,112.13048791018399L234.84199999999998,111.34700979752972L235.19000000000003,127.20949190963398L235.24800000000002,116.40912430503153L235.422,141.3439864245328L235.654,132.9772224079479L236.35,132.81738047166303L236.64,104.31226860393178L236.698,110.56005790016867L236.814,114.84805700128729L237.336,99.42716896750709L237.394,133.46786864887585L237.742,136.78490943041714L237.79999999999998,98.25103898481889L238.612,108.55124119845303L238.844,136.57379251826893L238.95999999999998,135.01398023692045L239.076,144.71970885883678L239.25,131.84225391908126L239.424,109.0181157025424L239.946,111.93563652038574L240.294,114.58082866668701L240.41,101.12856112393465L241.048,116.12630792097612L241.106,117.26631810448386L241.454,99.06834907531739L241.85999999999999,105.77932458357377L243.252,114.23033752441407L243.31,120.80078447515315L243.42600000000002,108.67022025368432L243.6,126.6616748267954L243.716,118.45124597549439L244.934,120.8338116645813L245.10799999999998,125.97349141727794L245.34,115.81362717368387L245.398,118.10729344974865L245.45600000000002,125.10401552807201L245.572,122.0752676270225L245.804,123.79937055761164L245.97799999999998,125.9636352669109L246.094,122.87505061409689L246.20999999999998,117.69065687873147L246.616,128.69376427531242L246.84799999999998,129.74989265176382L247.022,121.6828148321672L247.312,119.33394145965576L247.776,122.13401332335037L248.00799999999998,120.96711564497514L248.124,122.9378086783669L248.24,120.06417390649969L248.298,121.79441807486795L248.64600000000002,111.48575902418656L248.878,112.1698507829146L248.994,120.06171324469827L249.10999999999999,125.3645092574033L249.28400000000002,118.89542050795121L249.806,111.77290876561945L249.922,101.4532018141313L249.98,115.38437787836249L250.212,109.02988274314188L250.502,103.27931071194736L250.618,116.87751733606511L251.19799999999998,109.48037598349832L251.31400000000002,97.09064057090066L251.43,98.3169868816029L252.184,103.10427579012783L252.416,97.7662770357999L252.532,98.70428532687102L253.112,140.2844280763106L253.40200000000002,103.96684693423184L253.808,102.07353550304066L253.982,107.04385320490057L254.09799999999998,102.27088844992896L255.25799999999998,114.61838288740678L255.316,6.841247836026275L255.37400000000002,115.22592020901767L255.49,120.65966872301968L255.66400000000002,118.00266632600265L255.78,125.52106105197561L256.128,124.6926745111292L256.36,122.09311649149114L256.76599999999996,119.88362815163352L256.824,116.21958775953813L256.882,116.57304805408825L257.172,120.17772932052613L257.23,114.96373819871383L257.462,107.9691314870661L258.1,115.103405640342L258.448,112.46910090012985L258.796,114.65003429759633L258.97,108.06720147566364L259.086,118.49674159830268L259.43399999999997,115.21172105615788L259.608,132.32958976355465L259.84000000000003,122.16268246390604L260.072,116.86923642591996L260.188,119.82490560358221L260.362,121.2785857374018L260.478,126.3590423605659L260.71,118.66850258220326L260.826,122.48602916544134L261,121.00287124460394L261.29,119.01839341250334L261.522,122.98261409672823L261.58,117.53326865976507L261.69599999999997,123.92278366522355L262.218,125.71779015280984L262.276,125.69216038097035L262.914,127.15579813176934L263.03000000000003,141.17707809101452L263.088,126.5411614266309L263.49399999999997,128.50363354249433L263.61,128.24827207543635L263.668,125.8805371978066L263.726,128.83152473297986L263.784,133.02675161795185L264.016,124.51603348471903L264.132,128.05483793887225L265.408,125.3784275445071L265.582,124.54317946867509L266.104,124.6029429175637L266.278,139.6250092939897L266.394,129.1816156511957L266.626,126.17305193814363L266.68399999999997,128.00148791291497L266.74199999999996,127.29742758274078L266.858,125.40266841975127L267.322,128.0287617910992L267.61199999999997,127.15143391002309L268.01800000000003,125.1325924613259L269.642,128.5209647536278L270.048,131.7587515267459L270.628,137.60450194098732L270.686,130.51235360015522L270.976,134.42095264088024L271.44,140.71653078252618L271.498,133.29147453741595L271.556,129.2823159591718L272.136,129.22228526825253L272.194,169.11705565019088L272.252,134.20562467141585L272.368,129.29802950363268L272.484,133.27729506059126L272.59999999999997,142.24376456520775L272.658,130.51576874256133L272.716,129.08554020009257L272.832,133.6076445015994L273.87600000000003,126.93250715515832L274.166,127.88668779676611L274.456,126.30158293680711L274.63,134.63304178064521L274.804,128.82502971237358L275.094,128.6102607737888L275.73199999999997,131.19723895896564L276.254,131.38268636139955L276.428,139.28640633496371L276.486,136.16291523846712L277.00800000000004,124.3408654603091L277.356,169.0315181385387L278.226,126.95501981865276L278.284,130.5214428674091L278.4,127.42755098993128L278.632,129.90656001892958L278.864,127.56114278056405L279.038,126.85704126574777L279.386,123.60696439743042L279.502,126.8030199397694L280.024,128.23427373387597L280.25600000000003,126.688199858232L280.604,127.24044134833596L280.894,126.93933088129218L281.242,127.1366533496163L281.474,127.14456485184755L281.706,129.84609937288545" style="fill: none;" fill="none"></path></g></g></g></g></g></g><g transform="translate(40, 178)" clip-path="url(#clip_1)"><clipPath id="clip_1"><rect width="290" height="22"></rect></clipPath><g><g><line x1="0" y1="0" x2="0" y2="5" style="visibility: inherit;" fill="rgb(0, 0, 0)" stroke="rgb(204, 204, 204)" stroke-width="1px"></line><line x1="29" y1="0" x2="29" y2="5" style="visibility: inherit;" fill="rgb(0, 0, 0)" stroke="rgb(204, 204, 204)" stroke-width="1px"></line><line x1="58" y1="0" x2="58" y2="5" style="visibility: inherit;" fill="rgb(0, 0, 0)" stroke="rgb(204, 204, 204)" stroke-width="1px"></line><line x1="87" y1="0" x2="87" y2="5" style="visibility: inherit;" fill="rgb(0, 0, 0)" stroke="rgb(204, 204, 204)" stroke-width="1px"></line><line x1="116" y1="0" x2="116" y2="5" style="visibility: inherit;" fill="rgb(0, 0, 0)" stroke="rgb(204, 204, 204)" stroke-width="1px"></line><line x1="145" y1="0" x2="145" y2="5" style="visibility: inherit;" fill="rgb(0, 0, 0)" stroke="rgb(204, 204, 204)" stroke-width="1px"></line><line x1="174" y1="0" x2="174" y2="5" style="visibility: inherit;" fill="rgb(0, 0, 0)" stroke="rgb(204, 204, 204)" stroke-width="1px"></line><line x1="203" y1="0" x2="203" y2="5" style="visibility: inherit;" fill="rgb(0, 0, 0)" stroke="rgb(204, 204, 204)" stroke-width="1px"></line><line x1="232" y1="0" x2="232" y2="5" style="visibility: inherit;" fill="rgb(0, 0, 0)" stroke="rgb(204, 204, 204)" stroke-width="1px"></line><line x1="261" y1="0" x2="261" y2="5" style="visibility: inherit;" fill="rgb(0, 0, 0)" stroke="rgb(204, 204, 204)" stroke-width="1px"></line><line x1="290" y1="0" x2="290" y2="5" style="visibility: inherit;" fill="rgb(0, 0, 0)" stroke="rgb(204, 204, 204)" stroke-width="1px"></line></g><g transform="translate(0, 8)"><text x="0" y="0" dx="0em" dy="0.95em" style="text-anchor: middle; visibility: hidden; font-family: Roboto, sans-serif; font-size: 12px; font-weight: 200;" fill="rgb(50, 49, 63)" stroke="none" stroke-width="1px">-500</text><text x="29" y="0" dx="0em" dy="0.95em" style="text-anchor: middle; visibility: inherit; font-family: Roboto, sans-serif; font-size: 12px; font-weight: 200;" fill="rgb(50, 49, 63)" stroke="none" stroke-width="1px">0</text><text x="58" y="0" dx="0em" dy="0.95em" style="text-anchor: middle; visibility: inherit; font-family: Roboto, sans-serif; font-size: 12px; font-weight: 200;" fill="rgb(50, 49, 63)" stroke="none" stroke-width="1px">500</text><text x="87" y="0" dx="0em" dy="0.95em" style="text-anchor: middle; visibility: inherit; font-family: Roboto, sans-serif; font-size: 12px; font-weight: 200;" fill="rgb(50, 49, 63)" stroke="none" stroke-width="1px">1k</text><text x="116" y="0" dx="0em" dy="0.95em" style="text-anchor: middle; visibility: inherit; font-family: Roboto, sans-serif; font-size: 12px; font-weight: 200;" fill="rgb(50, 49, 63)" stroke="none" stroke-width="1px">1.5k</text><text x="145" y="0" dx="0em" dy="0.95em" style="text-anchor: middle; visibility: inherit; font-family: Roboto, sans-serif; font-size: 12px; font-weight: 200;" fill="rgb(50, 49, 63)" stroke="none" stroke-width="1px">2k</text><text x="174" y="0" dx="0em" dy="0.95em" style="text-anchor: middle; visibility: inherit; font-family: Roboto, sans-serif; font-size: 12px; font-weight: 200;" fill="rgb(50, 49, 63)" stroke="none" stroke-width="1px">2.5k</text><text x="203" y="0" dx="0em" dy="0.95em" style="text-anchor: middle; visibility: inherit; font-family: Roboto, sans-serif; font-size: 12px; font-weight: 200;" fill="rgb(50, 49, 63)" stroke="none" stroke-width="1px">3k</text><text x="232" y="0" dx="0em" dy="0.95em" style="text-anchor: middle; visibility: inherit; font-family: Roboto, sans-serif; font-size: 12px; font-weight: 200;" fill="rgb(50, 49, 63)" stroke="none" stroke-width="1px">3.5k</text><text x="261" y="0" dx="0em" dy="0.95em" style="text-anchor: middle; visibility: inherit; font-family: Roboto, sans-serif; font-size: 12px; font-weight: 200;" fill="rgb(50, 49, 63)" stroke="none" stroke-width="1px">4k</text><text x="290" y="0" dx="0em" dy="0.95em" style="text-anchor: middle; visibility: hidden; font-family: Roboto, sans-serif; font-size: 12px; font-weight: 200;" fill="rgb(50, 49, 63)" stroke="none" stroke-width="1px">4.5k</text></g><line x1="0" y1="0" x2="290" y2="0" fill="rgb(0, 0, 0)" stroke="rgb(204, 204, 204)" stroke-width="1px"></line></g></g></g></g></svg>