<svg viewBox="0 0 330 200" xmlns="http://www.w3.org/2000/svg"><g><g><g><g><g><line x1="72.34375" y1="178" x2="67.34375" y2="178" style="visibility: inherit;" fill="rgb(0, 0, 0)" stroke="rgb(204, 204, 204)" stroke-width="1px"></line><line x1="72.34375" y1="164.30769230769232" x2="67.34375" y2="164.30769230769232" style="visibility: inherit;" fill="rgb(0, 0, 0)" stroke="rgb(204, 204, 204)" stroke-width="1px"></line><line x1="72.34375" y1="150.6153846153846" x2="67.34375" y2="150.6153846153846" style="visibility: inherit;" fill="rgb(0, 0, 0)" stroke="rgb(204, 204, 204)" stroke-width="1px"></line><line x1="72.34375" y1="136.9230769230769" x2="67.34375" y2="136.9230769230769" style="visibility: inherit;" fill="rgb(0, 0, 0)" stroke="rgb(204, 204, 204)" stroke-width="1px"></line><line x1="72.34375" y1="123.23076923076923" x2="67.34375" y2="123.23076923076923" style="visibility: inherit;" fill="rgb(0, 0, 0)" stroke="rgb(204, 204, 204)" stroke-width="1px"></line><line x1="72.34375" y1="109.53846153846155" x2="67.34375" y2="109.53846153846155" style="visibility: inherit;" fill="rgb(0, 0, 0)" stroke="rgb(204, 204, 204)" stroke-width="1px"></line><line x1="72.34375" y1="95.84615384615384" x2="67.34375" y2="95.84615384615384" style="visibility: inherit;" fill="rgb(0, 0, 0)" stroke="rgb(204, 204, 204)" stroke-width="1px"></line><line x1="72.34375" y1="82.15384615384616" x2="67.34375" y2="82.15384615384616" style="visibility: inherit;" fill="rgb(0, 0, 0)" stroke="rgb(204, 204, 204)" stroke-width="1px"></line><line x1="72.34375" y1="68.46153846153845" x2="67.34375" y2="68.46153846153845" style="visibility: inherit;" fill="rgb(0, 0, 0)" stroke="rgb(204, 204, 204)" stroke-width="1px"></line><line x1="72.34375" y1="54.769230769230774" x2="67.34375" y2="54.769230769230774" style="visibility: inherit;" fill="rgb(0, 0, 0)" stroke="rgb(204, 204, 204)" stroke-width="1px"></line><line x1="72.34375" y1="41.076923076923066" x2="67.34375" y2="41.076923076923066" style="visibility: inherit;" fill="rgb(0, 0, 0)" stroke="rgb(204, 204, 204)" stroke-width="1px"></line><line x1="72.34375" y1="27.384615384615387" x2="67.34375" y2="27.384615384615387" style="visibility: inherit;" fill="rgb(0, 0, 0)" stroke="rgb(204, 204, 204)" stroke-width="1px"></line><line x1="72.34375" y1="13.692307692307683" x2="67.34375" y2="13.692307692307683" style="visibility: inherit;" fill="rgb(0, 0, 0)" stroke="rgb(204, 204, 204)" stroke-width="1px"></line><line x1="72.34375" y1="0" x2="67.34375" y2="0" style="visibility: inherit;" fill="rgb(0, 0, 0)" stroke="rgb(204, 204, 204)" stroke-width="1px"></line></g><g transform="translate(62.34375, 0)"><text x="0" y="178" dx="0em" dy="0.3em" style="text-anchor: end; visibility: hidden; font-family: Roboto, sans-serif; font-size: 12px; font-weight: 200;" fill="rgb(50, 49, 63)" stroke="none" stroke-width="1px">-5e+3</text><text x="0" y="164.30769230769232" dx="0em" dy="0.3em" style="text-anchor: end; visibility: inherit; font-family: Roboto, sans-serif; font-size: 12px; font-weight: 200;" fill="rgb(50, 49, 63)" stroke="none" stroke-width="1px">0</text><text x="0" y="150.6153846153846" dx="0em" dy="0.3em" style="text-anchor: end; visibility: hidden; font-family: Roboto, sans-serif; font-size: 12px; font-weight: 200;" fill="rgb(50, 49, 63)" stroke="none" stroke-width="1px">5e+3</text><text x="0" y="136.9230769230769" dx="0em" dy="0.3em" style="text-anchor: end; visibility: inherit; font-family: Roboto, sans-serif; font-size: 12px; font-weight: 200;" fill="rgb(50, 49, 63)" stroke="none" stroke-width="1px">1e+4</text><text x="0" y="123.23076923076923" dx="0em" dy="0.3em" style="text-anchor: end; visibility: hidden; font-family: Roboto, sans-serif; font-size: 12px; font-weight: 200;" fill="rgb(50, 49, 63)" stroke="none" stroke-width="1px">1.5e+4</text><text x="0" y="109.53846153846155" dx="0em" dy="0.3em" style="text-anchor: end; visibility: inherit; font-family: Roboto, sans-serif; font-size: 12px; font-weight: 200;" fill="rgb(50, 49, 63)" stroke="none" stroke-width="1px">2e+4</text><text x="0" y="95.84615384615384" dx="0em" dy="0.3em" style="text-anchor: end; visibility: hidden; font-family: Roboto, sans-serif; font-size: 12px; font-weight: 200;" fill="rgb(50, 49, 63)" stroke="none" stroke-width="1px">2.5e+4</text><text x="0" y="82.15384615384616" dx="0em" dy="0.3em" style="text-anchor: end; visibility: inherit; font-family: Roboto, sans-serif; font-size: 12px; font-weight: 200;" fill="rgb(50, 49, 63)" stroke="none" stroke-width="1px">3e+4</text><text x="0" y="68.46153846153845" dx="0em" dy="0.3em" style="text-anchor: end; visibility: hidden; font-family: Roboto, sans-serif; font-size: 12px; font-weight: 200;" fill="rgb(50, 49, 63)" stroke="none" stroke-width="1px">3.5e+4</text><text x="0" y="54.769230769230774" dx="0em" dy="0.3em" style="text-anchor: end; visibility: inherit; font-family: Roboto, sans-serif; font-size: 12px; font-weight: 200;" fill="rgb(50, 49, 63)" stroke="none" stroke-width="1px">4e+4</text><text x="0" y="41.076923076923066" dx="0em" dy="0.3em" style="text-anchor: end; visibility: hidden; font-family: Roboto, sans-serif; font-size: 12px; font-weight: 200;" fill="rgb(50, 49, 63)" stroke="none" stroke-width="1px">4.5e+4</text><text x="0" y="27.384615384615387" dx="0em" dy="0.3em" style="text-anchor: end; visibility: inherit; font-family: Roboto, sans-serif; font-size: 12px; font-weight: 200;" fill="rgb(50, 49, 63)" stroke="none" stroke-width="1px">5e+4</text><text x="0" y="13.692307692307683" dx="0em" dy="0.3em" style="text-anchor: end; visibility: hidden; font-family: Roboto, sans-serif; font-size: 12px; font-weight: 200;" fill="rgb(50, 49, 63)" stroke="none" stroke-width="1px">5.5e+4</text><text x="0" y="0" dx="0em" dy="0.3em" style="text-anchor: end; visibility: hidden; font-family: Roboto, sans-serif; font-size: 12px; font-weight: 200;" fill="rgb(50, 49, 63)" stroke="none" stroke-width="1px">6e+4</text></g><line x1="72.34375" y1="0" x2="72.34375" y2="178" fill="rgb(0, 0, 0)" stroke="rgb(204, 204, 204)" stroke-width="1px"></line></g></g><g transform="translate(72, 0)" clip-path="url(#clip_0)"><clipPath id="clip_0"><rect width="257" height="178"></rect></clipPath><g><g><g><line x1="0" y1="0" x2="0" y2="178" fill="rgb(0, 0, 0)" stroke="rgb(60, 60, 60)" stroke-width="1px" opacity="0.25"></line><line x1="21.471354166666664" y1="0" x2="21.471354166666664" y2="178" fill="rgb(0, 0, 0)" stroke="rgb(60, 60, 60)" stroke-width="1px" opacity="0.25"></line><line x1="42.94270833333333" y1="0" x2="42.94270833333333" y2="178" fill="rgb(0, 0, 0)" stroke="rgb(60, 60, 60)" stroke-width="1px" opacity="0.25"></line><line x1="64.4140625" y1="0" x2="64.4140625" y2="178" fill="rgb(0, 0, 0)" stroke="rgb(60, 60, 60)" stroke-width="1px" opacity="0.25"></line><line x1="85.88541666666666" y1="0" x2="85.88541666666666" y2="178" fill="rgb(0, 0, 0)" stroke="rgb(60, 60, 60)" stroke-width="1px" opacity="0.25"></line><line x1="107.35677083333334" y1="0" x2="107.35677083333334" y2="178" fill="rgb(0, 0, 0)" stroke="rgb(60, 60, 60)" stroke-width="1px" opacity="0.25"></line><line x1="128.828125" y1="0" x2="128.828125" y2="178" fill="rgb(0, 0, 0)" stroke="rgb(60, 60, 60)" stroke-width="1px" opacity="0.25"></line><line x1="150.29947916666669" y1="0" x2="150.29947916666669" y2="178" fill="rgb(0, 0, 0)" stroke="rgb(60, 60, 60)" stroke-width="1px" opacity="0.25"></line><line x1="171.77083333333331" y1="0" x2="171.77083333333331" y2="178" fill="rgb(0, 0, 0)" stroke="rgb(60, 60, 60)" stroke-width="1px" opacity="0.25"></line><line x1="193.2421875" y1="0" x2="193.2421875" y2="178" fill="rgb(0, 0, 0)" stroke="rgb(60, 60, 60)" stroke-width="1px" opacity="0.25"></line><line x1="214.71354166666669" y1="0" x2="214.71354166666669" y2="178" fill="rgb(0, 0, 0)" stroke="rgb(60, 60, 60)" stroke-width="1px" opacity="0.25"></line><line x1="236.18489583333331" y1="0" x2="236.18489583333331" y2="178" fill="rgb(0, 0, 0)" stroke="rgb(60, 60, 60)" stroke-width="1px" opacity="0.25"></line><line x1="257.65625" y1="0" x2="257.65625" y2="178" fill="rgb(0, 0, 0)" stroke="rgb(60, 60, 60)" stroke-width="1px" opacity="0.25"></line></g><g><line x1="0" y1="178" x2="257.65625" y2="178" fill="rgb(0, 0, 0)" stroke="rgb(60, 60, 60)" stroke-width="1px" opacity="0.25"></line><line x1="0" y1="164.30769230769232" x2="257.65625" y2="164.30769230769232" fill="rgb(0, 0, 0)" stroke="rgb(60, 60, 60)" stroke-width="1px" opacity="0.25"></line><line x1="0" y1="150.6153846153846" x2="257.65625" y2="150.6153846153846" fill="rgb(0, 0, 0)" stroke="rgb(60, 60, 60)" stroke-width="1px" opacity="0.25"></line><line x1="0" y1="136.9230769230769" x2="257.65625" y2="136.9230769230769" fill="rgb(0, 0, 0)" stroke="rgb(60, 60, 60)" stroke-width="1px" opacity="0.25"></line><line x1="0" y1="123.23076923076923" x2="257.65625" y2="123.23076923076923" fill="rgb(0, 0, 0)" stroke="rgb(60, 60, 60)" stroke-width="1px" opacity="0.25"></line><line x1="0" y1="109.53846153846155" x2="257.65625" y2="109.53846153846155" fill="rgb(0, 0, 0)" stroke="rgb(60, 60, 60)" stroke-width="1px" opacity="0.25"></line><line x1="0" y1="95.84615384615384" x2="257.65625" y2="95.84615384615384" fill="rgb(0, 0, 0)" stroke="rgb(60, 60, 60)" stroke-width="1px" opacity="0.25"></line><line x1="0" y1="82.15384615384616" x2="257.65625" y2="82.15384615384616" fill="rgb(0, 0, 0)" stroke="rgb(60, 60, 60)" stroke-width="1px" opacity="0.25"></line><line x1="0" y1="68.46153846153845" x2="257.65625" y2="68.46153846153845" fill="rgb(0, 0, 0)" stroke="rgb(60, 60, 60)" stroke-width="1px" opacity="0.25"></line><line x1="0" y1="54.769230769230774" x2="257.65625" y2="54.769230769230774" fill="rgb(0, 0, 0)" stroke="rgb(60, 60, 60)" stroke-width="1px" opacity="0.25"></line><line x1="0" y1="41.076923076923066" x2="257.65625" y2="41.076923076923066" fill="rgb(0, 0, 0)" stroke="rgb(60, 60, 60)" stroke-width="1px" opacity="0.25"></line><line x1="0" y1="27.384615384615387" x2="257.65625" y2="27.384615384615387" fill="rgb(0, 0, 0)" stroke="rgb(60, 60, 60)" stroke-width="1px" opacity="0.25"></line><line x1="0" y1="13.692307692307683" x2="257.65625" y2="13.692307692307683" fill="rgb(0, 0, 0)" stroke="rgb(60, 60, 60)" stroke-width="1px" opacity="0.25"></line><line x1="0" y1="0" x2="257.65625" y2="0" fill="rgb(0, 0, 0)" stroke="rgb(60, 60, 60)" stroke-width="1px" opacity="0.25"></line></g></g></g><g><g><line x1="0" y1="164.30769230769232" x2="257.65625" y2="164.30769230769232" fill="rgb(0, 0, 0)" stroke="rgb(153, 153, 153)" stroke-width="1.5px"></line></g></g><g><g><line x1="21.471354166666664" y1="0" x2="21.471354166666664" y2="178" fill="rgb(0, 0, 0)" stroke="rgb(153, 153, 153)" stroke-width="1.5px"></line></g></g><g><g><g><g><g><path stroke="rgb(238, 51, 119)" stroke-width="2px" d="M21.664596354166665,164.305638376335L21.922252604166665,164.30574099366527L21.954459635416665,164.3057153284243L22.233587239583333,164.29827192169031L22.480507812499997,164.3011008969148L23.135384114583335,164.3002951854876L23.167591145833335,164.2838416002254L23.264212239583333,164.28908752643687L23.92982421875,164.2828652776712L23.983502604166667,164.2726291764525L24.208951822916667,164.2637992104746L24.33777994791667,164.27347351464476L24.402194010416668,164.2781949709471L24.77794270833333,164.26998797396726L24.799414062500002,164.28188761512072L24.885299479166665,164.27655594163426L25.196634114583333,164.27470897727278L25.41134765625,164.27973165402432L25.99107421875,164.27772586661473L26.409765625,164.28323245618756L26.560065104166668,164.22827153121165L27.225677083333334,164.23211502462763L27.51554036458333,164.25925414157564L27.687311197916667,164.27310884755025L27.7624609375,164.28353827226158L27.77319661458333,164.2882795421492L28.127473958333333,164.28957739519697L28.2777734375,164.29385186347383L28.417337239583333,164.2518652757755L28.567636718750002,164.26936857721165L28.674993489583333,164.28109457841026L29.136627604166666,164.28693270700694L29.222513020833333,164.29215983307077L29.3083984375,164.29378187227874L29.684147135416666,164.29665881332582L29.72708984375,164.29476768851214L29.748561197916665,164.29709666153255L29.898860677083334,164.29805903287752L29.920332031250002,164.299326829125L29.995481770833333,164.2977418457052L30.081367187500003,164.29852242143673L30.145781250000002,164.29815290147084L30.446380208333334,164.29671818909964L31.61656901041667,164.29797289592295L31.895696614583333,164.29967221141536L31.90643229166667,164.29884017534874L31.970846354166667,164.29868557136172L32.03526041666667,164.2989562795048L32.228502604166664,164.29830353562258L32.26070963541667,164.28898961181912L32.35733072916666,164.29291236942748L32.883378906249995,164.25588123466346L32.9155859375,164.27198508353632L33.20544921875,164.28315120906265L33.26986328125,164.28938806621213L33.323541666666664,164.29312424563983L33.881796875,164.29608688115698L33.935475260416666,164.29792305529003L33.9462109375,164.30007274840764L34.139453125,164.29990227888456L34.27901692708333,164.29967470981836L34.82653645833333,164.30096790601257L35.00904296875,164.2952855150074L35.59950520833333,164.29811672985798L35.63171223958334,164.29770167129186L35.78201171875,164.29260665850398L35.824954427083334,164.2860743272745L36.340266927083334,164.2916305579178L36.415416666666665,164.26310931539786L36.6516015625,164.27861631149295L36.780429687499996,164.28388765982646L36.88778645833333,164.28889927405163L37.20985677083333,164.29354104622078L37.32794921875,164.2925690911689L37.47824869791666,164.29592899865838L37.82179036458333,164.29538107859378L38.133125,164.2922036612237L38.30489583333333,164.28584115241097L38.47666666666667,164.29257616759355L38.519609375,164.29352998554688L38.70211588541667,164.29297511740563L39.07786458333334,164.29616599216521L39.52876302083334,164.29847925095228L39.62538411458333,164.29996655359437L39.7434765625,164.28330432246236L39.81862630208333,164.29042139792782L39.91524739583333,164.28397127517684L40.065546875,164.2855804891462L40.08701822916667,164.29224438238424L40.11922526041667,164.29531801459703L40.591595052083335,164.28092708188115L41.07470052083334,164.2885335404295L41.26794270833334,164.29264200049602L41.36456380208333,164.2955598238486L41.50412760416666,164.2963985052024L41.53633463541667,164.2979396159987L41.622220052083335,164.29999449108612L42.05164713541667,164.3006896822551L42.23415364583333,164.3005190249392L42.341510416666665,164.30121054115136L42.37371744791667,164.30083462170433L42.95344401041666,164.29345432321463L43.082272135416666,164.29321761657047L43.32919270833333,164.2952976681138L43.75861979166667,164.29598143456042L43.76935546875,164.28477364985977L43.85524088541666,164.2909420461147L43.89818359375,164.28725820177112L43.97333333333333,164.29023232839486L44.542324218750004,164.28995967595586L44.617473958333335,164.29407489094996L44.95027994791666,164.2965600812891L44.99322265625,164.29748401411663L45.07910807291667,164.29748149050005L45.16499348958334,164.28442879826358L45.207936197916666,164.28966667300816L45.422649739583335,164.29371814575094L45.476328124999995,164.29619170529818L45.487063802083334,164.2958849684116L45.70177734375,164.29802765595142L45.75545572916667,164.29505792568074L45.95943359375,164.29668918499382L46.13120442708333,164.2987347830159L46.23856119791667,164.29798135624213L46.367389322916665,164.29975166154736L46.64651692708333,164.3014879200875L46.743138020833335,164.30264435084788L47.118886718750005,164.29933187190352L47.12962239583334,164.29577418589096L47.15109375,164.29821002469058L47.623463541666666,164.29930293791475L47.70934895833334,164.25939561918477L47.80597005208333,164.26909482791766L47.82744140625,164.26477649215795L47.88111979166666,164.27609619922637L48.149511718750006,164.28624882259956L48.16024739583334,164.28811681768036L48.267604166666665,164.29355919188902L48.289075520833336,164.29471349002802L48.342753906249996,164.28691246580073L48.493053385416665,164.2930703748885L48.557467447916665,164.29576043504193L48.65408854166667,164.2976364708071L48.81512369791667,164.2873409025648L48.87953776041667,164.293207509121L49.448528645833335,164.2957170046275L50.29664713541667,164.297866354102L50.48988932291667,164.2893408869382L50.887109375,164.29260718567218L51.037408854166664,164.29583868792332L51.413157552083334,164.29064269427207L52.304218750000004,164.29539494380177L52.56187499999999,164.29920778817078L53.324108072916665,164.29770585846344L53.409993489583336,164.30070405950798L53.79647786458333,164.298340298817L54.08634114583333,164.29947024127551L54.11854817708333,164.29815450340436L54.74121744791667,164.29988741006423L55.40682942708333,164.302203629139L55.578600260416664,164.30300947802314L55.77184244791667,164.30350134068823L55.782578125,164.30061236996468L56.14759114583334,164.30272565781777L56.254947916666666,164.30081061962284L56.28715494791667,164.30096468556013L56.297890625,164.30147916014465L56.319361979166665,164.30128468076686L56.330097656250004,164.30120554247006L56.95276692708333,164.30126848840484L57.38219401041667,164.30295484891533L57.715,164.30108821008233L58.004863281249996,164.30360498893387L58.05854166666666,164.3031273432244L58.2947265625,164.29851437277142L58.49870442708333,164.30028751480518L58.659739583333334,164.30117007817415L58.83151041666667,164.30088869976586L59.14284505208334,164.28820046769042L59.175052083333334,164.28506246818466L59.44344401041666,164.29198759180701L60.119791666666664,164.29483549911203L60.31303385416667,164.29089660976055L60.33450520833333,164.29301054125824L60.355976562500004,164.27923538591685L60.420390624999996,164.2857624722716L60.720989583333335,164.29057028007597L60.8712890625,164.29171671014694L61.47248697916667,164.29497037342807L61.515429687499996,164.29666689310253L61.63352213541666,164.29826492180123L62.191777343750005,164.29934596322667L62.4172265625,164.299698833212L62.470904947916665,164.29167079025314L62.49237630208333,164.28958324415146L62.59973307291666,164.29419017583047L62.95401041666667,164.29429165097534L63.08283854166666,164.2766764946323L63.641093749999996,164.28428740435947L63.941692708333335,164.28867931978715L64.24229166666666,164.29365450142464L64.65024739583333,164.29395297477353L64.76833984375,164.29542509088617L64.800546875,164.29651492561254L65.41248046875,164.29568531726727L65.46615885416666,164.2962611911233L65.58425130208333,164.29687620282962L66.36795572916667,164.3011778273295L66.49678385416667,164.2974630455153L66.51825520833333,164.29830807140283L66.57193359375,164.29808472022853L66.58266927083334,164.2974663623683L66.85106119791666,164.29815429469596L66.90473958333332,164.29824856576315L66.93694661458333,164.2971247539528L67.02283203125,164.29870928996502L67.23754557291667,164.29813303439124L67.26975260416667,164.29634012769438L67.4415234375,164.28985888630433L67.67770833333333,164.2936197306861L67.81727213541666,164.29801768242368L67.83874348958332,164.29917644082641L68.37552734375001,164.30002358315429L68.63318359374999,164.30051138994736L68.70833333333333,164.29721809538904L68.77274739583333,164.29841299253957L69.03040364583335,164.29879209785375L69.06261067708334,164.29986706716926L69.696015625,164.30068451885134L69.87852213541666,164.3015206871491L70.10397135416667,164.3001238441889L70.61928385416667,164.30141090646046L70.65149088541666,164.30139392848756L71.15606770833334,164.30161172684822L71.45666666666666,164.30185438659038L71.54255208333333,164.30339070119217L71.58549479166666,164.30347423241744L71.67138020833333,164.30363064407382L72.06860026041667,164.30398115680802L72.12227864583333,164.30370688538278L72.4658203125,164.30357754766374L72.55170572916667,164.30383858172848L72.64832682291666,164.30521752254458L72.87377604166666,164.30433221752122L73.00260416666667,164.3037568848795L73.02407552083334,164.30356135663777L73.43203125,164.3032760718685L73.56085937499999,164.3028202587581L74.01175781250001,164.30238648104233L74.74178385416667,164.3024323902214L74.83840494791666,164.30203920807386L74.87061197916667,164.29603046675413L75.6865234375,164.2994867691213L75.70799479166666,164.3008710271763L75.71873046875,164.30139250014238L76.28772135416666,164.30365552267173L76.5883203125,164.30402158023836L77.296875,164.30342160198035L77.71556640624999,164.2989163739103L78.68177734375,164.3008693780031L78.85354817708333,164.30211518433572L79.00384765624999,164.30339071337292L79.65872395833333,164.30422364656687L79.89490885416666,164.3017762693211L80.46389973958334,164.30283869546605L80.67861328125,164.30405853902954L80.70008463541666,164.30312381128218L81.04362630208334,164.30293240209906L81.30128255208334,164.3002428615933L81.45158203125,164.30172477867103L81.91321614583333,164.3028413295859L82.21381510416667,164.30320541782766L82.23528645833333,164.30251429160424L82.27822916666668,164.30195379585405L82.43926432291667,164.30343828624896L82.87942708333333,164.30326346970674L82.91163411458332,164.30410149433192L83.480625,164.30469315699435L83.81343098958332,164.3050229598295L83.82416666666666,164.30225184455463L84.00667317708333,164.3033499547514L84.03888020833332,164.3041495331828L84.40389322916667,164.30433733954885L84.42536458333333,164.30482070198627L84.50051432291667,164.30441053716265L84.88699869791667,164.30439373822313L85.11244791666667,164.30422284799562L85.37010416666666,164.29443197079783L85.42378255208334,164.29866150568876L85.48819661458333,164.30127186789767L85.77805989583334,164.302797524522L85.99277343749999,164.30315322784355L86.04645182291667,164.3035987944769L86.20748697916667,164.30402351145787L86.26116536458333,164.30346319403236L86.72279947916667,164.30192979710037L86.99119140625,164.3034906905607L87.01266276041666,164.3039222699058L87.18443359375,164.3045653680062L87.29179036458333,164.30443239365763L87.82857421874999,164.30439944692708L88.03255208333333,164.29742221771798L88.17211588541667,164.30032856468006L88.23652994791667,164.29385406194365L88.37609375000001,164.29812110295674L88.98802734374999,164.3008277883369L89.23494791666667,164.30272984778395L89.28862630208334,164.30354683719673L89.54628255208334,164.3040482167208L89.66437499999999,164.3036210542848L89.78246744791666,164.30413175266256L89.92203124999999,164.30500762078307L90.1796875,164.30190822177357L91.19957682291667,164.30248218721718L91.2103125,164.30250302248726L91.25325520833334,164.3035881663828L91.46796875,164.30323477066872L92.0476953125,164.30340814409197L92.15505208333335,164.30196831088546L92.35902994791667,164.29838041142165L92.93875651041667,164.30074365408953L93.03537760416665,164.30296039666166L93.09979166666668,164.3039158423344L93.16420572916667,164.30167641548118L93.19641276041668,164.30257999127085L93.2715625,164.26147811129272L93.35744791666667,164.24536175550384L93.38965494791667,164.26590268045615L93.51848307291667,164.27967336294347L93.80834635416666,164.2884658385299L93.8512890625,164.28956343306012L93.96938151041667,164.29587960681246L94.8175,164.29933967113533L94.96779947916666,164.29859918497255L95.05368489583333,164.29606791009007L95.21472005208334,164.29919765251796L95.9125390625,164.29934891891452L96.22387369791667,164.2697910108007L96.25608072916667,164.2792426801698L96.53520833333333,164.28737060810187L96.77139322916666,164.28955812676767L97.59804036458334,164.29108817122545L97.75907552083333,164.2954496993667L97.84496093749999,164.28814479075746L98.09188151041666,164.28850000958394L98.28512369791667,164.29582731051454L98.71455078125,164.29735223818932L98.94,164.2960858873918L99.27280598958333,164.29805566893432L99.841796875,164.29927945665844L99.95988932291667,164.29994814965553L100.15313151041667,164.30042722901499L100.26048828125,164.29867461032535L100.27122395833334,164.29606467728343L100.47520182291667,164.29756457627866L100.72212239583334,164.29815331423399L100.92610026041666,164.30134638677188L101.34479166666667,164.3032270289241L101.37699869791668,164.30409337523776L101.4521484375,164.30472622164575L101.55950520833333,164.3025827882055L101.59171223958333,164.3034263218071L101.75274739583334,164.3044367963335L102.10702473958332,164.30524385886687L102.31100260416667,164.30540924021355L103.15912109374999,164.29210172723594L103.53486979166667,164.28114899557244L103.71737630208334,164.26366079467292L103.87841145833333,164.25036061677145L103.99650390625,164.22768257320666L104.06091796874999,164.21067006549288L104.32930989583333,164.17663129738995L104.38298828125001,164.1609431856887L104.43666666666667,164.08774362437896L104.62990885416667,164.03337639942455L104.74800130208334,164.09706809856587L104.78020833333333,164.14562653080793L104.99492187499999,164.0537532720004L105.08080729166666,164.13119144085667L105.18816406250001,164.19217639397286L105.56391276041667,164.23485348546208L105.61759114583333,164.25497388456057L106.27246744791667,164.26405724238325L106.283203125,164.2659966706464L106.62674479166667,164.27992964399292L107.17426432291666,164.28835463940257L107.26014973958334,164.2934512908918L107.6358984375,164.2964770870198L107.75399088541667,164.2982666727676L107.88281901041667,164.29939627929826L108.06532552083333,164.3000649015705L108.70946614583333,164.3026537943376L109.28919270833335,164.3044164454963L109.33213541666667,164.3053345555743L109.48243489583334,164.30615637102852L109.66494140625,164.3047679179382L109.72935546875,164.30542252468518L110.18025390624999,164.29032448829838L110.35202473958334,164.29561566250635L110.47011718750001,164.29981534870956L110.65262369791667,164.30255654978313L110.86733723958334,164.3030670677665L110.921015625,164.30283263650105L110.94248697916666,164.30323848399115L111.00690104166667,164.3049525283371L111.22161458333333,164.30339263021014L111.25382161458334,164.30246443290116L111.3075,164.30177966152715L111.40412109375,164.30275959502373L112.37033203125,164.3020924170795L112.38106770833333,164.30168746819322L112.40253906250001,164.3014232043938L112.70313802083334,164.30121846596714L112.75681640625,164.30114703252687L112.81049479166667,164.301081685016L113.4331640625,164.30107610164856L113.71229166666667,164.30332098214043L113.80891276041666,164.3024040084925L114.16319010416666,164.3018428294659L114.17392578124999,164.30151705055312L114.27054687500001,164.3013376218272L114.67850260416667,164.30122774655942L114.76438802083334,164.30115250947622L114.81806640625,164.30111495914878L115.16160807291666,164.30110448331644L115.66618489583334,164.30108824657475L115.70912760416667,164.30107487022653L115.95604817708333,164.30106122582046L116.14929036458332,164.30105350560862L116.18149739583333,164.30105168904797L116.40694661458333,164.301056115334L116.5250390625,164.3010477417947L116.7826953125,164.30104292189824L116.85784505208333,164.29905867765606L117.04035156249999,164.28596879314853L117.06182291666666,164.27644413911872L117.09402994791667,164.2519196372047L117.31947916666667,164.24775245061085L117.39462890625,164.24420517102192L117.64154947916667,164.23071140231457L117.82405598958333,164.2143010588711L118.01729817708333,164.1939417695906L118.08171223958333,164.1805027468787L118.18906901041666,164.16428652676115L118.39304687500001,164.14649017937174L118.68291015625,164.11668597877315L118.76879557291667,164.09756128096132L118.99424479166666,164.0655491958041L119.75647786458333,163.9950928922571L120.5187109375,163.88224151510187L120.59386067708334,163.81259558063564L120.88372395833333,163.73694315892826L121.10917317708333,163.6611181786352L121.38830078125001,163.58294657838005L121.484921875,163.5170883297654L121.82846354166666,163.4371302950347L122.05391276041667,163.36196190260677L122.515546875,163.24149798441263L122.54775390625001,163.1707428692984L122.76246744791666,163.10901353144985L122.8376171875,163.03820333033323L123.11674479166666,162.96439702524322L123.8682421875,162.79168374173847L123.96486328125,162.6827158384926L124.04001302083333,162.59454656364244L124.17957682291666,162.53584555762657L124.41576171875,162.43409625059155L124.53385416666667,162.3698469585881L124.65194661458334,162.29642899922138L124.82371744791666,162.23833638766385L125.08137369791666,162.1503112767089L125.14578776041667,162.10537610647003L125.39270833333335,162.01883668476546L125.58595052083334,161.94889434259002L126.24082682291666,161.78603114206243L126.33744791666668,161.6793458967759L126.80981770833333,161.47435519281316L127.11041666666667,161.31783240054367L127.14262369791666,161.25561253978535L127.57205078125,161.06903567290968L127.82970703125,160.92201277544052L128.52752604166668,160.74457573467535L129.36490885416666,160.4168253596754L129.41858723958333,160.27831877049275L129.4507942708333,160.19294595881007L129.60109375,160.06229485293028L129.72992187499997,159.93364686818845L129.97684244791668,159.84948034897798L130.04125651041667,159.80830604893006L130.20229166666667,159.66803585141332L130.3740625,159.54889242731434L130.63171875,159.3965166583117L130.81422526041666,159.32113793969853L131.45836588541667,159.08099843539367L131.57645833333333,158.93098385089965L131.79117187499997,158.9059313276672L131.86632161458334,158.74581416919648L131.92000000000002,158.66859085428231L133.079453125,158.40009837074246L133.11166015625,158.2957256720849L133.33710937499998,158.1660196400298L133.39078776041666,157.96858996911402L133.85242187499998,157.83149351271842L133.97051432291667,157.7251334333522L134.07787109375002,157.62307920965074L134.12081380208335,157.45205388997314L134.43214843750002,157.3063338694406L134.52876953125,157.19041463656822L134.77569010416667,157.02887191595536L134.78642578125,157.020437903179L134.91525390625,156.98503325572952L135.24805989583334,156.93792778396656L135.34468098958334,156.7801569317982L135.5271875,156.69118100703565L135.58086588541664,156.5394266510964L135.67748697916664,156.4179321865713L135.76337239583333,156.3601732632649L135.84925781249999,156.2664569958195L136.03176432291667,156.30236175758787L136.35383463541666,156.24572234000945L136.46119140625,156.1589382627797L136.85841145833334,155.9382138861534L136.95503255208334,155.83823323854298L136.96576822916666,155.71910664985657L137.201953125,155.63941183546683L137.27710286458333,155.53951336630413L137.57770182291665,155.41508672471036L137.68505859375,155.40003533410507L137.73873697916665,155.3589917773861L137.8568294270833,155.1667266018884L137.95345052083334,154.97979363240708L138.10375000000002,154.83668442163176L138.51170572916666,154.763231560431L138.54391276041667,154.78064178181148L138.90892578125,154.53465960634648L138.95186848958332,154.32697310455308L139.1987890625,154.3065791872511L139.263203125,154.19160265958624L139.28467447916665,154.07283985596808L139.7141015625,153.81877408785968L139.77851562499998,153.75312085896581L139.79998697916665,153.70304384049967L139.91807942708334,153.6307678247325L139.97175781250002,153.56231640998374L140.12205729166666,153.6502412732739L140.21867838541667,153.62791153379607L140.39044921875,153.55178981691225L140.65884114583335,153.46151676875314L140.86281901041667,153.19088771750188L140.95944010416667,153.0935048901165L141.15268229166665,153.0753027658007L141.44254557291666,152.9034786907304L141.68946614583334,152.8022658682844L141.7109375,152.7693902541437L141.72167317708332,152.58535505392854L142.355078125,152.4405271970206L142.38728515625002,152.3524853566739L142.48390625000002,152.25360114789856L142.89186197916666,151.963596956768L143.43938151041667,151.64710726059926L143.97616536458335,151.35973170010953L144.06205078125,151.14000051045036L144.44853515625002,150.80577023415483L144.63104166666668,150.4692519421756L144.84575520833334,150.18784802828614L145.14635416666667,150.1191071462986L145.17856119791665,150.06802822407724L145.2537109375,149.8995335630521L145.27518229166665,149.7524578902351L145.45768880208334,149.90944171731414L145.54357421875,149.80442337774426L145.6401953125,149.73592903265617L145.80123046875,149.6064640902668L145.97300130208336,149.5274699144966L146.39169270833335,149.37531602321718L146.52052083333334,149.20351345407457L146.64934895833335,149.01059646787743L146.76744140625001,149.0949893050053L146.91774088541666,148.94669342675317L146.93921223958333,148.8822989406673L147.32569661458334,148.65098045815037L147.71218098958332,148.28048664027483L148.00204427083335,148.12059785555914L148.16307942708335,147.78806953064318L148.48514973958333,147.78379575083784L148.74280598958333,147.36199976420463L148.93604817708334,147.20727840419585L149.29032552083333,147.03167772761367L149.5801888020833,146.7218424959432L149.71975260416664,146.65252440381593L149.74122395833334,146.69689931176072L149.75195963541665,146.73964427455644L149.96667317708335,146.59028751425308L150.02035156250003,146.21708223210953L150.17065104166667,145.98926852195802L150.27800781250002,146.12395006750174L150.33168619791667,146.17402832175105L150.4068359375,145.96843975146408L150.61081380208333,145.996305311215L150.73964192708334,145.88911942470978L151.115390625,145.64798992405665L151.78100260416664,145.16103929698204L151.94203776041664,145.08006527891038L152.06013020833333,144.95747287527894L152.1030729166667,144.75339444031158L152.27484375,144.51494037211964L152.62912109375,144.32939236029102L152.7257421875,144.30090682843422L153.19811197916667,143.85450496845476L153.41282552083334,143.63071296905363L153.44503255208332,143.53320963840332L153.61680338541666,143.60507659434006L153.78857421875,143.546224910931L154.55080729166667,143.18252743453934L154.64742838541667,143.10583552923322L154.980234375,142.90077139566492L155.18421223958333,142.42259028932205L155.21641927083334,142.22029152936244L155.45260416666667,141.84954218925208L156.15042317708335,141.5563472125897L156.23630859375,141.17502100784228L156.4617578125,140.87792206383997L156.69794270833333,140.81550282965014L157.00927734375,140.489893464617L157.50311848958333,140.15803372300098L157.80371744791665,139.94381782995444L158.43712239583334,139.57326498883805L158.60889322916668,139.3455815173413L158.94169921875,139.140643609924L159.25303385416666,138.7002664303775L159.52142578125,138.4840755192842L159.57510416666665,138.40681962647434L159.71466796874998,137.98793262925L159.8542317708333,137.91181276264615L159.91864583333333,137.4738444604723L160.36954427083333,137.16436201282184L160.38027994791668,137.50326122211618L160.59499348958335,137.211155290962L161.21766276041666,136.74044917217336L161.40016927083332,136.8400473037848L161.69003255208332,136.83202177169395L161.70076822916667,136.52921476974714L161.78665364583333,136.37414927050213L161.9154817708333,136.2739536007628L162.04430989583335,136.31977722055385L162.20534505208335,135.86827916887077L162.24828776041667,135.4429482224763L162.43079427083333,135.34093555608194L162.62403645833334,135.01162508364916L162.81727864583334,135.05065578336257L162.97831380208333,135.20610441953679L163.08567057291665,135.206220981049L163.11787760416667,135.29104951170632L163.24670572916668,134.72005485125456L163.25744140625,134.34810089152197L163.30038411458332,134.16701096760548L163.60098307291665,134.0774952223902L163.8801106770833,133.89484916468413L164.23438802083334,133.9029704483297L164.39542317708333,133.92809178822858L164.78190755208334,133.9182584984179L165.3508984375,133.34614202212768L165.39384114583333,133.31910560991122L165.6085546875,133.21186414719674L166.13460286458334,132.61516555562574L166.4459375,131.86225703770236L166.89683593750001,131.47430524425604L167.44435546875,131.12556139174595L167.60539062499998,130.80030379418218L167.69127604166667,130.59532393516315L167.75569010416666,130.3495481110979L168.29247395833335,129.73034410704335L168.32468098958336,129.90608077912987L168.35688802083334,129.64003977757406L168.49645182291667,129.3914761501983L168.78631510416668,129.35213637521514L169.05470703125,129.40625347176368L169.12985677083333,128.74325933065438L169.36604166666666,128.92557704070032L169.59149088541665,128.62910948163173L169.73105468749998,128.1338305567675L170.10680338541667,128.0001044278105L170.35372395833335,127.94562098601321L170.38593098958336,127.5721454281464L170.5254947916667,127.40662038188783L170.56843750000002,127.76624797432501L171.09448567708333,127.28694415719117L171.10522135416667,126.91969510008393L171.30919921875,126.27657320187728L171.34140625,126.3320127672802L171.43802734375,126.27730022046428L171.44876302083333,126.47276197122088L171.51317708333332,126.23565000725175L171.727890625,125.87828309329336L171.74936197916665,126.09851455549524L172.62968750000002,125.24498164195099L172.6941015625,125.31903707411291L173.49927734374998,124.73145159542929L174.14341796875001,123.89498848129602L174.20783203125,123.74175313685453L174.45475260416669,123.48266843259348L174.85197265625,123.20858339128687L174.86270833333333,123.1270917054452L174.92712239583332,122.44244894153636L175.02374348958332,122.16967853559488L175.20625,122.18829620789539L175.335078125,121.93945844589109L175.3994921875,122.20117640166926L175.61420572916666,122.01976007177079L175.65714843749998,122.21524213681248L176.03289713541665,121.49585007776057L176.56968098958333,121.09406086396402L176.82733723958333,120.90944991982073L177.0742578125,120.61867550477704L177.4607421875,120.59782036296237L177.71839843749999,120.3330457634505L177.73986979166665,119.60397447730107L177.75060546875,119.92423085224603L178.39474609375,119.11902093923224L178.55578125,118.49659715488549L178.62019531250002,118.81500877370053L178.942265625,118.01198350941263L179.03888671875,118.02095842295527L179.08182942708333,118.21450349127316L179.14624348958333,118.12223574861004L179.31801432291667,117.9629932760891L179.7796484375,117.32886086949961L179.9084765625,116.65299983900745L180.13392578124999,116.68729298032756L180.14466145833333,117.29053218242728L180.1876041666667,117.15924882868715L180.23054687500002,117.24465386451998L180.27348958333334,116.48937931390431L180.45599609375,116.7169704489195L180.52041015625002,116.26301654819787L180.56335286458335,116.61162245295716L180.85321614583333,116.65981580350507L181.14307942708334,116.00344892921841L181.34705729166666,115.99906584791567L181.69059895833334,115.43106135971095L181.70133463541666,115.39523770524964L181.7120703125,115.0329804837267L181.9697265625,114.4208341315822L182.66754557291668,113.56962165683392L182.79637369791666,113.43283751333112L183.47272135416665,113.00188488780636L183.92361979166665,112.69371078845303L183.96656249999998,112.71736584807182L184.43893229166667,112.66723926845847L184.64291015625,111.66988308030587L185.04013020833332,111.41508638664504L185.36220052083334,111.09484130314088L185.43735026041665,111.03692165688452L185.54470703125,110.5899522489384L185.73794921875,110.6823896185938L185.98486979166665,110.51109886731012L186.1673763020833,110.21158093096302L186.23179036458336,110.07838336627012L186.30694010416667,109.93013379380054L186.81151692708335,109.95370486762647L186.8651953125,110.03654438692203L187.03696614583333,109.12983612734553L187.10138020833332,108.27652975333038L187.20873697916667,107.99736650584438L187.40197916666668,107.6254445429297L187.58448567708334,108.20944220652706L187.60595703125,108.35951592487777L187.94949869791665,108.28966395396512L188.16421223958332,107.54021132910985L188.28230468750002,107.4175569897736L188.78688151041666,107.2497784246334L188.91570963541668,106.50193794420312L189.03380208333334,105.87274336748341L189.72088541666665,104.93737419356697L190.05369140624998,104.89686473248634L190.45091145833334,103.9750817721841L190.70856770833333,103.56461738061816L190.80518880208334,103.6714376879863L190.86960286458333,103.14969593009947L191.03063802083332,103.26835222152123L191.21314453125,102.59657784733582L191.36344401041666,102.81207391993995L191.39565104166667,102.88630495292553L191.59962890625,102.93796785156299L191.8036067708333,103.0844880186301L193.01673828125,102.65482874867806L193.10262369791667,102.29008128766836L193.16703776041666,101.91900430144716L193.42469401041666,101.62901762894522L193.4354296875,101.60141992832867L193.84338541666665,100.69348779834336L194.13324869791666,100.45377174150599L194.26207682291667,99.18551482374974L194.48752604166668,98.96069581732677L195.12093098958334,98.24111720193451L195.26049479166667,98.14409560962225L195.3678515625,97.62198726961951L195.41079427083332,97.67314945311786L195.67918619791666,97.50713109013994L195.91537109375,97.37283360600705L196.68833984375001,96.08775564437344L196.92452473958335,95.09802345873946L196.96746744791668,95.59394635889754L196.98893880208334,94.8399522624539L196.99967447916666,95.41908291997234L197.10703125,94.36188886256032L197.32174479166667,94.06126252426697L197.60087239583333,94.08325261071401L197.96588541666665,94.47981630200533L198.06250651041665,93.77944420428011L198.66370442708333,93.4173469312219L199.24343098958335,93.52280128373313L199.52255859375,92.8122274529322L199.57623697916665,91.76526433233623L199.79095052083332,91.5818061955556L200.33847005208335,91.27180222694875L200.38141276041668,90.9656241727077L200.72495442708333,90.13210181131693L201.25100260416667,89.0643416877517L201.46571614583334,88.95916823380487L201.8092578125,88.84929423355216L201.9166145833333,88.36912404013128L201.92735026041666,87.92354113080955L202.19574218749997,88.61547446213957L202.24942057291665,87.2426415763222L202.29236328124998,87.3543596573318L202.44266276041668,87.137854904976L202.89356119791668,86.59696460163944L203.161953125,87.28713739079136L203.96712890625,86.20966738639788L204.68641927083334,84.7229975712618L205.01922526041668,85.12989719660324L205.38423828125,84.22386387084657L205.39497395833334,83.46586298596948L205.63115885416667,83.7209786569663L206.03911458333332,82.49947942975672L206.09279296875,83.04428614343094L206.14647135416666,83.15368283990473L206.25382812499998,82.97136386259669L206.54369140625002,82.00633161082723L206.55442708333334,81.53470915880403L206.62957682291668,81.23742508662859L206.77987630208335,80.73149185486179L206.89796875000002,81.66138419945553L207.0912109375,81.35933785140408L207.11268229166666,81.133047374304L207.35960286458334,80.77548123708239L207.37033854166665,81.18182780474945L207.38107421875,81.26961617804196L207.41328125,81.3502578799021L207.61725911458333,80.61756948755665L207.9930078125,79.98524577907244L208.17551432291665,79.71830604917423L208.31507812499999,80.22050545642762L208.32581380208333,79.16003310558735L208.43317057291668,78.48144688258317L208.55126302083335,78.48250776897297L208.65861979166667,79.5273047094607L208.74450520833335,78.50709881125334L208.85186197916667,79.01759688290588L209.37791015625,77.45359495666659L209.46379557291667,76.66823957015382L209.50673828125,76.2425832132461L209.80733723958332,75.5776161058323L209.95763671875,75.28427413465324L210.02205078125,75.66794416829194L210.17235026041666,75.61663876059056L210.19382161458333,76.0766263332774L210.26897135416667,75.21943065573568L210.3119140625,75.38390940305678L210.34412109374998,75.18713590625717L210.35485677083335,74.6095686591389L210.39779947916668,75.35773686856025L210.66619140625002,75.99398493363617L210.77354817708334,75.63981074383557L210.81649088541667,74.78171178283978L210.98826171875,74.07379942547311L211.13856119791666,74.72703455913L211.52504557291667,74.47885169701647L211.53578124999999,74.50862659513294L211.61093098958332,74.46703268784901L211.7290234375,75.24053470886324L212.05109374999998,74.40799149839486L212.25507161458333,74.20658562019075L212.26580729166665,73.73482536249907L212.31948567708332,73.46450733288404L212.60934895833336,73.76898887088427L212.80259114583333,72.81160063022286L213.0173046875,72.61095484928757L214.20896484374998,70.86861084226483L214.30558593749998,70.49434573612814L214.47735677083335,70.80240888398458L214.50956380208333,71.18515196500614L214.60618489583334,70.55788185208061L214.90678385416666,69.46024324586375L215.271796875,68.91445902444131L215.28253255208332,68.05783214543402L215.37915364583333,67.33467178726042L215.41136067708334,68.3760917742793L215.83005208333333,66.79839915110604L215.99108723958332,66.01881261566363L216.09844401041664,66.34745665593665L216.25947916666667,67.19074884933123L216.28095052083333,67.91689647306028L216.36683593749999,67.46011187422077L216.53860677083335,66.92983236491709L216.75332031250002,67.21085715933486L217.01097656250002,66.85358472829323L217.24716145833332,66.11887078889903L217.54776041666668,65.31422069449326L217.67658854166666,65.12169044554211L218.12748697916666,64.35539402694063L218.15969401041664,63.05392862770285L218.59985677083336,63.045689195852475L218.6857421875,62.992009479049955L219.55533203125,63.34658794704535L219.56606770833332,63.46013853745798L220.50007161458333,61.47863312247477L220.58595703125002,60.07865011386948L221.05832682291668,59.02117511639862L221.0690625,59.586641175608406L221.61658203125,58.12996499382658L221.713203125,57.945559525142116L222.26072265624998,56.982629993931404L222.36807942708333,56.75073568866652L222.44322916666667,56.204128865122996L222.49690755208334,55.63583054022765L222.75456380208334,55.832980631828896L223.15178385416667,56.44233674448195L223.33429036458332,55.74318521976611L223.78518880208333,54.80900901647506L224.30050130208332,54.57934367911579L224.32197265624998,53.07587370746948L224.72992838541668,53.42205095525091L224.9983203125,53.977400717381315L225.20229817708335,53.086252978505705L225.2559765625,52.86138702748804L225.30965494791667,52.973142937646664L225.50289713541667,52.226578166434166L225.55657552083332,52.16390233255281L225.61025390625,50.56906639953168L225.73908203125,51.002053878180554L225.96453125,51.630019682677556L226.46910807291667,51.77032873268346L226.69455729166668,51.327274739610075L227.09177734375,48.8848232572276L227.26354817708332,49.75686890625962L227.62856119791667,48.12746442067885L227.74665364583333,48.86173672933039L227.88621744791666,47.64390064336746L228.2834375,47.6019306264051L228.35858723958333,45.8917261643046L228.40152994791666,44.97488521781353L228.669921875,46.194635505688126L228.94904947916666,45.46657332264365L229.3784765625,43.63645384935541L229.81863932291665,42.74466105961325L229.85084635416666,43.87868625115255L229.90452473958334,45.26342511607616L230.44130859375,43.985079685030314L230.6560221354167,42.76329954178742L230.81705729166669,43.45646073468785L230.84926432291667,43.39748254658195L230.87073567708333,43.668828999103006L231.08544921875,42.89272538023105L231.14986328125,42.106569074292466L231.39678385416667,41.99365226188316L231.66517578124999,42.34875486674528L231.68664713541668,41.45872133350872L231.8262109375,40.14906621356678L232.05166015625,39.12948982429391L232.25563802083332,38.392694711884054L232.3200520833333,37.614030769438116L232.47035156249999,37.164067596278265L232.58844401041668,37.76806969238233L232.68506510416668,37.17160720004479L232.7280078125,37.050362733488434L233.17890625,36.93969691893922L233.25405598958335,36.05533180520968L233.29699869791668,36.5291761504335L233.35067708333332,36.480712613337026L233.36141276041667,36.11769194300222L233.79083984375,35.665890838878255L233.99481770833333,35.3594198398654L234.28468098958334,34.80713286545771L234.53160156250001,35.76074952696695L234.84293619791669,34.716688081564776L235.28309895833334,33.323554723938884L235.39045572916666,33.06041966128639L235.51928385416667,32.51882025831029L235.70179036458333,33.35156662614002L235.87356119791667,33.1767784372225L235.95944661458333,32.93101595656426L236.05606770833333,32.728280054707795L236.13121744791667,32.0618943309016L236.56064453125,31.854563906233256L236.63579427083334,32.78502959373994L236.70020833333334,31.40652352547474L236.75388671875,31.241340269130998L236.78609375000002,32.206507719170915" style="fill: none;" fill="none"></path></g></g></g></g><g opacity="0.2"><g><g><g><path stroke="rgb(238, 51, 119)" stroke-width="2px" d="M21.664596354166665,164.305638376335L21.922252604166665,164.30580256406344L21.954459635416665,164.30569068979298L22.233587239583333,164.28951847537115L22.480507812499997,164.3047944069679L23.135384114583335,164.2991805965277L23.167591145833335,164.2603127100431L23.264212239583333,164.29673613721408L23.92982421875,164.27368866935143L23.983502604166667,164.25742975909893L24.208951822916667,164.25063434864924L24.33777994791667,164.28793232376393L24.402194010416668,164.2852617390266L24.77794270833333,164.25769355685895L24.799414062500002,164.2997230892695L24.885299479166665,164.26856219171378L25.196634114583333,164.271939312304L25.41134765625,164.28726439389447L25.99107421875,164.27471749106186L26.409765625,164.29149183722276L26.560065104166668,164.1458331579355L27.225677083333334,164.23788013827985L27.51554036458333,164.2999622811831L27.687311197916667,164.29389074238998L27.7624609375,164.29918233520067L27.77319661458333,164.29539142676134L28.127473958333333,164.29152417144775L28.2777734375,164.30026355932677L28.417337239583333,164.1888854329036L28.567636718750002,164.29562351969204L28.674993489583333,164.29868357631977L29.136627604166666,164.29568989874033L29.222513020833333,164.30000052154247L29.3083984375,164.29621493097451L29.684147135416666,164.30097422477283L29.72708984375,164.2919310013404L29.748561197916665,164.30059012102714L29.898860677083334,164.299502589886L29.920332031250002,164.30122852348916L29.995481770833333,164.2953643705808L30.081367187500003,164.29969328503242L30.145781250000002,164.29759862152247L30.446380208333334,164.29456612054383L31.61656901041667,164.2998549561574L31.895696614583333,164.3022211846535L31.90643229166667,164.29759212124898L31.970846354166667,164.2984536653812L32.03526041666667,164.2993623417194L32.228502604166664,164.29732441979922L32.26070963541667,164.27501872611413L32.35733072916666,164.29879650584002L32.883378906249995,164.20033453251764L32.9155859375,164.29614085684557L33.20544921875,164.29990039735208L33.26986328125,164.29874335193634L33.323541666666664,164.29872851478137L33.881796875,164.30053083443275L33.935475260416666,164.30067731648958L33.9462109375,164.30329728808402L34.139453125,164.29964657459993L34.27901692708333,164.29933335621908L34.82653645833333,164.30290770030388L35.00904296875,164.28676192849966L35.59950520833333,164.30236355213387L35.63171223958334,164.2970790834427L35.78201171875,164.2849641393221L35.824954427083334,164.27627583043025L36.340266927083334,164.29996490388282L36.415416666666665,164.22032745161792L36.6516015625,164.3018768056356L36.780429687499996,164.2917946823267L36.88778645833333,164.29641669538938L37.20985677083333,164.30050370447452L37.32794921875,164.29111115859106L37.47824869791666,164.30096885989263L37.82179036458333,164.2945591984969L38.133125,164.28743753516858L38.30489583333333,164.27629738919185L38.47666666666667,164.3026786903675L38.519609375,164.2949607124769L38.70211588541667,164.29214281519376L39.07786458333334,164.30095230430456L39.52876302083334,164.30194913913286L39.62538411458333,164.3021975075575L39.7434765625,164.25831097576435L39.81862630208333,164.30109701112602L39.91524739583333,164.27429609105036L40.065546875,164.28799431010026L40.08701822916667,164.30224022224132L40.11922526041667,164.29992846291614L40.591595052083335,164.25934068280733L41.07470052083334,164.29994322825212L41.26794270833334,164.29880469059577L41.36456380208333,164.2999365588775L41.50412760416666,164.29765652723313L41.53633463541667,164.3002512821931L41.622220052083335,164.30307680371726L42.05164713541667,164.30173246900853L42.23415364583333,164.30026303896537L42.341510416666665,164.3022478154696L42.37371744791667,164.30027074253374L42.95344401041666,164.28238387548006L43.082272135416666,164.29286255660423L43.32919270833333,164.29841774542882L43.75861979166667,164.29700708423027L43.76935546875,164.26796197280882L43.85524088541666,164.30019464049707L43.89818359375,164.2817324352558L43.97333333333333,164.29469351833052L44.542324218750004,164.2895506972973L44.617473958333335,164.3002477134411L44.95027994791666,164.30028786679782L44.99322265625,164.29886991335795L45.07910807291667,164.29747770507518L45.16499348958334,164.26484975990883L45.207936197916666,164.29752348512503L45.422649739583335,164.29979535486515L45.476328124999995,164.29990204461905L45.487063802083334,164.2954248630817L45.70177734375,164.30124168726115L45.75545572916667,164.2906033302747L45.95943359375,164.29913607396347L46.13120442708333,164.301803180049L46.23856119791667,164.29685121608148L46.367389322916665,164.30240711950523L46.64651692708333,164.30409230789772L46.743138020833335,164.30437899698845L47.118886718750005,164.29436315348698L47.12962239583334,164.2904376568721L47.15109375,164.30186378289002L47.623463541666666,164.300942307751L47.70934895833334,164.1995346410898L47.80597005208333,164.28364364101702L47.82744140625,164.25829898851836L47.88111979166666,164.293075759829L48.149511718750006,164.3014777576593L48.16024739583334,164.29091881030155L48.267604166666665,164.301722753202L48.289075520833336,164.2964449372365L48.342753906249996,164.2752109294598L48.493053385416665,164.30230723852011L48.557467447916665,164.2997955252721L48.65408854166667,164.30045052445485L48.81512369791667,164.2718975502014L48.87953776041667,164.30200741895527L49.448528645833335,164.29948124788726L50.29664713541667,164.3010903783138L50.48988932291667,164.27655268619245L50.887109375,164.2975066337732L51.037408854166664,164.30068594130003L51.413157552083334,164.28284870379522L52.304218750000004,164.30252331809632L52.56187499999999,164.30492705472432L53.324108072916665,164.2954529639024L53.409993489583336,164.3052013610748L53.79647786458333,164.29479465778056L54.08634114583333,164.3011651549633L54.11854817708333,164.29618089659763L54.74121744791667,164.302486770054L55.40682942708333,164.3056779577512L55.578600260416664,164.30421825134937L55.77184244791667,164.30423913468582L55.782578125,164.29627891387938L56.14759114583334,164.3058955895974L56.254947916666666,164.2979380623304L56.28715494791667,164.30119578446607L56.297890625,164.30225087202146L56.319361979166665,164.30099296170013L56.330097656250004,164.3010868350249L56.95276692708333,164.30136290730698L57.38219401041667,164.30548438968108L57.715,164.29828825183282L58.004863281249996,164.30738015721118L58.05854166666666,164.30241087466018L58.2947265625,164.29159491709197L58.49870442708333,164.30294722785584L58.659739583333334,164.30249392322762L58.83151041666667,164.30046663215342L59.14284505208334,164.26916811957727L59.175052083333334,164.28035546892605L59.44344401041666,164.30237527724046L60.119791666666664,164.29910736006957L60.31303385416667,164.28498827573335L60.33450520833333,164.29618143850473L60.355976562500004,164.2585726529048L60.420390624999996,164.2955531018037L60.720989583333335,164.29778199178256L60.8712890625,164.29343635525336L61.47248697916667,164.2998508683498L61.515429687499996,164.29921167261418L61.63352213541666,164.30066196484933L62.191777343750005,164.3009675253648L62.4172265625,164.30022813819005L62.470904947916665,164.27962872581483L62.49237630208333,164.28645192499894L62.59973307291666,164.30110057334898L62.95401041666667,164.29444386369266L63.08283854166666,164.25025376011774L63.641093749999996,164.29570376895026L63.941692708333335,164.2952671929286L64.24229166666666,164.3011172738809L64.65024739583333,164.29440068479684L64.76833984375,164.29763326505514L64.800546875,164.2981496777021L65.41248046875,164.29444090474937L65.46615885416666,164.29712500190735L65.58425130208333,164.29779872038915L66.36795572916667,164.30763026407928L66.49678385416667,164.2918908727939L66.51825520833333,164.29957561023417L66.57193359375,164.29774969346707L66.58266927083334,164.29653882557795L66.85106119791666,164.2991861931874L66.90473958333332,164.298389972364L66.93694661458333,164.29543903623727L67.02283203125,164.3010860939833L67.23754557291667,164.2972686510306L67.26975260416667,164.29365076764913L67.4415234375,164.28013702421921L67.67770833333333,164.2992609972587L67.81727213541666,164.3046146100301L67.83874348958332,164.30091457843048L68.37552734375001,164.30129429664612L68.63318359374999,164.30124310013696L68.70833333333333,164.29227815355154L68.77274739583333,164.30020533826536L69.03040364583335,164.29936075582503L69.06261067708334,164.3014795211425L69.696015625,164.30191069637445L69.87852213541666,164.30277493959574L70.10397135416667,164.2980285797486L70.61928385416667,164.3033414998678L70.65149088541666,164.3013684615282L71.15606770833334,164.3019384243892L71.45666666666666,164.30221837620368L71.54255208333333,164.30569517309482L71.58549479166666,164.30359952925537L71.67138020833333,164.3038652615584L72.06860026041667,164.30450692590932L72.12227864583333,164.30329547824493L72.4658203125,164.30338354108517L72.55170572916667,164.30423013282555L72.64832682291666,164.30728593376875L72.87377604166666,164.30300425998615L73.00260416666667,164.30289388591692L73.02407552083334,164.30326806427516L73.43203125,164.30284814471463L73.56085937499999,164.30213653909243L74.01175781250001,164.30173581446869L74.74178385416667,164.30250125399002L74.83840494791666,164.3014494348526L74.87061197916667,164.2870173547745L75.6865234375,164.30467122267208L75.70799479166666,164.30294741425882L75.71873046875,164.3021747095915L76.28772135416666,164.30705005646578L76.5883203125,164.30457066658826L77.296875,164.30252163459338L77.71556640624999,164.29215853180517L78.68177734375,164.30379888414237L78.85354817708333,164.3039838938346L79.00384765624999,164.30530400692868L79.65872395833333,164.30547304635783L79.89490885416666,164.29810520345248L80.46389973958334,164.3044323346835L80.67861328125,164.30588830437478L80.70008463541666,164.30172171966112L81.04362630208334,164.30264528832436L81.30128255208334,164.29620855083465L81.45158203125,164.30394765428764L81.91321614583333,164.30451615595817L82.21381510416667,164.30375155019027L82.23528645833333,164.3014776022691L82.27822916666668,164.3011130522288L82.43926432291667,164.30566502184135L82.87942708333333,164.30300124489344L82.91163411458332,164.30535853126966L83.480625,164.305580650988L83.81343098958332,164.30551766408223L83.82416666666666,164.2980951716423L84.00667317708333,164.3049971200466L84.03888020833332,164.30534890082984L84.40389322916667,164.30461904909794L84.42536458333333,164.30554574564238L84.50051432291667,164.30379528992725L84.88699869791667,164.30436853981385L85.11244791666667,164.30396651265437L85.37010416666666,164.27974565500114L85.42378255208334,164.30500580802513L85.48819661458333,164.30518741121108L85.77805989583334,164.3050860094584L85.99277343749999,164.3036867828259L86.04645182291667,164.30426714442694L86.20748697916667,164.30466058692932L86.26116536458333,164.30262271789402L86.72279947916667,164.2996297017024L86.99119140625,164.30583203075116L87.01266276041666,164.3045696389235L87.18443359375,164.30553001515682L87.29179036458333,164.3042329321348L87.82857421874999,164.30435002683126L88.03255208333333,164.2869563739043L88.17211588541667,164.3046880851232L88.23652994791667,164.28414230783903L88.37609375000001,164.3045216644764L88.98802734374999,164.30488781640713L89.23494791666667,164.3055829369545L89.28862630208334,164.3047723213159L89.54628255208334,164.30480028600692L89.66437499999999,164.3029803106308L89.78246744791666,164.30489780022916L89.92203124999999,164.3063214229639L90.1796875,164.29725912325932L91.19957682291667,164.3033431353826L91.2103125,164.3025342753924L91.25325520833334,164.30521588222615L91.46796875,164.3027046770976L92.0476953125,164.30366820422685L92.15505208333335,164.29980856107565L92.35902994791667,164.29299856222593L92.93875651041667,164.30428851809134L93.03537760416665,164.3062855105198L93.09979166666668,164.30534901084349L93.16420572916667,164.29831727520136L93.19641276041668,164.30393535495537L93.2715625,164.19982529132548L93.35744791666667,164.22118722182054L93.38965494791667,164.2967140678846L93.51848307291667,164.30032938667443L93.80834635416666,164.3016545519095L93.8512890625,164.2912098248555L93.96938151041667,164.30535386744097L94.8175,164.30452976761964L94.96779947916666,164.2974884557284L95.05368489583333,164.29227099776637L95.21472005208334,164.30389226615978L95.9125390625,164.2995758185093L96.22387369791667,164.22545414862998L96.25608072916667,164.29342018422346L96.53520833333333,164.2995625L96.77139322916666,164.29283940476637L97.59804036458334,164.2933832379121L97.75907552083333,164.3019919915786L97.84496093749999,164.27718742784353L98.09188151041666,164.28903283782373L98.28512369791667,164.3068182619104L98.71455078125,164.29963962970146L98.94,164.29418636119547L99.27280598958333,164.30101034124814L99.841796875,164.30111513824463L99.95988932291667,164.30095118915116L100.15313151041667,164.30114584805415L100.26048828125,164.29604568229087L100.27122395833334,164.29214977772054L100.47520182291667,164.29981442477154L100.72212239583334,164.29903642116693L100.92610026041666,164.30613599557876L101.34479166666667,164.30604799215243L101.37699869791668,164.30539289470818L101.4521484375,164.3056754912578L101.55950520833333,164.29936763804508L101.59171223958333,164.30469162220956L101.75274739583334,164.3059525081231L102.10702473958332,164.30645445266686L102.31100260416667,164.30565731223362L103.15912109374999,164.27214045776952L103.53486979166667,164.26471989807715L103.71737630208334,164.2374284933237L103.87841145833333,164.23041034991925L103.99650390625,164.19366550785944L104.06091796874999,164.1851513039222L104.32930989583333,164.1255731452355L104.38298828125001,164.13741101813682L104.43666666666667,163.97794428241437L104.62990885416667,163.95182556199293L104.74800130208334,164.19260564727784L104.78020833333333,164.21846417917104L104.99492187499999,163.91594338378906L105.08080729166666,164.2473486941411L105.18816406250001,164.28365382364714L105.56391276041667,164.29886912269592L105.61759114583333,164.2851544832083L106.27246744791667,164.2776822791173L106.283203125,164.2689058130411L106.62674479166667,164.30082910401273L107.17426432291666,164.300992132517L107.26014973958334,164.3010962681257L107.6358984375,164.30101578121185L107.75399088541667,164.30095105138926L107.88281901041667,164.30109068909425L108.06532552083333,164.30106783497882L108.70946614583333,164.3065371334883L109.28919270833335,164.30706042223434L109.33213541666667,164.30671172069128L109.48243489583334,164.3073890942099L109.66494140625,164.30268523830267L109.72935546875,164.30640443480564L110.18025390624999,164.26767743371818L110.35202473958334,164.3035524238183L110.47011718750001,164.30611487801443L110.65262369791667,164.30666835139348L110.86733723958334,164.30383284474155L110.921015625,164.30248098960288L110.94248697916666,164.3038472552263L111.00690104166667,164.30752359485604L111.22161458333333,164.3010527830197L111.25382161458334,164.30107213693768L111.3075,164.30075250446612L111.40412109375,164.3042294952686L112.37033203125,164.30109165016322L112.38106770833333,164.30108004486377L112.40253906250001,164.3010268086947L112.70313802083334,164.30091135832714L112.75681640625,164.30103988236647L112.81049479166667,164.3009836637497L113.4331640625,164.3010677265974L113.71229166666667,164.30668830287823L113.80891276041666,164.30102854802058L114.16319010416666,164.301001060926L114.17392578124999,164.30102838218394L114.27054687500001,164.30106847873833L114.67850260416667,164.30106293365773L114.76438802083334,164.30103965385143L114.81806640625,164.3010586336576L115.16160807291666,164.3010887695679L115.66618489583334,164.30106389146218L115.70912760416667,164.30105480570427L115.95604817708333,164.30104075921133L116.14929036458332,164.30104192529092L116.18149739583333,164.30104896420698L116.40694661458333,164.30106275476308L116.5250390625,164.3010351814857L116.7826953125,164.30103569205357L116.85784505208333,164.2960823112928L117.04035156249999,164.26633396638724L117.06182291666666,164.26215715807402L117.09402994791667,164.21513288433368L117.31947916666667,164.24150167072003L117.39462890625,164.23888425163855L117.64154947916667,164.2104707492535L117.82405598958333,164.18968554370588L118.01729817708333,164.16340283566987L118.08171223958333,164.16034421281083L118.18906901041666,164.13996219658486L118.39304687500001,164.11979565828764L118.68291015625,164.07197967787522L118.76879557291667,164.06887423424354L118.99424479166666,164.01753106806828L119.75647786458333,163.8894084369366L120.5187109375,163.712964449369L120.59386067708334,163.70812667893628L120.88372395833333,163.6234645263672L121.10917317708333,163.54738070819562L121.38830078125001,163.4656891779973L121.484921875,163.41830095684344L121.82846354166666,163.3171932429387L122.05391276041667,163.24920931396485L122.515546875,163.0608021071214L122.54775390625001,163.0646101966271L122.76246744791666,163.01641952467696L122.8376171875,162.93198802865837L123.11674479166666,162.85368756760818L123.8682421875,162.53261381648136L123.96486328125,162.5192639836238L124.04001302083333,162.4622926513672L124.17957682291666,162.44779404860276L124.41576171875,162.28147229003906L124.53385416666667,162.27347302058294L124.65194661458334,162.18630206017127L124.82371744791666,162.15119747032753L125.08137369791666,162.01827361027645L125.14578776041667,162.0379733511118L125.39270833333335,161.88902755220852L125.58595052083334,161.8439808293269L126.24082682291666,161.54173634127102L126.33744791666668,161.51931802884616L126.80981770833333,161.166869136869L127.11041666666667,161.08304821213943L127.14262369791666,161.16228274864784L127.57205078125,160.78917037259615L127.82970703125,160.70147842923677L128.52752604166668,160.47842017352764L129.36490885416666,159.92519979717548L129.41858723958333,160.07055888671877L129.4507942708333,160.06488674128607L129.60109375,159.86631819411056L129.72992187499997,159.7406748910757L129.97684244791668,159.72323057016226L130.04125651041667,159.74654459885818L130.20229166666667,159.45763055513822L130.3740625,159.37017729116587L130.63171875,159.1679530048077L130.81422526041666,159.20806986177885L131.45836588541667,158.7207891789363L131.57645833333333,158.70596197415864L131.79117187499997,158.8683525428185L131.86632161458334,158.50563843149038L131.92000000000002,158.55275588191105L133.079453125,157.99735964543268L133.11166015625,158.13916662409855L133.33710937499998,157.97146059194714L133.39078776041666,157.67244546274037L133.85242187499998,157.625848828125L133.97051432291667,157.56559331430287L134.07787109375002,157.46999787409857L134.12081380208335,157.19551591045672L134.43214843750002,157.08775383864182L134.52876953125,157.0165357872596L134.77569010416667,156.78655783503606L134.78642578125,157.00778688401442L134.91525390625,156.9319262845553L135.24805989583334,156.86726957632212L135.34468098958334,156.54350065354566L135.5271875,156.55771711989183L135.58086588541664,156.3117951171875L135.67748697916664,156.23569048978365L135.76337239583333,156.2735348783053L135.84925781249999,156.12588259465144L136.03176432291667,156.35621890024038L136.35383463541666,156.16076321364184L136.46119140625,156.0287621469351L136.85841145833334,155.60712732121394L136.95503255208334,155.6882622671274L136.96576822916666,155.54041676682692L137.201953125,155.5198696138822L137.27710286458333,155.3896656625601L137.57770182291665,155.22844676231972L137.68505859375,155.37745824819712L137.73873697916665,155.29742644230768L137.8568294270833,154.87832883864183L137.95345052083334,154.6993941781851L138.10375000000002,154.62202060546875L138.51170572916666,154.6530522686298L138.54391276041667,154.8067571138822L138.90892578125,154.16568634314905L138.95186848958332,154.01544335186298L139.1987890625,154.27598831129808L139.263203125,154.01913786808893L139.28467447916665,153.89469565054085L139.7141015625,153.43767543569712L139.77851562499998,153.654641015625L139.79998697916665,153.6279283128005L139.91807942708334,153.52235380108172L139.97175781250002,153.4596392878606L140.12205729166666,153.78212856820915L140.21867838541667,153.59441692457932L140.39044921875,153.43760724158653L140.65884114583335,153.3261071965144L140.86281901041667,152.784944140625L140.95944010416667,152.94743064903847L141.15268229166665,153.04799957932693L141.44254557291666,152.645742578125L141.68946614583334,152.65044663461538L141.7109375,152.72007683293268L141.72167317708332,152.30930225360578L142.355078125,152.22328541165865L142.38728515625002,152.22042259615384L142.48390625000002,152.10527483473558L142.89186197916666,151.5285906700721L143.43938151041667,151.17237271634616L143.97616536458335,150.928668359375L144.06205078125,150.81040372596152L144.44853515625002,150.30442481971153L144.63104166666668,149.96447450420672L144.84575520833334,149.76574215745194L145.14635416666667,150.01599582331733L145.17856119791665,149.99140984074518L145.2537109375,149.64679157151443L145.27518229166665,149.53184438100962L145.45768880208334,150.14491745793268L145.54357421875,149.6468958683894L145.6401953125,149.63318751502405L145.80123046875,149.4122666766827L145.97300130208336,149.40897865084133L146.39169270833335,149.14708518629806L146.52052083333334,148.94580960036058L146.64934895833335,148.72122098858173L146.76744140625001,149.2215785606971L146.91774088541666,148.72424960937502L146.93921223958333,148.78570721153847L147.32569661458334,148.30400273437502L147.71218098958332,147.72474591346153L148.00204427083335,147.88076467848558L148.16307942708335,147.28927704326924L148.48514973958333,147.7773850811298L148.74280598958333,146.7293057842548L148.93604817708334,146.9751963641827L149.29032552083333,146.76827671274037L149.5801888020833,146.2570896484375L149.71975260416664,146.548547265625L149.74122395833334,146.76346167367788L149.75195963541665,146.80376171875L149.96667317708335,146.3662523737981L150.02035156250003,145.65727430889422L150.17065104166667,145.64754795673076L150.27800781250002,146.3259723858173L150.33168619791667,146.249145703125L150.4068359375,145.66005689603367L150.61081380208333,146.03810365084135L150.73964192708334,145.72834059495193L151.115390625,145.28629567307692L151.78100260416664,144.4306133563702L151.94203776041664,144.95860425180288L152.06013020833333,144.77358426983173L152.1030729166667,144.44727678786057L152.27484375,144.15725926983174L152.62912109375,144.0510703425481L152.7257421875,144.25817853064902L153.19811197916667,143.18490217848557L153.41282552083334,143.29502496995192L153.44503255208332,143.3869546424279L153.61680338541666,143.7128770282452L153.78857421875,143.4579473858173L154.55080729166667,142.63698121995193L154.64742838541667,142.99079767127404L154.980234375,142.59317519531248L155.18421223958333,141.7053186298077L155.21641927083334,141.91684338942306L155.45260416666667,141.29341817908656L156.15042317708335,141.11655474759615L156.23630859375,140.60303170072115L156.4617578125,140.43227364783652L156.69794270833333,140.72187397836538L157.00927734375,140.00147941706732L157.50311848958333,139.66024411057694L157.80371744791665,139.6224939903846L158.43712239583334,139.01743572716347L158.60889322916668,139.00405631009616L158.94169921875,138.83323674879807L159.25303385416666,138.03970066105768L159.52142578125,138.15978915264424L159.57510416666665,138.29093578725963L159.71466796874998,137.35960213341346L159.8542317708333,137.7976329627404L159.91864583333333,136.81689200721155L160.36954427083333,136.70013834134616L160.38027994791668,138.0116100360577L160.59499348958335,136.77299639423077L161.21766276041666,136.03438999399037L161.40016927083332,136.98944450120194L161.69003255208332,136.8199834735577L161.70076822916667,136.0750042668269L161.78665364583333,136.14155102163463L161.9154817708333,136.12366009615383L162.04430989583335,136.3885126502404L162.20534505208335,135.19103209134616L162.24828776041667,134.80495180288463L162.43079427083333,135.1879165564904L162.62403645833334,134.517659375L162.81727864583334,135.10920183293268L162.97831380208333,135.43927737379806L163.08567057291665,135.2063958233173L163.11787760416667,135.4182923076923L163.24670572916668,133.86356286057693L163.25744140625,133.79016995192308L163.30038411458332,133.89537608173077L163.60098307291665,133.9432216045673L163.8801106770833,133.620880078125L164.23438802083334,133.91515237379807L164.39542317708333,133.96577379807692L164.78190755208334,133.90350856370193L165.3508984375,132.48796730769232L165.39384114583333,133.27855099158654L165.6085546875,133.051001953125L166.13460286458334,131.72011766826924L166.4459375,130.73289426081732L166.89683593750001,130.89237755408655L167.44435546875,130.60244561298074L167.60539062499998,130.31241739783653L167.69127604166667,130.2878541466346L167.75569010416666,129.98088437500002L168.29247395833335,128.80153810096152L168.32468098958336,130.16968578725962L168.35688802083334,129.2409782752404L168.49645182291667,129.0186307091346L168.78631510416668,129.2931267127404L169.05470703125,129.48742911658655L169.12985677083333,127.74876811899037L169.36604166666666,129.19905360576922L169.59149088541665,128.18440814302883L169.73105468749998,127.39091216947115L170.10680338541667,127.79951523437501L170.35372395833335,127.8638958233173L170.38593098958336,127.01193209134615L170.5254947916667,127.1583328125L170.56843750000002,128.3056893629808L171.09448567708333,126.56798843149038L171.10522135416667,126.36882151442308L171.30919921875,125.31189035456731L171.34140625,126.4151721153846L171.43802734375,126.1952314002404L171.44876302083333,126.76595459735577L171.51317708333332,125.87998206129808L171.727890625,125.34223272235576L171.74936197916665,126.42886174879808L172.62968750000002,123.9646822716346L172.6941015625,125.43012022235577L173.49927734374998,123.85007337740383L174.14341796875001,122.64029381009615L174.20783203125,123.51190012019231L174.45475260416669,123.09404137620193L174.85197265625,122.79745582932692L174.86270833333333,123.00485417668268L174.92712239583332,121.41548479567308L175.02374348958332,121.7605229266827L175.20625,122.21622271634615L175.335078125,121.5662018028846L175.3994921875,122.59375333533653L175.61420572916666,121.74763557692307L175.65714843749998,122.50846523437501L176.03289713541665,120.41676198918269L176.56968098958333,120.49137704326924L176.82733723958333,120.63253350360577L177.0742578125,120.18251388221152L177.4607421875,120.56653765024038L177.71839843749999,119.9358838641827L177.73986979166665,118.51036754807691L177.75060546875,120.40461541466347L178.39474609375,117.91120606971154L178.55578125,117.56296147836538L178.62019531250002,119.29262620192307L178.942265625,116.80744561298077L179.03888671875,118.03442079326923L179.08182942708333,118.50482109375L179.14624348958333,117.98383413461538L179.31801432291667,117.7241295673077L179.7796484375,116.37766225961538L179.9084765625,115.63920829326922L180.13392578124999,116.73873269230769L180.14466145833333,118.19539098557692L180.1876041666667,116.96232379807692L180.23054687500002,117.37276141826922L180.27348958333334,115.35646748798077L180.45599609375,117.05835715144231L180.52041015625002,115.58208569711539L180.56335286458335,117.13453131009615L180.85321614583333,116.73210582932693L181.14307942708334,115.01889861778848L181.34705729166666,115.99249122596154L181.69059895833334,114.57905462740383L181.70133463541666,115.3415022235577L181.7120703125,114.4895946514423L181.9697265625,113.50261460336539L182.66754557291668,112.29280294471154L182.79637369791666,113.22766129807691L183.47272135416665,112.35545594951924L183.92361979166665,112.23144963942306L183.96656249999998,112.7528484375L184.43893229166667,112.59204939903846L184.64291015625,110.17384879807692L185.04013020833332,111.03289134615385L185.36220052083334,110.61447367788463L185.43735026041665,110.9500421875L185.54470703125,109.91949813701923L185.73794921875,110.82104567307694L185.98486979166665,110.2541627403846L186.1673763020833,109.76230402644231L186.23179036458336,109.87858701923076L186.30694010416667,109.70775943509615L186.81151692708335,109.9890614783654L186.8651953125,110.16080366586539L187.03696614583333,107.76977373798078L187.10138020833332,106.99657019230769L187.20873697916667,107.5786216346154L187.40197916666668,107.0675615985577L187.58448567708334,109.0854387019231L187.60595703125,108.58462650240385L187.94949869791665,108.18488599759615L188.16421223958332,106.41603239182692L188.28230468750002,107.23357548076922L188.78688151041666,106.99811057692308L188.91570963541668,105.38017722355768L189.03380208333334,104.92895150240385L189.72088541666665,103.53432043269231L190.05369140624998,104.8361005408654L190.45091145833334,102.59240733173078L190.70856770833333,102.94892079326922L190.80518880208334,103.83166814903846L190.86960286458333,102.36708329326925L191.03063802083332,103.44633665865383L191.21314453125,101.5889162860577L191.36344401041666,103.13531802884616L191.39565104166667,102.99765150240384L191.59962890625,103.01546219951922L191.8036067708333,103.30426826923077L193.01673828125,102.01033984375L193.10262369791667,101.74296009615385L193.16703776041666,101.36238882211539L193.42469401041666,101.1940376201923L193.4354296875,101.56002337740385L193.84338541666665,99.33158960336539L194.13324869791666,100.09419765624999L194.26207682291667,97.28312944711539L194.48752604166668,98.62346730769231L195.12093098958334,97.16174927884614L195.26049479166667,97.99856322115386L195.3678515625,96.83882475961538L195.41079427083332,97.74989272836538L195.67918619791666,97.25810354567308L195.91537109375,97.17138737980768L196.68833984375001,94.16013870192307L196.92452473958335,93.61342518028844L196.96746744791668,96.33783070913461L196.98893880208334,93.70896111778846L196.99967447916666,96.28777890625L197.10703125,92.77609777644231L197.32174479166667,93.61032301682694L197.60087239583333,94.11623774038462L197.96588541666665,95.07466183894232L198.06250651041665,92.7288860576923L198.66370442708333,92.87420102163462L199.24343098958335,93.6809828125L199.52255859375,91.74636670673077L199.57623697916665,90.19481965144232L199.79095052083332,91.3066189903846L200.33847005208335,90.80679627403846L200.38141276041668,90.50635709134615L200.72495442708333,88.88181826923078L201.25100260416667,87.46270150240385L201.46571614583334,88.80140805288461L201.8092578125,88.68448323317307L201.9166145833333,87.64886875L201.92735026041666,87.25516676682693L202.19574218749997,89.65337445913462L202.24942057291665,85.18339224759616L202.29236328124998,87.52193677884615L202.44266276041668,86.81309777644232L202.89356119791668,85.7856291466346L203.161953125,88.32239657451923L203.96712890625,84.59346237980769L204.68641927083334,82.4929928485577L205.01922526041668,85.74024663461539L205.38423828125,82.86481388221155L205.39497395833334,82.32886165865385L205.63115885416667,84.10365216346155L206.03911458333332,80.6672305889423L206.09279296875,83.86149621394232L206.14647135416666,83.31777788461538L206.25382812499998,82.6978853966346L206.54369140625002,80.55878323317307L206.55442708333334,80.82727548076922L206.62957682291668,80.79149897836538L206.77987630208335,79.97259200721153L206.89796875000002,83.05622271634616L207.0912109375,80.90626832932693L207.11268229166666,80.79361165865384L207.35960286458334,80.23913203125001L207.37033854166665,81.79134765625L207.38107421875,81.40129873798077L207.41328125,81.4712204326923L207.61725911458333,79.51853689903847L207.9930078125,79.03676021634615L208.17551432291665,79.31789645432693L208.31507812499999,80.9738045673077L208.32581380208333,77.56932457932692L208.43317057291668,77.46356754807692L208.55126302083335,78.48409909855769L208.65861979166667,81.09450012019231L208.74450520833335,76.97678996394231L208.85186197916667,79.78334399038461L209.37791015625,75.10759206730769L209.46379557291667,75.49020649038462L209.50673828125,75.60409867788462L209.80733723958332,74.58016544471153L209.95763671875,74.84426117788462L210.02205078125,76.24344921875L210.17235026041666,75.53968064903846L210.19382161458333,76.76660769230769L210.26897135416667,73.93363713942307L210.3119140625,75.63062752403847L210.34412109374998,74.89197566105769L210.35485677083335,73.74321778846154L210.39779947916668,76.47998918269231L210.66619140625002,76.94835703125001L210.77354817708334,75.10854945913462L210.81649088541667,73.49456334134615L210.98826171875,73.01193088942307L211.13856119791666,75.70688725961539L211.52504557291667,74.10657740384616L211.53578124999999,74.55328894230769L211.61093098958332,74.40464182692308L211.7290234375,76.40078774038462L212.05109374999998,73.15917668269232L212.25507161458333,73.90447680288462L212.26580729166665,73.02718497596153L212.31948567708332,73.05903028846154L212.60934895833336,74.22571117788462L212.80259114583333,71.37551826923077L213.0173046875,72.30998617788461L214.20896484374998,68.25509483173077L214.30558593749998,69.93294807692307L214.47735677083335,71.26450360576922L214.50956380208333,71.75926658653847L214.60618489583334,69.61697668269231L214.90678385416666,67.81378533653846L215.271796875,68.09578269230768L215.28253255208332,66.77289182692309L215.37915364583333,66.24993125L215.41136067708334,69.93822175480769L215.83005208333333,64.43186021634617L215.99108723958332,64.84943281250001L216.09844401041664,66.84042271634617L216.25947916666667,68.45568713942308L216.28095052083333,69.00611790865385L216.36683593749999,66.77493497596154L216.53860677083335,66.13441310096154L216.75332031250002,67.63239435096153L217.01097656250002,66.31767608173078L217.24716145833332,65.0167998798077L217.54776041666668,64.1072455528846L217.67658854166666,64.83289507211539L218.12748697916666,63.20594939903847L218.15969401041664,61.10173052884616L218.59985677083336,63.03333004807692L218.6857421875,62.911489903846146L219.55533203125,63.87845564903846L219.56606770833332,63.63046442307692L220.50007161458333,58.506375000000006L220.58595703125002,57.978675600961544L221.05832682291668,57.434962620192316L221.0690625,60.43484026442309L221.61658203125,55.944950721153845L221.713203125,57.66895132211539L222.26072265624998,55.53823569711539L222.36807942708333,56.402894230769235L222.44322916666667,55.3842186298077L222.49690755208334,54.78338305288462L222.75456380208334,56.12870576923076L223.15178385416667,57.35637091346153L223.33429036458332,54.69445793269231L223.78518880208333,53.40774471153846L224.30050130208332,54.234845673076926L224.32197265624998,50.82066874999999L224.72992838541668,53.941316826923085L224.9983203125,54.81042536057692L225.20229817708335,51.74953137019231L225.2559765625,52.52408810096155L225.30965494791667,53.140776802884616L225.50289713541667,51.10673100961539L225.55657552083332,52.069888581730766L225.61025390625,48.17681250000001L225.73908203125,51.65153509615384L225.96453125,52.571968389423084L226.46910807291667,51.98079230769232L226.69455729166668,50.66269375L227.09177734375,45.221146033653845L227.26354817708332,51.06493737980769L227.62856119791667,45.68335769230769L227.74665364583333,49.96314519230769L227.88621744791666,45.81714651442309L228.2834375,47.53897560096154L228.35858723958333,43.32641947115385L228.40152994791666,43.59962379807692L228.669921875,48.0242609375L228.94904947916666,44.37448004807693L229.3784765625,40.891274639423074L229.81863932291665,41.406971875L229.85084635416666,45.57972403846154L229.90452473958334,47.340533413461536L230.44130859375,42.06756153846155L230.6560221354167,40.930629326923075L230.81705729166669,44.496202524038466L230.84926432291667,43.30901526442308L230.87073567708333,44.07584867788461L231.08544921875,41.728569951923085L231.14986328125,40.92733461538461L231.39678385416667,41.82427704326922L231.66517578124999,42.881408774038455L231.68664713541668,40.12367103365385L231.8262109375,38.18458353365384L232.05166015625,37.60012524038461L232.25563802083332,37.28750204326922L232.3200520833333,36.446034855769234L232.47035156249999,36.489122836538456L232.58844401041668,38.674072836538464L232.68506510416668,36.27691346153847L232.7280078125,36.86849603365384L233.17890625,36.77369819711539L233.25405598958335,34.72878413461538L233.29699869791668,37.23994266826922L233.35067708333332,36.408017307692305L233.36141276041667,35.57316093749999L233.79083984375,34.98818918269231L233.99481770833333,34.89971334134615L234.28468098958334,33.97870240384615L234.53160156250001,37.19117451923077L234.84293619791669,33.150595913461544L235.28309895833334,31.233854687500006L235.39045572916666,32.6657170673077L235.51928385416667,31.706421153846147L235.70179036458333,34.60068617788462L235.87356119791667,32.914596153846155L235.95944661458333,32.56237223557692L236.05606770833333,32.42417620192307L236.13121744791667,31.06231574519231L236.56064453125,31.543568269230775L236.63579427083334,34.18072812500001L236.70020833333334,29.338764423076924L236.75388671875,30.993565384615394L236.78609375000002,33.654258894230765" style="fill: none;" fill="none"></path></g></g></g></g></g></g><g transform="translate(72, 178)" clip-path="url(#clip_1)"><clipPath id="clip_1"><rect width="257" height="22"></rect></clipPath><g><g><line x1="0" y1="0" x2="0" y2="5" style="visibility: inherit;" fill="rgb(0, 0, 0)" stroke="rgb(204, 204, 204)" stroke-width="1px"></line><line x1="21.471354166666664" y1="0" x2="21.471354166666664" y2="5" style="visibility: inherit;" fill="rgb(0, 0, 0)" stroke="rgb(204, 204, 204)" stroke-width="1px"></line><line x1="42.94270833333333" y1="0" x2="42.94270833333333" y2="5" style="visibility: inherit;" fill="rgb(0, 0, 0)" stroke="rgb(204, 204, 204)" stroke-width="1px"></line><line x1="64.4140625" y1="0" x2="64.4140625" y2="5" style="visibility: inherit;" fill="rgb(0, 0, 0)" stroke="rgb(204, 204, 204)" stroke-width="1px"></line><line x1="85.88541666666666" y1="0" x2="85.88541666666666" y2="5" style="visibility: inherit;" fill="rgb(0, 0, 0)" stroke="rgb(204, 204, 204)" stroke-width="1px"></line><line x1="107.35677083333334" y1="0" x2="107.35677083333334" y2="5" style="visibility: inherit;" fill="rgb(0, 0, 0)" stroke="rgb(204, 204, 204)" stroke-width="1px"></line><line x1="128.828125" y1="0" x2="128.828125" y2="5" style="visibility: inherit;" fill="rgb(0, 0, 0)" stroke="rgb(204, 204, 204)" stroke-width="1px"></line><line x1="150.29947916666669" y1="0" x2="150.29947916666669" y2="5" style="visibility: inherit;" fill="rgb(0, 0, 0)" stroke="rgb(204, 204, 204)" stroke-width="1px"></line><line x1="171.77083333333331" y1="0" x2="171.77083333333331" y2="5" style="visibility: inherit;" fill="rgb(0, 0, 0)" stroke="rgb(204, 204, 204)" stroke-width="1px"></line><line x1="193.2421875" y1="0" x2="193.2421875" y2="5" style="visibility: inherit;" fill="rgb(0, 0, 0)" stroke="rgb(204, 204, 204)" stroke-width="1px"></line><line x1="214.71354166666669" y1="0" x2="214.71354166666669" y2="5" style="visibility: inherit;" fill="rgb(0, 0, 0)" stroke="rgb(204, 204, 204)" stroke-width="1px"></line><line x1="236.18489583333331" y1="0" x2="236.18489583333331" y2="5" style="visibility: inherit;" fill="rgb(0, 0, 0)" stroke="rgb(204, 204, 204)" stroke-width="1px"></line><line x1="257.65625" y1="0" x2="257.65625" y2="5" style="visibility: inherit;" fill="rgb(0, 0, 0)" stroke="rgb(204, 204, 204)" stroke-width="1px"></line></g><g transform="translate(0, 8)"><text x="0" y="0" dx="0em" dy="0.95em" style="text-anchor: middle; visibility: hidden; font-family: Roboto, sans-serif; font-size: 12px; font-weight: 200;" fill="rgb(50, 49, 63)" stroke="none" stroke-width="1px">-2k</text><text x="21.471354166666664" y="0" dx="0em" dy="0.95em" style="text-anchor: middle; visibility: inherit; font-family: Roboto, sans-serif; font-size: 12px; font-weight: 200;" fill="rgb(50, 49, 63)" stroke="none" stroke-width="1px">0</text><text x="42.94270833333333" y="0" dx="0em" dy="0.95em" style="text-anchor: middle; visibility: hidden; font-family: Roboto, sans-serif; font-size: 12px; font-weight: 200;" fill="rgb(50, 49, 63)" stroke="none" stroke-width="1px">2k</text><text x="64.4140625" y="0" dx="0em" dy="0.95em" style="text-anchor: middle; visibility: inherit; font-family: Roboto, sans-serif; font-size: 12px; font-weight: 200;" fill="rgb(50, 49, 63)" stroke="none" stroke-width="1px">4k</text><text x="85.88541666666666" y="0" dx="0em" dy="0.95em" style="text-anchor: middle; visibility: hidden; font-family: Roboto, sans-serif; font-size: 12px; font-weight: 200;" fill="rgb(50, 49, 63)" stroke="none" stroke-width="1px">6k</text><text x="107.35677083333334" y="0" dx="0em" dy="0.95em" style="text-anchor: middle; visibility: inherit; font-family: Roboto, sans-serif; font-size: 12px; font-weight: 200;" fill="rgb(50, 49, 63)" stroke="none" stroke-width="1px">8k</text><text x="128.828125" y="0" dx="0em" dy="0.95em" style="text-anchor: middle; visibility: hidden; font-family: Roboto, sans-serif; font-size: 12px; font-weight: 200;" fill="rgb(50, 49, 63)" stroke="none" stroke-width="1px">10k</text><text x="150.29947916666669" y="0" dx="0em" dy="0.95em" style="text-anchor: middle; visibility: inherit; font-family: Roboto, sans-serif; font-size: 12px; font-weight: 200;" fill="rgb(50, 49, 63)" stroke="none" stroke-width="1px">12k</text><text x="171.77083333333331" y="0" dx="0em" dy="0.95em" style="text-anchor: middle; visibility: hidden; font-family: Roboto, sans-serif; font-size: 12px; font-weight: 200;" fill="rgb(50, 49, 63)" stroke="none" stroke-width="1px">14k</text><text x="193.2421875" y="0" dx="0em" dy="0.95em" style="text-anchor: middle; visibility: inherit; font-family: Roboto, sans-serif; font-size: 12px; font-weight: 200;" fill="rgb(50, 49, 63)" stroke="none" stroke-width="1px">16k</text><text x="214.71354166666669" y="0" dx="0em" dy="0.95em" style="text-anchor: middle; visibility: hidden; font-family: Roboto, sans-serif; font-size: 12px; font-weight: 200;" fill="rgb(50, 49, 63)" stroke="none" stroke-width="1px">18k</text><text x="236.18489583333331" y="0" dx="0em" dy="0.95em" style="text-anchor: middle; visibility: inherit; font-family: Roboto, sans-serif; font-size: 12px; font-weight: 200;" fill="rgb(50, 49, 63)" stroke="none" stroke-width="1px">20k</text><text x="257.65625" y="0" dx="0em" dy="0.95em" style="text-anchor: middle; visibility: hidden; font-family: Roboto, sans-serif; font-size: 12px; font-weight: 200;" fill="rgb(50, 49, 63)" stroke="none" stroke-width="1px">22k</text></g><line x1="0" y1="0" x2="257.65625" y2="0" fill="rgb(0, 0, 0)" stroke="rgb(204, 204, 204)" stroke-width="1px"></line></g></g></g></g></svg>