<svg viewBox="0 0 330 200" xmlns="http://www.w3.org/2000/svg"><g><g><g><g><g><line x1="40" y1="178" x2="35" y2="178" style="visibility: inherit;" fill="rgb(0, 0, 0)" stroke="rgb(204, 204, 204)" stroke-width="1px"></line><line x1="40" y1="164.30769230769232" x2="35" y2="164.30769230769232" style="visibility: inherit;" fill="rgb(0, 0, 0)" stroke="rgb(204, 204, 204)" stroke-width="1px"></line><line x1="40" y1="150.6153846153846" x2="35" y2="150.6153846153846" style="visibility: inherit;" fill="rgb(0, 0, 0)" stroke="rgb(204, 204, 204)" stroke-width="1px"></line><line x1="40" y1="136.9230769230769" x2="35" y2="136.9230769230769" style="visibility: inherit;" fill="rgb(0, 0, 0)" stroke="rgb(204, 204, 204)" stroke-width="1px"></line><line x1="40" y1="123.23076923076923" x2="35" y2="123.23076923076923" style="visibility: inherit;" fill="rgb(0, 0, 0)" stroke="rgb(204, 204, 204)" stroke-width="1px"></line><line x1="40" y1="109.53846153846155" x2="35" y2="109.53846153846155" style="visibility: inherit;" fill="rgb(0, 0, 0)" stroke="rgb(204, 204, 204)" stroke-width="1px"></line><line x1="40" y1="95.84615384615384" x2="35" y2="95.84615384615384" style="visibility: inherit;" fill="rgb(0, 0, 0)" stroke="rgb(204, 204, 204)" stroke-width="1px"></line><line x1="40" y1="82.15384615384616" x2="35" y2="82.15384615384616" style="visibility: inherit;" fill="rgb(0, 0, 0)" stroke="rgb(204, 204, 204)" stroke-width="1px"></line><line x1="40" y1="68.46153846153845" x2="35" y2="68.46153846153845" style="visibility: inherit;" fill="rgb(0, 0, 0)" stroke="rgb(204, 204, 204)" stroke-width="1px"></line><line x1="40" y1="54.769230769230774" x2="35" y2="54.769230769230774" style="visibility: inherit;" fill="rgb(0, 0, 0)" stroke="rgb(204, 204, 204)" stroke-width="1px"></line><line x1="40" y1="41.076923076923066" x2="35" y2="41.076923076923066" style="visibility: inherit;" fill="rgb(0, 0, 0)" stroke="rgb(204, 204, 204)" stroke-width="1px"></line><line x1="40" y1="27.384615384615387" x2="35" y2="27.384615384615387" style="visibility: inherit;" fill="rgb(0, 0, 0)" stroke="rgb(204, 204, 204)" stroke-width="1px"></line><line x1="40" y1="13.692307692307683" x2="35" y2="13.692307692307683" style="visibility: inherit;" fill="rgb(0, 0, 0)" stroke="rgb(204, 204, 204)" stroke-width="1px"></line><line x1="40" y1="0" x2="35" y2="0" style="visibility: inherit;" fill="rgb(0, 0, 0)" stroke="rgb(204, 204, 204)" stroke-width="1px"></line></g><g transform="translate(30, 0)"><text x="0" y="178" dx="0em" dy="0.3em" style="text-anchor: end; visibility: hidden; font-family: Roboto, sans-serif; font-size: 12px; font-weight: 200;" fill="rgb(50, 49, 63)" stroke="none" stroke-width="1px">-50</text><text x="0" y="164.30769230769232" dx="0em" dy="0.3em" style="text-anchor: end; visibility: inherit; font-family: Roboto, sans-serif; font-size: 12px; font-weight: 200;" fill="rgb(50, 49, 63)" stroke="none" stroke-width="1px">0</text><text x="0" y="150.6153846153846" dx="0em" dy="0.3em" style="text-anchor: end; visibility: hidden; font-family: Roboto, sans-serif; font-size: 12px; font-weight: 200;" fill="rgb(50, 49, 63)" stroke="none" stroke-width="1px">50</text><text x="0" y="136.9230769230769" dx="0em" dy="0.3em" style="text-anchor: end; visibility: inherit; font-family: Roboto, sans-serif; font-size: 12px; font-weight: 200;" fill="rgb(50, 49, 63)" stroke="none" stroke-width="1px">100</text><text x="0" y="123.23076923076923" dx="0em" dy="0.3em" style="text-anchor: end; visibility: hidden; font-family: Roboto, sans-serif; font-size: 12px; font-weight: 200;" fill="rgb(50, 49, 63)" stroke="none" stroke-width="1px">150</text><text x="0" y="109.53846153846155" dx="0em" dy="0.3em" style="text-anchor: end; visibility: inherit; font-family: Roboto, sans-serif; font-size: 12px; font-weight: 200;" fill="rgb(50, 49, 63)" stroke="none" stroke-width="1px">200</text><text x="0" y="95.84615384615384" dx="0em" dy="0.3em" style="text-anchor: end; visibility: hidden; font-family: Roboto, sans-serif; font-size: 12px; font-weight: 200;" fill="rgb(50, 49, 63)" stroke="none" stroke-width="1px">250</text><text x="0" y="82.15384615384616" dx="0em" dy="0.3em" style="text-anchor: end; visibility: inherit; font-family: Roboto, sans-serif; font-size: 12px; font-weight: 200;" fill="rgb(50, 49, 63)" stroke="none" stroke-width="1px">300</text><text x="0" y="68.46153846153845" dx="0em" dy="0.3em" style="text-anchor: end; visibility: hidden; font-family: Roboto, sans-serif; font-size: 12px; font-weight: 200;" fill="rgb(50, 49, 63)" stroke="none" stroke-width="1px">350</text><text x="0" y="54.769230769230774" dx="0em" dy="0.3em" style="text-anchor: end; visibility: inherit; font-family: Roboto, sans-serif; font-size: 12px; font-weight: 200;" fill="rgb(50, 49, 63)" stroke="none" stroke-width="1px">400</text><text x="0" y="41.076923076923066" dx="0em" dy="0.3em" style="text-anchor: end; visibility: hidden; font-family: Roboto, sans-serif; font-size: 12px; font-weight: 200;" fill="rgb(50, 49, 63)" stroke="none" stroke-width="1px">450</text><text x="0" y="27.384615384615387" dx="0em" dy="0.3em" style="text-anchor: end; visibility: inherit; font-family: Roboto, sans-serif; font-size: 12px; font-weight: 200;" fill="rgb(50, 49, 63)" stroke="none" stroke-width="1px">500</text><text x="0" y="13.692307692307683" dx="0em" dy="0.3em" style="text-anchor: end; visibility: hidden; font-family: Roboto, sans-serif; font-size: 12px; font-weight: 200;" fill="rgb(50, 49, 63)" stroke="none" stroke-width="1px">550</text><text x="0" y="0" dx="0em" dy="0.3em" style="text-anchor: end; visibility: hidden; font-family: Roboto, sans-serif; font-size: 12px; font-weight: 200;" fill="rgb(50, 49, 63)" stroke="none" stroke-width="1px">600</text></g><line x1="40" y1="0" x2="40" y2="178" fill="rgb(0, 0, 0)" stroke="rgb(204, 204, 204)" stroke-width="1px"></line></g></g><g transform="translate(40, 0)" clip-path="url(#clip_0)"><clipPath id="clip_0"><rect width="290" height="178"></rect></clipPath><g><g><g><line x1="0" y1="0" x2="0" y2="178" fill="rgb(0, 0, 0)" stroke="rgb(60, 60, 60)" stroke-width="1px" opacity="0.25"></line><line x1="20.71428571428571" y1="0" x2="20.71428571428571" y2="178" fill="rgb(0, 0, 0)" stroke="rgb(60, 60, 60)" stroke-width="1px" opacity="0.25"></line><line x1="41.42857142857142" y1="0" x2="41.42857142857142" y2="178" fill="rgb(0, 0, 0)" stroke="rgb(60, 60, 60)" stroke-width="1px" opacity="0.25"></line><line x1="62.14285714285714" y1="0" x2="62.14285714285714" y2="178" fill="rgb(0, 0, 0)" stroke="rgb(60, 60, 60)" stroke-width="1px" opacity="0.25"></line><line x1="82.85714285714285" y1="0" x2="82.85714285714285" y2="178" fill="rgb(0, 0, 0)" stroke="rgb(60, 60, 60)" stroke-width="1px" opacity="0.25"></line><line x1="103.57142857142857" y1="0" x2="103.57142857142857" y2="178" fill="rgb(0, 0, 0)" stroke="rgb(60, 60, 60)" stroke-width="1px" opacity="0.25"></line><line x1="124.28571428571428" y1="0" x2="124.28571428571428" y2="178" fill="rgb(0, 0, 0)" stroke="rgb(60, 60, 60)" stroke-width="1px" opacity="0.25"></line><line x1="145" y1="0" x2="145" y2="178" fill="rgb(0, 0, 0)" stroke="rgb(60, 60, 60)" stroke-width="1px" opacity="0.25"></line><line x1="165.7142857142857" y1="0" x2="165.7142857142857" y2="178" fill="rgb(0, 0, 0)" stroke="rgb(60, 60, 60)" stroke-width="1px" opacity="0.25"></line><line x1="186.42857142857144" y1="0" x2="186.42857142857144" y2="178" fill="rgb(0, 0, 0)" stroke="rgb(60, 60, 60)" stroke-width="1px" opacity="0.25"></line><line x1="207.14285714285714" y1="0" x2="207.14285714285714" y2="178" fill="rgb(0, 0, 0)" stroke="rgb(60, 60, 60)" stroke-width="1px" opacity="0.25"></line><line x1="227.85714285714286" y1="0" x2="227.85714285714286" y2="178" fill="rgb(0, 0, 0)" stroke="rgb(60, 60, 60)" stroke-width="1px" opacity="0.25"></line><line x1="248.57142857142856" y1="0" x2="248.57142857142856" y2="178" fill="rgb(0, 0, 0)" stroke="rgb(60, 60, 60)" stroke-width="1px" opacity="0.25"></line><line x1="269.2857142857143" y1="0" x2="269.2857142857143" y2="178" fill="rgb(0, 0, 0)" stroke="rgb(60, 60, 60)" stroke-width="1px" opacity="0.25"></line><line x1="290" y1="0" x2="290" y2="178" fill="rgb(0, 0, 0)" stroke="rgb(60, 60, 60)" stroke-width="1px" opacity="0.25"></line></g><g><line x1="0" y1="178" x2="290" y2="178" fill="rgb(0, 0, 0)" stroke="rgb(60, 60, 60)" stroke-width="1px" opacity="0.25"></line><line x1="0" y1="164.30769230769232" x2="290" y2="164.30769230769232" fill="rgb(0, 0, 0)" stroke="rgb(60, 60, 60)" stroke-width="1px" opacity="0.25"></line><line x1="0" y1="150.6153846153846" x2="290" y2="150.6153846153846" fill="rgb(0, 0, 0)" stroke="rgb(60, 60, 60)" stroke-width="1px" opacity="0.25"></line><line x1="0" y1="136.9230769230769" x2="290" y2="136.9230769230769" fill="rgb(0, 0, 0)" stroke="rgb(60, 60, 60)" stroke-width="1px" opacity="0.25"></line><line x1="0" y1="123.23076923076923" x2="290" y2="123.23076923076923" fill="rgb(0, 0, 0)" stroke="rgb(60, 60, 60)" stroke-width="1px" opacity="0.25"></line><line x1="0" y1="109.53846153846155" x2="290" y2="109.53846153846155" fill="rgb(0, 0, 0)" stroke="rgb(60, 60, 60)" stroke-width="1px" opacity="0.25"></line><line x1="0" y1="95.84615384615384" x2="290" y2="95.84615384615384" fill="rgb(0, 0, 0)" stroke="rgb(60, 60, 60)" stroke-width="1px" opacity="0.25"></line><line x1="0" y1="82.15384615384616" x2="290" y2="82.15384615384616" fill="rgb(0, 0, 0)" stroke="rgb(60, 60, 60)" stroke-width="1px" opacity="0.25"></line><line x1="0" y1="68.46153846153845" x2="290" y2="68.46153846153845" fill="rgb(0, 0, 0)" stroke="rgb(60, 60, 60)" stroke-width="1px" opacity="0.25"></line><line x1="0" y1="54.769230769230774" x2="290" y2="54.769230769230774" fill="rgb(0, 0, 0)" stroke="rgb(60, 60, 60)" stroke-width="1px" opacity="0.25"></line><line x1="0" y1="41.076923076923066" x2="290" y2="41.076923076923066" fill="rgb(0, 0, 0)" stroke="rgb(60, 60, 60)" stroke-width="1px" opacity="0.25"></line><line x1="0" y1="27.384615384615387" x2="290" y2="27.384615384615387" fill="rgb(0, 0, 0)" stroke="rgb(60, 60, 60)" stroke-width="1px" opacity="0.25"></line><line x1="0" y1="13.692307692307683" x2="290" y2="13.692307692307683" fill="rgb(0, 0, 0)" stroke="rgb(60, 60, 60)" stroke-width="1px" opacity="0.25"></line><line x1="0" y1="0" x2="290" y2="0" fill="rgb(0, 0, 0)" stroke="rgb(60, 60, 60)" stroke-width="1px" opacity="0.25"></line></g></g></g><g><g><line x1="0" y1="164.30769230769232" x2="290" y2="164.30769230769232" fill="rgb(0, 0, 0)" stroke="rgb(153, 153, 153)" stroke-width="1.5px"></line></g></g><g><g><line x1="20.71428571428571" y1="0" x2="20.71428571428571" y2="178" fill="rgb(0, 0, 0)" stroke="rgb(153, 153, 153)" stroke-width="1.5px"></line></g></g><g><g><g><g><g><path stroke="rgb(0, 119, 187)" stroke-width="2px" d="M20.71428571428571,161.56923076923076L21.12857142857143,161.39807692307693L21.542857142857144,161.62511773940346L21.95714285714286,161.59943438914027L22.37142857142857,161.5863342764106L22.785714285714285,161.69405725853093L23.2,161.86807496804073L23.614285714285717,161.85790493251125L24.02857142857143,161.85191334736385L24.442857142857143,161.95856210343302L24.857142857142858,162.02213714119438L25.271428571428572,162.0601342268708L25.685714285714283,161.86351604682602L26.099999999999998,161.63608525000663L26.514285714285716,161.3901508999808L26.92857142857143,161.46180306154307L27.342857142857145,161.17611040177917L27.757142857142856,160.89517617093767L28.17142857142857,160.8361790305913L28.585714285714285,161.01986798046767L29,161.23961791661642L29.41428571428571,160.93330517976787L29.82857142857143,160.85905944459665L30.242857142857144,161.14312932048168L30.65714285714286,160.98495406566914L31.07142857142857,161.21866514576217L31.485714285714284,160.59212152311903L31.9,160.43527281755152L32.31428571428572,160.6697791615517L32.72857142857143,160.37232896963408L33.14285714285714,159.53662804016022L33.55714285714286,158.81613061290804L33.971428571428575,158.8219860603321L34.385714285714286,159.37319165199196L34.8,157.51314572845044L35.214285714285715,158.04019513481416L35.628571428571426,157.80873246407143L36.042857142857144,158.10800871032336L36.45714285714286,159.16388215162334L36.871428571428574,159.6878677532129L37.285714285714285,160.33087449859732L37.7,160.93575546868024L38.114285714285714,161.07960712740353L38.52857142857143,161.27545658416835L38.94285714285714,161.5025047197554L39.357142857142854,161.3101182164566L39.77142857142857,161.52330169911272L40.18571428571428,160.99398101945573L40.6,161.3336193809088L41.01428571428571,161.20878701315965L41.42857142857142,161.0243491309718L41.84285714285715,160.8041479401209L42.25714285714286,161.00064261022672L42.67142857142857,160.7899240276743L43.08571428571429,160.66349287814293L43.5,160.4780957268857L43.91428571428572,160.58593435920835L44.32857142857143,160.65063753860196L44.74285714285714,160.5799209846996L45.15714285714286,160.75656797543516L45.57142857142857,161.08163309295344L45.98571428571428,161.27667216346435L46.4,161.39369560577094L46.81428571428571,161.24483274807795L47.228571428571435,161.26505349500061L47.642857142857146,161.16764748161575L48.05714285714286,161.10920387358485L48.471428571428575,161.07413770876627L48.885714285714286,161.27217493295208L49.300000000000004,161.2814588059251L49.714285714285715,161.28702912970888L50.128571428571426,161.39990978551765L50.542857142857144,161.57717664054135L50.957142857142856,161.6835367535556L51.37142857142857,161.74735282136413L51.785714285714285,161.67610400051078L52.199999999999996,161.5238162464603L52.614285714285714,161.65152051710695L53.02857142857143,161.61860461795646L53.44285714285714,161.3797781553893L53.85714285714286,160.7983284316951L54.27142857142857,160.88761244363243L54.68571428571429,161.05072131233334L55.1,161.25812509509228L55.51428571428571,161.3825673647477L55.92857142857143,161.12861734192552L56.34285714285714,161.30486271284764L56.75714285714285,160.97245608924703L57.17142857142857,161.10162749970206L57.58571428571428,160.63143803828277L58,160.45886282296968L58.41428571428571,160.6839330783972L58.82857142857142,160.59989830857677L59.24285714285715,160.76855436976143L59.65714285714286,160.9792864680107L60.07142857142858,160.66757188080643L60.48571428571429,160.04238928233002L60.9,159.22912587709033L61.31428571428572,159.72701398779265L61.72857142857143,159.5875930080602L62.14285714285714,152.93163272791304L62.55714285714286,148.39036425213246L62.97142857142857,145.44652624358716L63.385714285714286,142.69437728461384L63.8,138.6332417553837L64.21428571428571,134.99163736092254L64.62857142857143,128.64421318578428L65.04285714285714,124.72622021916285L65.45714285714286,114.59819366995926L65.87142857142857,121.99460850966787L66.28571428571428,120.73645741349301L66.7,123.37725906348044L67.11428571428571,118.38943236116519L67.52857142857142,119.55919787823757L67.94285714285715,84.55151872694255L68.35714285714286,92.24598815924246L68.77142857142857,85.68974674169932L69.18571428571428,100.9252326604042L69.6,107.87575498085792L70.01428571428572,111.93652991159166L70.42857142857143,115.13976410080117L70.84285714285714,115.85678153740376L71.25714285714285,116.39653046090379L71.67142857142856,117.48714904577304L72.08571428571429,109.04982788900229L72.5,110.34066596417061L72.91428571428573,107.171784193887L73.32857142857142,103.95599359325526L73.74285714285715,97.31636538672237L74.15714285714286,104.39597307818727L74.57142857142857,102.72866076998929L74.98571428571428,103.59042723122435L75.4,111.22748710796539L75.81428571428572,107.92295380324077L76.22857142857143,111.85531074348293L76.64285714285714,112.68118644608975L77.05714285714286,112.51948109842307L77.47142857142856,120.41876558213077L77.88571428571429,117.60018242620154L78.30000000000001,120.40010945572091L78.71428571428571,117.26037336574024L79.12857142857143,119.10083940405954L79.54285714285714,120.64327287320495L79.95714285714286,125.40257910853835L80.37142857142857,128.69631669589225L80.78571428571429,122.45717463291997L81.2,121.99984324129042L81.61428571428571,123.03990594477426L82.02857142857142,108.98578972071071L82.44285714285715,107.12562767858029L82.85714285714285,105.68091506868663L83.27142857142857,97.91316442582736L83.6857142857143,105.52082173241949L84.1,106.79926227022095L84.51428571428572,110.4143265929018L84.92857142857143,114.55505749420261L85.34285714285714,115.2868806503677L85.75714285714285,112.43982069791294L86.17142857142858,113.47004626490163L86.58571428571429,111.5687969897102L87,117.65758588613382L87.41428571428571,110.68562845475722L87.82857142857144,111.32214630362355L88.24285714285713,110.28005701294336L88.65714285714286,112.28372651545831L89.07142857142858,111.29515898619806L89.48571428571428,112.01648000710347L89.9,115.29727261964668L90.31428571428572,115.40359434101877L90.72857142857143,120.61569506614973L91.14285714285714,114.54172473199753L91.55714285714286,112.97857330073698L91.97142857142856,113.13606705736527L92.38571428571429,111.80656331134223L92.8,106.73686106372841L93.21428571428572,112.0199627920832L93.62857142857142,113.10859305986531L94.04285714285714,115.51438660514995L94.45714285714287,110.27601657847461L94.87142857142857,109.43330225477706L95.28571428571429,115.49998135286623L95.7,113.22491188864282L96.11428571428571,109.45002405626262L96.52857142857142,116.71493751068064L96.94285714285715,120.19757789102377L97.35714285714285,121.95854673461427L97.77142857142857,126.19174342538396L98.18571428571428,126.43135374753807L98.60000000000001,115.94988917159975L99.0142857142857,117.65731811834448L99.42857142857143,117.25777548639131L99.84285714285716,120.63281913798862L100.25714285714285,123.3150760981778L100.67142857142858,124.59581488967592L101.08571428571429,123.83071970303632L101.5,120.52366259105256L101.91428571428571,122.48281293924693L102.32857142857144,123.11061084047124L102.74285714285713,116.80544342735963L103.15714285714286,120.69003528718503L103.57142857142857,121.59679040308022L103.9857142857143,122.46945885723277L104.39999999999999,120.3641368528012L104.81428571428572,119.53909749629611L105.22857142857143,117.72961234393152L105.64285714285714,116.7534597140512L106.05714285714286,116.71546044381535L106.47142857142858,116.91173780475074L106.88571428571429,118.89165806746584L107.3,92.03776407124874L107.71428571428572,91.15127382736462L108.12857142857142,90.61937968103415L108.54285714285714,102.45901242400511L108.95714285714286,110.3295613005569L109.37142857142858,113.0801983187957L109.78571428571428,102.68134976050817L110.2,111.12019447168953L110.61428571428571,117.27888591378296L111.02857142857142,118.12610077903902L111.44285714285714,114.58150662126957L111.85714285714286,88.57536551122327L112.27142857142857,81.40614238365703L112.68571428571428,80.93845466096346L113.10000000000001,106.72799587350116L113.5142857142857,103.25156675486991L113.92857142857143,107.29986312984501L114.34285714285714,104.58053326252242L114.75714285714287,107.00185841905191L115.17142857142856,104.18265351296962L115.58571428571429,108.40620749239716L116,106.5588014185152L116.41428571428571,114.54205008187836L116.82857142857142,110.13076851066548L117.24285714285715,106.05999956793775L117.65714285714284,112.92830743307033L118.07142857142857,103.79513830599605L118.4857142857143,98.53431375282841L118.89999999999999,108.08428055938934L119.31428571428572,103.51764525871054L119.72857142857143,102.85889484753402L120.14285714285715,72.66918306236659L120.55714285714285,89.05997137588149L120.97142857142858,64.38982897937505L121.38571428571429,89.02158969531735L121.8,96.02341535565195L122.21428571428571,68.56789536723733L122.62857142857143,89.5567372203424L123.04285714285713,99.52111925528236L123.45714285714286,119.73974847624632L123.87142857142858,123.65554139344012L124.28571428571428,122.60932483606408L124.7,106.31759490163843L125.11428571428571,113.08286463329077L125.52857142857144,96.98694954920522L125.94285714285714,94.33986203721544L126.35714285714286,108.30607106848313L126.77142857142857,109.8944118718591L127.18571428571428,112.16187789234624L127.6,117.02758827386927L128.01428571428573,128.05286065662926L128.42857142857142,122.72833177859295L128.84285714285716,118.00007599023269L129.25714285714287,119.65419944029347L129.67142857142858,94.79559658725302L130.0857142857143,97.51612718312104L130.5,103.52998400218033L130.9142857142857,104.5093750166928L131.32857142857142,105.86377885616952L131.74285714285713,99.88503654447095L132.15714285714287,106.70394500360564L132.57142857142856,97.43159777139415L132.9857142857143,80.03803558591342L133.4,85.59451365924035L133.81428571428572,90.68101588785191L134.22857142857143,93.5138403019419L134.64285714285714,94.77538110424207L135.05714285714285,95.09415173946833L135.47142857142856,101.31002950521946L135.8857142857143,94.96201770313168L136.29999999999998,89.18151831418672L136.71428571428572,103.78706483466587L137.12857142857143,111.5645465931072L137.54285714285714,116.66918949432586L137.95714285714286,106.03966754274936L138.37142857142857,100.20964667949576L138.78571428571428,92.33009570000515L139.2,96.58451895846464L139.61428571428573,89.49778829815571L140.02857142857144,64.65251913273958L140.44285714285715,86.11212686425914L140.85714285714286,87.37681458009395L141.27142857142857,88.4642425942102L141.68571428571428,84.40654555652614L142.1,85.80577348776184L142.5142857142857,98.69454101573405L142.92857142857144,104.78472460944042L143.34285714285713,105.80991168874115L143.75714285714287,112.88779316709086L144.17142857142858,118.12036820794683L144.5857142857143,117.75468246322964L145,81.60665563178394L145.4142857142857,92.99845491753192L145.82857142857145,99.06676525821145L146.24285714285716,102.05052069338839L146.65714285714284,72.18415856987919L147.07142857142856,54.26434129577369L147.4857142857143,44.93645093131036L147.9,37.915716712632374L148.31428571428572,66.45527618142557L148.72857142857143,50.82701186270151L149.14285714285714,45.39343788685167L149.55714285714285,38.18990888595715L149.97142857142856,33.86779148542045L150.38571428571427,31.274521045098435L150.8,29.718558780905212L151.21428571428572,28.784981422389293L151.62857142857143,28.224835007279726L152.04285714285714,27.888747158214006L152.45714285714286,72.59786367954379L152.87142857142857,89.56487205388011L153.28571428571428,105.55061554002039L153.70000000000002,92.68667701631992L154.11428571428573,66.5658523636381L154.5285714285714,62.28535757202901L154.94285714285712,69.46598377398664L155.35714285714286,52.633436418238134L155.77142857142857,42.53390800478905L156.18571428571428,36.474190956719575L156.60000000000002,36.34359149710866L157.01428571428573,64.74523182134212L157.42857142857142,49.800985246651415L157.84285714285713,65.26151422491392L158.25714285714287,85.16306238110221L158.67142857142858,91.40799127481516L159.0857142857143,65.79864091873525L159.5,50.43303070508731L159.9142857142857,68.70781842305239L160.32857142857142,52.72622951536989L160.74285714285713,42.5895838630681L161.15714285714284,60.27744262553317L161.57142857142858,63.55108095993529L161.9857142857143,71.53987934519193L162.4,106.01808145326902L162.8142857142857,127.03361810273064L163.22857142857143,120.25463240009991L163.64285714285714,118.04939482467532L164.05714285714285,118.04071381788212L164.4714285714286,81.77827444457543L164.8857142857143,60.02081082059141L165.29999999999998,46.966332646200996L165.7142857142857,39.13364574156674L166.12857142857143,34.434033598786215L166.54285714285714,31.614266313117874L166.95714285714286,29.922405941716885L167.3714285714286,28.907289718876267L167.7857142857143,81.86252767747962L168.2,113.41659352956471L168.6142857142857,132.56810996389268L169.02857142857144,143.83994290141254L169.44285714285715,150.60304266392444L169.85714285714286,154.5513640598931L170.27142857142857,157.3585107436282L170.68571428571428,158.49510644617692L171.1,159.39614079078308L171.5142857142857,159.71768447446985L171.92857142857142,160.02014914622038L172.34285714285716,159.87301256465528L172.75714285714287,159.56565369263933L173.17142857142858,159.8193922155836L173.58571428571426,159.6430199447348L174,159.64673504376393L174.4142857142857,159.10127179548914L174.82857142857142,159.5407630772935L175.24285714285716,159.8044578463761L175.65714285714287,157.66236701551796L176.07142857142856,158.23926636315693L176.48571428571427,105.89740597174031L176.9,74.49228973689034L177.31428571428572,55.64921999598036L177.72857142857143,44.34337815143437L178.14285714285717,42.70818073701449L178.55714285714288,62.97752382682407L178.97142857142856,48.74036044994059L179.38571428571427,40.19806242381051L179.8,65.08622206967092L180.21428571428572,103.0221947802641L180.62857142857143,124.25023994508153L181.04285714285714,137.64429781320277L181.45714285714286,145.24257868792165L181.87142857142857,146.62493182813762L182.28571428571428,151.72634371226718L182.7,154.34903699659108L183.11428571428573,132.5909606594931L183.52857142857144,141.8819610110805L183.94285714285712,147.89471506818674L184.35714285714283,150.4069828870659L184.77142857142857,152.02388203993186L185.18571428571428,153.43217537780527L185.6,154.2771513805293L186.01428571428573,154.45552159754834L186.42857142857144,154.67208218929824L186.84285714285713,147.24386469819433L187.25714285714284,142.02016497276276L187.67142857142858,138.00963744519612L188.0857142857143,136.15101323634843L188.5,132.62599255719368L188.91428571428574,131.05867245739313L189.32857142857142,119.16443424366665L189.74285714285713,126.4869682385077L190.15714285714284,124.3081809431046L190.57142857142858,85.53875471970895L190.9857142857143,62.27709898567153L191.4,48.32010554524908L191.81428571428572,46.737294096380225L192.22857142857143,90.8079149193666L192.64285714285714,117.25028741315842L193.05714285714285,108.25048014020273L193.47142857142856,128.37305731489087L193.8857142857143,87.97768054278067L194.3,109.30845447951457L194.7142857142857,127.69338038001644L195.1285714285714,141.1341820741637L195.54285714285714,147.33650924449822L195.95714285714286,153.02959785439126L196.37142857142857,155.78822025109628L196.7857142857143,157.99108599681162L197.20000000000002,159.4223439057793L197.6142857142857,160.1715601896214L198.0285714285714,160.40201303684978L198.44285714285715,160.75936166826372L198.85714285714286,161.192847770189L199.27142857142857,161.34340096980569L199.6857142857143,161.10511750496036L200.1,161.18122434913005L200.5142857142857,161.33642691717034L200.92857142857142,161.2104715349176L201.34285714285716,161.35397522864287L201.75714285714287,161.54961590641648L202.17142857142858,161.5574618515422L202.5857142857143,161.45263095707918L203,161.38973242040134L203.4142857142857,161.24245483685618L203.82857142857142,161.04454982519064L204.24285714285713,161.36396066434514L204.65714285714287,161.55560716783785L205.07142857142858,161.3419796853181L205.48571428571427,161.21380319580624L205.89999999999998,161.02735884056065L206.31428571428572,161.02503068895177L206.72857142857143,161.02363379798646L207.14285714285714,161.13233412494571L207.55714285714288,161.19755432112126L207.9714285714286,160.6889941311343L208.38571428571427,107.36724263252674L208.79999999999998,114.91757634874682L209.21428571428572,100.16900734770964L209.62857142857143,102.27371210093348L210.04285714285714,93.34945802979085L210.45714285714286,66.96352097172067L210.87142857142857,51.13195873687856L211.28571428571428,41.633021395973294L211.7,57.62227437604552L212.11428571428573,85.83736462562732L212.52857142857144,108.90057262153024L212.94285714285715,127.33911280368739L213.35714285714286,132.9253138360586L213.77142857142857,141.425342147789L214.18571428571428,145.64905144251955L214.6,148.40235394243481L215.0142857142857,151.47833544238398L215.42857142857144,152.88577049619963L215.84285714285716,152.63484691310438L216.25714285714284,154.45598507093953L216.67142857142855,154.56282181179452L217.0857142857143,157.25584693323054L217.5,144.52212354455372L217.9142857142857,97.66712028057839L218.32857142857145,69.55411832219319L218.74285714285716,52.68631714716206L219.15714285714284,70.05979028829725L219.57142857142856,52.98972032682451L219.9857142857143,50.52490911917162L220.4,41.26879162534914L220.81428571428572,35.71512112905563L221.22857142857143,32.38291883127951L221.64285714285714,30.383597452613884L222.05714285714285,29.18400462541448L222.47142857142856,71.07471046755636L222.88571428571427,100.4811339728415L223.3,86.7969880760126L223.71428571428572,107.17603899945371L224.12857142857143,91.36162339967223L224.54285714285714,65.77082019364948L224.95714285714286,50.41633827003586L225.37142857142857,41.20364911586768L225.78571428571428,35.67603562336678L226.20000000000002,32.359467527866194L226.61428571428573,30.369526670565875L227.0285714285714,66.41863907926262L227.44285714285712,87.71949113986526L227.85714285714286,102.909848530073L228.27142857142857,106.43760142573612L228.68571428571428,74.81640700928781L229.10000000000002,92.97722882095731L229.51428571428573,106.39310652334362L229.92857142857142,115.31894083708308L230.34285714285713,121.00305680994217L230.75714285714287,125.07075716288837L231.17142857142858,127.18276199004072L231.5857142857143,128.2308879632552L232,128.2025327779531L232.4142857142857,128.62367351292573L232.82857142857142,128.0000502616016L233.24285714285713,127.62587631080712L233.65714285714284,87.5293719403304L234.07142857142858,88.66531547189057L234.4857142857143,101.50565082159588L234.9,110.19569818526523L235.3142857142857,107.7420342957745L235.72857142857143,120.29075903900316L236.14285714285714,83.12830157724805L236.55714285714285,60.83082710019498L236.9714285714286,100.03080395242468L237.3857142857143,106.13417467914712L237.79999999999998,108.48173557671903L238.2142857142857,116.79119519218527L238.62857142857143,101.07410173069577L239.04285714285714,80.36138411534056L239.45714285714286,100.57621508458895L239.8714285714286,107.88542135844568L240.2857142857143,75.68509896891356L240.7,56.364905535194275L241.1142857142857,85.41155870573196L241.52857142857144,102.62047368497764L241.94285714285715,112.28859190329426L242.35714285714286,117.87038591120734L242.77142857142857,118.80961616210902L243.18571428571428,121.45438508188079L243.6,121.61724643374386L244.0142857142857,124.45342478332324L244.42857142857142,123.52620871614779L244.84285714285716,122.42218676815021L245.25714285714287,84.40715821473628L245.67142857142858,78.24798723653407L246.08571428571426,106.75679234192047L246.5,106.00730617438303L246.9142857142857,123.63146062770674L247.32857142857142,134.64410714585483L247.74285714285716,141.25169505674367L248.15714285714287,143.35409395712313L248.57142857142856,144.83461022042772L248.98571428571427,146.2706122861028L249.4,146.47498275627706L249.81428571428572,147.36437426915083L250.22857142857143,146.14539379225974L250.64285714285717,147.6047747368943L251.05714285714288,146.61824945752122L251.47142857142856,124.88541121297425L251.88571428571427,131.34355442009226L252.3,134.45167111359382L252.71428571428572,135.98792574507934L253.12857142857143,134.49983237012455L253.54285714285714,131.85436096053627L253.95714285714286,90.06646273016791L254.37142857142857,98.29341609963919L254.78571428571428,98.95758812132199L255.2,70.32839902663935L255.61428571428573,72.53919326213743L256.02857142857147,90.95366980343633L256.4428571428571,117.00912495898487L256.85714285714283,132.97101343692938L257.27142857142854,143.9721465236961L257.6857142857143,150.68236483729459L258.1,154.59895736391522L258.51428571428573,141.17537441834912L258.92857142857144,148.56614772793256L259.34285714285716,152.89107325214414L259.75714285714287,142.1223362589788L260.1714285714286,147.60078637077189L260.5857142857143,139.3863179763093L261,133.03363693963175L261.4142857142857,130.6460283176252L261.8285714285714,131.73284775980588L262.24285714285713,89.99355480972967L262.65714285714284,64.94997903968395L263.07142857142856,49.92383357765653L263.48571428571427,87.5715309158247L263.90000000000003,101.72568778026405L264.31428571428575,119.09079728354305L264.7285714285714,130.60524760089504L265.1428571428571,138.8283793297678L265.5571428571429,142.7764122132453L265.9714285714286,144.81661655871642L266.3857142857143,141.987816089076L266.8,140.07145888421482L267.2142857142857,137.8262599459135L267.62857142857143,135.1646790444712L268.04285714285714,133.45819204206734L268.45714285714286,131.010299840625L268.87142857142857,105.55264144283655L269.2857142857143,74.28543101954808L269.7,55.525104765575016L270.1142857142857,44.26890901319118L270.5285714285714,66.21426848483777L270.9428571428571,80.6959457062873L271.35714285714283,66.38187511608008L271.7714285714286,80.57743276195573L272.1857142857143,111.98830581101959L272.59999999999997,106.51729117891944L273.0142857142857,110.2451439381209L273.42857142857144,105.03324020902637L273.84285714285716,106.725790279262L274.25714285714287,81.78070493678796L274.6714285714286,86.859192192842L275.0857142857143,95.38320762339751L275.5,100.38807842019234" style="fill: none;" fill="none"></path></g><g><path stroke="rgb(255, 112, 67)" stroke-width="2px" d="M20.71428571428571,161.56923076923076L21.12857142857143,161.7403846153846L21.542857142857144,161.7927786499215L21.95714285714286,161.69004524886878L22.37142857142857,161.63764479795014L22.785714285714285,161.723839130794L23.2,161.8856010064891L23.614285714285717,161.86830079602117L24.02857142857143,161.85810853230822L24.442857142857143,161.96226413928042L24.857142857142858,162.0243529707903L25.271428571428572,162.0614617910679L25.685714285714283,161.97399360434923L26.099999999999998,161.92158586295184L26.514285714285716,161.78057752546044L26.92857142857143,161.80558433920402L27.342857142857145,161.82058391167973L27.757142857142856,161.72003244269732L28.17142857142857,161.44061782383181L28.585714285714285,161.60160734956202L29,161.6981972978569L29.41428571428571,161.64661000740574L29.82857142857143,161.5061187410953L30.242857142857144,161.64090265254552L30.65714285714286,161.6122338177133L31.07142857142857,161.81410986576086L31.485714285714284,161.71615812689618L31.9,161.76692567654453L32.31428571428572,161.79738618638086L32.72857142857143,161.8156624850997L33.14285714285714,161.71708978567702L33.55714285714286,161.65794617439147L33.971428571428575,161.62246001063266L34.385714285714286,161.71070677813873L34.8,161.5445779101812L35.214285714285715,161.66397751657104L35.628571428571426,161.62607881740038L36.042857142857144,161.7128780599933L36.45714285714286,161.6554191435603L36.871428571428574,161.73048225546728L37.285714285714285,161.77552012254728L37.7,159.06408130299275L38.114285714285714,160.0661410897773L38.52857142857143,160.66737696166282L38.94285714285714,161.13765694627736L39.357142857142854,161.2007480139242L39.77142857142857,161.45767957759492L40.18571428571428,161.39276159270935L40.6,161.5728877248588L41.01428571428571,161.79050186568628L41.42857142857142,161.70199342710362L41.84285714285715,161.75842682549313L42.25714285714286,161.7922868645267L42.67142857142857,161.3744490417925L43.08571428571429,161.12374634815228L43.5,161.30194011658375L43.91428571428572,161.2993179161041L44.32857142857143,161.2977445958163L44.74285714285714,161.07772368056666L45.15714285714286,160.9457111314169L45.57142857142857,161.30465744808095L45.98571428571428,161.30094831500242L46.4,161.62733821977068L46.81428571428571,161.49455677801623L47.228571428571435,161.52442637450204L47.642857142857146,161.54234813239353L48.05714285714286,161.55310118712842L48.471428571428575,161.34047609689244L48.885714285714286,161.54151642736625L49.300000000000004,161.4430637025736L49.714285714285715,161.60306899077491L50.128571428571426,161.69907216369572L50.542857142857144,161.7566740674482L50.957142857142856,161.68169674816122L51.37142857142857,161.5271718950506L51.785714285714285,161.4344569831842L52.199999999999996,161.4883664976028L52.614285714285714,161.52071220625402L53.02857142857143,161.64965809298317L53.44285714285714,161.6174871634822L53.85714285714286,161.48864614424318L54.27142857142857,161.19226460962284L54.68571428571429,161.343051073466L55.1,161.4335229517719L55.51428571428571,161.59734454029393L55.92857142857143,161.25748364725325L56.34285714285714,161.49172095758274L56.75714285714285,161.19410949762656L57.17142857142857,161.34415800626823L57.58571428571428,161.43418711145324L58,161.3786661130258L58.41428571428571,161.67396889858472L58.82857142857142,161.52253518530466L59.24285714285715,161.65075188041357L59.65714285714286,161.7276818974789L60.07142857142858,161.7738399077181L60.48571428571429,161.36338086770778L60.9,161.44572082831698L61.31428571428572,161.16650942006711L61.72857142857143,161.32759795973257L62.14285714285714,161.20517416045493L62.55714285714286,161.24125834242682L62.97142857142857,161.3724473131484L63.385714285714286,161.3416222340429L63.8,161.21358872504112L64.21428571428571,161.13676861964007L64.62857142857143,160.8715996333225L65.04285714285714,161.1506520876858L65.45714285714286,161.20854509876534L65.87142857142857,161.02420398233613L66.28571428571428,161.13267623555552L66.7,160.97868266441023L67.11428571428571,161.3244403678769L67.52857142857142,161.42235652841845L67.94285714285715,161.48110622474337L68.35714285714286,161.51635604253835L68.77142857142857,161.3184290101384L69.18571428571428,160.54244202146765L69.6,160.73408059749596L70.01428571428572,160.7395252815745L70.42857142857143,160.85233055356008L70.84285714285714,160.92001371675144L71.25714285714285,160.8510851531278L71.67142857142856,161.0288049380305L72.08571428571429,161.13543680897214L72.5,161.19941593153715L72.91428571428573,161.23780340507614L73.32857142857142,161.15129742766106L73.74285714285715,161.09939384121202L74.15714285714286,160.63009784318874L74.57142857142857,160.45805870591326L74.98571428571428,160.68345060816333L75.4,161.0377626725903L75.81428571428572,161.14081144970802L76.22857142857143,160.98356379290175L76.64285714285714,160.77967673727952L77.05714285714286,160.5478060423677L77.47142857142856,160.737299010036L77.88571428571429,159.86514863679082L78.30000000000001,159.78001225899757L78.71428571428571,160.05754581693702L79.12857142857143,160.55268133631603L79.54285714285714,160.63068572486654L79.95714285714286,160.67748835799685L80.37142857142857,160.70556993787503L80.78571428571429,160.2842650396481L81.2,159.4837897930196L81.61428571428571,158.3462738758118L82.02857142857142,158.54007201779476L82.44285714285715,159.3135816722153L82.85714285714285,159.99676438794458L83.27142857142857,160.29713555584365L83.6857142857143,159.9296659488908L84.1,160.2568764924114L84.51428571428572,160.23412589544685L84.92857142857143,160.33001399880658L85.34285714285714,159.8398545531301L85.75714285714285,160.20298965495496L86.17142857142858,160.4208707160499L86.58571428571429,160.22298396809148L87,160.2137903808549L87.41428571428571,160.3178126900514L87.82857142857144,160.16114915249236L88.24285714285713,159.40992026072618L88.65714285714286,159.39733677182033L89.07142857142858,159.82794052463066L89.48571428571428,159.53861046862454L89.9,159.25547397348242L90.31428571428572,158.97605361485867L90.72857142857143,158.58932447660752L91.14285714285714,158.46682545519528L91.55714285714286,158.61240296542485L91.97142857142856,158.6997494715626L92.38571428571429,158.42354199062987L92.8,158.14827904053178L93.21428571428572,158.8594289627806L93.62857142857142,158.73842660843758L94.04285714285714,158.8849021189087L94.45714285714287,157.87740280980677L94.87142857142857,158.1492109166533L95.28571428571429,158.0932188576843L95.7,157.7310082376875L96.11428571428571,158.1709126349202L96.52857142857142,158.32531681172134L96.94285714285715,158.41795931780203L97.35714285714285,158.14492943683507L97.77142857142857,158.30972689287026L98.18571428571428,157.86091305879907L98.60000000000001,156.93439398912562L99.0142857142857,156.59755947039844L99.42857142857143,156.5049972207006L99.84285714285716,156.9971521785742L100.25714285714285,156.6352143840676L100.67142857142858,156.19897478428672L101.08571428571429,155.49907717826434L101.5,153.21698476849704L101.91428571428571,152.61449855340592L102.32857142857144,152.36254528588972L102.74285714285713,152.10183486384153L103.15714285714286,151.50725476445876L103.57142857142857,151.36958362790602L103.9857142857143,151.06790402289747L104.39999999999999,149.2438193368154L104.81428571428572,146.0681377559354L105.22857142857143,145.258113422792L105.64285714285714,147.29148343829058L106.05714285714286,146.21119775528206L106.47142857142858,139.9765648070154L106.88571428571429,142.26040042267076L107.3,143.95931717667938L107.71428571428572,139.93989799831533L108.12857142857142,137.41870802975842L108.54285714285714,139.84937866400892L108.95714285714286,138.56931950609766L109.37142857142858,135.72005324212012L109.78571428571428,134.12003194527207L110.2,137.10340378254787L110.61428571428571,137.7980422695287L111.02857142857142,136.79082536171722L111.44285714285714,138.81541829395343L111.85714285714286,143.09725097637204L112.27142857142857,145.11865827813094L112.68571428571428,146.11242573610932L113.10000000000001,140.46499390320403L113.5142857142857,144.4156117265378L113.92857142857143,144.26659780515345L114.34285714285714,145.92980483693822L114.75714285714287,139.2600367483168L115.17142857142856,137.22986820283623L115.58571428571429,138.53115169093252L116,142.26946024532873L116.41428571428571,139.9118299933511L116.82857142857142,134.11571338062606L117.24285714285715,134.3623511052987L117.65714285714284,134.61987220164076L118.07142857142857,137.2937694748306L118.4857142857143,133.2021078387445L118.89999999999999,138.08618778016978L119.31428571428572,139.70217420656343L119.72857142857143,140.56222760086112L120.14285714285715,140.0924134835936L120.55714285714285,140.79637116707923L120.97142857142858,140.23289962332447L121.38571428571429,138.68989362014852L121.8,138.64039771055067L122.21428571428571,137.8439309340227L122.62857142857143,140.8712816373367L123.04285714285713,144.00215359778664L123.45714285714286,145.33298446636428L123.87142857142858,146.78871375674166L124.28571428571428,137.14645902327575L124.7,142.2054138755039L125.11428571428571,144.6930944791485L125.52857142857144,141.58508745671986L125.94285714285714,136.43412939710885L126.35714285714286,133.34355456134222L126.77142857142857,131.48920965988228L127.18571428571428,128.0762950266986L127.6,127.34300778524992L128.01428571428573,122.95965082499612L128.42857142857142,122.41086741807459L128.84285714285716,123.1769819893063L129.25714285714287,124.40341996281454L129.67142857142858,126.45374428538103L130.0857142857143,126.69809272507477L130.5,129.8022402504295L130.9142857142857,129.91211338102693L131.32857142857142,130.63526802861617L131.74285714285713,131.17869927870817L132.15714285714287,131.61429649030183L132.57142857142856,132.09473174033494L132.9857142857143,132.93068519804714L133.4,132.11779573421288L133.81428571428572,132.2872928251431L134.22857142857143,128.77422184893203L134.64285714285714,129.95253310935922L135.05714285714285,129.78321217330785L135.47142857142856,128.47669653475393L135.8857142857143,127.3641717670062L136.29999999999998,129.7637338294345L136.71428571428572,129.23177875919916L137.12857142857143,128.69352879398102L137.54285714285714,130.0136557379271L137.95714285714286,131.02480882737163L138.37142857142857,132.3982699118076L138.78571428571428,133.77003887016147L139.2,135.03125409132767L139.61428571428573,133.3781370701812L140.02857142857144,134.68657454980104L140.44285714285715,133.93809857603446L140.85714285714286,134.36532068408223L141.27142857142857,134.18350010275702L141.68571428571428,133.96486929242343L142.1,135.25769080622328L142.5142857142857,133.29492217604167L142.92857142857144,134.6366456133173L143.34285714285713,136.64660275260576L143.75714285714287,131.718423190025L144.17142857142858,131.49997699093808L144.5857142857143,133.66921696379362L145,133.21814556289155L145.4142857142857,131.8521181069657L145.82857142857145,130.1561939411025L146.24285714285716,131.1103317492769L146.65714285714284,130.9160452034123L147.07142857142856,127.84193481435504L147.4857142857143,130.05039165784382L147.9,128.63700422547552L148.31428571428572,125.92681791990069L148.72857142857143,126.71055229040194L149.14285714285714,124.99002368193347L149.55714285714285,128.12016805531394L149.97142857142856,128.13610083318835L150.38571428571427,128.69335280760532L150.8,128.91816553071703L151.21428571428572,123.90474547227637L151.62857142857143,126.59269343721199L152.04285714285714,127.11007760078873L152.45714285714286,125.66789271431941L152.87142857142857,130.06042793628393L153.28571428571428,134.22948753100113L153.70000000000002,134.3210771339853L154.11428571428573,135.14280012654504L154.5285714285714,126.653680075927L154.94285714285712,131.8568234301716L155.35714285714286,135.6359402119491L155.77142857142857,131.22156412716947L156.18571428571428,110.93724616860936L156.60000000000002,115.85465539347332L157.01428571428573,121.1054086206994L157.42857142857142,123.59862978780423L157.84285714285713,130.4619471034518L158.25714285714287,133.8131682620711L158.67142857142858,136.70020864955035L159.0857142857143,139.3087405743456L159.5,137.36862895999198L159.9142857142857,134.5614850683029L160.32857142857142,133.2058141179048L160.74285714285713,135.02133462458903L161.15714285714284,135.23433923629187L161.57142857142858,135.36214200331358L161.9857142857143,136.42466981737277L162.4,138.7052634288852L162.8142857142857,139.9640811342542L163.22857142857143,140.06214098824483L163.64285714285714,141.65451536217768L164.05714285714285,141.07640152499891L164.4714285714286,141.27722553038396L164.8857142857143,141.9454122413073L165.29999999999998,143.33217042170745L165.7142857142857,139.56360994533216L166.12857142857143,129.8538582748916L166.54285714285714,127.20462265724267L166.95714285714286,87.27661974819173L167.3714285714286,108.12104877199198L167.7857142857143,119.86093695550285L168.2,128.21933140407097L168.6142857142857,132.0294449962887L169.02857142857144,135.52043622854245L169.44285714285715,137.39595404481778L169.85714285714286,138.4117262730445L170.27142857142857,139.56888191767285L170.68571428571428,139.27732915060372L171.1,138.66424364420837L171.5142857142857,137.4200846480635L171.92857142857142,138.42620463499196L172.34285714285716,131.25264585791825L172.75714285714287,133.5208182839817L173.17142857142858,136.41526020115825L173.58571428571426,122.37838688992572L174,130.277493672417L174.4142857142857,133.26434235729633L174.82857142857142,123.22629772207011L175.24285714285716,126.18562478708822L175.65714285714287,120.84122102609908L176.07142857142856,126.83580953873638L176.48571428571427,130.76117803093413L176.9,111.53732220317585L177.31428571428572,110.95685486036706L177.72857142857143,109.07503599314332L178.14285714285717,121.74779082665522L178.55714285714288,131.65175141907005L178.97142857142856,134.19843546682665L179.38571428571427,138.0267535877883L179.8,93.76989830651912L180.21428571428572,110.81209283006532L180.62857142857143,119.1752556980392L181.04285714285714,119.59253803420815L181.45714285714286,125.10075358975566L181.87142857142857,125.00999061539187L182.28571428571428,122.21707129231203L182.7,124.70378123692568L183.11428571428573,123.89549951138618L183.52857142857144,126.36806893760094L183.94285714285712,128.83745674717593L184.35714285714283,127.25201250984404L184.77142857142857,127.06751519821411L185.18571428571428,124.98512450354386L185.6,122.96892085597248L186.01428571428573,127.45519866742964L186.42857142857144,128.28481150815009L186.84285714285713,128.12534844335158L187.25714285714284,127.37243983524174L187.67142857142858,130.75454082422195L188.0857142857143,132.7838014176101L188.5,130.7152039274891L188.91428571428574,128.159583894955L189.32857142857142,126.84528879851146L189.74285714285713,134.1625578944915L190.15714285714284,134.71907319823336L190.57142857142858,134.17667468817078L190.9857142857143,133.85123558213326L191.4,117.22520288774147L191.81428571428572,116.56035250187566L192.22857142857143,120.54298073189464L192.64285714285714,104.9682499775983L193.05714285714285,124.54156537117437L193.47142857142856,107.69601614578156L193.8857142857143,127.38314814900738L194.3,104.25265812017366L194.7142857142857,112.50113333364266L195.1285714285714,78.45452615403174L195.54285714285714,58.0265618462652L195.95714285714286,45.76978326160528L196.37142857142857,64.70494688004008L196.7857142857143,66.20758351263943L197.20000000000002,83.64947318450673L197.6142857142857,78.77922237224251L198.0285714285714,90.75430265411474L198.44285714285715,94.32458159246885L198.85714285714286,67.54859510932745L199.27142857142857,51.48300321944264L199.6857142857143,41.843648085511724L200.1,72.2077273128455L200.5142857142857,96.77940561847655L200.92857142857142,69.0214895249321L201.34285714285716,52.36673986880542L201.75714285714287,69.21081315205248L202.17142857142858,68.2538725066161L202.5857142857143,75.5664773501235L203,56.293732563920265L203.4142857142857,71.34793184604447L203.82857142857142,73.15091295378055L204.24285714285713,97.23577854149912L204.65714285714287,112.23439020182252L205.07142857142858,120.46678796724737L205.48571428571427,124.09176508804073L205.89999999999998,85.40890520667058L206.31428571428572,90.3505738932331L206.72857142857143,107.33649818209372L207.14285714285714,116.98036044771777L207.55714285714288,123.31437011478451L207.9714285714286,123.93816053040915L208.38571428571427,92.87489631824549L208.79999999999998,66.67878394479345L209.21428571428572,60.71003959764532L209.62857142857143,47.379869912433335L210.04285714285714,39.38176810130617L210.45714285714286,34.58290701462986L210.87142857142857,31.70359036262408L211.28571428571428,38.30092344834366L211.7,33.93440022285238L212.11428571428573,31.314486287557603L212.52857142857144,30.509307157149923L212.94285714285715,29.259430448136136L213.35714285714286,35.6295044227278L213.77142857142857,36.16539496132901L214.18571428571428,54.01308313064356L214.6,43.3616960322323L215.0142857142857,36.97086377318555L215.42857142857144,33.1363644177575L215.84285714285716,30.83566480450064L216.25714285714284,29.455245036546533L216.67142857142855,28.626993175774093L217.0857142857143,28.130042059310593L217.5,27.831871389432507L217.9142857142857,27.652968987505673L218.32857142857145,27.545627546349554L218.74285714285716,27.481222681655893" style="fill: none;" fill="none"></path></g></g></g></g><g opacity="0.2"><g><g><g><path stroke="rgb(0, 119, 187)" stroke-width="2px" d="M20.71428571428571,161.56923076923076L21.12857142857143,161.29538461538462L21.542857142857144,161.84307692307692L21.95714285714286,161.56923076923076L22.37142857142857,161.56923076923076L22.785714285714285,161.84307692307692L23.2,162.1169230769231L23.614285714285717,161.84307692307692L24.02857142857143,161.84307692307692L24.442857142857143,162.1169230769231L24.857142857142858,162.1169230769231L25.271428571428572,162.1169230769231L25.685714285714283,161.56923076923076L26.099999999999998,161.29538461538462L26.514285714285716,161.02153846153846L26.92857142857143,161.56923076923076L27.342857142857145,160.74769230769232L27.757142857142856,160.47384615384615L28.17142857142857,160.74769230769232L28.585714285714285,161.29538461538462L29,161.56923076923076L29.41428571428571,160.47384615384615L29.82857142857143,160.74769230769232L30.242857142857144,161.56923076923076L30.65714285714286,160.74769230769232L31.07142857142857,161.56923076923076L31.485714285714284,159.6523076923077L31.9,160.20000000000002L32.31428571428572,161.02153846153846L32.72857142857143,159.92615384615385L33.14285714285714,158.28307692307692L33.55714285714286,157.73538461538462L33.971428571428575,158.83076923076922L34.385714285714286,160.20000000000002L34.8,154.72307692307692L35.214285714285715,158.83076923076922L35.628571428571426,157.46153846153845L36.042857142857144,158.55692307692308L36.45714285714286,160.74769230769232L36.871428571428574,160.47384615384615L37.285714285714285,161.29538461538462L37.7,161.84307692307692L38.114285714285714,161.29538461538462L38.52857142857143,161.56923076923076L38.94285714285714,161.84307692307692L39.357142857142854,161.02153846153846L39.77142857142857,161.84307692307692L40.18571428571428,160.20000000000002L40.6,161.84307692307692L41.01428571428571,161.02153846153846L41.42857142857142,160.74769230769232L41.84285714285715,160.47384615384615L42.25714285714286,161.29538461538462L42.67142857142857,160.47384615384615L43.08571428571429,160.47384615384615L43.5,160.20000000000002L43.91428571428572,160.74769230769232L44.32857142857143,160.74769230769232L44.74285714285714,160.47384615384615L45.15714285714286,161.02153846153846L45.57142857142857,161.56923076923076L45.98571428571428,161.56923076923076L46.4,161.56923076923076L46.81428571428571,161.02153846153846L47.228571428571435,161.29538461538462L47.642857142857146,161.02153846153846L48.05714285714286,161.02153846153846L48.471428571428575,161.02153846153846L48.885714285714286,161.56923076923076L49.300000000000004,161.29538461538462L49.714285714285715,161.29538461538462L50.128571428571426,161.56923076923076L50.542857142857144,161.84307692307692L50.957142857142856,161.84307692307692L51.37142857142857,161.84307692307692L51.785714285714285,161.56923076923076L52.199999999999996,161.29538461538462L52.614285714285714,161.84307692307692L53.02857142857143,161.56923076923076L53.44285714285714,161.02153846153846L53.85714285714286,159.92615384615385L54.27142857142857,161.02153846153846L54.68571428571429,161.29538461538462L55.1,161.56923076923076L55.51428571428571,161.56923076923076L55.92857142857143,160.74769230769232L56.34285714285714,161.56923076923076L56.75714285714285,160.47384615384615L57.17142857142857,161.29538461538462L57.58571428571428,159.92615384615385L58,160.20000000000002L58.41428571428571,161.02153846153846L58.82857142857142,160.47384615384615L59.24285714285715,161.02153846153846L59.65714285714286,161.29538461538462L60.07142857142858,160.20000000000002L60.48571428571429,159.10461538461539L60.9,158.00923076923075L61.31428571428572,160.47384615384615L61.72857142857143,159.37846153846155L62.14285714285714,142.9476923076923L62.55714285714286,141.57846153846154L62.97142857142857,141.03076923076924L63.385714285714286,138.56615384615384L63.8,132.54153846153847L64.21428571428571,129.52923076923076L64.62857142857143,119.12307692307694L65.04285714285714,118.84923076923077L65.45714285714286,99.40615384615384L65.87142857142857,133.08923076923077L66.28571428571428,118.84923076923077L66.7,127.33846153846154L67.11428571428571,110.90769230769232L67.52857142857142,121.31384615384616L67.94285714285715,32.040000000000006L68.35714285714286,103.7876923076923L68.77142857142857,75.85538461538461L69.18571428571428,123.77846153846154L69.6,118.30153846153846L70.01428571428572,118.02769230769232L70.42857142857143,119.94461538461539L70.84285714285714,116.9323076923077L71.25714285714285,117.20615384615384L71.67142857142856,119.12307692307694L72.08571428571429,96.39384615384616L72.5,112.27692307692307L72.91428571428573,102.41846153846154L73.32857142857142,99.13230769230768L73.74285714285715,87.35692307692307L74.15714285714286,115.0153846153846L74.57142857142857,100.2276923076923L74.98571428571428,104.88307692307693L75.4,122.68307692307694L75.81428571428572,102.96615384615384L76.22857142857143,117.75384615384615L76.64285714285714,113.92L77.05714285714286,112.27692307692307L77.47142857142856,132.2676923076923L77.88571428571429,113.37230769230769L78.30000000000001,124.6L78.71428571428571,112.55076923076922L79.12857142857143,121.86153846153846L79.54285714285714,122.95692307692309L79.95714285714286,132.54153846153847L80.37142857142857,133.63692307692307L80.78571428571429,113.09846153846155L81.2,121.31384615384616L81.61428571428571,124.6L82.02857142857142,87.90461538461538L82.44285714285715,104.33538461538461L82.85714285714285,103.51384615384616L83.27142857142857,86.26153846153846L83.6857142857143,116.9323076923077L84.1,108.71692307692307L84.51428571428572,115.83692307692307L84.92857142857143,120.76615384615384L85.34285714285714,116.38461538461539L85.75714285714285,108.16923076923078L86.17142857142858,115.0153846153846L86.58571428571429,108.71692307692307L87,126.79076923076923L87.41428571428571,100.2276923076923L87.82857142857144,112.27692307692307L88.24285714285713,108.71692307692307L88.65714285714286,115.28923076923077L89.07142857142858,109.81230769230768L89.48571428571428,113.09846153846155L89.9,120.21846153846154L90.31428571428572,115.56307692307693L90.72857142857143,128.43384615384613L91.14285714285714,105.43076923076923L91.55714285714286,110.63384615384616L91.97142857142856,113.37230769230769L92.38571428571429,109.81230769230768L92.8,99.13230769230768L93.21428571428572,119.94461538461539L93.62857142857142,114.74153846153845L94.04285714285714,119.12307692307694L94.45714285714287,102.41846153846154L94.87142857142857,108.16923076923078L95.28571428571429,124.6L95.7,109.81230769230768L96.11428571428571,103.7876923076923L96.52857142857142,127.61230769230771L96.94285714285715,125.42153846153846L97.35714285714285,124.6L97.77142857142857,132.54153846153847L98.18571428571428,126.79076923076923L98.60000000000001,100.2276923076923L99.0142857142857,120.21846153846154L99.42857142857143,116.65846153846155L99.84285714285716,125.69538461538461L100.25714285714285,127.33846153846154L100.67142857142858,126.51692307692309L101.08571428571429,122.68307692307694L101.5,115.56307692307693L101.91428571428571,125.42153846153846L102.32857142857144,124.0523076923077L102.74285714285713,107.34769230769231L103.15714285714286,126.51692307692309L103.57142857142857,122.95692307692309L103.9857142857143,123.77846153846154L104.39999999999999,117.20615384615384L104.81428571428572,118.30153846153846L105.22857142857143,115.0153846153846L105.64285714285714,115.28923076923077L106.05714285714286,116.65846153846155L106.47142857142858,117.20615384615384L106.88571428571429,121.86153846153846L107.3,51.75692307692308L107.71428571428572,89.82153846153848L108.12857142857142,89.82153846153848L108.54285714285714,120.21846153846154L108.95714285714286,122.13538461538461L109.37142857142858,117.20615384615384L109.78571428571428,87.08307692307693L110.2,123.77846153846154L110.61428571428571,126.51692307692309L111.02857142857142,119.39692307692307L111.44285714285714,109.26461538461538L111.85714285714286,49.56615384615384L112.27142857142857,70.65230769230769L112.68571428571428,80.23692307692309L113.10000000000001,145.41230769230768L113.5142857142857,98.03692307692307L113.92857142857143,113.37230769230769L114.34285714285714,100.50153846153846L114.75714285714287,110.63384615384616L115.17142857142856,99.95384615384616L115.58571428571429,114.74153846153845L116,103.7876923076923L116.41428571428571,126.51692307692309L116.82857142857142,103.51384615384616L117.24285714285715,99.95384615384616L117.65714285714284,123.23076923076923L118.07142857142857,90.09538461538462L118.4857142857143,90.6430769230769L118.89999999999999,122.40923076923077L119.31428571428572,96.66769230769229L119.72857142857143,101.87076923076923L120.14285714285715,27.384615384615387L120.55714285714285,113.64615384615384L120.97142857142858,27.384615384615387L121.38571428571429,125.96923076923076L121.8,106.52615384615385L122.21428571428571,27.384615384615387L122.62857142857143,121.03999999999999L123.04285714285713,114.46769230769232L123.45714285714286,150.0676923076923L123.87142857142858,129.52923076923076L124.28571428571428,121.03999999999999L124.7,81.88L125.11428571428571,123.23076923076923L125.52857142857144,72.84307692307691L125.94285714285714,90.36923076923077L126.35714285714286,129.25538461538463L126.77142857142857,112.27692307692307L127.18571428571428,115.56307692307693L127.6,124.32615384615384L128.01428571428573,144.59076923076924L128.42857142857142,114.74153846153845L128.84285714285716,110.90769230769232L129.25714285714287,122.13538461538461L129.67142857142858,57.5076923076923L130.0857142857143,101.59692307692306L130.5,112.55076923076922L130.9142857142857,105.97846153846154L131.32857142857142,107.89538461538461L131.74285714285713,90.91692307692307L132.15714285714287,116.9323076923077L132.57142857142856,83.52307692307693L132.9857142857143,53.9476923076923L133.4,93.92923076923077L133.81428571428572,98.31076923076924L134.22857142857143,97.76307692307691L134.64285714285714,96.66769230769229L135.05714285714285,95.5723076923077L135.47142857142856,110.63384615384616L135.8857142857143,85.44L136.29999999999998,80.51076923076923L136.71428571428572,125.69538461538461L137.12857142857143,123.23076923076923L137.54285714285714,124.32615384615384L137.95714285714286,90.09538461538462L138.37142857142857,91.46461538461539L138.78571428571428,80.51076923076923L139.2,102.96615384615384L139.61428571428573,78.8676923076923L140.02857142857144,27.384615384615387L140.44285714285715,118.30153846153846L140.85714285714286,89.27384615384615L141.27142857142857,90.09538461538462L141.68571428571428,78.32L142.1,87.90461538461538L142.5142857142857,118.02769230769232L142.92857142857144,113.92L143.34285714285713,107.34769230769231L143.75714285714287,123.50461538461538L144.17142857142858,125.96923076923076L144.5857142857143,117.20615384615384L145,27.384615384615387L145.4142857142857,110.08615384615383L145.82857142857145,108.16923076923078L146.24285714285716,106.52615384615385L146.65714285714284,27.384615384615387L147.07142857142856,27.384615384615387L147.4857142857143,30.94461538461539L147.9,27.384615384615387L148.31428571428572,109.26461538461538L148.72857142857143,27.384615384615387L149.14285714285714,37.24307692307692L149.55714285714285,27.384615384615387L149.97142857142856,27.384615384615387L150.38571428571427,27.384615384615387L150.8,27.384615384615387L151.21428571428572,27.384615384615387L151.62857142857143,27.384615384615387L152.04285714285714,27.384615384615387L152.45714285714286,139.66153846153847L152.87142857142857,115.0153846153846L153.28571428571428,129.52923076923076L153.70000000000002,73.39076923076922L154.11428571428573,27.384615384615387L154.5285714285714,55.86461538461539L154.94285714285712,80.23692307692309L155.35714285714286,27.384615384615387L155.77142857142857,27.384615384615387L156.18571428571428,27.384615384615387L156.60000000000002,36.1476923076923L157.01428571428573,107.34769230769231L157.42857142857142,27.384615384615387L157.84285714285713,88.45230769230768L158.25714285714287,115.0153846153846L158.67142857142858,100.77538461538462L159.0857142857143,27.384615384615387L159.5,27.384615384615387L159.9142857142857,96.12L160.32857142857142,28.75384615384615L160.74285714285713,27.384615384615387L161.15714285714284,86.80923076923077L161.57142857142858,68.46153846153845L161.9857142857143,83.52307692307693L162.4,157.73538461538462L162.8142857142857,158.55692307692308L163.22857142857143,110.08615384615383L163.64285714285714,114.74153846153845L164.05714285714285,118.02769230769232L164.4714285714286,27.384615384615387L164.8857142857143,27.384615384615387L165.29999999999998,27.384615384615387L165.7142857142857,27.384615384615387L166.12857142857143,27.384615384615387L166.54285714285714,27.384615384615387L166.95714285714286,27.384615384615387L167.3714285714286,27.384615384615387L167.7857142857143,161.29538461538462L168.2,160.74769230769232L168.6142857142857,161.29538461538462L169.02857142857144,160.74769230769232L169.44285714285715,160.74769230769232L169.85714285714286,160.47384615384615L170.27142857142857,161.56923076923076L170.68571428571428,160.20000000000002L171.1,160.74769230769232L171.5142857142857,160.20000000000002L171.92857142857142,160.47384615384615L172.34285714285716,159.6523076923077L172.75714285714287,159.10461538461539L173.17142857142858,160.20000000000002L173.58571428571426,159.37846153846155L174,159.6523076923077L174.4142857142857,158.28307692307692L174.82857142857142,160.20000000000002L175.24285714285716,160.20000000000002L175.65714285714287,154.44923076923075L176.07142857142856,159.10461538461539L176.48571428571427,27.384615384615387L176.9,27.384615384615387L177.31428571428572,27.384615384615387L177.72857142857143,27.384615384615387L178.14285714285717,40.255384615384614L178.55714285714288,93.38153846153845L178.97142857142856,27.384615384615387L179.38571428571427,27.384615384615387L179.8,102.41846153846154L180.21428571428572,159.92615384615385L180.62857142857143,156.09230769230768L181.04285714285714,157.73538461538462L181.45714285714286,156.64000000000001L181.87142857142857,148.69846153846154L182.28571428571428,159.37846153846155L182.7,158.28307692307692L183.11428571428573,99.95384615384616L183.52857142857144,155.81846153846155L183.94285714285712,156.91384615384615L184.35714285714283,154.17538461538462L184.77142857142857,154.44923076923075L185.18571428571428,155.54461538461538L185.6,155.54461538461538L186.01428571428573,154.72307692307692L186.42857142857144,154.99692307692308L186.84285714285713,136.10153846153847L187.25714285714284,134.18461538461537L187.67142857142858,131.99384615384614L188.0857142857143,133.36307692307693L188.5,127.33846153846154L188.91428571428574,128.7076923076923L189.32857142857142,101.32307692307693L189.74285714285713,137.47076923076924L190.15714285714284,121.03999999999999L190.57142857142858,27.384615384615387L190.9857142857143,27.384615384615387L191.4,27.384615384615387L191.81428571428572,44.363076923076925L192.22857142857143,156.91384615384615L192.64285714285714,156.91384615384615L193.05714285714285,94.75076923076924L193.47142857142856,158.55692307692308L193.8857142857143,27.384615384615387L194.3,141.30461538461537L194.7142857142857,155.27076923076925L195.1285714285714,161.29538461538462L195.54285714285714,156.64000000000001L195.95714285714286,161.56923076923076L196.37142857142857,159.92615384615385L196.7857142857143,161.29538461538462L197.20000000000002,161.56923076923076L197.6142857142857,161.29538461538462L198.0285714285714,160.74769230769232L198.44285714285715,161.29538461538462L198.85714285714286,161.84307692307692L199.27142857142857,161.56923076923076L199.6857142857143,160.74769230769232L200.1,161.29538461538462L200.5142857142857,161.56923076923076L200.92857142857142,161.02153846153846L201.34285714285716,161.56923076923076L201.75714285714287,161.84307692307692L202.17142857142858,161.56923076923076L202.5857142857143,161.29538461538462L203,161.29538461538462L203.4142857142857,161.02153846153846L203.82857142857142,160.74769230769232L204.24285714285713,161.84307692307692L204.65714285714287,161.84307692307692L205.07142857142858,161.02153846153846L205.48571428571427,161.02153846153846L205.89999999999998,160.74769230769232L206.31428571428572,161.02153846153846L206.72857142857143,161.02153846153846L207.14285714285714,161.29538461538462L207.55714285714288,161.29538461538462L207.9714285714286,159.92615384615385L208.38571428571427,27.384615384615387L208.79999999999998,126.24307692307693L209.21428571428572,78.04615384615384L209.62857142857143,105.43076923076923L210.04285714285714,79.96307692307693L210.45714285714286,27.384615384615387L210.87142857142857,27.384615384615387L211.28571428571428,27.384615384615387L211.7,81.60615384615384L212.11428571428573,128.16L212.52857142857144,143.49538461538464L212.94285714285715,154.99692307692308L213.35714285714286,141.30461538461537L213.77142857142857,154.17538461538462L214.18571428571428,151.98461538461538L214.6,152.53230769230768L215.0142857142857,156.09230769230768L215.42857142857144,154.99692307692308L215.84285714285716,152.25846153846155L216.25714285714284,157.18769230769232L216.67142857142855,154.72307692307692L217.0857142857143,161.29538461538462L217.5,125.42153846153846L217.9142857142857,27.384615384615387L218.32857142857145,27.384615384615387L218.74285714285716,27.384615384615387L219.15714285714284,96.12L219.57142857142856,27.384615384615387L219.9857142857143,46.82769230769231L220.4,27.384615384615387L220.81428571428572,27.384615384615387L221.22857142857143,27.384615384615387L221.64285714285714,27.384615384615387L222.05714285714285,27.384615384615387L222.47142857142856,133.91076923076923L222.88571428571427,144.59076923076924L223.3,66.27076923076923L223.71428571428572,137.74461538461537L224.12857142857143,67.64L224.54285714285714,27.384615384615387L224.95714285714286,27.384615384615387L225.37142857142857,27.384615384615387L225.78571428571428,27.384615384615387L226.20000000000002,27.384615384615387L226.61428571428573,27.384615384615387L227.0285714285714,120.4923076923077L227.44285714285712,119.67076923076922L227.85714285714286,125.69538461538461L228.27142857142857,111.72923076923078L228.68571428571428,27.384615384615387L229.10000000000002,120.21846153846154L229.51428571428573,126.51692307692309L229.92857142857142,128.7076923076923L230.34285714285713,129.52923076923076L230.75714285714287,131.1723076923077L231.17142857142858,130.35076923076923L231.5857142857143,129.80307692307693L232,128.16L232.4142857142857,129.25538461538463L232.82857142857142,127.06461538461538L233.24285714285713,127.06461538461538L233.65714285714284,27.384615384615387L234.07142857142858,90.36923076923077L234.4857142857143,120.76615384615384L234.9,123.23076923076923L235.3142857142857,104.06153846153845L235.72857142857143,139.11384615384614L236.14285714285714,27.384615384615387L236.55714285714285,27.384615384615387L236.9714285714286,158.83076923076922L237.3857142857143,115.28923076923077L237.79999999999998,112.00307692307693L238.2142857142857,129.25538461538463L238.62857142857143,77.49846153846154L239.04285714285714,49.292307692307695L239.45714285714286,130.89846153846153L239.8714285714286,118.84923076923077L240.2857142857143,27.384615384615387L240.7,27.384615384615387L241.1142857142857,128.98153846153846L241.52857142857144,128.43384615384613L241.94285714285715,126.79076923076923L242.35714285714286,126.24307692307693L242.77142857142857,120.21846153846154L243.18571428571428,125.42153846153846L243.6,121.86153846153846L244.0142857142857,128.7076923076923L244.42857142857142,122.13538461538461L244.84285714285716,120.76615384615384L245.25714285714287,27.384615384615387L245.67142857142858,69.00923076923077L246.08571428571426,149.51999999999998L246.5,104.88307692307693L246.9142857142857,150.0676923076923L247.32857142857142,151.16307692307691L247.74285714285716,151.16307692307691L248.15714285714287,146.5076923076923L248.57142857142856,147.0553846153846L248.98571428571427,148.4246153846154L249.4,146.78153846153847L249.81428571428572,148.69846153846154L250.22857142857143,144.31692307692308L250.64285714285717,149.79384615384615L251.05714285714288,145.13846153846154L251.47142857142856,92.28615384615385L251.88571428571427,141.03076923076924L252.3,139.11384615384614L252.71428571428572,138.2923076923077L253.12857142857143,132.2676923076923L253.54285714285714,127.88615384615385L253.95714285714286,27.384615384615387L254.37142857142857,110.63384615384616L254.78571428571428,99.95384615384616L255.2,27.384615384615387L255.61428571428573,75.85538461538461L256.02857142857147,118.5753846153846L256.4428571428571,156.09230769230768L256.85714285714283,156.91384615384615L257.27142857142854,160.47384615384615L257.6857142857143,160.74769230769232L258.1,160.47384615384615L258.51428571428573,121.03999999999999L258.92857142857144,159.6523076923077L259.34285714285716,159.37846153846155L259.75714285714287,125.96923076923076L260.1714285714286,155.81846153846155L260.5857142857143,127.06461538461538L261,123.50461538461538L261.4142857142857,127.06461538461538L261.8285714285714,133.36307692307693L262.24285714285713,27.384615384615387L262.65714285714284,27.384615384615387L263.07142857142856,27.384615384615387L263.48571428571427,144.0430769230769L263.90000000000003,122.95692307692309L264.31428571428575,145.13846153846154L264.7285714285714,147.87692307692308L265.1428571428571,151.16307692307691L265.5571428571429,148.69846153846154L265.9714285714286,147.87692307692308L266.3857142857143,137.74461538461537L266.8,137.19692307692307L267.2142857142857,134.45846153846153L267.62857142857143,131.1723076923077L268.04285714285714,130.89846153846153L268.45714285714286,127.33846153846154L268.87142857142857,67.36615384615385L269.2857142857143,27.384615384615387L269.7,27.384615384615387L270.1142857142857,27.384615384615387L270.5285714285714,99.13230769230768L270.9428571428571,102.41846153846154L271.35714285714283,44.91076923076924L271.7714285714286,101.87076923076923L272.1857142857143,159.10461538461539L272.59999999999997,98.31076923076924L273.0142857142857,115.83692307692307L273.42857142857144,97.21538461538462L273.84285714285716,109.26461538461538L274.25714285714287,44.363076923076925L274.6714285714286,94.47692307692307L275.0857142857143,108.16923076923078L275.5,107.89538461538461" style="fill: none;" fill="none"></path></g><g><path stroke="rgb(255, 112, 67)" stroke-width="2px" d="M20.71428571428571,161.56923076923076L21.12857142857143,161.84307692307692L21.542857142857144,161.84307692307692L21.95714285714286,161.56923076923076L22.37142857142857,161.56923076923076L22.785714285714285,161.84307692307692L23.2,162.1169230769231L23.614285714285717,161.84307692307692L24.02857142857143,161.84307692307692L24.442857142857143,162.1169230769231L24.857142857142858,162.1169230769231L25.271428571428572,162.1169230769231L25.685714285714283,161.84307692307692L26.099999999999998,161.84307692307692L26.514285714285716,161.56923076923076L26.92857142857143,161.84307692307692L27.342857142857145,161.84307692307692L27.757142857142856,161.56923076923076L28.17142857142857,161.02153846153846L28.585714285714285,161.84307692307692L29,161.84307692307692L29.41428571428571,161.56923076923076L29.82857142857143,161.29538461538462L30.242857142857144,161.84307692307692L30.65714285714286,161.56923076923076L31.07142857142857,162.1169230769231L31.485714285714284,161.56923076923076L31.9,161.84307692307692L32.31428571428572,161.84307692307692L32.72857142857143,161.84307692307692L33.14285714285714,161.56923076923076L33.55714285714286,161.56923076923076L33.971428571428575,161.56923076923076L34.385714285714286,161.84307692307692L34.8,161.29538461538462L35.214285714285715,161.84307692307692L35.628571428571426,161.56923076923076L36.042857142857144,161.84307692307692L36.45714285714286,161.56923076923076L36.871428571428574,161.84307692307692L37.285714285714285,161.84307692307692L37.7,154.99692307692308L38.114285714285714,161.56923076923076L38.52857142857143,161.56923076923076L38.94285714285714,161.84307692307692L39.357142857142854,161.29538461538462L39.77142857142857,161.84307692307692L40.18571428571428,161.29538461538462L40.6,161.84307692307692L41.01428571428571,162.1169230769231L41.42857142857142,161.56923076923076L41.84285714285715,161.84307692307692L42.25714285714286,161.84307692307692L42.67142857142857,160.74769230769232L43.08571428571429,160.74769230769232L43.5,161.56923076923076L43.91428571428572,161.29538461538462L44.32857142857143,161.29538461538462L44.74285714285714,160.74769230769232L45.15714285714286,160.74769230769232L45.57142857142857,161.84307692307692L45.98571428571428,161.29538461538462L46.4,162.1169230769231L46.81428571428571,161.29538461538462L47.228571428571435,161.56923076923076L47.642857142857146,161.56923076923076L48.05714285714286,161.56923076923076L48.471428571428575,161.02153846153846L48.885714285714286,161.84307692307692L49.300000000000004,161.29538461538462L49.714285714285715,161.84307692307692L50.128571428571426,161.84307692307692L50.542857142857144,161.84307692307692L50.957142857142856,161.56923076923076L51.37142857142857,161.29538461538462L51.785714285714285,161.29538461538462L52.199999999999996,161.56923076923076L52.614285714285714,161.56923076923076L53.02857142857143,161.84307692307692L53.44285714285714,161.56923076923076L53.85714285714286,161.29538461538462L54.27142857142857,160.74769230769232L54.68571428571429,161.56923076923076L55.1,161.56923076923076L55.51428571428571,161.84307692307692L55.92857142857143,160.74769230769232L56.34285714285714,161.84307692307692L56.75714285714285,160.74769230769232L57.17142857142857,161.56923076923076L57.58571428571428,161.56923076923076L58,161.29538461538462L58.41428571428571,162.1169230769231L58.82857142857142,161.29538461538462L59.24285714285715,161.84307692307692L59.65714285714286,161.84307692307692L60.07142857142858,161.84307692307692L60.48571428571429,160.74769230769232L60.9,161.56923076923076L61.31428571428572,160.74769230769232L61.72857142857143,161.56923076923076L62.14285714285714,161.02153846153846L62.55714285714286,161.29538461538462L62.97142857142857,161.56923076923076L63.385714285714286,161.29538461538462L63.8,161.02153846153846L64.21428571428571,161.02153846153846L64.62857142857143,160.47384615384615L65.04285714285714,161.56923076923076L65.45714285714286,161.29538461538462L65.87142857142857,160.74769230769232L66.28571428571428,161.29538461538462L66.7,160.74769230769232L67.11428571428571,161.84307692307692L67.52857142857142,161.56923076923076L67.94285714285715,161.56923076923076L68.35714285714286,161.56923076923076L68.77142857142857,161.02153846153846L69.18571428571428,159.37846153846155L69.6,161.02153846153846L70.01428571428572,160.74769230769232L70.42857142857143,161.02153846153846L70.84285714285714,161.02153846153846L71.25714285714285,160.74769230769232L71.67142857142856,161.29538461538462L72.08571428571429,161.29538461538462L72.5,161.29538461538462L72.91428571428573,161.29538461538462L73.32857142857142,161.02153846153846L73.74285714285715,161.02153846153846L74.15714285714286,159.92615384615385L74.57142857142857,160.20000000000002L74.98571428571428,161.02153846153846L75.4,161.56923076923076L75.81428571428572,161.29538461538462L76.22857142857143,160.74769230769232L76.64285714285714,160.47384615384615L77.05714285714286,160.20000000000002L77.47142857142856,161.02153846153846L77.88571428571429,158.55692307692308L78.30000000000001,159.6523076923077L78.71428571428571,160.47384615384615L79.12857142857143,161.29538461538462L79.54285714285714,160.74769230769232L79.95714285714286,160.74769230769232L80.37142857142857,160.74769230769232L80.78571428571429,159.6523076923077L81.2,158.28307692307692L81.61428571428571,156.64000000000001L82.02857142857142,158.83076923076922L82.44285714285715,160.47384615384615L82.85714285714285,161.02153846153846L83.27142857142857,160.74769230769232L83.6857142857143,159.37846153846155L84.1,160.74769230769232L84.51428571428572,160.20000000000002L84.92857142857143,160.47384615384615L85.34285714285714,159.10461538461539L85.75714285714285,160.74769230769232L86.17142857142858,160.74769230769232L86.58571428571429,159.92615384615385L87,160.20000000000002L87.41428571428571,160.47384615384615L87.82857142857144,159.92615384615385L88.24285714285713,158.28307692307692L88.65714285714286,159.37846153846155L89.07142857142858,160.47384615384615L89.48571428571428,159.10461538461539L89.9,158.83076923076922L90.31428571428572,158.55692307692308L90.72857142857143,158.00923076923075L91.14285714285714,158.28307692307692L91.55714285714286,158.83076923076922L91.97142857142856,158.83076923076922L92.38571428571429,158.00923076923075L92.8,157.73538461538462L93.21428571428572,159.92615384615385L93.62857142857142,158.55692307692308L94.04285714285714,159.10461538461539L94.45714285714287,156.36615384615385L94.87142857142857,158.55692307692308L95.28571428571429,158.00923076923075L95.7,157.18769230769232L96.11428571428571,158.83076923076922L96.52857142857142,158.55692307692308L96.94285714285715,158.55692307692308L97.35714285714285,157.73538461538462L97.77142857142857,158.55692307692308L98.18571428571428,157.18769230769232L98.60000000000001,155.54461538461538L99.0142857142857,156.09230769230768L99.42857142857143,156.36615384615385L99.84285714285716,157.73538461538462L100.25714285714285,156.09230769230768L100.67142857142858,155.54461538461538L101.08571428571429,154.44923076923075L101.5,149.79384615384615L101.91428571428571,151.71076923076924L102.32857142857144,151.98461538461538L102.74285714285713,151.71076923076924L103.15714285714286,150.6153846153846L103.57142857142857,151.16307692307691L103.9857142857143,150.6153846153846L104.39999999999999,146.5076923076923L104.81428571428572,141.30461538461537L105.22857142857143,144.0430769230769L105.64285714285714,150.34153846153848L106.05714285714286,144.59076923076924L106.47142857142858,130.62461538461537L106.88571428571429,145.68615384615384L107.3,146.5076923076923L107.71428571428572,133.91076923076923L108.12857142857142,133.63692307692307L108.54285714285714,143.49538461538464L108.95714285714286,136.64923076923077L109.37142857142858,131.44615384615386L109.78571428571428,131.72L110.2,141.57846153846154L110.61428571428571,138.84L111.02857142857142,135.28L111.44285714285714,141.8523076923077L111.85714285714286,149.51999999999998L112.27142857142857,148.15076923076924L112.68571428571428,147.6030769230769L113.10000000000001,131.99384615384614L113.5142857142857,150.34153846153848L113.92857142857143,144.0430769230769L114.34285714285714,148.4246153846154L114.75714285714287,129.25538461538463L115.17142857142856,134.18461538461537L115.58571428571429,140.4830769230769L116,147.87692307692308L116.41428571428571,136.37538461538463L116.82857142857142,125.42153846153846L117.24285714285715,134.7323076923077L117.65714285714284,135.00615384615386L118.07142857142857,141.30461538461537L118.4857142857143,127.06461538461538L118.89999999999999,145.41230769230768L119.31428571428572,142.12615384615384L119.72857142857143,141.8523076923077L120.14285714285715,139.3876923076923L120.55714285714285,141.8523076923077L120.97142857142858,139.3876923076923L121.38571428571429,136.37538461538463L121.8,138.56615384615384L122.21428571428571,136.64923076923077L122.62857142857143,145.41230769230768L123.04285714285713,148.69846153846154L123.45714285714286,147.32923076923078L123.87142857142858,148.97230769230768L124.28571428571428,122.68307692307694L124.7,149.79384615384615L125.11428571428571,148.4246153846154L125.52857142857144,136.9230769230769L125.94285714285714,128.7076923076923L126.35714285714286,128.7076923076923L126.77142857142857,128.7076923076923L127.18571428571428,122.95692307692309L127.6,126.24307692307693L128.01428571428573,116.38461538461539L128.42857142857142,121.58769230769232L128.84285714285716,124.32615384615384L129.25714285714287,126.24307692307693L129.67142857142858,129.52923076923076L130.0857142857143,127.06461538461538L130.5,134.45846153846153L130.9142857142857,130.0769230769231L131.32857142857142,131.72L131.74285714285713,131.99384615384614L132.15714285714287,132.2676923076923L132.57142857142856,132.81538461538463L132.9857142857143,134.18461538461537L133.4,130.89846153846153L133.81428571428572,132.54153846153847L134.22857142857143,123.50461538461538L134.64285714285714,131.72L135.05714285714285,129.52923076923076L135.47142857142856,126.51692307692309L135.8857142857143,125.69538461538461L136.29999999999998,133.36307692307693L136.71428571428572,128.43384615384613L137.12857142857143,127.88615384615385L137.54285714285714,131.99384615384614L137.95714285714286,132.54153846153847L138.37142857142857,134.45846153846153L138.78571428571428,135.8276923076923L139.2,136.9230769230769L139.61428571428573,130.89846153846153L140.02857142857144,136.64923076923077L140.44285714285715,132.81538461538463L140.85714285714286,135.00615384615386L141.27142857142857,133.91076923076923L141.68571428571428,133.63692307692307L142.1,137.19692307692307L142.5142857142857,130.35076923076923L142.92857142857144,136.64923076923077L143.34285714285713,139.66153846153847L143.75714285714287,124.32615384615384L144.17142857142858,131.1723076923077L144.5857142857143,136.9230769230769L145,132.54153846153847L145.4142857142857,129.80307692307693L145.82857142857145,127.61230769230771L146.24285714285716,132.54153846153847L146.65714285714284,130.62461538461537L147.07142857142856,123.23076923076923L147.4857142857143,133.36307692307693L147.9,126.51692307692309L148.31428571428572,121.86153846153846L148.72857142857143,127.88615384615385L149.14285714285714,122.40923076923077L149.55714285714285,132.81538461538463L149.97142857142856,128.16L150.38571428571427,129.52923076923076L150.8,129.25538461538463L151.21428571428572,116.38461538461539L151.62857142857143,130.62461538461537L152.04285714285714,127.88615384615385L152.45714285714286,123.50461538461538L152.87142857142857,136.64923076923077L153.28571428571428,140.4830769230769L153.70000000000002,134.45846153846153L154.11428571428573,136.37538461538463L154.5285714285714,113.92L154.94285714285712,139.66153846153847L155.35714285714286,141.30461538461537L155.77142857142857,124.6L156.18571428571428,80.51076923076923L156.60000000000002,123.23076923076923L157.01428571428573,128.98153846153846L157.42857142857142,127.33846153846154L157.84285714285713,140.75692307692307L158.25714285714287,138.84L158.67142857142858,141.03076923076924L159.0857142857143,143.22153846153847L159.5,134.45846153846153L159.9142857142857,130.35076923076923L160.32857142857142,131.1723076923077L160.74285714285713,137.74461538461537L161.15714285714284,135.55384615384614L161.57142857142858,135.55384615384614L161.9857142857143,138.01846153846154L162.4,142.12615384615384L162.8142857142857,141.8523076923077L163.22857142857143,140.20923076923077L163.64285714285714,144.0430769230769L164.05714285714285,140.20923076923077L164.4714285714286,141.57846153846154L164.8857142857143,142.9476923076923L165.29999999999998,145.41230769230768L165.7142857142857,133.91076923076923L166.12857142857143,115.28923076923077L166.54285714285714,123.23076923076923L166.95714285714286,27.384615384615387L167.3714285714286,139.3876923076923L167.7857142857143,137.47076923076924L168.2,140.75692307692307L168.6142857142857,137.74461538461537L169.02857142857144,140.75692307692307L169.44285714285715,140.20923076923077L169.85714285714286,139.93538461538463L170.27142857142857,141.30461538461537L170.68571428571428,138.84L171.1,137.74461538461537L171.5142857142857,135.55384615384614L171.92857142857142,139.93538461538463L172.34285714285716,120.4923076923077L172.75714285714287,136.9230769230769L173.17142857142858,140.75692307692307L173.58571428571426,101.32307692307693L174,142.12615384615384L174.4142857142857,137.74461538461537L174.82857142857142,108.16923076923078L175.24285714285716,130.62461538461537L175.65714285714287,112.82461538461538L176.07142857142856,135.8276923076923L176.48571428571427,136.64923076923077L176.9,82.70153846153846L177.31428571428572,110.08615384615383L177.72857142857143,106.25230769230768L178.14285714285717,140.75692307692307L178.55714285714288,146.5076923076923L178.97142857142856,138.01846153846154L179.38571428571427,143.76923076923077L179.8,27.384615384615387L180.21428571428572,136.37538461538463L180.62857142857143,131.72L181.04285714285714,120.21846153846154L181.45714285714286,133.36307692307693L181.87142857142857,124.87384615384616L182.28571428571428,118.02769230769232L182.7,128.43384615384613L183.11428571428573,122.68307692307694L183.52857142857144,130.0769230769231L183.94285714285712,132.54153846153847L184.35714285714283,124.87384615384616L184.77142857142857,126.79076923076923L185.18571428571428,121.86153846153846L185.6,119.94461538461539L186.01428571428573,134.18461538461537L186.42857142857144,129.52923076923076L186.84285714285713,127.88615384615385L187.25714285714284,126.24307692307693L187.67142857142858,135.8276923076923L188.0857142857143,135.8276923076923L188.5,127.61230769230771L188.91428571428574,124.32615384615384L189.32857142857142,124.87384615384616L189.74285714285713,145.13846153846154L190.15714285714284,135.55384615384614L190.57142857142858,133.36307692307693L190.9857142857143,133.36307692307693L191.4,92.28615384615385L191.81428571428572,115.56307692307693L192.22857142857143,126.51692307692309L192.64285714285714,81.60615384615384L193.05714285714285,153.90153846153845L193.47142857142856,82.4276923076923L193.8857142857143,156.91384615384615L194.3,69.55692307692307L194.7142857142857,124.87384615384616L195.1285714285714,27.384615384615387L195.54285714285714,27.384615384615387L195.95714285714286,27.384615384615387L196.37142857142857,93.10769230769229L196.7857142857143,68.46153846153845L197.20000000000002,109.81230769230768L197.6142857142857,71.47384615384615L198.0285714285714,108.71692307692307L198.44285714285715,99.68L198.85714285714286,27.384615384615387L199.27142857142857,27.384615384615387L199.6857142857143,27.384615384615387L200.1,117.75384615384615L200.5142857142857,133.63692307692307L200.92857142857142,27.384615384615387L201.34285714285716,27.384615384615387L201.75714285714287,94.47692307692307L202.17142857142858,66.81846153846155L202.5857142857143,86.53538461538461L203,27.384615384615387L203.4142857142857,93.92923076923077L203.82857142857142,75.85538461538461L204.24285714285713,133.36307692307693L204.65714285714287,134.7323076923077L205.07142857142858,132.81538461538463L205.48571428571427,129.52923076923076L205.89999999999998,27.384615384615387L206.31428571428572,97.76307692307691L206.72857142857143,132.81538461538463L207.14285714285714,131.44615384615386L207.55714285714288,132.81538461538463L207.9714285714286,124.87384615384616L208.38571428571427,46.28L208.79999999999998,27.384615384615387L209.21428571428572,51.75692307692308L209.62857142857143,27.384615384615387L210.04285714285714,27.384615384615387L210.45714285714286,27.384615384615387L210.87142857142857,27.384615384615387L211.28571428571428,48.19692307692308L211.7,27.384615384615387L212.11428571428573,27.384615384615387L212.52857142857144,29.30153846153846L212.94285714285715,27.384615384615387L213.35714285714286,45.184615384615384L213.77142857142857,36.969230769230776L214.18571428571428,80.78461538461539L214.6,27.384615384615387L215.0142857142857,27.384615384615387L215.42857142857144,27.384615384615387L215.84285714285716,27.384615384615387L216.25714285714284,27.384615384615387L216.67142857142855,27.384615384615387L217.0857142857143,27.384615384615387L217.5,27.384615384615387L217.9142857142857,27.384615384615387L218.32857142857145,27.384615384615387L218.74285714285716,27.384615384615387" style="fill: none;" fill="none"></path></g></g></g></g></g></g><g transform="translate(40, 178)" clip-path="url(#clip_1)"><clipPath id="clip_1"><rect width="290" height="22"></rect></clipPath><g><g><line x1="0" y1="0" x2="0" y2="5" style="visibility: inherit;" fill="rgb(0, 0, 0)" stroke="rgb(204, 204, 204)" stroke-width="1px"></line><line x1="20.71428571428571" y1="0" x2="20.71428571428571" y2="5" style="visibility: inherit;" fill="rgb(0, 0, 0)" stroke="rgb(204, 204, 204)" stroke-width="1px"></line><line x1="41.42857142857142" y1="0" x2="41.42857142857142" y2="5" style="visibility: inherit;" fill="rgb(0, 0, 0)" stroke="rgb(204, 204, 204)" stroke-width="1px"></line><line x1="62.14285714285714" y1="0" x2="62.14285714285714" y2="5" style="visibility: inherit;" fill="rgb(0, 0, 0)" stroke="rgb(204, 204, 204)" stroke-width="1px"></line><line x1="82.85714285714285" y1="0" x2="82.85714285714285" y2="5" style="visibility: inherit;" fill="rgb(0, 0, 0)" stroke="rgb(204, 204, 204)" stroke-width="1px"></line><line x1="103.57142857142857" y1="0" x2="103.57142857142857" y2="5" style="visibility: inherit;" fill="rgb(0, 0, 0)" stroke="rgb(204, 204, 204)" stroke-width="1px"></line><line x1="124.28571428571428" y1="0" x2="124.28571428571428" y2="5" style="visibility: inherit;" fill="rgb(0, 0, 0)" stroke="rgb(204, 204, 204)" stroke-width="1px"></line><line x1="145" y1="0" x2="145" y2="5" style="visibility: inherit;" fill="rgb(0, 0, 0)" stroke="rgb(204, 204, 204)" stroke-width="1px"></line><line x1="165.7142857142857" y1="0" x2="165.7142857142857" y2="5" style="visibility: inherit;" fill="rgb(0, 0, 0)" stroke="rgb(204, 204, 204)" stroke-width="1px"></line><line x1="186.42857142857144" y1="0" x2="186.42857142857144" y2="5" style="visibility: inherit;" fill="rgb(0, 0, 0)" stroke="rgb(204, 204, 204)" stroke-width="1px"></line><line x1="207.14285714285714" y1="0" x2="207.14285714285714" y2="5" style="visibility: inherit;" fill="rgb(0, 0, 0)" stroke="rgb(204, 204, 204)" stroke-width="1px"></line><line x1="227.85714285714286" y1="0" x2="227.85714285714286" y2="5" style="visibility: inherit;" fill="rgb(0, 0, 0)" stroke="rgb(204, 204, 204)" stroke-width="1px"></line><line x1="248.57142857142856" y1="0" x2="248.57142857142856" y2="5" style="visibility: inherit;" fill="rgb(0, 0, 0)" stroke="rgb(204, 204, 204)" stroke-width="1px"></line><line x1="269.2857142857143" y1="0" x2="269.2857142857143" y2="5" style="visibility: inherit;" fill="rgb(0, 0, 0)" stroke="rgb(204, 204, 204)" stroke-width="1px"></line><line x1="290" y1="0" x2="290" y2="5" style="visibility: inherit;" fill="rgb(0, 0, 0)" stroke="rgb(204, 204, 204)" stroke-width="1px"></line></g><g transform="translate(0, 8)"><text x="0" y="0" dx="0em" dy="0.95em" style="text-anchor: middle; visibility: hidden; font-family: Roboto, sans-serif; font-size: 12px; font-weight: 200;" fill="rgb(50, 49, 63)" stroke="none" stroke-width="1px">-50</text><text x="20.71428571428571" y="0" dx="0em" dy="0.95em" style="text-anchor: middle; visibility: inherit; font-family: Roboto, sans-serif; font-size: 12px; font-weight: 200;" fill="rgb(50, 49, 63)" stroke="none" stroke-width="1px">0</text><text x="41.42857142857142" y="0" dx="0em" dy="0.95em" style="text-anchor: middle; visibility: hidden; font-family: Roboto, sans-serif; font-size: 12px; font-weight: 200;" fill="rgb(50, 49, 63)" stroke="none" stroke-width="1px">50</text><text x="62.14285714285714" y="0" dx="0em" dy="0.95em" style="text-anchor: middle; visibility: inherit; font-family: Roboto, sans-serif; font-size: 12px; font-weight: 200;" fill="rgb(50, 49, 63)" stroke="none" stroke-width="1px">100</text><text x="82.85714285714285" y="0" dx="0em" dy="0.95em" style="text-anchor: middle; visibility: hidden; font-family: Roboto, sans-serif; font-size: 12px; font-weight: 200;" fill="rgb(50, 49, 63)" stroke="none" stroke-width="1px">150</text><text x="103.57142857142857" y="0" dx="0em" dy="0.95em" style="text-anchor: middle; visibility: inherit; font-family: Roboto, sans-serif; font-size: 12px; font-weight: 200;" fill="rgb(50, 49, 63)" stroke="none" stroke-width="1px">200</text><text x="124.28571428571428" y="0" dx="0em" dy="0.95em" style="text-anchor: middle; visibility: hidden; font-family: Roboto, sans-serif; font-size: 12px; font-weight: 200;" fill="rgb(50, 49, 63)" stroke="none" stroke-width="1px">250</text><text x="145" y="0" dx="0em" dy="0.95em" style="text-anchor: middle; visibility: inherit; font-family: Roboto, sans-serif; font-size: 12px; font-weight: 200;" fill="rgb(50, 49, 63)" stroke="none" stroke-width="1px">300</text><text x="165.7142857142857" y="0" dx="0em" dy="0.95em" style="text-anchor: middle; visibility: hidden; font-family: Roboto, sans-serif; font-size: 12px; font-weight: 200;" fill="rgb(50, 49, 63)" stroke="none" stroke-width="1px">350</text><text x="186.42857142857144" y="0" dx="0em" dy="0.95em" style="text-anchor: middle; visibility: inherit; font-family: Roboto, sans-serif; font-size: 12px; font-weight: 200;" fill="rgb(50, 49, 63)" stroke="none" stroke-width="1px">400</text><text x="207.14285714285714" y="0" dx="0em" dy="0.95em" style="text-anchor: middle; visibility: hidden; font-family: Roboto, sans-serif; font-size: 12px; font-weight: 200;" fill="rgb(50, 49, 63)" stroke="none" stroke-width="1px">450</text><text x="227.85714285714286" y="0" dx="0em" dy="0.95em" style="text-anchor: middle; visibility: inherit; font-family: Roboto, sans-serif; font-size: 12px; font-weight: 200;" fill="rgb(50, 49, 63)" stroke="none" stroke-width="1px">500</text><text x="248.57142857142856" y="0" dx="0em" dy="0.95em" style="text-anchor: middle; visibility: hidden; font-family: Roboto, sans-serif; font-size: 12px; font-weight: 200;" fill="rgb(50, 49, 63)" stroke="none" stroke-width="1px">550</text><text x="269.2857142857143" y="0" dx="0em" dy="0.95em" style="text-anchor: middle; visibility: inherit; font-family: Roboto, sans-serif; font-size: 12px; font-weight: 200;" fill="rgb(50, 49, 63)" stroke="none" stroke-width="1px">600</text><text x="290" y="0" dx="0em" dy="0.95em" style="text-anchor: middle; visibility: hidden; font-family: Roboto, sans-serif; font-size: 12px; font-weight: 200;" fill="rgb(50, 49, 63)" stroke="none" stroke-width="1px">650</text></g><line x1="0" y1="0" x2="290" y2="0" fill="rgb(0, 0, 0)" stroke="rgb(204, 204, 204)" stroke-width="1px"></line></g></g></g></g></svg>