<svg viewBox="0 0 330 200" xmlns="http://www.w3.org/2000/svg"><g><g><g><g><g><line x1="50" y1="178" x2="45" y2="178" style="visibility: inherit;" fill="rgb(0, 0, 0)" stroke="rgb(204, 204, 204)" stroke-width="1px"></line><line x1="50" y1="166.13333333333333" x2="45" y2="166.13333333333333" style="visibility: inherit;" fill="rgb(0, 0, 0)" stroke="rgb(204, 204, 204)" stroke-width="1px"></line><line x1="50" y1="154.26666666666668" x2="45" y2="154.26666666666668" style="visibility: inherit;" fill="rgb(0, 0, 0)" stroke="rgb(204, 204, 204)" stroke-width="1px"></line><line x1="50" y1="142.39999999999998" x2="45" y2="142.39999999999998" style="visibility: inherit;" fill="rgb(0, 0, 0)" stroke="rgb(204, 204, 204)" stroke-width="1px"></line><line x1="50" y1="130.53333333333333" x2="45" y2="130.53333333333333" style="visibility: inherit;" fill="rgb(0, 0, 0)" stroke="rgb(204, 204, 204)" stroke-width="1px"></line><line x1="50" y1="118.66666666666669" x2="45" y2="118.66666666666669" style="visibility: inherit;" fill="rgb(0, 0, 0)" stroke="rgb(204, 204, 204)" stroke-width="1px"></line><line x1="50" y1="106.79999999999998" x2="45" y2="106.79999999999998" style="visibility: inherit;" fill="rgb(0, 0, 0)" stroke="rgb(204, 204, 204)" stroke-width="1px"></line><line x1="50" y1="94.93333333333335" x2="45" y2="94.93333333333335" style="visibility: inherit;" fill="rgb(0, 0, 0)" stroke="rgb(204, 204, 204)" stroke-width="1px"></line><line x1="50" y1="83.06666666666666" x2="45" y2="83.06666666666666" style="visibility: inherit;" fill="rgb(0, 0, 0)" stroke="rgb(204, 204, 204)" stroke-width="1px"></line><line x1="50" y1="71.2" x2="45" y2="71.2" style="visibility: inherit;" fill="rgb(0, 0, 0)" stroke="rgb(204, 204, 204)" stroke-width="1px"></line><line x1="50" y1="59.33333333333334" x2="45" y2="59.33333333333334" style="visibility: inherit;" fill="rgb(0, 0, 0)" stroke="rgb(204, 204, 204)" stroke-width="1px"></line><line x1="50" y1="47.466666666666654" x2="45" y2="47.466666666666654" style="visibility: inherit;" fill="rgb(0, 0, 0)" stroke="rgb(204, 204, 204)" stroke-width="1px"></line><line x1="50" y1="35.60000000000001" x2="45" y2="35.60000000000001" style="visibility: inherit;" fill="rgb(0, 0, 0)" stroke="rgb(204, 204, 204)" stroke-width="1px"></line><line x1="50" y1="23.733333333333327" x2="45" y2="23.733333333333327" style="visibility: inherit;" fill="rgb(0, 0, 0)" stroke="rgb(204, 204, 204)" stroke-width="1px"></line><line x1="50" y1="11.866666666666683" x2="45" y2="11.866666666666683" style="visibility: inherit;" fill="rgb(0, 0, 0)" stroke="rgb(204, 204, 204)" stroke-width="1px"></line><line x1="50" y1="0" x2="45" y2="0" style="visibility: inherit;" fill="rgb(0, 0, 0)" stroke="rgb(204, 204, 204)" stroke-width="1px"></line></g><g transform="translate(40, 0)"><text x="0" y="178" dx="0em" dy="0.3em" style="text-anchor: end; visibility: hidden; font-family: Roboto, sans-serif; font-size: 12px; font-weight: 200;" fill="rgb(50, 49, 63)" stroke="none" stroke-width="1px">-0.4</text><text x="0" y="166.13333333333333" dx="0em" dy="0.3em" style="text-anchor: end; visibility: inherit; font-family: Roboto, sans-serif; font-size: 12px; font-weight: 200;" fill="rgb(50, 49, 63)" stroke="none" stroke-width="1px">-0.2</text><text x="0" y="154.26666666666668" dx="0em" dy="0.3em" style="text-anchor: end; visibility: hidden; font-family: Roboto, sans-serif; font-size: 12px; font-weight: 200;" fill="rgb(50, 49, 63)" stroke="none" stroke-width="1px">0</text><text x="0" y="142.39999999999998" dx="0em" dy="0.3em" style="text-anchor: end; visibility: inherit; font-family: Roboto, sans-serif; font-size: 12px; font-weight: 200;" fill="rgb(50, 49, 63)" stroke="none" stroke-width="1px">0.2</text><text x="0" y="130.53333333333333" dx="0em" dy="0.3em" style="text-anchor: end; visibility: hidden; font-family: Roboto, sans-serif; font-size: 12px; font-weight: 200;" fill="rgb(50, 49, 63)" stroke="none" stroke-width="1px">0.4</text><text x="0" y="118.66666666666669" dx="0em" dy="0.3em" style="text-anchor: end; visibility: inherit; font-family: Roboto, sans-serif; font-size: 12px; font-weight: 200;" fill="rgb(50, 49, 63)" stroke="none" stroke-width="1px">0.6</text><text x="0" y="106.79999999999998" dx="0em" dy="0.3em" style="text-anchor: end; visibility: hidden; font-family: Roboto, sans-serif; font-size: 12px; font-weight: 200;" fill="rgb(50, 49, 63)" stroke="none" stroke-width="1px">0.8</text><text x="0" y="94.93333333333335" dx="0em" dy="0.3em" style="text-anchor: end; visibility: inherit; font-family: Roboto, sans-serif; font-size: 12px; font-weight: 200;" fill="rgb(50, 49, 63)" stroke="none" stroke-width="1px">1</text><text x="0" y="83.06666666666666" dx="0em" dy="0.3em" style="text-anchor: end; visibility: hidden; font-family: Roboto, sans-serif; font-size: 12px; font-weight: 200;" fill="rgb(50, 49, 63)" stroke="none" stroke-width="1px">1.2</text><text x="0" y="71.2" dx="0em" dy="0.3em" style="text-anchor: end; visibility: inherit; font-family: Roboto, sans-serif; font-size: 12px; font-weight: 200;" fill="rgb(50, 49, 63)" stroke="none" stroke-width="1px">1.4</text><text x="0" y="59.33333333333334" dx="0em" dy="0.3em" style="text-anchor: end; visibility: hidden; font-family: Roboto, sans-serif; font-size: 12px; font-weight: 200;" fill="rgb(50, 49, 63)" stroke="none" stroke-width="1px">1.6</text><text x="0" y="47.466666666666654" dx="0em" dy="0.3em" style="text-anchor: end; visibility: inherit; font-family: Roboto, sans-serif; font-size: 12px; font-weight: 200;" fill="rgb(50, 49, 63)" stroke="none" stroke-width="1px">1.8</text><text x="0" y="35.60000000000001" dx="0em" dy="0.3em" style="text-anchor: end; visibility: hidden; font-family: Roboto, sans-serif; font-size: 12px; font-weight: 200;" fill="rgb(50, 49, 63)" stroke="none" stroke-width="1px">2</text><text x="0" y="23.733333333333327" dx="0em" dy="0.3em" style="text-anchor: end; visibility: inherit; font-family: Roboto, sans-serif; font-size: 12px; font-weight: 200;" fill="rgb(50, 49, 63)" stroke="none" stroke-width="1px">2.2</text><text x="0" y="11.866666666666683" dx="0em" dy="0.3em" style="text-anchor: end; visibility: hidden; font-family: Roboto, sans-serif; font-size: 12px; font-weight: 200;" fill="rgb(50, 49, 63)" stroke="none" stroke-width="1px">2.4</text><text x="0" y="0" dx="0em" dy="0.3em" style="text-anchor: end; visibility: hidden; font-family: Roboto, sans-serif; font-size: 12px; font-weight: 200;" fill="rgb(50, 49, 63)" stroke="none" stroke-width="1px">2.6</text></g><line x1="50" y1="0" x2="50" y2="178" fill="rgb(0, 0, 0)" stroke="rgb(204, 204, 204)" stroke-width="1px"></line></g></g><g transform="translate(50, 0)" clip-path="url(#clip_0)"><clipPath id="clip_0"><rect width="280" height="178"></rect></clipPath><g><g><g><line x1="0" y1="0" x2="0" y2="178" fill="rgb(0, 0, 0)" stroke="rgb(60, 60, 60)" stroke-width="1px" opacity="0.25"></line><line x1="20" y1="0" x2="20" y2="178" fill="rgb(0, 0, 0)" stroke="rgb(60, 60, 60)" stroke-width="1px" opacity="0.25"></line><line x1="40" y1="0" x2="40" y2="178" fill="rgb(0, 0, 0)" stroke="rgb(60, 60, 60)" stroke-width="1px" opacity="0.25"></line><line x1="60" y1="0" x2="60" y2="178" fill="rgb(0, 0, 0)" stroke="rgb(60, 60, 60)" stroke-width="1px" opacity="0.25"></line><line x1="80" y1="0" x2="80" y2="178" fill="rgb(0, 0, 0)" stroke="rgb(60, 60, 60)" stroke-width="1px" opacity="0.25"></line><line x1="100" y1="0" x2="100" y2="178" fill="rgb(0, 0, 0)" stroke="rgb(60, 60, 60)" stroke-width="1px" opacity="0.25"></line><line x1="120" y1="0" x2="120" y2="178" fill="rgb(0, 0, 0)" stroke="rgb(60, 60, 60)" stroke-width="1px" opacity="0.25"></line><line x1="140" y1="0" x2="140" y2="178" fill="rgb(0, 0, 0)" stroke="rgb(60, 60, 60)" stroke-width="1px" opacity="0.25"></line><line x1="160" y1="0" x2="160" y2="178" fill="rgb(0, 0, 0)" stroke="rgb(60, 60, 60)" stroke-width="1px" opacity="0.25"></line><line x1="180" y1="0" x2="180" y2="178" fill="rgb(0, 0, 0)" stroke="rgb(60, 60, 60)" stroke-width="1px" opacity="0.25"></line><line x1="200" y1="0" x2="200" y2="178" fill="rgb(0, 0, 0)" stroke="rgb(60, 60, 60)" stroke-width="1px" opacity="0.25"></line><line x1="220" y1="0" x2="220" y2="178" fill="rgb(0, 0, 0)" stroke="rgb(60, 60, 60)" stroke-width="1px" opacity="0.25"></line><line x1="240" y1="0" x2="240" y2="178" fill="rgb(0, 0, 0)" stroke="rgb(60, 60, 60)" stroke-width="1px" opacity="0.25"></line><line x1="260" y1="0" x2="260" y2="178" fill="rgb(0, 0, 0)" stroke="rgb(60, 60, 60)" stroke-width="1px" opacity="0.25"></line><line x1="280" y1="0" x2="280" y2="178" fill="rgb(0, 0, 0)" stroke="rgb(60, 60, 60)" stroke-width="1px" opacity="0.25"></line></g><g><line x1="0" y1="178" x2="280" y2="178" fill="rgb(0, 0, 0)" stroke="rgb(60, 60, 60)" stroke-width="1px" opacity="0.25"></line><line x1="0" y1="166.13333333333333" x2="280" y2="166.13333333333333" fill="rgb(0, 0, 0)" stroke="rgb(60, 60, 60)" stroke-width="1px" opacity="0.25"></line><line x1="0" y1="154.26666666666668" x2="280" y2="154.26666666666668" fill="rgb(0, 0, 0)" stroke="rgb(60, 60, 60)" stroke-width="1px" opacity="0.25"></line><line x1="0" y1="142.39999999999998" x2="280" y2="142.39999999999998" fill="rgb(0, 0, 0)" stroke="rgb(60, 60, 60)" stroke-width="1px" opacity="0.25"></line><line x1="0" y1="130.53333333333333" x2="280" y2="130.53333333333333" fill="rgb(0, 0, 0)" stroke="rgb(60, 60, 60)" stroke-width="1px" opacity="0.25"></line><line x1="0" y1="118.66666666666669" x2="280" y2="118.66666666666669" fill="rgb(0, 0, 0)" stroke="rgb(60, 60, 60)" stroke-width="1px" opacity="0.25"></line><line x1="0" y1="106.79999999999998" x2="280" y2="106.79999999999998" fill="rgb(0, 0, 0)" stroke="rgb(60, 60, 60)" stroke-width="1px" opacity="0.25"></line><line x1="0" y1="94.93333333333335" x2="280" y2="94.93333333333335" fill="rgb(0, 0, 0)" stroke="rgb(60, 60, 60)" stroke-width="1px" opacity="0.25"></line><line x1="0" y1="83.06666666666666" x2="280" y2="83.06666666666666" fill="rgb(0, 0, 0)" stroke="rgb(60, 60, 60)" stroke-width="1px" opacity="0.25"></line><line x1="0" y1="71.2" x2="280" y2="71.2" fill="rgb(0, 0, 0)" stroke="rgb(60, 60, 60)" stroke-width="1px" opacity="0.25"></line><line x1="0" y1="59.33333333333334" x2="280" y2="59.33333333333334" fill="rgb(0, 0, 0)" stroke="rgb(60, 60, 60)" stroke-width="1px" opacity="0.25"></line><line x1="0" y1="47.466666666666654" x2="280" y2="47.466666666666654" fill="rgb(0, 0, 0)" stroke="rgb(60, 60, 60)" stroke-width="1px" opacity="0.25"></line><line x1="0" y1="35.60000000000001" x2="280" y2="35.60000000000001" fill="rgb(0, 0, 0)" stroke="rgb(60, 60, 60)" stroke-width="1px" opacity="0.25"></line><line x1="0" y1="23.733333333333327" x2="280" y2="23.733333333333327" fill="rgb(0, 0, 0)" stroke="rgb(60, 60, 60)" stroke-width="1px" opacity="0.25"></line><line x1="0" y1="11.866666666666683" x2="280" y2="11.866666666666683" fill="rgb(0, 0, 0)" stroke="rgb(60, 60, 60)" stroke-width="1px" opacity="0.25"></line><line x1="0" y1="0" x2="280" y2="0" fill="rgb(0, 0, 0)" stroke="rgb(60, 60, 60)" stroke-width="1px" opacity="0.25"></line></g></g></g><g><g><line x1="0" y1="154.26666666666668" x2="280" y2="154.26666666666668" fill="rgb(0, 0, 0)" stroke="rgb(153, 153, 153)" stroke-width="1.5px"></line></g></g><g><g><line x1="20" y1="0" x2="20" y2="178" fill="rgb(0, 0, 0)" stroke="rgb(153, 153, 153)" stroke-width="1.5px"></line></g></g><g><g><g><g><g><path stroke="rgb(0, 119, 187)" stroke-width="2px" d="M20,143.5981131454309L20.4,147.23421956573924L20.8,142.56801149094997L21.200000000000003,145.40529178069065L21.599999999999998,141.8432726191931L22,143.47463559162284L22.400000000000002,139.4959615439012L22.8,141.4236840894928L23.2,139.77648964360392L23.599999999999998,139.92455198976484L24,141.72230276502182L24.400000000000002,141.31572615054137L24.799999999999997,142.03107234336463L25.2,138.85436006908458L25.6,137.1941003824192L26,134.25020133744073L26.400000000000002,131.67787656927194L26.799999999999997,130.4897415136702L27.2,125.12443684287679L27.6,121.53126646230568L28,122.20420096054396L28.4,120.63447199933172L28.8,117.81828403733991L29.2,109.52079233975324L29.6,106.69442632036201L30,104.88225799807779L30.4,105.97590014260007L30.8,108.02180238230642L31.200000000000003,111.57738447502142L31.599999999999998,110.50853463255082L32,105.25033483680038L32.4,103.75111994042678L32.800000000000004,101.67953848062938L33.2,96.36732237389L33.6,96.65617766430026L34,89.68293811946931L34.4,93.58306184919232L34.800000000000004,92.85055278214945L35.2,87.59359776322948L35.6,89.30724035578504L36,90.15409465665515L36.4,98.04777638359191L36.8,80.65105769118023L37.2,86.97426055866958L37.6,81.88161689426306L38,88.13030274421683L38.4,92.21054734072881L38.8,86.92608830727274L39.2,87.45086754837627L39.6,82.55569538199316L40,74.03546413848687L40.400000000000006,73.76362385433767L40.8,63.440234656009025L41.199999999999996,76.29572234485285L41.6,81.7509567757506L42,87.83246564031225L42.400000000000006,86.77823941048308L42.8,91.49533353568972L43.199999999999996,77.12824934753773L43.6,83.03720085084267L44,86.53803395426179L44.4,72.74943510847805L44.800000000000004,79.97049268816431L45.199999999999996,69.3149499364764L45.6,74.38122927991971L46,76.05514465718524L46.4,71.37717583188845L46.800000000000004,76.29375580634336L47.199999999999996,72.67356651277734L47.6,79.92971332660156L48,86.17211161170901L48.4,79.59556776989203L48.800000000000004,72.84091111685056L49.2,65.91093063592048L49.599999999999994,71.74075445317705L50,58.86679787149119L50.4,67.7394252207483L50.800000000000004,54.30516169627141L51.2,49.54569134251058L51.599999999999994,70.63249215803016L52,61.20499861869096L52.4,65.03475086112549L52.800000000000004,66.44261578690843L53.2,44.19435604237617L53.599999999999994,33.31902194553475L54,43.60046335220652L54.4,49.11468593216132L54.8,57.536632368979L55.2,46.88070303639798L55.6,51.6949457933964L56,52.50832484069237L56.4,54.23882727008721L56.8,62.47615375468132L57.2,61.73908063222367L57.6,48.650518132345276L58.00000000000001,43.29767074014528L58.4,60.101679588709956L58.8,52.3781067268181L59.2,55.577041966286984L59.6,50.496239268720764L60,43.94547741489049L60.4,47.54022203649939L60.8,47.447349793707495L61.2,45.66243552624893L61.6,44.27064902301457L62,51.00786579320329L62.400000000000006,51.21837778331536L62.8,59.432262002478225L63.199999999999996,61.902033624877646L63.6,59.79098468730656L64,66.1479917612263L64.4,69.41057463208367L64.8,72.56182619404514L65.2,78.8848831030034L65.60000000000001,82.82597320947865L66,86.01989550634514L66.4,89.85463632927909L66.8,92.89371279986646L67.2,96.85994114783573L67.60000000000001,100.45219440086981L68,104.53678956761537L68.39999999999999,106.88302911242593L68.8,107.76974397095492L69.2,108.6183698073573L69.60000000000001,106.86917025261404L70,103.78260783839194L70.4,106.96857102843902L70.8,108.9863145263957L71.2,110.67379544687074L71.60000000000001,113.362747905126L72,113.4205146838054L72.39999999999999,114.60754148456401L72.8,114.70796687618663L73.2,115.99262679586272L73.6,120.1929527721969L74,122.29727079324927L74.4,119.27303978752897L74.8,118.30108662059983L75.2,117.17629044459906L75.60000000000001,117.6575183050234L76,118.77054663199576L76.4,119.62049555439786L76.8,121.98479637737493L77.19999999999999,121.14312815448892L77.6,120.864617289193L78,122.89284625356645L78.4,123.63458764417123L78.8,125.7020806526928L79.2,124.79601342851653L79.60000000000001,124.39150066638828L80,126.55531594275341L80.4,125.08282963942827L80.80000000000001,124.47282291399247L81.19999999999999,126.9151354512382L81.6,128.34164930110026L82,128.21752941086797L82.39999999999999,129.40816210433786L82.8,130.5758040733632L83.2,129.09076582357267L83.60000000000001,129.14182185350845L84,129.32282288244758L84.4,131.71048874321417L84.80000000000001,129.84669914879106L85.19999999999999,129.66102573139094L85.6,128.55170423545013L86,128.98672714128637L86.39999999999999,130.3773344081315L86.8,126.95730279852982L87.2,127.66062441688797L87.6,130.1695281443319L88,129.21798071964508L88.4,129.47315529249468L88.8,128.84256510135944L89.2,129.54150541582158L89.60000000000001,129.95679833705296L90,129.24463651546878L90.39999999999999,132.0474417072676L90.8,132.41193400038136L91.2,130.9742601033818L91.6,131.99375192066657L92,133.46319784804558L92.4,131.35784169326848L92.8,132.28134068662303L93.2,134.96912585425997L93.60000000000001,134.49737521685338L93.99999999999999,133.0700999284417L94.39999999999999,132.11944770959798L94.8,132.3909727009999L95.2,132.4566561249614L95.6,130.4247310623161L96,133.32590662864638L96.4,132.27402522858657L96.8,131.79302119272953L97.2,132.30503535345002L97.60000000000001,129.13790371303642L98,133.17710174332984L98.4,133.12981672849813L98.8,133.47700033684507L99.19999999999999,135.29781179726083L99.6,133.84345352351642L100,132.85879099826005L100.4,132.63627484754713L100.8,132.89319871494763L101.2,132.20433472611268L101.60000000000001,133.5053155824607L102,133.00235923002555L102.4,135.18967388234768L102.80000000000001,134.43625587957442L103.19999999999999,134.7924238113801L103.6,135.44208969522955L104,136.93960145463214L104.39999999999999,137.53704125334622L104.8,135.73454413245003L105.2,136.91973744926779L105.60000000000001,135.7274432510014L106,136.30361903726313L106.4,136.29085563472464L106.80000000000001,136.04427940796745L107.19999999999999,137.86057627728144L107.6,138.12274869440333L108,138.31134134863814L108.39999999999999,137.88272130132717L108.8,137.96754705532987L109.2,136.49342960928638L109.6,136.97502922146376L110,138.34768986421142L110.4,138.23618451426813L110.80000000000001,138.3349329436047L111.2,138.49043748642345L111.6,139.6262916501284L112,139.92088166967554L112.39999999999999,139.06774152812673L112.8,138.2058239294925L113.2,137.88014459732207L113.6,138.6789202085517L114,138.98004322239052L114.4,139.07008606228206L114.8,138.06294609168953L115.2,138.72517781730366L115.60000000000001,139.98852905239187L116.00000000000001,139.6562874734731L116.39999999999999,138.94397060833364L116.8,138.3985802203138L117.2,138.75032319881834L117.6,138.75162090852845L118,139.05530650056394L118.4,137.0452230912665L118.8,138.3560329148503L119.2,138.4438504840532L119.60000000000001,138.86350608898792L120,138.31715774198528L120.39999999999999,138.54038516318892L120.8,138.2076423289543L121.2,138.09706585976474L121.6,138.7347886032243L122,138.49702750681118L122.4,137.69448884390758L122.8,137.62295981921534L123.2,136.4667049511936L123.60000000000001,137.18146061726412L124,136.9677723858436L124.4,136.36866177243076L124.80000000000001,134.44521971258766L125.19999999999999,135.91068193582643L125.6,137.51516616146534L126,136.88074360410832L126.39999999999999,138.08551842681842L126.8,138.75615000593032L127.2,139.6160998757722L127.60000000000001,137.15938853359472L128,138.3375643623049L128.4,139.0726133091554L128.8,138.8143671280129L129.2,139.19711176748967L129.6,140.42243913369913L130,139.69251010789992L130.4,139.91438341761344L130.8,137.59168118054498L131.20000000000002,138.2091846160978L131.6,137.93470483220952L132,138.3567505415122L132.4,138.45098988071126L132.8,138.92843930475937L133.2,139.45319657893793L133.6,138.4239877051422L134,139.43002102929208L134.4,140.29937716260267L134.8,140.3052904824498L135.20000000000002,140.4537709271957L135.6,143.32301870123842L136,142.31265902640203L136.4,141.79529141896035L136.79999999999998,141.43942062802952L137.2,142.38789772082075L137.6,141.42706660124878L138,140.89582647538117L138.4,139.76352596316298L138.8,141.24307420512176L139.20000000000002,142.87398133512417L139.6,141.35094572843758L140,142.0530904102821L140.4,141.27049473574752L140.8,140.92059729924398L141.20000000000002,142.54414168296614L141.6,141.9860974532268L142,141.28891785672712L142.4,140.76357275723262L142.8,140.87019915309853L143.20000000000002,139.73070734338347L143.60000000000002,140.9814739942335L144,140.77780246892272L144.39999999999998,141.1761587692819L144.79999999999998,139.7432948315256L145.2,140.07391470297853L145.6,140.46435729677287L146,139.8881329521426L146.4,140.07520177751115L146.79999999999998,140.9889805705706L147.2,141.27730208822248L147.6,141.2824503496577L148,141.44716353149948L148.4,141.2943187157218L148.8,141.03159454504078L149.2,141.57369640334105L149.6,142.43877886492206L150,144.10098202918883L150.4,143.4340375560219L150.8,143.64859476910203L151.20000000000002,143.63900467331908L151.60000000000002,143.95991324370524L152,144.12061005464446L152.4,144.74696025469652L152.8,145.59612541567535L153.2,145.07547838034978L153.6,144.86535599793643L154,145.0452670337696L154.39999999999998,145.01975445282096L154.79999999999998,144.9463977459965L155.2,144.34494332177826L155.6,144.18004532716705L156,144.28651350217282L156.4,144.32427421337695L156.8,143.7748362234811L157.2,142.22579523235044L157.6,142.3387190781602L158,143.05136080518776L158.4,144.19669876298553L158.8,144.533861304529L159.20000000000002,144.36313213261414L159.6,143.93770788363088L160,143.52573040317378L160.4,144.23723933850258L160.8,143.64805260988788L161.20000000000002,143.93259114877014L161.60000000000002,144.4091226175763L162.00000000000003,146.15321445596243L162.39999999999998,146.13438275177495L162.79999999999998,142.71117594114472L163.2,146.59163713259417L163.6,146.65290556074928L164,143.04545963677813L164.4,140.78979455991416L164.79999999999998,140.7836363353163L165.2,142.73755758669952L165.6,135.49826438466894L166,136.30490544025216L166.4,142.84274668932426L166.8,143.86245840295433L167.20000000000002,144.717101946896L167.6,145.8857778525903L168,144.3175759190254L168.4,145.92094599488968L168.8,144.21138568530637L169.20000000000002,145.47017198131573L169.60000000000002,145.38784696892554L170,148.60666269939534L170.39999999999998,145.46993174124594L170.79999999999998,143.26553203484715L171.2,142.3495790097394L171.6,142.9771484676964L172,143.0332157562554L172.4,143.14876881383142L172.79999999999998,142.85289006357758L173.2,143.97903944646538L173.6,143.56428684390715L174,139.50294229187847L174.4,139.5469874175287L174.8,138.84178524048508L175.2,142.12278188604938L175.6,138.9956353728304L176,140.45619638746956L176.4,141.30695106418517L176.8,142.6944072896138L177.20000000000002,141.57602670752377L177.6,141.89880598801398L178,141.21039732069585L178.4,142.96139592431476L178.8,136.71421317797396L179.20000000000002,136.9288431501875L179.60000000000002,137.54377686598835L180,135.38852298668388L180.39999999999998,138.4362265992842L180.79999999999998,137.73266753566355L181.2,138.29131428844983L181.6,138.80955977944882L182,139.45484965706876L182.4,139.98188817142454L182.79999999999998,140.29224733932222L183.2,141.23092444831175L183.6,142.07892032758818L184,142.8798892936891L184.4,141.35641155333036L184.8,141.41197724793778L185.20000000000002,140.8856199506189L185.6,143.6700005807439L186,146.26035610743122L186.4,145.08497769618683L186.8,146.77927476595633L187.20000000000002,145.21725147663034L187.60000000000002,141.81056942203728L187.99999999999997,138.1551332954114L188.39999999999998,140.73566080670824L188.79999999999998,143.42992539966863L189.2,147.56026800646245L189.6,143.90076463167185L190,138.6617010701357L190.4,144.63284287777498L190.79999999999998,145.57456227139804L191.2,141.42945947485867L191.6,139.84203685504815L192,145.28912748843007L192.4,148.5111921068007L192.8,147.50343053396392L193.2,144.62013556116332L193.6,141.4629087922186L194,146.14911376489465L194.4,148.7718128971453L194.8,142.60263917757248L195.20000000000002,143.99741187282308L195.60000000000002,147.67898029727482L196,144.40567323193594L196.4,147.87133365487443L196.8,147.72424880474043L197.2,145.13588549818138L197.6,148.08970823601211L198,150.14340958564674L198.39999999999998,142.0764162220708L198.79999999999998,133.25492097843596L199.2,140.87690323377993L199.6,137.41000637323864L200,143.1785729834112L200.4,143.77669181517794L200.8,146.95662299787224L201.2,143.15181146300964L201.6,142.54170620026468L202,141.28777571906016L202.4,140.45214388443648L202.8,139.11456492785786L203.20000000000002,140.28426830556495L203.6,139.81732005468908L204,139.4147407670333L204.4,140.04575966792387L204.8,139.31924929656833L205.20000000000002,139.93464816116241L205.60000000000002,139.23641190669707L206,139.7295659749216L206.39999999999998,140.40683205973147L206.79999999999998,140.9347755578222L207.2,140.72040676516667L207.6,141.5557899704121L208,142.6086066089397L208.4,140.28677065545273L208.79999999999998,142.57594729527207L209.2,140.58077795186264L209.6,132.7913953618921L210,135.25128487726354L210.4,137.5185842814861L210.8,138.44645258642146L211.20000000000002,139.10703580333933L211.6,138.91144671730686L212,139.37172343190005L212.4,139.85797775341368L212.8,139.5567452209391L213.20000000000002,139.91264062348193L213.60000000000002,140.34321192675742L214,140.03343571925507L214.39999999999998,140.97102231246836L214.79999999999998,139.1723523191369L215.2,139.51955558211145L215.6,140.56111695617759L216,139.68834086646828L216.4,139.80517060035584L216.79999999999998,140.30335096641846L217.2,140.19277215316575L217.6,141.0758036218962L218,141.4098621576755L218.4,141.63774933475625L218.8,142.32845587606252L219.2,138.43755161051962L219.6,139.71594734004148L220,138.1223353946865L220.4,141.01920519936047L220.8,140.00775495212056L221.20000000000002,141.14609838390814L221.60000000000002,141.75177971480966L222,138.83764881904133L222.4,140.1689422890457L222.8,139.54274116783813L223.2,139.10277991232957L223.6,138.09063279114773L224,138.544701166248L224.39999999999998,139.54180834569274L224.79999999999998,138.0335874891941L225.2,139.01018245478457L225.6,139.16649906154464L226,138.6769024295568L226.4,140.13341846881067L226.8,139.37723921865873L227.2,138.28958878634762L227.6,139.15529517800644L228,139.84013582589847L228.4,140.02952889038693L228.8,134.10637940069182L229.20000000000002,135.0103330502916L229.6,136.2762584445879L230,138.23104684340984L230.4,137.98659115943133L230.8,137.99795521286816L231.20000000000002,138.26285352341944L231.60000000000002,136.71559760033654L232.00000000000003,138.4666685072158L232.39999999999998,139.8425689646149L232.79999999999998,140.50097083738711L233.2,141.62654382442196L233.6,139.26936876488583L234,140.03255063759997L234.4,139.72347180565822L234.79999999999998,141.13480410329873L235.2,142.0291201099895L235.6,142.9470522363072L236,142.03294175857815L236.4,141.77451154626118L236.8,141.24032901587114L237.20000000000002,142.1252821083587L237.6,143.49333123578955L238,142.3372413711607L238.4,143.05680070143103L238.8,138.824825526602L239.20000000000002,139.98003376642484L239.60000000000002,139.87632375271886L240,142.0413381440149L240.39999999999998,143.77611208892102L240.79999999999998,143.2385858178312L241.2,138.74342196703995L241.6,136.57535359812405L242,137.35983330380495L242.4,137.45767267210232L242.79999999999998,138.12487587568927L243.2,138.28103279851535L243.6,136.72590253859357L244,137.12344416286308L244.4,135.87494506859238L244.8,137.7661378790346L245.2,138.87887041863246L245.6,139.8518956710683L246,139.23332889376798L246.4,139.34005030730597L246.8,140.3940264054491L247.20000000000002,140.49825635602198L247.6,139.71317886581096L248,142.4204388121967L248.4,146.90783145304746L248.8,149.50375630240376L249.20000000000002,148.18120921957933L249.60000000000002,145.33752160693274L250,143.42071643566132L250.39999999999998,145.36750894285265L250.79999999999998,143.01674099304492L251.2,143.56124046606746L251.6,140.7547019892708L252,142.8829772997166L252.4,141.96344241906795L252.79999999999998,139.27753070082022L253.2,138.37774250598204L253.6,138.12674992139014L254,140.38102538538897L254.4,137.57413706115636L254.8,138.64188131490403L255.20000000000002,140.93768021582991L255.6,139.98218538474697L256,140.07490603831405L256.4,139.7131136284689L256.8,140.60721374748667L257.2,137.52419858534248L257.6,139.77453174050117L258,141.6522935564645L258.4,143.29710430554516L258.8,142.1239786091564L259.2,140.3476273010046L259.6,140.99888700027492L260,139.88811892775234L260.40000000000003,139.7508602554055L260.8,139.91259507662767L261.2,141.10579714413512L261.6,140.08994967720525L262,140.43042682438065L262.40000000000003,139.8311028474309L262.8,138.7646661261959L263.2,139.04792154830156L263.59999999999997,140.38351488551373L264,140.53989965224787L264.4,139.73812877081548L264.8,139.86613556152213L265.2,140.62519592924292L265.6,139.85153058340177L266,140.33722505313173" style="fill: none;" fill="none"></path></g><g><path stroke="rgb(255, 112, 67)" stroke-width="2px" d="M20,143.5981131454309L20.4,149.31952139989784L20.8,144.98076825424724L21.200000000000003,146.83284488279995L21.599999999999998,143.52767313626177L22,145.3619285606801L22.400000000000002,142.64989100147545L22.8,142.15003839314133L23.2,142.53667905079035L23.599999999999998,144.4631797196874L24,145.94896419671792L24.400000000000002,146.74516264000766L24.799999999999997,148.59326768873194L25.2,149.56715904585923L25.6,150.89838784972483L26,151.50781009517223L26.400000000000002,151.84510441351594L26.799999999999997,152.1853924166555L27.2,151.3205220315814L27.6,151.76979701757162L28,151.49436545216292L28.4,149.01036997817428L28.8,150.3671994525804L29.2,151.3966994365424L29.6,151.6829227719316L30,151.32896010817683L30.4,149.98463712118232L30.8,150.15214116557294L31.200000000000003,150.22641510471837L31.599999999999998,150.72036152040343L32,150.64433833557501L32.4,151.27883392057927L32.800000000000004,151.7562386107851L33.2,152.29407674487078L33.6,152.56060301115713L34,152.4258495550399L34.4,151.6058039150179L34.800000000000004,152.14441597343054L35.2,152.06174645970066L35.6,151.88180256888933L36,151.67860448983308L36.4,151.12004574526486L36.8,148.27227520536098L37.2,148.22865411036875L37.6,145.9662755653513L38,146.2389263490163L38.4,142.9227353583122L38.8,142.12928164541992L39.2,141.4555361565277L39.6,137.87787982637724L40,136.96457592177964L40.400000000000006,139.7714587088224L40.8,133.5977493847777L41.199999999999996,136.1207222123194L41.6,132.8938760490744L42,132.5096328003124L42.400000000000006,134.81598370768177L42.8,132.0299301300296L43.199999999999996,132.02524929804696L43.6,132.32857238429645L44,131.45631237970503L44.4,126.99101886677762L44.800000000000004,129.6901950037163L45.199999999999996,123.9097929856587L45.6,124.5483409584408L46,127.7105900363631L46.4,126.9302783423567L46.800000000000004,120.29949173851236L47.199999999999996,121.81622503552889L47.6,105.13421086919739L48,104.35490659188687L48.4,109.90659533567107L48.800000000000004,106.93505882239467L49.2,107.85019329438283L49.599999999999994,105.97664492318833L50,97.31293175651514L50.4,101.58746950884988L50.800000000000004,103.34714499787688L51.2,97.47519078697482L51.599999999999994,89.32431408512029L52,91.79367342281796L52.4,93.05095341854368L52.800000000000004,99.2370216933076L53.2,97.23385934395698L53.599999999999994,100.28803634701038L54,100.07975820575871L54.4,102.6446103867375L54.8,96.98158114293115L55.2,99.97311283472517L55.6,93.59867582156267L56,91.37466961443825L56.4,73.7366221867029L56.8,69.19799341929102L57.2,69.6267155919799L57.6,81.21513638224177L58.00000000000001,77.035455145792L58.4,87.20921162507287L58.8,90.45842202191363L59.2,87.3089602197298L59.6,65.90525125136506L60,73.36213335834262L60.4,64.87392140930287L60.8,65.83694656633573L61.2,70.05402207976522L61.6,68.53913923306828L62,72.58557858429491L62.400000000000006,79.343199758304L62.8,78.93012370223175L63.199999999999996,75.27369639846307L63.6,63.779410068030884L64,61.84267185996118L64.4,62.09430936139906L64.8,69.30746402082099L65.2,65.3587501931424L65.60000000000001,60.53749568829348L66,30.65093271316734L66.4,42.56250002452718L66.8,48.515028434210926L67.2,56.42696076703901L67.60000000000001,68.1719894993673L68,50.930628659031996L68.39999999999999,63.79787047646575L68.8,61.61135066951594L69.2,52.91110406600604L69.60000000000001,59.062071152626494L70,49.917356935401166L70.4,47.35632678941454L70.8,41.21877473677535L71.2,59.484174699497245L71.60000000000001,64.23421973084136L72,61.488472130863215L72.39999999999999,57.83727248368762L72.8,43.746769847024105L73.2,45.49730240834669L73.6,36.14117660085111L74,35.318423789897075L74.4,45.1917496360293L74.8,44.046451803661455L75.2,45.0233350638253L75.60000000000001,45.680224157395116L76,52.57475993694194L76.4,42.76140657302534L76.8,37.16558650515554L77.19999999999999,52.082987017127365L77.6,51.21890578907281L78,35.69926527723598L78.4,43.76917026431319L78.8,34.29500064288156L79.2,32.867726195461984L79.60000000000001,41.55658244248675L80,50.18788223399587L80.4,42.51313888629597L80.80000000000001,44.24814184109561L81.19999999999999,50.387227714062874L81.6,58.374670968851134L82,35.96551942650518L82.39999999999999,35.37737967704162L82.8,39.20438321750018L83.2,38.4947139822681L83.60000000000001,30.497806388730186L84,41.36992213483315L84.4,43.20197676671938L84.80000000000001,26.397144668023174L85.19999999999999,32.65727487607023L85.6,36.31597643178635L86,44.76569683242996L86.39999999999999,46.34038133594888L86.8,47.27939493799306L87.2,46.47028802480756L87.6,44.69740366764741L88,45.63984879391119L88.4,40.692429313679895L88.8,48.77570329921663L89.2,54.40796215465001L89.60000000000001,48.944173750462134L90,39.96909980844378L90.39999999999999,45.83137453757276L90.8,42.29863955713839L91.2,35.75196063044188L91.6,43.46188204639665L92,45.33102664681381L92.4,53.33212076663238L92.8,45.29838812414368L93.2,37.833075220168986L93.60000000000001,46.712363862264965L93.99999999999999,50.50760704314835L94.39999999999999,50.175978702919465L94.8,54.4572009404203L95.2,61.74279893237556L95.6,59.99733160653633L96,62.50486748885465L96.4,62.39981810175192L96.8,60.96374149912285L97.2,61.052401221952934L97.60000000000001,59.79491488605468L98,65.51523781738516L98.4,73.3091623106907L98.8,76.79800836002687L99.19999999999999,74.57949011021373L99.6,72.47628408408274L100,72.32003069799806L100.4,69.30373673010867L100.8,73.30258105656903L101.2,73.80224671082536L101.60000000000001,76.13201852947577L102,75.49601333961948L102.4,74.60536882098155L102.80000000000001,78.05994431504988L103.19999999999999,80.45607952314246L103.6,76.71832529567259L104,78.08166421808347L104.39999999999999,75.41425522818693L104.8,80.81147263281264L105.2,76.55945750216274L105.60000000000001,69.54316294912277L106,67.51885899180438L106.4,66.63827615583499L106.80000000000001,64.28700301649903L107.19999999999999,60.34469730855665L107.6,62.88456872464204L108,63.95146846231411L108.39999999999999,67.16692120546058L108.8,63.44643928079181L109.2,64.84847636144383L109.6,55.62207381837183L110,63.38678577331273L110.4,62.50505082520386L110.80000000000001,62.65365379122423L111.2,67.61255221049504L111.6,70.49701344299625L112,74.23628491796043L112.39999999999999,69.27191634796253L112.8,70.50043660534736L113.2,72.36495882193235L113.6,70.89180540434515L114,73.87455080623624L114.4,74.40598967716214L114.8,76.89128220147957L115.2,71.19613877813262L115.60000000000001,78.16203806169972L116.00000000000001,83.32765897771603L116.39999999999999,84.51562663154337L116.8,82.53749183001041L117.2,79.3902546500082L117.6,84.85501178353519L118,88.62500407685533L118.4,85.07030128313914L118.8,79.6772657867699L119.2,83.25432153998388L119.60000000000001,82.1513610374445L120,82.91474053451505L120.39999999999999,92.599297179316L120.8,86.05347276381723L121.2,85.42515331339082L121.6,87.54864130952703L122,90.07399670842534L122.4,85.83357513127672L122.8,89.29863742139705L123.2,87.27177752780973L123.60000000000001,88.96626699047124L124,91.32561883813243L124.4,93.2795383605526L124.80000000000001,93.39759731569882L125.19999999999999,92.35115977135696L125.6,97.34822853251733L126,98.59662546065115L126.39999999999999,103.17854689606028L126.8,103.55012625126838L127.2,106.37791830739657L127.60000000000001,105.76096213365365L128,107.26393359644076L128.4,103.47377878910022L128.8,102.01100830764997L129.2,98.69640245595431L129.6,101.12597133095379L130,99.68380883400826L130.4,103.12833270310475L130.8,107.28694430557357L131.20000000000002,108.23970494648297L131.6,106.64114802905212L132,108.08151677585612L132.4,104.05833989225015L132.8,103.3699707284104L133.2,101.83628264672743L133.6,99.79316246116473L134,104.75623081130374L134.4,106.93961731038044L134.8,107.41966659530928L135.20000000000002,104.19509064220348L135.6,100.43757724044495L136,104.95603707836732L136.4,106.16912421667575L136.79999999999998,107.84261394828954L137.2,108.72671856695654L137.6,112.79900294511063L138,111.94552824716894L138.4,112.48217674228229L138.8,110.43272611220286L139.20000000000002,109.94482283862199L139.6,110.85602454029578L140,107.43363750427797L140.4,111.39385490526658L140.8,113.00165880904537L141.20000000000002,107.49232567699319L141.6,107.15021382024823L142,109.67964732240203L142.4,112.14740940326787L142.8,112.80661559181014L143.20000000000002,115.09461804117721L143.60000000000002,115.18992849758838L144,113.83396341187701L144.39999999999998,114.87155345390009L144.79999999999998,114.04601366744302L145.2,112.9152863213968L145.6,114.32082109627439L146,113.7808927737314L146.4,116.08841463025243L146.79999999999998,117.5245159933716L147.2,119.98682008046407L147.6,116.58352948978643L148,114.8853834320412L148.4,116.89148428972398L148.8,114.24346834025283L149.2,116.21721158823271L149.6,119.15436309656045L150,116.93582442887946L150.4,116.35225694510336L150.8,112.28118595798608L151.20000000000002,116.05968758098166L151.60000000000002,116.9773982228749L152,117.54141961546217L152.4,119.52457923141007L152.8,117.51020786472294L153.2,116.98411789561193L153.6,118.4610678678247L154,117.71102121067996L154.39999999999998,115.83567049300444L154.79999999999998,118.13136163112982L155.2,115.09727369839429L155.6,117.78409453329132L156,119.59883232015385L156.4,122.03788650928743L156.8,117.05951508263034L157.2,117.80469722020199L157.6,115.53440099279624L158,118.25397867195134L158.4,119.1934386449992L158.8,117.08853745050864L159.20000000000002,120.62018680167776L159.6,117.51848109956136L160,118.88809893208077L160.4,117.58548425879478L160.8,115.98415203281084L161.20000000000002,118.08736056757671L161.60000000000002,122.23685758753241L162.00000000000003,124.93693974719616L162.39999999999998,120.82927593493167L162.79999999999998,121.80549702229324L163.2,120.54562144030464L163.6,119.80179389486312L164,121.82324562809626L164.4,122.83238920018132L164.79999999999998,125.68946094619268L165.2,122.95270739619157L165.6,122.52912563298675L166,119.66453590759357L166.4,120.23728604218594L166.8,122.2982746770058L167.20000000000002,123.88415869772875L167.6,123.99597393135494L168,121.3734731737391L168.4,122.09474586865997L168.8,121.50404264423268L169.20000000000002,123.07904641008189L169.60000000000002,123.2617512300162L170,122.0953203595409L170.39999999999998,123.63951460500931L170.79999999999998,122.0418658477885L171.2,123.10779850062666L171.6,124.14136285052857L172,124.9868011287818L172.4,119.16026757073222L172.79999999999998,120.38282899247697L173.2,123.58892238887404L173.6,123.1842392473554L174,123.11405364846004L174.4,123.20096525296456L174.8,121.80014787800044L175.2,122.77487830174128L175.6,124.05832016220981L176,125.66399453173852L176.4,125.66885756944086L176.8,125.85640482442261L177.20000000000002,126.66776736619082L177.6,129.38601078853213L178,128.06640195448324L178.4,128.52559794187025L178.8,124.64579013744677L179.20000000000002,123.86036128695616L179.60000000000002,124.95281159855409L180,126.10710116849832L180.39999999999998,126.20255662814671L180.79999999999998,128.4903334709956L181.2,125.15121269462232L181.6,126.43366683306924L182,124.32892140060247L182.4,125.73247563864537L182.79999999999998,127.50409848546434L183.2,125.24091812842359L183.6,126.50885434512259L184,124.65878355878965L184.4,121.49666527178908L184.8,120.58632583022332L185.20000000000002,119.74668393731245L185.6,122.57531749765155L186,124.93585818187442L186.4,123.17218037988373L186.8,124.01525135206556L187.20000000000002,125.03516571780469L187.60000000000002,125.711837304396L187.99999999999997,124.15177456344917L188.39999999999998,124.68900525295192L188.79999999999998,125.67130135371359L189.2,126.05495905840836L189.6,128.59577124733394L190,128.56931502710975L190.4,128.2721326996358L190.79999999999998,129.20471842027538L191.2,129.46401034198303L191.6,130.69087346078217L192,130.77130861728148L192.4,128.9052054368382L192.8,129.33068218169163L193.2,130.80145375373493L193.6,129.30613807147262L194,130.37198070906908L194.4,129.20172162030127L194.8,128.79909997924557L195.20000000000002,130.6450509874685L195.60000000000002,129.99912047914646L196,130.76025019644885L196.4,128.3059710957161L196.8,129.74233129844376L197.2,132.1999732114393L197.6,134.5186121680847L198,132.8196738436924L198.39999999999998,131.2908726442917L198.79999999999998,132.01168363982822L199.2,132.25976502156885L199.6,131.9413941799996L200,133.62562462127593L200.4,135.15223564408055L200.8,133.7912766224255L201.2,134.62572393771666L201.6,133.52515208933747L202,131.0649119691888L202.4,131.8189192245507L202.8,131.26674257934715L203.20000000000002,131.48186632168662L203.6,133.26996012472534L204,133.35829396849925L204.4,133.6611325951778L204.8,131.76215993875442L205.20000000000002,132.90308079271026L205.60000000000002,133.181066748789L206,134.51631561594667L206.39999999999998,134.62709864424147L206.79999999999998,133.76247398165748L207.2,132.71754586601983L207.6,132.77201986097134L208,133.63129108458463L208.4,135.20153488939823L208.79999999999998,135.48309185877932L209.2,134.252484002762L209.6,134.8067799467164L210,135.0234063167364L210.4,135.13180357251508L210.8,135.84552087247735L211.20000000000002,135.80840807116252" style="fill: none;" fill="none"></path></g></g></g></g><g opacity="0.2"><g><g><g><path stroke="rgb(0, 119, 187)" stroke-width="2px" d="M20,143.5981131454309L20.4,149.41588341792425L20.8,138.08845173915228L21.200000000000003,148.74193340142568L21.599999999999998,137.19270040194195L22,145.73139787316322L22.400000000000002,133.8063939968745L22.8,144.2343220671018L23.2,137.34719778696697L23.599999999999998,140.14440731803577L24,144.4026234606902L24.400000000000002,140.70807380080223L24.799999999999997,143.10175590316456L25.2,134.09551516771316L25.6,134.7056624253591L26,129.8364290356636L26.400000000000002,127.82047793865203L26.799999999999997,128.70784059762954L27.2,117.0772971868515L27.6,116.14183932145438L28,123.21356580257415L28.4,118.27993021011352L28.8,113.5940576950709L29.2,97.07465308507285L29.6,102.45489737987518L30,102.16401324272155L30.4,107.61636056105296L30.8,111.09065260092417L31.200000000000003,116.91075433890025L31.599999999999998,108.90526045958201L32,97.36303688685099L32.4,101.50229789415995L32.800000000000004,98.57216653823852L33.2,88.39899859428407L33.6,97.08946058750152L34,79.22307898203532L34.4,99.43324738343559L34.800000000000004,91.751789188385L35.2,79.70816526412965L35.6,91.8777042388916L36,91.4243761062622L36.4,109.88829896450042L36.8,54.55597966512044L37.2,96.45906485716502L37.6,74.24265139897665L38,97.50333151817321L38.4,98.33091423511505L38.8,78.99939975738526L39.2,88.23803641001383L39.6,75.2129371325175L40,61.2551172733307L40.400000000000006,73.35586342811585L40.8,47.955150858561204L41.199999999999996,95.57895387808482L41.6,89.93380842208862L42,96.95472893714904L42.400000000000006,85.19690006573995L42.8,98.57097472349803L43.199999999999996,55.5776230653127L43.6,91.90062810579936L44,91.78928360939025L44.4,52.06653683980306L44.800000000000004,90.80207905769348L45.199999999999996,53.33163580894471L45.6,81.98064829508463L46,78.5660177230835L46.4,64.36022259394328L46.800000000000004,83.66862576802572L47.199999999999996,67.24328257242838L47.6,90.81393354733787L48,95.53570903937022L48.4,69.73075200716654L48.800000000000004,62.70892613728841L49.2,55.51595991452535L49.599999999999994,80.4854901790619L50,39.55586299896241L50.4,81.048366244634L50.800000000000004,34.15376640955608L51.2,42.40648581186931L51.599999999999994,102.2626933813095L52,47.06375830968221L52.4,70.77937922477723L52.800000000000004,68.5544131755829L53.2,10.821966425577806L53.599999999999994,17.00602080027263L54,59.02262546221416L54.4,57.386019802093514L54.8,70.16955202420553L55.2,30.89680903752645L55.6,58.91630992889405L56,53.72839341163636L56.4,56.83458091417949L56.8,74.83214348157247L57.2,60.63347094853719L57.6,29.01767438252767L58.00000000000001,35.26839965184529L58.4,85.30769286155702L58.8,40.7927474339803L59.2,60.37544482549031L59.6,42.875035222371416L60,34.1193346341451L60.4,52.93233896891277L60.8,47.30804142951966L61.2,42.985064125061044L61.6,42.18296926816304L62,61.11369094848634L62.400000000000006,51.53414576848348L62.8,71.75308833122254L63.199999999999996,65.60669105847677L63.6,56.62441128094991L64,75.68350237210592L64.4,74.30444893836976L64.8,77.28870353698731L65.2,88.36946846644084L65.60000000000001,88.73760836919149L66,90.81077895164489L66.4,95.60674756368003L66.8,97.45232750574748L67.2,102.80928366978965L67.60000000000001,105.84057428042094L68,110.66368231773376L68.39999999999999,110.40238842964172L68.8,109.09981625874839L69.2,109.89130856196086L69.60000000000001,104.24537092049918L70,99.15276421705882L70.4,111.74751581350962L70.8,112.01292977333068L71.2,113.20501682758331L71.60000000000001,117.39617659250895L72,113.50716485182444L72.39999999999999,116.388081685702L72.8,114.85860496362052L73.2,117.91961667537689L73.6,126.49344173669814L74,125.45374782482783L74.4,114.73669327894847L74.8,116.84315687020622L75.2,115.48909618059794L75.60000000000001,118.37936009565989L76,120.44008912245432L76.4,120.895418938001L76.8,125.53124761184057L77.19999999999999,119.8806258201599L77.6,120.44685099124908L78,125.93518970012664L78.4,124.74719973007838L78.8,128.8033201654752L79.2,123.4369125922521L79.60000000000001,123.7847315231959L80,129.80103885730108L80.4,122.87410018444061L80.80000000000001,123.55781282583872L81.19999999999999,130.57860425710678L81.6,130.4814200758934L82,128.03134957551956L82.39999999999999,131.1941111445427L82.8,132.32726702690124L83.2,126.86320844888687L83.60000000000001,129.21840589841207L84,129.59432442585629L84.4,135.29198753436407L84.80000000000001,127.05101475715637L85.19999999999999,129.38251560529073L85.6,126.887721991539L86,129.6392615000407L86.39999999999999,132.4632453083992L86.8,121.8272553841273L87.2,128.7156068444252L87.6,133.9328837354978L88,127.7906595826149L88.4,129.855917151769L88.8,127.89667981465658L89.2,130.58991588751476L89.60000000000001,130.57973771890005L90,128.1763937830925L90.39999999999999,136.25164949496587L90.8,132.95867244005203L91.2,128.81774925788244L91.6,133.52298964659374L92,135.66736673911413L92.4,128.1998074611028L92.8,133.6665891766548L93.2,139.00080360571545L93.60000000000001,133.78974926074346L93.99999999999999,130.92918699582418L94.39999999999999,130.6934693813324L94.8,132.79826018810272L95.2,132.55518126090368L95.6,127.37684346834818L96,137.67766997814178L96.4,130.69620312849682L96.8,131.071515138944L97.2,133.07305659453075L97.60000000000001,124.38720625241598L98,139.23589878877004L98.4,133.0588892062505L98.8,133.9977757493655L99.19999999999999,138.02902898788452L99.6,131.66191611289977L100,131.38179721037548L100.4,132.30250062147778L100.8,133.27858451604843L101.2,131.17103874286016L101.60000000000001,135.45678686698278L102,132.2479247013728L102.4,138.47064586083096L102.80000000000001,133.30612887541454L103.19999999999999,135.32667570908865L103.6,136.41658852100372L104,139.18586909373602L104.39999999999999,138.4332009514173L104.8,133.03079845110577L105.2,138.69752742449444L105.60000000000001,133.93900195360183L106,137.16788271665573L106.4,136.27171053091686L106.80000000000001,135.6744150678317L107.19999999999999,140.58502158125242L107.6,138.51600732008617L108,138.59423032999038L108.39999999999999,137.23979123036068L108.8,138.09478568633398L109.2,134.28225344022115L109.6,137.69742863972982L110,140.4066808283329L110.4,138.06892648935317L110.80000000000001,138.4830555876096L111.2,138.72369430065154L111.6,141.33007289568584L112,140.36276669899624L112.39999999999999,137.78803131580352L112.8,136.9129475315412L113.2,137.39162559906643L113.6,139.8770836253961L114,139.4317277431488L114.4,139.2051503221194L114.8,136.55223613580068L115.2,139.71852540572485L115.60000000000001,141.88355590502422L116.00000000000001,139.1579251050949L116.39999999999999,137.87549531062444L116.8,137.58049463828405L117.2,139.27793766657513L117.6,138.75356747309368L118,139.5108348886172L118.4,134.03009797732037L118.8,140.32224765022596L119.2,138.57557683785757L119.60000000000001,139.49298949639004L120,137.49763522148132L120.39999999999999,138.87522629499435L120.8,137.70852807760238L121.2,137.93120115598043L121.6,139.69137271841367L122,138.14038586219152L122.4,136.49068084955215L122.8,137.51566628217697L123.2,134.73232264916103L123.60000000000001,138.2535941163699L124,136.64724003871282L124.4,135.46999585231146L124.80000000000001,131.56005662282308L125.19999999999999,138.10887527068456L125.6,139.9218924999237L126,135.92910976807278L126.39999999999999,139.8926806608836L126.8,139.7620973745982L127.2,140.906024680535L127.60000000000001,133.47432152032852L128,140.10482810537022L128.4,140.17518672943115L128.8,138.4269978562991L129.2,139.77122872670492L129.6,142.26043018301328L130,138.59761656920116L130.4,140.24719338218372L130.8,134.10762782494228L131.20000000000002,139.135439769427L131.6,137.52298515637716L132,138.9898191054662L132.4,138.59234888950985L132.8,139.6446134408315L133.2,140.24033249020576L133.6,136.8801743944486L134,140.93907101551693L134.4,141.60341136256855L134.8,140.3141604622205L135.20000000000002,140.67649159431457L135.6,147.62689036230248L136,140.79711951414745L136.4,141.0192400077979L136.79999999999998,140.90561444163322L137.2,143.8106133600076L137.6,139.9858199218909L138,140.09896628657978L138.4,138.06507519483566L138.8,143.46239656805992L139.20000000000002,145.32034203012785L139.6,139.0663923184077L140,143.1063074330489L140.4,140.0966012239456L140.8,140.39575114448866L141.20000000000002,144.97945825854939L141.6,141.14903110861778L142,140.24314846197765L142.4,139.9755551079909L142.8,141.0301387468974L143.20000000000002,138.02146962881088L143.60000000000002,142.85762397050857L144,140.47229518095654L144.39999999999998,141.77369321982067L144.79999999999998,137.59399892489117L145.2,140.5698445101579L145.6,141.0500211874644L146,139.0237964351972L146.4,140.35580501556396L146.79999999999998,142.3596487601598L147.2,141.7097843647003L147.6,141.2901727418105L148,141.69423330426216L148.4,141.06505149205526L148.8,140.63750828901928L149.2,142.38684919079145L149.6,143.7364025572936L150,146.59428677558898L150.4,142.4336208462715L150.8,143.97043058872222L151.20000000000002,143.62461952964466L151.60000000000002,144.4412760992845L152,144.3616552710533L152.4,145.6864855547746L152.8,146.8698731571436L153.2,144.29450782736143L153.6,144.5501724243164L154,145.31513358751934L154.39999999999998,144.981485581398L154.79999999999998,144.83636268575987L155.2,143.44276168545088L155.6,143.93269833525022L156,144.4462157646815L156.4,144.38091528018316L156.8,142.9506792386373L157.2,139.90223374565443L157.6,142.5081048468749L158,144.12032339572906L158.4,145.91470569968223L158.8,145.03960511684417L159.20000000000002,144.10703837474188L159.6,143.299571510156L160,142.90776418248814L160.4,145.30450274149578L160.8,142.76427251696586L161.20000000000002,144.35939895709356L161.60000000000002,145.12391982078552L162.00000000000003,148.76935221354168L162.39999999999998,146.1061351954937L162.79999999999998,137.5763657251994L163.2,152.41232891976833L163.6,146.74480820298194L164,137.63429075082144L164.4,137.40629694461822L164.79999999999998,140.77439899841946L165.2,145.66843946377438L165.6,124.63932458162307L166,137.51486702362698L166.4,152.64950856293243L166.8,145.39202597339948L167.20000000000002,145.9990672628085L167.6,147.63879171113174L168,141.96527301867803L168.4,148.32600110868614L168.8,141.64704522093137L169.20000000000002,147.35835142532986L169.60000000000002,145.26435945034027L170,153.43488629510006L170.39999999999998,140.76483530402183L170.79999999999998,139.958932475249L171.2,140.9756494720777L171.6,143.91850265463194L172,143.1173166890939L172.4,143.32209840019544L172.79999999999998,142.40907193819683L173.2,145.6682635207971L173.6,142.94215794006985L174,133.4109254638354L174.4,139.61305510600408L174.8,137.78398197491964L175.2,147.04427685439586L175.6,134.30491560300192L176,142.6470379094283L176.4,142.5830830792586L176.8,144.77559162775677L177.20000000000002,139.89845583438873L177.6,142.38297490874928L178,140.17778431971868L178.4,145.58789382974308L178.8,127.34343905846278L179.20000000000002,137.2507881085078L179.60000000000002,138.46617743968963L180,132.15564216772717L180.39999999999998,143.00778201818466L180.79999999999998,136.6773289402326L181.2,139.12928441762924L181.6,139.58692801594734L182,140.42278447349867L182.4,140.7724459429582L182.79999999999998,140.75778609116873L183.2,142.63894011179607L183.6,143.35091414650282L184,144.08134274284046L184.4,139.07119494279226L184.8,141.49532578984898L185.20000000000002,140.09608400464057L185.6,147.84657152593135L186,150.1458893974622L186.4,143.32191007932028L186.8,149.32072037061056L187.20000000000002,142.87421654264134L187.60000000000002,136.70054634014767L187.99999999999997,132.67197910547256L188.39999999999998,144.60645207365354L188.79999999999998,147.47132228910922L189.2,153.75578191665312L189.6,138.411509569486L190,130.80310572783154L190.4,153.58955558923384L190.79999999999998,146.9871413618326L191.2,135.21180528004965L191.6,137.4609029253324L192,153.45976343850296L192.4,153.34428903435668L192.8,145.9917881747087L193.2,140.2951931019624L193.6,136.72706863880157L194,153.17842122390866L194.4,152.70586159552138L194.8,133.3488785982132L195.20000000000002,146.089570915699L195.60000000000002,153.20133293395241L196,139.49571263392767L196.4,153.06982428928217L196.8,147.50362152953943L197.2,141.2533405383428L197.6,152.52044234275817L198,153.22396161009868L198.39999999999998,129.97592617670696L198.79999999999998,120.0226781129837L199.2,152.30987661679586L199.6,132.20966108242672L200,151.83142289867004L200.4,144.67387006282806L200.8,151.7265197719137L201.2,137.44459416071575L201.6,141.62654830614727L202,139.4068799972534L202.4,139.19869613250097L202.8,137.10819649298986L203.20000000000002,142.03882337212562L203.6,139.11689767837524L204,138.81087183554968L204.4,140.99228801925977L204.8,138.22948373953503L205.20000000000002,140.85774645805358L205.60000000000002,138.189057524999L206,140.46929707725843L206.39999999999998,141.42273118694624L206.79999999999998,141.72669080495834L207.2,140.3988535761833L207.6,142.80886477828025L208,144.18783156673115L208.4,136.80401672522228L208.79999999999998,146.00971225500106L209.2,137.5880239367485L209.6,121.10732147693633L210,138.9411191503207L210.4,140.91953338781994L210.8,139.83825504382452L211.20000000000002,140.09791062871616L211.6,138.6180630882581L212,140.0621385037899L212.4,140.5873592356841L212.8,139.10489642222723L213.20000000000002,140.4464837272962L213.60000000000002,140.98906888167065L214,139.5687714080016L214.39999999999998,142.37740220228832L214.79999999999998,136.4743473291397L215.2,140.0403604765733L215.6,142.12345901727676L216,138.37917673190435L216.4,139.98041520118713L216.79999999999998,141.05062151551246L217.2,140.02690393328666L217.6,142.40035082499188L218,141.91094996134441L218.4,141.9795801003774L218.8,143.36451568802198L219.2,132.60119521220525L219.6,141.63354093432426L220,135.73191747665405L220.4,145.36450990637144L220.8,138.49057958126068L221.20000000000002,142.8536135315895L221.60000000000002,142.66030171116194L222,134.46645247538885L222.4,142.16588249405225L222.8,138.60343948602676L223.2,138.44283802906673L223.6,136.572412109375L224,139.22580372889837L224.39999999999998,141.0374691148599L224.79999999999998,135.77125620444616L225.2,140.47507490317028L225.6,139.40097397168478L226,137.942507481575L226.4,142.31819252769154L226.8,138.24297034343084L227.2,136.65811313788097L227.6,140.45385476549467L228,140.8673967977365L228.4,140.31361848711967L228.8,125.22165516614913L229.20000000000002,136.36626352469128L229.6,138.17514653603237L230,141.16322944164276L230.4,137.61990763346355L230.8,138.01500129302343L231.20000000000002,138.66020098924636L231.60000000000002,134.39471371571224L232.00000000000003,141.09327486753463L232.39999999999998,141.90641965071362L232.79999999999998,141.4885736465454L233.2,143.31490330497425L233.6,135.73360617558163L234,141.17732344667118L234.4,139.25985355774563L234.79999999999998,143.25180254975956L235.2,143.37059412002563L235.6,144.3239504257838L236,140.66177604198455L236.4,141.38686622778576L236.8,140.43905522028606L237.20000000000002,143.45271174709004L237.6,145.54540492693584L238,140.6031065742175L238.4,144.13613969683647L238.8,132.47686276435851L239.20000000000002,141.71284612615904L239.60000000000002,139.72075873215994L240,145.28885973095893L240.39999999999998,146.37827300628027L240.79999999999998,142.4322964111964L241.2,132.0006761908531L241.6,133.3232510447502L242,138.53655286232632L242.4,137.60443172454833L242.79999999999998,139.1256806810697L243.2,138.5152681827545L243.6,134.3932071487109L244,137.71975659926733L244.4,134.00219642718633L244.8,140.60292709469795L245.2,140.54796922802925L245.6,141.31143354972204L246,138.30547872781753L246.4,139.50013242761295L246.8,141.9749905526638L247.20000000000002,140.65460128188133L247.6,138.53556263049444L248,146.48132873177528L248.4,153.63892041432362L248.8,153.39764357643824L249.20000000000002,146.19738859534263L249.60000000000002,141.07199018796285L250,140.54550867875417L250.39999999999998,148.28769770363968L250.79999999999998,139.49058906833332L251.2,144.37798967560133L251.6,136.54489427407583L252,146.07539026538532L252.4,140.58414009809493L252.79999999999998,135.2486631234487L253.2,137.02806021372479L253.6,137.75026104450225L254,143.76243858138722L254.4,133.3638045748075L254.8,140.2434976955255L255.20000000000002,144.38137856721877L255.6,138.54894313812255L256,140.21398701866468L256.4,139.17042501370113L256.8,141.94836392601331L257.2,132.89967584212621L257.6,143.15003147323927L258,144.4689362804095L258.4,145.76432042916616L258.8,140.36429006457328L259.2,137.6831003387769L259.6,141.97577654918035L260,138.22196681896847L260.40000000000003,139.5449722468853L260.8,140.15519730846088L261.2,142.8956002453963L261.6,138.56617847681045L262,140.94114254514378L262.40000000000003,138.93211688200634L262.8,137.16501104434332L263.2,139.47280468146008L263.59999999999997,142.386904891332L264,140.77447680234908L264.4,138.5354724486669L264.8,140.05814574758213L265.2,141.76378648082417L265.6,138.69103256464004L266,141.06576675772666" style="fill: none;" fill="none"></path></g><g><path stroke="rgb(255, 112, 67)" stroke-width="2px" d="M20,143.5981131454309L20.4,152.752366352578L20.8,140.81556523442268L21.200000000000003,149.0108869979779L21.599999999999998,139.21244090398153L22,147.89936414460342L22.400000000000002,138.77163389921188L22.8,141.42124849160513L23.2,143.10689891974133L23.599999999999998,147.32380869090557L24,148.16416495641073L24.400000000000002,147.935127428174L24.799999999999997,151.35939087818068L25.2,151.02608812699717L25.6,152.8936662460367L26,152.42151365155976L26.400000000000002,152.35090315937995L26.799999999999997,152.69573802227777L27.2,150.0233482082685L27.6,152.44366843104362L28,151.08123320937156L28.4,145.28445850412052L28.8,152.40241687595844L29.2,152.94093721707662L29.6,152.11225574066242L30,150.79801762203377L30.4,147.96815608044466L30.8,150.4033969750007L31.200000000000003,150.33782594501972L31.599999999999998,151.46128087093433L32,150.53030358354252L32.4,152.23057717184227L32.800000000000004,152.4723455891013L33.2,153.10083390747508L33.6,152.96039239913225L34,152.2237193743388L34.4,150.37573546767234L34.800000000000004,152.95233405604958L35.2,151.9377421895663L35.6,151.61188673327368L36,151.3738073716561L36.4,150.28220762908458L36.8,144.00061939756077L37.2,148.16322246789932L37.6,142.57270774841308L38,146.64790252447128L38.4,137.94844887256622L38.8,140.9391010761261L39.2,140.44491792321205L39.6,132.5113953312238L40,135.59462006489437L40.400000000000006,143.98178288936614L40.8,124.33718539873759L41.199999999999996,139.90518145362537L41.6,128.05360680421194L42,131.9332679271698L42.400000000000006,138.2755100687345L42.8,127.85084976355235L43.199999999999996,132.018228050073L43.6,132.78355701367062L44,130.147922372818L44.4,120.29307859738668L44.800000000000004,133.73895920912426L45.199999999999996,115.23918995857238L45.6,125.50616291761398L46,132.45396365324657L46.4,125.7598108013471L46.800000000000004,110.35331183274589L47.199999999999996,124.09132498105367L47.6,80.11118961970011L48,103.18595017592112L48.4,118.23412845134735L48.800000000000004,102.47775405248008L49.2,109.2228950023651L49.599999999999994,103.16632236639659L50,84.31736200650533L50.4,107.99927613735198L50.800000000000004,105.98665823141734L51.2,88.66725947062174L51.599999999999994,77.09799903233846L52,95.49771242936454L52.4,94.93687341213226L52.800000000000004,108.51612410545349L53.2,94.22911581993102L53.599999999999994,104.86930185159049L54,99.76734099388122L54.4,106.49188865820567L54.8,88.48703727722169L55.2,104.46041037241618L55.6,84.03702030181886L56,88.03866030375163L56.4,47.2795510450999L56.8,62.390050268173226L57.2,70.26979885101319L57.6,98.59776756763458L58.00000000000001,70.76593329111735L58.4,102.46984634399413L58.8,95.33223761717478L59.2,82.58476751645406L59.6,33.79968779881795L60,84.547456518809L60.4,52.14160348574321L60.8,67.28148430188497L61.2,76.37963534990946L61.6,66.26681496302287L62,78.65523761113485L62.400000000000006,89.47963151931762L62.8,78.31050961812338L63.199999999999996,69.78905544281007L63.6,46.537980572382615L64,58.937564547856645L64.4,62.47176561355592L64.8,80.12719600995382L65.2,59.43567945162456L65.60000000000001,53.3056139310201L66,-14.178911749521873L66.4,60.42985099156697L66.8,57.44382104873658L67.2,68.29485926628114L67.60000000000001,85.7895325978597L68,25.068587398529065L68.39999999999999,83.09873320261637L68.8,58.331570959091195L69.2,39.86073416074117L69.60000000000001,68.28852178255717L70,36.20028560956319L70.4,43.51478157043458L70.8,32.012446657816575L71.2,86.88227464358012L71.60000000000001,71.35928727785746L72,57.369850730896005L72.39999999999999,52.3604730129242L72.8,22.61101589202882L73.2,48.12310125033061L73.6,22.106987889607748L74,34.08429457346599L74.4,60.00173840522767L74.8,42.328505055109666L75.2,46.48865995407105L75.60000000000001,46.665557797749834L76,62.916563606262216L76.4,28.041376527150472L76.8,28.771856403350842L77.19999999999999,74.45908778508505L77.6,49.922783946990975L78,12.419804509480793L78.4,55.874027744929L78.8,20.083746210734056L79.2,30.72681452433269L79.60000000000001,54.58986681302388L80,63.13483192125957L80.4,31.001023864746106L80.80000000000001,46.85064627329509L81.19999999999999,59.5958565235138L81.6,70.35583585103353L82,2.351792112986252L82.39999999999999,34.49517005284627L82.8,44.944888528188066L83.2,37.43021012941997L83.60000000000001,18.502444998423265L84,57.67809575398763L84.4,45.95005871454875L84.80000000000001,1.1898965199788398L85.19999999999999,42.04747018814088L85.6,41.80402876536052L86,57.440277433395394L86.39999999999999,48.70240809122722L86.8,48.68791534105937L87.2,45.256627655029305L87.6,42.03807713190715L88,47.05351648330689L88.4,33.27130009333293L88.8,60.900614277521775L89.2,62.856350437800096L89.60000000000001,40.748491144180306L90,26.506488895416272L90.39999999999999,54.62478663126628L90.8,36.999537086486825L91.2,25.93194224039714L91.6,55.02676417032878L92,48.134743547439584L92.4,65.33376194636027L92.8,33.24778916041057L93.2,26.635105864206956L93.60000000000001,60.031296825408944L93.99999999999999,56.20047181447347L94.39999999999999,49.6785361925761L94.8,60.879034296671556L95.2,72.67119592030843L95.6,57.37913061777751L96,66.26617131233216L96.4,62.242244021097825L96.8,58.809626595179246L97.2,61.18539080619813L97.60000000000001,57.90868538220723L98,74.0957222143809L98.4,85.00004905064901L98.8,82.03127743403117L99.19999999999999,71.25171273549398L99.6,69.32147504488627L100,72.08565061887106L100.4,64.77929577827454L100.8,79.30084754625956L101.2,74.55174519220988L101.60000000000001,79.62667625745138L102,74.542005554835L102.4,73.2694020430247L102.80000000000001,83.24180755615235L103.19999999999999,84.05028233528138L103.6,71.11169395446778L104,80.12667260169984L104.39999999999999,71.41314174334208L104.8,88.90729873975118L105.2,70.18143480618795L105.60000000000001,59.01872111956279L106,64.48240305582682L106.4,65.3174019018809L106.80000000000001,60.760093307495126L107.19999999999999,54.431238746643075L107.6,66.69437584877015L108,65.55181806882223L108.39999999999999,71.99010032018026L108.8,57.86571639378865L109.2,66.95153198242188L109.6,41.78247000376384L110,75.03385370572408L110.4,61.182448403040574L110.80000000000001,62.87655824025472L111.2,75.05089983940125L111.6,74.82370529174806L112,79.8451921304067L112.39999999999999,61.82536349296571L112.8,72.34321699142457L113.2,75.1617421468099L113.6,68.68207527796427L114,78.34866890907288L114.4,75.20314798355103L114.8,80.61922098795573L115.2,62.65342364311219L115.60000000000001,88.61088698705038L116.00000000000001,91.07609035174052L116.39999999999999,86.29757811228434L116.8,79.57028962771098L117.2,74.66939888000489L117.6,93.05214748382568L118,94.27999251683555L118.4,79.7382470925649L118.8,71.58771254221598L119.2,88.6199051698049L119.60000000000001,80.49692028363546L120,84.05980978012086L120.39999999999999,107.12613214651743L120.8,76.23473614056905L121.2,84.48267413775126L121.6,90.7338733037313L122,93.86202980677287L122.4,79.4729427655538L122.8,94.49623085657755L123.2,84.2314876874288L123.60000000000001,91.5080011844635L124,94.86464660962424L124.4,96.21041764418284L124.80000000000001,93.57468574841819L125.19999999999999,90.78150345484416L125.6,104.84383167425791L126,100.46922085285186L126.39999999999999,110.05142904917399L126.8,104.1074952840805L127.2,110.61960639158885L127.60000000000001,104.83552787303924L128,109.51839079062144L128.4,97.7885465780894L128.8,99.81685258547465L129.2,93.72449367841087L129.6,104.77032464345298L130,97.52056508859L130.4,108.29511850674949L130.8,113.52486170927683L131.20000000000002,109.66884590784709L131.6,104.2433126529058L132,110.24206989606223L132.4,98.02357456684112L132.8,102.33741698265075L133.2,99.53575052420298L133.6,96.72848218282066L134,112.20083333651225L134.4,110.21469705899558L134.8,108.13974052270255L135.20000000000002,99.35822671254478L135.6,94.80130713780723L136,111.73372683525085L136.4,107.9887549241384L136.79999999999998,110.35284854571024L137.2,110.05287549495696L137.6,118.90742951234182L138,110.66531620025634L138.4,113.28714948495231L138.8,107.35855016708373L139.20000000000002,109.21296792825065L139.6,112.2228270928065L140,102.30005695025126L140.4,117.33418100674949L140.8,115.41336466471354L141.20000000000002,99.2283259789149L141.6,106.63704603513084L142,113.47379757563273L142.4,115.84905252456664L142.8,113.79542487462363L143.20000000000002,118.52662171522776L143.60000000000002,115.3328941822052L144,111.80001578330993L144.39999999999998,116.42793851693473L144.79999999999998,112.80770398775736L145.2,111.21919530232749L145.6,116.42912325859069L146,112.97100028991699L146.4,119.54969741503398L146.79999999999998,119.67866803805033L147.2,123.68027621110281L147.6,111.47859360376994L148,112.33816434542338L148.4,119.90063557624816L148.8,110.27144441604614L149.2,119.17782646020254L149.6,123.56009035905203L150,113.60801642735801L150.4,115.47690571943919L150.8,106.17457947731017L151.20000000000002,121.72744001547495L151.60000000000002,118.35396418571472L152,118.38745170434318L152.4,122.49931865533193L152.8,114.48865081469218L153.2,116.19498294194541L153.6,120.6764928261439L154,116.58595122496287L154.39999999999998,113.02264441649119L154.79999999999998,121.57489833831787L155.2,110.546141799291L155.6,121.8143257856369L156,122.3209390004476L156.4,125.69646779298782L156.8,109.59195794264475L157.2,118.92247042655944L157.6,112.12895665168762L158,122.333345190684L158.4,120.60262860457102L158.8,113.9311856587728L159.20000000000002,125.91766082843145L159.6,112.86592254638671L160,120.94252568085989L160.4,115.63156224886576L160.8,113.58215369383494L161.20000000000002,121.24217336972555L161.60000000000002,128.46110311746597L162.00000000000003,128.9870629866918L162.39999999999998,114.66778021653495L162.79999999999998,123.26982865333557L163.2,118.65580806732177L163.6,118.68605257670085L164,124.85542322794596L164.4,124.34610455830892L164.79999999999998,129.9750685652097L165.2,118.84757707118987L165.6,121.89375298817953L166,115.36765131950378L166.4,121.0964112440745L166.8,125.38975762923559L167.20000000000002,126.26298472881317L167.6,124.16369678179423L168,117.43972203731536L168.4,123.17665491104125L168.8,120.61798780759176L169.20000000000002,125.44155205885569L169.60000000000002,123.5358084599177L170,120.34567405382792L170.39999999999998,125.95580597321192L170.79999999999998,119.6453927119573L171.2,124.70669747988383L171.6,125.69170937538146L172,126.25495854616165L172.4,110.42046723365783L172.79999999999998,122.2166711250941L173.2,128.39806248346966L173.6,122.57721453507742L174,123.00877525011698L174.4,123.33133265972137L174.8,119.6989218155543L175.2,124.2369739373525L175.6,125.98348295291265L176,128.0725060860316L176.4,125.67615212599436L176.8,126.1377257068952L177.20000000000002,127.88481117884318L177.6,133.46337592204412L178,126.08698870340983L178.4,129.21439192295074L178.8,118.82607843081156L179.20000000000002,122.6822180112203L179.60000000000002,126.59148706595103L180,127.8385355234146L180.39999999999998,126.34573981761932L180.79999999999998,131.92199873526891L181.2,120.14253153006236L181.6,128.3573480407397L182,121.17180325190226L182.4,127.83780699570974L182.79999999999998,130.1615327556928L183.2,121.84614759286245L183.6,128.4107586701711L184,121.88367737929026L184.4,116.75348784128825L184.8,119.22081666787466L185.20000000000002,118.48722109794616L185.6,126.8182678381602L186,128.47666920820873L186.4,120.52666367689768L186.8,125.27985781033834L187.20000000000002,126.56503726641337L187.60000000000002,126.72684468428294L187.99999999999997,121.81168045202891L188.39999999999998,125.49485128720602L188.79999999999998,127.1447455048561L189.2,126.63044561545054L189.6,132.4069895307223L190,128.52963069677352L190.4,127.82635920842489L190.79999999999998,130.6035970012347L191.2,129.85294822454452L191.6,132.53116813898086L192,130.89196135203045L192.4,126.1060506661733L192.8,129.96889729897183L193.2,133.0076111117999L193.6,127.06316454807917L194,131.97074466546377L194.4,127.44633298714956L194.8,128.19516751766204L195.20000000000002,133.4139774998029L195.60000000000002,129.03022471666335L196,131.90194477240246L196.4,124.62455244461695L196.8,131.89687160253524L197.2,135.8864360809326L197.6,137.9965706030528L198,130.271266357104L198.39999999999998,128.9976708451907L198.79999999999998,133.09290013313293L199.2,132.6318870941798L199.6,131.46383791764578L200,136.15197028319042L200.4,137.4421521782875L200.8,131.74983808994293L201.2,135.87739491065344L201.6,131.87429431676864L202,127.37455178896586L202.4,132.94993010759353L202.8,130.43847761154174L203.20000000000002,131.80455193519592L203.6,135.9521008292834L204,133.49079473416012L204.4,134.11539053519567L204.8,128.91370095411938L205.20000000000002,134.614462073644L205.60000000000002,133.5980456829071L206,136.5191889166832L206.39999999999998,134.79327318668365L206.79999999999998,132.46553698778152L207.2,131.15015369256338L207.6,132.85373085339864L208,134.92019792000454L208.4,137.55690059661865L208.79999999999998,135.90542731285095L209.2,132.40657221873602L209.6,135.638223862648L210,135.3483458717664L210.4,135.29439945618313L210.8,136.91609682242077L211.20000000000002,135.7527388691902" style="fill: none;" fill="none"></path></g></g></g></g></g></g><g transform="translate(50, 178)" clip-path="url(#clip_1)"><clipPath id="clip_1"><rect width="280" height="22"></rect></clipPath><g><g><line x1="0" y1="0" x2="0" y2="5" style="visibility: inherit;" fill="rgb(0, 0, 0)" stroke="rgb(204, 204, 204)" stroke-width="1px"></line><line x1="20" y1="0" x2="20" y2="5" style="visibility: inherit;" fill="rgb(0, 0, 0)" stroke="rgb(204, 204, 204)" stroke-width="1px"></line><line x1="40" y1="0" x2="40" y2="5" style="visibility: inherit;" fill="rgb(0, 0, 0)" stroke="rgb(204, 204, 204)" stroke-width="1px"></line><line x1="60" y1="0" x2="60" y2="5" style="visibility: inherit;" fill="rgb(0, 0, 0)" stroke="rgb(204, 204, 204)" stroke-width="1px"></line><line x1="80" y1="0" x2="80" y2="5" style="visibility: inherit;" fill="rgb(0, 0, 0)" stroke="rgb(204, 204, 204)" stroke-width="1px"></line><line x1="100" y1="0" x2="100" y2="5" style="visibility: inherit;" fill="rgb(0, 0, 0)" stroke="rgb(204, 204, 204)" stroke-width="1px"></line><line x1="120" y1="0" x2="120" y2="5" style="visibility: inherit;" fill="rgb(0, 0, 0)" stroke="rgb(204, 204, 204)" stroke-width="1px"></line><line x1="140" y1="0" x2="140" y2="5" style="visibility: inherit;" fill="rgb(0, 0, 0)" stroke="rgb(204, 204, 204)" stroke-width="1px"></line><line x1="160" y1="0" x2="160" y2="5" style="visibility: inherit;" fill="rgb(0, 0, 0)" stroke="rgb(204, 204, 204)" stroke-width="1px"></line><line x1="180" y1="0" x2="180" y2="5" style="visibility: inherit;" fill="rgb(0, 0, 0)" stroke="rgb(204, 204, 204)" stroke-width="1px"></line><line x1="200" y1="0" x2="200" y2="5" style="visibility: inherit;" fill="rgb(0, 0, 0)" stroke="rgb(204, 204, 204)" stroke-width="1px"></line><line x1="220" y1="0" x2="220" y2="5" style="visibility: inherit;" fill="rgb(0, 0, 0)" stroke="rgb(204, 204, 204)" stroke-width="1px"></line><line x1="240" y1="0" x2="240" y2="5" style="visibility: inherit;" fill="rgb(0, 0, 0)" stroke="rgb(204, 204, 204)" stroke-width="1px"></line><line x1="260" y1="0" x2="260" y2="5" style="visibility: inherit;" fill="rgb(0, 0, 0)" stroke="rgb(204, 204, 204)" stroke-width="1px"></line><line x1="280" y1="0" x2="280" y2="5" style="visibility: inherit;" fill="rgb(0, 0, 0)" stroke="rgb(204, 204, 204)" stroke-width="1px"></line></g><g transform="translate(0, 8)"><text x="0" y="0" dx="0em" dy="0.95em" style="text-anchor: middle; visibility: hidden; font-family: Roboto, sans-serif; font-size: 12px; font-weight: 200;" fill="rgb(50, 49, 63)" stroke="none" stroke-width="1px">-50</text><text x="20" y="0" dx="0em" dy="0.95em" style="text-anchor: middle; visibility: inherit; font-family: Roboto, sans-serif; font-size: 12px; font-weight: 200;" fill="rgb(50, 49, 63)" stroke="none" stroke-width="1px">0</text><text x="40" y="0" dx="0em" dy="0.95em" style="text-anchor: middle; visibility: hidden; font-family: Roboto, sans-serif; font-size: 12px; font-weight: 200;" fill="rgb(50, 49, 63)" stroke="none" stroke-width="1px">50</text><text x="60" y="0" dx="0em" dy="0.95em" style="text-anchor: middle; visibility: inherit; font-family: Roboto, sans-serif; font-size: 12px; font-weight: 200;" fill="rgb(50, 49, 63)" stroke="none" stroke-width="1px">100</text><text x="80" y="0" dx="0em" dy="0.95em" style="text-anchor: middle; visibility: hidden; font-family: Roboto, sans-serif; font-size: 12px; font-weight: 200;" fill="rgb(50, 49, 63)" stroke="none" stroke-width="1px">150</text><text x="100" y="0" dx="0em" dy="0.95em" style="text-anchor: middle; visibility: inherit; font-family: Roboto, sans-serif; font-size: 12px; font-weight: 200;" fill="rgb(50, 49, 63)" stroke="none" stroke-width="1px">200</text><text x="120" y="0" dx="0em" dy="0.95em" style="text-anchor: middle; visibility: hidden; font-family: Roboto, sans-serif; font-size: 12px; font-weight: 200;" fill="rgb(50, 49, 63)" stroke="none" stroke-width="1px">250</text><text x="140" y="0" dx="0em" dy="0.95em" style="text-anchor: middle; visibility: inherit; font-family: Roboto, sans-serif; font-size: 12px; font-weight: 200;" fill="rgb(50, 49, 63)" stroke="none" stroke-width="1px">300</text><text x="160" y="0" dx="0em" dy="0.95em" style="text-anchor: middle; visibility: hidden; font-family: Roboto, sans-serif; font-size: 12px; font-weight: 200;" fill="rgb(50, 49, 63)" stroke="none" stroke-width="1px">350</text><text x="180" y="0" dx="0em" dy="0.95em" style="text-anchor: middle; visibility: inherit; font-family: Roboto, sans-serif; font-size: 12px; font-weight: 200;" fill="rgb(50, 49, 63)" stroke="none" stroke-width="1px">400</text><text x="200" y="0" dx="0em" dy="0.95em" style="text-anchor: middle; visibility: hidden; font-family: Roboto, sans-serif; font-size: 12px; font-weight: 200;" fill="rgb(50, 49, 63)" stroke="none" stroke-width="1px">450</text><text x="220" y="0" dx="0em" dy="0.95em" style="text-anchor: middle; visibility: inherit; font-family: Roboto, sans-serif; font-size: 12px; font-weight: 200;" fill="rgb(50, 49, 63)" stroke="none" stroke-width="1px">500</text><text x="240" y="0" dx="0em" dy="0.95em" style="text-anchor: middle; visibility: hidden; font-family: Roboto, sans-serif; font-size: 12px; font-weight: 200;" fill="rgb(50, 49, 63)" stroke="none" stroke-width="1px">550</text><text x="260" y="0" dx="0em" dy="0.95em" style="text-anchor: middle; visibility: inherit; font-family: Roboto, sans-serif; font-size: 12px; font-weight: 200;" fill="rgb(50, 49, 63)" stroke="none" stroke-width="1px">600</text><text x="280" y="0" dx="0em" dy="0.95em" style="text-anchor: middle; visibility: hidden; font-family: Roboto, sans-serif; font-size: 12px; font-weight: 200;" fill="rgb(50, 49, 63)" stroke="none" stroke-width="1px">650</text></g><line x1="0" y1="0" x2="280" y2="0" fill="rgb(0, 0, 0)" stroke="rgb(204, 204, 204)" stroke-width="1px"></line></g></g></g></g></svg>