<svg viewBox="0 0 330 200" xmlns="http://www.w3.org/2000/svg"><g><g><g><g><g><line x1="30" y1="178" x2="25" y2="178" style="visibility: inherit;" fill="rgb(0, 0, 0)" stroke="rgb(204, 204, 204)" stroke-width="1px"></line><line x1="30" y1="158.2222222222222" x2="25" y2="158.2222222222222" style="visibility: inherit;" fill="rgb(0, 0, 0)" stroke="rgb(204, 204, 204)" stroke-width="1px"></line><line x1="30" y1="138.44444444444446" x2="25" y2="138.44444444444446" style="visibility: inherit;" fill="rgb(0, 0, 0)" stroke="rgb(204, 204, 204)" stroke-width="1px"></line><line x1="30" y1="118.66666666666669" x2="25" y2="118.66666666666669" style="visibility: inherit;" fill="rgb(0, 0, 0)" stroke="rgb(204, 204, 204)" stroke-width="1px"></line><line x1="30" y1="98.8888888888889" x2="25" y2="98.8888888888889" style="visibility: inherit;" fill="rgb(0, 0, 0)" stroke="rgb(204, 204, 204)" stroke-width="1px"></line><line x1="30" y1="79.1111111111111" x2="25" y2="79.1111111111111" style="visibility: inherit;" fill="rgb(0, 0, 0)" stroke="rgb(204, 204, 204)" stroke-width="1px"></line><line x1="30" y1="59.33333333333334" x2="25" y2="59.33333333333334" style="visibility: inherit;" fill="rgb(0, 0, 0)" stroke="rgb(204, 204, 204)" stroke-width="1px"></line><line x1="30" y1="39.55555555555555" x2="25" y2="39.55555555555555" style="visibility: inherit;" fill="rgb(0, 0, 0)" stroke="rgb(204, 204, 204)" stroke-width="1px"></line><line x1="30" y1="19.777777777777786" x2="25" y2="19.777777777777786" style="visibility: inherit;" fill="rgb(0, 0, 0)" stroke="rgb(204, 204, 204)" stroke-width="1px"></line><line x1="30" y1="0" x2="25" y2="0" style="visibility: inherit;" fill="rgb(0, 0, 0)" stroke="rgb(204, 204, 204)" stroke-width="1px"></line></g><g transform="translate(20, 0)"><text x="0" y="178" dx="0em" dy="0.3em" style="text-anchor: end; visibility: hidden; font-family: Roboto, sans-serif; font-size: 12px; font-weight: 200;" fill="rgb(50, 49, 63)" stroke="none" stroke-width="1px">-1</text><text x="0" y="158.2222222222222" dx="0em" dy="0.3em" style="text-anchor: end; visibility: inherit; font-family: Roboto, sans-serif; font-size: 12px; font-weight: 200;" fill="rgb(50, 49, 63)" stroke="none" stroke-width="1px">0</text><text x="0" y="138.44444444444446" dx="0em" dy="0.3em" style="text-anchor: end; visibility: hidden; font-family: Roboto, sans-serif; font-size: 12px; font-weight: 200;" fill="rgb(50, 49, 63)" stroke="none" stroke-width="1px">1</text><text x="0" y="118.66666666666669" dx="0em" dy="0.3em" style="text-anchor: end; visibility: inherit; font-family: Roboto, sans-serif; font-size: 12px; font-weight: 200;" fill="rgb(50, 49, 63)" stroke="none" stroke-width="1px">2</text><text x="0" y="98.8888888888889" dx="0em" dy="0.3em" style="text-anchor: end; visibility: hidden; font-family: Roboto, sans-serif; font-size: 12px; font-weight: 200;" fill="rgb(50, 49, 63)" stroke="none" stroke-width="1px">3</text><text x="0" y="79.1111111111111" dx="0em" dy="0.3em" style="text-anchor: end; visibility: inherit; font-family: Roboto, sans-serif; font-size: 12px; font-weight: 200;" fill="rgb(50, 49, 63)" stroke="none" stroke-width="1px">4</text><text x="0" y="59.33333333333334" dx="0em" dy="0.3em" style="text-anchor: end; visibility: hidden; font-family: Roboto, sans-serif; font-size: 12px; font-weight: 200;" fill="rgb(50, 49, 63)" stroke="none" stroke-width="1px">5</text><text x="0" y="39.55555555555555" dx="0em" dy="0.3em" style="text-anchor: end; visibility: inherit; font-family: Roboto, sans-serif; font-size: 12px; font-weight: 200;" fill="rgb(50, 49, 63)" stroke="none" stroke-width="1px">6</text><text x="0" y="19.777777777777786" dx="0em" dy="0.3em" style="text-anchor: end; visibility: hidden; font-family: Roboto, sans-serif; font-size: 12px; font-weight: 200;" fill="rgb(50, 49, 63)" stroke="none" stroke-width="1px">7</text><text x="0" y="0" dx="0em" dy="0.3em" style="text-anchor: end; visibility: hidden; font-family: Roboto, sans-serif; font-size: 12px; font-weight: 200;" fill="rgb(50, 49, 63)" stroke="none" stroke-width="1px">8</text></g><line x1="30" y1="0" x2="30" y2="178" fill="rgb(0, 0, 0)" stroke="rgb(204, 204, 204)" stroke-width="1px"></line></g></g><g transform="translate(30, 0)" clip-path="url(#clip_0)"><clipPath id="clip_0"><rect width="300" height="178"></rect></clipPath><g><g><g><line x1="0" y1="0" x2="0" y2="178" fill="rgb(0, 0, 0)" stroke="rgb(60, 60, 60)" stroke-width="1px" opacity="0.25"></line><line x1="27.272727272727273" y1="0" x2="27.272727272727273" y2="178" fill="rgb(0, 0, 0)" stroke="rgb(60, 60, 60)" stroke-width="1px" opacity="0.25"></line><line x1="54.54545454545455" y1="0" x2="54.54545454545455" y2="178" fill="rgb(0, 0, 0)" stroke="rgb(60, 60, 60)" stroke-width="1px" opacity="0.25"></line><line x1="81.81818181818181" y1="0" x2="81.81818181818181" y2="178" fill="rgb(0, 0, 0)" stroke="rgb(60, 60, 60)" stroke-width="1px" opacity="0.25"></line><line x1="109.0909090909091" y1="0" x2="109.0909090909091" y2="178" fill="rgb(0, 0, 0)" stroke="rgb(60, 60, 60)" stroke-width="1px" opacity="0.25"></line><line x1="136.36363636363635" y1="0" x2="136.36363636363635" y2="178" fill="rgb(0, 0, 0)" stroke="rgb(60, 60, 60)" stroke-width="1px" opacity="0.25"></line><line x1="163.63636363636363" y1="0" x2="163.63636363636363" y2="178" fill="rgb(0, 0, 0)" stroke="rgb(60, 60, 60)" stroke-width="1px" opacity="0.25"></line><line x1="190.9090909090909" y1="0" x2="190.9090909090909" y2="178" fill="rgb(0, 0, 0)" stroke="rgb(60, 60, 60)" stroke-width="1px" opacity="0.25"></line><line x1="218.1818181818182" y1="0" x2="218.1818181818182" y2="178" fill="rgb(0, 0, 0)" stroke="rgb(60, 60, 60)" stroke-width="1px" opacity="0.25"></line><line x1="245.45454545454547" y1="0" x2="245.45454545454547" y2="178" fill="rgb(0, 0, 0)" stroke="rgb(60, 60, 60)" stroke-width="1px" opacity="0.25"></line><line x1="272.7272727272727" y1="0" x2="272.7272727272727" y2="178" fill="rgb(0, 0, 0)" stroke="rgb(60, 60, 60)" stroke-width="1px" opacity="0.25"></line><line x1="300" y1="0" x2="300" y2="178" fill="rgb(0, 0, 0)" stroke="rgb(60, 60, 60)" stroke-width="1px" opacity="0.25"></line></g><g><line x1="0" y1="178" x2="300" y2="178" fill="rgb(0, 0, 0)" stroke="rgb(60, 60, 60)" stroke-width="1px" opacity="0.25"></line><line x1="0" y1="158.2222222222222" x2="300" y2="158.2222222222222" fill="rgb(0, 0, 0)" stroke="rgb(60, 60, 60)" stroke-width="1px" opacity="0.25"></line><line x1="0" y1="138.44444444444446" x2="300" y2="138.44444444444446" fill="rgb(0, 0, 0)" stroke="rgb(60, 60, 60)" stroke-width="1px" opacity="0.25"></line><line x1="0" y1="118.66666666666669" x2="300" y2="118.66666666666669" fill="rgb(0, 0, 0)" stroke="rgb(60, 60, 60)" stroke-width="1px" opacity="0.25"></line><line x1="0" y1="98.8888888888889" x2="300" y2="98.8888888888889" fill="rgb(0, 0, 0)" stroke="rgb(60, 60, 60)" stroke-width="1px" opacity="0.25"></line><line x1="0" y1="79.1111111111111" x2="300" y2="79.1111111111111" fill="rgb(0, 0, 0)" stroke="rgb(60, 60, 60)" stroke-width="1px" opacity="0.25"></line><line x1="0" y1="59.33333333333334" x2="300" y2="59.33333333333334" fill="rgb(0, 0, 0)" stroke="rgb(60, 60, 60)" stroke-width="1px" opacity="0.25"></line><line x1="0" y1="39.55555555555555" x2="300" y2="39.55555555555555" fill="rgb(0, 0, 0)" stroke="rgb(60, 60, 60)" stroke-width="1px" opacity="0.25"></line><line x1="0" y1="19.777777777777786" x2="300" y2="19.777777777777786" fill="rgb(0, 0, 0)" stroke="rgb(60, 60, 60)" stroke-width="1px" opacity="0.25"></line><line x1="0" y1="0" x2="300" y2="0" fill="rgb(0, 0, 0)" stroke="rgb(60, 60, 60)" stroke-width="1px" opacity="0.25"></line></g></g></g><g><g><line x1="0" y1="158.2222222222222" x2="300" y2="158.2222222222222" fill="rgb(0, 0, 0)" stroke="rgb(153, 153, 153)" stroke-width="1.5px"></line></g></g><g><g><line x1="27.272727272727273" y1="0" x2="27.272727272727273" y2="178" fill="rgb(0, 0, 0)" stroke="rgb(153, 153, 153)" stroke-width="1.5px"></line></g></g><g><g><g><g><g><path stroke="rgb(0, 119, 187)" stroke-width="2px" d="M27.272727272727273,158.2222222222222L27.545454545454543,158.2222222222222L27.818181818181817,158.2222222222222L28.090909090909093,158.2222222222222L28.363636363636363,158.2222222222222L28.636363636363637,158.2222222222222L28.909090909090907,158.2222222222222L29.181818181818183,158.2222222222222L29.454545454545453,158.2222222222222L29.727272727272727,158.2222222222222L30,158.2222222222222L30.272727272727273,158.2222222222222L30.545454545454547,117.16610268321513L30.818181818181817,83.32464277704555L31.09090909090909,64.15677915175614L31.363636363636363,52.424021075421976L31.636363636363637,45.882842982325634L31.90909090909091,42.0098818248648L32.18181818181818,41.19967045638969L32.45454545454545,39.0226727542862L32.72727272727273,36.90490948852993L33,36.56171253820591L33.27272727272727,35.86872383749517L33.54545454545455,36.51863232524865L33.81818181818182,37.29997653671285L34.090909090909086,38.27650548975811L34.36363636363637,37.99903683453468L34.63636363636363,35.86479232465307L34.90909090909091,33.688669141867415L35.18181818181819,34.157242607725664L35.45454545454545,35.6543084809048L35.72727272727273,36.45984330932313L36,36.67770280318023L36.27272727272727,36.06177612559197L36.54545454545455,37.23083294636085L36.81818181818182,38.14492733020984L37.09090909090909,39.69425748396741L37.36363636363636,41.84202179877056L37.63636363636364,42.88489918286344L37.909090909090914,43.242467059091986L38.18181818181818,44.21496706620482L38.45454545454545,44.265409242297075L38.72727272727273,45.543061099200365L39,45.41138179669089L39.27272727272727,44.9306267871117L39.54545454545454,44.44418777199796L39.81818181818181,44.9277268135397L40.09090909090909,44.4782658878506L40.36363636363637,44.07629435970419L40.63636363636364,44.4442379364906L40.90909090909091,43.93617459274316L41.18181818181818,45.27889751145493L41.45454545454545,45.15072566982304L41.72727272727273,44.26106668342772L42.00000000000001,43.084850374503596L42.27272727272727,43.00782160843692L42.54545454545455,43.25971505639794L42.81818181818182,43.78145434749172L43.09090909090909,43.383666131647686L43.36363636363636,43.74121084503139L43.63636363636363,42.02035690693469L43.90909090909091,43.20804239123114L44.18181818181818,44.59712348466547L44.45454545454546,45.07040313268294L44.72727272727273,44.55728522304781L45,43.38026253533151L45.27272727272727,40.31384172530045L45.54545454545455,40.45252147940772L45.81818181818182,40.16787612481368L46.090909090909086,39.26185780921981L46.36363636363636,40.916403049518436L46.63636363636364,41.95492228591493L46.909090909090914,43.17201448978084L47.18181818181819,41.91743781136796L47.45454545454545,39.577427510225746L47.72727272727273,40.5422595762038L48,40.2820156137507L48.27272727272727,40.784956226635295L48.54545454545454,39.66160534812312L48.81818181818181,39.28783311243833L49.09090909090909,39.90474247678374L49.36363636363637,39.23604625443505L49.63636363636364,39.31956303505035L49.90909090909091,39.48049607773052L50.18181818181818,38.967288116676805L50.45454545454545,38.10263425645356L50.72727272727273,39.21963702495503L51.00000000000001,38.11611279494264L51.272727272727266,40.00163653547253L51.54545454545455,36.9326363215792L51.81818181818182,37.55385788208598L52.09090909090909,37.558209487688L52.36363636363637,38.341315522460356L52.63636363636363,39.68708352327438L52.90909090909091,39.21007217613909L53.18181818181818,39.15482892647882L53.45454545454546,37.6250786506464L53.72727272727273,38.236636834078155L54,35.93283916119722L54.27272727272727,38.249010434042006L54.54545454545455,37.519062547724474L54.81818181818182,39.15654806160723L55.090909090909086,39.46389364850135L55.36363636363636,40.454809933811106L55.63636363636363,39.90304847486726L55.909090909090914,38.971469748915034L56.18181818181819,38.0348839296306L56.45454545454545,40.77394663890629L56.72727272727273,39.3775083438581L57,37.882602969436086L57.27272727272727,37.7049716920756L57.54545454545454,38.6605891486004L57.81818181818181,38.73793080713983L58.09090909090909,38.75543234970817L58.36363636363637,40.647260586447096L58.63636363636364,40.4603848298549L58.90909090909091,39.85272473336216L59.18181818181818,39.33323755540357L59.45454545454545,39.069819521971L59.72727272727273,39.17064359509991L60,39.23016478254823L60.272727272727266,37.25593321502859L60.54545454545455,39.291937521315894L60.81818181818182,40.49467854638599L61.09090909090909,38.87576216357107L61.36363636363637,40.64770156083796L61.63636363636363,40.22913509835443L61.90909090909091,40.86870592439625L62.18181818181818,40.31825050674551L62.45454545454546,40.573394770532204L62.72727272727273,40.272464749282214L63,39.75807223674921L63.27272727272727,40.59581586097045L63.54545454545455,40.653966770814044L63.81818181818182,40.30335346302825L64.0909090909091,41.68734171852332L64.36363636363636,41.828710615491694L64.63636363636364,41.93066579359786L64.9090909090909,41.60587105242552L65.18181818181819,41.51591351415933L65.45454545454545,40.20945604713491L65.72727272727272,39.62740401734615L66,41.3301557214971L66.27272727272728,39.60850997240835L66.54545454545455,39.61779339528313L66.81818181818181,40.60926466699843L67.0909090909091,40.051227109728664L67.36363636363636,41.39130344350376L67.63636363636364,39.28208342209997L67.9090909090909,41.03747146337557L68.18181818181817,42.0832803786357L68.45454545454545,41.845382325285264L68.72727272727273,39.63949075618732L69,41.07362886635074L69.27272727272727,40.870908302272994L69.54545454545455,41.0097880403102L69.81818181818181,41.01860895394685L70.0909090909091,39.57039206541555L70.36363636363637,41.21485516485425L70.63636363636364,39.460005467144406L70.9090909090909,40.75832097166577L71.18181818181819,41.703582458962465L71.45454545454545,40.70687847928372L71.72727272727273,41.58753061981036L72,41.69376249725242L72.27272727272727,42.401171175990875L72.54545454545455,43.30053156979807L72.81818181818183,42.59688439191139L73.0909090909091,42.84062604903302L73.36363636363636,43.576000512435776L73.63636363636364,43.33560240978352L73.9090909090909,43.732656332141275L74.18181818181819,45.01313315170175L74.45454545454545,45.47808765638834L74.72727272727272,45.64013378449329L75,44.78389457971018L75.27272727272728,45.0746267139855L75.54545454545455,44.78806309368535L75.81818181818183,45.10711015608373L76.0909090909091,45.45313150095817L76.36363636363636,44.314451515456625L76.63636363636363,45.22393994715646L76.9090909090909,44.99860643723377L77.18181818181817,47.59378670746016L77.45454545454545,47.72648127333679L77.72727272727273,47.74338710248949L78,47.04395121697872L78.27272727272728,46.67883354112745L78.54545454545455,46.6152199024407L78.81818181818183,48.46980159037664L79.09090909090908,47.21444795726419L79.36363636363636,47.329214530380646L79.63636363636363,47.72076933746396L79.9090909090909,46.66279518503859L80.18181818181819,46.373852461636226L80.45454545454545,47.936157637870394L80.72727272727273,49.5019890180114L81,49.78192931677201L81.27272727272728,50.03855791117595L81.54545454545453,49.63677546834456L81.81818181818181,50.74280606978439L82.0909090909091,51.064781245562585L82.36363636363636,50.55423027891307L82.63636363636364,51.507482133683574L82.9090909090909,51.76801005081289L83.18181818181819,52.833404890486655L83.45454545454545,52.646135836581486L83.72727272727273,53.799219011443235L84.00000000000001,55.16046186239167L84.27272727272727,55.39927055276486L84.54545454545455,55.55815427603554L84.81818181818181,54.72336823802529L85.0909090909091,55.80549065242349L85.36363636363636,55.53264135766773L85.63636363636364,56.561676396157175L85.9090909090909,55.61690390898336L86.18181818181819,56.31629607090812L86.45454545454547,55.2712332547275L86.72727272727272,56.49948638058443L87,57.80233782953068L87.27272727272727,58.59957176171037L87.54545454545455,57.32446617782159L87.81818181818181,57.647876974013364L88.0909090909091,57.97339228819491L88.36363636363636,56.97367084044625L88.63636363636364,58.59535612806062L88.90909090909092,59.365865834090066L89.18181818181819,60.39206436129387L89.45454545454545,60.25821004554151L89.72727272727272,60.26105806840837L90,61.532851432774066L90.27272727272727,60.55851383309381L90.54545454545455,61.09527997818743L90.81818181818181,59.45156161111221L91.0909090909091,61.40140758163044L91.36363636363637,62.17321178903632L91.63636363636364,61.664746741661816L91.9090909090909,61.41920233712491L92.18181818181817,61.8555654900028L92.45454545454545,62.673697511029125L92.72727272727272,61.96401965068757L93,61.956049272101986L93.27272727272728,61.989431522828795L93.54545454545455,63.35555750548059L93.81818181818183,62.77429459477327L94.0909090909091,65.32930776136699L94.36363636363637,64.72716081004558L94.63636363636363,64.49448583573168L94.9090909090909,64.0336421002617L95.18181818181817,64.67130279691375L95.45454545454545,64.57447988812274L95.72727272727273,65.19169030137678L96,66.22536247964064L96.27272727272728,66.64508627915266L96.54545454545455,65.93950029450983L96.81818181818183,65.21462405399811L97.09090909090908,65.68482678869498L97.36363636363636,67.71782165610274L97.63636363636363,66.37241264223476L97.9090909090909,66.5101162356501L98.18181818181819,68.0413211892796L98.45454545454545,69.03395129307623L98.72727272727273,68.60653499601989L99,67.29646345943107L99.27272727272728,68.33123996835883L99.54545454545455,68.64660520741504L99.81818181818181,68.49418116576304L100.09090909090908,68.80052455842592L100.36363636363636,69.59736143034092L100.63636363636364,70.51513025915128L100.9090909090909,70.44420134478113L101.18181818181819,70.67033444449619L101.45454545454545,70.61286817090235L101.72727272727273,69.4399084957896L102.00000000000001,70.01507840164582L102.27272727272727,70.95025666453621L102.54545454545453,70.34504405066942L102.81818181818181,70.99710215638093L103.0909090909091,71.50650091276573L103.36363636363636,72.09914896074538L103.63636363636364,71.85926329205594L103.9090909090909,72.1696087598744L104.18181818181819,72.41613153298356L104.45454545454547,73.11194329865569L104.72727272727273,72.45568331656864L105,71.99784329546961L105.27272727272727,72.11300392887411L105.54545454545455,73.04363972575979L105.81818181818181,72.10342886956775L106.0909090909091,72.53764843027471L106.36363636363636,72.60447573113846L106.63636363636364,73.20330429278194L106.90909090909092,70.87430496336447L107.18181818181819,72.13572498817766L107.45454545454545,72.86245509381807L107.72727272727272,73.7374657575034L108,75.10853377748651L108.27272727272727,76.09424408139265L108.54545454545455,75.20430230481975L108.81818181818181,75.55137196279364L109.0909090909091,75.9647671592707L109.36363636363637,76.40901352771303L109.63636363636364,76.56645100399761L109.90909090909092,76.28802801884822L110.18181818181817,77.72141897907423L110.45454545454545,76.06381269963259L110.72727272727272,78.31258637245831L111,77.71487560989264L111.27272727272727,77.62453973564587L111.54545454545455,76.23856881887232L111.81818181818183,77.17438222082102L112.0909090909091,78.6786671598784L112.36363636363637,78.79759883006602L112.63636363636363,77.68797151253074L112.9090909090909,77.8152557638281L113.18181818181817,77.38771336769358L113.45454545454545,78.30823972851545L113.72727272727273,78.02075218841406L114,78.95090072761958L114.27272727272728,77.97441532128313L114.54545454545455,77.80562481431122L114.81818181818183,78.01981385173508L115.09090909090908,77.80797044740714L115.36363636363636,77.22063105554008L115.63636363636363,78.01453676439367L115.9090909090909,77.34664938950101L116.18181818181819,78.1251359561629L116.45454545454545,77.4096100516844L116.72727272727273,78.8530567863885L117,78.73450053674469L117.27272727272728,78.45527098210813L117.54545454545455,76.90493202387589L117.81818181818181,76.63174841245922L118.09090909090908,77.40513322682396L118.36363636363636,78.33702885136401L118.63636363636364,78.84909532019071L118.9090909090909,79.71638580556521L119.18181818181819,79.05043029756166L119.45454545454545,79.33802695786778L119.72727272727273,79.76371461645923L120,80.03215677636562L120.27272727272727,80.76252804324314L120.54545454545453,80.8332012674064L120.81818181818181,80.59427939539258L121.0909090909091,80.54084120867378L121.36363636363636,80.30335140234865L121.63636363636364,80.86898267538001L121.9090909090909,79.72976235709974L122.18181818181819,78.65967383746406L122.45454545454547,78.67386339298677L122.72727272727273,79.83433927941729L122.99999999999999,79.23373798571407L123.27272727272727,79.71759982929058L123.54545454545455,80.68232705608264L123.81818181818181,81.6307820411108L124.0909090909091,81.37398848125828L124.36363636363636,81.89542398102115L124.63636363636364,80.74426995596836L124.90909090909092,82.1318251834538L125.18181818181819,82.21671253916978L125.45454545454545,83.12769430630486L125.72727272727272,83.31586659734627L126,82.4865464654675L126.27272727272727,82.8202851307657L126.54545454545455,82.95622173170513L126.81818181818181,83.35060264334572L127.0909090909091,82.97399099071119L127.36363636363637,83.10363416843524L127.63636363636364,83.68743231346622L127.90909090909092,83.01046544581898L128.1818181818182,82.89592840435256L128.45454545454544,83.55955334998458L128.72727272727272,83.42747331756725L129,83.31571928784938L129.27272727272728,83.7228011880525L129.54545454545456,83.35472114184081L129.8181818181818,83.57024847778163L130.0909090909091,83.43163266566881L130.36363636363637,84.51829099992077L130.63636363636363,83.6643621782809L130.9090909090909,82.29436603879363L131.1818181818182,82.58838980811099L131.45454545454544,82.09852705316764L131.72727272727272,83.41295525845766L132,83.31461154669651L132.27272727272728,83.90507668736986L132.54545454545456,83.12165295703589L132.8181818181818,83.6314604657295L133.0909090909091,83.75085319543298L133.36363636363635,84.09720366344169L133.63636363636363,83.70780041105736L133.9090909090909,84.70171962617816L134.1818181818182,84.66256488558373L134.45454545454547,86.03589306326076L134.72727272727272,85.64944566783792L135,85.41961616507992L135.27272727272728,84.36655186287986L135.54545454545456,85.07654908766473L135.8181818181818,86.77704935022932L136.0909090909091,85.31217128087329L136.36363636363635,85.32128623223517L136.63636363636363,86.48758606107099L136.9090909090909,85.88009207243358L137.1818181818182,84.83128889875395L137.45454545454547,84.67747859709199L137.72727272727272,85.82179015542046L138,86.05584491556537L138.27272727272728,86.71562135973961L138.54545454545453,86.3406040051477L138.8181818181818,87.60831809580372L139.0909090909091,88.05292867876453L139.36363636363637,87.4649910405717L139.63636363636363,86.89634282906171L139.9090909090909,86.07665501943816L140.1818181818182,86.30109116382353L140.45454545454547,86.37108411028824L140.72727272727275,87.6537403972371L141,87.72246882652449L141.27272727272728,87.7825033134996L141.54545454545453,87.36306451692194L141.8181818181818,86.79005309105324L142.0909090909091,87.17565100288633L142.36363636363637,87.69353191592042L142.63636363636363,87.62197627811945L142.9090909090909,87.30336612575837L143.1818181818182,86.75608814757551L143.45454545454547,85.50879753762709L143.72727272727272,86.87947591027155L144,88.0786501135593L144.27272727272728,86.73492833836534L144.54545454545453,86.95087292709148L144.8181818181818,87.38023095280842L145.0909090909091,86.92192135688876L145.36363636363637,88.1582443965375L145.63636363636365,88.46858760963609L145.9090909090909,88.14157995598619L146.1818181818182,88.25048370967569L146.45454545454544,88.53382785737007L146.72727272727272,88.73675531054566L147,87.33456196860821L147.27272727272728,88.00863074348183L147.54545454545453,87.48155055031002L147.8181818181818,89.0397037812494L148.0909090909091,90.17108789374963L148.36363636363637,91.21505173154328L148.63636363636365,91.24683825768955L148.9090909090909,90.59040796848227L149.1818181818182,90.90537094330047L149.45454545454544,90.72009579426532L149.72727272727272,90.99693182890837L150,91.08110638331507L150.27272727272725,90.69644855051585L150.54545454545456,92.37417952968289L150.8181818181818,92.19774005067512L151.0909090909091,91.159562719709L151.36363636363635,92.74211386015794L151.63636363636365,92.95290330551533L151.9090909090909,93.61535834174832L152.1818181818182,91.51892966569352L152.45454545454547,91.89795208432145L152.72727272727272,94.0425241497628L153,94.60345009013845L153.27272727272725,93.71487951504092L153.54545454545456,93.84344591699845L153.8181818181818,92.68153601621604L154.0909090909091,92.95753333543087L154.36363636363635,94.08407344431949L154.63636363636365,94.543870453107L154.9090909090909,93.78932661722824L155.18181818181816,94.30139922181534L155.45454545454547,94.4726547186361L155.72727272727272,94.33861812262452L156,94.6088664920982L156.27272727272725,94.38978191698065L156.54545454545456,93.98027030120973L156.8181818181818,94.65351733327981L157.0909090909091,94.74126095165786L157.36363636363637,94.99737430102945L157.63636363636365,96.62289838551541L157.9090909090909,96.05457721354665L158.18181818181816,96.69592655222874L158.45454545454547,96.12620548188116L158.72727272727272,96.00326877303574L159,96.169806777907L159.27272727272725,94.9801365200184L159.54545454545456,97.03749908984715L159.8181818181818,97.2430997092387L160.0909090909091,98.05085928300849L160.36363636363637,97.59567373563084L160.63636363636363,97.75971675324647L160.9090909090909,98.66632263109014L161.18181818181816,98.84214625504566L161.45454545454547,99.5944334558133L161.72727272727272,99.8919822204335L162,100.48451137578498L162.27272727272728,100.46903521241353L162.54545454545456,100.59147864036723L162.8181818181818,101.13162681333003L163.09090909090907,101.53316316329506L163.36363636363637,101.91451870859171L163.63636363636363,101.35920611430842L163.9090909090909,99.75058298288897L164.1818181818182,100.81651982520158L164.45454545454547,100.4639356505124L164.72727272727272,101.10905073577318L165,101.00076810151167L165.27272727272728,101.83369170604045L165.54545454545453,102.61715954860122L165.8181818181818,102.56636699363963L166.09090909090907,103.3250911414149L166.36363636363637,103.59381122069694L166.63636363636363,103.26961842119313L166.9090909090909,102.22065338456402L167.1818181818182,101.90095852260717L167.45454545454547,103.32994363705605L167.72727272727272,103.81523953411488L168.00000000000003,103.88038203901817L168.27272727272728,104.68499785269692L168.54545454545453,104.56926179094351L168.8181818181818,105.05918042492148L169.0909090909091,105.62357240629294L169.36363636363637,104.85108637505697L169.63636363636363,105.73782395604275L169.90909090909093,106.40775581568295L170.1818181818182,105.34358711198193L170.45454545454547,106.44146400848827L170.72727272727272,105.28699455753843L170.99999999999997,106.54247235911615L171.27272727272728,106.64026140432739L171.54545454545453,106.20775343666517L171.8181818181818,107.17139433172702L172.0909090909091,106.52350776535025L172.36363636363637,108.66197194673998L172.63636363636363,108.10781015168656L172.90909090909093,108.81195565786578L173.1818181818182,108.60488939983286L173.45454545454544,109.2008329963179L173.72727272727272,108.90949551939583L174,108.94867930287558L174.27272727272728,109.09729074721199L174.54545454545453,108.21792411907643L174.81818181818184,107.27753967771079L175.0909090909091,108.63252730936627L175.36363636363637,108.5862080215993L175.63636363636363,107.93421768371424L175.9090909090909,109.42852108281019L176.1818181818182,109.04500497010714L176.45454545454544,109.43996547172222L176.72727272727272,109.67054204582358L177,110.09087206519489L177.27272727272728,109.9097710333742L177.54545454545453,110.29053202564383L177.81818181818184,110.22369960258654L178.0909090909091,110.96201856255018L178.36363636363637,111.57497144399441L178.63636363636363,112.3320928983723L178.9090909090909,112.95426382194302L179.1818181818182,112.45967627242742L179.45454545454544,112.57223088349225L179.72727272727275,112.75702596058309L180,112.28837218493139L180.27272727272728,112.78003983198884L180.54545454545453,112.50996132459478L180.81818181818184,111.79540635340487L181.0909090909091,112.60971610462512L181.36363636363635,113.46048915018149L181.63636363636363,113.41666835193207L181.9090909090909,113.10066987593925L182.1818181818182,113.47557083611991L182.45454545454544,113.38050054881822L182.72727272727275,113.69048921953615L183,113.95026695345427L183.27272727272728,113.90331713923565L183.54545454545453,113.59282366773736L183.8181818181818,113.73391331770107L184.0909090909091,114.22106711191785L184.36363636363635,114.12066173626691L184.63636363636365,113.6496194208088L184.9090909090909,113.99650798400111L185.1818181818182,114.18927649619765L185.45454545454544,115.25146720387094L185.72727272727275,113.7022969313449L186,113.62440923248319L186.27272727272725,114.78686473538563L186.54545454545456,114.69133775229636L186.8181818181818,114.66026553522114L187.0909090909091,115.73167506396445L187.36363636363635,115.20551532365022L187.63636363636365,115.0757699282396L187.9090909090909,115.77264423928561L188.1818181818182,115.62145342420015L188.45454545454544,115.61441069570796L188.72727272727275,116.42072470688062L189,116.26635113645204L189.27272727272725,116.70663770145673L189.54545454545456,116.30108095868329L189.8181818181818,116.13722952139052L190.0909090909091,115.6851606947747L190.36363636363635,116.18365395097668L190.63636363636365,116.9643175630163L190.9090909090909,115.9974341038566L191.1818181818182,116.62105624936228L191.45454545454547,116.10455089778362L191.72727272727272,116.59399300001456L192,117.21819576067497L192.27272727272725,117.34566306272144L192.54545454545456,118.09348007360495L192.8181818181818,117.29379632663367L193.0909090909091,117.96797301989447L193.36363636363637,118.15537777979827L193.63636363636365,117.81951722234945L193.9090909090909,118.52478918404985L194.18181818181816,118.0972206173635L194.45454545454547,118.68875174128127L194.72727272727272,119.07475615052913L195,119.43895838298853L195.27272727272725,119.68147539744514L195.54545454545456,120.39194964623958L195.8181818181818,120.69112992373346L196.0909090909091,121.18914757356721L196.36363636363637,122.09758071612721L196.63636363636363,122.72312758803542L196.9090909090909,122.98224681878197L197.18181818181816,123.87618610354065L197.45454545454547,124.45661593399191L197.72727272727272,125.05759136961282L198,125.49584381433158L198.27272727272728,126.17699941917687L198.54545454545456,127.22161777835413L198.8181818181818,127.94624067425192L199.0909090909091,128.14752246122566L199.36363636363637,128.32416890106538L199.63636363636363,128.87381929184164L199.9090909090909,129.1423490697983L200.18181818181816,129.4711650549941L200.45454545454547,130.1754929533015L200.72727272727272,130.6960094742887L201,130.39947298736186L201.27272727272728,131.09418110856566L201.54545454545456,130.82269489187823L201.8181818181818,130.75762203452945L202.09090909090907,130.63431147738407L202.36363636363637,129.81580095028679L202.63636363636363,130.32542198023674L202.9090909090909,130.5662580239066L203.1818181818182,130.25910265158015L203.45454545454547,130.6868528619035L203.72727272727272,130.7565736244229L204.00000000000003,130.99302058770238L204.27272727272728,131.19556922924906L204.54545454545453,131.32471942697066L204.8181818181818,130.69586774915254L205.09090909090907,130.14205687767142L205.36363636363637,130.45549581695457L205.63636363636363,131.4073712032634L205.9090909090909,130.80991441948137L206.1818181818182,130.76668583981612L206.45454545454547,131.12802364607106L206.72727272727272,131.31840788762773L206.99999999999997,130.94963540962607L207.27272727272728,131.45096672440994L207.54545454545453,130.69741569875933L207.8181818181818,130.98710264250525L208.0909090909091,131.314537488993L208.36363636363637,131.41537783888867L208.63636363636363,131.0956085053623L208.90909090909093,131.01546674667372L209.1818181818182,131.34756092713087L209.45454545454547,131.26742022327073L209.72727272727272,130.94360716198773L210,131.29859149157605L210.27272727272728,131.16483402338056L210.54545454545453,130.95785344493248L210.8181818181818,130.30681272325694L211.0909090909091,130.02693110293814L211.36363636363637,130.96961408872076L211.63636363636363,131.0792796493689L211.90909090909093,130.78948673493386L212.1818181818182,130.48123935592207L212.45454545454544,129.7275093089132L212.72727272727272,129.7006343233274L213,130.19175511631155L213.27272727272728,130.13996527876793L213.54545454545453,130.02765464291113L213.81818181818184,130.12767496873684L214.0909090909091,130.7483130458512L214.36363636363637,130.58367147890505L214.63636363636363,130.47295377362437L214.9090909090909,130.036105714492L215.1818181818182,130.35398509371728L215.45454545454544,130.8567357145522L215.72727272727275,130.99330689605716L216,130.55458004929608L216.27272727272728,130.68034850022653L216.54545454545453,130.59853812201362L216.81818181818184,130.8762689519537L217.0909090909091,131.40077251856533L217.36363636363635,130.92326844532295L217.63636363636363,130.7622208298518L217.9090909090909,130.44739043256615L218.1818181818182,129.93337739299986L218.45454545454544,130.47747147025086L218.72727272727275,130.34618617923576L219,130.49403474627843L219.27272727272728,130.36384418082912L219.54545454545453,130.34623772187638L219.81818181818184,130.13379764063654L220.0909090909091,130.29289159478841L220.36363636363635,130.5920820366799L220.63636363636365,130.41939630232343L220.9090909090909,129.73610031809991L221.1818181818182,129.32119420227693L221.45454545454544,129.81056644354632L221.72727272727275,129.88623787595785L222,130.1438540185197L222.27272727272728,130.57125803684085L222.54545454545453,129.76572867744102L222.8181818181818,129.91671585017866L223.0909090909091,129.72417069459613L223.36363636363635,129.8610480367223L223.63636363636365,130.21876256235254L223.9090909090909,130.7513377435408L224.1818181818182,130.84258631803337L224.45454545454544,130.3522005792722L224.72727272727275,130.96736221344193L225,131.0915069603114L225.27272727272725,131.00418804094988L225.54545454545456,130.83986465537032L225.8181818181818,131.0042431908391L226.0909090909091,130.8122382125449L226.36363636363635,130.69379009439368L226.63636363636365,130.04607244776645L226.9090909090909,130.74732779398403L227.1818181818182,130.972925169212L227.45454545454547,130.59477294329017L227.72727272727272,130.7693121615972L228,130.6014324138915L228.27272727272725,130.35721148512894L228.54545454545456,130.42412292769168L228.8181818181818,130.48995923618176L229.0909090909091,130.38331317674934L229.36363636363635,130.27109182009855L229.63636363636365,129.84220273042246L229.9090909090909,129.97630980591026L230.18181818181816,130.40592696588595L230.45454545454547,130.41427295267067L230.72727272727272,129.80750400207796L231,129.84133098485816L231.27272727272725,130.40398752269792L231.54545454545456,130.17692296253233L231.8181818181818,129.70791257548288L232.0909090909091,130.11003414137602L232.36363636363637,130.04848381286922L232.63636363636365,130.3570596480731L232.9090909090909,129.84148409723755L233.18181818181816,129.40656888275387L233.45454545454547,128.92062587877206L233.72727272727272,128.71931640708502L234,128.83855631857216L234.27272727272725,129.32627772899593L234.54545454545456,129.70436003771698L234.8181818181818,130.0363390357663L235.0909090909091,129.52770023347492L235.36363636363637,129.56387532764936L235.63636363636363,128.8867700080927L235.9090909090909,128.8305933781975L236.18181818181816,128.4584233308939L236.45454545454547,128.24141068926104L236.72727272727272,128.37358058892082L237,128.89245492658452L237.27272727272728,128.87281953094595L237.54545454545456,128.9953674854065L237.8181818181818,128.83954064734132L238.09090909090907,129.19530423891953L238.36363636363637,128.18493958824985L238.63636363636363,128.07226365978653L238.9090909090909,127.73260558153272L239.1818181818182,128.06572386459888L239.45454545454547,128.01925910547538L239.72727272727272,128.4986845051689L240,128.4050241004029L240.27272727272728,128.06196618355244L240.54545454545453,127.69774432347374L240.8181818181818,127.27157185229687L241.09090909090907,127.35265187407683L241.36363636363637,127.77745029387631L241.63636363636363,127.53062225813323L241.9090909090909,127.25324831334213L242.1818181818182,127.45260615438032L242.45454545454547,127.75396046480093L242.72727272727272,127.7389353732036L243.00000000000003,127.71022319249244L243.27272727272728,126.80395065616726L243.54545454545453,127.02844671265312L243.8181818181818,126.90864344881923L244.0909090909091,127.28141424922316L244.36363636363637,127.15625483513774L244.63636363636363,127.0316136442874L244.90909090909093,126.93113194220125L245.1818181818182,127.68632618375335L245.45454545454547,127.78187850189835L245.72727272727272,126.83652000139399L245.99999999999997,126.90115014221418L246.27272727272728,126.1803147869344L246.54545454545453,126.17681878337144L246.8181818181818,125.53460514661994L247.0909090909091,125.89155380265976L247.36363636363637,125.72237313259548L247.63636363636363,126.012383535319L247.90909090909093,125.17520841183402L248.1818181818182,125.11499186754176L248.45454545454544,125.05076953543528L248.72727272727272,124.85138570663646L249,124.88858078226504L249.27272727272728,125.06079912235042L249.54545454545453,124.7965164611388L249.81818181818184,125.60022020781597L250.0909090909091,125.39523288144073L250.36363636363637,125.32432290766015L250.63636363636363,125.62779316086264L250.9090909090909,125.49439876808606L251.1818181818182,125.59131184538533L251.45454545454544,125.66075399311579L251.72727272727272,125.16357284196863L252,125.60642249894002L252.27272727272728,126.44887066126316L252.54545454545453,126.23808224079609L252.81818181818184,126.05841676374173L253.0909090909091,126.78410881348388L253.36363636363637,126.71399277467955L253.63636363636363,127.35553299730013L253.9090909090909,127.13576876196922L254.1818181818182,126.93587940776544L254.45454545454544,127.27343667387817L254.72727272727275,127.25668372283953L255,127.23438419907305L255.27272727272728,126.80209963989333L255.54545454545453,125.9461113964509L255.81818181818184,125.63512176934162L256.09090909090907,125.38593119513295L256.3636363636364,125.32668827055676L256.6363636363636,125.40263790468973L256.9090909090909,125.68788245467704L257.1818181818182,126.0361495947409L257.45454545454544,126.29372083094461L257.72727272727275,126.23460549415529L258,125.96141463697778L258.2727272727273,126.00483674978379L258.54545454545456,125.83029073912333L258.8181818181818,127.07296121249323L259.0909090909091,126.85214343943035L259.3636363636364,126.37541141079566L259.6363636363636,126.24512245767667L259.9090909090909,125.83623806014339L260.1818181818182,126.29410593931682L260.45454545454544,126.3972713596445L260.72727272727275,125.54582132247684L261,126.14887251862444L261.27272727272725,125.6528503111184L261.54545454545456,126.20574616392864L261.8181818181818,125.97315432694471L262.0909090909091,126.32070652286359L262.3636363636364,124.95036693994294L262.6363636363636,125.47897143977006L262.9090909090909,125.60765529894438L263.1818181818182,125.3997854146775L263.45454545454544,125.36362038838035L263.72727272727275,125.20376139818593L264,125.94990614616253L264.27272727272725,125.8159836292733L264.54545454545456,125.81017005605317L264.8181818181818,125.2447036567432L265.0909090909091,125.11058004808375L265.3636363636364,125.22950367994278L265.6363636363636,124.95547348380387L265.9090909090909,124.92942564691617L266.1818181818182,123.84259055525038L266.45454545454544,124.06138425021025L266.7272727272727,124.24528893135512L267,124.0207589114525L267.27272727272725,124.06811435489762L267.54545454545456,123.93173418258309L267.8181818181818,123.9031220809169L268.0909090909091,123.68426345732429L268.3636363636364,123.43284542197622L268.6363636363636,123.67576076024885L268.90909090909093,124.08403834032154L269.1818181818182,123.44951398302729L269.45454545454544,123.23632207457658L269.7272727272727,123.32847793797649L270,123.20460456682574L270.27272727272725,123.53530328185025L270.54545454545456,123.04998534944058L270.8181818181818,123.20597762679893L271.0909090909091,123.05285437460908L271.3636363636364,122.83065648344196L271.6363636363636,122.09347645918747L271.90909090909093,122.10040833441548L272.1818181818182,121.65937337411324L272.45454545454544,121.82643406271666L272.7272727272727,121.78169770645934L273,122.16086320378417L273.27272727272725,121.42857416913398L273.54545454545456,121.1778880092895L273.8181818181818,121.7668956253301L274.0909090909091,121.55821631484784L274.3636363636364,121.14353189945356L274.6363636363636,121.19633172003509L274.90909090909093,121.43806996241725L275.1818181818182,121.56767566512667L275.45454545454544,120.4365112540429L275.72727272727275,119.7997993801418L276,119.75217637465694L276.27272727272725,119.97590704058058L276.54545454545456,119.84357314483988" style="fill: none;" fill="none"></path></g></g></g></g><g opacity="0.2"><g><g><g><path stroke="rgb(0, 119, 187)" stroke-width="2px" d="M27.272727272727273,158.2222222222222L27.545454545454543,158.2222222222222L27.818181818181817,158.2222222222222L28.090909090909093,158.2222222222222L28.363636363636363,158.2222222222222L28.636363636363637,158.2222222222222L28.909090909090907,158.2222222222222L29.181818181818183,158.2222222222222L29.454545454545453,158.2222222222222L29.727272727272727,158.2222222222222L30,158.2222222222222L30.272727272727273,158.2222222222222L30.545454545454547,55.715978728400344L30.818181818181817,32.62875186072456L31.09090909090909,35.427514817979606L31.363636363636363,34.83315881093344L31.636363636363637,36.07384385002983L31.90909090909091,36.20142343309191L32.18181818181818,39.984476831224235L32.45454545454545,35.75737518734402L32.72727272727273,33.72838073306614L33,36.04692840576172L33.27272727272727,34.82925446828207L33.54545454545455,37.49348735809326L33.81818181818182,38.47198730044895L34.090909090909086,39.74129475487602L34.36363636363637,37.58283456166586L34.63636363636363,32.66342883639866L34.90909090909091,30.424486372205944L35.18181818181819,34.8601025475396L35.45454545454545,37.899906794230134L35.72727272727273,37.668145391676155L36,37.004492017957894L36.27272727272727,35.1378861533271L36.54545454545455,38.98441812727186L36.81818181818182,39.51606888241238L37.09090909090909,42.01825269063315L37.36363636363636,45.0636682510376L37.63636363636364,44.44921525319418L37.909090909090914,43.77881887223986L38.18181818181818,45.67371707492405L38.45454545454545,44.34107250637478L38.72727272727273,47.45953888363308L39,45.213862842983666L39.27272727272727,44.20949427286783L39.54545454545454,43.714529249403206L39.81818181818181,45.653035375807015L40.09090909090909,43.80407449934217L40.36363636363637,43.47333706749809L40.63636363636364,44.996153301662865L40.90909090909091,43.17407957712808L41.18181818181818,47.29298188951281L41.45454545454545,44.958467907375756L41.72727272727273,42.92657820383707L42.00000000000001,41.320525911119255L42.27272727272727,42.89227845933703L42.54545454545455,43.63755522833931L42.81818181818182,44.56406328413221L43.09090909090909,42.78698380788168L43.36363636363636,44.27752791510689L43.63636363636363,39.43907599978977L43.90909090909091,44.98957061767578L44.18181818181818,46.680745124816895L44.45454545454546,45.780322604709205L44.72727272727273,43.7876083585951L45,41.61472850375706L45.27272727272727,35.714210510253906L45.54545454545455,40.66054111056858L45.81818181818182,39.74090809292263L46.090909090909086,37.90283033582899L46.36363636363636,43.398220909966355L46.63636363636364,43.51270114050972L46.909090909090914,44.997652795579704L47.18181818181819,40.03557279374865L47.45454545454545,36.06741205851236L47.72727272727273,41.9895076751709L48,39.89164967007107L48.27272727272727,41.53936714596218L48.54545454545454,37.97657903035483L48.81818181818181,38.72717475891113L49.09090909090909,40.83010652330187L49.36363636363637,38.233001920911995L49.63636363636364,39.4448382059733L49.90909090909091,39.721895641750756L50.18181818181818,38.197476175096305L50.45454545454545,36.8056534661187L50.72727272727273,40.89514117770725L51.00000000000001,36.46082644992405L51.272727272727266,42.82992214626736L51.54545454545455,32.32913600073921L51.81818181818182,38.485690222846145L52.09090909090909,37.56473689609104L52.36363636363637,39.51597457461887L52.63636363636363,41.70573552449545L52.90909090909091,38.49455515543619L53.18181818181818,39.071964051988395L53.45454545454546,35.330453236897796L53.72727272727273,39.15397410922581L54,32.47714265187582L54.27272727272727,41.723267343309196L54.54545454545455,36.42414071824816L54.81818181818182,41.61277633243137L55.090909090909086,39.924912028842506L55.36363636363636,41.941184361775726L55.63636363636363,39.075406286451546L55.909090909090914,37.5741016599867L56.18181818181819,36.63000520070395L56.45454545454545,44.882540702819824L56.72727272727273,37.2828509012858L57,35.640244907803L57.27272727272727,37.43852477603489L57.54545454545454,40.09401533338758L57.81818181818181,38.853943294949L58.09090909090909,38.78168466356066L58.36363636363637,43.48500294155544L58.63636363636364,40.180071194966644L58.90909090909091,38.94123458862305L59.18181818181818,38.554006788465706L59.45454545454545,38.67469247182211L59.72727272727273,39.321879704793304L60,39.3194465637207L60.272727272727266,34.29458586374918L60.54545454545455,42.3459439807468L60.81818181818182,42.298790083991165L61.09090909090909,36.44738758934868L61.36363636363637,43.30561065673828L61.63636363636363,39.601285404629174L61.90909090909091,41.82806216345894L62.18181818181818,39.49256738026938L62.45454545454546,40.95611116621229L62.72727272727273,39.82106971740723L63,38.98648346794975L63.27272727272727,41.852431297302246L63.54545454545455,40.74119313557944L63.81818181818182,39.77743350134956L64.0909090909091,43.76332410176596L64.36363636363636,42.04076396094429L64.63636363636364,42.0835985607571L64.9090909090909,41.11867894066704L65.18181818181819,41.38097720675999L65.45454545454545,38.2497698465983L65.72727272727272,38.75432597266304L66,43.88428327772352L66.27272727272728,37.02604134877524L66.54545454545455,39.63171852959526L66.81818181818181,42.0964715745714L67.0909090909091,39.214170773824065L67.36363636363636,43.40141794416639L67.63636363636364,36.118253389994294L67.9090909090909,43.67055352528891L68.18181818181817,43.65199375152588L68.45454545454545,41.48853524525961L68.72727272727273,36.33065340254041L69,43.224836031595856L69.27272727272727,40.5668274561564L69.54545454545455,41.21810764736599L69.81818181818181,41.031840324401855L70.0909090909091,37.39806673261854L70.36363636363637,43.68154981401232L70.63636363636364,36.827730920579704L70.9090909090909,42.7057942284478L71.18181818181819,43.121474689907494L71.45454545454545,39.211822509765625L71.72727272727273,42.90850883060032L72,41.85311031341553L72.27272727272727,43.46228419409859L72.54545454545455,44.6495721605089L72.81818181818183,41.54141362508139L73.0909090909091,43.206238534715446L73.36363636363636,44.679062207539886L73.63636363636364,42.97500525580513L73.9090909090909,44.32823721567789L74.18181818181819,46.93384838104248L74.45454545454545,46.175519413418236L74.72727272727272,45.88320297665066L75,43.49953577253553L75.27272727272728,45.510724915398484L75.54545454545455,44.35821766323513L75.81818181818183,45.585680749681266L76.0909090909091,45.972163518269866L76.36363636363636,42.60643153720432L76.63636363636363,46.58817259470621L76.9090909090909,44.66060617234972L77.18181818181817,51.48655711279976L77.45454545454545,47.9255231221517L77.72727272727273,47.76874584621853L78,45.994797388712556L78.27272727272728,46.13115702735054L78.54545454545455,46.51979944441053L78.81818181818183,51.25167412228054L79.09090909090908,45.33141750759548L79.36363636363636,47.50136439005533L79.63636363636363,48.30810154808891L79.9090909090909,45.075833956400544L80.18181818181819,45.94043837653267L80.45454545454545,50.27961540222168L80.72727272727273,51.850736088222924L81,50.20183976491293L81.27272727272728,50.42350080278185L81.54545454545453,49.0341018040975L81.81818181818181,52.40185197194418L82.0909090909091,51.547744009229866L82.36363636363636,49.78840382893881L82.63636363636364,52.93735991583931L82.9090909090909,52.15880192650688L83.18181818181819,54.43149714999729L83.45454545454545,52.36523225572375L83.72727272727273,55.528843773735886L84.00000000000001,57.2023261388143L84.27272727272727,55.75748358832466L84.54545454545455,55.79647986094156L84.81818181818181,53.47118918100992L85.0909090909091,57.42867427402073L85.36363636363636,55.12336741553413L85.63636363636364,58.105228953891334L85.9090909090909,54.199745178222656L86.18181818181819,57.365384313795296L86.45454545454547,53.70363903045654L86.72727272727272,58.34186606936985L87,59.75661500295004L87.27272727272727,59.795422659979934L87.54545454545455,55.411807801988395L87.81818181818181,58.13299316830105L88.0909090909091,58.46166525946724L88.36363636363636,55.47408866882324L88.63636363636364,61.027884059482155L88.90909090909092,60.52163039313423L89.18181818181819,61.93136215209961L89.45454545454545,60.05742857191297L89.72727272727272,60.26533010270861L90,63.44054147932264L90.27272727272727,59.097007433573395L90.54545454545455,61.900429195827904L90.81818181818181,56.9859840604994L91.0909090909091,64.32617653740776L91.36363636363637,63.330918100145134L91.63636363636364,60.90204917060005L91.9090909090909,61.05088573031956L92.18181818181817,62.51011021931967L92.45454545454545,63.90089554256863L92.72727272727272,60.89950286017525L93,61.94409370422363L93.27272727272728,62.03950489891899L93.54545454545455,65.40474647945827L93.81818181818183,61.90240022871229L94.0909090909091,69.16182751125758L94.36363636363637,63.82394038306343L94.63636363636363,64.14547337426079L94.9090909090909,63.342376497056755L95.18181818181817,65.62779384189183L95.45454545454545,64.42924552493626L95.72727272727273,66.11750592125786L96,67.7758707470364L96.27272727272728,67.27467197842067L96.54545454545455,64.88112131754556L96.81818181818183,64.12730969323052L97.09090909090908,66.39013089074028L97.36363636363636,70.76731395721436L97.63636363636363,64.35429912143285L97.9090909090909,66.7166716257731L98.18181818181819,70.33812861972386L98.45454545454545,70.52289644877115L98.72727272727273,67.9654105504354L99,65.3313561545478L99.27272727272728,69.88340473175049L99.54545454545455,69.11965306599936L99.81818181818181,68.26554510328505L100.09090909090908,69.26003964742026L100.36363636363636,70.79261673821343L100.63636363636364,71.8917835023668L100.9090909090909,70.33780797322592L101.18181818181819,71.00953409406874L101.45454545454545,70.52666876051161L101.72727272727273,67.68046898312038L102.00000000000001,70.87783326043022L102.27272727272727,72.35302405887181L102.54545454545453,69.43722512986925L102.81818181818181,71.9751893149482L103.0909090909091,72.27059904734293L103.36363636363636,72.98812103271484L103.63636363636364,71.49943478902182L103.9090909090909,72.6351269616021L104.18181818181819,72.78591569264731L104.45454545454547,74.15566094716391L104.72727272727273,71.47129334343803L105,71.31108326382106L105.27272727272727,72.28574487898085L105.54545454545455,74.43959342108833L105.81818181818181,70.69311258527968L106.0909090909091,73.18897777133519L106.36363636363636,72.70471668243408L106.63636363636364,74.10154713524712L106.90909090909092,67.38080596923828L107.18181818181819,74.02785502539741L107.45454545454545,73.95255025227866L107.72727272727272,75.0499817530314L108,77.1651358074612L108.27272727272727,77.5728095372518L108.54545454545455,73.8693896399604L108.81818181818181,76.0719764497545L109.0909090909091,76.58485995398628L109.36363636363637,77.07538308037651L109.63636363636364,76.80260721842447L109.90909090909092,75.87039354112413L110.18181818181817,79.87150541941324L110.45454545454545,73.57740328047011L110.72727272727272,81.68574688169691L111,76.8183094660441L111.27272727272727,77.48903592427573L111.54545454545455,74.15961244371202L111.81818181818183,78.57810232374403L112.0909090909091,80.93509456846449L112.36363636363637,78.9759963353475L112.63636363636363,76.02353053622777L112.9090909090909,78.00618214077419L113.18181818181817,76.74639977349175L113.45454545454545,79.68902926974827L113.72727272727273,77.58952087826198L114,80.34612353642783L114.27272727272728,76.50968721177843L114.54545454545455,77.55243905385336L114.81818181818183,78.34109740787083L115.09090909090908,77.49020534091527L115.36363636363636,76.33962196773952L115.63636363636363,79.20539532767403L115.9090909090909,76.344818327162L116.18181818181819,79.29286580615575L116.45454545454545,76.33632119496664L116.72727272727273,81.01822688844469L117,78.55666616227892L117.27272727272728,78.03642665015327L117.54545454545455,74.5794235865275L117.81818181818181,76.22197299533421L118.09090909090908,78.56521044837105L118.36363636363636,79.73487228817409L118.63636363636364,79.61719502343071L118.9090909090909,81.01732153362697L119.18181818181819,78.05149703555638L119.45454545454545,79.76942194832695L119.72727272727273,80.40224610434639L120,80.43482001622519L120.27272727272727,81.85808494355943L120.54545454545453,80.93921110365126L120.81818181818181,80.23589658737183L121.0909090909091,80.46068392859566L121.36363636363636,79.94711669286093L121.63636363636364,81.71742958492702L121.9090909090909,78.02093187967935L122.18181818181819,77.05454105801051L122.45454545454547,78.69514772627089L122.72727272727273,81.57505310906303L122.99999999999999,78.33283604515923L123.27272727272727,80.44339259465536L123.54545454545455,82.12941789627075L123.81818181818181,83.05346451865303L124.0909090909091,80.98879814147949L124.36363636363636,82.67757723066542L124.63636363636364,79.0175389183892L124.90909090909092,84.21315802468193L125.18181818181819,82.34404357274374L125.45454545454545,84.49416695700752L125.72727272727272,83.59812503390843L126,81.24256626764932L126.27272727272727,83.32089312871298L126.54545454545455,83.16012663311427L126.81818181818181,83.94217401080662L127.0909090909091,82.40907351175943L127.36363636363637,83.29809893502129L127.63636363636364,84.56312953101265L127.90909090909092,81.99501514434814L128.1818181818182,82.72412284215292L128.45454545454544,84.55499076843262L128.72727272727272,83.22935326894125L129,83.14808824327257L129.27272727272728,84.3334240383572L129.54545454545456,82.80260107252333L129.8181818181818,83.89353948169286L130.0909090909091,83.2237089474996L130.36363636363637,86.14827850129869L130.63636363636363,82.38346894582114L130.9090909090909,80.23937182956273L131.1818181818182,83.029425462087L131.45454545454544,81.36373292075264L131.72727272727272,85.38459756639269L132,83.16709597905478L132.27272727272728,84.79077439837987L132.54545454545456,81.94651736153496L132.8181818181818,84.39617172876993L133.0909090909091,83.92994228998819L133.36363636363635,84.61672936545479L133.63636363636363,83.12369553248087L133.9090909090909,86.19259844885933L134.1818181818182,84.60383277469212L134.45454545454547,88.09588532977635L134.72727272727272,85.06977457470363L135,85.07487191094292L135.27272727272728,82.78695540957982L135.54545454545456,86.141544924842L135.8181818181818,89.32779974407619L136.0909090909091,83.1148541768392L136.36363636363635,85.33495865927803L136.63636363636363,88.23703580432469L136.9090909090909,84.96885108947754L137.1818181818182,83.25808413823447L137.45454545454547,84.44676314459907L137.72727272727272,87.53825749291313L138,86.40692705578273L138.27272727272728,87.70528602600098L138.54545454545453,85.77807797325981L138.8181818181818,89.5098892317878L139.0909090909091,88.7198445532057L139.36363636363637,86.58308458328247L139.63636363636363,86.04337051179674L139.9090909090909,84.84712330500284L140.1818181818182,86.63774538040161L140.45454545454547,86.47607352998521L140.72727272727275,89.57772482766045L141,87.82556147045558L141.27272727272728,87.87255504396227L141.54545454545453,86.7339063220554L141.8181818181818,85.93053595225015L142.0909090909091,87.75404787063599L142.36363636363637,88.47035328547159L142.63636363636363,87.51464282141792L142.9090909090909,86.8254508972168L143.1818181818182,85.93517118030125L143.45454545454547,83.63786162270439L143.72727272727272,88.93549346923828L144,89.87741141849095L144.27272727272728,84.71934567557442L144.54545454545453,87.27478981018066L144.8181818181818,88.02426799138388L145.0909090909091,86.2344569630093L145.36363636363637,90.0127289560106L145.63636363636365,88.93410242928398L145.9090909090909,87.65106847551134L146.1818181818182,88.41383934020996L146.45454545454544,88.95884407891167L146.72727272727272,89.04114649030898L147,85.23127195570204L147.27272727272728,89.01973390579224L147.54545454545453,86.69093026055229L147.8181818181818,91.37693362765843L148.0909090909091,91.8681640625L148.36363636363637,92.78099748823378L148.63636363636365,91.29451804690892L148.9090909090909,89.60576253467137L149.1818181818182,91.37781540552777L149.45454545454544,90.44218307071263L149.72727272727272,91.41218588087294L150,91.20736821492511L150.27272727272725,90.119461801317L150.54545454545456,94.89077599843341L150.8181818181818,91.93308083216351L151.0909090909091,89.60229672325981L151.36363636363635,95.1159405708313L151.63636363636365,93.26908747355145L151.9090909090909,94.60904089609784L152.1818181818182,88.37428665161133L152.45454545454547,92.46648571226332L152.72727272727272,97.2593822479248L153,95.4448390007019L153.27272727272725,92.3820236523946L153.54545454545456,94.03629551993477L153.8181818181818,90.93867116504246L154.0909090909091,93.37152931425307L154.36363636363635,95.77388360765245L154.63636363636365,95.23356596628827L154.9090909090909,92.65751086341011L155.18181818181816,95.06950812869603L155.45454545454547,94.72953796386719L155.72727272727272,94.13756322860718L156,95.01423904630873L156.27272727272725,94.06115505430434L156.54545454545456,93.36600287755329L156.8181818181818,95.66338788138496L157.0909090909091,94.87287637922499L157.36363636363637,95.38154432508681L157.63636363636365,99.06118451224434L157.9090909090909,95.20209545559352L158.18181818181816,97.65795056025189L158.45454545454547,95.27162387635973L158.72727272727272,95.81886370976764L159,96.41961378521388L159.27272727272725,93.1956311331855L159.54545454545456,100.12354294459027L159.8181818181818,97.55150063832599L160.0909090909091,99.26249864366319L160.36363636363637,96.91289541456435L160.63636363636363,98.00578127966988L160.9090909090909,100.02623144785565L161.18181818181816,99.105881690979L161.45454545454547,100.7228642569648L161.72727272727272,100.33830536736382L162,101.37330510881212L162.27272727272728,100.44582096735638L162.54545454545456,100.77514378229779L162.8181818181818,101.94184907277423L163.09090909090907,102.13546768824261L163.36363636363637,102.48655202653673L163.63636363636363,100.52623722288344L163.9090909090909,97.33764828575981L164.1818181818182,102.41542508867052L164.45454545454547,99.93505938847858L164.72727272727272,102.07672336366441L165,100.83834415011937L165.27272727272728,103.08307711283368L165.54545454545453,103.79236131244237L165.8181818181818,102.49017816119725L166.09090909090907,104.46317736307782L166.36363636363637,103.99689133961994L166.63636363636363,102.7833292219374L166.9090909090909,100.64720582962036L167.1818181818182,101.42141622967189L167.45454545454547,105.47342130872939L167.72727272727272,104.54318337970311L168.00000000000003,103.97809579637315L168.27272727272728,105.89192157321507L168.54545454545453,104.39565769831341L168.8181818181818,105.79405837588841L169.0909090909091,106.47016037835014L169.36363636363637,103.69235732820299L169.63636363636363,107.06793032752144L169.90909090909093,107.41265360514325L170.1818181818182,103.7473340564304L170.45454545454547,108.08827935324776L170.72727272727272,103.5552903811137L170.99999999999997,108.42568906148273L171.27272727272728,106.78694497214424L171.54545454545453,105.55899148517186L171.8181818181818,108.61685567431981L172.0909090909091,105.55167791578505L172.36363636363637,111.8696682188246L172.63636363636363,107.27656745910645L172.90909090909093,109.86817391713458L173.1818181818182,108.29429001278346L173.45454545454544,110.09474839104546L173.72727272727272,108.47248930401271L174,109.00745497809517L174.27272727272728,109.32020791371662L174.54545454545453,106.8988741768731L174.81818181818184,105.86696301566231L175.0909090909091,110.6650087568495L175.36363636363637,108.51672908994887L175.63636363636363,106.95623217688667L175.9090909090909,111.66997618145412L176.1818181818182,108.4697308010525L176.45454545454544,110.03240622414482L176.72727272727272,110.01640690697563L177,110.72136709425185L177.27272727272728,109.63811948564317L177.54545454545453,110.86167351404828L177.81818181818184,110.12345096800063L178.0909090909091,112.06949700249565L178.36363636363637,112.49440076616075L178.63636363636363,113.4677750799391L178.9090909090909,113.88752020729912L179.1818181818182,111.71779494815404L179.45454545454544,112.74106280008954L179.72727272727275,113.03421857621935L180,111.58539152145386L180.27272727272728,113.517541302575L180.54545454545453,112.10484356350368L180.81818181818184,110.72357389662001L181.0909090909091,113.8311807314555L181.36363636363635,114.73664871851605L181.63636363636363,113.35093715455797L181.9090909090909,112.62667216195L182.1818181818182,114.03792227639092L182.45454545454544,113.23789511786568L182.72727272727275,114.15547222561305L183,114.33993355433148L183.27272727272728,113.83289241790771L183.54545454545453,113.12708346048993L183.8181818181818,113.94554779264662L184.0909090909091,114.95179780324298L184.36363636363635,113.97005367279053L184.63636363636365,112.94305594762164L184.9090909090909,114.5168408287896L185.1818181818182,114.47842926449245L185.45454545454544,116.84475326538086L185.72727272727275,111.37854152255589L186,113.50757768419054L186.27272727272725,116.5305479897393L186.54545454545456,114.54804727766249L186.8181818181818,114.61365720960829L187.0909090909091,117.33878935707939L187.36363636363635,114.41627571317885L187.63636363636365,114.88115183512372L187.9090909090909,116.81795570585463L188.1818181818182,115.394667201572L188.45454545454544,115.60384660296971L188.72727272727275,117.6301957236396L189,116.03479078080919L189.27272727272725,117.36706754896376L189.54545454545456,115.69274584452313L189.8181818181818,115.8914523654514L190.0909090909091,115.00705745485094L190.36363636363635,116.93139383527968L190.63636363636365,118.1353129810757L190.9090909090909,114.54710891511705L191.1818181818182,117.55648946762085L191.45454545454547,115.32979287041557L191.72727272727272,117.32815615336102L192,118.15449990166557L192.27272727272725,117.53686401579115L192.54545454545456,119.21520558993024L192.8181818181818,116.09427070617676L193.0909090909091,118.97923805978563L193.36363636363637,118.436484919654L193.63636363636365,117.31572638617622L193.9090909090909,119.58269712660048L194.18181818181816,117.45586776733398L194.45454545454547,119.57604842715794L194.72727272727272,119.6537627644009L195,119.9852617316776L195.27272727272725,120.04525091913011L195.54545454545456,121.45766101943123L195.8181818181818,121.13990033997429L196.0909090909091,121.9361740483178L196.36363636363637,123.46023042996723L196.63636363636363,123.66144789589775L196.9090909090909,123.37092566490173L197.18181818181816,125.21709503067864L197.45454545454547,125.32726067966884L197.72727272727272,125.95905452304417L198,126.15322248140973L198.27272727272728,127.19873282644484L198.54545454545456,128.78854531712003L198.8181818181818,129.03317501809863L199.0909090909091,128.4494451416863L199.36363636363637,128.58913856082492L199.63636363636363,129.69829487800598L199.9090909090909,129.5451437367333L200.18181818181816,129.96438903278775L200.45454545454547,131.2319848007626L200.72727272727272,131.47678425576953L201,129.95466825697156L201.27272727272728,132.13624329037137L201.54545454545456,130.41546556684705L201.8181818181818,130.66001274850635L202.09090909090907,130.44934564166599L202.36363636363637,128.58803515964084L202.63636363636363,131.08985352516174L202.9090909090909,130.92751208941144L203.1818181818182,129.79836959309048L203.45454545454547,131.3284781773885L203.72727272727272,130.86115476820203L204.00000000000003,131.34769103262158L204.27272727272728,131.49939219156903L204.54545454545453,131.51844472355313L204.8181818181818,129.75259023242526L205.09090909090907,129.31134057044983L205.36363636363637,130.92565422587924L205.63636363636363,132.83518428272671L205.9090909090909,129.91372924380832L206.1818181818182,130.70184297031827L206.45454545454547,131.6700303554535L206.72727272727272,131.60398424996268L206.99999999999997,130.39647669262357L207.27272727272728,132.20296369658578L207.54545454545453,129.5670891602834L207.8181818181818,131.42163305812412L208.0909090909091,131.80568975872464L208.36363636363637,131.5666383637322L208.63636363636363,130.61595450507272L208.90909090909093,130.89525410864087L209.1818181818182,131.84570219781665L209.45454545454547,131.14720916748047L209.72727272727272,130.4578875700633L210,131.83106798595853L210.27272727272728,130.9641978210873L210.54545454545453,130.64738257726032L210.8181818181818,129.33025164074368L211.0909090909091,129.6071086724599L211.36363636363637,132.38363856739468L211.63636363636363,131.2437779903412L211.90909090909093,130.35479736328125L212.1818181818182,130.01886828740436L212.45454545454544,128.59691423839993L212.72727272727272,129.66032184494864L213,130.92843630578784L213.27272727272728,130.06228052245248L213.54545454545453,129.8591886891259L213.81818181818184,130.27770545747546L214.0909090909091,131.67927016152274L214.36363636363637,130.3367091284858L214.63636363636363,130.3068772157033L214.9090909090909,129.38083362579346L215.1818181818182,130.83080416255527L215.45454545454544,131.61086164580453L215.72727272727275,131.19816366831463L216,129.89648977915448L216.27272727272728,130.8690011766222L216.54545454545453,130.4758225546943L216.81818181818184,131.29286519686383L217.0909090909091,132.1875278684828L217.36363636363635,130.2070123354594L217.63636363636363,130.52064940664502L217.9090909090909,129.9751448366377L218.1818181818182,129.1623578336504L218.45454545454544,131.2936125861274L218.72727272727275,130.1492582427131L219,130.71580759684247L219.27272727272728,130.16855833265515L219.54545454545453,130.31982803344727L219.81818181818184,129.81513751877677L220.0909090909091,130.53153252601624L220.36363636363635,131.04086769951712L220.63636363636365,130.1603677007887L220.9090909090909,128.71115634176465L221.1818181818182,128.6988350285424L221.45454545454544,130.54462480545044L221.72727272727275,129.9997450245751L222,130.53027823236255L222.27272727272728,131.2123640643226L222.54545454545453,128.55743463834125L222.8181818181818,130.14319660928516L223.0909090909091,129.43535296122235L223.36363636363635,130.0663640499115L223.63636363636365,130.75533435079785L223.9090909090909,131.5502005153232L224.1818181818182,130.97945917977225L224.45454545454544,129.61662197113037L224.72727272727275,131.89010466469657L225,131.27772408061557L225.27272727272725,130.87320966190762L225.54545454545456,130.59337957700092L225.8181818181818,131.25081099404227L226.0909090909091,130.52423074510364L226.36363636363635,130.51611791716684L226.63636363636365,129.0744959778256L226.9090909090909,131.79921081331042L227.1818181818182,131.31132123205396L227.45454545454547,130.02754460440744L227.72727272727272,131.03112098905774L228,130.34961279233295L228.27272727272725,129.99088009198505L228.54545454545456,130.52449009153577L228.8181818181818,130.58871369891696L229.0909090909091,130.2233440876007L229.36363636363635,130.10275978512234L229.63636363636365,129.1988690959083L229.9090909090909,130.17747041914197L230.18181818181816,131.05035270584952L230.45454545454547,130.42679193284778L230.72727272727272,128.89735057618884L231,129.89207145902844L231.27272727272725,131.24797232945758L231.54545454545456,129.83632612228394L231.8181818181818,129.00439699490863L232.0909090909091,130.71321649021573L232.36363636363637,129.95615832010907L232.63636363636365,130.8199234008789L232.9090909090909,129.06812077098422L233.18181818181816,128.75419606102835L233.45454545454547,128.19171137279935L233.72727272727272,128.41735219955444L234,129.0174161858029L234.27272727272725,130.05785984463162L234.54545454545456,130.27148350079852L234.8181818181818,130.5343075328403L235.0909090909091,128.76474203003775L235.36363636363637,129.61813796891104L235.63636363636363,127.87111202875775L235.9090909090909,128.74632843335468L236.18181818181816,127.90016825993854L236.45454545454547,127.91589172681171L236.72727272727272,128.57183543841046L237,129.67076643308002L237.27272727272728,128.84336643748813L237.54545454545456,129.1791894170973L237.8181818181818,128.60580039024353L238.09090909090907,129.7289496262868L238.36363636363637,126.66939261224535L238.63636363636363,127.90324976709154L238.9090909090909,127.22311846415204L239.1818181818182,128.56540128919812L239.45454545454547,127.94956196679009L239.72727272727272,129.2178226047092L240,128.2645334932539L240.27272727272728,127.54737930827672L240.54545454545453,127.15141153335571L240.8181818181818,126.63231314553154L241.09090909090907,127.47427190674675L241.36363636363637,128.41464792357553L241.63636363636363,127.16038020451862L241.9090909090909,126.83718739615547L242.1818181818182,127.75164291593764L242.45454545454547,128.2059919304318L242.72727272727272,127.71639773580763L243.00000000000003,127.6671549214257L243.27272727272728,125.4445418516795L243.54545454545453,127.36519079738194L243.8181818181818,126.72893855306837L244.0909090909091,127.8405704498291L244.36363636363637,126.96851571400958L244.63636363636363,126.8446518580119L244.90909090909093,126.780409389072L245.1818181818182,128.81911754608154L245.45454545454547,127.92520697911579L245.72727272727272,125.41848225063747L245.99999999999997,126.9980953534444L246.27272727272728,125.09906175401476L246.54545454545453,126.171574778027L246.8181818181818,124.57128469149274L247.0909090909091,126.42697678671944L247.36363636363637,125.46860212749904L247.63636363636363,126.4473991394043L247.90909090909093,123.91944572660658L248.1818181818182,125.02466705110338L248.45454545454544,124.95443603727553L248.72727272727272,124.55230996343825L249,124.94437339570787L249.27272727272728,125.3191266324785L249.54545454545453,124.40009246932136L249.81818181818184,126.80577582783168L250.0909090909091,125.08775189187791L250.36363636363637,125.21795794698927L250.63636363636363,126.08299854066637L250.9090909090909,125.29430717892116L251.1818181818182,125.73668146133423L251.45454545454544,125.76491721471149L251.72727272727272,124.41780111524794L252,126.27069698439705L252.27272727272728,127.71254290474785L252.54545454545453,125.92189961009556L252.81818181818184,125.78891854816014L253.0909090909091,127.87264688809711L253.36363636363637,126.60881871647304L253.63636363636363,128.317843331231L253.9090909090909,126.80612240897285L254.1818181818182,126.63604537645978L254.45454545454544,127.77977257304723L254.72727272727275,127.2315542962816L255,127.20093491342332L255.27272727272728,126.15367280112373L255.54545454545453,124.66212903128731L255.81818181818184,125.16863732867772L256.09090909090907,125.01214533381993L256.3636363636364,125.23782388369244L256.6363636363636,125.5165623558892L256.9090909090909,126.11574927965802L257.1818181818182,126.55855030483669L257.45454545454544,126.68007768525017L257.72727272727275,126.1459324889713L258,125.55162835121155L258.2727272727273,126.06996991899278L258.54545454545456,125.56847172313267L258.8181818181818,128.9369669225481L259.0909090909091,126.520916779836L259.3636363636364,125.66031336784363L259.6363636363636,126.04968902799818L259.9090909090909,125.22291146384346L260.1818181818182,126.98090775807697L260.45454545454544,126.55201949013603L260.72727272727275,124.26864626672533L261,127.05344931284588L261.27272727272725,124.90881699985927L261.54545454545456,127.03508994314406L261.8181818181818,125.62426657146877L262.0909090909091,126.84203481674194L262.3636363636364,122.89485756556195L262.6363636363636,126.27187818951076L262.9090909090909,125.80068108770583L263.1818181818182,125.08798058827716L263.45454545454544,125.30937284893459L263.72727272727275,124.96397291289436L264,127.06912326812744L264.27272727272725,125.61509985393947L264.54545454545456,125.80144969622296L264.8181818181818,124.39650405777824L265.0909090909091,124.90939463509453L265.3636363636364,125.40788912773132L265.6363636363636,124.54442818959552L265.9090909090909,124.89035389158461L266.1818181818182,122.21233791775173L266.45454545454544,124.38957479265001L266.7272727272727,124.52114595307243L267,123.68396388159859L267.27272727272725,124.13914752006531L267.54545454545456,123.72716392411125L267.8181818181818,123.86020392841762L268.0909090909091,123.35597552193535L268.3636363636364,123.05571836895412L268.6363636363636,124.04013376765782L268.90909090909093,124.69645471043056L269.1818181818182,122.49772744708592L269.45454545454544,122.9165342119005L269.7272727272727,123.46671173307631L270,123.01879451009962L270.27272727272725,124.03135135438707L270.54545454545456,122.32200845082599L270.8181818181818,123.43996604283649L271.0909090909091,122.82316949632433L271.3636363636364,122.49735964669121L271.6363636363636,120.98770642280579L271.90909090909093,122.1108061472575L272.1818181818182,120.99782093365985L272.45454545454544,122.07702509562176L272.7272727272727,121.71459317207336L273,122.72961144977147L273.27272727272725,120.33014061715868L273.54545454545456,120.80185876952278L273.8181818181818,122.650407049391L274.0909090909091,121.2451973491245L274.3636363636364,120.52150527636212L274.6363636363636,121.27553145090741L274.90909090909093,121.80067732599046L275.1818181818182,121.76208421919081L275.45454545454544,118.73976463741725L275.72727272727275,118.84473156929016L276,119.68074186642963L276.27272727272725,120.31150303946602L276.54545454545456,119.64507230122882" style="fill: none;" fill="none"></path></g></g></g></g></g></g><g transform="translate(30, 178)" clip-path="url(#clip_1)"><clipPath id="clip_1"><rect width="300" height="22"></rect></clipPath><g><g><line x1="0" y1="0" x2="0" y2="5" style="visibility: inherit;" fill="rgb(0, 0, 0)" stroke="rgb(204, 204, 204)" stroke-width="1px"></line><line x1="27.272727272727273" y1="0" x2="27.272727272727273" y2="5" style="visibility: inherit;" fill="rgb(0, 0, 0)" stroke="rgb(204, 204, 204)" stroke-width="1px"></line><line x1="54.54545454545455" y1="0" x2="54.54545454545455" y2="5" style="visibility: inherit;" fill="rgb(0, 0, 0)" stroke="rgb(204, 204, 204)" stroke-width="1px"></line><line x1="81.81818181818181" y1="0" x2="81.81818181818181" y2="5" style="visibility: inherit;" fill="rgb(0, 0, 0)" stroke="rgb(204, 204, 204)" stroke-width="1px"></line><line x1="109.0909090909091" y1="0" x2="109.0909090909091" y2="5" style="visibility: inherit;" fill="rgb(0, 0, 0)" stroke="rgb(204, 204, 204)" stroke-width="1px"></line><line x1="136.36363636363635" y1="0" x2="136.36363636363635" y2="5" style="visibility: inherit;" fill="rgb(0, 0, 0)" stroke="rgb(204, 204, 204)" stroke-width="1px"></line><line x1="163.63636363636363" y1="0" x2="163.63636363636363" y2="5" style="visibility: inherit;" fill="rgb(0, 0, 0)" stroke="rgb(204, 204, 204)" stroke-width="1px"></line><line x1="190.9090909090909" y1="0" x2="190.9090909090909" y2="5" style="visibility: inherit;" fill="rgb(0, 0, 0)" stroke="rgb(204, 204, 204)" stroke-width="1px"></line><line x1="218.1818181818182" y1="0" x2="218.1818181818182" y2="5" style="visibility: inherit;" fill="rgb(0, 0, 0)" stroke="rgb(204, 204, 204)" stroke-width="1px"></line><line x1="245.45454545454547" y1="0" x2="245.45454545454547" y2="5" style="visibility: inherit;" fill="rgb(0, 0, 0)" stroke="rgb(204, 204, 204)" stroke-width="1px"></line><line x1="272.7272727272727" y1="0" x2="272.7272727272727" y2="5" style="visibility: inherit;" fill="rgb(0, 0, 0)" stroke="rgb(204, 204, 204)" stroke-width="1px"></line><line x1="300" y1="0" x2="300" y2="5" style="visibility: inherit;" fill="rgb(0, 0, 0)" stroke="rgb(204, 204, 204)" stroke-width="1px"></line></g><g transform="translate(0, 8)"><text x="0" y="0" dx="0em" dy="0.95em" style="text-anchor: middle; visibility: hidden; font-family: Roboto, sans-serif; font-size: 12px; font-weight: 200;" fill="rgb(50, 49, 63)" stroke="none" stroke-width="1px">-100</text><text x="27.272727272727273" y="0" dx="0em" dy="0.95em" style="text-anchor: middle; visibility: inherit; font-family: Roboto, sans-serif; font-size: 12px; font-weight: 200;" fill="rgb(50, 49, 63)" stroke="none" stroke-width="1px">0</text><text x="54.54545454545455" y="0" dx="0em" dy="0.95em" style="text-anchor: middle; visibility: inherit; font-family: Roboto, sans-serif; font-size: 12px; font-weight: 200;" fill="rgb(50, 49, 63)" stroke="none" stroke-width="1px">100</text><text x="81.81818181818181" y="0" dx="0em" dy="0.95em" style="text-anchor: middle; visibility: inherit; font-family: Roboto, sans-serif; font-size: 12px; font-weight: 200;" fill="rgb(50, 49, 63)" stroke="none" stroke-width="1px">200</text><text x="109.0909090909091" y="0" dx="0em" dy="0.95em" style="text-anchor: middle; visibility: inherit; font-family: Roboto, sans-serif; font-size: 12px; font-weight: 200;" fill="rgb(50, 49, 63)" stroke="none" stroke-width="1px">300</text><text x="136.36363636363635" y="0" dx="0em" dy="0.95em" style="text-anchor: middle; visibility: inherit; font-family: Roboto, sans-serif; font-size: 12px; font-weight: 200;" fill="rgb(50, 49, 63)" stroke="none" stroke-width="1px">400</text><text x="163.63636363636363" y="0" dx="0em" dy="0.95em" style="text-anchor: middle; visibility: inherit; font-family: Roboto, sans-serif; font-size: 12px; font-weight: 200;" fill="rgb(50, 49, 63)" stroke="none" stroke-width="1px">500</text><text x="190.9090909090909" y="0" dx="0em" dy="0.95em" style="text-anchor: middle; visibility: inherit; font-family: Roboto, sans-serif; font-size: 12px; font-weight: 200;" fill="rgb(50, 49, 63)" stroke="none" stroke-width="1px">600</text><text x="218.1818181818182" y="0" dx="0em" dy="0.95em" style="text-anchor: middle; visibility: inherit; font-family: Roboto, sans-serif; font-size: 12px; font-weight: 200;" fill="rgb(50, 49, 63)" stroke="none" stroke-width="1px">700</text><text x="245.45454545454547" y="0" dx="0em" dy="0.95em" style="text-anchor: middle; visibility: inherit; font-family: Roboto, sans-serif; font-size: 12px; font-weight: 200;" fill="rgb(50, 49, 63)" stroke="none" stroke-width="1px">800</text><text x="272.7272727272727" y="0" dx="0em" dy="0.95em" style="text-anchor: middle; visibility: inherit; font-family: Roboto, sans-serif; font-size: 12px; font-weight: 200;" fill="rgb(50, 49, 63)" stroke="none" stroke-width="1px">900</text><text x="300" y="0" dx="0em" dy="0.95em" style="text-anchor: middle; visibility: hidden; font-family: Roboto, sans-serif; font-size: 12px; font-weight: 200;" fill="rgb(50, 49, 63)" stroke="none" stroke-width="1px">1k</text></g><line x1="0" y1="0" x2="300" y2="0" fill="rgb(0, 0, 0)" stroke="rgb(204, 204, 204)" stroke-width="1px"></line></g></g></g></g></svg>