<svg viewBox="0 0 330 200" xmlns="http://www.w3.org/2000/svg"><g><g><g><g><g><line x1="80" y1="178" x2="75" y2="178" style="visibility: inherit;" fill="rgb(0, 0, 0)" stroke="rgb(204, 204, 204)" stroke-width="1px"></line><line x1="80" y1="166.13333333333333" x2="75" y2="166.13333333333333" style="visibility: inherit;" fill="rgb(0, 0, 0)" stroke="rgb(204, 204, 204)" stroke-width="1px"></line><line x1="80" y1="154.26666666666668" x2="75" y2="154.26666666666668" style="visibility: inherit;" fill="rgb(0, 0, 0)" stroke="rgb(204, 204, 204)" stroke-width="1px"></line><line x1="80" y1="142.4" x2="75" y2="142.4" style="visibility: inherit;" fill="rgb(0, 0, 0)" stroke="rgb(204, 204, 204)" stroke-width="1px"></line><line x1="80" y1="130.53333333333333" x2="75" y2="130.53333333333333" style="visibility: inherit;" fill="rgb(0, 0, 0)" stroke="rgb(204, 204, 204)" stroke-width="1px"></line><line x1="80" y1="118.66666666666669" x2="75" y2="118.66666666666669" style="visibility: inherit;" fill="rgb(0, 0, 0)" stroke="rgb(204, 204, 204)" stroke-width="1px"></line><line x1="80" y1="106.8" x2="75" y2="106.8" style="visibility: inherit;" fill="rgb(0, 0, 0)" stroke="rgb(204, 204, 204)" stroke-width="1px"></line><line x1="80" y1="94.93333333333334" x2="75" y2="94.93333333333334" style="visibility: inherit;" fill="rgb(0, 0, 0)" stroke="rgb(204, 204, 204)" stroke-width="1px"></line><line x1="80" y1="83.06666666666666" x2="75" y2="83.06666666666666" style="visibility: inherit;" fill="rgb(0, 0, 0)" stroke="rgb(204, 204, 204)" stroke-width="1px"></line><line x1="80" y1="71.2" x2="75" y2="71.2" style="visibility: inherit;" fill="rgb(0, 0, 0)" stroke="rgb(204, 204, 204)" stroke-width="1px"></line><line x1="80" y1="59.33333333333334" x2="75" y2="59.33333333333334" style="visibility: inherit;" fill="rgb(0, 0, 0)" stroke="rgb(204, 204, 204)" stroke-width="1px"></line><line x1="80" y1="47.466666666666676" x2="75" y2="47.466666666666676" style="visibility: inherit;" fill="rgb(0, 0, 0)" stroke="rgb(204, 204, 204)" stroke-width="1px"></line><line x1="80" y1="35.599999999999994" x2="75" y2="35.599999999999994" style="visibility: inherit;" fill="rgb(0, 0, 0)" stroke="rgb(204, 204, 204)" stroke-width="1px"></line><line x1="80" y1="23.733333333333327" x2="75" y2="23.733333333333327" style="visibility: inherit;" fill="rgb(0, 0, 0)" stroke="rgb(204, 204, 204)" stroke-width="1px"></line><line x1="80" y1="11.866666666666664" x2="75" y2="11.866666666666664" style="visibility: inherit;" fill="rgb(0, 0, 0)" stroke="rgb(204, 204, 204)" stroke-width="1px"></line><line x1="80" y1="0" x2="75" y2="0" style="visibility: inherit;" fill="rgb(0, 0, 0)" stroke="rgb(204, 204, 204)" stroke-width="1px"></line></g><g transform="translate(70, 0)"><text x="0" y="178" dx="0em" dy="0.3em" style="text-anchor: end; visibility: hidden; font-family: Roboto, sans-serif; font-size: 12px; font-weight: 200;" fill="rgb(50, 49, 63)" stroke="none" stroke-width="1px">-2.4e+3</text><text x="0" y="166.13333333333333" dx="0em" dy="0.3em" style="text-anchor: end; visibility: inherit; font-family: Roboto, sans-serif; font-size: 12px; font-weight: 200;" fill="rgb(50, 49, 63)" stroke="none" stroke-width="1px">-2.2e+3</text><text x="0" y="154.26666666666668" dx="0em" dy="0.3em" style="text-anchor: end; visibility: hidden; font-family: Roboto, sans-serif; font-size: 12px; font-weight: 200;" fill="rgb(50, 49, 63)" stroke="none" stroke-width="1px">-2e+3</text><text x="0" y="142.4" dx="0em" dy="0.3em" style="text-anchor: end; visibility: inherit; font-family: Roboto, sans-serif; font-size: 12px; font-weight: 200;" fill="rgb(50, 49, 63)" stroke="none" stroke-width="1px">-1.8e+3</text><text x="0" y="130.53333333333333" dx="0em" dy="0.3em" style="text-anchor: end; visibility: hidden; font-family: Roboto, sans-serif; font-size: 12px; font-weight: 200;" fill="rgb(50, 49, 63)" stroke="none" stroke-width="1px">-1.6e+3</text><text x="0" y="118.66666666666669" dx="0em" dy="0.3em" style="text-anchor: end; visibility: inherit; font-family: Roboto, sans-serif; font-size: 12px; font-weight: 200;" fill="rgb(50, 49, 63)" stroke="none" stroke-width="1px">-1.4e+3</text><text x="0" y="106.8" dx="0em" dy="0.3em" style="text-anchor: end; visibility: hidden; font-family: Roboto, sans-serif; font-size: 12px; font-weight: 200;" fill="rgb(50, 49, 63)" stroke="none" stroke-width="1px">-1.2e+3</text><text x="0" y="94.93333333333334" dx="0em" dy="0.3em" style="text-anchor: end; visibility: inherit; font-family: Roboto, sans-serif; font-size: 12px; font-weight: 200;" fill="rgb(50, 49, 63)" stroke="none" stroke-width="1px">-1e+3</text><text x="0" y="83.06666666666666" dx="0em" dy="0.3em" style="text-anchor: end; visibility: hidden; font-family: Roboto, sans-serif; font-size: 12px; font-weight: 200;" fill="rgb(50, 49, 63)" stroke="none" stroke-width="1px">-800</text><text x="0" y="71.2" dx="0em" dy="0.3em" style="text-anchor: end; visibility: inherit; font-family: Roboto, sans-serif; font-size: 12px; font-weight: 200;" fill="rgb(50, 49, 63)" stroke="none" stroke-width="1px">-600</text><text x="0" y="59.33333333333334" dx="0em" dy="0.3em" style="text-anchor: end; visibility: hidden; font-family: Roboto, sans-serif; font-size: 12px; font-weight: 200;" fill="rgb(50, 49, 63)" stroke="none" stroke-width="1px">-400</text><text x="0" y="47.466666666666676" dx="0em" dy="0.3em" style="text-anchor: end; visibility: inherit; font-family: Roboto, sans-serif; font-size: 12px; font-weight: 200;" fill="rgb(50, 49, 63)" stroke="none" stroke-width="1px">-200</text><text x="0" y="35.599999999999994" dx="0em" dy="0.3em" style="text-anchor: end; visibility: hidden; font-family: Roboto, sans-serif; font-size: 12px; font-weight: 200;" fill="rgb(50, 49, 63)" stroke="none" stroke-width="1px">0</text><text x="0" y="23.733333333333327" dx="0em" dy="0.3em" style="text-anchor: end; visibility: inherit; font-family: Roboto, sans-serif; font-size: 12px; font-weight: 200;" fill="rgb(50, 49, 63)" stroke="none" stroke-width="1px">200</text><text x="0" y="11.866666666666664" dx="0em" dy="0.3em" style="text-anchor: end; visibility: hidden; font-family: Roboto, sans-serif; font-size: 12px; font-weight: 200;" fill="rgb(50, 49, 63)" stroke="none" stroke-width="1px">400</text><text x="0" y="0" dx="0em" dy="0.3em" style="text-anchor: end; visibility: hidden; font-family: Roboto, sans-serif; font-size: 12px; font-weight: 200;" fill="rgb(50, 49, 63)" stroke="none" stroke-width="1px">600</text></g><line x1="80" y1="0" x2="80" y2="178" fill="rgb(0, 0, 0)" stroke="rgb(204, 204, 204)" stroke-width="1px"></line></g></g><g transform="translate(80, 0)" clip-path="url(#clip_0)"><clipPath id="clip_0"><rect width="250" height="178"></rect></clipPath><g><g><g><line x1="0" y1="0" x2="0" y2="178" fill="rgb(0, 0, 0)" stroke="rgb(60, 60, 60)" stroke-width="1px" opacity="0.25"></line><line x1="22.727272727272727" y1="0" x2="22.727272727272727" y2="178" fill="rgb(0, 0, 0)" stroke="rgb(60, 60, 60)" stroke-width="1px" opacity="0.25"></line><line x1="45.45454545454545" y1="0" x2="45.45454545454545" y2="178" fill="rgb(0, 0, 0)" stroke="rgb(60, 60, 60)" stroke-width="1px" opacity="0.25"></line><line x1="68.18181818181817" y1="0" x2="68.18181818181817" y2="178" fill="rgb(0, 0, 0)" stroke="rgb(60, 60, 60)" stroke-width="1px" opacity="0.25"></line><line x1="90.9090909090909" y1="0" x2="90.9090909090909" y2="178" fill="rgb(0, 0, 0)" stroke="rgb(60, 60, 60)" stroke-width="1px" opacity="0.25"></line><line x1="113.63636363636363" y1="0" x2="113.63636363636363" y2="178" fill="rgb(0, 0, 0)" stroke="rgb(60, 60, 60)" stroke-width="1px" opacity="0.25"></line><line x1="136.36363636363635" y1="0" x2="136.36363636363635" y2="178" fill="rgb(0, 0, 0)" stroke="rgb(60, 60, 60)" stroke-width="1px" opacity="0.25"></line><line x1="159.0909090909091" y1="0" x2="159.0909090909091" y2="178" fill="rgb(0, 0, 0)" stroke="rgb(60, 60, 60)" stroke-width="1px" opacity="0.25"></line><line x1="181.8181818181818" y1="0" x2="181.8181818181818" y2="178" fill="rgb(0, 0, 0)" stroke="rgb(60, 60, 60)" stroke-width="1px" opacity="0.25"></line><line x1="204.54545454545456" y1="0" x2="204.54545454545456" y2="178" fill="rgb(0, 0, 0)" stroke="rgb(60, 60, 60)" stroke-width="1px" opacity="0.25"></line><line x1="227.27272727272725" y1="0" x2="227.27272727272725" y2="178" fill="rgb(0, 0, 0)" stroke="rgb(60, 60, 60)" stroke-width="1px" opacity="0.25"></line><line x1="250" y1="0" x2="250" y2="178" fill="rgb(0, 0, 0)" stroke="rgb(60, 60, 60)" stroke-width="1px" opacity="0.25"></line></g><g><line x1="0" y1="178" x2="250" y2="178" fill="rgb(0, 0, 0)" stroke="rgb(60, 60, 60)" stroke-width="1px" opacity="0.25"></line><line x1="0" y1="166.13333333333333" x2="250" y2="166.13333333333333" fill="rgb(0, 0, 0)" stroke="rgb(60, 60, 60)" stroke-width="1px" opacity="0.25"></line><line x1="0" y1="154.26666666666668" x2="250" y2="154.26666666666668" fill="rgb(0, 0, 0)" stroke="rgb(60, 60, 60)" stroke-width="1px" opacity="0.25"></line><line x1="0" y1="142.4" x2="250" y2="142.4" fill="rgb(0, 0, 0)" stroke="rgb(60, 60, 60)" stroke-width="1px" opacity="0.25"></line><line x1="0" y1="130.53333333333333" x2="250" y2="130.53333333333333" fill="rgb(0, 0, 0)" stroke="rgb(60, 60, 60)" stroke-width="1px" opacity="0.25"></line><line x1="0" y1="118.66666666666669" x2="250" y2="118.66666666666669" fill="rgb(0, 0, 0)" stroke="rgb(60, 60, 60)" stroke-width="1px" opacity="0.25"></line><line x1="0" y1="106.8" x2="250" y2="106.8" fill="rgb(0, 0, 0)" stroke="rgb(60, 60, 60)" stroke-width="1px" opacity="0.25"></line><line x1="0" y1="94.93333333333334" x2="250" y2="94.93333333333334" fill="rgb(0, 0, 0)" stroke="rgb(60, 60, 60)" stroke-width="1px" opacity="0.25"></line><line x1="0" y1="83.06666666666666" x2="250" y2="83.06666666666666" fill="rgb(0, 0, 0)" stroke="rgb(60, 60, 60)" stroke-width="1px" opacity="0.25"></line><line x1="0" y1="71.2" x2="250" y2="71.2" fill="rgb(0, 0, 0)" stroke="rgb(60, 60, 60)" stroke-width="1px" opacity="0.25"></line><line x1="0" y1="59.33333333333334" x2="250" y2="59.33333333333334" fill="rgb(0, 0, 0)" stroke="rgb(60, 60, 60)" stroke-width="1px" opacity="0.25"></line><line x1="0" y1="47.466666666666676" x2="250" y2="47.466666666666676" fill="rgb(0, 0, 0)" stroke="rgb(60, 60, 60)" stroke-width="1px" opacity="0.25"></line><line x1="0" y1="35.599999999999994" x2="250" y2="35.599999999999994" fill="rgb(0, 0, 0)" stroke="rgb(60, 60, 60)" stroke-width="1px" opacity="0.25"></line><line x1="0" y1="23.733333333333327" x2="250" y2="23.733333333333327" fill="rgb(0, 0, 0)" stroke="rgb(60, 60, 60)" stroke-width="1px" opacity="0.25"></line><line x1="0" y1="11.866666666666664" x2="250" y2="11.866666666666664" fill="rgb(0, 0, 0)" stroke="rgb(60, 60, 60)" stroke-width="1px" opacity="0.25"></line><line x1="0" y1="0" x2="250" y2="0" fill="rgb(0, 0, 0)" stroke="rgb(60, 60, 60)" stroke-width="1px" opacity="0.25"></line></g></g></g><g><g><line x1="0" y1="35.599999999999994" x2="250" y2="35.599999999999994" fill="rgb(0, 0, 0)" stroke="rgb(153, 153, 153)" stroke-width="1.5px"></line></g></g><g><g><line x1="22.727272727272727" y1="0" x2="22.727272727272727" y2="178" fill="rgb(0, 0, 0)" stroke="rgb(153, 153, 153)" stroke-width="1.5px"></line></g></g><g><g><g><g><g><path stroke="rgb(0, 119, 187)" stroke-width="2px" d="M22.727272727272727,145.5148986002604L22.954545454545453,97.32140855916342L23.181818181818183,104.5242770713754L23.40909090909091,92.03634588892318L23.636363636363637,94.69255881733378L23.863636363636363,92.51023985204208L24.09090909090909,85.17465560017253L24.31818181818182,76.93629975951958L24.545454545454543,75.02470879878415L24.772727272727273,100.13665717909844L25,145.2624610882461L25.227272727272727,114.20566820121068L25.454545454545457,107.07358217791219L25.68181818181818,94.42006826824428L25.90909090909091,91.99583587262396L26.136363636363633,105.26104945018172L26.363636363636363,118.06999867622922L26.590909090909093,100.3005996570202L26.818181818181817,86.07558135777312L27.045454545454547,117.41245352473544L27.27272727272727,91.21700086004387L27.5,76.32216279282514L27.72727272727273,67.18668237412074L27.954545454545453,66.71132652426867L28.181818181818183,63.00558659160096L28.409090909090907,65.88582498335538L28.636363636363637,108.65170262766463L28.863636363636363,92.62291215658826L29.09090909090909,80.16139201883071L29.31818181818182,110.62672674456647L29.545454545454543,89.89621930769735L29.772727272727273,86.77361789209071L30,79.93773478057237L30.227272727272727,77.08349583213902L30.454545454545453,68.47090364191696L30.68181818181818,66.6253864450861L30.90909090909091,67.9994139719092L31.136363636363637,65.41181687125862L31.363636363636363,64.07038156670667L31.590909090909093,80.36880786806091L31.818181818181817,69.91693668185468L32.04545454545455,70.11940512444461L32.27272727272727,65.31104741084351L32.5,80.81322636585841L32.72727272727273,71.26371374820991L32.95454545454545,65.74077473295648L33.18181818181818,72.86850609980624L33.40909090909091,67.3553897274683L33.63636363636364,81.57550786011006L33.86363636363637,73.37182043051793L34.090909090909086,65.4107193416055L34.31818181818182,61.39202029310263L34.54545454545455,64.75131373836746L34.77272727272727,65.95980147544361L35,64.2701274021922L35.22727272727273,70.78057474860945L35.45454545454545,66.7854784917429L35.68181818181818,65.54356150097006L35.909090909090914,66.6263132677696L36.13636363636363,61.292979887744835L36.36363636363636,64.56088972301158L36.59090909090909,61.226091442856365L36.81818181818182,60.21342608967215L37.04545454545455,58.36835459586058L37.27272727272727,72.82119444696953L37.5,67.91151139474421L37.72727272727273,66.63553798919025L37.95454545454545,78.86763910210792L38.18181818181819,78.46025517350434L38.40909090909091,69.6690182164073L38.63636363636363,65.21558278856834L38.86363636363637,62.240043699833706L39.09090909090909,68.6220303540148L39.31818181818182,65.10930539502607L39.54545454545455,69.1531370456094L39.77272727272727,66.95788795653229L40,64.5142540304298L40.22727272727273,64.3834655123334L40.45454545454545,60.2802151065537L40.68181818181818,58.10975000305981L40.90909090909091,65.80009598165361L41.13636363636364,65.65198802519006L41.36363636363637,63.47374033301768L41.590909090909086,64.55381039447207L41.81818181818182,67.16815272431346L42.04545454545455,64.51173517299954L42.27272727272727,67.97061628283618L42.5,63.649972406420446L42.72727272727273,63.4804756394903L42.95454545454545,61.756657698147286L43.18181818181818,62.87902930313317L43.409090909090914,63.262271561372074L43.63636363636364,59.10738001039097L43.86363636363636,61.97743819503666L44.09090909090909,65.61267035517304L44.31818181818182,63.086037027556955L44.54545454545455,61.74954833144302L44.772727272727266,59.14352342432154L45,58.98673643415021L45.22727272727273,59.894668943823454L45.45454545454545,63.572334195070134L45.68181818181819,60.44593065213323L45.90909090909091,66.76199314062889L46.13636363636363,71.16718065000234L46.36363636363637,68.13063951793109L46.59090909090909,64.58619110821958L46.81818181818182,61.29158827333019L47.04545454545454,57.881760711393945L47.27272727272727,58.48241765730513L47.5,56.80406359080234L47.72727272727273,59.47479652850485L47.95454545454545,64.66747152061853L48.18181818181818,64.14520296445446L48.40909090909091,61.79114020315185L48.63636363636364,60.26026765053693L48.86363636363637,59.285379625152885L49.090909090909086,55.30829053957741L49.31818181818181,55.71279295167614L49.54545454545455,57.737840354339006L49.77272727272727,56.108091859087786L50,56.02841992665058L50.22727272727273,60.1529495145841L50.45454545454545,59.45187595061243L50.68181818181818,58.704115528049755L50.909090909090914,58.98271051962932L51.13636363636364,61.327786166920845L51.36363636363636,60.39865688081657L51.59090909090909,62.55129956468787L51.81818181818182,63.123337412966364L52.04545454545455,58.23065347317045L52.272727272727266,62.10023602921476L52.5,57.73044291961219L52.72727272727273,61.354152193824596L52.95454545454545,57.26798535926351L53.18181818181819,59.62979753066228L53.40909090909091,60.09648100863173L53.63636363636363,60.31231809736654L53.86363636363637,60.27914185125848L54.09090909090909,57.50222208992175L54.31818181818182,58.233194118210875L54.54545454545454,57.026957673726L54.77272727272727,59.46672109674862L55,54.911572815112976L55.22727272727273,56.03510741790894L55.45454545454546,56.05299513922192L55.68181818181818,58.9186193328821L55.90909090909091,60.41821281066676L56.13636363636364,57.15406101973339L56.36363636363637,57.45154611704837L56.590909090909086,60.204543246400895L56.81818181818181,55.12778000871293L57.04545454545455,54.81090764552725L57.27272727272727,58.430983015050714L57.5,61.42758774197315L57.72727272727273,62.556285498373995L57.95454545454545,57.563403094271784L58.18181818181818,59.48623822700579L58.409090909090914,56.97910016276597L58.63636363636364,56.39850593913094L58.86363636363636,55.80379439192908L59.090909090909086,58.16238875267047L59.31818181818182,59.4233076738028L59.54545454545455,58.17154447570095L59.77272727272727,57.48565616947006L60,56.47751246795809L60.22727272727273,61.58644218129568L60.45454545454545,52.79553677484185L60.68181818181819,51.52970240751579L60.90909090909091,57.156362093923526L61.13636363636363,58.59226002979164L61.36363636363636,55.13690767803123L61.59090909090909,57.14117535226145L61.81818181818182,61.15291579078396L62.04545454545454,58.4132134718662L62.27272727272727,51.584748251169856L62.5,52.22646481170451L62.72727272727273,53.66834077667115L62.95454545454546,56.6665243146355L63.18181818181819,61.31119133031775L63.409090909090914,50.54134212973361L63.63636363636363,53.32080533480632L63.86363636363636,64.52053897887859L64.0909090909091,64.9359336493714L64.31818181818181,54.816233708503056L64.54545454545455,53.942231753422156L64.77272727272728,65.57572961194913L65,64.78715753442208L65.22727272727273,58.73315731362201L65.45454545454545,58.47632047052998L65.68181818181819,58.053891476653924L65.9090909090909,56.211616046474106L66.13636363636363,54.05937307840531L66.36363636363636,53.97334499775934L66.5909090909091,46.687510305743814L66.81818181818181,48.16813801938378L67.04545454545455,51.31055118728131L67.27272727272728,54.65577146757713L67.5,56.531063694348376L67.72727272727273,48.56903926743095L67.95454545454545,54.56132210375283L68.18181818181817,56.62474381563713L68.4090909090909,59.16763766308018L68.63636363636364,67.18526197610332L68.86363636363636,60.80153708475055L69.0909090909091,65.675854151892L69.31818181818183,55.31573079557856L69.54545454545455,48.74586919735852L69.77272727272728,46.86229244126669L70,51.006881169512596L70.22727272727272,45.637447761969604L70.45454545454545,49.00028980789792L70.68181818181817,46.866064639947076L70.9090909090909,49.09739146137711L71.13636363636364,49.0876568454135L71.36363636363636,51.16593381265174L71.5909090909091,43.86569784353995L71.81818181818183,47.618465149808856L72.04545454545455,43.168737677277484L72.27272727272727,42.33712241186779L72.5,46.637047665870696L72.72727272727272,44.508180707269794L72.95454545454545,41.01973296710683L73.18181818181819,38.27270422118206L73.4090909090909,38.90225811417082L73.63636363636364,43.05860883171863L73.86363636363637,55.257276073770775L74.0909090909091,50.42626022840959L74.31818181818183,48.908672079428555L74.54545454545455,51.062908211849866L74.77272727272727,49.405296172227104L75,49.19428348540005L75.22727272727272,49.34673556161765L75.45454545454545,44.20978753346309L75.68181818181819,40.97594342436455L75.9090909090909,39.08776169874309L76.13636363636364,45.52778302836043L76.36363636363637,44.95679610689256L76.59090909090908,42.453866205802214L76.81818181818181,43.13087795102038L77.04545454545455,46.29324001117213L77.27272727272727,41.3276304879248L77.5,47.934222197377274L77.72727272727273,51.33216387669459L77.95454545454545,47.15304651530711L78.18181818181819,53.00326820052542L78.40909090909092,52.44703191640899L78.63636363636364,51.97277473252768L78.86363636363636,47.02620443098797L79.0909090909091,39.10995495839748L79.31818181818181,45.24909887835879L79.54545454545455,47.92608417239286L79.77272727272727,48.3984940784683L80,46.674261754698165L80.22727272727273,48.771868332115766L80.45454545454545,43.25484366899804L80.68181818181819,46.04279768902903L80.9090909090909,47.901346736789804L81.13636363636363,45.00203059863315L81.36363636363636,49.6426727781252L81.5909090909091,50.41467740548189L81.81818181818181,47.37008149211726L82.04545454545455,46.63578119914404L82.27272727272728,48.79205740763748L82.5,47.555050045168436L82.72727272727273,49.41249955835104L82.95454545454547,42.606370881657774L83.18181818181817,47.075026199242046L83.4090909090909,50.834501323386384L83.63636363636364,52.82583872534695L83.86363636363636,52.34216331007796L84.0909090909091,52.84214377869L84.31818181818181,40.34570474459031L84.54545454545455,44.218766474683854L84.77272727272728,47.65679109412021L85,49.51829696278723L85.22727272727272,49.91583741432599L85.45454545454545,52.46303168036644L85.68181818181817,46.86285392948449L85.9090909090909,41.6330870036868L86.13636363636364,47.11848486822769L86.36363636363636,50.43611069632725L86.5909090909091,44.208337092692574L86.81818181818183,48.48098212215201L87.04545454545455,47.03434705323914L87.27272727272728,50.51015992465181L87.5,50.119857120155665L87.72727272727272,50.396218780556936L87.95454545454545,45.35035859580814L88.18181818181819,48.74418089641716L88.4090909090909,48.668219560799535L88.63636363636364,50.876857835112524L88.86363636363637,60.25455843479147L89.0909090909091,58.26110207747645L89.31818181818183,43.99562234674628L89.54545454545453,45.70211765853604L89.77272727272727,47.217002886788286L90,44.85435254587507L90.22727272727272,49.42778633221255L90.45454545454545,49.91627023682754L90.68181818181819,45.70491181657566L90.9090909090909,49.61148943206779L91.13636363636364,51.615188450907354L91.36363636363637,39.93067104173583L91.5909090909091,46.53637863415607L91.81818181818181,49.52330776317594L92.04545454545455,51.765638800158165L92.27272727272727,52.95651580776416L92.5,54.38848717834341L92.72727272727273,55.33325065661541L92.95454545454545,53.29517333504999L93.18181818181819,53.18335881873832L93.40909090909092,54.78935639638624L93.63636363636364,55.54122287103486L93.86363636363636,55.932408266891755L94.09090909090908,53.992794748546515L94.31818181818181,53.57907761410187L94.54545454545455,53.43911255967206L94.77272727272727,55.168130450842305L95,54.753888752276204L95.22727272727273,55.84867082460791L95.45454545454545,55.869963603163185L95.68181818181819,52.21191840847994L95.9090909090909,54.10396252783536L96.13636363636363,55.79825718792518L96.36363636363636,56.20577499960405L96.5909090909091,56.52969109839526L96.81818181818181,56.249308905456424L97.04545454545455,54.204388419445735L97.27272727272728,53.8329522492586L97.5,52.774734142523904L97.72727272727273,47.87202368050133L97.95454545454547,49.85975815361329L98.18181818181817,51.84681582152995L98.4090909090909,52.24639706941537L98.63636363636363,53.15382616482629L98.86363636363636,48.67576131779227L99.0909090909091,50.33760723012849L99.31818181818181,51.538405850121364L99.54545454545455,53.35519148370561L99.77272727272728,57.2790784888562L100,53.168514573782474L100.22727272727272,54.108560689256436L100.45454545454545,58.00681024981689L100.68181818181817,57.60182653888753L100.9090909090909,55.22957215217365L101.13636363636364,54.42721470243701L101.36363636363636,55.086208338063784L101.5909090909091,56.71300150837212L101.81818181818183,56.386532570062315L102.04545454545455,53.10299690613244L102.27272727272728,54.30745111405707L102.5,52.25813215931967L102.72727272727272,51.294731037128265L102.95454545454545,50.9255111768017L103.18181818181819,44.74953512392259L103.4090909090909,48.931007841931695L103.63636363636364,50.4518654473465L103.86363636363636,51.432750233577195L104.0909090909091,51.12241623308251L104.31818181818183,53.316700382753154L104.54545454545453,53.20973368993834L104.77272727272727,53.09009308668437L105,48.59859302445528L105.22727272727272,49.55842152919139L105.45454545454545,51.027561975132045L105.68181818181819,52.95308041424588L105.9090909090909,52.18275392888607L106.13636363636364,51.37950146214934L106.36363636363637,52.07172709799273L106.5909090909091,53.258243713222726L106.81818181818181,54.05313126211333L107.04545454545455,55.01852299554926L107.27272727272727,53.790889277472786L107.5,50.55370093302011L107.72727272727273,52.330444282142786L107.95454545454545,46.925629967519725L108.18181818181819,50.378556300824336L108.4090909090909,49.26063336545552L108.63636363636364,51.87918213515874L108.86363636363636,51.22560980192856L109.09090909090908,53.58041359437328L109.31818181818181,54.467929333381775L109.54545454545455,54.22022427483376L109.77272727272727,55.05143923612421L110,48.8816275573809L110.22727272727273,51.50161650024886L110.45454545454545,52.0201976670764L110.68181818181819,53.23274804360521L110.90909090909092,53.71342712206158L111.13636363636363,52.18574712610151L111.36363636363636,52.81110106700207L111.5909090909091,53.58430306370384L111.81818181818181,54.2896526959697L112.04545454545455,54.25829903131882L112.27272727272728,53.35531731755431L112.5,53.39247227529819L112.72727272727273,53.519327937119044L112.95454545454545,54.32752282835216L113.18181818181817,54.91356210195921L113.4090909090909,55.15909256716509L113.63636363636363,51.58684749179645L113.86363636363636,52.290306826783606L114.0909090909091,52.072417527059756L114.31818181818181,52.97123823596241L114.54545454545455,53.89785521371287L114.77272727272728,54.332603460258966L115,53.52516414321269L115.22727272727273,54.34359377401354L115.45454545454545,54.2116450339394L115.68181818181817,54.41374852752508L115.9090909090909,53.74967471059057L116.13636363636364,40.21924565480487L116.36363636363636,46.36960684926314L116.5909090909091,49.87886486639382L116.81818181818183,50.9731542795368L117.04545454545455,44.99810621543734L117.27272727272728,48.32045712932749L117.5,49.72726076848191L117.72727272727272,45.966372462472634L117.95454545454545,49.55915425547837L118.18181818181817,50.94148083453702L118.4090909090909,52.992382950591995L118.63636363636364,46.1106090877024L118.86363636363636,48.449258250473L119.0909090909091,51.19487745191143L119.31818181818183,52.713113507279665L119.54545454545455,53.57229057344332L119.77272727272727,53.2335518098863L120,49.204440788487105L120.22727272727272,50.52532454796206L120.45454545454545,51.99749307675901L120.68181818181819,52.703254114284576L120.9090909090909,46.970120888980915L121.13636363636364,48.1631776725487L121.36363636363637,50.35008548536514L121.5909090909091,51.587767274292L121.81818181818181,44.749313814078796L122.04545454545455,45.32474577949544L122.27272727272727,48.24313163110874L122.5,49.70736918862619L122.72727272727272,52.27035333283716L122.95454545454545,53.12096068134292L123.18181818181819,51.351959982210694L123.4090909090909,52.462127332099854L123.63636363636364,52.10201385043178L123.86363636363637,52.9761935885794L124.09090909090908,52.78732167072576L124.31818181818181,52.70892855744847L124.54545454545455,52.319751861031584L124.77272727272727,52.23865254891061L125,52.90767424419014L125.22727272727272,52.34749832092814L125.45454545454545,52.5193098568147L125.68181818181817,50.46269929706406L125.90909090909092,50.812808022248845L126.13636363636363,51.559248908401415L126.36363636363637,46.449195712431795L126.5909090909091,49.14513763416479L126.81818181818183,50.89330347893639L127.04545454545455,50.62419613358579L127.27272727272727,51.2156276899171L127.5,51.24200651303882L127.72727272727272,49.968079819281606L127.95454545454545,50.17749592216792L128.1818181818182,51.481761111243486L128.4090909090909,49.961733127520816L128.63636363636363,50.33938087586144L128.86363636363637,51.49506274589445L129.0909090909091,51.080643498773675L129.3181818181818,49.389507502258994L129.54545454545456,49.41453429058065L129.77272727272725,50.27609224589787L130,50.948813957564774L130.22727272727272,50.471888386745896L130.45454545454547,51.188448632633474L130.6818181818182,47.58095261667319L130.9090909090909,49.89675560320703L131.13636363636363,49.197921709092185L131.36363636363637,50.54430336725218L131.5909090909091,49.427608399745836L131.8181818181818,50.91314092689176L132.04545454545456,51.48067948614808L132.27272727272725,48.84355219038679L132.5,47.724100438581004L132.72727272727272,48.96096804309654L132.95454545454547,50.520590689139176L133.1818181818182,50.93393905703819L133.40909090909093,48.72310506833748L133.63636363636363,49.95650918358062L133.86363636363635,45.83366259633001L134.0909090909091,45.67318527345557L134.3181818181818,47.79327012403427L134.54545454545456,48.51539548099608L134.77272727272725,50.277629443545564L135,49.71185079031354L135.22727272727272,51.2387251144876L135.45454545454547,49.894659653653505L135.6818181818182,48.513429796912135L135.9090909090909,50.29649965874623L136.13636363636363,51.12394767122432L136.36363636363635,48.64247416100281L136.5909090909091,49.202457620787904L136.8181818181818,50.111447122928446L137.04545454545456,49.94534601220107L137.27272727272728,49.64798410064747L137.5,50.37214088356556L137.72727272727272,50.39571649221616L137.95454545454544,50.62957879669688L138.1818181818182,50.99098382586967L138.4090909090909,50.377826155710615L138.63636363636365,50.282897479721946L138.86363636363635,48.47503656726026L139.0909090909091,49.0732514976478L139.3181818181818,50.173991979317854L139.54545454545456,50.65106208212195L139.77272727272728,49.04757441561431L140,46.42845616059907L140.22727272727272,48.52926984707559L140.45454545454544,47.630910886923736L140.6818181818182,48.76166421607351L140.9090909090909,46.933531671733945L141.13636363636365,47.43389178949869L141.36363636363635,47.36127477910285L141.5909090909091,47.43370551280676L141.8181818181818,46.924024390040834L142.04545454545456,45.805412062409914L142.27272727272728,47.58036961293423L142.5,47.73189509132825L142.72727272727272,48.3949609439571L142.95454545454544,46.960637532357346L143.1818181818182,47.195753137090186L143.4090909090909,46.47380533277496L143.63636363636365,47.85008168599309L143.86363636363637,47.39714390905679L144.0909090909091,47.46278054709423L144.3181818181818,47.580122995411486L144.54545454545453,48.35559018722086L144.77272727272728,49.00085829934423L145,48.485933404085706L145.22727272727272,48.80587486178736L145.45454545454544,48.242636566649225L145.6818181818182,48.00519268217704L145.9090909090909,48.00028523821248L146.13636363636365,48.173935661156655L146.36363636363637,47.7366505812643L146.59090909090907,47.117478837528104L146.8181818181818,47.15848296902078L147.04545454545453,46.962107168293976L147.27272727272728,45.96722645104149L147.5,43.06897932562163L147.72727272727275,44.5510718198196L147.95454545454544,48.91620645452196L148.1818181818182,44.94696192202959L148.4090909090909,45.09667754384275L148.63636363636365,50.976897037373355L148.86363636363637,49.554530483166204L149.0909090909091,46.468406162214166L149.3181818181818,46.70145788596781L149.54545454545453,47.033401591118455L149.77272727272728,50.090906604085134L150,48.21740003341463L150.22727272727275,48.22420159231441L150.45454545454544,47.12068085936L150.6818181818182,45.452249881175895L150.9090909090909,45.832092783523244L151.13636363636363,45.95439033401368L151.36363636363637,45.04443004187958L151.5909090909091,45.254689502992335L151.8181818181818,44.21798644756362L152.04545454545453,42.014650161181414L152.27272727272728,42.66586450670235L152.5,43.95049881469846L152.72727272727275,44.772597083415455L152.95454545454547,45.874816526416446L153.18181818181816,45.22980556933296L153.4090909090909,45.07398062350081L153.63636363636363,44.649739985428624L153.86363636363637,44.6309789684707L154.0909090909091,51.4421691681918L154.3181818181818,49.39941026556351L154.54545454545453,46.95573038785372L154.77272727272728,45.87766436796614L155,45.41439558529792L155.22727272727272,45.430670647891L155.45454545454547,41.00013868990239L155.68181818181816,43.326364402906286L155.9090909090909,43.6466585383909L156.13636363636363,43.76440000584706L156.36363636363637,44.0352344086189L156.5909090909091,44.14773121727421L156.81818181818184,43.883094455462206L157.04545454545453,44.59836728932549L157.27272727272728,45.69390907395334L157.5,45.63097477379912L157.72727272727272,45.56879967140837L157.95454545454547,44.81715843240231L158.1818181818182,42.53542456790493L158.4090909090909,42.7860819441121L158.63636363636363,43.02402037821858L158.86363636363637,43.20483912308997L159.0909090909091,43.000291810035634L159.31818181818184,50.42255960750576L159.54545454545453,45.997176568539906L159.77272727272725,46.41695903357185L160,44.85501568300119L160.22727272727272,45.49291790182545L160.45454545454547,41.480838583527934L160.6818181818182,42.27664782785112L160.9090909090909,41.78664767701665L161.13636363636363,43.1141768142178L161.36363636363637,41.917818580392655L161.5909090909091,39.343802242233544L161.8181818181818,39.84228977022622L162.04545454545456,42.93558664696645L162.27272727272725,40.98738541815221L162.5,42.29494047126894L162.72727272727272,44.97812206270929L162.95454545454547,44.18554326732934L163.1818181818182,44.4347211142062L163.4090909090909,42.277729230209914L163.63636363636363,43.39410757393325L163.86363636363635,43.641539841397716L164.0909090909091,43.389417357800866L164.3181818181818,42.67730426192986L164.54545454545456,43.07281688739881L164.77272727272725,43.90859115782992L165,43.44823681953518L165.22727272727272,44.88013578475495L165.45454545454547,45.115490764472746L165.6818181818182,52.461393539087304L165.90909090909093,49.30993227416854L166.13636363636363,48.59501654223549L166.36363636363635,47.55369089864858L166.5909090909091,47.434581808069375L166.8181818181818,48.11892248978951L167.04545454545456,49.370282839576845L167.27272727272728,57.05520580400654L167.5,59.061148124331005L167.72727272727272,58.47692746509339L167.95454545454547,62.88124034949874L168.1818181818182,62.25783155507684L168.4090909090909,59.54942231357995L168.63636363636363,61.62669275175475L168.86363636363635,60.134516033539825L169.0909090909091,60.05096634212911L169.3181818181818,58.0360029091186L169.54545454545456,57.49797895901285L169.77272727272728,57.674968251058736L170,59.33509907400765L170.22727272727272,57.16402913027698L170.45454545454544,62.262601348608904L170.6818181818182,60.50610880721219L170.9090909090909,56.7751638276216L171.13636363636365,55.608071229515645L171.36363636363635,60.91238811531355L171.5909090909091,63.40685498832876L171.8181818181818,59.19640142073164L172.04545454545456,63.40019658160564L172.27272727272728,59.392300753325365L172.5,55.9902685704848L172.72727272727272,55.35815870902266L172.95454545454544,60.69984944090838L173.1818181818182,57.706276795078885L173.4090909090909,55.44627213173485L173.63636363636365,53.99582127057734L173.86363636363635,52.3998654104584L174.0909090909091,58.24605725083234L174.3181818181818,59.1046411457468L174.54545454545456,54.824506900175955L174.77272727272728,55.1130826313165L175,62.278459328138865L175.22727272727272,57.12962482377134L175.45454545454544,52.72684187017427L175.6818181818182,50.67837252526211L175.9090909090909,49.6250431033734L176.13636363636365,58.106782339888625L176.36363636363637,55.959627574506094L176.5909090909091,51.85819594574532L176.8181818181818,49.93249002838469L177.04545454545453,56.82058054046831L177.27272727272728,61.7262254401664L177.5,55.62257623903472L177.72727272727275,62.10600936646772L177.95454545454544,55.17114438941188L178.1818181818182,60.027967883647136L178.4090909090909,54.56112941996691L178.63636363636365,50.432349994916336L178.86363636363637,57.48626710958002L179.09090909090907,59.46820515507093L179.3181818181818,53.16779671364803L179.54545454545453,50.17674618411329L179.77272727272728,56.75845356984297L180,63.683154759093284L180.22727272727275,56.74024765688828L180.45454545454544,51.72291941119025L180.6818181818182,49.124930052475875L180.9090909090909,56.57919243903761L181.13636363636363,60.69038727331841L181.36363636363637,54.218275316465004L181.5909090909091,59.28075101344671L181.8181818181818,59.03372938410969L182.04545454545453,63.16458541692416L182.27272727272728,55.58889259943835L182.5,60.83853748023592L182.72727272727275,62.0658766059801L182.95454545454544,66.54162435225993L183.1818181818182,56.59004933466326L183.4090909090909,50.698162441781044L183.63636363636363,53.551738643454044L183.86363636363637,49.86154126956852L184.0909090909091,47.61829287290648L184.3181818181818,52.07984190212932L184.54545454545453,48.185273655274976L184.77272727272728,46.482498364714466L185,45.82949512071669L185.22727272727275,51.24957931526856L185.45454545454547,55.15298771774188L185.68181818181816,50.704157844675066L185.9090909090909,47.75279988665532L186.13636363636363,46.22223223912208L186.36363636363637,43.56583818787428L186.5909090909091,51.98104764742508L186.81818181818184,59.57678649861132L187.04545454545453,58.7955704587371L187.27272727272728,63.3323194725079L187.5,54.96113633275605L187.72727272727272,57.144457971528624L187.95454545454547,50.5035717108143L188.18181818181816,46.395998613239875L188.4090909090909,38.979792218074145L188.63636363636363,38.6074537620375L188.86363636363637,45.43358610813397L189.0909090909091,52.02027614404705L189.31818181818184,52.536943762600096L189.54545454545453,42.34996977725407L189.77272727272725,38.979603335977274L190,38.228505256692976L190.22727272727272,44.013766207401204L190.45454545454547,35.317910082513635L190.6818181818182,36.69700064748997L190.9090909090909,35.55676406850697L191.13636363636363,31.333424639834657L191.36363636363637,39.71159198279403L191.5909090909091,44.85345144618683L191.8181818181818,54.75442005391L192.04545454545456,47.69629866981751L192.27272727272725,50.886380984117075L192.5,47.00777650306791L192.72727272727272,49.24847326674959L192.95454545454547,37.640476806729446L193.1818181818182,38.41603094894653L193.4090909090909,43.58355907229759L193.63636363636363,39.347251977802394L193.86363636363637,32.49274431819186L194.0909090909091,39.28633859124064L194.3181818181818,43.73657328006992L194.54545454545456,45.58635108881017L194.77272727272725,36.42522883362465L195,32.09405965938702L195.22727272727272,45.49092769830149L195.45454545454547,47.2919382270538L195.6818181818182,48.235757019891125L195.90909090909093,38.91045444793729L196.13636363636363,32.23582704701759L196.36363636363635,40.23538987241627L196.5909090909091,33.2100670248495L196.8181818181818,28.866968771224794L197.04545454545456,32.616436818968594L197.27272727272725,29.032623765372055L197.5,38.00604851866332L197.72727272727272,40.93197885078132L197.95454545454547,45.47582998625005L198.1818181818182,36.00626526063025L198.4090909090909,41.74639589140418L198.63636363636363,52.272801369477925L198.86363636363635,40.905778738353405L199.0909090909091,44.32524656837013L199.3181818181818,36.54754795322911L199.54545454545456,41.8837787882135L199.77272727272728,38.07188978065922L200,43.87465520628618L200.22727272727272,40.691670702252736L200.45454545454544,32.286499068487046L200.6818181818182,39.40487380632662L200.9090909090909,34.545565881289455L201.13636363636365,37.900487968308184L201.36363636363635,32.00518155458515L201.5909090909091,32.28262277349003L201.8181818181818,39.74200683466695L202.04545454545456,41.905854666392614L202.27272727272728,43.99080878372227L202.5,42.438167360484L202.72727272727272,43.99124605431125L202.95454545454544,46.024972010028165L203.1818181818182,44.704341781456336L203.4090909090909,42.90496808156913L203.63636363636365,33.83681018650657L203.86363636363635,30.593907628831026L204.0909090909091,37.904540186836364L204.3181818181818,50.983077416138286L204.54545454545456,46.88209968047724L204.77272727272728,49.42320005079937L205,46.351394686648256L205.22727272727272,36.80725384079755L205.45454545454544,45.3076797133327L205.6818181818182,44.56603187585118L205.9090909090909,39.28520829177047L206.13636363636365,54.77537673287478L206.36363636363637,48.27918596098951L206.5909090909091,59.99496274846871L206.8181818181818,45.624296614738775L207.04545454545453,37.904160146577624L207.27272727272728,35.9116567141673L207.5,45.9886943540212L207.72727272727272,38.82118261583069L207.95454545454544,53.66033380452445L208.1818181818182,49.03486592805973L208.4090909090909,50.42168780227852L208.63636363636365,45.43956322559729L208.86363636363637,54.34432157793648L209.09090909090907,51.506976040023595L209.3181818181818,45.36503364571217L209.54545454545453,41.52021941743065L209.77272727272728,44.44677192552349L210,47.40782702250159L210.22727272727275,57.01310809501137L210.45454545454544,48.406437189897666L210.6818181818182,42.83595770934467L210.9090909090909,48.04924213048961L211.13636363636365,55.817217788059395L211.36363636363637,64.35527137921586L211.5909090909091,52.900948631769424L211.8181818181818,52.931532191756965L212.04545454545453,50.92188174181199L212.27272727272728,60.17998472542573L212.5,64.29202672392732L212.72727272727275,66.3990351424293L212.95454545454544,65.28511644678571L213.1818181818182,53.95013645997003L213.4090909090909,57.43785895931535L213.63636363636363,55.986640367451216L213.86363636363637,51.93373731698765L214.0909090909091,51.68343741786186L214.3181818181818,45.81068042557064L214.54545454545453,49.815776004365816L214.77272727272728,47.01337088826401L215,49.85815326212507L215.22727272727275,44.58343609230517L215.45454545454547,47.80563718435444L215.68181818181816,59.6205515000658L215.9090909090909,56.05629786781291L216.13636363636363,63.936775107406504L216.36363636363637,59.83053164159233L216.5909090909091,58.1745749989528L216.8181818181818,49.42035612328321L217.04545454545453,50.28128813686054L217.27272727272728,59.148511358678824L217.5,62.44499340374897L217.72727272727272,60.11183576392906L217.95454545454547,59.57305022137828L218.18181818181816,51.292058338189904L218.4090909090909,53.18730003383844L218.63636363636363,52.69210914627963L218.86363636363637,56.10634241647872L219.0909090909091,56.251692559262224L219.31818181818184,58.139460717849005L219.54545454545453,49.71013286991839L219.77272727272728,44.990401813625844L220,47.89197488537602L220.22727272727272,50.28401876911624L220.45454545454547,56.40357844896974L220.6818181818182,56.44303072823603L220.9090909090909,56.87056567001453L221.13636363636363,59.198232810211834L221.36363636363637,55.5152109670516L221.5909090909091,58.62705754540023L221.81818181818184,57.20078596766984L222.04545454545453,59.39875077982066L222.27272727272725,60.889423954220504L222.5,63.46063334388648L222.72727272727272,60.731181528141775L222.95454545454547,66.75094281987987L223.1818181818182,60.72351364928467L223.4090909090909,62.98881829699269L223.63636363636363,64.37344228027895L223.86363636363637,64.21463560742518L224.0909090909091,63.76519273327021L224.3181818181818,64.4044590644413L224.54545454545456,71.29868175376895L224.77272727272725,70.52801118442282L225,66.22198652836204L225.22727272727272,66.10795007945211L225.45454545454547,64.68182698126503L225.6818181818182,65.76836663146736L225.9090909090909,64.87151514489605L226.13636363636363,64.91865819989337L226.36363636363635,65.81752670704539L226.5909090909091,67.3891594487064L226.8181818181818,67.51926228706239L227.04545454545456,67.35789313070097L227.27272727272725,68.41580173128516L227.5,68.07906350947422L227.72727272727272,62.25224954774182L227.95454545454547,68.37800998255135L228.1818181818182,68.70645494786415L228.40909090909093,68.07737913733827L228.63636363636363,70.13290161977275L228.86363636363635,74.10497137550948L229.0909090909091,66.38751283832651L229.3181818181818,68.7194378950532L229.54545454545456,69.72094950461005L229.77272727272728,68.8466727789379L230,69.67792555863878L230.22727272727272,74.8440101854437L230.45454545454547,73.3338694576204" style="fill: none;" fill="none"></path></g></g></g></g><g opacity="0.2"><g><g><g><path stroke="rgb(0, 119, 187)" stroke-width="2px" d="M22.727272727272727,145.5148986002604L22.954545454545453,68.40531453450521L23.181818181818183,111.43903084309898L23.40909090909091,77.35053881835938L23.636363636363637,98.16051041666667L23.863636363636363,89.49130708821615L24.09090909090909,74.68465275065104L24.31818181818182,64.9246978556315L24.545454545454543,72.2054834391276L24.772727272727273,137.42497387695312L25,212.54187923177082L25.227272727272727,67.78948856608073L25.454545454545457,96.39874064127604L25.68181818181818,75.4645869547526L25.90909090909091,88.3623368733724L26.136363636363633,125.14951416015626L26.363636363636363,137.2780021972656L26.590909090909093,73.65101277669271L26.818181818181817,64.74022094726563L27.045454545454547,164.41489746093748L27.27272727272727,51.92525848388672L27.5,53.98039581298828L27.72727272727273,53.483642110188796L27.954545454545453,65.99829838053385L28.181818181818183,57.44700303141276L28.409090909090907,70.20617028808593L28.636363636363637,172.80040966796875L28.863636363636363,68.5797510579427L29.09090909090909,61.46912329101563L29.31818181818182,156.3247119954427L29.545454545454543,58.80046502685547L29.772727272727273,82.08971638997396L30,69.68391092936197L30.227272727272727,72.80213761393229L30.454545454545453,55.55201572672525L30.68181818181818,63.85711069742839L30.90909090909091,70.0604552408854L31.136363636363637,61.53042124430339L31.363636363636363,62.05822861735027L31.590909090909093,104.816447265625L31.818181818181817,54.2391299235026L32.04545454545455,70.42310778808594L32.27272727272727,58.09851084391275L32.5,104.06649479166667L32.72727272727273,56.93944482421875L32.95454545454545,57.45636621093749L33.18181818181818,83.56010314941406L33.40909090909091,59.08571516927083L33.63636363636364,102.90568505859375L33.86363636363637,61.06628928629558L34.090909090909086,53.46906770833334L34.31818181818182,55.363971720377606L34.54545454545455,69.79025390625L34.77272727272727,67.77253308105469L35,61.7356162923177L35.22727272727273,80.54624576822917L35.45454545454545,60.79283410644532L35.68181818181818,63.68068601481121L35.909090909090914,68.25044091796875L36.13636363636363,53.292979817708336L36.36363636363636,69.46275447591145L36.59090909090909,56.223894022623696L36.81818181818182,58.69442805989583L37.04545454545455,55.60074735514323L37.27272727272727,94.50045422363281L37.5,60.546986816406246L37.72727272727273,64.72157788085937L37.95454545454545,97.21579077148438L38.18181818181819,77.84917928059896L38.40909090909091,56.48216278076171L38.63636363636363,58.53542964680989L38.86363636363637,57.776735066731774L39.09090909090909,78.19501033528645L39.31818181818182,59.840217956542965L39.54545454545455,75.21888452148437L39.77272727272727,63.66501432291666L40,60.84880314127605L40.22727272727273,64.1872827351888L40.45454545454545,54.12533949788411L40.68181818181818,54.854052347819014L40.90909090909091,77.33561494954428L41.13636363636364,65.4298260904948L41.36363636363637,60.20636879475912L41.590909090909086,66.17391548665366L41.81818181818182,71.08966621907551L42.04545454545455,60.527108846028646L42.27272727272727,73.15893794759114L42.5,57.16900659179688L42.72727272727273,63.22623048909506L42.95454545454545,59.170930786132814L43.18181818181818,64.56258671061198L43.409090909090914,63.83713494873047L43.63636363636364,52.87504268391926L43.86363636363636,66.2825254720052L44.09090909090909,71.0655185953776L44.31818181818182,59.29608703613282L44.54545454545455,59.74481528727214L44.772727272727266,55.234486063639324L45,58.75155594889323L45.22727272727273,61.256567708333336L45.45454545454545,69.0888320719401L45.68181818181819,55.75632533772786L45.90909090909091,76.2360868733724L46.13636363636363,77.77496191406249L46.36363636363637,63.57582781982423L46.59090909090909,59.269518493652356L46.81818181818182,56.34968402099609L47.04545454545454,52.767019368489585L47.27272727272727,59.38340307617187L47.5,54.28653249104817L47.72727272727273,63.48089593505859L47.95454545454545,72.45648400878908L48.18181818181818,63.36180013020833L48.40909090909091,58.26004606119791L48.63636363636364,57.96395882161459L48.86363636363637,57.823047587076815L49.090909090909086,49.342656911214185L49.31818181818181,56.31954656982422L49.54545454545455,60.77541145833333L49.77272727272727,53.663469116210926L50,55.90891202799479L50.22727272727273,66.33974389648436L50.45454545454545,58.400265604654955L50.68181818181818,57.582474894205724L50.909090909090914,59.40060300699869L51.13636363636364,64.84539963785808L51.36363636363636,59.00496295166016L51.59090909090909,65.7802635904948L51.81818181818182,63.98139418538412L52.04545454545455,50.891627563476554L52.272727272727266,67.90460986328125L52.5,51.17575325520833L52.72727272727273,66.78971610514324L52.95454545454545,51.13873510742187L53.18181818181819,63.17251578776041L53.40909090909091,60.796506225585944L53.63636363636363,60.63607373046876L53.86363636363637,60.229377482096346L54.09090909090909,53.33684244791667L54.31818181818182,59.32965216064454L54.54545454545454,55.2176030069987L54.77272727272727,63.126366231282546L55,48.078850392659504L55.22727272727273,57.72040932210286L55.45454545454546,56.0798267211914L55.68181818181818,63.21705562337239L55.90909090909091,62.66760302734376L56.13636363636364,52.25783333333333L56.36363636363637,57.89777376302084L56.590909090909086,64.33403894042968L56.81818181818181,47.512635152181L57.04545454545455,54.33559910074869L57.27272727272727,63.86109606933594L57.5,65.92249483235678L57.72727272727273,64.24933213297525L57.95454545454545,50.0740794881185L58.18181818181818,62.37049092610678L58.409090909090914,53.21839306640626L58.63636363636364,55.52761460367839L58.86363636363636,54.9117270711263L59.090909090909086,61.700280293782555L59.31818181818182,61.314686055501305L59.54545454545455,56.29389967854817L59.77272727272727,56.4568237101237L60,54.965296915690104L60.22727272727273,69.24983675130208L60.45454545454545,39.609178665161124L60.68181818181819,49.63095085652669L60.90909090909091,65.59635162353516L61.13636363636363,60.746106933593744L61.36363636363636,49.95387915039063L61.59090909090909,60.14757686360678L61.81818181818182,67.17052644856771L62.04545454545454,54.30365999348959L62.27272727272727,41.34205042012533L62.5,53.1890396525065L62.72727272727273,55.8311547241211L62.95454545454546,61.16379962158202L63.18181818181819,68.27819185384115L63.409090909090914,34.386568328857415L63.63636363636363,57.49000014241537L63.86363636363636,81.32013944498698L64.0909090909091,65.55902565511069L64.31818181818181,39.63668379720052L64.54545454545455,52.631228820800786L64.77272727272728,83.02597639973958L65,63.60429941813151L65.22727272727273,49.65215698242187L65.45454545454545,58.09106520589192L65.68181818181819,57.42024798583985L65.9090909090909,53.44820290120443L66.13636363636363,50.83100862630207L66.36363636363636,53.84430287679036L66.5909090909091,35.75875826772054L66.81818181818181,50.389079589843746L67.04545454545455,56.02417093912761L67.27272727272728,59.67360188802083L67.5,59.344002034505216L67.72727272727273,36.626002627054845L67.95454545454545,63.54974635823569L68.18181818181817,59.71987638346354L68.4090909090909,62.9819784342448L68.63636363636364,79.21169844563802L68.86363636363636,51.22594974772136L69.0909090909091,72.98732975260417L69.31818181818183,39.775545761108404L69.54545454545455,38.89107680002847L69.77272727272728,44.03692730712891L70,57.223764261881506L70.22727272727272,37.58329765065512L70.45454545454545,54.04455287679037L70.68181818181817,43.66472688802084L70.9090909090909,52.44438169352213L71.13636363636364,49.073054921468106L71.36363636363636,54.28334926350911L71.5909090909091,32.915343889872226L71.81818181818183,53.247616109212245L72.04545454545455,36.49414646848042L72.27272727272727,41.089699513753246L72.5,53.086935546875L72.72727272727272,41.3148802693685L72.95454545454545,35.78706135686238L73.18181818181819,34.152161102294926L73.4090909090909,39.84658895365396L73.63636363636364,49.29313490804036L73.86363636363637,73.55527693684895L74.0909090909091,43.179736460367835L74.31818181818183,46.632289855957026L74.54545454545455,54.29426241048178L74.77272727272727,46.918878112792974L75,48.87776445515951L75.22727272727272,49.575413675944006L75.45454545454545,36.50436549123128L75.68181818181819,36.125177260716754L75.9090909090909,36.255489110310876L76.13636363636364,55.18781502278646L76.36363636363637,44.10031572469076L76.59090909090908,38.69947135416667L76.81818181818181,44.14639556884765L77.04545454545455,51.036783101399735L77.27272727272727,33.87921620305379L77.5,57.844109761555984L77.72727272727273,56.42907639567058L77.95454545454545,40.88437047322591L78.18181818181819,61.778600728352856L78.40909090909092,51.61267749023437L78.63636363636364,51.26138895670574L78.86363636363636,39.60634897867839L79.0909090909091,27.23558074951171L79.31818181818181,54.45781475830079L79.54545454545455,51.941562113444014L79.77272727272727,49.10710893758139L80,44.087913269042964L80.22727272727273,51.91827819824219L80.45454545454545,34.9793066743215L80.68181818181819,50.22472871907553L80.9090909090909,50.689170308430995L81.13636363636363,40.65305639139811L81.36363636363636,56.603636047363274L81.5909090909091,51.572684346516915L81.81818181818181,42.803187622070304L82.04545454545455,45.53433075968425L82.27272727272728,52.0264717203776L82.5,45.69953900146484L82.72727272727273,52.198673828124996L82.95454545454547,32.39717786661784L83.18181818181817,53.77800917561849L83.4090909090909,56.47371400960287L83.63636363636364,55.81284482828777L83.86363636363636,51.61665018717447L84.0909090909091,53.59211448160807L84.31818181818181,21.601046193440762L84.54545454545455,50.02835906982422L84.77272727272728,52.81382802327473L85,52.31055576578777L85.22727272727272,50.512148091634124L85.45454545454545,56.28382307942708L85.68181818181817,38.46258730316162L85.9090909090909,33.788436614990225L86.13636363636364,55.34658166503906L86.36363636363636,55.41254943847656L86.5909090909091,34.86667668724061L86.81818181818183,54.88994966634115L87.04545454545455,44.864394449869785L87.27272727272728,55.72387923177084L87.5,49.534402913411455L87.72727272727272,50.81076127115885L87.95454545454545,37.781568318684904L88.18181818181819,53.83491434733073L88.4090909090909,48.55427755737305L88.63636363636364,54.18981524658202L88.86363636363637,74.3211093343099L89.0909090909091,55.2709175415039L89.31818181818183,22.59740275065105L89.54545454545453,48.261860626220695L89.77272727272727,49.48933072916667L90,41.31037703450521L90.22727272727272,56.28793701171875L90.45454545454545,50.64899609375001L90.68181818181819,39.38787418619791L90.9090909090909,55.471355855305994L91.13636363636364,54.620736979166665L91.36363636363637,22.403894927978516L91.5909090909091,56.444940022786454L91.81818181818181,54.00370145670573L92.04545454545455,55.12913535563151L92.27272727272727,54.74283131917317L92.5,56.53644423421224L92.72727272727273,56.75039587402343L92.95454545454545,50.23805735270182L93.18181818181819,53.01563704427083L93.40909090909092,57.198352762858065L93.63636363636364,56.66902258300781L93.86363636363636,56.51918636067709L94.09090909090908,51.08337447102865L94.31818181818181,52.9585019124349L94.54545454545455,53.22916497802735L94.77272727272727,57.76165728759766L95,54.13252620442709L95.22727272727273,57.49084393310547L95.45454545454545,55.90190277099609L95.68181818181819,46.72485061645507L95.9090909090909,56.9420287068685L96.13636363636363,58.339699178059895L96.36363636363636,56.817051717122396L96.5909090909091,57.01556524658204L96.81818181818181,55.828735616048185L97.04545454545455,51.13700769042969L97.27272727272728,53.27579799397787L97.5,51.18740698242187L97.72727272727273,40.51795798746745L97.95454545454547,52.841359863281255L98.18181818181817,54.82740232340494L98.4090909090909,52.845768941243485L98.63636363636363,54.5149698079427L98.86363636363636,41.958664047241214L99.0909090909091,52.83037609863281L99.31818181818181,53.33960378011067L99.54545454545455,56.08036993408204L99.77272727272728,63.164908996582035L100,47.00266870117188L100.22727272727272,55.518629862467456L100.45454545454545,63.85418459065755L100.68181818181817,56.994350972493486L100.9090909090909,51.671190572102866L101.13636363636364,53.22367852783203L101.36363636363636,56.074698791503906L101.5909090909091,59.15319126383464L101.81818181818183,55.89682916259766L102.04545454545455,48.17769341023763L102.27272727272728,56.11413242594402L102.5,49.18415372721354L102.72727272727272,49.84962935384114L102.95454545454545,50.37168138631185L103.18181818181819,35.485571044603994L103.4090909090909,55.20321691894531L103.63636363636364,52.73315185546875L103.86363636363636,52.90407741292317L104.0909090909091,50.6569152323405L104.31818181818183,56.608126607259116L104.54545454545453,53.04928365071614L104.77272727272727,52.91063218180339L105,41.86134293111166L105.22727272727272,50.99816428629557L105.45454545454545,53.23127264404297L105.68181818181819,55.84135807291668L105.9090909090909,51.027264200846346L106.13636363636364,50.174622762044265L106.36363636363637,53.11006555175782L106.5909090909091,55.038018636067704L106.81818181818181,55.245462585449225L107.04545454545455,56.46661059570313L107.27272727272727,51.949438700358066L107.5,45.69791841634115L107.72727272727273,54.99555930582682L107.95454545454545,38.818408495585125L108.18181818181819,55.55794580078125L108.4090909090909,47.58374896240235L108.63636363636364,55.807005289713544L108.86363636363636,50.24525130208333L109.09090909090908,57.11261928304036L109.31818181818181,55.79920294189453L109.54545454545455,53.848666687011715L109.77272727272727,56.29826167805989L110,39.62691003926595L110.22727272727273,55.43159991455079L110.45454545454545,52.79806941731771L110.68181818181819,55.05157360839843L110.90909090909092,54.43444573974608L111.13636363636363,49.89422713216146L111.36363636363636,53.74913197835286L111.5909090909091,54.74410605875651L111.81818181818181,55.34767714436849L112.04545454545455,54.211268534342445L112.27272727272728,52.00084474690756L112.5,53.448204711914066L112.72727272727273,53.70961142985026L112.95454545454545,55.53981516520182L113.18181818181817,55.79262101236979L113.4090909090909,55.52738826497395L113.63636363636363,46.228479878743485L113.86363636363636,53.345495829264316L114.0909090909091,51.74558357747396L114.31818181818181,54.31946929931641L114.54545454545455,55.287780680338535L114.77272727272728,54.98472583007813L115,52.314005167643224L115.22727272727273,55.57123822021484L115.45454545454545,54.01372192382813L115.68181818181817,54.71690376790365L115.9090909090909,52.753563985188805L116.13636363636364,19.923602071126304L116.36363636363636,55.595148640950526L116.5909090909091,55.142751892089855L116.81818181818183,52.614588399251296L117.04545454545455,36.03553411928812L117.27272727272728,53.30398350016275L117.5,51.83746622721355L117.72727272727272,40.32504000345866L117.95454545454545,54.94832694498698L118.18181818181817,53.014970703125L118.4090909090909,56.06873612467449L118.63636363636364,35.787948293368025L118.86363636363636,51.957231994628906L119.0909090909091,55.313306254069005L119.31818181818183,54.990467590332024L119.54545454545455,54.86105617268881L119.77272727272727,52.72544366455079L120,43.160774256388336L120.22727272727272,52.50665018717448L120.45454545454545,54.20574586995443L120.68181818181819,53.76189567057292L120.9090909090909,38.3704210510254L121.13636363636364,49.952762847900395L121.36363636363637,53.63044720458984L121.5909090909091,53.444289957682294L121.81818181818181,34.49163362375894L122.04545454545455,46.18789372762044L122.27272727272727,52.62071040852864L122.5,51.90372552490235L122.72727272727272,56.11482954915364L122.95454545454545,54.396871704101564L123.18181818181819,48.69845893351236L123.4090909090909,54.12737835693359L123.63636363636364,51.56184362792968L123.86363636363637,54.28746319580079L124.09090909090908,52.504013793945305L124.31818181818181,52.59133888753255L124.54545454545455,51.73598681640625L124.77272727272727,52.11700358072917L125,53.911206787109386L125.22727272727272,51.507234436035155L125.45454545454545,52.777027160644536L125.68181818181817,47.37778345743814L125.90909090909092,51.33797111002604L126.13636363636363,52.6789102376302L126.36363636363637,38.784115918477376L126.5909090909091,53.18905051676432L126.81818181818183,53.51555224609374L127.04545454545455,50.2205351155599L127.27272727272727,52.102775024414065L127.5,51.281574747721365L127.72727272727272,48.057189778645835L127.95454545454545,50.49162007649739L128.1818181818182,53.43815889485677L128.4090909090909,47.68169115193684L128.63636363636363,50.9058524983724L128.86363636363637,53.22858555094402L129.0909090909091,50.45901462809244L129.3181818181818,46.85280350748698L129.54545454545456,49.45207447306314L129.77272727272725,51.56842917887369L130,51.957896525065095L130.22727272727272,49.75650003051758L130.45454545454547,52.26328900146484L130.6818181818182,42.16970859273275L130.9090909090909,53.37046008300781L131.13636363636363,48.14967086791992L131.36363636363637,52.56387585449218L131.5909090909091,47.752565948486335L131.8181818181818,53.14143971761067L132.04545454545456,52.33198732503256L132.27272727272725,44.8878612467448L132.5,46.044922810872386L132.72727272727272,50.816269449869786L132.95454545454547,52.86002465820312L133.1818181818182,51.55396160888671L133.40909090909093,45.406854085286454L133.63636363636363,51.80661535644531L133.86363636363635,39.649392715454105L134.0909090909091,45.43246928914389L134.3181818181818,50.97339739990235L134.54545454545456,49.59858351643881L134.77272727272725,52.920980387369795L135,48.86318281046549L135.22727272727272,53.52903660074869L135.45454545454547,47.87856146240234L135.6818181818182,46.441585011800136L135.9090909090909,52.971104451497396L136.13636363636363,52.3651196899414L136.36363636363635,44.920263895670566L136.5909090909091,50.042432810465485L136.8181818181818,51.47493137613932L137.04545454545456,49.69619434611003L137.27272727272728,49.20194123331706L137.5,51.45837605794271L137.72727272727272,50.431079905192064L137.95454545454544,50.980372253417976L138.1818181818182,51.53309136962891L138.4090909090909,49.458089650472L138.63636363636365,50.14050446573893L138.86363636363635,45.7632451985677L139.0909090909091,49.97057389322917L139.3181818181818,51.825102701822914L139.54545454545456,51.36666723632812L139.77272727272728,46.64234291585287L140,42.49977877807618L140.22727272727272,51.68049037679036L140.45454545454544,46.28337244669597L140.6818181818182,50.45779420979818L140.9090909090909,44.191332855224616L141.13636363636365,48.18443196614583L141.36363636363635,47.25234926350912L141.5909090909091,47.542351613362634L141.8181818181818,46.159502705891924L142.04545454545456,44.12749357096354L142.27272727272728,50.24280593872071L142.5,47.959183308919265L142.72727272727272,49.389559722900394L142.95454545454544,44.80915241495767L143.1818181818182,47.54842654418945L143.4090909090909,45.390883626302085L143.63636363636365,49.914496215820314L143.86363636363637,46.71773724365234L144.0909090909091,47.56123550415039L144.3181818181818,47.756136667887375L144.54545454545453,49.518790974934895L144.77272727272728,49.9687604675293L145,47.71354606119791L145.22727272727272,49.28578704833984L145.45454545454544,47.39777912394205L145.6818181818182,47.64902685546876L145.9090909090909,47.992924072265616L146.13636363636365,48.434411295572914L146.36363636363637,47.08072296142578L146.59090909090907,46.18872122192382L146.8181818181818,47.219989166259765L147.04545454545453,46.66754346720377L147.27272727272728,44.47490537516276L147.5,38.721608637491855L147.72727272727275,46.77421056111655L147.95454545454544,55.46390840657553L148.1818181818182,38.993095123291006L148.4090909090909,45.3212509765625L148.63636363636365,59.79722627766926L148.86363636363637,47.42098065185548L149.0909090909091,41.83921968078614L149.3181818181818,47.05103547159831L149.54545454545453,47.53131714884441L149.77272727272728,54.67716412353515L150,45.40714017740885L150.22727272727275,48.234403930664065L150.45454545454544,45.465399759928395L150.6818181818182,42.94960341389974L150.9090909090909,46.401857137044274L151.13636363636363,46.13783665974935L151.36363636363637,43.67948960367839L151.5909090909091,45.57007869466147L151.8181818181818,42.662931864420564L152.04545454545453,38.70964573160808L152.27272727272728,43.64268602498373L152.5,45.87745027669271L152.72727272727275,46.00574448649088L152.95454545454547,47.528145690917974L153.18181818181816,44.26228913370768L153.4090909090909,44.840243204752596L153.63636363636363,44.01337902832032L153.86363636363637,44.602837443033856L154.0909090909091,61.65895446777344L154.3181818181818,46.33527191162109L154.54545454545453,43.290210571289066L154.77272727272728,44.26056533813477L155,44.71949241129557L155.22727272727272,45.455083241780606L155.45454545454547,34.35434075291951L155.68181818181816,46.81570297241211L155.9090909090909,44.12709974161784L156.13636363636363,43.94101220703126L156.36363636363637,44.4414860127767L156.5909090909091,44.316476430257154L156.81818181818184,43.48613931274413L157.04545454545453,45.671276540120445L157.27272727272728,47.337221750895175L157.5,45.53657332356771L157.72727272727272,45.47553701782227L157.95454545454547,43.68969657389322L158.1818181818182,39.112823771158865L158.4090909090909,43.162068008422864L158.63636363636363,43.38092802937825L158.86363636363637,43.47606724039714L159.0909090909091,42.6934708404541L159.31818181818184,61.555961303710944L159.54545454545453,39.35910201009115L159.77272727272725,47.0466327311198L160,42.51210065714518L160.22727272727272,46.44977123006184L160.45454545454547,35.462719606081656L160.6818181818182,43.47036169433595L160.9090909090909,41.05164745076498L161.13636363636363,45.10547052001953L161.36363636363637,40.12328122965495L161.5909090909091,35.48277773499488L161.8181818181818,40.590021062215165L162.04545454545456,47.575531962076816L162.27272727272725,38.06508357493083L162.5,44.25627305094402L162.72727272727272,49.0028944498698L162.95454545454547,42.996675074259436L163.1818181818182,44.808487884521476L163.4090909090909,39.0422414042155L163.63636363636363,45.06867508951824L163.86363636363635,44.01268824259439L164.0909090909091,43.01123363240559L164.3181818181818,41.60913461812338L164.54545454545456,43.66608582560221L164.77272727272725,45.162252563476564L165,42.7577053120931L165.22727272727272,47.027984232584636L165.45454545454547,45.46852323404947L165.6818181818182,63.48024770100911L165.90909090909093,44.58274037679036L166.13636363636363,47.52264294433593L166.36363636363635,45.99170243326823L166.5909090909091,47.255918172200516L166.8181818181818,49.14543351236979L167.04545454545456,51.247323364257824L167.27272727272728,68.58259025065105L167.5,62.07006160481772L167.72727272727272,57.60059647623699L167.95454545454547,69.48770967610677L168.1818181818182,61.32271836344401L168.4090909090909,55.486808451334646L168.63636363636363,64.74259840901692L168.86363636363635,57.89625095621746L169.0909090909091,59.92564180501303L169.3181818181818,55.013557759602854L169.54545454545456,56.69094303385416L169.77272727272728,57.940452189127605L170,61.82529530843099L170.22727272727272,53.907424214681L170.45454545454544,69.91045967610678L170.6818181818182,57.871369995117185L170.9090909090909,51.178746358235685L171.13636363636365,53.85743233235677L171.36363636363635,68.86886344401043L171.5909090909091,67.14855529785156L171.8181818181818,52.88072106933594L172.04545454545456,69.70588932291668L172.27272727272728,53.38045701090495L172.5,50.88722029622396L172.72727272727272,54.409993916829436L172.95454545454544,68.71238553873698L173.1818181818182,53.21591782633463L173.4090909090909,52.05626513671874L173.63636363636365,51.820144978841135L173.86363636363635,50.005931620279945L174.0909090909091,67.01534501139324L174.3181818181818,60.3925169881185L174.54545454545456,48.404305531819666L174.77272727272728,55.54594622802735L175,73.0265243733724L175.22727272727272,49.40637306722005L175.45454545454544,46.122667439778645L175.6818181818182,47.60566850789388L175.9090909090909,48.045048970540364L176.13636363636365,70.82939119466145L176.36363636363637,52.73889542643229L176.5909090909091,45.70604850260417L176.8181818181818,47.04393115234376L177.04545454545453,67.15271630859374L177.27272727272728,69.08469278971356L177.5,46.46710243733724L177.72727272727275,71.83115905761719L177.95454545454544,44.768846923828114L178.1818181818182,67.313203125L178.4090909090909,46.36087172444661L178.63636363636365,44.239180857340486L178.86363636363637,68.06714278157553L179.09090909090907,62.441112223307286L179.3181818181818,43.717184051513684L179.54545454545453,45.690170389811186L179.77272727272728,66.63101464843751L180,74.07020654296875L180.22727272727275,46.32588700358073L180.45454545454544,44.196927042643225L180.6818181818182,45.227946014404296L180.9090909090909,67.76058601888022L181.13636363636363,66.85717952473958L181.36363636363637,44.5101073811849L181.5909090909091,66.87446455891927L181.8181818181818,58.663196940104164L182.04545454545453,69.36086946614583L182.27272727272728,44.22535337320963L182.5,68.71300480143229L182.72727272727275,63.90688529459636L182.95454545454544,73.25524597167968L183.1818181818182,41.662686808268234L183.4090909090909,41.86033210245768L183.63636363636363,57.83210294596354L183.86363636363637,44.32624520874024L184.0909090909091,44.2534202779134L184.3181818181818,58.772165445963545L184.54545454545453,42.34342128499348L184.77272727272728,43.928335428873694L185,44.849990254720055L185.22727272727275,59.37970560709636L185.45454545454547,61.00810032145181L185.68181818181816,44.03091303507486L185.9090909090909,43.325762949625656L186.13636363636363,43.926380767822266L186.36363636363637,39.58124711100261L186.5909090909091,64.6038618367513L186.81818181818184,70.97039477539063L187.04545454545453,57.62374639892578L187.27272727272728,70.13744299316407L187.5,42.40436162312827L187.72727272727272,60.4194404296875L187.95454545454547,40.54224231974283L188.18181818181816,40.23463896687825L188.4090909090909,27.85548262532552L188.63636363636363,38.04894607798259L188.86363636363637,55.67278462727864L189.0909090909091,61.90031119791667L189.31818181818184,53.31194519042968L189.54545454545453,27.069508799235024L189.77272727272725,33.92405367406209L190,37.10185813776651L190.22727272727272,52.69165763346354L190.45454545454547,22.274125895182287L190.6818181818182,38.765636494954435L190.9090909090909,33.84640920003255L191.13636363636363,24.998415496826173L191.36363636363637,52.27884299723308L191.5909090909091,52.566240641276046L191.8181818181818,69.6058729654948L192.04545454545456,37.10911659367879L192.27272727272725,55.671504455566414L192.5,41.189869781494146L192.72727272727272,52.60951841227214L192.95454545454547,20.228482116699222L193.1818181818182,39.57936216227213L193.4090909090909,51.33485125732421L193.63636363636363,32.99279133605957L193.86363636363637,22.210982828776036L194.0909090909091,49.47673000081381L194.3181818181818,50.41192531331381L194.54545454545456,48.36101780192058L194.77272727272725,22.683545450846363L195,25.597305898030598L195.22727272727272,65.58622975667318L195.45454545454547,49.9934540201823L195.6818181818182,49.65148520914713L195.90909090909093,24.922500590006507L196.13636363636363,22.223885945638017L196.36363636363635,52.23473411051432L196.5909090909091,22.672082753499346L196.8181818181818,22.352321390787758L197.04545454545456,38.240638890584314L197.27272727272725,23.65690418497722L197.5,51.46618564860025L197.72727272727272,45.32087434895834L197.95454545454547,52.291606689453126L198.1818181818182,21.801918172200516L198.4090909090909,50.3565918375651L198.63636363636363,68.06240958658853L198.86363636363635,23.855244791666657L199.0909090909091,49.45444831339518L199.3181818181818,24.88100003051757L199.54545454545456,49.88812504069011L199.77272727272728,32.354056269327806L200,52.57880334472656L200.22727272727272,35.9171939462026L200.45454545454544,19.678741617838536L200.6818181818182,50.08243591308593L200.9090909090909,27.25660399373372L201.13636363636365,42.932871098836266L201.36363636363635,23.162221934000645L201.5909090909091,32.698784601847336L201.8181818181818,50.931082926432296L202.04545454545456,45.15162641398112L202.27272727272728,47.118239959716796L202.5,40.109205225626624L202.72727272727272,46.32086409505209L202.95454545454544,49.07556094360352L203.1818181818182,42.723396438598634L203.4090909090909,40.20590753173828L203.63636363636365,20.234573343912757L203.86363636363635,25.729553792317706L204.0909090909091,48.8704890238444L204.3181818181818,70.60088326009114L204.54545454545456,40.73063307698568L204.77272727272728,53.23485060628255L205,41.74368664042156L205.22727272727272,22.49104257202149L205.45454545454544,58.05831852213542L205.6818181818182,43.45356011962891L205.9090909090909,31.363972915649406L206.13636363636365,78.01062939453125L206.36363636363637,38.53489980316163L206.5909090909091,77.5686279296875L206.8181818181818,24.06829741414389L207.04545454545453,26.32395544433593L207.27272727272728,32.92290156555175L207.5,61.10425081380208L207.72727272727272,28.069915008544925L207.95454545454544,75.91906058756511L208.1818181818182,42.096664113362635L208.4090909090909,52.50192061360677L208.63636363636365,37.96637636057535L208.86363636363637,67.7014591064453L209.09090909090907,47.2509577331543L209.3181818181818,36.15212005424499L209.54545454545453,35.752998075008385L209.77272727272728,48.83660068766277L210,51.84940966796876L210.22727272727275,71.42102970377604L210.45454545454544,35.49643083222708L210.6818181818182,34.480238488515226L210.9090909090909,55.86916876220703L211.13636363636365,67.46918127441407L211.36363636363637,77.16235176595053L211.5909090909091,35.719464510599764L211.8181818181818,52.97740753173828L212.04545454545453,47.90740606689453L212.27272727272728,74.06713920084634L212.5,70.4600897216797L212.72727272727275,69.55954777018229L212.95454545454544,63.61423840332032L213.1818181818182,36.94766647974651L213.4090909090909,62.66944270833334L213.63636363636363,53.80981247965495L213.86363636363637,45.85438274129231L214.0909090909091,51.30798756917317L214.3181818181818,37.0015449371338L214.54545454545453,55.82341937255858L214.77272727272728,42.80976321411132L215,54.12532682291666L215.22727272727275,36.67136033757529L215.45454545454547,52.63893882242838L215.68181818181816,77.34292297363281L215.9090909090909,50.7099174194336L216.13636363636363,75.75749096679687L216.36363636363637,53.67116644287109L216.5909090909091,55.690640034993486L216.8181818181818,36.28902780977885L217.04545454545453,51.572686157226556L217.27272727272728,72.44934619140625L217.5,67.38971647135416L217.72727272727272,56.61209930419922L217.95454545454547,58.764871907552084L218.18181818181816,38.870570513407394L218.4090909090909,56.030162577311195L218.63636363636363,51.94932281494141L218.86363636363637,61.22769232177735L219.0909090909091,56.4697177734375L219.31818181818184,60.97111295572917L219.54545454545453,37.066141098022456L219.77272727272728,37.91080522918701L220,52.2443344930013L220.22727272727272,53.872084594726566L220.45454545454547,65.58291796875L220.6818181818182,56.50220914713542L220.9090909090909,57.511868082682284L221.13636363636363,62.6897335205078L221.36363636363637,49.99067820231119L221.5909090909091,63.29482741292317L221.81818181818184,55.06137860107421L222.04545454545453,62.695697998046874L222.27272727272725,63.125433715820314L222.5,67.3174474283854L222.72727272727272,56.63700380452474L222.95454545454547,75.78058475748698L223.1818181818182,51.682369893391936L223.4090909090909,66.38677526855467L223.63636363636363,66.45037825520834L223.86363636363637,63.97642559814453L224.0909090909091,63.09102842203775L224.3181818181818,65.36335856119791L224.54545454545456,81.6400157877604L224.77272727272725,69.37200533040365L225,59.76294954427084L225.22727272727272,65.93689540608723L225.45454545454547,62.54264233398438L225.6818181818182,67.39817610677083L225.9090909090909,63.52623791503906L226.13636363636363,64.98937278238931L226.36363636363635,67.16582946777343L226.5909090909091,69.74660856119792L226.8181818181818,67.71441654459636L227.04545454545456,67.11583939615886L227.27272727272725,70.00266463216145L227.5,67.57395617675782L227.72727272727272,53.512028605143236L227.95454545454547,77.56665063476562L228.1818181818182,69.19912239583334L228.40909090909093,67.13376542154948L228.63636363636363,73.21618534342448L228.86363636363635,80.06307600911458L229.0909090909091,54.81132503255208L229.3181818181818,72.21732548014323L229.54545454545456,71.2232169189453L229.77272727272728,67.53525769042969L230,70.92480472819011L230.22727272727272,82.59313712565105L230.45454545454547,71.06865836588543" style="fill: none;" fill="none"></path></g></g></g></g></g><g><g opacity="0.00546708"><span fill="rgb(0, 0, 0)" stroke="none" stroke-width="1px">Alt + Scroll to Zoom</span></g></g></g><g transform="translate(80, 178)" clip-path="url(#clip_1)"><clipPath id="clip_1"><rect width="250" height="22"></rect></clipPath><g><g><line x1="0" y1="0" x2="0" y2="5" style="visibility: inherit;" fill="rgb(0, 0, 0)" stroke="rgb(204, 204, 204)" stroke-width="1px"></line><line x1="22.727272727272727" y1="0" x2="22.727272727272727" y2="5" style="visibility: inherit;" fill="rgb(0, 0, 0)" stroke="rgb(204, 204, 204)" stroke-width="1px"></line><line x1="45.45454545454545" y1="0" x2="45.45454545454545" y2="5" style="visibility: inherit;" fill="rgb(0, 0, 0)" stroke="rgb(204, 204, 204)" stroke-width="1px"></line><line x1="68.18181818181817" y1="0" x2="68.18181818181817" y2="5" style="visibility: inherit;" fill="rgb(0, 0, 0)" stroke="rgb(204, 204, 204)" stroke-width="1px"></line><line x1="90.9090909090909" y1="0" x2="90.9090909090909" y2="5" style="visibility: inherit;" fill="rgb(0, 0, 0)" stroke="rgb(204, 204, 204)" stroke-width="1px"></line><line x1="113.63636363636363" y1="0" x2="113.63636363636363" y2="5" style="visibility: inherit;" fill="rgb(0, 0, 0)" stroke="rgb(204, 204, 204)" stroke-width="1px"></line><line x1="136.36363636363635" y1="0" x2="136.36363636363635" y2="5" style="visibility: inherit;" fill="rgb(0, 0, 0)" stroke="rgb(204, 204, 204)" stroke-width="1px"></line><line x1="159.0909090909091" y1="0" x2="159.0909090909091" y2="5" style="visibility: inherit;" fill="rgb(0, 0, 0)" stroke="rgb(204, 204, 204)" stroke-width="1px"></line><line x1="181.8181818181818" y1="0" x2="181.8181818181818" y2="5" style="visibility: inherit;" fill="rgb(0, 0, 0)" stroke="rgb(204, 204, 204)" stroke-width="1px"></line><line x1="204.54545454545456" y1="0" x2="204.54545454545456" y2="5" style="visibility: inherit;" fill="rgb(0, 0, 0)" stroke="rgb(204, 204, 204)" stroke-width="1px"></line><line x1="227.27272727272725" y1="0" x2="227.27272727272725" y2="5" style="visibility: inherit;" fill="rgb(0, 0, 0)" stroke="rgb(204, 204, 204)" stroke-width="1px"></line><line x1="250" y1="0" x2="250" y2="5" style="visibility: inherit;" fill="rgb(0, 0, 0)" stroke="rgb(204, 204, 204)" stroke-width="1px"></line></g><g transform="translate(0, 8)"><text x="0" y="0" dx="0em" dy="0.95em" style="text-anchor: middle; visibility: hidden; font-family: Roboto, sans-serif; font-size: 12px; font-weight: 200;" fill="rgb(50, 49, 63)" stroke="none" stroke-width="1px">-100</text><text x="22.727272727272727" y="0" dx="0em" dy="0.95em" style="text-anchor: middle; visibility: inherit; font-family: Roboto, sans-serif; font-size: 12px; font-weight: 200;" fill="rgb(50, 49, 63)" stroke="none" stroke-width="1px">0</text><text x="45.45454545454545" y="0" dx="0em" dy="0.95em" style="text-anchor: middle; visibility: hidden; font-family: Roboto, sans-serif; font-size: 12px; font-weight: 200;" fill="rgb(50, 49, 63)" stroke="none" stroke-width="1px">100</text><text x="68.18181818181817" y="0" dx="0em" dy="0.95em" style="text-anchor: middle; visibility: inherit; font-family: Roboto, sans-serif; font-size: 12px; font-weight: 200;" fill="rgb(50, 49, 63)" stroke="none" stroke-width="1px">200</text><text x="90.9090909090909" y="0" dx="0em" dy="0.95em" style="text-anchor: middle; visibility: hidden; font-family: Roboto, sans-serif; font-size: 12px; font-weight: 200;" fill="rgb(50, 49, 63)" stroke="none" stroke-width="1px">300</text><text x="113.63636363636363" y="0" dx="0em" dy="0.95em" style="text-anchor: middle; visibility: inherit; font-family: Roboto, sans-serif; font-size: 12px; font-weight: 200;" fill="rgb(50, 49, 63)" stroke="none" stroke-width="1px">400</text><text x="136.36363636363635" y="0" dx="0em" dy="0.95em" style="text-anchor: middle; visibility: hidden; font-family: Roboto, sans-serif; font-size: 12px; font-weight: 200;" fill="rgb(50, 49, 63)" stroke="none" stroke-width="1px">500</text><text x="159.0909090909091" y="0" dx="0em" dy="0.95em" style="text-anchor: middle; visibility: inherit; font-family: Roboto, sans-serif; font-size: 12px; font-weight: 200;" fill="rgb(50, 49, 63)" stroke="none" stroke-width="1px">600</text><text x="181.8181818181818" y="0" dx="0em" dy="0.95em" style="text-anchor: middle; visibility: hidden; font-family: Roboto, sans-serif; font-size: 12px; font-weight: 200;" fill="rgb(50, 49, 63)" stroke="none" stroke-width="1px">700</text><text x="204.54545454545456" y="0" dx="0em" dy="0.95em" style="text-anchor: middle; visibility: inherit; font-family: Roboto, sans-serif; font-size: 12px; font-weight: 200;" fill="rgb(50, 49, 63)" stroke="none" stroke-width="1px">800</text><text x="227.27272727272725" y="0" dx="0em" dy="0.95em" style="text-anchor: middle; visibility: hidden; font-family: Roboto, sans-serif; font-size: 12px; font-weight: 200;" fill="rgb(50, 49, 63)" stroke="none" stroke-width="1px">900</text><text x="250" y="0" dx="0em" dy="0.95em" style="text-anchor: middle; visibility: hidden; font-family: Roboto, sans-serif; font-size: 12px; font-weight: 200;" fill="rgb(50, 49, 63)" stroke="none" stroke-width="1px">1k</text></g><line x1="0" y1="0" x2="250" y2="0" fill="rgb(0, 0, 0)" stroke="rgb(204, 204, 204)" stroke-width="1px"></line></g></g></g></g></svg>