<svg viewBox="0 0 330 200" xmlns="http://www.w3.org/2000/svg"><g><g><g><g><g><line x1="50" y1="178" x2="45" y2="178" style="visibility: inherit;" fill="rgb(0, 0, 0)" stroke="rgb(204, 204, 204)" stroke-width="1px"></line><line x1="50" y1="160.20000000000002" x2="45" y2="160.20000000000002" style="visibility: inherit;" fill="rgb(0, 0, 0)" stroke="rgb(204, 204, 204)" stroke-width="1px"></line><line x1="50" y1="142.4" x2="45" y2="142.4" style="visibility: inherit;" fill="rgb(0, 0, 0)" stroke="rgb(204, 204, 204)" stroke-width="1px"></line><line x1="50" y1="124.6" x2="45" y2="124.6" style="visibility: inherit;" fill="rgb(0, 0, 0)" stroke="rgb(204, 204, 204)" stroke-width="1px"></line><line x1="50" y1="106.8" x2="45" y2="106.8" style="visibility: inherit;" fill="rgb(0, 0, 0)" stroke="rgb(204, 204, 204)" stroke-width="1px"></line><line x1="50" y1="89" x2="45" y2="89" style="visibility: inherit;" fill="rgb(0, 0, 0)" stroke="rgb(204, 204, 204)" stroke-width="1px"></line><line x1="50" y1="71.2" x2="45" y2="71.2" style="visibility: inherit;" fill="rgb(0, 0, 0)" stroke="rgb(204, 204, 204)" stroke-width="1px"></line><line x1="50" y1="53.400000000000006" x2="45" y2="53.400000000000006" style="visibility: inherit;" fill="rgb(0, 0, 0)" stroke="rgb(204, 204, 204)" stroke-width="1px"></line><line x1="50" y1="35.599999999999994" x2="45" y2="35.599999999999994" style="visibility: inherit;" fill="rgb(0, 0, 0)" stroke="rgb(204, 204, 204)" stroke-width="1px"></line><line x1="50" y1="17.799999999999997" x2="45" y2="17.799999999999997" style="visibility: inherit;" fill="rgb(0, 0, 0)" stroke="rgb(204, 204, 204)" stroke-width="1px"></line><line x1="50" y1="0" x2="45" y2="0" style="visibility: inherit;" fill="rgb(0, 0, 0)" stroke="rgb(204, 204, 204)" stroke-width="1px"></line></g><g transform="translate(40, 0)"><text x="0" y="178" dx="0em" dy="0.3em" style="text-anchor: end; visibility: hidden; font-family: Roboto, sans-serif; font-size: 12px; font-weight: 200;" fill="rgb(50, 49, 63)" stroke="none" stroke-width="1px">-3</text><text x="0" y="160.20000000000002" dx="0em" dy="0.3em" style="text-anchor: end; visibility: inherit; font-family: Roboto, sans-serif; font-size: 12px; font-weight: 200;" fill="rgb(50, 49, 63)" stroke="none" stroke-width="1px">-2.5</text><text x="0" y="142.4" dx="0em" dy="0.3em" style="text-anchor: end; visibility: hidden; font-family: Roboto, sans-serif; font-size: 12px; font-weight: 200;" fill="rgb(50, 49, 63)" stroke="none" stroke-width="1px">-2</text><text x="0" y="124.6" dx="0em" dy="0.3em" style="text-anchor: end; visibility: inherit; font-family: Roboto, sans-serif; font-size: 12px; font-weight: 200;" fill="rgb(50, 49, 63)" stroke="none" stroke-width="1px">-1.5</text><text x="0" y="106.8" dx="0em" dy="0.3em" style="text-anchor: end; visibility: hidden; font-family: Roboto, sans-serif; font-size: 12px; font-weight: 200;" fill="rgb(50, 49, 63)" stroke="none" stroke-width="1px">-1</text><text x="0" y="89" dx="0em" dy="0.3em" style="text-anchor: end; visibility: inherit; font-family: Roboto, sans-serif; font-size: 12px; font-weight: 200;" fill="rgb(50, 49, 63)" stroke="none" stroke-width="1px">-0.5</text><text x="0" y="71.2" dx="0em" dy="0.3em" style="text-anchor: end; visibility: hidden; font-family: Roboto, sans-serif; font-size: 12px; font-weight: 200;" fill="rgb(50, 49, 63)" stroke="none" stroke-width="1px">0</text><text x="0" y="53.400000000000006" dx="0em" dy="0.3em" style="text-anchor: end; visibility: inherit; font-family: Roboto, sans-serif; font-size: 12px; font-weight: 200;" fill="rgb(50, 49, 63)" stroke="none" stroke-width="1px">0.5</text><text x="0" y="35.599999999999994" dx="0em" dy="0.3em" style="text-anchor: end; visibility: hidden; font-family: Roboto, sans-serif; font-size: 12px; font-weight: 200;" fill="rgb(50, 49, 63)" stroke="none" stroke-width="1px">1</text><text x="0" y="17.799999999999997" dx="0em" dy="0.3em" style="text-anchor: end; visibility: inherit; font-family: Roboto, sans-serif; font-size: 12px; font-weight: 200;" fill="rgb(50, 49, 63)" stroke="none" stroke-width="1px">1.5</text><text x="0" y="0" dx="0em" dy="0.3em" style="text-anchor: end; visibility: hidden; font-family: Roboto, sans-serif; font-size: 12px; font-weight: 200;" fill="rgb(50, 49, 63)" stroke="none" stroke-width="1px">2</text></g><line x1="50" y1="0" x2="50" y2="178" fill="rgb(0, 0, 0)" stroke="rgb(204, 204, 204)" stroke-width="1px"></line></g></g><g transform="translate(50, 0)" clip-path="url(#clip_0)"><clipPath id="clip_0"><rect width="280" height="178"></rect></clipPath><g><g><g><line x1="0" y1="0" x2="0" y2="178" fill="rgb(0, 0, 0)" stroke="rgb(60, 60, 60)" stroke-width="1px" opacity="0.25"></line><line x1="31.11111111111111" y1="0" x2="31.11111111111111" y2="178" fill="rgb(0, 0, 0)" stroke="rgb(60, 60, 60)" stroke-width="1px" opacity="0.25"></line><line x1="62.22222222222222" y1="0" x2="62.22222222222222" y2="178" fill="rgb(0, 0, 0)" stroke="rgb(60, 60, 60)" stroke-width="1px" opacity="0.25"></line><line x1="93.33333333333333" y1="0" x2="93.33333333333333" y2="178" fill="rgb(0, 0, 0)" stroke="rgb(60, 60, 60)" stroke-width="1px" opacity="0.25"></line><line x1="124.44444444444444" y1="0" x2="124.44444444444444" y2="178" fill="rgb(0, 0, 0)" stroke="rgb(60, 60, 60)" stroke-width="1px" opacity="0.25"></line><line x1="155.55555555555557" y1="0" x2="155.55555555555557" y2="178" fill="rgb(0, 0, 0)" stroke="rgb(60, 60, 60)" stroke-width="1px" opacity="0.25"></line><line x1="186.66666666666666" y1="0" x2="186.66666666666666" y2="178" fill="rgb(0, 0, 0)" stroke="rgb(60, 60, 60)" stroke-width="1px" opacity="0.25"></line><line x1="217.77777777777777" y1="0" x2="217.77777777777777" y2="178" fill="rgb(0, 0, 0)" stroke="rgb(60, 60, 60)" stroke-width="1px" opacity="0.25"></line><line x1="248.88888888888889" y1="0" x2="248.88888888888889" y2="178" fill="rgb(0, 0, 0)" stroke="rgb(60, 60, 60)" stroke-width="1px" opacity="0.25"></line><line x1="280" y1="0" x2="280" y2="178" fill="rgb(0, 0, 0)" stroke="rgb(60, 60, 60)" stroke-width="1px" opacity="0.25"></line></g><g><line x1="0" y1="178" x2="280" y2="178" fill="rgb(0, 0, 0)" stroke="rgb(60, 60, 60)" stroke-width="1px" opacity="0.25"></line><line x1="0" y1="160.20000000000002" x2="280" y2="160.20000000000002" fill="rgb(0, 0, 0)" stroke="rgb(60, 60, 60)" stroke-width="1px" opacity="0.25"></line><line x1="0" y1="142.4" x2="280" y2="142.4" fill="rgb(0, 0, 0)" stroke="rgb(60, 60, 60)" stroke-width="1px" opacity="0.25"></line><line x1="0" y1="124.6" x2="280" y2="124.6" fill="rgb(0, 0, 0)" stroke="rgb(60, 60, 60)" stroke-width="1px" opacity="0.25"></line><line x1="0" y1="106.8" x2="280" y2="106.8" fill="rgb(0, 0, 0)" stroke="rgb(60, 60, 60)" stroke-width="1px" opacity="0.25"></line><line x1="0" y1="89" x2="280" y2="89" fill="rgb(0, 0, 0)" stroke="rgb(60, 60, 60)" stroke-width="1px" opacity="0.25"></line><line x1="0" y1="71.2" x2="280" y2="71.2" fill="rgb(0, 0, 0)" stroke="rgb(60, 60, 60)" stroke-width="1px" opacity="0.25"></line><line x1="0" y1="53.400000000000006" x2="280" y2="53.400000000000006" fill="rgb(0, 0, 0)" stroke="rgb(60, 60, 60)" stroke-width="1px" opacity="0.25"></line><line x1="0" y1="35.599999999999994" x2="280" y2="35.599999999999994" fill="rgb(0, 0, 0)" stroke="rgb(60, 60, 60)" stroke-width="1px" opacity="0.25"></line><line x1="0" y1="17.799999999999997" x2="280" y2="17.799999999999997" fill="rgb(0, 0, 0)" stroke="rgb(60, 60, 60)" stroke-width="1px" opacity="0.25"></line><line x1="0" y1="0" x2="280" y2="0" fill="rgb(0, 0, 0)" stroke="rgb(60, 60, 60)" stroke-width="1px" opacity="0.25"></line></g></g></g><g><g><line x1="0" y1="71.2" x2="280" y2="71.2" fill="rgb(0, 0, 0)" stroke="rgb(153, 153, 153)" stroke-width="1.5px"></line></g></g><g><g><line x1="31.11111111111111" y1="0" x2="31.11111111111111" y2="178" fill="rgb(0, 0, 0)" stroke="rgb(153, 153, 153)" stroke-width="1.5px"></line></g></g><g><g><g><g><g><path stroke="rgb(204, 51, 17)" stroke-width="2px" d="M31.11111111111111,142.43559741973877L32.666666666666664,142.43559741973877L34.22222222222222,137.07143416383178L35.77777777777777,119.53484700375033L37.333333333333336,112.3184136421094L38.88888888888889,112.15833886640559L40.44444444444444,110.63600769507168L42,121.00713083011L43.55555555555556,88.06749287197208L45.111111111111114,98.50453753140265L46.666666666666664,103.1257060530438L48.22222222222222,105.17240470413982L49.77777777777778,106.09882885598907L51.33333333333333,106.48938556181315L52.888888888888886,106.68222888827098L54.44444444444444,106.74782754183336L56,69.57727242682088L57.55555555555555,90.31034063729965L59.111111111111114,99.49508265918618L60.66666666666667,103.56392196280187L62.22222222222222,105.36641749718441L63.77777777777778,126.01395105740754L65.33333333333333,115.31178023958954L66.88888888888889,110.63020664689283L68.44444444444444,109.2899487862119L70,108.75570257155893L71.55555555555554,124.7988043062391L73.11111111111111,114.77347030640384L74.66666666666667,110.51070902977422L76.22222222222221,111.16044380051383L77.77777777777779,111.1706687142139L79.33333333333333,108.775864129799L80.88888888888889,118.26410138485585L82.44444444444444,114.09946708656L84,72.93323088006885L85.55555555555556,91.797021279874L87.11111111111111,105.17046844301848L88.66666666666666,69.1958052365969L90.22222222222223,56.649822711795636L91.77777777777777,50.12032234354571L93.33333333333333,42.944646073833106L94.8888888888889,39.90462528121131L96.44444444444444,38.22080046432498L98,76.41941460569599L99.55555555555556,93.38105855973714L101.11111111111111,100.87523906858289L102.66666666666666,66.00412067099974L104.22222222222223,88.72742545725289L105.77777777777777,61.57444158814919L107.33333333333334,48.61369633187452L108.88888888888889,43.56610870338633L110.44444444444444,86.00521421808678L112,58.62353241865392L113.55555555555556,46.90985994800009L115.1111111111111,46.678003043500446L116.66666666666667,43.501765002125076L118.22222222222223,40.50835469881884L119.77777777777777,38.68654440721916L121.33333333333334,37.304435960065355L122.88888888888889,40.51919670482049L124.44444444444444,39.9207573525682L126,39.29872298714625L127.55555555555556,40.98625329132239L129.11111111111111,40.20698038112862L130.66666666666666,39.36603295467776L132.22222222222223,41.729923071687224L133.77777777777777,40.199330488075404L135.33333333333334,38.98588937497408L136.88888888888889,39.87603670945454L138.44444444444446,44.91040531758145L140,40.12109317747662L141.55555555555554,38.792596324898646L143.1111111111111,40.385284502865574L144.66666666666669,39.266558814420144L146.22222222222223,38.21574579117061L147.77777777777777,40.34786047202498L149.33333333333334,40.380244000001085L150.88888888888889,77.37604809200049L152.44444444444443,56.625097194170046L154,85.16739348969935L155.55555555555557,63.74506525262714L157.11111111111111,50.527084962206914L158.66666666666666,42.728258292112045L160.2222222222222,78.45587631281947L161.77777777777777,56.865511395685004L163.33333333333334,46.98371189443408L164.88888888888889,42.76470863686011L166.44444444444446,48.54976094935577L168,80.9951441005646L169.55555555555554,57.69296930931509L171.11111111111111,50.3444854040266L172.66666666666669,48.49697983686121L174.22222222222223,44.50586353247791L175.77777777777777,40.99282941909138L177.33333333333331,39.85296787335611L178.88888888888889,42.59999868937694L180.44444444444446,78.359399419394L182,61.70075517115742L183.55555555555554,50.097356178643956L185.11111111111111,50.25144721262774L186.66666666666666,43.55795193410469L188.22222222222223,78.78377270680836L189.7777777777778,61.51199786040092L191.33333333333334,52.07597294157143L192.88888888888889,82.55725601311615L194.44444444444443,63.560405642176356L196,52.98341758889796L197.55555555555557,45.48206627554077L199.11111111111111,41.2071652967549L200.66666666666666,77.74237422646242L202.22222222222223,55.87523639609431L203.77777777777777,84.24032972346977L205.33333333333331,61.272139752594796L206.8888888888889,48.4401187293101L208.44444444444446,80.94657259708437L210,56.30323721980975L211.55555555555554,48.400278246238386L213.1111111111111,47.12013759401908L214.66666666666669,45.224478261036175L216.22222222222223,42.30263598022519L217.77777777777777,40.43321217993838L219.33333333333334,46.56510685388322L220.88888888888889,41.54814847809976L222.44444444444443,38.710930358326316L224,47.844543904751L225.55555555555557,80.68273294980469L227.11111111111111,57.81234981454321L228.66666666666666,49.52488558161408L230.2222222222222,81.42712431265504L231.77777777777777,57.190314023229696L233.33333333333334,46.71118689194143L234.88888888888889,41.037815446984425L236.44444444444446,39.357338211770774L238,40.59580608742369L239.55555555555554,40.866838584703814L241.11111111111111,43.62418990247908L242.66666666666669,44.270650048278405L244.22222222222223,42.15769885360761L245.77777777777777,42.490729300472594L247.33333333333331,44.502207411044836L248.88888888888889,40.45582115873526L250.44444444444446,43.58091415954831L252,41.35641514575271L253.55555555555554,77.80849190956846L255.11111111111111,57.014962798159104L256.66666666666663,45.70153407888586L258.22222222222223,79.73337959694643L259.77777777777777,56.182205287243576L261.3333333333333,49.576071036801906L262.8888888888889,43.437223154400925L264.44444444444446,78.73028985739961L266,62.003863430054764L267.55555555555554,58.67887231842486" style="fill: none;" fill="none"></path></g></g></g></g><g opacity="0.2"><g><g><g><path stroke="rgb(204, 51, 17)" stroke-width="2px" d="M31.11111111111111,142.43559741973877L32.666666666666664,142.43559741973877L34.22222222222222,133.64239816665648L35.77777777777777,106.8L37.333333333333336,106.8L38.88888888888889,112.03319840431213L40.44444444444444,109.43440003395081L42,129.22799983024598L43.55555555555556,61.90839973688125L45.111111111111114,106.8L46.666666666666664,106.8L48.22222222222222,106.8L49.77777777777778,106.83560166358947L51.33333333333333,106.8L52.888888888888886,106.83560166358947L54.44444444444444,106.8L56,40.01440045833587L57.55555555555555,106.8L59.111111111111114,106.8L60.66666666666667,106.8L62.22222222222222,106.8L63.77777777777778,142.43559741973877L65.33333333333333,106.8L66.88888888888889,106.90680074691772L68.44444444444444,108.22399864196777L70,108.3307993888855L71.55555555555554,137.5583986759186L73.11111111111111,106.8L74.66666666666667,107.12039799690247L76.22222222222221,111.67719874382018L77.77777777777779,111.17880091667175L79.33333333333333,106.87119908332825L80.88888888888889,125.81040139198304L82.44444444444444,110.78719959259033L84,40.19240028858185L85.55555555555556,106.8L87.11111111111111,115.80680074691773L88.66666666666666,40.58399949073791L90.22222222222223,46.67159962654114L91.77777777777777,44.92720086574555L93.33333333333333,37.23760013580322L94.8888888888889,37.48679904937744L96.44444444444444,36.881600475311274L98,106.8L99.55555555555556,106.87119908332825L101.11111111111111,106.83560166358947L102.66666666666666,38.26999957561493L104.22222222222223,106.8L105.77777777777777,39.97880091667176L107.33333333333334,38.30559911727906L108.88888888888889,39.55160005092621L110.44444444444444,119.75839867591858L112,36.84600093364716L113.55555555555556,37.593599796295166L115.1111111111111,46.49359979629517L116.66666666666667,40.97560081481933L118.22222222222223,38.12759928703308L119.77777777777777,37.23760013580322L121.33333333333334,36.20520069599152L122.88888888888889,43.07599923610687L124.44444444444444,39.444799304008484L126,38.803999066352844L127.55555555555556,42.32840037345886L129.11111111111111,39.58719959259034L130.66666666666666,38.69720044136048L132.22222222222223,43.61000084877014L133.77777777777777,38.98200101852417L135.33333333333334,38.02080066204071L136.88888888888889,40.58399949073791L138.44444444444446,48.91440045833588L140,36.31199932098389L141.55555555555554,37.73600008487702L143.1111111111111,41.652000594139096L144.66666666666669,38.37680032253266L146.22222222222223,37.380000424385074L147.77777777777777,42.04359979629517L149.33333333333334,40.40599966049194L150.88888888888889,106.8L152.44444444444443,40.12119908332825L154,107.86799898147584L155.55555555555557,46.707199168205264L157.11111111111111,40.01440045833587L158.66666666666666,36.52560081481934L160.2222222222222,106.87119908332825L161.77777777777777,39.69400033950805L163.33333333333334,39.124399185180664L164.88888888888889,39.40919976234436L166.44444444444446,53.150798964500424L168,106.8L169.55555555555554,39.16000084877014L171.11111111111111,44.5L172.66666666666669,47.027599287033084L174.22222222222223,41.33160047531128L175.77777777777777,38.19880049228668L177.33333333333331,38.9463993549347L178.88888888888889,44.78480057716369L180.44444444444446,106.8L182,48.4516000509262L183.55555555555554,40.86880006790162L185.11111111111111,50.37400076389312L186.66666666666666,38.234400033950806L188.22222222222223,106.8L189.7777777777778,47.77520027160645L191.33333333333334,44.57119908332825L192.88888888888889,106.8L194.44444444444443,48.4516000509262L196,44.57119908332825L197.55555555555557,39.516000509262085L199.11111111111111,37.80719916820526L200.66666666666666,106.8L202.22222222222223,38.483598947525024L203.77777777777777,106.8L205.33333333333331,43.00480015277863L206.8888888888889,38.234400033950806L208.44444444444446,106.8L210,36.70360064506531L211.55555555555554,42.11480100154877L213.1111111111111,46.1020005941391L214.66666666666669,43.71679947376251L216.22222222222223,39.97880091667176L217.77777777777777,38.9463993549347L219.33333333333334,51.44199974536896L220.88888888888889,37.55800025463104L222.44444444444443,36.45439960956574L224,55.108800280094144L225.55555555555557,106.8L227.11111111111111,39.62279913425445L228.66666666666666,42.93359894752503L230.2222222222222,106.8L231.77777777777777,37.913999915122986L233.33333333333334,38.37680032253266L234.88888888888889,36.52560081481934L236.44444444444446,38.02080066204071L238,41.580799388885495L239.55555555555554,41.08239943981171L241.11111111111111,45.817200016975406L242.66666666666669,44.78480057716369L244.22222222222223,40.477200865745544L245.77777777777777,42.75559911727905L247.33333333333331,46.1020005941391L248.88888888888889,37.23760013580322L250.44444444444446,46.06640105247497L252,39.58719959259034L253.55555555555554,106.8L255.11111111111111,40.477200865745544L256.66666666666663,36.70360064506531L258.22222222222223,106.8L259.77777777777777,37.45119950771331L261.3333333333333,44.322000169754034L262.8888888888889,38.554800152778625L264.44444444444446,106.8L266,48.70079896450042L267.55555555555554,56.0344000339508" style="fill: none;" fill="none"></path></g></g></g></g></g><g><g><span fill="rgb(0, 0, 0)" stroke="none" stroke-width="1px">Alt + Scroll to Zoom</span></g></g></g><g transform="translate(50, 178)" clip-path="url(#clip_1)"><clipPath id="clip_1"><rect width="280" height="22"></rect></clipPath><g><g><line x1="0" y1="0" x2="0" y2="5" style="visibility: inherit;" fill="rgb(0, 0, 0)" stroke="rgb(204, 204, 204)" stroke-width="1px"></line><line x1="31.11111111111111" y1="0" x2="31.11111111111111" y2="5" style="visibility: inherit;" fill="rgb(0, 0, 0)" stroke="rgb(204, 204, 204)" stroke-width="1px"></line><line x1="62.22222222222222" y1="0" x2="62.22222222222222" y2="5" style="visibility: inherit;" fill="rgb(0, 0, 0)" stroke="rgb(204, 204, 204)" stroke-width="1px"></line><line x1="93.33333333333333" y1="0" x2="93.33333333333333" y2="5" style="visibility: inherit;" fill="rgb(0, 0, 0)" stroke="rgb(204, 204, 204)" stroke-width="1px"></line><line x1="124.44444444444444" y1="0" x2="124.44444444444444" y2="5" style="visibility: inherit;" fill="rgb(0, 0, 0)" stroke="rgb(204, 204, 204)" stroke-width="1px"></line><line x1="155.55555555555557" y1="0" x2="155.55555555555557" y2="5" style="visibility: inherit;" fill="rgb(0, 0, 0)" stroke="rgb(204, 204, 204)" stroke-width="1px"></line><line x1="186.66666666666666" y1="0" x2="186.66666666666666" y2="5" style="visibility: inherit;" fill="rgb(0, 0, 0)" stroke="rgb(204, 204, 204)" stroke-width="1px"></line><line x1="217.77777777777777" y1="0" x2="217.77777777777777" y2="5" style="visibility: inherit;" fill="rgb(0, 0, 0)" stroke="rgb(204, 204, 204)" stroke-width="1px"></line><line x1="248.88888888888889" y1="0" x2="248.88888888888889" y2="5" style="visibility: inherit;" fill="rgb(0, 0, 0)" stroke="rgb(204, 204, 204)" stroke-width="1px"></line><line x1="280" y1="0" x2="280" y2="5" style="visibility: inherit;" fill="rgb(0, 0, 0)" stroke="rgb(204, 204, 204)" stroke-width="1px"></line></g><g transform="translate(0, 8)"><text x="0" y="0" dx="0em" dy="0.95em" style="text-anchor: middle; visibility: hidden; font-family: Roboto, sans-serif; font-size: 12px; font-weight: 200;" fill="rgb(50, 49, 63)" stroke="none" stroke-width="1px">-20</text><text x="31.11111111111111" y="0" dx="0em" dy="0.95em" style="text-anchor: middle; visibility: inherit; font-family: Roboto, sans-serif; font-size: 12px; font-weight: 200;" fill="rgb(50, 49, 63)" stroke="none" stroke-width="1px">0</text><text x="62.22222222222222" y="0" dx="0em" dy="0.95em" style="text-anchor: middle; visibility: inherit; font-family: Roboto, sans-serif; font-size: 12px; font-weight: 200;" fill="rgb(50, 49, 63)" stroke="none" stroke-width="1px">20</text><text x="93.33333333333333" y="0" dx="0em" dy="0.95em" style="text-anchor: middle; visibility: inherit; font-family: Roboto, sans-serif; font-size: 12px; font-weight: 200;" fill="rgb(50, 49, 63)" stroke="none" stroke-width="1px">40</text><text x="124.44444444444444" y="0" dx="0em" dy="0.95em" style="text-anchor: middle; visibility: inherit; font-family: Roboto, sans-serif; font-size: 12px; font-weight: 200;" fill="rgb(50, 49, 63)" stroke="none" stroke-width="1px">60</text><text x="155.55555555555557" y="0" dx="0em" dy="0.95em" style="text-anchor: middle; visibility: inherit; font-family: Roboto, sans-serif; font-size: 12px; font-weight: 200;" fill="rgb(50, 49, 63)" stroke="none" stroke-width="1px">80</text><text x="186.66666666666666" y="0" dx="0em" dy="0.95em" style="text-anchor: middle; visibility: inherit; font-family: Roboto, sans-serif; font-size: 12px; font-weight: 200;" fill="rgb(50, 49, 63)" stroke="none" stroke-width="1px">100</text><text x="217.77777777777777" y="0" dx="0em" dy="0.95em" style="text-anchor: middle; visibility: inherit; font-family: Roboto, sans-serif; font-size: 12px; font-weight: 200;" fill="rgb(50, 49, 63)" stroke="none" stroke-width="1px">120</text><text x="248.88888888888889" y="0" dx="0em" dy="0.95em" style="text-anchor: middle; visibility: inherit; font-family: Roboto, sans-serif; font-size: 12px; font-weight: 200;" fill="rgb(50, 49, 63)" stroke="none" stroke-width="1px">140</text><text x="280" y="0" dx="0em" dy="0.95em" style="text-anchor: middle; visibility: hidden; font-family: Roboto, sans-serif; font-size: 12px; font-weight: 200;" fill="rgb(50, 49, 63)" stroke="none" stroke-width="1px">160</text></g><line x1="0" y1="0" x2="280" y2="0" fill="rgb(0, 0, 0)" stroke="rgb(204, 204, 204)" stroke-width="1px"></line></g></g></g></g></svg>