<svg viewBox="0 0 330 200" xmlns="http://www.w3.org/2000/svg"><g><g><g><g><g><line x1="29.4375" y1="161.21324242456217" x2="24.4375" y2="161.21324242456217" style="visibility: inherit;" fill="rgb(0, 0, 0)" stroke="rgb(204, 204, 204)" stroke-width="1px"></line><line x1="29.4375" y1="140.10826668146638" x2="24.4375" y2="140.10826668146638" style="visibility: inherit;" fill="rgb(0, 0, 0)" stroke="rgb(204, 204, 204)" stroke-width="1px"></line><line x1="29.4375" y1="119.00329093837055" x2="24.4375" y2="119.00329093837055" style="visibility: inherit;" fill="rgb(0, 0, 0)" stroke="rgb(204, 204, 204)" stroke-width="1px"></line><line x1="29.4375" y1="97.89831519527476" x2="24.4375" y2="97.89831519527476" style="visibility: inherit;" fill="rgb(0, 0, 0)" stroke="rgb(204, 204, 204)" stroke-width="1px"></line><line x1="29.4375" y1="76.79333945217894" x2="24.4375" y2="76.79333945217894" style="visibility: inherit;" fill="rgb(0, 0, 0)" stroke="rgb(204, 204, 204)" stroke-width="1px"></line><line x1="29.4375" y1="55.688363709083134" x2="24.4375" y2="55.688363709083134" style="visibility: inherit;" fill="rgb(0, 0, 0)" stroke="rgb(204, 204, 204)" stroke-width="1px"></line><line x1="29.4375" y1="34.58338796598733" x2="24.4375" y2="34.58338796598733" style="visibility: inherit;" fill="rgb(0, 0, 0)" stroke="rgb(204, 204, 204)" stroke-width="1px"></line><line x1="29.4375" y1="13.478412222891535" x2="24.4375" y2="13.478412222891535" style="visibility: inherit;" fill="rgb(0, 0, 0)" stroke="rgb(204, 204, 204)" stroke-width="1px"></line></g><g transform="translate(19.4375, 0)"><text x="0" y="161.21324242456217" dx="0em" dy="0.3em" style="text-anchor: end; visibility: inherit; font-family: &quot;Helvetica Neue&quot;, sans-serif; font-size: 12px; font-weight: 200;" fill="rgb(50, 49, 63)" stroke="none" stroke-width="1px">-2</text><text x="0" y="140.10826668146638" dx="0em" dy="0.3em" style="text-anchor: end; visibility: hidden; font-family: &quot;Helvetica Neue&quot;, sans-serif; font-size: 12px; font-weight: 200;" fill="rgb(50, 49, 63)" stroke="none" stroke-width="1px">-1</text><text x="0" y="119.00329093837055" dx="0em" dy="0.3em" style="text-anchor: end; visibility: inherit; font-family: &quot;Helvetica Neue&quot;, sans-serif; font-size: 12px; font-weight: 200;" fill="rgb(50, 49, 63)" stroke="none" stroke-width="1px">0</text><text x="0" y="97.89831519527476" dx="0em" dy="0.3em" style="text-anchor: end; visibility: hidden; font-family: &quot;Helvetica Neue&quot;, sans-serif; font-size: 12px; font-weight: 200;" fill="rgb(50, 49, 63)" stroke="none" stroke-width="1px">1</text><text x="0" y="76.79333945217894" dx="0em" dy="0.3em" style="text-anchor: end; visibility: inherit; font-family: &quot;Helvetica Neue&quot;, sans-serif; font-size: 12px; font-weight: 200;" fill="rgb(50, 49, 63)" stroke="none" stroke-width="1px">2</text><text x="0" y="55.688363709083134" dx="0em" dy="0.3em" style="text-anchor: end; visibility: hidden; font-family: &quot;Helvetica Neue&quot;, sans-serif; font-size: 12px; font-weight: 200;" fill="rgb(50, 49, 63)" stroke="none" stroke-width="1px">3</text><text x="0" y="34.58338796598733" dx="0em" dy="0.3em" style="text-anchor: end; visibility: inherit; font-family: &quot;Helvetica Neue&quot;, sans-serif; font-size: 12px; font-weight: 200;" fill="rgb(50, 49, 63)" stroke="none" stroke-width="1px">4</text><text x="0" y="13.478412222891535" dx="0em" dy="0.3em" style="text-anchor: end; visibility: hidden; font-family: &quot;Helvetica Neue&quot;, sans-serif; font-size: 12px; font-weight: 200;" fill="rgb(50, 49, 63)" stroke="none" stroke-width="1px">5</text></g><line x1="29.4375" y1="0" x2="29.4375" y2="177" fill="rgb(0, 0, 0)" stroke="rgb(204, 204, 204)" stroke-width="1px"></line></g></g><g transform="translate(29, 0)" clip-path="url(#clip_0)"><clipPath id="clip_0"><rect width="300" height="177"></rect></clipPath><g><g><g><line x1="8.633414239938134" y1="0" x2="8.633414239938134" y2="177" fill="rgb(0, 0, 0)" stroke="rgb(60, 60, 60)" stroke-width="1px" opacity="0.25"></line><line x1="46.66577737597964" y1="0" x2="46.66577737597964" y2="177" fill="rgb(0, 0, 0)" stroke="rgb(60, 60, 60)" stroke-width="1px" opacity="0.25"></line><line x1="84.69814051202114" y1="0" x2="84.69814051202114" y2="177" fill="rgb(0, 0, 0)" stroke="rgb(60, 60, 60)" stroke-width="1px" opacity="0.25"></line><line x1="122.73050364806265" y1="0" x2="122.73050364806265" y2="177" fill="rgb(0, 0, 0)" stroke="rgb(60, 60, 60)" stroke-width="1px" opacity="0.25"></line><line x1="160.76286678410415" y1="0" x2="160.76286678410415" y2="177" fill="rgb(0, 0, 0)" stroke="rgb(60, 60, 60)" stroke-width="1px" opacity="0.25"></line><line x1="198.79522992014566" y1="0" x2="198.79522992014566" y2="177" fill="rgb(0, 0, 0)" stroke="rgb(60, 60, 60)" stroke-width="1px" opacity="0.25"></line><line x1="236.82759305618717" y1="0" x2="236.82759305618717" y2="177" fill="rgb(0, 0, 0)" stroke="rgb(60, 60, 60)" stroke-width="1px" opacity="0.25"></line><line x1="274.8599561922287" y1="0" x2="274.8599561922287" y2="177" fill="rgb(0, 0, 0)" stroke="rgb(60, 60, 60)" stroke-width="1px" opacity="0.25"></line></g><g><line x1="0" y1="161.21324242456217" x2="300.5625" y2="161.21324242456217" fill="rgb(0, 0, 0)" stroke="rgb(60, 60, 60)" stroke-width="1px" opacity="0.25"></line><line x1="0" y1="140.10826668146638" x2="300.5625" y2="140.10826668146638" fill="rgb(0, 0, 0)" stroke="rgb(60, 60, 60)" stroke-width="1px" opacity="0.25"></line><line x1="0" y1="119.00329093837055" x2="300.5625" y2="119.00329093837055" fill="rgb(0, 0, 0)" stroke="rgb(60, 60, 60)" stroke-width="1px" opacity="0.25"></line><line x1="0" y1="97.89831519527476" x2="300.5625" y2="97.89831519527476" fill="rgb(0, 0, 0)" stroke="rgb(60, 60, 60)" stroke-width="1px" opacity="0.25"></line><line x1="0" y1="76.79333945217894" x2="300.5625" y2="76.79333945217894" fill="rgb(0, 0, 0)" stroke="rgb(60, 60, 60)" stroke-width="1px" opacity="0.25"></line><line x1="0" y1="55.688363709083134" x2="300.5625" y2="55.688363709083134" fill="rgb(0, 0, 0)" stroke="rgb(60, 60, 60)" stroke-width="1px" opacity="0.25"></line><line x1="0" y1="34.58338796598733" x2="300.5625" y2="34.58338796598733" fill="rgb(0, 0, 0)" stroke="rgb(60, 60, 60)" stroke-width="1px" opacity="0.25"></line><line x1="0" y1="13.478412222891535" x2="300.5625" y2="13.478412222891535" fill="rgb(0, 0, 0)" stroke="rgb(60, 60, 60)" stroke-width="1px" opacity="0.25"></line></g></g></g><g><g><line x1="0" y1="119.00329093837055" x2="300.5625" y2="119.00329093837055" fill="rgb(0, 0, 0)" stroke="rgb(153, 153, 153)" stroke-width="1.5px"></line></g></g><g><g><line x1="8.633414239938134" y1="0" x2="8.633414239938134" y2="177" fill="rgb(0, 0, 0)" stroke="rgb(153, 153, 153)" stroke-width="1.5px"></line></g></g><g><g><g><g><g><path stroke="rgb(238, 51, 119)" stroke-width="2px" d="M8.960492562908092,119.83450746482637L8.983311980789717,125.72865223895188L9.181080269097132,132.9539197167975L9.356029139522922,111.18915771322763L9.850449860291462,114.54798852778434L9.918908113936338,121.17144708249137L10.39811588945046,127.1302638986625L10.436148252586502,125.80425009464301L10.595884177757876,126.96587537620596L10.732800685047625,123.79985432161612L11.006633699627125,121.89765101477174L11.02184664488154,126.3874609797681L11.082698425899208,123.46646418506336L11.87377157912887,121.70195765585558L12.170424011589995,120.6354163548111L12.276914628370912,129.51182922176744L12.756122403885033,125.36014738201399L12.961497164819658,122.84889295332952L13.08320072685499,121.3297717785714L13.136446035245449,120.41077218028956L13.509163193978656,119.85480257149327L13.608047338132362,119.51845016251704L13.714537954913279,126.4149061611782L13.790602681185364,123.4873012187732L14.125287476782528,123.24276162900657L14.186139257800193,121.56816716175095L14.558856416533402,122.20130737041379L14.665347033314317,131.06536016203276L14.802263540604066,126.30084058549977L14.847902376367317,96.74161035596762L15.060883609929148,105.53497569460853L15.897595598922063,110.85496076807675L16.095363887229478,114.10640053928661L16.361590429181767,123.42290650745815L16.43004868282664,126.54425541112782L16.80276584155985,132.3189393380024L16.825585259441475,127.05925817589835L17.122237691902598,124.05711323205406L17.700329611570428,122.06085341990189L18.32406036700151,120.853116237447L18.750022834125176,120.12243524348824L18.7728422520068,119.68037324266531L18.879332868787714,119.41292573235856L18.90975875929655,133.53023258532826L19.274869445402548,127.79209063391349L19.335721226420215,124.32051475385687L19.5943412957453,122.2202113466237L19.670406022017378,120.94952778532121L19.898600200833627,120.18076423076016L20.339775613211707,119.71566228026057L20.56036331940075,119.43427560021195L20.682066881436082,119.26403665878384L20.811376916098624,122.20515863416378L21.237339383222288,121.38102868630492L21.632875959837122,120.44182227586991L21.76979246712687,119.87360239755733L21.838250720771743,134.31257784324623L21.944741337552664,128.26540951581902L21.95995428280708,124.60687267772639L21.982773700688703,122.39345789068065L22.31745849628587,121.05434194451811L22.8042727444272,120.2441767970898L22.872730998072075,119.75402688289569L22.97161514222578,119.62772879581769L22.994434560107408,123.78911362844163L23.055286341125072,121.89871366586354L23.367151718840617,124.11501548730376L23.496461753503155,122.76287523540961L23.595345897656863,121.27783943807918L24.01370189215332,107.0410479123009L24.27992843410561,111.76613390759842L24.59179381182115,114.69600069900264L24.743923264365314,116.39738034355295L25.443718746068477,117.42671502850592L25.53499641759498,126.05493719866503L25.62627408912148,123.26953692584871L25.778403541665647,121.58436976079484L25.816435904801686,120.56484362593726L25.824042377428896,119.94803031434842L25.976171829973058,119.57485826083717L26.0142041931091,119.34908916846285L26.364101933960686,119.35618467871682L26.455379605487185,119.21679165128005L26.721606147439477,119.53085583644733L26.995439162018975,121.84292112317473L27.00304563464618,114.0520947659804L27.352943375497762,124.59993164987515L27.482253410160304,123.78297607680926L27.49746635541472,124.91331958853857L27.53549871855076,122.5788582717222L27.733267006858178,123.22851669014044L27.740873479485387,121.55955251819134L27.816938205757467,120.54982919416213L27.832151151011885,119.93894658312446L27.87018351414793,119.56936260344668L28.09077122033697,128.39860297223572L28.204868309745095,124.68745471885899L28.250507145508344,88.73345416711305L29.269774477554254,114.8553143138958L29.688130472050712,89.8170753437766L29.79462108883163,105.43727450679569L30.068454103411128,110.79585099726776L30.889953147149626,116.48142045320391L31.43001270368141,117.47755929484472L31.772303971905785,118.08022329403744L31.97767873284041,122.97053038006473L32.00049815072203,131.95359233377894L32.44928003572732,126.83822328259262L32.92088133861424,133.5503739054755L33.19471435319374,143.55107669213888L33.45333442251882,135.71348383288506L33.55982503929973,129.11295763955184L33.57503798455415,125.11963929258523L33.58264445718136,122.70368169267044L34.03142634218665,121.24202734472199L34.82249949541631,120.35772646421319L35.13436487313185,123.73282544231144L35.377771997202515,121.86465931325478L36.29815518509472,120.73441880517552L36.435071692384476,120.05062329778755L36.45028463763889,119.63692701581785L36.83821474162651,127.77861797090289L37.264177208750176,124.31236379305263L37.3782742981583,122.2152800154532L37.78141734740034,122.74136490996477L37.94115327257171,121.26482569118507L37.99439858096217,136.9305576718071L38.32908337655934,134.15996257751175L38.815897624700675,133.82865450791058L39.0288788582625,136.26078055120288L39.249466564451545,129.44407215413412L39.645003141066375,125.66364443298693L40.124210916580495,124.99686247038728L40.20788211547979,122.62940171524068L40.770761089893206,121.19708795837698L40.877251706674116,120.33053813547444L40.922890542437365,119.80627549261843L41.11305235811758,119.48909659369052L41.15108472125362,122.16390980213461L41.39449184532428,120.91546535094781L41.70635722303983,120.16015645797981L41.80524136719353,119.70319457773415L41.82045431244795,122.93327059064501L42.44418506787903,121.3809286279966L43.1515870222094,124.4443274072689L43.28089705687194,122.29511800205405L43.44063298204332,120.99484631189908L44.19367377213694,129.22112415857166L44.475113259343644,132.6710381731276L44.505539149852474,128.35779710518378L44.56639093087014,124.66276716929256L45.12926990528356,122.42727405807837L45.42592233774469,121.07480072579378L45.5324129545256,124.18921104029118L45.82145891435952,122.14077260003253L45.920343058513225,120.90146734367606L46.23981490885597,120.15168766358039L46.764661520133345,128.75105671366637L46.833119773778215,124.90068923242453L46.85593919165984,135.1720417844078L47.44163758395488,142.17347592030666L47.4568505292093,133.2875686115707L47.86760005107855,127.64527893065664L48.08058128464038,124.23169367370363L48.88686738312446,125.27881440801389L49.579056392200414,129.2441186204533L49.70075995423575,134.439265004028L49.81485704364387,128.3420552480933L50.27885187390358,124.65324334575283L50.44619427170216,128.0643505509554L51.00907324611558,124.48523200398438L51.02428619136999,122.31986528306692L51.27529978806787,121.00981841691186L51.56434574790178,120.21724006288804L52.15765061282403,125.99173983586013L52.271747702232155,131.89362180251908L52.60643249782932,130.3586644143571L53.26058914376923,112.53494702294903L53.389899178431776,123.15050748109809L53.4127185963134,129.54716118321411L53.67894513826569,128.20371760245408L53.69415808352011,124.5695490701411L53.74740339191057,127.37606238083714L54.02123640649006,124.06881766106284L54.180972331661444,122.06793460559939L54.37113414734165,122.79428722164148L54.45480534624094,128.2340213160788L54.660180107175556,132.54059402547637L54.81230955971973,135.1661076869795L55.66423449396706,128.78179507127896L55.74029922023914,125.58876892161828L56.128229324226766,122.98750511823543L56.27275230414372,126.7491557809507L56.37163644829743,135.44739759818054L56.41727528406068,128.9519754675556L56.51615942821438,125.0222450785275L56.957334840592466,122.64475819316553L57.13228371101826,132.3116110757548L57.17031607415431,129.8621201646352L57.360477889834506,125.57288262026067L57.52782028763309,116.30872147171738L57.6267044317868,117.37307641104539L57.8092597748398,123.36266686156429L58.547087619679004,121.64071337190276L58.729642962732,120.59893151065755L59.14799895722846,119.96865348460419L59.22406368350054,125.3577954416389L59.368586663417496,122.8477661628479L59.786942657913954,122.91910695476454L60.08359509037508,123.17082193015554L60.10641450825671,128.08544597364516L60.19769217978321,117.828822300515L60.44109930385387,128.6327153432241L61.23977892971074,124.82909270330696L61.30063071072841,126.65793886500003L61.41472780013653,123.64267475506699L62.160162117602944,128.49395585392608L62.35793040591036,124.74514321228163L62.52527280370895,122.47711156408677L63.232674758039316,121.10495241692885L63.293526539056984,120.27479613289833L63.61299838939973,119.77255158105986L64.07699321965944,120.20733628295432L64.32040034373011,119.73173837184373L64.80721459187143,119.44400163562183L64.9517375717884,119.26992091020757L65.02780229806048,125.08695617415196L65.03540877068768,122.6839084060183L65.17993175060464,121.23006450629745L65.35488062103043,128.95619234682255L65.49940360094739,125.02479629048402L65.8797272323078,123.99983142412971L65.95579195857988,122.02619793225485L65.97861137646152,103.71734862425424L66.09270846586963,85.23888010841908L66.34372206256751,98.57582238624991L67.09676285266113,115.39304947515234L67.37059586724064,98.37594630112912L67.69767419021059,109.88997300340934L67.74331302597383,113.48973358771902L68.260553164624,115.66758874122638L68.47353439818583,116.98519110909834L68.54959912445793,117.78332214240235L68.82343213903742,118.2652098168098L69.33306580506037,118.55675185982629L69.58407940175825,118.73313479585127L70.03286128676353,133.70539306194297L70.30669430134304,127.89806272313189L70.39036550024232,133.01447326563226L70.48164317176882,127.48005624636389L70.61095320643136,124.13173394970653L71.48569755856033,122.10599896022882L71.75192410051261,120.8804292915948L71.80516940890307,120.13895964207123L72.33001602018045,119.69037050410947L72.67230728840482,127.33254807802474L72.89289499459386,124.04249150786134L72.9309273577299,125.53444273866583L72.99938561137478,126.62127708263199L73.69157462045072,123.61774532577985L73.71439403833236,115.1258634085565L73.92737527189419,116.65744728283306L74.00343999816627,117.58405552677038L74.45222188317156,118.14465351435244L74.71844842512385,138.74792815608166L74.97706849444893,131.49540697555452L74.98467496707615,129.28655955514546L75.44106332470864,125.22466845151938L76.39947887573689,134.33401683519722L76.42229829361851,128.2783801059507L76.84826076074216,131.61553547098822L77.04602904904958,129.16355747498275L77.06884846693121,131.42830796763477L77.2361908647298,146.72254684691768L77.28943617312027,137.07061723691467L77.46438504354605,136.33482140025325L77.5936950782086,129.48886686780958L77.73061158549834,128.3250960057648L77.7762504212616,124.64298300414407L78.20981936101245,122.41530463816353L78.27067114203014,121.06755922674532L79.52573912551951,120.25217325283728L79.57898443390997,119.75886473862293L79.78435919484458,124.28833062720409L80.21792813459545,122.20073995011485L80.46133525866611,120.93774759047585L80.62107118383749,120.17363721289428L80.95575597943466,119.71135043445742L80.97857539731629,119.4316669335031L81.13070484986045,119.26245841542575L81.18395015825091,119.16008726198895L81.38171844655832,119.09815271415968L81.92177800309013,127.29009184003681L81.99023625673499,128.68238938135684L82.04348156512545,124.88977167917459L82.14236570927916,122.564611786557L82.30970810707774,121.15789005152335L82.60636053953885,120.30682340182801L82.83455471835511,121.4492103029796L83.00950358878089,120.48307215395903L83.14642009607066,123.70335672858617L83.68647965260244,126.25446356073768L84.24175215438865,123.39025037490266L84.26457157227027,123.23779193564927L84.5688304773586,121.92604525423944L84.75899229303882,120.77155729947123L85.25341301380735,120.07309208683647L85.85432435135681,119.65052063319243L85.89235671449285,119.88337796605146L85.91517613237447,127.1143646424533L86.11294442068188,130.92463226372817L86.45523568890626,128.2323818466959L86.7594945939946,127.12376341215818L86.88880462865714,123.91617678501208L87.43647065781613,121.97558687558868L87.58860011036029,120.80152998038753L87.64184541875075,132.2040219375375L88.5165897708797,126.98973319286657L88.53940918876133,123.83508850234064L88.6991451139327,121.92652846457246L89.147926998938,127.5505435455299L89.22399172521008,124.17437876570196L89.25441761571892,102.12428127442394L89.48261179453516,112.62135173041752L89.73362539123303,115.14221771755898L90.13676844047507,116.66734163977955L90.26607847513763,126.55567374512705L90.37256909191854,90.22662086236687L90.49427265395387,101.59340554238833L90.62358268861641,108.4703102738013L90.93544806633194,118.48382511066463L91.28534580718352,118.68901411260848L91.29295227981073,118.8131534587845L91.46029467760933,118.93482959653717L91.51353998599978,123.25130843465485L91.73412769218882,121.57334152362256L91.8101924184609,120.55817154244801L91.84822478159695,122.6079115399771L91.93189598049624,121.18408640234252L92.00035423414111,127.06301099977298L92.10684485092203,128.91151305641884L92.40349728338315,134.1736424206013L92.42631670126477,128.18135358512018L92.68493677058987,124.55601883965406L92.7153626610987,122.36269131864708L92.89031153152449,121.03572816843786L92.93595036728773,120.23291546256128L92.95116331254215,119.74721377550594L93.26302869025768,119.45336425483747L93.30866752602094,119.27558529483304L93.40755167017464,119.16802902403036L93.44558403331068,119.10295748019475L93.94000475407924,119.06358919617419L94.0845277339962,119.06158024470899L94.15298598764106,119.03855596870531L94.49527725586543,119.02462628172309L94.67783259891843,119.01619882109884L94.69304554417285,119.01110020742117L94.70065201680005,119.00801554614618L95.14943390180535,132.3525557712489L95.24071157333185,127.07959616226194L96.37407599478588,123.99497521624355L96.77721904402793,123.87723997820893L96.93695496919929,121.95203010747278L97.17275562064275,120.78727813567741L97.24121387428762,121.46188461992482L97.37052390895018,120.49074011571089L97.49983394361271,119.90319769066146L97.74324106768339,124.40700346771017L98.131171171671,122.4728892853675L98.3061200420968,124.56387026338572L98.42021713150491,102.35992363052262L98.98309610591834,108.93405371712255L99.85784045804729,114.12334550766863L100.43593237771512,116.0509239527959L100.5956683028865,117.21710891209788L100.63370066602253,117.9226508124756L100.74779775543065,130.75167407612173L100.86189484483877,126.11106273671001L100.91514015322925,126.09321955850329L101.1509408046727,124.89872146242448L101.8963751221391,122.5961178581141L102.09414341044653,121.1769512248154L102.12456930095537,124.38753219188735L102.25387933561791,123.01613736154447L102.57335118596065,121.43106302439078L103.06777190672918,120.47209305041278L103.09059132461081,106.55357134776274L103.21229488664613,111.47121058605283L103.95012273148535,114.44638232521832L104.1859233829288,96.23884342793134L104.35326578072738,113.38417678953077L105.08348715293938,115.77228729231871L105.63875965472559,124.50912354181571L105.98865739557718,129.3182031558516L106.20924510176621,125.24381282994659L106.6580269867715,122.77880668277405L106.78733702143404,121.28747796373467L107.02313767287751,117.98477506864748L107.57841017466372,122.34848625135744L107.72293315458067,121.02713410272762L108.05001147755064,120.22771605280658L108.2021409300948,119.74406813260435L108.65092281510009,119.451461140882L108.78023284976263,126.52026995323703L108.98560761069724,123.55106324236476L109.15295000849582,121.75469318228707L109.24422768002233,120.66788929594004L109.35832476943047,120.0103729447001L109.38875065993929,119.61257555219994L109.51806069460183,121.92396935203075L109.79189370918132,120.77030137863498L110.10375908689686,120.07233225473054L110.35477268359473,120.72844676636387L110.92525813063537,120.53419586053775L111.19909114521487,119.92948841628171L111.6098406670841,119.56364041250681L111.64026655759295,129.99523583953135L111.79239601013711,128.06951847508373L112.17271964149752,124.88237449861171L112.39330734768656,122.56013649231645L112.71277919802931,126.70037714281702L113.10831577464415,123.66002809206066L113.22241286405227,61.79806749304318L113.28326464506993,86.41374294159235L113.32890348083319,107.91448813010696L113.73965300270243,112.29456523937108L113.76247242058406,116.24773516804957L114.06673132567241,117.33617969732637L114.2568931413526,126.29860315410617L114.48508732016886,123.41695482889061L114.74370738949393,125.81422446903261L115.00993393144621,123.12390572442109L115.19248927449922,121.49626288393114L115.31419283653456,120.51153896543471L115.71733588577659,119.91578099474438L115.86946533832077,119.55534742247671L115.89989122882959,119.33728511125477L115.97595595510167,119.20535741296553L116.02159479086492,119.12554115550051L116.1889371886635,119.07725231973419L116.8202744167218,120.02293377090785L117.90039352978538,119.62017485205563L118.41002719580833,122.80464452428214L118.41763366843554,121.30310985784706L118.46327250419878,127.05965110580743L118.53173075784366,123.87738883966988L118.6610407925062,128.9555479164475L118.7523184640327,125.0244064101071L118.79795729979597,124.85531373552186L119.25434565742846,123.63823073464081L119.63466928878887,122.35288438887437L119.99977997489488,121.02979497592537L120.27361298947437,120.22932588109121L120.46377480515457,120.66615418206746L120.4865942230362,120.00932320080719L121.05707967007682,119.61194045714473L121.10271850584006,115.30612001842249L121.33851915728353,110.09733009760531L121.4069774109284,114.84587421305258L121.43740330143724,109.8188813853565L121.48304213720048,60.093343685223545L121.93182402220577,91.41046944809756L122.19044409153085,102.3096339367554L122.19805056415807,95.56528358400001L122.25890234517573,115.60246041719529L122.28932823568456,117.98848192687353L122.41863827034712,118.46545139039111L122.91305899111565,126.55846695292686L123.0575819710326,123.76013134584595L123.30859556773048,121.88117938489316L123.31620204035768,139.46294951797853L123.5063638560379,131.38138437903336L124.09206224833294,126.49203746997156L124.57887649647427,123.53398258998917L124.89834834681702,121.74435938759981L124.92877423732585,120.66163735015427L125.27106550555023,120.00659051749969L125.41558848546718,119.6102871837437L125.93282862411735,119.3705236668213L126.37400403649542,119.22546673908326L126.55655937954842,119.13770729780174L127.1726836623523,119.08461283582642L127.39327136854133,119.05249068633137L127.52258140320389,119.03305678588686L127.53779434845829,119.19717088224489L127.78120147252896,119.7594723015317L128.01700212397242,123.86893372835648L128.47339048160492,122.66480410238387L129.56872253992293,121.21850640259862L129.75888435560313,120.34349629422854L129.827342609248,119.81411517866465L129.87298144501125,124.5691487684548L130.22287918586284,122.37063492557152L130.24569860374444,133.02619662069827L130.3978280562886,139.52094736766588L130.54235103620556,131.4164730780942L131.40948891570733,128.92382616105374L131.51597953248825,129.1808352485027L132.0027937806296,138.6962228464881L132.2994462130907,130.9175147427817L132.45918213826207,126.21139634003927L133.01445464004826,126.5745112006365L133.09051936632036,135.66613062707867L133.1209452568292,135.33682745412355L133.4860559429352,128.88508053040113L134.03372197209418,124.98177364154904L134.20867084251998,122.62027297379355L134.33798087718253,123.75016539160387L134.6878786180341,121.87514998257672L134.9541051599864,124.79564437130779L135.44852588075494,141.5636402326737L135.86688187525138,132.71346105603254L136.0646501635588,127.29794385955606L136.10268252669485,137.05799119602173L136.65034855585384,130.25227426417806L136.92418157043335,125.8089258504841L137.30450520179375,123.12070006019925L137.77610650468066,121.49432345707692L137.78371297730786,127.71745848372834L137.9814812656153,130.65605411426156L138.04993951926016,126.05321265978462L138.15643013604108,133.61989108390406L138.47590198638383,127.84633402641833L139.76139586038204,124.35333200663948L139.99719651182548,122.24006578467325L140.26342305377779,122.79518260121009L140.43837192420358,121.29738539438847L140.7274178840375,107.05287321586802L140.80348261030957,119.26469676179755L141.0925285701435,119.16144146154389L141.15338035116116,119.09897200489041L141.34354216684136,119.0611779836151L141.4804586741311,119.7598304306575L141.49567161938555,128.45127829113426L141.6706204898113,124.71932328679259L141.67822696243854,122.4614905091659L141.68583343506575,122.83937442507775L141.70865285294735,121.32412144782842L141.86078230549154,120.40739339659257L142.12700884744382,113.18360049139818L142.25631888210634,115.48237821795227L142.36280949888726,116.8731387425175L142.53015189668585,117.71454885987947L142.6670684039756,118.22360198088344L142.74313313024768,118.53157911909085L143.42771566669643,119.26157737486704L143.53420628347735,122.82643825687326L143.5798451192406,121.3162950660647L143.6863357360215,120.40265843562551L143.75479398966638,124.8202201715115L143.80803929805685,123.86299647431977L143.81564577068406,128.01625015390468L144.04383994950032,125.74536827208485L144.1199046757724,138.8982872111397L144.27203412831656,133.41150724916074L144.80448721222112,127.72026180639861L145.17720437095434,134.54713346928946L145.18481084358154,135.6021571704867L145.42821796765222,133.30889018777896L145.72487040011333,127.65817848426265L146.57679533436067,124.23949790363528L146.64525358800554,122.17119615235572L146.76695715004087,125.44527976816839L146.7897765679225,128.82263983794496L146.85823482156738,124.94399702261309L147.07882252775642,122.5974181193373L147.3450490697087,121.17773788285544L147.4363267412352,120.31883133978391L147.73297917369635,119.79919288122564L147.93074746200375,119.48481161379789L148.0600574966663,119.29461094700409L148.57729763531646,125.4461474220384L148.75224650574225,122.9012191109896L148.96522773930408,121.36153748280509L149.38358373380052,120.43003009775344L149.7182685293977,119.8664681297972L150.40285106584648,123.14621452487776L150.41045753847365,121.50975970820741L151.079827129668,124.0112731243832L151.14067891068564,122.0331201609082L151.48297017891002,120.83633761800583L152.41856631205664,80.16756874491024L152.47181162044708,103.44562656303405L152.69239932663615,109.59090399129197L152.97383881384286,120.3481906242624L153.43022717147537,119.81695524833513L153.79533785758136,119.49555784589913L154.1072032352969,123.50150149634663L154.2973650509771,138.78765172841742L154.44188803089406,130.9728292163489L154.4799203940301,119.57568916235078L154.6548692644559,119.46478353182793L154.82981813488166,119.28249395741227L154.98955406005305,119.1722087648908L155.51440067133043,121.07109394597015L155.91754372057247,126.43241371958604L156.36632560557774,127.11256915080492L156.70101040117493,90.56354258280197L156.73143629168374,101.79724318325157L156.92159810736396,111.7830865276428L158.34400848865192,114.63506726988025L158.45810557806,116.36051561893393L158.48853146856885,125.82697576343061L158.65587386636744,123.37541193063875L158.7015127021307,123.69556799737255L159.0666233882367,121.84211855906676L159.18072047764483,120.72078164889176L159.49258585536037,120.04237281823589L159.53822469112362,126.37458830771169L159.64471530790453,123.46292584682193L159.72838650680382,121.70137005798364L159.7968447604487,120.63562880573647L160.1543489739275,135.84506310069216L160.20759428231796,129.79489434730897L160.23802017282677,125.53221100077829L160.28365900859004,122.95328757612724L160.73244089359534,121.39303890421334L160.94542212715714,121.22670229561281L161.12037099758297,120.61791496369781L161.66043055411473,119.98013847369354L161.82777295191332,119.59428369724097L162.0787865486112,119.36084155748716L162.20809658327371,121.15526388367093L162.2613418916642,121.65435340719159L162.57320726937974,120.60718373200729L162.67209141353342,126.82728571483867L162.7101237766695,143.72614529092633L162.75576261243273,136.90237881583414L162.77858203031434,129.832239104236L163.3642804226094,125.55480457871917L163.3718868952366,146.86122381026615L163.387099840491,135.85734032586737L163.70657169083378,109.19247301832402L163.7293911087154,113.0677460967424L163.97279823278606,115.41228630918553L164.1781729937207,116.9283788793273L164.2009924116023,120.522862354567L164.23902477473834,119.9226316451694L164.67259371448924,119.55949206598386L164.78669080389733,124.85639261751166L164.85514905754223,127.14118080764146L164.87036200279664,123.92671430927945L165.16701443525776,127.7908806922237L165.24307916152983,125.46079610094567L165.35717625093798,133.7256875536244L165.6842545739079,107.90282309111701L166.0265458421323,112.41798856251117L166.34601769247504,115.01918300097563L166.44490183662876,116.59290563624663L166.45250830925596,72.67073757296988L166.60463776180012,77.63375128390979L166.61985070705452,93.97471944742179L166.6578830701906,103.86100518634655L166.74155426908987,111.40297459000305L167.58587273070998,118.68768699554732L167.5934792033372,118.8123505529625L167.7608216011358,118.88777200519868L168.27806173978595,118.93340198380159L168.28566821241319,118.96100812085632L168.3084876302948,124.64023858155278L168.31609410292202,122.41364426249581L168.62035300801034,121.06655469946634L168.6888112616552,120.2515655138335L168.8713666047082,120.96969977550943L169.1223802014061,120.19296828483957L169.3201484897135,119.72304573298432L169.593981504293,119.43874258911188L169.8830274641269,105.92839431867569L170.19489284184246,111.09297848345516L170.2557446228601,115.9413266079278L170.49915174693078,117.15080251845269L170.5980358910845,117.88253544432025L171.092456611853,118.32523386447014L171.59448380524876,105.25472154026743L171.76943267567458,110.68540645251817L172.41598284898728,120.02194643075293L172.4388022668689,119.6195775112619L172.47683463000496,119.37614431496982L172.9940747686551,119.73561865447584L173.13099127594484,119.44634920661426L173.70908319561266,126.78867309185885L174.0057356280738,103.70592934174886L174.013342100701,109.74838717241443L174.68271169189535,125.43408037125258L175.2227712484271,122.89391854526417L175.32165539258085,123.43749341039222L175.5422430987699,124.90175729369449L175.5498495713971,122.57186308334154L175.86171494911264,121.162277086078L176.05187676479284,120.30947755773357L176.09751560055608,120.0511013516622L176.24964505310024,127.13121110712508L176.29528388886348,123.92068264046705L176.45501981403487,108.63996804974556L176.50065864979814,113.38194218232522L176.96465348005785,115.60237494096313L177.41343536506312,116.94573675993907L177.664448961761,117.7584706604195L177.71769427015144,118.25017467021017L178.36424444346414,118.54765559613352L179.36069235762844,118.72763155631716L179.55085417330866,118.83651701222826L179.64973831746235,118.90239271305447L179.86271955102418,118.94224751205432L179.91596485941466,119.97130155867376L179.99963605831394,119.588937363654L180.03766842144998,125.46408000927424L180.09852020246765,122.9120683262673L180.20501081924857,121.36810125804809L180.4179920528104,120.43400118177546L180.95044513671496,106.53052576723715L180.97326455459662,111.45726800983486L181.29273640493935,114.43794706660645L181.56656941951886,89.56456815916653L181.84800890672557,109.88672167094879L182.54780438842872,113.48776653158039L182.66950795046407,115.66639867226252L183.49100699420254,116.9844711173752L183.544252302593,128.95473061560122L183.6431364467467,125.0239119430951L184.01585360547992,122.6457666462289L184.03106655073435,121.20698874162487L184.11473774963366,66.98314863576591L184.12234422226084,87.53110484529475L184.1603765853969,99.9626183520597L184.8145332313368,113.60841480911061L184.83735264921842,115.7393908801683L185.97071707067244,117.02863140315819L186.00114296118127,123.16246392848026L186.0087494338085,126.03403980590971L186.13805946847106,123.25689400323176L186.25215655787918,124.36571580119065L186.32822128415125,122.28453863234503L186.41189248305056,121.1948167116314L186.44992484618658,120.32916403119339L186.48795720932264,119.80544415952836L186.51838309983148,119.48859363717105L186.56402193559472,119.29689907114485L186.75418375127492,119.180923858699L186.830248477547,119.11075885516928L187.0280167658544,99.06079122855166L187.0432297111088,112.36633169949751L187.3703080340788,124.56705250064611L187.55286337713179,122.36936668354727L187.9407934811194,121.03976676420247L188.1233488241724,120.23535881299887L188.27547827671657,119.7486920025207L188.3819688934975,119.45425858218138L188.6329824901954,119.27612636287611L189.50012036969713,122.25806672676885L189.88044400105753,131.43754054856572L190.34443883131723,126.52601195253865L190.5041747564886,124.3062617955189L190.5878459553879,122.21158830694532L190.73997540793206,120.94431084635829L191.2039702381918,123.68892454410319L191.3028543823455,122.39566228509304L191.5842938695522,121.05567560313767L191.73642332209636,123.83127850089537L191.82009452099564,133.69662587434192L192.48185763956278,127.89275857463323L192.55792236583486,130.3138752736004L193.64564795152563,128.61336522515245L193.92708743873234,130.97248372868373L193.94230038398678,126.24465257651002L194.16288809017578,123.38431472944492L194.46714699526416,121.65381033197056L194.83225768137015,120.60685517149855L195.20497484010332,119.973447299413L195.22018778535775,119.59023553680123L195.28103956637543,119.35839242042113L195.50923374519166,121.2708640864947L195.68418261561746,120.37517269298566L195.7982797050256,119.8332793999127L196.23184864477645,121.32104027776873L196.96967648961567,121.8854005507229L197.31957423046725,113.23897742026206L197.35000012097606,115.51588125991492L197.80638847860857,107.45095634220134L198.16389269208736,92.00661070820605L198.39208687090363,102.67029939912105L198.5594292687022,109.42753367966795L198.62028104971986,128.50026858896672L199.10709529786118,134.96725744495953L199.5634836554937,128.6614906748569L199.79167783430995,124.84650177894478L199.95902023210854,142.41005330557107L200.2100338288064,106.48769243374012L200.43822800762266,113.6428559306498L200.54471862440357,117.35441326269076L200.780519275847,118.00571994458429L201.08477818093536,118.39976048712987L201.7389348268753,118.63815501536993L202.3018138012887,118.78238370495518L202.4919756169689,118.86964206215426L202.5908597611226,118.9224333682597L202.65171154214028,118.9543721084535L202.66692448739468,136.93309930221812L203.26783582494414,133.4306177577885L203.72422418257665,127.76573156276176L204.5989685347056,127.96490424232158L204.7130656241137,124.42506698726092L205.11620867335577,132.50471698368426L205.3215834342904,128.14016781097962L205.8007912098045,128.41562344764284L205.9909530254847,124.6977521064803L206.67553556193346,122.44843994507696L206.95697504914017,121.08760608742793L207.23080806371968,120.26430160355028L207.352511625755,119.7662023908043L207.48182166041752,125.27177347546521L207.79368703813307,122.79572287331283L208.51630193771788,87.95185058491924L208.62279255449877,100.21716952453252L208.75210258916135,107.63768748299856L208.9118385143327,112.1271008478705L208.9802967679776,114.84319593361802L209.1020003300129,122.02307261731617L209.58881457815426,122.0360027169458L209.59642105078143,120.83808156440858L209.70291166756235,120.11333926712356L210.54723012918248,119.9781952955256L210.6461142733362,119.59310807444936L210.72978547223548,129.47349464980795L211.42197448131142,118.77921880403738L211.49803920758353,124.93155948858129L211.54367804334677,122.58989341124806L212.01527934623368,126.37932975679792L212.33475119657646,123.46579442351911L213.55178681692976,126.91495419007016L213.84083277676368,133.88232717647867L214.19833699024247,132.90809138249602L214.2135499354969,114.0773503386731L214.51780884058522,117.10526529795553L214.52541531321242,105.56112953079874L214.53302178583965,112.27599179632351L214.65472534787497,114.9332749574321L214.7536094920287,116.92274083064518L214.7764289099103,122.01228452340672L215.53707617263112,123.10549791197391L216.6019823404403,121.48512615740057L216.68565353933957,120.50480124588373L217.1800742601081,119.99969426604501L217.22571309587138,128.60149899299944L217.27135193163463,132.76904817735698L217.30177782214346,100.65488433117059L217.30938429477067,107.90250494101458L217.8874762144385,112.28731540997019L218.19173511952684,122.98725936286536L218.61769758665048,129.43395191639252L219.4544095756434,125.31384083007384L219.5380807745427,123.11267395231377L219.59893255556037,131.4993840479542L219.96404324166636,134.40484906670116L220.1542050573466,128.3212336060106L220.4584639624349,124.64064625229277L220.4812833803165,122.45766104954932L220.71708403175998,121.09318485563371L220.79314875803206,128.24999925543588L220.84639406642253,136.0571951491107L220.9909170463395,133.56435769962582L221.42448598609036,127.81273632892999L221.57661543863452,124.33300539965902L221.59943485651613,122.22776818745007L221.76677725431472,120.95409967406366L222.42854037288186,120.1835302234649L223.1207293819578,119.71733570585263L223.14354879983944,119.43528802269722L223.3869559239101,124.27214946724091L223.52387243119986,122.19095034833711L223.69882130162563,120.93182488140033L224.5735656537546,120.17005397390358L225.69932360258144,119.70918257486804L225.89709189088885,125.05488927486553L225.95794367190652,125.4839728585375L226.2393831591132,126.0395175860133L226.65773915360967,126.8415565885243L227.1369469291238,123.78410183101832L227.2358310732775,121.89568152842244L227.94323302760787,129.3615480239448L228.1638207337969,126.54779192285281L228.46807963888526,123.56771403398233L228.9625003596538,121.76476691121567L230.613104919758,120.67398390194185L231.22162272993464,121.450422456571L231.41939101824207,120.48380550688182L231.59433988866786,113.22982981812319L231.73886286858482,118.76635590958836L231.89099232112898,118.85994524595733L231.92902468426502,118.91656679446055L232.05072824630037,118.950822831305L232.14200591782685,124.66004803556388L232.27131595248937,110.75548591368295L232.476690713424,114.01336889843455L232.9939308520742,115.98438810420927L233.2601573940265,117.17685472370297L233.37425448343458,117.89829702849667L233.4731386275883,118.33476962289687L233.53399040860597,120.81262581802572L233.57202277174198,120.09793854056193L233.83064284106712,122.7283101782607L234.26421178081796,121.2569275785041L234.81948428260418,120.36674110565136L235.07049787930205,119.82817828957545L235.1237431876925,119.86419383852218L235.1922014413374,119.5241371929623L235.580131545325,119.31840292239856L235.60295096320664,129.6874184711133L235.762686888378,125.9304375197106L235.85396455990448,123.19421462008128L235.99848753982147,121.53879976580555L236.15061699236563,120.53727377896872L237.19270374229316,119.93135055693244L237.81643449772423,119.56476700760051L237.82404097035146,119.61779800217334L237.8544668608603,119.37506771197124L238.08266103967654,119.22821588639898L238.2271840195935,119.13937053192775L238.58468823307228,119.46011924679013L239.1399607348585,119.54626993456023L239.17799309799452,119.33179323106532L239.37576138630195,119.20203482545088L239.72565912715353,119.12353099005415L239.83975621656165,119.07603616963914L240.18965395741324,121.08075591304703L240.47109344461995,122.82797292999612L240.8057782402171,121.31722354330404L240.95790769276127,129.0584805969189L241.0035465285245,111.74833581339895L241.10243067267825,114.61404308776272L241.3154119062401,116.34779598875284L241.6272772839556,104.05837162545846L241.65009670183724,119.93467665612L241.95435560692556,120.98662264476165L242.37271160142203,124.48671630033954L242.4715957455757,108.98241841396842L242.66175756125594,106.81820257547106L242.71500286964638,111.63131247881637L242.74542876015522,114.54324397034028L243.50607602287607,116.30496252271224L243.52889544075768,104.0324573785039L243.70384431118347,116.78990327323802L243.84076081847323,117.66419140096536L244.0841679425439,118.19313571824043L244.563375718058,118.51314703019183L244.66986633483893,118.70675387392242L244.79917636950145,118.82388601437944L244.80678284212868,118.89475095935595L245.12625469247143,123.67298024092739L245.88690195519226,121.82845296641744L246.0998831887541,120.92112214024516L246.32047089494313,120.95979001887446L246.79967867045724,109.47078207218263L247.2180346649537,113.23612307432685L247.59075182368693,130.72110954210996L247.62878418682294,126.09257119363289L248.45788970318864,69.93892601923079L248.54156090208795,95.33120148159746L249.48476350786177,104.73872021184L249.94115186549428,118.87255638404922L250.222591352701,119.43934021471546L250.38232727787235,121.59534886985608L250.6713732377063,122.54304113476275L250.94520625228577,131.3109104858809L250.95281272491297,126.44940076461432L251.1429745405932,123.50818738324804L251.62218231610734,121.72875328752143L251.66782115187058,121.68199321167737L251.78191824127867,107.2855609453278L252.16984834526633,111.9140642925797L252.29155190730165,114.71430881766709L252.36761663357373,116.40845675534496L252.49692666823626,90.75672652085332L252.67187553866205,101.91411946577264L253.02937975214087,118.70064553954859L253.5238004729094,137.5057965109478L253.58465225392703,130.1973068097798L253.6455040349447,122.39335361753376L254.01061472105073,121.78087486391952L254.07907297469558,107.3453843449343L254.38333187978392,111.95744778558046L254.53546133232808,114.80086589508306L254.6343454764818,116.46082378718162L255.2732891771673,121.9351328236451L255.7448904800542,121.14441028073577L255.8361681515807,127.54659858288124L256.0947882209058,124.17199206329954L256.1100011661602,144.41079434287002L256.4142600712486,134.37483049809276L256.9162872646443,128.30307237200248L257.4867727116849,124.62965870571787L257.8442769251637,122.40724343761569L258.1181099397432,121.06268220041386L258.34630411855943,120.24922265190676L258.5668918247485,119.75707962505997L258.6657759689022,86.11347141972627L258.68859538678385,99.10495012959078L259.19822905280677,106.9647947490588L259.2210484706884,112.42577709540312" style="fill: none;" fill="none"></path></g></g></g></g><g opacity="0.2"><g><g><g><path stroke="rgb(238, 51, 119)" stroke-width="2px" d="M8.960492562908092,119.83450746482637L8.983311980789717,129.2946098272978L9.181080269097132,139.96983506947254L9.356029139522922,85.23532924623544L9.850449860291462,119.00329093837055L9.918908113936338,130.49395756343L10.39811588945046,135.80950000035062L10.436148252586502,123.83352204522119L10.595884177757876,128.71313856203557L10.732800685047625,119.00329093837055L11.006633699627125,119.00329093837055L11.02184664488154,133.2369250139217L11.082698425899208,119.00329093837055L11.87377157912887,119.00329093837055L12.170424011589995,119.00329093837055L12.276914628370912,143.10010786649272L12.756122403885033,119.00329093837055L12.961497164819658,119.00329093837055L13.08320072685499,119.00329093837055L13.136446035245449,119.00329093837055L13.509163193978656,119.00329093837055L13.608047338132362,119.00329093837055L13.714537954913279,136.97766555830023L13.790602681185364,119.00329093837055L14.125287476782528,122.86821581563402L14.186139257800193,119.00329093837055L14.558856416533402,123.17105171339094L14.665347033314317,144.64192996375434L14.802263540604066,119.00329093837055L14.847902376367317,51.46736755410032L15.060883609929148,119.00329093837055L15.897595598922063,119.00329093837055L16.095363887229478,119.08645334284793L16.361590429181767,137.69249070188542L16.43004868282664,131.32505544904427L16.80276584155985,141.16370818726315L16.825585259441475,119.00329093837055L17.122237691902598,119.45889126814183L17.700329611570428,119.00329093837055L18.32406036700151,119.00329093837055L18.750022834125176,119.00329093837055L18.7728422520068,119.00329093837055L18.879332868787714,119.00329093837055L18.90975875929655,155.15294307272842L19.274869445402548,119.00329093837055L19.335721226420215,119.00329093837055L19.5943412957453,119.00329093837055L19.670406022017378,119.00329093837055L19.898600200833627,119.00329093837055L20.339775613211707,119.00329093837055L20.56036331940075,119.00329093837055L20.682066881436082,119.00329093837055L20.811376916098624,126.70991507744705L21.237339383222288,120.11875370287893L21.632875959837122,119.00329093837055L21.76979246712687,119.00329093837055L21.838250720771743,156.42797061447797L21.944741337552664,119.00329093837055L21.95995428280708,119.00329093837055L21.982773700688703,119.00329093837055L22.31745849628587,119.00329093837055L22.8042727444272,119.00329093837055L22.872730998072075,119.00329093837055L22.97161514222578,119.43428489029316L22.994434560107408,130.16288027081492L23.055286341125072,119.00329093837055L23.367151718840617,127.50960435305396L23.496461753503155,120.69187560909072L23.595345897656863,119.00329093837055L24.01370189215332,85.23532924623544L24.27992843410561,119.00329093837055L24.59179381182115,119.1835181896344L24.743923264365314,119.00329093837055L25.443718746068477,119.00329093837055L25.53499641759498,139.2703154592885L25.62627408912148,119.00329093837055L25.778403541665647,119.00329093837055L25.816435904801686,119.00329093837055L25.824042377428896,119.00329093837055L25.976171829973058,119.00329093837055L26.0142041931091,119.00329093837055L26.364101933960686,119.36705248556149L26.455379605487185,119.00329093837055L26.721606147439477,120.0118908542352L26.995439162018975,125.38418567626354L27.00304563464618,102.119310092303L27.352943375497762,140.7554792821696L27.482253410160304,122.53168969274633L27.49746635541472,126.64460522042774L27.53549871855076,119.00329093837055L27.733267006858178,124.22356312847722L27.740873479485387,119.00329093837055L27.816938205757467,119.00329093837055L27.832151151011885,119.00329093837055L27.87018351414793,119.00329093837055L28.09077122033697,141.92186986620376L28.204868309745095,119.00329093837055L28.250507145508344,33.66466851190725L29.269774477554254,154.86474567795545L29.688130472050712,51.46736755410032L29.79462108883163,129.36188335141986L30.068454103411128,119.00329093837055L30.889953147149626,125.18969772115673L31.43001270368141,119.00329093837055L31.772303971905785,119.00329093837055L31.97767873284041,130.46074756246097L32.00049815072203,145.71245937680956L32.44928003572732,119.00329093837055L32.92088133861424,143.83100966963792L33.19471435319374,158.86860880842073L33.45333442251882,123.70906945352161L33.55982503929973,119.00329093837055L33.57503798455415,119.00329093837055L33.58264445718136,119.00329093837055L34.03142634218665,119.00329093837055L34.82249949541631,119.00329093837055L35.13436487313185,128.90228083914548L35.377771997202515,119.00329093837055L36.29815518509472,119.00329093837055L36.435071692384476,119.00329093837055L36.45028463763889,119.00329093837055L36.83821474162651,140.24880285147617L37.264177208750176,119.00329093837055L37.3782742981583,119.00329093837055L37.78141734740034,123.54714050788758L37.94115327257171,119.00329093837055L37.99439858096217,160.9249066547852L38.32908337655934,129.91639287612264L38.815897624700675,133.32120797092648L39.0288788582625,139.9859356301696L39.249466564451545,119.00329093837055L39.645003141066375,119.87336906262225L40.124210916580495,123.97558883146884L40.20788211547979,119.00329093837055L40.770761089893206,119.00329093837055L40.877251706674116,119.00329093837055L40.922890542437365,119.00329093837055L41.11305235811758,119.00329093837055L41.15108472125362,126.26077560240978L41.39449184532428,119.00329093837055L41.70635722303983,119.00329093837055L41.80524136719353,119.00329093837055L41.82045431244795,127.88060220535658L42.44418506787903,119.00329093837055L43.1515870222094,129.13636857552137L43.28089705687194,119.00329093837055L43.44063298204332,119.00329093837055L44.19367377213694,141.82086617689293L44.475113259343644,137.9550836890931L44.505539149852474,121.7514405327635L44.56639093087014,119.00329093837055L45.12926990528356,119.00329093837055L45.42592233774469,119.00329093837055L45.5324129545256,128.9593838004708L45.82145891435952,119.00329093837055L45.920343058513225,119.00329093837055L46.23981490885597,119.00329093837055L46.764661520133345,141.9222422207601L46.833119773778215,119.00329093837055L46.85593919165984,150.9041134146607L47.44163758395488,152.8971914955441L47.4568505292093,119.67750805008903L47.86760005107855,119.00329093837055L48.08058128464038,119.00329093837055L48.88686738312446,126.88263224157768L49.579056392200414,135.31755924963264L49.70075995423575,142.39638794595885L49.81485704364387,119.00329093837055L50.27885187390358,119.00329093837055L50.44619427170216,133.28895778930362L51.00907324611558,119.00329093837055L51.02428619136999,119.00329093837055L51.27529978806787,119.00329093837055L51.56434574790178,119.00329093837055L52.15765061282403,134.836226829906L52.271747702232155,140.93321316917388L52.60643249782932,128.00765373122294L53.26058914376923,85.23532924623544L53.389899178431776,139.40978362585804L53.4127185963134,139.34456748645508L53.67894513826569,126.14603819394821L53.69415808352011,119.00329093837055L53.74740339191057,131.674646059245L54.02123640649006,119.00329093837055L54.180972331661444,119.00329093837055L54.37113414734165,123.90680198798444L54.45480534624094,136.56576594173595L54.660180107175556,139.13673703607262L54.81230955971973,139.18746405459822L55.66423449396706,119.00329093837055L55.74029922023914,120.6981845658089L56.128229324226766,119.00329093837055L56.27275230414372,132.5106713529576L56.37163644829743,148.7700211410263L56.41727528406068,119.00329093837055L56.51615942821438,119.00329093837055L56.957334840592466,119.00329093837055L57.13228371101826,147.11780346554343L57.17031607415431,126.11036826279377L57.360477889834506,119.00329093837055L57.52782028763309,102.119310092303L57.6267044317868,119.00329093837055L57.8092597748398,132.53659653894135L58.547087619679004,119.00329093837055L58.729642962732,119.00329093837055L59.14799895722846,119.00329093837055L59.22406368350054,133.61205084418572L59.368586663417496,119.00329093837055L59.786942657913954,123.0283757626369L60.08359509037508,123.55636005702024L60.10641450825671,135.61290811620518L60.19769217978321,102.119310092303L60.44109930385387,145.18045025674058L61.23977892971074,119.00329093837055L61.30063071072841,129.45908298607424L61.41472780013653,119.02435883985311L62.160162117602944,135.924399055976L62.35793040591036,119.00329093837055L62.52527280370895,119.00329093837055L63.232674758039316,119.00329093837055L63.293526539056984,119.00329093837055L63.61299838939973,119.00329093837055L64.07699321965944,120.87327234534962L64.32040034373011,119.00329093837055L64.80721459187143,119.00329093837055L64.9517375717884,119.00329093837055L65.02780229806048,133.99659246449718L65.03540877068768,119.00329093837055L65.17993175060464,119.00329093837055L65.35488062103043,140.78988182408253L65.49940360094739,119.00329093837055L65.8797272323078,122.42994852756172L65.95579195857988,119.00329093837055L65.97861137646152,75.67468069681028L66.09270846586963,56.93641567277284L66.34372206256751,119.00329093837055L67.09676285266113,141.15108083916743L67.37059586724064,72.31177561686573L67.69767419021059,127.52538099044612L67.74331302597383,119.00329093837055L68.260553164624,119.00329093837055L68.47353439818583,119.00329093837055L68.54959912445793,119.00577600353887L68.82343213903742,119.00329093837055L69.33306580506037,119.00329093837055L69.58407940175825,119.00329093837055L70.03286128676353,156.6375861024125L70.30669430134304,119.00329093837055L70.39036550024232,140.8510008054114L70.48164317176882,119.00329093837055L70.61095320643136,119.00329093837055L71.48569755856033,119.00329093837055L71.75192410051261,119.00329093837055L71.80516940890307,119.00329093837055L72.33001602018045,119.00329093837055L72.67230728840482,139.03765550136333L72.89289499459386,119.00329093837055L72.9309273577299,127.81958323141703L72.99938561137478,128.2859220904789L73.69157462045072,119.01739921718355L73.71439403833236,102.119310092303L73.92737527189419,119.00329093837055L74.00343999816627,119.00329093837055L74.45222188317156,119.00329093837055L74.71844842512385,170.3048424807555L74.97706849444893,120.38711504082309L74.98467496707615,125.90338818970882L75.44106332470864,119.00329093837055L76.39947887573689,148.2863099291848L76.42229829361851,119.00329093837055L76.84826076074216,136.7268747009824L77.04602904904958,125.40799624059467L77.06884846693121,134.89710302600048L77.2361908647298,170.14790006708515L77.28943617312027,122.28728201146703L77.46438504354605,135.20784296688578L77.5936950782086,119.00329093837055L77.73061158549834,126.54261152086075L77.7762504212616,119.00329093837055L78.20981936101245,119.00329093837055L78.27067114203014,119.00329093837055L79.52573912551951,119.00329093837055L79.57898443390997,119.00329093837055L79.78435919484458,131.2258669881955L80.21792813459545,119.00329093837055L80.46133525866611,119.00329093837055L80.62107118383749,119.00329093837055L80.95575597943466,119.00329093837055L80.97857539731629,119.00329093837055L81.13070484986045,119.00329093837055L81.18395015825091,119.00329093837055L81.38171844655832,119.00329093837055L81.92177800309013,139.83723910878533L81.99023625673499,130.81489574211284L82.04348156512545,119.08082557836377L82.14236570927916,119.00329093837055L82.30970810707774,119.00329093837055L82.60636053953885,119.00329093837055L82.83455471835511,123.19894213892067L83.00950358878089,119.00329093837055L83.14642009607066,128.6356913302303L83.68647965260244,130.16185503783046L84.24175215438865,119.00329093837055L84.26457157227027,123.0042796426156L84.5688304773586,119.916914261194L84.75899229303882,119.00329093837055L85.25341301380735,119.00329093837055L85.85432435135681,119.00329093837055L85.89235671449285,120.24003286827855L85.91517613237447,138.1896733493473L86.11294442068188,136.76061178492137L86.45523568890626,124.10880842314015L86.7594945939946,125.42575289849916L86.88880462865714,119.00329093837055L87.43647065781613,119.00329093837055L87.58860011036029,119.00329093837055L87.64184541875075,149.66859822633683L88.5165897708797,119.00329093837055L88.53940918876133,119.00329093837055L88.6991451139327,119.00329093837055L89.147926998938,136.16454132775587L89.22399172521008,119.00329093837055L89.25441761571892,68.35134714221329L89.48261179453516,128.69914318833173L89.73362539123303,119.00329093837055L90.13676844047507,119.00329093837055L90.26607847513763,141.70109380521626L90.37256909191854,34.58338796598733L90.49427265395387,119.00329093837055L90.62358268861641,119.00329093837055L90.93544806633194,133.82098074687298L91.28534580718352,119.00329093837055L91.29295227981073,119.00329093837055L91.46029467760933,119.12119431385455L91.51353998599978,129.8626241234174L91.73412769218882,119.00329093837055L91.8101924184609,119.00329093837055L91.84822478159695,125.74738672606594L91.93189598049624,119.00329093837055L92.00035423414111,136.0674398135589L92.10684485092203,131.7427630419144L92.40349728338315,142.23335954802002L92.42631670126477,119.00329093837055L92.68493677058987,119.00329093837055L92.7153626610987,119.00329093837055L92.89031153152449,119.00329093837055L92.93595036728773,119.00329093837055L92.95116331254215,119.00329093837055L93.26302869025768,119.00329093837055L93.30866752602094,119.00329093837055L93.40755167017464,119.00329093837055L93.44558403331068,119.00329093837055L93.94000475407924,119.00329093837055L94.0845277339962,119.05850324309773L94.15298598764106,119.00329093837055L94.49527725586543,119.00329093837055L94.67783259891843,119.00329093837055L94.69304554417285,119.00329093837055L94.70065201680005,119.00329093837055L95.14943390180535,152.79166168564666L95.24071157333185,119.00329093837055L96.37407599478588,119.27042921031668L96.77721904402793,123.69691132248502L96.93695496919929,119.00329093837055L97.17275562064275,119.00329093837055L97.24121387428762,122.49514265275947L97.37052390895018,119.00329093837055L97.49983394361271,119.00329093837055L97.74324106768339,131.30523763255692L98.131171171671,119.51051186684266L98.3061200420968,127.76651201452755L98.42021713150491,68.35134714221329L98.98309610591834,119.00329093837055L99.85784045804729,122.07150128812529L100.43593237771512,119.00329093837055L100.5956683028865,119.00329093837055L100.63370066602253,119.00329093837055L100.74779775543065,150.40119072044044L100.86189484483877,119.00329093837055L100.91514015322925,126.06589013365502L101.1509408046727,123.06917374564551L101.8963751221391,119.0693452489805L102.09414341044653,119.00329093837055L102.12456930095537,129.3050043060102L102.25387933561791,120.91564654544969L102.57335118596065,119.00329093837055L103.06777190672918,119.00329093837055L103.09059132461081,85.23532924623544L103.21229488664613,119.00329093837055L103.95012273148535,119.00329093837055L104.1859233829288,68.35134714221329L104.35326578072738,139.64475067248688L105.08348715293938,119.43002616367741L105.63875965472559,137.89086007585547L105.98865739557718,136.68400864064068L106.20924510176621,119.00329093837055L106.6580269867715,119.00329093837055L106.78733702143404,119.00329093837055L107.02313767287751,112.92620481161516L107.57841017466372,129.0321451514575L107.72293315458067,119.00329093837055L108.05001147755064,119.00329093837055L108.2021409300948,119.00329093837055L108.65092281510009,119.00329093837055L108.78023284976263,137.3471796531732L108.98560761069724,119.00329093837055L109.15295000849582,119.00329093837055L109.24422768002233,119.00329093837055L109.35832476943047,119.00329093837055L109.38875065993929,119.00329093837055L109.51806069460183,125.46420542518935L109.79189370918132,119.00329093837055L110.10375908689686,119.00329093837055L110.35477268359473,121.73338165127063L110.92525813063537,120.23667232123447L111.19909114521487,119.00329093837055L111.6098406670841,119.00329093837055L111.64026655759295,145.97274275940438L111.79239601013711,125.12000200548673L112.17271964149752,120.00079954730646L112.39330734768656,119.00329093837055L112.71277919802931,133.04175839231783L113.10831577464415,119.00329093837055L113.22241286405227,-32.95253038646459L113.28326464506993,124.11623318557271L113.32890348083319,140.84600924162936L113.73965300270243,119.00329093837055L113.76247242058406,122.30259037526598L114.06673132567241,119.00329093837055L114.2568931413526,140.02585933474361L114.48508732016886,119.00329093837055L114.74370738949393,129.48599189254122L115.00993393144621,119.00329093837055L115.19248927449922,119.00329093837055L115.31419283653456,119.00329093837055L115.71733588577659,119.00329093837055L115.86946533832077,119.00329093837055L115.89989122882959,119.00329093837055L115.97595595510167,119.00329093837055L116.02159479086492,119.00329093837055L116.1889371886635,119.00329093837055L116.8202744167218,121.47138257587008L117.90039352978538,119.00329093837055L118.41002719580833,127.6821233893379L118.41763366843554,119.00329093837055L118.46327250419878,135.8766320045822L118.53173075784366,119.00329093837055L118.6610407925062,136.7334877682208L118.7523184640327,119.00329093837055L118.79795729979597,124.5963236896381L119.25434565742846,121.77409094848123L119.63466928878887,120.38418935295363L119.99977997489488,119.00329093837055L120.27361298947437,119.00329093837055L120.46377480515457,121.33522031394244L120.4865942230362,119.00329093837055L121.05707967007682,119.00329093837055L121.10271850584006,108.71112921987327L121.33851915728353,102.119310092303L121.4069774109284,122.11896076962375L121.43740330143724,102.119310092303L121.48304213720048,-16.068555830169913L121.93182402220577,139.37720637604383L122.19044409153085,119.00329093837055L122.19805056415807,85.23532924623544L122.25890234517573,146.29231354145642L122.28932823568456,121.64302120119083L122.41863827034712,119.19599955603198L122.91305899111565,138.95409838415247L123.0575819710326,119.47407301094987L123.30859556773048,119.00329093837055L123.31620204035768,166.39198984840036L123.5063638560379,119.00329093837055L124.09206224833294,119.00329093837055L124.57887649647427,119.00329093837055L124.89834834681702,119.00329093837055L124.92877423732585,119.00329093837055L125.27106550555023,119.00329093837055L125.41558848546718,119.00329093837055L125.93282862411735,119.00329093837055L126.37400403649542,119.00329093837055L126.55655937954842,119.00329093837055L127.1726836623523,119.00329093837055L127.39327136854133,119.00329093837055L127.52258140320389,119.00329093837055L127.53779434845829,119.44853551084391L127.78120147252896,120.62071877917353L128.01700212397242,130.163172116278L128.47339048160492,120.82050429551444L129.56872253992293,119.00329093837055L129.75888435560313,119.00329093837055L129.827342609248,119.00329093837055L129.87298144501125,131.8521748996524L130.22287918586284,119.00329093837055L130.24569860374444,149.34674048285441L130.3978280562886,149.46860357504664L130.54235103620556,119.00329093837055L131.40948891570733,125.10597455394105L131.51597953248825,129.574482078646L132.0027937806296,153.27042410416195L132.2994462130907,119.00329093837055L132.45918213826207,119.00329093837055L133.01445464004826,127.1306744681335L133.09051936632036,149.59126924226226L133.1209452568292,134.83245170820493L133.4860559429352,119.00329093837055L134.03372197209418,119.00329093837055L134.20867084251998,119.00329093837055L134.33798087718253,125.48076010749057L134.6878786180341,119.00329093837055L134.9541051599864,129.26880666290853L135.44852588075494,167.24626680514552L135.86688187525138,119.15812332978473L136.0646501635588,119.00329093837055L136.10268252669485,152.00692445820331L136.65034855585384,119.82832807743016L136.92418157043335,119.00329093837055L137.30450520179375,119.00329093837055L137.77610650468066,119.00329093837055L137.78371297730786,137.24909567644758L137.9814812656153,135.15694109267324L138.04993951926016,119.00329093837055L138.15643013604108,145.2093605689478L138.47590198638383,119.00329093837055L139.76139586038204,119.00329093837055L139.99719651182548,119.00329093837055L140.26342305377779,123.64542481388042L140.43837192420358,119.00329093837055L140.7274178840375,85.23532924623544L140.80348261030957,137.9688821929048L141.0925285701435,119.00329093837055L141.15338035116116,119.00329093837055L141.34354216684136,119.00329093837055L141.4804586741311,120.82991835587436L141.49567161938555,141.7634959002189L141.6706204898113,119.00329093837055L141.67822696243854,119.00329093837055L141.68583343506575,123.41815865071493L141.70865285294735,119.00329093837055L141.86078230549154,119.00329093837055L142.12700884744382,102.119310092303L142.25631888210634,119.00329093837055L142.36280949888726,119.00329093837055L142.53015189668585,119.00329093837055L142.6670684039756,119.00329093837055L142.74313313024768,119.00329093837055L143.42771566669643,120.37967596915718L143.53420628347735,128.2865416331106L143.5798451192406,119.00329093837055L143.6863357360215,119.00329093837055L143.75479398966638,131.58635903280523L143.80803929805685,122.39686903938058L143.81564577068406,134.3775627517499L144.04383994950032,122.26718209866462L144.1199046757724,159.0438972317173L144.27203412831656,125.00770502891456L144.80448721222112,119.00329093837055L145.17720437095434,145.00348120612225L145.18481084358154,137.21807954826983L145.42821796765222,129.79641797375828L145.72487040011333,119.00329093837055L146.57679533436067,119.00329093837055L146.64525358800554,119.00329093837055L146.76695715004087,130.46001543289412L146.7897765679225,133.99555842583064L146.85823482156738,119.00329093837055L147.07882252775642,119.00329093837055L147.3450490697087,119.00329093837055L147.4363267412352,119.00329093837055L147.73297917369635,119.00329093837055L147.93074746200375,119.00329093837055L148.0600574966663,119.00329093837055L148.57729763531646,134.86812101038208L148.75224650574225,119.00329093837055L148.96522773930408,119.00329093837055L149.38358373380052,119.00329093837055L149.7182685293977,119.00329093837055L150.40285106584648,128.16962356038087L150.41045753847365,119.00329093837055L151.079827129668,127.84270506561442L151.14067891068564,119.00329093837055L151.48297017891002,119.00329093837055L152.41856631205664,17.877429078523363L152.47181162044708,139.09936068952746L152.69239932663615,119.00329093837055L152.97383881384286,136.82454103678674L153.43022717147537,119.00329093837055L153.79533785758136,119.00329093837055L154.1072032352969,129.63718734070298L154.2973650509771,162.20061600791826L154.44188803089406,119.00329093837055L154.4799203940301,102.119310092303L154.6548692644559,119.29491541419168L154.82981813488166,119.00329093837055L154.98955406005305,119.00329093837055L155.51440067133043,123.97951302078789L155.91754372057247,134.64405539816227L156.36632560557774,128.1543262036845L156.70101040117493,34.58338796598733L156.73143629168374,119.00329093837055L156.92159810736396,127.07785924500149L158.34400848865192,119.00329093837055L158.45810557806,119.00329093837055L158.48853146856885,140.32623750373563L158.65587386636744,119.62048504750186L158.7015127021307,124.1859336185724L159.0666233882367,119.00329093837055L159.18072047764483,119.00329093837055L159.49258585536037,119.00329093837055L159.53822469112362,136.07329810804802L159.64471530790453,119.00329093837055L159.72838650680382,119.00329093837055L159.7968447604487,119.00329093837055L160.1543489739275,159.14052575499136L160.20759428231796,120.5281801807347L160.23802017282677,119.00329093837055L160.28365900859004,119.00329093837055L160.73244089359534,119.00329093837055L160.94542212715714,120.97193356598413L161.12037099758297,119.68546854392926L161.66043055411473,119.00329093837055L161.82777295191332,119.00329093837055L162.0787865486112,119.00329093837055L162.20809658327371,123.90368288959797L162.2613418916642,122.41878166473587L162.57320726937974,119.00329093837055L162.67209141353342,136.35427735942852L162.7101237766695,169.60920869227576L162.75576261243273,126.45078712613595L162.77858203031434,119.00329093837055L163.3642804226094,119.00329093837055L163.3718868952366,179.49510643073683L163.387099840491,119.00329093837055L163.70657169083378,68.35134714221329L163.7293911087154,119.00329093837055L163.97279823278606,119.00329093837055L164.1781729937207,119.25049534751912L164.2009924116023,126.02833704449108L164.23902477473834,119.00329093837055L164.67259371448924,119.00329093837055L164.78669080389733,132.96936687997825L164.85514905754223,130.64066651657447L164.87036200279664,119.00329093837055L165.16701443525776,133.70941401293578L165.24307916152983,121.89193235987427L165.35717625093798,146.38457193051207L165.6842545739079,68.35134714221329L166.0265458421323,119.33362175287436L166.34601769247504,119.00329093837055L166.44490183662876,119.00329093837055L166.45250830925596,5.397543450735839L166.60463776180012,85.23532924623544L166.61985070705452,119.00329093837055L166.6578830701906,119.00329093837055L166.74155426908987,122.95459861332505L167.58587273070998,129.84528447745686L167.5934792033372,119.00329093837055L167.7608216011358,119.00329093837055L168.27806173978595,119.00329093837055L168.28566821241319,119.00329093837055L168.3084876302948,133.3388067555309L168.31609410292202,119.00329093837055L168.62035300801034,119.00329093837055L168.6888112616552,119.00329093837055L168.8713666047082,122.06962693579788L169.1223802014061,119.00329093837055L169.3201484897135,119.00329093837055L169.593981504293,119.00329093837055L169.8830274641269,85.23532924623544L170.19489284184246,119.00329093837055L170.2557446228601,123.36727753275298L170.49915174693078,119.00329093837055L170.5980358910845,119.00329093837055L171.092456611853,119.00329093837055L171.59448380524876,85.23532924623544L171.76943267567458,119.00329093837055L172.41598284898728,134.32221652399858L172.4388022668689,119.00329093837055L172.47683463000496,119.00329093837055L172.9940747686551,120.28620593397241L173.13099127594484,119.00329093837055L173.70908319561266,138.0345109414107L174.0057356280738,68.35134714221329L174.013342100701,119.00329093837055L174.68271169189535,149.4590028656756L175.2227712484271,119.00329093837055L175.32165539258085,124.27005744432252L175.5422430987699,127.14449058330938L175.5498495713971,119.00329093837055L175.86171494911264,119.00329093837055L176.05187676479284,119.00329093837055L176.09751560055608,119.65536058033769L176.24964505310024,137.97542984650494L176.29528388886348,119.00329093837055L176.45501981403487,85.23532924623544L176.50065864979814,120.64496585374467L176.96465348005785,119.00329093837055L177.41343536506312,119.00329093837055L177.664448961761,119.00329093837055L177.71769427015144,119.00329093837055L178.36424444346414,119.00329093837055L179.36069235762844,119.00329093837055L179.55085417330866,119.00329093837055L179.64973831746235,119.00329093837055L179.86271955102418,119.00329093837055L179.91596485941466,121.54744763007821L179.99963605831394,119.00329093837055L180.03766842144998,134.4627162133255L180.09852020246765,119.00329093837055L180.20501081924857,119.00329093837055L180.4179920528104,119.00329093837055L180.95044513671496,85.23532924623544L180.97326455459662,119.00329093837055L181.29273640493935,119.00329093837055L181.56656941951886,51.46736755410032L181.84800890672557,141.01305806241277L182.54780438842872,119.00329093837055L182.66950795046407,119.00329093837055L183.49100699420254,119.00329093837055L183.544252302593,147.28892554326387L183.6431364467467,119.00329093837055L184.01585360547992,119.00329093837055L184.03106655073435,119.00329093837055L184.11473774963366,-16.068555830169913L184.12234422226084,119.00329093837055L184.1603765853969,119.00329093837055L184.8145332313368,134.5089384964924L184.83735264921842,119.00329093837055L185.97071707067244,119.00329093837055L186.00114296118127,132.55732134068245L186.0087494338085,130.43227627640292L186.13805946847106,119.00329093837055L186.25215655787918,126.06403779553278L186.32822128415125,119.0969128420878L186.41189248305056,119.52574895965232L186.44992484618658,119.00329093837055L186.48795720932264,119.00329093837055L186.51838309983148,119.00329093837055L186.56402193559472,119.00329093837055L186.75418375127492,119.00329093837055L186.830248477547,119.00329093837055L187.0280167658544,68.35134714221329L187.0432297111088,132.7457038132247L187.3703080340788,143.25423246189902L187.55286337713179,119.00329093837055L187.9407934811194,119.00329093837055L188.1233488241724,119.00329093837055L188.27547827671657,119.00329093837055L188.3819688934975,119.00329093837055L188.6329824901954,119.00329093837055L189.50012036969713,126.82534247399694L189.88044400105753,145.49724095916605L190.34443883131723,119.00329093837055L190.5041747564886,120.90639130185576L190.5878459553879,119.00329093837055L190.73997540793206,119.00329093837055L191.2039702381918,127.89269995457323L191.3028543823455,120.41484287572308L191.5842938695522,119.00329093837055L191.73642332209636,128.08251838227105L191.82009452099564,148.80684147164612L192.48185763956278,119.00329093837055L192.55792236583486,134.02216793910708L193.64564795152563,126.00878654335243L193.92708743873234,134.58581713282655L193.94230038398678,119.00329093837055L194.16288809017578,119.00329093837055L194.46714699526416,119.00329093837055L194.83225768137015,119.00329093837055L195.20497484010332,119.00329093837055L195.22018778535775,119.00329093837055L195.28103956637543,119.00329093837055L195.50923374519166,124.20009284086056L195.68418261561746,119.00329093837055L195.7982797050256,119.00329093837055L196.23184864477645,123.59976263499122L196.96967648961567,122.74980046246287L197.31957423046725,99.99572173942963L197.35000012097606,119.00329093837055L197.80638847860857,95.09834982266534L198.16389269208736,68.35134714221329L198.39208687090363,119.00329093837055L198.5594292687022,119.77722162835369L198.62028104971986,157.71293851333573L199.10709529786118,144.87239227502448L199.5634836554937,119.00329093837055L199.79167783430995,119.00329093837055L199.95902023210854,169.31118918812527L200.2100338288064,51.46736755410032L200.43822800762266,124.60203040060009L200.54471862440357,123.03920360670283L200.780519275847,119.00329093837055L201.08477818093536,119.00329093837055L201.7389348268753,119.00329093837055L202.3018138012887,119.00329093837055L202.4919756169689,119.00329093837055L202.5908597611226,119.00329093837055L202.65171154214028,119.00329093837055L202.66692448739468,164.4701371559589L203.26783582494414,128.0660574175862L203.72422418257665,119.08913371974612L204.5989685347056,128.26996619455878L204.7130656241137,119.00329093837055L205.11620867335577,144.8798771047883L205.3215834342904,121.45522540721682L205.8007912098045,128.837523853165L205.9909530254847,119.00329093837055L206.67553556193346,119.00329093837055L206.95697504914017,119.00329093837055L207.23080806371968,119.00329093837055L207.352511625755,119.00329093837055L207.48182166041752,133.70435703551547L207.79368703813307,119.00329093837055L208.51630193771788,34.58338796598733L208.62279255449877,119.00329093837055L208.75210258916135,119.00329093837055L208.9118385143327,119.00329093837055L208.9802967679776,119.00329093837055L209.1020003300129,133.0200989303222L209.58881457815426,122.05580704675826L209.59642105078143,119.00329093837055L209.70291166756235,119.00329093837055L210.54723012918248,119.7712026301667L210.6461142733362,119.00329093837055L210.72978547223548,144.60674497409133L211.42197448131142,102.39937858456605L211.49803920758353,134.3547648408574L211.54367804334677,119.00329093837055L212.01527934623368,132.1834031468173L212.33475119657646,119.00329093837055L213.55178681692976,132.19784446542053L213.84083277676368,144.5538731430031L214.19833699024247,131.41590744487706L214.2135499354969,85.23532924623544L214.51780884058522,121.74295783052735L214.52541531321242,87.87960512793833L214.53302178583965,122.56078083592473L214.65472534787497,119.00329093837055L214.7536094920287,119.96989742126271L214.7764289099103,129.8076615718136L215.53707617263112,124.77991335522236L216.6019823404403,119.00329093837055L216.68565353933957,119.00329093837055L217.1800742601081,119.22604939819075L217.22571309587138,141.7764150937777L217.27135193163463,139.15225642175272L217.30177782214346,51.46736755410032L217.30938429477067,119.00329093837055L217.8874762144385,119.00329093837055L218.19173511952684,139.37578111350223L218.61769758665048,139.30800000470626L219.4544095756434,119.00329093837055L219.5380807745427,119.74126645599773L219.59893255556037,144.34485140963133L219.96404324166636,138.85499169035154L220.1542050573466,119.00329093837055L220.4584639624349,119.00329093837055L220.4812833803165,119.11410143522073L220.71708403175998,119.00329093837055L220.79314875803206,139.2117023234873L220.84639406642253,148.0150521508152L220.9909170463395,129.74621426433882L221.42448598609036,119.00329093837055L221.57661543863452,119.00329093837055L221.59943485651613,119.00329093837055L221.76677725431472,119.00329093837055L222.42854037288186,119.00329093837055L223.1207293819578,119.00329093837055L223.14354879983944,119.00329093837055L223.3869559239101,131.6805068696433L223.52387243119986,119.00329093837055L223.69882130162563,119.00329093837055L224.5735656537546,119.00329093837055L225.69932360258144,119.00329093837055L225.89709189088885,133.242617258406L225.95794367190652,126.14117682846546L226.2393831591132,126.8904152065775L226.65773915360967,128.06999607338292L227.1369469291238,119.1011647973699L227.2358310732775,119.00329093837055L227.94323302760787,140.79660936518792L228.1638207337969,122.23811485662327L228.46807963888526,119.00329093837055L228.9625003596538,119.00329093837055L230.613104919758,119.00329093837055L231.22162272993464,122.63965112885109L231.41939101824207,119.00329093837055L231.59433988866786,102.119310092303L231.73886286858482,127.24635156866795L231.89099232112898,119.00329093837055L231.92902468426502,119.00329093837055L232.05072824630037,119.00329093837055L232.14200591782685,133.40455752563125L232.27131595248937,89.45862494219446L232.476690713424,119.00329093837055L232.9939308520742,119.00329093837055L233.2601573940265,119.00329093837055L233.37425448343458,119.00329093837055L233.4731386275883,119.00329093837055L233.53399040860597,124.60782328145092L233.57202277174198,119.00329093837055L233.83064284106712,126.7571072435968L234.26421178081796,119.00329093837055L234.81948428260418,119.00329093837055L235.07049787930205,119.00329093837055L235.1237431876925,119.91935689450389L235.1922014413374,119.00329093837055L235.580131545325,119.00329093837055L235.60295096320664,145.56907519762575L235.762686888378,120.17607429034695L235.85396455990448,119.00329093837055L235.99848753982147,119.00329093837055L236.15061699236563,119.00329093837055L237.19270374229316,119.00329093837055L237.81643449772423,119.00329093837055L237.82404097035146,119.6990226900634L237.8544668608603,119.00329093837055L238.08266103967654,119.00329093837055L238.2271840195935,119.00329093837055L238.58468823307228,119.9513925948705L239.1399607348585,119.67822225380306L239.17799309799452,119.00329093837055L239.37576138630195,119.00329093837055L239.72565912715353,119.00329093837055L239.83975621656165,119.00329093837055L240.18965395741324,124.15127602636795L240.47109344461995,125.50409013317133L240.8057782402171,119.00329093837055L240.95790769276127,140.91534266637973L241.0035465285245,85.23532924623544L241.10243067267825,119.00329093837055L241.3154119062401,119.00329093837055L241.6272772839556,85.23532924623544L241.65009670183724,144.25154891827248L241.95435560692556,122.59783105774446L242.37271160142203,129.84761924116137L242.4715957455757,85.23532924623544L242.66175756125594,103.50339097473461L242.71500286964638,119.00329093837055L242.74542876015522,119.00329093837055L243.50607602287607,119.00329093837055L243.52889544075768,85.23532924623544L243.70384431118347,136.32978875757763L243.84076081847323,119.00329093837055L244.0841679425439,119.00329093837055L244.563375718058,119.00329093837055L244.66986633483893,119.00329093837055L244.79917636950145,119.00329093837055L244.80678284212868,119.00329093837055L245.12625469247143,130.99153395067606L245.88690195519226,119.00329093837055L246.0998831887541,119.5314129001585L246.32047089494313,121.01901550386363L246.79967867045724,91.87369395130024L247.2180346649537,119.00329093837055L247.59075182368693,157.50191160036L247.62878418682294,119.00329093837055L248.45788970318864,-16.068555830169913L248.54156090208795,134.22316769610842L249.48476350786177,119.14770459613555L249.94115186549428,140.52058393895194L250.222591352701,120.30745215788781L250.38232727787235,124.89758997456514L250.6713732377063,123.99456979367042L250.94520625228577,144.74017873253024L250.95281272491297,119.00329093837055L251.1429745405932,119.00329093837055L251.62218231610734,119.00329093837055L251.66782115187058,121.6103733486757L251.78191824127867,85.23532924623544L252.16984834526633,119.00329093837055L252.29155190730165,119.00329093837055L252.36761663357373,119.00329093837055L252.49692666823626,51.46736755410032L252.67187553866205,119.00329093837055L253.02937975214087,144.41165382976237L253.5238004729094,166.30862268233142L253.58465225392703,119.00329093837055L253.6455040349447,110.44046328510632L254.01061472105073,120.84277449445972L254.07907297469558,85.23532924623544L254.38333187978392,119.02149432125368L254.53546133232808,119.1559746450807L254.6343454764818,119.00329093837055L255.2732891771673,130.31983400607652L255.7448904800542,119.93330360108983L255.8361681515807,137.35248193173703L256.0947882209058,119.00329093837055L256.1100011661602,175.40946618879445L256.4142600712486,119.00329093837055L256.9162872646443,119.00329093837055L257.4867727116849,119.00329093837055L257.8442769251637,119.00329093837055L258.1181099397432,119.00329093837055L258.34630411855943,119.00329093837055L258.5668918247485,119.00329093837055L258.6657759689022,34.58338796598733L258.68859538678385,119.00329093837055L259.19822905280677,119.00329093837055L259.2210484706884,120.79006651195584" style="fill: none;" fill="none"></path></g></g></g></g></g></g><g transform="translate(29, 177)" clip-path="url(#clip_1)"><clipPath id="clip_1"><rect width="300" height="23"></rect></clipPath><g><g><line x1="8.633414239938134" y1="0" x2="8.633414239938134" y2="5" style="visibility: inherit;" fill="rgb(0, 0, 0)" stroke="rgb(204, 204, 204)" stroke-width="1px"></line><line x1="46.66577737597964" y1="0" x2="46.66577737597964" y2="5" style="visibility: inherit;" fill="rgb(0, 0, 0)" stroke="rgb(204, 204, 204)" stroke-width="1px"></line><line x1="84.69814051202114" y1="0" x2="84.69814051202114" y2="5" style="visibility: inherit;" fill="rgb(0, 0, 0)" stroke="rgb(204, 204, 204)" stroke-width="1px"></line><line x1="122.73050364806265" y1="0" x2="122.73050364806265" y2="5" style="visibility: inherit;" fill="rgb(0, 0, 0)" stroke="rgb(204, 204, 204)" stroke-width="1px"></line><line x1="160.76286678410415" y1="0" x2="160.76286678410415" y2="5" style="visibility: inherit;" fill="rgb(0, 0, 0)" stroke="rgb(204, 204, 204)" stroke-width="1px"></line><line x1="198.79522992014566" y1="0" x2="198.79522992014566" y2="5" style="visibility: inherit;" fill="rgb(0, 0, 0)" stroke="rgb(204, 204, 204)" stroke-width="1px"></line><line x1="236.82759305618717" y1="0" x2="236.82759305618717" y2="5" style="visibility: inherit;" fill="rgb(0, 0, 0)" stroke="rgb(204, 204, 204)" stroke-width="1px"></line><line x1="274.8599561922287" y1="0" x2="274.8599561922287" y2="5" style="visibility: inherit;" fill="rgb(0, 0, 0)" stroke="rgb(204, 204, 204)" stroke-width="1px"></line></g><g transform="translate(0, 8)"><text x="8.633414239938134" y="0" dx="0em" dy="0.95em" style="text-anchor: middle; visibility: inherit; font-family: &quot;Helvetica Neue&quot;, sans-serif; font-size: 12px; font-weight: 200;" fill="rgb(50, 49, 63)" stroke="none" stroke-width="1px">0</text><text x="46.66577737597964" y="0" dx="0em" dy="0.95em" style="text-anchor: middle; visibility: inherit; font-family: &quot;Helvetica Neue&quot;, sans-serif; font-size: 12px; font-weight: 200;" fill="rgb(50, 49, 63)" stroke="none" stroke-width="1px">5k</text><text x="84.69814051202114" y="0" dx="0em" dy="0.95em" style="text-anchor: middle; visibility: inherit; font-family: &quot;Helvetica Neue&quot;, sans-serif; font-size: 12px; font-weight: 200;" fill="rgb(50, 49, 63)" stroke="none" stroke-width="1px">10k</text><text x="122.73050364806265" y="0" dx="0em" dy="0.95em" style="text-anchor: middle; visibility: inherit; font-family: &quot;Helvetica Neue&quot;, sans-serif; font-size: 12px; font-weight: 200;" fill="rgb(50, 49, 63)" stroke="none" stroke-width="1px">15k</text><text x="160.76286678410415" y="0" dx="0em" dy="0.95em" style="text-anchor: middle; visibility: inherit; font-family: &quot;Helvetica Neue&quot;, sans-serif; font-size: 12px; font-weight: 200;" fill="rgb(50, 49, 63)" stroke="none" stroke-width="1px">20k</text><text x="198.79522992014566" y="0" dx="0em" dy="0.95em" style="text-anchor: middle; visibility: inherit; font-family: &quot;Helvetica Neue&quot;, sans-serif; font-size: 12px; font-weight: 200;" fill="rgb(50, 49, 63)" stroke="none" stroke-width="1px">25k</text><text x="236.82759305618717" y="0" dx="0em" dy="0.95em" style="text-anchor: middle; visibility: inherit; font-family: &quot;Helvetica Neue&quot;, sans-serif; font-size: 12px; font-weight: 200;" fill="rgb(50, 49, 63)" stroke="none" stroke-width="1px">30k</text><text x="274.8599561922287" y="0" dx="0em" dy="0.95em" style="text-anchor: middle; visibility: inherit; font-family: &quot;Helvetica Neue&quot;, sans-serif; font-size: 12px; font-weight: 200;" fill="rgb(50, 49, 63)" stroke="none" stroke-width="1px">35k</text></g><line x1="0" y1="0" x2="300.5625" y2="0" fill="rgb(0, 0, 0)" stroke="rgb(204, 204, 204)" stroke-width="1px"></line></g></g></g></g></svg>