<svg viewBox="0 0 1112.5999755859375 400" xmlns="http://www.w3.org/2000/svg"><g><g><g><g><g><line x1="39.98800086975098" y1="356.48018582285613" x2="34.98800086975098" y2="356.48018582285613" style="visibility: inherit;" fill="rgb(0, 0, 0)" stroke="rgb(204, 204, 204)" stroke-width="1px"></line><line x1="39.98800086975098" y1="308.85758864219315" x2="34.98800086975098" y2="308.85758864219315" style="visibility: inherit;" fill="rgb(0, 0, 0)" stroke="rgb(204, 204, 204)" stroke-width="1px"></line><line x1="39.98800086975098" y1="261.2349914615303" x2="34.98800086975098" y2="261.2349914615303" style="visibility: inherit;" fill="rgb(0, 0, 0)" stroke="rgb(204, 204, 204)" stroke-width="1px"></line><line x1="39.98800086975098" y1="213.6123942808673" x2="34.98800086975098" y2="213.6123942808673" style="visibility: inherit;" fill="rgb(0, 0, 0)" stroke="rgb(204, 204, 204)" stroke-width="1px"></line><line x1="39.98800086975098" y1="165.9897971002044" x2="34.98800086975098" y2="165.9897971002044" style="visibility: inherit;" fill="rgb(0, 0, 0)" stroke="rgb(204, 204, 204)" stroke-width="1px"></line><line x1="39.98800086975098" y1="118.36719991954146" x2="34.98800086975098" y2="118.36719991954146" style="visibility: inherit;" fill="rgb(0, 0, 0)" stroke="rgb(204, 204, 204)" stroke-width="1px"></line><line x1="39.98800086975098" y1="70.74460273887854" x2="34.98800086975098" y2="70.74460273887854" style="visibility: inherit;" fill="rgb(0, 0, 0)" stroke="rgb(204, 204, 204)" stroke-width="1px"></line><line x1="39.98800086975098" y1="23.12200555821562" x2="34.98800086975098" y2="23.12200555821562" style="visibility: inherit;" fill="rgb(0, 0, 0)" stroke="rgb(204, 204, 204)" stroke-width="1px"></line></g><g transform="translate(29.988000869750977, 0)"><text style="text-anchor: end; visibility: inherit; font-family: &quot;Helvetica Neue&quot;, sans-serif; font-size: 12px; font-weight: 200;" x="0" y="356.48018582285613" dx="0em" dy="0.3em" fill="rgb(50, 49, 63)" stroke="none" stroke-width="1px">-60</text><text style="text-anchor: end; visibility: inherit; font-family: &quot;Helvetica Neue&quot;, sans-serif; font-size: 12px; font-weight: 200;" x="0" y="308.85758864219315" dx="0em" dy="0.3em" fill="rgb(50, 49, 63)" stroke="none" stroke-width="1px">-40</text><text style="text-anchor: end; visibility: inherit; font-family: &quot;Helvetica Neue&quot;, sans-serif; font-size: 12px; font-weight: 200;" x="0" y="261.2349914615303" dx="0em" dy="0.3em" fill="rgb(50, 49, 63)" stroke="none" stroke-width="1px">-20</text><text style="text-anchor: end; visibility: inherit; font-family: &quot;Helvetica Neue&quot;, sans-serif; font-size: 12px; font-weight: 200;" x="0" y="213.6123942808673" dx="0em" dy="0.3em" fill="rgb(50, 49, 63)" stroke="none" stroke-width="1px">0</text><text style="text-anchor: end; visibility: inherit; font-family: &quot;Helvetica Neue&quot;, sans-serif; font-size: 12px; font-weight: 200;" x="0" y="165.9897971002044" dx="0em" dy="0.3em" fill="rgb(50, 49, 63)" stroke="none" stroke-width="1px">20</text><text style="text-anchor: end; visibility: inherit; font-family: &quot;Helvetica Neue&quot;, sans-serif; font-size: 12px; font-weight: 200;" x="0" y="118.36719991954146" dx="0em" dy="0.3em" fill="rgb(50, 49, 63)" stroke="none" stroke-width="1px">40</text><text style="text-anchor: end; visibility: inherit; font-family: &quot;Helvetica Neue&quot;, sans-serif; font-size: 12px; font-weight: 200;" x="0" y="70.74460273887854" dx="0em" dy="0.3em" fill="rgb(50, 49, 63)" stroke="none" stroke-width="1px">60</text><text style="text-anchor: end; visibility: inherit; font-family: &quot;Helvetica Neue&quot;, sans-serif; font-size: 12px; font-weight: 200;" x="0" y="23.12200555821562" dx="0em" dy="0.3em" fill="rgb(50, 49, 63)" stroke="none" stroke-width="1px">80</text></g><line x1="39.98800086975098" y1="0" x2="39.98800086975098" y2="378.60799980163574" fill="rgb(0, 0, 0)" stroke="rgb(204, 204, 204)" stroke-width="1px"></line></g></g><g transform="translate(39, 0)" clip-path="url(#clip_0)"><clipPath id="clip_0"><rect width="1072" height="378"></rect></clipPath><g><g><g><line x1="21.841200678249056" y1="0" x2="21.841200678249056" y2="378.60799980163574" fill="rgb(0, 0, 0)" stroke="rgb(60, 60, 60)" stroke-width="1px" opacity="0.25"></line><line x1="100.86873895690496" y1="0" x2="100.86873895690496" y2="378.60799980163574" fill="rgb(0, 0, 0)" stroke="rgb(60, 60, 60)" stroke-width="1px" opacity="0.25"></line><line x1="179.89627723556086" y1="0" x2="179.89627723556086" y2="378.60799980163574" fill="rgb(0, 0, 0)" stroke="rgb(60, 60, 60)" stroke-width="1px" opacity="0.25"></line><line x1="258.92381551421676" y1="0" x2="258.92381551421676" y2="378.60799980163574" fill="rgb(0, 0, 0)" stroke="rgb(60, 60, 60)" stroke-width="1px" opacity="0.25"></line><line x1="337.9513537928726" y1="0" x2="337.9513537928726" y2="378.60799980163574" fill="rgb(0, 0, 0)" stroke="rgb(60, 60, 60)" stroke-width="1px" opacity="0.25"></line><line x1="416.97889207152855" y1="0" x2="416.97889207152855" y2="378.60799980163574" fill="rgb(0, 0, 0)" stroke="rgb(60, 60, 60)" stroke-width="1px" opacity="0.25"></line><line x1="496.0064303501844" y1="0" x2="496.0064303501844" y2="378.60799980163574" fill="rgb(0, 0, 0)" stroke="rgb(60, 60, 60)" stroke-width="1px" opacity="0.25"></line><line x1="575.0339686288404" y1="0" x2="575.0339686288404" y2="378.60799980163574" fill="rgb(0, 0, 0)" stroke="rgb(60, 60, 60)" stroke-width="1px" opacity="0.25"></line><line x1="654.0615069074963" y1="0" x2="654.0615069074963" y2="378.60799980163574" fill="rgb(0, 0, 0)" stroke="rgb(60, 60, 60)" stroke-width="1px" opacity="0.25"></line><line x1="733.0890451861522" y1="0" x2="733.0890451861522" y2="378.60799980163574" fill="rgb(0, 0, 0)" stroke="rgb(60, 60, 60)" stroke-width="1px" opacity="0.25"></line><line x1="812.1165834648081" y1="0" x2="812.1165834648081" y2="378.60799980163574" fill="rgb(0, 0, 0)" stroke="rgb(60, 60, 60)" stroke-width="1px" opacity="0.25"></line><line x1="891.144121743464" y1="0" x2="891.144121743464" y2="378.60799980163574" fill="rgb(0, 0, 0)" stroke="rgb(60, 60, 60)" stroke-width="1px" opacity="0.25"></line><line x1="970.1716600221199" y1="0" x2="970.1716600221199" y2="378.60799980163574" fill="rgb(0, 0, 0)" stroke="rgb(60, 60, 60)" stroke-width="1px" opacity="0.25"></line><line x1="1049.1991983007758" y1="0" x2="1049.1991983007758" y2="378.60799980163574" fill="rgb(0, 0, 0)" stroke="rgb(60, 60, 60)" stroke-width="1px" opacity="0.25"></line></g><g><line x1="0" y1="356.48018582285613" x2="1072.611999130249" y2="356.48018582285613" fill="rgb(0, 0, 0)" stroke="rgb(60, 60, 60)" stroke-width="1px" opacity="0.25"></line><line x1="0" y1="308.85758864219315" x2="1072.611999130249" y2="308.85758864219315" fill="rgb(0, 0, 0)" stroke="rgb(60, 60, 60)" stroke-width="1px" opacity="0.25"></line><line x1="0" y1="261.2349914615303" x2="1072.611999130249" y2="261.2349914615303" fill="rgb(0, 0, 0)" stroke="rgb(60, 60, 60)" stroke-width="1px" opacity="0.25"></line><line x1="0" y1="213.6123942808673" x2="1072.611999130249" y2="213.6123942808673" fill="rgb(0, 0, 0)" stroke="rgb(60, 60, 60)" stroke-width="1px" opacity="0.25"></line><line x1="0" y1="165.9897971002044" x2="1072.611999130249" y2="165.9897971002044" fill="rgb(0, 0, 0)" stroke="rgb(60, 60, 60)" stroke-width="1px" opacity="0.25"></line><line x1="0" y1="118.36719991954146" x2="1072.611999130249" y2="118.36719991954146" fill="rgb(0, 0, 0)" stroke="rgb(60, 60, 60)" stroke-width="1px" opacity="0.25"></line><line x1="0" y1="70.74460273887854" x2="1072.611999130249" y2="70.74460273887854" fill="rgb(0, 0, 0)" stroke="rgb(60, 60, 60)" stroke-width="1px" opacity="0.25"></line><line x1="0" y1="23.12200555821562" x2="1072.611999130249" y2="23.12200555821562" fill="rgb(0, 0, 0)" stroke="rgb(60, 60, 60)" stroke-width="1px" opacity="0.25"></line></g></g></g><g><g><line x1="0" y1="213.6123942808673" x2="1072.611999130249" y2="213.6123942808673" fill="rgb(0, 0, 0)" stroke="rgb(153, 153, 153)" stroke-width="1.5px"></line></g></g><g><g><line x1="21.841200678249056" y1="0" x2="21.841200678249056" y2="378.60799980163574" fill="rgb(0, 0, 0)" stroke="rgb(153, 153, 153)" stroke-width="1.5px"></line></g></g><g><g><g><g><g><path style="fill: none;" stroke="rgb(255, 112, 67)" stroke-width="2px" d="M25.792577592181853,341.1990589602666L29.743954506114648,335.86198142882597L33.69533142004744,340.9015267273622L37.64670833398024,335.50023942200534L41.59808524791303,335.9040370594997L45.549462161845824,334.20991272322544L49.50083907577862,338.9148296342846L53.45221598971142,336.4331295932171L57.40359290364422,346.7119889776343L61.35496981757701,339.04750924492186L65.3063467315098,343.7415534583749L69.2577236454426,100.5140942009242L73.20910055937539,346.1649387804521L77.16047747330819,343.4247192351505L81.11185438724098,344.68765073261034L85.06323130117377,337.6685205567239L89.01460821510656,341.3842218179951L92.96598512903937,344.7654127745536L96.91736204297217,345.87605383921107L100.86873895690496,343.82214948666166L104.82011587083775,86.52839884584864L108.77149278477054,345.715724695146L112.72286969870333,346.600646014179L116.67424661263614,344.0142519776158L120.62562352656893,343.78545299682975L124.57700044050173,344.41638737312024L128.52837735443453,347.34285977089786L132.47975426836732,341.13156103552876L136.4311311823001,341.59211106620864L140.3825080962329,339.18870898116865L144.3338850101657,342.2183766316641L148.28526192409848,106.26716822774142L152.2366388380313,342.71674948008166L156.1880157519641,345.33571619301546L160.13939266589688,344.20500105842524L164.09076957982967,336.3648232557082L168.04214649376246,341.92124406350047L171.99352340769528,342.6507593814112L175.94490032162807,340.7207601817818L179.89627723556086,344.40271702232894L183.84765414949365,341.72310118498734L187.79903106342644,340.6938100616503L191.75040797735923,340.5989714353298L195.70178489129205,23.57805936056218L199.65316180522484,340.48889104912365L203.60453871915763,339.49120977346365L207.55591563309042,340.6910487416234L211.5072925470232,345.1411521305899L215.458669460956,336.8961230287893L219.4100463748888,342.6354812883673L223.36142328882158,342.45590465371964L227.31280020275437,342.6517040435257L231.26417711668716,343.5045976835618L235.21555403061998,342.295566426365L239.1669309445528,337.31074794744194L243.1183078584856,333.77417823962986L247.06968477241838,336.7726811236369L251.02106168635117,340.21601086409146L254.97243860028397,337.81484326828377L258.92381551421676,337.14677640426237L262.87519242814955,342.46830334397225L266.82656934208234,338.79348596902116L270.7779462560151,331.40584673559005L274.729323169948,332.2830654250742L278.6807000838807,336.763152752886L282.63207699781356,341.9107346974768L286.5834539117463,336.6709755304073L290.53483082567914,335.2975458154214L294.48620773961187,335.76531706130345L298.4375846535447,335.6500682833363L302.3889615674775,335.8710738016779L306.3403384814103,337.890116488887L310.2917153953431,337.5154035445713L314.2430923092759,341.4456339387262L318.19446922320867,332.3964612119706L322.14584613714146,335.6521029401983L326.09722305107425,340.3452206581159L330.04859996500704,339.7403916560276L333.9999768789399,340.1341340919764L337.9513537928726,341.46218369230877L341.90273070680547,334.5406171296115L345.85410762073826,337.6944715150035L349.80548453467105,340.00032815343343L353.75686144860384,333.4781265829241L357.70823836253663,337.81908516450943L361.6596152764694,340.17433673157944L365.6109921904022,336.0910801581676L369.562369104335,336.6811033982693L373.5137460182678,342.95202484632574L377.4651229322006,335.0267093705408L381.4164998461334,335.93977072063797L385.36787676006617,332.99177092659755L389.319253673999,342.69815598634756L393.2706305879318,336.06196821512026L397.2220075018646,332.4505885344726L401.1733844157974,342.2775451798733L405.1247613297302,331.1190146177901L409.07613824366297,332.12517060261183L413.02751515759576,333.77705764242114L416.97889207152855,338.6215392976058L420.93026898546134,338.9583113414196L424.88164589939413,333.9743739415841L428.8330228133269,331.6183230450326L432.78439972725977,338.02787365838964L436.7357766411925,335.26000457966023L440.68715355512535,332.3871145070109L444.6385304690581,336.4264261255201L448.58990738299093,336.0364986711874L452.54128429692366,332.2433078666598L456.4926612108565,336.57814431108005L460.4440381247893,332.9823333887423L464.3954150387221,332.6422277776591L468.3467919526549,329.4582986205262L472.2981688665877,334.884119890991L476.2495457805205,335.8979149223346L480.20092269445325,339.1639842669799L484.1522996083861,334.14985401263914L488.10367652231884,339.1817420980743L492.0550534362517,334.9243406971731L496.0064303501844,336.9259162185538L499.95780726411726,339.2291387030107L503.90918417805,333.09588359156123L507.8605610919829,334.94329752248973L511.81193800591564,334.6596173061679L515.7633149198485,336.8829431756343L519.7146918337812,341.00618438969957L523.6660687477141,72.26272925659265L527.6174456616469,334.54811084350047L531.5688225755797,338.8440617253043L535.5201994895125,334.1855785904879L539.4715764034453,336.75624036952905L543.4229533173781,335.44386852698136L547.3743302313109,335.9797008615541L551.3257071452435,329.7174993714775L555.2770840591764,337.7617605240814L559.2284609731092,341.6833981263103L563.179837887042,334.3391951835664L567.1312148009748,338.42854664427455L571.0825917149076,339.07633960599276L575.0339686288404,336.6065023410937L578.9853455427732,334.35047662920283L582.9367224567061,334.72857764052526L586.8880993706388,339.0607435978142L590.8394762845716,339.2151776869533L594.7908531985044,334.90570178699113L598.7422301124373,337.2407975345223L602.6936070263699,334.9000883140416L606.6449839403027,336.84341269945895L610.5963608542356,332.0083958319982L614.5477377681684,334.2810984635256L618.4991146821011,335.4844163315877L622.4504915960339,336.5148156162513L626.4018685099668,336.694746499192L630.3532454238996,331.0803743039919L634.3046223378323,336.9001196761967L638.255999251765,336.9947675534364L642.207376165698,335.3907494496207L646.1587530796307,339.12904085203354L650.1101299935635,335.3096992568559L654.0615069074963,328.97186121459356L658.0128838214291,326.18175624301557L661.9642607353619,337.6220231974542L665.9156376492947,333.7621973806971L669.8670145632275,336.8783742809845L673.8183914771603,334.7090758178349L677.7697683910931,338.6796269343571L681.7211453050259,334.86651647581914L685.6725222189586,338.8919306612979L689.6238991328914,336.950631849453L693.5752760468242,339.4599905072378L697.5266529607571,339.45969075868226L701.4780298746899,340.764341805102L705.4294067886226,334.57878511235253L709.3807837025554,333.83659860550233L713.3321606164883,337.4013083443786L717.2835375304211,331.28775488798993L721.2349144443538,334.27109776171744L725.1862913582866,340.36737480135855L729.1376682722195,335.3622370036845L733.0890451861522,333.9201103697386L737.0404221000849,339.35371601935833L740.9917990140178,338.7703962469536L744.9431759279506,340.69936903486246L748.8945528418834,334.90073322760054L752.8459297558161,336.532255532211L756.797306669749,329.7688926238213L760.7486835836818,338.89322048841575L764.7000604976146,336.9446550449209L768.6514374115472,336.7416162733337L772.6028143254802,337.4073487319376L776.554191239413,334.0413995352647L780.5055681533457,336.75846577547185L784.4569450672786,342.4547329093661L788.4083219812113,336.0269067174096L792.3596988951441,328.96362267096055L796.3110758090769,338.7425468811555L800.2624527230098,334.8424548417685L804.2138296369425,335.404919381338L808.1652065508753,339.1969566080912L812.1165834648081,333.57355562306617L816.067960378741,333.6055288023257L820.0193372926736,335.6713958472287L823.9707142066064,335.0337943363994L827.9220911205393,339.07098954844054L831.8734680344721,335.921858473621L835.8248449484049,341.15104469164L839.7762218623376,335.3472949923544L843.7275987762705,337.06689795585106L847.6789756902033,339.5818155868481L851.6303526041361,337.05454468204624L855.5817295180688,341.6911643388861L859.5331064320017,331.24440034690883L863.4844833459344,335.1867932657877L867.4358602598672,337.652806465781L871.3872371738,333.34372114727L875.3386140877328,335.98860248532515L879.2899910016656,334.94951049255036L883.2413679155984,334.33569811708486L887.1927448295313,338.756026482866L891.144121743464,337.89331380681296L895.0954986573968,336.504133667726L899.0468755713296,335.70017170856227L902.9982524852625,336.84843575858696L906.9496293991951,336.3496450788495L910.9010063131279,335.8951081858599L914.8523832270608,339.67329339603054L918.8037601409936,341.3046794512976L922.7551370549263,336.2466133253438L926.7065139688591,340.53246358915425L930.657890882792,336.0047344075879L934.6092677967248,334.9864794810691L938.5606447106575,338.39706396265143L942.5120216245903,332.2765708730371L946.4633985385232,338.53561137834595L950.414775452456,335.9648769329883L954.3661523663886,334.6780563839795L958.3175292803215,339.4091695021365L962.2689061942543,333.34704563124984L966.2202831081871,342.5233208288514L970.1716600221199,339.2626106250479L974.1230369360527,340.44811616227827L978.0744138499855,336.71830855231667L982.0257907639183,336.8558658894489L985.9771676778511,329.6140407033623L989.9285445917839,333.17960427145744L993.8799215057167,336.6714478614645L997.8312984196494,333.7855959346097L1001.7826753335823,339.8265557408161L1005.734052247515,332.4118483044892L1009.6854291614478,338.86859569041223L1013.6368060753806,335.8936003597925L1017.5881829893135,333.18297417188506L1021.5395599032463,338.5108594142886L1025.490936817179,334.2651482070541L1029.4423137311119,333.71876109000993L1033.3936906450447,338.82079033744554L1037.3450675589775,333.82786048094334L1041.2964444729103,339.6024982371816" fill="none"></path></g></g></g></g></g></g><g transform="translate(39, 378)" clip-path="url(#clip_1)"><clipPath id="clip_1"><rect width="1072" height="21"></rect></clipPath><g><g><line x1="21.841200678249056" y1="0" x2="21.841200678249056" y2="5" style="visibility: inherit;" fill="rgb(0, 0, 0)" stroke="rgb(204, 204, 204)" stroke-width="1px"></line><line x1="100.86873895690496" y1="0" x2="100.86873895690496" y2="5" style="visibility: inherit;" fill="rgb(0, 0, 0)" stroke="rgb(204, 204, 204)" stroke-width="1px"></line><line x1="179.89627723556086" y1="0" x2="179.89627723556086" y2="5" style="visibility: inherit;" fill="rgb(0, 0, 0)" stroke="rgb(204, 204, 204)" stroke-width="1px"></line><line x1="258.92381551421676" y1="0" x2="258.92381551421676" y2="5" style="visibility: inherit;" fill="rgb(0, 0, 0)" stroke="rgb(204, 204, 204)" stroke-width="1px"></line><line x1="337.9513537928726" y1="0" x2="337.9513537928726" y2="5" style="visibility: inherit;" fill="rgb(0, 0, 0)" stroke="rgb(204, 204, 204)" stroke-width="1px"></line><line x1="416.97889207152855" y1="0" x2="416.97889207152855" y2="5" style="visibility: inherit;" fill="rgb(0, 0, 0)" stroke="rgb(204, 204, 204)" stroke-width="1px"></line><line x1="496.0064303501844" y1="0" x2="496.0064303501844" y2="5" style="visibility: inherit;" fill="rgb(0, 0, 0)" stroke="rgb(204, 204, 204)" stroke-width="1px"></line><line x1="575.0339686288404" y1="0" x2="575.0339686288404" y2="5" style="visibility: inherit;" fill="rgb(0, 0, 0)" stroke="rgb(204, 204, 204)" stroke-width="1px"></line><line x1="654.0615069074963" y1="0" x2="654.0615069074963" y2="5" style="visibility: inherit;" fill="rgb(0, 0, 0)" stroke="rgb(204, 204, 204)" stroke-width="1px"></line><line x1="733.0890451861522" y1="0" x2="733.0890451861522" y2="5" style="visibility: inherit;" fill="rgb(0, 0, 0)" stroke="rgb(204, 204, 204)" stroke-width="1px"></line><line x1="812.1165834648081" y1="0" x2="812.1165834648081" y2="5" style="visibility: inherit;" fill="rgb(0, 0, 0)" stroke="rgb(204, 204, 204)" stroke-width="1px"></line><line x1="891.144121743464" y1="0" x2="891.144121743464" y2="5" style="visibility: inherit;" fill="rgb(0, 0, 0)" stroke="rgb(204, 204, 204)" stroke-width="1px"></line><line x1="970.1716600221199" y1="0" x2="970.1716600221199" y2="5" style="visibility: inherit;" fill="rgb(0, 0, 0)" stroke="rgb(204, 204, 204)" stroke-width="1px"></line><line x1="1049.1991983007758" y1="0" x2="1049.1991983007758" y2="5" style="visibility: inherit;" fill="rgb(0, 0, 0)" stroke="rgb(204, 204, 204)" stroke-width="1px"></line></g><g transform="translate(0, 8)"><text style="text-anchor: middle; visibility: hidden; font-family: &quot;Helvetica Neue&quot;, sans-serif; font-size: 12px; font-weight: 200;" x="21.841200678249056" y="0" dx="0em" dy="0.95em" fill="rgb(50, 49, 63)" stroke="none" stroke-width="1px">0</text><text style="text-anchor: middle; visibility: hidden; font-family: &quot;Helvetica Neue&quot;, sans-serif; font-size: 12px; font-weight: 200;" x="100.86873895690496" y="0" dx="0em" dy="0.95em" fill="rgb(50, 49, 63)" stroke="none" stroke-width="1px">20</text><text style="text-anchor: middle; visibility: hidden; font-family: &quot;Helvetica Neue&quot;, sans-serif; font-size: 12px; font-weight: 200;" x="179.89627723556086" y="0" dx="0em" dy="0.95em" fill="rgb(50, 49, 63)" stroke="none" stroke-width="1px">40</text><text style="text-anchor: middle; visibility: hidden; font-family: &quot;Helvetica Neue&quot;, sans-serif; font-size: 12px; font-weight: 200;" x="258.92381551421676" y="0" dx="0em" dy="0.95em" fill="rgb(50, 49, 63)" stroke="none" stroke-width="1px">60</text><text style="text-anchor: middle; visibility: hidden; font-family: &quot;Helvetica Neue&quot;, sans-serif; font-size: 12px; font-weight: 200;" x="337.9513537928726" y="0" dx="0em" dy="0.95em" fill="rgb(50, 49, 63)" stroke="none" stroke-width="1px">80</text><text style="text-anchor: middle; visibility: hidden; font-family: &quot;Helvetica Neue&quot;, sans-serif; font-size: 12px; font-weight: 200;" x="416.97889207152855" y="0" dx="0em" dy="0.95em" fill="rgb(50, 49, 63)" stroke="none" stroke-width="1px">100</text><text style="text-anchor: middle; visibility: hidden; font-family: &quot;Helvetica Neue&quot;, sans-serif; font-size: 12px; font-weight: 200;" x="496.0064303501844" y="0" dx="0em" dy="0.95em" fill="rgb(50, 49, 63)" stroke="none" stroke-width="1px">120</text><text style="text-anchor: middle; visibility: hidden; font-family: &quot;Helvetica Neue&quot;, sans-serif; font-size: 12px; font-weight: 200;" x="575.0339686288404" y="0" dx="0em" dy="0.95em" fill="rgb(50, 49, 63)" stroke="none" stroke-width="1px">140</text><text style="text-anchor: middle; visibility: hidden; font-family: &quot;Helvetica Neue&quot;, sans-serif; font-size: 12px; font-weight: 200;" x="654.0615069074963" y="0" dx="0em" dy="0.95em" fill="rgb(50, 49, 63)" stroke="none" stroke-width="1px">160</text><text style="text-anchor: middle; visibility: hidden; font-family: &quot;Helvetica Neue&quot;, sans-serif; font-size: 12px; font-weight: 200;" x="733.0890451861522" y="0" dx="0em" dy="0.95em" fill="rgb(50, 49, 63)" stroke="none" stroke-width="1px">180</text><text style="text-anchor: middle; visibility: hidden; font-family: &quot;Helvetica Neue&quot;, sans-serif; font-size: 12px; font-weight: 200;" x="812.1165834648081" y="0" dx="0em" dy="0.95em" fill="rgb(50, 49, 63)" stroke="none" stroke-width="1px">200</text><text style="text-anchor: middle; visibility: hidden; font-family: &quot;Helvetica Neue&quot;, sans-serif; font-size: 12px; font-weight: 200;" x="891.144121743464" y="0" dx="0em" dy="0.95em" fill="rgb(50, 49, 63)" stroke="none" stroke-width="1px">220</text><text style="text-anchor: middle; visibility: hidden; font-family: &quot;Helvetica Neue&quot;, sans-serif; font-size: 12px; font-weight: 200;" x="970.1716600221199" y="0" dx="0em" dy="0.95em" fill="rgb(50, 49, 63)" stroke="none" stroke-width="1px">240</text><text style="text-anchor: middle; visibility: hidden; font-family: &quot;Helvetica Neue&quot;, sans-serif; font-size: 12px; font-weight: 200;" x="1049.1991983007758" y="0" dx="0em" dy="0.95em" fill="rgb(50, 49, 63)" stroke="none" stroke-width="1px">260</text></g><line x1="0" y1="0" x2="1072.611999130249" y2="0" fill="rgb(0, 0, 0)" stroke="rgb(204, 204, 204)" stroke-width="1px"></line></g></g></g></g></svg>