<svg viewBox="0 0 1112.5999755859375 400" xmlns="http://www.w3.org/2000/svg"><g><g><g><g><g><line x1="59.98000144958496" y1="353.01861948339416" x2="54.98000144958496" y2="353.01861948339416" style="visibility: inherit;" fill="rgb(0, 0, 0)" stroke="rgb(204, 204, 204)" stroke-width="1px"></line><line x1="59.98000144958496" y1="299.53204578421673" x2="54.98000144958496" y2="299.53204578421673" style="visibility: inherit;" fill="rgb(0, 0, 0)" stroke="rgb(204, 204, 204)" stroke-width="1px"></line><line x1="59.98000144958496" y1="246.04547208503936" x2="54.98000144958496" y2="246.04547208503936" style="visibility: inherit;" fill="rgb(0, 0, 0)" stroke="rgb(204, 204, 204)" stroke-width="1px"></line><line x1="59.98000144958496" y1="192.55889838586197" x2="54.98000144958496" y2="192.55889838586197" style="visibility: inherit;" fill="rgb(0, 0, 0)" stroke="rgb(204, 204, 204)" stroke-width="1px"></line><line x1="59.98000144958496" y1="139.07232468668457" x2="54.98000144958496" y2="139.07232468668457" style="visibility: inherit;" fill="rgb(0, 0, 0)" stroke="rgb(204, 204, 204)" stroke-width="1px"></line><line x1="59.98000144958496" y1="85.5857509875072" x2="54.98000144958496" y2="85.5857509875072" style="visibility: inherit;" fill="rgb(0, 0, 0)" stroke="rgb(204, 204, 204)" stroke-width="1px"></line><line x1="59.98000144958496" y1="32.09917728832977" x2="54.98000144958496" y2="32.09917728832977" style="visibility: inherit;" fill="rgb(0, 0, 0)" stroke="rgb(204, 204, 204)" stroke-width="1px"></line></g><g transform="translate(49.98000144958496, 0)"><text style="text-anchor: end; visibility: inherit; font-family: &quot;Helvetica Neue&quot;, sans-serif; font-size: 12px; font-weight: 200;" x="0" y="353.01861948339416" dx="0em" dy="0.3em" fill="rgb(50, 49, 63)" stroke="none" stroke-width="1px">-1e+3</text><text style="text-anchor: end; visibility: inherit; font-family: &quot;Helvetica Neue&quot;, sans-serif; font-size: 12px; font-weight: 200;" x="0" y="299.53204578421673" dx="0em" dy="0.3em" fill="rgb(50, 49, 63)" stroke="none" stroke-width="1px">-800</text><text style="text-anchor: end; visibility: inherit; font-family: &quot;Helvetica Neue&quot;, sans-serif; font-size: 12px; font-weight: 200;" x="0" y="246.04547208503936" dx="0em" dy="0.3em" fill="rgb(50, 49, 63)" stroke="none" stroke-width="1px">-600</text><text style="text-anchor: end; visibility: inherit; font-family: &quot;Helvetica Neue&quot;, sans-serif; font-size: 12px; font-weight: 200;" x="0" y="192.55889838586197" dx="0em" dy="0.3em" fill="rgb(50, 49, 63)" stroke="none" stroke-width="1px">-400</text><text style="text-anchor: end; visibility: inherit; font-family: &quot;Helvetica Neue&quot;, sans-serif; font-size: 12px; font-weight: 200;" x="0" y="139.07232468668457" dx="0em" dy="0.3em" fill="rgb(50, 49, 63)" stroke="none" stroke-width="1px">-200</text><text style="text-anchor: end; visibility: inherit; font-family: &quot;Helvetica Neue&quot;, sans-serif; font-size: 12px; font-weight: 200;" x="0" y="85.5857509875072" dx="0em" dy="0.3em" fill="rgb(50, 49, 63)" stroke="none" stroke-width="1px">0</text><text style="text-anchor: end; visibility: inherit; font-family: &quot;Helvetica Neue&quot;, sans-serif; font-size: 12px; font-weight: 200;" x="0" y="32.09917728832977" dx="0em" dy="0.3em" fill="rgb(50, 49, 63)" stroke="none" stroke-width="1px">200</text></g><line x1="59.98000144958496" y1="0" x2="59.98000144958496" y2="378.60799980163574" fill="rgb(0, 0, 0)" stroke="rgb(204, 204, 204)" stroke-width="1px"></line></g></g><g transform="translate(59, 0)" clip-path="url(#clip_0)"><clipPath id="clip_0"><rect width="1052" height="378"></rect></clipPath><g><g><g><line x1="13.912914214471133" y1="0" x2="13.912914214471133" y2="378.60799980163574" fill="rgb(0, 0, 0)" stroke="rgb(60, 60, 60)" stroke-width="1px" opacity="0.25"></line><line x1="141.79113559410766" y1="0" x2="141.79113559410766" y2="378.60799980163574" fill="rgb(0, 0, 0)" stroke="rgb(60, 60, 60)" stroke-width="1px" opacity="0.25"></line><line x1="269.6693569737442" y1="0" x2="269.6693569737442" y2="378.60799980163574" fill="rgb(0, 0, 0)" stroke="rgb(60, 60, 60)" stroke-width="1px" opacity="0.25"></line><line x1="397.5475783533808" y1="0" x2="397.5475783533808" y2="378.60799980163574" fill="rgb(0, 0, 0)" stroke="rgb(60, 60, 60)" stroke-width="1px" opacity="0.25"></line><line x1="525.4257997330174" y1="0" x2="525.4257997330174" y2="378.60799980163574" fill="rgb(0, 0, 0)" stroke="rgb(60, 60, 60)" stroke-width="1px" opacity="0.25"></line><line x1="653.3040211126539" y1="0" x2="653.3040211126539" y2="378.60799980163574" fill="rgb(0, 0, 0)" stroke="rgb(60, 60, 60)" stroke-width="1px" opacity="0.25"></line><line x1="781.1822424922906" y1="0" x2="781.1822424922906" y2="378.60799980163574" fill="rgb(0, 0, 0)" stroke="rgb(60, 60, 60)" stroke-width="1px" opacity="0.25"></line><line x1="909.060463871927" y1="0" x2="909.060463871927" y2="378.60799980163574" fill="rgb(0, 0, 0)" stroke="rgb(60, 60, 60)" stroke-width="1px" opacity="0.25"></line><line x1="1036.9386852515636" y1="0" x2="1036.9386852515636" y2="378.60799980163574" fill="rgb(0, 0, 0)" stroke="rgb(60, 60, 60)" stroke-width="1px" opacity="0.25"></line></g><g><line x1="0" y1="353.01861948339416" x2="1052.619998550415" y2="353.01861948339416" fill="rgb(0, 0, 0)" stroke="rgb(60, 60, 60)" stroke-width="1px" opacity="0.25"></line><line x1="0" y1="299.53204578421673" x2="1052.619998550415" y2="299.53204578421673" fill="rgb(0, 0, 0)" stroke="rgb(60, 60, 60)" stroke-width="1px" opacity="0.25"></line><line x1="0" y1="246.04547208503936" x2="1052.619998550415" y2="246.04547208503936" fill="rgb(0, 0, 0)" stroke="rgb(60, 60, 60)" stroke-width="1px" opacity="0.25"></line><line x1="0" y1="192.55889838586197" x2="1052.619998550415" y2="192.55889838586197" fill="rgb(0, 0, 0)" stroke="rgb(60, 60, 60)" stroke-width="1px" opacity="0.25"></line><line x1="0" y1="139.07232468668457" x2="1052.619998550415" y2="139.07232468668457" fill="rgb(0, 0, 0)" stroke="rgb(60, 60, 60)" stroke-width="1px" opacity="0.25"></line><line x1="0" y1="85.5857509875072" x2="1052.619998550415" y2="85.5857509875072" fill="rgb(0, 0, 0)" stroke="rgb(60, 60, 60)" stroke-width="1px" opacity="0.25"></line><line x1="0" y1="32.09917728832977" x2="1052.619998550415" y2="32.09917728832977" fill="rgb(0, 0, 0)" stroke="rgb(60, 60, 60)" stroke-width="1px" opacity="0.25"></line></g></g></g><g><g><line x1="0" y1="85.5857509875072" x2="1052.619998550415" y2="85.5857509875072" fill="rgb(0, 0, 0)" stroke="rgb(153, 153, 153)" stroke-width="1.5px"></line></g></g><g><g><line x1="13.912914214471133" y1="0" x2="13.912914214471133" y2="378.60799980163574" fill="rgb(0, 0, 0)" stroke="rgb(153, 153, 153)" stroke-width="1.5px"></line></g></g><g><g><g><g><g><path style="fill: none;" stroke="rgb(255, 112, 67)" stroke-width="2px" d="M15.447452871026773,106.35018749745171L18.005017298619507,115.47213940020231L18.772286626897323,115.42137805365445L20.306825283452962,112.93481767696568L24.39892836760133,117.32077216309506L24.910441253119878,120.32654012381676L25.421954138638423,123.38165596316855L25.677710581397694,123.09444027770687L26.189223466916243,120.48191400342921L27.72376212347188,120.77397303916075L27.979518566231153,121.08638812181289L28.4910314517497,123.36200791648639L30.792839436583158,121.11962455194947L32.3273780931388,122.07111371629054L32.58313453589807,123.05815460344311L32.83889097865734,114.58061026338953L33.09464742141661,107.60150017123476L34.37342963521298,111.0519220015392L36.41948117728717,113.7985377710558L38.20977627660208,101.52770636806338L40.255827818676266,101.99937166579178L41.023097146954086,100.2446041272579L41.27885358971336,104.97418038325816L43.06914868902827,116.30287882211434L44.347930902824636,128.0069620628683L46.39398244489882,123.47636434270268L47.16125177317664,133.30756919091962L47.41700821593591,138.4061473715988L49.71881620076937,150.04599497386107L50.23032908628791,154.2222406764615L50.48608552904719,366.306804711182L52.53213707112137,330.7390329576684L53.81091928491774,311.13102945287676L54.57818861319556,288.14240777530637L56.87999659802901,274.7183221838273L57.13575304078829,260.56672943687784L59.43756102562175,256.7779081483419L59.693317468381025,250.014341001468L60.97209968217739,239.49653635340238L61.483612567695936,239.1335694980502L61.739369010455206,235.93734354701925L62.7623947814923,228.6602378818242L64.80844632356649,217.9143611484705L66.85449786564065,208.74923977656525L67.11025430839994,201.88977553672942L67.36601075115921,216.07372276348465L68.38903652219629,212.9057136751855L71.20235739254831,188.90241096842655L72.73689604910395,171.65917513273357L74.01567826290032,157.91569814246378L74.78294759117813,158.14971299639282L77.85202490428941,155.76885936447363L79.38656356084505,143.05269218457187L80.66534577464142,130.74416109355954L81.43261510291923,129.87286154409605L82.45564087395633,130.49891097870642L83.47866664499341,131.66567731079286L83.99017953051195,127.7726177987509L88.84955194293815,117.65533961189942L90.12833415673451,110.49478705600217L90.38409059949379,124.4888786721165L91.66287281329015,128.529039624237L92.68589858432726,136.3701925959963L92.94165502708653,125.5607225334895L93.45316791260507,130.72163570173757L95.49921945467925,127.3941338982535L95.75497589743853,134.69181792805668L97.28951455399417,135.88958661449243L97.54527099675343,130.39236544656436L97.80102743951272,135.96231459687232L98.56829676779053,133.73631052284696L100.87010475262399,137.00667640197722L102.91615629469818,136.56746495498746L107.00825937884655,138.8385752762649L108.03128514988364,129.5098809101042L109.56582380643927,130.14617837947884L110.58884957747637,130.34847488240365L111.10036246299491,134.47307429516405L114.16943977610619,137.17234461910087L114.42519621886545,139.17558831816828L118.51729930301384,133.19036803174848L121.84213305888439,127.16201718718438L122.09788950164366,126.83180518604334L122.6094023871622,125.0267989205212L124.14394104371785,131.74367223125793L126.44574902855129,137.4328963923447L126.95726191406985,127.50778417856515L127.21301835682912,125.65938852540543L127.98028768510693,129.70276900501943L129.51482634166257,129.0878536266936L131.81663432649603,138.09867430656385L132.58390365477382,141.76678180663146L132.8396600975331,149.89365389120033L135.14146808236657,159.00790571847722L135.39722452512584,155.4738110607608L139.23357116651493,150.8237087241655L139.7450840520335,145.57657603523091L140.25659693755205,140.48276982070365L143.83718713618185,144.2139007752598L145.11596934997823,150.91906704578085L145.62748223549679,148.63208753798386L146.3947515637746,140.18827935466257L148.44080310584877,142.3153816402126L149.9753417624044,148.03206916439407L150.48685464792297,145.76754807587943L151.25412397620076,143.01490832817478L152.78866263275643,140.42926932964917L154.06744484655277,139.41575092638416L156.6250092741455,143.47297342106438L157.13652215966405,142.58544128123305L158.15954793070114,145.64064477667137L159.69408658725678,136.194146905934L160.7171123582939,133.86724787818147L160.97286880105315,127.42923370521584L162.2516510148495,131.9391836653864L162.76316390036806,134.86788716268558L163.01892034312735,138.94331677631305L163.53043322864588,130.10780150979593L164.04194611416443,130.2916193461569L164.29770255692372,125.63494213628013L165.57648477072007,139.18237546660401L165.83224121347934,137.40675556303412L168.1340491983128,134.55778469967498L169.66858785486843,137.7940828333029L170.180100740387,140.2224208577044L171.45888295418337,139.93411777684875L172.7376651679797,135.9374675070421L173.24917805349827,139.22777176905245L176.31825536660955,141.5726986829207L178.10855046592445,139.21282693184418L178.36430690868372,143.17220213215657L178.87581979420227,141.23551731463652L179.13157623696154,143.9438602008992L179.38733267972083,142.44134951470673L179.6430891224801,143.73364133254424L180.15460200799862,142.76297860010465L180.92187133627644,137.31401188104078L181.94489710731352,138.69043331854087L183.2236793211099,141.41441984220867L183.99094864938772,142.02012883312997L185.0139744204248,145.57016078766773L185.78124374870265,149.60697945115024L186.03700019146194,150.48743066475865L186.54851307698047,152.1519432099663L186.80426951973973,153.62968480731996L187.57153884801755,153.69237837293534L187.82729529077685,155.12644445463104L188.59456461905464,153.938853637809L188.85032106181393,152.60023615310732L190.1291032756103,154.98564756118327L190.38485971836954,152.52545980139527L192.17515481768447,149.78744440541743L192.9424241459623,137.82652663148778L193.96544991699938,138.9702944018211L194.7327192452772,136.13789901916627L195.24423213079575,133.98994355791564L195.75574501631428,127.74775161101022L196.7787707873514,139.80020973520297L197.80179655838847,138.68104013582425L198.5690658866663,138.14799894948456L198.82482232942556,134.82114848459312L199.08057877218485,135.4895860145742L200.87087387149975,127.8449768813312L202.4054125280554,130.1060894044089L202.91692541357395,128.9747611908101L203.1726818563332,124.44155487429578L204.1957076273703,116.50711709762356L205.2187333984074,119.24036300485903L205.9860027266852,120.584680041902L206.2417591694445,123.12460611426891L206.49751561220378,119.49212694282431L207.0090284977223,112.63183461200492L207.52054138324087,113.45149853465301L209.82234936807433,111.82380936149787L210.0781058108336,108.59294495613926L210.8453751391114,108.44949243406461L211.10113158187067,107.39960374543563L211.35688802462997,114.27379462082257L211.86840091014852,117.656174752673L212.12415735290776,110.05439135569537L213.65869600946343,113.4583882938054L214.6817217805005,112.82317240222733L214.9374782232598,115.24134353514796L215.44899110877833,116.2164870615448L215.9605039942969,117.74186043938539L216.7277733225747,120.57870627957567L216.98352976533397,122.0978961543347L217.23928620809323,124.49818100248959L217.4950426508525,129.96856388748958L218.26231197913032,126.05830590296998L219.2853377501674,122.78182558575924L220.56411996396378,120.35163898447536L220.81987640672307,122.8238458802737L221.07563284948233,126.49718785293032L222.61017150603797,122.5382427294623L224.1447101625936,118.84906898308913L225.16773593363072,120.13556321551613L225.93500526190851,114.2318085721916L226.95803103294563,114.00664795507373L227.9810568039827,116.67137128596914L228.49256968950124,117.72832576094441L229.7713519032976,119.17158237787271L230.53862123157543,119.90385462985722L235.90950652952017,125.30710649873384L236.42101941503873,129.17121095741643L236.676775857798,127.1654050707595L237.6998016288351,126.71643875908833L238.21131451435363,123.20279880289561L239.23434028539072,120.27237369413064L239.74585317090927,117.59798645129672L241.79190471298347,120.02510059431478L243.32644336953908,120.30858080616088L244.3494691405762,124.0560369121234L246.1397642398911,122.25055311056917L246.39552068265036,120.8247373428934L246.65127712540965,120.45522799268167L246.9070335681689,113.88428339668195L248.18581578196526,114.12080569465917L248.69732866748382,116.8960458325895L249.46459799576164,122.50616174760899L249.72035443852093,117.082080422753L250.23186732403946,112.01463209445888L252.27791886611362,114.92315713178158L252.53367530887292,113.87097005022918L253.30094463715074,110.88148769093175L255.09123973646567,109.32786472191543L255.8585090647435,115.00798374392565L258.1603170495769,120.93904826861274L258.6718299350955,124.44455323088269L258.92758637785477,127.1337891880886L259.18334282061403,134.2697518509699L259.9506121488919,129.15520823030099L260.2063685916511,128.0377087263155L261.2293943626882,137.55656875527535L262.5081765764846,139.24508308443572L262.76393301924384,140.9783599495725L263.78695879028095,136.15829328241603L264.0427152330402,133.94892755764744L264.2984716757995,128.5125474657865L264.5542281185588,132.26569014106252L265.57725388959585,135.00118601208308L265.8330103323551,131.60930266850661L266.60027966063296,125.16676077443327L266.8560361033922,121.08622093611694L268.9020876454664,126.22001359938736L269.9251134165035,126.15949234565085L270.43662630202203,130.82934917408215L270.94813918754056,133.0334812162716L271.2038956302999,136.09036684961845L272.9941907296148,134.90746881346925L273.24994717237405,127.39519132806663L273.5057036151333,130.29597882080103L274.2729729434111,132.24321073242126L276.31902448548533,132.722245620773L276.83053737100386,133.81684349260087L277.8535631420409,136.76202273917133L278.10931958480023,141.31486908754414L278.8765889130781,139.71169137532564L279.3881017985966,132.5863559906662L281.1783968979115,133.5444956491922L283.99171776826347,134.74301249680866L284.50323065378205,133.26114684496685L286.0377693103377,134.2898275748509L286.29352575309696,131.17798040908374L286.80503863861554,125.53849720081433L287.31655152413407,126.39594498819912L288.3395772951712,119.11230733035114L289.36260306620824,113.7850279179525L289.87411595172676,109.38036911568497L291.15289816552314,106.97781446577716L291.4086546082824,102.30699746219278L291.6644110510417,101.96327957893783L293.7104625931159,101.55855487209607L295.24500124967153,101.38875487741012L296.2680270207086,101.90758002369012L296.5237834634679,106.55150480398027L296.77953990622717,108.46679889776158L299.08134789106066,115.00101226277627L299.59286077657913,117.40736120408377L300.360130104857,115.46577388246618L301.8946687614126,116.94875667557733L302.1504252041719,101.87165960448596L303.94072030348684,105.98478017866233L304.45223318900537,106.07465332196386L309.5673620441908,108.40539040873477L309.8231184869501,112.6264543359838L310.8461442579872,116.59672928458241L311.10190070074646,118.45311400894326L311.3576571435058,123.27207756749439L315.96127311317264,126.10840492319008L316.7285424414505,123.4149197224215L317.240055326969,131.77789624171714L319.0303504262839,134.44832023818952L319.2861068690432,135.30009697045242L320.8206455255989,136.9214272015879L321.33215841111735,137.6975334971365L322.6109406249137,117.56555285338271L323.1224535104323,121.06248746579683L323.63396639595084,122.15881590535957L324.65699216698795,123.56121432318426L327.21455659458064,123.605707828421L329.26060813665487,122.84040860465782L329.51636457941413,126.6220762380523L329.7721210221734,127.66969090666225L330.283633907692,126.4782366592085L331.05090323596977,123.26742707016103L332.32968544976615,123.72041375152531L333.096954778044,123.51098987003246L334.6314934345996,125.67107160495686L335.14300632011816,123.99987695073597L335.65451920563663,127.22774312676106L335.91027564839595,126.38908015853937L336.6775449766738,116.39983678108007L337.1890578621923,118.13281918190052L337.9563271904702,122.75186764014958L340.00237873254434,126.23542326913093L341.7926738318592,129.87247871294133L343.3272124884149,130.80722013021716L344.35023825945194,134.09591361229084L344.60599470221126,132.15943607365202L344.8617511449705,134.15543059310784L345.1175075877298,137.43941845491858L346.65204624428543,137.86573286766298L347.4193155725633,138.8582823032406L349.2096106718781,136.02356926536945L349.7211235573967,136.10563501540264L350.4883928856745,134.07686990156515L350.7441493284338,131.28562799046352L351.5114186567116,130.5387778789155L353.04595731326725,131.2904577629584L353.55747019878584,131.9647711462257L354.3247395270636,131.09915136903214L355.0920088553414,128.6540174147756L355.3477652981007,125.41552443275742L355.85927818361927,126.20492586696696L356.11503462637853,127.84995866060103L357.64957328293417,127.29092775149468L360.71865059604545,125.82142194992807L363.5319714663974,127.28057298054884L364.5549972374345,126.28864843123768L366.856805222268,126.3267851851621L368.1355874360643,126.70803171802874L368.39134387882365,124.61625653270772L369.1586132071015,123.95113779075012L369.4143696498607,125.32077875295994L369.9258825353793,126.63588310591132L370.18163897813855,127.97052090509442L370.94890830641634,128.87726623246934L375.296767833324,127.71933540023215L375.55252427608326,127.18912077405989L375.8082807188426,126.81347351351906L377.0870629326389,127.29997697944194L377.85433226091675,126.9225415829599L378.87735803195386,125.46671772214367L379.13311447471307,125.77272639758786L379.3888709174724,124.19859849287539L380.41189668850944,119.64176944928846L380.66765313126876,115.29918545160399L381.43492245954656,114.90605703621264L382.45794823058367,102.37040433714282L382.9694611161022,104.21875966259529L386.550051314732,104.14610476638433L388.8518592995655,109.62101166870161L389.10761574232475,113.35340654339404L391.92093661267677,118.5230185655742L393.96698815475094,121.98007116301892L394.22274459751026,124.07422887466544L394.99001392578805,125.14827751863604L395.50152681130663,128.0735373604865L395.75728325406584,130.59630113878526L397.80333479614006,132.86345863494856L398.0590912388993,135.13442889286722L398.3148476816586,136.03316799900273L399.3378734526957,135.67804268784988L399.84938633821423,138.81252501184395L400.3608992237328,139.70844751695034L402.406950765807,140.8960079089558L403.68573297960336,139.84655399862635L403.9414894223626,142.09643301938127L404.7087587506404,143.1700553907219L406.4990538499554,141.60384203495457L409.5681311630666,139.61239573603117L410.846913376863,140.84516626721506L411.10266981962224,138.19755697743972L411.61418270514076,136.81318869399394L411.8699391479001,137.05597296893262L413.4044778044557,136.68913246609145L415.19477290377057,135.80925751241355L415.4505293465299,134.3223892280727L417.7523373313633,134.184491436101L418.77536310240043,138.95108921049174L419.286875987919,138.64054084537676L420.3099017589561,130.62584406205903L422.6117097437895,122.11514321928854L424.40200484310446,127.95876214087616L424.65776128586367,129.4829058502145L425.93654349966005,131.5668145996237L427.98259504173427,129.79987194703378L428.4941079272528,122.7956144481432L430.28440302656776,116.80091210262844L430.540159469327,113.97684440620236L431.56318524036413,118.24561449016892L432.84196745416045,121.81210947007514L433.6092367824383,117.47806812878696L434.12074966795683,126.24074159631775L434.8880189962346,128.60187155392535L435.65528832451247,125.73790998810634L436.6783140955495,119.90235359683368L438.72436563762375,118.32965960174181L440.7704171796979,123.86960499385154L441.2819300652165,118.9572605597329L441.793442950735,119.7208871480492L442.5607122790129,113.70965656458935L442.8164687217721,110.62985445880378L444.3510073783277,111.75484467163648L444.60676382108704,113.5687038730054L446.6528153631612,109.56901012070136L447.42008469143906,115.31028490507441L447.67584113419827,120.34522595856947L447.9315975769576,115.02954871688814L448.18735401971685,120.03808604432834L448.6988669052354,114.25594017293332L449.4661362335132,117.69275714141054L451.25643133282813,123.37630789566009L451.5121877755874,121.87446184616994L453.30248287490235,122.14566578083776L453.55823931766156,121.14816230953255L453.8139957604208,114.64292386245415L456.1158037452543,113.853589317679L457.13882951629137,122.8650124760357L457.65034240180995,120.27025448955538L457.9060988445692,117.75959016099688L458.41761173008774,116.25902689776694L459.6963939438841,114.00496358502807L459.9521503866434,109.58048968603572L460.46366327216197,111.96340559947157L460.7194197149212,110.23061912921526L460.9751761576805,114.12995559349963L462.25395837147687,115.14552798901735L465.8345485701067,110.66075241650663L468.1363565549401,112.43240757475138L469.6708952114958,108.1312129930505L471.4611903108107,111.90186766415326L471.71694675356997,111.29870286938217L474.0187547384034,108.93872953553159L475.80904983771836,104.41456214339524L477.85510137979253,100.98527983523604L478.1108578225518,103.81766652785768L478.8781271508296,100.38590950848356L480.66842225014454,99.74108025290604L481.1799351356631,100.39216532813288L482.2029609067002,101.5614422024878L484.76052533429294,100.79037830602215L485.01628177705214,105.65809926703668L485.78355110533,105.28906328999079L487.06233331912637,103.00974927756914L488.0853590901635,108.57099289818376L491.410192846034,110.66938648277113L491.92170573155255,115.31851228652295L492.1774621743118,109.98739396544244L493.71200083086745,105.63627510122473L493.9677572736267,110.14295715271282L494.22351371638604,117.27533083140167L494.73502660190456,115.3891339925595L495.2465394874231,115.45574239615217L498.31561680053437,109.81033785181125L500.6174247853678,106.0949365796638L501.6404505564049,102.43622480029165L502.9192327702013,109.38618798344828L504.45377142675693,109.52024449878667L505.98831008331257,107.14818939171573L506.24406652607183,107.995478496364L507.7786051826275,103.85492804633014L508.8016309536646,101.7821625597237L509.3131438391831,103.41057345927135L509.8246567247017,100.23200344488225L511.3591953812573,96.0631453350519L512.1264647095352,93.9548666718926L512.6379775950536,99.24703888284608L513.4052469233316,96.43911672191251L514.1725162516093,94.42315903257952L514.9397855798871,96.6025582521109L515.4512984654057,94.64242847948276L517.2415935647206,93.69983142975451L517.7531064502391,91.23464419383225L520.8221837633504,94.50516988107245L521.0779402061097,93.18692788640874L521.3336966488689,96.08600025501431L524.9142868474988,94.89065452293636L525.9373126185359,95.31684816867948L526.9603383895729,101.51898210583249L527.9833641606101,101.33799245118581L528.2391206033694,101.8838572506748L529.0063899316472,100.05288487845496L529.5179028171657,98.96945396416129L530.0294157026843,96.93381915515505L532.0754672447584,98.6673412719233L532.5869801302771,96.52152332954137L533.3542494585549,99.25132593867568L534.1215187868327,97.86047586202977L534.8887881151105,95.15366513059303L535.400301000629,93.55236029716383L536.1675703289068,93.27706826528816L536.9348396571846,97.1530206932731L537.190596099944,100.57219122208238L541.026942741333,102.15213040782459L542.817237840648,104.6373921203272L544.0960200544444,102.64306022551608L544.3517764972036,104.9374085568171L544.6075329399629,105.22867174629289L545.1190458254814,106.29464452036154L545.3748022682407,105.68366727617769L545.8863151537591,102.36029412165897L546.3978280392778,101.20653314626793L547.420853810315,98.81203214708245L548.4438795813519,96.7090914322439L549.7226617951484,95.87901672743294L550.2341746806669,98.36438532599783L552.0244697799818,100.75201318725402L552.5359826655003,101.88311849378294L552.7917391082595,111.55492520324566L553.5590084365374,108.27930316927916L554.0705213220559,91.15172583654766L555.0935470930931,96.00105839946872L555.8608164213708,96.37912934021637L556.3723293068895,99.31783081274926L556.883842192408,98.60119628653223L557.1395986351673,96.6334342293161L559.6971630627601,94.91458395774112L559.9529195055192,94.4817770974143L560.9759452765563,95.09944365213425L561.7432146048342,98.7018218983194L562.5104839331119,95.66307235854731L562.7662403758712,101.06007137603262L563.5335097041491,103.51693466872433L563.7892661469084,106.56729618027492L564.3007790324269,103.08524991232332L565.5795612462232,100.53582013481196L565.8353176889825,99.39425890637375L567.6256127882974,98.04374426821153L567.8813692310567,98.7730279799128L568.9043950020938,101.74347448375636L569.4159078876124,103.59045571787522L569.9274207731308,105.32482294215401L570.950446544168,91.77251226347335L573.5080109717608,94.5768420671078L574.0195238572793,96.7061560324866L574.5310367427977,98.54191538887102L574.786793185557,100.37085903838215L575.8098189565942,100.91608662866821L576.577088284872,88.35921074670756L578.6231398269463,93.80208853755198L579.6461655979832,95.60192208872644L580.4134349262611,101.55421584308107L583.2267557966131,109.01798221415737L584.2497815676502,118.77350012093484L584.7612944531687,101.92815816607634L585.5285637814466,104.33212431614152L586.0400766669651,103.04902357650536L586.2958331097244,105.69482502857562L586.8073459952429,110.4145172580944L587.3188588807615,107.45927759345568L587.5746153235208,105.55093268642565L588.0861282090393,106.05943594784475L588.5976410945578,105.22178367707625L588.853397537317,106.56044115170539L589.8764233083542,106.43476827295876L590.1321797511134,105.38387799680714L590.6436926366321,104.50774304049429L591.4109619649098,103.96094787710769L592.6897441787062,107.5962375395925L595.7588214918176,110.08857231078883L596.7818472628545,91.56672361237963L597.5491165911324,91.40406004424761L600.1066810187251,92.12993697120817L601.6412196752807,91.62590158441361L601.89697611804,90.80459719595882L602.4084890035587,92.10551286077128L603.1757583318365,96.5738807982878L603.9430276601142,101.47917323362867L604.1987841028734,100.73210283948407L604.4545405456328,100.63577236154617L607.0121049732255,100.67663393406934L607.2678614159848,102.17642095427755L607.523617858744,102.99573125529014L608.0351307442627,102.46391238636352L611.1042080573739,100.05373414473945L611.3599645001332,105.81717810594193L611.6157209428924,92.26465153072877L611.8714773856517,80.38122621183533L613.9175289277258,88.27555709305108L616.2193369125594,80.13422184671117L617.4981191263557,83.62543669382706L619.54417066843,90.9433456922248L619.7999271111892,74.73645017405488L620.5671964394669,80.74306485966702L623.380517309819,88.28714364955289L624.1477866380968,99.26025980834527L624.9150559663746,84.70951969592818L625.1708124091339,76.20219894000098L625.4265688518931,64.29310408029136L625.9380817374117,54.116916635897326L627.9841332794858,53.02421020383639L628.4956461650045,54.25398957830771L629.007159050523,49.13425608533953L629.5186719360415,60.12461260990415L632.0762363636343,58.400188419112396L634.1222879057085,51.60973691905747L634.3780443484678,55.15279347668053L635.6568265622641,64.64779375024716L637.1913652188197,63.165952842427544L639.237416760894,69.56232129855584L640.7719554174496,76.45655289282394L641.0277118602088,79.84732091517799L641.2834683029681,85.32316077895302L641.5392247457274,88.87053093310118L642.0507376312459,91.02157844003159L643.3295198450423,79.82881628316807L648.1888922574685,73.43031985320562L648.700405142987,63.055944513470195L649.7234309140241,71.91953007740176L649.9791873567834,77.80586311330478L652.5367517843761,68.71043139433732L653.0482646698947,74.23546872034598L653.8155339981724,85.94849422885977L654.0712904409318,87.34505716908217L654.327046883691,95.02889827037092L656.8846113112837,96.14026361320293L657.140367754043,99.98696851871858L657.9076370823209,89.23097149211367L658.4191499678394,92.1437300616542L659.4421757388765,92.15876558401948L659.953688624395,94.49008276322314L660.7209579526728,93.99231941002176L661.2324708381914,92.91978184634468L661.7439837237099,92.8653333735142L662.2554966092285,95.5222227297815L664.557304594062,95.76033070366628L665.5803303650991,94.73222273191845L666.6033561361361,95.25577530510179L667.1148690216547,96.08076348565913L667.8821383499326,100.02952376804717L668.6494076782103,96.23924916005711L670.183946334766,95.9986042685893L670.4397027775253,92.82779197333019L671.4627285485623,91.52970324676755L672.2299978768401,93.02849865961565L672.997267205118,92.28303843188678L673.5087800906365,93.64239302220199L674.7875623044329,93.46075540084558L675.8105880754699,92.15684208864644L676.5778574037478,91.70884238175046L676.8336138465071,91.52329828497255L677.0893702892663,94.85977106197998L677.3451267320256,93.29079883050963L678.1123960603034,81.57023558969917L679.1354218313405,82.6892323957199L680.6699604878961,72.63387973314661L680.9257169306554,78.46821924925973L681.6929862589333,74.43369317855559L683.7390378010074,84.0843091232187L685.0178200148039,95.13978556396944L685.7850893430816,96.1571161673051L686.5523586713595,94.80139161544128L686.8081151141188,79.37429054428833L687.3196279996373,86.76490737186276L688.086897327915,80.0060568345545L688.3426537706744,88.87972386554719L688.8541666561929,93.29541328824547L690.3887053127485,97.6778154410668L691.1559746410263,102.89900667781467L691.9232439693042,104.96999315938643L692.1790004120635,105.3289367875314L693.2020261831005,104.15414826221132L694.7365648396561,105.9341420745231L698.0613985955267,106.4474607939515L699.0844243665639,101.69079468466566L699.5959372520823,100.9757926210745L700.8747194658787,101.41565156454857L702.1535016796751,105.54915071978883L704.4553096645085,106.80325179231107L705.4783354355457,106.26286317265516L706.5013612065828,106.71501785207744L707.2686305348606,108.25671934785385L711.1049771762497,103.17069477841687L713.6625416038424,105.76813645060656L713.9182980466018,94.43005893857963L714.1740544893609,98.26944774261739L714.9413238176387,84.99031087520092L716.4758624741943,87.96908672549205L718.0104011307501,91.28528574565377L718.2661575735093,92.41614709362312L718.5219140162686,94.70004337228409L718.7776704590278,96.48841943721055L719.033426901787,97.04100999887709L719.2891833445464,97.49412013428127L719.5449397873057,97.26847016875445L721.5909913293798,95.47960975766193L727.4733895128431,96.07111022275211L727.7291459556025,93.44861007759943L727.9849023983617,94.2804577021999L729.7751974976766,95.43436294916364L732.5885183680286,93.68943162252583L733.1000312535472,94.74761782641707L734.1230570245842,96.01319017795112L736.1691085666583,83.68496553050528L736.4248650094177,84.81325776729489L737.1921343376955,88.87062156682623L737.7036472232141,76.89831288272762L737.9594036659734,69.77442856565119L738.4709165514919,62.098962995981026L743.3302889639181,67.88885196900378L744.6090711777144,72.57562359137575L745.3763405059922,76.25209140867878L746.14360983427,81.18624539482931L748.4454178191035,77.02960039096075L748.7011742618628,80.72656281429033L750.2357129184184,74.03121649076996L750.747225803937,77.00092141584832L751.0029822466962,79.2613023413287L752.5375209032518,81.02976912906848L753.3047902315298,86.47210977686086L753.560546674289,88.85392136204115L754.8393288880854,87.60849509791234L755.3508417736039,82.07903623012243L755.8623546591224,81.77713305061934L756.6296239874004,81.78010529201651L756.8853804301596,84.97877060457819L758.9314319722338,84.66905870264338L760.21021418603,86.87129006202463L760.7217270715487,93.87013267242895L760.9774835143079,80.12093248998423L761.2332399570672,82.40112065589238L764.0465608274192,95.01961134521343L766.6041252550119,93.82895082794079L768.6501767970861,93.81651463598178L772.9980363239938,81.68289317215101L774.2768185377901,85.08446456560375L774.7883314233086,87.374433334829L775.0440878660679,88.39824312388106L775.8113571943458,86.57342450453405L778.3689216219385,77.70843933836966L779.9034602784941,80.08482364895661L780.9264860495313,84.8504957718921L782.2052682633275,85.21414844793111L782.7167811488462,78.6477496073764L783.2282940343647,71.08274977752211L783.7398069198831,73.9909126971587L784.2513198054017,68.1456791686071L785.2743455764389,72.3003260463584L785.5301020191981,74.91847457271643L786.2973713474759,67.12628234187002L786.5531277902352,69.25415276722345L786.8088842329945,63.51127052400079L787.8319100040316,68.18630168574822L788.3434228895502,72.00225217701575L789.1106922178279,74.39705840791197L789.3664486605873,79.19934147000566L789.8779615461058,80.4720856706432L791.156743759902,83.47834133805009L791.6682566454207,86.52140888305621L791.9240130881799,88.88064109970895L792.1797695309392,88.09636038687125L793.7143081874948,88.37687221085525L794.2258210730134,76.44221468324679L794.9930904012913,68.83794326298971L797.2948983861247,72.47466207975202L798.0621677144026,75.94085554069568L798.573680599921,80.24578954583808L799.0851934854396,81.43423291452285L799.5967063709581,84.11755788379804L800.1082192564767,88.16277413220706L802.4100272413102,90.97858690462675L803.4330530123472,98.06994694848993L803.9445658978658,102.27937623277273L804.7118352261436,103.97646318788281L806.7578867682178,105.0251918016304L807.7809125392549,105.03933102622977L808.803938310292,110.15538807209572L810.3384769668476,114.79695506043004L812.1287720661626,115.9600508229027L812.640284951681,119.33890195013589L813.9190671654775,122.6525113280882L815.7093622647923,124.8799231924078L816.4766315930702,127.0010944768207L816.7323880358294,128.48829078075593L818.0111702496258,124.77237307050262L818.266926692385,125.99493856963653L818.5226831351443,122.88463139532143L819.0341960206629,121.98652942939157L819.8014653489407,121.96150394527501L821.0802475627371,114.97829545239239L821.847516891015,111.11977696655384L822.1032733337743,108.10889240705524L822.6147862192927,106.86579538108339L824.1493248758484,89.4622380775699L826.7068893034411,73.90306920012347L828.497184402756,77.18170686194668L829.2644537310339,64.33727910319357L829.5202101737931,69.99512407752849L831.310505273108,60.449879559404565L831.5662617158673,57.85909457567499L831.8220181586266,51.557466446127705L832.0777746013857,47.321030941645745L833.3565568151822,59.84738808442222L834.1238261434601,53.18177030694915L840.2619807696826,66.34715864002709L841.0292500979605,76.45438587196605L841.5407629834789,83.98445157504239L842.8195451972753,89.96413262725576L843.5868145255531,96.49050319176655L843.8425709683124,102.18649212319974L844.354083853831,105.94266509583053L844.6098402965902,105.9878476581373L846.4001353959051,105.68571496063345L846.9116482814236,104.97253207418788L847.4231611669422,104.55901790071186L849.7249691517757,102.23029611772415L851.003751365572,108.21847792439496L851.2595078083313,105.4727391414475L852.794046464887,93.15032524657721L853.3055593504056,88.27462998974204L853.817072235924,82.63406644379813L854.3285851214425,80.25139158121124L855.3516108924797,67.17370248463544L856.1188802207574,69.28462211543012L857.1419059917946,73.18926567571066L859.443713976628,78.69688964554246L859.6994704193874,80.61872488950979L859.9552268621467,84.07473893013469L861.4897655187023,77.28371461071794L863.5358170607764,88.25524836514325L864.5588428318135,87.62632310596939L865.0703557173321,80.05254867955995L865.3261121600914,83.47230879960489L865.5818686028506,92.88500431967299L866.6048943738876,89.8504290152348L867.8836765876841,98.04774389179858L869.673971686999,81.70080959865237L871.7200232290731,81.77757200564548L872.7430490001103,84.13686292321222L873.7660747711474,72.13556203220992L874.2775876566659,59.975818501793185L875.8121263132215,63.50961516741904L876.5793956414993,59.26168395075598L877.090908527018,52.01117368442516L877.6024214125364,44.215342316874796L878.1139342980549,39.007713490757794L878.8812036263328,33.565636209807565L879.3927165118514,48.56078853265427L880.1599858401291,44.93300730133478L881.1830116111663,40.60912786064614L881.6945244966848,48.915472723152334L883.2290631532404,53.272604844017394L884.5078453670369,67.39634676284714L884.7636018097961,58.825273226209106L885.7866275808332,58.24561381747611L887.5769226801481,49.17222223684155L890.3902435505,57.42844222717656L891.1575128787779,76.13420380800966L891.4132693215372,89.36191135025103L892.1805386498149,99.11112046646832L893.4593208636114,101.8293158990727L894.993859520167,105.9467584052349L895.2496159629262,108.21753235729233L896.2726417339634,109.15783020830145L896.784154619482,113.60926459710493L898.3186932760376,119.17781865133003L898.5744497187968,123.04369421419852L899.0859626043155,121.37864861332059L900.1089883753525,127.25485956278709L901.8992834746673,128.45764513310172L903.4338221312231,126.57017348303984L904.2010914595008,131.4493076042685L905.7356301160565,134.70731150109359L907.7816816581307,134.16005283414893L908.5489509864085,133.49958322690392L909.060463871927,134.11213583429344L909.3162203146862,134.30176971717938L910.5950025284827,132.80641991102513L910.8507589712419,131.43167873739793L911.6180282995198,131.44541462799413L912.1295411850383,129.11911450181657L912.3852976277976,126.2461962595101L912.8968105133162,125.20186579568417L914.1755927271124,126.17618284764347L916.7331571547052,123.66769594986008L918.2676958112609,125.64493960099855L918.7792086967794,124.61492218743496L919.0349651395386,126.52379990819273L920.0579909105758,125.61008747556659L920.3137473533351,123.94529260234779L921.3367731243721,120.30041906742213L921.8482860098907,118.27629598370561L923.3828246664463,120.80181482298241L923.6385811092056,120.88092255782391L924.4058504374834,120.62384958384945L925.4288762085206,118.8707523828092L928.4979535216318,119.32040924016968L929.7767357354281,114.02483781955732L930.0324921781875,112.95268830415966L930.5440050637059,111.27027560333659L932.8458130485395,111.54014907674099L933.1015694912986,111.839109723013L934.6361081478543,111.55033255703052L934.8918645906136,111.81389064955943L935.4033774761322,112.32551218169363L938.4724547892434,112.61284335378099L939.4954805602806,110.35025138166566L940.0069934457991,107.88043157618688L940.5185063313176,105.95437457535081L941.2857756595954,105.04688571245867L942.0530449878732,105.77420491740372L944.3548529727068,107.75348189784671L945.8893916292624,109.72042986645914L946.4009045147809,110.49196263480712L949.214225385133,113.3241427390837L949.4699818278922,113.70962066273461L951.0045204844479,117.60388904053855L952.7948155837627,118.08696547861166L958.9329702099853,114.95116566733134L959.1887266527447,115.2680163454745L959.7002395382631,113.88144776460473L960.4675088665409,113.43735217853856L960.9790217520595,113.58716742265392L966.3499070500043,94.61204796979769L967.117176378282,80.53307590375516L968.1402021493192,70.6772531115563L968.3959585920784,63.60215305166031L968.6517150348377,55.034553434635086L969.1632279203561,50.1584070078913L970.1862536913933,56.47996043181382L970.9535230196711,61.06654885693399L971.4650359051897,50.77604656584168L971.9765487907082,45.415993550016424L973.7668438900232,41.01157115633271L974.534113218301,37.52427803414059L974.7898696610603,35.37500924183763L975.5571389893381,42.45819955236169L976.8359212031344,38.89820888293656L978.8819727452086,35.76722539548956L979.9049985162457,34.80337115655624L980.4165114017643,30.8362283061835L980.9280242872828,29.26627142844478L981.183780730042,27.707184056578626L982.7183193865977,33.37570218512627L983.7413451576348,33.27520678725085L984.2528580431533,32.23245776411727L984.7643709286718,31.011341098215723L985.5316402569497,33.628627830641335L987.8334482417832,29.434870369753753L988.3449611273016,29.261265163519795L988.600717570061,28.289991298497114L989.623743341098,27.283220537746388L990.9025255548944,24.636216700711543L991.4140384404129,21.76337204565135L993.9716028680057,27.580314396953156L994.4831157535243,27.69712527911821L994.9946286390428,30.752157955022597L998.3194623949133,30.629338645901726L999.3424881659505,30.214585604803176L999.854001051469,28.530454941820835L1002.4115654790618,29.878726494155217L1003.690347692858,32.49350349830496L1005.480642792173,28.368085471898837L1006.2479121204508,27.052731689535733L1006.7594250059694,25.861181658905934L1008.293963662525,23.045547723993195L1010.0842587618398,22.77839255868207L1011.8745538611548,24.07446603940741L1012.1303103039141,23.945422636222133L1012.3860667466734,23.94401203163096L1012.8975796321919,23.16838105036595L1013.6648489604697,23.799427485564024L1014.1763618459884,22.915214984902263L1015.710900502544,25.90018224890315L1016.733926273581,26.669034815535667L1016.9896827163403,29.323094985159116L1018.5242213728959,29.961715276146606L1018.7799778156552,28.76743234561053L1019.0357342584145,26.509779810763575L1020.3145164722108,39.03200698645264L1020.5702729149701,48.13843213085249L1021.5932986860072,42.964000407681056L1024.4066195563591,39.15110948954862L1025.9411582129148,37.17574418197586L1026.964183983952,32.82527164805202L1027.4756968694705,33.58423344551676L1028.2429661977483,45.10354045285209L1028.754479083267,37.88818418857704L1030.2890177398224,34.44110505799256L1031.0562870681003,44.18399548032511L1032.0793128391374,43.92488732872505L1033.1023386101745,54.36290884006314L1033.613851495693,49.48144645451424L1034.3811208239708,52.391611978009735L1034.8926337094895,62.89172584934346L1035.9156594805265,59.52129030208704L1036.427172366045,55.873025146049656L1036.9386852515636,61.63857631671368" fill="none"></path></g></g></g></g><g opacity="0.2"><g><g><g><path style="fill: none;" stroke="rgb(255, 112, 67)" stroke-width="2px" d="M15.447452871026773,106.35018749745171L18.005017298619507,122.76970092240288L18.772286626897323,115.34828171462544L20.306825283452962,108.08105182166918L24.39892836760133,127.67864227753827L24.910441253119878,128.4098917852265L25.421954138638423,132.39859817421146L25.677710581397694,122.18651151553917L26.189223466916243,111.78504561068775L27.72376212347188,121.78541118121603L27.979518566231153,122.2018671961444L28.4910314517497,131.68259008748012L30.792839436583158,112.7664727396118L32.3273780931388,125.66783569367547L32.58313453589807,126.83267608285118L32.83889097865734,81.86354120101527L33.09464742141661,80.47083774287586L34.37342963521298,124.54282295337245L36.41948117728717,124.5870863250243L38.20977627660208,53.151746026289345L40.255827818676266,103.86428113411654L41.023097146954086,93.29027346850665L41.27885358971336,123.75289295482466L43.06914868902827,161.35018124852792L44.347930902824636,174.6022111442489L46.39398244489882,105.4224379190677L47.16125177317664,172.51353660999797L47.41700821593591,158.75114967186812L49.71881620076937,196.51532642417243L50.23032908628791,170.9013737780175L50.48608552904719,1213.5948689559327L52.53213707112137,188.60884440365186L53.81091928491774,232.76115567724045L54.57818861319556,196.24620414516085L56.87999659802901,221.04920709816312L57.13575304078829,203.98332072113104L59.43756102562175,241.62754116541677L59.693317468381025,222.9670961036621L60.97209968217739,197.43405561138502L61.483612567695936,237.68194330949444L61.739369010455206,223.15413914810145L62.7623947814923,199.55491055946896L64.80844632356649,174.93451084742514L66.85449786564065,172.09124927229914L67.11025430839994,174.4534124364115L67.36601075115921,272.80704047837287L68.38903652219629,200.23411887801035L71.20235739254831,92.89187659907884L72.73689604910395,102.68776993799656L74.01567826290032,102.94277094867579L74.78294759117813,159.08575905222278L77.85202490428941,146.24555357496808L79.38656356084505,92.18848808244371L80.66534577464142,81.51039650827698L81.43261510291923,126.38768372073355L82.45564087395633,133.00309700550275L83.47866664499341,136.33272517757425L83.99017953051195,112.20042636071065L88.84955194293815,77.18632376876667L90.12833415673451,81.85263169998728L90.38409059949379,180.46515935304205L91.66287281329015,144.68966361982723L92.68589858432726,167.73477372071164L92.94165502708653,82.322876209534L93.45316791260507,151.36527541649903L95.49921945467925,114.0841333681787L95.75497589743853,163.8825423203433L97.28951455399417,140.68065982044345L97.54527099675343,108.4034864284161L97.80102743951272,158.2421066154159L98.56829676779053,124.83229569190533L100.87010475262399,150.08813819644962L102.91615629469818,134.81061935204573L107.00825937884655,147.92301579601212L108.03128514988364,92.19510596047229L109.56582380643927,132.69136811974118L110.58884957747637,131.15766085919785L111.10036246299491,150.97147137686696L114.16943977610619,147.9694256167733L114.42519621886545,147.18856293746677L118.51729930301384,109.24948730906789L121.84213305888439,103.04861414976546L122.09788950164366,125.51095719641509L122.6094023871622,117.80677392374685L124.14394104371785,158.6111652797648L126.44574902855129,160.1897929049383L126.95726191406985,87.80733550732697L127.21301835682912,118.26580594016224L127.98028768510693,145.87629087553276L129.51482634166257,126.62819211922312L131.81663432649603,174.14195695766577L132.58390365477382,156.43921178463333L132.8396600975331,182.40114219000634L135.14146808236657,195.4649129921728L135.39722452512584,141.33743244088015L139.23357116651493,132.22329938934746L139.7450840520335,124.58804528993053L140.25659693755205,120.10754497070087L143.83718713618185,159.13842458873418L145.11596934997823,177.73973212103564L145.62748223549679,139.4841695086595L146.3947515637746,106.41304662688151L148.44080310584877,150.82379078130322L149.9753417624044,170.89881925873533L150.48685464792297,136.70946372257666L151.25412397620076,132.00434933809095L152.78866263275643,130.08671333609914L154.06744484655277,135.36167731349724L156.6250092741455,159.7018633992307L157.13652215966405,139.03531272200476L158.15954793070114,157.86145875815737L159.69408658725678,98.40815542364567L160.7171123582939,124.55965176730186L160.97286880105315,101.6771770136416L162.2516510148495,149.97898350590708L162.76316390036806,146.58270115179806L163.01892034312735,155.24503523072954L163.53043322864588,94.76574044388946L164.04194611416443,131.0268906915981L164.29770255692372,107.00823329682777L165.57648477072007,193.37210878777233L165.83224121347934,130.3042759487679L168.1340491983128,123.16190124625552L169.66858785486843,150.7392753677989L170.180100740387,149.93577295530125L171.45888295418337,138.78090545342707L172.7376651679797,119.95086642782519L173.24917805349827,152.3889888170874L176.31825536660955,150.9524063383902L178.10855046592445,129.77333992754092L178.36430690868372,159.00970293340222L178.87581979420227,133.48877804455782L179.13157623696154,154.7772317459482L179.38733267972083,136.43130676993758L179.6430891224801,148.90280860389385L180.15460200799862,138.88032767034653L180.92187133627644,115.51814500478673L181.94489710731352,144.19611906854084L183.2236793211099,152.31036593687938L183.99094864938772,144.44296479681515L185.0139744204248,159.77028860581854L185.78124374870265,165.7542541050797L186.03700019146194,154.0092355191925L186.54851307698047,158.8099933907968L186.80426951973973,159.5406511967344L187.57153884801755,153.94315263539696L187.82729529077685,160.86270878141394L188.59456461905464,149.1884903705207L188.85032106181393,147.24576621430052L190.1291032756103,164.52729319348708L190.38485971836954,142.68470876224345L192.17515481768447,138.83538282150596L192.9424241459623,89.98285553576937L193.96544991699938,143.54536548315406L194.7327192452772,124.80831748854715L195.24423213079575,125.3981217129132L195.75574501631428,102.77898382338867L196.7787707873514,188.0100422319739L197.80179655838847,134.20436173830936L198.5690658866663,136.0158342041258L198.82482232942556,121.51374662502747L199.08057877218485,138.16333613449856L200.87087387149975,97.26654034835917L202.4054125280554,139.1505394967197L202.91692541357395,124.449448336415L203.1726818563332,106.30872960823842L204.1957076273703,84.76936599093472L205.2187333984074,130.17334663380066L205.9860027266852,125.96194819007397L206.2417591694445,133.28431040373667L206.49751561220378,104.9622102570458L207.0090284977223,85.19066528872747L207.52054138324087,116.73015422524514L209.82234936807433,105.3130526688775L210.0781058108336,95.66948733470491L210.8453751391114,107.87568234576594L211.10113158187067,103.20004899091964L211.35688802462997,141.77055812237055L211.86840091014852,131.1856952800744L212.12415735290776,79.64725776778499L213.65869600946343,127.07437604624553L214.6817217805005,110.28230883591482L214.9374782232598,124.91402806683064L215.44899110877833,120.1170611671323L215.9605039942969,123.84335395074774L216.7277733225747,131.92608964033684L216.98352976533397,128.17465565337054L217.23928620809323,134.09932039510937L217.4950426508525,151.85009542748932L218.26231197913032,110.41727396489176L219.2853377501674,109.67590431691616L220.56411996396378,110.63089257933967L220.81987640672307,132.71267346346704L221.07563284948233,141.19055574355696L222.61017150603797,106.70246223559019L224.1447101625936,104.09237399759633L225.16773593363072,125.28154014522431L225.93500526190851,90.61678999889335L226.95803103294563,113.10600548660227L227.9810568039827,127.33026460955077L228.49256968950124,121.95614366084556L229.7713519032976,124.94460884558598L230.53862123157543,122.83294363779515L235.90950652952017,146.92011397424042L236.42101941503873,144.62762879214665L236.676775857798,119.14218152413201L237.6998016288351,124.92057351240356L238.21131451435363,109.14823897812482L239.23434028539072,108.55067325907066L239.74585317090927,106.90043747996094L241.79190471298347,129.73355716638724L243.32644336953908,121.44250165354504L244.3494691405762,139.0458613359736L246.1397642398911,115.0286179043523L246.39552068265036,115.1214742721902L246.65127712540965,118.97719059183493L246.9070335681689,87.6005050126829L248.18581578196526,115.06689488656804L248.69732866748382,127.99700638431082L249.46459799576164,144.94662540768712L249.72035443852093,95.38575512332892L250.23186732403946,91.74483878128262L252.27791886611362,126.55725728107211L252.53367530887292,109.66222172401967L253.30094463715074,98.9235582537421L255.09123973646567,103.11337284585L255.8585090647435,137.72845983196652L258.1603170495769,144.66330636736114L258.6718299350955,138.46657307996256L258.92758637785477,137.89073301691232L259.18334282061403,162.81360250249514L259.9506121488919,108.69703374762514L260.2063685916511,123.5677107103736L261.2293943626882,175.63200887111486L262.5081765764846,145.999140401077L262.76393301924384,147.91146741011974L263.78695879028095,116.87802661379015L264.0427152330402,125.11146465857314L264.2984716757995,106.76702709834262L264.5542281185588,147.27826084216662L265.57725388959585,145.94316949616538L265.8330103323551,118.04176929420083L266.60027966063296,99.39659319813973L266.8560361033922,104.76406158285158L268.9020876454664,146.7551842524692L269.9251134165035,125.91740733070458L270.43662630202203,149.50877648780747L270.94813918754056,141.85000938502947L271.2038956302999,148.31790938300574L272.9941907296148,130.17587666887252L273.24994717237405,97.34608138645615L273.5057036151333,141.89912879173852L274.2729729434111,140.03213837890232L276.31902448548533,134.63838517418006L276.83053737100386,138.19523497991227L277.8535631420409,148.5427397254534L278.10931958480023,159.52625448103535L278.8765889130781,133.29898052645152L279.3881017985966,104.08501445202853L281.1783968979115,137.37705428329627L283.99171776826347,139.53707988727456L284.50323065378205,127.33368423759944L286.0377693103377,138.40455049438714L286.29352575309696,118.7305917460152L286.80503863861554,102.98056436773669L287.31655152413407,129.82573613773815L288.3395772951712,89.9777566989593L289.36260306620824,92.4759102683579L289.87411595172676,91.76173390661506L291.15289816552314,97.36759586614556L291.4086546082824,83.62372944785557L291.6644110510417,100.58840804591796L293.7104625931159,99.93965604472913L295.24500124967153,100.70955489866594L296.2680270207086,103.98288060881032L296.5237834634679,125.12720392514095L296.77953990622717,116.12797527288666L299.08134789106066,141.13786572283522L299.59286077657913,127.03275696931394L300.360130104857,107.69942459599565L301.8946687614126,122.88068784802164L302.1504252041719,41.56327132012075L303.94072030348684,122.43726247536785L304.45223318900537,106.43414589517005L309.5673620441908,117.72833875581836L309.8231184869501,129.51071004497973L310.8461442579872,132.47782907897704L311.10190070074646,125.87865290638658L311.3576571435058,142.54793180169895L315.96127311317264,137.4537143459727L316.7285424414505,112.64097891934733L317.240055326969,165.2298023188997L319.0303504262839,145.1300162240792L319.2861068690432,138.70720389950398L320.8206455255989,143.40674812612988L321.33215841111735,140.8019586793308L322.6109406249137,37.0376302783676L323.1224535104323,135.05022591545324L323.63396639595084,126.5441296636107L324.65699216698795,129.17080799448286L327.21455659458064,123.7836818493681L329.26060813665487,119.77921170960502L329.51636457941413,141.74874677163032L329.7721210221734,131.86014958110184L330.283633907692,121.7124196693938L331.05090323596977,110.42418871397115L332.32968544976615,125.5323604769824L333.096954778044,122.67329434406096L334.6314934345996,134.31139854465468L335.14300632011816,117.31509833385223L335.65451920563663,140.13920783086147L335.91027564839595,123.03442828565261L336.6775449766738,76.4428632712428L337.1890578621923,125.06474878518233L337.9563271904702,141.22806147314597L340.00237873254434,140.16964578505628L341.7926738318592,144.42070048818303L343.3272124884149,134.5461857993205L344.35023825945194,147.2506875405854L344.60599470221126,124.41352591909674L344.8617511449705,142.13940867093123L345.1175075877298,150.57536990216164L346.65204624428543,139.57099051864054L347.4193155725633,142.82848004555103L349.2096106718781,124.6847171138848L349.7211235573967,136.4338980155353L350.4883928856745,125.96180944621517L350.7441493284338,120.1206603460571L351.5114186567116,127.55137743272348L353.04595731326725,134.29717729912994L353.55747019878584,134.66202467929475L354.3247395270636,127.636672260258L355.0920088553414,118.87348159774939L355.3477652981007,112.46155250468473L355.85927818361927,129.3625316038051L356.11503462637853,134.43008983513732L357.64957328293417,125.05480411506935L360.71865059604545,119.94339874366159L363.5319714663974,133.1171771030319L364.5549972374345,122.32095023399307L366.856805222268,126.47933220085977L368.1355874360643,128.23301784949524L368.39134387882365,116.24915579142385L369.1586132071015,121.29066282291967L369.4143696498607,130.79934260179905L369.9258825353793,131.8963005177169L370.18163897813855,133.30907210182676L370.94890830641634,132.504247541969L375.296767833324,123.08761207128347L375.55252427608326,125.06826226937079L375.8082807188426,125.31088447135582L377.0870629326389,129.24599084313348L377.85433226091675,125.41279999703153L378.87735803195386,119.64342227887886L379.13311447471307,126.99676109936456L379.3888709174724,117.90208687402543L380.41189668850944,101.41445327494068L380.66765313126876,97.92884946086639L381.43492245954656,113.33354337464698L382.45794823058367,52.227793540863956L382.9694611161022,111.61218096440496L386.550051314732,103.85548518154019L388.8518592995655,131.5206392779709L389.10761574232475,128.2829860421639L391.92093661267677,139.2014666542946L393.96698815475094,135.80828155279772L394.22274459751026,132.45085972125165L394.99001392578805,129.44447209451857L395.50152681130663,139.77457672788827L395.75728325406584,140.68735625198033L397.80333479614006,141.9320886196017L398.0590912388993,144.21830992454184L398.3148476816586,139.6281244235449L399.3378734526957,134.25754144323852L399.84938633821423,151.3504543078202L400.3608992237328,143.292137537376L402.406950765807,145.6462494769775L403.68573297960336,135.64873835730847L403.9414894223626,151.095949102401L404.7087587506404,147.4645448760844L406.4990538499554,135.33898861188536L409.5681311630666,131.64661054033766L410.846913376863,145.7762483919505L411.10266981962224,127.60711981833836L411.61418270514076,131.27571556021084L411.8699391479001,138.02711006868742L413.4044778044557,135.22177045472677L415.19477290377057,132.28975769770202L415.4505293465299,128.37491609070932L417.7523373313633,133.6329002682141L418.77536310240043,158.0174803080547L419.286875987919,137.39834738491695L420.3099017589561,98.56705692878808L422.6117097437895,88.07233984820652L424.40200484310446,151.33323782722655L424.65776128586367,135.57948068756798L425.93654349966005,139.90244959726067L427.98259504173427,122.7321013366741L428.4941079272528,94.77858445258073L430.28440302656776,92.82210272056972L430.540159469327,102.68057362049791L431.56318524036413,135.32069482603535L432.84196745416045,136.07808938969973L433.6092367824383,100.14190276363445L434.12074966795683,161.29143546644073L434.8880189962346,138.04639138435581L435.65528832451247,114.28206372483032L436.6783140955495,96.56012803174298L438.72436563762375,112.03888362137428L440.7704171796979,146.0293865622906L441.2819300652165,99.3078828232583L441.793442950735,122.77539350131448L442.5607122790129,89.66473423074973L442.8164687217721,98.31064603566153L444.3510073783277,116.25480552296733L444.60676382108704,120.82414067848117L446.6528153631612,93.57023511148526L447.42008469143906,138.2753840425668L447.67584113419827,140.48499017254952L447.9315975769576,93.76683975016283L448.18735401971685,140.0722353540891L448.6988669052354,91.12735668735354L449.4661362335132,131.44002501531926L451.25643133282813,146.1105109126583L451.5121877755874,115.86707764820937L453.30248287490235,123.23048151950903L453.55823931766156,117.1581484243116L453.8139957604208,88.62197007414068L456.1158037452543,110.6962511385783L457.13882951629137,158.91070510946255L457.65034240180995,109.89122254363411L457.9060988445692,107.71693284676292L458.41761173008774,110.25677384484715L459.6963939438841,104.98871033407238L459.9521503866434,91.88259409006656L460.46366327216197,121.49506925321492L460.7194197149212,103.29947324819L460.9751761576805,129.72730145063707L462.25395837147687,119.2078175710883L465.8345485701067,92.72165012646371L468.1363565549401,119.51902820773029L469.6708952114958,90.92643466624696L471.4611903108107,126.98448634856445L471.71694675356997,108.88604369029781L474.0187547384034,99.49883620012923L475.80904983771836,86.31789257484996L477.85510137979253,87.26815060259918L478.1108578225518,115.14721329834435L478.8781271508296,86.65888143098692L480.66842225014454,97.16176323059614L481.1799351356631,102.99650562904009L482.2029609067002,106.2385496999072L484.76052533429294,97.7061227201599L485.01628177705214,125.12898311109473L485.78355110533,103.81291938180755L487.06233331912637,93.89249322788243L488.0853590901635,130.81596738064204L491.410192846034,119.06296082112078L491.92170573155255,133.91501550153006L492.1774621743118,88.66292068112028L493.71200083086745,88.23179964435417L493.9677572736267,128.16968535866494L494.22351371638604,145.804825546157L494.73502660190456,107.84434663719077L495.2465394874231,115.7221760105229L498.31561680053437,87.22871967444769L500.6174247853678,91.2333314910739L501.6404505564049,87.80137768280298L502.9192327702013,137.1860407160748L504.45377142675693,110.05647056014016L505.98831008331257,97.65996896343216L506.24406652607183,111.38463491495679L507.7786051826275,87.29272624619483L508.8016309536646,93.49110061329804L509.3131438391831,109.92421705746199L509.8246567247017,87.51772338732565L511.3591953812573,79.38771289573083L512.1264647095352,85.52175201925508L512.6379775950536,120.41572772666012L513.4052469233316,85.20742807817811L514.1725162516093,86.3593282752476L514.9397855798871,105.3201551302364L515.4512984654057,86.80190938897027L517.2415935647206,89.92944323084163L517.7531064502391,81.373895250143L520.8221837633504,107.58727263003334L521.0779402061097,87.91395990775385L521.3336966488689,107.6822897294366L524.9142868474988,90.10927159462454L525.9373126185359,97.0216227516517L526.9603383895729,126.32751785444478L527.9833641606101,100.61403383259915L528.2391206033694,104.06731644863089L529.0063899316472,92.72899538957546L529.5179028171657,94.63573030698666L530.0294157026843,88.79127991912998L532.0754672447584,105.60142973899622L532.5869801302771,87.93825156001355L533.3542494585549,110.17053637521326L534.1215187868327,92.29707555544593L534.8887881151105,84.32642220484593L535.400301000629,87.14714096344687L536.1675703289068,92.1759001377859L536.9348396571846,112.6568304052127L537.190596099944,114.24887333731948L541.026942741333,108.47188715079358L542.817237840648,114.57843897033746L544.0960200544444,94.66573264627186L544.3517764972036,114.11480188202114L544.6075329399629,106.39372450419586L545.1190458254814,110.55853561663616L545.3748022682407,103.2397582994422L545.8863151537591,89.06680150358386L546.3978280392778,96.59148924470395L547.420853810315,89.23402815034063L548.4438795813519,88.29732857289002L549.7226617951484,92.55871790818873L550.2341746806669,108.30585972025727L552.0244697799818,110.30252463227907L552.5359826655003,106.40753971989858L552.7917391082595,150.24215204109643L553.5590084365374,95.17681503341305L554.0705213220559,22.641416505621862L555.0935470930931,115.39838865115286L555.8608164213708,97.89141310320673L556.3723293068895,111.07263670288114L556.883842192408,95.73465818166403L557.1395986351673,88.76238600045184L559.6971630627601,88.03918287144108L559.9529195055192,92.75054965610678L560.9759452765563,97.57010987101404L561.7432146048342,113.11133488306007L562.5104839331119,83.50807419945909L562.7662403758712,122.6480674459738L563.5335097041491,113.34438783949116L563.7892661469084,118.76874222647734L564.3007790324269,89.15706484051697L565.5795612462232,90.33810102476639L565.8353176889825,94.82801399262115L567.6256127882974,92.6416857155624L567.8813692310567,101.690162826718L568.9043950020938,113.62526049913072L569.4159078876124,110.9783806543503L569.9274207731308,112.26229183926944L570.950446544168,37.56326954875067L573.5080109717608,105.79416128164547L574.0195238572793,105.22341189400186L574.5310367427977,105.88495281440862L574.786793185557,107.6866336364269L575.8098189565942,103.09699698981245L576.577088284872,38.1317072188649L578.6231398269463,115.57359970092966L579.6461655979832,102.80125629342422L580.4134349262611,125.36339086049975L583.2267557966131,138.87304769846244L584.2497815676502,157.79557174804484L584.7612944531687,34.546790346642354L585.5285637814466,113.9479889164021L586.0400766669651,97.91662061796069L586.2958331097244,116.27803083685654L586.8073459952429,129.29328617616983L587.3188588807615,95.63831893490061L587.5746153235208,97.91755305830571L588.0861282090393,108.09344899352112L588.5976410945578,101.87117459400218L588.853397537317,111.91507105022202L589.8764233083542,105.93207675797231L590.1321797511134,101.18031689220061L590.6436926366321,101.00320321524276L591.4109619649098,101.77376722356132L592.6897441787062,122.13739618953184L595.7588214918176,120.05791139557402L596.7818472628545,17.479328818742943L597.5491165911324,90.7534057717196L600.1066810187251,95.03344467905026L601.6412196752807,89.60976003723533L601.89697611804,87.51937964213977L602.4084890035587,97.3091755200212L603.1757583318365,114.4473525483537L603.9430276601142,121.10034297499215L604.1987841028734,97.74382126290556L604.4545405456328,100.25045044979481L607.0121049732255,100.84008022416197L607.2678614159848,108.17556903511064L607.523617858744,106.27297245934017L608.0351307442627,100.33663691065709L611.1042080573739,90.41302117824324L611.3599645001332,128.870953950752L611.6157209428924,38.05454522987583L611.8714773856517,32.84752493626155L613.9175289277258,119.85288061791425L616.2193369125594,47.56888086135126L617.4981191263557,97.59029608229082L619.54417066843,120.21498168581559L619.7999271111892,9.90886810137522L620.5671964394669,104.76952360211556L623.380517309819,118.46345880909632L624.1477866380968,143.15272444351467L624.9150559663746,26.506559246259997L625.1708124091339,42.17291591629203L625.4265688518931,16.656724641452968L625.9380817374117,13.412166858320973L627.9841332794858,48.65338447559293L628.4956461650045,59.17310707619282L629.007159050523,28.655322113466923L629.5186719360415,104.08603870816245L632.0762363636343,51.502491655945335L634.1222879057085,24.44793091883787L634.3780443484678,69.32501970717288L635.6568265622641,102.62779484451357L637.1913652188197,57.23858921114913L639.237416760894,95.14779512306899L640.7719554174496,104.03347926989602L641.0277118602088,93.41039300459437L641.2834683029681,107.2265202340534L641.5392247457274,103.06001154969385L642.0507376312459,99.62576846775312L643.3295198450423,35.057767655713974L648.1888922574685,47.83633413335576L648.700405142987,21.558443154528504L649.7234309140241,107.37387233312796L649.9791873567834,101.35119525691692L652.5367517843761,32.32870451846725L653.0482646698947,96.33561802438106L653.8155339981724,132.80059626291487L654.0712904409318,92.93130892997158L654.327046883691,125.76426267552603L656.8846113112837,100.58572498453134L657.140367754043,115.37378814078102L657.9076370823209,46.20698338569383L658.4191499678394,103.79476433981631L659.4421757388765,92.21890767348071L659.953688624395,103.81535148003786L660.7209579526728,92.00126599721602L661.2324708381914,88.62963159163644L661.7439837237099,92.64753948219231L662.2554966092285,106.14978015485065L664.557304594062,96.71276259920546L665.5803303650991,90.61979084492714L666.6033561361361,97.34998559783509L667.1148690216547,99.38071620788855L667.8821383499326,115.82456489759915L668.6494076782103,81.07815072809683L670.183946334766,95.0360247027183L670.4397027775253,80.14454279229352L671.4627285485623,86.33734834051722L672.2299978768401,99.02368031100804L672.997267205118,89.30119752097141L673.5087800906365,99.07981138346253L674.7875623044329,92.73420491541998L675.8105880754699,86.94118883984993L676.5778574037478,89.9168435541664L676.8336138465071,90.78112189786128L677.0893702892663,108.20566217000936L677.3451267320256,87.01490990462821L678.1123960603034,34.68798262645737L679.1354218313405,87.1652196198026L680.6699604878961,32.41246908285348L680.9257169306554,101.80557731371243L681.6929862589333,58.295588895739L683.7390378010074,122.68677290187102L685.0178200148039,139.36169132697256L685.7850893430816,100.22643858064737L686.5523586713595,89.37849340798596L686.8081151141188,17.66588625967654L687.3196279996373,116.32737468216072L688.086897327915,52.97065468532139L688.3426537706744,124.37439198951793L688.8541666561929,110.95817097903864L690.3887053127485,115.20742405235217L691.1559746410263,123.78377162480618L691.9232439693042,113.25393908567321L692.1790004120635,106.76471130011157L693.2020261831005,99.45499416093082L694.7365648396561,113.05411732377024L698.0613985955267,108.50073567166498L699.0844243665639,82.66413024752245L699.5959372520823,98.11578436670987L700.8747194658787,103.17508733844488L702.1535016796751,122.08314734074969L704.4553096645085,111.81965608240023L705.4783354355457,104.10130869403145L706.5013612065828,108.52363656976678L707.2686305348606,114.42352533095948L711.1049771762497,82.82659650066876L713.6625416038424,116.15790313936537L713.9182980466018,49.07774889047164L714.1740544893609,113.62700295876891L714.9413238176387,31.87376340553493L716.4758624741943,99.88419012665645L718.0104011307501,104.55008182630075L718.2661575735093,96.93959248550021L718.5219140162686,103.83562848692804L718.7776704590278,103.64192369691648L719.033426901787,99.251372245543L719.2891833445464,99.3065606758982L719.5449397873057,96.3658703066472L721.5909913293798,88.32416811329165L727.4733895128431,98.43711208311294L727.7291459556025,82.95860949698886L727.9849023983617,97.60784820060161L729.7751974976766,100.04998393701874L732.5885183680286,86.70970631597476L733.1000312535472,98.98036264198186L734.1230570245842,101.07547958408713L736.1691085666583,34.37206694072211L736.4248650094177,89.3264267144533L737.1921343376955,105.1000767649519L737.7036472232141,29.009078146332968L737.9594036659734,41.27889129734535L738.4709165514919,31.397100717300475L743.3302889639181,91.04840786109497L744.6090711777144,91.32271008086349L745.3763405059922,90.95796267789103L746.14360983427,100.92286133943156L748.4454178191035,60.40302037548622L748.7011742618628,95.5144125076086L750.2357129184184,47.24983119668832L750.747225803937,88.87974111616217L751.0029822466962,88.30282604325026L752.5375209032518,88.1036362800275L753.3047902315298,108.24147236803009L753.560546674289,98.38116770276253L754.8393288880854,82.62679004139733L755.3508417736039,59.96120075896266L755.8623546591224,80.569520332607L756.6296239874004,81.79199425760493L756.8853804301596,97.77343185482488L758.9314319722338,83.43021109490422L760.21021418603,95.68021549954977L760.7217270715487,121.86550311404636L760.9774835143079,25.12413176020516L761.2332399570672,91.52187331952496L764.0465608274192,145.49357410249775L766.6041252550119,89.06630875885008L768.6501767970861,93.76676986814573L772.9980363239938,33.14840731682807L774.2768185377901,98.69075013941472L774.7883314233086,96.53430841172974L775.0440878660679,92.49348228008967L775.8113571943458,79.27415002714577L778.3689216219385,42.24849867371205L779.9034602784941,89.5903608913045L780.9264860495313,103.91318426363398L782.2052682633275,86.6687591520872L782.7167811488462,52.382154245157665L783.2282940343647,40.82275045810479L783.7398069198831,85.62356437570514L784.2513198054017,44.76474505440058L785.2743455764389,88.91891355736351L785.5301020191981,85.39106867814871L786.2973713474759,35.957513418484325L786.5531277902352,77.76563446863724L786.8088842329945,40.53974155111024L787.8319100040316,86.8864263327377L788.3434228895502,87.26605414208603L789.1106922178279,83.97628333149669L789.3664486605873,98.40847371838049L789.8779615461058,85.56306247319316L791.156743759902,95.50336400767799L791.6682566454207,98.69367906308054L791.9240130881799,98.31756996631981L792.1797695309392,84.95923753552086L793.7143081874948,89.49891950679108L794.2258210730134,28.70358457281293L794.9930904012913,38.420857581961286L797.2948983861247,87.02153734680144L798.0621677144026,89.80562938447014L798.573680599921,97.46552556640773L799.0851934854396,86.18800638926211L799.5967063709581,94.85085776089875L800.1082192564767,104.34363912584291L802.4100272413102,102.24183799430591L803.4330530123472,126.43538712394275L803.9445658978658,119.11709336990367L804.7118352261436,110.76481100832319L806.7578867682178,109.22010625662085L807.7809125392549,105.09588792462728L808.803938310292,130.6196162555594L810.3384769668476,133.36322301376737L812.1287720661626,120.61243387279319L812.640284951681,132.8543064590688L813.9190671654775,135.90694883989735L815.7093622647923,133.78957064968628L816.4766315930702,135.48577961447222L816.7323880358294,134.43707599649696L818.0111702496258,109.90870222948922L818.266926692385,130.88520056617213L818.5226831351443,110.44340269806099L819.0341960206629,118.39412156567215L819.8014653489407,121.86140200880897L821.0802475627371,87.04546148086177L821.847516891015,95.6857030231995L822.1032733337743,96.06535416906087L822.6147862192927,101.89340727719593L824.1493248758484,19.8480088635161L826.7068893034411,11.666393690337486L828.497184402756,90.2962575092397L829.2644537310339,12.959568068180886L829.5202101737931,92.62650397486829L831.310505273108,22.268901486908703L831.5662617158673,47.49595464075662L831.8220181586266,26.350953927938974L832.0777746013857,30.375288923717733L833.3565568151822,109.95281665552801L834.1238261434601,26.519299197057194L840.2619807696826,119.00871197233869L841.0292500979605,116.88329479972197L841.5407629834789,114.10471438734766L842.8195451972753,113.8828568361094L843.5868145255531,122.59598544980963L843.8425709683124,124.97044784893245L844.354083853831,120.96735698635365L844.6098402965902,106.16857790736424L846.4001353959051,104.47718417061822L846.9116482814236,102.11980052840568L847.4231611669422,102.90496120680797L849.7249691517757,92.91540898577318L851.003751365572,132.17120515107814L851.2595078083313,94.48978400965757L852.794046464887,43.860669667095976L853.3055593504056,68.77184896240135L853.817072235924,60.071812260022455L854.3285851214425,70.72069213086382L855.3516108924797,14.86294609833243L856.1188802207574,77.72830063860852L857.1419059917946,88.80783991683302L859.443713976628,100.72738552486976L859.6994704193874,88.30606586537903L859.9552268621467,97.89879509263409L861.4897655187023,50.119617333051224L863.5358170607764,132.14138338284437L864.5588428318135,85.11062206927403L865.0703557173321,49.75745097392223L865.3261121600914,97.15134927978437L865.5818686028506,130.5357863999455L866.6048943738876,77.71212779748203L867.8836765876841,130.83700339805378L869.673971686999,16.31307242606738L871.7200232290731,82.08462163361804L872.7430490001103,93.574026593479L873.7660747711474,24.130358468200768L874.2775876566659,11.336844380126422L875.8121263132215,77.64480182992236L876.5793956414993,42.26995908410362L877.090908527018,23.00913261910199L877.6024214125364,13.032016846673287L878.1139342980549,18.177198186289957L878.8812036263328,11.797327086006419L879.3927165118514,108.54139782404121L880.1599858401291,30.421882376056658L881.1830116111663,23.313610097891512L881.6945244966848,82.14085217317717L883.2290631532404,70.70113332747792L884.5078453670369,123.89131443816584L884.7636018097961,24.540979079657006L885.7866275808332,55.926976182544365L887.5769226801481,12.878655914303067L890.3902435505,90.45332218851644L891.1575128787779,150.95725013134225L891.4132693215372,142.27274151921665L892.1805386498149,138.10795693133755L893.4593208636114,112.7020976294898L894.993859520167,122.41652842988401L895.2496159629262,117.30062816552203L896.2726417339634,112.91902161233799L896.784154619482,131.41500215231852L898.3186932760376,141.45203486823056L898.5744497187968,138.50719646567234L899.0859626043155,114.71846620980892L900.1089883753525,150.75970336065308L901.8992834746673,133.26878741436047L903.4338221312231,119.02028688279233L904.2010914595008,150.96584408918298L905.7356301160565,147.7393270883938L907.7816816581307,131.97101816637047L908.5489509864085,130.8577047979238L909.060463871927,136.56234626385145L909.3162203146862,135.06030524872327L910.5950025284827,126.82502068640801L910.8507589712419,125.93271404288916L911.6180282995198,131.50035819037896L912.1295411850383,119.81391399710634L912.3852976277976,114.75452329028423L912.8968105133162,121.02454394038045L914.1755927271124,130.0734510554807L916.7331571547052,113.6337483587265L918.2676958112609,133.55391420555225L918.7792086967794,120.49485253318079L919.0349651395386,134.15931079122385L920.0579909105758,121.95523774506177L920.3137473533351,117.28611310947286L921.3367731243721,105.72092492771947L921.8482860098907,110.17980364883925L923.3828246664463,130.90389018008986L923.6385811092056,121.19735349718991L924.4058504374834,119.59555768795138L925.4288762085206,111.85836357864838L928.4979535216318,121.1190366696116L929.7767357354281,92.84255213710793L930.0324921781875,108.66409024256893L930.5440050637059,104.54062480004438L932.8458130485395,112.61964297035854L933.1015694912986,113.03495230810114L934.6361081478543,110.39522389310042L934.8918645906136,112.86812301967518L935.4033774761322,114.37199831023042L938.4724547892434,113.7621680421305L939.4954805602806,101.2998834932041L940.0069934457991,98.00115235427188L940.5185063313176,98.25014657200643L941.2857756595954,101.41693026089007L942.0530449878732,108.68348173718397L944.3548529727068,115.67058981961884L945.8893916292624,117.58822174090892L946.4009045147809,113.57809370819882L949.214225385133,124.65286315619011L949.4699818278922,115.25153235733836L951.0045204844479,133.18096255175413L952.7948155837627,120.0192712309044L958.9329702099853,102.40796642221L959.1887266527447,116.53541905804707L959.7002395382631,108.33517344112579L960.4675088665409,111.660969834274L960.9790217520595,114.18642839911519L966.3499070500043,18.71157015837258L967.117176378282,24.217187639585234L968.1402021493192,31.25396194276078L968.3959585920784,35.301752812076415L968.6517150348377,20.76415496653442L969.1632279203561,30.65382130091581L970.1862536913933,81.76617412750397L970.9535230196711,79.41290255741472L971.4650359051897,9.614037401472444L971.9765487907082,23.97578148671539L973.7668438900232,23.393881581597952L974.534113218301,23.575105545372082L974.7898696610603,26.77793407262584L975.5571389893381,70.79096079445765L976.8359212031344,24.65824620523631L978.8819727452086,23.243291445701573L979.9049985162457,30.94795420082295L980.4165114017643,14.967656904692376L980.9280242872828,22.986443917490078L981.183780730042,21.470834569113777L982.7183193865977,56.04977469931703L983.7413451576348,32.873225195749285L984.2528580431533,28.061461671582492L984.7643709286718,26.12687443460942L985.5316402569497,44.097774760343725L987.8334482417832,12.659840526203652L988.3449611273016,28.566844338583962L988.600717570061,24.40489583840639L989.623743341098,23.25613749474371L990.9025255548944,14.04820135257205L991.4140384404129,10.271993425410471L993.9716028680057,50.84808380216049L994.4831157535243,28.164368807778317L994.9946286390428,42.972288658640196L998.3194623949133,30.13806140941807L999.3424881659505,28.555573440409148L999.854001051469,21.7939322898917L1002.4115654790618,35.271812703492515L1003.690347692858,42.952611514904106L1005.480642792173,11.866413366274287L1006.2479121204508,21.791316560083544L1006.7594250059694,21.09498153638657L1008.293963662525,11.783011984341954L1010.0842587618398,21.709771897437747L1011.8745538611548,29.258759962308773L1012.1303103039141,23.429249023481077L1012.3860667466734,23.938369613266104L1012.8975796321919,20.065857125305854L1013.6648489604697,26.323613226356315L1014.1763618459884,19.37836498225505L1015.710900502544,37.84005130490709L1016.733926273581,29.744445082065567L1016.9896827163403,39.939335663652855L1018.5242213728959,32.51619644009679L1018.7799778156552,23.990300623466283L1019.0357342584145,17.47916967137553L1020.3145164722108,89.12091568920891L1020.5702729149701,84.56413270845178L1021.5932986860072,22.26627351499542L1024.4066195563591,23.899545817018748L1025.9411582129148,29.27428295168494L1026.964183983952,15.423381512356627L1027.4756968694705,36.62008063537593L1028.2429661977483,91.18076848219351L1028.754479083267,9.026759131476524L1030.2890177398224,20.65278853565485L1031.0562870681003,83.15555716965542L1032.0793128391374,42.88845472232458L1033.1023386101745,96.11499488541574L1033.613851495693,29.955596912318356L1034.3811208239708,64.03227407199176L1034.8926337094895,104.89218133467858L1035.9156594805265,46.03954811306113L1036.427172366045,41.27996452190001L1036.9386852515636,84.70078099936984" fill="none"></path></g></g></g></g></g></g><g transform="translate(59, 378)" clip-path="url(#clip_1)"><clipPath id="clip_1"><rect width="1052" height="21"></rect></clipPath><g><g><line x1="13.912914214471133" y1="0" x2="13.912914214471133" y2="5" style="visibility: inherit;" fill="rgb(0, 0, 0)" stroke="rgb(204, 204, 204)" stroke-width="1px"></line><line x1="141.79113559410766" y1="0" x2="141.79113559410766" y2="5" style="visibility: inherit;" fill="rgb(0, 0, 0)" stroke="rgb(204, 204, 204)" stroke-width="1px"></line><line x1="269.6693569737442" y1="0" x2="269.6693569737442" y2="5" style="visibility: inherit;" fill="rgb(0, 0, 0)" stroke="rgb(204, 204, 204)" stroke-width="1px"></line><line x1="397.5475783533808" y1="0" x2="397.5475783533808" y2="5" style="visibility: inherit;" fill="rgb(0, 0, 0)" stroke="rgb(204, 204, 204)" stroke-width="1px"></line><line x1="525.4257997330174" y1="0" x2="525.4257997330174" y2="5" style="visibility: inherit;" fill="rgb(0, 0, 0)" stroke="rgb(204, 204, 204)" stroke-width="1px"></line><line x1="653.3040211126539" y1="0" x2="653.3040211126539" y2="5" style="visibility: inherit;" fill="rgb(0, 0, 0)" stroke="rgb(204, 204, 204)" stroke-width="1px"></line><line x1="781.1822424922906" y1="0" x2="781.1822424922906" y2="5" style="visibility: inherit;" fill="rgb(0, 0, 0)" stroke="rgb(204, 204, 204)" stroke-width="1px"></line><line x1="909.060463871927" y1="0" x2="909.060463871927" y2="5" style="visibility: inherit;" fill="rgb(0, 0, 0)" stroke="rgb(204, 204, 204)" stroke-width="1px"></line><line x1="1036.9386852515636" y1="0" x2="1036.9386852515636" y2="5" style="visibility: inherit;" fill="rgb(0, 0, 0)" stroke="rgb(204, 204, 204)" stroke-width="1px"></line></g><g transform="translate(0, 8)"><text style="text-anchor: middle; visibility: hidden; font-family: &quot;Helvetica Neue&quot;, sans-serif; font-size: 12px; font-weight: 200;" x="13.912914214471133" y="0" dx="0em" dy="0.95em" fill="rgb(50, 49, 63)" stroke="none" stroke-width="1px">0</text><text style="text-anchor: middle; visibility: hidden; font-family: &quot;Helvetica Neue&quot;, sans-serif; font-size: 12px; font-weight: 200;" x="141.79113559410766" y="0" dx="0em" dy="0.95em" fill="rgb(50, 49, 63)" stroke="none" stroke-width="1px">500</text><text style="text-anchor: middle; visibility: hidden; font-family: &quot;Helvetica Neue&quot;, sans-serif; font-size: 12px; font-weight: 200;" x="269.6693569737442" y="0" dx="0em" dy="0.95em" fill="rgb(50, 49, 63)" stroke="none" stroke-width="1px">1k</text><text style="text-anchor: middle; visibility: hidden; font-family: &quot;Helvetica Neue&quot;, sans-serif; font-size: 12px; font-weight: 200;" x="397.5475783533808" y="0" dx="0em" dy="0.95em" fill="rgb(50, 49, 63)" stroke="none" stroke-width="1px">1.5k</text><text style="text-anchor: middle; visibility: hidden; font-family: &quot;Helvetica Neue&quot;, sans-serif; font-size: 12px; font-weight: 200;" x="525.4257997330174" y="0" dx="0em" dy="0.95em" fill="rgb(50, 49, 63)" stroke="none" stroke-width="1px">2k</text><text style="text-anchor: middle; visibility: hidden; font-family: &quot;Helvetica Neue&quot;, sans-serif; font-size: 12px; font-weight: 200;" x="653.3040211126539" y="0" dx="0em" dy="0.95em" fill="rgb(50, 49, 63)" stroke="none" stroke-width="1px">2.5k</text><text style="text-anchor: middle; visibility: hidden; font-family: &quot;Helvetica Neue&quot;, sans-serif; font-size: 12px; font-weight: 200;" x="781.1822424922906" y="0" dx="0em" dy="0.95em" fill="rgb(50, 49, 63)" stroke="none" stroke-width="1px">3k</text><text style="text-anchor: middle; visibility: hidden; font-family: &quot;Helvetica Neue&quot;, sans-serif; font-size: 12px; font-weight: 200;" x="909.060463871927" y="0" dx="0em" dy="0.95em" fill="rgb(50, 49, 63)" stroke="none" stroke-width="1px">3.5k</text><text style="text-anchor: middle; visibility: hidden; font-family: &quot;Helvetica Neue&quot;, sans-serif; font-size: 12px; font-weight: 200;" x="1036.9386852515636" y="0" dx="0em" dy="0.95em" fill="rgb(50, 49, 63)" stroke="none" stroke-width="1px">4k</text></g><line x1="0" y1="0" x2="1052.619998550415" y2="0" fill="rgb(0, 0, 0)" stroke="rgb(204, 204, 204)" stroke-width="1px"></line></g></g></g></g></svg>