<svg viewBox="0 0 1112.5999755859375 400" xmlns="http://www.w3.org/2000/svg"><g><g><g><g><g><line x1="79.97200202941895" y1="350.8974997831116" x2="74.97200202941895" y2="350.8974997831116" style="visibility: inherit;" fill="rgb(0, 0, 0)" stroke="rgb(204, 204, 204)" stroke-width="1px"></line><line x1="79.97200202941895" y1="308.2355898087677" x2="74.97200202941895" y2="308.2355898087677" style="visibility: inherit;" fill="rgb(0, 0, 0)" stroke="rgb(204, 204, 204)" stroke-width="1px"></line><line x1="79.97200202941895" y1="265.57367983442384" x2="74.97200202941895" y2="265.57367983442384" style="visibility: inherit;" fill="rgb(0, 0, 0)" stroke="rgb(204, 204, 204)" stroke-width="1px"></line><line x1="79.97200202941895" y1="222.91176986007994" x2="74.97200202941895" y2="222.91176986007994" style="visibility: inherit;" fill="rgb(0, 0, 0)" stroke="rgb(204, 204, 204)" stroke-width="1px"></line><line x1="79.97200202941895" y1="180.24985988573607" x2="74.97200202941895" y2="180.24985988573607" style="visibility: inherit;" fill="rgb(0, 0, 0)" stroke="rgb(204, 204, 204)" stroke-width="1px"></line><line x1="79.97200202941895" y1="137.58794991139217" x2="74.97200202941895" y2="137.58794991139217" style="visibility: inherit;" fill="rgb(0, 0, 0)" stroke="rgb(204, 204, 204)" stroke-width="1px"></line><line x1="79.97200202941895" y1="94.9260399370483" x2="74.97200202941895" y2="94.9260399370483" style="visibility: inherit;" fill="rgb(0, 0, 0)" stroke="rgb(204, 204, 204)" stroke-width="1px"></line><line x1="79.97200202941895" y1="52.26412996270443" x2="74.97200202941895" y2="52.26412996270443" style="visibility: inherit;" fill="rgb(0, 0, 0)" stroke="rgb(204, 204, 204)" stroke-width="1px"></line><line x1="79.97200202941895" y1="9.60221998836056" x2="74.97200202941895" y2="9.60221998836056" style="visibility: inherit;" fill="rgb(0, 0, 0)" stroke="rgb(204, 204, 204)" stroke-width="1px"></line></g><g transform="translate(69.97200202941895, 0)"><text style="text-anchor: end; visibility: inherit; font-family: &quot;Helvetica Neue&quot;, sans-serif; font-size: 12px; font-weight: 200;" x="0" y="350.8974997831116" dx="0em" dy="0.3em" fill="rgb(50, 49, 63)" stroke="none" stroke-width="1px">-1.6e+3</text><text style="text-anchor: end; visibility: inherit; font-family: &quot;Helvetica Neue&quot;, sans-serif; font-size: 12px; font-weight: 200;" x="0" y="308.2355898087677" dx="0em" dy="0.3em" fill="rgb(50, 49, 63)" stroke="none" stroke-width="1px">-1.4e+3</text><text style="text-anchor: end; visibility: inherit; font-family: &quot;Helvetica Neue&quot;, sans-serif; font-size: 12px; font-weight: 200;" x="0" y="265.57367983442384" dx="0em" dy="0.3em" fill="rgb(50, 49, 63)" stroke="none" stroke-width="1px">-1.2e+3</text><text style="text-anchor: end; visibility: inherit; font-family: &quot;Helvetica Neue&quot;, sans-serif; font-size: 12px; font-weight: 200;" x="0" y="222.91176986007994" dx="0em" dy="0.3em" fill="rgb(50, 49, 63)" stroke="none" stroke-width="1px">-1e+3</text><text style="text-anchor: end; visibility: inherit; font-family: &quot;Helvetica Neue&quot;, sans-serif; font-size: 12px; font-weight: 200;" x="0" y="180.24985988573607" dx="0em" dy="0.3em" fill="rgb(50, 49, 63)" stroke="none" stroke-width="1px">-800</text><text style="text-anchor: end; visibility: inherit; font-family: &quot;Helvetica Neue&quot;, sans-serif; font-size: 12px; font-weight: 200;" x="0" y="137.58794991139217" dx="0em" dy="0.3em" fill="rgb(50, 49, 63)" stroke="none" stroke-width="1px">-600</text><text style="text-anchor: end; visibility: inherit; font-family: &quot;Helvetica Neue&quot;, sans-serif; font-size: 12px; font-weight: 200;" x="0" y="94.9260399370483" dx="0em" dy="0.3em" fill="rgb(50, 49, 63)" stroke="none" stroke-width="1px">-400</text><text style="text-anchor: end; visibility: inherit; font-family: &quot;Helvetica Neue&quot;, sans-serif; font-size: 12px; font-weight: 200;" x="0" y="52.26412996270443" dx="0em" dy="0.3em" fill="rgb(50, 49, 63)" stroke="none" stroke-width="1px">-200</text><text style="text-anchor: end; visibility: inherit; font-family: &quot;Helvetica Neue&quot;, sans-serif; font-size: 12px; font-weight: 200;" x="0" y="9.60221998836056" dx="0em" dy="0.3em" fill="rgb(50, 49, 63)" stroke="none" stroke-width="1px">0</text></g><line x1="79.97200202941895" y1="0" x2="79.97200202941895" y2="378.60799980163574" fill="rgb(0, 0, 0)" stroke="rgb(204, 204, 204)" stroke-width="1px"></line></g></g><g transform="translate(79, 0)" clip-path="url(#clip_0)"><clipPath id="clip_0"><rect width="1032" height="378"></rect></clipPath><g><g><g><line x1="13.680861931216056" y1="0" x2="13.680861931216056" y2="378.60799980163574" fill="rgb(0, 0, 0)" stroke="rgb(60, 60, 60)" stroke-width="1px" opacity="0.25"></line><line x1="139.42621360488704" y1="0" x2="139.42621360488704" y2="378.60799980163574" fill="rgb(0, 0, 0)" stroke="rgb(60, 60, 60)" stroke-width="1px" opacity="0.25"></line><line x1="265.17156527855803" y1="0" x2="265.17156527855803" y2="378.60799980163574" fill="rgb(0, 0, 0)" stroke="rgb(60, 60, 60)" stroke-width="1px" opacity="0.25"></line><line x1="390.91691695222903" y1="0" x2="390.91691695222903" y2="378.60799980163574" fill="rgb(0, 0, 0)" stroke="rgb(60, 60, 60)" stroke-width="1px" opacity="0.25"></line><line x1="516.6622686259002" y1="0" x2="516.6622686259002" y2="378.60799980163574" fill="rgb(0, 0, 0)" stroke="rgb(60, 60, 60)" stroke-width="1px" opacity="0.25"></line><line x1="642.4076202995711" y1="0" x2="642.4076202995711" y2="378.60799980163574" fill="rgb(0, 0, 0)" stroke="rgb(60, 60, 60)" stroke-width="1px" opacity="0.25"></line><line x1="768.1529719732421" y1="0" x2="768.1529719732421" y2="378.60799980163574" fill="rgb(0, 0, 0)" stroke="rgb(60, 60, 60)" stroke-width="1px" opacity="0.25"></line><line x1="893.898323646913" y1="0" x2="893.898323646913" y2="378.60799980163574" fill="rgb(0, 0, 0)" stroke="rgb(60, 60, 60)" stroke-width="1px" opacity="0.25"></line><line x1="1019.6436753205842" y1="0" x2="1019.6436753205842" y2="378.60799980163574" fill="rgb(0, 0, 0)" stroke="rgb(60, 60, 60)" stroke-width="1px" opacity="0.25"></line></g><g><line x1="0" y1="350.8974997831116" x2="1032.627997970581" y2="350.8974997831116" fill="rgb(0, 0, 0)" stroke="rgb(60, 60, 60)" stroke-width="1px" opacity="0.25"></line><line x1="0" y1="308.2355898087677" x2="1032.627997970581" y2="308.2355898087677" fill="rgb(0, 0, 0)" stroke="rgb(60, 60, 60)" stroke-width="1px" opacity="0.25"></line><line x1="0" y1="265.57367983442384" x2="1032.627997970581" y2="265.57367983442384" fill="rgb(0, 0, 0)" stroke="rgb(60, 60, 60)" stroke-width="1px" opacity="0.25"></line><line x1="0" y1="222.91176986007994" x2="1032.627997970581" y2="222.91176986007994" fill="rgb(0, 0, 0)" stroke="rgb(60, 60, 60)" stroke-width="1px" opacity="0.25"></line><line x1="0" y1="180.24985988573607" x2="1032.627997970581" y2="180.24985988573607" fill="rgb(0, 0, 0)" stroke="rgb(60, 60, 60)" stroke-width="1px" opacity="0.25"></line><line x1="0" y1="137.58794991139217" x2="1032.627997970581" y2="137.58794991139217" fill="rgb(0, 0, 0)" stroke="rgb(60, 60, 60)" stroke-width="1px" opacity="0.25"></line><line x1="0" y1="94.9260399370483" x2="1032.627997970581" y2="94.9260399370483" fill="rgb(0, 0, 0)" stroke="rgb(60, 60, 60)" stroke-width="1px" opacity="0.25"></line><line x1="0" y1="52.26412996270443" x2="1032.627997970581" y2="52.26412996270443" fill="rgb(0, 0, 0)" stroke="rgb(60, 60, 60)" stroke-width="1px" opacity="0.25"></line><line x1="0" y1="9.60221998836056" x2="1032.627997970581" y2="9.60221998836056" fill="rgb(0, 0, 0)" stroke="rgb(60, 60, 60)" stroke-width="1px" opacity="0.25"></line></g></g></g><g><g><line x1="0" y1="9.60221998836056" x2="1032.627997970581" y2="9.60221998836056" fill="rgb(0, 0, 0)" stroke="rgb(153, 153, 153)" stroke-width="1.5px"></line></g></g><g><g><line x1="13.680861931216056" y1="0" x2="13.680861931216056" y2="378.60799980163574" fill="rgb(0, 0, 0)" stroke="rgb(153, 153, 153)" stroke-width="1.5px"></line></g></g><g><g><g><g><g><path style="fill: none;" stroke="rgb(204, 51, 17)" stroke-width="2px" d="M15.189806151300107,368.40205848687907L17.704713184773524,362.6488463905603L18.45918529481555,340.1036851041932L19.968129514899605,328.2130167466218L23.991980768457076,337.272914835896L24.49496217515176,341.61304330616025L24.997943581846446,341.78940975915833L25.249434285193786,340.29209367794977L25.75241569188847,337.18432369457133L27.261359911972523,335.41097099978504L27.512850615319866,332.51587989586704L28.01583202201455,332.0698155756886L30.279248352140627,328.8894106659146L31.78819257222468,326.9327347871028L32.03968327557202,323.0727527909091L32.29117397891936,324.2061568739132L32.542664682266704,322.8687868361483L33.800118199003414,315.8122115179374L35.81204382578215,315.77068665333434L37.572478749213545,308.02043832768953L39.584404375992285,297.78606632935765L40.3388764860343,266.70203437233477L40.59036718938165,254.94332242201511L42.35080211281304,253.4224813611912L43.60825562954975,250.24574540887284L45.62018125632849,228.03750856763293L46.37465336637052,229.66952961320678L46.62614406971786,233.69595136317577L48.88956039984393,237.56775821021188L49.39254180653862,240.51406823596804L49.64403250988596,244.95971431010588L51.6559581366647,221.23122305756678L52.913411653401404,202.83814009575087L53.667883763443434,186.42172286853014L55.93130009356951,168.85487903173154L56.182790796916855,155.91925420196202L58.44620712704293,147.03365104056584L58.697697830390275,136.19552110898675L59.955151347126986,126.43468225987232L60.458132753821666,123.39933666589383L60.70962345716901,112.25452938419562L61.71558627055838,108.23036911574013L63.72751189733711,108.45315875054985L65.73943752411584,104.29444777641066L65.99092822746319,100.47684072677896L66.24241893081053,97.31464394893322L67.2483817441999,106.4776045822938L70.01477948102067,120.6150224636952L71.52372370110471,131.17262285926773L72.78117721784142,130.10140513375234L73.53564932788345,123.65890910974582L76.55353776805156,137.8704897776439L78.0624819881356,150.618198182258L79.31993550487232,163.39988749323447L80.07440761491435,175.5547611892687L81.08037042830371,161.89605044205658L82.08633324169308,176.85585569208138L82.58931464838776,163.14396430191982L87.36763801198727,152.98725332854437L88.62509152872397,141.6162661578526L88.87658223207131,131.43088161327128L90.13403574880803,124.64546753533378L91.13999856219739,115.83573404212484L91.39148926554473,110.28160677627795L91.89447067223942,105.55782003733032L93.90639629901816,101.31514345495884L94.1578870023655,97.34038804722121L95.66683122244955,96.5070853133401L95.91832192579689,88.08137585869821L96.16981262914423,80.4721741209429L96.92428473918626,76.10099060752566L99.18770106931234,72.19562845267478L101.19962669609107,66.18930749840291L105.22347794964854,65.55091253208775L106.22944076303791,60.15365629205667L107.73838498312196,62.33987798610991L108.74434779651133,62.18424703466616L109.24732920320602,59.5739173767397L112.26521764337413,54.75423745917141L112.51670834672146,56.76247345867699L116.54055960027893,54.76102873553543L119.80993874379438,53.10540029175456L120.06142944714172,62.75649940571935L120.5644108538364,78.55132869364661L122.07335507392045,74.32209111360714L124.33677140404654,73.18263011806442L124.83975281074122,74.27169230597724L125.09124351408856,72.93587835497004L125.84571562413059,74.21520803875325L127.35465984421465,70.50930445843852L129.6180761743407,69.63281072549597L130.37254828438273,70.4266523980595L130.62403898773007,67.14356200175149L132.88745531785614,61.684048781701904L133.13894602120348,59.222838710817484L136.9113065714136,56.97471211454513L137.4142879781083,55.069680078191084L137.91726938480298,57.67764674460926L141.43813923166576,58.07749545572523L142.6955927484025,55.8332729262728L143.19857415509716,51.51432095458273L143.9530462651392,47.58303242166704L145.96497189191794,44.00132881181344L147.47391611200197,43.296527479632346L147.97689751869666,45.05227085348349L148.73136962873872,44.36930713159387L150.24031384882275,43.42000698871885L151.49776736555944,42.61480501958499L154.01267439903287,39.49504620190788L154.51565580572756,41.64453077778444L155.52161861911694,43.81000767866283L157.03056283920097,40.5786751005532L158.03652565259034,43.23238530578004L158.28801635593769,42.60975539734352L159.5454698726744,42.05854664163269L160.0484512793691,39.03186233794281L160.29994198271643,38.80916567458411L160.8029233894111,38.67925050989811L161.30590479610578,38.31533146612111L161.55739549945312,42.891968411368794L162.81484901618984,39.72610943501769L163.06633971953718,43.52790891998876L165.32975604966325,42.630030191159335L166.8387002697473,42.00487177485354L167.341681676442,41.41449686677612L168.5991351931787,40.91864796000294L169.85658870991543,40.38847583984523L170.35957011661012,39.79575516540922L173.3774585567782,41.52679376439198L175.13789348020958,43.131998030606155L175.38938418355693,44.895606663916055L175.89236559025164,44.049159416796556L176.143856293599,43.15233407036595L176.39534699694633,42.55841284183015L176.64683770029367,45.4315230622899L177.14981910698833,44.445647698149685L177.90429121703036,43.553332869155895L178.9102540304197,42.863844908787996L180.16770754715645,42.16281547364815L180.92217965719846,43.68165880444707L181.92814247058783,40.432451832312836L182.6826145806299,39.97282192314452L182.9341052839772,42.15156401535455L183.4370866906719,44.143926563412435L183.68857739401923,43.38603870409224L184.44304950406126,42.629526973089185L184.6945402074086,44.29720193034933L185.4490123174506,40.995087050001416L185.70050302079795,40.483473692663324L186.95795653753467,42.256169033888L187.209447240882,41.69623108727012L188.9698821643134,41.14727661585965L189.72435427435545,45.72143896944817L190.73031708774482,44.77982656956027L191.48478919778682,44.049443077135095L191.9877706044815,40.77143644456578L192.4907520111762,40.26373860053161L193.49671482456557,39.86076246770523L194.50267763795495,39.49710266132382L195.25714974799695,43.845712329584444L195.5086404513443,47.88506098530405L195.76013115469163,46.66113819595262L197.52056607812304,45.67880706227771L199.02951029820707,44.77305785807454L199.5324917049018,43.96096295531561L199.78398240824913,45.43839161962791L200.78994522163848,44.438742830007925L201.79590803502785,43.50144380614228L202.55038014506988,45.10616635087496L202.80187084841722,44.12283066139122L203.05336155176457,43.3435222162538L203.55634295845925,42.55472141323105L204.05932436515394,41.75403395076927L206.32274069528003,38.67281668175508L206.57423139862738,38.333496273624405L207.32870350866938,37.98165010140542L207.58019421201672,40.44707767847609L207.83168491536406,42.140593253748875L208.33466632205875,41.42853278042128L208.5861570254061,40.82406664584829L210.09510124549016,40.34354830444863L211.1010640588795,42.080500242818346L211.35255476222684,38.9589107028155L211.85553616892153,41.42289039200955L212.35851757561622,38.36220347213896L213.11298968565825,38.02817517221678L213.3644803890056,40.84017675807684L213.61597109235294,40.184367488746034L213.86746179570028,39.6472099251684L214.6219339057423,41.9835187192358L215.62789671913166,41.21433713894049L216.88535023586837,40.7002932940257L217.13684093921572,42.58313145624692L217.38833164256306,44.213580084533874L218.8972758626471,40.88187858055977L220.40622008273118,40.32613275060436L221.41218289612053,39.819103987311905L222.16665500616256,39.44944061150136L223.17261781955193,39.065595961513395L224.1785806329413,38.74251327618913L224.68156203963596,40.619198393311024L225.93901555637268,40.116923172848715L226.6934876664147,39.571342581324814L231.9747924367089,41.61990132780301L232.47777384340358,43.17209442051552L232.7292645467509,45.69404459764121L233.7352273601403,44.70874868338535L234.238208766835,41.34318189406224L235.24417158022433,38.29790575195955L235.74715298691902,42.00111340106787L237.75907861369777,43.99871909862196L239.2680228337818,47.81233936163795L240.2739856471712,44.15039432617016L242.03442057060258,40.83919386595625L242.28591127394992,40.39967205593592L242.53740197729726,39.85387546762672L242.78889268064458,39.45831579349749L244.04634619738133,39.14209797161237L244.549327604076,41.09723694946376L245.303799714118,42.830723225060694L245.55529041746536,42.02906171715898L246.05827182416004,41.517996756313664L248.0701974509388,40.956002104902666L248.32168815428614,45.396712667116276L249.07616026432814,44.598764390596784L250.83659518775954,43.666529042662944L251.59106729780157,42.79575195002826L253.85448362792766,44.58054020524213L254.35746503462235,43.80415438519202L254.6089557379697,45.39046122728473L254.860446441317,46.9824551982249L255.61491855135904,46.0324424579789L255.86640925470638,42.60846285801989L256.87237206809573,44.14235051545353L258.1298255848325,43.37525093058821L258.3813162881798,42.71713166187919L259.3872791015692,42.01028599264407L259.6387698049165,44.050742744823424L259.89026050826385,43.34760299591221L260.14175121161117,45.238576873521595L261.14771402500054,44.30472509933452L261.3992047283479,43.54499298801454L262.15367683838997,42.80389426954321L262.4051675417373,42.040248062818705L264.417093168516,41.50484193298189L265.42305598190535,41.00967734944459L265.9260373886001,40.463996939901676L266.4290187952948,37.54451240298221L266.6805094986421,37.31595059536676L268.44094442207347,39.50555999006309L268.6924351254208,39.29236175301014L268.94392582876816,41.223467119461986L269.6983979388102,38.24973459843312L271.7103235655889,40.7407169152973L272.2133049722836,40.362970300153506L273.21926778567297,42.41607378688633L273.47075848902034,44.20087881820865L274.22523059906234,43.512584241628076L274.72821200575703,42.719531768234276L276.4886469291884,42.16548435439154L279.2550446660092,44.25188239206L279.75802607270384,43.40862074054888L281.2669702927879,42.598988909342495L281.5184609961353,41.98808581432934L282.02144240282996,43.97233198337307L282.52442380952465,43.06486928760228L283.530386622914,42.272066980959096L284.53634943630334,41.59582677168095L285.039330842998,38.5326637153571L286.2967843597348,35.77236319785152L286.54827506308214,33.2905921197609L286.79976576642946,33.494561516641795L288.81169139320815,33.75839241017263L290.32063561329227,38.56290152510417L291.32659842668164,40.770586825884834L291.5780891300289,42.91776263771004L291.8295798333763,45.06543161856115L294.0929961635024,49.37681458245976L294.5959775701971,48.11250235035641L295.3504496802391,44.44119239740428L296.85939390032314,43.687212569408814L297.11088460367046,42.89232866624758L298.8713195271019,42.23733526578013L299.3743009337966,41.614778435970436L304.4041150007434,46.28034015985219L304.6556057040907,50.6711805302661L305.6615685174801,46.7307738721546L305.91305922082745,48.00482202545754L306.16454992417476,46.81882954195862L310.69138258442695,45.72669667413169L311.445854694469,44.76177911789341L311.94883610116364,46.44691796612136L313.70927102459507,45.423590267051225L313.9607617279424,48.1307062346105L315.46970594802644,49.739248314365796L315.9726873547211,48.29523249901098L317.2301408714578,47.14324383541219L317.7331222781525,45.94896238543396L318.2361036848472,47.507837742606284L319.24206649823657,43.92424989993873L321.75697353171,43.217681884702586L323.7688991584887,42.44591165652537L324.02038986183607,41.81765614014682L324.2718805651834,38.797728631841835L324.77486197187807,40.815389344292385L325.5293340819201,40.30970400732224L326.7867875986569,39.88621127710701L327.5412597086988,39.511921606786586L329.0502039287829,39.18568566020434L329.55318533547756,41.11225398794488L330.0561667421723,43.16682727336911L330.3076574455196,42.39936955267876L331.0621295555617,41.758763804793034L331.5651109622563,41.08644399103821L332.3195830722983,40.473253538234815L334.3315086990771,40.04267336183818L336.09194362250844,39.594555721575205L337.60088784259256,39.21886222638216L338.60685065598193,41.977834882466766L338.85834135932924,46.222315979410325L339.1098320626766,45.288066130189236L339.36132276602393,44.30681711272524L340.870266986108,43.52584754641623L341.62473909615,45.19016924191783L343.3851740195814,44.27203210981821L343.88815542627606,43.4134944457378L344.6426275363181,42.615363862091556L344.89411823966543,44.58577287512736L345.6485903497075,41.221178013878955L347.15753456979155,45.636810581208294L347.6605159764862,47.26076111245254L348.41498808652824,46.032085177797455L349.16946019657024,44.98000543912252L349.4209508999176,43.99319731723682L349.9239323066123,43.16794209816254L350.1754230099596,42.44040211685501L351.6843672300437,39.28238606394456L354.7022556702118,36.43792098045651L357.46865340703255,39.39815642785379L358.4746162204219,38.90445345284576L360.738032550548,41.199886356873435L361.99548606728473,40.62412739006146L362.24697677063205,40.24320456711507L363.0014488806741,39.67023906379336L363.2529395840214,39.263359530923935L363.75592099071605,38.95501315869484L364.0074116940634,38.51284493642777L364.7618838041055,40.48620540536177L369.0372257610103,42.22280746437417L369.2887164643576,45.56903231842489L369.540207167705,44.615318525587725L370.7976606844417,48.372228381672016L371.55213279448367,47.04746817297922L372.55809560787304,50.53027128417585L372.8095863112204,49.10364616328894L373.06107701456773,47.85781024322392L374.0670398279571,46.697472079771785L374.3185305313045,48.12403934338835L375.07300264134653,46.86209294763091L376.07896545473585,48.30626344250271L376.58194686143054,47.006128348877155L380.1028167082933,50.40718239768108L382.3662330384194,53.21868543907101L382.6177237417668,51.54702562895699L385.38412147858753,52.37175227537017L387.3960471053662,55.39699297574339L387.6475378087136,53.515763375846916L388.4020099187556,51.733713007079416L388.9049913254503,54.54662553638292L389.15648202879765,52.768421690278956L391.1684076555764,51.097496385731176L391.4198983589237,49.62629255348412L391.67138906227103,48.30512698509301L392.6773518756604,47.02507583831931L393.1803332823551,48.44091901026172L393.6833146890498,49.658424816374634L395.6952403158285,48.228579224312796L396.9526938325652,46.986694235915195L397.2041845359126,45.88895914273013L397.95865664595465,42.407330948295396L399.71909156938597,44.249299959650216L402.73698000955414,45.69481305362859L403.9944335262908,44.71206023437685L404.24592422963815,43.85738233839345L404.74890563633284,45.46395920975692L405.0003963396802,47.01650551357267L406.50934055976427,43.47944690562002L408.26977548319564,42.71985330969204L408.52126618654296,42.148606799543074L410.7846825166691,41.59032801326208L411.7906453300584,40.93854128515039L412.2936267367531,40.309448576727675L413.29958955014246,42.25694362870752L415.5630058802685,41.67882032940912L417.32344080369995,45.957553104505166L417.57493150704727,44.85065704984743L418.832385023784,46.34436622486646L420.8443106505627,45.21353141434787L421.3472920572574,44.24032098111684L423.1077269806888,43.46137577652456L423.35921768403614,40.22602001586239L424.3651804974255,39.73227424493723L425.62263401416226,39.36651461216803L426.37710612420426,38.924281401698295L426.88008753089895,46.20841123316086L427.63455964094095,50.60602412289876L428.389031750983,52.28046503782531L429.3949945643724,55.873611698482364L431.4069201911511,56.50391403905735L433.4188458179298,56.80951051835768L433.9218272246245,52.355743962419865L434.4248086313192,48.32466515027238L435.17928074136125,47.226488524844854L435.43077144470857,74.6534744450683L436.93971566479263,70.89180932655393L437.19120636813994,67.5249270927589L439.20313199491875,64.38362871194369L439.9576041049607,66.11771291198636L440.20909480830807,63.11869892866281L440.4605855116554,62.861309968738624L440.71207621500275,60.32474497752804L441.21505762169744,55.52447827242554L441.9695297317395,53.52042148226184L443.7299646551708,51.83181787998694L443.9814553585182,50.293883557167874L445.7418902819496,48.85420243733461L445.99338098529694,47.595152421552086L446.2448716886443,46.489590094093444L448.5082880187703,45.39852961204673L449.51425083215975,44.45673165153494L450.01723223885443,43.63125033763663L450.26872294220175,71.501806548893L450.77170434889644,70.33448607353358L452.0291578656331,67.01098591322602L452.2806485689805,69.09584005256619L452.7836299756752,70.45546620399591L453.0351206790225,67.19445863885153L453.28661138236987,66.33913892923073L454.54406489910656,63.29667756131113L458.06493474596937,64.01677095965454L460.32835107609543,63.57842408231028L461.8372952961795,60.84520814355858L463.59773021961087,58.577990215619536L463.8492209229582,61.88356664327472L466.1126372530843,61.47036668527102L467.8730721765157,62.14953748434942L469.8849978032944,57.14960585246297L470.1364885066418,54.99409427406033L470.8909606166838,53.05118712325378L472.6513955401152,51.33998866110818L473.15437694680986,49.822037925180894L474.16033976019924,52.693351729984954L476.67524679367267,53.179101284441685L476.92673749702,51.50089410697706L477.68120960706204,49.96782759243047L478.93866312379873,50.81356626639945L479.9446259371881,51.34110183122755L483.21400508070354,52.11765997416535L483.71698648739823,50.51979142320101L483.96847719074555,48.984334702731815L485.4774214108296,47.59876097124726L485.728912114177,46.459657128058325L485.9804028175243,45.445659300293585L486.48338422421904,44.491823139731196L486.9863656309137,43.57857377713532L490.0042540710818,45.0132071776851L492.26767040120785,44.13679822445175L493.2736332145972,43.24534042950279L494.53108673133397,42.358763940157246L496.040030951418,46.20891818305279L497.54897517150204,49.21100136480959L497.8004658748494,47.87558914509941L499.3094100949334,46.758782838898696L500.3153729083228,50.28129343101733L500.8183543150175,48.87832790155687L501.32133572171216,49.742093437291715L502.8302799417962,48.27484232828988L503.5847520518382,47.04493114421865L504.0877334585329,43.49227098573351L504.84220556857497,42.794697586771235L505.59667767861697,42.19436261622508L506.35114978865903,41.553127213021355L506.8541311953537,40.95034413220918L508.6145661187851,42.9651658230805L509.1175475254798,42.31454322847122L512.1354359656478,41.752363135970256L512.3869266689952,41.21576030423762L512.6384173723426,40.74786691331917L516.1592872192055,43.002221248740454L517.1652500325947,44.515661910926724L518.1712128459841,43.73174469570148L519.1771756593735,42.92868560357232L519.4286663627208,42.3091903094321L520.1831384727628,41.63031492479246L520.6861198794576,41.087363560716994L521.1891012861522,40.5056327048714L523.201026912931,39.97359511858696L523.7040083196257,39.551717663393674L524.4584804296677,39.25811715345702L525.2129525397097,43.42026240096902L525.9674246497517,42.6542615854471L526.4704060564464,42.02253196992092L527.2248781664885,43.9559945636712L527.9793502765306,43.15311630319155L528.2308409798778,46.81365787020121L532.003201530088,48.43385992204128L533.7636364535193,49.62515269376871L535.0210899702561,45.78574297687629L535.2725806736033,44.80001487954752L535.5240713769508,43.911563884193185L536.0270527836454,43.00599820518369L536.2785434869927,42.2195649854695L536.7815248936874,44.14554713318637L537.2845063003822,47.8791088199028L538.2904691137716,46.70471917377097L539.2964319271609,43.17256316644267L540.5538854438976,42.33469332909448L541.0568668505923,41.61263505606604L542.8173017740236,41.05628385967202L543.3202831807183,43.36052408726755L543.5717738840657,40.15623940278226L544.3262459941077,42.0087756976186L544.8292274008024,43.65808346546089L545.8351902141918,47.009112962792756L546.5896623242337,48.21757239936477L547.0926437309284,46.919647953954666L547.5956251376232,45.774791780617704L547.8471158409706,42.31397819442026L550.3620228744438,44.46210031613657L550.6135135777913,43.59595081218174L551.6194763911807,42.83179790661325L552.3739485012227,39.643301297951325L553.1284206112646,41.8233968326025L553.3799113146121,41.210969899685324L554.1343834246541,40.60729015707892L554.3858741280014,42.4637353051902L554.8888555346961,41.84831316446514L556.1463090514328,43.32564621991867L556.3977997547802,44.66251723901041L558.1582346782116,43.74667942260635L558.4097253815588,42.82759545091517L559.4156881949482,42.10161722521593L559.9186696016429,43.732106787083296L560.4216510083376,45.21945261063246L561.4276138217269,46.66301893588536L563.9425208552004,47.926546868301216L564.4455022618952,46.774087577930175L564.9484836685898,47.96223417284398L565.1999743719371,46.676624275475035L566.2059371853264,45.57714786407058L566.9604092953684,44.477786157802484L568.9723349221472,45.90378277137347L569.9782977355366,44.892286753829524L570.7327698455786,43.91877271255379L573.4991675823993,45.517114587737694L574.5051303957887,44.47192026166948L575.0081118024834,43.460306545961544L575.7625839125255,42.66301190030214L576.2655653192202,41.939887374307716L576.5170560225674,41.2121810005068L577.0200374292622,40.59991964346983L577.5230188359568,40.11443175902531L577.7745095393042,37.1826392447112L578.2774909459988,36.95935701094834L578.7804723526936,36.74687980506144L579.0319630560409,38.94208755907806L580.0379258694303,38.57795985630338L580.2894165727776,38.152088371239074L580.7923979794723,35.41004103569031L581.5468700895143,35.39246582000385L582.804323606251,35.40517042871568L585.822212046419,35.40551419159783L586.8281748598084,35.41349092267512L587.5826469698505,35.40073077697508L590.0975540033239,37.823093105225155L591.606498223408,35.14543251310033L591.8579889267554,32.733383413875856L592.36097033345,32.865605470868786L593.115442443492,33.14572209905691L593.869914553534,30.892009814866185L594.1214052568814,31.307464618034317L594.3728959602287,31.62463911542511L596.8878029937022,32.00086197752148L597.1392936970494,32.29715225347786L597.3907844003969,32.637897636063656L597.8937658070915,37.49604580376928L600.9116542472597,37.25288671303019L601.163144950607,41.17368089862771L601.4146356539543,40.55509868499007L601.6661263573017,40.07025361710333L603.6780519840804,44.01261538983607L605.9414683142065,40.71201189089311L607.1989218309432,42.442858220534845L609.2108474577219,44.13593266818725L609.4623381610693,40.82427081864273L610.2168102711113,44.7937220274888L612.983208007932,48.80052311104083L613.737680117974,52.37817087291114L614.4921522280162,50.696163770240446L614.7436429313634,51.33850430676296L614.9951336347109,49.76871283341808L615.4981150414055,48.245841996981596L617.5100406681842,44.5370189282944L618.0130220748789,43.675535272320985L618.5160034815735,42.869344383006535L619.0189848882683,46.95327546194278L621.5338919217417,45.69711014115046L623.5458175485205,44.758297261040354L623.7973082518678,41.41952909477823L625.0547617686044,40.80838635372544L626.5637059886885,37.81023290417903L628.5756316154673,37.60029480742554L630.0845758355514,34.95198356275972L630.3360665388986,39.3237541813304L630.587557242246,38.83255720816004L630.8390479455933,38.479759899358726L631.342029352288,38.15758440571841L632.5994828690248,40.43817428711594L637.3778062326242,39.904701291352694L637.8807876393189,41.95223387840042L638.8867504527083,38.86040607173044L639.1382411560556,38.568739220470945L641.653148189529,35.79928667864698L642.1561295962238,35.74555312598602L642.9106017062658,33.244502328131944L643.1620924096131,35.95896130307352L643.4135831129605,37.92466383416911L645.9284901464339,35.219023210396585L646.1799808497813,35.11941342947415L646.9344529598233,39.45072194352474L647.4374343665179,36.607674479493426L648.4433971799073,36.53544275863942L648.946378586602,33.9838416796768L649.700850696644,36.50275461521966L650.2038321033386,39.01150315618054L650.7068135100334,38.57650425263262L651.209794916728,35.86836467532646L653.4732112468541,35.79617882691048L654.4791740602435,37.940121514552175L655.4851368736329,37.804296406622484L655.9881182803275,40.2118253602024L656.7425903903696,37.33864773705017L657.4970625004116,37.04672666289059L659.0060067204957,36.976852938214165L659.257497423843,37.02727535600218L660.2634602372324,38.990297844480835L661.0179323472744,41.19520077162099L661.7724044573164,43.463769679429504L662.2753858640111,42.62201787037327L663.5328393807478,44.345230008670285L664.5388021941371,43.54921977572627L665.2932743041791,42.74980295817085L665.5447650075265,39.58395970900767L665.7962557108739,39.11688357046876L666.0477464142213,36.289644378836556L666.8022185242633,36.13759382251294L667.8081813376526,36.089446764152L669.3171255577367,36.021857012825365L669.568616261084,38.49571350949299L670.3230883711261,40.893316220887584L672.3350139979049,42.97428470318039L673.5924675146415,42.17439027922694L674.3469396246835,43.77817928181878L675.1014117347256,43.01432273391822L675.3529024380729,44.836962208665796L675.8558838447675,43.835468301198034L676.6103559548096,47.567658133342604L676.861846658157,46.4730564006876L677.3648280648516,45.37301501582766L678.8737722849357,46.959191553115204L679.6282443949777,45.75671043317408L680.3827165050197,44.64453482897579L680.6342072083671,43.8358316438119L681.6401700217565,40.571998970728714L683.1491142418405,42.55938541160941L686.418493385356,41.84239646405916L687.4244561987454,43.732199968484395L687.92743760544,44.92964895798758L689.1848911221767,43.9836161493763L690.4423446389134,45.53363798534019L692.7057609690395,44.54275727073292L693.7117237824289,41.23464329783798L694.7176865958182,40.63110980343993L695.4721587058602,40.05529641879656L699.2445192560704,37.18489393179277L701.7594262895437,37.0054203061315L702.0109169928911,36.96787527695221L702.2624076962385,34.38879522010956L703.0168798062805,34.48627254043714L704.5258240263646,63.10586891427653L706.0347682464486,60.48299321342574L706.286258949796,58.13847939796074L706.5377496531432,61.47642052888159L706.7892403564907,64.70024281761414L707.040731059838,59.43366320010671L707.2922217631854,54.67809659709684L707.5437124665326,70.33936944345965L709.5556380933114,66.99046160876611L715.3399242703003,63.93800892250482L715.5914149736476,61.29093267919649L715.842905676995,61.37317932558665L717.6033406004263,61.58369354310645L720.3697383372471,59.14012546685808L720.8727197439418,56.864187920885286L721.8786825573312,59.21842759561639L723.89060818411,54.50707022912667L724.1420988874572,55.04376327570509L724.8965709974992,53.12979169976012L725.3995524041939,53.67948298281334L725.6510431075413,49.50388538036992L726.154024514236,45.73025174957655L730.9323478778355,47.26212748909393L732.1898013945722,46.171221094607574L732.9442735046141,47.536182964031696L733.6987456146562,49.11234414081571L735.9621619447823,47.81613988743112L736.2136526481297,46.70886180524013L737.7225968682137,45.68826267860334L738.2255782749083,42.346840645518284L738.4770689782557,41.69670463019196L739.9860131983398,38.70931427161878L740.7404853083818,40.97078531359807L740.9919760117291,40.57193079786538L742.2494295284658,37.67869341875746L742.7524109351606,37.52730178815386L743.2553923418552,37.491609446037444L744.0098644518972,34.902506759699634L744.2613551552447,37.49580794497979L746.2732807820233,34.91425040909627L747.5307342987601,32.59135046209741L748.0337157054548,32.95725248849061L748.2852064088021,33.20752596630649L748.5366971121495,35.48885921109212L751.3030948489702,37.81086422914001L753.8180018824436,37.66552624549024L755.8299275092223,37.55619401535665L760.1052694661271,42.17365205456139L761.3627229828638,41.60761799775605L761.8657043895585,43.249477421029496L762.117195092906,46.76172611056478L762.8716672029478,48.013950880001914L765.3865742364213,49.0466194294641L766.8955184565054,47.828513376228045L767.9014812698948,50.88988779085372L769.1589347866314,49.431239502776805L769.6619161933262,48.17936215580073L770.1648976000208,49.3958510986638L770.6678790067156,48.05161839769369L771.1708604134102,46.897812637969196L772.1768232267996,45.804072972391566L772.4283139301469,44.97280169995071L773.1827860401888,46.13706777642051L773.4342767435363,45.25767275270954L773.6857674468836,44.40747275968624L774.691730260273,43.650243486978184L775.1947116669677,42.973716279389066L775.9491837770097,42.38864110679742L776.2006744803571,39.35688636740639L776.7036558870517,39.104593825652785L777.9611094037884,38.85919152901448L778.4640908104831,38.72349072370349L778.7155815138304,36.01024965460829L778.9670722171778,38.16248255270966L780.4760164372618,38.00811744181976L780.9789978439566,37.96290802392684L781.7334699539986,37.67236991633024L783.9968862841247,39.63565693248523L784.7513583941667,39.27708297583979L785.2543398008613,36.42920211306267L785.7573212075561,40.529301306063246L786.2603026142507,42.40239684734644L786.7632840209454,41.73639739565141L789.0267003510714,59.214179592518974L790.0326631644608,67.3508419394343L790.5356445711556,72.32069327311848L791.2901166811976,86.72463708530915L793.3020423079763,83.80002033213304L794.3080051213657,79.04570114636562L795.313967934755,77.02522034388136L796.8229121548391,73.01791651160772L798.5833470782705,73.90243007683995L799.0863284849652,70.0679302644437L800.3437820017018,66.71723953144738L802.1042169251332,63.6706960756905L802.8586890351753,65.93223137693843L803.1101797385226,65.16667700546395L804.3676332552594,64.77716427043259L804.6191239586067,64.31188493896786L804.8706146619539,59.05005705017663L805.3735960686487,56.70726835101652L806.1280681786908,54.70512115382331L807.3855216954274,52.75767172048245L808.1399938054695,48.59698880067191L808.3914845088168,47.36215540579093L808.8944659155115,46.086270868927784L810.4034101355955,45.07864128671633L812.9183171690689,44.1719007653229L814.6787520925004,47.45078689187801L815.4332242025424,46.258093904736825L815.6847149058898,45.24959122351055L817.4451498293212,46.81152015380195L817.6966405326684,45.6550511873337L817.9481312360158,44.58043748762094L818.199621939363,47.924669928471644L819.4570754560999,46.69176728323697L820.2115475661419,43.13461130007096L826.247324446478,42.32281365661271L827.0017965565202,44.794173533756805L827.5047779632148,43.90282948911431L828.7622314799515,43.065829357014024L829.5167035899935,42.31056411761847L829.7681942933409,41.54561617213051L830.2711757000355,40.903548729417196L830.5226664033829,40.381504176332385L832.2831013268144,45.2240604599956L832.7860827335089,46.58309379884338L833.2890641402037,47.83614700642448L835.5524804703298,46.60140758861809L836.8099339870664,45.43802870362191L837.0614246904138,44.48159144610935L838.5703689104978,43.636624594192654L839.0733503171925,45.006168779567986L839.5763317238872,44.07011224637455L840.0793131305819,43.262263649755766L841.0852759439713,42.560931172157154L841.8397480540133,41.933888041172054L842.8457108674027,38.87755404025614L845.1091271975287,40.88492382763906L845.360617900876,40.359276027717556L845.6121086042234,39.967455784680226L847.1210528243074,37.075289601257055L849.1329784510863,36.96905234716104L850.1389412644756,34.34659889673742L850.6419226711703,31.991081961359157L850.8934133745175,32.273264527499464L851.144904077865,32.446134045710494L852.1508668912544,32.67996785412379L853.408320407991,32.87440004088353L855.1687553314224,33.038455313275165L857.1806809582012,33.15299624898677L858.1866437715905,62.05285731798284L859.1926065849799,59.39419230130903L859.6955879916746,57.079327888606315L861.2045322117585,54.976277387598884L861.9590043218006,55.569356287581854L862.4619857284954,53.53770791673895L862.96496713519,51.69112071170548L863.4679485418848,50.156959081710454L864.2224206519268,48.658112155434424L864.7254020586214,49.848691726027425L865.4798741686634,53.648405795337226L866.4858369820528,51.865591291163355L866.9888183887475,53.213536620084994L868.4977626088315,53.62344656172979L869.7552161255683,49.38649345613669L870.0067068289156,47.891489136010705L871.012669642305,46.71903164669965L872.7731045657364,45.53783963704035L875.5395023025571,44.55482512070512L876.2939744125993,43.57931865648169L876.5454651159465,42.7353521967529L877.2999372259885,46.24102282166393L878.5573907427253,45.20315054618965L880.0663349628094,44.16582096569573L880.3178256661566,40.86078897059372L881.323788479546,42.621723917322925L881.8267698862406,41.893089787565486L883.3357141063248,41.31317915396954L883.587204809672,40.77077871225424L884.0901862163668,45.767529341166835L885.0961490297561,47.16109100222161L886.8565839531875,46.105489640516566L888.3655281732715,45.13403725674863L889.1200002833135,46.49599391391416L890.6289445033976,42.990419218184854L892.6408701301764,44.3955309751658L893.3953422402184,43.54823260185515L893.898323646913,40.34936047294468L894.1498143502605,39.94229107927316L895.4072678669971,39.42189214572386L895.6587585703445,43.66499138510028L896.4132306803865,42.86547985034031L896.9162120870812,47.20172025098941L897.1677027904285,46.04485842306997L897.6706841971231,45.075543617418816L898.92813771386,44.11488465753308L901.4430447473333,43.26952311958257L902.9519889674174,40.104284516445716L903.4549703741121,41.86341956871013L903.7064610774595,38.817141013302376L904.7124238908488,38.491979271189734L904.9639145941961,41.17572574474701L905.9698774075855,38.21500148133151L906.4728588142802,37.842136147578685L907.9818030343642,37.59638742413523L908.2332937377116,37.41835651409133L908.9877658477535,37.28018863099771L909.993728661143,37.09605204322594L913.0116171013111,37.035982704571325L914.2690706180477,36.87953710562374L914.5205613213951,36.81455194487364L915.0235427280899,40.99786588070208L917.2869590582159,45.50628828518495L917.5384497615632,44.556408317046646L919.0473939816472,48.03434520785419L919.2988846849946,46.95654932872429L919.8018660916894,48.33884083800609L922.8197545318574,49.54938814704758L923.8257173452467,48.098383252590054L924.3286987519415,46.92458617618871L924.8316801586361,50.71895680480111L925.5861522686781,49.21185870977888L926.3406243787202,47.836179748075836L928.6040407088462,46.59847159630931L930.1129849289304,45.44187359955822L930.6159663356251,44.31946256083785L933.3823640724457,43.48088589662416L933.6338547757931,45.18745432576014L935.1427989958771,47.2111915136112L936.9032339193085,48.4723365834127L942.9390107996448,44.74046575066984L943.1905015029921,43.91726667133696L943.6934829096867,45.67493276673116L944.4479550197287,47.05666876848636L944.9509364264235,45.943469370566845L950.2322411967176,44.927176277162005L950.9867133067597,44.12693039938796L951.9926761201491,43.28921658993539L952.2441668234965,42.55734171681581L952.4956575268437,41.8952198210838L952.9986389335384,41.26095927676403L954.0046017469277,40.68504475695903L954.7590738569698,40.19553148961148L955.2620552636646,37.2574638311832L955.7650366703592,34.60276745912546L957.5254715937906,34.61535000581415L958.2799437038326,37.22834213973641L958.53143440718,41.3165831455546L959.285906517222,45.30699020367683L960.5433600339586,44.368468324963885L962.5552856607375,41.05572237042321L963.5612484741268,44.50754752075369L964.0642298808215,46.18823302923647L964.5672112875162,45.24552123652478L964.8187019908635,46.691106851757866L966.3276462109476,48.309802246836625L967.333609024337,47.03791359864772L967.8365904310316,45.87906100274449L968.3395718377263,44.9954716444704L969.0940439477683,46.48453468272072L971.3574602778945,45.53924329436899L971.8604416845892,44.52848133011565L972.1119323879365,43.70412651819822L973.1178952013258,43.01139159903914L974.3753487180625,42.17690183670186L974.8783301247572,44.04559519396946L977.3932371582306,43.35707091471403L977.8962185649253,42.64566048429674L978.3991999716201,42.09219677002477L981.6685791151355,41.51624400721994L982.6745419285248,40.89187160850253L983.1775233352196,40.423223236701176L985.6924303686928,42.509156310760034L986.9498838854297,41.826404388064816L988.7103188088611,43.38497034678562L989.464790918903,42.584447577973606L989.9677723255977,42.06430643752765L991.4767165456818,41.38531825030111L993.2371514691131,43.37664533765491L994.9975863925446,45.08173691389703L995.249077095892,44.22958119829474L995.5005677992393,43.367542948878224L996.003549205934,42.642621796174865L996.758021315976,39.53820647362386L997.2610027226707,39.22994411611256L998.7699469427547,38.91928599778811L999.7759097561441,41.0539952973819L1000.0274004594914,40.54349446579198L1001.5363446795754,40.11174757173626L1001.7878353829228,42.25897641992401L1002.0393260862702,43.97370571999272L1003.2967796030068,40.748739497456654L1003.5482703063542,40.29844806147702L1004.5542331197435,43.467309347382525L1007.3206308565643,45.06882768448838L1008.8295750766483,44.13489627472313L1009.8355378900377,43.4134830159457L1010.3385192967324,45.495763137997585L1011.0929914067744,46.955426113681824L1011.5959728134692,45.832322645880254L1013.1049170335532,44.82949866704428L1013.8593891435952,46.166795913917326L1014.8653519569846,47.37115845669882L1015.871314770374,48.43309893899385L1016.3742961770686,47.18315173664985L1017.1287682871107,46.04400255364237L1017.6317496938053,45.00873855943314L1018.6377125071948,44.181262233089L1019.1406939138894,45.624047354675554L1019.6436753205842,44.617330486060155" fill="none"></path></g></g></g></g><g opacity="0.2"><g><g><g><path style="fill: none;" stroke="rgb(204, 51, 17)" stroke-width="2px" d="M15.189806151300107,368.40205848687907L17.704713184773524,357.4536958675843L18.45918529481555,301.3618770432481L19.968129514899605,299.02471575567046L23.991980768457076,365.5363103020363L24.49496217515176,357.758375438269L24.997943581846446,342.541113790145L25.249434285193786,333.17723596323845L25.75241569188847,321.0431201356846L27.261359911972523,325.49257195001314L27.512850615319866,315.27996062969004L28.01583202201455,329.26897380766644L30.279248352140627,307.98478443958254L31.78819257222468,313.5522626385354L32.03968327557202,295.7516171560092L32.29117397891936,332.4737466921344L32.542664682266704,312.8520021740945L33.800118199003414,261.7137456237446L35.81204382578215,315.44572339757127L37.572478749213545,246.25364646803962L39.584404375992285,214.89177865163396L40.3388764860343,11.286533229399936L40.59036718938165,157.0768186197403L42.35080211281304,240.6191705308275L43.60825562954975,223.22769817655862L45.62018125632849,37.424459677664345L46.37465336637052,243.79212404640592L46.62614406971786,268.79449259715363L48.88956039984393,271.5409311680422L49.39254180653862,266.5193035664967L49.64403250988596,284.40689248005583L51.6559581366647,9.679524537947373L52.913411653401404,38.15182323997186L53.667883763443434,38.86769068823287L55.93130009356951,10.413469766420178L56.182790796916855,38.88460611991445L58.44620712704293,66.41578776664352L58.697697830390275,37.614106501285335L59.955151347126986,37.44996139158104L60.458132753821666,95.67083970630557L60.70962345716901,10.256272988847115L61.71558627055838,71.3395421662139L63.72751189733711,110.49861353131178L65.73943752411584,66.06118537680703L65.99092822746319,65.33666980424778L66.24241893081053,68.17531163637852L67.2483817441999,190.99726834839814L70.01477948102067,251.13622707296463L71.52372370110471,228.72260634188203L72.78117721784142,120.196360382688L73.53564932788345,64.04897483723039L76.55353776805156,269.4428838448777L78.0624819881356,268.7011696690847L79.31993550487232,281.8549113943286L80.07440761491435,288.2499275332806L81.08037042830371,35.20798805850171L82.08633324169308,315.66127228109644L82.58931464838776,35.876528426838604L87.36763801198727,58.69002807506314L88.62509152872397,36.01779360061727L88.87658223207131,36.82034734712255L90.13403574880803,61.60331327736009L91.13999856219739,33.97020289125442L91.39148926554473,58.6602234554926L91.89447067223942,61.6469282060753L93.90639629901816,61.8709169037914L94.1578870023655,60.38230032859565L95.66683122244955,88.75797115030508L95.91832192579689,9.720184575584938L96.16981262914423,9.698042561431578L96.92428473918626,35.44061186113436L99.18770106931234,35.865491245997305L101.19962669609107,10.310855271797834L105.22347794964854,59.61137716994517L106.22944076303791,9.93551865202619L107.73838498312196,82.68235950274732L108.74434779651133,60.73605645862125L109.24732920320602,35.28304153919157L112.26521764337413,9.902183949162747L112.51670834672146,75.45179850404696L116.54055960027893,36.134334968536166L119.80993874379438,37.69666240068335L120.06142944714172,152.5803798568346L120.5644108538364,225.55892262607833L122.07335507392045,34.95840488377428L124.33677140404654,62.57688636711043L124.83975281074122,84.4085081874789L125.09124351408856,60.50215024689055L125.84571562413059,86.12334302950791L127.35465984421465,36.0139431184777L129.6180761743407,61.47412520753653L130.37254828438273,77.81605963464568L130.62403898773007,36.58292102006311L132.88745531785614,10.863766747788361L133.13894602120348,36.312314798725765L136.9113065714136,36.04756729915624L137.4142879781083,37.33619477938828L137.91726938480298,81.95471276888776L141.43813923166576,61.79962927925999L142.6955927484025,34.94203789354708L143.19857415509716,11.309484466783204L143.9530462651392,10.986797565490292L145.96497189191794,10.659260232514384L147.47391611200197,36.7355146833487L147.97689751869666,61.39657200555905L148.73136962873872,38.01154916662557L150.24031384882275,34.582885229804276L151.49776736555944,35.11909172021285L154.01267439903287,10.452818660777382L154.51565580572756,61.65438505694743L155.52161861911694,63.96876568138492L157.03056283920097,10.497663463351216L158.03652565259034,67.93624323980146L158.28801635593769,36.81357726863541L159.5454698726744,36.927236470929074L160.0484512793691,10.85584160603048L160.29994198271643,36.736035458616925L160.8029233894111,37.46984198744616L161.30590479610578,34.92752779263566L161.55739549945312,85.49692849810361L162.81484901618984,10.254388891057829L163.06633971953718,78.91976469939334L165.32975604966325,34.27145999197319L166.8387002697473,36.18511869430324L167.341681676442,35.91855010871757L168.5991351931787,36.302665809458915L169.85658870991543,35.452968881796096L170.35957011661012,34.2779664279808L173.3774585567782,57.641479620913174L175.13789348020958,58.07526263544031L175.38938418355693,61.31350184058368L175.89236559025164,36.169358732748094L176.143856293599,34.8035491029172L176.39534699694633,37.0294418721669L176.64683770029367,72.1780749740638L177.14981910698833,35.2678690772359L177.90429121703036,35.24653356546514L178.9102540304197,36.445215019758336L180.16770754715645,35.63674233684492L180.92217965719846,57.82098434618513L181.92814247058783,10.184698632776417L182.6826145806299,35.6940015775881L182.9341052839772,62.43407025948602L183.4370866906719,62.69137555498793L183.68857739401923,36.33065259785877L184.44304950406126,35.58695133893292L184.6945402074086,59.82204704017602L185.4490123174506,10.25478989818572L185.70050302079795,35.72072385853971L186.95795653753467,58.75867927479908L187.209447240882,36.483614058677574L188.9698821643134,36.03690768038439L189.72435427435545,88.30358170938268L190.73031708774482,36.01409609621271L191.48478919778682,37.25010086301171L191.9877706044815,10.25556439882638L192.4907520111762,35.53743863030485L193.49671482456557,36.109345892774115L194.50267763795495,36.11169263632661L195.25714974799695,84.32812652482579L195.5086404513443,85.4884789193764L195.76013115469163,35.267301106709L197.52056607812304,36.53401371268433L199.02951029820707,36.341186905081656L199.5324917049018,36.40094586711234L199.78398240824913,59.19218562746505L200.78994522163848,35.13273440481811L201.79590803502785,34.77586664256472L202.55038014506988,60.044974658283024L202.80187084841722,34.968685313053925L203.05336155176457,36.08872319215175L203.55634295845925,35.21155536908918L204.05932436515394,34.300211669048224L206.32274069528003,9.988908084985042L206.57423139862738,35.174668205870546L207.32870350866938,34.706216205282885L207.58019421201672,63.39842888183398L207.83168491536406,57.90600090872556L208.33466632205875,34.799763717686176L208.5861570254061,35.196923211474314L210.09510124549016,35.87026935908341L211.1010640588795,58.250269164332906L211.35255476222684,9.899165029172707L211.85553616892153,64.36076299032658L212.35851757561622,9.869417191397702L213.11298968565825,34.91861277101248L213.3644803890056,67.01788209302094L213.61597109235294,34.079256487269674L213.86746179570028,34.646660671091354L214.6219339057423,63.73286750425325L215.62789671913166,34.05381173314794L216.88535023586837,35.91491607379885L217.13684093921572,60.11099594291437L217.38833164256306,59.39188015891767L218.8972758626471,9.866141977758843L220.40622008273118,35.1525401392384L221.41218289612053,35.099032107849325L222.16665500616256,36.00814135650495L223.17261781955193,35.49227927743476L224.1785806329413,35.73484663284535L224.68156203963596,58.08978250088802L225.93901555637268,35.441103342793724L226.6934876664147,34.49238099787476L231.9747924367089,60.6905048968772L232.47777384340358,57.62189196113644L232.7292645467509,69.17158076328792L233.7352273601403,35.53635476677783L234.238208766835,10.012183866057228L235.24417158022433,9.948582508143545L235.74715298691902,76.47530417748538L237.75907861369777,62.594986562527254L239.2680228337818,83.31439189735778L240.2739856471712,10.0603287004663L242.03442057060258,10.01430711869989L242.28591127394992,36.30804118668078L242.53740197729726,34.77290310580395L242.78889268064458,35.77594068377772L244.04634619738133,36.19833824900297L244.549327604076,59.298169904243025L245.303799714118,58.96822947820317L245.55529041746536,34.5661715985392L246.05827182416004,36.76035078137568L248.0701974509388,35.724237464177634L248.32168815428614,86.73652335940807L249.07616026432814,37.170441776043276L250.83659518775954,34.988090701486726L251.59106729780157,34.68944561422279L253.85448362792766,61.19563086830806L254.35746503462235,36.5765626795224L254.6089557379697,60.157833168601826L254.860446441317,61.80277020509658L255.61491855135904,37.188509423005826L255.86640925470638,10.733683697186393L256.87237206809573,58.421737676246835L258.1298255848325,36.23410737281762L258.3813162881798,36.590516201865796L259.3872791015692,35.430062907107015L259.6387698049165,63.04592261245216L259.89026050826385,36.80187935417251L260.14175121161117,62.84217905328893L261.14771402500054,35.611238995505516L261.3992047283479,36.472435292060254L262.15367683838997,35.904800014213265L262.4051675417373,34.931252963226314L264.417093168516,36.52059723983626L265.42305598190535,36.40005241204278L265.9260373886001,35.38410611710742L266.4290187952948,10.366218209081296L266.6805094986421,35.18820510799935L268.44094442207347,59.889243324006316L268.6924351254208,37.30764002046152L268.94392582876816,59.20066449980112L269.6983979388102,10.566430820383289L271.7103235655889,63.929964669055494L272.2133049722836,36.84642191383432L273.21926778567297,61.52898562720031L273.47075848902034,60.81612565611334L274.22523059906234,37.105058441115546L274.72821200575703,35.336785546874125L276.4886469291884,37.007702759563244L279.2550446660092,63.67474247462661L279.75802607270384,35.55846330433741L281.2669702927879,35.06190083122368L281.5184609961353,36.301018857673114L282.02144240282996,62.44423188690763L282.52442380952465,34.61704645997821L283.530386622914,34.89164963149926L284.53634943630334,35.300518431709236L285.039330842998,10.016826191060659L286.2967843597348,10.075957349351256L286.54827506308214,10.187094351581209L286.79976576642946,35.3933694071913L288.81169139320815,36.2144676355141L290.32063561329227,83.28941421355472L291.32659842668164,61.32254380117854L291.5780891300289,62.90641993747198L291.8295798333763,65.05867996606042L294.0929961635024,89.51267866904072L294.5959775701971,36.34266785975069L295.3504496802391,10.263946134369235L296.85939390032314,36.66820447992848L297.11088460367046,35.492533155378055L298.8713195271019,36.13981938307978L299.3743009337966,35.81922361825946L304.4041150007434,89.71335290896667L304.6556057040907,91.54673573112007L305.6615685174801,10.048431477577992L305.91305922082745,59.865290916512606L306.16454992417476,35.77809539145011L310.69138258442695,35.55972781178559L311.445854694469,35.7790930015733L311.94883610116364,62.13434456354048L313.70927102459507,35.89714787261556L313.9607617279424,73.33200230374246L315.46970594802644,64.71361427332363L315.9726873547211,34.852487331327495L317.2301408714578,36.41906070933362L317.7331222781525,34.83106393873021L318.2361036848472,62.019842356281345L319.24206649823657,10.563633179025317L321.75697353171,36.64004355729833L323.7688991584887,35.261287779783515L324.02038986183607,35.969050662932545L324.2718805651834,10.684382858652839L324.77486197187807,59.59835453339372L325.5293340819201,35.602138447692994L326.7867875986569,35.943799572113676L327.5412597086988,36.02755488205139L329.0502039287829,36.148664425526306L329.55318533547756,59.047214812168306L330.0561667421723,62.29342187891575L330.3076574455196,35.254892008520414L331.0621295555617,35.795186584784744L331.5651109622563,34.82763170422794L332.3195830722983,34.76489293120932L334.3315086990771,36.03428264754797L336.09194362250844,35.422903874591384L337.60088784259256,35.72142690515187L338.60685065598193,67.66187929941924L338.85834135932924,85.73537196435888L339.1098320626766,36.590874234862724L339.36132276602393,35.17209687798356L340.870266986108,36.255584470364454L341.62473909615,60.68380317014402L343.3851740195814,35.724837983158864L343.88815542627606,35.42112835641126L344.6426275363181,35.18534409886945L344.89411823966543,62.92885884184227L345.6485903497075,9.899227913803486L347.15753456979155,86.74316324407812L347.6605159764862,62.37856863527321L348.41498808652824,34.59399889951311L349.16946019657024,35.18590230486012L349.4209508999176,34.80672583205347L349.9239323066123,35.48541155358481L350.1754230099596,35.66752991973431L351.6843672300437,9.883535592004819L354.7022556702118,9.95800375994446L357.46865340703255,66.95581219073739L358.4746162204219,34.308435036018295L360.738032550548,62.568710195399035L361.99548606728473,35.26422690520366L362.24697677063205,36.6970879782433L363.0014488806741,34.33634370812791L363.2529395840214,35.475604704314776L363.75592099071605,36.084530951242414L364.0074116940634,34.396577877590914L364.7618838041055,58.8567672965724L369.0372257610103,58.38931941579881L369.2887164643576,76.7199709081961L369.540207167705,35.73693136134102L370.7976606844417,83.34634796975524L371.55213279448367,34.714906642571634L372.55809560787304,82.95265488634635L372.8095863112204,35.8227958111151L373.06107701456773,36.25997688426753L374.0670398279571,35.895561135470075L374.3185305313045,61.40435108612843L375.07300264134653,35.11428268609524L376.07896545473585,61.75044856486545L376.58194686143054,34.902808869044065L380.1028167082933,82.0685412231436L382.3662330384194,79.39174983469144L382.6177237417668,35.98507914923539L385.38412147858753,60.049362189917986L387.3960471053662,83.55980073282575L387.6475378087136,36.00287338918213L388.4020099187556,35.14411008958376L388.9049913254503,80.73281124732188L389.15648202879765,36.21462712293999L391.1684076555764,35.542387622775834L391.4198983589237,35.93044656875145L391.67138906227103,36.00602896182312L392.6773518756604,35.108723410106734L393.1803332823551,61.6213971985498L393.6833146890498,60.992525258848445L395.6952403158285,34.91774860955172L396.9526938325652,35.425641199595134L397.2041845359126,35.66983760514171L397.95865664595465,9.995884973299155L399.71909156938597,61.396702199376136L402.73698000955414,59.15149680478828L403.9944335262908,35.56334069020903L404.24592422963815,35.90094790465099L404.74890563633284,60.4200304967797L405.0003963396802,61.46959120785738L406.50934055976427,10.55198378210207L408.26977548319564,35.648585091929306L408.52126618654296,36.83071402980596L410.7846825166691,36.39315539458403L411.7906453300584,34.87087720798729L412.2936267367531,34.45304944574082L413.29958955014246,60.38671715383941L415.5630058802685,36.296909615322136L417.32344080369995,85.78946749534742L417.57493150704727,34.54625357195164L418.832385023784,60.24972070983762L420.8443106505627,34.6862753947774L421.3472920572574,35.180434164543556L423.1077269806888,36.20995804717563L423.35921768403614,10.107192676914622L424.3651804974255,35.13585742900483L425.62263401416226,35.96155638133803L426.37710612420426,34.80740934959306L426.88008753089895,114.01840337553904L427.63455964094095,91.5446265912837L428.389031750983,67.86830159636844L429.3949945643724,89.32321411676361L431.4069201911511,62.37157397245164L433.4188458179298,59.65439320710192L433.9218272246245,10.894391384978576L434.4248086313192,10.798230435125618L435.17928074136125,37.00325664071062L435.43077144470857,329.97892069209666L436.93971566479263,35.87342167687899L437.19120636813994,36.18168320495556L439.20313199491875,35.14040770291109L439.9576041049607,82.26078541341502L440.20909480830807,35.200042980815624L440.4605855116554,60.46520449645425L440.71207621500275,36.71115542017668L441.21505762169744,10.837459357914724L441.9695297317395,34.86409899238657L443.7299646551708,36.1121369227273L443.9814553585182,35.97682486123375L445.7418902819496,35.45181015682425L445.99338098529694,35.87430536741232L446.2448716886443,36.1976026539366L448.5082880187703,35.2415438874263L449.51425083215975,35.68927228718337L450.01723223885443,35.946615013407666L450.26872294220175,330.9565721031664L450.77170434889644,59.46757484415656L452.0291578656331,36.07159782294019L452.2806485689805,88.5043275559081L452.7836299756752,83.1126045002959L453.0351206790225,36.83683151178508L453.28661138236987,58.37672967368911L454.54406489910656,34.973557816657376L458.06493474596937,70.72032084320216L460.32835107609543,59.49773098703321L461.8372952961795,35.400940177653354L463.59773021961087,37.47182744315637L463.8492209229582,92.65609771721893L466.1126372530843,57.62377326179296L467.8730721765157,68.47212750051278L469.8849978032944,10.603850557684837L470.1364885066418,34.92783700295115L470.8909606166838,34.964123647188615L472.6513955401152,35.409965864021046L473.15437694680986,35.691012002063815L474.16033976019924,79.42321117058407L476.67524679367267,57.70107909551797L476.92673749702,35.87799636212594L477.68120960706204,35.696084678661066L478.93866312379873,58.68678299417297L479.9446259371881,56.252077244008206L483.21400508070354,59.34685588213273L483.71698648739823,35.64478831473929L483.96847719074555,34.69034069671511L485.4774214108296,34.700069429694906L485.728912114177,35.855422381670394L485.9804028175243,36.00607127481368L486.48338422421904,35.61229682026914L486.9863656309137,35.07688125729919L490.0042540710818,58.368608834349914L492.26767040120785,35.97806332991854L493.2736332145972,34.94651167858581L494.53108673133397,34.105376621817356L496.040030951418,82.05107572258498L497.54897517150204,77.15822933518473L497.8004658748494,35.44386507913811L499.3094100949334,36.362122070864984L500.3153729083228,83.0733250256888L500.8183543150175,35.81773127163143L501.32133572171216,57.783127239029454L502.8302799417962,34.61579334448902L503.5847520518382,35.59534558528787L504.0877334585329,10.419568685609022L504.84220556857497,36.300792645915976L505.59667767861697,36.60567727186253L506.35114978865903,35.58368835639283L506.8541311953537,35.338868647947095L508.6145661187851,61.72170177005853L509.1175475254798,36.25771639411886L512.1354359656478,36.51887217176022L512.3869266689952,36.220375179963185L512.6384173723426,36.39211709889298L516.1592872192055,63.988633257868344L517.1652500325947,58.604702302207215L518.1712128459841,36.43404113540913L519.1771756593735,35.45278498302946L519.4286663627208,36.542136179446175L520.1831384727628,35.31047500386893L520.6861198794576,36.03287818174641L521.1891012861522,35.090138242721366L523.201026912931,35.020709134928495L523.7040083196257,35.62434300319268L524.4584804296677,36.52490828260369L525.2129525397097,82.16683104533337L525.9674246497517,35.52334677703078L526.4704060564464,36.14158513672368L527.2248781664885,61.95513602920232L527.9793502765306,35.67889909480908L528.2308409798778,80.89065823112588L532.003201530088,63.516771806696454L533.7636364535193,60.715228702736965L535.0210899702561,10.043609220650808L535.2725806736033,35.62359764359002L535.5240713769508,35.64072626764698L536.0270527836454,34.57583523461051L536.2785434869927,34.89843923905897L536.7815248936874,62.07505104440577L537.2845063003822,82.63587380036591L538.2904691137716,35.77199906596627L539.2964319271609,10.29073971677849L540.5538854438976,34.53472979171909L541.0568668505923,34.89079360715209L542.8173017740236,35.87705571179771L543.3202831807183,64.81133775240909L543.5717738840657,10.326661360615503L544.3262459941077,59.2545517206824L544.8292274008024,59.011948561972076L545.8351902141918,78.2047793142429L546.5896623242337,59.46745766972123L547.0926437309284,34.83690801369352L547.5956251376232,35.117006991717176L547.8471158409706,10.096301201263088L550.3620228744438,64.4595670780937L550.6135135777913,35.532723986704525L551.6194763911807,35.71808580632154L552.3739485012227,9.960698848243055L553.1284206112646,62.11851299538597L553.3799113146121,35.50971711180728L554.1343834246541,34.98746739858757L554.3858741280014,59.7458999314228L554.8888555346961,36.119177153384896L556.1463090514328,57.078550849552926L556.3977997547802,57.10782167447354L558.1582346782116,35.22089026577237L558.4097253815588,34.27158693094481L559.4156881949482,35.3432838457681L559.9186696016429,58.910787966116175L560.4216510083376,59.065568885528364L561.4276138217269,60.10157967509548L563.9425208552004,59.6890800948122L564.4455022618952,36.045523256228364L564.9484836685898,59.02302154611306L565.1999743719371,34.70852389069029L566.2059371853264,35.34181591048076L566.9604092953684,34.24352202625471L568.9723349221472,59.17878217399863L569.9782977355366,35.47598877607504L570.7327698455786,34.85605952418308L573.4991675823993,60.39652400310945L574.5051303957887,34.74191534992087L575.0081118024834,34.04291288323725L575.7625839125255,35.24077411648295L576.2655653192202,35.2081198797415L576.5170560225674,34.437759809349814L577.0200374292622,34.90020824754828L577.5230188359568,35.59488990692819L577.7745095393042,9.889766663003627L578.2774909459988,34.88076054612486L578.7804723526936,34.768870352320505L579.0319630560409,59.37788757842907L580.0379258694303,35.188193716040416L580.2894165727776,34.18753217522789L580.7923979794723,9.883559138777173L581.5468700895143,35.22885324510838L582.804323606251,35.523441167548185L585.822212046419,35.4087143759545L586.8281748598084,35.48774853260102L587.5826469698505,35.281943028860155L590.0975540033239,60.37353828470748L591.606498223408,10.21834473280461L591.8579889267554,10.278946954085598L592.36097033345,34.096497403493856L593.115442443492,35.75340576146732L593.869914553534,9.911574839358707L594.1214052568814,35.17504902278546L594.3728959602287,34.57730479732055L596.8878029937022,35.50322532260412L597.1392936970494,35.055400904906946L597.3907844003969,35.8099912492072L597.8937658070915,82.72189936498853L600.9116542472597,34.989251053881276L601.163144950607,77.67344532743778L601.4146356539543,34.796544675559346L601.6661263573017,35.55669592327075L603.6780519840804,80.71315849063654L605.9414683142065,9.985775194548125L607.1989218309432,58.55578848513761L609.2108474577219,59.89723396952837L609.4623381610693,9.995088858450572L610.2168102711113,81.74644822942707L612.983208007932,86.10094969297359L613.737680117974,85.68348972826027L614.4921522280162,35.03789146393501L614.7436429313634,57.318231157070215L614.9951336347109,35.155087055784634L615.4981150414055,34.06901348871247L617.5100406681842,10.01055262907198L618.0130220748789,35.65574412444488L618.5160034815735,35.364288990728085L619.0189848882683,84.97172664008212L621.5338919217417,34.00311751563004L623.5458175485205,36.0186268410464L623.7973082518678,10.338006887204017L625.0547617686044,35.11908846536744L626.5637059886885,9.899587904793293L628.5756316154673,35.64592262837044L630.0845758355514,10.29811702736555L630.3360665388986,80.02178375421005L630.587557242246,34.259867859986684L630.8390479455933,35.195471550414084L631.342029352288,35.158363057706424L632.5994828690248,61.668820296414026L637.3778062326242,34.93845268130974L637.8807876393189,61.01328466297872L638.8867504527083,10.077720407576237L639.1382411560556,35.85353131647764L641.653148189529,10.017682088265417L642.1561295962238,35.245332527502796L642.9106017062658,9.961524282128948L643.1620924096131,61.22861547186034L643.4135831129605,56.22393585045069L645.9284901464339,10.031461527235535L646.1799808497813,34.192118252433886L646.9344529598233,79.77207852277905L647.4374343665179,10.140954273098544L648.4433971799073,35.863017563473136L648.946378586602,10.23027699613823L649.700850696644,59.95201627290197L650.2038321033386,62.366141635434815L650.7068135100334,34.526978377335865L651.209794916728,10.657539538136916L653.4732112468541,35.12418067103721L654.4791740602435,57.898680761361334L655.4851368736329,36.539862669915806L655.9881182803275,62.62418252600304L656.7425903903696,10.591437492653426L657.4970625004116,34.32915212715807L659.0060067204957,36.32637898581379L659.257497423843,37.496671678296934L660.2634602372324,57.264620598050215L661.0179323472744,61.721255856235075L661.7724044573164,64.58250909954381L662.2753858640111,34.785915977819116L663.5328393807478,60.38709146106345L664.5388021941371,36.13893894739192L665.2932743041791,35.30780928546466L665.5447650075265,10.112243688446938L665.7962557108739,34.768741785926125L666.0477464142213,9.970087780446079L666.8022185242633,34.722112870345995L667.8081813376526,35.64123239611081L669.3171255577367,35.39264520408386L669.568616261084,61.525532236202764L670.3230883711261,63.21326723521071L672.3350139979049,62.34659954349405L673.5924675146415,34.72795043561837L674.3469396246835,58.70829752244214L675.1014117347256,35.903369509648314L675.3529024380729,61.80442041172785L675.8558838447675,34.51228275023516L676.6103559548096,82.31165213774045L676.861846658157,36.28310418844558L677.3648280648516,35.132423567079854L678.8737722849357,61.725350451781594L679.6282443949777,34.56247897640276L680.3827165050197,34.29098255484138L680.6342072083671,36.30738859017276L681.6401700217565,10.188072127490102L683.1491142418405,61.06051897980825L686.418493385356,35.1677467770711L687.4244561987454,61.3249068189582L687.92743760544,56.077034911815986L689.1848911221767,35.176733405293646L690.4423446389134,59.96322270570539L692.7057609690395,35.318372886296345L693.7117237824289,10.438489508928967L694.7176865958182,35.01264851022978L695.4721587058602,34.69488934319861L699.2445192560704,10.463518202262662L701.7594262895437,35.33465036827431L702.0109169928911,36.61835814964422L702.2624076962385,10.379421082698286L703.0168798062805,35.39371604822918L704.5258240263646,329.5336578377502L706.0347682464486,36.065913235402775L706.286258949796,36.31274769316752L706.5377496531432,92.55024363425804L706.7892403564907,94.71170185602182L707.040731059838,10.405607585578537L707.2922217631854,10.407203375262782L707.5437124665326,216.13451769362038L709.5556380933114,35.81454640538158L715.3399242703003,35.52187721432068L715.5914149736476,36.64856311520225L715.842905676995,62.138836250229076L717.6033406004263,63.54342899073953L720.3697383372471,36.392270076627995L720.8727197439418,35.676851797035795L721.8786825573312,81.13470003151468L723.89060818411,10.647733095722515L724.1420988874572,60.03998823508965L724.8965709974992,35.31209754431404L725.3995524041939,58.79671214360786L725.6510431075413,10.632085019478893L726.154024514236,10.600445887654814L730.9323478778355,61.522785146662784L732.1898013945722,36.015669813976444L732.9442735046141,60.24299294434104L733.6987456146562,63.78526726077462L735.9621619447823,35.74941369355173L736.2136526481297,36.40090192669908L737.7225968682137,36.187221324448785L738.2255782749083,11.240612852983531L738.4770689782557,35.644407497824375L739.9860131983398,10.898865882014718L740.7404853083818,62.02344872501391L740.9919760117291,36.85888308954969L742.2494295284658,10.744741322525556L742.7524109351606,36.117954958927214L743.2553923418552,37.159339498293434L744.0098644518972,10.799829174513548L744.2613551552447,61.637570525474075L746.2732807820233,10.88181272968609L747.5307342987601,10.966828275087266L748.0337157054548,36.36353630120277L748.2852064088021,35.537391435046175L748.5366971121495,56.72642539708602L751.3030948489702,59.42705527344191L753.8180018824436,36.31253450079208L755.8299275092223,36.5383898523603L760.1052694661271,85.15885421334298L761.3627229828638,36.33824940708422L761.8657043895585,58.534003804698045L762.117195092906,79.45822679768247L762.8716672029478,59.671259816102065L765.3865742364213,58.66001840023074L766.8955184565054,36.48882506620538L767.9014812698948,79.38907435175082L769.1589347866314,35.85227657356569L769.6619161933262,36.5252874720959L770.1648976000208,60.720485278100796L770.6678790067156,35.53778201649732L771.1708604134102,36.156713658266085L772.1768232267996,35.62214598252973L772.4283139301469,37.23426604001173L773.1827860401888,56.975544756340184L773.4342767435363,37.07113969692591L773.6857674468836,36.492724371026384L774.691730260273,36.60098541218025L775.1947116669677,36.67573619224538L775.9491837770097,36.94201346916543L776.2006744803571,11.133437607921223L776.7036558870517,36.75593232870921L777.9611094037884,36.57467324175229L778.4640908104831,37.46021415467459L778.7155815138304,10.751933310351092L778.9670722171778,58.19821767627212L780.4760164372618,36.571089656937716L780.9789978439566,37.542040968696995L781.7334699539986,34.967669801280806L783.9968862841247,57.91244224782463L784.7513583941667,35.93901820418216L785.2543398008613,9.917486452364585L785.7573212075561,78.69826595842852L786.2603026142507,59.83956461826148L786.7632840209454,35.536423118531786L789.0267003510714,221.91971901284327L790.0326631644608,143.09729657102756L790.5356445711556,118.58642269906449L791.2901166811976,220.81495937817746L793.3020423079763,56.573948908235764L794.3080051213657,34.78642047886024L795.313967934755,58.21600215168263L796.8229121548391,35.71280970188519L798.5833470782705,82.13661306039364L799.0863284849652,34.371504175847804L800.3437820017018,35.52472683149159L802.1042169251332,35.309575039108495L802.8586890351753,86.98549299577263L803.1101797385226,58.0399182689539L804.3676332552594,61.15108179895543L804.6191239586067,59.98047013162051L804.8706146619539,10.066236600914124L805.3735960686487,34.8975962340935L806.1280681786908,36.066575596447024L807.3855216954274,34.628322871958346L808.1399938054695,9.864033371920527L808.3914845088168,35.86674761633196L808.8944659155115,34.208706572150106L810.4034101355955,35.69833703169621L812.9183171690689,35.73080085998021L814.6787520925004,77.97485052362339L815.4332242025424,35.154982900731L815.6847149058898,35.861159046734656L817.4451498293212,61.35195132960706L817.6966405326684,34.88915967474799L817.9481312360158,34.57655943771789L818.199621939363,79.05706058917434L819.4570754560999,35.21433337966067L820.2115475661419,10.020056116576882L826.247324446478,34.76556342936715L827.0017965565202,67.80075053438668L827.5047779632148,35.60505967146332L828.7622314799515,35.27396214787433L829.5167035899935,35.279589775616785L829.7681942933409,34.42450282392764L830.2711757000355,34.9263641853957L830.5226664033829,35.52164612029543L832.2831013268144,90.30476483265431L832.7860827335089,59.234713437807784L833.2890641402037,59.501168103803536L835.5524804703298,35.106874657904484L836.8099339870664,34.60781083608049L837.0614246904138,35.5778507911204L838.5703689104978,35.77059297274201L839.0733503171925,57.755636814557135L839.5763317238872,35.35610142705775L840.0793131305819,35.74177619875837L841.0852759439713,36.03203192193553L841.8397480540133,36.09656899705237L842.8457108674027,10.425290093585318L845.1091271975287,59.572087930801786L845.360617900876,35.46587434391216L845.6121086042234,36.319892078878695L847.1210528243074,10.151309563822963L849.1329784510863,35.98006017758769L850.1389412644756,9.933449765473426L850.6419226711703,10.06291915057011L850.8934133745175,34.90018058136212L851.144904077865,34.05542450905676L852.1508668912544,34.856791864404045L853.408320407991,34.68442338772968L855.1687553314224,34.56569150883877L857.1806809582012,34.21928970205437L858.1866437715905,331.08970830049236L859.1926065849799,34.64393962031477L859.6955879916746,35.52961072705409L861.2045322117585,35.39839488852982L861.9590043218006,61.09049285134097L862.4619857284954,34.62452772219109L862.96496713519,34.500726421548336L863.4679485418848,35.87502143340612L864.2224206519268,34.70492891391666L864.7254020586214,60.932128347114144L865.4798741686634,89.0210017189122L866.4858369820528,35.268874824472675L866.9888183887475,65.76193488829375L868.4977626088315,57.43941230714461L869.7552161255683,9.943517638089645L870.0067068289156,33.97407778473473L871.012669642305,35.8042985245562L872.7731045657364,34.541794433717314L875.5395023025571,35.403669365543465L876.2939744125993,34.49805744829865L876.5454651159465,34.87863350463863L877.2999372259885,78.87628647418603L878.5573907427253,35.541308641516935L880.0663349628094,34.50903115965406L880.3178256661566,10.093326170829357L881.323788479546,59.01475749357519L881.8267698862406,35.11003185796818L883.3357141063248,35.914629647401284L883.587204809672,35.7214220228837L884.0901862163668,92.2836717938269L885.0961490297561,60.1341444035877L886.8565839531875,36.27860273722075L888.3655281732715,36.09051661198174L889.1200002833135,59.174827536805424L890.6289445033976,10.35604859711708L892.6408701301764,57.47610743448308L893.3953422402184,35.66049619876759L893.898323646913,10.570169417211389L894.1498143502605,36.15276878560917L895.4072678669971,34.57735362000193L895.6587585703445,83.16518327331573L896.4132306803865,35.42260442881218L896.9162120870812,87.56898913538294L897.1677027904285,35.275309653880925L897.6706841971231,36.051922282336875L898.92813771386,35.171843000040326L901.4430447473333,35.39981725598119L902.9519889674174,10.638197314048114L903.4549703741121,58.23969742638758L903.7064610774595,10.458486007805448L904.7124238908488,35.46495810492462L904.9639145941961,66.15946868930592L905.9698774075855,10.652795194072098L906.4728588142802,34.37102896841549L907.9818030343642,35.30864415331649L908.2332937377116,35.76101721749717L908.9877658477535,35.99394534817725L909.993728661143,35.38187329314485L913.0116171013111,36.4767805107046L914.2690706180477,35.42314147830757L914.5205613213951,36.20958699479701L915.0235427280899,79.9414997369197L917.2869590582159,87.47644737021642L917.5384497615632,35.713711294068275L919.0473939816472,80.41142780990833L919.2988846849946,36.92304748486515L919.8018660916894,61.20697725946491L922.8197545318574,60.818710003381966L923.8257173452467,34.59057480212442L924.3286987519415,35.99738246494758L924.8316801586361,86.04180915157389L925.5861522686781,35.18186304168586L926.3406243787202,35.02960137263375L928.6040407088462,35.0763018948133L930.1129849289304,34.67478090815365L930.6159663356251,33.870625777698535L933.3823640724457,35.674342311211944L933.6338547757931,61.07437485678889L935.1427989958771,66.05072430360627L936.9032339193085,60.21268707857479L942.9390107996448,9.999441400497176L943.1905015029921,36.253877303938225L943.6934829096867,62.03753569601986L944.4479550197287,59.91963381575363L944.9509364264235,35.58038631570764L950.2322411967176,35.4662209849501L950.9867133067597,36.67721877433718L951.9926761201491,35.49070555967103L952.2441668234965,35.74411480519734L952.4956575268437,35.731342791743714L952.9986389335384,35.3564513229411L954.0046017469277,35.32369618599142L954.7590738569698,35.638516227602395L955.2620552636646,9.906174186227759L955.7650366703592,9.889459995536072L957.5254715937906,34.73248443529752L958.2799437038326,61.55341324212628L958.53143440718,79.3751566327071L959.285906517222,82.45480023959834L960.5433600339586,35.63150691797637L962.5552856607375,10.21644817506018L963.5612484741268,76.64154866248981L964.0642298808215,61.83420224738035L964.5672112875162,36.46955475385778L964.8187019908635,60.14846572346431L966.3276462109476,63.37868824432218L967.333609024337,35.197548141796176L967.8365904310316,35.090979620264136L968.3395718377263,36.76989236074348L969.0940439477683,60.3466369872574L971.3574602778945,36.73926263785734L971.8604416845892,35.11901685876808L972.1119323879365,36.02997811447142L973.1178952013258,36.562529413465995L974.3753487180625,34.40840435844814L974.8783301247572,61.44178180853328L977.3932371582306,36.94740674803717L977.8962185649253,36.022942766082L978.3991999716201,36.93984899695681L981.6685791151355,36.15453942152118L982.6745419285248,35.07941515446373L983.1775233352196,36.06044509508621L985.6924303686928,61.92768791772056L986.9498838854297,35.47047669534527L988.7103188088611,57.89409468415545L989.464790918903,35.132158297177625L989.9677723255977,37.222167779561346L991.4767165456818,35.064428218697344L993.2371514691131,61.91446348075266L994.9975863925446,60.95490901025431L995.249077095892,36.29662644377004L995.5005677992393,35.34258893626958L996.003549205934,35.894129003482476L996.758021315976,10.638340120391206L997.2610027226707,36.36024402505387L998.7699469427547,36.02728310245823L999.7759097561441,60.9265983647345L1000.0274004594914,35.791100126351694L1001.5363446795754,36.092495558001076L1001.7878353829228,62.24812744996041L1002.0393260862702,59.93659807011659L1003.2967796030068,10.72663126085854L1003.5482703063542,36.106559745089044L1004.5542331197435,72.96712111204909L1007.3206308565643,59.97780766806159L1008.8295750766483,35.44066882092932L1009.8355378900377,36.697646184233975L1010.3385192967324,64.88028839792435L1011.0929914067744,60.543835052267866L1011.5959728134692,35.37703984768649L1013.1049170335532,35.49393111148868L1013.8593891435952,58.61606822243658L1014.8653519569846,58.582904602385895L1015.871314770374,58.318998480359085L1016.3742961770686,35.5470453065812L1017.1287682871107,35.43934572626341L1017.6317496938053,35.371177871073314L1018.6377125071948,36.47805478268907L1019.1406939138894,59.05533565150745L1019.6436753205842,35.24552293596025" fill="none"></path></g></g></g></g></g></g><g transform="translate(79, 378)" clip-path="url(#clip_1)"><clipPath id="clip_1"><rect width="1032" height="21"></rect></clipPath><g><g><line x1="13.680861931216056" y1="0" x2="13.680861931216056" y2="5" style="visibility: inherit;" fill="rgb(0, 0, 0)" stroke="rgb(204, 204, 204)" stroke-width="1px"></line><line x1="139.42621360488704" y1="0" x2="139.42621360488704" y2="5" style="visibility: inherit;" fill="rgb(0, 0, 0)" stroke="rgb(204, 204, 204)" stroke-width="1px"></line><line x1="265.17156527855803" y1="0" x2="265.17156527855803" y2="5" style="visibility: inherit;" fill="rgb(0, 0, 0)" stroke="rgb(204, 204, 204)" stroke-width="1px"></line><line x1="390.91691695222903" y1="0" x2="390.91691695222903" y2="5" style="visibility: inherit;" fill="rgb(0, 0, 0)" stroke="rgb(204, 204, 204)" stroke-width="1px"></line><line x1="516.6622686259002" y1="0" x2="516.6622686259002" y2="5" style="visibility: inherit;" fill="rgb(0, 0, 0)" stroke="rgb(204, 204, 204)" stroke-width="1px"></line><line x1="642.4076202995711" y1="0" x2="642.4076202995711" y2="5" style="visibility: inherit;" fill="rgb(0, 0, 0)" stroke="rgb(204, 204, 204)" stroke-width="1px"></line><line x1="768.1529719732421" y1="0" x2="768.1529719732421" y2="5" style="visibility: inherit;" fill="rgb(0, 0, 0)" stroke="rgb(204, 204, 204)" stroke-width="1px"></line><line x1="893.898323646913" y1="0" x2="893.898323646913" y2="5" style="visibility: inherit;" fill="rgb(0, 0, 0)" stroke="rgb(204, 204, 204)" stroke-width="1px"></line><line x1="1019.6436753205842" y1="0" x2="1019.6436753205842" y2="5" style="visibility: inherit;" fill="rgb(0, 0, 0)" stroke="rgb(204, 204, 204)" stroke-width="1px"></line></g><g transform="translate(0, 8)"><text style="text-anchor: middle; visibility: hidden; font-family: &quot;Helvetica Neue&quot;, sans-serif; font-size: 12px; font-weight: 200;" x="13.680861931216056" y="0" dx="0em" dy="0.95em" fill="rgb(50, 49, 63)" stroke="none" stroke-width="1px">0</text><text style="text-anchor: middle; visibility: hidden; font-family: &quot;Helvetica Neue&quot;, sans-serif; font-size: 12px; font-weight: 200;" x="139.42621360488704" y="0" dx="0em" dy="0.95em" fill="rgb(50, 49, 63)" stroke="none" stroke-width="1px">500</text><text style="text-anchor: middle; visibility: hidden; font-family: &quot;Helvetica Neue&quot;, sans-serif; font-size: 12px; font-weight: 200;" x="265.17156527855803" y="0" dx="0em" dy="0.95em" fill="rgb(50, 49, 63)" stroke="none" stroke-width="1px">1k</text><text style="text-anchor: middle; visibility: hidden; font-family: &quot;Helvetica Neue&quot;, sans-serif; font-size: 12px; font-weight: 200;" x="390.91691695222903" y="0" dx="0em" dy="0.95em" fill="rgb(50, 49, 63)" stroke="none" stroke-width="1px">1.5k</text><text style="text-anchor: middle; visibility: hidden; font-family: &quot;Helvetica Neue&quot;, sans-serif; font-size: 12px; font-weight: 200;" x="516.6622686259002" y="0" dx="0em" dy="0.95em" fill="rgb(50, 49, 63)" stroke="none" stroke-width="1px">2k</text><text style="text-anchor: middle; visibility: hidden; font-family: &quot;Helvetica Neue&quot;, sans-serif; font-size: 12px; font-weight: 200;" x="642.4076202995711" y="0" dx="0em" dy="0.95em" fill="rgb(50, 49, 63)" stroke="none" stroke-width="1px">2.5k</text><text style="text-anchor: middle; visibility: hidden; font-family: &quot;Helvetica Neue&quot;, sans-serif; font-size: 12px; font-weight: 200;" x="768.1529719732421" y="0" dx="0em" dy="0.95em" fill="rgb(50, 49, 63)" stroke="none" stroke-width="1px">3k</text><text style="text-anchor: middle; visibility: hidden; font-family: &quot;Helvetica Neue&quot;, sans-serif; font-size: 12px; font-weight: 200;" x="893.898323646913" y="0" dx="0em" dy="0.95em" fill="rgb(50, 49, 63)" stroke="none" stroke-width="1px">3.5k</text><text style="text-anchor: middle; visibility: hidden; font-family: &quot;Helvetica Neue&quot;, sans-serif; font-size: 12px; font-weight: 200;" x="1019.6436753205842" y="0" dx="0em" dy="0.95em" fill="rgb(50, 49, 63)" stroke="none" stroke-width="1px">4k</text></g><line x1="0" y1="0" x2="1032.627997970581" y2="0" fill="rgb(0, 0, 0)" stroke="rgb(204, 204, 204)" stroke-width="1px"></line></g></g></g></g></svg>