<svg viewBox="0 0 330 200" xmlns="http://www.w3.org/2000/svg"><g><g><g><g><g><line x1="39.15625" y1="171.39335791379924" x2="34.15625" y2="171.39335791379924" style="visibility: inherit;" fill="rgb(0, 0, 0)" stroke="rgb(204, 204, 204)" stroke-width="1px"></line><line x1="39.15625" y1="159.04656009565943" x2="34.15625" y2="159.04656009565943" style="visibility: inherit;" fill="rgb(0, 0, 0)" stroke="rgb(204, 204, 204)" stroke-width="1px"></line><line x1="39.15625" y1="146.69976227751962" x2="34.15625" y2="146.69976227751962" style="visibility: inherit;" fill="rgb(0, 0, 0)" stroke="rgb(204, 204, 204)" stroke-width="1px"></line><line x1="39.15625" y1="134.35296445937982" x2="34.15625" y2="134.35296445937982" style="visibility: inherit;" fill="rgb(0, 0, 0)" stroke="rgb(204, 204, 204)" stroke-width="1px"></line><line x1="39.15625" y1="122.00616664124" x2="34.15625" y2="122.00616664124" style="visibility: inherit;" fill="rgb(0, 0, 0)" stroke="rgb(204, 204, 204)" stroke-width="1px"></line><line x1="39.15625" y1="109.6593688231002" x2="34.15625" y2="109.6593688231002" style="visibility: inherit;" fill="rgb(0, 0, 0)" stroke="rgb(204, 204, 204)" stroke-width="1px"></line><line x1="39.15625" y1="97.31257100496039" x2="34.15625" y2="97.31257100496039" style="visibility: inherit;" fill="rgb(0, 0, 0)" stroke="rgb(204, 204, 204)" stroke-width="1px"></line><line x1="39.15625" y1="84.96577318682058" x2="34.15625" y2="84.96577318682058" style="visibility: inherit;" fill="rgb(0, 0, 0)" stroke="rgb(204, 204, 204)" stroke-width="1px"></line><line x1="39.15625" y1="72.61897536868078" x2="34.15625" y2="72.61897536868078" style="visibility: inherit;" fill="rgb(0, 0, 0)" stroke="rgb(204, 204, 204)" stroke-width="1px"></line><line x1="39.15625" y1="60.27217755054096" x2="34.15625" y2="60.27217755054096" style="visibility: inherit;" fill="rgb(0, 0, 0)" stroke="rgb(204, 204, 204)" stroke-width="1px"></line><line x1="39.15625" y1="47.925379732401154" x2="34.15625" y2="47.925379732401154" style="visibility: inherit;" fill="rgb(0, 0, 0)" stroke="rgb(204, 204, 204)" stroke-width="1px"></line><line x1="39.15625" y1="35.57858191426135" x2="34.15625" y2="35.57858191426135" style="visibility: inherit;" fill="rgb(0, 0, 0)" stroke="rgb(204, 204, 204)" stroke-width="1px"></line><line x1="39.15625" y1="23.231784096121544" x2="34.15625" y2="23.231784096121544" style="visibility: inherit;" fill="rgb(0, 0, 0)" stroke="rgb(204, 204, 204)" stroke-width="1px"></line><line x1="39.15625" y1="10.884986277981739" x2="34.15625" y2="10.884986277981739" style="visibility: inherit;" fill="rgb(0, 0, 0)" stroke="rgb(204, 204, 204)" stroke-width="1px"></line></g><g transform="translate(29.15625, 0)"><text x="0" y="171.39335791379924" dx="0em" dy="0.3em" style="text-anchor: end; visibility: hidden; font-family: &quot;Helvetica Neue&quot;, sans-serif; font-size: 12px; font-weight: 200;" fill="rgb(50, 49, 63)" stroke="none" stroke-width="1px">-18</text><text x="0" y="159.04656009565943" dx="0em" dy="0.3em" style="text-anchor: end; visibility: inherit; font-family: &quot;Helvetica Neue&quot;, sans-serif; font-size: 12px; font-weight: 200;" fill="rgb(50, 49, 63)" stroke="none" stroke-width="1px">-16</text><text x="0" y="146.69976227751962" dx="0em" dy="0.3em" style="text-anchor: end; visibility: hidden; font-family: &quot;Helvetica Neue&quot;, sans-serif; font-size: 12px; font-weight: 200;" fill="rgb(50, 49, 63)" stroke="none" stroke-width="1px">-14</text><text x="0" y="134.35296445937982" dx="0em" dy="0.3em" style="text-anchor: end; visibility: inherit; font-family: &quot;Helvetica Neue&quot;, sans-serif; font-size: 12px; font-weight: 200;" fill="rgb(50, 49, 63)" stroke="none" stroke-width="1px">-12</text><text x="0" y="122.00616664124" dx="0em" dy="0.3em" style="text-anchor: end; visibility: hidden; font-family: &quot;Helvetica Neue&quot;, sans-serif; font-size: 12px; font-weight: 200;" fill="rgb(50, 49, 63)" stroke="none" stroke-width="1px">-10</text><text x="0" y="109.6593688231002" dx="0em" dy="0.3em" style="text-anchor: end; visibility: inherit; font-family: &quot;Helvetica Neue&quot;, sans-serif; font-size: 12px; font-weight: 200;" fill="rgb(50, 49, 63)" stroke="none" stroke-width="1px">-8</text><text x="0" y="97.31257100496039" dx="0em" dy="0.3em" style="text-anchor: end; visibility: hidden; font-family: &quot;Helvetica Neue&quot;, sans-serif; font-size: 12px; font-weight: 200;" fill="rgb(50, 49, 63)" stroke="none" stroke-width="1px">-6</text><text x="0" y="84.96577318682058" dx="0em" dy="0.3em" style="text-anchor: end; visibility: inherit; font-family: &quot;Helvetica Neue&quot;, sans-serif; font-size: 12px; font-weight: 200;" fill="rgb(50, 49, 63)" stroke="none" stroke-width="1px">-4</text><text x="0" y="72.61897536868078" dx="0em" dy="0.3em" style="text-anchor: end; visibility: hidden; font-family: &quot;Helvetica Neue&quot;, sans-serif; font-size: 12px; font-weight: 200;" fill="rgb(50, 49, 63)" stroke="none" stroke-width="1px">-2</text><text x="0" y="60.27217755054096" dx="0em" dy="0.3em" style="text-anchor: end; visibility: inherit; font-family: &quot;Helvetica Neue&quot;, sans-serif; font-size: 12px; font-weight: 200;" fill="rgb(50, 49, 63)" stroke="none" stroke-width="1px">0</text><text x="0" y="47.925379732401154" dx="0em" dy="0.3em" style="text-anchor: end; visibility: hidden; font-family: &quot;Helvetica Neue&quot;, sans-serif; font-size: 12px; font-weight: 200;" fill="rgb(50, 49, 63)" stroke="none" stroke-width="1px">2</text><text x="0" y="35.57858191426135" dx="0em" dy="0.3em" style="text-anchor: end; visibility: inherit; font-family: &quot;Helvetica Neue&quot;, sans-serif; font-size: 12px; font-weight: 200;" fill="rgb(50, 49, 63)" stroke="none" stroke-width="1px">4</text><text x="0" y="23.231784096121544" dx="0em" dy="0.3em" style="text-anchor: end; visibility: hidden; font-family: &quot;Helvetica Neue&quot;, sans-serif; font-size: 12px; font-weight: 200;" fill="rgb(50, 49, 63)" stroke="none" stroke-width="1px">6</text><text x="0" y="10.884986277981739" dx="0em" dy="0.3em" style="text-anchor: end; visibility: inherit; font-family: &quot;Helvetica Neue&quot;, sans-serif; font-size: 12px; font-weight: 200;" fill="rgb(50, 49, 63)" stroke="none" stroke-width="1px">8</text></g><line x1="39.15625" y1="0" x2="39.15625" y2="177" fill="rgb(0, 0, 0)" stroke="rgb(204, 204, 204)" stroke-width="1px"></line></g></g><g transform="translate(39, 0)" clip-path="url(#clip_0)"><clipPath id="clip_0"><rect width="290" height="177"></rect></clipPath><g><g><g><line x1="27.88829269645572" y1="0" x2="27.88829269645572" y2="177" fill="rgb(0, 0, 0)" stroke="rgb(60, 60, 60)" stroke-width="1px" opacity="0.25"></line><line x1="58.743109464711786" y1="0" x2="58.743109464711786" y2="177" fill="rgb(0, 0, 0)" stroke="rgb(60, 60, 60)" stroke-width="1px" opacity="0.25"></line><line x1="89.59792623296785" y1="0" x2="89.59792623296785" y2="177" fill="rgb(0, 0, 0)" stroke="rgb(60, 60, 60)" stroke-width="1px" opacity="0.25"></line><line x1="120.45274300122391" y1="0" x2="120.45274300122391" y2="177" fill="rgb(0, 0, 0)" stroke="rgb(60, 60, 60)" stroke-width="1px" opacity="0.25"></line><line x1="151.30755976947998" y1="0" x2="151.30755976947998" y2="177" fill="rgb(0, 0, 0)" stroke="rgb(60, 60, 60)" stroke-width="1px" opacity="0.25"></line><line x1="182.162376537736" y1="0" x2="182.162376537736" y2="177" fill="rgb(0, 0, 0)" stroke="rgb(60, 60, 60)" stroke-width="1px" opacity="0.25"></line><line x1="213.0171933059921" y1="0" x2="213.0171933059921" y2="177" fill="rgb(0, 0, 0)" stroke="rgb(60, 60, 60)" stroke-width="1px" opacity="0.25"></line><line x1="243.87201007424812" y1="0" x2="243.87201007424812" y2="177" fill="rgb(0, 0, 0)" stroke="rgb(60, 60, 60)" stroke-width="1px" opacity="0.25"></line><line x1="274.72682684250424" y1="0" x2="274.72682684250424" y2="177" fill="rgb(0, 0, 0)" stroke="rgb(60, 60, 60)" stroke-width="1px" opacity="0.25"></line></g><g><line x1="0" y1="171.39335791379924" x2="290.84375" y2="171.39335791379924" fill="rgb(0, 0, 0)" stroke="rgb(60, 60, 60)" stroke-width="1px" opacity="0.25"></line><line x1="0" y1="159.04656009565943" x2="290.84375" y2="159.04656009565943" fill="rgb(0, 0, 0)" stroke="rgb(60, 60, 60)" stroke-width="1px" opacity="0.25"></line><line x1="0" y1="146.69976227751962" x2="290.84375" y2="146.69976227751962" fill="rgb(0, 0, 0)" stroke="rgb(60, 60, 60)" stroke-width="1px" opacity="0.25"></line><line x1="0" y1="134.35296445937982" x2="290.84375" y2="134.35296445937982" fill="rgb(0, 0, 0)" stroke="rgb(60, 60, 60)" stroke-width="1px" opacity="0.25"></line><line x1="0" y1="122.00616664124" x2="290.84375" y2="122.00616664124" fill="rgb(0, 0, 0)" stroke="rgb(60, 60, 60)" stroke-width="1px" opacity="0.25"></line><line x1="0" y1="109.6593688231002" x2="290.84375" y2="109.6593688231002" fill="rgb(0, 0, 0)" stroke="rgb(60, 60, 60)" stroke-width="1px" opacity="0.25"></line><line x1="0" y1="97.31257100496039" x2="290.84375" y2="97.31257100496039" fill="rgb(0, 0, 0)" stroke="rgb(60, 60, 60)" stroke-width="1px" opacity="0.25"></line><line x1="0" y1="84.96577318682058" x2="290.84375" y2="84.96577318682058" fill="rgb(0, 0, 0)" stroke="rgb(60, 60, 60)" stroke-width="1px" opacity="0.25"></line><line x1="0" y1="72.61897536868078" x2="290.84375" y2="72.61897536868078" fill="rgb(0, 0, 0)" stroke="rgb(60, 60, 60)" stroke-width="1px" opacity="0.25"></line><line x1="0" y1="60.27217755054096" x2="290.84375" y2="60.27217755054096" fill="rgb(0, 0, 0)" stroke="rgb(60, 60, 60)" stroke-width="1px" opacity="0.25"></line><line x1="0" y1="47.925379732401154" x2="290.84375" y2="47.925379732401154" fill="rgb(0, 0, 0)" stroke="rgb(60, 60, 60)" stroke-width="1px" opacity="0.25"></line><line x1="0" y1="35.57858191426135" x2="290.84375" y2="35.57858191426135" fill="rgb(0, 0, 0)" stroke="rgb(60, 60, 60)" stroke-width="1px" opacity="0.25"></line><line x1="0" y1="23.231784096121544" x2="290.84375" y2="23.231784096121544" fill="rgb(0, 0, 0)" stroke="rgb(60, 60, 60)" stroke-width="1px" opacity="0.25"></line><line x1="0" y1="10.884986277981739" x2="290.84375" y2="10.884986277981739" fill="rgb(0, 0, 0)" stroke="rgb(60, 60, 60)" stroke-width="1px" opacity="0.25"></line></g></g></g><g><g><line x1="0" y1="60.27217755054096" x2="290.84375" y2="60.27217755054096" fill="rgb(0, 0, 0)" stroke="rgb(153, 153, 153)" stroke-width="1.5px"></line></g></g><g><g><line x1="27.88829269645572" y1="0" x2="27.88829269645572" y2="177" fill="rgb(0, 0, 0)" stroke="rgb(153, 153, 153)" stroke-width="1.5px"></line></g></g><g><g><g><g><g><path stroke="rgb(238, 51, 119)" stroke-width="2px" d="M28.042566780297,122.00616664124L28.44367939828433,122.00616664124L28.62880829889387,122.00616664124L29.122485367185963,122.00616664124L29.18419500072248,122.00616664124001L29.276759451027242,122.00616664124001L29.523597985173293,122.00616664124L29.616162435478063,122.00616664124L30.078984687001903,122.00616664124L30.171549137306673,106.48873389512485L30.78864547267179,110.40422700880053L31.03548400681784,101.60154058634615L31.158903273890864,93.5289362322711L31.775999609255987,85.67518877113889L32.17711222724331,94.53911080521817L32.67078929553541,101.21389452624118L32.76335374584018,106.25146977823805L33.04104709675448,110.05984817028845L33.3804500812053,112.94264192340805L33.53472416504658,115.12691559263773L33.59643379858309,116.78313824931277L33.62728861535135,118.03966471397023L33.75070788242437,104.00183718169095L34.27523976748473,95.27262129261223L34.76891683577682,101.69540291858712L34.95404573638636,106.57387162264101L35.10831982022764,110.2798656462672L35.57114207175148,99.45833494658129L35.756270972361015,89.75394118567995L35.910545056202295,84.30664786069262L36.12652877358009,93.35635986269467L36.249948040653116,100.23336893197734L36.311657674189625,105.45944995374248L36.89789919278649,109.43101402443757L37.39157626107859,112.44925399559634L37.45328589461511,114.74303047714241L37.70012442876115,116.48625099174656L38.070382229980225,117.81106992840105L38.34807558089453,103.55693063439413L38.594914115040574,107.9848229141593L39.088591183332674,111.34998909682324L39.21201045040569,113.90749694158504L40.87817055589152,100.73859838640755L40.90902537265978,105.84284385662231L41.43355725772013,109.72205812671548L41.5261217080249,112.67025387488899L41.61868615832967,114.91087854423054L42.081508409853505,107.27955409815138L42.174072860158276,100.14629741545832L42.20492767692654,105.39267179119005L42.5134758446091,93.97109733656097L43.038007729669445,100.6995182376401L43.09971736320596,91.7377600215276L43.74766851533934,89.66799777207045L43.840232965644105,97.42916046176865L44.27220040039969,103.3276431930915L44.42647448424097,107.8104895416361L45.07442563637435,111.21745246198422L45.259554536983885,113.80674410554319L45.568102704666444,115.77460565304492L45.75323160527598,117.2701803704603L45.814941238812494,118.40681712179898L45.969215322653774,119.2706610332375L46.00007013942203,119.927182394622L46.462892390945875,120.42613862274226L47.01827909277448,120.80534535234082L47.079988726310994,108.05532390453769L47.45024652753006,96.58736868946073L47.66623024490786,102.68788023432154L47.69708506167611,102.87942175832103L47.75879469521262,107.46984054605656L47.85135914551739,98.95747127202756L47.9130687790539,104.48915817166029L48.28332658027298,93.877082806522L48.591874747955536,89.21962166688415L48.962132549174605,97.08839246761195L49.1164066330159,103.06865827325797L49.918631868990545,99.76109658496998L50.04205113606357,90.13559443698585L50.1654704031366,82.5238896429027L50.19632521990485,91.99963612460508L50.412308937282646,87.20011593323215L50.69000228819695,95.55356810422407L50.813421555269976,101.90219175372593L50.936840822343,106.7271457270863L51.09111490618428,97.65221536232815L51.214534173257306,103.49716366951678L51.49222752417161,96.8272063461879L51.61564679124463,87.90583785898697L51.677356424781145,96.0899167668812L51.739066058317654,102.30981673681599L51.95504977569545,107.03694071392898L52.10932385953673,97.29501329281241L52.171033493073246,91.6690874092699L52.325307576914525,98.94998642497737L52.387017210451035,104.4834696769004L52.51043647752406,108.68891694835347L52.63385574459708,100.18029240173404L52.81898464520662,92.52844522641644L52.849839461974874,84.9351025602226L53.55950024764477,80.79393951435631L53.68291951471779,90.68487402481527L54.70112846807024,98.20198425276119L54.91711218544803,103.91498802599841L55.10224108605757,96.40394498823989L55.534208520813145,102.54847818496133L55.65762778788618,107.21832341446904L55.873611505263966,95.35860210302287L55.93532113880048,87.53050651452826L56.12045003941002,84.09990047204437L56.182159672946526,79.56653957908695L56.61412710770211,74.49140795312042L56.64498192447037,85.8949500382695L56.95353009215293,94.56164202298265L57.0460945424577,101.14832793136453L57.32378789337201,92.96782918728569L57.447207160445025,99.9370301762348L57.57062642751805,92.63988915333339L57.848319778432355,99.68779575043101L57.87917459520061,105.0442047642252L58.06430349581015,109.11507561470877L58.095158312578405,112.20893746107629L58.249432396419685,99.74411508254776L58.619690197638754,89.97452692281522L58.804819098248295,85.06838668073456L58.897383548553066,81.78420474755734L59.17507689946737,76.47315664424795L59.51447988391818,87.40107904352605L60.10072140251505,95.7063000669774L60.50183402050238,86.75762592391739L60.68696292111191,95.21727569607481L60.779527371416684,101.64660952291446L60.84123700495319,106.5329032313126L60.96465627202622,110.24648644969517L61.14978517263576,97.66000600979632L61.30405925647704,103.5030845613428L61.6126074241596,107.94382426051813L61.79773632476913,96.94711378923887L61.95201040861041,102.96128647371914L62.26055857629298,107.53205771392415L62.41483266013426,97.52314060374681L63.556460880559726,89.62004047003893L63.67988014763275,87.46588523469384L63.710734964401006,82.86549577947801L63.74158978116927,78.1839072736215L64.29697648299788,88.70124952184995L64.66723428421695,96.69442963050355L64.6980891009852,102.7692465130803L64.88321800159474,96.4221507400326L65.09920171897254,88.93144978275825L65.90142695494718,96.86938182879388L65.9631365884837,102.90221018378095L66.27168475616627,94.59710274078422L66.61108774061708,101.1752780768936L66.70365219092184,106.17469133233675L66.79621664122661,95.0099264486803L67.41331297659173,86.67286671312688L67.59844187720127,82.41096331222927L67.81442559457906,91.91381211119183L67.9995544951886,99.1359771984034L68.30810266287116,104.62482266468417L68.49323156348069,93.53570309817454L68.58579601378547,100.36861434851025L68.92519899823628,90.44914636494671L69.01776344854105,87.05887462745106L69.11032789884581,95.44622471076042L69.14118271561408,89.671361650377L70.62221392049037,97.43171484818413L70.71477837079513,89.4023953749803L70.8073428210999,97.22730047888264L70.83819763786816,91.32130245243418L71.51700360676979,83.27686617187798L71.88726140798886,81.31161881567924L71.94897104152538,78.04009186850715L72.0723903085984,88.59194981396301L72.19580957567142,96.61136185250949L72.31922884274445,102.70611500180482L73.09059926195086,94.89255522990881L73.12145407871911,101.3998219686283L73.46085706316993,94.04793413383679L73.70769559731598,100.75790993561358L73.83111486438901,92.96743455217701L73.8928244979255,87.78748112985363L74.41735638298587,80.88748511876766L74.8801786345097,90.75596868416103L75.00359790158274,86.84757493924984L75.77496832078913,80.32131798993426L76.26864538908121,90.32568166624763L76.29950020584947,97.9289980602458L76.76232245737333,91.70643100512805L76.88574172444633,93.49638960913661L77.16343507536065,100.33873609684143L77.37941879273845,105.53891942749709L77.4102736095067,109.49105875879539L77.81138622749404,112.4946846505821L78.08907957840835,114.77744032833999L78.24335366224962,114.43807317518007L78.3976277460909,116.25441560703445L78.49019219639565,105.0411020807412L78.64446628023694,109.1127175752609L78.7370307305417,112.20714535109589L79.10728853176077,114.55891046073047L79.35412706590682,100.93744825818317L79.57011078328463,93.84469154641829L79.78609450066241,100.6034455691755L80.06378785157672,94.33165737186087L80.18720711864975,98.30663098519787L80.218061935418,103.99451954264799L80.24891675218625,95.27909642100339L80.31062638572277,92.50757562651522L80.40319083602753,87.88247299715472L80.61917455340533,96.0721594717352L80.89686790431963,92.6658188942673L81.2054160720022,89.03986896801901L81.32883533907521,81.83929987577335L81.39054497261174,91.47934789948536L81.48310942291651,86.06388901386173L81.63738350675779,79.42939352354946L81.72994795706255,87.42539546453003L81.7608027738308,85.7979550305071L81.79165759059907,79.67176843531522L82.37789910919594,89.83202400473716L82.65559246011023,97.55381823749785L82.84072136071977,103.42238185439597L83.05670507809755,100.17808864731506L83.0875598948658,92.9712552004966L83.36525324578011,84.97531498848178L83.58123696315792,82.30611669801385L83.95149476437697,77.16613287864581L84.22918811529128,87.92774098166842L84.35260738236431,86.92054549262065L84.66115555004687,81.56206818558303L84.7845748171199,91.2686518149407L85.06226816803421,86.34824481703424L85.46338078602155,81.71976602039477L85.5559452363263,91.38850216939763L85.74107413693584,85.99484625899503L85.80278377047235,79.37692102985079L86.85184754059306,89.6079399765842L87.03697644120258,87.90117351047235L87.56150832626295,90.01174747662968L87.62321795979945,97.69040807613615L87.68492759333597,103.52619013176107L87.87005649394551,107.96138449403603L87.96262094425026,111.33213220936497L88.02433057778678,99.22590466727267L88.5797172796154,90.17333331130797L89.01168471437099,84.77499488518497L89.0733943479075,93.71047610663817L89.6287810497361,94.13049387818668L89.75220031680914,85.41185165544988L89.99903885095517,85.74927782702765L90.52357073601553,79.19028902155557L90.70869963662506,74.35361911646115L91.44921523906321,72.30752726967494L91.81947304028229,72.23411320429418L91.85032785705054,73.51177264363945L91.9428923073553,70.18610824527035L91.97374712412356,82.62292226030306L92.03545675766007,79.62932874636748L92.09716639119658,89.79976984113688L92.2205856582696,87.7506413424928L92.34400492534263,83.67455685797381L92.4982790091839,77.761662672139L92.55998864272043,74.601317242017L93.02281089424427,70.86600056401184L94.07187466436497,70.39774503890183L94.195293931438,69.74554779815631L94.25700356497451,82.28809632049638L94.41127764881578,78.93037620468795L94.68897099973009,74.74873167974359L94.93580953387615,79.86773025275603L95.05922880094917,89.9809549859922L95.36777696863173,82.85084840148389L95.42948660216824,85.43269252471008L95.49119623570475,94.21032631267725L95.52205105247302,100.8813279915323L95.64547031954602,105.95128926746216L95.7380347698508,100.6184421898239L95.98487330399685,93.75040854360738L96.10829257106988,93.42003466119492L96.54026000582546,89.4649115183642L96.725388906435,82.31049379006117L96.87966299027627,77.16945946860176L96.91051780704453,73.70675811236902L96.97222744058104,85.29861615929804L97.06479189088581,78.99594774114543L97.12650152442232,78.0581208083225L97.18821115795883,88.6056518082227L97.21906597472709,96.62177536814686L97.43504969210488,90.41661871747091L97.52761414240965,82.73746809829244L97.68188822625093,92.16195574859985L98.2681297448478,99.3245663628335L98.57667791253036,104.76815042965106L98.7618068131399,98.97844880399906L98.94693571374943,89.3926205511182L99.07035498082246,82.9963605350815L99.10120979759071,83.46901957149889L99.44061278204153,81.60581683191093L99.47146759880978,76.63390498040759L99.93428985033363,78.33723013166241L100.24283801801619,75.3350716412279L100.52053136893049,79.2762171828667L101.04506325399085,78.41928701655046L101.60044995581946,88.88013812647596L101.63130477258771,96.83038497001932L101.6930144061242,91.31596988398238L102.0015625738068,84.16178287600735L102.1249818408798,78.57643917392087L102.71122335947666,81.73965650771338L103.05062634392749,79.55069303434554L103.29746487807353,74.62752616618154L103.48259377868308,85.99839988019556L103.51344859545134,94.64026390284621L103.57515822898783,89.65147787293081L103.63686786252435,82.60044579555725L103.79114194636564,79.4640850240185L104.56251236557203,75.00618880640937L104.59336718234029,70.8773798008991L104.90191535002285,83.14828864258092L104.96362498355937,86.69587784207178L105.11789906740064,95.17034715387216L105.54986650215623,88.57272540553375L105.73499540276576,96.59675130210326L105.95097912014354,88.32333834084358L106.01268875368007,96.40721713293871L106.47551100520391,90.4017158912325L106.59893027227693,86.57834281662419L106.66063990581344,80.85750945686604L107.06175252380078,79.17658449398587L107.43201032501985,76.12114256573587L107.80226812623893,78.8365003513648L107.83312294300717,73.9365781400518L107.86397775977542,70.36079884651828L108.11081629392147,82.7556871172515L108.29594519453101,77.50780639726644L108.82047707959137,75.29735586303318L109.00560598020091,79.24755319143873L109.03646079696915,81.95338029598736L109.28329933111522,91.56604901884799L109.46842823172474,85.68529721377323L109.65355713233427,78.99350219049565L109.80783121617556,75.68567688511021L110.51749200184545,78.95003073164867L110.57920163538196,81.43093965501788L110.73347571922325,85.68701618305288L110.88774980306452,82.84700960588786L111.28886242105185,92.24520729437239L111.50484613842964,88.57204271957909L111.96766838995349,90.077123071502L112.33792619117257,82.4794514073561L112.43049064147732,91.96586306348823L112.86245807623291,99.17553592214865L112.89331289300117,92.80196138931636L112.95502252653769,99.81097064977804L113.94237666312186,93.2848917823147L113.97323147989013,85.51000194271447L114.00408629665839,81.67534769585797L114.22007001403617,75.94594055688007L114.559472998487,87.00039481712645L115.02229525001084,84.14150058606809L115.1148597003156,93.22902043930934L115.17656933385211,92.57929540436903L116.1022138368998,99.64174450121806L116.50332645488713,95.23054208415448L116.78101980580144,95.1375825885793L117.05871315671574,90.62208615741183L117.24384205732528,89.85721748103853L117.3672613243983,82.4604847456682L117.89179320945864,78.46874514787228L117.95350284299516,76.17583092263578L117.98435765976342,76.95196276038315L118.01521247653167,74.87491469900189L118.35461546098249,71.66658093542218L118.9100021628111,83.74808150481847L119.43453404787147,84.18848894101875L119.6813725820175,83.0415828543542L120.39103336768738,76.9842792773372L120.66872671860169,87.78953224467388L120.7304363521382,96.00152449984975L120.79214598567472,95.8716906570275L120.91556525274775,87.47596908749618L120.94642006951601,80.3544128145251L121.28582305396681,81.16481608559172L121.37838750427159,78.07668322616041L121.62522603841762,75.87786386213475L121.7177904887224,81.1703550089327L121.9954838396367,76.74743872302051L122.45830609116055,72.64521446559995L122.58172535823357,76.1947949952615L122.64343499177008,72.9660131126304L123.10625724329394,69.62316942567804L123.50736986128125,82.19508875741289L124.21703064695114,79.30417528417095L124.67985289847498,77.55156569531115L124.71070771524323,77.10855188600826L124.92669143262104,76.47553817265374L125.08096551646231,79.55032531018176L125.2352396003036,77.14599345513314L125.35865886737662,87.91243501979876L125.42036850091313,88.98317478310037L125.91404556920523,81.79621229523518L126.25344855365604,77.81573656471221L126.46943227103382,83.23578469946018L126.50028708780209,92.54067636548734L126.71627080517989,92.50063820582368L126.80883525548465,87.58087751576723L127.5493508579228,84.13818243298627L127.64191530822757,80.4846032593224L127.85789902560536,76.22626739331669L127.95046347591013,76.10132517649247L127.9813182926784,78.9696005680596L128.0430279262149,74.48221904385512L128.07388274298316,71.07180908545972L128.69097907834828,74.85084547383515L128.84525316218955,71.64828832429544L129.12294651310384,71.88125321494793L129.18465614664038,74.72521478991307L129.863462115542,74.51604054710161L130.11030064968804,74.35706812256493L130.54226808444363,79.42190381029101L130.5731229012119,89.64212688971877L130.72739698505316,84.37127800477718L130.88167106889446,79.47646337399102L131.09765478627224,81.0902205941097L131.99244447255168,90.91004764542097L132.0541541060882,90.22422964444526L132.1158637396247,82.44309083780641L132.36270227377074,78.90001060532376L132.8872341588311,74.4293306721759L133.0415082426724,70.43896761888169L133.720314211574,82.81509538424768L133.81287866187878,81.70148088616861L133.96715274572006,75.96580178151613L134.18313646309787,74.86624022415134L134.30655573017086,77.43828956771176L134.3682653637074,88.13458006535853L134.55339426431692,81.74392661385322L134.58424908108518,84.44327053359098L134.76937798169473,81.16095504320845L134.9853616990725,83.25940427081255L135.17049059968204,92.55862723971514L135.2630550499868,99.62603669608109L135.78758693504716,90.32927207717692L135.84929656858367,84.59718512896106L136.15784473626624,93.57534069190802L136.250409186571,85.13809679886465L136.4663929039488,93.98643356103473L136.9600699722409,100.711169500284L137.02177960577743,97.52492082162138L137.20690850638695,103.40041981832985L137.33032777345997,107.86579905582828L137.39203740699648,97.03597619866116L137.82400484175207,94.87993534490782L138.34853672681243,92.20421320868257L138.71879452803148,99.35668203249637L138.96563306217755,96.79183321114235L139.52101976400616,102.84327323436578L139.58272939754266,93.36701813933622L139.64443903107917,91.94336578730106L139.73700348138394,99.15843799224642L139.8295679316887,96.04852130398379L140.35409981674906,90.86991493031516L140.69350280119988,85.89704317557668L140.72435761796814,94.56323280733587L141.12547023595548,85.74073324160327L142.05111473900314,81.85070348301348L142.11282437253965,76.82001883524553L142.85333997497779,84.25697782828183L142.97675924205083,81.46385723797759L143.03846887558734,78.60027772025796L143.22359777619687,78.79454232657599L143.31616222650163,80.12747630051491L143.37787186003817,90.17836198228892L143.65556521095246,97.81703510043718L143.87154892833024,94.73273224116919L144.27266154631758,92.09233884984124L144.51950008046364,87.86321626516681L144.92061269845095,84.20459845001017L144.9823223319875,78.0163326950223L145.07488678229223,88.57389284211453L145.4451445835113,89.78220629958936L145.56856385058433,90.55236309475043L145.7228379344256,89.06342008432748L145.78454756796214,83.9314608326798L146.0930957356447,77.80874810585121L146.2165150027177,73.30364802052584L146.61762762070504,75.0654269730639L147.11130468899717,71.36688553563292L147.26557877283844,69.44496348829924L147.48156249021622,72.57731137937576L148.2529329094226,84.44023664222318L148.2837877261909,78.19541772110418L148.5306262603369,77.15339477480686L148.83917442801948,79.47285059773897L149.0860129621655,76.34630480458823L149.3019966795433,77.67416934723559L149.42541594661634,73.34952974000343L149.76481893106717,71.09993469276297L149.9499478316767,71.02001980417914L150.13507673228625,83.25669504507376L150.81388270118785,79.96283445365106L151.15328568563868,90.0532341786724L151.30755976947998,97.72193796968863L151.58525312039427,89.17848020820844L151.61610793716252,86.98213800318287L151.95551092161332,83.83130218918667L151.9863657383816,78.32527385193715L152.32576872283244,76.65943899767132L152.4183331731372,74.50443520682111L152.72688134081974,71.38501652136478L152.757736157588,78.64476033155572L152.78859097435625,89.05149784587994L154.17705772892776,83.7742383223175L154.33133181276906,79.91168269355222L154.36218662953732,90.01435884099729L154.6707347972199,89.83982901812284L156.9231364213026,91.48512566244406L157.26253940575336,83.54953337647206L157.29339422252164,77.51848323913333L157.35510385605815,73.08304672182022L157.41681348959466,84.82459550248097L157.50937793989942,80.5617925413343L157.54023275666768,76.13676968265916L157.6019423902042,87.14542495271857L158.3116031758741,95.51200295796372L158.46587725971537,101.87060224195002L158.55844171002013,96.77631218134627L158.8052802441662,90.23774347721816L159.144683228617,97.8621650365834L159.42237657953132,103.656725421701L159.51494102983608,102.57861336573205L159.54579584660434,101.46292463166664L160.00861809812815,100.02235475720833L160.50229516642028,105.29846960937594L160.6874240670298,93.89951321115372L160.81084333410283,100.64511003437441L161.08853668501712,94.21516093289225L161.15024631855366,100.8850023028957L161.42793966946795,92.91586331879165L161.55135893654096,84.78505558236057L161.73648783715052,87.93982071630433L161.8907619209918,96.11574373828888L162.56956788989342,102.32944523499714L162.69298715696647,107.05185837249543L162.97068050788076,102.34384436450206L163.43350275940458,95.06171419636281L163.6494864767824,101.52838278313334L163.8346153773919,94.88644822194902L163.95803464446496,86.1345385216958L163.98888946123319,94.74372927038642L164.57513097983008,87.65584946582717L164.6059857965983,81.6764145102603L164.66769543013484,75.94675133582584L164.85282433074437,74.25911562548048L164.94538878104913,73.56915874556427L165.77846883379203,72.60030686602383L165.9635977344016,76.45698808462323L166.0870170014746,75.68402646531683L166.17958145177937,71.54069798665536L166.42641998592543,68.39176834287264L166.48812961946194,66.8875512918283L167.01266150452227,72.85610171732301L167.04351632129055,84.6521172990631L167.62975783988745,93.61708914118555L167.66061265665567,86.79960296763451L167.75317710696044,87.69293812589615L168.03087045787473,82.88989454427197L168.2777089920208,92.27779984754432L168.3394186255573,99.41260787803128L168.37027344232555,96.53801398870931L168.8330956938494,90.79744471990246L169.14164386153197,98.28753798102346L169.23420831183674,96.72009160111133L169.57361129628757,102.78874961074223L169.6661757465923,92.58477231629392L169.72788538012884,88.08930426715106L169.78959501366535,88.22862610947992L170.1598528148844,96.33523583710233L170.68438469994476,90.05068706473494L171.1472069514686,89.86743846816344L171.33233585207813,82.91273742395951L171.54831956945594,79.99774987988853L171.79515810360198,78.07868238805652L171.91857737067502,73.95328280307822L172.1345610880528,71.26246384657112L172.16541590482106,74.1067734374269L172.19627072158931,73.45337868264353L172.5048188892719,69.69724410683708L173.30704412524653,69.36132852230688L173.4613182090878,69.99500215629446L173.95499527737994,67.21703951179836L174.1092693612212,72.06938203037228L174.29439826183074,84.05421033698053L174.41781752890375,77.90203772911977L174.448672345672,88.48702866802863L174.69551087981804,87.3456041342544L174.78807533012284,80.55165860211225L174.81893014689106,83.53714684466784L174.8806397804276,80.76862408128879L174.97320423073234,78.36822373945878L175.25089758164668,88.84133003588627L175.37431684871967,81.68841028735247L175.49773611579272,91.36467181228548L175.5903005660975,92.94032905104726L175.62115538286574,87.47055790733306L175.8062842834753,80.94294662170296L175.9914131840848,75.68563889257315L176.05312281762133,86.8025655522532L176.1456872679261,95.25142981361003L177.22560585481506,89.37515609602292L177.59586365603414,97.20659862687502L178.18210517463098,88.1941759925294L178.2438148081675,81.04841162733689L178.7374918764596,90.87827283067364L178.83005632676438,83.53280996344179L178.8917659603009,84.17304400209228L178.92262077706914,79.17764392280836L179.508862295666,82.04841068434808L180.24937789810414,85.11916272472644L180.34194234840894,82.11911775927545L180.74305496639624,78.80195249816006L180.98989350054228,82.35553163818395L181.2675868514566,91.87168403891741L181.3601513017614,84.28780248170705L181.42186093529787,78.37589092220175L181.45271575206613,73.73467656095224L181.88468318682172,70.35551522242808L182.13152172096778,74.15829999892185L182.8103276898694,70.52930745925953L182.99545659047894,68.95656575939762L183.0880210407837,66.87231258927203L183.3040047581615,67.80702700552602L183.70511737614885,70.73983356914425L183.76682700968536,83.04375350644723L183.79768182645358,77.28225212497881L184.0136655438314,88.01599160888149L184.56905224565998,96.17363361664754L185.06272931395208,102.37344154254973L185.2787130313299,99.6772168753515L185.43298711517116,90.07184586137153L185.4638419319394,82.62360231472127L185.64897083254897,77.25926037131799L186.05008345053628,87.99851787609929L186.11179308407281,88.4559520238096L186.2969219846823,89.8407327101974L187.099147220657,84.81854147000287L187.25342130449826,80.55719147665094L187.6545339224856,81.46708965457186L187.77795318955862,76.08398759755354L188.33333989138723,80.1417168812032L188.5801784255333,81.15132896203157L189.28983921120317,83.5484113141577L189.38240366150794,78.25843836294061L189.4132584782762,83.72039949863354L189.53667774534924,81.64870414401345L189.56753256211746,84.37090145651275L189.6909518291905,84.66183210430643L190.36975779809214,83.99397009502144L191.07941858376202,80.22684027332699L191.48053120174936,82.25315347417362L191.97420827004146,79.64462751057106L192.31361125449226,81.36618747691973L192.80728832278436,76.7481098337041L192.89985277308915,72.20123978164314L193.23925575753995,69.19010327015314L193.2701105743082,72.23545618106495L193.36267502461297,70.9940466570581L193.88720690967332,83.23695545326177L194.01062617674634,77.72540875660877L194.6277225121115,76.64802617602585L194.689432145648,87.53397988767725L195.12139958040356,88.25106458512862L195.27567366424483,87.16627143125041L195.70764109900045,80.41536574782921L195.73849591576868,76.17364688458186L195.8002055493052,77.39478789551097L195.9544796331465,72.98903826066724L196.81841450265765,70.0851532662624L197.09610785357197,69.80430109261228L197.31209157094975,67.36842986648969L197.4355108380228,80.48148669242977L197.6206397386323,80.52058436371088L197.80576863924185,90.47712411031787L197.96004272308312,98.04409431773918L198.0526071733879,96.8313979885443L198.11431680692442,102.87334246519127L198.57713905844824,96.05677901283283L198.85483240936253,102.28463204365056L199.1016709435086,94.86855122337352L199.62620282856895,89.67681445076705L199.78047691241022,86.91638737672334L199.84218654594676,87.92985570932345L200.2124443471658,80.99568979916474L200.27415398070232,78.83711672670644L200.45928288131188,74.38153132442672L200.82954068253093,73.2177100259593L200.9838147663722,69.66629749274364L201.29236293405478,82.22786608838275L201.60091110173732,77.40298557841601L202.12544298679768,78.773569953629L202.4648459712485,74.62955892893879L202.52655560478502,77.85105821991881L202.64997487185806,88.4482842410359L203.02023267307712,96.50217601708488L203.1127971233819,93.73343933782144L204.3778446108804,87.628836897855L204.47040906118514,95.8793960362674L204.59382832825818,93.70461155644897L205.02579576301375,85.97715054708196L205.36519874746458,83.80831959163835L205.58118246484236,81.86368484721692L205.79716618222017,76.38539994396378L206.1057143499027,87.33438395131007L206.19827880020748,80.24680811102367L206.35255288404878,90.26905415827558L206.50682696789005,97.88596115418704L206.6919558684996,96.71121678424468L207.06221366971866,100.70774328166762L207.09306848648694,105.81936488796498L207.61760037154727,101.25898788373914L207.71016482185206,94.53354631264492L207.92614853922984,101.12697519150773L208.2964063404489,97.24828671038281L208.75922859197274,88.22585893599532L208.82093822550928,81.51697540348627L209.03692194288706,79.52961682765275L209.3454701105696,79.64900183396055L209.59230864471567,83.14745056591212L209.65401827825218,77.5092234661976L209.7157279117887,77.07637179188194L209.87000199562996,72.59888043484482L210.14769534654428,69.04782543851007L210.45624351422686,70.05306285427083L210.48709833099508,82.52180776314343L210.79564649867763,91.99805389388662L210.91906576575067,99.20000095325142L210.94992058251893,91.04261594480457L211.5361621011158,89.88049654792798L211.6904361849571,88.849124373782L211.75214581849357,85.1020500450775L211.8755650855666,93.9590380281565L212.1532584364809,92.98594733937307L212.70864513830952,99.95079997182114L213.32574147367464,105.24408797248167L213.48001555751594,94.30266789519044L213.75770890843023,100.95150759424234L213.94283780903976,96.67044668565703L213.97369262580804,91.78706287119091L214.00454744257627,91.18708408107L214.09711189288106,83.61934493771757L214.18967634318582,79.49764050297196L214.86848231208745,89.69968677615628L215.39301419714778,85.74847747088195L215.42386901391606,94.45032287176788L215.54728828098908,88.46999160193859L215.70156236483035,87.33265596402597L215.91754608220816,80.54181799273864L216.19523943312245,82.3443751084067L216.25694906665896,91.86320507628669L216.5654972343415,99.09751585187549L216.75062613495106,104.59559204132296L216.81233576848757,96.18039617080044L216.99746466909713,93.04440200384118L217.05917430263364,90.80920786947193L217.12088393617015,85.99906741847796L217.4911417373892,81.30622958834985L217.55285137092574,91.0742144810435L217.61456100446225,88.86738070134163L218.32422179013213,89.26444920351355L218.44764105720515,85.86218191972229L218.60191514104642,82.09116608752608L218.6944795913512,91.67076622041742L219.1881566596433,89.46892145578559L219.49670482732586,82.60986449455233L219.5275596440941,76.95249647593867L219.58926927763065,87.765377315611L219.77439817824015,86.05634123732862L219.9595270788497,82.38688877804904L220.17551079622748,79.30178169071228L220.32978488006876,75.03099984912205L220.54576859744654,86.30503987923038L220.7308974980561,87.46523161122879L221.13201011604343,85.53190728371383L221.3479938334212,81.24751110421342L221.9342353520181,76.21343105133204L222.55133168738323,72.09120705909126L222.64389613768796,71.77338680258865L222.767315404761,75.68036740389269L222.79817022152923,73.76034079554935L223.01415393890707,85.33933899851512L223.5386858239674,78.73057394689948L223.87808880841823,89.11671619354121L224.21749179286903,84.12012730820202L224.4334755102468,83.87859766826638L224.61860441085636,81.62077296716994L225.35912001329453,83.46070375401405L226.0687807989644,92.7116148469483L226.80929640140255,88.33386602296817L227.05613493554858,96.4152181713534L227.1795542026216,95.00080568072252L227.58066682060894,86.8140965055044L227.92006980505977,81.62932856451683L228.0434890721328,82.28191384134995L228.29032760627882,91.81573451332356L228.3211824230471,99.0614382240235L228.44460169012012,104.56817304415546L228.72229504103444,97.34485025284563L228.75314985780267,92.74409458630305L229.06169802548524,96.06295253404598L229.0925528422535,93.39962949071187L229.12340765902172,93.00528114847454L229.3702461931678,99.96549366673825L229.49366546024083,105.25525518061868L229.9873425285329,94.01483181028475L230.72785813097107,86.80556426617679L230.8512773980441,80.28938987839872L230.9129870315806,75.63342049573832L230.94384184834885,81.28090162200043L231.03640629865362,83.35056367069446L231.3140996495679,77.81175100185762L231.3449544663362,88.41841075530938L231.62264781725048,81.07066848206314L231.71521226755524,76.52351539761308L232.02376043523782,74.99377953072307L232.1780345190791,71.75691820753029L233.2888079227363,74.92704340255995L233.5665012736506,86.22603297984318L233.62821090718714,81.9232080657915L233.75163017426016,91.54311812389915L233.9367590748697,89.66823212071598L234.02932352517445,86.02089515103162L234.24530724255226,79.24855662281205L234.33787169285705,82.10230433635087L234.49214577669832,91.67923128952425L234.58471022700306,88.5863856066986L234.83154876114912,90.08802366571283L234.95496802822217,83.9693515971331L235.07838729529516,93.09818720771875L235.38693546297773,86.10891436822662L235.417790279746,79.90809753198207L235.78804808096507,76.2326077354977L235.91146734803806,71.80945818700626L236.1274510654159,83.85666821602236L236.2508703324889,81.30778336518016L236.59027331693972,87.8158410100414L236.9605311181588,96.02151916152906L237.4542081864509,86.99719243577665L238.2255786056573,81.17583516742191L238.68840085718114,90.97511472113825L238.9352393913272,92.34794279673577L239.1203682919367,87.61299061400258L239.24378755900975,95.86735286053955L239.36720682608276,89.99141904420915L239.6140453602288,88.6371026059161L239.79917426083836,81.68135901660061L239.8300290776066,79.21006372281553L240.35456096266694,77.48004090868105L240.63225431358126,73.35015370272744L240.81738321419078,70.8040857303045L241.06422174833682,67.98010461511036L241.1567861986416,69.09343359596724L241.28020546571466,81.79248952683272L241.5887536333972,83.88753191088679L241.83559216754324,83.9981483845911L241.928156617848,83.63773190055758L242.3601240526036,86.03072398400607L242.4835433196766,80.14499599202537L242.73038185382268,74.7828732619673L242.82294630412744,71.15214471519951L243.00807520473697,69.13359889978327L243.56346190656558,73.08148216119203L243.6251715401021,84.82340643640354L244.1805582419307,81.30169672020384L244.30397750900374,81.88475185390755L244.3965419593085,83.36500484289506L244.85936421083235,92.63888367449785L244.9519286611371,89.46388285179832L245.07534792821014,82.45787357949655L245.29133164558792,91.94946391431498L245.69244426357525,88.79176240153954L245.8775731641848,96.76321941906765L246.30954059894037,94.22815518836794L246.67979840015943,88.59746738083892L246.89578211753727,96.61555520333519L247.14262065168327,89.67108352312566L247.38945918582934,88.68997047493222L247.4203140025976,96.68585755484608L247.57458808643887,90.31715957022017L247.69800735351188,97.92252126726494L248.09911997149922,90.81253916423205L248.22253923857227,82.89020607284435L248.65450667332783,92.2780366092593L249.02476447454688,99.41278781693468L249.05561929131517,104.83519873476796L249.27160300869295,98.73308229760359L249.518441542839,89.50246515830855L249.70357044344854,84.85778134885166L249.88869934405807,93.77339381902486L250.10468306143585,91.21508021649174L250.1663926949724,84.6777530548941L250.44408604588668,78.82041493384935L250.5057956794232,81.62875522021943L250.53665049619147,81.98515488139961L251.1228920147883,91.59019770376132L251.21545646509307,89.40768938312694L251.49314981600742,88.04530627772911L251.89426243399473,96.19591276497172L252.23366541844553,102.39037369527611L252.32622986875032,93.76362235871645L252.63477803643286,85.13302930065251L253.12845510472496,93.9825822623935L253.46785808917576,87.96634712967192L253.56042253948056,86.80172473258351L254.02324479100437,95.25079079066106L254.33179295868695,90.41180152595439L254.3626477754552,97.99444915362294L254.5169218592965,88.94110396888325L254.54777667606473,82.35688478053204L254.70205075990603,84.61279516873783L254.76376039344254,84.69750989307771L254.88717966051556,88.46593242901794L254.9180344772838,92.95971072702908L254.94888929405207,99.9308601464397L255.4117115455759,93.67233101806185L255.62769526295372,100.47245156762462L255.65855007972195,94.67658658148626L255.781969346795,101.23568579582717L255.8436789803315,91.10812066490756L256.12137233124577,98.52365169922734L256.24479159831884,91.1212368600037L256.33735604862363,98.5336200075004L257.13958128459825,90.68432794686477L257.17043610136653,91.6824598442391L257.4481294522808,86.36641570101672L257.5406939025856,82.02989893388342L257.6641131696586,83.47531662367673L257.75667761996334,79.98082524424716L258.06522578764594,79.54743557976822L258.09608060441417,82.18129091111777L258.12693542118245,79.29368892098664L258.1577902379507,89.54468357384745L258.312064321792,88.2975836484412L258.4971932224015,96.38764356671292L258.6206124894745,90.53500159004305L258.68232212301103,85.04986277702363L259.17599919130316,93.91937570443557L259.3611280919127,92.51131896929635L259.3919829086809,84.47760187674415L259.638821442827,82.66866260218163L259.82395034343654,82.47916127340659L259.97822442727784,77.44580833196976L260.2250629614239,88.1402943261946L260.4410466788016,82.34091577826828L260.74959484648423,76.74809545156279L261.3049815483128,74.57181411177864L261.5518200824589,76.4737178532201L262.2614808681288,72.58534818057713L262.47746458550654,73.63054979309469L262.66259348611607,75.6101955385005L262.75515793642086,79.92979634884269L263.7116572562368,79.95313827006491L263.74251207300506,75.22970769737915L264.23618914129713,71.63990046213802L264.2670439580654,68.61532381130378L264.57559212574796,69.13171553427017L264.66815657605275,71.74659685098979L264.72986620958926,73.14126021512813L265.0692691940401,75.2383354592459L265.25439809464956,77.7210819463836L265.34696254495435,73.68150646740683L265.47038181202737,70.75959067940995L265.9640588803195,76.09517522341409L266.025768513856,72.14949420589907L266.05662333062423,71.96584646668238L266.18004259769725,68.56671962270663L266.27260704800204,81.39218690715462L266.33431668153855,78.8421314871168L266.42688113184334,73.79269623823677L266.7662841162942,79.58562761477023L266.88970338336713,74.80223802332974L267.22910636781796,80.50104080396068L267.32167081812275,78.01669883954727L267.9387671534879,77.01756842482361L268.18560568763394,78.33249113113429L268.4941538553165,82.59138743581296L268.5250086720847,79.75352388889716L268.86441165653554,74.78167761564076L269.5740724422054,86.11555498178457L269.7283465260467,80.80211387651666L270.2528784111071,79.57896850372443L270.77741029616743,82.94606380241288L270.96253919677696,92.32048848373138L271.02424883031347,84.77705543579114L271.61049034891033,86.60028629925456L271.6413451656786,83.39293310843664L271.76476443275163,81.10350646917952L271.88818369982465,78.03008791768714L272.01160296689767,74.80532042863356" style="fill: none;" fill="none"></path></g></g></g></g><g opacity="0.2"><g><g><g><path stroke="rgb(238, 51, 119)" stroke-width="2px" d="M28.042566780297,122.00616664124L28.44367939828433,122.00616664124L28.62880829889387,122.00616664124L29.122485367185963,122.00616664124L29.18419500072248,122.00616664124L29.276759451027242,122.00616664124L29.523597985173293,122.00616664124L29.616162435478063,122.00616664124L30.078984687001903,122.00616664124L30.171549137306673,61.50685735075311L30.78864547267179,122.00616664124L31.03548400681784,75.08833552104993L31.158903273890864,68.91493587605353L31.775999609255987,61.50685735075311L32.17711222724331,122.00616664124L32.67078929553541,122.00616664124L32.76335374584018,122.00616664124L33.04104709675448,122.00616664124L33.3804500812053,122.00616664124L33.53472416504658,122.00616664124L33.59643379858309,122.00616664124L33.62728861535135,122.00616664124L33.75070788242437,59.654837650434885L34.27523976748473,67.68025653579544L34.76891683577682,122.00616664124L34.95404573638636,122.00616664124L35.10831982022764,122.00616664124L35.57114207175148,65.21089675138953L35.756270972361015,59.037497750328825L35.910545056202295,67.06291649770316L36.12652877358009,122.00616664124L36.249948040653116,122.00616664124L36.311657674189625,122.00616664124L36.89789919278649,122.00616664124L37.39157626107859,122.00616664124L37.45328589461511,122.00616664124L37.70012442876115,122.00616664124L38.070382229980225,122.00616664124L38.34807558089453,58.42015780422733L38.594914115040574,122.00616664124L39.088591183332674,122.00616664124L39.21201045040569,122.00616664124L40.87817055589152,59.037497750328825L40.90902537265978,122.00616664124L41.43355725772013,122.00616664124L41.5261217080249,122.00616664124L41.61868615832967,122.00616664124L42.081508409853505,83.11375380847021L42.174072860158276,77.5576942015661L42.20492767692654,122.00616664124L42.5134758446091,57.802817950116676L43.038007729669445,122.00616664124L43.09971736320596,63.35887700507591L43.74766851533934,83.11375380847021L43.840232965644105,122.00616664124L44.27220040039969,122.00616664124L44.42647448424097,122.00616664124L45.07442563637435,122.00616664124L45.259554536983885,122.00616664124L45.568102704666444,122.00616664124L45.75323160527598,122.00616664124L45.814941238812494,122.00616664124L45.969215322653774,122.00616664124L46.00007013942203,122.00616664124L46.462892390945875,122.00616664124L47.01827909277448,122.00616664124L47.079988726310994,67.68025653579544L47.45024652753006,60.27217755054096L47.66623024490786,122.00616664124L47.69708506167611,103.48596991403029L47.75879469521262,122.00616664124L47.85135914551739,72.00163533058848L47.9130687790539,122.00616664124L48.28332658027298,60.27217755054096L48.591874747955536,74.47099474703114L48.962132549174605,122.00616664124L49.1164066330159,122.00616664124L49.918631868990545,89.28715124568711L50.04205113606357,59.654837650434885L50.1654704031366,58.42015780422733L50.19632521990485,122.00616664124L50.412308937282646,72.00163533058848L50.69000228819695,122.00616664124L50.813421555269976,122.00616664124L50.936840822343,122.00616664124L51.09111490618428,68.91493587605353L51.214534173257306,122.00616664124L51.49222752417161,75.70567482321573L51.61564679124463,59.654837650434885L51.677356424781145,122.00616664124L51.739066058317654,122.00616664124L51.95504977569545,122.00616664124L52.10932385953673,66.44557645961088L52.171033493073246,73.85365544486534L52.325307576914525,122.00616664124L52.387017210451035,122.00616664124L52.51043647752406,122.00616664124L52.63385574459708,73.23631467084657L52.81898464520662,68.29759583796124L52.849839461974874,60.889517450647034L53.55950024764477,67.68025653579544L53.68291951471779,122.00616664124L54.70112846807024,122.00616664124L54.91711218544803,122.00616664124L55.10224108605757,72.61897536868078L55.534208520813145,122.00616664124L55.65762778788618,122.00616664124L55.873611505263966,57.802817950116676L55.93532113880048,62.74153715096526L56.12045003941002,73.23631467084657L56.182159672946526,65.21089675138953L56.61412710770211,58.42015780422733L56.64498192447037,122.00616664124L56.95353009215293,122.00616664124L57.0460945424577,122.00616664124L57.32378789337201,67.06291649770316L57.447207160445025,122.00616664124L57.57062642751805,69.53227591414583L57.848319778432355,122.00616664124L57.87917459520061,122.00616664124L58.06430349581015,122.00616664124L58.095158312578405,122.00616664124L58.249432396419685,60.27217755054096L58.619690197638754,59.037497750328825L58.804819098248295,69.53227591414583L58.897383548553066,71.38429529249619L59.17507689946737,59.654837650434885L59.51447988391818,122.00616664124L60.10072140251505,122.00616664124L60.50183402050238,58.42015780422733L60.68696292111191,122.00616664124L60.779527371416684,122.00616664124L60.84123700495319,122.00616664124L60.96465627202622,122.00616664124L61.14978517263576,57.802817950116676L61.30405925647704,122.00616664124L61.6126074241596,122.00616664124L61.79773632476913,62.124197296854575L61.95201040861041,122.00616664124L62.26055857629298,122.00616664124L62.41483266013426,65.82823642151858L63.556460880559726,64.59355671329725L63.67988014763275,80.64439365610104L63.710734964401006,68.29759583796124L63.74158978116927,63.35887700507591L64.29697648299788,122.00616664124L64.66723428421695,122.00616664124L64.6980891009852,122.00616664124L64.88321800159474,76.32301412538152L65.09920171897254,65.21089675138953L65.90142695494718,122.00616664124L65.9631365884837,122.00616664124L66.27168475616627,68.29759583796124L66.61108774061708,122.00616664124L66.70365219092184,122.00616664124L66.79621664122661,59.654837650434885L67.41331297659173,60.27217755054096L67.59844187720127,68.91493587605353L67.81442559457906,122.00616664124L67.9995544951886,122.00616664124L68.30810266287116,122.00616664124L68.49323156348069,58.42015780422733L68.58579601378547,122.00616664124L68.92519899823628,59.037497750328825L69.01776344854105,76.32301412538152L69.11032789884581,122.00616664124L69.14118271561408,71.38429529249619L70.62221392049037,122.00616664124L70.71477837079513,63.976217043168205L70.8073428210999,122.00616664124L70.83819763786816,72.61897536868078L71.51700360676979,57.802817950116676L71.88726140798886,75.08833552104993L71.94897104152538,67.68025653579544L72.0723903085984,122.00616664124L72.19580957567142,122.00616664124L72.31922884274445,122.00616664124L73.09059926195086,70.14961595223811L73.12145407871911,122.00616664124L73.46085706316993,70.76695599033039L73.70769559731598,122.00616664124L73.83111486438901,68.29759583796124L73.8928244979255,71.38429529249619L74.41735638298587,59.037497750328825L74.8801786345097,122.00616664124L75.00359790158274,74.47099474703114L75.77496832078913,59.654837650434885L76.26864538908121,122.00616664124L76.29950020584947,122.00616664124L76.76232245737333,72.00163533058848L76.88574172444633,99.16459185516376L77.16343507536065,122.00616664124L77.37941879273845,122.00616664124L77.4102736095067,122.00616664124L77.81138622749404,122.00616664124L78.08907957840835,122.00616664124L78.24335366224962,113.36341052350693L78.3976277460909,122.00616664124L78.49019219639565,69.53227591414583L78.64446628023694,122.00616664124L78.7370307305417,122.00616664124L79.10728853176077,122.00616664124L79.35412706590682,57.802817950116676L79.57011078328463,71.38429529249619L79.78609450066241,122.00616664124L80.06378785157672,74.47099474703114L80.18720711864975,110.89404742743177L80.218061935418,122.00616664124L80.24891675218625,67.68025653579544L80.31062638572277,83.731093110636L80.40319083602753,73.23631467084657L80.61917455340533,122.00616664124L80.89686790431963,81.87907373228563L81.2054160720022,77.5576942015661L81.32883533907521,59.037497750328825L81.39054497261174,122.00616664124L81.48310942291651,68.91493587605353L81.63738350675779,58.42015780422733L81.72994795706255,112.74606827763515L81.7608027738308,80.64439365610104L81.79165759059907,60.27217755054096L82.37789910919594,122.00616664124L82.65559246011023,122.00616664124L82.84072136071977,122.00616664124L83.05670507809755,89.9044934915589L83.0875598948658,70.14961595223811L83.36525324578011,59.654837650434885L83.58123696315792,73.85365544486534L83.95149476437697,60.889517450647034L84.22918811529128,122.00616664124L84.35260738236431,83.731093110636L84.66115555004687,64.59355671329725L84.7845748171199,122.00616664124L85.06226816803421,70.76695599033039L85.46338078602155,67.06291649770316L85.5559452363263,122.00616664124L85.74107413693584,68.91493587605353L85.80278377047235,58.42015780422733L86.85184754059306,122.00616664124L87.03697644120258,82.49641303445142L87.56150832626295,96.69523170279459L87.62321795979945,122.00616664124L87.68492759333597,122.00616664124L87.87005649394551,122.00616664124L87.96262094425026,122.00616664124L88.02433057778678,60.889517450647034L88.5797172796154,61.50685735075311L89.01168471437099,67.68025653579544L89.0733943479075,122.00616664124L89.6287810497361,95.46055015475702L89.75220031680914,57.802817950116676L89.99903885095517,86.81779403702394L90.52357073601553,58.42015780422733L90.70869963662506,59.037497750328825L91.44921523906321,65.82823642151858L91.81947304028229,72.00163533058848L91.85032785705054,77.5576942015661L91.9428923073553,59.654837650434885L91.97374712412356,122.00616664124L92.03545675766007,70.14961595223811L92.09716639119658,122.00616664124L92.2205856582696,81.26173443011984L92.34400492534263,70.76695599033039L92.4982790091839,59.037497750328825L92.55998864272043,64.59355671329725L93.02281089424427,59.037497750328825L94.07187466436497,68.91493587605353L94.195293931438,67.68025653579544L94.25700356497451,122.00616664124L94.41127764881578,68.29759583796124L94.68897099973009,61.50685735075311L94.93580953387615,96.07789240062881L95.05922880094917,122.00616664124L95.36777696863173,60.27217755054096L95.42948660216824,93.60853224825965L95.49119623570475,122.00616664124L95.52205105247302,122.00616664124L95.64547031954602,122.00616664124L95.7380347698508,83.731093110636L95.98487330399685,72.00163533058848L96.10829257106988,92.37385070022206L96.54026000582546,76.94035489940029L96.725388906435,59.654837650434885L96.87966299027627,60.889517450647034L96.91051780704453,62.74153715096526L96.97222744058104,122.00616664124L97.06479189088581,59.037497750328825L97.12650152442232,75.08833552104993L97.18821115795883,122.00616664124L97.21906597472709,122.00616664124L97.43504969210488,70.76695599033039L97.52761414240965,58.42015780422733L97.68188822625093,122.00616664124L98.2681297448478,122.00616664124L98.57667791253036,122.00616664124L98.7618068131399,80.64439365610104L98.94693571374943,59.037497750328825L99.07035498082246,62.74153715096526L99.10120979759071,84.96577318682058L99.44061278204153,75.70567482321573L99.47146759880978,60.889517450647034L99.93428985033363,83.731093110636L100.24283801801619,65.82823642151858L100.52053136893049,91.75651139805628L101.04506325399085,75.70567482321573L101.60044995581946,122.00616664124L101.63130477258771,122.00616664124L101.6930144061242,73.85365544486534L102.0015625738068,61.50685735075311L102.1249818408798,60.889517450647034L102.71122335947666,91.75651139805628L103.05062634392749,72.61897536868078L103.29746487807353,59.037497750328825L103.48259377868308,122.00616664124L103.51344859545134,122.00616664124L103.57515822898783,73.85365544486534L103.63686786252435,60.27217755054096L103.79114194636564,69.53227591414583L104.56251236557203,60.889517450647034L104.59336718234029,57.802817950116676L104.90191535002285,122.00616664124L104.96362498355937,97.92991030712618L105.11789906740064,122.00616664124L105.54986650215623,67.68025653579544L105.73499540276576,122.00616664124L105.95097912014354,62.124197296854575L106.01268875368007,122.00616664124L106.47551100520391,71.38429529249619L106.59893027227693,74.47099474703114L106.66063990581344,62.74153715096526L107.06175252380078,73.85365544486534L107.43201032501985,66.44557645961088L107.80226812623893,87.43513333918975L107.83312294300717,58.42015780422733L107.86397775977542,59.037497750328825L108.11081629392147,122.00616664124L108.29594519453101,60.889517450647034L108.82047707959137,68.29759583796124L109.00560598020091,91.75651139805628L109.03646079696915,90.5218327937247L109.28329933111522,122.00616664124L109.46842823172474,67.06291649770316L109.65355713233427,57.802817950116676L109.80783121617556,65.21089675138953L110.51749200184545,89.28715124568711L110.57920163538196,89.28715124568711L110.73347571922325,99.16459185516376L110.88774980306452,73.85365544486534L111.28886242105185,122.00616664124L111.50484613842964,76.94035489940029L111.96766838995349,94.84321085259123L112.33792619117257,58.42015780422733L112.43049064147732,122.00616664124L112.86245807623291,122.00616664124L112.89331289300117,72.61897536868078L112.95502252653769,122.00616664124L113.94237666312186,72.61897536868078L113.97323147989013,60.889517450647034L114.00408629665839,69.53227591414583L114.22007001403617,57.802817950116676L114.559472998487,122.00616664124L115.02229525001084,75.08833552104993L115.1148597003156,122.00616664124L115.17656933385211,90.5218327937247L116.1022138368998,122.00616664124L116.50332645488713,81.26173443011984L116.78101980580144,94.84321085259123L117.05871315671574,76.32301412538152L117.24384205732528,87.43513333918975L117.3672613243983,59.037497750328825L117.89179320945864,65.82823642151858L117.95350284299516,68.91493587605353L117.98435765976342,79.40971357991647L118.01521247653167,68.29759583796124L118.35461546098249,61.50685735075311L118.9100021628111,122.00616664124L119.43453404787147,85.58311248898637L119.6813725820175,79.40971357991647L120.39103336768738,57.802817950116676L120.66872671860169,122.00616664124L120.7304363521382,122.00616664124L120.79214598567472,95.46055015475702L120.91556525274775,60.889517450647034L120.94642006951601,57.802817950116676L121.28582305396681,83.731093110636L121.37838750427159,68.29759583796124L121.62522603841762,68.91493587605353L121.7177904887224,97.92991030712618L121.9954838396367,62.74153715096526L122.45830609116055,59.654837650434885L122.58172535823357,87.43513333918975L122.64343499177008,62.74153715096526L123.10625724329394,59.037497750328825L123.50736986128125,122.00616664124L124.21703064695114,70.14961595223811L124.67985289847498,72.00163533058848L124.71070771524323,75.70567482321573L124.92669143262104,74.47099474703114L125.08096551646231,89.28715124568711L125.2352396003036,69.53227591414583L125.35865886737662,122.00616664124L125.42036850091313,92.37385070022206L125.91404556920523,59.037497750328825L126.25344855365604,65.21089675138953L126.46943227103382,100.39927045949534L126.50028708780209,122.00616664124L126.71627080517989,92.37385070022206L126.80883525548465,72.00163533058848L127.5493508579228,73.23631467084657L127.64191530822757,68.91493587605353L127.85789902560536,62.74153715096526L127.95046347591013,75.70567482321573L127.9813182926784,88.05247264135554L128.0430279262149,60.27217755054096L128.07388274298316,60.27217755054096L128.69097907834828,86.81779403702394L128.84525316218955,61.50685735075311L129.12294651310384,72.61897536868078L129.18465614664038,83.731093110636L129.863462115542,73.85365544486534L130.11030064968804,73.85365544486534L130.54226808444363,95.46055015475702L130.5731229012119,122.00616664124L130.72739698505316,67.68025653579544L130.88167106889446,63.976217043168205L131.09765478627224,86.20045179115218L131.99244447255168,122.00616664124L132.0541541060882,88.05247264135554L132.1158637396247,57.802817950116676L132.36270227377074,67.68025653579544L132.8872341588311,60.27217755054096L133.0415082426724,57.802817950116676L133.720314211574,122.00616664124L133.81287866187878,78.1750349755849L133.96715274572006,57.802817950116676L134.18313646309787,71.38429529249619L134.30655573017086,85.58311248898637L134.3682653637074,122.00616664124L134.55339426431692,61.50685735075311L134.58424908108518,92.99119294609386L134.76937798169473,70.76695599033039L134.9853616990725,89.9044934915589L135.17049059968204,122.00616664124L135.2630550499868,122.00616664124L135.78758693504716,60.889517450647034L135.84929656858367,66.44557645961088L136.15784473626624,122.00616664124L136.250409186571,58.42015780422733L136.4663929039488,122.00616664124L136.9600699722409,122.00616664124L137.02177960577743,87.43513333918975L137.20690850638695,122.00616664124L137.33032777345997,122.00616664124L137.39203740699648,62.74153715096526L137.82400484175207,88.05247264135554L138.34853672681243,83.731093110636L138.71879452803148,122.00616664124L138.96563306217755,88.66981194352132L139.52101976400616,122.00616664124L139.58272939754266,63.35887700507591L139.64443903107917,87.43513333918975L139.73700348138394,122.00616664124L139.8295679316887,86.20045179115218L140.35409981674906,74.47099474703114L140.69350280119988,70.14961595223811L140.72435761796814,122.00616664124L141.12547023595548,57.802817950116676L142.05111473900314,69.53227591414583L142.11282437253965,60.889517450647034L142.85333997497779,107.80734797289682L142.97675924205083,72.61897536868078L143.03846887558734,69.53227591414583L143.22359777619687,79.40971357991647L143.31616222650163,84.3484338846548L143.37787186003817,122.00616664124L143.65556521095246,122.00616664124L143.87154892833024,84.96577318682058L144.27266154631758,83.731093110636L144.51950008046364,74.47099474703114L144.92061269845095,72.61897536868078L144.9823223319875,58.42015780422733L145.07488678229223,122.00616664124L145.4451445835113,93.60853224825965L145.56856385058433,92.99119294609386L145.7228379344256,84.3484338846548L145.78454756796214,67.68025653579544L146.0930957356447,58.42015780422733L146.2165150027177,59.037497750328825L146.61762762070504,80.64439365610104L147.11130468899717,59.654837650434885L147.26557877283844,63.35887700507591L147.48156249021622,82.49641303445142L148.2529329094226,122.00616664124L148.2837877261909,58.42015780422733L148.5306262603369,73.85365544486534L148.83917442801948,86.81779403702394L149.0860129621655,66.44557645961088L149.3019966795433,81.87907373228563L149.42541594661634,59.654837650434885L149.76481893106717,63.976217043168205L149.9499478316767,70.76695599033039L150.13507673228625,122.00616664124L150.81388270118785,69.53227591414583L151.15328568563868,122.00616664124L151.30755976947998,122.00616664124L151.58525312039427,62.124197296854575L151.61610793716252,80.02705435393526L151.95551092161332,73.85365544486534L151.9863657383816,60.889517450647034L152.32576872283244,71.38429529249619L152.4183331731372,67.68025653579544L152.72688134081974,61.50685735075311L152.757736157588,101.63394906382692L152.78859097435625,122.00616664124L154.17705772892776,67.06291649770316L154.33133181276906,67.68025653579544L154.36218662953732,122.00616664124L154.6707347972199,89.28715124568711L156.9231364213026,96.69523170279459L157.26253940575336,58.42015780422733L157.29339422252164,58.42015780422733L157.35510385605815,59.037497750328825L157.41681348959466,122.00616664124L157.50937793989942,67.06291649770316L157.54023275666768,62.124197296854575L157.6019423902042,122.00616664124L158.3116031758741,122.00616664124L158.46587725971537,122.00616664124L158.55844171002013,80.64439365610104L158.8052802441662,69.53227591414583L159.144683228617,122.00616664124L159.42237657953132,122.00616664124L159.51494102983608,99.16459185516376L159.54579584660434,97.92991030712618L160.00861809812815,95.46055015475702L160.50229516642028,122.00616664124L160.6874240670298,57.802817950116676L160.81084333410283,122.00616664124L161.08853668501712,73.85365544486534L161.15024631855366,122.00616664124L161.42793966946795,67.68025653579544L161.55135893654096,59.037497750328825L161.73648783715052,97.92991030712618L161.8907619209918,122.00616664124L162.56956788989342,122.00616664124L162.69298715696647,122.00616664124L162.97068050788076,87.43513333918975L163.43350275940458,72.00163533058848L163.6494864767824,122.00616664124L163.8346153773919,73.85365544486534L163.95803464446496,58.42015780422733L163.98888946123319,122.00616664124L164.57513097983008,65.21089675138953L164.6059857965983,62.74153715096526L164.66769543013484,57.802817950116676L164.85282433074437,68.91493587605353L164.94538878104913,71.38429529249619L165.77846883379203,69.53227591414583L165.9635977344016,88.66981194352132L166.0870170014746,73.23631467084657L166.17958145177937,58.42015780422733L166.42641998592543,58.42015780422733L166.48812961946194,62.124197296854575L167.01266150452227,91.75651139805628L167.04351632129055,122.00616664124L167.62975783988745,122.00616664124L167.66061265665567,65.21089675138953L167.75317710696044,90.5218327937247L168.03087045787473,67.68025653579544L168.2777089920208,122.00616664124L168.3394186255573,122.00616664124L168.37027344232555,87.43513333918975L168.8330956938494,72.61897536868078L169.14164386153197,122.00616664124L169.23420831183674,91.75651139805628L169.57361129628757,122.00616664124L169.6661757465923,60.27217755054096L169.72788538012884,73.85365544486534L169.78959501366535,88.66981194352132L170.1598528148844,122.00616664124L170.68438469994476,70.14961595223811L171.1472069514686,89.28715124568711L171.33233585207813,60.889517450647034L171.54831956945594,70.76695599033039L171.79515810360198,72.00163533058848L171.91857737067502,60.889517450647034L172.1345610880528,62.74153715096526L172.16541590482106,83.11375380847021L172.19627072158931,71.38429529249619L172.5048188892719,57.802817950116676L173.30704412524653,68.29759583796124L173.4613182090878,72.00163533058848L173.95499527737994,58.42015780422733L174.1092693612212,87.43513333918975L174.29439826183074,122.00616664124L174.41781752890375,58.42015780422733L174.448672345672,122.00616664124L174.69551087981804,83.731093110636L174.78807533012284,59.037497750328825L174.81893014689106,92.99119294609386L174.8806397804276,72.00163533058848L174.97320423073234,70.76695599033039L175.25089758164668,122.00616664124L175.37431684871967,59.037497750328825L175.49773611579272,122.00616664124L175.5903005660975,97.92991030712618L175.62115538286574,70.14961595223811L175.8062842834753,60.27217755054096L175.9914131840848,59.037497750328825L176.05312281762133,122.00616664124L176.1456872679261,122.00616664124L177.22560585481506,70.76695599033039L177.59586365603414,122.00616664124L178.18210517463098,59.654837650434885L178.2438148081675,58.42015780422733L178.7374918764596,122.00616664124L178.83005632676438,60.27217755054096L178.8917659603009,86.20045179115218L178.92262077706914,63.35887700507591L179.508862295666,91.13917209589047L180.24937789810414,94.84321085259123L180.34194234840894,72.61897536868078L180.74305496639624,68.29759583796124L180.98989350054228,93.60853224825965L181.2675868514566,122.00616664124L181.3601513017614,60.27217755054096L181.42186093529787,59.654837650434885L181.45271575206613,59.037497750328825L181.88468318682172,59.654837650434885L182.13152172096778,86.20045179115218L182.8103276898694,59.037497750328825L182.99545659047894,63.976217043168205L183.0880210407837,60.27217755054096L183.3040047581615,70.76695599033039L183.70511737614885,80.02705435393526L183.76682700968536,122.00616664124L183.79768182645358,59.037497750328825L184.0136655438314,122.00616664124L184.56905224565998,122.00616664124L185.06272931395208,122.00616664124L185.2787130313299,91.13917209589047L185.43298711517116,59.654837650434885L185.4638419319394,59.037497750328825L185.64897083254897,60.27217755054096L186.05008345053628,122.00616664124L186.11179308407281,89.9044934915589L186.2969219846823,94.22587155042542L187.099147220657,68.91493587605353L187.25342130449826,67.06291649770316L187.6545339224856,84.3484338846548L187.77795318955862,59.037497750328825L188.33333989138723,92.99119294609386L188.5801784255333,84.3484338846548L189.28983921120317,91.13917209589047L189.38240366150794,61.50685735075311L189.4132584782762,101.01660976166113L189.53667774534924,75.08833552104993L189.56753256211746,92.99119294609386L189.6909518291905,85.58311248898637L190.36975779809214,81.87907373228563L191.07941858376202,68.29759583796124L191.48053120174936,88.66981194352132L191.97420827004146,71.38429529249619L192.31361125449226,86.81779403702394L192.80728832278436,62.124197296854575L192.89985277308915,57.802817950116676L193.23925575753995,59.654837650434885L193.2701105743082,81.87907373228563L193.36267502461297,67.06291649770316L193.88720690967332,122.00616664124L194.01062617674634,60.27217755054096L194.6277225121115,73.23631467084657L194.689432145648,122.00616664124L195.12139958040356,90.5218327937247L195.27567366424483,83.731093110636L195.70764109900045,59.037497750328825L195.73849591576868,62.74153715096526L195.8002055493052,81.26173443011984L195.9544796331465,59.037497750328825L196.81841450265765,60.889517450647034L197.09610785357197,68.91493587605353L197.31209157094975,59.654837650434885L197.4355108380228,122.00616664124L197.6206397386323,80.64439365610104L197.80576863924185,122.00616664124L197.96004272308312,122.00616664124L198.0526071733879,92.99119294609386L198.11431680692442,122.00616664124L198.57713905844824,74.47099474703114L198.85483240936253,122.00616664124L199.1016709435086,71.38429529249619L199.62620282856895,73.23631467084657L199.78047691241022,78.1750349755849L199.84218654594676,91.13917209589047L200.2124443471658,59.037497750328825L200.27415398070232,72.00163533058848L200.45928288131188,60.27217755054096L200.82954068253093,69.53227591414583L200.9838147663722,58.42015780422733L201.29236293405478,122.00616664124L201.60091110173732,62.124197296854575L202.12544298679768,83.11375380847021L202.4648459712485,61.50685735075311L202.52655560478502,88.05247264135554L202.64997487185806,122.00616664124L203.02023267307712,122.00616664124L203.1127971233819,84.96577318682058L204.3778446108804,68.29759583796124L204.47040906118514,122.00616664124L204.59382832825818,86.81779403702394L205.02579576301375,61.50685735075311L205.36519874746458,76.94035489940029L205.58118246484236,75.70567482321573L205.79716618222017,59.037497750328825L206.1057143499027,122.00616664124L206.19827880020748,57.802817950116676L206.35255288404878,122.00616664124L206.50682696789005,122.00616664124L206.6919558684996,92.99119294609386L207.06221366971866,113.36341052350693L207.09306848648694,122.00616664124L207.61760037154727,86.81779403702394L207.71016482185206,73.23631467084657L207.92614853922984,122.00616664124L208.2964063404489,84.96577318682058L208.75922859197274,59.654837650434885L208.82093822550928,60.27217755054096L209.03692194288706,73.23631467084657L209.3454701105696,80.02705435393526L209.59230864471567,94.22587155042542L209.65401827825218,59.654837650434885L209.7157279117887,75.70567482321573L209.87000199562996,58.42015780422733L210.14769534654428,57.802817950116676L210.45624351422686,73.23631467084657L210.48709833099508,122.00616664124L210.79564649867763,122.00616664124L210.91906576575067,122.00616664124L210.94992058251893,65.21089675138953L211.5361621011158,86.20045179115218L211.6904361849571,85.58311248898637L211.75214581849357,73.23631467084657L211.8755650855666,122.00616664124L212.1532584364809,89.9044934915589L212.70864513830952,122.00616664124L213.32574147367464,122.00616664124L213.48001555751594,59.654837650434885L213.75770890843023,122.00616664124L213.94283780903976,83.11375380847021L213.97369262580804,76.32301412538152L214.00454744257627,89.28715124568711L214.09711189288106,59.654837650434885L214.18967634318582,66.44557645961088L214.86848231208745,122.00616664124L215.39301419714778,73.23631467084657L215.42386901391606,122.00616664124L215.54728828098908,69.53227591414583L215.70156236483035,83.731093110636L215.91754608220816,59.037497750328825L216.19523943312245,88.05247264135554L216.25694906665896,122.00616664124L216.5654972343415,122.00616664124L216.75062613495106,122.00616664124L216.81233576848757,69.53227591414583L216.99746466909713,83.11375380847021L217.05917430263364,83.731093110636L217.12088393617015,70.76695599033039L217.4911417373892,66.44557645961088L217.55285137092574,122.00616664124L217.61456100446225,81.87907373228563L218.32422179013213,90.5218327937247L218.44764105720515,75.08833552104993L218.60191514104642,70.14961595223811L218.6944795913512,122.00616664124L219.1881566596433,82.49641303445142L219.49670482732586,60.889517450647034L219.5275596440941,59.037497750328825L219.58926927763065,122.00616664124L219.77439817824015,80.64439365610104L219.9595270788497,70.76695599033039L220.17551079622748,69.53227591414583L220.32978488006876,61.50685735075311L220.54576859744654,122.00616664124L220.7308974980561,91.13917209589047L221.13201011604343,79.40971357991647L221.3479938334212,67.68025653579544L221.9342353520181,60.27217755054096L222.55133168738323,59.037497750328825L222.64389613768796,70.76695599033039L222.767315404761,88.05247264135554L222.79817022152923,67.68025653579544L223.01415393890707,122.00616664124L223.5386858239674,57.802817950116676L223.87808880841823,122.00616664124L224.21749179286903,68.29759583796124L224.4334755102468,83.11375380847021L224.61860441085636,74.47099474703114L225.35912001329453,89.28715124568711L226.0687807989644,122.00616664124L226.80929640140255,74.47099474703114L227.05613493554858,122.00616664124L227.1795542026216,90.5218327937247L227.58066682060894,60.889517450647034L227.92006980505977,65.21089675138953L228.0434890721328,84.3484338846548L228.29032760627882,122.00616664124L228.3211824230471,122.00616664124L228.44460169012012,122.00616664124L228.72229504103444,74.47099474703114L228.75314985780267,78.1750349755849L229.06169802548524,106.57266936856524L229.0925528422535,84.96577318682058L229.12340765902172,91.75651139805628L229.3702461931678,122.00616664124L229.49366546024083,122.00616664124L229.9873425285329,58.42015780422733L230.72785813097107,63.976217043168205L230.8512773980441,59.654837650434885L230.9129870315806,60.889517450647034L230.94384184834885,99.16459185516376L231.03640629865362,89.9044934915589L231.3140996495679,60.27217755054096L231.3449544663362,122.00616664124L231.62264781725048,57.802817950116676L231.71521226755524,62.124197296854575L232.02376043523782,70.14961595223811L232.1780345190791,61.50685735075311L233.2888079227363,84.96577318682058L233.5665012736506,122.00616664124L233.62821090718714,68.29759583796124L233.75163017426016,122.00616664124L233.9367590748697,83.731093110636L234.02932352517445,74.47099474703114L234.24530724255226,57.802817950116676L234.33787169285705,91.13917209589047L234.49214577669832,122.00616664124L234.58471022700306,78.79237427775068L234.83154876114912,94.84321085259123L234.95496802822217,64.59355671329725L235.07838729529516,122.00616664124L235.38693546297773,63.976217043168205L235.417790279746,60.27217755054096L235.78804808096507,64.59355671329725L235.91146734803806,57.802817950116676L236.1274510654159,122.00616664124L236.2508703324889,73.23631467084657L236.59027331693972,108.42469021876862L236.9605311181588,122.00616664124L237.4542081864509,58.42015780422733L238.2255786056573,62.74153715096526L238.68840085718114,122.00616664124L238.9352393913272,96.69523170279459L239.1203682919367,72.61897536868078L239.24378755900975,122.00616664124L239.36720682608276,71.38429529249619L239.6140453602288,84.3484338846548L239.79917426083836,59.654837650434885L239.8300290776066,71.38429529249619L240.35456096266694,72.00163533058848L240.63225431358126,60.27217755054096L240.81738321419078,62.74153715096526L241.06422174833682,59.037497750328825L241.1567861986416,72.61897536868078L241.28020546571466,122.00616664124L241.5887536333972,90.5218327937247L241.83559216754324,84.3484338846548L241.928156617848,82.49641303445142L242.3601240526036,93.60853224825965L242.4835433196766,61.50685735075311L242.73038185382268,57.802817950116676L242.82294630412744,59.654837650434885L243.00807520473697,62.74153715096526L243.56346190656558,85.58311248898637L243.6251715401021,122.00616664124L244.1805582419307,70.14961595223811L244.30397750900374,83.731093110636L244.3965419593085,88.05247264135554L244.85936421083235,122.00616664124L244.9519286611371,79.40971357991647L245.07534792821014,60.27217755054096L245.29133164558792,122.00616664124L245.69244426357525,78.79237427775068L245.8775731641848,122.00616664124L246.30954059894037,86.20045179115218L246.67979840015943,70.76695599033039L246.89578211753727,122.00616664124L247.14262065168327,67.68025653579544L247.38945918582934,85.58311248898637L247.4203140025976,122.00616664124L247.57458808643887,70.14961595223811L247.69800735351188,122.00616664124L248.09911997149922,68.29759583796124L248.22253923857227,57.802817950116676L248.65450667332783,122.00616664124L249.02476447454688,122.00616664124L249.05561929131517,122.00616664124L249.27160300869295,79.40971357991647L249.518441542839,60.27217755054096L249.70357044344854,70.14961595223811L249.88869934405807,122.00616664124L250.10468306143585,83.11375380847021L250.1663926949724,63.976217043168205L250.44408604588668,60.27217755054096L250.5057956794232,90.5218327937247L250.53665049619147,83.11375380847021L251.1228920147883,122.00616664124L251.21545646509307,82.49641303445142L251.49314981600742,83.731093110636L251.89426243399473,122.00616664124L252.23366541844553,122.00616664124L252.32622986875032,66.44557645961088L252.63477803643286,57.802817950116676L253.12845510472496,122.00616664124L253.46785808917576,68.91493587605353L253.56042253948056,83.11375380847021L254.02324479100437,122.00616664124L254.33179295868695,75.08833552104993L254.3626477754552,122.00616664124L254.5169218592965,60.27217755054096L254.54777667606473,61.50685735075311L254.70205075990603,91.75651139805628L254.76376039344254,84.96577318682058L254.88717966051556,100.39927045949534L254.9180344772838,107.19000867073103L254.94888929405207,122.00616664124L255.4117115455759,73.85365544486534L255.62769526295372,122.00616664124L255.65855007972195,76.32301412538152L255.781969346795,122.00616664124L255.8436789803315,59.037497750328825L256.12137233124577,122.00616664124L256.24479159831884,67.68025653579544L256.33735604862363,122.00616664124L257.13958128459825,65.82823642151858L257.17043610136653,94.84321085259123L257.4481294522808,69.53227591414583L257.5406939025856,68.29759583796124L257.6641131696586,88.05247264135554L257.75667761996334,68.91493587605353L258.06522578764594,78.1750349755849L258.09608060441417,90.5218327937247L258.12693542118245,70.14961595223811L258.1577902379507,122.00616664124L258.312064321792,84.3484338846548L258.4971932224015,122.00616664124L258.6206124894745,72.00163533058848L258.68232212301103,67.68025653579544L259.17599919130316,122.00616664124L259.3611280919127,88.05247264135554L259.3919829086809,59.037497750328825L259.638821442827,76.94035489940029L259.82395034343654,81.87907373228563L259.97822442727784,61.50685735075311L260.2250629614239,122.00616664124L260.4410466788016,63.976217043168205L260.74959484648423,59.037497750328825L261.3049815483128,67.68025653579544L261.5518200824589,82.49641303445142L262.2614808681288,60.27217755054096L262.47746458550654,76.94035489940029L262.66259348611607,81.87907373228563L262.75515793642086,93.60853224825965L263.7116572562368,80.02705435393526L263.74251207300506,60.27217755054096L264.23618914129713,60.27217755054096L264.2670439580654,59.037497750328825L264.57559212574796,70.76695599033039L264.66815657605275,80.02705435393526L264.72986620958926,77.5576942015661L265.0692691940401,81.87907373228563L265.25439809464956,85.58311248898637L265.34696254495435,60.889517450647034L265.47038181202737,61.50685735075311L265.9640588803195,92.99119294609386L266.025768513856,59.654837650434885L266.05662333062423,71.38429529249619L266.18004259769725,57.802817950116676L266.27260704800204,122.00616664124L266.33431668153855,70.76695599033039L266.42688113184334,57.802817950116676L266.7662841162942,97.92991030712618L266.88970338336713,59.654837650434885L267.22910636781796,98.54724960929197L267.32167081812275,70.14961595223811L267.9387671534879,73.85365544486534L268.18560568763394,82.49641303445142L268.4941538553165,96.07789240062881L268.5250086720847,70.76695599033039L268.86441165653554,59.037497750328825L269.5740724422054,122.00616664124L269.7283465260467,63.976217043168205L270.2528784111071,75.70567482321573L270.77741029616743,93.60853224825965L270.96253919677696,122.00616664124L271.02424883031347,60.889517450647034L271.61049034891033,92.37385070022206L271.6413451656786,73.23631467084657L271.76476443275163,73.85365544486534L271.88818369982465,68.29759583796124L272.01160296689767,64.59355671329725" style="fill: none;" fill="none"></path></g></g></g></g></g></g><g transform="translate(39, 177)" clip-path="url(#clip_1)"><clipPath id="clip_1"><rect width="290" height="23"></rect></clipPath><g><g><line x1="27.88829269645572" y1="0" x2="27.88829269645572" y2="5" style="visibility: inherit;" fill="rgb(0, 0, 0)" stroke="rgb(204, 204, 204)" stroke-width="1px"></line><line x1="58.743109464711786" y1="0" x2="58.743109464711786" y2="5" style="visibility: inherit;" fill="rgb(0, 0, 0)" stroke="rgb(204, 204, 204)" stroke-width="1px"></line><line x1="89.59792623296785" y1="0" x2="89.59792623296785" y2="5" style="visibility: inherit;" fill="rgb(0, 0, 0)" stroke="rgb(204, 204, 204)" stroke-width="1px"></line><line x1="120.45274300122391" y1="0" x2="120.45274300122391" y2="5" style="visibility: inherit;" fill="rgb(0, 0, 0)" stroke="rgb(204, 204, 204)" stroke-width="1px"></line><line x1="151.30755976947998" y1="0" x2="151.30755976947998" y2="5" style="visibility: inherit;" fill="rgb(0, 0, 0)" stroke="rgb(204, 204, 204)" stroke-width="1px"></line><line x1="182.162376537736" y1="0" x2="182.162376537736" y2="5" style="visibility: inherit;" fill="rgb(0, 0, 0)" stroke="rgb(204, 204, 204)" stroke-width="1px"></line><line x1="213.0171933059921" y1="0" x2="213.0171933059921" y2="5" style="visibility: inherit;" fill="rgb(0, 0, 0)" stroke="rgb(204, 204, 204)" stroke-width="1px"></line><line x1="243.87201007424812" y1="0" x2="243.87201007424812" y2="5" style="visibility: inherit;" fill="rgb(0, 0, 0)" stroke="rgb(204, 204, 204)" stroke-width="1px"></line><line x1="274.72682684250424" y1="0" x2="274.72682684250424" y2="5" style="visibility: inherit;" fill="rgb(0, 0, 0)" stroke="rgb(204, 204, 204)" stroke-width="1px"></line></g><g transform="translate(0, 8)"><text x="27.88829269645572" y="0" dx="0em" dy="0.95em" style="text-anchor: middle; visibility: inherit; font-family: &quot;Helvetica Neue&quot;, sans-serif; font-size: 12px; font-weight: 200;" fill="rgb(50, 49, 63)" stroke="none" stroke-width="1px">0</text><text x="58.743109464711786" y="0" dx="0em" dy="0.95em" style="text-anchor: middle; visibility: inherit; font-family: &quot;Helvetica Neue&quot;, sans-serif; font-size: 12px; font-weight: 200;" fill="rgb(50, 49, 63)" stroke="none" stroke-width="1px">1k</text><text x="89.59792623296785" y="0" dx="0em" dy="0.95em" style="text-anchor: middle; visibility: inherit; font-family: &quot;Helvetica Neue&quot;, sans-serif; font-size: 12px; font-weight: 200;" fill="rgb(50, 49, 63)" stroke="none" stroke-width="1px">2k</text><text x="120.45274300122391" y="0" dx="0em" dy="0.95em" style="text-anchor: middle; visibility: inherit; font-family: &quot;Helvetica Neue&quot;, sans-serif; font-size: 12px; font-weight: 200;" fill="rgb(50, 49, 63)" stroke="none" stroke-width="1px">3k</text><text x="151.30755976947998" y="0" dx="0em" dy="0.95em" style="text-anchor: middle; visibility: inherit; font-family: &quot;Helvetica Neue&quot;, sans-serif; font-size: 12px; font-weight: 200;" fill="rgb(50, 49, 63)" stroke="none" stroke-width="1px">4k</text><text x="182.162376537736" y="0" dx="0em" dy="0.95em" style="text-anchor: middle; visibility: inherit; font-family: &quot;Helvetica Neue&quot;, sans-serif; font-size: 12px; font-weight: 200;" fill="rgb(50, 49, 63)" stroke="none" stroke-width="1px">5k</text><text x="213.0171933059921" y="0" dx="0em" dy="0.95em" style="text-anchor: middle; visibility: inherit; font-family: &quot;Helvetica Neue&quot;, sans-serif; font-size: 12px; font-weight: 200;" fill="rgb(50, 49, 63)" stroke="none" stroke-width="1px">6k</text><text x="243.87201007424812" y="0" dx="0em" dy="0.95em" style="text-anchor: middle; visibility: inherit; font-family: &quot;Helvetica Neue&quot;, sans-serif; font-size: 12px; font-weight: 200;" fill="rgb(50, 49, 63)" stroke="none" stroke-width="1px">7k</text><text x="274.72682684250424" y="0" dx="0em" dy="0.95em" style="text-anchor: middle; visibility: inherit; font-family: &quot;Helvetica Neue&quot;, sans-serif; font-size: 12px; font-weight: 200;" fill="rgb(50, 49, 63)" stroke="none" stroke-width="1px">8k</text></g><line x1="0" y1="0" x2="290.84375" y2="0" fill="rgb(0, 0, 0)" stroke="rgb(204, 204, 204)" stroke-width="1px"></line></g></g></g></g></svg>