<svg viewBox="0 0 330 200" xmlns="http://www.w3.org/2000/svg"><g><g><g><g><g><line x1="58.59375" y1="167.01561298748257" x2="53.59375" y2="167.01561298748257" style="visibility: inherit;" fill="rgb(0, 0, 0)" stroke="rgb(204, 204, 204)" stroke-width="1px"></line><line x1="58.59375" y1="149.66940075485815" x2="53.59375" y2="149.66940075485815" style="visibility: inherit;" fill="rgb(0, 0, 0)" stroke="rgb(204, 204, 204)" stroke-width="1px"></line><line x1="58.59375" y1="132.32318852223372" x2="53.59375" y2="132.32318852223372" style="visibility: inherit;" fill="rgb(0, 0, 0)" stroke="rgb(204, 204, 204)" stroke-width="1px"></line><line x1="58.59375" y1="114.9769762896093" x2="53.59375" y2="114.9769762896093" style="visibility: inherit;" fill="rgb(0, 0, 0)" stroke="rgb(204, 204, 204)" stroke-width="1px"></line><line x1="58.59375" y1="97.63076405698489" x2="53.59375" y2="97.63076405698489" style="visibility: inherit;" fill="rgb(0, 0, 0)" stroke="rgb(204, 204, 204)" stroke-width="1px"></line><line x1="58.59375" y1="80.28455182436045" x2="53.59375" y2="80.28455182436045" style="visibility: inherit;" fill="rgb(0, 0, 0)" stroke="rgb(204, 204, 204)" stroke-width="1px"></line><line x1="58.59375" y1="62.93833959173601" x2="53.59375" y2="62.93833959173601" style="visibility: inherit;" fill="rgb(0, 0, 0)" stroke="rgb(204, 204, 204)" stroke-width="1px"></line><line x1="58.59375" y1="45.5921273591116" x2="53.59375" y2="45.5921273591116" style="visibility: inherit;" fill="rgb(0, 0, 0)" stroke="rgb(204, 204, 204)" stroke-width="1px"></line><line x1="58.59375" y1="28.245915126487176" x2="53.59375" y2="28.245915126487176" style="visibility: inherit;" fill="rgb(0, 0, 0)" stroke="rgb(204, 204, 204)" stroke-width="1px"></line><line x1="58.59375" y1="10.899702893862752" x2="53.59375" y2="10.899702893862752" style="visibility: inherit;" fill="rgb(0, 0, 0)" stroke="rgb(204, 204, 204)" stroke-width="1px"></line></g><g transform="translate(48.59375, 0)"><text x="0" y="167.01561298748257" dx="0em" dy="0.3em" style="text-anchor: end; visibility: inherit; font-family: &quot;Helvetica Neue&quot;, sans-serif; font-size: 12px; font-weight: 200;" fill="rgb(50, 49, 63)" stroke="none" stroke-width="1px">0</text><text x="0" y="149.66940075485815" dx="0em" dy="0.3em" style="text-anchor: end; visibility: hidden; font-family: &quot;Helvetica Neue&quot;, sans-serif; font-size: 12px; font-weight: 200;" fill="rgb(50, 49, 63)" stroke="none" stroke-width="1px">2e-3</text><text x="0" y="132.32318852223372" dx="0em" dy="0.3em" style="text-anchor: end; visibility: inherit; font-family: &quot;Helvetica Neue&quot;, sans-serif; font-size: 12px; font-weight: 200;" fill="rgb(50, 49, 63)" stroke="none" stroke-width="1px">4e-3</text><text x="0" y="114.9769762896093" dx="0em" dy="0.3em" style="text-anchor: end; visibility: hidden; font-family: &quot;Helvetica Neue&quot;, sans-serif; font-size: 12px; font-weight: 200;" fill="rgb(50, 49, 63)" stroke="none" stroke-width="1px">6e-3</text><text x="0" y="97.63076405698489" dx="0em" dy="0.3em" style="text-anchor: end; visibility: inherit; font-family: &quot;Helvetica Neue&quot;, sans-serif; font-size: 12px; font-weight: 200;" fill="rgb(50, 49, 63)" stroke="none" stroke-width="1px">8e-3</text><text x="0" y="80.28455182436045" dx="0em" dy="0.3em" style="text-anchor: end; visibility: hidden; font-family: &quot;Helvetica Neue&quot;, sans-serif; font-size: 12px; font-weight: 200;" fill="rgb(50, 49, 63)" stroke="none" stroke-width="1px">0.01</text><text x="0" y="62.93833959173601" dx="0em" dy="0.3em" style="text-anchor: end; visibility: inherit; font-family: &quot;Helvetica Neue&quot;, sans-serif; font-size: 12px; font-weight: 200;" fill="rgb(50, 49, 63)" stroke="none" stroke-width="1px">0.012</text><text x="0" y="45.5921273591116" dx="0em" dy="0.3em" style="text-anchor: end; visibility: hidden; font-family: &quot;Helvetica Neue&quot;, sans-serif; font-size: 12px; font-weight: 200;" fill="rgb(50, 49, 63)" stroke="none" stroke-width="1px">0.014</text><text x="0" y="28.245915126487176" dx="0em" dy="0.3em" style="text-anchor: end; visibility: inherit; font-family: &quot;Helvetica Neue&quot;, sans-serif; font-size: 12px; font-weight: 200;" fill="rgb(50, 49, 63)" stroke="none" stroke-width="1px">0.016</text><text x="0" y="10.899702893862752" dx="0em" dy="0.3em" style="text-anchor: end; visibility: hidden; font-family: &quot;Helvetica Neue&quot;, sans-serif; font-size: 12px; font-weight: 200;" fill="rgb(50, 49, 63)" stroke="none" stroke-width="1px">0.018</text></g><line x1="58.59375" y1="0" x2="58.59375" y2="177" fill="rgb(0, 0, 0)" stroke="rgb(204, 204, 204)" stroke-width="1px"></line></g></g><g transform="translate(58, 0)" clip-path="url(#clip_0)"><clipPath id="clip_0"><rect width="271" height="177"></rect></clipPath><g><g><g><line x1="4.155426274935165" y1="0" x2="4.155426274935165" y2="177" fill="rgb(0, 0, 0)" stroke="rgb(60, 60, 60)" stroke-width="1px" opacity="0.25"></line><line x1="32.31998996156811" y1="0" x2="32.31998996156811" y2="177" fill="rgb(0, 0, 0)" stroke="rgb(60, 60, 60)" stroke-width="1px" opacity="0.25"></line><line x1="60.48455364820106" y1="0" x2="60.48455364820106" y2="177" fill="rgb(0, 0, 0)" stroke="rgb(60, 60, 60)" stroke-width="1px" opacity="0.25"></line><line x1="88.649117334834" y1="0" x2="88.649117334834" y2="177" fill="rgb(0, 0, 0)" stroke="rgb(60, 60, 60)" stroke-width="1px" opacity="0.25"></line><line x1="116.81368102146693" y1="0" x2="116.81368102146693" y2="177" fill="rgb(0, 0, 0)" stroke="rgb(60, 60, 60)" stroke-width="1px" opacity="0.25"></line><line x1="144.97824470809988" y1="0" x2="144.97824470809988" y2="177" fill="rgb(0, 0, 0)" stroke="rgb(60, 60, 60)" stroke-width="1px" opacity="0.25"></line><line x1="173.1428083947328" y1="0" x2="173.1428083947328" y2="177" fill="rgb(0, 0, 0)" stroke="rgb(60, 60, 60)" stroke-width="1px" opacity="0.25"></line><line x1="201.30737208136577" y1="0" x2="201.30737208136577" y2="177" fill="rgb(0, 0, 0)" stroke="rgb(60, 60, 60)" stroke-width="1px" opacity="0.25"></line><line x1="229.47193576799873" y1="0" x2="229.47193576799873" y2="177" fill="rgb(0, 0, 0)" stroke="rgb(60, 60, 60)" stroke-width="1px" opacity="0.25"></line><line x1="257.6364994546317" y1="0" x2="257.6364994546317" y2="177" fill="rgb(0, 0, 0)" stroke="rgb(60, 60, 60)" stroke-width="1px" opacity="0.25"></line></g><g><line x1="0" y1="167.01561298748257" x2="271.40625" y2="167.01561298748257" fill="rgb(0, 0, 0)" stroke="rgb(60, 60, 60)" stroke-width="1px" opacity="0.25"></line><line x1="0" y1="149.66940075485815" x2="271.40625" y2="149.66940075485815" fill="rgb(0, 0, 0)" stroke="rgb(60, 60, 60)" stroke-width="1px" opacity="0.25"></line><line x1="0" y1="132.32318852223372" x2="271.40625" y2="132.32318852223372" fill="rgb(0, 0, 0)" stroke="rgb(60, 60, 60)" stroke-width="1px" opacity="0.25"></line><line x1="0" y1="114.9769762896093" x2="271.40625" y2="114.9769762896093" fill="rgb(0, 0, 0)" stroke="rgb(60, 60, 60)" stroke-width="1px" opacity="0.25"></line><line x1="0" y1="97.63076405698489" x2="271.40625" y2="97.63076405698489" fill="rgb(0, 0, 0)" stroke="rgb(60, 60, 60)" stroke-width="1px" opacity="0.25"></line><line x1="0" y1="80.28455182436045" x2="271.40625" y2="80.28455182436045" fill="rgb(0, 0, 0)" stroke="rgb(60, 60, 60)" stroke-width="1px" opacity="0.25"></line><line x1="0" y1="62.93833959173601" x2="271.40625" y2="62.93833959173601" fill="rgb(0, 0, 0)" stroke="rgb(60, 60, 60)" stroke-width="1px" opacity="0.25"></line><line x1="0" y1="45.5921273591116" x2="271.40625" y2="45.5921273591116" fill="rgb(0, 0, 0)" stroke="rgb(60, 60, 60)" stroke-width="1px" opacity="0.25"></line><line x1="0" y1="28.245915126487176" x2="271.40625" y2="28.245915126487176" fill="rgb(0, 0, 0)" stroke="rgb(60, 60, 60)" stroke-width="1px" opacity="0.25"></line><line x1="0" y1="10.899702893862752" x2="271.40625" y2="10.899702893862752" fill="rgb(0, 0, 0)" stroke="rgb(60, 60, 60)" stroke-width="1px" opacity="0.25"></line></g></g></g><g><g><line x1="0" y1="167.01561298748257" x2="271.40625" y2="167.01561298748257" fill="rgb(0, 0, 0)" stroke="rgb(153, 153, 153)" stroke-width="1.5px"></line></g></g><g><g><line x1="4.155426274935165" y1="0" x2="4.155426274935165" y2="177" fill="rgb(0, 0, 0)" stroke="rgb(153, 153, 153)" stroke-width="1.5px"></line></g></g><g><g><g><g><g><path stroke="rgb(238, 51, 119)" stroke-width="2px" d="M4.2962490933683295,167.01561298748257L4.662388421294558,167.01561298748257L4.831375803414355,167.01561298748257L5.282008822400483,167.01561298748257L5.338337949773749,167.01561298748257L5.422831640833647,167.01561298748257L5.648148150326711,166.771743230374L5.73264184138661,166.36915318631094L6.155110296686104,164.9469134684019L6.239603987746002,165.4775130080615L6.802895261478662,161.48867291406438L7.0282117709717244,161.2449283877047L7.140870025718257,160.52811781331454L7.704161299450916,153.61056553408045L8.070300627377144,152.43740792564165L8.520933646363272,151.1324561089445L8.60542733742317,149.72732003827122L8.858908410602867,148.45539023846763L9.168718611155828,147.7018819020363L9.309541429588995,145.45880610123368L9.36587055696226,146.05491219402754L9.394035120648894,146.5071600112641L9.506693375395423,145.1821482792509L9.985490958068183,148.34499542653037L10.436123977054311,146.37108394835582L10.60511135917411,144.2468239013809L10.745934177607273,146.59043362797217L11.168402632906767,146.2884737273038L11.337390015026566,145.01790647813985L11.478212833459729,146.82859462765475L11.675364779266161,146.88593593105074L11.788023034012694,147.1376970587953L11.84435216138596,147.32901919294824L12.379478871431983,148.09893349820462L12.830111890418111,148.0595339166265L12.886441017791377,148.0295913559056L13.111757527284443,147.17418454445064L13.449732291524036,148.1893753742675L13.703213364703732,146.46299714034706L13.928529874196798,144.11017538971942L14.379162893182922,143.77914852864424L14.491821147929455,144.56835310315233L16.012707587007636,149.9557358736182L16.040872150694266,148.63808015567636L16.519669733367028,147.2203543078149L16.604163424426925,146.97550622468015L16.688657115486826,144.49971629143886L17.111125570786317,144.0752031043666L17.19561926184622,142.8158767462935L17.22378382553285,140.92209264617478L17.50542946239918,134.69525941494558L17.98422704507194,135.16673520884115L18.040556172445207,133.44350987329463L18.6320120098645,133.59094176326437L18.716505700924397,134.951917422335L19.110809592537258,135.77810404126393L19.251632410970423,137.65493358105994L19.843088248389716,139.49763282572047L20.01207563050951,140.27362054963785L20.29372126737584,137.74105273991168L20.46270864949564,138.10600140520515L20.519037776868906,140.46490827654807L20.65986059530207,141.84136808955296L20.688025158988705,140.59777747318546L21.1104936142882,141.10973041878887L21.61745576064759,141.49881465357635L21.673784888020855,139.29666396381197L22.01175965226045,139.70457527467306L22.208911598066884,138.34935140620183L22.237076161753514,138.46423127592863L22.29340528912678,137.40668997160176L22.377898980186682,140.3497403695628L22.434228107559946,136.13366752003157L22.77220287179954,133.13760635144396L23.053848508665872,134.50330503536293L23.391823272905466,133.98007667628184L23.53264609133863,134.41504135084026L24.26492474719109,135.647617784714L24.37758300193762,141.0943910686867L24.49024125668415,136.90775625173706L24.518405820370784,133.5177595981326L24.715557766177213,136.0064560723588L24.96903883935691,132.20830791319736L25.08169709410344,129.11356014993214L25.194355348849975,128.4267883035275L25.33517816728314,130.7496211667464L25.44783642202967,130.5028133877074L25.70131749520937,130.24585442147736L25.813975749955897,132.82596001935696L25.870304877329165,131.24821220431159L25.92663400470243,131.7143608029873L26.123785950508864,131.65232486694072L26.264608768942026,135.9764228823403L26.320937896315293,135.0996462404368L26.461760714748454,131.9354408277934L26.51808984212172,128.9061811653155L26.630748096868253,128.2691802752679L26.743406351614787,126.46674744692109L26.912393733734586,130.99461113854355L26.940558297421216,131.31346931515716L27.588343262213776,129.4742557202746L27.701001516960307,129.9498450040801L28.630432118619193,128.4379012438569L28.827584064425622,129.1622156020026L28.99657144654542,132.00239451649333L29.390875338158285,129.78968468009865L29.503533592904812,131.2303434334521L29.700685538711245,129.4110800501802L29.757014666084512,132.19153149710775L29.926002048204307,131.5292801846299L29.982331175577574,131.71981779018242L30.376635067190435,125.61998991237672L30.40479963087707,123.27382072754403L30.686445267743398,124.61305086073153L30.770938958803296,124.17378350172018L31.024420031982995,123.00732159751077L31.137078286729526,121.912656357119L31.249736541476054,125.45195658582756L31.503217614655753,126.26843411302698L31.531382178342387,125.84818412914512L31.700369560462185,125.52879414139491L31.728534124148815,125.70236613709L31.869356942581984,127.29136311405209L32.20733170682158,128.49900081654326L32.37631908894137,129.41680547043657L32.46081278000127,128.03279119828863L32.71429385318097,133.22557729412912L33.024104053733936,131.34376713997537L33.55923076377996,132.20329142511798L33.925370091706185,140.55824860008548L34.09435747382598,134.00243378132976L34.178851164885884,135.88911452597372L34.235180292259145,132.74359188730426L34.34783854700568,130.76930403759587L34.51682592912548,124.89759946041121L34.657648747558646,124.18188527498899L34.93929438442497,120.72377894289562L35.10828176654477,111.01836296111857L35.249104584977935,110.51134779116148L35.530750221844265,114.49726207340038L35.67157304027743,115.65316531198772L36.71366189668285,118.61319758242092L36.82632015142938,119.30166275112006L36.854484715116016,118.95758552553689L36.882649278802646,122.1653298492717L37.38961142516204,122.31351553301073L37.727586189401634,121.17720955490634L37.75575075308827,122.3951618513587L37.92473813520807,122.17595559551276L38.1218900810145,121.48897238879314L38.85416873686695,117.42823805164076L38.91049786424022,115.38285285995835L39.19214350110654,111.12235075629988L39.50195370165951,111.83930561324532L39.586447392719414,111.96788194884346L39.670941083779304,108.52697286385256L40.234232357511964,103.83033615015266L40.40321973963176,106.5055296750612L40.60037168543819,107.28974868695052L40.769359067557986,106.42867384504774L41.05100470442432,105.35794760952122L41.21999208654412,107.6665143841813L41.30448577760402,107.33947932381614L41.614295978156974,115.41711494507076L41.69878966921688,116.35225349445722L41.783283360276776,114.98141395217925L41.811447923963414,115.67419643834188L43.16334698092179,112.5926989736174L43.24784067198169,118.36878897436631L43.33233436304159,115.68136220554939L43.360498926728226,117.59385431697439L43.980119327834146,108.63962024541843L44.31809409207374,111.54828182423925L44.37442321944701,109.24884967370677L44.48708147419354,110.83175414615495L44.59973972894007,111.82660735202293L44.71239798368661,111.54192288392919L45.41651207585243,110.28478978362455L45.44467663953906,111.41091443649984L45.75448684009203,108.79752615750702L45.97980334958509,111.32136601590877L46.09246160433162,112.8925600067763L46.148790731704885,118.94360766108488L46.62758831437765,117.99161602336969L47.050056769677134,116.64363786053798L47.16271502442367,117.2844109102123L47.86682911658949,114.6490806835997L48.317462135575624,112.85438390456677L48.345626699262255,110.44964144794832L48.76809515456175,110.8423530983503L48.880753409308284,110.53369594035208L49.134234482487976,110.76746440425197L49.33138642829441,111.77774714817667L49.35955099198104,113.37817977562509L49.72569031990727,111.88849921450604L49.979171393086965,112.8378877971624L50.11999421152013,110.11330845619072L50.260817029953294,113.15397927426918L50.34531072101319,117.75458909830826L50.48613353944636,114.38195255767961L50.57062723050626,113.27583007774051L50.90860199474585,112.22702279979416L51.13391850423891,114.96855636860042L51.331070450045345,112.88903123197467L51.52822239585177,112.34936503269252L51.78170346903148,109.51074861061345L51.894361723778005,111.2852082341717L51.92252628746464,112.17123245891567L51.95069085115127,107.29382204543623L52.00701997852453,109.1377789554767L52.09151366958444,107.76379179496504L52.28866561539087,106.37263725145839L52.54214668857056,105.52351399158596L52.82379232543689,106.75157192999708L52.936450580183426,108.72566886774297L52.99277970755669,105.64658253583093L53.07727339861658,107.8858769281767L53.21809621704975,97.09846775030881L53.30258990810965,99.51591807526567L53.33075447179628,105.30811677795877L53.35891903548292,103.4655513339802L53.89404574552894,99.56734740106441L54.14752681870864,103.89012177462715L54.31651420082844,103.6368022291942L54.51366614663487,105.31767099057936L54.5418307103215,101.39126672646502L54.79531178350119,108.81492756197709L54.99246372930763,106.13072752983413L55.33043849354723,118.66155447288673L55.58391956672692,113.82231817531807L55.696577821473454,114.93205375625254L55.97822345833978,112.86128924659029L56.09088171308631,111.49566241243961L56.34436278626601,111.29040472984586L56.71050211419224,110.0936359865212L56.794995805252135,105.22915431657346L56.96398318737193,108.60940341679927L57.020312314745205,108.05607498860581L57.97790748009072,105.55399957407195L58.146894862210516,104.90134935677226L58.62569244488328,104.04849887798277L58.682021572256545,104.17347818342486L58.73835069962981,98.6482885771134L58.90733808174961,96.73884641720645L58.991831772809505,100.49153295985391L59.04816090018277,101.88649344132733L59.555123046542164,105.02820921635394L59.94942693815503,106.02821599930297L60.005756065528296,103.180208030841L60.51271821188769,105.41670479188308L60.62537646663422,120.20044275882697L60.850692976127284,114.0898704764044L61.329490558800046,118.46586641193103L61.49847794091984,111.38389524669229L62.174427469399035,109.12391587477109L62.512402233638625,107.05940725059317L62.54056679732526,102.0211376810399L62.62506048838515,109.293629487454L62.65322505207178,107.1190045420696L62.70955417944506,106.92337184381125L62.76588330681832,106.98284518632754L62.87854156156485,108.06881783119331L62.99119981631138,109.0329271496165L63.132022634744544,106.29640721644007L63.18835176211782,100.05356044901234L63.610820217417306,91.1459072261439L64.56841538276282,93.74304497915432L64.68107363750936,96.75764257599563L64.73740276488263,93.22040964725011L64.8782255833158,94.27889391464163L65.13170665649548,90.92025033964552L65.35702316598855,92.82813708176033L65.46968142073509,95.6460032182958L65.75132705760142,87.79616373079936L65.80765618497468,92.58493712876367L65.86398531234795,93.17147028242377L65.89214987603458,95.49062709511962L66.00480813078111,94.33902369089117L66.089301821841,99.29213220602246L66.31461833133407,101.66879747145103L66.42727658608061,100.69966866103432L66.82158047769346,103.60583593105457L66.99056785981325,104.25336369943983L67.13139067824643,100.58239318519898L67.15955524193306,101.95554721258958L67.21588436930632,104.4562255643451L67.30037806036623,102.81811401163381L67.35670718773949,109.20548289566976L67.41303631511276,106.42754958344057L67.44120087879939,105.77340252638017L67.63835282460582,100.34992548760242L67.72284651566572,105.9419624113347L67.86366933409889,104.3635833710263L68.39879604414492,104.20478820494532L68.68044168101125,101.79440290712918L68.84942906313103,103.2929829876418L69.01841644525084,106.09714127155293L69.13107469999737,100.94289123545154L69.159239263684,101.81321637510113L69.46904946423696,97.34018401263036L69.4972140279236,89.08374113449361L69.9196824832231,90.71871745856141L70.20132812008941,89.25528913757799L70.45480919326913,89.18385651818399L70.93360677594187,92.77227289338148L71.44056892230127,93.10569127034067L71.46873348598791,92.73462665725178L71.52506261336117,92.52200163617168L71.8067082502275,97.91119544443565L71.91936650497404,93.68079950228899L72.45449321502005,88.38415277715072L72.76430341557301,87.13409567818805L72.98961992506608,106.30565983241873L73.15860730718587,101.93398405307033L73.1867718708725,99.44412917212632L73.24310099824578,103.17201237176118L73.29943012561904,103.92365779437685L73.4402529440522,101.02566530038672L74.14436703621803,102.29243402013226L74.17253159990466,117.82599697229634L74.45417723677099,109.85682156801653L74.51050636414425,100.417737774908L74.65132918257741,95.37761748025535L75.04563307419028,96.959144772279L75.21462045631009,97.3284868028562L75.41177240211651,95.31948674379544L75.46810152948977,93.16818411933136L75.89056998478927,98.402294131637L76.0032282395358,102.3802177409893L76.05955736690906,94.99571063856294L76.4256966948353,94.0669642805044L76.7636714590749,100.12613898938677L77.10164622331449,95.01723229493406L77.12981078700113,101.88911558490673L77.15797535068775,117.51947496152493L77.38329186018082,111.49725645574445L77.55227924230061,99.84311619126031L78.03107682497337,101.39369669719619L78.20006420709318,98.40904626349382L78.22822877077981,96.48763623539783L78.45354528027288,94.68044031252707L78.62253266239266,95.38851722025211L78.79152004451247,112.57902020438742L78.93234286294563,119.39916601430494L79.58012782773818,113.13397584904988L79.63645695511144,108.02550702193821L79.77727977354462,101.62787001197688L79.91810259197779,95.4646992690669L80.28424191990402,97.23348112496842L80.48139386571044,97.84921468998424L80.90386232100994,89.76796675159048L81.24183708524954,89.57349150483347L81.32633077630942,91.92354548208537L81.7206346679223,90.79542295362434L81.74879923160893,86.19126660016556L81.80512835898219,84.98180777383635L82.70639439695445,83.16061626959791L82.73455896064107,82.4703593294123L82.76272352432771,81.25191545183563L82.95987547013414,101.83520286039091L83.26968567068711,99.57720965888258L83.69215412598659,100.15083482803571L83.7766478170465,92.67691704514034L83.83297694441976,92.47814233096697L84.67791385501876,92.88215204290564L85.04405318294498,93.50143265235828L85.29753425612466,94.49247139852382L85.55101532930438,89.00102341828918L85.72000271142417,93.57001457612337L85.8326609661707,100.78923011861062L86.31145854884346,96.90887875921537L86.36778767621674,90.14364440937915L86.39595223990335,85.69591490653923L86.42411680359,89.60105081625476L86.73392700414296,85.28354377576468L87.24088915050235,86.37348423639851L87.71968673317511,84.07952027281996L87.94500324266816,83.16872637186107L88.59278820746074,80.39497719802549L88.84626928064043,82.24186525093145L88.90259840801369,83.85365436433261L88.95892753538696,81.21288671320205L89.0715857901335,85.1531764847651L89.09975035382013,104.80016124541727L89.40956055437307,98.08379479967425L89.49405424543298,96.93429372593054L89.71937075492605,89.46911118104707L89.80386444598595,88.45427048711618L90.05734551916565,94.81971977115347L90.47981397446515,87.16818831097117L90.59247222921167,89.67920569906963L90.64880135658494,87.42448729581079L91.07126981188443,87.79244711844093L91.43740913981065,86.19870496772562L92.08519410460322,88.24854975516742L92.50766255990271,82.17409909882176L92.53582712358934,88.4856301592196L92.73297906939577,89.11930311620345L92.87380188782893,90.12128004649276L93.0146247062621,87.76046379985237L93.12728296100863,85.9662434524057L93.1836120883819,87.57627258155738L93.63424510736803,106.64171427897942L93.94405530792099,98.23444800743543L94.14120725372742,91.32454015808044L94.16937181741406,88.88309567785166L94.36652376322048,87.16636798120295L94.45101745428039,93.84091386665942L95.12696698275958,92.14854582930431L95.21146067381946,91.382731603896L95.40861261962591,92.8822586016925L95.4931063106858,92.63420191394661L95.52127087437243,89.67028441911732L95.5776000017457,93.66234455036752L95.60576456543234,94.61476444101085L96.16905583916498,87.01242226006278L96.30987865759815,77.07155058432859L96.56335973077785,76.45497220253641L96.61968885815112,74.7721385463572L97.23930925925704,74.70741905367817L97.46462576875011,72.57668643013525L97.85892966036296,73.53448186731637L97.8870942240496,72.86479718137888L98.02791704248277,71.5232181087056L98.16873986091593,73.62593672713415L98.36589180672236,74.39138416577906L99.18266415363472,75.59758873731734L99.23899328100799,80.88555002309272L99.29532240838125,76.57821930244498L99.52063891787432,77.46773763437606L99.99943650054706,78.14377156664371L100.14025931898023,99.47301350764505L100.75987972008616,92.57808122802868L100.84437341114607,95.35188367286344L100.98519622957923,95.89881417410776L101.18234817538566,90.76369253076857L101.29500643013219,88.248697287902L101.35133555750545,86.96176542149158L101.52032293962526,80.15537010067473L101.54848750331189,78.10482643192387L101.71747488543168,83.48489927402929L101.91462683123811,82.71681441278015L102.08361421335792,79.84336991593135L102.16810790441781,78.9084791960723L102.64690548709056,79.23873515353286L102.70323461446382,76.36741096754263L102.98488025133017,77.30752329985027L103.06937394239006,71.77737318367394L103.2665258881965,76.94141329777032L103.71715890718262,76.4948379730773L103.7734880345559,74.4902052421793L103.94247541667569,72.75852823491394L104.05513367142221,74.98108274802802L104.11146279879549,82.49855128033965L104.50576669040835,79.19179552543359L104.9845642730811,79.97444298541929L105.32253903732071,81.08964053798995L105.54785554681376,82.28411497946148L106.05481769317316,81.38790996252335L106.11114682054642,74.87846704730546L106.16747594791968,70.62513903477547L106.25196963897959,69.6129237240944L106.33646333003949,72.86796159786525L106.81526091271223,70.48485209927212L107.12507111326521,64.51059726212772L107.15323567695184,67.88003649734969L107.51937500487807,79.18330193893095L108.36431191547705,79.44760043810541L108.42064104285033,85.89310472479846L109.09659057132951,86.85987987834685L109.20924882607605,76.2617697711889L109.26557795344931,69.94182759733786L109.43456533556912,74.92193607257701L109.51905902662901,74.12741657056961L109.57538815400228,71.85834626491268L109.82886922718197,74.50509864401971L110.02602117298841,74.64323883622683L110.39216050091463,73.91560667094346L110.6174770104077,71.28106235481157L110.98361633833393,68.58496007151572L111.03994546570719,77.6374980461903L111.1244391567671,78.27278947962253L111.46241392100669,75.28636795385297L111.57507217575322,77.37802139355044L111.71589499418639,72.24726012127131L111.77222412155965,79.03314887793333L112.05386975842598,71.00730281391024L112.16652801317251,66.98920561435948L112.53266734109874,69.65970174844952L112.98330036008485,65.96502880460935L113.12412317851803,68.36093995146759L113.32127512432446,68.7247511321412L114.02538921649028,69.83386634081393L114.05355378017691,70.26048357442964L114.27887028966998,68.50316880146104L114.56051592653631,70.49808054226749L114.78583243602937,70.76528636753436L114.98298438183579,66.80527311511382L115.09564263658234,61.714117234167375L115.40545283713529,65.13024715793169L115.5744402192551,67.37958159847479L115.74342760137489,65.48106458837458L116.36304800248081,66.25850563954015L116.67285820303377,64.62904685958426L116.81368102146693,66.09666657550247L117.06716209464663,71.5833033710066L117.09532665833326,70.7574389446056L117.40513685888622,71.65624735634694L117.43330142257287,71.64549314623473L117.74311162312583,63.31113864871246L117.82760531418572,62.5278180548804L118.10925095105206,75.11561592265427L118.13741551473869,71.67268196453996L118.16558007842532,72.90691054620748L119.4329854443238,67.39213458635199L119.57380826275697,68.40476744103859L119.6019728264436,70.63145164012934L119.88361846330993,72.9481942110162L121.93963161243413,74.11419202168408L122.2494418129871,77.67662271010461L122.27760637667373,72.0578887354672L122.33393550404699,67.78765091474278L122.39026463142025,65.79119726873827L122.47475832248016,57.82110087726174L122.5029228861668,68.41619215400387L122.55925201354006,71.26459700156083L123.20703697833261,70.93153049021205L123.34785979676577,69.42947284384095L123.43235348782568,67.87160064621365L123.65766999731875,76.05457197840731L123.96748019787171,77.06976566810745L124.2209612710514,73.47006706087329L124.3054549621113,70.94245225115823L124.33361952579794,71.69773734808771L124.75608798109742,72.56911632406204L125.20672100008356,71.71481098212035L125.37570838220336,77.93463892914299L125.48836663694989,77.8741539710887L125.74184771012959,79.1464965855809L125.79817683750285,75.88100126951392L126.05165791068254,76.93785192934845L126.16431616542909,56.9256022783448L126.33330354754888,60.747567127851326L126.47412636598204,62.105969074832046L127.09374676708796,67.30144617275103L127.2064050218345,67.29507134214845L127.45988609501418,69.16361808680469L127.88235455031369,70.44494350441825L128.07950649612013,69.05966673463766L128.2484938782399,64.81515359107674L128.36115213298643,89.34326384621413L128.3893166966731,84.67131729214857L128.9244434067191,81.53694629744398L128.95260797040575,81.23637015057533L129.008937097779,83.08947808806195L129.1779244798988,74.09011301360798L129.2624181709587,67.94444416005857L130.02286139049778,71.59991712919802L130.1918487726176,74.03115228422618L130.30450702736414,74.83811809749419L130.389000718424,71.9821710389901L130.61431722791707,94.79019710662831L130.67064635529036,89.22729495644859L131.1494439379631,84.99948932231199L131.17760850164976,84.90867575402844L131.71273521169576,80.0521032443414L131.7408997753824,83.23020814387759L131.8253934664423,82.17632485234707L132.07887453962198,81.72229785230165L132.30419104911505,82.41801023682054L132.36052017648834,80.65705164675548L132.38868474017497,77.79225580390964L132.81115319547445,69.3703754746166L133.09279883234078,69.0756137433492L133.17729252340067,68.99036299732084L133.48710272395363,66.91341264469021L133.57159641501354,70.12248457448246L133.6279255423868,62.847500737216336L133.6842546697601,58.7062102269653L134.02222943399968,61.387156541519445L134.50102701667242,62.45328692089464L134.92349547197193,62.222775043256675L135.0924828540917,60.31296450866277L135.28963479989815,73.43232722752889L135.51495130939122,74.38301105440425L135.62760956413774,72.6770606522049L135.82476150994418,70.33976738057024L135.8529260736308,68.97973288051317L135.88109063731744,64.40747956042432L136.16273627418377,72.38106704865402L136.89501493003624,71.15558320783472L137.0358377484694,74.7342314085435L137.48647076745553,65.65857972806712L137.62729358588868,64.58941155325L137.7962809680085,66.89916245404923L137.908939222755,63.86701894086514L137.93710378644164,64.26859825952991L138.1624202959347,66.44719015762934L138.24691398699463,57.27888256826553L138.27507855068126,56.55560622766953L138.33140767805452,52.53667319363852L138.4159013691144,52.95152710295298L138.6693824422941,54.932051558163266L138.78204069704063,52.69046885088498L138.89469895178715,56.607038902505764L138.97919264284707,58.423913153106824L139.00735720653373,60.54814624721884L139.17634458865348,73.6110653488315L139.3453319707733,83.53888386605712L139.40166109814658,76.92951560037638L139.48615478920644,74.40424991395109L140.47191451823863,76.50936950215632L140.8098892824782,74.709403397472L141.34501599252425,78.12898335570344L141.40134511989748,78.64631831485252L141.85197813888362,80.0802657883592L141.93647182994354,63.47692842940661L141.99280095731677,65.01290237537484L142.02096552100343,63.47423418562599L142.55609223104943,66.12101173952244L143.23204175952864,73.08862496156247L143.31653545058853,71.34640292012735L143.68267477851478,69.32846750419132L143.90799128800782,63.978669271384106L144.16147236118752,67.89207961076978L144.24596605224744,66.70318178907957L144.30229517962067,67.88116331511154L144.33045974330733,77.10261251132313L144.7247636349202,71.6216409843933L144.95008014441325,69.1213381080579L145.56970054551917,55.14814339237759L145.73868792763898,63.26242575183167L145.82318161869887,69.42928034501679L146.0203335645053,65.78990853800046L146.38647289243153,70.8297817795235L146.4428020198048,68.72767930554949L146.47096658349145,65.25669174800532L146.66811852929786,64.90844120657118L147.17508067565726,60.89698756325289L147.6257136946434,62.84399312390539L147.82286564044983,65.29510423109697L147.96368845888298,68.8925701801516L147.9918530225696,65.3820088127029L148.1608404046894,62.71398217344192L148.52697973261564,62.35151741173485L148.5833088599889,67.00236849895418L148.75229624210868,61.170061122850456L149.48457489796115,60.55367483370746L149.6253977163943,63.20753802902874L149.99153704432055,63.975546959726884L150.10419529906707,61.64507116518014L150.6111574454265,64.03699924094796L150.83647395491954,60.44284586257184L151.48425891971212,62.42945940793008L151.56875261077198,70.87777173275839L151.59691717445864,67.93153489723751L151.70957542920516,70.89625748641839L151.7377399928918,70.02712794053564L151.8503982476383,69.57474561744766L152.47001864874426,69.2309350519008L153.11780361353678,67.02686332130354L153.48394294146303,62.57637439390719L153.93457596044917,61.27554861819277L154.24438616100213,64.17247243021312L154.69501917998826,57.63164290453604L154.77951287104815,69.31297699928574L155.08932307160111,65.70151799524487L155.11748763528774,64.20573624991985L155.20198132634764,60.77924212117341L155.6807789090204,61.71373368337157L155.79343716376692,68.25227437298712L156.35672843749958,67.4973152913463L156.41305756487287,69.1091692950024L156.80736145648572,64.85277553695393L156.94818427491887,63.144381656643205L157.34248816653175,67.25802102356673L157.37065273021838,74.54747856064223L157.42698185759164,76.75699338196678L157.5678046760248,79.68515174391948L158.35641245925055,77.74746048078987L158.60989353243022,65.86708801386756L158.80704547823666,73.49036947327086L158.91970373298318,71.7904988573509L159.088691115103,71.33121590061249L159.2576784972228,69.10876923757712L159.39850131565595,68.66863687141627L159.48299500671584,72.49722789134768L159.53932413408913,72.4927944846182L159.9617925893886,68.81202788713317L160.2152736625683,67.19418634733282L160.44059017206138,63.39738849672506L160.91938775473412,62.59336793936998L161.0602105731673,63.19654640179728L161.11653970054056,63.82842321470579L161.45451446478017,59.451711309857316L161.5108435921534,63.75774295697384L161.67983097427322,61.479540123087816L162.0178057385128,57.66656016022763L162.15862855694598,83.91033283876882L162.44027419381231,76.58735230146911L162.72191983067864,73.31158903401106L163.2007174133514,77.06664443947311L163.51052761390437,67.43121363157363L163.5668567412776,66.76923203127575L163.67951499602418,65.01719891730332L164.01748976026374,62.22857052115532L164.10198345132366,66.90892886211374L165.2567305624756,57.62980398367371L165.3412242535355,56.61415037159681L165.45388250828202,53.552553624118914L165.8481863998949,57.886685909741445L166.15799660044786,59.09908257629803L166.35514854625427,57.245109630738625L166.5523004920607,62.77457428387923L166.83394612892704,63.02203193383538L166.91843981998696,60.92039974550259L167.05926263842014,57.65792185964811L167.2000854568533,58.50891157325158L167.36907283897307,60.26582074501107L167.70704760321266,60.07460633974216L167.73521216689932,55.97434596671678L168.21400974957209,57.22939389462374L168.29850344063195,58.59954064480857L168.4956553864384,54.85329603856725L168.83363015067798,57.626323046976154L169.25609860597748,52.65656937327594L169.31242773335075,57.20573787910078L169.50957967915718,58.58156207301113L169.7912253160235,60.45980523315349L170.01654182551655,64.87081864019672L170.07287095288984,60.243931833230405L170.1292000802631,66.61483948389825L170.27002289869628,76.14020639960101L170.52350397187595,68.80866653037765L170.80514960874228,63.23669622976793L170.83331417242894,65.03848009684206L171.11495980929527,62.03659002441215L171.2276180640418,67.87318261260006L171.25578262772842,62.52572845225694L171.79090933777442,66.37153620184793L171.9317321562076,62.633404277831346L171.9880612835809,66.17582961263412L172.1007195383274,65.81514017688173L172.35420061150708,65.81855448376997L172.8611627578665,63.25391107664552L173.42445403159914,68.59019048051452L173.56527685003232,58.90756281365829L173.81875792321202,57.58524708238511L173.9877453053318,54.706897449293564L174.01590986901843,57.20282882933921L174.0440744327051,56.150881084567715L174.12856812376498,45.290596054525054L174.2130618148249,44.32218976356654L174.83268221593082,48.99821969839775L175.31147979860356,48.874605240498795L175.3396443622902,51.2091283631202L175.4523026170367,57.146455615935835L175.5931254354699,52.29187012568529L175.79027738127633,79.82556841251663L176.043758454456,75.07878467537158L176.10008758182929,69.45906731090196L176.38173321869562,69.14301953892605L176.55072060081542,67.02943161631019L176.60704972818868,58.762158981416405L176.77603711030847,62.26229630626305L176.83236623768175,58.26145485944083L176.888695365055,57.30236116896275L177.2266701292946,53.45113125053918L177.28299925666786,51.148659092115125L177.33932838404115,57.100498969971966L177.9871133488337,60.583124372589765L178.09977160358022,52.82219257163548L178.24059442201337,42.76079278469658L178.3250881130733,44.27292895582079L178.77572113205943,37.82451082421238L179.05736676892576,45.933373381812515L179.0855313326124,74.9931108871733L179.14186045998562,68.56133652051048L179.31084784210543,69.8137483325709L179.47983522422524,66.08210420854158L179.67698717003168,63.24605467427931L179.81780998846486,50.68292798270588L180.01496193427127,54.4568433245215L180.18394931639105,55.79855360849527L180.5500886443173,52.82862298756545L180.7472405901237,62.887287450245694L181.28236730016977,56.654902319760794L181.8456585739024,70.65219996396338L181.9301522649623,66.71932744839988L182.04281051970887,64.07726863808942L182.07097508339547,53.396196404308384L182.2681270292019,55.06184603400075L182.74692461187468,54.87065846162828L183.05673481242764,57.639518488502546L183.3665450129806,57.87046243160306L183.563696958787,59.503061119298096L183.73268434090681,49.91979869002698L184.408633869386,54.43194355679596L185.05641883417857,56.05716806308392L185.73236836265775,60.31058030492669L185.95768487215082,58.85969650753198L186.07034312689734,58.45087342454764L186.4364824548236,42.87549861469617L186.74629265537655,47.69058023206361L186.85895091012307,51.350042261262885L187.08426741961614,55.796468887585604L187.11243198330277,58.13498021903747L187.2250902380493,55.749157212727255L187.47857131122902,47.06683172103314L187.50673587491562,48.27406016220107L187.78838151178195,54.10631439255917L187.81654607546858,58.72385441873158L187.8447106391552,60.08225300605805L188.0700271486483,59.31063033996972L188.18268540339483,60.38943453646414L188.63331842238097,85.97971736470856L189.30926795086015,78.36824067296622L189.42192620560667,74.66506419634887L189.47825533297993,67.68755845590601L189.50641989666659,65.76716457902533L189.59091358772648,63.35362485736479L189.84439466090615,65.33550004700832L189.87255922459278,63.71940841606745L190.1260402977725,88.51049751320708L190.2105339888324,75.08776906305805L190.49217962569872,74.25344964333517L190.63300244413188,66.33395849106222L191.64692673685067,68.43317231997914L191.90040781003034,67.11441224807868L191.95673693740363,66.80600125787964L192.06939519215015,65.2532977227149L192.23838257426996,68.86079723378121L192.32287626532988,67.43940718256826L192.5200282111363,91.3376965757477L192.6045219021962,82.09338057183815L192.74534472062936,78.12063309906941L192.82983841168925,71.87494920950863L193.05515492118232,70.91961577053331L193.16781317592887,64.84101765228621L193.2804714306754,62.51098308471785L193.56211706754172,65.73586520435005L193.59028163122835,60.90136722198693L193.92825639546794,59.30869456449777L194.0409146502145,58.098263344806014L194.23806659602093,57.59464400422553L194.35072485076745,60.264825995586875L194.6605350513204,59.98133692462966L194.99850981555997,59.85839863625229L195.4491428345461,58.516038439339454L196.15325692671192,58.53661759423912L196.57572538201146,57.09517452243391L196.8010418915045,57.60544119924971L196.9700292736243,59.579183260769625L197.08268752837083,56.430443138058436L197.19534578311735,63.54312495551352L197.42066229261042,62.14904721474848L197.58964967473023,68.58311265683355L197.61781423841683,59.94295657221417L198.0966118210896,66.21263516547187L198.35009289426932,67.50834788116971L198.5190802763891,76.81927278152733L198.74439678588217,58.91702793510757L198.82889047694206,56.412899500398254L198.94154873168858,56.730075868860894L199.22319436855494,59.607754212709736L199.44851087804798,52.91352996148744L199.53300456910787,61.56411954435515L199.92730846072075,63.28162740608538L200.0399667154673,60.07691939985921L200.26528322496034,85.7422058608888L200.34977691602026,86.51391322790022L200.51876429814007,93.34504825414933L201.02572644449944,86.04743795804802L201.0820555718727,78.4197083239042L201.5890177182321,74.70417961106173L201.70167597297865,67.7172861710878L201.78616966403854,59.07677424985478L202.20863811933802,52.301829057934754L202.29313181039794,49.65072684615791L202.40579006514446,48.67666206976091L202.6029420109509,49.393454130637835L202.96908133887712,52.22791609920374L203.13806872099693,53.9657988089286L203.53237261260978,55.28658966831948L203.87034737684937,56.429160829781736L204.0674993226558,58.61582609510653L204.29281583214888,46.123183296571426L204.51813234164194,44.95495606752178L204.54629690532855,45.94049305076794L204.68711972376173,58.34615730131516L204.79977797850827,60.697207931640094L205.1659173064345,63.31662318345755L205.27857556118101,88.20438073642356L205.6728794527939,80.05898483546962L206.01085421703345,74.28479233712987L206.0390187807201,73.43503313843713L206.23617072652655,65.92011614053234L206.4614872360196,67.28603342221565L206.6304746181394,64.1610408766716L206.79946200025918,67.61437364440307L206.99661394606565,61.912723311451686L207.05294307343888,59.036552287937596L207.3064241466186,57.89143521462027L207.36275327399184,55.980373334345714L207.3909178376785,49.32410178257L207.9260445477245,50.71812702373353L208.01053823878442,50.320502977488886L208.26401931196412,46.687837734080375L208.63015863989034,45.59224763322118L208.9399688404433,48.090072063421076L209.0244625315032,48.531337339434316L209.30610816836952,51.9890176628646L209.75674118735566,50.870071476843236L210.06655138790862,46.13412097390375L210.1510450789685,46.00404160684772L210.573513534268,48.611189676569865L210.85515917113432,48.40699930385554L210.88332373482098,48.77220204216454L211.02414655325413,45.92743740961913L211.05231111694076,43.76541628888461L211.19313393537394,48.01999336292903L211.2494630627472,47.85361300889221L211.36212131749375,54.744946067171654L211.39028588118038,54.16724745908759L211.418450444867,52.52552612197272L211.8409189001665,52.24920672545137L212.03807084597292,53.77382549168415L212.06623540965955,50.76944413580745L212.17889366440608,53.48182269632528L212.23522279177936,57.83293040461828L212.48870386495904,56.7685264515147L212.60136211970556,53.04541686527865L212.68585581076547,53.338172293399495L213.41813446661794,57.723756098394674L213.44629903030457,65.21989140840466L213.69978010348427,57.733832724926L213.78427379454416,52.73827672851783L213.8969320492907,52.063972884907855L213.9814257403506,46.34763744099723L214.26307137721693,43.043995408178546L214.29123594090356,42.26784897082538L214.3194005045902,42.37182628147258L214.34756506827685,47.515943452006326L214.48838788671,47.054226690205695L214.65737526882978,50.658257437667956L214.77003352357633,45.973142304130505L214.82636265094956,46.922470722373475L215.2769956699357,52.22336032483703L215.4459830520555,52.71340932266388L215.47414761574214,63.49357366795607L215.69946412523518,57.11567984522068L215.868451507355,63.71698055143902L216.00927432578817,59.367014885774566L216.23459083528124,57.10181388442295L216.43174278108765,56.42103402794916L216.71338841795398,66.3113684439729L217.22035056431338,68.62415807738388L217.44566707380648,65.17801561459946L218.093452038599,66.72203702250668L218.29060398440544,65.29356200042777L218.45959136652525,70.97294389394982L218.54408505758514,63.98945624197846L219.41718653187075,55.41100479237086L219.44535109555738,50.972927499775935L219.89598411454352,53.844626184724234L219.92414867823015,60.19020686490829L220.20579431509648,55.9928182809756L220.29028800615637,57.13935575686416L220.34661713352966,50.72531584525585L220.65642733408262,49.07703938409982L220.82541471620237,47.408040887235956L220.9099084072623,53.216856229710416L221.0225666620088,57.63155588999098L221.47319968099495,56.52627371128267L221.52952880836824,60.146713175985894L221.55769337205487,61.85747426460695L221.6703516268014,87.09542755809709L221.75484531786128,79.2161804199415L221.81117444523457,80.51336098822685L221.89566813629446,76.29535563594693L222.20547833684742,67.43976068409987L222.31813659159394,66.35941940481042L222.6279467921469,67.02517735986088L222.71244048320682,68.81972855194095L223.27573175693948,69.4897388548862L223.50104826643252,63.33800087141887L223.78269390329885,58.78162608806102L223.81085846698548,58.7384642072675L224.12066866753847,61.82797795293435L224.76845363233102,60.845535492788315L224.9092764507642,61.347808259413654L225.38807403343694,56.87259534079968L225.8668716161097,56.59375223631328L226.0358589982295,56.65936975496369L226.09218812560277,64.41095778739711L226.62731483564878,58.407618319202L226.65547939933543,57.413445398381214L226.76813765408195,58.73941978766426L226.88079590882847,57.66561451441254L226.99345416357502,52.68643088852764" style="fill: none;" fill="none"></path></g></g></g></g><g opacity="0.2"><g><g><g><path stroke="rgb(238, 51, 119)" stroke-width="2px" d="M4.2962490933683295,167.01561298748257L4.662388421294558,167.01561298748257L4.831375803414355,167.01561298748257L5.282008822400483,167.01561298748257L5.338337949773749,167.01561298748257L5.422831640833647,167.01561298748257L5.648148150326711,166.1483023346563L5.73264184138661,165.28099168183005L6.155110296686104,160.94443841769873L6.239603987746002,167.01561298748257L6.802895261478662,149.66939993095727L7.0282117709717244,160.5107833437062L7.140870025718257,158.34250645921992L7.704161299450916,132.323186874432L8.070300627377144,148.8020887732898L8.520933646363272,147.06746847731972L8.60542733742317,145.33284616198475L8.858908410602867,144.46553500431725L9.168718611155828,145.33284616198475L9.309541429588995,138.39436093937462L9.36587055696226,147.9347796349872L9.394035120648894,147.9347796349872L9.506693375395423,140.99629441237707L9.985490958068183,158.34250645921992L10.436123977054311,140.1289832547096L10.60511135917411,137.52704978170715L10.745934177607273,154.00595369992982L11.168402632906767,145.33284616198475L11.337390015026566,140.99629441237707L11.478212833459729,152.560435776939L11.675364779266161,147.06746847731972L11.788023034012694,147.9347796349872L11.84435216138596,147.9347796349872L12.379478871431983,150.53671108862477L12.830111890418111,147.9347796349872L12.886441017791377,147.9347796349872L13.111757527284443,144.46553500431725L13.449732291524036,151.40402123660982L13.703213364703732,140.99629441237707L13.928529874196798,136.65974064340452L14.379162893182922,142.73091470834717L14.491821147929455,147.06746847731972L16.012707587007636,167.01561298748257L16.040872150694266,144.46553500431725L16.519669733367028,142.73091470834717L16.604163424426925,146.20015731965222L16.688657115486826,136.65974064340452L17.111125570786317,142.73091470834717L17.19561926184622,138.8280175278908L17.22378382553285,134.92511832806957L17.50542946239918,114.97697583727157L17.98422704507194,136.65974064340452L18.040556172445207,127.98663310545945L18.6320120098645,134.05780918976694L18.716505700924397,139.2616720970421L19.110809592537258,138.39436093937462L19.251632410970423,143.59822586601464L19.843088248389716,145.33284616198475L20.01207563050951,142.73091470834717L20.29372126737584,129.72125542079442L20.46270864949564,139.2616720970421L20.519037776868906,147.9347796349872L20.65986059530207,146.20015731965222L20.688025158988705,136.65974064340452L21.1104936142882,142.73091470834717L21.61745576064759,142.73091470834717L21.673784888020855,132.323186874432L22.01175965226045,140.99629441237707L22.208911598066884,134.05780918976694L22.237076161753514,138.8280175278908L22.29340528912678,134.05780918976694L22.377898980186682,149.66939993095727L22.434228107559946,122.7827701981843L22.77220287179954,123.6500793364869L23.053848508665872,138.8280175278908L23.391823272905466,132.323186874432L23.53264609133863,135.79242948573705L24.26492474719109,139.55077648938624L24.37758300193762,158.34250645921992L24.49024125668415,123.6500793364869L24.518405820370784,122.7827701981843L24.715557766177213,143.8873282389939L24.96903883935691,120.18083874454672L25.08169709410344,119.31352556751436L25.194355348849975,126.25201079012447L25.33517816728314,138.10525856639538L25.44783642202967,129.72125542079442L25.70131749520937,129.43215102845028L25.813975749955897,140.99629441237707L25.870304877329165,126.25201079012447L25.92663400470243,133.19049803209947L26.123785950508864,131.45587773612937L26.264608768942026,149.66939993095727L26.320937896315293,132.323186874432L26.461760714748454,121.91545702115194L26.51808984212172,119.31352556751436L26.630748096868253,126.25201079012447L26.743406351614787,120.7590434905052L26.912393733734586,145.33284616198475L26.940558297421216,132.323186874432L27.588343262213776,123.6500793364869L27.701001516960307,131.45587773612937L28.630432118619193,123.6500793364869L28.827584064425622,131.45587773612937L28.99657144654542,140.99629441237707L29.390875338158285,122.7827701981843L29.503533592904812,135.79242948573705L29.700685538711245,123.6500793364869L29.757014666084512,140.99629441237707L29.926002048204307,129.43215102845028L29.982331175577574,132.323186874432L30.376635067190435,106.30386829932648L30.40479963087707,115.84428497557417L30.686445267743398,128.85394628249182L30.770938958803296,122.7827701981843L31.024420031982995,119.31352556751436L31.137078286729526,118.44621642921174L31.249736541476054,136.65974064340452L31.503217614655753,128.85394628249182L31.531382178342387,124.51739251351927L31.700369560462185,124.51739251351927L31.728534124148815,126.25201079012447L31.869356942581984,132.323186874432L32.20733170682158,132.323186874432L32.37631908894137,132.323186874432L32.46081278000127,123.6500793364869L32.71429385318097,149.66939993095727L33.024104053733936,125.38470165182187L33.55923076377996,134.92511832806957L33.925370091706185,167.01561298748257L34.09435747382598,113.2423535219366L34.178851164885884,141.86360355067967L34.235180292259145,122.7827701981843L34.34783854700568,124.51739251351927L34.51682592912548,106.30386829932648L34.657648747558646,121.91545702115194L34.93929438442497,109.77310889126666L35.10828176654477,80.28454568549122L35.249104584977935,108.90579975296406L35.530750221844265,127.11932396715684L35.67157304027743,119.31352556751436L36.71366189668285,127.98663310545945L36.82632015142938,121.48180245200064L36.854484715116016,117.8680076445235L36.882649278802646,132.323186874432L37.38961142516204,122.7827701981843L37.727586189401634,117.57890729090914L37.75575075308827,126.25201079012447L37.92473813520807,121.48180245200064L38.1218900810145,119.31352556751436L38.85416873686695,104.56924598399151L38.91049786424022,108.90579975296406L39.19214350110654,97.6307607613814L39.50195370165951,114.10966266023921L39.586447392719414,112.37504034490424L39.670941083779304,97.6307607613814L40.234232357511964,88.95765322343631L40.40321973963176,114.97697583727157L40.60037168543819,109.77310889126666L40.769359067557986,103.7019368456889L41.05100470442432,101.96731453035393L41.21999208654412,114.97697583727157L41.30448577760402,106.30386829932648L41.614295978156974,140.99629441237707L41.69878966921688,119.31352556751436L41.783283360276776,110.64042206829903L41.811447923963414,117.8680076445235L43.16334698092179,102.83462366865653L43.24784067198169,136.65974064340452L43.33233436304159,107.17117743762908L43.360498926728226,123.6500793364869L43.980119327834146,80.28454568549122L44.31809409207374,120.7590434905052L44.37442321944701,101.96731453035393L44.48708147419354,115.84428497557417L44.59973972894007,114.97697583727157L44.71239798368661,110.64042206829903L45.41651207585243,106.30386829932648L45.44467663953906,114.97697583727157L45.75448684009203,100.52179660736309L45.97980334958509,119.31352556751436L46.09246160433162,117.8680076445235L46.148790731704885,138.10525856639538L46.62758831437765,114.97697583727157L47.050056769677134,112.37504034490424L47.16271502442367,119.31352556751436L47.86682911658949,106.30386829932648L48.317462135575624,107.17117743762908L48.345626699262255,102.83462366865653L48.76809515456175,112.08593999128988L48.880753409308284,109.55628160669102L49.134234482487976,111.50773120660163L49.33138642829441,114.97697583727157L49.35955099198104,118.44621642921174L49.72569031990727,107.17117743762908L49.979171393086965,115.84428497557417L50.11999421152013,101.48547387644707L50.260817029953294,122.7827701981843L50.34531072101319,132.323186874432L50.48613353944636,103.7019368456889L50.57062723050626,109.77310889126666L50.90860199474585,108.90579975296406L51.13391850423891,123.6500793364869L51.331070450045345,106.30386829932648L51.52822239585177,110.64042206829903L51.78170346903148,100.52179660736309L51.894361723778005,116.90433037543953L51.92252628746464,114.97697583727157L51.95069085115127,91.848689069418L52.00701997852453,114.97697583727157L52.09151366958444,103.41283245334479L52.28866561539087,101.96731453035393L52.54214668857056,102.83462366865653L52.82379232543689,110.64042206829903L52.936450580183426,114.97697583727157L52.99277970755669,95.89614248477619L53.07727339861658,114.97697583727157L53.21809621704975,62.938338687060565L53.30258990810965,107.17117743762908L53.33075447179628,123.6500793364869L53.35891903548292,97.6307607613814L53.89404574552894,87.22303494683109L54.14752681870864,117.57890729090914L54.31651420082844,102.83462366865653L54.51366614663487,110.64042206829903L54.5418307103215,88.95765322343631L54.79531178350119,132.323186874432L54.99246372930763,97.6307607613814L55.33043849354723,158.34250645921992L55.58391956672692,98.498069899684L55.696577821473454,118.44621642921174L55.97822345833978,106.30386829932648L56.09088171308631,107.17117743762908L56.34436278626601,110.64042206829903L56.71050211419224,106.30386829932648L56.794995805252135,89.82496236173891L56.96398318737193,119.31352556751436L57.020312314745205,106.30386829932648L57.97790748009072,97.6307607613814L58.146894862210516,102.83462366865653L58.62569244488328,101.34780569514936L58.682021572256545,104.56924598399151L58.73835069962981,81.15185482379384L58.90733808174961,90.69227957750104L58.991831772809505,112.37504034490424L59.04816090018277,106.30386829932648L59.555123046542164,114.97697583727157L59.94942693815503,109.19490414530819L60.005756065528296,94.16151613071146L60.51271821188769,112.49894453518301L60.62537646663422,167.01561298748257L60.850692976127284,94.7397249153997L61.329490558800046,132.323186874432L61.49847794091984,88.95765322343631L62.174427469399035,101.96731453035393L62.512402233638625,100.52179660736309L62.54056679732526,86.06661737745462L62.62506048838515,132.323186874432L62.65322505207178,100.23269221501896L62.70955417944506,106.30386829932648L62.76588330681832,107.17117743762908L62.87854156156485,111.50773120660163L62.99119981631138,112.08593999128988L63.132022634744544,97.6307607613814L63.18835176211782,80.28454568549122L63.610820217417306,62.938338687060565L64.56841538276282,101.96731453035393L64.68107363750936,106.30386829932648L64.73740276488263,82.01917203955594L64.8782255833158,97.6307607613814L65.13170665649548,80.28454568549122L65.35702316598855,98.86977843179055L65.46968142073509,104.56924598399151L65.75132705760142,62.938338687060565L65.80765618497468,107.74938622231734L65.86398531234795,95.02882526901406L65.89214987603458,102.83462366865653L66.00480813078111,90.69227957750104L66.089301821841,114.97697583727157L66.31461833133407,109.19490414530819L66.42727658608061,97.6307607613814L66.82158047769346,112.8086989527853L66.99056785981325,106.30386829932648L67.13139067824643,88.95765322343631L67.15955524193306,106.30386829932648L67.21588436930632,112.37504034490424L67.30037806036623,97.6307607613814L67.35670718773949,129.43215102845028L67.41303631511276,97.6307607613814L67.44120087879939,103.7019368456889L67.63835282460582,83.17558153147291L67.72284651566572,123.6500793364869L67.86366933409889,99.36538307671637L68.39879604414492,103.7019368456889L68.68044168101125,94.16151613071146L68.84942906313103,108.03848657593169L69.01841644525084,114.97697583727157L69.13107469999737,84.62109945446376L69.159239263684,104.56924598399151L69.46904946423696,83.17558153147291L69.4972140279236,62.938338687060565L69.9196824832231,95.89614248477619L70.20132812008941,84.62109945446376L70.45480919326913,88.95765322343631L70.93360677594187,104.1355914148402L71.44056892230127,94.16151613071146L71.46873348598791,91.55958871580364L71.52506261336117,91.848689069418L71.8067082502275,114.97697583727157L71.91936650497404,80.28454568549122L72.45449321502005,71.61143814754612L72.76430341557301,83.17558153147291L72.98961992506608,167.01561298748257L73.15860730718587,88.0903440851337L73.1867718708725,91.55958871580364L73.24310099824578,114.97697583727157L73.29943012561904,106.30386829932648L73.4402529440522,91.848689069418L74.14436703621803,106.30386829932648L74.17253159990466,167.01561298748257L74.45417723677099,84.62109945446376L74.51050636414425,70.52730576339764L74.65132918257741,79.41723654718862L75.04563307419028,101.96731453035393L75.21462045631009,98.498069899684L75.41177240211651,88.95765322343631L75.46810152948977,86.3557258085285L75.89056998478927,114.97697583727157L76.0032282395358,114.97697583727157L76.05955736690906,71.61143814754612L76.4256966948353,91.12593414665233L76.7636714590749,119.31352556751436L77.10164622331449,78.83902776250038L77.12981078700113,123.6500793364869L77.15797535068775,167.01561298748257L77.38329186018082,92.42689785410624L77.55227924230061,62.938338687060565L78.03107682497337,106.30386829932648L78.20006420709318,88.95765322343631L78.22822877077981,90.40317114642716L78.45354528027288,88.95765322343631L78.62253266239266,97.6307607613814L78.79152004451247,167.01561298748257L78.93234286294563,140.99629441237707L79.58012782773818,93.29420699240886L79.63645695511144,91.848689069418L79.77727977354462,81.36868614709924L79.91810259197779,75.94799191651869L80.28424191990402,102.83462366865653L80.48139386571044,99.79903764586767L80.90386232100994,64.1773482800102L81.24183708524954,88.95765322343631L81.32633077630942,99.36538307671637L81.7206346679223,87.22303494683109L81.74879923160893,71.61143814754612L81.80512835898219,81.15185482379384L82.70639439695445,77.39350983950953L82.73455896064107,80.28454568549122L82.76272352432771,77.39350983950953L82.95987547013414,167.01561298748257L83.26968567068711,92.42689785410624L83.69215412598659,101.96731453035393L83.7766478170465,69.00951073263832L83.83297694441976,91.848689069418L84.67791385501876,94.16151613071146L85.04405318294498,95.46248791562488L85.29753425612466,97.6307607613814L85.55101532930438,71.61143814754612L85.72000271142417,108.03848657593169L85.8326609661707,123.6500793364869L86.31145854884346,84.62109945446376L86.36778767621674,68.72040230156443L86.39595223990335,71.61143814754612L86.42411680359,101.96731453035393L86.73392700414296,71.61143814754612L87.24088915050235,89.82496236173891L87.71968673317511,76.81530105482128L87.94500324266816,80.28454568549122L88.59278820746074,71.61143814754612L88.84626928064043,88.0903440851337L88.90259840801369,88.95765322343631L88.95892753538696,72.8504558179553L89.0715857901335,97.6307607613814L89.09975035382013,167.01561298748257L89.40956055437307,76.81530105482128L89.49405424543298,93.29420699240886L89.71937075492605,65.82936645558274L89.80386444598595,85.24060828966833L90.05734551916565,114.97697583727157L90.47981397446515,62.938338687060565L90.59247222921167,97.6307607613814L90.64880135658494,80.28454568549122L91.07126981188443,88.95765322343631L91.43740913981065,81.15185482379384L92.08519410460322,94.7397249153997L92.50766255990271,62.938338687060565L92.53582712358934,108.47214518381276L92.73297906939577,91.12593414665233L92.87380188782893,93.29420699240886L93.0146247062621,80.28454568549122L93.12728296100863,80.28454568549122L93.1836120883819,92.67469815720428L93.63424510736803,167.01561298748257L93.94405530792099,71.61143814754612L94.14120725372742,69.44316530178962L94.16937181741406,81.15185482379384L94.36652376322048,81.73006360848207L94.45101745428039,114.97697583727157L95.12696698275958,86.78938037767979L95.21146067381946,88.95765322343631L95.40861261962591,97.6307607613814L95.4931063106858,91.848689069418L95.52127087437243,80.28454568549122L95.5776000017457,106.30386829932648L95.60576456543234,97.6307607613814L96.16905583916498,62.938338687060565L96.30987865759815,45.59212361117039L96.56335973077785,74.50247399352781L96.61968885815112,69.44316530178962L97.23930925925704,74.50247399352781L97.46462576875011,65.82936645558274L97.85892966036296,76.56750075172326L97.8870942240496,70.74412900924354L98.02791704248277,67.27488437857359L98.16873986091593,80.28454568549122L98.36589180672236,76.81530105482128L99.18266415363472,79.41723654718862L99.23899328100799,97.6307607613814L99.29532240838125,62.938338687060565L99.52063891787432,80.28454568549122L99.99943650054706,80.28454568549122L100.14025931898023,167.01561298748257L100.75987972008616,70.74412900924354L100.84437341114607,104.1355914148402L100.98519622957923,97.6307607613814L101.18234817538566,74.50247399352781L101.29500643013219,80.28454568549122L101.35133555750545,82.88648117785856L101.52032293962526,58.601784918088015L101.54848750331189,71.61143814754612L101.71747488543168,100.52179660736309L101.91462683123811,80.28454568549122L102.08361421335792,70.74412900924354L102.16810790441781,75.94799191651869L102.64690548709056,80.28454568549122L102.70323461446382,67.27488437857359L102.98488025133017,80.28454568549122L103.06937394239006,54.26523114911548L103.2665258881965,93.29420699240886L103.71715890718262,75.08068277821607L103.7734880345559,68.1422015943357L103.94247541667569,67.27488437857359L104.05513367142221,82.01917203955594L104.11146279879549,106.30386829932648L104.50576669040835,68.72040230156443L104.9845642730811,82.45282660870724L105.32253903732071,84.62109945446376L105.54785554681376,86.06661737745462L106.05481769317316,78.549927408886L106.11114682054642,54.26523114911548L106.16747594791968,57.15626699509717L106.25196963897959,66.40757524027097L106.33646333003949,83.17558153147291L106.81526091271223,62.938338687060565L107.12507111326521,45.59212361117039L107.15323567695184,78.549927408886L107.51937500487807,114.97697583727157L108.36431191547705,80.28454568549122L108.42064104285033,106.30386829932648L109.09659057132951,89.92133453125004L109.20924882607605,42.7010877651887L109.26557795344931,49.92867738014293L109.43456533556912,90.69227957750104L109.51905902662901,71.61143814754612L109.57538815400228,64.67295696366577L109.82886922718197,82.88648117785856L110.02602117298841,75.08068277821607L110.39216050091463,71.61143814754612L110.6174770104077,62.938338687060565L110.98361633833393,60.04730284107886L111.03994546570719,106.30386829932648L111.1244391567671,80.28454568549122L111.46241392100669,65.82936645558274L111.57507217575322,84.00159061925919L111.71589499418639,55.9998494257207L111.77222412155965,100.52179660736309L112.05386975842598,45.59212361117039L112.16652801317251,54.26523114911548L112.53266734109874,78.1162728397347L112.98330036008485,54.26523114911548L113.12412317851803,75.94799191651869L113.32127512432446,69.87681987094092L114.02538921649028,73.34606450161085L114.05355378017691,71.61143814754612L114.27887028966998,62.938338687060565L114.56051592653631,76.81530105482128L114.78583243602937,71.61143814754612L114.98298438183579,54.26523114911548L115.09564263658234,45.59212361117039L115.40545283713529,75.94799191651869L115.5744402192551,74.50247399352781L115.74342760137489,59.46909405639063L116.36304800248081,68.72040230156443L116.67285820303377,59.46909405639063L116.81368102146693,70.74412900924354L117.06716209464663,88.95765322343631L117.09532665833326,68.1422015943357L117.40513685888622,74.50247399352781L117.43330142257287,71.61143814754612L117.74311162312583,36.91901607322529L117.82760531418572,60.04730284107886L118.10925095105206,114.97697583727157L118.13741551473869,60.77005776384452L118.16558007842532,76.81530105482128L119.4329854443238,49.92867738014293L119.57380826275697,71.61143814754612L119.6019728264436,77.6826182705834L119.88361846330993,80.28454568549122L121.93963161243413,77.80651842213241L122.2494418129871,88.95765322343631L122.27760637667373,54.26523114911548L122.33393550404699,54.26523114911548L122.39026463142025,59.46909405639063L122.47475832248016,32.58246230425277L122.5029228861668,101.96731453035393L122.55925201354006,80.28454568549122L123.20703697833261,69.87681987094092L123.34785979676577,64.67295696366577L123.43235348782568,62.938338687060565L123.65766999731875,101.96731453035393L123.96748019787171,80.28454568549122L124.2209612710514,62.07102147129844L124.3054549621113,62.938338687060565L124.33361952579794,74.08947348836445L124.75608798109742,75.3284830813141L125.20672100008356,69.00951073263832L125.37570838220336,97.6307607613814L125.48836663694989,77.6826182705834L125.74184771012959,83.17558153147291L125.79817683750285,65.54026610196838L126.05165791068254,80.28454568549122L126.16431616542909,-6.446521616500149L126.33330354754888,72.8504558179553L126.47412636598204,66.40757524027097L127.09374676708796,83.75379031616116L127.2064050218345,67.27488437857359L127.45988609501418,75.08068277821607L127.88235455031369,74.50247399352781L128.07950649612013,64.67295696366577L128.2484938782399,51.374195303133774L128.36115213298643,167.01561298748257L128.3893166966731,69.87681987094092L128.9244434067191,71.61143814754612L128.95260797040575,80.28454568549122L129.008937097779,88.95765322343631L129.1779244798988,45.59212361117039L129.2624181709587,48.483159457152084L130.02286139049778,83.17558153147291L130.1918487726176,81.73006360848207L130.30450702736414,77.39350983950953L130.389000718424,62.938338687060565L130.61431722791707,167.01561298748257L130.67064635529036,71.61143814754612L131.1494439379631,71.61143814754612L131.17760850164976,84.62109945446376L131.71273521169576,64.67295696366577L131.7408997753824,93.29420699240886L131.8253934664423,78.83902776250038L132.07887453962198,80.28454568549122L132.30419104911505,84.62109945446376L132.36052017648834,75.08068277821607L132.38868474017497,68.72040230156443L132.81115319547445,42.7010877651887L133.09279883234078,68.1422015943357L133.17729252340067,68.72040230156443L133.48710272395363,60.33640319469323L133.57159641501354,80.28454568549122L133.6279255423868,39.810051919206984L133.6842546697601,45.59212361117039L134.02222943399968,69.87681987094092L134.50102701667242,65.82936645558274L134.92349547197193,61.492820764069705L135.0924828540917,54.26523114911548L135.28963479989815,114.97697583727157L135.51495130939122,77.39350983950953L135.62760956413774,67.27488437857359L135.82476150994418,62.938338687060565L135.8529260736308,64.67295696366577L135.88109063731744,49.92867738014293L136.16273627418377,97.6307607613814L136.89501493003624,67.27488437857359L137.0358377484694,86.06661737745462L137.48647076745553,36.91901607322529L137.62729358588868,61.20371233299582L137.7962809680085,74.21337363991347L137.908939222755,54.26523114911548L137.93710378644164,65.54026610196838L138.1624202959347,73.34606450161085L138.24691398699463,28.245908535280222L138.27507855068126,54.26523114911548L138.33140767805452,39.810051919206984L138.4159013691144,54.26523114911548L138.6693824422941,61.20371233299582L138.78204069704063,45.59212361117039L138.89469895178715,69.00951073263832L138.97919264284707,64.1773482800102L139.00735720653373,67.27488437857359L139.17634458865348,114.97697583727157L139.3453319707733,114.97697583727157L139.40166109814658,55.9998494257207L139.48615478920644,66.40757524027097L140.47191451823863,83.17558153147291L140.8098892824782,69.00951073263832L141.34501599252425,88.95765322343631L141.40134511989748,80.28454568549122L141.85197813888362,84.62109945446376L141.93647182994354,10.899693459390022L141.99280095731677,69.87681987094092L142.02096552100343,58.601784918088015L142.55609223104943,74.50247399352781L143.23204175952864,95.15273349802258L143.31653545058853,65.82936645558274L143.68267477851478,62.938338687060565L143.90799128800782,47.037641534161224L144.16147236118752,80.28454568549122L144.24596605224744,62.938338687060565L144.30229517962067,71.61143814754612L144.33045974330733,106.30386829932648L144.7247636349202,54.26523114911548L144.95008014441325,61.20371233299582L145.56970054551917,10.899693459390022L145.73868792763898,88.95765322343631L145.82318161869887,88.95765322343631L146.0203335645053,54.26523114911548L146.38647289243153,86.78938037767979L146.4428020198048,62.07102147129844L146.47096658349145,54.26523114911548L146.66811852929786,63.80564782536317L147.17508067565726,48.1940510260782L147.6257136946434,69.00951073263832L147.82286564044983,73.05695607053697L147.96368845888298,80.28454568549122L147.9918530225696,54.26523114911548L148.1608404046894,54.26523114911548L148.52697973261564,61.20371233299582L148.5833088599889,81.73006360848207L148.75229624210868,42.7010877651887L149.48457489796115,58.601784918088015L149.6253977163943,71.61143814754612L149.99153704432055,66.40757524027097L150.10419529906707,54.26523114911548L150.6111574454265,71.61143814754612L150.83647395491954,49.061360164380815L151.48425891971212,68.72040230156443L151.56875261077198,97.6307607613814L151.59691717445864,58.601784918088015L151.70957542920516,80.28454568549122L151.7377399928918,67.27488437857359L151.8503982476383,68.1422015943357L152.47001864874426,68.1422015943357L153.11780361353678,60.04730284107886L153.48394294146303,48.483159457152084L153.93457596044917,57.15626699509717L154.24438616100213,73.34606450161085L154.69501917998826,36.91901607322529L154.77951287104815,106.30386829932648L155.08932307160111,54.26523114911548L155.11748763528774,59.46909405639063L155.20198132634764,49.92867738014293L155.6807789090204,64.67295696366577L155.79343716376692,88.95765322343631L156.35672843749958,65.10661153281708L156.41305756487287,74.21337363991347L156.80736145648572,51.374195303133774L156.94818427491887,57.73446770232589L157.34248816653175,80.28454568549122L157.37065273021838,97.6307607613814L157.42698185759164,83.75379031616116L157.5678046760248,88.95765322343631L158.35641245925055,71.61143814754612L158.60989353243022,28.245908535280222L158.80704547823666,97.6307607613814L158.91970373298318,66.40757524027097L159.088691115103,69.87681987094092L159.2576784972228,62.07102147129844L159.39850131565595,67.27488437857359L159.48299500671584,84.62109945446376L159.53932413408913,72.47875536330825L159.9617925893886,57.15626699509717L160.2152736625683,62.07102147129844L160.44059017206138,51.374195303133774L160.91938775473412,60.04730284107886L161.0602105731673,65.10661153281708L161.11653970054056,65.82936645558274L161.45451446478017,45.59212361117039L161.5108435921534,77.39350983950953L161.67983097427322,54.26523114911548L162.0178057385128,45.59212361117039L162.15862855694598,167.01561298748257L162.44027419381231,53.39791393335335L162.72191983067864,62.938338687060565L163.2007174133514,88.95765322343631L163.51052761390437,36.91901607322529L163.5668567412776,64.67295696366577L163.67951499602418,59.46909405639063L164.01748976026374,53.39791393335335L164.10198345132366,81.73006360848207L165.2567305624756,28.245908535280222L165.3412242535355,53.39791393335335L165.45388250828202,43.85749725710565L165.8481863998949,71.61143814754612L166.15799660044786,62.938338687060565L166.35514854625427,51.374195303133774L166.5523004920607,80.28454568549122L166.83394612892704,63.80564782536317L166.91843981998696,54.26523114911548L167.05926263842014,47.3267418877756L167.2000854568533,61.20371233299582L167.36907283897307,65.82936645558274L167.70704760321266,59.46909405639063L167.73521216689932,42.99018811880305L168.21400974957209,61.20371233299582L168.29850344063195,62.938338687060565L168.4956553864384,42.99018811880305L168.83363015067798,66.40757524027097L169.25609860597748,36.91901607322529L169.31242773335075,71.61143814754612L169.50957967915718,62.938338687060565L169.7912253160235,66.40757524027097L170.01654182551655,78.83902776250038L170.07287095288984,45.59212361117039L170.1292000802631,86.78938037767979L170.27002289869628,106.30386829932648L170.52350397187595,45.59212361117039L170.80514960874228,45.59212361117039L170.83331417242894,70.74412900924354L171.11495980929527,52.53060479505075L171.2276180640418,86.3557258085285L171.25578262772842,45.59212361117039L171.79090933777442,78.549927408886L171.9317321562076,50.795986518445545L171.9880612835809,77.39350983950953L172.1007195383274,64.67295696366577L172.35420061150708,65.82936645558274L172.8611627578665,55.13254028741808L173.42445403159914,85.48840859276638L173.56527685003232,28.245908535280222L173.81875792321202,53.39791393335335L173.9877453053318,45.59212361117039L174.01590986901843,65.10661153281708L174.0440744327051,52.819713226124634L174.12856812376498,10.899693459390022L174.2130618148249,41.25556984219784L174.83268221593082,63.80564782536317L175.31147979860356,48.483159457152084L175.3396443622902,58.601784918088015L175.4523026170367,75.94799191651869L175.5931254354699,36.91901607322529L175.79027738127633,167.01561298748257L176.043758454456,60.04730284107886L176.10008758182929,51.66329565674813L176.38173321869562,68.1422015943357L176.55072060081542,60.33640319469323L176.60704972818868,32.58246230425277L176.77603711030847,73.34606450161085L176.83236623768175,45.59212361117039L176.888695365055,54.26523114911548L177.2266701292946,41.25556984219784L177.28299925666786,43.85749725710565L177.33932838404115,75.94799191651869L177.9871133488337,71.61143814754612L178.09977160358022,28.245908535280222L178.24059442201337,10.899693459390022L178.3250881130733,49.061360164380815L178.77572113205943,17.40452007411909L179.05736676892576,71.61143814754612L179.0855313326124,167.01561298748257L179.14186045998562,48.1940510260782L179.31084784210543,73.77971907076217L179.47983522422524,54.26523114911548L179.67698717003168,54.26523114911548L179.81780998846486,10.899693459390022L180.01496193427127,66.40757524027097L180.18394931639105,60.04730284107886L180.5500886443173,43.423842687954334L180.7472405901237,94.7397249153997L181.28236730016977,36.91901607322529L181.8456585739024,114.97697583727157L181.9301522649623,54.26523114911548L182.04281051970887,55.710749072106324L182.07097508339547,19.572800997335122L182.2681270292019,60.33640319469323L182.74692461187468,54.26523114911548L183.05673481242764,66.40757524027097L183.3665450129806,58.601784918088015L183.563696958787,64.67295696366577L183.73268434090681,19.572800997335122L184.408633869386,68.72040230156443L185.05641883417857,61.20371233299582L185.73236836265775,73.77971907076217L185.95768487215082,54.26523114911548L186.07034312689734,57.15626699509717L186.4364824548236,-6.446521616500149L186.74629265537655,62.938338687060565L186.85895091012307,62.938338687060565L187.08426741961614,69.87681987094092L187.11243198330277,65.54026610196838L187.2250902380493,48.1940510260782L187.47857131122902,19.572800997335122L187.50673587491562,52.096950225899434L187.78838151178195,72.57511945535987L187.81654607546858,73.34606450161085L187.8447106391552,64.38384853259188L188.0700271486483,56.867158564023285L188.18268540339483,63.80564782536317L188.63331842238097,167.01561298748257L189.30926795086015,54.26523114911548L189.42192620560667,62.938338687060565L189.47825533297993,45.59212361117039L189.50641989666659,59.68591730223652L189.59091358772648,55.710749072106324L189.84439466090615,71.61143814754612L189.87255922459278,58.601784918088015L190.1260402977725,167.01561298748257L190.2105339888324,32.58246230425277L190.49217962569872,71.61143814754612L190.63300244413188,41.25556984219784L191.64692673685067,75.08068277821607L191.90040781003034,62.938338687060565L191.95673693740363,65.82936645558274L192.06939519215015,60.33640319469323L192.23838257426996,80.28454568549122L192.32287626532988,62.938338687060565L192.5200282111363,167.01561298748257L192.6045219021962,52.819713226124634L192.74534472062936,65.54026610196838L192.82983841168925,52.096950225899434L193.05515492118232,67.89439321377817L193.16781317592887,45.59212361117039L193.2804714306754,55.13254028741808L193.56211706754172,75.94799191651869L193.59028163122835,45.59212361117039L193.92825639546794,54.26523114911548L194.0409146502145,54.26523114911548L194.23806659602093,55.9998494257207L194.35072485076745,68.72040230156443L194.6605350513204,59.08362153326513L194.99850981555997,59.46909405639063L195.4491428345461,54.26523114911548L196.15325692671192,58.601784918088015L196.57572538201146,52.53060479505075L196.8010418915045,59.22128567583309L196.9700292736243,65.82936645558274L197.08268752837083,46.459432749472995L197.19534578311735,86.06661737745462L197.42066229261042,57.73446770232589L197.58964967473023,88.95765322343631L197.61781423841683,32.58246230425277L198.0966118210896,86.06661737745462L198.35009289426932,71.61143814754612L198.5190802763891,106.30386829932648L198.74439678588217,2.2265859214449506L198.82889047694206,48.483159457152084L198.94154873168858,57.73446770232589L199.22319436855494,68.72040230156443L199.44851087804798,31.71515316595014L199.53300456910787,88.95765322343631L199.92730846072075,68.72040230156443L200.0399667154673,49.92867738014293L200.26528322496034,167.01561298748257L200.34977691602026,88.95765322343631L200.51876429814007,114.97697583727157L201.02572644449944,62.938338687060565L201.0820555718727,54.26523114911548L201.5890177182321,62.938338687060565L201.70167597297865,45.59212361117039L201.78616966403854,31.71515316595014L202.20863811933802,30.847835950188028L202.29313181039794,41.25556984219784L202.40579006514446,45.59212361117039L202.6029420109509,51.66329565674813L202.96908133887712,61.20371233299582L203.13806872099693,59.46909405639063L203.53237261260978,59.46909405639063L203.87034737684937,60.04730284107886L204.0674993226558,65.54026610196838L204.29281583214888,6.5631477678770125L204.51813234164194,41.25556984219784L204.54629690532855,49.061360164380815L204.68711972376173,97.6307607613814L204.79977797850827,68.1422015943357L205.1659173064345,71.61143814754612L205.27857556118101,167.01561298748257L205.6728794527939,54.26523114911548L206.01085421703345,55.9998494257207L206.0390187807201,70.74412900924354L206.23617072652655,42.122878980500445L206.4614872360196,71.61143814754612L206.6304746181394,54.26523114911548L206.79946200025918,78.549927408886L206.99661394606565,43.85749725710565L207.05294307343888,49.92867738014293L207.3064241466186,54.26523114911548L207.36275327399184,49.92867738014293L207.3909178376785,28.245908535280222L207.9260445477245,55.13254028741808L208.01053823878442,49.061360164380815L208.26401931196412,35.18439779662009L208.63015863989034,42.122878980500445L208.9399688404433,55.9998494257207L209.0244625315032,49.92867738014293L209.30610816836952,62.938338687060565L209.75674118735566,47.3267418877756L210.06655138790862,31.136944381261912L210.1510450789685,45.59212361117039L210.573513534268,56.867158564023285L210.85515917113432,47.76039645692691L210.88332373482098,49.92867738014293L211.02414655325413,36.91901607322529L211.05231111694076,36.91901607322529L211.19313393537394,61.492820764069705L211.2494630627472,47.3267418877756L211.36212131749375,76.56750075172326L211.39028588118038,52.337868533488006L211.418450444867,47.3267418877756L211.8409189001665,51.374195303133774L212.03807084597292,58.601784918088015L212.06623540965955,41.25556984219784L212.17889366440608,62.07102147129844L212.23522279177936,71.61143814754612L212.48870386495904,53.39791393335335L212.60136211970556,41.25556984219784L212.68585581076547,54.26523114911548L213.41813446661794,71.61143814754612L213.44629903030457,88.95765322343631L213.69978010348427,34.0279802272436L213.78427379454416,36.91901607322529L213.8969320492907,49.92867738014293L213.9814257403506,28.245908535280222L214.26307137721693,32.58246230425277L214.29123594090356,39.810051919206984L214.3194005045902,42.7010877651887L214.34756506827685,63.80564782536317L214.48838788671,45.59212361117039L214.65737526882978,62.07102147129844L214.77003352357633,31.136944381261912L214.82636265094956,49.92867738014293L215.2769956699357,69.00951073263832L215.4459830520555,54.26523114911548L215.47414761574214,97.6307607613814L215.69946412523518,36.91901607322529L215.868451507355,84.62109945446376L216.00927432578817,45.59212361117039L216.23459083528124,49.92867738014293L216.43174278108765,54.26523114911548L216.71338841795398,97.6307607613814L217.22035056431338,75.94799191651869L217.44566707380648,54.26523114911548L218.093452038599,71.61143814754612L218.29060398440544,60.77005776384452L218.45959136652525,88.95765322343631L218.54408505758514,41.87507867740243L219.41718653187075,28.245908535280222L219.44535109555738,36.91901607322529L219.89598411454352,62.938338687060565L219.92414867823015,80.28454568549122L220.20579431509648,42.7010877651887L220.29028800615637,60.77005776384452L220.34661713352966,30.414189458496224L220.65642733408262,43.85749725710565L220.82541471620237,42.122878980500445L220.9099084072623,71.61143814754612L221.0225666620088,71.61143814754612L221.47319968099495,53.02621347870631L221.52952880836824,71.61143814754612L221.55769337205487,67.27488437857359L221.6703516268014,167.01561298748257L221.75484531786128,54.26523114911548L221.81117444523457,84.62109945446376L221.89566813629446,62.938338687060565L222.20547833684742,39.39704333658412L222.31813659159394,62.938338687060565L222.6279467921469,69.13341088418734L222.71244048320682,74.50247399352781L223.27573175693948,71.61143814754612L223.50104826643252,43.85749725710565L223.78269390329885,44.353105940761225L223.81085846698548,58.601784918088015L224.12066866753847,71.61143814754612L224.76845363233102,57.73446770232589L224.9092764507642,62.938338687060565L225.38807403343694,42.7010877651887L225.8668716161097,55.710749072106324L226.0358589982295,56.867158564023285L226.09218812560277,88.95765322343631L226.62731483564878,39.39704333658412L226.65547939933543,54.26523114911548L226.76813765408195,62.938338687060565L226.88079590882847,54.26523114911548L226.99345416357502,36.91901607322529" style="fill: none;" fill="none"></path></g></g></g></g></g></g><g transform="translate(58, 177)" clip-path="url(#clip_1)"><clipPath id="clip_1"><rect width="271" height="23"></rect></clipPath><g><g><line x1="4.155426274935165" y1="0" x2="4.155426274935165" y2="5" style="visibility: inherit;" fill="rgb(0, 0, 0)" stroke="rgb(204, 204, 204)" stroke-width="1px"></line><line x1="32.31998996156811" y1="0" x2="32.31998996156811" y2="5" style="visibility: inherit;" fill="rgb(0, 0, 0)" stroke="rgb(204, 204, 204)" stroke-width="1px"></line><line x1="60.48455364820106" y1="0" x2="60.48455364820106" y2="5" style="visibility: inherit;" fill="rgb(0, 0, 0)" stroke="rgb(204, 204, 204)" stroke-width="1px"></line><line x1="88.649117334834" y1="0" x2="88.649117334834" y2="5" style="visibility: inherit;" fill="rgb(0, 0, 0)" stroke="rgb(204, 204, 204)" stroke-width="1px"></line><line x1="116.81368102146693" y1="0" x2="116.81368102146693" y2="5" style="visibility: inherit;" fill="rgb(0, 0, 0)" stroke="rgb(204, 204, 204)" stroke-width="1px"></line><line x1="144.97824470809988" y1="0" x2="144.97824470809988" y2="5" style="visibility: inherit;" fill="rgb(0, 0, 0)" stroke="rgb(204, 204, 204)" stroke-width="1px"></line><line x1="173.1428083947328" y1="0" x2="173.1428083947328" y2="5" style="visibility: inherit;" fill="rgb(0, 0, 0)" stroke="rgb(204, 204, 204)" stroke-width="1px"></line><line x1="201.30737208136577" y1="0" x2="201.30737208136577" y2="5" style="visibility: inherit;" fill="rgb(0, 0, 0)" stroke="rgb(204, 204, 204)" stroke-width="1px"></line><line x1="229.47193576799873" y1="0" x2="229.47193576799873" y2="5" style="visibility: inherit;" fill="rgb(0, 0, 0)" stroke="rgb(204, 204, 204)" stroke-width="1px"></line><line x1="257.6364994546317" y1="0" x2="257.6364994546317" y2="5" style="visibility: inherit;" fill="rgb(0, 0, 0)" stroke="rgb(204, 204, 204)" stroke-width="1px"></line></g><g transform="translate(0, 8)"><text x="4.155426274935165" y="0" dx="0em" dy="0.95em" style="text-anchor: middle; visibility: inherit; font-family: &quot;Helvetica Neue&quot;, sans-serif; font-size: 12px; font-weight: 200;" fill="rgb(50, 49, 63)" stroke="none" stroke-width="1px">0</text><text x="32.31998996156811" y="0" dx="0em" dy="0.95em" style="text-anchor: middle; visibility: inherit; font-family: &quot;Helvetica Neue&quot;, sans-serif; font-size: 12px; font-weight: 200;" fill="rgb(50, 49, 63)" stroke="none" stroke-width="1px">1k</text><text x="60.48455364820106" y="0" dx="0em" dy="0.95em" style="text-anchor: middle; visibility: inherit; font-family: &quot;Helvetica Neue&quot;, sans-serif; font-size: 12px; font-weight: 200;" fill="rgb(50, 49, 63)" stroke="none" stroke-width="1px">2k</text><text x="88.649117334834" y="0" dx="0em" dy="0.95em" style="text-anchor: middle; visibility: inherit; font-family: &quot;Helvetica Neue&quot;, sans-serif; font-size: 12px; font-weight: 200;" fill="rgb(50, 49, 63)" stroke="none" stroke-width="1px">3k</text><text x="116.81368102146693" y="0" dx="0em" dy="0.95em" style="text-anchor: middle; visibility: inherit; font-family: &quot;Helvetica Neue&quot;, sans-serif; font-size: 12px; font-weight: 200;" fill="rgb(50, 49, 63)" stroke="none" stroke-width="1px">4k</text><text x="144.97824470809988" y="0" dx="0em" dy="0.95em" style="text-anchor: middle; visibility: inherit; font-family: &quot;Helvetica Neue&quot;, sans-serif; font-size: 12px; font-weight: 200;" fill="rgb(50, 49, 63)" stroke="none" stroke-width="1px">5k</text><text x="173.1428083947328" y="0" dx="0em" dy="0.95em" style="text-anchor: middle; visibility: inherit; font-family: &quot;Helvetica Neue&quot;, sans-serif; font-size: 12px; font-weight: 200;" fill="rgb(50, 49, 63)" stroke="none" stroke-width="1px">6k</text><text x="201.30737208136577" y="0" dx="0em" dy="0.95em" style="text-anchor: middle; visibility: inherit; font-family: &quot;Helvetica Neue&quot;, sans-serif; font-size: 12px; font-weight: 200;" fill="rgb(50, 49, 63)" stroke="none" stroke-width="1px">7k</text><text x="229.47193576799873" y="0" dx="0em" dy="0.95em" style="text-anchor: middle; visibility: inherit; font-family: &quot;Helvetica Neue&quot;, sans-serif; font-size: 12px; font-weight: 200;" fill="rgb(50, 49, 63)" stroke="none" stroke-width="1px">8k</text><text x="257.6364994546317" y="0" dx="0em" dy="0.95em" style="text-anchor: middle; visibility: inherit; font-family: &quot;Helvetica Neue&quot;, sans-serif; font-size: 12px; font-weight: 200;" fill="rgb(50, 49, 63)" stroke="none" stroke-width="1px">9k</text></g><line x1="0" y1="0" x2="271.40625" y2="0" fill="rgb(0, 0, 0)" stroke="rgb(204, 204, 204)" stroke-width="1px"></line></g></g></g></g></svg>