<svg viewBox="0 0 330 200" xmlns="http://www.w3.org/2000/svg"><g><g><g><g><g><line x1="48.875" y1="161.75453154819914" x2="43.875" y2="161.75453154819914" style="visibility: inherit;" fill="rgb(0, 0, 0)" stroke="rgb(204, 204, 204)" stroke-width="1px"></line><line x1="48.875" y1="145.3575825353321" x2="43.875" y2="145.3575825353321" style="visibility: inherit;" fill="rgb(0, 0, 0)" stroke="rgb(204, 204, 204)" stroke-width="1px"></line><line x1="48.875" y1="128.96063352246512" x2="43.875" y2="128.96063352246512" style="visibility: inherit;" fill="rgb(0, 0, 0)" stroke="rgb(204, 204, 204)" stroke-width="1px"></line><line x1="48.875" y1="112.56368450959809" x2="43.875" y2="112.56368450959809" style="visibility: inherit;" fill="rgb(0, 0, 0)" stroke="rgb(204, 204, 204)" stroke-width="1px"></line><line x1="48.875" y1="96.16673549673108" x2="43.875" y2="96.16673549673108" style="visibility: inherit;" fill="rgb(0, 0, 0)" stroke="rgb(204, 204, 204)" stroke-width="1px"></line><line x1="48.875" y1="79.76978648386407" x2="43.875" y2="79.76978648386407" style="visibility: inherit;" fill="rgb(0, 0, 0)" stroke="rgb(204, 204, 204)" stroke-width="1px"></line><line x1="48.875" y1="63.372837470997055" x2="43.875" y2="63.372837470997055" style="visibility: inherit;" fill="rgb(0, 0, 0)" stroke="rgb(204, 204, 204)" stroke-width="1px"></line><line x1="48.875" y1="46.97588845813004" x2="43.875" y2="46.97588845813004" style="visibility: inherit;" fill="rgb(0, 0, 0)" stroke="rgb(204, 204, 204)" stroke-width="1px"></line><line x1="48.875" y1="30.578939445263018" x2="43.875" y2="30.578939445263018" style="visibility: inherit;" fill="rgb(0, 0, 0)" stroke="rgb(204, 204, 204)" stroke-width="1px"></line><line x1="48.875" y1="14.181990432395992" x2="43.875" y2="14.181990432395992" style="visibility: inherit;" fill="rgb(0, 0, 0)" stroke="rgb(204, 204, 204)" stroke-width="1px"></line></g><g transform="translate(38.875, 0)"><text x="0" y="161.75453154819914" dx="0em" dy="0.3em" style="text-anchor: end; visibility: inherit; font-family: &quot;Helvetica Neue&quot;, sans-serif; font-size: 12px; font-weight: 200;" fill="rgb(50, 49, 63)" stroke="none" stroke-width="1px">0</text><text x="0" y="145.3575825353321" dx="0em" dy="0.3em" style="text-anchor: end; visibility: hidden; font-family: &quot;Helvetica Neue&quot;, sans-serif; font-size: 12px; font-weight: 200;" fill="rgb(50, 49, 63)" stroke="none" stroke-width="1px">0.05</text><text x="0" y="128.96063352246512" dx="0em" dy="0.3em" style="text-anchor: end; visibility: inherit; font-family: &quot;Helvetica Neue&quot;, sans-serif; font-size: 12px; font-weight: 200;" fill="rgb(50, 49, 63)" stroke="none" stroke-width="1px">0.1</text><text x="0" y="112.56368450959809" dx="0em" dy="0.3em" style="text-anchor: end; visibility: hidden; font-family: &quot;Helvetica Neue&quot;, sans-serif; font-size: 12px; font-weight: 200;" fill="rgb(50, 49, 63)" stroke="none" stroke-width="1px">0.15</text><text x="0" y="96.16673549673108" dx="0em" dy="0.3em" style="text-anchor: end; visibility: inherit; font-family: &quot;Helvetica Neue&quot;, sans-serif; font-size: 12px; font-weight: 200;" fill="rgb(50, 49, 63)" stroke="none" stroke-width="1px">0.2</text><text x="0" y="79.76978648386407" dx="0em" dy="0.3em" style="text-anchor: end; visibility: hidden; font-family: &quot;Helvetica Neue&quot;, sans-serif; font-size: 12px; font-weight: 200;" fill="rgb(50, 49, 63)" stroke="none" stroke-width="1px">0.25</text><text x="0" y="63.372837470997055" dx="0em" dy="0.3em" style="text-anchor: end; visibility: inherit; font-family: &quot;Helvetica Neue&quot;, sans-serif; font-size: 12px; font-weight: 200;" fill="rgb(50, 49, 63)" stroke="none" stroke-width="1px">0.3</text><text x="0" y="46.97588845813004" dx="0em" dy="0.3em" style="text-anchor: end; visibility: hidden; font-family: &quot;Helvetica Neue&quot;, sans-serif; font-size: 12px; font-weight: 200;" fill="rgb(50, 49, 63)" stroke="none" stroke-width="1px">0.35</text><text x="0" y="30.578939445263018" dx="0em" dy="0.3em" style="text-anchor: end; visibility: inherit; font-family: &quot;Helvetica Neue&quot;, sans-serif; font-size: 12px; font-weight: 200;" fill="rgb(50, 49, 63)" stroke="none" stroke-width="1px">0.4</text><text x="0" y="14.181990432395992" dx="0em" dy="0.3em" style="text-anchor: end; visibility: hidden; font-family: &quot;Helvetica Neue&quot;, sans-serif; font-size: 12px; font-weight: 200;" fill="rgb(50, 49, 63)" stroke="none" stroke-width="1px">0.45</text></g><line x1="48.875" y1="0" x2="48.875" y2="177" fill="rgb(0, 0, 0)" stroke="rgb(204, 204, 204)" stroke-width="1px"></line></g></g><g transform="translate(48, 0)" clip-path="url(#clip_0)"><clipPath id="clip_0"><rect width="281" height="177"></rect></clipPath><g><g><g><line x1="16.503536159557285" y1="0" x2="16.503536159557285" y2="177" fill="rgb(0, 0, 0)" stroke="rgb(60, 60, 60)" stroke-width="1px" opacity="0.25"></line><line x1="42.48380688766205" y1="0" x2="42.48380688766205" y2="177" fill="rgb(0, 0, 0)" stroke="rgb(60, 60, 60)" stroke-width="1px" opacity="0.25"></line><line x1="68.46407761576681" y1="0" x2="68.46407761576681" y2="177" fill="rgb(0, 0, 0)" stroke="rgb(60, 60, 60)" stroke-width="1px" opacity="0.25"></line><line x1="94.44434834387158" y1="0" x2="94.44434834387158" y2="177" fill="rgb(0, 0, 0)" stroke="rgb(60, 60, 60)" stroke-width="1px" opacity="0.25"></line><line x1="120.42461907197634" y1="0" x2="120.42461907197634" y2="177" fill="rgb(0, 0, 0)" stroke="rgb(60, 60, 60)" stroke-width="1px" opacity="0.25"></line><line x1="146.40488980008112" y1="0" x2="146.40488980008112" y2="177" fill="rgb(0, 0, 0)" stroke="rgb(60, 60, 60)" stroke-width="1px" opacity="0.25"></line><line x1="172.38516052818588" y1="0" x2="172.38516052818588" y2="177" fill="rgb(0, 0, 0)" stroke="rgb(60, 60, 60)" stroke-width="1px" opacity="0.25"></line><line x1="198.36543125629063" y1="0" x2="198.36543125629063" y2="177" fill="rgb(0, 0, 0)" stroke="rgb(60, 60, 60)" stroke-width="1px" opacity="0.25"></line><line x1="224.34570198439542" y1="0" x2="224.34570198439542" y2="177" fill="rgb(0, 0, 0)" stroke="rgb(60, 60, 60)" stroke-width="1px" opacity="0.25"></line><line x1="250.32597271250017" y1="0" x2="250.32597271250017" y2="177" fill="rgb(0, 0, 0)" stroke="rgb(60, 60, 60)" stroke-width="1px" opacity="0.25"></line><line x1="276.306243440605" y1="0" x2="276.306243440605" y2="177" fill="rgb(0, 0, 0)" stroke="rgb(60, 60, 60)" stroke-width="1px" opacity="0.25"></line></g><g><line x1="0" y1="161.75453154819914" x2="281.125" y2="161.75453154819914" fill="rgb(0, 0, 0)" stroke="rgb(60, 60, 60)" stroke-width="1px" opacity="0.25"></line><line x1="0" y1="145.3575825353321" x2="281.125" y2="145.3575825353321" fill="rgb(0, 0, 0)" stroke="rgb(60, 60, 60)" stroke-width="1px" opacity="0.25"></line><line x1="0" y1="128.96063352246512" x2="281.125" y2="128.96063352246512" fill="rgb(0, 0, 0)" stroke="rgb(60, 60, 60)" stroke-width="1px" opacity="0.25"></line><line x1="0" y1="112.56368450959809" x2="281.125" y2="112.56368450959809" fill="rgb(0, 0, 0)" stroke="rgb(60, 60, 60)" stroke-width="1px" opacity="0.25"></line><line x1="0" y1="96.16673549673108" x2="281.125" y2="96.16673549673108" fill="rgb(0, 0, 0)" stroke="rgb(60, 60, 60)" stroke-width="1px" opacity="0.25"></line><line x1="0" y1="79.76978648386407" x2="281.125" y2="79.76978648386407" fill="rgb(0, 0, 0)" stroke="rgb(60, 60, 60)" stroke-width="1px" opacity="0.25"></line><line x1="0" y1="63.372837470997055" x2="281.125" y2="63.372837470997055" fill="rgb(0, 0, 0)" stroke="rgb(60, 60, 60)" stroke-width="1px" opacity="0.25"></line><line x1="0" y1="46.97588845813004" x2="281.125" y2="46.97588845813004" fill="rgb(0, 0, 0)" stroke="rgb(60, 60, 60)" stroke-width="1px" opacity="0.25"></line><line x1="0" y1="30.578939445263018" x2="281.125" y2="30.578939445263018" fill="rgb(0, 0, 0)" stroke="rgb(60, 60, 60)" stroke-width="1px" opacity="0.25"></line><line x1="0" y1="14.181990432395992" x2="281.125" y2="14.181990432395992" fill="rgb(0, 0, 0)" stroke="rgb(60, 60, 60)" stroke-width="1px" opacity="0.25"></line></g></g></g><g><g><line x1="0" y1="161.75453154819914" x2="281.125" y2="161.75453154819914" fill="rgb(0, 0, 0)" stroke="rgb(153, 153, 153)" stroke-width="1.5px"></line></g></g><g><g><line x1="16.503536159557285" y1="0" x2="16.503536159557285" y2="177" fill="rgb(0, 0, 0)" stroke="rgb(153, 153, 153)" stroke-width="1.5px"></line></g></g><g><g><g><g><g><path stroke="rgb(238, 51, 119)" stroke-width="2px" d="M16.63343751319781,161.75453154819914L16.97118103266317,161.6861554388987L17.1270626570318,161.67853443796287L17.542746988681476,161.29388564241617L17.594707530137683,161.3758607625755L17.672648342322002,161.47581562820739L17.88049050814684,161.50442335548522L17.958431320331155,161.540457937641L18.348135381252725,161.52063385928486L18.42607619343704,161.57004299034543L18.94568160799913,161.41259630916787L19.15352377382397,161.38575793061108L19.25744485673639,161.32207684929892L19.77705027129849,161.0491325027139L20.114793790763848,160.9772502072977L20.530478122413523,160.85632322177733L20.60841893459784,160.76110293370786L20.842241371150784,160.600842987128L21.128024349159936,160.43786552631911L21.257925702800456,160.35969656166316L21.309886244256667,160.39520124994914L21.335866514984772,160.4284411821928L21.43978759789719,160.52407383904153L21.88145220027497,160.41348380642916L22.29713653192465,160.2693772672385L22.45301815629328,159.8739577382691L22.582919509933802,159.8797940724484L22.972623570855376,159.7738359135216L23.128505195224,159.79150813529074L23.258406548864528,159.77544989081827L23.44026844396126,159.62735071087485L23.54418952687368,159.58971238605042L23.596150068329887,159.6781451229553L24.08977521216388,159.56377025524884L24.505459543813554,159.67322808682027L24.55742008526976,159.64292734675178L24.7652622510946,159.6524636417272L25.07702549983186,159.60287251072992L25.3108479363848,159.4834946728201L25.51869010220964,159.38284988045265L25.93437443385932,159.38093831080957L26.038295516771736,159.15916616477702L27.44123013608939,159.04924221202234L27.467210406817497,158.92665047198832L27.908875009195278,158.59350325918288L27.98681582137959,158.74532397361506L28.064756633563906,158.6433934624975L28.45446069448548,158.60550453882047L28.532401506669792,157.6912258803114L28.558381777397894,157.27240896646921L28.818184484678945,157.03591682800834L29.259849087056725,157.00444388817297L29.311809628512936,157.09338574032958L29.857395313803135,157.3239723673401L29.935336125987448,157.14228570357483L30.299059916180916,157.03731116535684L30.42896126982144,157.15844591451216L30.974546955111638,157.00697157508344L31.13042857948027,156.98422245419687L31.390231286761317,157.13009682737612L31.546112911129942,157.1185649496452L31.598073452586156,155.92976572472259L31.727974806226676,156.14289768644642L31.75395507695478,156.3557318079719L32.143659137876355,156.20089010490247L32.61130401098224,156.0287033030982L32.66326455243845,155.88565593027238L32.975027801175706,155.80029025273762L33.156889696272444,155.73149078410688L33.18286996700054,155.92409228638888L33.23483050845675,155.70616673882682L33.31277132064107,155.80031878628301L33.36473186209728,155.88940493460188L33.67649511083454,156.01123298304327L33.936297818115584,155.2782969267143L34.24806106685284,154.8433245145557L34.37796242049336,154.53639765620136L35.05344945942409,154.25628584715696L35.1573705423365,154.62244463011564L35.26129162524893,153.78244471431836L35.287271895977035,153.3043747635277L35.469133791073766,153.37021294848952L35.70295622762671,153.53848914579794L35.80687731053913,152.1116476873274L35.91079839345154,152.24569332075424L36.04069974709207,152.75805941213974L36.144620830004484,152.4862461135393L36.37844326655743,151.74901226675536L36.482364349469854,152.09226593842422L36.53432489092606,152.53354105965954L36.58628543238227,152.29459043741187L36.768147327479,152.13504249080006L36.898048681119526,152.68165571832498L36.95000922257574,152.8982133926064L37.07991057621626,151.91851343330774L37.13187111767247,151.4961451339568L37.23579220058489,151.15356715063754L37.339713283497304,150.95382293979068L37.495594907865936,150.90751754979667L37.52157517859404,150.40555028834171L38.11912140534045,148.6793456658798L38.223042488252865,148.50206047139812L39.08039142228033,147.70356164620043L39.26225331737706,146.83133603999357L39.418134941745684,147.67500563104647L39.78185873193915,147.31199963111442L39.885779814851574,147.22318624267479L40.06764170994831,146.47334471448556L40.11960225140452,146.05123546364155L40.27548387577315,145.48662524493753L40.32744441722936,145.1898946689374L40.69116820742283,145.33936296584494L40.717148478150925,145.43224602975624L40.97695118543197,144.88085348437087L41.05489199761629,144.7610743680168L41.288714434169236,144.16224102305586L41.39263551708165,143.441283558546L41.496556599994065,143.4437552935125L41.73037903654701,142.63672673956992L41.75635930727512,142.21824830115912L41.912240931643744,142.62416958221678L41.93822120237185,142.53442810764153L42.06812255601237,140.93506696233038L42.379885804749634,141.9443689485416L42.53576742911826,139.63604676877532L42.613708241302575,140.20476369329572L42.84753067785552,142.03673322132101L43.13331365586467,141.4648759994739L43.62693879969866,141.39351153087335L43.96468231916403,146.28015633503153L44.12056394353265,145.03164883698753L44.19850475571696,142.9880301125977L44.25046529717317,142.67224875730693L44.3543863800856,141.16014533532137L44.510268004454225,142.2881314029986L44.640169358094745,138.46273230556426L44.8999720653758,138.68368791944403L45.055853689744424,137.49652509854482L45.185755043384944,137.55848988057147L45.445557750666,138.59745098398236L45.57545910430652,138.66894646063844L46.536729121246395,140.8186154850505L46.64065020415882,140.76686392374629L46.66663047488692,140.2312947539124L46.69261074561502,140.08593875816524L47.16025561872091,139.8137054930729L47.47201886745816,138.85969632675375L47.497999138186266,139.06159916539676L47.6538807625549,139.81055037115632L47.83574265765163,140.2423194602029L48.511229696582355,140.41372641943371L48.563190238038565,140.35796891639623L48.82299294531961,140.86514028882013L49.108775923328764,140.05182821924387L49.18671673551307,138.3058568798279L49.2646575476974,136.34932673342274L49.78426296225949,137.66315730785266L49.94014458662812,138.20039821492526L50.12200648172485,138.1304318080219L50.27788810609348,138.4359239837484L50.537690813374525,138.77427114223L50.69357243774316,140.6249996416169L50.771513249927466,139.78526373439632L51.057296227936625,137.88786065039045L51.135237040120934,137.5201043597163L51.21317785230525,137.52571637421593L51.239158123033356,137.1254243226723L52.486211117982386,132.93496789333838L52.5641519301667,133.50717173851353L52.64209274235101,133.911940854413L52.668073013079116,134.3409350587881L53.23963896909742,136.01800917946633L53.551402217834685,136.03199517246193L53.60336275929089,136.17476051831372L53.70728384220331,136.772960624993L53.811204925115725,137.25204619718906L53.915126008028146,136.7512713433585L54.56463277623076,134.9037902299786L54.590613046958865,135.10958883362792L54.876396024968024,136.2529349444897L55.08423819079286,137.360498463564L55.18815927370528,133.71999411899014L55.24011981516149,134.67946054554756L55.681784417539276,135.02349187397311L56.07148847846084,131.78751360244263L56.17540956137326,130.5554502623263L56.824916329575885,130.5008826016424L57.24060066122556,131.24787720697609L57.266580931953655,128.97767811820603L57.65628499287523,130.0839151235689L57.76020607578765,129.82563322545278L57.9940285123406,126.19164819015273L58.17589040743733,109.69110340617557L58.201870678165434,108.8430750444843L58.5396141976308,113.1379769739991L58.77343663418374,115.61196634408861L58.903337987824266,117.34880220999884L59.033239341464785,120.19802466197311L59.1111801536491,119.50485984376598L59.24108150728962,121.56941744151484L59.31902231947394,119.10193409529347L59.630785568211195,116.88960597465362L59.83862773403603,118.10119525623418L60.02048962913277,113.15002623910485L60.2023515242295,111.43349407073039L60.43617396078244,109.95604113599435L60.540095043694855,107.22660581912616L60.56607531442297,106.63575459158345L60.59205558515107,106.52480864843436L60.64401612660728,108.13930514975883L60.72195693879159,109.62758506527351L60.90381883388833,108.68391861730856L61.13764127044127,110.58269917251366L61.39744397772232,112.46123347467335L61.50136506063473,115.52397562597875L61.55332560209094,113.8511163640563L61.63126641427527,108.01431330024157L61.761167767915786,103.58256622881163L61.8391085801001,96.15585909094219L61.86508885082821,99.58813157598728L61.891069121556306,92.27713086585685L62.3846942653903,94.72384599079754L62.61851670194324,94.98404976663426L62.774398326311875,94.83533922843128L62.956260221408606,92.9103437332867L62.98224049213671,93.65013283655378L63.216062928689645,100.96025716441484L63.39792482378639,99.2800386692675L63.70968807252364,90.2501425403857L63.94351050907659,89.11804824987647L64.04743159198901,89.68545055403399L64.30723429927005,90.04185979916237L64.41115538218247,86.68323015802916L64.64497781873541,87.70988962016837L64.98272133820078,80.86829417212533L65.06066215038508,79.56348634643695L65.21654377475372,87.69698794345447L65.26850431620993,93.73400579037123L66.15183352096548,87.38551849189271L66.30771514533411,84.10914569759156L66.7493797477119,85.96089445900272L66.80134028916811,86.60078346987665L66.85330083062432,82.87489335445856L67.00918245499295,83.57806426888742L67.08712326717726,84.71914779793445L67.13908380863347,81.57694987812087L67.60672868173936,79.25384091673152L67.97045247193283,78.67885192081637L68.02241301338903,81.06164376641553L68.49005788649492,76.36929738057343L68.59397896940735,96.86175358080361L68.80182113523217,94.19023973487705L69.24348573760996,90.70736204282578L69.39936736197858,81.60201922977089L70.0228938594531,69.62955464041771L70.33465710819036,61.979418777227366L70.36063737891845,62.218187006398054L70.43857819110278,61.60967778359084L70.46455846183088,63.72759152354189L70.5165190032871,68.17119558916025L70.56847954474331,70.20668999797321L70.67240062765572,68.90442501879829L70.77632171056814,69.09794040514917L70.90622306420866,75.07107556269293L70.95818360566487,74.53288888695307L71.34788766658644,76.4755257298622L72.231216871342,79.08176182621062L72.33513795425442,77.67201278241998L72.38709849571063,62.85428056350037L72.51699984935117,63.14366900499071L72.7508222859041,6.498445836827472L72.95866445172894,14.5088421691093L73.06258553464136,28.06750100736764L73.3223882419224,34.611562745367905L73.37434878337861,45.12101137450384L73.42630932483482,48.5365523256159L73.45228959556293,52.92719258123826L73.55621067847535,53.47717517425414L73.63415149065966,58.7554916550114L73.8419936564845,63.067164842208655L73.94591473939693,60.925486228513094L74.30963852959039,61.66489153416616L74.465520153959,51.010762465027355L74.59542150759954,57.01476189759961L74.62140177832764,58.69441345716257L74.67336231978385,62.82671014689497L74.75130313196817,63.13614875315018L74.80326367342438,66.80312366548262L74.85522421488058,68.93069219154184L74.88120448560869,71.77687595876652L75.06306638070542,73.194371959333L75.14100719288975,65.844761671476L75.27090854653025,67.80618125482634L75.76453369036425,69.77633644687104L76.0243363976453,69.73277659196499L76.18021802201393,71.91629583580313L76.33609964638256,65.81238721158329L76.44002072929497,65.44389773896849L76.46600100002308,65.73305072158566L76.75178397803224,57.124963581184275L76.77776424876033,37.99692488750958L77.16746830968191,48.15806137416175L77.42727101696296,51.73334882047287L77.6610934535159,57.7805790907494L78.10275805589369,61.47327410152249L78.57040292899957,64.6948728189821L78.59638319972768,68.56820961909249L78.6483437411839,71.6909748609555L78.90814644846493,67.78667748760101L79.01206753137735,60.10627301378075L79.50569267521134,39.14706712687905L79.7914756532205,46.4177669372057L79.99931781904533,74.09859044384413L80.15519944341396,72.20209319238516L80.18117971414208,72.43369284123445L80.23314025559827,73.57049076160628L80.28510079705448,72.32151041792929L80.415002150695,71.47671626550309L81.06450891889762,70.29268375216724L81.09048918962573,92.24352722321488L81.35029189690678,86.69639028532119L81.40225243836298,82.43929768440394L81.53215379200351,80.82726117914123L81.89587758219697,78.78735437790867L82.0517592065656,63.54549788032561L82.23362110166234,60.966090876636386L82.28558164311855,63.86252471311258L82.67528570404012,67.08478711852693L82.77920678695254,68.10767412907805L82.83116732840875,64.44036755918746L83.16891084787412,67.5870819149657L83.48067409661137,64.769747860589L83.79243734534862,68.63184535671773L83.81841761607673,71.24611882855969L83.84439788680483,92.96813788127315L84.05224005262968,90.0002803526173L84.2081216769983,83.91115228512994L84.64978627937609,84.51255193432881L84.80566790374472,82.53622560942705L84.83164817447282,80.43888495588509L85.03949034029766,75.84422854903428L85.1953719646663,71.23310896445759L85.35125358903491,92.95825038455556L85.48115494267543,88.42394020199967L86.07870116942183,84.63526578092713L86.13066171087806,82.97671234304771L86.26056306451858,84.95233259682587L86.3904644181591,87.36054349831241L86.72820793762448,87.98723057798067L86.91006983272119,87.47617835244075L87.29977389364277,86.65568234742798L87.61153714238002,88.36427448998782L87.68947795456434,88.36984281448952L88.0532017447578,86.90131440591017L88.07918201548591,85.9348447170312L88.13114255694212,87.77390039188549L88.96251122024148,89.05111256699251L88.98849149096958,88.91008853946063L89.01447176169769,91.45299529348438L89.19633365679441,108.32536399461591L89.48211663480356,101.79159846868913L89.87182069572513,102.73757826261203L89.94976150790946,103.0376722089809L90.00172204936567,103.60304240199366L90.7811301712088,103.089371732657L91.11887369067416,100.8864048908426L91.35269612722712,102.26600475257887L91.58651856378006,104.28523639840681L91.7424001881487,102.8704638805247L91.8463212710611,103.8392767692366L92.28798587343888,94.41622416985837L92.3399464148951,89.60020805018044L92.3659266856232,90.30555951629532L92.3919069563513,90.8009069733795L92.67768993436046,94.73479252012997L93.14533480746634,98.25971934546293L93.58699940984413,100.89857621539186L93.79484157566895,102.08015596361243L94.39238780241537,104.14559805641655L94.62621023896831,106.57308330443897L94.67817078042452,107.78519307726518L94.73013132188073,109.09254129496352L94.83405240479316,110.86202188476074L94.86003267552125,123.07622420398596L95.1458156535304,121.60828609237542L95.22375646571473,119.18394070378537L95.43159863153956,118.86764309368422L95.50953944372388,117.72063819991433L95.74336188027681,117.66167156625833L96.13306594119838,117.58729764359856L96.2369870241108,117.23774791336012L96.28894756556701,116.76618845103472L96.67865162648859,118.02070981814066L97.01639514595395,118.12259388111447L97.61394137270035,118.93325755179222L98.00364543362193,120.38954205083809L98.02962570435004,120.82599964769369L98.21148759944677,121.37013572724585L98.34138895308729,122.49707534407155L98.47129030672781,122.1195866854568L98.57521138964024,122.72958445636706L98.62717193109646,123.21025581551785L99.04285626274613,132.46088199136136L99.32863924075528,130.26865166984862L99.510501135852,129.14747641315364L99.53648140658011,127.85120060184511L99.71834330167685,127.73564957714049L99.79628411386116,128.61559173906616L100.41981061133568,128.25931661393454L100.49775142351999,126.6604897395124L100.67961331861672,125.37238323715843L100.75755413080104,125.64581387420124L100.78353440152914,125.5635669011404L100.83549494298535,126.53964853791517L100.86147521371346,125.47991953909163L101.38108062827556,126.26619614739181L101.51098198191607,127.11563832511513L101.74480441846903,126.7521849113657L101.79676495992523,127.10018843914293L102.36833091594353,127.85393680044805L102.57617308176836,127.89752031761032L102.93989687196184,128.4565583350961L102.96587714268993,128.18196684210685L103.09577849633047,129.13396638876554L103.22567984997099,128.8672125983673L103.40754174506772,128.67872338806347L104.16096959618275,129.38482710763867L104.21293013763896,129.90015496417274L104.26489067909517,129.42698347289894L104.47273284492002,130.4365962404666L104.91439744729779,131.0921334044322L105.04429880093832,138.45110895893626L105.61586475695664,137.15583738924582L105.69380556914093,135.94031410344704L105.82370692278147,135.83606518351473L106.00556881787818,135.1078975475599L106.10948990079062,134.70043352376712L106.16145044224683,134.47443847107357L106.31733206661546,134.0986470767691L106.34331233734356,134.31447207278538L106.49919396171218,133.94737670165074L106.68105585680892,133.39994996583056L106.83693748117754,133.0811033040635L106.91487829336187,132.04992385727283L107.35654289573965,133.48148707069868L107.40850343719586,132.67054462848992L107.6683061444769,132.32470857783738L107.74624695666122,131.53509017562106L107.92810885175794,130.96279375645318L108.34379318340763,131.38237956892362L108.39575372486384,129.8542970177175L108.55163534923247,129.916419302791L108.65555643214489,129.7951751819551L108.70751697360109,128.8255573950907L109.07124076379456,128.56159520157212L109.51290536617233,127.18969448965164L109.82466861490961,127.46986706581643L110.03251078073444,123.37140104054764L110.50015565384032,124.18537108253747L110.55211619529653,124.36313117599111L110.60407673675275,125.03990466659127L110.68201754893705,125.57047353264505L110.75995836112136,126.19727344244846L111.20162296349915,126.03607029258396L111.4874059415083,126.99316043804983L111.51338621223641,127.25725143226043L111.85112973170176,128.30800043675842L112.63053785354491,128.82020505549337L112.68249839500112,128.79907872846024L113.30602489247565,128.5164057215943L113.40994597538806,128.49215208342963L113.46190651684427,128.95106699297114L113.6177881412129,129.01490089377785L113.69572895339721,129.01754699042374L113.74768949485342,129.04308089725367L113.98151193140636,129.52800957303748L114.16337382650309,128.93682752765264L114.50111734596845,128.9964592108331L114.7089595117933,128.74225642246523L115.04670303125866,129.33441395721078L115.09866357271487,128.6705611287931L115.17660438489919,127.88081007646628L115.48836763363644,128.17319656221676L115.59228871654886,127.15879875250724L115.72219007018938,127.24199110136536L115.7741506116456,127.26317705519942L116.03395331892663,127.30787303221939L116.13787440183906,127.16038793452427L116.47561792130442,127.30244644999115L116.89130225295409,127.85588303286988L117.02120360659463,127.46807711463524L117.20306550169134,126.43818064400604L117.85257226989398,126.823413911003L117.87855254062208,125.14968976920144L118.08639470644691,124.3731286334978L118.34619741372795,124.20932459658933L118.5540395795528,123.36231469815085L118.73590147464952,123.64898267026638L118.83982255756194,124.27934796206443L119.1256055355711,123.64202382087011L119.28148715993973,122.63123276060423L119.43736878430838,122.55669830322387L120.00893474032667,122.26366465425276L120.29471771833582,122.20918392389174L120.42461907197634,122.96208162777145L120.65844150852928,122.61662207666367L120.68442177925739,122.93382831909157L120.97020475726654,124.4620180076681L120.99618502799466,125.22681664284094L121.28196800600381,124.06352242843076L121.35990881818812,123.85591400534211L121.61971152546917,123.82715908542752L121.64569179619727,124.48134665209672L121.67167206692538,124.76113642940486L122.84078424969009,124.23923544481768L122.97068560333061,123.6029833095144L122.9966658740587,123.33106366062083L123.25646858133977,123.1109175138276L125.15302834449142,123.59325092538472L125.43881132250057,125.16205401749176L125.46479159322867,124.6243412338479L125.51675213468488,124.26816588973658L125.56871267614109,124.66704476267665L125.6466534883254,124.02210550529799L125.6726337590535,123.93828623245027L125.72459430050971,124.22083378390732L126.32214052725612,124.01273639317597L126.45204188089664,123.90336738713646L126.52998269308097,123.82023521453456L126.73782485890581,121.89111634909618L127.02360783691496,123.11845587416833L127.25743027346789,123.52589931896698L127.33537108565221,124.19358380534084L127.36135135638031,124.69660607291888L127.75105541730188,125.02312515829287L128.16673974895156,124.49053770433181L128.32262137332017,124.33920184751224L128.4265424562326,123.97126087904894L128.66036489278557,124.61038880938645L128.71232543424176,124.9413901664218L128.9461478707947,124.79665874516007L129.05006895370713,125.8886533128829L129.20595057807574,125.68259167629154L129.3358519317163,125.1623513744882L129.90741788773457,125.46683198860335L130.011338970647,125.22615487170688L130.24516140719993,125.91779576134611L130.63486546812152,125.49743501316084L130.81672736321826,125.2495978865573L130.97260898758688,124.92065857862437L131.0765300704993,133.76078809132233L131.1025103412274,131.84274927037208L131.59613548506138,130.55495930702008L131.6221157557895,130.42136533320354L131.6740762972457,130.29888240632326L131.82995792161432,129.57027611625332L131.90789873379865,128.3295817013647L132.60936604345747,128.0409268890482L132.76524766782612,127.81527239974245L132.86916875073854,128.08359185167714L132.94710956292283,126.65344487928056L133.15495172874768,135.077705679821L133.2069122702039,133.4677684965909L133.64857687258169,131.90768445553897L133.67455714330978,130.56136089553002L134.16818228714376,130.14253403848474L134.19416255787186,129.6415935081091L134.2721033700562,128.72818361052677L134.50592580660913,128.78782353760587L134.71376797243397,128.5883334987032L134.76572851389017,128.3800730126722L134.7917087846183,127.93957392519373L135.18141284553985,127.20426659461977L135.4412155528209,127.06266877316358L135.51915636500522,127.60854511346494L135.80493934301435,126.98977922640444L135.88288015519868,127.67415516585201L135.9348406966549,126.7321144577408L135.9868012381111,125.51018366328564L136.29856448684836,125.49059022887471L136.74022908922615,125.56775648858232L137.1299331501477,125.27872769369827L137.28581477451633,126.6519063261751L137.46767666961307,126.08180453636439L137.6755188354379,125.5523357820692L137.77943991835033,125.77806545577191L137.96130181344705,125.88211591714666L137.98728208417515,126.47850690193835L138.01326235490328,126.12248725228912L138.27306506218432,125.17160377563769L138.94855210111504,125.93181101081181L139.07845345475556,125.77345691341532L139.49413778640525,126.76173213129272L139.62403914004577,126.94229867294315L139.77992076441438,126.29308043518321L139.8838418473268,126.09418547620416L139.9098221180549,126.32699220592889L140.11766428387975,126.22567648004035L140.19560509606407,125.64877119581509L140.22158536679217,125.30514767406116L140.27354590824837,126.29564006120653L140.3514867204327,126.95116794673154L140.58530915698563,127.54826266770115L140.68923023989805,127.3806447746602L140.79315132281047,127.61614800999429L140.87109213499477,126.98529307179061L140.8970724057229,126.99603961669098L141.05295403009154,126.53003702108096L141.20883565446013,128.75389670811708L141.26079619591636,127.80812598085194L141.33873700810068,127.47513083252282L142.24804648358435,126.76554517671136L142.5598097323216,126.52868093760927L143.0534348761556,124.5154972851592L143.10539541761182,124.08043011137505L143.52107974926147,124.45759506762417L143.59902056144577,125.08285628387733L143.650981102902,125.40555195166593L143.67696137363012,127.2306746858662L144.1705865174641,126.36201565073794L144.79411301493863,126.23623454506057L144.87205382712293,125.0230827598159L145.2097973465883,125.36568666940241L145.41763951241313,125.28561670293128L145.65146194896607,125.00426400471216L145.7294027611504,125.40031426738632L145.78136330260662,125.9462801418544L145.8073435733347,124.63917967046035L146.17106736352818,125.44017733573821L146.378909529353,125.2395444151429L146.95047548537133,125.79754928571451L147.10635710973992,126.30922833509831L147.18429792192427,127.24245597811027L147.36615981702099,126.58146320322977L147.70390333648635,126.53373041389375L147.75586387794255,126.69830918424165L147.78184414867064,126.19677427706661L147.96370604376742,126.47498354857088L148.43135091687327,126.0398203580695L148.84703524852296,126.66659115881168L149.0288971436197,126.57362760626586L149.15879849726022,127.98076402661482L149.18477876798832,127.38073043364017L149.34066039235694,126.87711732207353L149.6784039118223,127.18559692003683L149.7303644532785,127.47531905276861L149.88624607764714,126.52469810448332L150.56173311657787,125.8202990500562L150.69163447021842,125.6074690579175L151.02937798968375,126.38117263673479L151.1332990725962,126.66207705178078L151.60094394570206,126.21259807542882L151.8087861115269,126.0161035712913L152.4063323382733,127.29600601775135L152.48427315045762,127.82692242403965L152.51025342118572,128.24003410333867L152.61417450409814,128.11020045577385L152.64015477482627,128.20551816852873L152.74407585773866,128.24587648098984L153.31564181375697,128.54914708282752L153.91318804050337,129.30840246915287L154.25093155996876,130.10630962363882L154.66661589161842,129.69930976620148L154.95239886962756,129.60429993999327L155.36808320127727,130.2952429995373L155.44602401346157,130.67467729352165L155.7318069914707,130.8308239920863L155.75778726219883,130.80478119910504L155.83572807438313,130.7308035024639L156.2773926767609,130.59491148208002L156.38131375967333,131.90869227588064L156.90091917423544,131.97337316560638L156.95287971569164,132.3185644258559L157.31660350588513,131.17785136850594L157.44650485952565,131.67319014923774L157.81022864971908,132.17050243916498L157.8362089204472,131.61461273069182L157.88816946190343,131.40394679196933L158.01807081554392,131.62237809400045L158.74551839593087,131.50614365502787L158.9793408324838,132.31581524439898L159.16120272758056,133.48904372027516L159.26512381049298,132.9983670349553L159.4210054348616,132.84662839769675L159.57688705923022,132.22890363430497L159.70678841287074,132.01763085913743L159.78472922505506,132.0568250167472L159.83668976651128,132.0413635611888L160.22639382743284,132.17430368283112L160.46021626398579,132.12299423327613L160.66805842981063,131.63439340271185L161.1097230321884,132.4948891455317L161.23962438582893,132.66858271416064L161.29158492728513,132.46660126389253L161.6033481760224,132.06769023201082L161.6553087174786,132.2829434702527L161.81119034184724,131.74110715980467L162.1229535905845,131.88634697416646L162.25285494422502,139.0547112719343L162.51265765150606,137.27112325193178L162.7724603587871,135.9200840804665L163.21412496116488,135.227706253807L163.49990793917402,133.515235335162L163.55186848063025,133.3012244355028L163.65578956354267,132.76953080269706L163.96755281227993,132.75473212569304L164.04549362446423,132.83101773405593L165.1106847243165,133.34641599241485L165.18862553650087,133.12256341130816L165.2925466194133,132.85679292658287L165.65627040960672,134.3959092958565L165.94205338761589,133.95721655616546L166.12391528271263,133.28771046944007L166.30577717780938,131.53092041637134L166.56557988509041,131.5959813851108L166.6435206972747,130.24499696726946L166.77342205091523,130.50794250305023L166.90332340455578,130.88293251690266L167.0592050289244,131.13874446113223L167.37096827766166,131.33308354746785L167.39694854838973,130.87135153621568L167.83861315076751,131.10587058507562L167.91655396295187,131.25973953117824L168.09841585804858,131.3694414012989L168.41017910678585,131.69815251620034L168.79988316770743,131.71640395583432L168.85184370916363,131.72012152369203L169.03370560426038,132.39364020766197L169.2935083115414,132.7891754618731L169.50135047736623,132.73425754447672L169.55331101882246,133.55102388230966L169.60527156027865,132.85564939501154L169.73517291391917,132.18587332103462L169.96899535047214,132.21162442621758L170.22879805775318,131.59176588136302L170.25477832848128,131.8201138359318L170.51458103576232,132.00646937515475L170.61850211867474,131.94133473594735L170.64448238940287,131.73211682629466L171.13810753323685,131.2784202882581L171.26800888687737,132.17450904656346L171.3199694283336,132.53951525461244L171.42389051124601,132.7584833944566L171.65771294779896,132.9010098069886L172.1253578209048,133.28901950724875L172.64496323546692,133.80318434431214L172.77486458910744,134.65022557612573L173.00868702566038,134.3674129588486L173.16456865002903,134.43350433540772L173.1905489207571,134.37151254094917L173.21652919148522,134.99097675019857L173.29447000366952,135.6298759391654L173.37241081585387,135.29068330824148L173.94397677187217,134.75282436241642L174.38564137424996,134.2931297089129L174.41162164497803,133.624883580299L174.51554272789045,133.87506712405923L174.645444081531,133.69940406353038L174.8273059766277,140.4326346598509L175.06112841318065,138.87008230769484L175.11308895463688,136.55689732455127L175.37289166191795,134.99400446661508L175.52877328628654,134.12515152260295L175.58073382774276,134.6935987529122L175.73661545211138,133.9684092677343L175.7885759935676,133.23386671440312L175.8405365350238,132.59223641918533L176.15229978376107,132.58131292952746L176.20426032521726,132.34748140940144L176.25622086667346,132.11428129801322L176.8537670934199,131.67400515384918L176.9576881763323,132.07158913805293L177.08758952997283,131.158743252205L177.16553034215715,131.57885592816768L177.5812146738068,131.40578144577677L177.84101738108788,131.11857190099127L177.86699765181598,138.47120221632116L177.91895819327218,137.20023712790447L178.07483981764082,136.02087554175515L178.23072144200944,135.62760976240958L178.41258333710618,134.83808111651646L178.54248469074668,133.4321056173263L178.72434658584345,133.0920150967264L178.88022821021207,132.5778815066212L179.21797172967743,131.2898010574291L179.39983362477417,132.55727321332282L179.89345876860816,131.70626204255203L180.41306418317023,132.75999663179002L180.49100499535456,132.15728861917813L180.59492607826698,131.61253120194948L180.62090634899508,131.287172297678L180.80276824409182,131.22409030222857L181.2444328464696,132.11410101145557L181.53021582447874,131.83819576058275L181.81599880248788,131.2879790816819L181.99786069758463,130.9347717585821L182.15374232195325,131.16587771641045L182.77726881942777,131.45264584789794L183.37481504617418,131.66316345072136L183.99834154364868,131.46648160030725L184.20618370947355,131.56151367636588L184.31010479238597,131.91494587204096L184.64784831185133,131.9929723888964L184.93363128986047,132.61465182061085L185.0375523727729,132.57841805126318L185.24539453859774,132.50872639354583L185.27137480932583,132.17478923524902L185.37529589223826,132.3873895336156L185.6091183287912,131.5424355308815L185.63509859951932,131.14434800753946L185.89490130680034,131.58815633148313L185.92088157752846,131.62240000412905L185.94686184825656,131.51495279721385L186.1547040140814,131.91849836244828L186.25862509699382,132.2441964760369L186.67430942864348,139.32667689335585L187.297835926118,137.3547990758543L187.4017570090304,135.87071173725127L187.45371755048663,134.4989647470166L187.47969782121476,134.13300610077607L187.55763863339905,134.37406078167112L187.791461069952,133.81446753546652L187.81744134068012,133.41669410256816L188.05126377723303,140.2177750895196L188.12920458941736,137.9480148144048L188.3890072966984,136.48770292410643L188.51890865033891,135.3056295440566L189.45419839655068,134.61704503769488L189.68802083310362,134.37830747094617L189.73998137455985,134.56115890607677L189.84390245747227,133.98371980616722L189.99978408184091,133.3884056160714L190.0777248940252,132.72955910054282L190.25958678912195,139.6955524879803L190.33752760130625,137.31511699065584L190.46742895494677,136.1703866803261L190.54536976713112,135.18679353524016L190.75321193295596,134.22614835033934L190.85713301586836,133.53437928855337L190.96105409878078,132.88755773920028L191.22085680606182,133.06990069335922L191.24683707678992,133.24878934246703L191.55860032552718,133.0011982664652L191.6625214084396,133.14804733057088L191.84438330353635,133.71300771358392L191.94830438644877,133.6335032750572L192.2340873644579,133.2129648473397L192.54585061319517,133.06243428439453L192.96153494484483,132.5698437222499L193.61104171304746,132.11421560567567L194.00074577396904,132.04298943512615L194.2085879397939,132.46297297998768L194.3644695641625,132.64006681444118L194.46839064707493,131.84265882807583L194.57231172998735,132.36496846466702L194.7801538958122,132.3096852009122L194.9360355201808,132.12313566155015L194.9620157909089,132.47367590691488L195.4036803932867,132.08978817361114L195.63750282983963,133.5271540970533L195.79338445420825,132.41874034368774L196.00122662003312,132.99480435863728L196.07916743221742,132.34091982241577L196.18308851512984,131.1704571740416L196.4428912224109,131.094384506016L196.65073338823572,130.96180027073322L196.72867420042004,130.3934275184167L197.0923979906135,130.65549454344537L197.19631907352593,131.36268894482367L197.40416123935077,138.6567311696338L197.48210205153507,135.8410071022505L197.6379836759037,133.52958213609696L198.1056285490096,132.214398408928L198.1575890904658,131.8517302816875L198.6252339635717,131.67987371308612L198.72915504648412,131.118002614592L198.80709585866842,131.44044920856777L199.19679991958998,131.42789287076783L199.2747407317743,129.81974639242532L199.37866181468672,130.1345385834083L199.56052370978347,130.16820853834432L199.89826722924883,130.35136061137467L200.05414885361742,130.60503155139986L200.4178726438109,130.05632084824248L200.72963589254817,129.73712992473756L200.91149778764492,130.1286315118666L201.11933995346976,131.01375608086755L201.32718211929458,130.92758270937517L201.3531623900227,130.67776647590892L201.4830637436632,129.88855137019206L201.58698482657562,129.8764022071019L201.92472834604098,130.40682920389136L202.0286494289534,137.93027776652522L202.39237321914686,136.87679029307L202.70413646788413,135.67161781471623L202.73011673861222,134.8014910678706L202.91197863370897,133.97714370984102L203.11982079953378,132.6433350507304L203.27570242390243,132.64461252223276L203.43158404827105,133.1702066909117L203.6134459433678,132.90691827794961L203.665406484824,133.18751569243042L203.89922892137693,133.75483723255965L203.95118946283316,133.18047294577764L203.97716973356128,133.21588718009434L204.47079487739526,133.08919553569564L204.54873568957956,132.79727843859047L204.7825581261325,132.7092040488302L205.12030164559786,132.4099273881418L205.40608462360703,132.449176806823L205.48402543579135,131.59997487081537L205.7438281430724,131.4160868755815L206.15951247472208,130.95952614694744L206.44529545273122,130.12916646614747L206.52323626491554,129.89285036459614L206.91294032583713,129.75672997217055L207.17274303311814,129.94366697947834L207.19872330384626,130.1280672590214L207.32862465748678,130.85503603189L207.35460492821488,128.9584278778917L207.4845062818554,128.9559652994848L207.53646682331163,130.29116039152464L207.64038790622405,130.0256255248478L207.66636817695215,129.93423943059645L207.69234844768027,130.33715454607866L208.08205250860183,130.26524720360408L208.26391440369855,130.0539500873697L208.28989467442665,130.00717583808276L208.39381575733907,130.14454638822696L208.4457762987953,129.40861426005046L208.6795987353482,129.8550702329548L208.78351981826063,129.39427714354832L208.86146063044498,128.9455620280141L209.5369476693757,130.17288686323786L209.56292794010378,129.51102118120764L209.79675037665672,129.36124042474907L209.87469118884107,130.0390302580856L209.9786122717535,130.0044052532886L210.05655308393779,129.25942934875485L210.31635579121883,130.13333199627795L210.34233606194692,130.32724050341625L210.36831633267505,130.67871355916694L210.39429660340315,130.8772435634009L210.52419795704367,130.55263289074645L210.6800795814123,130.38497616583743L210.7840006643247,130.35829833114502L210.83596120578093,130.7291365393519L211.2516455374306,131.13390249305692L211.4075271617992,131.21884954797244L211.43350743252734,131.0643300482429L211.64134959835215,131.15433619734873L211.7972312227208,131.30944078471333L211.92713257636134,131.93329895459993L212.13497474218616,131.40518400415075L212.3168366372829,129.00876102662497L212.57663934456394,128.86626412397413L213.04428421766985,129.76544902201485L213.2521263834947,130.24657411606753L213.8496726102411,130.6467312392254L214.03153450533782,130.43999956681046L214.18741612970646,130.79607959776058L214.26535694189076,130.332251857235L215.07074533446203,129.6622267910614L215.09672560519013,129.19415253836237L215.51240993683982,130.77987118891124L215.53839020756791,129.65951328609646L215.79819291484895,130.48609753068973L215.87613372703328,130.5124199881438L215.92809426848947,130.48836819287214L216.2138772464986,130.4479023620376L216.36975887086726,130.5505398054476L216.44769968305155,131.44048097361903L216.55162076596397,132.38700332893887L216.9673050976137,131.91411936735588L217.01926563906989,131.3590843811788L217.04524590979798,131.39547649249357L217.1491669927104,138.6816497058629L217.2271078048947,136.1798255403489L217.27906834635093,134.2948431447409L217.35700915853525,132.42377196241858L217.6427921365444,131.70750035968257L217.7467132194568,132.00961433890294L218.03249619746597,131.9374076148099L218.11043700965027,131.96987428639426L218.63004242421238,131.96530750483845L218.8378845900372,131.1697889885818L219.09768729731826,131.16113917866164L219.12366756804636,131.2242989088154L219.40945054605552,131.50435191911123L220.00699677280193,131.40096571846544L220.13689812644247,131.3913470516805L220.57856272882026,131.24886683708172L221.020227331198,130.2918608400219L221.17610895556663,130.47134498614153L221.22806949702286,130.0915040337209L221.72169464085684,130.12064230316005L221.74767491158497,129.42893262630423L221.85159599449736,128.7701437933548L221.95551707740978,129.5530277418564L222.0594381603222,130.53153843121356" style="fill: none;" fill="none"></path></g></g></g></g><g opacity="0.2"><g><g><g><path stroke="rgb(238, 51, 119)" stroke-width="2px" d="M16.63343751319781,161.75453154819914L16.97118103266317,161.63418959583035L17.1270626570318,161.66834058711112L17.542746988681476,160.610527823819L17.594707530137683,161.54884447751144L17.672648342322002,161.71208397159134L17.88049050814684,161.577557586355L17.958431320331155,161.63785588801315L18.348135381252725,161.4648448259563L18.42607619343704,161.7132699963775L18.94568160799913,160.94606838093074L19.15352377382397,161.30492221749506L19.25744485673639,161.12790826511568L19.77705027129849,160.20920106103793L20.114793790763848,160.75450512738527L20.530478122413523,160.47962984951621L20.60841893459784,160.46330752645363L20.842241371150784,160.09813129125848L21.128024349159936,159.92546319337646L21.257925702800456,160.11350766159399L21.309886244256667,160.50716807652105L21.335866514984772,160.5333703333212L21.43978759789719,160.82618763682765L21.88145220027497,160.06391741271364L22.29713653192465,159.8136691272398L22.45301815629328,158.62310809725363L22.582919509933802,159.89826107775306L22.972623570855376,159.43850484069782L23.128505195224,159.84744442700796L23.258406548864528,159.72461656180067L23.44026844396126,159.1584945872212L23.54418952687368,159.4705484262154L23.596150068329887,159.9581391447416L24.08977521216388,159.20162541978013L24.505459543813554,160.01981382708803L24.55742008526976,159.54698146764756L24.7652622510946,159.68266036292917L25.07702549983186,159.44584004019623L25.3108479363848,159.10547603279187L25.51869010220964,159.06414853476426L25.93437443385932,159.3748851103435L26.038295516771736,158.45689681964876L27.44123013608939,158.701153129482L27.467210406817497,158.538446206253L27.908875009195278,157.53854309754294L27.98681582137959,159.2260874870086L28.064756633563906,158.32061457313222L28.45446069448548,158.48552324733697L28.532401506669792,154.79601563306235L28.558381777397894,155.9461573223973L28.818184484678945,156.28702587864504L29.259849087056725,156.90477966187697L29.311809628512936,157.37503476017045L29.857395313803135,158.05416300086196L29.935336125987448,156.566944812446L30.299059916180916,156.7048918868955L30.42896126982144,157.54203920566047L30.974546955111638,156.52730291070566L31.13042857948027,156.91218358019486L31.390231286761317,157.59203229953138L31.546112911129942,157.0820473394087L31.598073452586156,152.16523504779573L31.727974806226676,156.81781553771572L31.75395507695478,157.0297065052478L32.143659137876355,155.71055805673205L32.61130401098224,155.48344510714554L32.66326455243845,155.43267258915336L32.975027801175706,155.52996561000603L33.156889696272444,155.5136258018216L33.18286996700054,156.53399703997272L33.23483050845675,155.01606917467925L33.31277132064107,156.09846693553243L33.36473186209728,156.17151107020544L33.67649511083454,156.39702180233897L33.936297818115584,152.95733275185376L34.24806106685284,153.46591187763866L34.37796242049336,153.56446260559608L35.05344945942409,153.36926511910596L35.1573705423365,155.78194744223228L35.26129162524893,151.12244498198163L35.287271895977035,151.79048658646576L35.469133791073766,153.57870053415576L35.70295622762671,154.07136377051808L35.80687731053913,147.59331640274945L35.91079839345154,152.67017115989793L36.04069974709207,154.38055203474048L36.144620830004484,151.62550400135297L36.37844326655743,149.4144384187059L36.482364349469854,153.17923589867374L36.53432489092606,153.9309122768702L36.58628543238227,151.5379134669751L36.768147327479,151.62980732653648L36.898048681119526,154.4125976054684L36.95000922257574,153.58397936115873L37.07991057621626,148.81613022888135L37.13187111767247,150.15864551935175L37.23579220058489,150.06873687013055L37.339713283497304,150.32129960544404L37.495594907865936,150.7608838148159L37.52157517859404,148.81598729373687L38.11912140534045,143.21303102809026L38.223042488252865,147.94065735554008L39.08039142228033,145.1749820330762L39.26225331737706,144.06928828700663L39.418134941745684,150.34662600271292L39.78185873193915,146.16248063132997L39.885779814851574,146.94194384594925L40.06764170994831,144.09884654188681L40.11960225140452,144.71455616930234L40.27548387577315,143.69869288570828L40.32744441722936,144.2502478449371L40.69116820742283,145.81267923938543L40.717148478150925,145.72637573214197L40.97695118543197,143.1347770906507L41.05489199761629,144.38177383289556L41.288714434169236,142.26593543067952L41.39263551708165,141.1582515875982L41.496556599994065,143.45158245423983L41.73037903654701,140.0811363187517L41.75635930727512,140.89306657952497L41.912240931643744,143.90958697223263L41.93822120237185,142.25024677148667L42.06812255601237,135.87042333551176L42.379885804749634,145.14049190487708L42.53576742911826,132.32635986618203L42.613708241302575,142.00570062094374L42.84753067785552,147.8379700600677L43.13331365586467,139.65399479695805L43.62693879969866,141.16752404697164L43.96468231916403,161.75453154819914L44.12056394353265,141.0780417598481L44.19850475571696,136.51657081869666L44.25046529717317,141.6722744655528L44.3543863800856,136.37181783236713L44.510268004454225,145.8600872839765L44.640169358094745,126.34896849702224L44.8999720653758,139.38338069672992L45.055853689744424,133.73717616569735L45.185755043384944,137.75471169032252L45.445557750666,141.88749447811685L45.57545910430652,138.89534880338272L46.536729121246395,147.625900729022L46.64065020415882,140.6029839796163L46.66663047488692,138.53532571610515L46.69261074561502,139.62564477163258L47.16025561872091,138.95163348694706L47.47201886745816,135.8386673000765L47.497999138186266,139.7009581544329L47.6538807625549,142.18222918939495L47.83574265765163,141.60958824218383L48.511229696582355,140.95651512366453L48.563190238038565,140.1814034901109L48.82299294531961,142.47118296816248L49.108775923328764,137.476339998919L49.18671673551307,132.77694763834398L49.2646575476974,130.15364793647305L49.78426296225949,141.8236207935475L49.94014458662812,139.90166108732174L50.12200648172485,137.9088715194947L50.27788810609348,139.40331587354888L50.537690813374525,139.84570381075503L50.69357243774316,146.48563988967553L50.771513249927466,137.12610002819778L51.057296227936625,131.87941755103859L51.135237040120934,136.35554277258146L51.21317785230525,137.54348775346475L51.239158123033356,135.85783282611746L52.486211117982386,119.66518920044766L52.5641519301667,135.31915058156824L52.64209274235101,135.19370972142784L52.668073013079116,135.69941670597598L53.23963896909742,141.3287438949474L53.551402217834685,136.07628415028134L53.60336275929089,136.6268507801777L53.70728384220331,138.6672609628107L53.811204925115725,138.7691505091433L53.915126008028146,135.16548430622834L54.56463277623076,129.05343337094234L54.590613046958865,135.76128441185085L54.876396024968024,139.87353096221858L55.08423819079286,140.86778294063262L55.18815927370528,122.19173036117289L55.24011981516149,137.71777089631274L55.681784417539276,136.11292441398734L56.07148847846084,121.54024907592944L56.17540956137326,126.65391635195805L56.824916329575885,130.32808500947664L57.24060066122556,133.61336012386613L57.266580931953655,121.78871433710081L57.65628499287523,133.58699897388453L57.76020607578765,129.0077405480852L57.9940285123406,114.68402891170254L58.17589040743733,57.43937825691455L58.201870678165434,106.15765189912858L58.5396141976308,126.738499750796L58.77343663418374,123.44626601603878L58.903337987824266,122.84878245204783L59.033239341464785,129.22056242655833L59.1111801536491,117.30983791944345L59.24108150728962,128.10718316771954L59.31902231947394,111.28823683225909L59.630785568211195,109.88390025929408L59.83862773403603,121.93789464790589L60.02048962913277,97.47132435152865L60.2023515242295,105.99780887087798L60.43617396078244,105.27744017599683L60.540095043694855,98.58339398237688L60.56607531442297,104.76472570436488L60.59205558515107,106.17347982846222L60.64401612660728,113.25187740395299L60.72195693879159,114.3404714644033L60.90381883388833,105.6956415320863L61.13764127044127,116.59550426399642L61.39744397772232,118.40992543151239L61.50136506063473,125.22265910511248L61.55332560209094,108.55372870130185L61.63126641427527,89.53110359816162L61.761167767915786,89.54870050261685L61.8391085801001,72.63795315435554L61.86508885082821,110.4569944452967L61.891069121556306,69.12562861711045L62.3846942653903,102.47177721977646L62.61851670194324,95.80802839011717L62.774398326311875,94.36442252412185L62.956260221408606,86.81452466532885L62.98224049213671,95.99279833023284L63.216062928689645,124.10898420264152L63.39792482378639,93.9593467679676L63.70968807252364,61.65547146559331L63.94351050907659,85.53308299659724L64.04743159198901,91.48222451719953L64.30723429927005,91.1704890754022L64.41115538218247,76.04756962777397L64.64497781873541,90.96097791694251L64.98272133820078,59.20324191998904L65.06066215038508,75.43159489842378L65.21654377475372,113.45307633400992L65.26850431620993,112.85122897227431L66.15183352096548,67.28197538004403L66.30771514533411,73.73396518230462L66.7493797477119,91.8247655368046L66.80134028916811,88.62709867097755L66.85330083062432,71.07624132230126L67.00918245499295,85.80477216457881L67.08712326717726,88.33257897325012L67.13908380863347,71.62665646537782L67.60672868173936,71.89732920566522L67.97045247193283,76.8580534337517L68.02241301338903,88.60715127747956L68.49005788649492,61.51020049207348L68.59397896940735,161.75453154819914L68.80182113523217,85.73044588944302L69.24348573760996,79.67824935132998L69.39936736197858,52.76843365509711L70.0228938594531,31.71675010746597L70.33465710819036,37.75398854379131L70.36063737891845,62.974286398771895L70.43857819110278,59.68273191136798L70.46455846183088,70.43431836672025L70.5165190032871,82.24260846361838L70.56847954474331,76.65242229254763L70.67240062765572,64.78058591807776L70.77632171056814,69.71073912859359L70.90622306420866,93.9860035615814L70.95818360566487,72.82863108044354L71.34788766658644,82.62720906574114L72.231216871342,87.33484279798061L72.33513795425442,73.20780747708302L72.38709849571063,15.93146187025485L72.51699984935117,64.06006573637681L72.7508222859041,-172.87809419568936L72.95866445172894,39.87509722133504L73.06258553464136,71.00325399518566L73.3223882419224,55.334424915702115L73.37434878337861,78.40093203343429L73.42630932483482,59.35243200413734L73.45228959556293,66.83088672404241L73.55621067847535,55.218786718804466L73.63415149065966,75.47016051074276L73.8419936564845,76.72079660166662L73.94591473939693,54.14350395181043L74.30963852959039,64.00634166873428L74.465520153959,17.272687079421132L74.59542150759954,76.02742676741173L74.62140177832764,64.01331006244524L74.67336231978385,75.91231633104758L74.75130313196817,64.11603767295836L74.80326367342438,78.41521088786867L74.85522421488058,75.66799252406275L74.88120448560869,80.78979122164468L75.06306638070542,77.68310929446018L75.14100719288975,42.57099575992885L75.27090854653025,74.01734326876907L75.76453369036425,76.01516122167925L76.0243363976453,69.59483705142918L76.18021802201393,78.83077344129057L76.33609964638256,46.483343234887L76.44002072929497,64.27701440902167L76.46600100002308,66.64870183320662L76.75178397803224,29.86602096991325L76.77776424876033,-22.575197642460267L77.16746830968191,80.3349935818937L77.42727101696296,63.055092400457994L77.6610934535159,76.93014161329167L78.10275805589369,73.16680830230398L78.57040292899957,74.89660209093753L78.59638319972768,80.83377615277534L78.6483437411839,81.57973146018843L78.90814644846493,55.42306913864512L79.01206753137735,35.784992180016616L79.50569267521134,-27.223751514976414L79.7914756532205,69.44164966990671L79.99931781904533,161.75453154819914L80.15519944341396,66.19651856276514L80.18117971414208,73.16709172925717L80.23314025559827,77.17035084278376L80.28510079705448,68.36640599628554L80.415002150695,68.80153478282011L81.06450891889762,66.54324745993705L81.09048918962573,161.75453154819914L81.35029189690678,69.13045664865773L81.40225243836298,68.95850444816607L81.53215379200351,75.7224789124759L81.89587758219697,72.32764950733895L82.0517592065656,15.279618971312516L82.23362110166234,52.79796869828718L82.28558164311855,73.03456519528723L82.67528570404012,77.28861806900575L82.77920678695254,71.34681632915652L82.83116732840875,52.82723008786725L83.16891084787412,77.55167737493012L83.48067409661137,55.84819002172949L83.79243734534862,80.86182076112539L83.81841761607673,79.52465148939255L83.84439788680483,161.75453154819914L84.05224005262968,80.60206484520704L84.2081216769983,64.62891340475333L84.64978627937609,86.41698415679194L84.80566790374472,76.27785891390474L84.83164817447282,73.79730621966885L85.03949034029766,61.29448326067347L85.1953719646663,56.631230279964754L85.35125358903491,161.75453154819914L85.48115494267543,74.06529129057263L86.07870116942183,72.63779678086414L86.13066171087806,77.7246264564295L86.26056306451858,91.20846340045678L86.3904644181591,94.98654468635308L86.72820793762448,89.97173966359681L86.91006983272119,85.85784630489765L87.29977389364277,84.05744499822092L87.61153714238002,93.77481627476067L87.68947795456434,88.38747584207825L88.0532017447578,82.25097444540881L88.07918201548591,82.87435736891454L88.13114255694212,93.59757669559072L88.96251122024148,93.0956177881648L88.98849149096958,88.46351245227632L89.01447176169769,99.50553334789291L89.19633365679441,161.75453154819914L89.48211663480356,81.10134096992097L89.87182069572513,105.7331809433679L89.94976150790946,103.98796970581564L90.00172204936567,105.3933813465341L90.7811301712088,101.46274794642417L91.11887369067416,93.91034322509702L91.35269612722712,106.63473764807709L91.58651856378006,110.67946994352859L91.7424001881487,98.39035090723131L91.8463212710611,106.90718425015767L92.28798587343888,64.57655760516064L92.3399464148951,74.349490337867L92.3659266856232,92.53917249232573L92.3919069563513,92.36950725414596L92.67768993436046,107.19209675150657L93.14533480746634,109.42198762568394L93.58699940984413,109.25495630350008L93.79484157566895,105.8218251663109L94.39238780241537,110.68616468362957L94.62621023896831,114.26011992317663L94.67817078042452,111.62354069121486L94.73013132188073,113.23247731767495L94.83405240479316,116.46537708578532L94.86003267552125,161.75453154819914L95.1458156535304,116.95981540560872L95.22375646571473,111.50684697325019L95.43159863153956,117.86603399503059L95.50953944372388,114.08845603630975L95.74336188027681,117.47494389301431L96.13306594119838,117.35178022184257L96.2369870241108,116.13084043427179L96.28894756556701,115.27291682033757L96.67865162648859,121.99336081397617L97.01639514595395,118.44522674719818L97.61394137270035,121.50035917560508L98.00364543362193,125.00110963115006L98.02962570435004,122.20811537106968L98.21148759944677,123.09323331249442L98.34138895308729,126.06571746401954L98.47129030672781,120.92420593317676L98.57521138964024,124.66124406424956L98.62717193109646,124.73238178616208L99.04285626274613,161.75453154819914L99.32863924075528,123.3265889850583L99.510501135852,125.59708810028619L99.53648140658011,123.74632719936804L99.71834330167685,127.36973799890927L99.79628411386116,131.40207525183072L100.41981061133568,127.13111205101771L100.49775142351999,121.59753797050895L100.67961331861672,121.2933793130376L100.75755413080104,126.51167755817008L100.78353440152914,125.30311815311453L100.83549494298535,129.63057372103518L100.86147521371346,122.1241110428171L101.38108062827556,128.7560720736757L101.51098198191607,129.80553855457228L101.74480441846903,125.60124910115917L101.79676495992523,128.2021996104375L102.36833091594353,130.24080661124765L102.57617308176836,128.03553478862415L102.93989687196184,130.2268453904677L102.96587714268993,127.31242711430752L103.09577849633047,132.14863161985141L103.22567984997099,128.02249226210625L103.40754174506772,128.0818408887679L104.16096959618275,131.6208222196268L104.21293013763896,131.532026509864L104.26489067909517,127.92860708386519L104.47273284492002,133.63370333776425L104.91439744729779,133.1680010903232L105.04429880093832,161.75453154819914L105.61586475695664,133.05414408522614L105.69380556914093,132.09115703175087L105.82370692278147,135.505943603729L106.00556881787818,132.80203336703627L106.10948990079062,133.41013078175666L106.16145044224683,133.75878747087737L106.31733206661546,132.90864099480498L106.34331233734356,134.99791789350357L106.49919396171218,132.78490802639107L106.68105585680892,131.66643196906665L106.83693748117754,132.07142220846777L106.91487829336187,128.78452227576912L107.35654289573965,138.01477057988046L107.40850343719586,130.10256022816225L107.6683061444769,131.22956108410432L107.74624695666122,129.0346319019361L107.92810885175794,129.15052176242148L108.34379318340763,132.71106797508014L108.39575372486384,125.015368938898L108.55163534923247,130.11313987219046L108.65555643214489,129.4112354659747L108.70751697360109,125.75510107002013L109.07124076379456,127.7257149220966L109.51290536617233,122.8453422352368L109.82466861490961,128.35708022367166L110.03251078073444,110.39292529386309L110.50015565384032,126.76294288217201L110.55211619529653,124.92603813859427L110.60407673675275,127.1830207201584L110.68201754893705,127.25060827514875L110.75995836112136,128.18213982349258L111.20162296349915,125.52559365134641L111.4874059415083,130.02394589869172L111.51338621223641,128.09353958059404L111.85112973170176,131.63537228433535L112.63053785354491,130.44218634815402L112.68249839500112,128.73217869285543L113.30602489247565,127.62127453318539L113.40994597538806,128.41534889590827L113.46190651684427,130.40429753985256L113.6177881412129,129.2170415796658L113.69572895339721,129.025926296469L113.74768949485342,129.1239382688818L113.98151193140636,131.06361704635293L114.16337382650309,127.06475105060062L114.50111734596845,129.18529287423797L114.7089595117933,127.93728092596683L115.04670303125866,131.2095794839051L115.09866357271487,126.56836050547038L115.17660438489919,125.37993174409804L115.48836763363644,129.09908710042663L115.59228871654886,123.94653902176043L115.72219007018938,127.50543353941606L115.7741506116456,127.3302659090073L116.03395331892663,127.44941029278263L116.13787440183906,126.69335179182299L116.47561792130442,127.75229841563629L116.89130225295409,129.60843221198587L117.02120360659463,126.24002504022556L117.20306550169134,123.17684182034685L117.85257226989398,128.04331925649342L117.87855254062208,119.84956332016318L118.08639470644691,121.91401837043624L118.34619741372795,123.69061181304582L118.5540395795528,120.68011668642905L118.73590147464952,124.5567645819655L118.83982255756194,126.27550471942502L119.1256055355711,121.62383070708805L119.28148715993973,119.43039440309563L119.43736878430838,122.32067252151941L120.00893474032667,121.33572476584425L120.29471771833582,122.0366616110819L120.42461907197634,125.34625769005723L120.65844150852928,121.52266683148903L120.68442177925739,123.93831475344658L120.97020475726654,129.3012853548271L120.99618502799466,127.64867898755497L121.28196800600381,120.37975741613181L121.35990881818812,123.19848733222813L121.61971152546917,123.7361018390313L121.64569179619727,126.55294061321587L121.67167206692538,125.64713739088057L122.84078424969009,122.58654899362496L122.97068560333061,121.58818488105399L122.9966658740587,122.46998477245786L123.25646858133977,122.41378804898241L125.15302834449142,125.12064006198233L125.43881132250057,130.1299304758306L125.46479159322867,122.92158408564237L125.51675213468488,123.14027730005077L125.56871267614109,125.93016119365356L125.6466534883254,121.97979785693215L125.6726337590535,123.6728585350992L125.72459430050971,125.11556769685473L126.32214052725612,123.3537613225266L126.45204188089664,123.5570322013447L126.52998269308097,123.55698333462863L126.73782485890581,115.78223994187456L127.02360783691496,127.00503103689684L127.25743027346789,124.81613689416272L127.33537108565221,126.30791801219132L127.36135135638031,126.2895099202494L127.75105541730188,126.05710226197718L128.16673974895156,122.80401076678851L128.32262137332017,123.8599716342502L128.4265424562326,122.80611447891513L128.66036489278557,126.6342939221219L128.71232543424176,125.98956113036711L128.9461478707947,124.33834257783124L129.05006895370713,129.3466361106718L129.20595057807574,125.03006316041893L129.3358519317163,123.51492375211096L129.90741788773457,126.431020599968L130.011338970647,124.46401066820135L130.24516140719993,128.1079919118704L130.63486546812152,124.16629264390747L130.81672736321826,124.4647803189794L130.97260898758688,123.87901743683678L131.0765300704993,161.75453154819914L131.1025103412274,125.76895967069635L131.59613548506138,126.47695775640545L131.6221157557895,129.9983177494511L131.6740762972457,129.9110198045357L131.82995792161432,127.26302286436521L131.90789873379865,124.40071605421738L132.60936604345747,127.12685331671258L132.76524766782612,127.10069985027428L132.86916875073854,128.933270116137L132.94710956292283,122.12464613335803L133.15495172874768,161.75453154819914L133.2069122702039,128.3696340830289L133.64857687258169,126.96741832554113L133.67455714330978,126.2980029555016L134.16818228714376,128.8162489911747L134.19416255787186,128.05528182858626L134.2721033700562,125.83571893484937L134.50592580660913,128.9766833066897L134.71376797243397,127.9566150421782L134.76572851389017,127.7205814735739L134.7917087846183,126.54466014817856L135.18141284553985,124.87579338113561L135.4412155528209,126.61427567188562L135.51915636500522,129.33715352441925L135.80493934301435,125.03035391737951L135.88288015519868,129.84134564076936L135.9348406966549,123.748985548722L135.9868012381111,121.64073614751095L136.29856448684836,125.42854435324011L136.74022908922615,125.81211631098967L137.1299331501477,124.36346984323218L137.28581477451633,131.00030532901835L137.46767666961307,124.2764822019638L137.6755188354379,123.8756847268011L137.77943991835033,126.49287608916384L137.96130181344705,126.21160904483341L137.98728208417515,128.36707835377865L138.01326235490328,124.99509169506658L138.27306506218432,122.16047276624153L138.94855210111504,128.33913392219654L139.07845345475556,125.27200227165974L139.49413778640525,129.89127032123778L139.62403914004577,127.51409272150289L139.77992076441438,124.2372226822767L139.8838418473268,125.46435143943718L139.9098221180549,127.0642135167239L140.11766428387975,125.90484334805996L140.19560509606407,123.8219044624351L140.22158536679217,124.21700652184035L140.27354590824837,129.43219928716687L140.3514867204327,129.02700625089406L140.58530915698563,129.43906261743825L140.68923023989805,126.84985478003051L140.79315132281047,128.36190825521894L140.87109213499477,124.98758576747889L140.8970724057229,127.03007034220886L141.05295403009154,125.05436213498254L141.20883565446013,135.7961190503982L141.26079619591636,124.81318534451235L141.33873700810068,126.42064619614726L142.24804648358435,124.51852393330836L142.5598097323216,125.7786108471193L143.0534348761556,118.14041571906735L143.10539541761182,122.70271739439193L143.52107974926147,125.65195076241304L143.59902056144577,127.06285013534566L143.650981102902,126.42742156632977L143.67696137363012,133.01023001083377L144.1705865174641,123.6112620394985L144.79411301493863,125.83792771041553L144.87205382712293,121.18143543987452L145.2097973465883,126.45059904975967L145.41763951241313,125.03206180910601L145.65146194896607,124.11331379368494L145.7294027611504,126.6544734325212L145.78136330260662,127.67517207766994L145.8073435733347,120.50002817771247L146.17106736352818,127.97666994245151L146.378909529353,124.60420683325779L146.95047548537133,127.56456470919125L147.10635710973992,127.92954532481366L147.18429792192427,130.19767684764815L147.36615981702099,124.4883194161082L147.70390333648635,126.38257658099636L147.75586387794255,127.21947529034334L147.78184414867064,124.60858040434566L147.96370604376742,127.355979575001L148.43135091687327,124.66180358814852L148.84703524852296,128.65136536116194L149.0288971436197,126.27924302320402L149.15879849726022,132.43669602438658L149.18477876798832,125.48062405588703L149.34066039235694,125.28234246877922L149.6784039118223,128.16244898025394L149.7303644532785,128.39277247308596L149.88624607764714,123.51439843491326L150.56173311657787,123.58970204437034L150.69163447021842,124.93350741614489L151.02937798968375,128.83123396965624L151.1332990725962,127.55160769942646L151.60094394570206,124.78924798364761L151.8087861115269,125.39387097485576L152.4063323382733,131.3490304315415L152.48427315045762,129.50815771061923L152.51025342118572,129.54822108778563L152.61417450409814,127.69906057181862L152.64015477482627,128.5073575922524L152.74407585773866,128.37367780378332L153.31564181375697,129.50950398864683L153.91318804050337,131.71271119251657L154.25093155996876,132.63301561284436L154.66661589161842,128.41047688431655L154.95239886962756,129.30343549033398L155.36808320127727,132.48322935476006L155.44602401346157,131.8762192244721L155.7318069914707,131.32528853754104L155.75778726219883,130.72231235466433L155.83572807438313,130.4965407964338L156.2773926767609,130.16458675086432L156.38131375967333,136.06899812291596L156.90091917423544,132.17819598307113L156.95287971569164,133.41167008331274L157.31660350588513,127.56559335356442L157.44650485952565,133.24176295488843L157.81022864971908,133.74532469060128L157.8362089204472,129.85429532052675L157.88816946190343,130.73683798601482L158.01807081554392,132.31407721709894L158.74551839593087,131.13806793161467L158.9793408324838,134.87977527740756L159.16120272758056,137.20426722721632L159.26512381049298,131.44455753144237L159.4210054348616,132.36612271304463L159.57688705923022,130.2727752168978L159.70678841287074,131.34860040444016L159.78472922505506,132.1809398491782L159.83668976651128,131.9924022852539L160.22639382743284,132.5952807346985L160.46021626398579,131.96051430968527L160.66805842981063,130.08715743925836L161.1097230321884,135.21979233112785L161.23962438582893,133.21861234815236L161.29158492728513,131.8269933380434L161.6033481760224,130.8044719643854L161.6553087174786,132.96457872468528L161.81119034184724,130.02529217671932L162.1229535905845,132.34627305297877L162.25285494422502,161.75453154819914L162.51265765150606,131.62309452192386L162.7724603587871,131.64179337082638L163.21412496116488,133.03517646938528L163.49990793917402,128.09241075945292L163.55186848063025,132.6235232532486L163.65578956354267,131.08583429881216L163.96755281227993,132.70786964851362L164.04549362446423,133.0725888272051L165.1106847243165,134.97851047721812L165.18862553650087,132.4136969044703L165.2925466194133,132.01518639161947L165.65627040960672,139.2697777985564L165.94205338761589,132.5680228804771L166.12391528271263,131.16760786147634L166.30577717780938,125.96775191498702L166.56557988509041,131.80200778611908L166.6435206972747,125.96687964410526L166.77342205091523,131.340603366356L166.90332340455578,132.07040089410202L167.0592050289244,131.94881561785917L167.37096827766166,131.94849065419734L167.39694854838973,129.4092001672506L167.83861315076751,131.8485142397987L167.91655396295187,131.7469911938366L168.09841585804858,131.7168306566809L168.41017910678585,132.73907104672153L168.79988316770743,131.77420018134194L168.85184370916363,131.73189382190813L169.03370560426038,134.5264493735668L169.2935083115414,134.041703766875L169.50135047736623,132.56035080605477L169.55331101882246,136.13745061878066L169.60527156027865,130.6536301852341L169.73517291391917,130.0649157534411L169.96899535047214,132.29316959263028L170.22879805775318,129.6288804893235L170.25477832848128,132.54321569206638L170.51458103576232,132.59659524936063L170.61850211867474,131.735075045124L170.64448238940287,131.06959344572775L171.13810753323685,129.84171458447565L171.26800888687737,135.01212344786384L171.3199694283336,133.69536824676743L171.42389051124601,133.45188250396313L171.65771294779896,133.35234344667327L172.1253578209048,134.51771689140588L172.64496323546692,135.4313729950129L172.77486458910744,137.3325228102021L173.00868702566038,133.47183967080431L173.16456865002903,134.6427936945116L173.1905489207571,134.17520519183043L173.21652919148522,136.95261341282168L173.29447000366952,137.65305670422705L173.37241081585387,134.21657331031577L173.94397677187217,133.04960436730363L174.38564137424996,132.83742997281837L174.41162164497803,131.50877083968837L174.51554272789045,134.6673150126333L174.645444081531,133.14313770518902L174.8273059766277,161.75453154819914L175.06112841318065,133.9219998592007L175.11308895463688,129.2318115445966L175.37289166191795,130.04484374981718L175.52877328628654,131.37378386656457L175.58073382774276,136.49368164889154L175.73661545211138,131.6719758980043L175.7885759935676,130.90781529552095L175.8405365350238,130.56040715099576L176.15229978376107,132.54672187894408L176.20426032521726,131.60701492900247L176.25622086667346,131.37581427861707L176.8537670934199,130.2797973639964L176.9576881763323,133.33060508803152L177.08758952997283,128.26806461368653L177.16553034215715,132.90921273538297L177.5812146738068,130.85771225153889L177.84101738108788,130.20907500917045L177.86699765181598,161.75453154819914L177.91895819327218,133.1755143479183L178.07483981764082,132.28623051894897L178.23072144200944,134.38226812781522L178.41258333710618,132.33790707118834L178.54248469074668,128.97984986989076L178.72434658584345,132.0150617814935L178.88022821021207,130.94979180462133L179.21797172967743,127.2108796349874L179.39983362477417,136.57093504031963L179.89345876860816,129.0113933351111L180.41306418317023,136.0968228310437L180.49100499535456,130.24871324590708L180.59492607826698,129.88746604739208L180.62090634899508,130.25686910081842L180.80276824409182,131.024330649972L181.2444328464696,134.9324682573411L181.53021582447874,130.96449579948546L181.81599880248788,129.54562626516253L181.99786069758463,129.81628190209932L182.15374232195325,131.89771324953355L182.77726881942777,132.3607449309416L183.37481504617418,132.32980252632888L183.99834154364868,130.84365574066263L184.20618370947355,131.86244858388483L184.31010479238597,133.0341478250121L184.64784831185133,132.24005635893857L184.93363128986047,134.58330335437333L185.0375523727729,132.4636777816622L185.24539453859774,132.2880361441076L185.27137480932583,131.11732156730903L185.37529589223826,133.06062381177645L185.6091183287912,128.86674785555692L185.63509859951932,129.88373751695627L185.89490130680034,132.9935493573048L185.92088157752846,131.73083830084113L185.94686184825656,131.17470330864907L186.1547040140814,133.1963926523573L186.25862509699382,133.27557383573424L186.67430942864348,161.75453154819914L187.297835926118,131.1105193204327L187.4017570090304,131.17110183167503L187.45371755048663,130.1550992779402L187.47969782121476,132.97413705434772L187.55763863339905,135.13740060450544L187.791461069952,132.04242225581862L187.81744134068012,132.15707823172337L188.05126377723303,161.75453154819914L188.12920458941736,130.7604406098745L188.3890072966984,131.86338193816167L188.51890865033891,131.56239717389877L189.45419839655068,132.43652743421615L189.68802083310362,133.62230517624192L189.73998137455985,135.14018845065698L189.84390245747227,132.1551626564536L189.99978408184091,131.50324401410137L190.0777248940252,130.64321180136892L190.25958678912195,161.75453154819914L190.33752760130625,129.77707124912826L190.46742895494677,132.5454073642819L190.54536976713112,132.07208190913465L190.75321193295596,131.1841052648201L190.85713301586836,131.34377725956446L190.96105409878078,130.83928949958215L191.22085680606182,133.64732004819592L191.24683707678992,133.8152700646418L191.55860032552718,132.21715985912604L191.6625214084396,133.61306936690553L191.84438330353635,135.5020489264586L191.94830438644877,133.38173921972256L192.2340873644579,131.88125982623427L192.54585061319517,132.58575416840148L192.96153494484483,131.0099736087919L193.61104171304746,130.67139323652395L194.00074577396904,131.8174398950526L194.2085879397939,133.7929208720492L194.3644695641625,133.2008639568773L194.46839064707493,129.3175335379189L194.57231172998735,134.01894898053905L194.7801538958122,132.13462153235542L194.9360355201808,131.5323954535703L194.9620157909089,133.58372001723652L195.4036803932867,130.87414368481595L195.63750282983963,138.07881285462025L195.79338445420825,128.9087634580301L196.00122662003312,134.81900707264418L196.07916743221742,130.27028545771424L196.18308851512984,127.46399212085663L196.4428912224109,130.85348772393502L196.65073338823572,130.54195019233777L196.72867420042004,128.59358046941435L197.0923979906135,131.48537345603617L197.19631907352593,133.60213788252165L197.40416123935077,161.75453154819914L197.48210205153507,126.92454755553678L197.6379836759037,126.21006974327736L198.1056285490096,128.04964993955969L198.1575890904658,130.70328121209258L198.6252339635717,131.13566124584847L198.72915504648412,129.33874413602717L198.80709585866842,132.4615300894911L199.19679991958998,131.38813113440142L199.2747407317743,124.72728254434062L199.37866181468672,131.13138052152112L199.56052370978347,130.27483006230835L199.89826722924883,130.93134217597074L200.05414885361742,131.40832286147972L200.4178726438109,128.31873695491078L200.72963589254817,128.72635866697203L200.91149778764492,131.3683865377751L201.11933995346976,133.81665054937065L201.32718211929458,130.65470036631592L201.3531623900227,129.88668173659923L201.4830637436632,127.38937020208864L201.58698482657562,129.83792985731637L201.92472834604098,132.08651469372464L202.0286494289534,161.75453154819914L202.39237321914686,133.54074662712844L202.70413646788413,131.85523829992934L202.73011673861222,132.04608970285938L202.91197863370897,131.36671040941405L203.11982079953378,128.4196076302134L203.27570242390243,132.64865784865694L203.43158404827105,134.83458822506168L203.6134459433678,132.07317163690294L203.665406484824,134.07607417161972L203.89922892137693,135.5513554429688L203.95118946283316,131.36165270430126L203.97716973356128,133.32803225543066L204.47079487739526,132.68800532843298L204.54873568957956,131.87287429775742L204.7825581261325,132.4303018145894L205.12030164559786,131.46221796262847L205.40608462360703,132.57346663264678L205.48402543579135,128.9108354067913L205.7438281430724,130.83377489067416L206.15951247472208,129.51375050627294L206.44529545273122,127.49969414361415L206.52323626491554,129.14451604301703L206.91294032583713,129.32568206282286L207.17274303311814,130.53563416928628L207.19872330384626,130.71200147757446L207.32862465748678,133.15710381264057L207.35460492821488,122.95250205689707L207.4845062818554,128.94816713452963L207.53646682331163,134.51927818298418L207.64038790622405,129.18476511370446L207.66636817695215,129.64485013213374L207.69234844768027,131.6130524117724L208.08205250860183,130.03754061910115L208.26391440369855,129.38484255262767L208.28989467442665,129.85905738200734L208.39381575733907,130.57955313035023L208.4457762987953,127.07816252082483L208.6795987353482,131.26884748048528L208.78351981826063,127.93509902709451L208.86146063044498,127.52463082882244L209.5369476693757,134.05941550811298L209.56292794010378,127.415113188112L209.79675037665672,128.8869346959636L209.87469118884107,132.18536473031793L209.9786122717535,129.89475940476487L210.05655308393779,126.90033898439788L210.31635579121883,132.9006903801011L210.34233606194692,130.94128410935429L210.36831633267505,131.79171156904403L210.39429660340315,131.50592191014175L210.52419795704367,129.52469909400745L210.6800795814123,129.85406320362543L210.7840006643247,130.27381852128576L210.83596120578093,131.90345753200708L211.2516455374306,132.41566134645615L211.4075271617992,131.4878485552049L211.43350743252734,130.57501829909936L211.64134959835215,131.4393556695172L211.7972312227208,131.80060531136797L211.92713257636134,133.90884982590742L212.13497474218616,129.73281999439507L212.3168366372829,121.4200882644599L212.57663934456394,128.41502393224644L213.04428421766985,132.6128678658105L213.2521263834947,131.77013691390107L213.8496726102411,131.91389546255868L214.03153450533782,129.78534927082978L214.18741612970646,131.923666362436L214.26535694189076,128.8634640122373L215.07074533446203,127.54048074817831L215.09672560519013,127.71191740481547L215.51240993683982,135.80131358231597L215.53839020756791,126.1117132605163L215.79819291484895,133.10361430523517L215.87613372703328,130.59577443674823L215.92809426848947,130.41220417451197L216.2138772464986,130.31976056439487L216.36975887086726,130.87555837624606L216.44769968305155,134.2586280061618L216.55162076596397,135.38432412078495L216.9673050976137,130.41665348900975L217.01926563906989,129.60147359161812L217.04524590979798,131.5107181783236L217.1491669927104,161.75453154819914L217.2271078048947,128.25738234955458L217.27906834635093,128.32573222531556L217.35700915853525,126.49871321839788L217.6427921365444,129.4393069510186L217.7467132194568,132.966308606434L218.03249619746597,131.70875298851527L218.11043700965027,132.0726854130781L218.63004242421238,131.9508460299117L218.8378845900372,128.65064702043577L219.09768729731826,131.1337481139145L219.12366756804636,131.42430472096896L219.40945054605552,132.39118645171467L220.00699677280193,131.0735760830871L220.13689812644247,131.36088794019483L220.57856272882026,130.79767949085232L221.020227331198,127.26134184933255L221.17610895556663,131.03971144885364L221.22806949702286,128.88867435105556L221.72169464085684,130.2129134897174L221.74767491158497,127.23851864959411L221.85159599449736,126.68397915568161L221.95551707740978,132.03216024544486L222.0594381603222,133.63015561417785" style="fill: none;" fill="none"></path></g></g></g></g></g></g><g transform="translate(48, 177)" clip-path="url(#clip_1)"><clipPath id="clip_1"><rect width="281" height="23"></rect></clipPath><g><g><line x1="16.503536159557285" y1="0" x2="16.503536159557285" y2="5" style="visibility: inherit;" fill="rgb(0, 0, 0)" stroke="rgb(204, 204, 204)" stroke-width="1px"></line><line x1="42.48380688766205" y1="0" x2="42.48380688766205" y2="5" style="visibility: inherit;" fill="rgb(0, 0, 0)" stroke="rgb(204, 204, 204)" stroke-width="1px"></line><line x1="68.46407761576681" y1="0" x2="68.46407761576681" y2="5" style="visibility: inherit;" fill="rgb(0, 0, 0)" stroke="rgb(204, 204, 204)" stroke-width="1px"></line><line x1="94.44434834387158" y1="0" x2="94.44434834387158" y2="5" style="visibility: inherit;" fill="rgb(0, 0, 0)" stroke="rgb(204, 204, 204)" stroke-width="1px"></line><line x1="120.42461907197634" y1="0" x2="120.42461907197634" y2="5" style="visibility: inherit;" fill="rgb(0, 0, 0)" stroke="rgb(204, 204, 204)" stroke-width="1px"></line><line x1="146.40488980008112" y1="0" x2="146.40488980008112" y2="5" style="visibility: inherit;" fill="rgb(0, 0, 0)" stroke="rgb(204, 204, 204)" stroke-width="1px"></line><line x1="172.38516052818588" y1="0" x2="172.38516052818588" y2="5" style="visibility: inherit;" fill="rgb(0, 0, 0)" stroke="rgb(204, 204, 204)" stroke-width="1px"></line><line x1="198.36543125629063" y1="0" x2="198.36543125629063" y2="5" style="visibility: inherit;" fill="rgb(0, 0, 0)" stroke="rgb(204, 204, 204)" stroke-width="1px"></line><line x1="224.34570198439542" y1="0" x2="224.34570198439542" y2="5" style="visibility: inherit;" fill="rgb(0, 0, 0)" stroke="rgb(204, 204, 204)" stroke-width="1px"></line><line x1="250.32597271250017" y1="0" x2="250.32597271250017" y2="5" style="visibility: inherit;" fill="rgb(0, 0, 0)" stroke="rgb(204, 204, 204)" stroke-width="1px"></line><line x1="276.306243440605" y1="0" x2="276.306243440605" y2="5" style="visibility: inherit;" fill="rgb(0, 0, 0)" stroke="rgb(204, 204, 204)" stroke-width="1px"></line></g><g transform="translate(0, 8)"><text x="16.503536159557285" y="0" dx="0em" dy="0.95em" style="text-anchor: middle; visibility: inherit; font-family: &quot;Helvetica Neue&quot;, sans-serif; font-size: 12px; font-weight: 200;" fill="rgb(50, 49, 63)" stroke="none" stroke-width="1px">0</text><text x="42.48380688766205" y="0" dx="0em" dy="0.95em" style="text-anchor: middle; visibility: inherit; font-family: &quot;Helvetica Neue&quot;, sans-serif; font-size: 12px; font-weight: 200;" fill="rgb(50, 49, 63)" stroke="none" stroke-width="1px">1k</text><text x="68.46407761576681" y="0" dx="0em" dy="0.95em" style="text-anchor: middle; visibility: inherit; font-family: &quot;Helvetica Neue&quot;, sans-serif; font-size: 12px; font-weight: 200;" fill="rgb(50, 49, 63)" stroke="none" stroke-width="1px">2k</text><text x="94.44434834387158" y="0" dx="0em" dy="0.95em" style="text-anchor: middle; visibility: inherit; font-family: &quot;Helvetica Neue&quot;, sans-serif; font-size: 12px; font-weight: 200;" fill="rgb(50, 49, 63)" stroke="none" stroke-width="1px">3k</text><text x="120.42461907197634" y="0" dx="0em" dy="0.95em" style="text-anchor: middle; visibility: inherit; font-family: &quot;Helvetica Neue&quot;, sans-serif; font-size: 12px; font-weight: 200;" fill="rgb(50, 49, 63)" stroke="none" stroke-width="1px">4k</text><text x="146.40488980008112" y="0" dx="0em" dy="0.95em" style="text-anchor: middle; visibility: inherit; font-family: &quot;Helvetica Neue&quot;, sans-serif; font-size: 12px; font-weight: 200;" fill="rgb(50, 49, 63)" stroke="none" stroke-width="1px">5k</text><text x="172.38516052818588" y="0" dx="0em" dy="0.95em" style="text-anchor: middle; visibility: inherit; font-family: &quot;Helvetica Neue&quot;, sans-serif; font-size: 12px; font-weight: 200;" fill="rgb(50, 49, 63)" stroke="none" stroke-width="1px">6k</text><text x="198.36543125629063" y="0" dx="0em" dy="0.95em" style="text-anchor: middle; visibility: inherit; font-family: &quot;Helvetica Neue&quot;, sans-serif; font-size: 12px; font-weight: 200;" fill="rgb(50, 49, 63)" stroke="none" stroke-width="1px">7k</text><text x="224.34570198439542" y="0" dx="0em" dy="0.95em" style="text-anchor: middle; visibility: inherit; font-family: &quot;Helvetica Neue&quot;, sans-serif; font-size: 12px; font-weight: 200;" fill="rgb(50, 49, 63)" stroke="none" stroke-width="1px">8k</text><text x="250.32597271250017" y="0" dx="0em" dy="0.95em" style="text-anchor: middle; visibility: inherit; font-family: &quot;Helvetica Neue&quot;, sans-serif; font-size: 12px; font-weight: 200;" fill="rgb(50, 49, 63)" stroke="none" stroke-width="1px">9k</text><text x="276.306243440605" y="0" dx="0em" dy="0.95em" style="text-anchor: middle; visibility: hidden; font-family: &quot;Helvetica Neue&quot;, sans-serif; font-size: 12px; font-weight: 200;" fill="rgb(50, 49, 63)" stroke="none" stroke-width="1px">10k</text></g><line x1="0" y1="0" x2="281.125" y2="0" fill="rgb(0, 0, 0)" stroke="rgb(204, 204, 204)" stroke-width="1px"></line></g></g></g></g></svg>