<svg viewBox="0 0 330 200" xmlns="http://www.w3.org/2000/svg"><g><g><g><g><g><line x1="40" y1="165.60554368377012" x2="35" y2="165.60554368377012" style="visibility: inherit;" fill="rgb(0, 0, 0)" stroke="rgb(204, 204, 204)" stroke-width="1px"></line><line x1="40" y1="149.89196963443325" x2="35" y2="149.89196963443325" style="visibility: inherit;" fill="rgb(0, 0, 0)" stroke="rgb(204, 204, 204)" stroke-width="1px"></line><line x1="40" y1="134.1783955850964" x2="35" y2="134.1783955850964" style="visibility: inherit;" fill="rgb(0, 0, 0)" stroke="rgb(204, 204, 204)" stroke-width="1px"></line><line x1="40" y1="118.46482153575958" x2="35" y2="118.46482153575958" style="visibility: inherit;" fill="rgb(0, 0, 0)" stroke="rgb(204, 204, 204)" stroke-width="1px"></line><line x1="40" y1="102.75124748642273" x2="35" y2="102.75124748642273" style="visibility: inherit;" fill="rgb(0, 0, 0)" stroke="rgb(204, 204, 204)" stroke-width="1px"></line><line x1="40" y1="87.03767343708589" x2="35" y2="87.03767343708589" style="visibility: inherit;" fill="rgb(0, 0, 0)" stroke="rgb(204, 204, 204)" stroke-width="1px"></line><line x1="40" y1="71.32409938774904" x2="35" y2="71.32409938774904" style="visibility: inherit;" fill="rgb(0, 0, 0)" stroke="rgb(204, 204, 204)" stroke-width="1px"></line><line x1="40" y1="55.610525338412195" x2="35" y2="55.610525338412195" style="visibility: inherit;" fill="rgb(0, 0, 0)" stroke="rgb(204, 204, 204)" stroke-width="1px"></line><line x1="40" y1="39.896951289075346" x2="35" y2="39.896951289075346" style="visibility: inherit;" fill="rgb(0, 0, 0)" stroke="rgb(204, 204, 204)" stroke-width="1px"></line><line x1="40" y1="24.183377239738515" x2="35" y2="24.183377239738515" style="visibility: inherit;" fill="rgb(0, 0, 0)" stroke="rgb(204, 204, 204)" stroke-width="1px"></line><line x1="40" y1="8.469803190401663" x2="35" y2="8.469803190401663" style="visibility: inherit;" fill="rgb(0, 0, 0)" stroke="rgb(204, 204, 204)" stroke-width="1px"></line></g><g transform="translate(30, 0)"><text x="0" y="165.60554368377012" dx="0em" dy="0.3em" style="text-anchor: end; visibility: inherit; font-family: Roboto, sans-serif; font-size: 12px; font-weight: 200;" fill="rgb(50, 49, 63)" stroke="none" stroke-width="1px">0</text><text x="0" y="149.89196963443325" dx="0em" dy="0.3em" style="text-anchor: end; visibility: hidden; font-family: Roboto, sans-serif; font-size: 12px; font-weight: 200;" fill="rgb(50, 49, 63)" stroke="none" stroke-width="1px">0.1</text><text x="0" y="134.1783955850964" dx="0em" dy="0.3em" style="text-anchor: end; visibility: inherit; font-family: Roboto, sans-serif; font-size: 12px; font-weight: 200;" fill="rgb(50, 49, 63)" stroke="none" stroke-width="1px">0.2</text><text x="0" y="118.46482153575958" dx="0em" dy="0.3em" style="text-anchor: end; visibility: hidden; font-family: Roboto, sans-serif; font-size: 12px; font-weight: 200;" fill="rgb(50, 49, 63)" stroke="none" stroke-width="1px">0.3</text><text x="0" y="102.75124748642273" dx="0em" dy="0.3em" style="text-anchor: end; visibility: inherit; font-family: Roboto, sans-serif; font-size: 12px; font-weight: 200;" fill="rgb(50, 49, 63)" stroke="none" stroke-width="1px">0.4</text><text x="0" y="87.03767343708589" dx="0em" dy="0.3em" style="text-anchor: end; visibility: hidden; font-family: Roboto, sans-serif; font-size: 12px; font-weight: 200;" fill="rgb(50, 49, 63)" stroke="none" stroke-width="1px">0.5</text><text x="0" y="71.32409938774904" dx="0em" dy="0.3em" style="text-anchor: end; visibility: inherit; font-family: Roboto, sans-serif; font-size: 12px; font-weight: 200;" fill="rgb(50, 49, 63)" stroke="none" stroke-width="1px">0.6</text><text x="0" y="55.610525338412195" dx="0em" dy="0.3em" style="text-anchor: end; visibility: hidden; font-family: Roboto, sans-serif; font-size: 12px; font-weight: 200;" fill="rgb(50, 49, 63)" stroke="none" stroke-width="1px">0.7</text><text x="0" y="39.896951289075346" dx="0em" dy="0.3em" style="text-anchor: end; visibility: inherit; font-family: Roboto, sans-serif; font-size: 12px; font-weight: 200;" fill="rgb(50, 49, 63)" stroke="none" stroke-width="1px">0.8</text><text x="0" y="24.183377239738515" dx="0em" dy="0.3em" style="text-anchor: end; visibility: hidden; font-family: Roboto, sans-serif; font-size: 12px; font-weight: 200;" fill="rgb(50, 49, 63)" stroke="none" stroke-width="1px">0.9</text><text x="0" y="8.469803190401663" dx="0em" dy="0.3em" style="text-anchor: end; visibility: inherit; font-family: Roboto, sans-serif; font-size: 12px; font-weight: 200;" fill="rgb(50, 49, 63)" stroke="none" stroke-width="1px">1</text></g><line x1="40" y1="0" x2="40" y2="178" fill="rgb(0, 0, 0)" stroke="rgb(204, 204, 204)" stroke-width="1px"></line></g></g><g transform="translate(40, 0)" clip-path="url(#clip_0)"><clipPath id="clip_0"><rect width="290" height="178"></rect></clipPath><g><g><g><line x1="15.321409886391594" y1="0" x2="15.321409886391594" y2="178" fill="rgb(0, 0, 0)" stroke="rgb(60, 60, 60)" stroke-width="1px" opacity="0.25"></line><line x1="51.42985714228643" y1="0" x2="51.42985714228643" y2="178" fill="rgb(0, 0, 0)" stroke="rgb(60, 60, 60)" stroke-width="1px" opacity="0.25"></line><line x1="87.53830439818125" y1="0" x2="87.53830439818125" y2="178" fill="rgb(0, 0, 0)" stroke="rgb(60, 60, 60)" stroke-width="1px" opacity="0.25"></line><line x1="123.6467516540761" y1="0" x2="123.6467516540761" y2="178" fill="rgb(0, 0, 0)" stroke="rgb(60, 60, 60)" stroke-width="1px" opacity="0.25"></line><line x1="159.75519890997091" y1="0" x2="159.75519890997091" y2="178" fill="rgb(0, 0, 0)" stroke="rgb(60, 60, 60)" stroke-width="1px" opacity="0.25"></line><line x1="195.8636461658658" y1="0" x2="195.8636461658658" y2="178" fill="rgb(0, 0, 0)" stroke="rgb(60, 60, 60)" stroke-width="1px" opacity="0.25"></line><line x1="231.9720934217606" y1="0" x2="231.9720934217606" y2="178" fill="rgb(0, 0, 0)" stroke="rgb(60, 60, 60)" stroke-width="1px" opacity="0.25"></line><line x1="268.08054067765545" y1="0" x2="268.08054067765545" y2="178" fill="rgb(0, 0, 0)" stroke="rgb(60, 60, 60)" stroke-width="1px" opacity="0.25"></line></g><g><line x1="0" y1="165.60554368377012" x2="290" y2="165.60554368377012" fill="rgb(0, 0, 0)" stroke="rgb(60, 60, 60)" stroke-width="1px" opacity="0.25"></line><line x1="0" y1="149.89196963443325" x2="290" y2="149.89196963443325" fill="rgb(0, 0, 0)" stroke="rgb(60, 60, 60)" stroke-width="1px" opacity="0.25"></line><line x1="0" y1="134.1783955850964" x2="290" y2="134.1783955850964" fill="rgb(0, 0, 0)" stroke="rgb(60, 60, 60)" stroke-width="1px" opacity="0.25"></line><line x1="0" y1="118.46482153575958" x2="290" y2="118.46482153575958" fill="rgb(0, 0, 0)" stroke="rgb(60, 60, 60)" stroke-width="1px" opacity="0.25"></line><line x1="0" y1="102.75124748642273" x2="290" y2="102.75124748642273" fill="rgb(0, 0, 0)" stroke="rgb(60, 60, 60)" stroke-width="1px" opacity="0.25"></line><line x1="0" y1="87.03767343708589" x2="290" y2="87.03767343708589" fill="rgb(0, 0, 0)" stroke="rgb(60, 60, 60)" stroke-width="1px" opacity="0.25"></line><line x1="0" y1="71.32409938774904" x2="290" y2="71.32409938774904" fill="rgb(0, 0, 0)" stroke="rgb(60, 60, 60)" stroke-width="1px" opacity="0.25"></line><line x1="0" y1="55.610525338412195" x2="290" y2="55.610525338412195" fill="rgb(0, 0, 0)" stroke="rgb(60, 60, 60)" stroke-width="1px" opacity="0.25"></line><line x1="0" y1="39.896951289075346" x2="290" y2="39.896951289075346" fill="rgb(0, 0, 0)" stroke="rgb(60, 60, 60)" stroke-width="1px" opacity="0.25"></line><line x1="0" y1="24.183377239738515" x2="290" y2="24.183377239738515" fill="rgb(0, 0, 0)" stroke="rgb(60, 60, 60)" stroke-width="1px" opacity="0.25"></line><line x1="0" y1="8.469803190401663" x2="290" y2="8.469803190401663" fill="rgb(0, 0, 0)" stroke="rgb(60, 60, 60)" stroke-width="1px" opacity="0.25"></line></g></g></g><g><g><line x1="0" y1="165.60554368377012" x2="290" y2="165.60554368377012" fill="rgb(0, 0, 0)" stroke="rgb(153, 153, 153)" stroke-width="1.5px"></line></g></g><g><g><line x1="15.321409886391594" y1="0" x2="15.321409886391594" y2="178" fill="rgb(0, 0, 0)" stroke="rgb(153, 153, 153)" stroke-width="1.5px"></line></g></g><g><g><g><g><g><path stroke="rgb(187, 187, 187)" stroke-width="2px" d="M15.538060569926962,74.5880505828995L16.007470384253597,64.50170872360457L16.224121067788964,62.27838416547784L16.80185622388328,45.68909286634904L16.874073118395074,46.2041209397785L16.982398460162756,46.41953003361188L17.271266038209916,36.97310275834141L17.379591379977597,38.10061234323399L17.921218088816023,33.99155205163076L18.029543430583708,34.213854536179454L18.751712375701604,35.02910101448456L19.04057995374876,30.114656663629482L19.18501374277234,33.06503725580137L19.90718268789024,29.46424277119218L20.376592502216873,30.893628546499304L20.773785422031715,32.74303348842054L20.95432765831119,30.46891700386838L21.062653000078875,32.17397284564787L21.38762902538193,28.812592564115718L21.78482194519677,28.97844604616284L21.965364181476247,29.704790262688466L22.037581075988033,30.64542901666823L22.073689523243928,27.763307978209895L22.218123312267508,29.456759321217287L22.506990890314665,28.975776730464645L22.83196691561772,30.658925451479053L23.012509151897195,26.669843875994147L23.409702071712037,32.82339393996585L23.62635275524741,29.881939164847893L23.806894991526878,31.678913126844805L24.348521700365303,37.86961819213121L24.565172383900673,35.06728627799857L24.745714620180145,36.51935655373025L24.99847375097141,29.934988302091774L25.14290753999499,34.05377052244841L25.215124434506777,33.392801125478286L25.901184932368782,38.57999334456772L26.081727168648257,32.32306115190639L26.298377852183624,26.32920172882599L26.4789200884631,29.795874807126463L26.55113698297489,32.95704704527487L26.84000456102205,31.316092244331756L27.273305928092785,30.86146563384118L27.598281953395837,34.225477766991546L27.887149531442997,31.271032322142432L28.464884687537314,26.40012123221772L28.609318476560894,28.177829291087754L28.970402949119844,40.10597088406909L30.559174628379218,33.80476551489789L30.59528307563511,33.07739103617296L31.209126678985324,31.746423398958868L31.281343573497114,27.854280130407975L31.317452020753006,26.413636399068523L31.42577736252069,25.82135739273164L31.967404071359113,25.268743481067773L32.0757294131268,27.033001935226963L32.11183786038269,26.122924504486402L32.47292233294164,25.516418513779207L33.086765936291854,28.06926775334165L33.158982830803645,27.035409002365327L33.917260223177436,30.520055473033572L34.025585564945125,28.09136219450662L34.31445314299228,26.372369714976607L34.53110382652765,28.82584548240669L34.60332072103944,31.8074898493173L34.71164606280712,28.74705852222032L34.92829674634249,29.062178264905842L35.10883898262196,26.34418736081579L35.46992345518091,25.45030377864419L35.68657413871628,27.133433767618598L36.04765861127523,32.146399282786625L36.2643092948106,29.982586415699384L36.336526189322385,26.126511690143943L36.51706842560186,25.607503058217205L36.55317687285776,25.355987957308397L36.76982755639313,27.079935061415018L37.094803581696176,24.029216297051445L37.74475563230229,26.145505978691013L37.81697252681408,29.958300325855916L38.25027389388482,31.45441899361762L38.50303302467608,25.449432738784783L38.53914147193197,24.99914259555128L38.61135836644377,25.375516108995107L38.71968370821145,25.679818098587983L38.79190060272323,26.79515185748885L39.22520196979398,33.21071633078221L39.33352731156167,33.79081951112738L39.47796110058524,31.456104877216454L39.58628644235293,32.083834269229214L39.6946117841206,31.281269381995457L39.83904557314419,32.842828431452624L40.01958780942366,28.71327528810332L40.20013004570313,27.678742183687447L41.138949674356404,36.816774518627824L41.283383463379984,30.056971346488762L41.427817252403564,26.30291131070388L41.463925699659455,24.026790497873098L41.71668483045072,28.891922753461728L42.041660855753776,26.272134569004844L42.186094644777356,22.77445059850546L42.330528433800936,30.595723548562063L42.5110706700804,42.24858844791076L42.65550445910398,32.66342231847472L42.98048048440704,26.141366197853834L43.12491427343062,29.003284731185925L43.16102272068651,29.698327708892855L43.19713116794241,30.239177899444734L43.2693480624542,30.894630710638626L43.52210719324546,25.949006879224772L43.70264942952494,29.6982621467529L43.77486632403672,29.555383511750154L43.9554085603162,28.14745528824844L44.02762545482799,30.06168245454554L44.172059243851564,33.236023316804996L44.316493032875144,34.40411586632995L44.533143716410514,31.10933735297249L44.569252163666405,32.39990934595407L45.399746450551994,26.19501476037733L45.544180239575574,23.015110482241667L46.7357589990201,22.11505469289428L46.91630123529958,27.79778429780643L46.98851812981136,25.88818394538617L47.20516881334674,22.613954479894712L47.49403639139389,22.294694956372012L47.71068707492926,22.520209985778518L47.85512086395284,25.2695770568472L48.10787999474411,35.7920101730653L48.1800968892559,35.94930311283825L48.39674757279126,27.358667816425296L48.46896446730305,26.29688895984799L48.97448272888558,30.01599500901664L49.010591176141475,30.555393466469514L49.371675648700425,29.38873391800358L49.48000099046811,27.7158316228622L49.804977015771165,28.599066040301054L49.94941080479474,31.329298332522768L50.09384459381832,24.323843187990914L50.41882061912138,26.544283011959596L50.45492906637727,28.049037150155424L50.67157974991264,29.954750604278335L50.70768819716853,30.234176444768146L50.88823043344801,23.297261834549634L51.32153180051875,28.163705332937376L51.53818248405412,26.968872796330608L51.64650782582181,26.700414565253332L51.97148385112485,24.608523365697145L52.07980919289254,27.246828171681436L52.36867677093969,32.28506320879225L52.80197813801044,35.23907781672165L53.054737268801695,31.074355268296294L53.524147083128334,26.7969969634276L53.740797766663704,34.443556176523096L53.849123108431385,33.50302044876327L53.921340002943175,31.825481973725047L54.06577379196675,33.494591030768994L54.21020758099033,35.00203321670298L54.282424475502125,33.889462433700245L54.4629667117816,28.45091433604189L54.499075159037496,30.86456578645908L54.82405118434054,42.73215606018163L55.04070186787592,37.599680129894956L55.18513565689949,31.727878679371482L55.22124410415539,29.675690038568266L55.58232857671434,37.53121452374155L55.76287081299382,31.34146479249448L56.26838907457633,48.180238766193476L57.09888336146192,32.63741288095242L57.243317150485495,31.527492681607868L57.279425597741394,34.038775524438606L57.31553404499729,37.74872160605351L57.965486095603396,30.330253077862753L58.398787462674136,34.33476985429714L58.43489590993003,34.82274886198501L58.6515465934654,39.77515369187425L58.90430572425666,35.5554807041463L59.84312535290992,31.739445714063617L59.91534224742172,34.390422745099265L60.27642671998067,33.0564673475072L60.67361963979551,32.44389217584414L60.7819449815632,31.69511634143378L60.890270323330874,27.315059627334993L61.612439268448774,31.565696677161878L61.829089951984145,38.198131343407624L62.081849082775406,45.68079457263469L62.298499766310776,38.792630096482995L62.65958423886972,38.09999418591442L62.8762349224051,29.862457843261144L62.98456026417278,30.325776120305804L63.27342784221994,40.24448495375482L63.38175318398762,39.01806083170955L63.49007852575531,39.30698381647289L63.598403867523,45.931138921044294L63.63451231477889,44.677066307977846L64.28446436538499,33.39886094041416L65.36771778306183,38.488440499130036L65.47604312482952,35.817279695008104L65.51215157208541,43.97105572085838L65.58436846659721,45.42119659647137L65.6204769138531,40.00415288071839L66.4148627534828,28.98530197279816L66.84816412055352,35.603425360493674L66.92038101506532,33.884189364443834L67.0648148040889,33.02902490892588L67.20924859311248,33.82702854442273L67.35368238213606,34.52826246134546L68.25639356353342,30.80557859253923L68.29250201078932,28.36411942876097L68.68969493060416,28.316109210273634L68.97856250865132,33.939692398926056L69.1229962976749,46.15437800759235L69.19521319218669,41.00108141485984L69.55629766474564,35.80599364091578L69.8090567955369,36.628742301235796L70.35068350437533,44.33890615610801L70.38679195163121,42.23637515783908L70.4951172933989,39.984015937732096L71.36172002754039,34.555217866887105L71.39782847479627,37.7341668109834L71.97556363089059,46.91907607599188L72.01167207814649,43.58137309300363L72.33664810344955,41.42307681169263L72.55329878698491,46.377692022300366L72.69773257600849,48.594516562551505L73.02270860131154,31.682725096982217L73.2754677321028,40.831060053915564L73.31157617935871,45.49097344542388L73.78098599368533,49.56042483847408L74.1059620189884,45.70997909093482L74.28650425526786,44.65958931466976L74.46704649154734,61.79769192134503L74.57537183331503,58.17443772079111L74.7559140695945,42.98385848149031L74.86423941136219,39.80011413515727L75.00867320038576,50.87789604087737L75.29754077843292,38.71593175875519L75.58640835648006,31.418416012762123L75.83916748727134,34.17488252698597L76.0919266180626,26.999321727329896L76.41690264336565,31.85456346580525L76.56133643238923,35.97162233848305L76.59744487964512,35.81760750570789L76.63355332690102,37.7155377972161L76.7057702214128,38.00807606569699L76.8140955631805,33.63821894737125L77.06685469397176,31.9780638054412L77.39183071927481,49.21527763568901L77.75291519183375,43.53499256199519L77.89734898085734,55.4534684223431L77.96956587536913,51.72689765523952L78.07789121713682,41.36211338755412L78.25843345341627,39.058400279822095L78.36675879518397,36.868081576152896L78.40286724243987,38.03413233331925L78.43897568969575,40.03388999419814L79.12503618755777,36.45086284951688L79.45001221286081,57.53392371148706L79.66666289639619,42.87968024110121L79.91942202718745,35.09155363580206L79.95553047444335,34.83909256687389L80.2805064997464,29.517600987095864L80.53326563053766,32.45349234633761L80.9665669976084,29.83647650379882L81.29154302291145,29.963067630032675L81.43597681193503,39.26287922832293L81.79706128449398,35.951195048876954L81.94149507351756,41.14653570536085L82.12203730979702,27.11496397619117L82.26647109882062,26.59175000128729L82.73588091314726,28.690675081858707L82.84420625491492,27.632342920639033L83.0608569384503,29.14460860686973L83.09696538570618,30.574125506456774L83.13307383296208,31.1376601974332L84.3607610396625,26.525419847692444L84.57741172319788,30.053730703570967L85.19125532654809,26.294912729629328L85.26347222105989,28.285369932654557L85.33568911557167,28.94055112926862L85.55233979910705,29.696688655393977L85.66066514087473,30.772188731261956L85.73288203538651,34.28073728495392L85.8412073771542,26.69580648341647L86.38283408599263,33.20095693794887L86.45505098050441,31.92315083021857L86.88835234757515,27.363538146821988L86.92446079483105,25.842327911497375L86.96056924208693,26.030753501729126L87.61052129269305,41.07098002207228L87.75495508171662,48.044543868525835L88.04382265976378,40.65227209825726L88.18825644878737,50.3383570931246L88.54934092134631,36.074283283633186L88.657666263114,32.98481729455598L88.76599160488168,37.772876571617076L88.87431694664937,43.22112786598882L89.74091968079084,48.9264389451056L90.17422104786158,38.19783163076783L90.21032949511748,38.442200458421496L90.31865483688516,37.14926822840152L90.35476328414104,41.6261414911744L90.42698017865285,48.84599419938036L90.49919707316464,55.28588222659716L90.64363086218822,60.94884016330277L90.7880646512118,59.5240999339125L90.96860688749128,46.788466927180764L91.04082378200306,42.379113302541924L91.58245049084148,47.81177953964427L91.72688427986506,54.539906832164895L92.66570390851832,41.12943335285249L92.774029250286,31.726483142392436L92.8101376975419,32.704904421026484L92.95457148656548,43.98854208018649L93.02678838107728,53.00885290982698L93.20733061735676,42.72306165476782L93.5323066426598,41.20659999157996L93.82117422070696,49.844252708360905L93.96560800973054,44.79975180387435L94.32669248228949,41.41490964225819L94.39890937680127,30.901411709114004L94.47112627131305,36.497271478585276L94.50723471856897,38.035565334378276L94.65166850759253,43.682057807935095L94.75999384936023,36.267466812021695L95.04886142740739,35.53766653411842L95.19329521643095,39.4810793961144L95.69881347801349,42.90308592506529L95.91546416154885,38.34563679228723L96.09600639782833,32.690846025016064L96.13211484508423,31.51311584091766L96.20433173959601,34.700831379728L96.31265708136371,35.838409436113736L96.3848739758755,33.43954693126647L96.45709087038728,33.91900286076013L96.49319931764317,34.06572156396027L96.74595844843444,30.73727220872572L96.85428379020213,35.839402234233056L97.0348260264816,29.577459220875124L97.7208865243436,33.84745583402882L98.08197099690256,43.17866233133771L98.29862168043792,41.16210203059025L98.51527236397328,37.71188504941858L98.65970615299688,51.94083628393391L98.69581460025276,46.45483992898786L99.0930075200676,43.681308526335606L99.12911596732351,42.65500815349414L99.67074267616192,44.32378939983831L100.03182714872086,44.470264586518624L100.35680317402392,32.05314182171009L100.97064677737414,59.43906583839038L101.62059882798025,53.202766987775L101.65670727523613,51.98782560624192L101.72892416974793,57.20866993516845L102.09000864230687,51.08772298679456L102.23444243133046,37.12921557959517L102.59552690388941,46.777461853688266L102.88439448193655,44.70789924579686L102.92050292919245,40.508381933095194L103.31769584900731,66.80449459535723L103.60656342705445,59.89297126534144L103.82321411058983,44.114093578201036L103.85932255784573,48.09488622599158L103.93153945235751,49.227209945160894L104.00375634686931,41.312501579647886L104.18429858314877,32.71948731415657L105.08700976454615,36.36254128097698L105.12311821180205,33.77470995673834L105.48420268436098,37.970527691542536L105.55641957887279,45.810335995166525L105.70085336789636,55.677185175910836L105.73696181515226,47.52338105200056L106.24248007673478,44.48820051480641L106.45913076027016,42.01011084683308L106.63967299654963,35.03324079532174L106.71188989106142,36.19127423937356L106.7841067855732,37.39234454529607L106.856323680085,46.94697744955289L107.32573349441164,39.09676349771598L107.4701672834352,40.17465190868235L107.54238417794699,39.29154861552341L107.65070951971468,63.38872583572211L108.01179399227362,37.390892812197045L108.37287846483258,29.99327304451211L108.44509535934436,44.026127918420904L108.87839672641512,42.41036771126064L108.914505173671,40.78627174630606L108.9506136209269,41.33345336637362L109.23948119897406,42.37798938014269L109.45613188250942,48.92797497238456L110.06997548585963,53.323907090372536L110.286626169395,59.02254019723387L110.32273461665089,50.06583400937008L110.61160219469805,41.014296869070854L110.82825287823343,46.306894277168546L111.04490356176879,51.3208432244359L111.22544579804827,48.600754331867265L112.05594008493385,48.272119422330945L112.12815697944563,50.46604404369769L112.30869921572511,52.02168376851888L112.48924145200459,53.53610363934812L112.95865126633122,46.23230329393932L113.21141039712248,44.66229609444792L113.75303710596091,31.961504682092475L114.18633847303164,56.04323733532168L114.29466381479934,41.058691803840624L114.51131449833471,48.940815785795806L114.80018207638187,36.856832986140546L114.83629052363776,36.89994477617121L114.90850741814954,41.33931649488964L115.2334834434526,40.14564534476208L116.06397773033818,46.18681253483028L116.10008617759408,42.52453949498293L116.13619462484998,41.58226168750427L116.38895375564124,36.30031344413933L116.78614667545607,59.483554433360084L116.85836356996788,59.313008575296166L117.2916649370386,38.985785526811526L117.3277733842945,34.267606124922864L117.43609872606218,42.66331581322847L117.50831562057397,43.364830710751015L117.54442406782987,40.624810927635956L118.59156903825081,48.17145343943946L119.02487040532155,47.20842053165494L119.06097885257745,45.08727925165865L119.34984643062461,37.201071684986246L119.38595487788051,32.98300965269721L119.60260556141587,38.81380666768858L119.71093090318357,34.82370419602436L119.92758158671893,37.324618854722154L120.07201537574251,28.224462704636018L120.68585897909273,29.546551354896174L120.75807587360451,29.654719519802534L120.79418432086041,28.5441998951784L120.8302927681163,27.169867585393817L121.22748568793115,26.476491759245743L121.87743773853724,26.08552598665184L122.49128134188747,28.669414216473168L122.74404047267873,32.86318079289876L122.78014891993462,33.19566513665245L122.8884742617023,30.120341837765626L123.46620941779662,31.649990857104495L123.6106432068202,34.8454052643496L123.79118544309968,33.31399543325192L123.86340233761146,31.46421585053094L123.93561923212324,31.717276344738707L124.00783612663506,38.487990930170334L124.08005302114684,40.32334684210113L124.2244868101704,44.08586439394024L124.2605952574263,40.72247041810948L124.65778817724114,49.71902902104614L124.76611351900883,39.57555443979011L125.054981097056,30.572486452957875L125.16330643882368,37.02238675554788L125.19941488607957,44.6263118456324L125.48828246412673,44.060332623437624L126.02990917296515,42.15204351381646L126.17434296198873,56.02283814377556L126.24655985650053,48.57309647482609L126.78818656533895,38.78090383945097L127.25759637966557,45.02694335085971L128.08809066655115,47.88384169747522L128.6297173753896,35.17514536424516L128.66582582264547,31.71148814438263L128.88247650618084,30.093039889484213L128.91858495343675,28.885525761806075L129.0991271897162,30.343000231074083L129.27966942599568,31.11480710864876L129.42410321501927,35.913553014522584L129.49632010953107,33.528739539665764L130.07405526562536,46.50071469491663L130.47124818544023,48.041153369288146L130.72400731623148,52.1928290518624L130.7601157634874,50.96573994239759L131.01287489427864,22.151844419429224L131.12120023604632,23.99764344365292L131.9878029701878,37.741640894938314L132.09612831195548,36.117376341623846L132.34888744274676,38.37049420935031L132.45721278451444,33.51834325747284L132.49332123177032,32.376953230949695L132.56553812628212,35.2610504996267L132.601646573538,32.813316102452696L133.32381551865592,33.44662764238164L133.50435775493537,29.599769080499946L133.82933378023844,26.506322532925438L133.90155067475024,25.175017718991576L133.973767569262,27.29768566024682L134.22652670005328,34.86888587647362L134.69593651437992,28.04577777519763L134.98480409242708,36.47311651302172L135.27367167047422,35.33487346921644L135.4903223540096,48.66660681844245L135.5264308012655,51.02438995959768L135.70697303754497,36.122031253560685L135.88751527382445,35.56740364759818L136.14027440461572,45.56287638091494L136.57357577168645,34.88034051892582L137.18741937503665,35.16636940351114L137.25963626954845,30.37218474937422L137.33185316406022,34.255093122211385L137.44017850582793,33.57174830347649L137.6207207421074,30.31864857909066L138.2345643454576,35.01968816439098L138.4151065817371,42.21187364953574L139.20949242136678,35.214791726878175L139.31781776313446,30.83597132741854L139.49835999941394,30.024911460050575L139.75111913020518,23.05656448673345L139.89555291922878,28.378524367511154L139.96776981374057,29.52917738780798L140.18442049727594,33.16837255439104L140.22052894453182,35.04959386623061L140.43717962806718,31.973989586743976L140.68993875885846,43.41014351548017L140.90658944239382,27.428454031397813L141.0149147841615,30.497408436688982L141.6287583875117,32.00584342074229L141.7009752820235,34.85654146212202L142.06205975458246,34.07269924885552L142.17038509635015,31.72346728395449L142.24260199086194,35.568527569997414L142.4231442271414,34.9786462647789L143.0008793832357,36.65663430877682L143.0730962777475,29.345003970653345L143.2897469612829,29.04218181221945L143.43418075030647,27.34637023217367L143.50639764481824,28.652630308644593L144.0119159064008,27.439000169910628L144.4452172734715,47.719617902907L144.625759509751,30.119779876566007L145.05906087682175,28.735594513748122L145.311820007613,45.602232396928166L145.34792845486888,46.794817088736444L145.99788050547502,34.44946613513909L146.0700973999868,37.87855337520513L146.1423142944986,36.06449579273984L146.25063963626627,31.983674051417385L146.35896497803395,30.2614128309096L146.97280858138416,45.1963652865244L147.370001501199,69.10986548862813L147.40610994845488,68.01836825061102L147.62276063199027,35.28597347882974L147.87551976278152,38.27648746667429L148.742122496923,39.0531084785257L148.95877318045837,53.53778015692697L149.03099007497016,49.1870765494882L149.78926746734396,43.15551889593347L149.89759280911164,41.99741988974171L150.0420265981352,39.079792269487534L150.07813504539112,43.96771205172067L150.11424349264703,49.00760487437036L150.33089417618237,72.94681480135658L150.43921951795005,58.42891248401791L150.51143641246185,58.0905743777682L150.83641243776492,48.50381602493326L151.08917156855617,32.922364673238484L151.26971380483565,34.09984197479706L151.55858138288278,37.70853201426087L151.7030151719064,32.432184650852115L151.84744896092997,38.24984113979243L152.3168587752566,38.75731083508703L152.38907566976837,44.57613807652655L152.49740101153606,41.05524510848298L152.9307023786068,37.78358193246979L153.07513616763038,39.664484799629584L153.25567840390988,47.130345388988076L153.32789529842165,34.71906702065558L153.6889797709806,33.05827498936598L153.7611966654924,28.816114187633325L153.83341356000417,26.465964352772907L154.3028233743308,25.56103823302883L154.88055853042513,26.269690037786496L155.06110076670458,33.6482686868244L155.3138598974959,29.651291556484864L156.21657107889322,33.87521671728994L156.25267952614914,31.68574095542016L156.28878797340505,31.993573934550643L156.5415471041963,18.669511355699413L156.90263157675525,17.154847968350346L157.1914991548024,27.453620527120684L157.44425828559366,35.09853132069731L157.58869207461723,36.506862283058744L157.9858849944321,29.537101040722597L158.20253567796743,43.90587758772275L158.41918636150282,47.73120366963911L159.06913841210894,30.058226393167892L159.2135722011325,40.829692614996496L159.61076512094735,23.59868845600446L159.7913073572268,23.50513128228814L159.9718495935063,24.32731798140854L160.11628338252987,30.726960220712733L160.15239182978578,30.28687903927228L160.54958474960063,27.41569751216648L160.5856931968565,26.707888649208243L160.98288611667135,40.69715406606671L161.05510301118315,34.528131337065545L161.09121145843903,35.024933135587396L161.34397058923028,26.466573144072484L161.452295930998,27.34658565063352L161.4884043782539,32.30492853719873L161.5245128255098,31.95074312511979L162.53554934867483,20.988828252740813L163.14939295202504,25.014184423661042L163.32993518830452,44.72761471788344L163.3660436355604,52.84919036699566L163.43826053007223,52.38575033169108L163.72712810811936,22.825757656030547L165.82141804896125,31.730651021289596L166.36304475779968,35.98203735271597L166.76023767761453,32.301154031141294L166.7963461248704,29.820807152349506L166.8685630193822,31.800549628502026L166.940779913894,33.90552515798931L167.04910525566171,37.88807861753867L167.0852137029176,36.09205998958108L167.15743059742937,36.30024788199939L167.98792488431494,23.47497269790868L168.16846712059444,28.52235833655326L168.27679246236212,38.38848633375806L168.3851178041298,44.786667473943254L168.56566004040928,36.425752549913966L168.9628529602241,31.160878560997407L169.28782898552717,33.480298484258725L169.39615432729485,28.862419790481802L169.43226277455074,26.732296497311626L169.7572387998538,29.624766987862923L169.97388948338917,19.606094623021953L170.55162463948346,32.37126805681358L170.76827532301886,42.56162893415769L170.91270911204242,49.53287000765284L171.2376851373455,39.47975878729531L171.3099020318573,43.12763625441246L171.6348780571603,35.10639877749195L171.77931184618393,36.55433863840644L171.99596252971926,30.154162535962605L172.17650476599877,25.823577139470135L172.39315544953413,40.06505074271694L172.71813147483718,30.98687664155584L172.97089060562843,22.2571091181376L173.11532439465202,20.76221739899505L173.44030041995507,35.792047637145274L173.9819271287935,25.512409857221922L174.23468625958478,28.909718191449606L174.45133694312014,26.59752883562337L174.5957707321437,24.823520354650817L174.6318791793996,25.65753633702314L175.31793967726162,32.541177025517925L175.3540481245175,36.524039563727065L175.4262650190293,34.32697732566246L175.64291570256466,27.652049026705612L175.75124104433235,28.19447270861643L176.72616912024148,31.707601246085282L176.94281980377687,44.98532075800805L177.08725359280044,33.19792234747092L177.19557893456812,40.46754608592298L177.4844465126153,45.920995521391205L177.55666340712708,45.171807582101124L178.17050701047728,37.530671294581914L178.2066154577332,39.70195824562406L178.8926759555952,63.03772487044102L178.9287844028511,61.12893936176018L179.0371097446188,50.250372701304485L179.28986887541004,26.944436850167246L179.36208576992183,31.344180938292638L179.650953347969,44.035924775334244L179.72317024248076,40.05241598174555L179.75927868973668,35.78919100104723L180.22868850406329,47.42574029356702L180.30090539857508,45.848558722760494L180.66198987113404,34.032565853182845L180.77031521290172,42.06040637419884L181.16750813271656,39.435654199145326L181.27583347448424,40.43117783028774L181.34805036899604,41.09213786123788L181.42026726350784,34.67946748812255L181.85356863057856,30.504845056563916L182.4674122339288,28.244824432102156L183.0090389427672,22.21547715926592L183.22568962630257,20.854875434791985L183.47844875709384,24.686205135524276L183.767316335141,26.641343077153543L183.91175012416457,24.34320275131773L184.16450925495585,16.726371285681985L184.20061770221173,17.917935081310958L184.23672614946764,18.488466189222656L184.5978106220266,19.402739596920355L185.35608801440037,26.899105313398092L185.53663025067985,19.38353925593343L185.71717248695933,30.212437912362944L185.9338231704947,36.339388479552746L186.29490764305365,20.36652178630439L186.4754498793331,23.10235495848229L186.6921005628685,25.893794191362353L186.83653435189206,35.98960509687082L186.87264279914794,31.050884022192257L187.16151037719513,27.150311335647128L187.2698357189628,25.512334929061986L187.3059441662187,25.07823863439744L187.37816106073046,32.181549955822696L187.48648640249814,23.810959933139998L187.52259484975406,24.460184341038108L187.81146242780122,25.82168520343143L187.9197877695689,29.692829855156607L187.95589621682478,29.808818646757665L188.02811311133658,28.25692532993393L188.1003300058484,25.95363369310161L188.20865534761606,21.934674513837038L188.24476379487197,24.926780725080526L188.4614144784073,24.438736155252695L188.6780651619427,27.526347672371188L188.7502820564545,29.004783294384907L188.85860739822218,31.62312911176277L189.58077634334006,24.187717453403547L189.65299323785186,23.52666376225349L189.86964392138722,26.691966415219078L190.12240305217847,22.69338769546064L190.55570441924922,41.577063546407814L191.24176491711123,32.78000116933538L191.31398181162302,34.14567927664586L191.89171696771734,26.321259343871393L192.00004230948502,22.438744343873953L192.0722592039968,24.817591663994843L192.1083676512527,23.880511997612643L192.7944281491147,29.259716992591382L193.66103088325616,31.038961078740375L193.76935622502387,27.165877660876532L194.2387660393505,30.8901162890017L194.52763361739767,32.316280153430995L194.81650119544483,33.05943637584519L194.8526096427007,36.76881113024047L194.9609349844684,36.15794994023624L195.0331518789802,29.576644377135676L195.06926032623608,25.21470154570455L195.5747785878186,25.894168832162098L195.8636461658658,29.64827569804692L196.65803200549544,50.211588012510894L196.87468268903083,46.88440306997548L196.98300803079852,40.46767721020289L197.23576716158976,28.594907527423892L197.7051769759164,35.580188264889486L197.77739387042817,39.61541622088298L197.81350231768408,35.241054046940306L198.06626144847536,36.37984031990521L198.71621349908145,45.02505141482101L199.29394865517577,32.64133724332975L199.54670778596704,35.33088354469917L199.72725002224652,30.510399106420145L199.7633584695024,37.11074578816774L199.9800091530378,38.64029178128668L200.44941896736444,26.72880297185402L200.5216358618762,24.317511758475217L200.73828654541157,26.320219715652115L200.84661188717925,27.44488203046662L201.67710617406485,28.25041594603836L201.8576484103443,26.374242918975337L202.32705822467094,39.60123606661262L202.47149201369453,32.01707327871464L203.12144406430065,39.52616741636373L203.41031164234778,27.577195794916573L204.24080592923337,32.24024680312276L204.34913127100106,43.6032989458087L204.38523971825694,39.3634047209145L204.45745661276874,35.836901506894755L204.52967350728053,31.85246547732669L204.56578195453645,35.447584153819726L204.71021574356,37.83189186359691L205.3601677941661,20.701422563216447L205.50460158318967,25.095734359745528L206.33509587007526,42.65591665743352L206.8045056844019,37.52968786248259L207.38224084049622,36.849087287605826L207.77943376031106,31.494730343670167L207.81554220756695,29.744708239901293L208.35716891640539,34.470474117984786L208.46549425817307,26.98543191967935L208.8626871779879,41.20056827470407L208.8987956252438,38.17894973446068L209.00712096701147,40.846897993724795L209.62096457036168,42.15425389453495L209.7653983593853,51.59112782941192L210.2348081737119,30.14516179074873L210.48756730450316,42.03894882239345L210.55978419901496,44.86989392760661L211.06530246059748,25.692565251799312L211.245844696877,31.76115614840884L211.7513629584595,68.13517188595154L211.7874714057154,65.40677533364857L211.8596883002272,46.18612881537073L212.04023053650664,32.28582185641172L213.05126705967172,31.045592220895863L213.37624308497476,20.168683345979037L213.629002215766,23.899206573519923L213.77343600478963,27.955901447338807L213.99008668832496,33.64997330246324L214.20673737186033,23.064019838648385L214.38727960813983,18.490255099041427L214.49560494990752,19.57189928402523L214.56782184441929,20.7894818831965L215.10944855325772,25.103845333060015L215.43442457856077,23.36581173488298L215.72329215660793,27.830378047384254L216.08437662916688,25.723922686737968L216.33713575995816,25.38119191711125L216.5176779962376,18.185475442428867L216.5898948907494,19.232746334036072L216.6982202325171,20.582324252977507L217.02319625782016,18.823910195294335L217.09541315233193,22.11217932475623L217.3120638358673,20.164253218522045L217.74536520293802,31.815263645912L217.92590743921753,26.645773204610535L218.21477501726466,18.130103532226556L218.28699191177645,18.281533343483495L218.6480763843354,19.74143361192983L218.7202932788472,21.59627084544737L219.26191998768562,19.978084839108767L219.65911290750046,21.119830774391655L219.73132980201225,22.38834579028827L219.87576359103582,24.562433181308517L220.30906495810657,27.0554429191317L220.41739029987423,26.904603167134358L221.6450775065747,28.75643390823394L221.89783663736594,26.272593503984524L222.00616197913365,38.20041665228607L222.15059576815722,36.851681675144064L222.65611402973974,46.68671448597002L223.05330694955458,34.24440649339866L223.30606608034583,61.07105735819959L223.55882521113713,36.397598293813125L223.91990968369603,30.02763697186873L224.02823502546374,34.78783233944878L224.20877726174322,35.243695264578506L224.38931949802267,37.31014835383201L224.60597018155806,30.06348073038433L224.67818707606986,25.293685192310793L225.0392715486288,32.68733376751844L225.0753799958847,36.09654631315803L225.6892235992349,19.618776214093327L225.7975489410026,20.069618952506467L226.05030807179384,26.268444357127347L226.4836094388646,28.104971021557354L227.025236147703,20.999168338813778L227.0974530422148,24.02572277159382L227.35021217300607,24.65205662662751L227.71129664556503,20.97517259559012L228.00016422361216,36.17361929168556L228.07238111812396,31.29936453262314L228.14459801263575,28.829142321444465L228.25292335440344,30.818494334110436L228.32514024891523,34.73567297410428L228.6501162742183,44.47749515395368L229.01120074677723,34.98785306243265L229.04730919403312,34.87721226824794L229.40839366659208,29.315510373693417L229.55282745561564,22.621690812409437L229.58893590287153,24.483664953162126L230.27499640073356,29.485906375437445L230.45553863701303,24.21553453278462L230.5277555315248,21.23153929485562L230.5638639787807,19.472169903133103L230.67218932054837,20.060899187892403L230.99716534585144,30.850713442888516L231.64711739645753,28.616711621969035L232.36928634157545,28.7481262484996L232.54982857785492,32.26130161606842L232.6942623668785,29.94527219204478L232.874804603158,37.277339185794354L233.09145528669333,45.1786073126165L233.12756373394924,53.93800892329456L233.16367218120513,51.835899395925324L233.27199752297284,32.38983150844094L233.38032286474052,19.47489541495126L233.88584112632304,29.249798377418145L234.0663833626025,23.804319424964515L234.17470870437018,31.55012098591248L234.78855230772038,29.001486455347155L234.82466075497632,29.60427413611687L234.9690945439999,45.943867342215626L235.14963678027934,40.29936983091745L235.4023959110706,17.692298293644537L235.72737193637366,30.225578438413997L235.79958883088545,31.839980572675188L236.1606733034444,34.522090254169655L236.3773239869798,32.209376401223764L236.44954088149157,40.371806629548146L236.66619156502693,25.864459816742304L236.7384084595387,32.149621193664444L236.8106253540505,38.97460249893914L237.06338448484178,41.63447724896874L237.24392672112126,42.28355180054696L237.31614361563302,44.98058155189128L237.38836051014485,46.40753216200005L237.67722808819198,31.284416364713316L238.21885479703042,33.54857677001226L238.36328858605398,29.321139351709583L238.54383082233346,28.9072455621713L238.65215616410114,34.561287047842974L239.22989132019546,30.771495645782423L239.59097579275442,25.691319571140163L239.6270842400103,23.64840329013063L239.6993011345221,21.039170610206558L239.91595181805747,19.523898431557893L239.95206026531338,21.059017206573056L240.13260250159283,20.14417247165572L240.3853616323841,32.12727386995964L240.56590386866358,28.274992382501637L240.67422921043126,25.450612857303998L240.81866299945483,27.70495767364962L241.03531368299022,19.839533305343075L241.50472349731686,21.523084765217188L241.7574826281081,21.278285100643803L242.4435431259701,24.61273807469428L243.16571207108802,27.03950195310253L243.27403741285568,26.61570828043099L243.41847120187927,20.040031695346602L243.45457964913516,20.627562129546707L243.70733877992643,24.015167267061003L244.32118238327664,21.129768121604894L244.71837530309148,28.667634672674374L245.11556822290635,29.914720234825573L245.3683273536976,26.48233615572176L245.58497803723293,25.639019715495753L246.45158077137444,24.788416511714704L247.28207505826003,50.14018147607948L247.60705108356305,36.17626987534376L248.1486777924015,43.066850784653816L248.1847862396574,55.84988521857329L248.43754537044865,37.73689232280156L248.5819791594722,35.90192041769049L248.94306363203117,44.21117237543496L249.05138897379885,49.136781022122435L249.08749742105474,42.439346177120925L249.4485818936137,34.544072303094694L249.5930156826373,32.7714406270612L249.88188326068445,24.27011033128748L249.91799170794033,24.637342609217537L250.06242549696393,21.66008153966394L250.38740152226697,20.724669024840615L250.42350996952288,21.619161398311793L250.78459444208184,16.897919307885225L250.82070288933772,16.07748405450364L250.8568113365936,16.59641775827044L251.14567891464074,20.705543612013628L251.29011270366436,22.07376927676237L251.86784785975868,17.31408904028196L252.15671543780581,26.652694693385808L252.62612525213245,32.34892073310878L252.73445059390014,37.56186950718069L252.87888438292373,28.859329003883904L252.9511012774355,31.272643277581327L252.9872097246914,30.432136643353413L253.0955350664591,35.202456678546575L253.42051109176214,31.015798911296148L253.45661953901805,37.10744894912997L253.78159556432107,42.052220472724414L253.88992090608878,35.76097118280643L254.2510053786477,20.31939197369646L254.4315476149272,28.511325165000766L255.44258413809226,30.16153359369758L255.7314517161394,34.32874750344126L256.05642774144246,25.77665337930208L256.12864463595423,26.140448327894468L256.2730784249778,24.281349555279828L256.4897291085132,21.498676917113805L256.561946003025,23.201868920914563L256.59805445028087,26.26392993549042L256.85081358107215,41.763044605421236L256.9591389228398,33.98263560059682L257.13968115911933,28.270627817184604L257.24800650088696,44.06468782273466L257.28411494814287,46.30379412455065L257.53687407893415,32.60992361227114L257.68130786795774,25.75346311379785L257.8257416569813,33.54079360739756L258.18682612954024,30.59920770799969L258.22293457679615,39.05027994048763L258.6562359438669,22.799560898108375L258.80066973289047,23.615210115273225L259.05342886368175,35.44289177780293L259.19786265270534,27.993702704033073L259.59505557252015,23.40553302567593L260.0283569395909,22.02717332729408L260.6060920956852,25.03243879662862L261.36436948805897,24.739844332027754L261.50880327708256,28.24986335085872L262.050429985921,27.348505684732228L262.2309722222005,22.388982679647825L262.33929756396816,22.339904734881234L262.5559482475035,28.254049961795882L262.7003820365271,28.940410638968725L262.8448158255507,33.0148915847555L263.13368340359784,26.12787912906301L263.3503340871332,21.446227205149505L263.3864425343891,24.081787767275664L263.422550981645,24.981328425523408L264.0002861377393,24.814735027896795L264.25304526853057,22.311797308880372L264.3252621630424,23.250122655921707L264.54191284657776,27.040878758041597L264.8307804246249,24.638382237436815L264.8668888718808,26.566265060884632" style="fill: none;" fill="none"></path></g></g></g></g></g></g><g transform="translate(40, 178)" clip-path="url(#clip_1)"><clipPath id="clip_1"><rect width="290" height="22"></rect></clipPath><g><g><line x1="15.321409886391594" y1="0" x2="15.321409886391594" y2="5" style="visibility: inherit;" fill="rgb(0, 0, 0)" stroke="rgb(204, 204, 204)" stroke-width="1px"></line><line x1="51.42985714228643" y1="0" x2="51.42985714228643" y2="5" style="visibility: inherit;" fill="rgb(0, 0, 0)" stroke="rgb(204, 204, 204)" stroke-width="1px"></line><line x1="87.53830439818125" y1="0" x2="87.53830439818125" y2="5" style="visibility: inherit;" fill="rgb(0, 0, 0)" stroke="rgb(204, 204, 204)" stroke-width="1px"></line><line x1="123.6467516540761" y1="0" x2="123.6467516540761" y2="5" style="visibility: inherit;" fill="rgb(0, 0, 0)" stroke="rgb(204, 204, 204)" stroke-width="1px"></line><line x1="159.75519890997091" y1="0" x2="159.75519890997091" y2="5" style="visibility: inherit;" fill="rgb(0, 0, 0)" stroke="rgb(204, 204, 204)" stroke-width="1px"></line><line x1="195.8636461658658" y1="0" x2="195.8636461658658" y2="5" style="visibility: inherit;" fill="rgb(0, 0, 0)" stroke="rgb(204, 204, 204)" stroke-width="1px"></line><line x1="231.9720934217606" y1="0" x2="231.9720934217606" y2="5" style="visibility: inherit;" fill="rgb(0, 0, 0)" stroke="rgb(204, 204, 204)" stroke-width="1px"></line><line x1="268.08054067765545" y1="0" x2="268.08054067765545" y2="5" style="visibility: inherit;" fill="rgb(0, 0, 0)" stroke="rgb(204, 204, 204)" stroke-width="1px"></line></g><g transform="translate(0, 8)"><text x="15.321409886391594" y="0" dx="0em" dy="0.95em" style="text-anchor: middle; visibility: inherit; font-family: Roboto, sans-serif; font-size: 12px; font-weight: 200;" fill="rgb(50, 49, 63)" stroke="none" stroke-width="1px">0</text><text x="51.42985714228643" y="0" dx="0em" dy="0.95em" style="text-anchor: middle; visibility: inherit; font-family: Roboto, sans-serif; font-size: 12px; font-weight: 200;" fill="rgb(50, 49, 63)" stroke="none" stroke-width="1px">1M</text><text x="87.53830439818125" y="0" dx="0em" dy="0.95em" style="text-anchor: middle; visibility: inherit; font-family: Roboto, sans-serif; font-size: 12px; font-weight: 200;" fill="rgb(50, 49, 63)" stroke="none" stroke-width="1px">2M</text><text x="123.6467516540761" y="0" dx="0em" dy="0.95em" style="text-anchor: middle; visibility: inherit; font-family: Roboto, sans-serif; font-size: 12px; font-weight: 200;" fill="rgb(50, 49, 63)" stroke="none" stroke-width="1px">3M</text><text x="159.75519890997091" y="0" dx="0em" dy="0.95em" style="text-anchor: middle; visibility: inherit; font-family: Roboto, sans-serif; font-size: 12px; font-weight: 200;" fill="rgb(50, 49, 63)" stroke="none" stroke-width="1px">4M</text><text x="195.8636461658658" y="0" dx="0em" dy="0.95em" style="text-anchor: middle; visibility: inherit; font-family: Roboto, sans-serif; font-size: 12px; font-weight: 200;" fill="rgb(50, 49, 63)" stroke="none" stroke-width="1px">5M</text><text x="231.9720934217606" y="0" dx="0em" dy="0.95em" style="text-anchor: middle; visibility: inherit; font-family: Roboto, sans-serif; font-size: 12px; font-weight: 200;" fill="rgb(50, 49, 63)" stroke="none" stroke-width="1px">6M</text><text x="268.08054067765545" y="0" dx="0em" dy="0.95em" style="text-anchor: middle; visibility: inherit; font-family: Roboto, sans-serif; font-size: 12px; font-weight: 200;" fill="rgb(50, 49, 63)" stroke="none" stroke-width="1px">7M</text></g><line x1="0" y1="0" x2="290" y2="0" fill="rgb(0, 0, 0)" stroke="rgb(204, 204, 204)" stroke-width="1px"></line></g></g></g></g></svg>