<svg viewBox="0 0 330 200" xmlns="http://www.w3.org/2000/svg"><g><g><g><g><g><line x1="50" y1="178" x2="45" y2="178" style="visibility: inherit;" fill="rgb(0, 0, 0)" stroke="rgb(204, 204, 204)" stroke-width="1px"></line><line x1="50" y1="155.75" x2="45" y2="155.75" style="visibility: inherit;" fill="rgb(0, 0, 0)" stroke="rgb(204, 204, 204)" stroke-width="1px"></line><line x1="50" y1="133.5" x2="45" y2="133.5" style="visibility: inherit;" fill="rgb(0, 0, 0)" stroke="rgb(204, 204, 204)" stroke-width="1px"></line><line x1="50" y1="111.24999999999999" x2="45" y2="111.24999999999999" style="visibility: inherit;" fill="rgb(0, 0, 0)" stroke="rgb(204, 204, 204)" stroke-width="1px"></line><line x1="50" y1="88.99999999999999" x2="45" y2="88.99999999999999" style="visibility: inherit;" fill="rgb(0, 0, 0)" stroke="rgb(204, 204, 204)" stroke-width="1px"></line><line x1="50" y1="66.75" x2="45" y2="66.75" style="visibility: inherit;" fill="rgb(0, 0, 0)" stroke="rgb(204, 204, 204)" stroke-width="1px"></line><line x1="50" y1="44.5" x2="45" y2="44.5" style="visibility: inherit;" fill="rgb(0, 0, 0)" stroke="rgb(204, 204, 204)" stroke-width="1px"></line><line x1="50" y1="22.25" x2="45" y2="22.25" style="visibility: inherit;" fill="rgb(0, 0, 0)" stroke="rgb(204, 204, 204)" stroke-width="1px"></line><line x1="50" y1="0" x2="45" y2="0" style="visibility: inherit;" fill="rgb(0, 0, 0)" stroke="rgb(204, 204, 204)" stroke-width="1px"></line></g><g transform="translate(40, 0)"><text x="0" y="178" dx="0em" dy="0.3em" style="text-anchor: end; visibility: hidden; font-family: Roboto, sans-serif; font-size: 12px; font-weight: 200;" fill="rgb(50, 49, 63)" stroke="none" stroke-width="1px">-0.2</text><text x="0" y="155.75" dx="0em" dy="0.3em" style="text-anchor: end; visibility: inherit; font-family: Roboto, sans-serif; font-size: 12px; font-weight: 200;" fill="rgb(50, 49, 63)" stroke="none" stroke-width="1px">0</text><text x="0" y="133.5" dx="0em" dy="0.3em" style="text-anchor: end; visibility: hidden; font-family: Roboto, sans-serif; font-size: 12px; font-weight: 200;" fill="rgb(50, 49, 63)" stroke="none" stroke-width="1px">0.2</text><text x="0" y="111.24999999999999" dx="0em" dy="0.3em" style="text-anchor: end; visibility: inherit; font-family: Roboto, sans-serif; font-size: 12px; font-weight: 200;" fill="rgb(50, 49, 63)" stroke="none" stroke-width="1px">0.4</text><text x="0" y="88.99999999999999" dx="0em" dy="0.3em" style="text-anchor: end; visibility: hidden; font-family: Roboto, sans-serif; font-size: 12px; font-weight: 200;" fill="rgb(50, 49, 63)" stroke="none" stroke-width="1px">0.6</text><text x="0" y="66.75" dx="0em" dy="0.3em" style="text-anchor: end; visibility: inherit; font-family: Roboto, sans-serif; font-size: 12px; font-weight: 200;" fill="rgb(50, 49, 63)" stroke="none" stroke-width="1px">0.8</text><text x="0" y="44.5" dx="0em" dy="0.3em" style="text-anchor: end; visibility: hidden; font-family: Roboto, sans-serif; font-size: 12px; font-weight: 200;" fill="rgb(50, 49, 63)" stroke="none" stroke-width="1px">1</text><text x="0" y="22.25" dx="0em" dy="0.3em" style="text-anchor: end; visibility: inherit; font-family: Roboto, sans-serif; font-size: 12px; font-weight: 200;" fill="rgb(50, 49, 63)" stroke="none" stroke-width="1px">1.2</text><text x="0" y="0" dx="0em" dy="0.3em" style="text-anchor: end; visibility: hidden; font-family: Roboto, sans-serif; font-size: 12px; font-weight: 200;" fill="rgb(50, 49, 63)" stroke="none" stroke-width="1px">1.4</text></g><line x1="50" y1="0" x2="50" y2="178" fill="rgb(0, 0, 0)" stroke="rgb(204, 204, 204)" stroke-width="1px"></line></g></g><g transform="translate(50, 0)" clip-path="url(#clip_0)"><clipPath id="clip_0"><rect width="280" height="178"></rect></clipPath><g><g><g><line x1="0" y1="0" x2="0" y2="178" fill="rgb(0, 0, 0)" stroke="rgb(60, 60, 60)" stroke-width="1px" opacity="0.25"></line><line x1="31.11111111111111" y1="0" x2="31.11111111111111" y2="178" fill="rgb(0, 0, 0)" stroke="rgb(60, 60, 60)" stroke-width="1px" opacity="0.25"></line><line x1="62.22222222222222" y1="0" x2="62.22222222222222" y2="178" fill="rgb(0, 0, 0)" stroke="rgb(60, 60, 60)" stroke-width="1px" opacity="0.25"></line><line x1="93.33333333333333" y1="0" x2="93.33333333333333" y2="178" fill="rgb(0, 0, 0)" stroke="rgb(60, 60, 60)" stroke-width="1px" opacity="0.25"></line><line x1="124.44444444444444" y1="0" x2="124.44444444444444" y2="178" fill="rgb(0, 0, 0)" stroke="rgb(60, 60, 60)" stroke-width="1px" opacity="0.25"></line><line x1="155.55555555555557" y1="0" x2="155.55555555555557" y2="178" fill="rgb(0, 0, 0)" stroke="rgb(60, 60, 60)" stroke-width="1px" opacity="0.25"></line><line x1="186.66666666666666" y1="0" x2="186.66666666666666" y2="178" fill="rgb(0, 0, 0)" stroke="rgb(60, 60, 60)" stroke-width="1px" opacity="0.25"></line><line x1="217.77777777777777" y1="0" x2="217.77777777777777" y2="178" fill="rgb(0, 0, 0)" stroke="rgb(60, 60, 60)" stroke-width="1px" opacity="0.25"></line><line x1="248.88888888888889" y1="0" x2="248.88888888888889" y2="178" fill="rgb(0, 0, 0)" stroke="rgb(60, 60, 60)" stroke-width="1px" opacity="0.25"></line><line x1="280" y1="0" x2="280" y2="178" fill="rgb(0, 0, 0)" stroke="rgb(60, 60, 60)" stroke-width="1px" opacity="0.25"></line></g><g><line x1="0" y1="178" x2="280" y2="178" fill="rgb(0, 0, 0)" stroke="rgb(60, 60, 60)" stroke-width="1px" opacity="0.25"></line><line x1="0" y1="155.75" x2="280" y2="155.75" fill="rgb(0, 0, 0)" stroke="rgb(60, 60, 60)" stroke-width="1px" opacity="0.25"></line><line x1="0" y1="133.5" x2="280" y2="133.5" fill="rgb(0, 0, 0)" stroke="rgb(60, 60, 60)" stroke-width="1px" opacity="0.25"></line><line x1="0" y1="111.24999999999999" x2="280" y2="111.24999999999999" fill="rgb(0, 0, 0)" stroke="rgb(60, 60, 60)" stroke-width="1px" opacity="0.25"></line><line x1="0" y1="88.99999999999999" x2="280" y2="88.99999999999999" fill="rgb(0, 0, 0)" stroke="rgb(60, 60, 60)" stroke-width="1px" opacity="0.25"></line><line x1="0" y1="66.75" x2="280" y2="66.75" fill="rgb(0, 0, 0)" stroke="rgb(60, 60, 60)" stroke-width="1px" opacity="0.25"></line><line x1="0" y1="44.5" x2="280" y2="44.5" fill="rgb(0, 0, 0)" stroke="rgb(60, 60, 60)" stroke-width="1px" opacity="0.25"></line><line x1="0" y1="22.25" x2="280" y2="22.25" fill="rgb(0, 0, 0)" stroke="rgb(60, 60, 60)" stroke-width="1px" opacity="0.25"></line><line x1="0" y1="0" x2="280" y2="0" fill="rgb(0, 0, 0)" stroke="rgb(60, 60, 60)" stroke-width="1px" opacity="0.25"></line></g></g></g><g><g><line x1="0" y1="155.75" x2="280" y2="155.75" fill="rgb(0, 0, 0)" stroke="rgb(153, 153, 153)" stroke-width="1.5px"></line></g></g><g><g><line x1="31.11111111111111" y1="0" x2="31.11111111111111" y2="178" fill="rgb(0, 0, 0)" stroke="rgb(153, 153, 153)" stroke-width="1.5px"></line></g></g><g><g><g><g><g><path stroke="rgb(187, 187, 187)" stroke-width="2px" d="M31.297777777777778,16.95626837015152L31.702222222222222,43.49788096547127L31.88888888888889,53.69614598155022L32.38666666666667,85.21915738284588L32.44888888888889,83.0968341678381L32.54222222222222,89.19719715416431L32.791111111111114,98.94862447679043L32.88444444444445,90.54332007467747L33.35111111111111,108.106071844697L33.44444444444444,106.63123757392168L34.06666666666667,109.36451283097267L34.315555555555555,106.86023973673582L34.44,114.0959421992302L35.062222222222225,112.02236358821392L35.46666666666667,118.84657167643309L35.80888888888889,117.6987526267767L35.964444444444446,-33.20672336220741L36.05777777777777,111.57734279334545L36.337777777777774,102.99736746400595L36.68,110.36436737328768L36.83555555555556,114.35690917819738L36.897777777777776,112.37080693989992L36.92888888888889,107.6791603565216L37.053333333333335,110.08986317366362L37.30222222222222,103.2638945505023L37.58222222222222,112.46934053301811L37.73777777777778,122.21375555545092L38.080000000000005,121.92333691567183L38.266666666666666,107.57133007794619L38.422222222222224,114.41897217929363L38.88888888888889,106.13062565028667L39.07555555555555,102.71212101727724L39.23111111111111,112.77996388077736L39.44888888888889,105.92012070864439L39.57333333333334,108.07284050434828L39.635555555555555,110.38646523654461L40.22666666666667,113.09683033078909L40.382222222222225,114.82362334430218L40.56888888888889,110.60393937677145L40.724444444444444,114.35881891101599L40.78666666666667,114.59888160973787L41.035555555555554,89.77997732162476L41.40888888888888,88.71857699751854L41.68888888888888,93.38033427298069L41.93777777777778,114.83238623291254L42.43555555555555,123.2528358772397L42.56,53.154557690024376L42.87111111111111,105.6986580118537L44.24,98.51653416454792L44.27111111111111,112.23824959993362L44.800000000000004,106.6946831420064L44.86222222222222,116.30351376533508L44.89333333333333,122.54702382534742L44.98666666666667,16.39749911427498L45.45333333333333,96.95453849434853L45.54666666666666,121.45528991520405L45.577777777777776,117.67051775753498L45.888888888888886,111.21281922608614L46.41777777777778,102.16353368759155L46.480000000000004,88.21355213224888L47.13333333333333,117.75513616204262L47.22666666666667,116.75988354533911L47.47555555555555,122.40534883737564L47.66222222222222,34.779513001441956L47.724444444444444,121.47853825986385L47.81777777777778,125.58656253665686L48.004444444444445,112.33888522535563L48.16,127.68969558924437L48.47111111111111,129.5523697398603L48.65777777777778,130.25335938483477L48.96888888888889,121.75935187190771L49.15555555555555,125.03307820111513L49.217777777777776,125.9902389422059L49.373333333333335,118.16588786244392L49.404444444444444,128.26194570213556L49.59111111111111,126.41031385213137L49.87111111111111,121.97220750898123L50.43111111111111,99.87703312933445L50.49333333333334,126.47372294962406L50.86666666666667,124.13252976536751L51.08444444444444,104.06488821655512L51.11555555555555,111.25479024648666L51.177777777777784,121.68009795993567L51.27111111111111,113.16345547139645L51.33333333333333,119.3870525881648L51.70666666666667,23.362626254558563L51.8,119.05982517451048L51.92444444444444,120.41658093035221L52.01777777777777,121.07535254955292L52.111111111111114,94.16647446155548L52.23555555555556,96.23042483627796L52.391111111111115,114.16226894408464L52.54666666666667,87.47093793749809L53.355555555555554,105.9914969727397L53.480000000000004,121.59287688136101L53.60444444444445,127.74667260050774L53.635555555555555,66.8902977257967L53.85333333333333,58.684129387140274L54.13333333333333,122.83225037902594L54.257777777777775,90.49543087184429L54.38222222222222,99.98079527914524L54.53777777777778,96.64453846216202L54.66222222222222,102.52693329751492L54.94222222222222,121.04257211834192L55.06666666666666,69.69726678729057L55.09777777777778,122.37907011806965L55.12888888888889,108.77652399986982L55.191111111111105,117.221030972898L55.40888888888889,111.72498901188374L55.56444444444445,126.03399370610714L55.626666666666665,119.6444686576724L55.782222222222224,116.23305589705706L55.84444444444445,109.06042435020208L55.96888888888889,113.68825402855873L56.093333333333334,121.31376412510872L56.28,122.02932045608759L56.31111111111111,97.61679802834988L57.026666666666664,127.54674081504345L57.151111111111106,118.68225508183241L58.17777777777778,127.74580062180758L58.333333333333336,118.40294671058655L58.39555555555555,122.2407006919384L58.58222222222222,115.70780311524868L58.83111111111111,132.52067143842578L59.01777777777778,121.80894856154919L59.14222222222222,131.81877168640494L59.36,-14.815187335014343L59.422222222222224,120.92971884459257L59.608888888888885,111.0591785684228L59.67111111111111,120.9689976722002L60.10666666666667,123.24847266823053L60.13777777777778,110.88882111757994L60.44888888888889,124.54870232194662L60.54222222222222,121.0717950090766L60.82222222222222,103.93194959312677L60.94666666666667,123.86781626194715L61.071111111111115,112.51103305071592L61.351111111111116,107.89059364050627L61.382222222222225,81.31652553379536L61.568888888888885,126.16068591177464L61.6,116.24823429435492L61.75555555555556,80.1377562135458L62.12888888888889,103.22915796935558L62.315555555555555,111.07183717936277L62.40888888888889,127.69354820996523L62.68888888888889,135.3760054782033L62.78222222222222,-18.137459337711334L63.031111111111116,29.296365052461624L63.404444444444444,67.05085453391075L63.62222222222222,121.1606705263257L64.02666666666667,86.46371302008629L64.21333333333334,105.30885700881481L64.30666666666666,106.5202973484993L64.36888888888889,109.68696922808886L64.49333333333334,49.540879026055336L64.61777777777777,106.95395258069038L64.68,54.28826925158501L64.83555555555556,101.38688911497593L64.86666666666666,111.59833659231663L65.14666666666666,107.70349287241697L65.33333333333333,111.344338811934L65.45777777777778,108.77827458828688L65.4888888888889,-31.675170689821243L65.8,108.7637924477458L65.95555555555555,124.19647597521544L66.39111111111112,104.24569283425808L67.10666666666667,62.453418120741844L67.2311111111111,91.0034131705761L67.26222222222222,98.26476772129536L67.29333333333334,114.00096283107996L67.85333333333334,51.76512759923935L68.22666666666667,97.72052039206028L68.25777777777778,113.37388747185469L68.44444444444444,108.51749327778816L68.66222222222223,106.10444308072329L69.47111111111111,110.72212067246437L69.53333333333333,116.57468256354332L69.84444444444445,85.61818544566631L70.18666666666667,113.61940086632967L70.28,117.70199850946665L70.37333333333333,114.2972035035491L70.99555555555555,110.71347051113844L71.18222222222222,100.1395285576582L71.4,103.40022825449705L71.58666666666666,75.88411149382591L71.89777777777778,108.44128631800413L72.08444444444444,89.51156702637672L72.17777777777778,102.86293023079634L72.42666666666666,92.97827583551407L72.52,109.85253576934338L72.61333333333334,59.97557957470417L72.70666666666666,93.92282438278198L72.73777777777778,96.4241964071989L73.29777777777778,64.18882814049721L74.23111111111112,98.33581906557083L74.32444444444444,84.03649565577507L74.35555555555555,86.49577398598194L74.41777777777777,103.15125346928835L74.44888888888889,90.23262378573418L75.13333333333333,99.24926814436913L75.50666666666666,100.01883742213249L75.56888888888889,53.42486445605755L75.69333333333333,88.17096774280071L75.81777777777778,112.2940496057272L75.94222222222221,112.88104046881199L76.72,123.46801568567753L76.75111111111111,107.52219092845917L77.09333333333333,113.85236174613237L77.34222222222222,114.7312234416604L77.46666666666667,93.53445236384869L77.5288888888889,106.56651221960783L77.84,54.57209666073322L78.05777777777779,91.52806584537029L78.52444444444444,95.828399553895L78.55555555555556,102.36583937704563L78.64888888888889,111.0907720476389L79.39555555555556,79.99635641276836L79.42666666666668,107.29043689370155L79.92444444444445,89.64404147863388L79.95555555555556,81.24229793250561L80.23555555555556,100.50552421063185L80.42222222222222,98.36916644871235L80.54666666666667,96.44644346833229L80.82666666666667,68.08488202095032L81.04444444444445,102.29405530542135L81.07555555555555,66.94104489684105L81.47999999999999,85.52651827037334L81.75999999999999,99.99145132303238L81.91555555555556,105.12126222997904L82.07111111111111,84.62962020933628L82.16444444444444,84.90645852684975L82.32,82.70032589137554L82.41333333333333,85.5149073600769L82.53777777777779,-41.06250214576721L82.78666666666668,92.03712899982929L83.03555555555556,95.66910926997662L83.25333333333333,121.05914634466171L83.47111111111111,114.95825619250536L83.75111111111111,118.43487505614758L83.87555555555556,98.15009754896164L83.90666666666668,112.76451692730188L83.93777777777777,112.90992849320173L84,110.48861273378134L84.09333333333333,96.03192535042763L84.3111111111111,80.74523028731346L84.5911111111111,93.35323330760002L84.90222222222222,104.73060914129019L85.02666666666666,98.03516213595867L85.08888888888889,88.84382364153862L85.18222222222222,103.22501358389854L85.33777777777777,81.06680807471275L85.43111111111111,68.93404339253902L85.46222222222222,114.47822694480419L85.49333333333334,109.45039112865925L86.08444444444444,104.38528568297625L86.36444444444444,83.56837902963161L86.55111111111111,48.03740870952606L86.76888888888888,108.11006703227758L86.8,105.42394161969423L87.08,107.1578265056014L87.29777777777777,116.63147722184658L87.67111111111112,-63.19935578107838L87.95111111111112,123.24018058180809L88.07555555555555,-34.44160434603691L88.38666666666666,108.65277265012264L88.51111111111112,109.82869394868612L88.66666666666666,120.29225599765778L88.79111111111112,117.71811851114035L89.19555555555554,119.33687236905098L89.28888888888889,125.15076548606157L89.47555555555554,119.55078565329313L89.50666666666666,122.78333005309105L89.53777777777778,120.95138569176197L90.59555555555555,114.13213428854942L90.78222222222223,110.74612163752317L91.31111111111112,123.42718520015478L91.37333333333332,120.09415105730295L91.43555555555555,126.38429705798626L91.62222222222223,119.27379150688648L91.71555555555555,123.05610687285662L91.77777777777777,120.31508658826351L91.87111111111112,118.23409781605005L92.33777777777777,122.0732409954071L92.4,121.09105811268091L92.77333333333333,121.75102994590998L92.80444444444444,113.80020548403263L92.83555555555556,127.55664755403996L93.39555555555556,75.60855959355831L93.52000000000001,106.03323922306299L93.7688888888889,109.52901177853346L93.89333333333333,79.32511848211288L94.20444444444445,57.90239219367504L94.29777777777778,86.70443218946457L94.3911111111111,92.76246939599514L94.48444444444445,92.02509370446205L95.2311111111111,108.17327056825161L95.60444444444444,98.77249141037464L95.63555555555556,102.7253598421812L95.72888888888889,27.427969992160797L95.76,88.41271471977234L95.82222222222222,76.99440893530846L95.88444444444444,16.338323920965195L96.00888888888889,75.65904152393341L96.13333333333333,52.30160337686539L96.28888888888889,49.78419092297554L96.35111111111111,72.51737189292908L96.81777777777778,93.01693466305733L96.94222222222221,83.79569691419601L97.7511111111111,79.12886691093445L97.84444444444445,88.35826081037521L97.87555555555556,-126.45071464776997L98,58.37075416743755L98.06222222222222,99.50208228826523L98.21777777777778,86.94203478097916L98.49777777777778,105.82284037768841L98.74666666666667,74.42777444422245L98.8711111111111,107.71259062737226L99.18222222222222,94.13754996657372L99.24444444444444,60.01901273429394L99.30666666666667,71.55401115119457L99.33777777777779,110.19762051105499L99.46222222222222,103.21646620333195L99.55555555555556,120.41615322977304L99.80444444444444,96.46383662521839L99.92888888888888,68.59254603087902L100.36444444444444,57.02939231693745L100.55111111111111,-9.293619275093079L100.70666666666668,106.01769943535328L100.73777777777777,124.42128401994705L100.8,113.69472258538008L100.89333333333333,111.79284089058638L100.95555555555556,35.9181911945343L101.01777777777777,117.57755421847105L101.04888888888888,113.18767857551575L101.26666666666668,102.9273936599493L101.36,112.55942952632904L101.51555555555557,112.97282700240612L102.10666666666665,77.7282105088234L102.41777777777777,96.5476858317852L102.60444444444445,111.72633510828018L102.7911111111111,81.63526524603367L102.91555555555556,95.78412425518036L102.94666666666666,100.92403088510036L103.28888888888889,105.39872717857361L103.32,98.65402166545391L103.78666666666666,95.03269743919373L104.09777777777778,80.47023539245129L104.37777777777778,114.23252788186073L104.90666666666667,96.21083018183708L105.46666666666667,96.1333931684494L105.49777777777777,-115.50014752149586L105.56,89.33719117939472L105.87111111111112,87.07523201406002L105.99555555555555,48.64292000234127L106.30666666666666,63.25072494149208L106.55555555555554,102.46440612524748L106.58666666666666,111.4981949776411L106.92888888888889,87.28599224984646L107.17777777777778,94.13668793439865L107.36444444444444,107.52757199853659L107.39555555555555,87.48923954367638L107.45777777777778,99.69468016922474L107.52,105.78547128289938L107.67555555555555,108.14128585904837L108.45333333333332,97.02956844866276L108.48444444444443,111.31083228439093L108.79555555555555,79.08498284220695L108.85777777777778,80.36637377738953L108.98222222222223,88.4474081993103L109.01333333333332,92.53019151091576L109.44888888888889,100.06789368391037L109.63555555555556,102.32383520156145L109.79111111111112,86.00521136820316L109.85333333333332,110.12000777572393L109.91555555555556,61.67803344130516L109.97777777777777,95.46992015838623L110.38222222222221,-13.593356192111969L110.50666666666666,73.47813327610493L110.56888888888889,61.283408373594284L110.66222222222221,-59.08905375003819L110.97333333333333,101.37151178717613L111.28444444444445,34.25062310695648L111.34666666666666,29.834326177835464L111.72,105.92717942595482L111.75111111111111,104.82710701227188L111.78222222222222,96.0092870593071L112.0311111111111,98.641336530447L112.21777777777778,23.77548661828041L112.74666666666667,87.505386069417L112.93333333333334,73.54881991446018L112.96444444444444,32.87771087884903L113.21333333333332,50.9457593858242L113.4,65.94926361739635L113.58666666666667,46.95431832969189L113.74222222222222,86.52203281223774L114.45777777777778,79.24655419588089L114.52,84.5621960312128L114.67555555555556,93.59423097968102L114.83111111111111,77.52321262657642L115.23555555555556,109.46004588901997L115.45333333333333,54.67904169857502L115.91999999999999,91.2258970439434L116.29333333333334,69.30302631855011L116.38666666666667,62.76213836669922L116.57333333333334,90.96936289966106L116.82222222222222,96.55102786421776L116.85333333333334,101.39597360789776L116.91555555555556,79.04856529831886L117.19555555555556,78.75719179213047L117.91111111111111,99.78646670281887L117.94222222222223,103.48076858371496L117.97333333333333,95.89203079044819L118.19111111111111,85.27090583741665L118.53333333333333,55.75397592782974L118.59555555555556,82.688840970397L118.96888888888888,-111.92602950334553L119,88.83499775826931L119.09333333333333,93.07140846550465L119.15555555555557,102.02939485013485L119.18666666666667,109.27779902517796L120.08888888888889,60.169138953089714L120.46222222222222,102.54632570594549L120.49333333333334,94.14055381715298L120.74222222222222,112.24271558970213L120.77333333333334,111.5177498459816L120.96,88.50317505002022L121.05333333333334,115.26813023537397L121.24,116.12030540406704L121.36444444444444,103.94079205393791L121.89333333333335,114.73897178471088L121.95555555555555,123.20403490960598L121.98666666666666,110.36405571550131L122.01777777777778,111.5763149857521L122.36,102.27352567762136L122.92,105.63500025123358L123.44888888888889,115.88652559369802L123.66666666666666,29.491290420293808L123.69777777777777,49.300319001078606L123.79111111111112,93.34498432278633L124.28888888888889,19.678990364074707L124.41333333333334,116.09983545541763L124.56888888888889,107.34452941268682L124.63111111111111,112.80814901739359L124.69333333333334,110.94950818270445L124.75555555555555,99.546576410532L124.81777777777778,100.91310960054398L124.94222222222223,68.85839675366879L124.97333333333334,114.10131000727415L125.31555555555555,102.07577881217003L125.4088888888889,37.303198397159576L125.65777777777778,25.944160640239716L125.75111111111111,-12.302907288074493L125.78222222222223,103.65819801390171L126.03111111111112,106.49882943183184L126.49777777777778,81.4796485453844L126.62222222222223,72.18023774027824L126.68444444444444,56.25640143454075L127.15111111111112,73.04038007557392L127.55555555555556,92.04795745015144L128.2711111111111,92.80431774258614L128.73777777777778,96.9430999904871L128.76888888888888,119.11405362933874L128.95555555555555,119.49081805348396L128.98666666666668,61.017371982336044L129.14222222222222,111.01671353727579L129.29777777777778,79.6600643992424L129.42222222222222,96.05507422983646L129.48444444444445,89.74139806628227L129.98222222222222,54.806993797421455L130.32444444444445,12.290247350931168L130.54222222222222,84.20246337354183L130.57333333333332,33.50602623820305L130.7911111111111,66.79299418628216L130.88444444444445,42.39926737546921L131.6311111111111,114.87610784173012L131.72444444444443,95.86152148246765L131.94222222222223,115.09090968221426L132.03555555555556,83.76856942474842L132.06666666666666,11.114952683448792L132.1288888888889,98.6290956735611L132.16,98.69484220445156L132.78222222222223,117.14672711491585L132.9377777777778,109.99094498157501L133.2177777777778,128.2439109943807L133.28,126.8887549713254L133.34222222222223,77.03413535654545L133.56,114.53655668348074L133.96444444444444,60.22150409221649L134.21333333333334,-18.934931933879852L134.4622222222222,65.26026119291782L134.64888888888888,106.45081423968077L134.68,100.58642593026161L134.83555555555557,107.82214165478945L134.9911111111111,102.50140719860792L135.20888888888888,106.41126685589552L135.5822222222222,120.40457547456026L136.11111111111111,85.45200553536415L136.17333333333335,43.06279343366623L136.23555555555555,86.58402618765831L136.32888888888888,119.73689839988947L136.48444444444445,87.20356208086014L137.01333333333335,90.35665695369244L137.1688888888889,86.71994876861572L137.85333333333332,108.50663498789072L137.94666666666666,119.02730003744364L138.10222222222222,121.6927035227418L138.32,124.87109240889549L138.44444444444446,112.740234144032L138.50666666666666,124.24639095366001L138.69333333333333,119.67182160168886L138.72444444444446,110.04335322231054L138.91111111111113,115.76905713230371L139.1288888888889,110.86310935020447L139.31555555555553,118.50037623941898L139.4088888888889,101.67036176472902L139.93777777777777,9.839794903993607L140,62.65018028020859L140.3111111111111,86.55160051584244L140.40444444444447,65.5310984402895L140.46666666666667,46.68488685786724L140.62222222222223,80.81646066904068L141.12,75.70348259806633L141.18222222222224,93.0256478190422L141.3688888888889,101.05158180743456L141.4933333333333,68.33880354464054L141.55555555555554,111.52370449900627L141.9911111111111,112.71408472955227L142.36444444444444,102.99011976271868L142.52,113.63780525326729L142.89333333333332,93.2002557516098L143.1111111111111,96.87137891352177L143.14222222222222,109.88084026426077L143.70222222222222,9.08546370267868L143.76444444444445,100.92824158072472L143.82666666666668,107.71074388921261L143.92000000000002,106.86580979079008L144.01333333333332,75.26042458415031L144.54222222222222,72.58091692626476L144.88444444444445,53.20606742799282L144.91555555555556,57.25954827666283L145.10222222222222,86.77761872112751L145.32,61.54652048647404L146.06666666666666,-161.66414546966556L146.25333333333333,87.72869218885899L146.31555555555556,49.49498575925827L146.96888888888887,89.04791970551014L147.06222222222223,84.42985419929028L147.18666666666664,93.56529985368252L147.21777777777777,65.29722248017788L147.24888888888887,59.941462993621826L147.43555555555557,54.605251744389534L147.52888888888887,87.29646925628185L147.5911111111111,80.80993574857712L147.8711111111111,69.06216126680374L148.08888888888887,86.53172072768211L148.24444444444447,4.3182931542396545L148.49333333333334,95.26701767742634L148.61777777777777,87.79134866595268L148.74222222222224,82.72813637554646L149.14666666666665,110.61147221177816L149.20888888888888,90.06800879538059L149.30222222222224,101.03382394462824L149.67555555555555,113.89159747213125L149.8,98.62736497819424L149.95555555555555,101.83458552509546L150.01777777777778,90.44797931611538L150.32888888888888,114.65838503837585L150.39111111111112,104.8919218853116L150.45333333333332,113.68842643499374L150.85777777777778,81.4492519646883L151.35555555555555,108.12912457436323L151.51111111111112,110.54297712445259L151.7288888888889,111.96152069419622L152.50666666666666,116.1281333193183L152.5377777777778,115.50030865520239L152.5688888888889,120.95719777792692L152.78666666666666,112.9073854982853L153.0977777777778,76.73202623426914L153.34666666666666,110.45380321145058L153.56444444444443,88.16792410612106L153.6888888888889,-215.62499898672112L154.0311111111111,83.06456100940704L154.2177777777778,93.63881130516529L154.40444444444444,102.30378632247448L154.96444444444444,101.82180092483759L155.08888888888887,105.49419061094522L155.4311111111111,109.4086256697774L155.58666666666667,127.61613772064447L155.7422222222222,-42.48489502072334L155.86666666666667,91.57927718758583L155.89777777777778,130.70131108909845L156.24,125.63745227456093L156.2711111111111,121.86240781843662L156.61333333333334,113.52836695313454L156.67555555555558,114.04626262187958L156.70666666666665,123.51545729488134L156.92444444444445,121.28399749100208L157.01777777777778,57.02661392092705L157.04888888888888,108.85169652104378L157.08,94.63073183596134L157.95111111111112,124.82767914235592L158.48,128.38170186430216L158.63555555555556,90.31124775111675L158.66666666666666,108.75081886351109L158.7288888888889,103.49284366518259L158.9777777777778,104.22984470427036L160.7822222222222,106.91065867245197L161.2488888888889,119.69704598933458L161.5911111111111,114.10725471377373L161.6222222222222,102.00255912542343L161.68444444444444,106.64199971407652L161.74666666666667,108.14829152822495L161.83999999999997,100.73048808425665L161.8711111111111,113.88823223114014L161.93333333333334,103.16486694663763L162.6488888888889,84.09685780107975L162.80444444444444,100.91373954713345L162.89777777777778,101.04837239533663L162.9911111111111,97.73512189090252L163.14666666666668,104.16504640877247L163.48888888888888,118.08608026057482L163.76888888888888,76.27679367363453L163.86222222222221,105.90233632177114L163.89333333333335,129.20104852691293L164.17333333333335,123.46719343960285L164.35999999999999,113.93026293069124L164.85777777777776,114.07814455032349L165.04444444444445,-69.50221675634388L165.1688888888889,102.4548342525959L165.4488888888889,-18.81231117248535L165.51111111111112,108.80916517972946L165.79111111111112,66.78379033505917L165.91555555555553,112.70334579795599L166.10222222222222,119.23872669041157L166.25777777777776,26.503142088651657L166.44444444444446,112.66376194357872L166.72444444444443,93.53189279139042L166.94222222222223,119.08295084536076L167.06666666666666,119.3725538700819L167.34666666666666,90.59106339514256L167.81333333333336,125.91899198293686L168.03111111111113,126.9006775394082L168.21777777777777,121.11730367690325L168.34222222222223,106.82864957302809L168.37333333333333,127.26127222925425L168.96444444444444,128.12974477931857L168.99555555555554,97.40298752486706L169.05777777777777,121.2842759937048L169.24444444444444,30.809271305799484L169.33777777777777,92.18265329301357L170.17777777777778,130.29843372106552L170.36444444444444,102.90246766805649L170.4888888888889,127.53123086690903L170.5822222222222,98.61324754357338L170.8311111111111,117.26178188621998L170.89333333333332,97.88837131857872L171.42222222222222,106.34270214289427L171.45333333333332,97.81710115075111L172.04444444444445,93.39261491596699L172.07555555555555,63.08813904225826L172.1688888888889,103.79830145090818L172.38666666666668,85.75915423035622L172.4488888888889,87.05219586193562L172.69777777777776,115.35167773067951L172.76,85.78356300294399L172.79111111111112,127.52290562540293L173.19555555555556,73.32447272539139L173.25777777777776,118.43505077809095L173.5688888888889,56.97398354113102L173.66222222222223,96.48336496949196L174.00444444444446,113.45964309573174L174.09777777777776,105.21132138371468L174.16,103.06971517205238L174.22222222222223,110.9589673280716L174.59555555555553,100.62834058701992L175.12444444444446,84.26044498383999L175.5911111111111,117.83750996738672L175.77777777777777,101.02997463941574L175.99555555555554,78.59896910190582L176.24444444444444,106.47813734412193L176.3688888888889,122.82077872008085L176.58666666666667,110.79664666950703L176.61777777777777,118.80305562913418L176.6488888888889,115.63936107605696L176.96,58.826351433992386L177.61333333333332,120.91213338822126L177.76888888888888,93.7894547432661L177.92444444444445,120.48506275564432L178.1111111111111,112.488799251616L178.42222222222222,118.98615457862616L178.57777777777778,122.89063316583633L178.76444444444445,121.83042642474174L178.88888888888889,118.1350005865097L178.92000000000002,125.00942867994308L179.1688888888889,122.16066431999207L179.26222222222222,128.37009095400572L179.29333333333332,125.9314417168498L179.35555555555555,117.41684489697218L179.4488888888889,131.09212995320559L179.48000000000002,117.905975215137L179.7288888888889,120.6693188175559L179.82222222222222,126.50823076069355L179.85333333333332,119.68026951700449L179.91555555555556,124.44315974414349L179.9777777777778,128.49148663505912L180.0711111111111,112.21649654954672L180.10222222222222,90.24047490954399L180.28888888888886,114.34255965799093L180.47555555555556,115.46370212733746L180.5377777777778,96.40164431929588L180.6311111111111,120.40184018015862L181.25333333333333,113.40673089772463L181.31555555555556,123.83720085769892L181.50222222222223,107.83065256476402L181.72,120.99887040257454L182.09333333333333,84.88407884538174L182.68444444444447,6.475747495889664L182.74666666666664,116.40758757293224L183.24444444444447,129.0610959455371L183.33777777777777,123.88491433858871L183.4,114.80009649693966L183.4311111111111,69.76464454829693L184.02222222222224,116.23646755516529L184.76888888888888,102.12898609042168L184.86222222222224,66.01932694017887L185.26666666666665,115.08291930705309L185.51555555555555,116.68387220054865L185.76444444444442,120.90112590044737L185.79555555555555,116.5078120753169L185.88888888888889,125.34691096097231L185.95111111111112,96.36810463666916L185.98222222222225,124.47473001480103L186.4177777777778,121.65183988213539L186.66666666666666,102.46948548406363L187.3511111111111,54.632200196385384L187.5377777777778,17.893416702747345L187.6311111111111,104.51447446644306L187.8488888888889,125.95150054246187L188.25333333333333,15.948605805635452L188.31555555555556,99.0125474780798L188.34666666666666,82.82429938018322L188.56444444444443,116.0874719247222L189.12444444444444,112.1618967577815L189.6222222222222,90.77565763890743L189.84,80.65028738975525L189.99555555555557,55.40416990220547L190.02666666666667,102.85182327777147L190.21333333333334,109.44961198419333L190.61777777777777,106.16401613503695L190.68,86.74230855703354L190.86666666666667,96.74950082600117L190.96,108.64160270243883L191.67555555555558,97.81434264779091L191.8311111111111,104.84844562411308L192.23555555555555,121.34889856725931L192.36,85.67470160126686L192.92,70.50359842181206L193.1688888888889,79.19810798764229L193.88444444444443,75.74893821775913L193.9777777777778,71.93175365030766L194.0088888888889,83.29898734390736L194.07111111111112,74.27423325181007L194.13333333333333,96.85863409936428L194.16444444444443,104.72883202880621L194.2888888888889,81.57413390278816L194.8488888888889,119.46810019016266L194.97333333333333,56.420605301856995L195.6888888888889,106.78835951536894L196.09333333333333,66.14168909192085L196.5911111111111,101.22610685229301L196.93333333333334,101.7132445499301L196.96444444444444,117.58520309627056L197.4311111111111,105.9462137594819L197.52444444444444,81.27000232040882L197.86666666666667,99.93585024774075L197.89777777777778,102.98299473524094L197.9911111111111,81.1781958937645L198.51999999999998,100.90222810208797L198.64444444444445,80.0817373842001L199.04888888888888,56.96391102671623L199.26666666666668,79.0132352411747L199.32888888888888,61.95127111673355L199.76444444444445,83.08161598443985L199.92,91.23075757920742L200.35555555555555,71.85235385596752L200.38666666666666,81.64134588837624L200.4488888888889,109.83842496573925L200.60444444444445,106.74038079380989L201.47555555555553,116.36121687293053L201.75555555555553,112.93458261340857L201.97333333333336,109.9703888297081L202.09777777777776,123.23062528669834L202.28444444444443,100.45357682555914L202.47111111111113,119.69632320851088L202.62666666666667,111.18128211051226L202.72,100.98802682757378L202.78222222222223,107.66804014146328L203.2488888888889,111.52916845679283L203.5288888888889,113.44583731889725L203.77777777777777,111.00374989956617L204.0888888888889,121.87864054739475L204.30666666666667,127.99464112892747L204.4622222222222,113.0127855092287L204.52444444444444,130.83599864318967L204.61777777777777,130.06905690580606L204.89777777777778,106.3755654618144L204.96,127.80609314143658L205.14666666666668,126.29054111242294L205.51999999999998,116.42079987376928L205.67555555555555,125.67412842810154L205.92444444444445,127.537387765944L205.98666666666668,130.35683308541775L206.29777777777778,134.39099115133286L206.35999999999999,131.26497237756848L206.82666666666668,105.74447502195835L207.1688888888889,137.7461728900671L207.23111111111112,111.92319010198116L207.35555555555555,126.36602860689163L207.7288888888889,110.69399853050709L207.82222222222222,136.51416313648224L208.88,125.04946675896645L209.09777777777776,112.74153382331133L209.1911111111111,102.84632948040962L209.31555555555553,93.35179437696934L209.7511111111111,90.01976814866066L210.09333333333333,49.67591968178749L210.3111111111111,64.1796640753746L210.5288888888889,124.46048327535391L210.84,109.11805451661348L210.93333333333334,83.82440258562565L211.0888888888889,103.32227402180433L211.24444444444444,118.19727909564972L211.4311111111111,98.03248983621597L211.4933333333333,96.54337567090988L211.80444444444444,121.31782893836498L211.83555555555554,122.57887922972441L212.36444444444444,133.92009281367064L212.45777777777778,122.76066192239523L212.67555555555555,128.20648719370365L213.04888888888888,121.94042504578829L213.51555555555555,136.76372476667166L213.57777777777778,132.04640454426408L213.79555555555555,114.52967037260532L214.10666666666668,99.02368758618832L214.35555555555555,44.67889156937599L214.4177777777778,129.35679121688008L214.48000000000002,118.31637878715992L214.57333333333332,-35.89324000477791L214.63555555555556,90.4527337551117L214.91555555555556,33.13293871283531L215.2266666666667,105.31662856042385L215.2577777777778,57.33624924719334L215.56888888888886,87.5763379484415L215.69333333333333,0.5981203615665436L215.72444444444446,23.90020278096199L216.31555555555556,115.31539280712605L216.4711111111111,81.55971144139767L216.53333333333333,126.92939315736294L216.56444444444446,121.457919113338L216.65777777777777,89.65635527670383L216.93777777777777,117.58931432664394L217.49777777777777,127.12858558446169L218.12,93.03743113577366L218.27555555555557,110.14083579927683L218.4,117.95145072788L218.55555555555554,94.29943960905075L218.74222222222224,109.2540831938386L218.77333333333334,99.71788209676743L218.80444444444447,106.92185845971107L218.89777777777778,123.91844075918198L218.9911111111111,101.7250709682703L219.42666666666665,97.0140518695116L219.58222222222224,110.18821109831333L219.67555555555555,112.31042158603668L220.20444444444442,68.52457147836685L220.23555555555555,49.563669830560684L220.36,105.8450575992465L220.51555555555555,98.3782973587513L220.73333333333332,110.57791926711798L221.01333333333332,123.78693111985922L221.07555555555555,104.97802895307541L221.38666666666666,91.21299308538437L221.57333333333332,124.28369042277336L221.63555555555556,117.00230357050896L221.82222222222222,2.7693274319171906L221.88444444444443,123.24323084950447L221.94666666666666,63.34544901549816L222.16444444444443,119.08985041826963L222.32000000000002,95.17116633057594L222.38222222222223,111.41472705453634L222.44444444444443,92.56138381361961L222.69333333333333,124.16954741626978L223.16000000000003,123.39505792409182L223.28444444444443,119.63483047485352L223.44,88.1247031390667L223.53333333333333,36.670983999967575L224.0311111111111,89.12243244051933L224.3422222222222,126.75636009126902L224.37333333333333,125.07379595935345L224.43555555555557,98.7893673479557L224.6222222222222,134.73345498368144L224.65333333333334,121.75016128271818L224.80888888888887,101.27728835493326L225.02666666666667,122.96774525940418L225.1822222222222,107.44454835355282L225.27555555555557,127.59282638132572L225.4,125.322071172297L225.58666666666667,139.2645944915712L225.9911111111111,110.95913310348988L226.20888888888888,126.48683578521013L226.8,112.68550504744053L227.42222222222222,116.96657565236092L227.51555555555555,125.92616011202335L227.64,123.11485436558723L227.67111111111112,109.48929861932993L227.88888888888889,119.28284947574139L228.4177777777778,132.3042516298592L228.76,90.02044451236725L229.10222222222222,102.8751279860735L229.32,110.30018576234579L229.50666666666666,70.34627754986286L230.25333333333333,116.67293433845043L230.9688888888889,44.98635192215443L231.2488888888889,-34.50486424565315L231.71555555555557,-94.69809103012089L231.74666666666667,93.96405604481697L231.96444444444444,68.83722391724586L232.0888888888889,62.386279076337814L232.39999999999998,73.74556218087673L232.49333333333334,98.46374464035034L232.52444444444444,103.45440697669983L232.83555555555557,95.24828505516052L232.95999999999998,103.74388732761145L233.20888888888888,45.798432648181915L233.23999999999998,68.29252567887306L233.36444444444444,100.25279958546162L233.64444444444445,118.23494658619165L233.67555555555558,93.01271733641624L233.98666666666668,117.01225341111422L234.01777777777775,107.93484241515398L234.04888888888888,87.32259546220303L234.29777777777775,119.94592794030905L234.42222222222222,105.90647076070309L234.92,20.689331859350204L235.1688888888889,106.8524947091937L235.57333333333335,111.59396343678236L235.66666666666666,83.72778867185116L235.79111111111112,126.58441451191902L235.85333333333335,115.18013664335012L235.88444444444445,104.85720519721508L235.97777777777776,95.50091353058815L236.25777777777776,89.71301731467247L236.2888888888889,83.7506855726242L236.5688888888889,107.24068769067526L236.66222222222223,113.40004351735115L236.97333333333336,110.65099970251322L237.1288888888889,129.73895991966128L238,70.47960740327835L238.2488888888889,114.60075155645609L238.5288888888889,99.5029244273901L238.59111111111113,126.04774643480778L238.71555555555554,77.59692963957787L238.9022222222222,131.94824891909957L238.96444444444444,122.79891625791788L238.99555555555554,113.80723767727613L239.2133333333333,54.43816338479519L239.30666666666667,108.49330664426088L239.4622222222222,91.18024249374866L239.55555555555554,102.7016771659255L239.58666666666667,103.50629468262196L239.80444444444444,107.72186410427094L239.9288888888889,102.49604933708906L240.0533333333333,114.67867926508188L240.36444444444444,113.09318658709526L240.39555555555555,117.67662160843611L240.7688888888889,125.95562171936035L240.89333333333332,127.81986576318741L241.11111111111111,61.65979814529419L241.23555555555555,58.98599316179752L241.57777777777778,131.5999862626195L241.95111111111112,126.11144729703665L242.4488888888889,90.87391604483128L243.10222222222222,132.41094468906522L243.2266666666667,58.45799182355404L243.69333333333333,115.43219816684723L243.8488888888889,132.6957219913602L243.94222222222223,93.30415052175522L244.1288888888889,103.62811309099197L244.25333333333333,90.62821035087109L244.37777777777777,101.8926467075944L244.62666666666667,114.66352076083422L244.81333333333333,118.71353358775377L244.84444444444446,92.6973859667778L244.87555555555554,105.12899399548769L245.37333333333333,115.46942469477654L245.5911111111111,99.86464639008045L245.65333333333334,113.90566848963499L245.84,124.37236700952053L246.0888888888889,120.41208841651678L246.12,119.98500452190638" style="fill: none;" fill="none"></path></g></g></g></g></g></g><g transform="translate(50, 178)" clip-path="url(#clip_1)"><clipPath id="clip_1"><rect width="280" height="22"></rect></clipPath><g><g><line x1="0" y1="0" x2="0" y2="5" style="visibility: inherit;" fill="rgb(0, 0, 0)" stroke="rgb(204, 204, 204)" stroke-width="1px"></line><line x1="31.11111111111111" y1="0" x2="31.11111111111111" y2="5" style="visibility: inherit;" fill="rgb(0, 0, 0)" stroke="rgb(204, 204, 204)" stroke-width="1px"></line><line x1="62.22222222222222" y1="0" x2="62.22222222222222" y2="5" style="visibility: inherit;" fill="rgb(0, 0, 0)" stroke="rgb(204, 204, 204)" stroke-width="1px"></line><line x1="93.33333333333333" y1="0" x2="93.33333333333333" y2="5" style="visibility: inherit;" fill="rgb(0, 0, 0)" stroke="rgb(204, 204, 204)" stroke-width="1px"></line><line x1="124.44444444444444" y1="0" x2="124.44444444444444" y2="5" style="visibility: inherit;" fill="rgb(0, 0, 0)" stroke="rgb(204, 204, 204)" stroke-width="1px"></line><line x1="155.55555555555557" y1="0" x2="155.55555555555557" y2="5" style="visibility: inherit;" fill="rgb(0, 0, 0)" stroke="rgb(204, 204, 204)" stroke-width="1px"></line><line x1="186.66666666666666" y1="0" x2="186.66666666666666" y2="5" style="visibility: inherit;" fill="rgb(0, 0, 0)" stroke="rgb(204, 204, 204)" stroke-width="1px"></line><line x1="217.77777777777777" y1="0" x2="217.77777777777777" y2="5" style="visibility: inherit;" fill="rgb(0, 0, 0)" stroke="rgb(204, 204, 204)" stroke-width="1px"></line><line x1="248.88888888888889" y1="0" x2="248.88888888888889" y2="5" style="visibility: inherit;" fill="rgb(0, 0, 0)" stroke="rgb(204, 204, 204)" stroke-width="1px"></line><line x1="280" y1="0" x2="280" y2="5" style="visibility: inherit;" fill="rgb(0, 0, 0)" stroke="rgb(204, 204, 204)" stroke-width="1px"></line></g><g transform="translate(0, 8)"><text x="0" y="0" dx="0em" dy="0.95em" style="text-anchor: middle; visibility: hidden; font-family: Roboto, sans-serif; font-size: 12px; font-weight: 200;" fill="rgb(50, 49, 63)" stroke="none" stroke-width="1px">-1M</text><text x="31.11111111111111" y="0" dx="0em" dy="0.95em" style="text-anchor: middle; visibility: inherit; font-family: Roboto, sans-serif; font-size: 12px; font-weight: 200;" fill="rgb(50, 49, 63)" stroke="none" stroke-width="1px">0</text><text x="62.22222222222222" y="0" dx="0em" dy="0.95em" style="text-anchor: middle; visibility: inherit; font-family: Roboto, sans-serif; font-size: 12px; font-weight: 200;" fill="rgb(50, 49, 63)" stroke="none" stroke-width="1px">1M</text><text x="93.33333333333333" y="0" dx="0em" dy="0.95em" style="text-anchor: middle; visibility: inherit; font-family: Roboto, sans-serif; font-size: 12px; font-weight: 200;" fill="rgb(50, 49, 63)" stroke="none" stroke-width="1px">2M</text><text x="124.44444444444444" y="0" dx="0em" dy="0.95em" style="text-anchor: middle; visibility: inherit; font-family: Roboto, sans-serif; font-size: 12px; font-weight: 200;" fill="rgb(50, 49, 63)" stroke="none" stroke-width="1px">3M</text><text x="155.55555555555557" y="0" dx="0em" dy="0.95em" style="text-anchor: middle; visibility: inherit; font-family: Roboto, sans-serif; font-size: 12px; font-weight: 200;" fill="rgb(50, 49, 63)" stroke="none" stroke-width="1px">4M</text><text x="186.66666666666666" y="0" dx="0em" dy="0.95em" style="text-anchor: middle; visibility: inherit; font-family: Roboto, sans-serif; font-size: 12px; font-weight: 200;" fill="rgb(50, 49, 63)" stroke="none" stroke-width="1px">5M</text><text x="217.77777777777777" y="0" dx="0em" dy="0.95em" style="text-anchor: middle; visibility: inherit; font-family: Roboto, sans-serif; font-size: 12px; font-weight: 200;" fill="rgb(50, 49, 63)" stroke="none" stroke-width="1px">6M</text><text x="248.88888888888889" y="0" dx="0em" dy="0.95em" style="text-anchor: middle; visibility: inherit; font-family: Roboto, sans-serif; font-size: 12px; font-weight: 200;" fill="rgb(50, 49, 63)" stroke="none" stroke-width="1px">7M</text><text x="280" y="0" dx="0em" dy="0.95em" style="text-anchor: middle; visibility: hidden; font-family: Roboto, sans-serif; font-size: 12px; font-weight: 200;" fill="rgb(50, 49, 63)" stroke="none" stroke-width="1px">8M</text></g><line x1="0" y1="0" x2="280" y2="0" fill="rgb(0, 0, 0)" stroke="rgb(204, 204, 204)" stroke-width="1px"></line></g></g></g></g></svg>