<svg viewBox="0 0 330 200" xmlns="http://www.w3.org/2000/svg"><g><g><g><g><g><line x1="51.5625" y1="160.75001899718586" x2="46.5625" y2="160.75001899718586" style="visibility: inherit;" fill="rgb(0, 0, 0)" stroke="rgb(204, 204, 204)" stroke-width="1px"></line><line x1="51.5625" y1="141.84428146462074" x2="46.5625" y2="141.84428146462074" style="visibility: inherit;" fill="rgb(0, 0, 0)" stroke="rgb(204, 204, 204)" stroke-width="1px"></line><line x1="51.5625" y1="122.93854393205562" x2="46.5625" y2="122.93854393205562" style="visibility: inherit;" fill="rgb(0, 0, 0)" stroke="rgb(204, 204, 204)" stroke-width="1px"></line><line x1="51.5625" y1="104.03280639949052" x2="46.5625" y2="104.03280639949052" style="visibility: inherit;" fill="rgb(0, 0, 0)" stroke="rgb(204, 204, 204)" stroke-width="1px"></line><line x1="51.5625" y1="85.12706886692537" x2="46.5625" y2="85.12706886692537" style="visibility: inherit;" fill="rgb(0, 0, 0)" stroke="rgb(204, 204, 204)" stroke-width="1px"></line><line x1="51.5625" y1="66.22133133436026" x2="46.5625" y2="66.22133133436026" style="visibility: inherit;" fill="rgb(0, 0, 0)" stroke="rgb(204, 204, 204)" stroke-width="1px"></line><line x1="51.5625" y1="47.31559380179513" x2="46.5625" y2="47.31559380179513" style="visibility: inherit;" fill="rgb(0, 0, 0)" stroke="rgb(204, 204, 204)" stroke-width="1px"></line><line x1="51.5625" y1="28.40985626923001" x2="46.5625" y2="28.40985626923001" style="visibility: inherit;" fill="rgb(0, 0, 0)" stroke="rgb(204, 204, 204)" stroke-width="1px"></line><line x1="51.5625" y1="9.504118736664886" x2="46.5625" y2="9.504118736664886" style="visibility: inherit;" fill="rgb(0, 0, 0)" stroke="rgb(204, 204, 204)" stroke-width="1px"></line></g><g transform="translate(41.5625, 0)"><text x="0" y="160.75001899718586" dx="0em" dy="0.3em" style="text-anchor: end; visibility: inherit; font-family: Roboto, sans-serif; font-size: 12px; font-weight: 200;" fill="rgb(50, 49, 63)" stroke="none" stroke-width="1px">-500</text><text x="0" y="141.84428146462074" dx="0em" dy="0.3em" style="text-anchor: end; visibility: hidden; font-family: Roboto, sans-serif; font-size: 12px; font-weight: 200;" fill="rgb(50, 49, 63)" stroke="none" stroke-width="1px">-400</text><text x="0" y="122.93854393205562" dx="0em" dy="0.3em" style="text-anchor: end; visibility: inherit; font-family: Roboto, sans-serif; font-size: 12px; font-weight: 200;" fill="rgb(50, 49, 63)" stroke="none" stroke-width="1px">-300</text><text x="0" y="104.03280639949052" dx="0em" dy="0.3em" style="text-anchor: end; visibility: hidden; font-family: Roboto, sans-serif; font-size: 12px; font-weight: 200;" fill="rgb(50, 49, 63)" stroke="none" stroke-width="1px">-200</text><text x="0" y="85.12706886692537" dx="0em" dy="0.3em" style="text-anchor: end; visibility: inherit; font-family: Roboto, sans-serif; font-size: 12px; font-weight: 200;" fill="rgb(50, 49, 63)" stroke="none" stroke-width="1px">-100</text><text x="0" y="66.22133133436026" dx="0em" dy="0.3em" style="text-anchor: end; visibility: hidden; font-family: Roboto, sans-serif; font-size: 12px; font-weight: 200;" fill="rgb(50, 49, 63)" stroke="none" stroke-width="1px">0</text><text x="0" y="47.31559380179513" dx="0em" dy="0.3em" style="text-anchor: end; visibility: inherit; font-family: Roboto, sans-serif; font-size: 12px; font-weight: 200;" fill="rgb(50, 49, 63)" stroke="none" stroke-width="1px">100</text><text x="0" y="28.40985626923001" dx="0em" dy="0.3em" style="text-anchor: end; visibility: hidden; font-family: Roboto, sans-serif; font-size: 12px; font-weight: 200;" fill="rgb(50, 49, 63)" stroke="none" stroke-width="1px">200</text><text x="0" y="9.504118736664886" dx="0em" dy="0.3em" style="text-anchor: end; visibility: inherit; font-family: Roboto, sans-serif; font-size: 12px; font-weight: 200;" fill="rgb(50, 49, 63)" stroke="none" stroke-width="1px">300</text></g><line x1="51.5625" y1="0" x2="51.5625" y2="178" fill="rgb(0, 0, 0)" stroke="rgb(204, 204, 204)" stroke-width="1px"></line></g></g><g transform="translate(51, 0)" clip-path="url(#clip_0)"><clipPath id="clip_0"><rect width="278" height="178"></rect></clipPath><g><g><g><line x1="18.142815542596633" y1="0" x2="18.142815542596633" y2="178" fill="rgb(0, 0, 0)" stroke="rgb(60, 60, 60)" stroke-width="1px" opacity="0.25"></line><line x1="42.674828191140136" y1="0" x2="42.674828191140136" y2="178" fill="rgb(0, 0, 0)" stroke="rgb(60, 60, 60)" stroke-width="1px" opacity="0.25"></line><line x1="67.20684083968364" y1="0" x2="67.20684083968364" y2="178" fill="rgb(0, 0, 0)" stroke="rgb(60, 60, 60)" stroke-width="1px" opacity="0.25"></line><line x1="91.73885348822714" y1="0" x2="91.73885348822714" y2="178" fill="rgb(0, 0, 0)" stroke="rgb(60, 60, 60)" stroke-width="1px" opacity="0.25"></line><line x1="116.27086613677065" y1="0" x2="116.27086613677065" y2="178" fill="rgb(0, 0, 0)" stroke="rgb(60, 60, 60)" stroke-width="1px" opacity="0.25"></line><line x1="140.80287878531416" y1="0" x2="140.80287878531416" y2="178" fill="rgb(0, 0, 0)" stroke="rgb(60, 60, 60)" stroke-width="1px" opacity="0.25"></line><line x1="165.33489143385765" y1="0" x2="165.33489143385765" y2="178" fill="rgb(0, 0, 0)" stroke="rgb(60, 60, 60)" stroke-width="1px" opacity="0.25"></line><line x1="189.86690408240113" y1="0" x2="189.86690408240113" y2="178" fill="rgb(0, 0, 0)" stroke="rgb(60, 60, 60)" stroke-width="1px" opacity="0.25"></line><line x1="214.39891673094465" y1="0" x2="214.39891673094465" y2="178" fill="rgb(0, 0, 0)" stroke="rgb(60, 60, 60)" stroke-width="1px" opacity="0.25"></line><line x1="238.93092937948816" y1="0" x2="238.93092937948816" y2="178" fill="rgb(0, 0, 0)" stroke="rgb(60, 60, 60)" stroke-width="1px" opacity="0.25"></line><line x1="263.46294202803165" y1="0" x2="263.46294202803165" y2="178" fill="rgb(0, 0, 0)" stroke="rgb(60, 60, 60)" stroke-width="1px" opacity="0.25"></line></g><g><line x1="0" y1="160.75001899718586" x2="278.4375" y2="160.75001899718586" fill="rgb(0, 0, 0)" stroke="rgb(60, 60, 60)" stroke-width="1px" opacity="0.25"></line><line x1="0" y1="141.84428146462074" x2="278.4375" y2="141.84428146462074" fill="rgb(0, 0, 0)" stroke="rgb(60, 60, 60)" stroke-width="1px" opacity="0.25"></line><line x1="0" y1="122.93854393205562" x2="278.4375" y2="122.93854393205562" fill="rgb(0, 0, 0)" stroke="rgb(60, 60, 60)" stroke-width="1px" opacity="0.25"></line><line x1="0" y1="104.03280639949052" x2="278.4375" y2="104.03280639949052" fill="rgb(0, 0, 0)" stroke="rgb(60, 60, 60)" stroke-width="1px" opacity="0.25"></line><line x1="0" y1="85.12706886692537" x2="278.4375" y2="85.12706886692537" fill="rgb(0, 0, 0)" stroke="rgb(60, 60, 60)" stroke-width="1px" opacity="0.25"></line><line x1="0" y1="66.22133133436026" x2="278.4375" y2="66.22133133436026" fill="rgb(0, 0, 0)" stroke="rgb(60, 60, 60)" stroke-width="1px" opacity="0.25"></line><line x1="0" y1="47.31559380179513" x2="278.4375" y2="47.31559380179513" fill="rgb(0, 0, 0)" stroke="rgb(60, 60, 60)" stroke-width="1px" opacity="0.25"></line><line x1="0" y1="28.40985626923001" x2="278.4375" y2="28.40985626923001" fill="rgb(0, 0, 0)" stroke="rgb(60, 60, 60)" stroke-width="1px" opacity="0.25"></line><line x1="0" y1="9.504118736664886" x2="278.4375" y2="9.504118736664886" fill="rgb(0, 0, 0)" stroke="rgb(60, 60, 60)" stroke-width="1px" opacity="0.25"></line></g></g></g><g><g><line x1="0" y1="66.22133133436026" x2="278.4375" y2="66.22133133436026" fill="rgb(0, 0, 0)" stroke="rgb(153, 153, 153)" stroke-width="1.5px"></line></g></g><g><g><line x1="18.142815542596633" y1="0" x2="18.142815542596633" y2="178" fill="rgb(0, 0, 0)" stroke="rgb(153, 153, 153)" stroke-width="1.5px"></line></g></g><g><g><g><g><g><path stroke="rgb(187, 187, 187)" stroke-width="2px" d="M18.348884448844398,96.49117511295765L18.363603656433522,84.78192578484227L18.49117012220595,75.84708752581825L18.60401738038925,93.7578542231539L18.962184765057984,90.92158972314363L19.266381721899926,163.56321674345617L19.290913734548468,94.47057248800576L19.39394818767235,83.69920190450209L19.48226343320711,120.9791276311189L19.653987521746913,140.07856127587982L19.663800326806328,132.27360378272618L19.703051547044,99.19905506964069L20.468450341678555,95.17987805029702L20.772647298520496,84.73090833363018L20.98362260729797,87.82565115636181L21.01796742500593,122.51718623010838L21.253474746431948,83.96151122384258L21.31725797931816,103.4183353122428L21.435011640031167,114.64440163416148L21.645986948808645,117.07944424276793L21.685238169046315,107.9831495255138L21.994341528417962,81.81247068701116L22.077750371423008,81.84563275149566L22.107188786601263,83.60144658301508L22.244568057433103,74.49846565159375L22.90693239894378,81.23267761961195L23.117907707721255,82.57259897741827L23.373040639266108,79.87187617631662L23.55948393539504,121.59882018213214L23.9323705276529,119.39375853171221L24.329789132559302,79.53306808563082L24.599641271693283,96.44533296892536L24.614360479282407,110.03570693175355L24.683050114698332,133.32725478360268L24.702675724817166,81.11205170987448L24.93818304624318,139.82532316803702L24.972527863951143,71.71304731859051L25.188409575258326,103.16508278046693L25.335601651149588,149.82131070953565L25.61526659534298,136.3784416556911L25.757552268704536,71.19121285958728L25.836054709179873,109.86005515980831L25.914557149655213,99.47131546039518L26.439542220334044,130.7093051647248L26.650517529111518,72.12231596164688L26.665236736700646,103.85074174690945L27.190221807379473,86.72256068254936L27.298162663033064,83.47285866223179L27.352133090859862,114.02422155421101L27.548389192048212,66.3049392510004L27.631798035053258,87.73093495756929L27.69558126793947,96.5079818797522L28.132251093083546,92.97305091047127L28.42663524486607,126.60034781647968L28.87311787506956,85.39143792390598L28.931994705426064,94.61129237888078L29.08899958637674,107.06734805283457L29.118438001554996,88.63910761205625L29.241098064797715,73.28005294822779L29.461886178634604,93.3185935355L29.864211186070715,128.55542539835378L30.094812104967026,97.06368697895118L30.178220947972072,71.47356351270969L30.18803375303149,133.43114748860415L30.212565765680033,87.23724844332266L30.335225828922752,72.37725609359006L30.34013223145246,96.13602037894174L30.399009061808965,171.467762839988L30.42354107445751,129.31884955746372L30.56582674781906,162.74250649182886L30.63942278576469,106.99317153471095L30.668861200942942,86.01036167928747L31.316506334864492,107.39144805898519L31.586358473998473,114.46412554927913L32.700111848242344,113.02558054921595L33.048466427851665,75.50337962507403L33.06318563544079,115.71159382338911L33.347756982163894,110.22284880876964L33.651953939005836,108.46181351348467L33.99049571355573,90.45657366062845L34.05918534897165,87.38112284835658L34.06899815403107,127.87017318682341L34.073904556560784,79.70872274236268L34.35847590328389,69.55127549724898L35.21709634598291,92.81079320276001L35.89417989508271,77.29210959301936L35.903992700142126,120.05727099134357L36.149312826627565,74.91115456977553L36.497667406236886,107.77403134409663L36.75280033778173,73.01600049657772L36.85583479090561,90.16051810751478L36.89017960861357,68.55387945797563L37.4151646792924,111.21949354143003L37.552543950124246,108.79150135130041L37.689923220956096,91.60781122297523L37.945056152500946,68.98455123439334L38.24925310934289,111.30318985536931L38.73008055725434,95.63724942829356L38.88217903567531,83.93382304195207L38.90671104832385,117.9046547615081L39.32375526334909,78.41586667811161L39.3335680684085,152.60795687984012L39.73098667331491,73.99188558359012L40.18237570604811,92.72776327452785L40.265784549053166,82.38913087615104L40.36881900217704,99.9446829801486L41.02627694115801,138.47508725570378L41.045902551276846,89.93889870331968L41.08515377151451,79.99692302153512L41.63467085484189,68.03467358047233L41.703360490257815,77.98109616081743L41.88980378638674,85.24510423828633L41.948680616743246,122.54326470107004L42.15474952299101,107.44342325935203L42.53254251777858,84.99793716386596L42.920148317625575,71.95010069175174L42.929961122684986,83.29743911560871L43.194906859289254,85.29679817195864L43.3322861301211,102.4916149222417L43.84745839574052,84.43703223680099L44.367537063889635,105.4780527588506L44.43622669930556,129.14790287248073L44.735517253617786,82.60022369400332L45.36844317995021,122.90604969567154L46.00627550881234,77.1787857993905L46.22215722011952,68.94829505596961L46.63920143514476,95.81067126018864L46.73732948573894,136.41586887717963L46.91395997680845,75.8224088975595L46.94830479451641,113.57285630193816L47.12493528558593,76.32494593712808L47.2279697387098,106.6963183380994L47.53216669555175,89.48723776041923L47.63029474614592,73.58021283149199L48.17490542694359,124.14630600325448L48.223969452240674,81.49114296079352L48.562511226790576,62.62347559653287L48.626294459676785,76.32239867055074L48.65573287485504,73.93796820063754L48.719516107741256,103.03639533454559L48.99918105193464,65.9901745326437L49.11202831011795,92.78421854850127L49.4260380720193,65.36619935814494L50.132560036297356,62.99962292271561L50.397505772901624,98.15660857996058L50.53979144626318,161.1271817682556L50.80473718286745,89.07371369651364L50.99608688152609,82.89304107414637L51.01080608911521,73.16521464162824L51.069682919471724,117.17311326402074L51.22178139789269,71.5565285332431L51.771298481220065,97.26725483092919L52.320815564547445,86.15966957990285L52.44838203031986,72.40488225256844L52.55632288597346,122.49384830642695L53.007711918706654,80.41055959211857L53.04696313894433,76.93769913394904L53.24812564266239,89.14526650121468L53.699514675395584,78.42419938423691L54.01352443729694,69.5157926219361L54.24903175872296,142.856322303423L54.36187901690626,79.20587703062674L54.45510066497072,83.9170321414839L54.69551438892645,124.40330010326458L54.74457841422353,82.27940657501581L54.759297621812664,116.87705338372714L54.8328936597583,76.54031328754091L54.994804943238684,94.88224019172733L55.85833178846741,140.0198674074964L55.887770203645665,123.51295687242569L56.21649917313614,87.06654119562832L56.35387844396799,90.86354204696103L56.40294246926508,73.23170969420394L56.57466655780488,78.61871910301014L57.34987815749886,111.54915830095288L57.521602246038654,81.18480602819896L57.71785834722701,76.19116035206878L58.2771882356138,77.32300133044116L58.47835073933185,78.70170720183644L59.03277422518894,108.89083320867023L59.175059898550494,77.06762775930969L59.199591911199036,67.52283914410586L59.243749533966415,81.99463197994369L59.6853257616402,115.35861133369113L59.700044969229324,72.59704582187727L59.83742424006117,101.62059976169519L59.88648826535826,82.85639274504273L60.17105961208136,67.57476413115577L60.34278370062116,79.21392991245081L60.50960138663126,74.86254158820358L60.80398553841378,106.86220222258045L61.41237945209766,78.14574679902236L61.70185720135048,116.73850285238345L61.829423667122896,88.61959780020739L61.84414287471203,84.29583491374187L61.9471773278359,79.59393852551209L61.98152214554387,73.29276764521491L62.266093492266975,105.49037079767872L62.29553190744523,89.87616180650122L62.57029044910891,114.96114543445454L63.5761029676992,75.54621077308127L63.850861509362886,67.47919304388105L64.00786639031357,117.86232917235435L64.43472341039822,76.0503849290515L64.5966346938786,84.17361083222201L64.9842404937256,90.35827455686531L65.01858531143355,85.66543495620014L65.08236854431976,96.58150932088834L65.37675269610229,64.04851979525749L65.52394477199354,61.11408636747987L65.63679203017685,108.20681568580927L65.72510727571161,70.29382678283645L66.43653564251937,70.72168138482957L66.75054540442073,103.58090169212144L67.49141218640675,63.57816128823829L67.61897865217917,62.49902265675785L68.56100793788323,119.13689713188623L68.59535275559121,78.87249810834248L69.14977624144828,67.9538427611334L69.1644954490374,80.7796247671718L69.26752990216129,75.16296470824601L69.55700765141411,81.25290430093361L69.6060716767112,105.11248394516967L69.76798296019157,72.30183262645394L70.18502717521682,79.97399473755247L70.33712565363778,91.1365553670209L70.41562809411313,72.51034644507617L70.49903693711818,72.508340797185L70.69529303830652,77.6190085633791L70.92098755467312,65.31813394513154L70.92589395720283,61.8189983997629L71.03383481285641,82.34884627352447L71.20555890139622,77.1521923940188L71.33312536716865,63.326362688914244L71.37728298993603,66.64161941152197L71.63241592148088,59.29248497730108L71.64713512907001,76.5687060785611L71.8139528150801,73.35389843708782L71.83357842519895,83.80508799705164L71.94642568338224,75.36107382275972L71.97586409856049,83.72847383424191L71.9856769036199,78.26515605000674L72.2113714199865,74.55510555191029L72.61369642742262,70.18882956516134L72.7069180754871,88.7353224574931L72.75107569825447,79.90624263921111L73.08471107027465,69.6632329838193L73.09452387533408,79.19614376060188L73.3889080271166,87.80492107977658L74.16902602934027,73.59103655085573L74.42906536341484,90.84475631655147L74.52719341400902,88.1294018777598L74.67929189242999,89.33309351505085L74.72344951519736,72.23252923411265L74.80685835820242,77.77370236059686L74.89026720120746,65.61086099539384L75.29259220864357,77.59371908155549L75.40543946682688,66.15294760297552L75.4741291022428,73.66264488769906L75.83720288944124,76.42457853350206L76.39653277782804,61.982986258244L76.86754742068007,90.79399849613436L76.89207943332862,70.95127145443033L77.06870992439812,71.84739687943222L77.2208084028191,99.45266819974294L77.69672944820084,67.34976664183942L77.82429591397326,86.55029565008522L77.8439215240921,77.74423859254742L77.92242396456744,74.24523908289737L78.12849287081521,70.63477286099916L78.44250263271657,78.48934507787541L78.45722184030569,68.35265928140133L78.53572428078103,70.05689312831956L79.00673892363307,83.11274930721181L79.26677825770763,82.67798023231094L79.73288649802996,64.11327478060937L80.31184199653558,61.79640727521535L80.44922126736742,62.32854547079573L80.96929993551655,75.65021237877733L81.32256091765557,89.02557093515921L81.6267578744975,71.22613608629769L82.0094572718148,69.55685142916933L82.09286611481983,81.84432738555428L82.22533898312197,72.94571267080548L82.32837343624584,79.59241535818158L82.38725026660235,73.64766635441912L82.46084630454799,66.7839658262228L82.48047191466682,68.84209866856023L82.56388075767187,88.61003184780597L82.74051124874138,58.51845922739642L82.93676734992974,69.17225402210606L83.09867863341012,75.2670009313814L83.63838291167808,90.2579243698219L83.89842224575264,59.31167529903281L83.91804785587146,69.83403651126676L84.01617590646563,75.86867294163359L84.39887530378293,64.67253447781039L84.60494421003068,83.44406993424927L84.85517073904583,75.01152350793194L84.96801799722913,59.28609805974475L85.25749574648195,70.241692919206L85.27221495407106,65.94474869937918L85.73341679186369,67.27420154971063L85.90023447787378,61.32127931443269L86.0719585664136,41.328611522050494L86.26330826507223,70.86658854347016L86.71469729780543,69.94389675797103L86.82263815345901,68.90501514334521L87.22496316089513,77.28534621081033L87.91676591758406,77.19722896139002L88.24058848454483,64.06061768880738L88.27493330225279,68.8688904030114L88.31909092502018,63.75540996987177L88.40249976802522,71.9253048690369L88.46137659838173,78.7509562788561L88.49081501355998,64.0181255032269L88.78029276281278,63.38512831636462L89.02561288929823,61.81778101981314L89.25621380819453,74.8295865071584L89.43284429926405,68.87585157340243L89.56531716756618,64.22876342629048L89.93329735729434,71.80604382396469L89.96273577247258,71.98816004210641L90.10992784836385,94.76802860501898L90.15408547113122,67.57646309017038L90.20314949642832,74.01825181201622L90.65453852916151,57.794276099356594L90.65944493169121,76.54941190451139L90.6986961519289,69.91885681018925L90.71832176204772,77.090781056648L90.80173060505278,76.48612978302349L91.11574036695413,75.62432286133867L91.2089620150186,70.70446497833628L91.87132635652927,71.56483347329728L92.18042971590091,64.89208017118023L92.40612423226752,67.35337199405586L92.6220059435747,78.23331016941341L93.04395656112966,65.95769217346698L93.32852790785276,65.24698717414593L93.44137516603607,134.53659771786425L94.05958188477935,60.90085303796237L94.06939468983877,68.36680284925662L94.22639957078944,57.86263544527951L94.37849804921042,70.28714633824248L94.66797579846323,68.07607315312397L95.36959136021157,69.40410738710216L95.4873450209246,72.9328659948309L95.53150264369197,68.86213585546137L95.78663557523682,81.82343720331214L95.80135478282594,64.91511933914825L96.54222156481197,58.13613845786657L96.61091120022789,76.02507958090152L97.11136425825816,72.55609771833021L97.21439871138205,76.27902157667738L97.86695024783332,75.86818757628633L98.22021122997232,62.819207286280935L98.32815208562593,75.81450313985259L98.41156092863096,72.9850849596664L98.63725544499758,77.44721447232916L98.80407313100767,91.68801982990203L99.12298929543874,71.42225614044324L99.51550149781544,77.35219392854918L99.54003351046397,71.93598543086507L99.88838809007329,72.3653152406113L100.0650185811428,65.87268346191897L100.60962926194047,65.97088051635575L100.61453566447018,71.57281784143935L100.78135335048027,68.60986559352646L100.8500429858962,66.87962787442534L101.05611189214396,69.50196620030883L101.87548111460531,80.90956853766214L102.02757959302629,75.2035615890232L102.19439727903638,66.94358909271132L102.54275185864569,62.62554579152445L102.72428875224492,71.52465416538202L102.88620003572531,68.82225205787454L102.97451528126005,72.1048968988942L102.98432808631947,70.50046080238342L103.10208174703249,65.503743414485L103.1069881495622,70.54344087749945L103.12170735715132,62.168256990544656L103.2149290052158,73.35539708373211L103.3866530937556,80.1338869202429L103.53875157217655,43.01665161932899L103.7301012708352,64.60385618266781L103.77916529613229,72.503055868114L104.21583512127637,74.71703367275127L104.28452475669229,39.040439169373315L104.42681043005383,53.98960964880233L104.46606165029151,80.7297785393237L104.60834732365306,36.168654291824204L105.09408117409421,82.35318931976705L106.22746015845694,64.2460158926164L106.36483942928878,87.5296605109469L106.40899705205615,63.53249349349678L106.546376322888,69.81659437022118L106.71810041142781,79.8383059145267L106.7769772417843,60.2474737518998L107.09098700368567,64.91259659325709L107.75335134519634,69.4167185923696L108.01829708180061,65.74736323809428L108.67084861825187,68.5036809255627L108.67575502078158,52.5118575139117L109.3626513749408,70.36146781689327L109.95632608103554,59.23044187166251L109.9906708987435,70.35853867668833L110.60397121495708,63.88179373338524L111.15839470081417,69.41990880576283L111.25161634887864,64.74419113482946L111.38899561971049,70.31323310296567L111.49693647536407,65.74592584809066L111.59997092848795,67.25481452159188L111.93360630050815,79.71709872028715L112.19364563458271,78.77143682139948L112.47821698130582,70.85168934182202L112.69409869261301,69.0247444253442L112.83638436597455,61.641902431520606L113.74406883397066,65.70626269160476L113.83238407950542,73.41579586100252L113.940324935159,72.53450725413829L113.96976335033726,44.41418937771959L114.20527067176327,66.0764362106888L114.50456122607551,75.59946465511337L114.57325086149143,73.03513023779063L114.62722128931823,68.79757216752161L114.8970734284522,38.68152555840352L114.951043856279,68.97910565876796L114.98048227145726,66.2222991592274L115.26996002071006,72.70340501943099L115.40243288901219,67.03049585862489L115.5152801471955,76.80914078222851L115.8587283242751,69.86840297416127L115.96666917992869,77.91038643500336L116.12858046340908,74.6062456065533L116.21198930641414,64.79839681614395L116.2463341241221,65.22523011352725L116.44259022531044,64.69984727684316L116.53090547084521,68.28586709580473L116.56034388602346,73.5050374560044L116.57506309361258,60.66853215723618L116.94794968587044,75.13155226684097L116.95285608840014,69.06639443353349L117.18345700729645,60.75657440220462L117.33555548571744,72.05502398676995L117.46802835401957,72.6659172174236L117.48274756160869,68.78649476723531L117.50727957425723,68.437273137782L117.85563415386656,75.87230272438664L117.90960458169334,62.11428407544982L118.15001830564908,76.66972265131162L118.42968324984247,44.23490998661126L118.65047136367936,66.45516163460577L118.85163386739742,65.51513232665049L118.91541710028363,56.35454112481644L118.92032350281333,73.55992773324147L119.02826435846693,66.11750751490779L119.10676679894227,72.36197249412602L119.65137747973993,67.50818019109265L119.75441193286382,77.89253465425904L120.09295370741371,67.3690458510586L120.10767291500285,62.717636473902814L120.11257931753255,76.92526426126315L120.34808663895856,53.89967498381721L120.46584029967158,72.68261868950685L121.11348543359313,73.95185989056188L121.50599763596982,64.58841337904269L121.56978086885603,49.13382576121252L121.8837906307574,61.22363361483687L122.20270679518845,58.57854139933629L122.31555405337177,70.33623098242532L122.72769186586729,64.38814391995582L122.74241107345642,75.58854213180821L122.76694308610496,62.57439095235003L123.09567205559544,75.48349479096574L123.1839873011302,66.00339954387478L123.55196749085835,77.57080810629249L123.74331718951699,76.78517397506594L124.51852878921096,62.93529506608128L124.72459769545874,66.65116742415665L124.72950409798844,75.32632873162252L125.0484202624195,79.48265932439364L125.07785867759775,81.63870123832946L125.20542514337018,74.96124095610898L125.30845959649406,110.9371219736047L125.33789801167231,85.43221005546978L125.92175991270766,82.11124947868544L126.1131096113663,79.58153682787226L127.16307975272395,93.77653033167225L127.28573981596666,60.7503681444098L127.34952304885289,77.50083616465412L127.51634073486298,97.98483973079345L127.634094395576,87.64621021720329L127.70278403099192,72.63517693129887L127.84016330182375,83.73394050486938L128.39949319021053,70.283832079025L128.57121727875037,76.28156091009154L128.75275417234957,59.71747678918129L129.19923680255306,67.6716934120267L129.80272431370724,90.48617157125531L129.8370691314152,92.45420761458512L130.20504932114335,80.88445647021508L130.64662554881713,95.6222543074906L130.66134475640627,116.84263787946026L131.38258592827344,82.84129232952847L131.40221153839227,74.69470542438364L131.61318684716974,64.11091754935002L131.66715727499653,95.91993255307285L131.71622130029363,105.78738265755388L131.88303898630372,72.49701007657441L131.93210301160082,82.60612452501572L132.05966947737323,69.44214510155723L132.28045759121014,80.77902617395003L132.39330484939342,70.29417476022138L132.64353137840857,73.69413738193256L132.7612850391216,63.34426080654351L132.85450668718605,72.2279907435772L133.08510760608235,72.75146195838373L133.63953109193943,57.88787732812403L133.87994481589516,82.12002067237557L134.27736342080158,83.12282009727014L134.33133384862836,48.769308452251245L134.42946189922253,88.56581960820878L134.78762928389128,36.8886999146675L135.06729422808468,23.664639040465776L135.5922792987635,75.9162026858332L136.28408205545242,111.75649656903121L136.47543175411107,71.07545358486225L136.61771742747263,81.72420342868709L136.80906712613125,62.062043474714756L137.04457444755727,90.20432070741323L137.28008176898328,73.12744052454974L137.2898945740427,91.81686593908698L137.47633787017165,72.61443747915715L137.58918512835496,27.60014282416309L137.93753970796425,57.218370281915426L138.62934246465318,40.074138986049476L138.94335222655454,63.27339584314993L139.16904674292113,108.6923310419808L139.3162388188124,101.22383775039165L139.424179674466,86.59372899729748L139.46343089470366,97.97099563984821L140.0620120033281,63.553013882155255L140.2092040792194,64.02470065310956L140.31714493487297,69.74335973492602L140.47905621835338,74.04155367586499L140.8421300055518,54.70157570554541L141.03347970421044,70.68670478956687L141.45543032176542,68.45539825205768L141.81359770643414,69.4374713866494L141.93625776967684,64.71941721846292L142.00004100256308,67.40779205107538L142.04419862533047,65.05091877571064L142.43180442517743,80.89247906177974L142.72128217443026,71.50131732349558L143.28061206281703,65.56356460338618L143.35420810076266,67.12845753250416L143.74181390060966,64.73639716260371L144.16867092069432,57.900558850065124L144.6053407458384,77.86453130943131L144.78687763943762,70.42428801192513L144.95860172797742,58.90080235402252L145.32167551517585,75.50513429653004L145.8515669883844,73.85654437735094L145.93006942885972,72.74890315265993L146.0331038819836,60.87954924943993L146.07726150475102,72.7980029419725L146.15576394522634,61.68986092713024L146.46486730459796,69.33421513769392L146.46977370712767,57.62656686614755L146.5384633425436,67.90748676448608L147.1419508536978,59.91037381548592L147.19592128152456,68.84508117731747L147.68656153449544,70.89380722633975L148.01529050398594,61.83020291095925L148.9965710099277,42.25570837670433L149.41852162748262,65.95700769023138L149.61968413120067,63.219455201605314L149.62459053373038,67.16700756703139L149.76687620709194,67.44570743254823L149.77668901215137,72.20763316506307L150.26242286259253,70.70275646346605L150.99838324204882,58.09955431526501L151.31239300395018,60.025337610303026L151.34183141912843,69.14816010403347L151.3712698343067,78.43566496862157L151.39089544442552,82.18016991560415L151.39580184695524,71.94071684150512L151.76378203668338,71.93857632983992L151.96003813787175,81.68162397831162L152.22989027700572,69.12333038507596L152.81865858057077,66.35166856269944L152.85790980080841,62.303468741984666L153.09341712223446,65.78737545376009L153.42214609172493,65.6018714143423L153.57424457014588,61.78744676740388L153.62330859544298,67.69070884357014L153.65765341315094,63.13832021757812L153.7459686586857,60.7113982832811L154.02563360287908,40.55846869492398L154.24151531418627,73.32912677446083L154.6634659317412,58.55425005368001L155.10994856194472,69.00362706615647L155.11976136700412,57.940423716239835L155.2767662479548,67.72592388447613L155.36508149348955,78.69728915114199L156.75359340939713,67.0712516731144L156.88115987516954,47.561247805638146L157.09704158647673,66.55046916957872L157.3668937256107,62.92471907776774L157.67109068245264,64.32041111362493L157.73487391533888,60.22848031685426L158.18626294807208,67.80279912047413L158.3285486214336,40.87626544232998L158.51989832009227,73.88202209150091L159.8936910284107,69.80012620525508L160.2812968282577,62.66982402061536L160.40886329403008,62.01014436059476L160.5168041496837,47.373811680387774L160.6100257977482,64.49726457949275L160.73268586099087,60.00288171012788L160.81118830146625,47.50526130948898L160.8700651318227,61.28522236658423L160.9485675722981,65.12264079117634L161.08104044060022,64.28769366687683L161.4146758126204,58.79775489149797L161.71887276946234,66.2432116379085L162.73940449564174,71.00617651619878L162.7737493133497,41.74650171049156L162.81790693611708,51.43717641864244L163.06322706260252,69.6770586842499L163.07794627019166,57.06496886909931L163.1809807233155,59.338516796053035L163.239857553672,51.55473580021263L163.3330792017365,65.38490115929405L163.42630084980095,58.82706143867714L164.09357159384135,58.37467713553404L164.49099019874774,67.83111384195668L164.49589660127745,61.986269866603756L164.66271428728757,69.04576189879553L164.98163045171862,92.81403858769717L165.33489143385765,48.424624051239235L165.35942344650618,47.16057690847697L165.4869899122786,67.63028338202359L165.71268442864522,77.67180232194677L165.78628046659085,62.78301872004338L166.18860547402696,78.92068269910274L166.39958078280443,72.29507645621145L166.52714724857685,65.75560705673215L166.7283097522949,67.00217374487667L166.93928506107238,57.87461235809091L167.58693019499393,63.762552521220954L167.62127501270191,67.87666336044713L167.64090062282074,73.81250522495041L168.14135368085104,64.6644552723085L168.33760978203935,61.98973197113504L168.79881161983198,71.28186800002847L168.86750125524793,58.4227838370558L168.95581650078267,75.79628427001205L169.16188540703044,60.61964584213285L170.4964268951112,63.291854150279164L170.75646622918575,61.35107735713065L171.3403281302211,75.12554037154406L172.23329339062806,66.26274566337155L172.4148302842273,62.3827214027483L172.87603212201992,49.39031790835233L173.6561501242436,58.89540996665027L173.78371659001604,71.62382880188153L173.97997269120438,60.46590438509498L174.20566720757097,87.09928640844755L174.52458337200204,44.016447981361694L174.55892818971,74.98156427778207L174.59817940994768,69.73106585618575L174.8336867313737,61.594982098492544L174.87784435414105,66.95888206773186L175.16732210339387,55.46558547633735L175.2311053362801,47.227006332157266L175.94253370308786,70.80644470921649L176.00141053344439,56.28766888639139L176.16332181692474,60.11450852803295L176.3693907231725,24.747818717090464L176.68830688760357,89.41231552495674L177.051380674802,80.70312455343317L177.28198159369833,75.33859772907829L177.6008977581294,67.52770262388293L177.74318343149096,72.43168552616606L177.80696666437717,62.09174451646295L177.82168587196628,65.68110433234757L178.14550843892707,58.605554541159854L178.16022764651618,59.13414769459387L178.37120295529365,75.35149921599844L178.61161667924938,68.63705741182075L178.88637522091307,65.1780487073109L179.53402035483464,65.27700301823302L179.56836517254257,79.33700933320074L179.5732715750723,58.69322032147558L179.60761639278024,71.52320419951174L180.06391182804316,68.99302998284082L180.12278865839968,59.42290401638557L180.1865718912859,100.13781655895531L180.22091670899383,77.79150365757546L180.78024659738062,64.68484566527032L180.79987220749948,68.11505166861251L180.9323450758016,67.22178281340236L180.942157880861,78.11748670818629L181.2708868503515,71.70608055892544L181.3837341085348,64.94421854228976L181.72718228561442,67.38787900014808L181.7762463109115,61.441490536094825L181.85965515391655,71.59108178607067L181.8939999716245,61.845036844310336L181.90871917921365,72.0437019205192L182.03137924245635,83.15967613100977L182.69864998649675,68.39702441468889L183.15003901922995,65.03839321254569L183.18438383693788,63.73287708195395L183.6259600646117,71.41313300278658L183.67011768737908,63.14802067315527L183.72899451773554,58.932709536331316L183.82221616580003,80.99830313141716L183.90562500880506,78.42514270945864L184.17057074540935,65.52809610693154L184.22944757576585,74.74473627857482L184.35210763900858,72.38493323195807L184.49929971489982,71.03097558429855L184.5336445326078,70.18618385524091L184.8182158793309,73.12695948638238L185.04391039569748,59.9575198830663L185.13713204376197,66.33015936835534L185.17147686146993,65.5669506667454L185.39717137783654,66.30467376048264L185.65230430938138,72.54796478367771L185.66702351697052,68.21182363846354L185.8387476055103,75.79407380227153L186.4618607267833,66.44474230372764L186.47657993437244,69.70587085112363L186.7317128659173,57.22926251496118L186.736619268447,75.75246940977051L186.8396537215709,61.04868681261965L187.10950586070487,72.3189668165288L187.5363628807895,71.38932594068257L187.54126928331922,62.21763732535508L187.72771257944817,78.4211242017098L187.80130861739377,72.92915255326616L187.89943666798797,61.15840931076324L187.94359429075533,77.33964510679219L188.13494398941398,59.31126926531732L188.3753577133697,68.55978407527046L188.64520985250368,65.10531539383894L188.80221473345435,26.46260799821764L189.2683229737767,64.45959034815063L190.01409615829243,76.19238854996831L190.25450988224813,55.7383997461211L190.43114037331765,59.369624892470625L190.7353373301596,70.25805290467419L191.11313032494715,76.38022349696764L191.12784953253626,74.11298820431503L191.50073612479414,77.66251475145329L191.60377057791803,67.8123286524446L191.6430217981557,66.60012085462974L191.7068050310419,63.648366897592126L191.7166178361013,65.18794442688176L191.74605625127958,70.02827784813202L192.22688369919103,67.28811090895294L192.23669650425043,9.30254715702157L192.66355352433513,62.253541379513145L192.67827273192424,70.41462794336053L192.81074560022637,75.29588629971538L193.64974043280657,65.70084821758503L193.6840852505145,62.37426429020041L194.00790781747529,69.58841820665805L194.03243983012382,19.603447988922355L194.54270569321355,59.83959701838316L194.62611453621858,66.29841902475032L194.95484350570905,19.108072432115083L195.05297155630325,87.29848380871019L195.2541340600213,19.308097766135006L195.5779566269821,22.086352092188644L195.83308955852695,59.72843392992577L195.90668559647256,65.71925815946373L195.9802816344182,57.972485955828965L196.05878407489354,58.23596649853343L196.12256730777975,25.72443437631206L196.29429139631955,27.759383045079485L196.387513044384,15.701459656069352L196.42185786209197,19.043603220936845L197.5650496515141,58.30602354137682L197.8594338032966,68.96235514531234L198.00662587918788,29.69581336630133L198.09984752725234,32.95619342425879L198.53651735239643,14.720297573149143L198.72786705105506,68.38954704779368L198.7474926611739,14.209788425781609L198.79165028394127,73.79320383893418L198.82108869911954,70.38196747114797L198.94374876236225,13.095441514613794L199.22341370655565,7.1142461168104205L199.4343890153331,73.96476065628539L199.9397484758931,19.879152814890112L200.5088911693393,67.52482694237987L200.67080245281971,64.03898737850041L201.20560032855795,63.74939537008741L201.2350387437362,56.35390791415538L201.27919636650358,69.34359393956397L201.91212229283602,60.156836280776616L202.0789399788461,66.30589312935754L202.43220096098514,58.93840049911777L203.33497902645152,65.98583896881641L203.428200674516,17.582577078815653L203.63917598329348,67.7202602370129L203.97771775784338,18.277986624002676L205.03259430173074,67.67606774017406L205.5281409572313,72.86117976874908L205.79799309636527,64.70995061090042L205.87158913431094,50.89425380891591L206.21013090886083,57.23577780552168L206.37694859487092,66.5670104683929L206.74002238206938,61.543550680401815L206.8185248225447,63.92375493793017L206.87249525037151,64.08957481620831L207.03931293638158,74.69075398792349L207.43182513875828,73.45694589961234L207.73111569307054,63.6909888985701L207.73602209560025,70.44965249820062L208.02059344232333,71.87068143456133L208.11872149291753,66.0891930976801L208.32969680169498,70.66617123906948L208.35422881434351,62.3254125925364L208.70748979648258,64.7034730930146L209.39929255317148,70.43544925132234L209.51213981135479,69.06728330840794L209.5170462138845,70.06036965678392L209.5317654214736,65.85741593161785L210.1843169579249,66.83302220851179L210.65533160077692,61.03842382365338L210.94480935002971,68.09973976217985L210.99877977785653,65.04894972854959L212.1812227875163,71.14664759422861L212.39219809629378,74.18015469097438L212.59336060001183,70.14525522400346L212.93680877709147,69.80609194396624L213.07418804792331,75.13976525432192L213.32441457693844,65.62454367351324L213.8003356223202,70.16508993494439L213.83958684255785,66.80293519133004L213.95243410074116,61.552408417690295L213.9769661133897,62.824605082628075L214.06037495639475,66.84077353998543L214.31060148540988,71.635286453103L214.49704478153882,72.34579316841933L215.4979508975994,72.39675652988244L215.85121187973843,60.360304968214855L216.3663841453578,53.41142917711855L216.7932411654425,68.32596689178905L216.852117995799,64.03429130649636L217.00912287674967,69.43812190603015L217.14650214758151,57.725330420555025L217.57335916766618,55.85475833526451L217.62242319296325,61.515237581611764L217.65186160814153,64.99173882078328L217.67148721826035,58.51732478506173L217.8235856966813,33.13463478485669L217.83339850174076,59.99522620765946L217.90208813715668,65.19076277325094L217.9315265523349,62.38461057738005L218.28969393700365,56.0035693313862L219.5015753618417,69.13400842271584L219.53592017954963,61.998802822034385L219.93333878445605,68.74929003491408L220.0118412249314,18.867443726548093L220.06090525022847,74.25860862644515L220.50248147790228,57.60749914784677L220.6349543462044,72.43651321655925L220.97840252328402,60.329355535060856L221.3120378953042,63.86456218176225L221.39054033577952,59.532921844558444L221.7143629027403,64.48149164809983L221.94987022416635,61.951402532633935L222.02837266464167,60.72381692904228L222.17065833800322,57.969648768197246L222.29331840124595,59.81531432708671L222.3865400493104,69.9952207177605L222.41597846448866,66.50319716303288L223.09306201358845,56.31002237664187L223.13231323382615,58.42526691713106L223.4463229957275,63.800017966132124L223.57879586402964,63.35110568397429L224.24116020554033,60.659724903713396L224.27550502324826,39.275041555710324L224.363820268783,62.59674516379716L224.86917972934302,72.98600520659524L224.98693339005604,18.22059956395395L225.01637180523426,70.18293017654226L225.0359974153531,70.79490412037997L225.10468705076903,67.78377539516919L225.40888400761096,19.595211923148497L225.74251937963115,67.10406242467946L225.87499224793328,69.5977627516871L226.19881481489406,81.39733402739012L226.26259804778027,19.42306516693539L226.41960292873097,64.92211440578195L226.5079181742657,58.12538036739822L226.5569821995628,63.99161016739286L226.6600166526867,59.28371594720088L227.19481452842493,39.61124612647987L227.53826270550456,70.5772440858082L227.82283405222765,63.89795520947478L228.01909015341602,42.32073435169846L228.15156302171815,54.126718508037285L228.28894229255,70.6064911342635L228.5931392493919,37.85989794463399L228.77958254552084,60.592136877610535L228.94149382900125,56.557156276016215L229.02490267200628,59.51596074168023L229.21625237066493,67.75603745070967L230.40360178285442,64.1778038511098L230.48210422332977,58.412876758637644L231.18862618760784,61.59662137848413L231.44375911915267,43.41151544104261L231.65964083045986,67.48864044958268L231.83136491899967,71.26281218147247L231.97855699489094,74.86275938959268L232.09631065560396,61.44224995617014L232.21406431631692,63.73316916659828L232.25331553655462,65.09678931686112L232.3072859643814,72.13604790651263L232.31219236691112,60.728784892184414L232.60657651869363,64.05771018450203L232.73904938699576,64.15614847921915L232.7586749971146,72.04431241348571L232.83227103506024,66.18915710363623L232.95983750083266,66.87405342997306L233.01380792865945,73.41115207575578L233.06777835648626,72.07643090641375L233.22968963996664,76.62876517220808L233.64673385499188,42.949651007899746L233.90677318906646,60.93336530426279L233.92639879918528,56.77901944467993L233.9901820320715,61.81479959285087L234.3826942344482,58.630396159862144L234.40231984456702,65.25353230421793L234.53479271286915,67.43072574403293L234.57895033563653,66.48122978344034L235.0058073557212,64.18993473940655L235.04015217342914,68.4807973557725L235.25603388473633,63.9709257064959L235.51607321881087,34.98423014430673L235.6877973073507,67.7240336280494L235.70742291746953,60.14651739906977L236.00671347178178,62.94181432322338L236.48263451716352,85.80932955474036L236.66907781329246,65.67377305284933L236.89477232965905,59.13900783883643L236.89967873218873,75.4815728018863L236.91439793977787,17.4499403600241L237.1891564814416,106.50173082684083L237.6012942939371,91.15667963841788L237.7190479546501,78.61861092351224L237.95946167860583,100.07703987463891L238.02815131402173,106.38000725579795L238.75429888841862,114.50669057572154L238.90149096430991,109.27521083105357L239.1909687135627,91.58065672660773L239.44119524257786,143.6197060755204L240.45191416369784,65.96603659903788L240.49607178646522,126.07007788082815L240.5941998370594,67.13278020494128L240.74629831548035,17.828857081353206L240.7561111205398,44.30804798155497L241.41847546205048,63.23301045329115L241.59510595311997,64.98091924830031L241.81098766442716,71.49299832010666L242.10046541367998,58.01378600334254L242.15934224403648,82.13640914511156L242.68432731471532,105.25341154068066L242.71376572989354,65.20416630319097L242.89530262349277,79.42368418931567L243.04740110191375,75.33971486269333L243.21912519045355,23.265436499689507L243.95508556990987,62.60491776426556L243.99924319267726,59.310967083919856L244.1317160609794,67.648775044498L244.27890813687063,58.74450389425249L244.44572582288072,102.31817866641354L244.66651393671762,65.32037055625072L244.70576515695527,69.98272995233404L244.8431444277871,66.01722704729703L245.39756791364422,55.177059937474525L245.47607035411954,63.7231438119291L245.58891761230285,62.84422018918824L245.7802673109615,69.14762786090377L245.86367615396654,69.92418392926443L246.0206810349172,64.11260803430396L246.2856267715215,63.01502696202064L246.32978439428888,62.21168528938034L246.49660208029894,62.36424939288267L247.00196154085896,61.81074394347439L247.06083837121545,62.44209572017353L247.2521880698741,70.86520168230703L247.50732100141897,59.62259038797872L247.66432588236964,58.93876326103408" style="fill: none;" fill="none"></path></g></g></g></g></g><g><g opacity="0.0100397"><span fill="rgb(0, 0, 0)" stroke="none" stroke-width="1px">Alt + Scroll to Zoom</span></g></g></g><g transform="translate(51, 178)" clip-path="url(#clip_1)"><clipPath id="clip_1"><rect width="278" height="22"></rect></clipPath><g><g><line x1="18.142815542596633" y1="0" x2="18.142815542596633" y2="5" style="visibility: inherit;" fill="rgb(0, 0, 0)" stroke="rgb(204, 204, 204)" stroke-width="1px"></line><line x1="42.674828191140136" y1="0" x2="42.674828191140136" y2="5" style="visibility: inherit;" fill="rgb(0, 0, 0)" stroke="rgb(204, 204, 204)" stroke-width="1px"></line><line x1="67.20684083968364" y1="0" x2="67.20684083968364" y2="5" style="visibility: inherit;" fill="rgb(0, 0, 0)" stroke="rgb(204, 204, 204)" stroke-width="1px"></line><line x1="91.73885348822714" y1="0" x2="91.73885348822714" y2="5" style="visibility: inherit;" fill="rgb(0, 0, 0)" stroke="rgb(204, 204, 204)" stroke-width="1px"></line><line x1="116.27086613677065" y1="0" x2="116.27086613677065" y2="5" style="visibility: inherit;" fill="rgb(0, 0, 0)" stroke="rgb(204, 204, 204)" stroke-width="1px"></line><line x1="140.80287878531416" y1="0" x2="140.80287878531416" y2="5" style="visibility: inherit;" fill="rgb(0, 0, 0)" stroke="rgb(204, 204, 204)" stroke-width="1px"></line><line x1="165.33489143385765" y1="0" x2="165.33489143385765" y2="5" style="visibility: inherit;" fill="rgb(0, 0, 0)" stroke="rgb(204, 204, 204)" stroke-width="1px"></line><line x1="189.86690408240113" y1="0" x2="189.86690408240113" y2="5" style="visibility: inherit;" fill="rgb(0, 0, 0)" stroke="rgb(204, 204, 204)" stroke-width="1px"></line><line x1="214.39891673094465" y1="0" x2="214.39891673094465" y2="5" style="visibility: inherit;" fill="rgb(0, 0, 0)" stroke="rgb(204, 204, 204)" stroke-width="1px"></line><line x1="238.93092937948816" y1="0" x2="238.93092937948816" y2="5" style="visibility: inherit;" fill="rgb(0, 0, 0)" stroke="rgb(204, 204, 204)" stroke-width="1px"></line><line x1="263.46294202803165" y1="0" x2="263.46294202803165" y2="5" style="visibility: inherit;" fill="rgb(0, 0, 0)" stroke="rgb(204, 204, 204)" stroke-width="1px"></line></g><g transform="translate(0, 8)"><text x="18.142815542596633" y="0" dx="0em" dy="0.95em" style="text-anchor: middle; visibility: inherit; font-family: Roboto, sans-serif; font-size: 12px; font-weight: 200;" fill="rgb(50, 49, 63)" stroke="none" stroke-width="1px">0</text><text x="42.674828191140136" y="0" dx="0em" dy="0.95em" style="text-anchor: middle; visibility: inherit; font-family: Roboto, sans-serif; font-size: 12px; font-weight: 200;" fill="rgb(50, 49, 63)" stroke="none" stroke-width="1px">5k</text><text x="67.20684083968364" y="0" dx="0em" dy="0.95em" style="text-anchor: middle; visibility: inherit; font-family: Roboto, sans-serif; font-size: 12px; font-weight: 200;" fill="rgb(50, 49, 63)" stroke="none" stroke-width="1px">10k</text><text x="91.73885348822714" y="0" dx="0em" dy="0.95em" style="text-anchor: middle; visibility: inherit; font-family: Roboto, sans-serif; font-size: 12px; font-weight: 200;" fill="rgb(50, 49, 63)" stroke="none" stroke-width="1px">15k</text><text x="116.27086613677065" y="0" dx="0em" dy="0.95em" style="text-anchor: middle; visibility: inherit; font-family: Roboto, sans-serif; font-size: 12px; font-weight: 200;" fill="rgb(50, 49, 63)" stroke="none" stroke-width="1px">20k</text><text x="140.80287878531416" y="0" dx="0em" dy="0.95em" style="text-anchor: middle; visibility: inherit; font-family: Roboto, sans-serif; font-size: 12px; font-weight: 200;" fill="rgb(50, 49, 63)" stroke="none" stroke-width="1px">25k</text><text x="165.33489143385765" y="0" dx="0em" dy="0.95em" style="text-anchor: middle; visibility: inherit; font-family: Roboto, sans-serif; font-size: 12px; font-weight: 200;" fill="rgb(50, 49, 63)" stroke="none" stroke-width="1px">30k</text><text x="189.86690408240113" y="0" dx="0em" dy="0.95em" style="text-anchor: middle; visibility: inherit; font-family: Roboto, sans-serif; font-size: 12px; font-weight: 200;" fill="rgb(50, 49, 63)" stroke="none" stroke-width="1px">35k</text><text x="214.39891673094465" y="0" dx="0em" dy="0.95em" style="text-anchor: middle; visibility: inherit; font-family: Roboto, sans-serif; font-size: 12px; font-weight: 200;" fill="rgb(50, 49, 63)" stroke="none" stroke-width="1px">40k</text><text x="238.93092937948816" y="0" dx="0em" dy="0.95em" style="text-anchor: middle; visibility: inherit; font-family: Roboto, sans-serif; font-size: 12px; font-weight: 200;" fill="rgb(50, 49, 63)" stroke="none" stroke-width="1px">45k</text><text x="263.46294202803165" y="0" dx="0em" dy="0.95em" style="text-anchor: middle; visibility: inherit; font-family: Roboto, sans-serif; font-size: 12px; font-weight: 200;" fill="rgb(50, 49, 63)" stroke="none" stroke-width="1px">50k</text></g><line x1="0" y1="0" x2="278.4375" y2="0" fill="rgb(0, 0, 0)" stroke="rgb(204, 204, 204)" stroke-width="1px"></line></g></g></g></g></svg>