<svg viewBox="0 0 330 200" xmlns="http://www.w3.org/2000/svg"><g><g><g><g><g><line x1="29.4375" y1="177" x2="24.4375" y2="177" style="visibility: inherit;" fill="rgb(0, 0, 0)" stroke="rgb(204, 204, 204)" stroke-width="1px"></line><line x1="29.4375" y1="159.3" x2="24.4375" y2="159.3" style="visibility: inherit;" fill="rgb(0, 0, 0)" stroke="rgb(204, 204, 204)" stroke-width="1px"></line><line x1="29.4375" y1="141.6" x2="24.4375" y2="141.6" style="visibility: inherit;" fill="rgb(0, 0, 0)" stroke="rgb(204, 204, 204)" stroke-width="1px"></line><line x1="29.4375" y1="123.9" x2="24.4375" y2="123.9" style="visibility: inherit;" fill="rgb(0, 0, 0)" stroke="rgb(204, 204, 204)" stroke-width="1px"></line><line x1="29.4375" y1="106.2" x2="24.4375" y2="106.2" style="visibility: inherit;" fill="rgb(0, 0, 0)" stroke="rgb(204, 204, 204)" stroke-width="1px"></line><line x1="29.4375" y1="88.5" x2="24.4375" y2="88.5" style="visibility: inherit;" fill="rgb(0, 0, 0)" stroke="rgb(204, 204, 204)" stroke-width="1px"></line><line x1="29.4375" y1="70.8" x2="24.4375" y2="70.8" style="visibility: inherit;" fill="rgb(0, 0, 0)" stroke="rgb(204, 204, 204)" stroke-width="1px"></line><line x1="29.4375" y1="53.10000000000001" x2="24.4375" y2="53.10000000000001" style="visibility: inherit;" fill="rgb(0, 0, 0)" stroke="rgb(204, 204, 204)" stroke-width="1px"></line><line x1="29.4375" y1="35.400000000000006" x2="24.4375" y2="35.400000000000006" style="visibility: inherit;" fill="rgb(0, 0, 0)" stroke="rgb(204, 204, 204)" stroke-width="1px"></line><line x1="29.4375" y1="17.69999999999999" x2="24.4375" y2="17.69999999999999" style="visibility: inherit;" fill="rgb(0, 0, 0)" stroke="rgb(204, 204, 204)" stroke-width="1px"></line><line x1="29.4375" y1="0" x2="24.4375" y2="0" style="visibility: inherit;" fill="rgb(0, 0, 0)" stroke="rgb(204, 204, 204)" stroke-width="1px"></line></g><g transform="translate(19.4375, 0)"><text x="0" y="177" dx="0em" dy="0.3em" style="text-anchor: end; visibility: hidden; font-family: &quot;Helvetica Neue&quot;, sans-serif; font-size: 12px; font-weight: 200;" fill="rgb(50, 49, 63)" stroke="none" stroke-width="1px">-5</text><text x="0" y="159.3" dx="0em" dy="0.3em" style="text-anchor: end; visibility: inherit; font-family: &quot;Helvetica Neue&quot;, sans-serif; font-size: 12px; font-weight: 200;" fill="rgb(50, 49, 63)" stroke="none" stroke-width="1px">0</text><text x="0" y="141.6" dx="0em" dy="0.3em" style="text-anchor: end; visibility: hidden; font-family: &quot;Helvetica Neue&quot;, sans-serif; font-size: 12px; font-weight: 200;" fill="rgb(50, 49, 63)" stroke="none" stroke-width="1px">5</text><text x="0" y="123.9" dx="0em" dy="0.3em" style="text-anchor: end; visibility: inherit; font-family: &quot;Helvetica Neue&quot;, sans-serif; font-size: 12px; font-weight: 200;" fill="rgb(50, 49, 63)" stroke="none" stroke-width="1px">10</text><text x="0" y="106.2" dx="0em" dy="0.3em" style="text-anchor: end; visibility: hidden; font-family: &quot;Helvetica Neue&quot;, sans-serif; font-size: 12px; font-weight: 200;" fill="rgb(50, 49, 63)" stroke="none" stroke-width="1px">15</text><text x="0" y="88.5" dx="0em" dy="0.3em" style="text-anchor: end; visibility: inherit; font-family: &quot;Helvetica Neue&quot;, sans-serif; font-size: 12px; font-weight: 200;" fill="rgb(50, 49, 63)" stroke="none" stroke-width="1px">20</text><text x="0" y="70.8" dx="0em" dy="0.3em" style="text-anchor: end; visibility: hidden; font-family: &quot;Helvetica Neue&quot;, sans-serif; font-size: 12px; font-weight: 200;" fill="rgb(50, 49, 63)" stroke="none" stroke-width="1px">25</text><text x="0" y="53.10000000000001" dx="0em" dy="0.3em" style="text-anchor: end; visibility: inherit; font-family: &quot;Helvetica Neue&quot;, sans-serif; font-size: 12px; font-weight: 200;" fill="rgb(50, 49, 63)" stroke="none" stroke-width="1px">30</text><text x="0" y="35.400000000000006" dx="0em" dy="0.3em" style="text-anchor: end; visibility: hidden; font-family: &quot;Helvetica Neue&quot;, sans-serif; font-size: 12px; font-weight: 200;" fill="rgb(50, 49, 63)" stroke="none" stroke-width="1px">35</text><text x="0" y="17.69999999999999" dx="0em" dy="0.3em" style="text-anchor: end; visibility: inherit; font-family: &quot;Helvetica Neue&quot;, sans-serif; font-size: 12px; font-weight: 200;" fill="rgb(50, 49, 63)" stroke="none" stroke-width="1px">40</text><text x="0" y="0" dx="0em" dy="0.3em" style="text-anchor: end; visibility: hidden; font-family: &quot;Helvetica Neue&quot;, sans-serif; font-size: 12px; font-weight: 200;" fill="rgb(50, 49, 63)" stroke="none" stroke-width="1px">45</text></g><line x1="29.4375" y1="0" x2="29.4375" y2="177" fill="rgb(0, 0, 0)" stroke="rgb(204, 204, 204)" stroke-width="1px"></line></g></g><g transform="translate(29, 0)" clip-path="url(#clip_0)"><clipPath id="clip_0"><rect width="300" height="177"></rect></clipPath><g><g><g><line x1="0" y1="0" x2="0" y2="177" fill="rgb(0, 0, 0)" stroke="rgb(60, 60, 60)" stroke-width="1px" opacity="0.25"></line><line x1="33.39583333333333" y1="0" x2="33.39583333333333" y2="177" fill="rgb(0, 0, 0)" stroke="rgb(60, 60, 60)" stroke-width="1px" opacity="0.25"></line><line x1="66.79166666666666" y1="0" x2="66.79166666666666" y2="177" fill="rgb(0, 0, 0)" stroke="rgb(60, 60, 60)" stroke-width="1px" opacity="0.25"></line><line x1="100.1875" y1="0" x2="100.1875" y2="177" fill="rgb(0, 0, 0)" stroke="rgb(60, 60, 60)" stroke-width="1px" opacity="0.25"></line><line x1="133.58333333333331" y1="0" x2="133.58333333333331" y2="177" fill="rgb(0, 0, 0)" stroke="rgb(60, 60, 60)" stroke-width="1px" opacity="0.25"></line><line x1="166.97916666666669" y1="0" x2="166.97916666666669" y2="177" fill="rgb(0, 0, 0)" stroke="rgb(60, 60, 60)" stroke-width="1px" opacity="0.25"></line><line x1="200.375" y1="0" x2="200.375" y2="177" fill="rgb(0, 0, 0)" stroke="rgb(60, 60, 60)" stroke-width="1px" opacity="0.25"></line><line x1="233.77083333333334" y1="0" x2="233.77083333333334" y2="177" fill="rgb(0, 0, 0)" stroke="rgb(60, 60, 60)" stroke-width="1px" opacity="0.25"></line><line x1="267.16666666666663" y1="0" x2="267.16666666666663" y2="177" fill="rgb(0, 0, 0)" stroke="rgb(60, 60, 60)" stroke-width="1px" opacity="0.25"></line><line x1="300.5625" y1="0" x2="300.5625" y2="177" fill="rgb(0, 0, 0)" stroke="rgb(60, 60, 60)" stroke-width="1px" opacity="0.25"></line></g><g><line x1="0" y1="177" x2="300.5625" y2="177" fill="rgb(0, 0, 0)" stroke="rgb(60, 60, 60)" stroke-width="1px" opacity="0.25"></line><line x1="0" y1="159.3" x2="300.5625" y2="159.3" fill="rgb(0, 0, 0)" stroke="rgb(60, 60, 60)" stroke-width="1px" opacity="0.25"></line><line x1="0" y1="141.6" x2="300.5625" y2="141.6" fill="rgb(0, 0, 0)" stroke="rgb(60, 60, 60)" stroke-width="1px" opacity="0.25"></line><line x1="0" y1="123.9" x2="300.5625" y2="123.9" fill="rgb(0, 0, 0)" stroke="rgb(60, 60, 60)" stroke-width="1px" opacity="0.25"></line><line x1="0" y1="106.2" x2="300.5625" y2="106.2" fill="rgb(0, 0, 0)" stroke="rgb(60, 60, 60)" stroke-width="1px" opacity="0.25"></line><line x1="0" y1="88.5" x2="300.5625" y2="88.5" fill="rgb(0, 0, 0)" stroke="rgb(60, 60, 60)" stroke-width="1px" opacity="0.25"></line><line x1="0" y1="70.8" x2="300.5625" y2="70.8" fill="rgb(0, 0, 0)" stroke="rgb(60, 60, 60)" stroke-width="1px" opacity="0.25"></line><line x1="0" y1="53.10000000000001" x2="300.5625" y2="53.10000000000001" fill="rgb(0, 0, 0)" stroke="rgb(60, 60, 60)" stroke-width="1px" opacity="0.25"></line><line x1="0" y1="35.400000000000006" x2="300.5625" y2="35.400000000000006" fill="rgb(0, 0, 0)" stroke="rgb(60, 60, 60)" stroke-width="1px" opacity="0.25"></line><line x1="0" y1="17.69999999999999" x2="300.5625" y2="17.69999999999999" fill="rgb(0, 0, 0)" stroke="rgb(60, 60, 60)" stroke-width="1px" opacity="0.25"></line><line x1="0" y1="0" x2="300.5625" y2="0" fill="rgb(0, 0, 0)" stroke="rgb(60, 60, 60)" stroke-width="1px" opacity="0.25"></line></g></g></g><g><g><line x1="0" y1="159.3" x2="300.5625" y2="159.3" fill="rgb(0, 0, 0)" stroke="rgb(153, 153, 153)" stroke-width="1.5px"></line></g></g><g><g><line x1="33.39583333333333" y1="0" x2="33.39583333333333" y2="177" fill="rgb(0, 0, 0)" stroke="rgb(153, 153, 153)" stroke-width="1.5px"></line></g></g><g><g><g><g><g><path stroke="rgb(187, 187, 187)" stroke-width="2px" d="M33.99695833333333,148.68L34.19733333333333,154.54578293289146L34.73166666666666,124.36151032644744L34.79845833333333,123.99485945307799L34.89864583333333,146.385905839319L35.266,142.59038390614367L35.7669375,141.80499667840363L35.867125,147.25689269094076L36.535041666666665,128.73486386228922L36.80220833333333,150.16579991509212L36.93579166666667,146.18034046325812L37.60370833333334,139.74091043603863L38.5721875,152.44404847653516L38.672375,141.03749803161767L38.97293750000001,121.83302209149056L39.50727083333334,126.27935557298908L39.5740625,138.42862660363733L41.04347916666667,121.29298570694459L41.21045833333333,143.0108880413397L41.711395833333334,144.69927382455734L41.911770833333335,128.20544968168332L42.07875000000001,150.05620808410848L42.31252083333333,154.57931507341044L42.51289583333334,144.28671822019595L43.147416666666665,147.77059067158058L43.68175,123.22677226901718L43.74854166666667,120.95342185968656L44.01570833333333,117.67561832495511L44.717020833333336,131.0332129932657L44.984187500000004,122.569355089606L45.51852083333333,148.88953650354844L45.65210416666666,123.45839405623452L47.45547916666666,118.19414756964055L47.488875,122.7188885469156L48.056604166666666,118.04106992921153L48.15679166666666,136.72330147534677L48.25697916666667,120.93998340539679L48.75791666666667,120.48005656491713L48.85810416666667,131.61373170893785L48.89149999999999,80.58122246375011L49.22545833333333,117.74023304999628L49.85997916666667,136.66102824134924L50.56129166666666,120.9270928459593L51.12902083333333,120.47738821911356L51.296,117.57707936135651L52.1976875,116.9767154278008L52.531645833333336,116.85244009355478L52.73202083333333,116.82671509936583L52.96579166666667,119.62861002556873L52.999187500000005,125.82304227529272L54.10125,129.91250975098558L54.16804166666667,133.56624951845401L54.56879166666667,120.28647365031998L54.80256249999999,142.80254004561624L54.83595833333333,122.19838578944257L54.902750000000005,126.35498585841461L55.0029375,130.02262207269183L55.06972916666667,122.36016276904721L55.470479166666664,123.58125369319276L55.8044375,129.4484595144909L57.240458333333336,133.47019111949962L57.37404166666666,123.07380956173643L57.507625,132.15063857927944L57.774791666666665,134.02954218591083L58.07535416666666,134.41847523248356L58.509499999999996,120.4628843731241L58.64308333333334,134.41739706523668L58.943645833333335,140.113201192504L59.07722916666667,87.95505264684833L59.14402083333333,51.8933358978976L59.2108125,123.0307205308648L59.444583333333334,104.069519149889L59.6115625,131.02397046402703L59.67835416666667,52.38694188605359L59.84533333333333,128.7473369704131L59.912125,88.4095387528755L60.04570833333333,37.951314521845234L60.179291666666664,108.91584210602197L60.379666666666665,92.72607931594655L60.4130625,89.37479841840093L61.18116666666666,91.48830327260899L61.31475,103.15467877743006L62.4168125,102.76239850692801L62.65058333333333,94.2595364909341L62.85095833333333,103.72832405362335L63.3185,102.88114307910003L63.452083333333334,105.5129966173737L63.685854166666665,108.86501029979635L63.75264583333333,117.98053713205785L64.0198125,111.44579118633597L64.48735416666666,112.90031877557155L64.52075,113.2014059865433L64.85470833333333,107.64929103921446L64.95489583333334,106.5000032451174L65.25545833333334,145.5631806717393L65.38904166666667,114.34817839905003L65.522625,107.88667292860336L65.8231875,109.3563612962209L65.85658333333333,106.85336678831771L66.05695833333333,111.94968692518177L66.09035416666667,113.00462519351262L66.25733333333334,107.6085574150571L66.85845833333333,109.29879138491684L66.95864583333334,106.84144981667778L67.25920833333333,109.1400001120523L68.26108333333333,112.42302002319482L68.69522916666666,110.29538514480132L68.89560416666666,109.85496472497387L68.99579166666668,112.57101769806958L69.06258333333334,113.1332406635004L69.19616666666667,116.05684081734458L69.39654166666666,108.24036604919033L69.56352083333334,112.23679577218239L69.89747916666666,110.25683672484176L70.09785416666666,104.23254520204225L70.26483333333333,108.59995685682274L70.59879166666667,112.31123106936231L72.00141666666667,113.079464831358L72.13499999999999,113.2384892200911L72.16839583333334,113.27140726855885L72.20179166666667,116.08544130459168L72.80291666666668,113.86072635005047L73.23706250000001,138.66519035446044L73.67120833333334,149.41415440337332L74.5395,73.03702996149826L74.94024999999999,133.02190520203015L75.30760416666666,137.01711437682025L75.40779166666667,140.65134267600178L75.50797916666667,141.40362793393237L76.17589583333334,147.173790982324L76.37627083333334,139.94655473334106L76.61004166666666,152.48661682980162L76.81041666666665,143.85352968376893L77.34475,153.29536064454018L77.4449375,155.24981965341982L77.81229166666667,155.6543926682579L77.91247916666667,152.9309192823294L78.01266666666666,155.1743802914422L78.04606249999999,147.21711672032853L79.6490625,153.991623161108L79.74924999999999,141.35784599434936L79.8494375,152.7787541208303L79.88283333333334,141.10678210301188L80.61754166666665,138.69068389532345L81.01829166666667,138.19055156633195L81.35225,140.89424417423072L81.48583333333335,135.83946854406577L82.32072916666667,78.64872998862161L82.35412500000001,80.84634710764466L82.72147916666665,129.02399385128246L82.98864583333332,133.38232672721546L83.12222916666667,100.5978616325336L83.18902083333333,130.30533735793443L84.2576875,142.06922483309245L84.39127083333334,124.85380954045013L85.22616666666667,84.79635857487317L85.7605,104.57666622499875L85.79389583333334,125.51450990857475L86.29483333333333,84.93312355107498L86.42841666666666,76.53277657507252L86.96275,77.60112475104L86.99614583333333,69.40061282346528L87.73085416666666,53.6670068544573L87.89783333333334,44.79571041887266L88.06481249999999,71.03155205670664L88.165,37.16129127573825L88.33197916666666,35.76458729407781L88.43216666666666,55.1260095698741L88.83291666666668,45.097723980963906L89.10008333333333,31.792988864059538L89.33385416666667,29.03890869486034L89.56762499999999,67.76989409983608L89.86818749999999,53.32944807866606L90.00177083333334,44.72583575228387L90.06856250000001,65.40264800072276L90.13535416666666,41.61054813614959L90.23554166666666,39.49280346418297L90.4693125,41.86165031708589L90.769875,62.00254161563676L91.10383333333333,43.71394611443682L91.23741666666668,42.73542684568844L91.30420833333332,31.30399335705752L91.40439583333334,68.23876662491091L91.57137499999999,36.583184691356564L91.6715625,69.33155923111082L91.70495833333334,45.23105276083993L92.37287500000001,34.627807921493854L92.6734375,66.11957623974922L92.8738125,78.25281228162808L93.10758333333332,41.46331214229701L93.14097916666667,59.1128656134555L93.44154166666667,37.50134318198528L93.67531249999999,30.220538038670952L94.376625,34.327851374004865L94.51020833333334,46.406945234419L94.84416666666667,34.87121766352473L94.97775,26.868882056349605L95.2783125,47.67015858566438L95.71245833333333,68.81934282723253L95.81264583333333,42.31780396523712L96.01302083333333,59.289745420804095L96.0798125,51.57405730210647L97.21527083333332,33.133589861536024L97.41564583333334,46.159733101337935L97.98337500000001,40.43448475197695L98.31733333333334,33.63491834365922L98.41752083333333,46.263508097137446L98.4843125,57.29928617610746L99.0854375,56.77647223845423L99.55297916666666,48.24658975336001L99.61977083333333,57.70978407894553L100.22089583333333,124.23472530434172L100.35447916666666,45.36712813799872L100.62164583333333,29.041535524565745L101.189375,28.46935785358511L101.38974999999999,25.54369707569211L102.19125000000001,30.552525294668243L102.62539583333333,31.58935273599633L102.72558333333333,26.18953601635124L102.75897916666668,36.30065395538469L102.82577083333332,29.971995368764624L102.8925625,37.08362304133428L103.02614583333333,27.32684996955618L103.15972916666666,36.53607794369813L103.39349999999999,83.35790813434552L103.89443750000001,50.94172698380953L105.02989583333333,30.19547748564858L105.16347916666668,34.32266383952924L105.39725,35.17699141478252L105.69781250000001,66.23325722285999L106.0985625,72.661904245132L106.43252083333333,59.95653417874233L106.4993125,68.55540257499966L106.56610416666668,61.91370833302493L106.73308333333333,46.50277762493616L106.83327083333333,65.77047496836178L107.1004375,64.1444483184509L107.23402083333335,35.73566080191932L107.9019375,46.69836178599729L108.06891666666667,54.58208088970143L108.10231250000001,67.4428907441682L108.16910416666666,33.611218384042814L108.26929166666666,26.60806220549688L108.40287500000001,58.845048876537845L108.43627083333332,48.67478511744332L108.67004166666668,57.79842051931075L108.77022916666667,59.68701304749733L108.93720833333333,46.04185170083193L109.57172916666667,54.446183302072214L109.90568749999998,42.149779943528955L110.10606250000001,31.182764448310508L110.3064375,31.71981224080028L110.44002083333334,34.638201133845655L110.84077083333332,52.08562763470607L110.87416666666667,58.504464920384166L111.70906249999999,45.79706423851951L112.009625,54.39551229737353L113.17847916666666,47.75373104555632L113.21187499999999,43.57166232643016L113.27866666666667,28.669874101571025L113.74620833333334,34.00686393902518L114.74808333333333,35.111620835378204L115.01525,35.340305512923265L115.24902083333333,55.03818324117512L115.31581249999999,53.50120393092324L115.38260416666667,30.72528921370113L115.54958333333333,26.010674867236133L116.38447916666668,25.034749697517867L116.417875,44.483273187386175L116.75183333333332,48.509117549788925L116.818625,43.728027332806306L116.98560416666668,68.00332165789091L117.45314583333334,42.14888758318341L117.65352083333333,33.98979972971895L117.95408333333333,37.91530854405184L118.45502083333334,47.14954886861872L118.58860416666667,60.28991661580406L118.65539583333333,37.74499273947143L119.49029166666666,92.02981349707059L119.89104166666667,38.70071139389361L120.22500000000001,27.661587258536002L120.425375,56.25590856251695L120.99310416666667,53.753273072441004L121.19347916666666,30.777467525995263L121.22687499999999,45.672015777881L121.69441666666667,29.104647266021374L121.89479166666666,25.675201984066405L122.06177083333333,30.57974681070175L122.829875,25.980547589815274L123.06364583333334,33.45017335109176L123.23062499999999,26.574725883675995L123.66477083333334,25.15150825792091L123.89854166666666,27.66412220938963L124.39947916666665,39.41311329734367L124.80022916666667,27.80905445255013L124.90041666666667,36.63589427167787L125.36795833333333,46.88471011423732L125.40135416666666,29.355674993647142L125.46814583333334,36.956044723684954L126.5368125,35.72210125780279L126.57020833333333,41.08111496036517L126.60360416666667,44.99765079679557L127.20472916666667,37.38671371493669L127.70566666666666,33.004029738991875L129.30866666666668,26.482374155971314L129.60922916666667,39.16849145028607L129.90979166666668,44.60173773020921L130.11016666666666,31.69031971015329L130.24375,31.824876180001723L130.81147916666666,26.238289369260343L130.87827083333335,33.50352589943688L130.91166666666666,32.200209861183424L132.48127083333333,57.19540344126497L132.7484375,56.75496851234185L133.51654166666668,34.206038482054765L133.81710416666667,46.381729965785325L133.9506875,37.67321810291756L134.08427083333333,27.44889614730394L134.48502083333332,50.59744150249192L134.58520833333333,35.738650391015824L134.852375,52.313420630940286L134.9525625,33.28663807060465L135.7540625,26.54087408061517L135.88764583333335,25.14450093468733L135.95443749999998,36.084331693480266L136.88952083333334,27.119996660550413L137.657625,25.264379308733936L138.1585625,24.880266516907938L138.42572916666666,61.29461516899994L138.59270833333335,32.33852533998299L138.7596875,43.18793474537648L138.9600625,39.81932249229294L139.49439583333333,41.92923975590463L140.09552083333332,56.402092629472264L140.12891666666667,36.94021317430074L140.36268750000002,44.14048412708024L140.462875,51.24538021430561L141.264375,30.258333704361263L141.3645625,28.72123507680277L141.59833333333333,50.86081566089817L141.69852083333333,41.40760884180591L141.73191666666668,64.71577503025382L141.79870833333334,35.853925431262525L141.83210416666668,38.30118256427136L142.667,36.000544790804184L142.9675625,29.909872771696485L143.7690625,48.299643663741165L144.03622916666666,29.648566238394437L144.50377083333333,25.787793211347633L144.53716666666665,41.83193319474893L145.10489583333333,45.15307017131303L146.073375,51.45498552546178L146.14016666666666,41.53060200377058L146.47412500000002,28.24737461478051L147.04185416666667,39.533846545259564L147.20883333333333,41.87014623486874L147.94354166666668,28.317660270617836L148.04372916666668,25.512295676017885L148.21070833333334,47.389345204935694L148.57806250000002,29.460134457421702L148.64485416666668,31.363227832686277L148.878625,40.178828161366056L149.079,27.967557429402774L149.31277083333333,64.74090438788637L149.51314583333334,33.05190720829248L149.61333333333332,37.721164792116554L150.1810625,47.1093611119681L150.5818125,49.05271775017741L150.682,57.87665257428672L150.9157708333333,45.66710708287735L151.45010416666668,29.103631166155594L151.5168958333333,39.71109165139421L151.71727083333334,55.94293597183861L151.85085416666666,39.652387746170575L152.3851875,53.123564263457325L152.95291666666665,30.64711780253569L153.6208333333333,31.608933385124885L154.22195833333333,31.808029210720832L154.28875,43.07812204661923L154.35554166666665,31.374931263650183L154.45572916666666,31.759590771575574L154.55591666666666,37.45365528971615L155.1236458333333,63.89730664497125L155.49099999999999,46.91338247550905L155.95854166666666,29.361610172430375L156.96041666666667,36.95727330569309L157.02720833333333,44.144015574278484L157.82870833333334,37.210011223875625L157.96229166666666,27.353012323342256L158.02908333333335,33.734273550931846L158.22945833333335,29.4407546250429L158.32964583333333,62.23863620738389L158.39643750000002,38.148377694928456L158.697,35.9689141828502L158.93077083333333,35.51776523584999L159.3649166666667,38.23159740382093L159.63208333333333,33.17892066259094L160.06622916666666,32.133016577156326L160.13302083333335,26.302074431471368L160.23320833333332,55.974489407314564L160.63395833333334,31.237259307314133L160.76754166666666,40.15275267661403L160.93452083333332,39.1910398040591L161.00131249999998,38.99196523944025L161.33527083333334,67.02295680456415L161.4688541666667,41.94595205854475L162.43733333333333,28.333352076118757L162.60431250000002,25.515543879756592L162.83808333333334,36.16113758310962L164.30749999999998,27.13589547970369L164.57466666666667,30.882110364298654L164.8084375,28.850356845409806L164.94202083333334,45.273103866999804L165.30937500000002,37.44373250046894L165.50975,41.437492627597095L165.710125,42.26420097391261L166.44483333333335,28.3992296015999L166.81218750000002,36.7580605275312L166.97916666666669,35.681118529198955L167.27972916666667,32.65097153554416L167.31312499999999,37.63817110785766L167.713875,41.47774141932655L168.08122916666665,28.23643247380059L168.18141666666668,25.495481522076716L168.515375,24.928104675069875L170.08497916666667,41.65397766773947L170.25195833333333,59.152333377222064L170.28535416666668,40.31673300908494L170.6193125,50.453863732880606L173.05720833333336,35.70892979270627L173.42456249999998,43.88560846709021L173.45795833333335,28.734860952687654L173.52475,56.478076217206365L173.59154166666667,31.341501776961707L173.69172916666668,31.752670867831057L173.725125,26.223342869641016L174.5600208333333,41.9220919740157L174.727,28.32841303862122L174.8271875,31.128961498994585L175.09435416666668,26.094235030291884L175.46170833333332,27.859266651270417L175.76227083333333,31.031848196812973L175.86245833333334,26.074132576740283L175.89585416666665,30.662325443385214L176.39679166666667,31.61208136678073L176.931125,26.19424084292359L177.13150000000002,27.879967854485187L177.2650833333333,31.036133345878426L177.56564583333332,31.689459602596827L177.63243749999998,31.824698137737528L177.933,26.238252514511686L178.06658333333334,30.696298270503917L178.26695833333335,26.00467374199431L178.4339375,47.49126746459282L179.30222916666665,49.13177236517072L179.60279166666666,38.24247687959033L180.10372916666665,33.18117271407522L180.3375,32.133482751813546L180.537875,29.10939092962539L180.67145833333333,31.290623922432445L180.70485416666668,31.74213915194352L181.33937500000002,43.0644828044523L181.4395625,31.37210794052163L182.64181250000001,28.951786343687985L182.8421875,59.330199773143406L183.343125,45.967991353040674L183.40991666666667,31.973134210079422L183.97764583333336,43.11229878148643L184.01104166666667,28.574785847767686L184.64556249999998,25.5655206704879L184.67895833333333,36.17148277879102L184.77914583333333,49.59579693520975L185.07970833333331,29.916869965588432L185.4470625,31.4577720828768L186.28195833333334,40.19839882115551L186.3821458333333,27.971608555979174L186.74949999999998,25.440662971087704L186.84968750000002,27.723977235015155L186.91647916666668,42.23272328764813L186.9832708333333,36.81437372054316L187.38402083333335,27.271115360152436L187.95174999999998,44.946200879551554L188.6530625,34.56884358206719L188.88683333333333,35.22795062148788L189.154,26.942725778648025L189.28758333333334,44.8782242361801L189.52135416666667,34.55477241688931L189.55475,43.64669789029608L189.58814583333333,34.29984646329129L189.92210416666668,26.750608217901288L190.79039583333332,39.22401590110559L190.95737499999998,53.03489129152885L191.49170833333332,44.66486249734646L191.8590625,28.896166536950744L191.99264583333334,31.24648647314882L192.02604166666666,26.118562699941805L192.29320833333333,39.09318247888797L192.49358333333333,38.97170877312982L192.59377083333334,38.94656371603787L192.89433333333332,30.519698689219837L193.02791666666667,31.582557628668496L193.2616875,26.188129429134364L193.2950833333333,44.722022791830796L193.49545833333335,40.136878717908985L193.69583333333335,27.958873894607166L193.762625,33.85968689618366L193.86281250000002,26.659495187510032L195.03166666666667,61.66291550381456L195.43241666666668,46.45086350928963L196.0669375,46.10918874642297L196.13372916666665,43.23124207050955L196.76825,31.406627108595472L196.83504166666665,40.187811811479264L197.50295833333334,30.776637044976184L198.30445833333334,26.02130386831007L198.40464583333332,25.036949900740183L198.83879166666668,33.25484862945322L199.10595833333332,37.76317366629681L199.40652083333333,35.88917694892345L199.50670833333334,27.07959962842716L199.57350000000002,25.256017123084433L199.60689583333334,38.91463554447847L201.0763125,36.12752955770705L201.27668749999998,46.779478618445324L201.376875,37.75555207401817L201.61064583333334,33.08037927932176L202.0447916666667,34.9198385108196L202.11158333333333,26.878946571739647L202.14497916666667,53.28668194035012L202.37875,64.36752316165246L202.979875,38.58905729446204L203.74797916666665,36.06013485995365L203.91495833333332,43.9583079160104L204.582875,42.786009738614155L204.64966666666666,42.543344015893126L204.85004166666667,45.300332211289884L205.71833333333333,59.90712876773701L205.88531250000003,51.701855654921545L206.31945833333333,30.352824120568755L206.45304166666668,34.35523459295774L207.05416666666667,26.762073560742238L207.32133333333334,25.190289227073634L208.0894375,30.479369870004206L208.22302083333335,48.41752956309085L208.35660416666664,32.48018861955981L208.39000000000001,29.181159044248886L209.25829166666665,28.49825992215949L210.02639583333334,53.621879803887L210.99487499999998,30.750269119404606L211.36222916666665,28.82306570771675L211.8965625,31.231354601497344L212.3641041666667,59.802070402509955L212.3975,46.065668573319556L213.06541666666666,40.415013394677175L213.86691666666667,53.281427772698166L213.93370833333333,39.101455548948536L214.40125,36.16620129863236L215.03577083333334,29.944163668816884L215.13595833333332,31.463421879445093L215.3029375,26.163468329045145L216.53858333333332,33.488037944112335L216.77235416666667,32.197003854431244L216.9059375,40.351419797867266L217.1063125,47.65382389815852L217.30668749999998,35.12932154691879L217.47366666666665,54.99450956021218L217.57385416666668,31.034403478963924L217.64064583333334,48.532421520145505L218.4421458333333,40.92563125467012L218.7093125,39.35102566971673L219.27704166666666,27.79620231363137L219.44402083333335,28.211573878921683L219.5108125,31.104775792936778L219.9115625,40.12532858913792L219.9783541666667,30.763703017951542L220.17872916666664,31.633066524715957L220.5794791666667,48.65634477061619L220.74645833333335,29.722403367517558L221.08041666666665,25.803077497076146L221.414375,27.79899704189475L222.34945833333333,31.019372387672206L222.41625,42.91487008424815L222.54983333333334,50.991678107439355L223.05077083333336,30.205817368239934L224.42000000000002,56.78256419522566L224.5201875,31.404530788411734L225.1213125,42.99459787320123L225.7224375,31.357641759752653L226.2901666666667,48.59933184426882L226.39035416666667,35.32504169176363L226.55733333333333,26.96282363019506L226.7243125,39.26794449145038L227.3254375,39.00788450973022L227.35883333333334,44.56849209351415L227.9265625,45.7195378633574L228.02675000000002,29.11448433771497L228.26052083333335,25.677238257906993L229.16220833333335,33.38738831938676L229.229,29.368949382113044L229.46277083333334,31.34435252209738L230.06389583333333,37.36770097207415L230.13068750000002,47.03619410121934L230.36445833333335,46.23035217895239L230.66502083333336,48.87076290104312L230.99897916666666,29.766787920515924L231.36633333333333,42.655585099546784L231.49991666666668,28.480246115606178L231.5333125,67.65425094593049L232.16783333333333,67.3416099458076L232.3348125,33.590253258782184L232.4016041666667,37.83260242456794L232.53518749999998,27.481888701885566L232.83575,36.56817096129032L233.436875,27.22015138898709L234.10479166666664,39.32121133752034L234.27177083333333,47.44057074686668L234.57233333333335,29.470738144601427L234.77270833333333,25.750982795932487L234.80610416666667,33.40265343875802L234.9396875,49.02264926182289L235.039875,41.02710839719734L235.77458333333334,47.79369143821984L236.3757083333333,43.57993412771151L236.50929166666666,37.09324636443628L236.67627083333332,46.97938199743831L237.21060416666668,29.375272073469716L237.27739583333332,42.57454131920824L237.61135416666667,31.270690053076095L237.81172916666668,26.123572840986753L237.8785208333333,25.058119578084245L238.07889583333332,38.87367075266346L238.1456875,41.73348984580133L238.21247916666667,39.518252398080875L238.61322916666666,27.830818246402742L238.68002083333334,25.411519377005362L238.7468125,52.982924511040096L239.51491666666666,30.61800537378528L239.81547916666665,42.83178711237355L239.91566666666668,36.93837993226134L240.45000000000002,41.33288464597808L240.78395833333335,28.206447121717446L240.81735416666666,28.296494554195533L240.88414583333332,28.31513437271846L241.08452083333333,50.77675281515272L241.51866666666666,32.96854783273662L241.68564583333333,43.31834940137648L241.91941666666665,56.68963832608492L242.11979166666669,31.385295133499596L242.55393750000002,42.99061609263441L243.42222916666665,67.85067753117532L244.1903333333333,58.96061024895329L244.32391666666666,37.46982632153333L244.35731249999998,44.25011404855738L244.59108333333336,28.810313608051388L245.15881249999998,48.07203491686664L245.52616666666665,46.44477122779139L245.89352083333333,37.68626764415282L246.12729166666668,49.90935740233961L246.3276666666667,38.40343698228429L247.12916666666666,41.63615145533285L248.96593750000002,59.148643351253895L249.09952083333332,40.31596917370953L249.53366666666665,27.995945618957876L249.90102083333332,36.674580743124295L250.03460416666667,58.12159821382674L250.3017708333333,62.561130830262115L250.33516666666668,35.40791408186425L250.46875,26.97997821494593L250.80270833333333,25.2353954904938L251.13666666666668,52.94646686653222L251.1700625,58.68265864137216L251.20345833333332,31.79785033876405L251.470625,34.65435502012414L252.13854166666667,29.63121148916568L252.94004166666664,39.82030077825729L253.14041666666665,53.15832226109926L253.17381250000003,39.075972708047544L253.274,30.546486350565857L253.60795833333333,25.973662674567123L253.9085208333333,44.677628173635384L254.00870833333335,40.12768903194254L254.34266666666667,27.9569716296121L254.5096458333333,47.895393127329726L255.71189583333333,29.564886377357254L256.0124583333333,28.577691480112946L256.07925,25.56612213638337L256.2128333333333,30.557167282231347L256.41320833333333,48.4336336274219L256.51339583333333,29.676302160876304L256.74716666666666,25.79353454730139L257.01433333333335,33.411461651291376L257.11452083333336,26.566712561817326L257.3816875,33.57150950029617L257.5152708333333,40.63594246656132L257.64885416666664,42.098280090578186L258.4169583333333,36.78654397874968L258.5505416666667,38.49423460360117L258.7843125,50.07660656294546L258.9178958333333,44.052497558529694L259.28525,31.57662699461565L259.686,40.22300178788544L260.2203333333333,30.783921370092287L261.05522916666666,28.830031723609096L261.5561666666667,31.232796566787073L262.02370833333333,37.34460888932492L262.290875,44.224194040090254L262.55804166666667,28.804948166298658L262.7584166666667,45.26370427042383L262.7918125,29.02012678397773L263.66010416666666,31.272146244283363L264.1276458333333,48.581634272566646L264.2278333333333,66.2007982944213L264.96254166666665,61.426305246945205L265.53027083333336,32.36578518611768L265.9310208333333,26.35025753352639L266.0312083333333,53.17724330943996L266.23158333333333,30.65822936505407L266.83270833333336,37.22567347856619L266.8995,49.814014410063194L267.500625,32.76926098288308L267.63420833333333,71.3492970234568L267.73439583333334,56.877604483855535L268.33552083333336,39.84586412815807L268.4691041666667,27.89863387452874L268.702875,28.232777212027457L269.13702083333334,56.37414488288968L269.33739583333335,31.319987990758165L269.8049375,26.133777514086944L270.2056875,25.060231945416007L270.706625,24.838008012701096L270.97379166666667,41.63532765862914L271.0071875,31.07627282533622L271.74189583333333,26.08332847484462L271.87547916666665,25.04978899429284L272.3430208333333,24.83584632181862L272.7437708333334,33.21322018861642L272.7771666666667,26.52567657904362L273.0109375,25.141355051862007L273.47847916666666,36.08368049573545L273.67885416666667,27.119861862617228L273.912625,25.26435140556177L273.9794166666667,30.49470074095126L274.2799791666667,39.99904305337691L274.3467708333333,44.77366191204902L274.38016666666664,54.183668015794154L275.01468750000004,30.86655927926938L275.114875,28.847137770808757L275.4154375,39.65799751855738L275.8495833333333,64.35360548634138L276.317125,55.42949633567267L276.6510833333333,33.93166574148424L277.1854166666667,29.48161480848725L277.55277083333334,45.403774265356844L278.1538958333333,65.54298127292887L278.4878541666667,78.13345712349629L278.52125,35.82416562456373L278.721625,27.066142284284695L278.95539583333334,28.060451452846934L279.08897916666666,36.68793345073934L279.122375,30.052162224303032L279.15577083333335,28.67855758043072L279.89047916666664,36.81588141914915L279.923875,30.078647453763864L280.05745833333333,28.68404002292911L280.12425,42.43145628474633L280.42481250000003,36.85551145094249L280.55839583333335,52.54461087034508L281.526875,30.527274450161457L281.56027083333333,25.96968581118344L281.86083333333335,25.02626496291498L281.96102083333335,33.2526368473234L282.1947916666667,26.53383582739596L282.52875,25.14304401627095L282.5621458333333,30.469590111368092L282.59554166666663,28.76496515305317L282.6289375,31.219327786682015L282.79591666666664,42.95626085184318L282.99629166666665,28.54248599633155L283.12987499999997,25.55883460124062L283.19666666666666,27.7484387624568L283.731,28.20168682382854L283.931375,31.10272917253252L283.9647708333334,26.08880493871422L284.2319375,30.665362622313836L284.86645833333336,31.612710062818962L285.4341875,48.6521309830035L286.30247916666667,29.721531113481717L287.07058333333333,25.80289694049071L287.50472916666666,27.798959666681583L287.60491666666667,50.66990465100308L288.6401875,30.139210262757643L288.67358333333334,28.69657652439082L289.2079166666667,25.5907313405489L289.2413125,24.947821387493633L289.5752708333333,36.04361902721118L289.6754583333333,27.11156913863269L289.74225,25.262634811696955L290.10960416666666,27.687125406021295L290.30997916666666,25.381774959046396L290.41016666666667,27.71178741652261L290.54375,25.3868799952202L291.144875,24.905624159010557L291.17827083333333,27.61322420091517L291.31185416666665,28.173697409589437L291.41204166666665,28.289715363785007L291.47883333333334,31.120951080303513L291.946375,34.51423687362282L292.0799583333333,29.602207032839942L292.4473125,37.00707685579786L292.5475,27.31100490915017L293.21541666666667,28.111138016194076L293.4825833333333,36.698425569352196L293.81654166666664,58.12653409285588L293.8499375,59.75493255722118L294.21729166666665,40.441471039344776L294.9853958333333,30.82914450514437L295.152375,26.032172912564874L295.72010416666666,27.846419792900946L297.18952083333335,42.2580688971305L297.22291666666666,48.04850026170598L297.3565,32.40379955417313L297.4900833333333,26.35812650771385L298.0912083333333,27.913892187096764L298.29158333333334,25.428715682729035L298.32497916666665,27.72150414632489L299.72760416666665,36.61777135828925L299.9947708333333,30.037638671165865L300.2619375,25.868331204931337L300.2953333333333,25.0052845594208L300.86306249999996,38.86273390380009" style="fill: none;" fill="none"></path></g></g></g></g><g opacity="0.2"><g><g><g><path stroke="rgb(187, 187, 187)" stroke-width="2px" d="M33.99695833333333,148.68L34.19733333333333,155.76L34.73166666666666,116.82L34.79845833333333,123.9L34.89864583333333,152.22L35.266,141.6L35.7669375,141.6L35.867125,148.68L36.535041666666665,123.9L36.80220833333333,155.76L36.93579166666667,145.14L37.60370833333334,138.06L38.5721875,155.76L38.672375,138.06L38.97293750000001,116.82L39.50727083333334,127.44L39.5740625,141.6L41.04347916666667,116.82L41.21045833333333,148.68L41.711395833333334,145.14L41.911770833333335,123.9L42.07875000000001,155.76L42.31252083333333,155.76L42.51289583333334,141.6L43.147416666666665,148.68L43.68175,116.82L43.74854166666667,120.36L44.01570833333333,116.82L44.717020833333336,134.52L44.984187500000004,120.36L45.51852083333333,155.76L45.65210416666666,116.82L47.45547916666666,116.82L47.488875,123.9L48.056604166666666,116.82L48.15679166666666,141.6L48.25697916666667,116.82L48.75791666666667,120.36L48.85810416666667,134.52L48.89149999999999,67.26L49.22545833333333,127.44L49.85997916666667,141.6L50.56129166666666,116.82L51.12902083333333,120.36L51.296,116.82L52.1976875,116.82L52.531645833333336,116.82L52.73202083333333,116.82L52.96579166666667,120.36L52.999187500000005,127.44L54.10125,130.98L54.16804166666667,134.52L54.56879166666667,116.82L54.80256249999999,148.68L54.83595833333333,116.82L54.902750000000005,127.44L55.0029375,130.98L55.06972916666667,120.36L55.470479166666664,123.9L55.8044375,130.98L57.240458333333336,134.52L57.37404166666666,120.36L57.507625,134.52L57.774791666666665,134.52L58.07535416666666,134.52L58.509499999999996,116.82L58.64308333333334,138.06L58.943645833333335,141.6L59.07722916666667,74.34L59.14402083333333,42.47999999999999L59.2108125,141.6L59.444583333333334,99.12L59.6115625,138.06L59.67835416666667,31.860000000000014L59.84533333333333,148.68L59.912125,77.88L60.04570833333333,24.78L60.179291666666664,127.44L60.379666666666665,88.5L60.4130625,88.5L61.18116666666666,92.04L61.31475,106.2L62.4168125,102.66L62.65058333333333,92.04L62.85095833333333,106.2L63.3185,102.66L63.452083333333334,106.2L63.685854166666665,109.74L63.75264583333333,120.36L64.0198125,109.74L64.48735416666666,113.28L64.52075,113.28L64.85470833333333,106.2L64.95489583333334,106.2L65.25545833333334,155.76L65.38904166666667,106.2L65.522625,106.2L65.8231875,109.74L65.85658333333333,106.2L66.05695833333333,113.28L66.09035416666667,113.28L66.25733333333334,106.2L66.85845833333333,109.74L66.95864583333334,106.2L67.25920833333333,109.74L68.26108333333333,113.28L68.69522916666666,109.74L68.89560416666666,109.74L68.99579166666668,113.28L69.06258333333334,113.28L69.19616666666667,116.82L69.39654166666666,106.2L69.56352083333334,113.28L69.89747916666666,109.74L70.09785416666666,102.66L70.26483333333333,109.74L70.59879166666667,113.28L72.00141666666667,113.28L72.13499999999999,113.28L72.16839583333334,113.28L72.20179166666667,116.82L72.80291666666668,113.28L73.23706250000001,145.14L73.67120833333334,152.22L74.5395,53.10000000000001L74.94024999999999,148.68L75.30760416666666,138.06L75.40779166666667,141.6L75.50797916666667,141.6L76.17589583333334,148.68L76.37627083333334,138.06L76.61004166666666,155.76L76.81041666666665,141.6L77.34475,155.76L77.4449375,155.76L77.81229166666667,155.76L77.91247916666667,152.22L78.01266666666666,155.76L78.04606249999999,145.14L79.6490625,155.76L79.74924999999999,138.06L79.8494375,155.76L79.88283333333334,138.06L80.61754166666665,138.06L81.01829166666667,138.06L81.35225,141.6L81.48583333333335,134.52L82.32072916666667,63.72L82.35412500000001,81.41999999999999L82.72147916666665,141.6L82.98864583333332,134.52L83.12222916666667,92.04L83.18902083333333,138.06L84.2576875,145.14L84.39127083333334,120.36L85.22616666666667,74.34L85.7605,109.74L85.79389583333334,130.98L86.29483333333333,74.34L86.42841666666666,74.34L86.96275,77.88L86.99614583333333,67.26L87.73085416666666,49.56L87.89783333333334,42.47999999999999L88.06481249999999,77.88L88.165,28.319999999999993L88.33197916666666,35.400000000000006L88.43216666666666,60.17999999999999L88.83291666666668,42.47999999999999L89.10008333333333,28.319999999999993L89.33385416666667,28.319999999999993L89.56762499999999,77.88L89.86818749999999,49.56L90.00177083333334,42.47999999999999L90.06856250000001,70.8L90.13535416666666,35.400000000000006L90.23554166666666,38.94L90.4693125,42.47999999999999L90.769875,67.26L91.10383333333333,38.94L91.23741666666668,42.47999999999999L91.30420833333332,28.319999999999993L91.40439583333334,77.88L91.57137499999999,28.319999999999993L91.6715625,77.88L91.70495833333334,38.94L92.37287500000001,31.860000000000014L92.6734375,74.34L92.8738125,81.41999999999999L93.10758333333332,31.860000000000014L93.14097916666667,63.72L93.44154166666667,31.860000000000014L93.67531249999999,28.319999999999993L94.376625,35.400000000000006L94.51020833333334,49.56L94.84416666666667,31.860000000000014L94.97775,24.78L95.2783125,53.10000000000001L95.71245833333333,74.34L95.81264583333333,35.400000000000006L96.01302083333333,63.72L96.0798125,49.56L97.21527083333332,28.319999999999993L97.41564583333334,49.56L97.98337500000001,38.94L98.31733333333334,31.860000000000014L98.41752083333333,49.56L98.4843125,60.17999999999999L99.0854375,56.639999999999986L99.55297916666666,46.02000000000001L99.61977083333333,60.17999999999999L100.22089583333333,141.6L100.35447916666666,24.78L100.62164583333333,24.78L101.189375,28.319999999999993L101.38974999999999,24.78L102.19125000000001,31.860000000000014L102.62539583333333,31.860000000000014L102.72558333333333,24.78L102.75897916666668,38.94L102.82577083333332,28.319999999999993L102.8925625,38.94L103.02614583333333,24.78L103.15972916666666,38.94L103.39349999999999,95.58L103.89443750000001,42.47999999999999L105.02989583333333,24.78L105.16347916666668,35.400000000000006L105.39725,35.400000000000006L105.69781250000001,74.34L106.0985625,74.34L106.43252083333333,56.639999999999986L106.4993125,70.8L106.56610416666668,60.17999999999999L106.73308333333333,42.47999999999999L106.83327083333333,70.8L107.1004375,63.72L107.23402083333335,28.319999999999993L107.9019375,49.56L108.06891666666667,56.639999999999986L108.10231250000001,70.8L108.16910416666666,24.78L108.26929166666666,24.78L108.40287500000001,67.26L108.43627083333332,46.02000000000001L108.67004166666668,60.17999999999999L108.77022916666667,60.17999999999999L108.93720833333333,42.47999999999999L109.57172916666667,56.639999999999986L109.90568749999998,38.94L110.10606250000001,28.319999999999993L110.3064375,31.860000000000014L110.44002083333334,35.400000000000006L110.84077083333332,56.639999999999986L110.87416666666667,60.17999999999999L111.70906249999999,42.47999999999999L112.009625,56.639999999999986L113.17847916666666,46.02000000000001L113.21187499999999,42.47999999999999L113.27866666666667,24.78L113.74620833333334,35.400000000000006L114.74808333333333,35.400000000000006L115.01525,35.400000000000006L115.24902083333333,60.17999999999999L115.31581249999999,53.10000000000001L115.38260416666667,24.78L115.54958333333333,24.78L116.38447916666668,24.78L116.417875,49.56L116.75183333333332,49.56L116.818625,42.47999999999999L116.98560416666668,74.34L117.45314583333334,35.400000000000006L117.65352083333333,31.860000000000014L117.95408333333333,38.94L118.45502083333334,49.56L118.58860416666667,63.72L118.65539583333333,31.860000000000014L119.49029166666666,106.2L119.89104166666667,24.78L120.22500000000001,24.78L120.425375,63.72L120.99310416666667,53.10000000000001L121.19347916666666,24.78L121.22687499999999,49.56L121.69441666666667,24.78L121.89479166666666,24.78L122.06177083333333,31.860000000000014L122.829875,24.78L123.06364583333334,35.400000000000006L123.23062499999999,24.78L123.66477083333334,24.78L123.89854166666666,28.319999999999993L124.39947916666665,42.47999999999999L124.80022916666667,24.78L124.90041666666667,38.94L125.36795833333333,49.56L125.40135416666666,24.78L125.46814583333334,38.94L126.5368125,35.400000000000006L126.57020833333333,42.47999999999999L126.60360416666667,46.02000000000001L127.20472916666667,35.400000000000006L127.70566666666666,31.860000000000014L129.30866666666668,24.78L129.60922916666667,42.47999999999999L129.90979166666668,46.02000000000001L130.11016666666666,28.319999999999993L130.24375,31.860000000000014L130.81147916666666,24.78L130.87827083333335,35.400000000000006L130.91166666666666,31.860000000000014L132.48127083333333,63.72L132.7484375,56.639999999999986L133.51654166666668,28.319999999999993L133.81710416666667,49.56L133.9506875,35.400000000000006L134.08427083333333,24.78L134.48502083333332,56.639999999999986L134.58520833333333,31.860000000000014L134.852375,56.639999999999986L134.9525625,28.319999999999993L135.7540625,24.78L135.88764583333335,24.78L135.95443749999998,38.94L136.88952083333334,24.78L137.657625,24.78L138.1585625,24.78L138.42572916666666,70.8L138.59270833333335,24.78L138.7596875,46.02000000000001L138.9600625,38.94L139.49439583333333,42.47999999999999L140.09552083333332,60.17999999999999L140.12891666666667,31.860000000000014L140.36268750000002,46.02000000000001L140.462875,53.10000000000001L141.264375,24.78L141.3645625,28.319999999999993L141.59833333333333,56.639999999999986L141.69852083333333,38.94L141.73191666666668,70.8L141.79870833333334,28.319999999999993L141.83210416666668,38.94L142.667,35.400000000000006L142.9675625,28.319999999999993L143.7690625,53.10000000000001L144.03622916666666,24.78L144.50377083333333,24.78L144.53716666666665,46.02000000000001L145.10489583333333,46.02000000000001L146.073375,53.10000000000001L146.14016666666666,38.94L146.47412500000002,24.78L147.04185416666667,42.47999999999999L147.20883333333333,42.47999999999999L147.94354166666668,24.78L148.04372916666668,24.78L148.21070833333334,53.10000000000001L148.57806250000002,24.78L148.64485416666668,31.860000000000014L148.878625,42.47999999999999L149.079,24.78L149.31277083333333,74.34L149.51314583333334,24.78L149.61333333333332,38.94L150.1810625,49.56L150.5818125,49.56L150.682,60.17999999999999L150.9157708333333,42.47999999999999L151.45010416666668,24.78L151.5168958333333,42.47999999999999L151.71727083333334,60.17999999999999L151.85085416666666,35.400000000000006L152.3851875,56.639999999999986L152.95291666666665,24.78L153.6208333333333,31.860000000000014L154.22195833333333,31.860000000000014L154.28875,46.02000000000001L154.35554166666665,28.319999999999993L154.45572916666666,31.860000000000014L154.55591666666666,38.94L155.1236458333333,70.8L155.49099999999999,42.47999999999999L155.95854166666666,24.78L156.96041666666667,38.94L157.02720833333333,46.02000000000001L157.82870833333334,35.400000000000006L157.96229166666666,24.78L158.02908333333335,35.400000000000006L158.22945833333335,28.319999999999993L158.32964583333333,70.8L158.39643750000002,31.860000000000014L158.697,35.400000000000006L158.93077083333333,35.400000000000006L159.3649166666667,38.94L159.63208333333333,31.860000000000014L160.06622916666666,31.860000000000014L160.13302083333335,24.78L160.23320833333332,63.72L160.63395833333334,24.78L160.76754166666666,42.47999999999999L160.93452083333332,38.94L161.00131249999998,38.94L161.33527083333334,74.34L161.4688541666667,35.400000000000006L162.43733333333333,24.78L162.60431250000002,24.78L162.83808333333334,38.94L164.30749999999998,24.78L164.57466666666667,31.860000000000014L164.8084375,28.319999999999993L164.94202083333334,49.56L165.30937500000002,35.400000000000006L165.50975,42.47999999999999L165.710125,42.47999999999999L166.44483333333335,24.78L166.81218750000002,38.94L166.97916666666669,35.400000000000006L167.27972916666667,31.860000000000014L167.31312499999999,38.94L167.713875,42.47999999999999L168.08122916666665,24.78L168.18141666666668,24.78L168.515375,24.78L170.08497916666667,46.02000000000001L170.25195833333333,63.72L170.28535416666668,35.400000000000006L170.6193125,53.10000000000001L173.05720833333336,31.860000000000014L173.42456249999998,46.02000000000001L173.45795833333335,24.78L173.52475,63.72L173.59154166666667,24.78L173.69172916666668,31.860000000000014L173.725125,24.78L174.5600208333333,46.02000000000001L174.727,24.78L174.8271875,31.860000000000014L175.09435416666668,24.78L175.46170833333332,28.319999999999993L175.76227083333333,31.860000000000014L175.86245833333334,24.78L175.89585416666665,31.860000000000014L176.39679166666667,31.860000000000014L176.931125,24.78L177.13150000000002,28.319999999999993L177.2650833333333,31.860000000000014L177.56564583333332,31.860000000000014L177.63243749999998,31.860000000000014L177.933,24.78L178.06658333333334,31.860000000000014L178.26695833333335,24.78L178.4339375,53.10000000000001L179.30222916666665,49.56L179.60279166666666,35.400000000000006L180.10372916666665,31.860000000000014L180.3375,31.860000000000014L180.537875,28.319999999999993L180.67145833333333,31.860000000000014L180.70485416666668,31.860000000000014L181.33937500000002,46.02000000000001L181.4395625,28.319999999999993L182.64181250000001,28.319999999999993L182.8421875,67.26L183.343125,42.47999999999999L183.40991666666667,28.319999999999993L183.97764583333336,46.02000000000001L184.01104166666667,24.78L184.64556249999998,24.78L184.67895833333333,38.94L184.77914583333333,53.10000000000001L185.07970833333331,24.78L185.4470625,31.860000000000014L186.28195833333334,42.47999999999999L186.3821458333333,24.78L186.74949999999998,24.78L186.84968750000002,28.319999999999993L186.91647916666668,46.02000000000001L186.9832708333333,35.400000000000006L187.38402083333335,24.78L187.95174999999998,49.56L188.6530625,31.860000000000014L188.88683333333333,35.400000000000006L189.154,24.78L189.28758333333334,49.56L189.52135416666667,31.860000000000014L189.55475,46.02000000000001L189.58814583333333,31.860000000000014L189.92210416666668,24.78L190.79039583333332,42.47999999999999L190.95737499999998,56.639999999999986L191.49170833333332,42.47999999999999L191.8590625,24.78L191.99264583333334,31.860000000000014L192.02604166666666,24.78L192.29320833333333,42.47999999999999L192.49358333333333,38.94L192.59377083333334,38.94L192.89433333333332,28.319999999999993L193.02791666666667,31.860000000000014L193.2616875,24.78L193.2950833333333,49.56L193.49545833333335,38.94L193.69583333333335,24.78L193.762625,35.400000000000006L193.86281250000002,24.78L195.03166666666667,70.8L195.43241666666668,42.47999999999999L196.0669375,46.02000000000001L196.13372916666665,42.47999999999999L196.76825,28.319999999999993L196.83504166666665,42.47999999999999L197.50295833333334,28.319999999999993L198.30445833333334,24.78L198.40464583333332,24.78L198.83879166666668,35.400000000000006L199.10595833333332,38.94L199.40652083333333,35.400000000000006L199.50670833333334,24.78L199.57350000000002,24.78L199.60689583333334,42.47999999999999L201.0763125,35.400000000000006L201.27668749999998,49.56L201.376875,35.400000000000006L201.61064583333334,31.860000000000014L202.0447916666667,35.400000000000006L202.11158333333333,24.78L202.14497916666667,60.17999999999999L202.37875,67.26L202.979875,31.860000000000014L203.74797916666665,35.400000000000006L203.91495833333332,46.02000000000001L204.582875,42.47999999999999L204.64966666666666,42.47999999999999L204.85004166666667,46.02000000000001L205.71833333333333,63.72L205.88531250000003,49.56L206.31945833333333,24.78L206.45304166666668,35.400000000000006L207.05416666666667,24.78L207.32133333333334,24.78L208.0894375,31.860000000000014L208.22302083333335,53.10000000000001L208.35660416666664,28.319999999999993L208.39000000000001,28.319999999999993L209.25829166666665,28.319999999999993L210.02639583333334,60.17999999999999L210.99487499999998,24.78L211.36222916666665,28.319999999999993L211.8965625,31.860000000000014L212.3641041666667,67.26L212.3975,42.47999999999999L213.06541666666666,38.94L213.86691666666667,56.639999999999986L213.93370833333333,35.400000000000006L214.40125,35.400000000000006L215.03577083333334,28.319999999999993L215.13595833333332,31.860000000000014L215.3029375,24.78L216.53858333333332,35.400000000000006L216.77235416666667,31.860000000000014L216.9059375,42.47999999999999L217.1063125,49.56L217.30668749999998,31.860000000000014L217.47366666666665,60.17999999999999L217.57385416666668,24.78L217.64064583333334,53.10000000000001L218.4421458333333,38.94L218.7093125,38.94L219.27704166666666,24.78L219.44402083333335,28.319999999999993L219.5108125,31.860000000000014L219.9115625,42.47999999999999L219.9783541666667,28.319999999999993L220.17872916666664,31.860000000000014L220.5794791666667,53.10000000000001L220.74645833333335,24.78L221.08041666666665,24.78L221.414375,28.319999999999993L222.34945833333333,31.860000000000014L222.41625,46.02000000000001L222.54983333333334,53.10000000000001L223.05077083333336,24.78L224.42000000000002,63.72L224.5201875,24.78L225.1213125,46.02000000000001L225.7224375,28.319999999999993L226.2901666666667,53.10000000000001L226.39035416666667,31.860000000000014L226.55733333333333,24.78L226.7243125,42.47999999999999L227.3254375,38.94L227.35883333333334,46.02000000000001L227.9265625,46.02000000000001L228.02675000000002,24.78L228.26052083333335,24.78L229.16220833333335,35.400000000000006L229.229,28.319999999999993L229.46277083333334,31.860000000000014L230.06389583333333,38.94L230.13068750000002,49.56L230.36445833333335,46.02000000000001L230.66502083333336,49.56L230.99897916666666,24.78L231.36633333333333,46.02000000000001L231.49991666666668,24.78L231.5333125,77.88L232.16783333333333,67.26L232.3348125,24.78L232.4016041666667,38.94L232.53518749999998,24.78L232.83575,38.94L233.436875,24.78L234.10479166666664,42.47999999999999L234.27177083333333,49.56L234.57233333333335,24.78L234.77270833333333,24.78L234.80610416666667,35.400000000000006L234.9396875,53.10000000000001L235.039875,38.94L235.77458333333334,49.56L236.3757083333333,42.47999999999999L236.50929166666666,35.400000000000006L236.67627083333332,49.56L237.21060416666668,24.78L237.27739583333332,46.02000000000001L237.61135416666667,28.319999999999993L237.81172916666668,24.78L237.8785208333333,24.78L238.07889583333332,42.47999999999999L238.1456875,42.47999999999999L238.21247916666667,38.94L238.61322916666666,24.78L238.68002083333334,24.78L238.7468125,60.17999999999999L239.51491666666666,24.78L239.81547916666665,46.02000000000001L239.91566666666668,35.400000000000006L240.45000000000002,42.47999999999999L240.78395833333335,24.78L240.81735416666666,28.319999999999993L240.88414583333332,28.319999999999993L241.08452083333333,56.639999999999986L241.51866666666666,28.319999999999993L241.68564583333333,46.02000000000001L241.91941666666665,60.17999999999999L242.11979166666669,24.78L242.55393750000002,46.02000000000001L243.42222916666665,74.34L244.1903333333333,56.639999999999986L244.32391666666666,31.860000000000014L244.35731249999998,46.02000000000001L244.59108333333336,24.78L245.15881249999998,53.10000000000001L245.52616666666665,46.02000000000001L245.89352083333333,35.400000000000006L246.12729166666668,53.10000000000001L246.3276666666667,35.400000000000006L247.12916666666666,42.47999999999999L248.96593750000002,63.72L249.09952083333332,35.400000000000006L249.53366666666665,24.78L249.90102083333332,38.94L250.03460416666667,63.72L250.3017708333333,63.72L250.33516666666668,28.319999999999993L250.46875,24.78L250.80270833333333,24.78L251.13666666666668,60.17999999999999L251.1700625,60.17999999999999L251.20345833333332,24.78L251.470625,35.400000000000006L252.13854166666667,28.319999999999993L252.94004166666664,42.47999999999999L253.14041666666665,56.639999999999986L253.17381250000003,35.400000000000006L253.274,28.319999999999993L253.60795833333333,24.78L253.9085208333333,49.56L254.00870833333335,38.94L254.34266666666667,24.78L254.5096458333333,53.10000000000001L255.71189583333333,24.78L256.0124583333333,28.319999999999993L256.07925,24.78L256.2128333333333,31.860000000000014L256.41320833333333,53.10000000000001L256.51339583333333,24.78L256.74716666666666,24.78L257.01433333333335,35.400000000000006L257.11452083333336,24.78L257.3816875,35.400000000000006L257.5152708333333,42.47999999999999L257.64885416666664,42.47999999999999L258.4169583333333,35.400000000000006L258.5505416666667,38.94L258.7843125,53.10000000000001L258.9178958333333,42.47999999999999L259.28525,28.319999999999993L259.686,42.47999999999999L260.2203333333333,28.319999999999993L261.05522916666666,28.319999999999993L261.5561666666667,31.860000000000014L262.02370833333333,38.94L262.290875,46.02000000000001L262.55804166666667,24.78L262.7584166666667,49.56L262.7918125,24.78L263.66010416666666,31.860000000000014L264.1276458333333,53.10000000000001L264.2278333333333,70.8L264.96254166666665,60.17999999999999L265.53027083333336,24.78L265.9310208333333,24.78L266.0312083333333,60.17999999999999L266.23158333333333,24.78L266.83270833333336,38.94L266.8995,53.10000000000001L267.500625,28.319999999999993L267.63420833333333,81.41999999999999L267.73439583333334,53.10000000000001L268.33552083333336,35.400000000000006L268.4691041666667,24.78L268.702875,28.319999999999993L269.13702083333334,63.72L269.33739583333335,24.78L269.8049375,24.78L270.2056875,24.78L270.706625,24.78L270.97379166666667,46.02000000000001L271.0071875,28.319999999999993L271.74189583333333,24.78L271.87547916666665,24.78L272.3430208333333,24.78L272.7437708333334,35.400000000000006L272.7771666666667,24.78L273.0109375,24.78L273.47847916666666,38.94L273.67885416666667,24.78L273.912625,24.78L273.9794166666667,31.860000000000014L274.2799791666667,42.47999999999999L274.3467708333333,46.02000000000001L274.38016666666664,56.639999999999986L275.01468750000004,24.78L275.114875,28.319999999999993L275.4154375,42.47999999999999L275.8495833333333,70.8L276.317125,53.10000000000001L276.6510833333333,28.319999999999993L277.1854166666667,28.319999999999993L277.55277083333334,49.56L278.1538958333333,70.8L278.4878541666667,81.41999999999999L278.52125,24.78L278.721625,24.78L278.95539583333334,28.319999999999993L279.08897916666666,38.94L279.122375,28.319999999999993L279.15577083333335,28.319999999999993L279.89047916666664,38.94L279.923875,28.319999999999993L280.05745833333333,28.319999999999993L280.12425,46.02000000000001L280.42481250000003,35.400000000000006L280.55839583333335,56.639999999999986L281.526875,24.78L281.56027083333333,24.78L281.86083333333335,24.78L281.96102083333335,35.400000000000006L282.1947916666667,24.78L282.52875,24.78L282.5621458333333,31.860000000000014L282.59554166666663,28.319999999999993L282.6289375,31.860000000000014L282.79591666666664,46.02000000000001L282.99629166666665,24.78L283.12987499999997,24.78L283.19666666666666,28.319999999999993L283.731,28.319999999999993L283.931375,31.860000000000014L283.9647708333334,24.78L284.2319375,31.860000000000014L284.86645833333336,31.860000000000014L285.4341875,53.10000000000001L286.30247916666667,24.78L287.07058333333333,24.78L287.50472916666666,28.319999999999993L287.60491666666667,56.639999999999986L288.6401875,24.78L288.67358333333334,28.319999999999993L289.2079166666667,24.78L289.2413125,24.78L289.5752708333333,38.94L289.6754583333333,24.78L289.74225,24.78L290.10960416666666,28.319999999999993L290.30997916666666,24.78L290.41016666666667,28.319999999999993L290.54375,24.78L291.144875,24.78L291.17827083333333,28.319999999999993L291.31185416666665,28.319999999999993L291.41204166666665,28.319999999999993L291.47883333333334,31.860000000000014L291.946375,35.400000000000006L292.0799583333333,28.319999999999993L292.4473125,38.94L292.5475,24.78L293.21541666666667,28.319999999999993L293.4825833333333,38.94L293.81654166666664,63.72L293.8499375,60.17999999999999L294.21729166666665,35.400000000000006L294.9853958333333,28.319999999999993L295.152375,24.78L295.72010416666666,28.319999999999993L297.18952083333335,46.02000000000001L297.22291666666666,49.56L297.3565,28.319999999999993L297.4900833333333,24.78L298.0912083333333,28.319999999999993L298.29158333333334,24.78L298.32497916666665,28.319999999999993L299.72760416666665,38.94L299.9947708333333,28.319999999999993L300.2619375,24.78L300.2953333333333,24.78L300.86306249999996,42.47999999999999" style="fill: none;" fill="none"></path></g></g></g></g></g></g><g transform="translate(29, 177)" clip-path="url(#clip_1)"><clipPath id="clip_1"><rect width="300" height="23"></rect></clipPath><g><g><line x1="0" y1="0" x2="0" y2="5" style="visibility: inherit;" fill="rgb(0, 0, 0)" stroke="rgb(204, 204, 204)" stroke-width="1px"></line><line x1="33.39583333333333" y1="0" x2="33.39583333333333" y2="5" style="visibility: inherit;" fill="rgb(0, 0, 0)" stroke="rgb(204, 204, 204)" stroke-width="1px"></line><line x1="66.79166666666666" y1="0" x2="66.79166666666666" y2="5" style="visibility: inherit;" fill="rgb(0, 0, 0)" stroke="rgb(204, 204, 204)" stroke-width="1px"></line><line x1="100.1875" y1="0" x2="100.1875" y2="5" style="visibility: inherit;" fill="rgb(0, 0, 0)" stroke="rgb(204, 204, 204)" stroke-width="1px"></line><line x1="133.58333333333331" y1="0" x2="133.58333333333331" y2="5" style="visibility: inherit;" fill="rgb(0, 0, 0)" stroke="rgb(204, 204, 204)" stroke-width="1px"></line><line x1="166.97916666666669" y1="0" x2="166.97916666666669" y2="5" style="visibility: inherit;" fill="rgb(0, 0, 0)" stroke="rgb(204, 204, 204)" stroke-width="1px"></line><line x1="200.375" y1="0" x2="200.375" y2="5" style="visibility: inherit;" fill="rgb(0, 0, 0)" stroke="rgb(204, 204, 204)" stroke-width="1px"></line><line x1="233.77083333333334" y1="0" x2="233.77083333333334" y2="5" style="visibility: inherit;" fill="rgb(0, 0, 0)" stroke="rgb(204, 204, 204)" stroke-width="1px"></line><line x1="267.16666666666663" y1="0" x2="267.16666666666663" y2="5" style="visibility: inherit;" fill="rgb(0, 0, 0)" stroke="rgb(204, 204, 204)" stroke-width="1px"></line><line x1="300.5625" y1="0" x2="300.5625" y2="5" style="visibility: inherit;" fill="rgb(0, 0, 0)" stroke="rgb(204, 204, 204)" stroke-width="1px"></line></g><g transform="translate(0, 8)"><text x="0" y="0" dx="0em" dy="0.95em" style="text-anchor: middle; visibility: hidden; font-family: &quot;Helvetica Neue&quot;, sans-serif; font-size: 12px; font-weight: 200;" fill="rgb(50, 49, 63)" stroke="none" stroke-width="1px">-1k</text><text x="33.39583333333333" y="0" dx="0em" dy="0.95em" style="text-anchor: middle; visibility: inherit; font-family: &quot;Helvetica Neue&quot;, sans-serif; font-size: 12px; font-weight: 200;" fill="rgb(50, 49, 63)" stroke="none" stroke-width="1px">0</text><text x="66.79166666666666" y="0" dx="0em" dy="0.95em" style="text-anchor: middle; visibility: inherit; font-family: &quot;Helvetica Neue&quot;, sans-serif; font-size: 12px; font-weight: 200;" fill="rgb(50, 49, 63)" stroke="none" stroke-width="1px">1k</text><text x="100.1875" y="0" dx="0em" dy="0.95em" style="text-anchor: middle; visibility: inherit; font-family: &quot;Helvetica Neue&quot;, sans-serif; font-size: 12px; font-weight: 200;" fill="rgb(50, 49, 63)" stroke="none" stroke-width="1px">2k</text><text x="133.58333333333331" y="0" dx="0em" dy="0.95em" style="text-anchor: middle; visibility: inherit; font-family: &quot;Helvetica Neue&quot;, sans-serif; font-size: 12px; font-weight: 200;" fill="rgb(50, 49, 63)" stroke="none" stroke-width="1px">3k</text><text x="166.97916666666669" y="0" dx="0em" dy="0.95em" style="text-anchor: middle; visibility: inherit; font-family: &quot;Helvetica Neue&quot;, sans-serif; font-size: 12px; font-weight: 200;" fill="rgb(50, 49, 63)" stroke="none" stroke-width="1px">4k</text><text x="200.375" y="0" dx="0em" dy="0.95em" style="text-anchor: middle; visibility: inherit; font-family: &quot;Helvetica Neue&quot;, sans-serif; font-size: 12px; font-weight: 200;" fill="rgb(50, 49, 63)" stroke="none" stroke-width="1px">5k</text><text x="233.77083333333334" y="0" dx="0em" dy="0.95em" style="text-anchor: middle; visibility: inherit; font-family: &quot;Helvetica Neue&quot;, sans-serif; font-size: 12px; font-weight: 200;" fill="rgb(50, 49, 63)" stroke="none" stroke-width="1px">6k</text><text x="267.16666666666663" y="0" dx="0em" dy="0.95em" style="text-anchor: middle; visibility: inherit; font-family: &quot;Helvetica Neue&quot;, sans-serif; font-size: 12px; font-weight: 200;" fill="rgb(50, 49, 63)" stroke="none" stroke-width="1px">7k</text><text x="300.5625" y="0" dx="0em" dy="0.95em" style="text-anchor: middle; visibility: hidden; font-family: &quot;Helvetica Neue&quot;, sans-serif; font-size: 12px; font-weight: 200;" fill="rgb(50, 49, 63)" stroke="none" stroke-width="1px">8k</text></g><line x1="0" y1="0" x2="300.5625" y2="0" fill="rgb(0, 0, 0)" stroke="rgb(204, 204, 204)" stroke-width="1px"></line></g></g></g></g></svg>