<svg viewBox="0 0 330 200" xmlns="http://www.w3.org/2000/svg"><g><g><g><g><g><line x1="29.4375" y1="177" x2="24.4375" y2="177" style="visibility: inherit;" fill="rgb(0, 0, 0)" stroke="rgb(204, 204, 204)" stroke-width="1px"></line><line x1="29.4375" y1="157.33333333333334" x2="24.4375" y2="157.33333333333334" style="visibility: inherit;" fill="rgb(0, 0, 0)" stroke="rgb(204, 204, 204)" stroke-width="1px"></line><line x1="29.4375" y1="137.66666666666669" x2="24.4375" y2="137.66666666666669" style="visibility: inherit;" fill="rgb(0, 0, 0)" stroke="rgb(204, 204, 204)" stroke-width="1px"></line><line x1="29.4375" y1="118" x2="24.4375" y2="118" style="visibility: inherit;" fill="rgb(0, 0, 0)" stroke="rgb(204, 204, 204)" stroke-width="1px"></line><line x1="29.4375" y1="98.33333333333334" x2="24.4375" y2="98.33333333333334" style="visibility: inherit;" fill="rgb(0, 0, 0)" stroke="rgb(204, 204, 204)" stroke-width="1px"></line><line x1="29.4375" y1="78.66666666666666" x2="24.4375" y2="78.66666666666666" style="visibility: inherit;" fill="rgb(0, 0, 0)" stroke="rgb(204, 204, 204)" stroke-width="1px"></line><line x1="29.4375" y1="59" x2="24.4375" y2="59" style="visibility: inherit;" fill="rgb(0, 0, 0)" stroke="rgb(204, 204, 204)" stroke-width="1px"></line><line x1="29.4375" y1="39.33333333333334" x2="24.4375" y2="39.33333333333334" style="visibility: inherit;" fill="rgb(0, 0, 0)" stroke="rgb(204, 204, 204)" stroke-width="1px"></line><line x1="29.4375" y1="19.666666666666686" x2="24.4375" y2="19.666666666666686" style="visibility: inherit;" fill="rgb(0, 0, 0)" stroke="rgb(204, 204, 204)" stroke-width="1px"></line><line x1="29.4375" y1="0" x2="24.4375" y2="0" style="visibility: inherit;" fill="rgb(0, 0, 0)" stroke="rgb(204, 204, 204)" stroke-width="1px"></line></g><g transform="translate(19.4375, 0)"><text x="0" y="177" dx="0em" dy="0.3em" style="text-anchor: end; visibility: hidden; font-family: &quot;Helvetica Neue&quot;, sans-serif; font-size: 12px; font-weight: 200;" fill="rgb(50, 49, 63)" stroke="none" stroke-width="1px">-5</text><text x="0" y="157.33333333333334" dx="0em" dy="0.3em" style="text-anchor: end; visibility: inherit; font-family: &quot;Helvetica Neue&quot;, sans-serif; font-size: 12px; font-weight: 200;" fill="rgb(50, 49, 63)" stroke="none" stroke-width="1px">0</text><text x="0" y="137.66666666666669" dx="0em" dy="0.3em" style="text-anchor: end; visibility: hidden; font-family: &quot;Helvetica Neue&quot;, sans-serif; font-size: 12px; font-weight: 200;" fill="rgb(50, 49, 63)" stroke="none" stroke-width="1px">5</text><text x="0" y="118" dx="0em" dy="0.3em" style="text-anchor: end; visibility: inherit; font-family: &quot;Helvetica Neue&quot;, sans-serif; font-size: 12px; font-weight: 200;" fill="rgb(50, 49, 63)" stroke="none" stroke-width="1px">10</text><text x="0" y="98.33333333333334" dx="0em" dy="0.3em" style="text-anchor: end; visibility: hidden; font-family: &quot;Helvetica Neue&quot;, sans-serif; font-size: 12px; font-weight: 200;" fill="rgb(50, 49, 63)" stroke="none" stroke-width="1px">15</text><text x="0" y="78.66666666666666" dx="0em" dy="0.3em" style="text-anchor: end; visibility: inherit; font-family: &quot;Helvetica Neue&quot;, sans-serif; font-size: 12px; font-weight: 200;" fill="rgb(50, 49, 63)" stroke="none" stroke-width="1px">20</text><text x="0" y="59" dx="0em" dy="0.3em" style="text-anchor: end; visibility: hidden; font-family: &quot;Helvetica Neue&quot;, sans-serif; font-size: 12px; font-weight: 200;" fill="rgb(50, 49, 63)" stroke="none" stroke-width="1px">25</text><text x="0" y="39.33333333333334" dx="0em" dy="0.3em" style="text-anchor: end; visibility: inherit; font-family: &quot;Helvetica Neue&quot;, sans-serif; font-size: 12px; font-weight: 200;" fill="rgb(50, 49, 63)" stroke="none" stroke-width="1px">30</text><text x="0" y="19.666666666666686" dx="0em" dy="0.3em" style="text-anchor: end; visibility: hidden; font-family: &quot;Helvetica Neue&quot;, sans-serif; font-size: 12px; font-weight: 200;" fill="rgb(50, 49, 63)" stroke="none" stroke-width="1px">35</text><text x="0" y="0" dx="0em" dy="0.3em" style="text-anchor: end; visibility: hidden; font-family: &quot;Helvetica Neue&quot;, sans-serif; font-size: 12px; font-weight: 200;" fill="rgb(50, 49, 63)" stroke="none" stroke-width="1px">40</text></g><line x1="29.4375" y1="0" x2="29.4375" y2="177" fill="rgb(0, 0, 0)" stroke="rgb(204, 204, 204)" stroke-width="1px"></line></g></g><g transform="translate(29, 0)" clip-path="url(#clip_0)"><clipPath id="clip_0"><rect width="300" height="177"></rect></clipPath><g><g><g><line x1="0" y1="0" x2="0" y2="177" fill="rgb(0, 0, 0)" stroke="rgb(60, 60, 60)" stroke-width="1px" opacity="0.25"></line><line x1="27.323863636363637" y1="0" x2="27.323863636363637" y2="177" fill="rgb(0, 0, 0)" stroke="rgb(60, 60, 60)" stroke-width="1px" opacity="0.25"></line><line x1="54.64772727272727" y1="0" x2="54.64772727272727" y2="177" fill="rgb(0, 0, 0)" stroke="rgb(60, 60, 60)" stroke-width="1px" opacity="0.25"></line><line x1="81.9715909090909" y1="0" x2="81.9715909090909" y2="177" fill="rgb(0, 0, 0)" stroke="rgb(60, 60, 60)" stroke-width="1px" opacity="0.25"></line><line x1="109.29545454545455" y1="0" x2="109.29545454545455" y2="177" fill="rgb(0, 0, 0)" stroke="rgb(60, 60, 60)" stroke-width="1px" opacity="0.25"></line><line x1="136.6193181818182" y1="0" x2="136.6193181818182" y2="177" fill="rgb(0, 0, 0)" stroke="rgb(60, 60, 60)" stroke-width="1px" opacity="0.25"></line><line x1="163.9431818181818" y1="0" x2="163.9431818181818" y2="177" fill="rgb(0, 0, 0)" stroke="rgb(60, 60, 60)" stroke-width="1px" opacity="0.25"></line><line x1="191.26704545454544" y1="0" x2="191.26704545454544" y2="177" fill="rgb(0, 0, 0)" stroke="rgb(60, 60, 60)" stroke-width="1px" opacity="0.25"></line><line x1="218.5909090909091" y1="0" x2="218.5909090909091" y2="177" fill="rgb(0, 0, 0)" stroke="rgb(60, 60, 60)" stroke-width="1px" opacity="0.25"></line><line x1="245.91477272727275" y1="0" x2="245.91477272727275" y2="177" fill="rgb(0, 0, 0)" stroke="rgb(60, 60, 60)" stroke-width="1px" opacity="0.25"></line><line x1="273.2386363636364" y1="0" x2="273.2386363636364" y2="177" fill="rgb(0, 0, 0)" stroke="rgb(60, 60, 60)" stroke-width="1px" opacity="0.25"></line><line x1="300.5625" y1="0" x2="300.5625" y2="177" fill="rgb(0, 0, 0)" stroke="rgb(60, 60, 60)" stroke-width="1px" opacity="0.25"></line></g><g><line x1="0" y1="177" x2="300.5625" y2="177" fill="rgb(0, 0, 0)" stroke="rgb(60, 60, 60)" stroke-width="1px" opacity="0.25"></line><line x1="0" y1="157.33333333333334" x2="300.5625" y2="157.33333333333334" fill="rgb(0, 0, 0)" stroke="rgb(60, 60, 60)" stroke-width="1px" opacity="0.25"></line><line x1="0" y1="137.66666666666669" x2="300.5625" y2="137.66666666666669" fill="rgb(0, 0, 0)" stroke="rgb(60, 60, 60)" stroke-width="1px" opacity="0.25"></line><line x1="0" y1="118" x2="300.5625" y2="118" fill="rgb(0, 0, 0)" stroke="rgb(60, 60, 60)" stroke-width="1px" opacity="0.25"></line><line x1="0" y1="98.33333333333334" x2="300.5625" y2="98.33333333333334" fill="rgb(0, 0, 0)" stroke="rgb(60, 60, 60)" stroke-width="1px" opacity="0.25"></line><line x1="0" y1="78.66666666666666" x2="300.5625" y2="78.66666666666666" fill="rgb(0, 0, 0)" stroke="rgb(60, 60, 60)" stroke-width="1px" opacity="0.25"></line><line x1="0" y1="59" x2="300.5625" y2="59" fill="rgb(0, 0, 0)" stroke="rgb(60, 60, 60)" stroke-width="1px" opacity="0.25"></line><line x1="0" y1="39.33333333333334" x2="300.5625" y2="39.33333333333334" fill="rgb(0, 0, 0)" stroke="rgb(60, 60, 60)" stroke-width="1px" opacity="0.25"></line><line x1="0" y1="19.666666666666686" x2="300.5625" y2="19.666666666666686" fill="rgb(0, 0, 0)" stroke="rgb(60, 60, 60)" stroke-width="1px" opacity="0.25"></line><line x1="0" y1="0" x2="300.5625" y2="0" fill="rgb(0, 0, 0)" stroke="rgb(60, 60, 60)" stroke-width="1px" opacity="0.25"></line></g></g></g><g><g><line x1="0" y1="157.33333333333334" x2="300.5625" y2="157.33333333333334" fill="rgb(0, 0, 0)" stroke="rgb(153, 153, 153)" stroke-width="1.5px"></line></g></g><g><g><line x1="27.323863636363637" y1="0" x2="27.323863636363637" y2="177" fill="rgb(0, 0, 0)" stroke="rgb(153, 153, 153)" stroke-width="1.5px"></line></g></g><g><g><g><g><g><path stroke="rgb(187, 187, 187)" stroke-width="2px" d="M27.81569318181818,153.4L27.979636363636363,153.4L28.416818181818183,153.4L28.47146590909091,153.4L28.5534375,153.4L28.854,144.04186377351672L29.263857954545454,138.98625013623402L29.345829545454546,147.29724846150123L29.892306818181815,139.66019176903296L30.110897727272725,144.31759370226303L30.220193181818182,129.68600812554808L30.766670454545455,145.37207044574146L31.5590625,139.26168524110656L31.641034090909088,147.35423551372193L31.886948863636366,152.14852675160364L32.32413068181818,150.02181170422446L32.378778409090906,130.86678168939608L33.58102840909091,142.49735714304398L33.71764772727273,151.143152928611L34.127505681818185,131.0988993228887L34.29144886363636,136.30713882650466L34.42806818181818,137.38524440375312L34.61933522727273,146.96581225824357L34.78327840909091,142.7107231374564L35.302431818181816,132.47251968945346L35.739613636363636,139.71061157571688L35.794261363636366,141.2088965961734L36.01285227272727,138.39990826207455L36.58665340909091,137.8184476769161L36.80524431818182,137.6980853357883L37.24242613636364,140.79230366450818L37.351721590909094,144.55194019188653L38.82721022727272,151.56845161972052L38.85453409090909,140.5443361519488L39.31903977272727,141.3814775834534L39.401011363636364,144.67389919310818L39.482982954545456,132.8788971329734L39.89284090909091,149.1521317065255L39.9748125,152.52069126325077L40.00213636363637,125.14578309149292L40.275375000000004,135.07484376660568L40.79452840909091,127.77275932635405L41.36832954545455,135.61862784722194L41.83283522727273,137.2427226310416L41.969454545454546,143.81717691795896L42.707198863636364,148.29722228868417L42.980437499999994,139.8671916804243L43.14438068181818,138.1221753445145L43.33564772727273,150.2374902963145L43.36297159090909,140.26882715800377L44.26465909090909,138.20531388837344L44.319306818181815,137.77816664155995L44.64719318181818,137.6897471614696L44.83846022727273,150.1479776624242L44.865784090909095,140.25029804278847L44.92043181818182,138.20147836152387L45.00240340909091,137.77737268750212L45.05705113636363,137.6895828129796L45.3849375,137.67141030895345L45.658176136363636,147.02504860062004L46.833102272727274,152.08038506032835L46.94239772727273,140.65030637415464L47.05169318181818,138.28428008611667L47.270284090909094,150.27104597782616L47.51619886363636,140.27577318407668L47.87140909090909,150.68328504910386L47.98070454545454,140.36110667183118L48.22661931818182,138.22441574773572L48.33591477272727,109.70992072644796L48.3905625,97.56915359037473L48.445210227272725,129.36648145987422L48.63647727272727,129.71026166219397L48.77309659090909,136.0196908307408L48.82774431818182,146.68314266863L48.96436363636364,136.41394386573975L49.019011363636366,121.81168638020813L49.12830681818182,115.66988574736975L49.23760227272727,133.1133330163722L49.40154545454545,121.12845993438904L49.428869318181825,115.52845787308519L50.05731818181818,114.3692574463953L50.166613636363635,114.1293029580705L51.06830113636363,114.07963237898724L51.25956818181818,114.06935056911703L51.423511363636365,114.06722223447389L51.806045454545455,114.06678166920275L51.91534090909091,114.06669047219164L52.10660795454545,114.06667159441034L52.16125568181818,117.18580102004294L52.37984659090909,114.71232747781555L52.76238068181818,120.43858512124115L52.78970454545455,115.38565378676358L53.06294318181818,114.33969700052673L53.144914772727276,114.1231839457757L53.39082954545455,132.79316574344222L53.500125,117.9430519755592L53.60942045454546,114.86907842560743L53.85533522727273,114.23276590076739L53.882659090909094,114.10104920812552L54.04660227272728,114.07378385274865L54.07392613636364,114.06813992418563L54.21054545454545,114.06697163097309L54.702374999999996,114.0667297942781L54.784346590909095,114.06667973408223L55.03026136363636,114.06666937162169L55.84997727272727,120.30493389325903L56.2051875,118.47712131590461L56.369130681818184,114.97963077905894L56.451102272727276,120.49391690459854L56.50575,118.51624079925189L56.61504545454546,124.34512851211181L56.778988636363636,122.43257493534048L56.91560795454546,122.03667634494882L57.18884659090909,118.8355920034044L57.35278977272728,115.05383421137137L57.489409090909085,114.27101034842053L57.76264772727273,117.22809914212304L58.910250000000005,114.72108318908613L59.01954545454545,123.5595308868075L59.04686931818182,116.03168956023583L59.07419318181818,123.83082640563549L59.566022727272724,116.08784773263321L59.92123295454545,123.84245114732174L60.27644318181819,125.44765405416226L60.98686363636364,116.42253105587827L61.31475,127.03086392856679L61.615312499999995,126.10765549988L61.69728409090909,129.03568468847516L61.779255681818185,129.64178673051435L62.32573295454545,129.76724985321647L62.489676136363634,129.79322071961582L62.68094318181818,126.67946335562715L62.84488636363636,129.1540489146148L63.282068181818175,129.66628812532525L63.364039772727274,129.77232164194234L63.66460227272727,129.79427057988207L63.74657386363636,126.67968067670225L63.828545454545456,129.15409390007738L63.85586931818182,129.66629743731602L65.16741477272727,126.65319023619108L65.24938636363636,147.86341037889156L65.33135795454545,130.41999261509721L65.35868181818182,139.28573847132515L65.95980681818182,147.35921453023096L66.28769318181818,152.1495574077578L66.56093181818181,146.9028917167392L66.67022727272727,152.05509858536502L67.35332386363636,121.93027207383722L67.38064772727273,118.81356631928429L67.68121022727273,133.76407489475852L67.89980113636364,149.335363503215L68.0090965909091,121.36728691183217L68.06374431818182,134.29269505741593L68.93810795454546,136.96825454355175L69.0474034090909,128.16469535718187L69.7305,107.62755860560331L70.16768181818182,112.73377129802654L70.19500568181819,144.9820906586915L70.60486363636363,120.4661594330158L70.71415909090909,106.03396166930094L71.1513409090909,93.68909673221196L71.17866477272727,100.49110969023455L71.77978977272727,67.58865970587856L71.9164090909091,60.777852559116866L72.05302840909091,103.03588214640385L72.13499999999999,43.16236093763894L72.27161931818182,52.60247538075792L72.35359090909091,63.91397907048356L72.68147727272728,63.13632700092343L72.90006818181818,34.90315302252449L73.09133522727274,50.89281934232923L73.28260227272727,79.15574693719549L73.52851704545454,106.84010628266614L73.6378125,75.14116866717855L73.69246022727273,77.93688858077262L73.74710795454546,62.91993593621994L73.82907954545455,66.04969340546418L74.0203465909091,63.57841986826443L74.26626136363636,78.66253291273074L74.5395,63.07014431293527L74.64879545454545,69.1999198727776L74.70344318181819,51.75398341366497L74.78541477272728,101.16794123329531L74.9220340909091,61.49049716862544L75.00400568181819,103.18339958057214L75.03132954545454,77.50336371317842L75.57780681818181,50.35366295529461L75.82372159090909,85.28240823174598L75.98766477272727,108.10832517063808L76.17893181818181,66.04628997698875L76.20625568181818,85.41164869190332L76.45217045454545,45.75241127922399L76.6434375,53.13861580146603L77.21723863636365,64.02496013757013L77.32653409090909,75.63583341514368L77.59977272727272,56.205350850268076L77.70906818181818,39.70670762600548L77.95498295454546,58.12542181191647L78.31019318181818,61.93809564840005L78.39216477272728,65.84645246588546L78.55610795454545,104.08508232710496L78.61075568181818,115.11961204171072L79.53976704545454,70.61675969263413L79.70371022727272,80.11946925637525L80.1682159090909,50.895196802736336L80.44145454545453,51.08403907149976L80.52342613636364,72.9570627544671L80.57807386363636,83.72304532350803L81.0699034090909,85.9516037152995L81.4524375,61.45984863573365L81.50708522727273,103.17705533426353L81.99891477272726,130.5273171208592L82.10821022727274,51.97222131068453L82.32680113636364,35.711316477978386L82.79130681818182,51.06010917760818L82.95525,47.99904259976489L83.61102272727273,56.72280181815134L83.96623295454546,58.528619976357334L84.04820454545454,37.06849100177263L84.07552840909091,60.6984443040336L84.13017613636363,40.63677797093496L84.18482386363637,61.437079706650195L84.29411931818181,59.504475499276595L84.40341477272727,65.34269309501693L84.59468181818183,116.4573374706685L85.00453977272727,83.37020218976171L85.93355113636363,54.68723185328068L86.0428465909091,54.98812366029577L86.23411363636363,51.93127493101454L86.4800284090909,48.17937391072002L86.80791477272727,50.52186373285238L87.0811534090909,38.53022579270046L87.13580113636363,64.12015673908898L87.19044886363636,35.10680577832474L87.32706818181818,41.57757546277989L87.40903977272727,42.91702478746208L87.62763068181819,30.717757464338007L87.73692613636364,34.43077579511797L88.28340340909091,41.437637256256096L88.42002272727272,55.364590912045L88.44734659090909,36.413536985459984L88.50199431818183,29.37153548932355L88.5839659090909,31.032974512956628L88.69326136363635,34.496025724182005L88.72058522727272,44.5702773249057L88.91185227272727,31.05998073958881L88.99382386363635,28.263349346428214L89.13044318181818,46.39924664804397L89.6495965909091,59.51077738947842L89.92283522727271,40.390930919622036L90.08677840909091,39.55225603369507L90.25072159090908,36.2595169989749L90.36001704545455,35.57792001878778L90.68790340909091,57.2707627772224L90.71522727272728,67.99944789488502L91.39832386363636,57.74375238090785L91.64423863636364,61.85909007618126L92.60057386363636,47.11529831243621L92.62789772727272,50.301600084007646L92.68254545454545,32.246364550722916L93.06507954545455,28.508930795332986L93.88479545454545,37.092682007967255L94.10338636363636,35.7503851756492L94.29465340909091,63.54472973135938L94.34930113636364,63.05989238772473L94.40394886363636,34.88733105759235L94.54056818181819,32.17474419558829L95.22366477272728,28.494105381820106L95.25098863636364,40.20874648070344L95.52422727272727,55.11021052150561L95.578875,51.95654691128499L95.71549431818181,101.20987187730265L96.09802840909092,49.02264347860162L96.26197159090908,44.458153866737206L96.50788636363636,46.63243785041459L96.91774431818182,37.72511463503582L97.02703977272728,39.000432062785734L97.0816875,42.383556103663324L97.76478409090909,108.58566278012498L98.09267045454546,56.787698862152524L98.36590909090908,46.065520331132234L98.52985227272728,84.39476270854438L98.99435795454545,70.49498254733537L99.15830113636365,48.90292805396507L99.185625,56.909906107170784L99.56815909090909,42.971683897517664L99.73210227272727,46.32473856678615L99.86872159090909,40.78055421665806L100.49717045454545,39.63290805618155L100.6884375,42.51447863429624L100.82505681818182,39.99183041063267L101.18026704545454,45.70790889500097L101.3715340909091,50.01027047459854L101.78139204545454,44.662592654908565L102.1092784090909,52.913023346232734L102.19125000000001,42.1443291660035L102.5737840909091,52.39174280402939L102.60110795454545,54.512957427100744L102.65575568181818,33.1181155207432L103.53011931818182,56.761583246127174L103.55744318181819,55.41751439861498L103.58476704545454,64.49669214717996L104.07659659090909,44.54214860779959L104.48645454545455,40.411558095147825L105.79799999999999,30.199125859028953L106.04391477272728,37.4425523861523L106.28982954545455,51.418475010600176L106.45377272727274,41.83495766052755L106.56306818181818,30.49376956906255L107.02757386363636,43.74181030079595L107.0822215909091,58.960688065598106L107.10954545454545,37.15792909624548L108.39376704545455,76.31262465625613L108.61235795454546,59.46457997051168L109.24080681818182,34.14310138722928L109.48672159090908,63.21202198715645L109.59601704545454,41.15708855134139L109.70531249999999,30.35345066346099L110.03319886363636,74.90409762066976L110.11517045454546,40.458214874145284L110.33376136363636,64.51925047894808L110.41573295454545,35.189418182475606L111.0715056818182,29.11814289710577L111.18080113636364,34.09965557970091L111.23544886363636,38.24996203833143L112.00051704545456,32.87080880860128L112.62896590909091,28.638190756713783L113.03882386363637,34.000305486639746L113.25741477272727,97.49292990240109L113.39403409090909,42.01496982313034L113.53065340909092,46.126698753387956L113.69459659090909,46.97782664195131L114.13177840909091,50.27314344821724L114.62360795454545,57.193540693780974L114.65093181818182,46.14952959027934L114.84219886363637,53.22081929185447L114.92417045454545,60.922842926747194L115.57994318181818,34.444961819170004L115.66191477272727,32.08317376323487L115.85318181818181,50.30908363565628L115.93515340909092,54.0818469792475L115.96247727272728,79.81587565803757L116.01712500000001,41.47495292788042L116.04444886363636,46.01491525607125L116.72754545454545,40.716420791340084L116.97346022727272,33.38136577047405L117.62923295454546,56.81607604782147L117.84782386363636,33.59486107523236L118.23035795454545,28.788069575906462L118.25768181818182,74.58006373554598L118.7221875,55.98680652659134L119.51457954545454,55.25713561767108L119.56922727272726,55.10609373952457L119.8424659090909,33.24089473741492L120.3069715909091,69.26353187731154L120.4435909090909,64.24368443193683L121.04471590909091,35.132376010744224L121.1266875,29.106335167557376L121.26330681818182,77.76507804635105L121.56386931818182,37.93130448892799L121.61851704545454,35.92398002920808L121.80978409090909,63.58066386604608L121.97372727272727,34.995130753604855L122.16499431818183,97.69885873266287L122.3289375,42.05759709099456L122.4109090909091,49.25465593116921L122.87541477272727,75.69751377775202L123.20330113636363,59.33725201866133L123.28527272727274,87.14201116786288L123.47653977272726,64.82539631174764L123.91372159090909,35.252790369865096L123.96836931818181,72.79912760656207L124.1323125,58.73728608122502L124.24160795454546,46.46908488548024L124.67878977272727,72.00176723796106L125.14329545454547,36.73829915159129L125.68977272727273,41.915294591046035L126.18160227272728,36.748665980346516L126.23625,66.87050719126505L126.29089772727272,48.15266165525853L126.37286931818183,53.63546762930518L126.4548409090909,51.651275132599494L126.9193465909091,60.59794728578143L127.2199090909091,59.33077508815677L127.60244318181819,43.47280377658177L128.42215909090908,65.14327038175243L128.4768068181818,75.8673236356894L129.13257954545455,59.37240265925436L129.241875,37.243154017132326L129.29652272727273,42.01979954821306L129.4604659090909,36.77029850648009L129.5424375,98.06631845750803L129.59708522727271,67.08672792070416L129.843,45.07828601291908L130.03426704545456,59.23733853800759L130.38947727272728,46.57259574403423L130.6080681818182,40.83186065234841L130.96327840909092,39.64352848836944L131.01792613636363,30.040143730425797L131.09989772727272,77.95837641886482L131.42778409090909,37.97131725203832L131.53707954545456,42.17052933783859L131.67369886363636,61.75456623959926L131.7283465909091,62.68932854493039L132.00158522727273,90.95502434213392L132.1108806818182,56.25729003882171L132.90327272727274,33.479192371369436L133.03989204545456,28.76412615420682L133.23115909090907,68.33684078058748L134.4334090909091,48.45619270824827L134.65200000000002,41.22176522394071L134.84326704545452,33.48597206802239L134.9525625,75.55252955141397L135.253125,49.94984028380935L135.41706818181817,44.650083605415205L135.58101136363638,40.43390063965427L136.18213636363637,30.203750765741745L136.48269886363636,56.158309741841876L136.6193181818182,55.29263678322792L136.86523295454546,48.87517581412817L136.89255681818182,63.14242806019118L137.22044318181818,47.380949275126255L137.52100568181817,34.7609231666178L137.60297727272726,29.02944442882324L137.87621590909092,34.08129499676639L139.1604375,63.19922806433064L139.29705681818183,81.70317354264976L139.32438068181818,51.22302358999518L139.5976193181818,51.15189921646234L141.59226136363637,41.77977647114102L141.89282386363638,67.91194706285953L141.92014772727273,48.36823970867857L141.97479545454547,72.39489228636312L142.02944318181818,39.93880936994384L142.11141477272727,42.57780020624503L142.13873863636363,30.647537976026086L142.82183522727274,43.77364036103742L142.95845454545454,30.895076888068104L143.04042613636364,53.182280915830106L143.25901704545456,39.080932149576824L143.55957954545454,42.40021962162908L143.80549431818181,36.84904546167721L143.8874659090909,29.461685743900517L143.91478977272726,52.88556894898741L144.32464772727272,45.257779439107054L144.76182954545456,31.20229367722851L144.92577272727272,47.00760812451961L145.0350681818182,65.87497488177556L145.28098295454546,66.6613864671942L145.33563068181817,57.466773665375854L145.58154545454545,33.72955548206613L145.69084090909092,38.17335131812101L145.8547840909091,32.85495038951771L145.9914034090909,62.945374730630164L146.70182386363635,44.221025902573786L146.94773863636362,52.82161902849943L147.35759659090908,51.482808472232705L147.54886363636365,54.32480802041883L147.71280681818183,42.436568593560025L147.82210227272728,58.69050303220027L147.84942613636363,55.816800794332124L148.36857954545454,58.34107776442677L148.45055113636363,40.14880309723634L149.43421022727273,33.2638689077946L149.5981534090909,50.55348753058013L150.00801136363637,38.536771918830084L150.06265909090908,32.9301784538645L150.52716477272728,41.12701360661663L150.55448863636363,30.347225149902954L151.07364204545456,28.115808939363234L151.1009659090909,71.3217724504482L151.1829375,74.02714023057611L151.42885227272728,37.157551361062616L151.72941477272727,38.8829464650733L152.41251136363636,64.19316991827017L152.49448295454545,44.47931950641524L152.79504545454546,31.041152471161297L152.87701704545455,37.61685189486374L152.9316647727273,63.93108834223679L152.9863125,44.42506862017635L153.31419886363634,31.029922537709837L153.77870454545456,59.44846063197261L154.35250568181817,43.49716468415164L154.54377272727274,43.31437975628603L154.76236363636363,30.800009942884543L154.8716590909091,62.5200020581771L155.06292613636361,41.01384042604266L155.09025,45.91946496819082L155.11757386363635,37.57752924841549L155.3908125,29.612481887755337L156.10123295454545,34.20198375076532L156.23785227272728,69.46247730307508L156.67503409090907,64.28486613506988L156.97559659090908,35.140900623292794L157.08489204545455,35.3463664290216L157.1122159090909,29.150631184140792L157.33080681818183,40.34464732178381L157.49475,39.54267532894258L157.57672159090907,36.25753379309111L157.82263636363635,29.33924282850319L157.93193181818182,27.907156598833495L158.12319886363636,27.610714749291844L158.15052272727274,49.383284619770066L158.3144659090909,44.53280658295907L158.47840909090908,31.052224296005846L158.53305681818185,34.5000104292732L158.6150284090909,28.9754354921929L159.57136363636363,96.45278181355059L159.89925,54.27619250207164L160.4184034090909,45.54563851459548L160.47305113636364,53.09581383918794L160.99220454545457,39.06303346471191L161.04685227272728,42.39651459386204L161.59332954545457,33.72914518759609L162.2491022727273,31.934999720499064L162.33107386363636,28.444478275476627L162.68628409090908,37.079340336357006L162.904875,41.98589011629255L163.15078977272728,43.00154592073923L163.23276136363637,36.973520005593L163.28740909090908,29.48745197449108L163.31473295454546,37.29523589205297L164.51698295454545,38.91144716298831L164.68092613636364,51.722536229405236L164.76289772727273,41.897898332820205L164.9541647727273,42.98333162156047L165.30937500000002,36.969749645663L165.36402272727273,32.60580484331891L165.39134659090908,53.53640160256701L165.58261363636365,64.10730179839803L166.0744431818182,35.10414480560172L166.70289204545452,32.21962464142621L166.83951136363635,50.33732896744192L167.38598863636363,38.49202709626047L167.44063636363637,32.92091627559259L167.60457954545453,34.88682966904764L168.31500000000003,72.72337374149288L168.4516193181818,43.12593836448903L168.80682954545455,30.761002574782566L168.91612500000002,65.63106086631332L169.40795454545454,35.41956293266017L169.62654545454546,38.52318286039397L170.25499431818182,36.046498852101536L170.36428977272726,69.84429192905168L170.47358522727274,42.5299684293137L170.5009090909091,36.875903464867946L171.21132954545453,51.30117868389432L171.8397784090909,44.929810654232796L172.63217045454547,31.13440413875952L172.93273295454546,59.47008832338989L173.36991477272727,46.620774949608375L173.75244886363637,50.19923374790227L173.7797727272727,82.13130805248245L174.32625,57.5499141001972L174.98202272727272,36.86589888540746L175.03667045454546,41.94170773594601L175.41920454545453,39.873266834674155L175.93835795454544,48.802499568110846L176.02032954545453,38.17431741059892L176.15694886363636,29.736017037327315L177.1679318181818,37.346688860060084L177.35919886363638,32.683831260699066L177.46849431818183,47.31428640429803L177.63243749999998,65.9384572856897L177.7963806818182,66.67452732480443L177.933,57.46949382290117L178.01497159090908,33.73011855467388L178.06961931818182,75.60306787415084L178.72539204545456,56.198568383282534L178.94398295454545,55.30097032200614L179.40848863636364,48.87690085665528L179.54510795454544,60.02365181066098L179.59975568181815,52.97362925814015L179.92764204545455,51.514274589768334L179.98228977272726,35.61652150674871L180.14623295454544,69.75528661856366L180.47411931818183,45.63067766337602L180.61073863636364,31.279483609652175L180.88397727272726,28.30878644053132L181.15721590909092,40.17038545985665L181.9222840909091,70.697936456857L181.9769318181818,48.94493951323605L182.08622727272726,41.32293581257318L182.49608522727272,30.38778104653599L183.61636363636364,59.31553734329961L183.6983352272727,37.231382896729684L184.1901647727273,38.89822959295637L184.68199431818184,33.00500019240863L185.1465,78.57210170649526L185.2284715909091,44.33662505324452L185.3650909090909,31.011614719354952L185.50171022727272,53.20640424690649L185.99353977272727,42.20505901244297L186.02086363636366,46.166047215575674L186.48536931818182,75.05817177362418L186.5673409090909,37.37097489047355L186.75860795454545,35.80799180232799L187.49635227272728,51.080120969748535L187.551,44.88405170740461L187.74226704545455,34.244065370099406L188.2340965909091,32.04158819827725L188.28874431818184,34.704808757043395L188.48001136363638,47.732628746041314L188.72592613636363,56.66765415043055L188.99916477272728,33.56413774247244L189.29972727272727,38.13910984602512L189.4090227272727,32.84786240479386L189.4363465909091,37.990840851125654L189.9555,54.651104056183016L190.09211931818183,33.14671187296324L190.14676704545457,38.05270269103673L190.2560625,29.71084279037794L190.5019772727273,46.698877790941566L190.99380681818184,31.500601036058214L191.5402840909091,53.307624414464044L191.6769034090909,45.34514492046071L191.92281818181817,31.220378331868687L192.08676136363636,28.296551648030174L192.11408522727274,33.92958619114222L192.22338068181818,50.69129100823312L192.30535227272728,38.56529723870423L192.90647727272727,42.29348319507844L193.39830681818182,33.707817688047896L193.50760227272727,35.04971826142591L193.64422159090907,38.44662501344851L194.0814034090909,29.792384711117165L194.13605113636362,46.71575696853458L194.40928977272728,37.74236169248664L194.57323295454546,29.646602203678043L194.62788068181817,27.9707799894947L194.79182386363635,30.74301812449204L194.8464715909091,34.43600475176984L194.90111931818183,38.31958631694968L195.22900568181817,32.885221034275276L195.2836534090909,28.64117408742831L195.33830113636364,68.31138970276432L195.96675000000002,35.97439100180554L196.2126647727273,51.11456560404039L196.29463636363636,38.65291508003634L196.73181818181817,48.549886754900854L197.0050568181818,35.00289322493114L197.03238068181818,32.19866556422741L197.0870284090909,31.618190438461767L197.25097159090907,43.97456542076159L197.6061818181818,40.29406837543095L197.74280113636362,30.174805487047536L197.9340681818182,37.43751806915216L198.09801136363635,38.94089957364781L198.45322159090907,64.20516621174508L199.16364204545457,41.36266940583124L199.79209090909092,55.34907256700707L199.90138636363636,33.29119135470381L199.92871022727275,38.082609943757035L200.11997727272728,29.717033591691035L200.58448295454545,49.81929262014671L200.88504545454546,41.50392690570368L201.18560795454545,42.90177953614736L201.376875,36.9528683639825L201.5408181818182,35.72144375134437L202.1965909090909,29.228272189861627L203.6994034090909,43.47985234330136L203.80869886363635,40.191662768396725L204.16390909090907,30.153607526391454L204.46447159090908,40.5522634246297L204.57376704545453,36.46651852889832L204.79235795454545,35.62076933548195L204.8196818181818,32.32656591911143L204.92897727272725,31.64466581192275L205.2022159090909,31.503512489734675L205.47545454545454,50.18909375204176L205.50277840909092,50.93787574000598L205.53010227272725,32.378073611514566L205.7486931818182,31.655327904250157L206.29517045454546,31.505719542846464L206.9509431818182,37.71301727870255L207.11488636363637,67.07012791002477L207.14221022727273,73.14704981070844L207.22418181818182,71.28583931081664L207.49742045454548,36.59010207067237L207.74333522727275,35.64635112862916L207.82530681818182,32.33186135029291L208.09854545454547,28.526628632843966L208.23516477272727,37.096345460332L209.21882386363637,29.51287684362208L209.46473863636365,31.06223217329645L209.51938636363636,28.263815393205704L209.6286818181818,27.684543119726925L209.792625,68.11336709245013L209.87459659090908,35.933400321470515L210.06586363636364,29.272147199877736L210.28445454545454,34.131534470374675L210.36642613636363,32.018294302034235L210.58501704545455,37.81912025385441L210.6943125,35.90075789254786L210.80360795454547,35.5036568837574L211.43205681818182,35.4214569749378L211.54135227272727,38.52357492714543L211.7326193181818,42.28484667658577L211.84191477272725,36.82516326205325L212.14247727272726,32.57587546191169L212.47036363636363,31.696272887282362L212.90754545454547,31.51419515433409L213.59064204545453,31.476505063613843L214.0005,31.468703214834733L214.3830340909091,34.586221565470794L214.60162499999998,32.11241453071915L214.82021590909093,28.481203141192196L214.9841590909091,33.967809050226776L215.01148295454544,28.865269806730282L215.7219034090909,34.04731084999315L216.1044375,47.59652667928188L216.1864090909091,37.92468102261137L216.7875340909091,35.922608971680546L217.25203977272727,29.269913390471203L217.57992613636364,27.892805405160857L217.66189772727273,33.846010718868314L217.8258409090909,28.840057552139058L218.31767045454544,37.16122524662609L218.37231818181817,32.64544029271826L218.86414772727272,31.71067280725933L218.97344318181817,53.35110927110267L219.05541477272726,42.23501295245157L219.5472443181818,36.81484768115746L219.65653977272726,29.454606803332922L219.84780681818182,52.884103608289905L220.20301704545454,54.61487611358267L220.36696022727273,33.139212688844935L220.74949431818183,28.693750359924223L221.07738068181817,58.96487299117099L221.48723863636366,43.39706204250572L221.70582954545455,62.008458509465356L221.7331534090909,44.02708424479266L222.3342784090909,30.9475397720054L222.44357386363637,50.07400739947177L222.82610795454545,32.19925286502399L223.15399431818182,65.92877867639329L223.18131818181817,38.60032385268008L223.37258522727274,64.13466703750477L223.7551193181818,69.42027607676349L223.9190625,36.20393048122338L224.11032954545456,29.328146942946574L224.16497727272727,31.023993083856595L224.41089204545455,46.97069990169163L224.46553977272728,59.62906821298351L224.4928636363636,46.65368378675424L225.01201704545454,31.49124587719146L225.09398863636363,28.35262122991196L225.3399034090909,37.060325927925106L225.69511363636363,63.815887467080486L226.07764772727273,53.75862203901899L226.3508863636364,36.08110142874361L226.78806818181818,29.302721329083255L227.0886306818182,34.13786331512023L227.58046022727274,35.138737706229904L227.85369886363634,41.58418537185625L227.88102272727272,30.441859705307564L228.0449659090909,28.135398292331985L228.23623295454544,37.01536077984608L228.3455284090909,32.615246348094786L228.37285227272727,37.94268932738896L228.40017613636363,32.80720335743618L229.00130113636362,34.86329109498928L229.028625,47.76543458999612L229.13792045454545,56.67444496012921L229.1925681818182,64.75687677341341L229.43848295454546,38.35774015876325L229.5477784090909,57.84618554619733L230.34017045454544,33.80809374139619L230.36749431818183,28.832208737802347L230.61340909090907,27.802200542058415L230.69538068181816,55.661188845539414L230.88664772727273,33.35579942435999L231.15988636363636,28.738583814175854L231.18721022727274,30.901953516201075L231.21453409090907,34.46890437785359L231.24185795454545,69.51772987288237L231.37847727272728,45.581503417019974L231.54242045454546,37.50757120732311L231.6517159090909,29.598000573249237L231.70636363636362,34.19898611866259L232.14354545454546,41.38965679322982L232.30748863636362,36.639858956198566L232.3348125,35.656650803933104L232.5534034090909,32.33399338308081L233.07255681818182,50.3610032969644L233.53706250000002,79.04566101580495L234.24748295454546,38.19638516360496L234.8759318181818,29.740585062199557L235.23114204545456,31.109367774541965L235.31311363636362,53.22663912933018L236.1601534090909,35.97098096643802L236.18747727272728,38.63732639338599L236.6246590909091,29.83185989676423L236.65198295454545,34.2473949986302L236.92522159090908,66.35274409804977L237.0071931818182,51.1646180282963L237.0618409090909,32.42500926519068L237.36240340909092,41.02244358456116L237.52634659090907,30.325579155337493L237.6083181818182,43.70699488515484L237.71761363636364,30.881281274560365L238.2094431818182,46.94115855716731L238.23676704545454,37.789019821333625L238.34606250000002,39.0136604363494L238.42803409090908,64.22022771032432L238.48268181818182,81.91452046937046L238.86521590909092,82.45810573715968L238.97451136363637,66.9749612209254L239.27507386363635,79.36561697273156L239.35704545454547,63.215682713355434L239.90352272727273,41.15784632166458L240.12211363636362,33.47274085525123L240.39535227272728,38.12019069037032L240.42267613636363,39.082212806239994L240.72323863636365,36.16221805089168L241.35168750000003,32.43864580320124L241.4883068181818,28.548733014595996L241.95281250000002,27.743521067354692L243.1550625,96.19777552760908L243.18238636363637,113.48693953421508L243.29168181818181,64.04052981691585L243.40097727272726,35.090323005434925L243.8928068181818,50.9315635287917L244.05675000000002,32.3767669837932L244.08407386363635,44.13159076564523L245.23167613636363,46.56483928848857L245.45026704545452,31.47285506605047L245.66885795454547,28.348814332005787L245.6961818181818,27.702137900058545L246.1606875,43.163942545312125L246.51589772727274,30.76886944021294L246.6251931818182,62.51355597412409L246.9257556818182,34.77423941997702L247.25364204545454,60.2235342266019L247.33561363636363,37.419338251573265L247.39026136363637,29.579736351408997L247.49955681818182,34.19520542474166L247.7181477272727,44.50800752292153L249.35757954545454,59.119290890578085L249.52152272727272,40.30989321434964L249.54884659090908,33.29721456203703L249.60349431818182,28.726456747675L250.01335227272727,34.01857654676871L250.2046193181818,28.87577867851448L250.8330681818182,46.52601951978582L250.94236363636364,47.06048604059566L251.24292613636365,37.813720610403294L251.3248977272727,29.661373499686817L251.7894034090909,84.1182376477685L251.9533465909091,45.484675193088066L252.3085568181818,40.60666109830254L252.8550340909091,33.35864551401528L253.10094886363638,31.85830628806781L253.5381306818182,28.428602734963363L253.59277840909093,27.71865409947077L253.8386931818182,33.809961398590445L254.08460795454545,60.023928676174876L254.30319886363637,34.258886569301524L254.84967613636366,47.64032285317876L254.90432386363636,90.95901349727467L254.98629545454543,46.90071579393586L255.04094318181816,34.66151483601138L255.20488636363638,35.24713357105435L255.53277272727271,35.36835664920824L255.5600965909091,29.155183159719428L255.75136363636364,27.869056247395264L255.83333522727273,46.317627976544145L255.96995454545456,43.898215657811306L256.1612215909091,30.920863974500264L256.21586931818183,65.66415217605488L257.60938636363636,82.2134128337767L257.9099488636364,51.328643123258445L257.99192045454544,57.4120291265145L258.12853977272727,58.6712900291885L258.5657215909091,33.978890369375335L258.6750170454545,50.70149697312738L258.7023409090909,32.32914320677071L258.75698863636364,50.3599993104682L259.03022727272725,60.330653190600245L259.1395227272727,43.67977854378759L259.2488181818182,87.02004749189737L259.49473295454544,39.84708316415609L259.52205681818185,30.082279548313664L259.6586761363636,31.18009853316761L259.7679715909091,50.12214706303236L259.79529545454545,69.63881777538101L260.2051534090909,45.60656861283721L261.05219318181815,62.46582636952397L261.3800795454546,34.7643593918248L261.5713465909091,29.03015572744104L261.7079659090909,52.79624223558031L262.0905,39.001022142765095L262.33641477272727,64.21761158355237L262.7462727272727,35.12697893112866L263.0468352272727,32.224351305410295L263.2381022727273,28.50437405355325L263.2654261363636,49.56827209575219L263.5113409090909,60.16676565715403L264.5496477272727,34.28845382436421L264.63161931818183,41.40817660831004L264.68626704545454,64.71589255792017L264.7682386363636,94.49365642615615L264.7955625,88.18112021354766L264.90485795454543,46.32569188420433L265.7792215909091,31.42335155336363L266.1617556818182,40.81510043821294L266.8995,48.99745912404339L267.0634431818182,31.97640737201033L267.17273863636365,65.88264965933945L267.6645681818182,35.471641812816586L267.8011875,35.41482985525303L268.21104545454546,54.11786978003737L268.2930170454546,39.27459904446772L268.37498863636364,36.20204200220479L268.9487897727273,48.042556027789715L269.24935227272726,44.25527576441914L269.6045625,46.59044208323476L269.63188636363634,37.71642151122958L269.905125,29.641232586157855L269.98709659090906,27.969668478668012L270.09639204545454,33.86192137508428L270.56089772727273,35.08161772464243L270.61554545454544,35.33409486900098L270.69751704545456,35.38635763788321L271.2713181818182,32.278042697708486L271.3259659090909,31.634621505092326L271.4625852272727,31.50143331822079L271.7631477272727,75.14173003020503L271.9817386363636,46.745671449585785L272.0910340909091,31.51028732339759L272.5555397727273,34.5948294759433L272.71948295454547,28.995063034853587L272.99272159090907,27.835911381548044L273.0473693181818,27.59596698931378L273.2113125,27.546298500121253L273.3479318181818,27.536017122858425L273.4845511363636,61.84435554443168L273.56652272727274,40.873981597697366L273.97638068181817,30.294847524056678L274.0037045454546,59.29630010414641L274.7414488636364,62.180467454891655L274.96003977272727,47.18182342982925L275.23327840909093,31.600570783308L275.5338409090909,34.61351815214476L276.10764204545455,82.02419825749396L276.27158522727274,57.52774237263458L276.57214772727275,71.17177600446868L276.5994715909091,52.162157632925016L277.47383522727273,32.6314999633488L277.5011590909091,34.826920492413194L277.66510227272727,44.63877254192954L279.0859431818182,52.908092582846066L279.1405909090909,42.143308497982446L279.33185795454546,36.79586485908237L279.4138295454545,69.9994106924967L279.60509659090906,42.56207801334682L280.3428409090909,71.19301681542946L280.9166420454545,45.92828781412723L281.1898806818182,34.46022224419099L281.6270625,38.32459933788087L281.68171022727273,51.601058729608L281.73635795454544,48.111019157028835L281.87297727272727,34.912047632171635L282.7473409090909,57.132927193192856L282.8839602272727,39.898715928990924L283.18452272727274,55.04603419730111L283.2118465909091,61.300662412174646L283.23917045454544,34.52317045265349L283.32114204545456,50.81416295036591L283.75832386363635,54.18639839739241L284.4960681818182,42.40791780159353L284.57803977272727,46.20803898492986L285.1245170454545,31.398997403213798L285.2884602272727,31.452659129131916L285.31578409090906,28.344633773063634L286.02620454545456,37.05867252435749L286.2174715909091,51.339011879208655L286.40873863636364,35.58024212566286L287.3104261363636,29.199043453345553L287.39239772727274,46.592935328175884L287.91155113636364,56.431737612932395L287.938875,36.63443635254367L288.18478977272724,32.53639499164319L288.37605681818184,34.80723376327015L288.4580284090909,29.039030722330267L288.64929545454544,71.51287935952237L288.73126704545456,55.35189936075446L289.25042045454546,36.410909834342846L289.3323920454545,38.72839166904228L289.63295454545454,32.96984374215842L289.93351704545455,41.135224321293435L290.2067556818182,98.96985810117441L290.2614034090909,76.63116062694311L290.2887272727273,40.815716916443876L290.3706988636364,33.40192006837054L291.02647159090907,28.748130787486048L291.1630909090909,80.8100630730096L291.19041477272725,51.03814972277965L291.2997102272727,38.63709699261537L291.60027272727274,42.30834574413805" style="fill: none;" fill="none"></path></g></g></g></g><g opacity="0.2"><g><g><g><path stroke="rgb(187, 187, 187)" stroke-width="2px" d="M27.81569318181818,153.4L27.979636363636363,153.4L28.416818181818183,153.4L28.47146590909091,153.4L28.5534375,153.4L28.854,141.6L29.263857954545454,137.66666666666669L29.345829545454546,149.46666666666667L29.892306818181815,137.66666666666669L30.110897727272725,145.53333333333333L30.220193181818182,125.86666666666667L30.766670454545455,149.46666666666667L31.5590625,137.66666666666669L31.641034090909088,149.46666666666667L31.886948863636366,153.4L32.32413068181818,149.46666666666667L32.378778409090906,125.86666666666667L33.58102840909091,145.53333333333333L33.71764772727273,153.4L34.127505681818185,125.86666666666667L34.29144886363636,137.66666666666669L34.42806818181818,137.66666666666669L34.61933522727273,149.46666666666667L34.78327840909091,141.6L35.302431818181816,129.8L35.739613636363636,141.6L35.794261363636366,141.6L36.01285227272727,137.66666666666669L36.58665340909091,137.66666666666669L36.80524431818182,137.66666666666669L37.24242613636364,141.6L37.351721590909094,145.53333333333333L38.82721022727272,153.4L38.85453409090909,137.66666666666669L39.31903977272727,141.6L39.401011363636364,145.53333333333333L39.482982954545456,129.8L39.89284090909091,153.4L39.9748125,153.4L40.00213636363637,118L40.275375000000004,137.66666666666669L40.79452840909091,125.86666666666667L41.36832954545455,137.66666666666669L41.83283522727273,137.66666666666669L41.969454545454546,145.53333333333333L42.707198863636364,149.46666666666667L42.980437499999994,137.66666666666669L43.14438068181818,137.66666666666669L43.33564772727273,153.4L43.36297159090909,137.66666666666669L44.26465909090909,137.66666666666669L44.319306818181815,137.66666666666669L44.64719318181818,137.66666666666669L44.83846022727273,153.4L44.865784090909095,137.66666666666669L44.92043181818182,137.66666666666669L45.00240340909091,137.66666666666669L45.05705113636363,137.66666666666669L45.3849375,137.66666666666669L45.658176136363636,149.46666666666667L46.833102272727274,153.4L46.94239772727273,137.66666666666669L47.05169318181818,137.66666666666669L47.270284090909094,153.4L47.51619886363636,137.66666666666669L47.87140909090909,153.4L47.98070454545454,137.66666666666669L48.22661931818182,137.66666666666669L48.33591477272727,102.26666666666667L48.3905625,94.4L48.445210227272725,137.66666666666669L48.63647727272727,129.8L48.77309659090909,137.66666666666669L48.82774431818182,149.46666666666667L48.96436363636364,133.73333333333335L49.019011363636366,118L49.12830681818182,114.06666666666666L49.23760227272727,137.66666666666669L49.40154545454545,118L49.428869318181825,114.06666666666666L50.05731818181818,114.06666666666666L50.166613636363635,114.06666666666666L51.06830113636363,114.06666666666666L51.25956818181818,114.06666666666666L51.423511363636365,114.06666666666666L51.806045454545455,114.06666666666666L51.91534090909091,114.06666666666666L52.10660795454545,114.06666666666666L52.16125568181818,118L52.37984659090909,114.06666666666666L52.76238068181818,121.93333333333334L52.78970454545455,114.06666666666666L53.06294318181818,114.06666666666666L53.144914772727276,114.06666666666666L53.39082954545455,137.66666666666669L53.500125,114.06666666666666L53.60942045454546,114.06666666666666L53.85533522727273,114.06666666666666L53.882659090909094,114.06666666666666L54.04660227272728,114.06666666666666L54.07392613636364,114.06666666666666L54.21054545454545,114.06666666666666L54.702374999999996,114.06666666666666L54.784346590909095,114.06666666666666L55.03026136363636,114.06666666666666L55.84997727272727,121.93333333333334L56.2051875,118L56.369130681818184,114.06666666666666L56.451102272727276,121.93333333333334L56.50575,118L56.61504545454546,125.86666666666667L56.778988636363636,121.93333333333334L56.91560795454546,121.93333333333334L57.18884659090909,118L57.35278977272728,114.06666666666666L57.489409090909085,114.06666666666666L57.76264772727273,118L58.910250000000005,114.06666666666666L59.01954545454545,125.86666666666667L59.04686931818182,114.06666666666666L59.07419318181818,125.86666666666667L59.566022727272724,114.06666666666666L59.92123295454545,125.86666666666667L60.27644318181819,125.86666666666667L60.98686363636364,114.06666666666666L61.31475,129.8L61.615312499999995,125.86666666666667L61.69728409090909,129.8L61.779255681818185,129.8L62.32573295454545,129.8L62.489676136363634,129.8L62.68094318181818,125.86666666666667L62.84488636363636,129.8L63.282068181818175,129.8L63.364039772727274,129.8L63.66460227272727,129.8L63.74657386363636,125.86666666666667L63.828545454545456,129.8L63.85586931818182,129.8L65.16741477272727,125.86666666666667L65.24938636363636,153.4L65.33135795454545,125.86666666666667L65.35868181818182,141.6L65.95980681818182,149.46666666666667L66.28769318181818,153.4L66.56093181818181,145.53333333333333L66.67022727272727,153.4L67.35332386363636,114.06666666666666L67.38064772727273,118L67.68121022727273,137.66666666666669L67.89980113636364,153.4L68.0090965909091,114.06666666666666L68.06374431818182,137.66666666666669L68.93810795454546,137.66666666666669L69.0474034090909,125.86666666666667L69.7305,102.26666666666667L70.16768181818182,114.06666666666666L70.19500568181819,153.4L70.60486363636363,114.06666666666666L70.71415909090909,102.26666666666667L71.1513409090909,90.46666666666667L71.17866477272727,102.26666666666667L71.77978977272727,59L71.9164090909091,59L72.05302840909091,114.06666666666666L72.13499999999999,27.53333333333333L72.27161931818182,55.06666666666666L72.35359090909091,66.86666666666666L72.68147727272728,62.93333333333332L72.90006818181818,27.53333333333333L73.09133522727274,55.06666666666666L73.28260227272727,86.53333333333335L73.52851704545454,114.06666666666666L73.6378125,66.86666666666666L73.69246022727273,78.66666666666666L73.74710795454546,59L73.82907954545455,66.86666666666666L74.0203465909091,62.93333333333332L74.26626136363636,82.6L74.5395,59L74.64879545454545,70.8L74.70344318181819,47.20000000000002L74.78541477272728,114.06666666666666L74.9220340909091,51.133333333333326L75.00400568181819,114.06666666666666L75.03132954545454,70.8L75.57780681818181,43.26666666666668L75.82372159090909,94.4L75.98766477272727,114.06666666666666L76.17893181818181,55.06666666666666L76.20625568181818,90.46666666666667L76.45217045454545,35.400000000000006L76.6434375,55.06666666666666L77.21723863636365,66.86666666666666L77.32653409090909,78.66666666666666L77.59977272727272,51.133333333333326L77.70906818181818,35.400000000000006L77.95498295454546,62.93333333333332L78.31019318181818,62.93333333333332L78.39216477272728,66.86666666666666L78.55610795454545,114.06666666666666L78.61075568181818,118L79.53976704545454,59L79.70371022727272,82.6L80.1682159090909,43.26666666666668L80.44145454545453,51.133333333333326L80.52342613636364,78.66666666666666L80.57807386363636,86.53333333333335L81.0699034090909,86.53333333333335L81.4524375,55.06666666666666L81.50708522727273,114.06666666666666L81.99891477272726,137.66666666666669L82.10821022727274,31.46666666666667L82.32680113636364,31.46666666666667L82.79130681818182,55.06666666666666L82.95525,47.20000000000002L83.61102272727273,59L83.96623295454546,59L84.04820454545454,31.46666666666667L84.07552840909091,66.86666666666666L84.13017613636363,35.400000000000006L84.18482386363637,66.86666666666666L84.29411931818181,59L84.40341477272727,66.86666666666666L84.59468181818183,129.8L85.00453977272727,74.73333333333335L85.93355113636363,47.20000000000002L86.0428465909091,55.06666666666666L86.23411363636363,51.133333333333326L86.4800284090909,47.20000000000002L86.80791477272727,51.133333333333326L87.0811534090909,35.400000000000006L87.13580113636363,70.8L87.19044886363636,27.53333333333333L87.32706818181818,43.26666666666668L87.40903977272727,43.26666666666668L87.62763068181819,27.53333333333333L87.73692613636364,35.400000000000006L88.28340340909091,43.26666666666668L88.42002272727272,59L88.44734659090909,31.46666666666667L88.50199431818183,27.53333333333333L88.5839659090909,31.46666666666667L88.69326136363635,35.400000000000006L88.72058522727272,47.20000000000002L88.91185227272727,27.53333333333333L88.99382386363635,27.53333333333333L89.13044318181818,51.133333333333326L89.6495965909091,62.93333333333332L89.92283522727271,35.400000000000006L90.08677840909091,39.33333333333334L90.25072159090908,35.400000000000006L90.36001704545455,35.400000000000006L90.68790340909091,62.93333333333332L90.71522727272728,70.8L91.39832386363636,55.06666666666666L91.64423863636364,62.93333333333332L92.60057386363636,43.26666666666668L92.62789772727272,51.133333333333326L92.68254545454545,27.53333333333333L93.06507954545455,27.53333333333333L93.88479545454545,39.33333333333334L94.10338636363636,35.400000000000006L94.29465340909091,70.8L94.34930113636364,62.93333333333332L94.40394886363636,27.53333333333333L94.54056818181819,31.46666666666667L95.22366477272728,27.53333333333333L95.25098863636364,43.26666666666668L95.52422727272727,59L95.578875,51.133333333333326L95.71549431818181,114.06666666666666L96.09802840909092,35.400000000000006L96.26197159090908,43.26666666666668L96.50788636363636,47.20000000000002L96.91774431818182,35.400000000000006L97.02703977272728,39.33333333333334L97.0816875,43.26666666666668L97.76478409090909,125.86666666666667L98.09267045454546,43.26666666666668L98.36590909090908,43.26666666666668L98.52985227272728,94.4L98.99435795454545,66.86666666666666L99.15830113636365,43.26666666666668L99.185625,59L99.56815909090909,39.33333333333334L99.73210227272727,47.20000000000002L99.86872159090909,39.33333333333334L100.49717045454545,39.33333333333334L100.6884375,43.26666666666668L100.82505681818182,39.33333333333334L101.18026704545454,47.20000000000002L101.3715340909091,51.133333333333326L101.78139204545454,43.26666666666668L102.1092784090909,55.06666666666666L102.19125000000001,39.33333333333334L102.5737840909091,55.06666666666666L102.60110795454545,55.06666666666666L102.65575568181818,27.53333333333333L103.53011931818182,62.93333333333332L103.55744318181819,55.06666666666666L103.58476704545454,66.86666666666666L104.07659659090909,39.33333333333334L104.48645454545455,39.33333333333334L105.79799999999999,27.53333333333333L106.04391477272728,39.33333333333334L106.28982954545455,55.06666666666666L106.45377272727274,39.33333333333334L106.56306818181818,27.53333333333333L107.02757386363636,47.20000000000002L107.0822215909091,62.93333333333332L107.10954545454545,31.46666666666667L108.39376704545455,86.53333333333335L108.61235795454546,55.06666666666666L109.24080681818182,27.53333333333333L109.48672159090908,70.8L109.59601704545454,35.400000000000006L109.70531249999999,27.53333333333333L110.03319886363636,86.53333333333335L110.11517045454546,31.46666666666667L110.33376136363636,70.8L110.41573295454545,27.53333333333333L111.0715056818182,27.53333333333333L111.18080113636364,35.400000000000006L111.23544886363636,39.33333333333334L112.00051704545456,31.46666666666667L112.62896590909091,27.53333333333333L113.03882386363637,35.400000000000006L113.25741477272727,114.06666666666666L113.39403409090909,27.53333333333333L113.53065340909092,47.20000000000002L113.69459659090909,47.20000000000002L114.13177840909091,51.133333333333326L114.62360795454545,59L114.65093181818182,43.26666666666668L114.84219886363637,55.06666666666666L114.92417045454545,62.93333333333332L115.57994318181818,27.53333333333333L115.66191477272727,31.46666666666667L115.85318181818181,55.06666666666666L115.93515340909092,55.06666666666666L115.96247727272728,86.53333333333335L116.01712500000001,31.46666666666667L116.04444886363636,47.20000000000002L116.72754545454545,39.33333333333334L116.97346022727272,31.46666666666667L117.62923295454546,62.93333333333332L117.84782386363636,27.53333333333333L118.23035795454545,27.53333333333333L118.25768181818182,86.53333333333335L118.7221875,51.133333333333326L119.51457954545454,55.06666666666666L119.56922727272726,55.06666666666666L119.8424659090909,27.53333333333333L120.3069715909091,78.66666666666666L120.4435909090909,62.93333333333332L121.04471590909091,27.53333333333333L121.1266875,27.53333333333333L121.26330681818182,90.46666666666667L121.56386931818182,27.53333333333333L121.61851704545454,35.400000000000006L121.80978409090909,70.8L121.97372727272727,27.53333333333333L122.16499431818183,114.06666666666666L122.3289375,27.53333333333333L122.4109090909091,51.133333333333326L122.87541477272727,82.6L123.20330113636363,55.06666666666666L123.28527272727274,94.4L123.47653977272726,59L123.91372159090909,27.53333333333333L123.96836931818181,82.6L124.1323125,55.06666666666666L124.24160795454546,43.26666666666668L124.67878977272727,78.66666666666666L125.14329545454547,27.53333333333333L125.68977272727273,43.26666666666668L126.18160227272728,35.400000000000006L126.23625,74.73333333333335L126.29089772727272,43.26666666666668L126.37286931818183,55.06666666666666L126.4548409090909,51.133333333333326L126.9193465909091,62.93333333333332L127.2199090909091,59L127.60244318181819,39.33333333333334L128.42215909090908,70.8L128.4768068181818,78.66666666666666L129.13257954545455,55.06666666666666L129.241875,31.46666666666667L129.29652272727273,43.26666666666668L129.4604659090909,35.400000000000006L129.5424375,114.06666666666666L129.59708522727271,59L129.843,39.33333333333334L130.03426704545456,62.93333333333332L130.38947727272728,43.26666666666668L130.6080681818182,39.33333333333334L130.96327840909092,39.33333333333334L131.01792613636363,27.53333333333333L131.09989772727272,90.46666666666667L131.42778409090909,27.53333333333333L131.53707954545456,43.26666666666668L131.67369886363636,66.86666666666666L131.7283465909091,62.93333333333332L132.00158522727273,98.33333333333334L132.1108806818182,47.20000000000002L132.90327272727274,27.53333333333333L133.03989204545456,27.53333333333333L133.23115909090907,78.66666666666666L134.4334090909091,43.26666666666668L134.65200000000002,39.33333333333334L134.84326704545452,31.46666666666667L134.9525625,86.53333333333335L135.253125,43.26666666666668L135.41706818181817,43.26666666666668L135.58101136363638,39.33333333333334L136.18213636363637,27.53333333333333L136.48269886363636,62.93333333333332L136.6193181818182,55.06666666666666L136.86523295454546,47.20000000000002L136.89255681818182,66.86666666666666L137.22044318181818,43.26666666666668L137.52100568181817,31.46666666666667L137.60297727272726,27.53333333333333L137.87621590909092,35.400000000000006L139.1604375,70.8L139.29705681818183,86.53333333333335L139.32438068181818,43.26666666666668L139.5976193181818,51.133333333333326L141.59226136363637,39.33333333333334L141.89282386363638,74.73333333333335L141.92014772727273,43.26666666666668L141.97479545454547,78.66666666666666L142.02944318181818,31.46666666666667L142.11141477272727,43.26666666666668L142.13873863636363,27.53333333333333L142.82183522727274,47.20000000000002L142.95845454545454,27.53333333333333L143.04042613636364,59L143.25901704545456,35.400000000000006L143.55957954545454,43.26666666666668L143.80549431818181,35.400000000000006L143.8874659090909,27.53333333333333L143.91478977272726,59L144.32464772727272,43.26666666666668L144.76182954545456,27.53333333333333L144.92577272727272,51.133333333333326L145.0350681818182,70.8L145.28098295454546,66.86666666666666L145.33563068181817,55.06666666666666L145.58154545454545,27.53333333333333L145.69084090909092,39.33333333333334L145.8547840909091,31.46666666666667L145.9914034090909,70.8L146.70182386363635,39.33333333333334L146.94773863636362,55.06666666666666L147.35759659090908,51.133333333333326L147.54886363636365,55.06666666666666L147.71280681818183,39.33333333333334L147.82210227272728,62.93333333333332L147.84942613636363,55.06666666666666L148.36857954545454,59L148.45055113636363,35.400000000000006L149.43421022727273,31.46666666666667L149.5981534090909,55.06666666666666L150.00801136363637,35.400000000000006L150.06265909090908,31.46666666666667L150.52716477272728,43.26666666666668L150.55448863636363,27.53333333333333L151.07364204545456,27.53333333333333L151.1009659090909,82.6L151.1829375,74.73333333333335L151.42885227272728,27.53333333333333L151.72941477272727,39.33333333333334L152.41251136363636,70.8L152.49448295454545,39.33333333333334L152.79504545454546,27.53333333333333L152.87701704545455,39.33333333333334L152.9316647727273,70.8L152.9863125,39.33333333333334L153.31419886363634,27.53333333333333L153.77870454545456,66.86666666666666L154.35250568181817,39.33333333333334L154.54377272727274,43.26666666666668L154.76236363636363,27.53333333333333L154.8716590909091,70.8L155.06292613636361,35.400000000000006L155.09025,47.20000000000002L155.11757386363635,35.400000000000006L155.3908125,27.53333333333333L156.10123295454545,35.400000000000006L156.23785227272728,78.66666666666666L156.67503409090907,62.93333333333332L156.97559659090908,27.53333333333333L157.08489204545455,35.400000000000006L157.1122159090909,27.53333333333333L157.33080681818183,43.26666666666668L157.49475,39.33333333333334L157.57672159090907,35.400000000000006L157.82263636363635,27.53333333333333L157.93193181818182,27.53333333333333L158.12319886363636,27.53333333333333L158.15052272727274,55.06666666666666L158.3144659090909,43.26666666666668L158.47840909090908,27.53333333333333L158.53305681818185,35.400000000000006L158.6150284090909,27.53333333333333L159.57136363636363,114.06666666666666L159.89925,43.26666666666668L160.4184034090909,43.26666666666668L160.47305113636364,55.06666666666666L160.99220454545457,35.400000000000006L161.04685227272728,43.26666666666668L161.59332954545457,31.46666666666667L162.2491022727273,31.46666666666667L162.33107386363636,27.53333333333333L162.68628409090908,39.33333333333334L162.904875,43.26666666666668L163.15078977272728,43.26666666666668L163.23276136363637,35.400000000000006L163.28740909090908,27.53333333333333L163.31473295454546,39.33333333333334L164.51698295454545,39.33333333333334L164.68092613636364,55.06666666666666L164.76289772727273,39.33333333333334L164.9541647727273,43.26666666666668L165.30937500000002,35.400000000000006L165.36402272727273,31.46666666666667L165.39134659090908,59L165.58261363636365,66.86666666666666L166.0744431818182,27.53333333333333L166.70289204545452,31.46666666666667L166.83951136363635,55.06666666666666L167.38598863636363,35.400000000000006L167.44063636363637,31.46666666666667L167.60457954545453,35.400000000000006L168.31500000000003,82.6L168.4516193181818,35.400000000000006L168.80682954545455,27.53333333333333L168.91612500000002,74.73333333333335L169.40795454545454,27.53333333333333L169.62654545454546,39.33333333333334L170.25499431818182,35.400000000000006L170.36428977272726,78.66666666666666L170.47358522727274,35.400000000000006L170.5009090909091,35.400000000000006L171.21132954545453,55.06666666666666L171.8397784090909,43.26666666666668L172.63217045454547,27.53333333333333L172.93273295454546,66.86666666666666L173.36991477272727,43.26666666666668L173.75244886363637,51.133333333333326L173.7797727272727,90.46666666666667L174.32625,51.133333333333326L174.98202272727272,31.46666666666667L175.03667045454546,43.26666666666668L175.41920454545453,39.33333333333334L175.93835795454544,51.133333333333326L176.02032954545453,35.400000000000006L176.15694886363636,27.53333333333333L177.1679318181818,39.33333333333334L177.35919886363638,31.46666666666667L177.46849431818183,51.133333333333326L177.63243749999998,70.8L177.7963806818182,66.86666666666666L177.933,55.06666666666666L178.01497159090908,27.53333333333333L178.06961931818182,86.53333333333335L178.72539204545456,51.133333333333326L178.94398295454545,55.06666666666666L179.40848863636364,47.20000000000002L179.54510795454544,62.93333333333332L179.59975568181815,51.133333333333326L179.92764204545455,51.133333333333326L179.98228977272726,31.46666666666667L180.14623295454544,78.66666666666666L180.47411931818183,39.33333333333334L180.61073863636364,27.53333333333333L180.88397727272726,27.53333333333333L181.15721590909092,43.26666666666668L181.9222840909091,78.66666666666666L181.9769318181818,43.26666666666668L182.08622727272726,39.33333333333334L182.49608522727272,27.53333333333333L183.61636363636364,66.86666666666666L183.6983352272727,31.46666666666667L184.1901647727273,39.33333333333334L184.68199431818184,31.46666666666667L185.1465,90.46666666666667L185.2284715909091,35.400000000000006L185.3650909090909,27.53333333333333L185.50171022727272,59L185.99353977272727,39.33333333333334L186.02086363636366,47.20000000000002L186.48536931818182,82.6L186.5673409090909,27.53333333333333L186.75860795454545,35.400000000000006L187.49635227272728,55.06666666666666L187.551,43.26666666666668L187.74226704545455,31.46666666666667L188.2340965909091,31.46666666666667L188.28874431818184,35.400000000000006L188.48001136363638,51.133333333333326L188.72592613636363,59L188.99916477272728,27.53333333333333L189.29972727272727,39.33333333333334L189.4090227272727,31.46666666666667L189.4363465909091,39.33333333333334L189.9555,59L190.09211931818183,27.53333333333333L190.14676704545457,39.33333333333334L190.2560625,27.53333333333333L190.5019772727273,51.133333333333326L190.99380681818184,27.53333333333333L191.5402840909091,59L191.6769034090909,43.26666666666668L191.92281818181817,27.53333333333333L192.08676136363636,27.53333333333333L192.11408522727274,35.400000000000006L192.22338068181818,55.06666666666666L192.30535227272728,35.400000000000006L192.90647727272727,43.26666666666668L193.39830681818182,31.46666666666667L193.50760227272727,35.400000000000006L193.64422159090907,39.33333333333334L194.0814034090909,27.53333333333333L194.13605113636362,51.133333333333326L194.40928977272728,35.400000000000006L194.57323295454546,27.53333333333333L194.62788068181817,27.53333333333333L194.79182386363635,31.46666666666667L194.8464715909091,35.400000000000006L194.90111931818183,39.33333333333334L195.22900568181817,31.46666666666667L195.2836534090909,27.53333333333333L195.33830113636364,78.66666666666666L195.96675000000002,27.53333333333333L196.2126647727273,55.06666666666666L196.29463636363636,35.400000000000006L196.73181818181817,51.133333333333326L197.0050568181818,31.46666666666667L197.03238068181818,31.46666666666667L197.0870284090909,31.46666666666667L197.25097159090907,47.20000000000002L197.6061818181818,39.33333333333334L197.74280113636362,27.53333333333333L197.9340681818182,39.33333333333334L198.09801136363635,39.33333333333334L198.45322159090907,70.8L199.16364204545457,35.400000000000006L199.79209090909092,59L199.90138636363636,27.53333333333333L199.92871022727275,39.33333333333334L200.11997727272728,27.53333333333333L200.58448295454545,55.06666666666666L200.88504545454546,39.33333333333334L201.18560795454545,43.26666666666668L201.376875,35.400000000000006L201.5408181818182,35.400000000000006L202.1965909090909,27.53333333333333L203.6994034090909,47.20000000000002L203.80869886363635,39.33333333333334L204.16390909090907,27.53333333333333L204.46447159090908,43.26666666666668L204.57376704545453,35.400000000000006L204.79235795454545,35.400000000000006L204.8196818181818,31.46666666666667L204.92897727272725,31.46666666666667L205.2022159090909,31.46666666666667L205.47545454545454,55.06666666666666L205.50277840909092,51.133333333333326L205.53010227272725,27.53333333333333L205.7486931818182,31.46666666666667L206.29517045454546,31.46666666666667L206.9509431818182,39.33333333333334L207.11488636363637,74.73333333333335L207.14221022727273,74.73333333333335L207.22418181818182,70.8L207.49742045454548,27.53333333333333L207.74333522727275,35.400000000000006L207.82530681818182,31.46666666666667L208.09854545454547,27.53333333333333L208.23516477272727,39.33333333333334L209.21882386363637,27.53333333333333L209.46473863636365,31.46666666666667L209.51938636363636,27.53333333333333L209.6286818181818,27.53333333333333L209.792625,78.66666666666666L209.87459659090908,27.53333333333333L210.06586363636364,27.53333333333333L210.28445454545454,35.400000000000006L210.36642613636363,31.46666666666667L210.58501704545455,39.33333333333334L210.6943125,35.400000000000006L210.80360795454547,35.400000000000006L211.43205681818182,35.400000000000006L211.54135227272727,39.33333333333334L211.7326193181818,43.26666666666668L211.84191477272725,35.400000000000006L212.14247727272726,31.46666666666667L212.47036363636363,31.46666666666667L212.90754545454547,31.46666666666667L213.59064204545453,31.46666666666667L214.0005,31.46666666666667L214.3830340909091,35.400000000000006L214.60162499999998,31.46666666666667L214.82021590909093,27.53333333333333L214.9841590909091,35.400000000000006L215.01148295454544,27.53333333333333L215.7219034090909,35.400000000000006L216.1044375,51.133333333333326L216.1864090909091,35.400000000000006L216.7875340909091,35.400000000000006L217.25203977272727,27.53333333333333L217.57992613636364,27.53333333333333L217.66189772727273,35.400000000000006L217.8258409090909,27.53333333333333L218.31767045454544,39.33333333333334L218.37231818181817,31.46666666666667L218.86414772727272,31.46666666666667L218.97344318181817,59L219.05541477272726,39.33333333333334L219.5472443181818,35.400000000000006L219.65653977272726,27.53333333333333L219.84780681818182,59L220.20301704545454,55.06666666666666L220.36696022727273,27.53333333333333L220.74949431818183,27.53333333333333L221.07738068181817,66.86666666666666L221.48723863636366,39.33333333333334L221.70582954545455,66.86666666666666L221.7331534090909,39.33333333333334L222.3342784090909,27.53333333333333L222.44357386363637,55.06666666666666L222.82610795454545,27.53333333333333L223.15399431818182,74.73333333333335L223.18131818181817,31.46666666666667L223.37258522727274,70.8L223.7551193181818,70.8L223.9190625,27.53333333333333L224.11032954545456,27.53333333333333L224.16497727272727,31.46666666666667L224.41089204545455,51.133333333333326L224.46553977272728,62.93333333333332L224.4928636363636,43.26666666666668L225.01201704545454,27.53333333333333L225.09398863636363,27.53333333333333L225.3399034090909,39.33333333333334L225.69511363636363,70.8L226.07764772727273,51.133333333333326L226.3508863636364,31.46666666666667L226.78806818181818,27.53333333333333L227.0886306818182,35.400000000000006L227.58046022727274,35.400000000000006L227.85369886363634,43.26666666666668L227.88102272727272,27.53333333333333L228.0449659090909,27.53333333333333L228.23623295454544,39.33333333333334L228.3455284090909,31.46666666666667L228.37285227272727,39.33333333333334L228.40017613636363,31.46666666666667L229.00130113636362,35.400000000000006L229.028625,51.133333333333326L229.13792045454545,59L229.1925681818182,66.86666666666666L229.43848295454546,31.46666666666667L229.5477784090909,62.93333333333332L230.34017045454544,27.53333333333333L230.36749431818183,27.53333333333333L230.61340909090907,27.53333333333333L230.69538068181816,62.93333333333332L230.88664772727273,27.53333333333333L231.15988636363636,27.53333333333333L231.18721022727274,31.46666666666667L231.21453409090907,35.400000000000006L231.24185795454545,78.66666666666666L231.37847727272728,39.33333333333334L231.54242045454546,35.400000000000006L231.6517159090909,27.53333333333333L231.70636363636362,35.400000000000006L232.14354545454546,43.26666666666668L232.30748863636362,35.400000000000006L232.3348125,35.400000000000006L232.5534034090909,31.46666666666667L233.07255681818182,55.06666666666666L233.53706250000002,86.53333333333335L234.24748295454546,27.53333333333333L234.8759318181818,27.53333333333333L235.23114204545456,31.46666666666667L235.31311363636362,59L236.1601534090909,31.46666666666667L236.18747727272728,39.33333333333334L236.6246590909091,27.53333333333333L236.65198295454545,35.400000000000006L236.92522159090908,74.73333333333335L237.0071931818182,47.20000000000002L237.0618409090909,27.53333333333333L237.36240340909092,43.26666666666668L237.52634659090907,27.53333333333333L237.6083181818182,47.20000000000002L237.71761363636364,27.53333333333333L238.2094431818182,51.133333333333326L238.23676704545454,35.400000000000006L238.34606250000002,39.33333333333334L238.42803409090908,70.8L238.48268181818182,86.53333333333335L238.86521590909092,82.6L238.97451136363637,62.93333333333332L239.27507386363635,82.6L239.35704545454547,59L239.90352272727273,35.400000000000006L240.12211363636362,31.46666666666667L240.39535227272728,39.33333333333334L240.42267613636363,39.33333333333334L240.72323863636365,35.400000000000006L241.35168750000003,31.46666666666667L241.4883068181818,27.53333333333333L241.95281250000002,27.53333333333333L243.1550625,114.06666666666666L243.18238636363637,118L243.29168181818181,51.133333333333326L243.40097727272726,27.53333333333333L243.8928068181818,55.06666666666666L244.05675000000002,27.53333333333333L244.08407386363635,47.20000000000002L245.23167613636363,47.20000000000002L245.45026704545452,27.53333333333333L245.66885795454547,27.53333333333333L245.6961818181818,27.53333333333333L246.1606875,47.20000000000002L246.51589772727274,27.53333333333333L246.6251931818182,70.8L246.9257556818182,27.53333333333333L247.25364204545454,66.86666666666666L247.33561363636363,31.46666666666667L247.39026136363637,27.53333333333333L247.49955681818182,35.400000000000006L247.7181477272727,47.20000000000002L249.35757954545454,62.93333333333332L249.52152272727272,35.400000000000006L249.54884659090908,31.46666666666667L249.60349431818182,27.53333333333333L250.01335227272727,35.400000000000006L250.2046193181818,27.53333333333333L250.8330681818182,51.133333333333326L250.94236363636364,47.20000000000002L251.24292613636365,35.400000000000006L251.3248977272727,27.53333333333333L251.7894034090909,98.33333333333334L251.9533465909091,35.400000000000006L252.3085568181818,39.33333333333334L252.8550340909091,31.46666666666667L253.10094886363638,31.46666666666667L253.5381306818182,27.53333333333333L253.59277840909093,27.53333333333333L253.8386931818182,35.400000000000006L254.08460795454545,66.86666666666666L254.30319886363637,27.53333333333333L254.84967613636366,51.133333333333326L254.90432386363636,102.26666666666667L254.98629545454543,35.400000000000006L255.04094318181816,31.46666666666667L255.20488636363638,35.400000000000006L255.53277272727271,35.400000000000006L255.5600965909091,27.53333333333333L255.75136363636364,27.53333333333333L255.83333522727273,51.133333333333326L255.96995454545456,43.26666666666668L256.1612215909091,27.53333333333333L256.21586931818183,74.73333333333335L257.60938636363636,86.53333333333335L257.9099488636364,43.26666666666668L257.99192045454544,59L258.12853977272727,59L258.5657215909091,27.53333333333333L258.6750170454545,55.06666666666666L258.7023409090909,27.53333333333333L258.75698863636364,55.06666666666666L259.03022727272725,62.93333333333332L259.1395227272727,39.33333333333334L259.2488181818182,98.33333333333334L259.49473295454544,27.53333333333333L259.52205681818185,27.53333333333333L259.6586761363636,31.46666666666667L259.7679715909091,55.06666666666666L259.79529545454545,74.73333333333335L260.2051534090909,39.33333333333334L261.05219318181815,66.86666666666666L261.3800795454546,27.53333333333333L261.5713465909091,27.53333333333333L261.7079659090909,59L262.0905,35.400000000000006L262.33641477272727,70.8L262.7462727272727,27.53333333333333L263.0468352272727,31.46666666666667L263.2381022727273,27.53333333333333L263.2654261363636,55.06666666666666L263.5113409090909,62.93333333333332L264.5496477272727,27.53333333333333L264.63161931818183,43.26666666666668L264.68626704545454,70.8L264.7682386363636,102.26666666666667L264.7955625,86.53333333333335L264.90485795454543,35.400000000000006L265.7792215909091,27.53333333333333L266.1617556818182,43.26666666666668L266.8995,51.133333333333326L267.0634431818182,27.53333333333333L267.17273863636365,74.73333333333335L267.6645681818182,27.53333333333333L267.8011875,35.400000000000006L268.21104545454546,59L268.2930170454546,35.400000000000006L268.37498863636364,35.400000000000006L268.9487897727273,51.133333333333326L269.24935227272726,43.26666666666668L269.6045625,47.20000000000002L269.63188636363634,35.400000000000006L269.905125,27.53333333333333L269.98709659090906,27.53333333333333L270.09639204545454,35.400000000000006L270.56089772727273,35.400000000000006L270.61554545454544,35.400000000000006L270.69751704545456,35.400000000000006L271.2713181818182,31.46666666666667L271.3259659090909,31.46666666666667L271.4625852272727,31.46666666666667L271.7631477272727,86.53333333333335L271.9817386363636,39.33333333333334L272.0910340909091,27.53333333333333L272.5555397727273,35.400000000000006L272.71948295454547,27.53333333333333L272.99272159090907,27.53333333333333L273.0473693181818,27.53333333333333L273.2113125,27.53333333333333L273.3479318181818,27.53333333333333L273.4845511363636,70.8L273.56652272727274,35.400000000000006L273.97638068181817,27.53333333333333L274.0037045454546,66.86666666666666L274.7414488636364,62.93333333333332L274.96003977272727,43.26666666666668L275.23327840909093,27.53333333333333L275.5338409090909,35.400000000000006L276.10764204545455,94.4L276.27158522727274,51.133333333333326L276.57214772727275,74.73333333333335L276.5994715909091,47.20000000000002L277.47383522727273,27.53333333333333L277.5011590909091,35.400000000000006L277.66510227272727,47.20000000000002L279.0859431818182,55.06666666666666L279.1405909090909,39.33333333333334L279.33185795454546,35.400000000000006L279.4138295454545,78.66666666666666L279.60509659090906,35.400000000000006L280.3428409090909,78.66666666666666L280.9166420454545,39.33333333333334L281.1898806818182,31.46666666666667L281.6270625,39.33333333333334L281.68171022727273,55.06666666666666L281.73635795454544,47.20000000000002L281.87297727272727,31.46666666666667L282.7473409090909,62.93333333333332L282.8839602272727,35.400000000000006L283.18452272727274,59L283.2118465909091,62.93333333333332L283.23917045454544,27.53333333333333L283.32114204545456,55.06666666666666L283.75832386363635,55.06666666666666L284.4960681818182,39.33333333333334L284.57803977272727,47.20000000000002L285.1245170454545,27.53333333333333L285.2884602272727,31.46666666666667L285.31578409090906,27.53333333333333L286.02620454545456,39.33333333333334L286.2174715909091,55.06666666666666L286.40873863636364,31.46666666666667L287.3104261363636,27.53333333333333L287.39239772727274,51.133333333333326L287.91155113636364,59L287.938875,31.46666666666667L288.18478977272724,31.46666666666667L288.37605681818184,35.400000000000006L288.4580284090909,27.53333333333333L288.64929545454544,82.6L288.73126704545456,51.133333333333326L289.25042045454546,31.46666666666667L289.3323920454545,39.33333333333334L289.63295454545454,31.46666666666667L289.93351704545455,43.26666666666668L290.2067556818182,114.06666666666666L290.2614034090909,70.8L290.2887272727273,31.46666666666667L290.3706988636364,31.46666666666667L291.02647159090907,27.53333333333333L291.1630909090909,94.4L291.19041477272725,43.26666666666668L291.2997102272727,35.400000000000006L291.60027272727274,43.26666666666668" style="fill: none;" fill="none"></path></g></g></g></g></g></g><g transform="translate(29, 177)" clip-path="url(#clip_1)"><clipPath id="clip_1"><rect width="300" height="23"></rect></clipPath><g><g><line x1="0" y1="0" x2="0" y2="5" style="visibility: inherit;" fill="rgb(0, 0, 0)" stroke="rgb(204, 204, 204)" stroke-width="1px"></line><line x1="27.323863636363637" y1="0" x2="27.323863636363637" y2="5" style="visibility: inherit;" fill="rgb(0, 0, 0)" stroke="rgb(204, 204, 204)" stroke-width="1px"></line><line x1="54.64772727272727" y1="0" x2="54.64772727272727" y2="5" style="visibility: inherit;" fill="rgb(0, 0, 0)" stroke="rgb(204, 204, 204)" stroke-width="1px"></line><line x1="81.9715909090909" y1="0" x2="81.9715909090909" y2="5" style="visibility: inherit;" fill="rgb(0, 0, 0)" stroke="rgb(204, 204, 204)" stroke-width="1px"></line><line x1="109.29545454545455" y1="0" x2="109.29545454545455" y2="5" style="visibility: inherit;" fill="rgb(0, 0, 0)" stroke="rgb(204, 204, 204)" stroke-width="1px"></line><line x1="136.6193181818182" y1="0" x2="136.6193181818182" y2="5" style="visibility: inherit;" fill="rgb(0, 0, 0)" stroke="rgb(204, 204, 204)" stroke-width="1px"></line><line x1="163.9431818181818" y1="0" x2="163.9431818181818" y2="5" style="visibility: inherit;" fill="rgb(0, 0, 0)" stroke="rgb(204, 204, 204)" stroke-width="1px"></line><line x1="191.26704545454544" y1="0" x2="191.26704545454544" y2="5" style="visibility: inherit;" fill="rgb(0, 0, 0)" stroke="rgb(204, 204, 204)" stroke-width="1px"></line><line x1="218.5909090909091" y1="0" x2="218.5909090909091" y2="5" style="visibility: inherit;" fill="rgb(0, 0, 0)" stroke="rgb(204, 204, 204)" stroke-width="1px"></line><line x1="245.91477272727275" y1="0" x2="245.91477272727275" y2="5" style="visibility: inherit;" fill="rgb(0, 0, 0)" stroke="rgb(204, 204, 204)" stroke-width="1px"></line><line x1="273.2386363636364" y1="0" x2="273.2386363636364" y2="5" style="visibility: inherit;" fill="rgb(0, 0, 0)" stroke="rgb(204, 204, 204)" stroke-width="1px"></line><line x1="300.5625" y1="0" x2="300.5625" y2="5" style="visibility: inherit;" fill="rgb(0, 0, 0)" stroke="rgb(204, 204, 204)" stroke-width="1px"></line></g><g transform="translate(0, 8)"><text x="0" y="0" dx="0em" dy="0.95em" style="text-anchor: middle; visibility: hidden; font-family: &quot;Helvetica Neue&quot;, sans-serif; font-size: 12px; font-weight: 200;" fill="rgb(50, 49, 63)" stroke="none" stroke-width="1px">-1k</text><text x="27.323863636363637" y="0" dx="0em" dy="0.95em" style="text-anchor: middle; visibility: inherit; font-family: &quot;Helvetica Neue&quot;, sans-serif; font-size: 12px; font-weight: 200;" fill="rgb(50, 49, 63)" stroke="none" stroke-width="1px">0</text><text x="54.64772727272727" y="0" dx="0em" dy="0.95em" style="text-anchor: middle; visibility: inherit; font-family: &quot;Helvetica Neue&quot;, sans-serif; font-size: 12px; font-weight: 200;" fill="rgb(50, 49, 63)" stroke="none" stroke-width="1px">1k</text><text x="81.9715909090909" y="0" dx="0em" dy="0.95em" style="text-anchor: middle; visibility: inherit; font-family: &quot;Helvetica Neue&quot;, sans-serif; font-size: 12px; font-weight: 200;" fill="rgb(50, 49, 63)" stroke="none" stroke-width="1px">2k</text><text x="109.29545454545455" y="0" dx="0em" dy="0.95em" style="text-anchor: middle; visibility: inherit; font-family: &quot;Helvetica Neue&quot;, sans-serif; font-size: 12px; font-weight: 200;" fill="rgb(50, 49, 63)" stroke="none" stroke-width="1px">3k</text><text x="136.6193181818182" y="0" dx="0em" dy="0.95em" style="text-anchor: middle; visibility: inherit; font-family: &quot;Helvetica Neue&quot;, sans-serif; font-size: 12px; font-weight: 200;" fill="rgb(50, 49, 63)" stroke="none" stroke-width="1px">4k</text><text x="163.9431818181818" y="0" dx="0em" dy="0.95em" style="text-anchor: middle; visibility: inherit; font-family: &quot;Helvetica Neue&quot;, sans-serif; font-size: 12px; font-weight: 200;" fill="rgb(50, 49, 63)" stroke="none" stroke-width="1px">5k</text><text x="191.26704545454544" y="0" dx="0em" dy="0.95em" style="text-anchor: middle; visibility: inherit; font-family: &quot;Helvetica Neue&quot;, sans-serif; font-size: 12px; font-weight: 200;" fill="rgb(50, 49, 63)" stroke="none" stroke-width="1px">6k</text><text x="218.5909090909091" y="0" dx="0em" dy="0.95em" style="text-anchor: middle; visibility: inherit; font-family: &quot;Helvetica Neue&quot;, sans-serif; font-size: 12px; font-weight: 200;" fill="rgb(50, 49, 63)" stroke="none" stroke-width="1px">7k</text><text x="245.91477272727275" y="0" dx="0em" dy="0.95em" style="text-anchor: middle; visibility: inherit; font-family: &quot;Helvetica Neue&quot;, sans-serif; font-size: 12px; font-weight: 200;" fill="rgb(50, 49, 63)" stroke="none" stroke-width="1px">8k</text><text x="273.2386363636364" y="0" dx="0em" dy="0.95em" style="text-anchor: middle; visibility: inherit; font-family: &quot;Helvetica Neue&quot;, sans-serif; font-size: 12px; font-weight: 200;" fill="rgb(50, 49, 63)" stroke="none" stroke-width="1px">9k</text><text x="300.5625" y="0" dx="0em" dy="0.95em" style="text-anchor: middle; visibility: hidden; font-family: &quot;Helvetica Neue&quot;, sans-serif; font-size: 12px; font-weight: 200;" fill="rgb(50, 49, 63)" stroke="none" stroke-width="1px">10k</text></g><line x1="0" y1="0" x2="300.5625" y2="0" fill="rgb(0, 0, 0)" stroke="rgb(204, 204, 204)" stroke-width="1px"></line></g></g></g></g></svg>