<svg viewBox="0 0 330 200" xmlns="http://www.w3.org/2000/svg"><g><g><g><g><g><line x1="58.59375" y1="174.4501809637676" x2="53.59375" y2="174.4501809637676" style="visibility: inherit;" fill="rgb(0, 0, 0)" stroke="rgb(204, 204, 204)" stroke-width="1px"></line><line x1="58.59375" y1="156.0133083613582" x2="53.59375" y2="156.0133083613582" style="visibility: inherit;" fill="rgb(0, 0, 0)" stroke="rgb(204, 204, 204)" stroke-width="1px"></line><line x1="58.59375" y1="137.57643575894883" x2="53.59375" y2="137.57643575894883" style="visibility: inherit;" fill="rgb(0, 0, 0)" stroke="rgb(204, 204, 204)" stroke-width="1px"></line><line x1="58.59375" y1="119.13956315653947" x2="53.59375" y2="119.13956315653947" style="visibility: inherit;" fill="rgb(0, 0, 0)" stroke="rgb(204, 204, 204)" stroke-width="1px"></line><line x1="58.59375" y1="100.70269055413009" x2="53.59375" y2="100.70269055413009" style="visibility: inherit;" fill="rgb(0, 0, 0)" stroke="rgb(204, 204, 204)" stroke-width="1px"></line><line x1="58.59375" y1="82.26581795172072" x2="53.59375" y2="82.26581795172072" style="visibility: inherit;" fill="rgb(0, 0, 0)" stroke="rgb(204, 204, 204)" stroke-width="1px"></line><line x1="58.59375" y1="63.828945349311326" x2="53.59375" y2="63.828945349311326" style="visibility: inherit;" fill="rgb(0, 0, 0)" stroke="rgb(204, 204, 204)" stroke-width="1px"></line><line x1="58.59375" y1="45.39207274690196" x2="53.59375" y2="45.39207274690196" style="visibility: inherit;" fill="rgb(0, 0, 0)" stroke="rgb(204, 204, 204)" stroke-width="1px"></line><line x1="58.59375" y1="26.95520014449258" x2="53.59375" y2="26.95520014449258" style="visibility: inherit;" fill="rgb(0, 0, 0)" stroke="rgb(204, 204, 204)" stroke-width="1px"></line><line x1="58.59375" y1="8.518327542083199" x2="53.59375" y2="8.518327542083199" style="visibility: inherit;" fill="rgb(0, 0, 0)" stroke="rgb(204, 204, 204)" stroke-width="1px"></line></g><g transform="translate(48.59375, 0)"><text x="0" y="174.4501809637676" dx="0em" dy="0.3em" style="text-anchor: end; visibility: hidden; font-family: &quot;Helvetica Neue&quot;, sans-serif; font-size: 12px; font-weight: 200;" fill="rgb(50, 49, 63)" stroke="none" stroke-width="1px">-10.5</text><text x="0" y="156.0133083613582" dx="0em" dy="0.3em" style="text-anchor: end; visibility: inherit; font-family: &quot;Helvetica Neue&quot;, sans-serif; font-size: 12px; font-weight: 200;" fill="rgb(50, 49, 63)" stroke="none" stroke-width="1px">-10</text><text x="0" y="137.57643575894883" dx="0em" dy="0.3em" style="text-anchor: end; visibility: hidden; font-family: &quot;Helvetica Neue&quot;, sans-serif; font-size: 12px; font-weight: 200;" fill="rgb(50, 49, 63)" stroke="none" stroke-width="1px">-9.5</text><text x="0" y="119.13956315653947" dx="0em" dy="0.3em" style="text-anchor: end; visibility: inherit; font-family: &quot;Helvetica Neue&quot;, sans-serif; font-size: 12px; font-weight: 200;" fill="rgb(50, 49, 63)" stroke="none" stroke-width="1px">-9</text><text x="0" y="100.70269055413009" dx="0em" dy="0.3em" style="text-anchor: end; visibility: hidden; font-family: &quot;Helvetica Neue&quot;, sans-serif; font-size: 12px; font-weight: 200;" fill="rgb(50, 49, 63)" stroke="none" stroke-width="1px">-8.5</text><text x="0" y="82.26581795172072" dx="0em" dy="0.3em" style="text-anchor: end; visibility: inherit; font-family: &quot;Helvetica Neue&quot;, sans-serif; font-size: 12px; font-weight: 200;" fill="rgb(50, 49, 63)" stroke="none" stroke-width="1px">-8</text><text x="0" y="63.828945349311326" dx="0em" dy="0.3em" style="text-anchor: end; visibility: hidden; font-family: &quot;Helvetica Neue&quot;, sans-serif; font-size: 12px; font-weight: 200;" fill="rgb(50, 49, 63)" stroke="none" stroke-width="1px">-7.5</text><text x="0" y="45.39207274690196" dx="0em" dy="0.3em" style="text-anchor: end; visibility: inherit; font-family: &quot;Helvetica Neue&quot;, sans-serif; font-size: 12px; font-weight: 200;" fill="rgb(50, 49, 63)" stroke="none" stroke-width="1px">-7</text><text x="0" y="26.95520014449258" dx="0em" dy="0.3em" style="text-anchor: end; visibility: hidden; font-family: &quot;Helvetica Neue&quot;, sans-serif; font-size: 12px; font-weight: 200;" fill="rgb(50, 49, 63)" stroke="none" stroke-width="1px">-6.5</text><text x="0" y="8.518327542083199" dx="0em" dy="0.3em" style="text-anchor: end; visibility: inherit; font-family: &quot;Helvetica Neue&quot;, sans-serif; font-size: 12px; font-weight: 200;" fill="rgb(50, 49, 63)" stroke="none" stroke-width="1px">-6</text></g><line x1="58.59375" y1="0" x2="58.59375" y2="177" fill="rgb(0, 0, 0)" stroke="rgb(204, 204, 204)" stroke-width="1px"></line></g></g><g transform="translate(58, 0)" clip-path="url(#clip_0)"><clipPath id="clip_0"><rect width="271" height="177"></rect></clipPath><g><g><g><line x1="6.741093265518328" y1="0" x2="6.741093265518328" y2="177" fill="rgb(0, 0, 0)" stroke="rgb(60, 60, 60)" stroke-width="1px" opacity="0.25"></line><line x1="32.72513694319953" y1="0" x2="32.72513694319953" y2="177" fill="rgb(0, 0, 0)" stroke="rgb(60, 60, 60)" stroke-width="1px" opacity="0.25"></line><line x1="58.70918062088073" y1="0" x2="58.70918062088073" y2="177" fill="rgb(0, 0, 0)" stroke="rgb(60, 60, 60)" stroke-width="1px" opacity="0.25"></line><line x1="84.69322429856193" y1="0" x2="84.69322429856193" y2="177" fill="rgb(0, 0, 0)" stroke="rgb(60, 60, 60)" stroke-width="1px" opacity="0.25"></line><line x1="110.67726797624313" y1="0" x2="110.67726797624313" y2="177" fill="rgb(0, 0, 0)" stroke="rgb(60, 60, 60)" stroke-width="1px" opacity="0.25"></line><line x1="136.66131165392432" y1="0" x2="136.66131165392432" y2="177" fill="rgb(0, 0, 0)" stroke="rgb(60, 60, 60)" stroke-width="1px" opacity="0.25"></line><line x1="162.64535533160551" y1="0" x2="162.64535533160551" y2="177" fill="rgb(0, 0, 0)" stroke="rgb(60, 60, 60)" stroke-width="1px" opacity="0.25"></line><line x1="188.62939900928674" y1="0" x2="188.62939900928674" y2="177" fill="rgb(0, 0, 0)" stroke="rgb(60, 60, 60)" stroke-width="1px" opacity="0.25"></line><line x1="214.61344268696791" y1="0" x2="214.61344268696791" y2="177" fill="rgb(0, 0, 0)" stroke="rgb(60, 60, 60)" stroke-width="1px" opacity="0.25"></line><line x1="240.59748636464911" y1="0" x2="240.59748636464911" y2="177" fill="rgb(0, 0, 0)" stroke="rgb(60, 60, 60)" stroke-width="1px" opacity="0.25"></line><line x1="266.5815300423303" y1="0" x2="266.5815300423303" y2="177" fill="rgb(0, 0, 0)" stroke="rgb(60, 60, 60)" stroke-width="1px" opacity="0.25"></line></g><g><line x1="0" y1="174.4501809637676" x2="271.40625" y2="174.4501809637676" fill="rgb(0, 0, 0)" stroke="rgb(60, 60, 60)" stroke-width="1px" opacity="0.25"></line><line x1="0" y1="156.0133083613582" x2="271.40625" y2="156.0133083613582" fill="rgb(0, 0, 0)" stroke="rgb(60, 60, 60)" stroke-width="1px" opacity="0.25"></line><line x1="0" y1="137.57643575894883" x2="271.40625" y2="137.57643575894883" fill="rgb(0, 0, 0)" stroke="rgb(60, 60, 60)" stroke-width="1px" opacity="0.25"></line><line x1="0" y1="119.13956315653947" x2="271.40625" y2="119.13956315653947" fill="rgb(0, 0, 0)" stroke="rgb(60, 60, 60)" stroke-width="1px" opacity="0.25"></line><line x1="0" y1="100.70269055413009" x2="271.40625" y2="100.70269055413009" fill="rgb(0, 0, 0)" stroke="rgb(60, 60, 60)" stroke-width="1px" opacity="0.25"></line><line x1="0" y1="82.26581795172072" x2="271.40625" y2="82.26581795172072" fill="rgb(0, 0, 0)" stroke="rgb(60, 60, 60)" stroke-width="1px" opacity="0.25"></line><line x1="0" y1="63.828945349311326" x2="271.40625" y2="63.828945349311326" fill="rgb(0, 0, 0)" stroke="rgb(60, 60, 60)" stroke-width="1px" opacity="0.25"></line><line x1="0" y1="45.39207274690196" x2="271.40625" y2="45.39207274690196" fill="rgb(0, 0, 0)" stroke="rgb(60, 60, 60)" stroke-width="1px" opacity="0.25"></line><line x1="0" y1="26.95520014449258" x2="271.40625" y2="26.95520014449258" fill="rgb(0, 0, 0)" stroke="rgb(60, 60, 60)" stroke-width="1px" opacity="0.25"></line><line x1="0" y1="8.518327542083199" x2="271.40625" y2="8.518327542083199" fill="rgb(0, 0, 0)" stroke="rgb(60, 60, 60)" stroke-width="1px" opacity="0.25"></line></g></g></g><g><g><line x1="0" y1="-212.72414368682934" x2="271.40625" y2="-212.72414368682934" fill="rgb(0, 0, 0)" stroke="rgb(153, 153, 153)" stroke-width="1.5px"></line></g></g><g><g><line x1="6.741093265518328" y1="0" x2="6.741093265518328" y2="177" fill="rgb(0, 0, 0)" stroke="rgb(153, 153, 153)" stroke-width="1.5px"></line></g></g><g><g><g><g><g><path stroke="rgb(187, 187, 187)" stroke-width="2px" d="M7.20880605171659,156.0133083613582L7.364710313782677,156.0133083613582L7.780455012625577,156.0133083613582L7.8324230999809386,156.01330836135827L7.910375231013982,156.01330836135827L8.196199711468475,156.01330836135827L8.585960366633694,156.0133083613582L8.663912497666738,156.01330836135827L9.183593371220361,156.0133083613582L9.391465720641811,156.01330836135827L9.495401895352536,156.0133083613582L10.01508276890616,156.0133083613582L10.768620035558914,156.0133083613582L10.846572166591958,156.0133083613582L11.080428559691088,156.01330836135827L11.496173258533988,156.01330836135827L11.54814134588935,156.01330836135827L12.691439267707324,156.0133083613582L12.82135948609573,156.01330836135827L13.211120141260947,156.01330836135827L13.367024403327035,156.0133083613582L13.496944621715441,156.0133083613582L13.678832927459208,156.0133083613582L13.834737189525297,156.0133083613582L14.328434019401238,156.0133083613582L14.744178718244138,156.0133083613582L14.7961468055995,156.0133083613582L15.00401915502095,156.0133083613582L15.549684072252255,156.0133083613582L15.757556421673705,156.0133083613582L16.173301120516605,156.0133083613582L16.27723729522733,156.0133083613582L17.680375653822114,156.0133083613582L17.706359697499796,156.0133083613582L18.148088440020377,156.0133083613582L18.22604057105342,156.0133083613582L18.30399270208646,156.0133083613582L18.69375335725168,156.0133083613582L18.771705488284724,156.0133083613582L18.79768953196241,156.0133083613582L19.057529968739217,156.0133083613582L19.55122679861516,156.0133083613582L20.096891715846468,156.0133083613582L20.53862045836705,156.0133083613582L20.668540676755455,156.0133083613582L21.370109856052842,156.0133083613582L21.629950292829655,156.0133083613582L21.785854554895742,156.0133083613582L21.96774286063951,156.0133083613582L21.993726904317196,156.0133083613582L22.851200345680674,156.0133083613582L22.903168433036036,156.0133083613582L23.214976957168208,156.0133083613582L23.396865262911977,156.0133083613582L23.42284930658966,156.0133083613582L23.47481739394502,156.0133083613582L23.552769524978064,156.0133083613582L23.60473761233343,156.0133083613582L23.916546136465602,156.0133083613582L24.176386573242414,156.0133083613582L25.293700451382705,156.0133083613582L25.39763662609343,156.0133083613582L25.501572800804155,156.0133083613582L25.709445150225605,156.0133083613582L25.943301543324736,156.0133083613582L26.28109411113459,156.0133083613582L26.385030285845318,156.0133083613582L26.61888667894445,156.0133083613582L26.72282285365517,156.0133083613582L26.774790941010536,156.0133083613582L26.826759028365895,156.0133083613582L27.008647334109664,156.0133083613582L27.13856755249807,156.0133083613582L27.190535639853437,156.0133083613582L27.32045585824184,156.0133083613582L27.372423945597202,156.0133083613582L27.476360120307923,156.0133083613582L27.580296295018652,156.0133083613582L27.736200557084736,156.0133083613582L27.762184600762417,156.0133083613582L28.35981760534909,156.0133083613582L28.46375378005981,156.0133083613582L29.321227221423293,156.0133083613582L29.50311552716706,156.0133083613582L29.65901978923315,156.0133083613582L30.022796400720683,156.0133083613582L30.126732575431408,156.0133083613582L30.308620881175177,156.0133083613582L30.36058896853054,156.0133083613582L30.56846131795199,156.0133083613582L30.932237929439523,156.0133083613582L30.958221973117208,156.0133083613582L31.218062409894017,156.0133083613582L31.296014540927064,156.0133083613582L31.529870934026196,156.0133083613582L31.633807108736917,156.0133083613582L31.737743283447642,156.0133083613582L31.971599676546777,156.0133083613582L31.997583720224455,156.0133083613582L32.15348798229054,156.0133083613582L32.179472025968224,156.0133083613582L32.30939224435663,156.0133083613582L32.77710503055489,156.0133083613582L32.855057161587936,156.0133083613582L33.08891355468707,156.0133083613582L33.8684348650175,156.0133083613582L34.20622743282736,156.0133083613582L34.36213169489344,156.0133083613582L34.44008382592649,156.0133083613582L34.49205191328185,156.0133083613582L34.59598808799257,156.0133083613582L34.75189235005866,156.0133083613582L34.88181256844707,156.0133083613582L35.14165300522388,156.0133083613582L35.29755726728997,156.0133083613582L35.427477485678374,156.0133083613582L35.687317922455186,156.0133083613582L36.7786477569178,156.0133083613582L36.88258393162852,156.0133083613582L36.908567975306205,156.0133083613582L36.93455201898388,156.0133083613582L37.40226480518214,156.0133083613582L37.740057372992005,156.0133083613582L38.077849940801855,156.0133083613582L38.75343507642157,156.0133083613582L39.06524360055374,156.0133083613582L39.351068081008236,156.0133083613582L39.42902021204128,156.0133083613582L39.506972343074324,156.0133083613582L40.02665321662795,156.0133083613582L40.18255747869403,156.0133083613582L40.3644457844378,156.0133083613582L40.52035004650389,156.0133083613582L40.936094745346786,156.0133083613582L41.01404687637983,156.0133083613582L41.29987135683433,156.0133083613582L41.37782348786737,156.0133083613582L41.45577561890041,156.0133083613582L41.4817596625781,156.0133083613582L42.72899375910679,156.0133083613582L42.806945890139836,156.0133083613582L42.88489802117287,156.0133083613582L42.91088206485056,156.0133083613582L43.48253102575955,156.0133083613582L43.79433954989172,156.0133083613582L44.05417998666853,156.0133083613582L44.158116161379255,156.0133083613582L44.807717253321286,156.0133083613582L44.83370129699897,156.0133083613582L45.11952577745346,156.0133083613582L45.32739812687491,156.0133083613582L45.431334301585636,156.0133083613582L45.483302388941,156.0133083613582L46.31479178662679,156.0133083613582L46.418727961337524,156.0133083613582L47.06832905327955,156.0133083613582L47.484073752122455,156.0133083613582L47.51005779580013,156.0133083613582L47.89981845096535,156.0133083613582L48.00375462567608,156.0133083613582L48.41949932451897,156.0133083613582L48.445483368196655,156.0133083613582L49.01713232910564,156.0133083613582L49.14705254749405,156.0133083613582L49.276972765882455,156.0133083613582L49.3549248969155,156.0133083613582L49.484845115303905,156.0133083613582L49.56279724633695,156.0133083613582L49.874605770469124,156.0133083613582L50.082478119890574,156.0133083613582L50.26436642563434,156.0133083613582L50.446254731378104,156.0133083613582L50.680111124477236,156.0133083613582L50.78404729918797,156.0133083613582L50.83601538654332,156.0133083613582L50.887983473898686,156.0133083613582L50.96593560493173,156.0133083613582L51.1478239106755,156.0133083613582L51.38168030377463,156.0133083613582L51.64152074055144,156.0133083613582L51.745456915262174,156.0133083613582L51.79742500261753,156.0133083613582L51.87537713365058,156.0133083613582L52.00529735203899,156.0133083613582L52.083249483072024,156.0133083613582L52.109233526749705,156.0133083613582L52.62891440030333,156.0133083613582L52.86277079340246,156.0133083613582L53.01867505546854,156.0133083613582L53.20056336121232,156.0133083613582L53.22654740488999,156.0133083613582L53.46040379798913,156.0133083613582L53.6422921037329,156.0133083613582L54.1879570209642,156.0133083613582L54.29189319567492,156.0133083613582L54.551733632451736,156.0133083613582L54.65566980716247,156.0133083613582L54.88952620026159,156.0133083613582L55.22731876807145,156.0133083613582L55.30527089910449,156.0133083613582L55.46117516117058,156.0133083613582L55.51314324852594,156.0133083613582L56.396600733567105,156.0133083613582L56.55250499563319,156.0133083613582L56.994233738153774,156.0133083613582L57.25407417493059,156.0133083613582L57.33202630596362,156.0133083613582L57.38399439331899,156.0133083613582L57.85170717951725,156.0133083613582L58.215483791004786,156.0133083613582L58.267451878360156,156.0133083613582L58.73516466455841,156.0133083613582L58.839100839269136,156.0133083613582L59.046973188690586,156.0133083613582L59.48870193121116,156.0133083613582L59.644606193277255,156.0133083613582L60.2682232415416,156.0133083613582L60.60601580935146,156.0133083613582L60.6839679403845,156.0133083613582L60.70995198406218,156.0133083613582L60.76192007141754,156.0133083613582L60.813888158772905,156.0133083613582L60.91782433348364,156.0133083613582L61.021760508194355,156.0133083613582L61.20364881393812,156.0133083613582L61.59340946910334,156.0133083613582L62.476866954144505,156.0133083613582L62.58080312885523,156.0133083613582L62.762691434599,156.0133083613582L62.99654782769813,156.0133083613582L63.308356351830305,156.0133083613582L63.56819678860712,156.0133083613582L63.62016487596247,156.0133083613582L63.672132963317836,156.0133083613582L63.80205318170624,156.0133083613582L63.880005312739286,156.0133083613582L64.08787766216074,156.0133083613582L64.19181383687146,156.0133083613582L64.71149471042509,156.0133083613582L64.84141492881349,156.0133083613582L64.86739897249117,156.0133083613582L64.91936705984654,118.00015885245534L64.99731919087958,148.14458641301536L65.1012553655903,154.38448291805125L65.12723940926799,155.6761414945937L65.30912771501175,155.943514819938L65.3870798460448,155.9988610982843L65.5170000644332,156.01031777790195L66.01069689430915,156.01268931058283L66.27053733108596,156.01318021784772L66.42644159315205,156.01328183565155L66.58234585521814,156.01330287053693L66.68628202992886,156.01330722475825L66.99809055406104,156.01330812608202L67.02407459773872,156.01330831265605L67.67367568968075,156.01330835127692L67.90753208277987,156.01330835927143L68.81697361149872,156.01330836092632L68.8429576551764,156.0133083612688L68.89492574253175,123.84832926466586L69.2587023540193,149.3551576883429L70.03822366434973,154.6350711720441L70.2460960137712,155.7280132631702L70.42798431951495,155.95425227603332L70.47995240687031,156.001083751696L70.53192049422567,109.22535879677365L70.66184071261408,146.32820280148925L71.31144180455611,86.75446205414121L71.33742584823379,141.6767271757643L71.5972662850106,153.04563605594035L71.64923437236597,155.39900019413676L71.77915459075437,155.8861465707434L72.14293120224191,155.98698587070092L72.298835464308,156.00785960579222L72.53269185740713,156.0121804689561L72.92245251257235,156.01307488763103L73.02638868728307,156.0132600322967L73.07835677463844,156.0132983572425L73.72795786658045,156.01330629050625L74.03976639071264,156.01330793269184L74.29960682748946,156.0133082726243L74.45551108955554,156.0133083429903L74.89723983207612,156.0133083575561L75.0531440941422,156.01330836057116L75.0791281378199,156.01330836119533L75.44290474930743,156.01330836132456L75.59880901137352,156.01330836135128L75.72872922976191,156.0133083613568L76.3263622343486,156.01330836135796L76.50825054009235,156.0133083613582L76.63817075848075,156.0133083613582L76.97596332629061,156.0133083613582L77.15785163203438,156.0133083613582L77.54761228719961,156.0133083613582L77.85942081133177,156.0133083613582L77.93737294236482,156.0133083613582L78.30114955385235,156.0133083613582L78.3791016848854,156.0133083613582L79.21059108257118,156.0133083613582L79.23657512624888,156.0133083613582L79.26255916992656,156.0133083613582L79.73027195612481,156.0133083613582L80.12003261129004,156.0133083613582L81.36726670781874,120.92425800170793L81.60112310091787,148.74987493691066L81.83497949401699,154.50977764249757L81.99088375608308,155.70207750255406L82.53654867331439,155.94888357358582L82.58851676066976,155.99997243028932L82.61450080434743,156.01054782362695L83.83575085719845,156.01273693004788L84.0436232066199,156.01319007507698L84.64125621120657,156.013283876098L84.8751126043057,156.0133032929094L84.97904877901642,156.01330731218934L85.08298495372715,120.92425778452997L85.39479347785932,148.74987489195482L85.47274560889237,154.50977763319173L85.68061795831382,155.70207750062775L85.75857008934686,155.94888357318703L86.38218713761121,100.4423116846169L86.48612331232194,144.51011204927278L86.5380913996773,153.63214672475652L87.26564462265237,155.5204079025817L87.86327762723904,112.04995804525957L88.25303828240425,146.9128948459258L88.4609106318257,154.1295227636637L88.59083085021412,97.14160484779293L88.72075106860251,143.82686573405022L88.8766553306686,153.49071473750547L89.2924000295115,155.4911314812207L89.76011281570976,155.90521774716981L89.78609685938746,155.99093360422123L89.96798516513122,156.0086767866309L90.04593729616425,156.01234962538967L90.66955434442862,115.07588913113344L90.74750647546165,147.53926258070172L90.92939478120543,154.25918088476237L91.00734691223846,155.6502039737029L91.03333095591614,155.93814575311362L91.0852990432715,155.9977497014516L91.1112830869492,156.01008771875755L91.76088417889122,156.01264168833993L91.99474057199035,156.01317036004346L92.6183576202547,156.0132797950861L92.82622996967615,103.37971296552641L93.19000658116369,101.25683419328908L93.21599062484135,144.67871820856794L93.65771936736193,153.66704819973066L94.4112566340147,155.52763250790133L94.46322472137007,155.91277345969266L94.72306515814688,123.82751854003959L95.16479390066746,149.35084986834525L95.29471411905585,154.6341794533046L95.86636307996486,111.86650875625921L95.94431521099789,105.93770007122343L96.07423542938629,145.64765744530035L96.36005990984079,121.70263952506035L96.41202799719616,148.9109999122446L96.59391630293993,154.54313051239168L96.74982056500602,114.77176077474287L96.93170887074979,147.47630801092888L97.08761313281586,110.38482936768742L97.1655652638489,146.56821320966841L97.60729400636949,154.05817366495842L97.91910253050166,155.6085954792035L97.9970546615347,155.9295327947522L98.17894296727847,155.99596681907076L98.59468766612136,120.92066830245443L98.64665575347674,148.74913186916518L98.80256001554282,154.50962382747431L98.90649619025355,155.70204566284426L99.32224088909645,155.94887698276582L99.76396963161703,117.98682155708671L100.28365050517066,148.141825592874L100.75136329136892,154.38391142828203L100.80333137872428,155.6760231962115L100.85529946607964,155.94349033217284L100.93325159711269,155.99885602931684L101.01120372814573,156.01031672862567L101.45293247066631,156.0126890933826L101.73875695112079,156.0131801728873L102.10253356260833,156.0132818263448L102.88205487293877,156.01330286861048L102.93402296029414,156.0133072243594L103.55764000855848,156.0133081259995L103.6615761832692,156.01330831263903L103.71354427062458,156.01330835127337L103.86944853269065,156.0133083592707L103.9474006637237,156.01330836092612L103.99936875107906,156.0133083612688L104.23322514417819,156.01330836133974L104.41511344992198,156.01330836135443L104.75290601773182,156.01330836135745L104.96077836715327,156.0133083613581L105.29857093496312,156.0133083613582L105.35053902231849,112.15198844022629L105.42849115335153,146.93401513768396L105.84423585219443,154.13389466405766L105.97415607058284,155.62426972601702L106.0261241579382,155.9327773638426L106.28596459471501,155.99663844487253L106.38990076942574,156.0098576886457L107.14343803607846,100.4549333265168L107.27335825446688,45.09373011928611L107.45524656021065,133.0529556652493L108.59854448202863,151.26051535326368L108.80641683145006,155.02948020868266L108.98830513719383,155.80965593375439L109.09224131190457,155.97115230884424L109.37806579235907,156.0045820584878L109.53397005442515,156.0115020166641L109.68987431649123,156.01293444800655L110.26152327740023,118.00008145239153L110.54734775785471,148.1445703912021L110.67726797624313,154.38447960153593L110.91112436934225,155.67614080807508L110.93710841301994,155.94351467782863L111.2489169371521,155.99886106886763L111.5347414176066,156.01031777181265L111.61269354863964,74.13821987928752L111.87253398541645,139.0651650455696L113.09378403826747,152.50504269498998L113.22370425665586,155.28709736842004L113.24968830033356,155.86298268582001L113.50952873711037,155.98219094652183L115.40636392558109,156.00686705648712L115.69218840603558,156.01197501124992L115.71817244971328,156.01303235788583L115.77014053706863,156.01325122863943L115.822108624424,156.01329653488546L115.90006075545705,156.0133059132784L115.92604479913471,120.9242574949554L116.57564589107675,148.7498748320129L116.70556610946515,113.57255684890447L116.78351824049821,147.2280727982803L116.99139058991965,154.19476459980115L117.27721507037414,155.63686980271592L117.51107146347327,155.93538557971925L117.58902359450632,103.36358886294546L117.615007638184,145.11481642518683L118.00476829334922,153.75732053057078L118.42051299219212,117.53316937148233L118.5764172542582,148.04791959045394L118.68035342896893,154.36447288578103L118.91420982206806,155.67199941791372L118.96617790942342,155.9426574100652L119.20003430252255,123.83370451776665L119.30397047723328,149.35213036573475L119.45987473929937,154.63444451626415L119.58979495768777,155.7278835454238L120.26538009330748,155.9542254244598L120.49923648640662,156.00107819342028L120.88899714157182,156.0107767165951L121.07088544731559,156.01278431089227L121.22678970938168,156.01319988291178L121.3307258840924,156.01328590631982L121.3567099277701,156.01330371316533L121.85040675764603,156.0133073991823L121.92835888867907,156.01330816218785L122.86378446107561,156.01330832012997L123.0196887231417,156.01330835282397L123.4094493783069,156.01330835959166L123.46141746566228,156.0133083609926L123.90314620818286,156.01330836128255L123.92913025186053,120.92425800169227L124.42282708173649,93.19221419131742L124.44881112541415,143.00934186815977L124.5267632564472,153.3214872972662L124.76061964954633,123.29112230441729L125.04644413000084,149.23981584757146L125.69604522194285,154.6111954110044L125.7739973529759,155.72307098063504L126.05982183343039,123.78825012687466L126.13777396446343,149.34272130682015L126.1897420518188,154.63249684106887L126.24171013917416,155.72748037665832L126.55351866330633,123.78916287185147L126.99524740582692,149.34291024503034L127.54091232305822,154.63253595127838L127.72280062880199,155.7274884724717L127.93067297822343,112.09282372322679L128.03460915293417,146.921768041265L128.21649745867794,154.13135951509895L128.24248150235562,155.62374495018258L128.2684655460333,155.93266873524487L128.5283059828101,109.21119688836824L129.20389111842982,146.32527128644935L129.33381133681823,154.00788468685212L129.7495560356611,155.59818566073548L130.03538051611562,120.83832760267904L130.13931669082635,148.73208734431168L130.16530073450403,119.41704525117933L130.37317308392548,148.43788189755116L130.52907734599154,154.4451950833502L130.6070294770246,155.68870891281063L130.84088587012374,155.9461162755089L130.94482204483447,155.99939959958746L131.12671035057824,94.60458414671463L131.1526943942559,143.301702448927L131.308598656322,153.38200593748496L131.4645029183881,108.68320968923197L131.51647100574345,146.2159779362281L131.59442313677647,115.97211145445335L132.50386466549534,147.7247806016289L132.8156731896275,154.29758311509428L133.30937001950343,155.6581532353816L133.3613381068588,155.9397912502811L133.85503493673474,155.9980903193653L133.90700302409013,156.0101582266657L134.42668389764376,156.01265628347687L135.05030094590808,156.0131733812368L135.12825307694115,118.00013091157018L135.46604564475098,148.14458062925212L135.67391799417243,154.3844817208123L135.90777438727156,155.67614124676524L135.9857265183046,155.94351476863747L136.03769460565996,112.13754116653314L136.06367864933765,146.9310245520295L137.20697657115562,154.13327561282722L137.3628808332217,155.62414158241234L137.44083296425475,155.93275083811645L137.62272126999852,155.9966329540472L137.96051383780838,156.00985655204485L138.01248192516374,156.01259383683038L138.03846596884142,156.01316045478094L138.22035427458522,156.01327774469675L138.68806706078345,156.0133020237093L139.28570006537012,156.0133070494649L139.41562028375853,156.01330808979634L139.93530115731215,156.01330830514493L139.98726924466752,156.0133083497221L140.14317350673358,156.01330835894956L140.81875864235332,156.01330836085964L140.94867886074172,156.01330836125499L141.28647142855158,120.92425800168658L141.3904076032623,148.7498749369062L141.85812038946057,122.34479854582275L142.065992738882,149.04392682954244L142.66362574346866,154.57064638427235L142.7675619181794,155.71467733210145L142.8714980928901,155.9514917383021L142.89748213656782,156.00051232038564L143.57306727218753,156.01065958087693L144.1707002767742,156.0127600637986L144.92423754342695,103.37960538114984L145.21006202388145,145.1181318444551L145.62580672272432,153.75800682235928L145.98958333421186,155.54646094278544L146.01556737788957,155.91667094571366L146.5352482514432,155.99330441631983L147.15886529970751,156.00916754473528L147.2108333870629,156.01245121231727L147.57460999855044,156.01313093150677L148.06830682842636,156.01327163337902L148.1462589594594,156.0133007586665L148.2761791778478,123.84832769092716L149.23758879392201,149.355157362579L149.4194770996658,154.63507110461097L149.5234132743765,155.72801324921156L149.6793175364426,155.95425227314388L149.83522179850868,156.0010837510979L149.9651420168971,156.01077786703436L150.04309414793013,91.68285424196166L150.0950622352855,142.69690435864314L150.71867928354985,153.25681273279622L150.9265516329713,155.4427137662459L151.36828037549188,155.89519528017L151.49820059388028,155.98885895355227L151.55016868123565,156.00824733394242L151.86197720536782,156.01226072868315L151.91394529272318,156.0130915013945L152.06984955478927,156.0132634713458L152.38165807892145,156.01329906912565L152.51157829730985,94.60746133690903L152.77141873408667,84.8205381324547L153.03125917086348,141.2764049239752L153.75881239383855,152.96276934981995L153.81078048119392,155.3818467859698L153.91471665590464,155.88259581525284L154.30447731106986,123.82127176764052L155.3698231018548,149.34955678645866L155.44777523288784,154.63391178535406L155.91548801908607,155.72777327012534L156.38320080528436,155.95420259747306L156.82492954780494,156.00107346823404L156.90288167883799,156.01077573848153L157.03280189722636,59.51787470467731L157.1627221156148,136.03875359442526L157.63043490181303,151.8785755246031L157.65641894549074,155.15741866414993L158.09814768801132,155.83613919403615L158.17609981904437,68.25399450145876L158.3579881247881,137.84713039235908L159.05955730408553,152.2529095217754L159.11152539144086,155.23490580156457L159.29341369718466,155.85217903148094L159.7611264833829,155.97995459007365L159.8130945707383,156.00640413070235L159.99498287648203,156.01187918561246L160.22883926958116,156.01301252197885L160.48867970635797,112.15192720147476L160.7745041868125,146.93400246126237L160.8784403615232,154.1338920400384L160.9044244052009,155.624269182845L161.39812123507681,155.932777251406L161.52804145346522,115.0594176497188L161.5800095408206,147.53585298404886L161.6839457155313,119.1694247386049L161.91780210863044,148.3866244514483L162.38551489482873,113.49736402012758L162.90519576838236,147.21250788272351L163.03511598677073,154.19154266228088L163.26897237986987,100.07854211605925L163.42487664193598,85.95305185373876L163.45086068561363,141.510835264281L163.55479686032436,153.0112964302633L163.6327489913574,155.39189189162155L164.2043979522664,155.88467515212272L164.67211073846465,155.9866812870465L164.77604691317538,156.00779655697568L164.9059671315638,156.01216741785103L165.32171183040668,82.91087231749908L165.37367991776205,140.8811041002794L165.63352035453886,152.88094207931493L165.78942461660492,117.35175903207237L165.8413927039603,98.30087731683513L165.9972969660264,144.06683513514196L166.04926505338176,153.5403884035315L166.10123314073712,155.5014139300881L166.4130416648693,155.9073462140853L166.46500975222466,115.05415342499342L166.51697783958002,147.53476328953073L167.11461084416666,98.70058878590002L167.34846723726582,144.14957540923842L167.42641936829887,153.55751564026943L167.84216406714177,155.50495926809288L168.10200450391858,155.90808009905234L168.12798854759626,155.99152611106095L168.17995663495162,156.00879943554673L168.3358608970177,156.01237501371526L168.67365346482754,156.01311515839615L168.80357368321597,156.01326836834508L168.98546198895974,156.01330008280453L169.14136625102583,156.01330664769762L169.47915881883566,156.01330800663047L170.15474395445537,156.0133082879296L170.75237695904204,156.01330834615854L170.8563131337528,156.01330835821187L170.88229717743044,156.01330836070696L171.06418548317424,118.00015885232048L171.50591422569482,148.1445864129874L171.7917387061493,154.38448291804548L172.07756318660378,155.67614149459254L172.25945149234758,155.94351481993775L172.41535575441367,155.99886109828415L173.038972802678,156.0103177779019L174.4680952049505,156.01268931058274L174.57203137966118,156.01318021784772L174.90982394747107,85.83516717321291L175.19564842792553,141.4864331354122L175.29958460263626,153.00624518958745L175.50745695205774,155.39084628480168L175.5334409957354,155.88445871151106L175.63737717044611,155.9866364838399L175.89721760722293,156.00778728271192L176.15705804399974,156.01216549807845L176.18304208767742,156.01307178865937L176.2090261313551,120.92420903115925L176.41689848077655,148.74986480000706L176.93657935433018,154.50977554415852L177.56019640259453,155.7020770681979L177.71610066466062,155.94888348367405L177.7420847083383,155.99997241167762L177.82003683937134,156.0105478197744L178.07987727614815,117.99958742034747L178.31373366924728,148.144468126569L178.39168580028036,154.3844584327569L178.65152623705714,108.89071735575324L178.78144645544555,146.258932023198L179.71687202784207,101.36056297674554L179.9507284209412,144.7001900667434L180.00269650829657,121.50651377769904L180.1066326830073,148.87040188254082L180.26253694507338,154.53472672024301L180.34048907610642,108.92182289126286L180.5223773818502,102.40405094791655L180.73024973127164,144.9161920767758L180.80820186230468,153.7162052904497L181.01607421172613,155.5378080256802L181.12001038643683,155.91487979187286L181.22394656114759,155.99293364747476L181.82157956573425,156.0090907955844L181.92551574044498,156.01243532524302L182.10740404618875,156.0131276428824L182.21134022089947,156.01327095263375L182.49716470135397,156.01330061775226L182.80897322548614,156.01330675843178L183.22471792432904,156.01330802955246L183.87431901627107,156.01330829267448L184.2640796714363,156.0133083471407L184.62785628292383,156.0133083584152L184.83572863234525,156.01330836074905L185.0436009817667,97.53154846638957L185.1995052438328,143.9075840630997L185.2254892875105,106.7220043612342L185.9010744231302,145.81000843333257L186.26485103461775,153.90122527625695L186.3428031656508,155.5761071627423L186.91445212655978,155.92280771324474L187.35618086908033,115.05735395531943L187.66798939321254,77.35731113686951L187.74594152424558,139.7315169358891L187.90184578631164,100.00938805367258L188.3695585725099,144.42049685766727L188.42152665986526,153.61359638009424L188.88923944606353,155.51656798123662L188.99317562077428,155.91048310267306L189.53884053800556,155.9920235328104L189.64277671271628,123.84392330517495L189.82466501846005,149.3542456547283L190.1624575862699,154.63488238108584L190.318361848336,62.157163928949004L190.68213845982353,104.42010736717565L190.99394698395574,145.33351575556242L191.38370763912093,153.8025912919585L191.59157998854238,155.55568992799246L191.61756403222006,155.91858134565152L192.18921299312905,120.90464950945668L192.29314916783977,148.7458159790146L192.6569257793273,101.87534795559958L192.96873430345948,144.80675055736623L192.99471834713717,153.69355089593188L193.17660665288093,155.533118566015L193.54038326436847,155.9139090737222L193.69628752643456,106.28324237545668L193.8781758321783,75.54107003983793L193.9301439195337,139.3555550288035L194.1640003126328,152.56515342151945L194.21596839998818,155.29954028881164L194.24195244366584,155.8655583703411L194.7356492735418,123.81774501654382L194.81360140457485,149.34882674898162L195.04745779767399,154.63376066759628L195.38525036548384,155.7277419887495L195.74902697697138,155.9541961222282L196.00886741374816,156.00107212785832L196.4246121125911,156.01077546102377L196.71043659304559,156.012784050989L197.17814937924385,156.0131998291118L197.43798981602066,156.01328589518323L197.46397385969834,112.15198378972808L197.61987812176443,79.67998471870662L197.80176642750817,140.21231036732937L197.90570260221892,152.74250177659428L197.93168664589658,155.33625139831213L197.9576706895743,155.87315757000766L198.52931965048325,155.98429714754866L198.55530369416095,156.00730304009966L198.65923986887168,156.0120652598577L198.71120795622704,156.01305103934763L198.94506434932617,156.01325509570205L199.04900052403687,156.01329733536738L199.80253779068963,120.92425571932785L199.82852183436734,101.96445539407344L200.06237822746644,95.11570546376936L200.14033035849948,143.40750456155732L200.32221866424325,80.30170710624628L200.58205910102006,87.70741741893656L200.60804314469775,141.87398893627696L200.6600112320531,153.08646924036643L200.78993145044154,155.40745266331294L200.9458357125076,155.88789623186287L201.04977188721833,103.35375856793912L201.1017399745737,145.11278155412046L201.51748467341662,153.75689931226006L201.6733889354827,155.5462316881949L201.69937297916036,155.91662349001342L201.9072453285818,155.99329459298986L202.40094215845775,156.009165511306L202.84267090097833,156.01245079139744L203.51825603659807,115.07591007249704L204.11588904118472,106.60204614368467L204.45368160899457,145.7851770822998L204.53163374002762,153.89608518659313L205.33713909403573,155.57504316418186L205.36312313771342,155.92258746554276L205.77886783655632,123.82955003925053L205.804851880234,149.35127038868194L206.0646923170108,154.63426650101428L206.14264444804385,155.72784669626702L206.19461253539922,106.24472746332346L206.4804370158537,145.71121211546506L206.6363412779198,121.71579534178443L206.71429340895284,148.9137231663065L206.81822958366357,122.37871512930862L207.2859423698618,149.05094756232396L207.3119264135395,154.57209967595816L207.41586258825023,155.71497816348042L207.49381471928328,155.95155401039753L207.54578280663864,156.00052521070938L207.90955941812618,156.01066224917395L208.0134955928369,156.0127606161361L208.2993200732914,156.01319497809726L208.37727220432444,156.01328489102323L208.89695307787807,156.01330350299892L209.10482542729952,156.01330735567785L209.3646658640763,156.01330815318238L209.390649907754,156.0133083182658L209.6764743882085,156.01330835243812L210.27410739279517,156.01330835951174L210.40402761118355,91.68337805390442L210.84575635370413,142.69701278771532L211.98905427552214,153.2568351776142L212.0150383191998,155.44271841232327L212.11897449391054,155.895196241908L212.22291066862124,117.97570964372912L212.6906234548195,148.13952542680903L212.8465277168856,113.44621452202725L212.8725117605633,147.20191993661675L213.96384159502588,154.18935095743674L214.17171394444733,155.63574917874652L214.37958629386878,100.37749286496768L214.40557033754646,74.3185798911667L214.84729908006705,139.1024995680286L215.1850916478769,120.34779184446512L215.28902782258763,148.63054644236135L215.57485230304212,110.62375672299395L215.8866608271743,146.61767117221686L215.96461295820734,154.06841146320596L216.0165810455627,155.61071470344075L216.12051722027346,155.92997147416932L216.32838956969488,155.99605762571016L217.88743219035575,156.00973745907908L218.04333645242187,156.01256918458648L218.06932049609952,156.0131553517665L218.12128858345488,88.75924723204857L218.5110492386201,142.09171770759116L218.69293754436387,94.64977920118594L219.29057054895054,143.31105782520257L219.39450672366127,153.383942500374L219.68033120411576,155.46902962813448L219.7582833351488,91.57071235650939L220.20001207766938,142.67369098835454L220.35591633973547,153.2520075651465L220.69370890754533,155.44171909654244L221.21338978109893,155.8949893835414L221.44724617419806,155.98881633295014L221.86299087304099,156.0082385114778L221.91495896039635,156.012258902433L222.14881535349548,156.0130911233607L222.3826717465946,156.01326339309273L222.59054409601606,106.30380871956635L223.11022496956969,145.7234419355073L223.16219305692505,153.88330601120708L223.2401451879581,155.57239787487694L223.29211327531343,155.9220398906566L223.4480175373795,155.994415787923L223.75982606151172,156.00939759865716L223.7858101051894,97.53073893863657L223.96769841093314,76.65338703453068L224.0456505419662,139.58580464670496L224.1755707603546,152.612815092425L224.3574590660984,102.6758167720755L224.40942715345372,144.9724476023767L225.73461338101546,153.72785018424906L226.02043786146996,155.54021851869663L226.098389992503,155.9153787639273L226.2283102108914,155.99303693469002L226.64405490973434,156.00911217603792L226.74799108444503,156.01243975099692L226.77397512812271,115.0759077871341L226.82594321547808,147.53926644249384L227.08578365225492,154.25918168415333L227.18971982696561,155.65020413917685L227.29365600167634,155.93814578736666L227.52751239477547,97.51598981369939L227.55349643845315,102.96714265011356L227.6834166568416,145.03275205913062L227.78735283155228,153.74033320679712L227.81333687522996,155.54280250436412L228.2030975303952,155.9159136489604L229.0086028844033,155.9931476558919L229.3204114085355,156.00913509532674L229.50229971427925,85.83432983285105L229.63221993266765,141.48625980595725L229.9959965441552,153.00620931039023L230.22985293725432,155.39083885780784L230.61961359241954,112.02313725299135L230.90543807287403,146.9073429419263L231.08732637861783,104.41888318617491L231.11331042229548,145.33326235009528L231.34716681539462,153.80253883702684L232.3345604751465,76.60530878903944L232.41251260617955,139.5758524498883L232.4644806935349,152.61075498768395L232.54243282456795,155.30897981300765L232.56841686824563,155.86751235184968L232.67235304295636,155.98312858738998L233.50384244064216,106.2975708147859L233.8676190521297,145.72215068921773L234.5691882314271,153.88303872322516L234.72509249349318,94.16649744530764L234.8290286682039,143.2110185017358L235.29674145440214,94.88147446557386L235.42666167279057,143.35901874493084L235.81642232795576,153.3938704107578L235.8943744589888,155.47108470558393L235.97232659002185,155.90106806461293L236.51799150725319,155.99007461993196L236.80381598770768,156.00849897688298L237.1416085555175,156.01231281877187L237.16759259919522,156.01310228404284L237.427433035972,103.37967622074044L237.50538516700504,101.25682658711843L237.6093213417158,144.6787166340906L238.05105008423635,153.66704787381383L238.1030181715917,155.52763244043655L238.18097030262476,155.91277344572745L238.7266352198561,155.99249763382267L238.77860330721143,156.0090005407584L238.90852352559983,156.01241664249406L239.19434800605435,156.01312377555334L239.4022203554758,156.01327015209665L239.5061565301865,109.22788138165656L239.94788527270708,146.32872497655998L240.10378953477317,101.3750101180915L240.36362997155,97.91776155461753L240.41559805890535,103.05030940048361L240.57150232097143,112.88498847978332L240.70142253935984,106.14852537399292L240.83134275774825,145.6912982829736L240.9092948887813,153.87665227513264L241.2990555439465,91.24109024443796L241.32503958762422,142.6054592111558L242.02660876692158,153.23788358726634L242.23448111634303,155.43879543312121L242.49432155311985,120.80533382556288L242.78014603357434,148.72525763244863L243.32581095080565,154.50468186047394L243.48171521287173,155.70102267567518L243.76753969332623,155.94866522442186L243.7935237370039,155.99992723201242L244.6250131346897,117.99738895868074L244.65099717836742,148.144013045004L244.80690144043348,154.38436423087293L246.1580717116729,155.67611692634773L246.21003979902827,155.9435097343111L246.39192810477203,155.99886004555952L246.46988023580508,156.0103175599879L246.65176854154885,156.01268926547456L247.35333772084624,156.0131802085103L247.89900263807752,156.01328183371876L248.15884307485436,156.01330287013687L248.57458777369723,156.0133072246754L248.62655586105262,156.01330812606486L248.67852394840799,156.01330831265253L248.8084441667964,156.01330835127618L249.6399335644822,156.01330835927124L249.7698537828706,156.01330836092623L250.05567826332506,156.0133083612688L250.08166230700277,156.01330836133974L250.10764635068043,120.92425800170412L250.18559848171347,148.74987493690986L250.6013431805564,154.50977764249743L251.30291235985376,155.70207750255406L251.3808644908868,155.94888357358582L251.90054536444043,155.99997243028932L252.05644962650652,156.01054782362695L252.08243367018423,103.3791474474343L252.7580188058039,145.11803705217596L252.93990711154768,153.75798720035752L253.12179541729148,155.54645688103108L253.97926885865493,112.05535018379855L254.05722098968798,146.91401101860336L254.55091781956392,154.12975381140802L254.5769018632416,155.62341256951854L254.81075825634076,155.93259993244743L254.9926465620845,155.99660171657368L255.07059869311755,109.2244310155033L255.25248699886134,146.32801075076628L255.3304391298944,154.0084517559657L255.8241359597703,155.59830304404198L255.90208809080335,155.92740226067377L256.1879125712578,155.99552579851652L256.47373705171236,156.00962737085L256.7335774884892,156.01254639632302L256.7855455758445,156.01315063459595L256.8115296195222,156.01327571191842L256.88948175055526,156.01330160292423L257.51309879881956,115.0760861904831L257.643019017208,147.53930337198707L257.66900306088564,154.25918932855836L257.7729392355964,155.65020572156868L258.2666360654723,155.9381461149218L258.29262010915005,155.9977497763459L258.5264765022492,156.01008773426068L258.73434885167063,109.22722262116457L259.0461573758028,146.32858861313815L259.56583824935643,154.00857137347668" style="fill: none;" fill="none"></path></g></g></g></g><g opacity="0.2"><g><g><g><path stroke="rgb(187, 187, 187)" stroke-width="2px" d="M7.20880605171659,156.0133083613582L7.364710313782677,156.0133083613582L7.780455012625577,156.0133083613582L7.8324230999809386,156.0133083613582L7.910375231013982,156.0133083613582L8.196199711468475,156.0133083613582L8.585960366633694,156.0133083613582L8.663912497666738,156.0133083613582L9.183593371220361,156.0133083613582L9.391465720641811,156.0133083613582L9.495401895352536,156.0133083613582L10.01508276890616,156.0133083613582L10.768620035558914,156.0133083613582L10.846572166591958,156.0133083613582L11.080428559691088,156.0133083613582L11.496173258533988,156.0133083613582L11.54814134588935,156.0133083613582L12.691439267707324,156.0133083613582L12.82135948609573,156.0133083613582L13.211120141260947,156.0133083613582L13.367024403327035,156.0133083613582L13.496944621715441,156.0133083613582L13.678832927459208,156.0133083613582L13.834737189525297,156.0133083613582L14.328434019401238,156.0133083613582L14.744178718244138,156.0133083613582L14.7961468055995,156.0133083613582L15.00401915502095,156.0133083613582L15.549684072252255,156.0133083613582L15.757556421673705,156.0133083613582L16.173301120516605,156.0133083613582L16.27723729522733,156.0133083613582L17.680375653822114,156.0133083613582L17.706359697499796,156.0133083613582L18.148088440020377,156.0133083613582L18.22604057105342,156.0133083613582L18.30399270208646,156.0133083613582L18.69375335725168,156.0133083613582L18.771705488284724,156.0133083613582L18.79768953196241,156.0133083613582L19.057529968739217,156.0133083613582L19.55122679861516,156.0133083613582L20.096891715846468,156.0133083613582L20.53862045836705,156.0133083613582L20.668540676755455,156.0133083613582L21.370109856052842,156.0133083613582L21.629950292829655,156.0133083613582L21.785854554895742,156.0133083613582L21.96774286063951,156.0133083613582L21.993726904317196,156.0133083613582L22.851200345680674,156.0133083613582L22.903168433036036,156.0133083613582L23.214976957168208,156.0133083613582L23.396865262911977,156.0133083613582L23.42284930658966,156.0133083613582L23.47481739394502,156.0133083613582L23.552769524978064,156.0133083613582L23.60473761233343,156.0133083613582L23.916546136465602,156.0133083613582L24.176386573242414,156.0133083613582L25.293700451382705,156.0133083613582L25.39763662609343,156.0133083613582L25.501572800804155,156.0133083613582L25.709445150225605,156.0133083613582L25.943301543324736,156.0133083613582L26.28109411113459,156.0133083613582L26.385030285845318,156.0133083613582L26.61888667894445,156.0133083613582L26.72282285365517,156.0133083613582L26.774790941010536,156.0133083613582L26.826759028365895,156.0133083613582L27.008647334109664,156.0133083613582L27.13856755249807,156.0133083613582L27.190535639853437,156.0133083613582L27.32045585824184,156.0133083613582L27.372423945597202,156.0133083613582L27.476360120307923,156.0133083613582L27.580296295018652,156.0133083613582L27.736200557084736,156.0133083613582L27.762184600762417,156.0133083613582L28.35981760534909,156.0133083613582L28.46375378005981,156.0133083613582L29.321227221423293,156.0133083613582L29.50311552716706,156.0133083613582L29.65901978923315,156.0133083613582L30.022796400720683,156.0133083613582L30.126732575431408,156.0133083613582L30.308620881175177,156.0133083613582L30.36058896853054,156.0133083613582L30.56846131795199,156.0133083613582L30.932237929439523,156.0133083613582L30.958221973117208,156.0133083613582L31.218062409894017,156.0133083613582L31.296014540927064,156.0133083613582L31.529870934026196,156.0133083613582L31.633807108736917,156.0133083613582L31.737743283447642,156.0133083613582L31.971599676546777,156.0133083613582L31.997583720224455,156.0133083613582L32.15348798229054,156.0133083613582L32.179472025968224,156.0133083613582L32.30939224435663,156.0133083613582L32.77710503055489,156.0133083613582L32.855057161587936,156.0133083613582L33.08891355468707,156.0133083613582L33.8684348650175,156.0133083613582L34.20622743282736,156.0133083613582L34.36213169489344,156.0133083613582L34.44008382592649,156.0133083613582L34.49205191328185,156.0133083613582L34.59598808799257,156.0133083613582L34.75189235005866,156.0133083613582L34.88181256844707,156.0133083613582L35.14165300522388,156.0133083613582L35.29755726728997,156.0133083613582L35.427477485678374,156.0133083613582L35.687317922455186,156.0133083613582L36.7786477569178,156.0133083613582L36.88258393162852,156.0133083613582L36.908567975306205,156.0133083613582L36.93455201898388,156.0133083613582L37.40226480518214,156.0133083613582L37.740057372992005,156.0133083613582L38.077849940801855,156.0133083613582L38.75343507642157,156.0133083613582L39.06524360055374,156.0133083613582L39.351068081008236,156.0133083613582L39.42902021204128,156.0133083613582L39.506972343074324,156.0133083613582L40.02665321662795,156.0133083613582L40.18255747869403,156.0133083613582L40.3644457844378,156.0133083613582L40.52035004650389,156.0133083613582L40.936094745346786,156.0133083613582L41.01404687637983,156.0133083613582L41.29987135683433,156.0133083613582L41.37782348786737,156.0133083613582L41.45577561890041,156.0133083613582L41.4817596625781,156.0133083613582L42.72899375910679,156.0133083613582L42.806945890139836,156.0133083613582L42.88489802117287,156.0133083613582L42.91088206485056,156.0133083613582L43.48253102575955,156.0133083613582L43.79433954989172,156.0133083613582L44.05417998666853,156.0133083613582L44.158116161379255,156.0133083613582L44.807717253321286,156.0133083613582L44.83370129699897,156.0133083613582L45.11952577745346,156.0133083613582L45.32739812687491,156.0133083613582L45.431334301585636,156.0133083613582L45.483302388941,156.0133083613582L46.31479178662679,156.0133083613582L46.418727961337524,156.0133083613582L47.06832905327955,156.0133083613582L47.484073752122455,156.0133083613582L47.51005779580013,156.0133083613582L47.89981845096535,156.0133083613582L48.00375462567608,156.0133083613582L48.41949932451897,156.0133083613582L48.445483368196655,156.0133083613582L49.01713232910564,156.0133083613582L49.14705254749405,156.0133083613582L49.276972765882455,156.0133083613582L49.3549248969155,156.0133083613582L49.484845115303905,156.0133083613582L49.56279724633695,156.0133083613582L49.874605770469124,156.0133083613582L50.082478119890574,156.0133083613582L50.26436642563434,156.0133083613582L50.446254731378104,156.0133083613582L50.680111124477236,156.0133083613582L50.78404729918797,156.0133083613582L50.83601538654332,156.0133083613582L50.887983473898686,156.0133083613582L50.96593560493173,156.0133083613582L51.1478239106755,156.0133083613582L51.38168030377463,156.0133083613582L51.64152074055144,156.0133083613582L51.745456915262174,156.0133083613582L51.79742500261753,156.0133083613582L51.87537713365058,156.0133083613582L52.00529735203899,156.0133083613582L52.083249483072024,156.0133083613582L52.109233526749705,156.0133083613582L52.62891440030333,156.0133083613582L52.86277079340246,156.0133083613582L53.01867505546854,156.0133083613582L53.20056336121232,156.0133083613582L53.22654740488999,156.0133083613582L53.46040379798913,156.0133083613582L53.6422921037329,156.0133083613582L54.1879570209642,156.0133083613582L54.29189319567492,156.0133083613582L54.551733632451736,156.0133083613582L54.65566980716247,156.0133083613582L54.88952620026159,156.0133083613582L55.22731876807145,156.0133083613582L55.30527089910449,156.0133083613582L55.46117516117058,156.0133083613582L55.51314324852594,156.0133083613582L56.396600733567105,156.0133083613582L56.55250499563319,156.0133083613582L56.994233738153774,156.0133083613582L57.25407417493059,156.0133083613582L57.33202630596362,156.0133083613582L57.38399439331899,156.0133083613582L57.85170717951725,156.0133083613582L58.215483791004786,156.0133083613582L58.267451878360156,156.0133083613582L58.73516466455841,156.0133083613582L58.839100839269136,156.0133083613582L59.046973188690586,156.0133083613582L59.48870193121116,156.0133083613582L59.644606193277255,156.0133083613582L60.2682232415416,156.0133083613582L60.60601580935146,156.0133083613582L60.6839679403845,156.0133083613582L60.70995198406218,156.0133083613582L60.76192007141754,156.0133083613582L60.813888158772905,156.0133083613582L60.91782433348364,156.0133083613582L61.021760508194355,156.0133083613582L61.20364881393812,156.0133083613582L61.59340946910334,156.0133083613582L62.476866954144505,156.0133083613582L62.58080312885523,156.0133083613582L62.762691434599,156.0133083613582L62.99654782769813,156.0133083613582L63.308356351830305,156.0133083613582L63.56819678860712,156.0133083613582L63.62016487596247,156.0133083613582L63.672132963317836,156.0133083613582L63.80205318170624,156.0133083613582L63.880005312739286,156.0133083613582L64.08787766216074,156.0133083613582L64.19181383687146,156.0133083613582L64.71149471042509,156.0133083613582L64.84141492881349,156.0133083613582L64.86739897249117,156.0133083613582L64.91936705984654,108.07743256198509L64.99731919087958,156.0133083613582L65.1012553655903,156.0133083613582L65.12723940926799,156.0133083613582L65.30912771501175,156.0133083613582L65.3870798460448,156.0133083613582L65.5170000644332,156.0133083613582L66.01069689430915,156.0133083613582L66.27053733108596,156.0133083613582L66.42644159315205,156.0133083613582L66.58234585521814,156.0133083613582L66.68628202992886,156.0133083613582L66.99809055406104,156.0133083613582L67.02407459773872,156.0133083613582L67.67367568968075,156.0133083613582L67.90753208277987,156.0133083613582L68.81697361149872,156.0133083613582L68.8429576551764,156.0133083613582L68.89492574253175,115.45217456984008L69.2587023540193,156.0133083613582L70.03822366434973,156.0133083613582L70.2460960137712,156.0133083613582L70.42798431951495,156.0133083613582L70.47995240687031,156.0133083613582L70.53192049422567,97.01530196743072L70.66184071261408,156.0133083613582L71.31144180455611,71.20368735716633L71.33742584823379,156.0133083613582L71.5972662850106,156.0133083613582L71.64923437236597,156.0133083613582L71.77915459075437,156.0133083613582L72.14293120224191,156.0133083613582L72.298835464308,156.0133083613582L72.53269185740713,156.0133083613582L72.92245251257235,156.0133083613582L73.02638868728307,156.0133083613582L73.07835677463844,156.0133083613582L73.72795786658045,156.0133083613582L74.03976639071264,156.0133083613582L74.29960682748946,156.0133083613582L74.45551108955554,156.0133083613582L74.89723983207612,156.0133083613582L75.0531440941422,156.0133083613582L75.0791281378199,156.0133083613582L75.44290474930743,156.0133083613582L75.59880901137352,156.0133083613582L75.72872922976191,156.0133083613582L76.3263622343486,156.0133083613582L76.50825054009235,156.0133083613582L76.63817075848075,156.0133083613582L76.97596332629061,156.0133083613582L77.15785163203438,156.0133083613582L77.54761228719961,156.0133083613582L77.85942081133177,156.0133083613582L77.93737294236482,156.0133083613582L78.30114955385235,156.0133083613582L78.3791016848854,156.0133083613582L79.21059108257118,156.0133083613582L79.23657512624888,156.0133083613582L79.26255916992656,156.0133083613582L79.73027195612481,156.0133083613582L80.12003261129004,156.0133083613582L81.36726670781874,111.76482114868446L81.60112310091787,156.0133083613582L81.83497949401699,156.0133083613582L81.99088375608308,156.0133083613582L82.53654867331439,156.0133083613582L82.58851676066976,156.0133083613582L82.61450080434743,156.0133083613582L83.83575085719845,156.0133083613582L84.0436232066199,156.0133083613582L84.64125621120657,156.0133083613582L84.8751126043057,156.0133083613582L84.97904877901642,156.0133083613582L85.08298495372715,111.76482114868446L85.39479347785932,156.0133083613582L85.47274560889237,156.0133083613582L85.68061795831382,156.0133083613582L85.75857008934686,156.0133083613582L86.38218713761121,85.95320653842009L86.48612331232194,156.0133083613582L86.5380913996773,156.0133083613582L87.26564462265237,156.0133083613582L87.86327762723904,100.70269055413009L88.25303828240425,156.0133083613582L88.4609106318257,156.0133083613582L88.59083085021412,82.26581795172072L88.72075106860251,156.0133083613582L88.8766553306686,156.0133083613582L89.2924000295115,156.0133083613582L89.76011281570976,156.0133083613582L89.78609685938746,156.0133083613582L89.96798516513122,156.0133083613582L90.04593729616425,156.0133083613582L90.66955434442862,104.39007914082946L90.74750647546165,156.0133083613582L90.92939478120543,156.0133083613582L91.00734691223846,156.0133083613582L91.03333095591614,156.0133083613582L91.0852990432715,156.0133083613582L91.1112830869492,156.0133083613582L91.76088417889122,156.0133083613582L91.99474057199035,156.0133083613582L92.6183576202547,156.0133083613582L92.82622996967615,89.64055995957571L93.19000658116369,100.70269055413009L93.21599062484135,156.0133083613582L93.65771936736193,156.0133083613582L94.4112566340147,156.0133083613582L94.46322472137007,156.0133083613582L94.72306515814688,115.45217456984008L95.16479390066746,156.0133083613582L95.29471411905585,156.0133083613582L95.86636307996486,100.70269055413009L95.94431521099789,104.39007914082946L96.07423542938629,156.0133083613582L96.36005990984079,115.45217456984008L96.41202799719616,156.0133083613582L96.59391630293993,156.0133083613582L96.74982056500602,104.39007914082946L96.93170887074979,156.0133083613582L97.08761313281586,100.70269055413009L97.1655652638489,156.0133083613582L97.60729400636949,156.0133083613582L97.91910253050166,156.0133083613582L97.9970546615347,156.0133083613582L98.17894296727847,156.0133083613582L98.59468766612136,111.76482114868446L98.64665575347674,156.0133083613582L98.80256001554282,156.0133083613582L98.90649619025355,156.0133083613582L99.32224088909645,156.0133083613582L99.76396963161703,108.07743256198509L100.28365050517066,156.0133083613582L100.75136329136892,156.0133083613582L100.80333137872428,156.0133083613582L100.85529946607964,156.0133083613582L100.93325159711269,156.0133083613582L101.01120372814573,156.0133083613582L101.45293247066631,156.0133083613582L101.73875695112079,156.0133083613582L102.10253356260833,156.0133083613582L102.88205487293877,156.0133083613582L102.93402296029414,156.0133083613582L103.55764000855848,156.0133083613582L103.6615761832692,156.0133083613582L103.71354427062458,156.0133083613582L103.86944853269065,156.0133083613582L103.9474006637237,156.0133083613582L103.99936875107906,156.0133083613582L104.23322514417819,156.0133083613582L104.41511344992198,156.0133083613582L104.75290601773182,156.0133083613582L104.96077836715327,156.0133083613582L105.29857093496312,156.0133083613582L105.35053902231849,100.70269055413009L105.42849115335153,156.0133083613582L105.84423585219443,156.0133083613582L105.97415607058284,156.0133083613582L106.0261241579382,156.0133083613582L106.28596459471501,156.0133083613582L106.38990076942574,156.0133083613582L107.14343803607846,85.95320653842009L107.27335825446688,30.642571148420075L107.45524656021065,156.0133083613582L108.59854448202863,156.0133083613582L108.80641683145006,156.0133083613582L108.98830513719383,156.0133083613582L109.09224131190457,156.0133083613582L109.37806579235907,156.0133083613582L109.53397005442515,156.0133083613582L109.68987431649123,156.0133083613582L110.26152327740023,108.07743256198509L110.54734775785471,156.0133083613582L110.67726797624313,156.0133083613582L110.91112436934225,156.0133083613582L110.93710841301994,156.0133083613582L111.2489169371521,156.0133083613582L111.5347414176066,156.0133083613582L111.61269354863964,52.766814754756965L111.87253398541645,156.0133083613582L113.09378403826747,156.0133083613582L113.22370425665586,156.0133083613582L113.24968830033356,156.0133083613582L113.50952873711037,156.0133083613582L115.40636392558109,156.0133083613582L115.69218840603558,156.0133083613582L115.71817244971328,156.0133083613582L115.77014053706863,156.0133083613582L115.822108624424,156.0133083613582L115.90006075545705,156.0133083613582L115.92604479913471,111.76482114868446L116.57564589107675,156.0133083613582L116.70556610946515,104.39007914082946L116.78351824049821,156.0133083613582L116.99139058991965,156.0133083613582L117.27721507037414,156.0133083613582L117.51107146347327,156.0133083613582L117.58902359450632,89.64055995957571L117.615007638184,156.0133083613582L118.00476829334922,156.0133083613582L118.42051299219212,108.07743256198509L118.5764172542582,156.0133083613582L118.68035342896893,156.0133083613582L118.91420982206806,156.0133083613582L118.96617790942342,156.0133083613582L119.20003430252255,115.45217456984008L119.30397047723328,156.0133083613582L119.45987473929937,156.0133083613582L119.58979495768777,156.0133083613582L120.26538009330748,156.0133083613582L120.49923648640662,156.0133083613582L120.88899714157182,156.0133083613582L121.07088544731559,156.0133083613582L121.22678970938168,156.0133083613582L121.3307258840924,156.0133083613582L121.3567099277701,156.0133083613582L121.85040675764603,156.0133083613582L121.92835888867907,156.0133083613582L122.86378446107561,156.0133083613582L123.0196887231417,156.0133083613582L123.4094493783069,156.0133083613582L123.46141746566228,156.0133083613582L123.90314620818286,156.0133083613582L123.92913025186053,111.76482114868446L124.42282708173649,85.95320653842009L124.44881112541415,156.0133083613582L124.5267632564472,156.0133083613582L124.76061964954633,115.45217456984008L125.04644413000084,156.0133083613582L125.69604522194285,156.0133083613582L125.7739973529759,156.0133083613582L126.05982183343039,115.45217456984008L126.13777396446343,156.0133083613582L126.1897420518188,156.0133083613582L126.24171013917416,156.0133083613582L126.55351866330633,115.45217456984008L126.99524740582692,156.0133083613582L127.54091232305822,156.0133083613582L127.72280062880199,156.0133083613582L127.93067297822343,100.70269055413009L128.03460915293417,156.0133083613582L128.21649745867794,156.0133083613582L128.24248150235562,156.0133083613582L128.2684655460333,156.0133083613582L128.5283059828101,97.01530196743072L129.20389111842982,156.0133083613582L129.33381133681823,156.0133083613582L129.7495560356611,156.0133083613582L130.03538051611562,111.76482114868446L130.13931669082635,156.0133083613582L130.16530073450403,111.76482114868446L130.37317308392548,156.0133083613582L130.52907734599154,156.0133083613582L130.6070294770246,156.0133083613582L130.84088587012374,156.0133083613582L130.94482204483447,156.0133083613582L131.12671035057824,78.5784469477932L131.1526943942559,156.0133083613582L131.308598656322,156.0133083613582L131.4645029183881,97.01530196743072L131.51647100574345,156.0133083613582L131.59442313677647,108.07743256198509L132.50386466549534,156.0133083613582L132.8156731896275,156.0133083613582L133.30937001950343,156.0133083613582L133.3613381068588,156.0133083613582L133.85503493673474,156.0133083613582L133.90700302409013,156.0133083613582L134.42668389764376,156.0133083613582L135.05030094590808,156.0133083613582L135.12825307694115,108.07743256198509L135.46604564475098,156.0133083613582L135.67391799417243,156.0133083613582L135.90777438727156,156.0133083613582L135.9857265183046,156.0133083613582L136.03769460565996,100.70269055413009L136.06367864933765,156.0133083613582L137.20697657115562,156.0133083613582L137.3628808332217,156.0133083613582L137.44083296425475,156.0133083613582L137.62272126999852,156.0133083613582L137.96051383780838,156.0133083613582L138.01248192516374,156.0133083613582L138.03846596884142,156.0133083613582L138.22035427458522,156.0133083613582L138.68806706078345,156.0133083613582L139.28570006537012,156.0133083613582L139.41562028375853,156.0133083613582L139.93530115731215,156.0133083613582L139.98726924466752,156.0133083613582L140.14317350673358,156.0133083613582L140.81875864235332,156.0133083613582L140.94867886074172,156.0133083613582L141.28647142855158,111.76482114868446L141.3904076032623,156.0133083613582L141.85812038946057,115.45217456984008L142.065992738882,156.0133083613582L142.66362574346866,156.0133083613582L142.7675619181794,156.0133083613582L142.8714980928901,156.0133083613582L142.89748213656782,156.0133083613582L143.57306727218753,156.0133083613582L144.1707002767742,156.0133083613582L144.92423754342695,89.64055995957571L145.21006202388145,156.0133083613582L145.62580672272432,156.0133083613582L145.98958333421186,156.0133083613582L146.01556737788957,156.0133083613582L146.5352482514432,156.0133083613582L147.15886529970751,156.0133083613582L147.2108333870629,156.0133083613582L147.57460999855044,156.0133083613582L148.06830682842636,156.0133083613582L148.1462589594594,156.0133083613582L148.2761791778478,115.45217456984008L149.23758879392201,156.0133083613582L149.4194770996658,156.0133083613582L149.5234132743765,156.0133083613582L149.6793175364426,156.0133083613582L149.83522179850868,156.0133083613582L149.9651420168971,156.0133083613582L150.04309414793013,74.89107594386572L150.0950622352855,156.0133083613582L150.71867928354985,156.0133083613582L150.9265516329713,156.0133083613582L151.36828037549188,156.0133083613582L151.49820059388028,156.0133083613582L151.55016868123565,156.0133083613582L151.86197720536782,156.0133083613582L151.91394529272318,156.0133083613582L152.06984955478927,156.0133083613582L152.38165807892145,156.0133083613582L152.51157829730985,78.5784469477932L152.77141873408667,82.26581795172072L153.03125917086348,156.0133083613582L153.75881239383855,156.0133083613582L153.81078048119392,156.0133083613582L153.91471665590464,156.0133083613582L154.30447731106986,115.45217456984008L155.3698231018548,156.0133083613582L155.44777523288784,156.0133083613582L155.91548801908607,156.0133083613582L156.38320080528436,156.0133083613582L156.82492954780494,156.0133083613582L156.90288167883799,156.0133083613582L157.03280189722636,34.32994215234757L157.1627221156148,156.0133083613582L157.63043490181303,156.0133083613582L157.65641894549074,156.0133083613582L158.09814768801132,156.0133083613582L158.17609981904437,45.39207274690196L158.3579881247881,156.0133083613582L159.05955730408553,156.0133083613582L159.11152539144086,156.0133083613582L159.29341369718466,156.0133083613582L159.7611264833829,156.0133083613582L159.8130945707383,156.0133083613582L159.99498287648203,156.0133083613582L160.22883926958116,156.0133083613582L160.48867970635797,100.70269055413009L160.7745041868125,156.0133083613582L160.8784403615232,156.0133083613582L160.9044244052009,156.0133083613582L161.39812123507681,156.0133083613582L161.52804145346522,104.39007914082946L161.5800095408206,156.0133083613582L161.6839457155313,111.76482114868446L161.91780210863044,156.0133083613582L162.38551489482873,104.39007914082946L162.90519576838236,156.0133083613582L163.03511598677073,156.0133083613582L163.26897237986987,85.95320653842009L163.42487664193598,82.26581795172072L163.45086068561363,156.0133083613582L163.55479686032436,156.0133083613582L163.6327489913574,156.0133083613582L164.2043979522664,156.0133083613582L164.67211073846465,156.0133083613582L164.77604691317538,156.0133083613582L164.9059671315638,156.0133083613582L165.32171183040668,63.828945349311326L165.37367991776205,156.0133083613582L165.63352035453886,156.0133083613582L165.78942461660492,108.07743256198509L165.8413927039603,93.32794854627508L165.9972969660264,156.0133083613582L166.04926505338176,156.0133083613582L166.10123314073712,156.0133083613582L166.4130416648693,156.0133083613582L166.46500975222466,104.39007914082946L166.51697783958002,156.0133083613582L167.11461084416666,85.95320653842009L167.34846723726582,156.0133083613582L167.42641936829887,156.0133083613582L167.84216406714177,156.0133083613582L168.10200450391858,156.0133083613582L168.12798854759626,156.0133083613582L168.17995663495162,156.0133083613582L168.3358608970177,156.0133083613582L168.67365346482754,156.0133083613582L168.80357368321597,156.0133083613582L168.98546198895974,156.0133083613582L169.14136625102583,156.0133083613582L169.47915881883566,156.0133083613582L170.15474395445537,156.0133083613582L170.75237695904204,156.0133083613582L170.8563131337528,156.0133083613582L170.88229717743044,156.0133083613582L171.06418548317424,108.07743256198509L171.50591422569482,156.0133083613582L171.7917387061493,156.0133083613582L172.07756318660378,156.0133083613582L172.25945149234758,156.0133083613582L172.41535575441367,156.0133083613582L173.038972802678,156.0133083613582L174.4680952049505,156.0133083613582L174.57203137966118,156.0133083613582L174.90982394747107,67.51631635323884L175.19564842792553,156.0133083613582L175.29958460263626,156.0133083613582L175.50745695205774,156.0133083613582L175.5334409957354,156.0133083613582L175.63737717044611,156.0133083613582L175.89721760722293,156.0133083613582L176.15705804399974,156.0133083613582L176.18304208767742,156.0133083613582L176.2090261313551,111.76482114868446L176.41689848077655,156.0133083613582L176.93657935433018,156.0133083613582L177.56019640259453,156.0133083613582L177.71610066466062,156.0133083613582L177.7420847083383,156.0133083613582L177.82003683937134,156.0133083613582L178.07987727614815,108.07743256198509L178.31373366924728,156.0133083613582L178.39168580028036,156.0133083613582L178.65152623705714,97.01530196743072L178.78144645544555,156.0133083613582L179.71687202784207,89.64055995957571L179.9507284209412,156.0133083613582L180.00269650829657,115.45217456984008L180.1066326830073,156.0133083613582L180.26253694507338,156.0133083613582L180.34048907610642,97.01530196743072L180.5223773818502,100.70269055413009L180.73024973127164,156.0133083613582L180.80820186230468,156.0133083613582L181.01607421172613,156.0133083613582L181.12001038643683,156.0133083613582L181.22394656114759,156.0133083613582L181.82157956573425,156.0133083613582L181.92551574044498,156.0133083613582L182.10740404618875,156.0133083613582L182.21134022089947,156.0133083613582L182.49716470135397,156.0133083613582L182.80897322548614,156.0133083613582L183.22471792432904,156.0133083613582L183.87431901627107,156.0133083613582L184.2640796714363,156.0133083613582L184.62785628292383,156.0133083613582L184.83572863234525,156.0133083613582L185.0436009817667,82.26581795172072L185.1995052438328,156.0133083613582L185.2254892875105,97.01530196743072L185.9010744231302,156.0133083613582L186.26485103461775,156.0133083613582L186.3428031656508,156.0133083613582L186.91445212655978,156.0133083613582L187.35618086908033,104.39007914082946L187.66798939321254,67.51631635323884L187.74594152424558,156.0133083613582L187.90184578631164,89.64055995957571L188.3695585725099,156.0133083613582L188.42152665986526,156.0133083613582L188.88923944606353,156.0133083613582L188.99317562077428,156.0133083613582L189.53884053800556,156.0133083613582L189.64277671271628,115.45217456984008L189.82466501846005,156.0133083613582L190.1624575862699,156.0133083613582L190.318361848336,38.01733073904697L190.68213845982353,115.45217456984008L190.99394698395574,156.0133083613582L191.38370763912093,156.0133083613582L191.59157998854238,156.0133083613582L191.61756403222006,156.0133083613582L192.18921299312905,111.76482114868446L192.29314916783977,156.0133083613582L192.6569257793273,89.64055995957571L192.96873430345948,156.0133083613582L192.99471834713717,156.0133083613582L193.17660665288093,156.0133083613582L193.54038326436847,156.0133083613582L193.69628752643456,93.32794854627508L193.8781758321783,67.51631635323884L193.9301439195337,156.0133083613582L194.1640003126328,156.0133083613582L194.21596839998818,156.0133083613582L194.24195244366584,156.0133083613582L194.7356492735418,115.45217456984008L194.81360140457485,156.0133083613582L195.04745779767399,156.0133083613582L195.38525036548384,156.0133083613582L195.74902697697138,156.0133083613582L196.00886741374816,156.0133083613582L196.4246121125911,156.0133083613582L196.71043659304559,156.0133083613582L197.17814937924385,156.0133083613582L197.43798981602066,156.0133083613582L197.46397385969834,100.70269055413009L197.61987812176443,71.20368735716633L197.80176642750817,156.0133083613582L197.90570260221892,156.0133083613582L197.93168664589658,156.0133083613582L197.9576706895743,156.0133083613582L198.52931965048325,156.0133083613582L198.55530369416095,156.0133083613582L198.65923986887168,156.0133083613582L198.71120795622704,156.0133083613582L198.94506434932617,156.0133083613582L199.04900052403687,156.0133083613582L199.80253779068963,111.76482114868446L199.82852183436734,97.01530196743072L200.06237822746644,93.32794854627508L200.14033035849948,156.0133083613582L200.32221866424325,63.828945349311326L200.58205910102006,89.64055995957571L200.60804314469775,156.0133083613582L200.6600112320531,156.0133083613582L200.78993145044154,156.0133083613582L200.9458357125076,156.0133083613582L201.04977188721833,89.64055995957571L201.1017399745737,156.0133083613582L201.51748467341662,156.0133083613582L201.6733889354827,156.0133083613582L201.69937297916036,156.0133083613582L201.9072453285818,156.0133083613582L202.40094215845775,156.0133083613582L202.84267090097833,156.0133083613582L203.51825603659807,104.39007914082946L204.11588904118472,104.39007914082946L204.45368160899457,156.0133083613582L204.53163374002762,156.0133083613582L205.33713909403573,156.0133083613582L205.36312313771342,156.0133083613582L205.77886783655632,115.45217456984008L205.804851880234,156.0133083613582L206.0646923170108,156.0133083613582L206.14264444804385,156.0133083613582L206.19461253539922,93.32794854627508L206.4804370158537,156.0133083613582L206.6363412779198,115.45217456984008L206.71429340895284,156.0133083613582L206.81822958366357,115.45217456984008L207.2859423698618,156.0133083613582L207.3119264135395,156.0133083613582L207.41586258825023,156.0133083613582L207.49381471928328,156.0133083613582L207.54578280663864,156.0133083613582L207.90955941812618,156.0133083613582L208.0134955928369,156.0133083613582L208.2993200732914,156.0133083613582L208.37727220432444,156.0133083613582L208.89695307787807,156.0133083613582L209.10482542729952,156.0133083613582L209.3646658640763,156.0133083613582L209.390649907754,156.0133083613582L209.6764743882085,156.0133083613582L210.27410739279517,156.0133083613582L210.40402761118355,74.89107594386572L210.84575635370413,156.0133083613582L211.98905427552214,156.0133083613582L212.0150383191998,156.0133083613582L212.11897449391054,156.0133083613582L212.22291066862124,108.07743256198509L212.6906234548195,156.0133083613582L212.8465277168856,104.39007914082946L212.8725117605633,156.0133083613582L213.96384159502588,156.0133083613582L214.17171394444733,156.0133083613582L214.37958629386878,85.95320653842009L214.40557033754646,67.51631635323884L214.84729908006705,156.0133083613582L215.1850916478769,115.45217456984008L215.28902782258763,156.0133083613582L215.57485230304212,100.70269055413009L215.8866608271743,156.0133083613582L215.96461295820734,156.0133083613582L216.0165810455627,156.0133083613582L216.12051722027346,156.0133083613582L216.32838956969488,156.0133083613582L217.88743219035575,156.0133083613582L218.04333645242187,156.0133083613582L218.06932049609952,156.0133083613582L218.12128858345488,71.20368735716633L218.5110492386201,156.0133083613582L218.69293754436387,82.26581795172072L219.29057054895054,156.0133083613582L219.39450672366127,156.0133083613582L219.68033120411576,156.0133083613582L219.7582833351488,74.89107594386572L220.20001207766938,156.0133083613582L220.35591633973547,156.0133083613582L220.69370890754533,156.0133083613582L221.21338978109893,156.0133083613582L221.44724617419806,156.0133083613582L221.86299087304099,156.0133083613582L221.91495896039635,156.0133083613582L222.14881535349548,156.0133083613582L222.3826717465946,156.0133083613582L222.59054409601606,93.32794854627508L223.11022496956969,156.0133083613582L223.16219305692505,156.0133083613582L223.2401451879581,156.0133083613582L223.29211327531343,156.0133083613582L223.4480175373795,156.0133083613582L223.75982606151172,156.0133083613582L223.7858101051894,82.26581795172072L223.96769841093314,71.20368735716633L224.0456505419662,156.0133083613582L224.1755707603546,156.0133083613582L224.3574590660984,89.64055995957571L224.40942715345372,156.0133083613582L225.73461338101546,156.0133083613582L226.02043786146996,156.0133083613582L226.098389992503,156.0133083613582L226.2283102108914,156.0133083613582L226.64405490973434,156.0133083613582L226.74799108444503,156.0133083613582L226.77397512812271,104.39007914082946L226.82594321547808,156.0133083613582L227.08578365225492,156.0133083613582L227.18971982696561,156.0133083613582L227.29365600167634,156.0133083613582L227.52751239477547,82.26581795172072L227.55349643845315,104.39007914082946L227.6834166568416,156.0133083613582L227.78735283155228,156.0133083613582L227.81333687522996,156.0133083613582L228.2030975303952,156.0133083613582L229.0086028844033,156.0133083613582L229.3204114085355,156.0133083613582L229.50229971427925,67.51631635323884L229.63221993266765,156.0133083613582L229.9959965441552,156.0133083613582L230.22985293725432,156.0133083613582L230.61961359241954,100.70269055413009L230.90543807287403,156.0133083613582L231.08732637861783,93.32794854627508L231.11331042229548,156.0133083613582L231.34716681539462,156.0133083613582L232.3345604751465,56.45420334145632L232.41251260617955,156.0133083613582L232.4644806935349,156.0133083613582L232.54243282456795,156.0133083613582L232.56841686824563,156.0133083613582L232.67235304295636,156.0133083613582L233.50384244064216,93.32794854627508L233.8676190521297,156.0133083613582L234.5691882314271,156.0133083613582L234.72509249349318,78.5784469477932L234.8290286682039,156.0133083613582L235.29674145440214,82.26581795172072L235.42666167279057,156.0133083613582L235.81642232795576,156.0133083613582L235.8943744589888,156.0133083613582L235.97232659002185,156.0133083613582L236.51799150725319,156.0133083613582L236.80381598770768,156.0133083613582L237.1416085555175,156.0133083613582L237.16759259919522,156.0133083613582L237.427433035972,89.64055995957571L237.50538516700504,100.70269055413009L237.6093213417158,156.0133083613582L238.05105008423635,156.0133083613582L238.1030181715917,156.0133083613582L238.18097030262476,156.0133083613582L238.7266352198561,156.0133083613582L238.77860330721143,156.0133083613582L238.90852352559983,156.0133083613582L239.19434800605435,156.0133083613582L239.4022203554758,156.0133083613582L239.5061565301865,97.01530196743072L239.94788527270708,156.0133083613582L240.10378953477317,89.64055995957571L240.36362997155,97.01530196743072L240.41559805890535,104.39007914082946L240.57150232097143,115.45217456984008L240.70142253935984,104.39007914082946L240.83134275774825,156.0133083613582L240.9092948887813,156.0133083613582L241.2990555439465,74.89107594386572L241.32503958762422,156.0133083613582L242.02660876692158,156.0133083613582L242.23448111634303,156.0133083613582L242.49432155311985,111.76482114868446L242.78014603357434,156.0133083613582L243.32581095080565,156.0133083613582L243.48171521287173,156.0133083613582L243.76753969332623,156.0133083613582L243.7935237370039,156.0133083613582L244.6250131346897,108.07743256198509L244.65099717836742,156.0133083613582L244.80690144043348,156.0133083613582L246.1580717116729,156.0133083613582L246.21003979902827,156.0133083613582L246.39192810477203,156.0133083613582L246.46988023580508,156.0133083613582L246.65176854154885,156.0133083613582L247.35333772084624,156.0133083613582L247.89900263807752,156.0133083613582L248.15884307485436,156.0133083613582L248.57458777369723,156.0133083613582L248.62655586105262,156.0133083613582L248.67852394840799,156.0133083613582L248.8084441667964,156.0133083613582L249.6399335644822,156.0133083613582L249.7698537828706,156.0133083613582L250.05567826332506,156.0133083613582L250.08166230700277,156.0133083613582L250.10764635068043,111.76482114868446L250.18559848171347,156.0133083613582L250.6013431805564,156.0133083613582L251.30291235985376,156.0133083613582L251.3808644908868,156.0133083613582L251.90054536444043,156.0133083613582L252.05644962650652,156.0133083613582L252.08243367018423,89.64055995957571L252.7580188058039,156.0133083613582L252.93990711154768,156.0133083613582L253.12179541729148,156.0133083613582L253.97926885865493,100.70269055413009L254.05722098968798,156.0133083613582L254.55091781956392,156.0133083613582L254.5769018632416,156.0133083613582L254.81075825634076,156.0133083613582L254.9926465620845,156.0133083613582L255.07059869311755,97.01530196743072L255.25248699886134,156.0133083613582L255.3304391298944,156.0133083613582L255.8241359597703,156.0133083613582L255.90208809080335,156.0133083613582L256.1879125712578,156.0133083613582L256.47373705171236,156.0133083613582L256.7335774884892,156.0133083613582L256.7855455758445,156.0133083613582L256.8115296195222,156.0133083613582L256.88948175055526,156.0133083613582L257.51309879881956,104.39007914082946L257.643019017208,156.0133083613582L257.66900306088564,156.0133083613582L257.7729392355964,156.0133083613582L258.2666360654723,156.0133083613582L258.29262010915005,156.0133083613582L258.5264765022492,156.0133083613582L258.73434885167063,97.01530196743072L259.0461573758028,156.0133083613582L259.56583824935643,156.0133083613582" style="fill: none;" fill="none"></path></g></g></g></g></g></g><g transform="translate(58, 177)" clip-path="url(#clip_1)"><clipPath id="clip_1"><rect width="271" height="23"></rect></clipPath><g><g><line x1="6.741093265518328" y1="0" x2="6.741093265518328" y2="5" style="visibility: inherit;" fill="rgb(0, 0, 0)" stroke="rgb(204, 204, 204)" stroke-width="1px"></line><line x1="32.72513694319953" y1="0" x2="32.72513694319953" y2="5" style="visibility: inherit;" fill="rgb(0, 0, 0)" stroke="rgb(204, 204, 204)" stroke-width="1px"></line><line x1="58.70918062088073" y1="0" x2="58.70918062088073" y2="5" style="visibility: inherit;" fill="rgb(0, 0, 0)" stroke="rgb(204, 204, 204)" stroke-width="1px"></line><line x1="84.69322429856193" y1="0" x2="84.69322429856193" y2="5" style="visibility: inherit;" fill="rgb(0, 0, 0)" stroke="rgb(204, 204, 204)" stroke-width="1px"></line><line x1="110.67726797624313" y1="0" x2="110.67726797624313" y2="5" style="visibility: inherit;" fill="rgb(0, 0, 0)" stroke="rgb(204, 204, 204)" stroke-width="1px"></line><line x1="136.66131165392432" y1="0" x2="136.66131165392432" y2="5" style="visibility: inherit;" fill="rgb(0, 0, 0)" stroke="rgb(204, 204, 204)" stroke-width="1px"></line><line x1="162.64535533160551" y1="0" x2="162.64535533160551" y2="5" style="visibility: inherit;" fill="rgb(0, 0, 0)" stroke="rgb(204, 204, 204)" stroke-width="1px"></line><line x1="188.62939900928674" y1="0" x2="188.62939900928674" y2="5" style="visibility: inherit;" fill="rgb(0, 0, 0)" stroke="rgb(204, 204, 204)" stroke-width="1px"></line><line x1="214.61344268696791" y1="0" x2="214.61344268696791" y2="5" style="visibility: inherit;" fill="rgb(0, 0, 0)" stroke="rgb(204, 204, 204)" stroke-width="1px"></line><line x1="240.59748636464911" y1="0" x2="240.59748636464911" y2="5" style="visibility: inherit;" fill="rgb(0, 0, 0)" stroke="rgb(204, 204, 204)" stroke-width="1px"></line><line x1="266.5815300423303" y1="0" x2="266.5815300423303" y2="5" style="visibility: inherit;" fill="rgb(0, 0, 0)" stroke="rgb(204, 204, 204)" stroke-width="1px"></line></g><g transform="translate(0, 8)"><text x="6.741093265518328" y="0" dx="0em" dy="0.95em" style="text-anchor: middle; visibility: inherit; font-family: &quot;Helvetica Neue&quot;, sans-serif; font-size: 12px; font-weight: 200;" fill="rgb(50, 49, 63)" stroke="none" stroke-width="1px">0</text><text x="32.72513694319953" y="0" dx="0em" dy="0.95em" style="text-anchor: middle; visibility: inherit; font-family: &quot;Helvetica Neue&quot;, sans-serif; font-size: 12px; font-weight: 200;" fill="rgb(50, 49, 63)" stroke="none" stroke-width="1px">1k</text><text x="58.70918062088073" y="0" dx="0em" dy="0.95em" style="text-anchor: middle; visibility: inherit; font-family: &quot;Helvetica Neue&quot;, sans-serif; font-size: 12px; font-weight: 200;" fill="rgb(50, 49, 63)" stroke="none" stroke-width="1px">2k</text><text x="84.69322429856193" y="0" dx="0em" dy="0.95em" style="text-anchor: middle; visibility: inherit; font-family: &quot;Helvetica Neue&quot;, sans-serif; font-size: 12px; font-weight: 200;" fill="rgb(50, 49, 63)" stroke="none" stroke-width="1px">3k</text><text x="110.67726797624313" y="0" dx="0em" dy="0.95em" style="text-anchor: middle; visibility: inherit; font-family: &quot;Helvetica Neue&quot;, sans-serif; font-size: 12px; font-weight: 200;" fill="rgb(50, 49, 63)" stroke="none" stroke-width="1px">4k</text><text x="136.66131165392432" y="0" dx="0em" dy="0.95em" style="text-anchor: middle; visibility: inherit; font-family: &quot;Helvetica Neue&quot;, sans-serif; font-size: 12px; font-weight: 200;" fill="rgb(50, 49, 63)" stroke="none" stroke-width="1px">5k</text><text x="162.64535533160551" y="0" dx="0em" dy="0.95em" style="text-anchor: middle; visibility: inherit; font-family: &quot;Helvetica Neue&quot;, sans-serif; font-size: 12px; font-weight: 200;" fill="rgb(50, 49, 63)" stroke="none" stroke-width="1px">6k</text><text x="188.62939900928674" y="0" dx="0em" dy="0.95em" style="text-anchor: middle; visibility: inherit; font-family: &quot;Helvetica Neue&quot;, sans-serif; font-size: 12px; font-weight: 200;" fill="rgb(50, 49, 63)" stroke="none" stroke-width="1px">7k</text><text x="214.61344268696791" y="0" dx="0em" dy="0.95em" style="text-anchor: middle; visibility: inherit; font-family: &quot;Helvetica Neue&quot;, sans-serif; font-size: 12px; font-weight: 200;" fill="rgb(50, 49, 63)" stroke="none" stroke-width="1px">8k</text><text x="240.59748636464911" y="0" dx="0em" dy="0.95em" style="text-anchor: middle; visibility: inherit; font-family: &quot;Helvetica Neue&quot;, sans-serif; font-size: 12px; font-weight: 200;" fill="rgb(50, 49, 63)" stroke="none" stroke-width="1px">9k</text><text x="266.5815300423303" y="0" dx="0em" dy="0.95em" style="text-anchor: middle; visibility: hidden; font-family: &quot;Helvetica Neue&quot;, sans-serif; font-size: 12px; font-weight: 200;" fill="rgb(50, 49, 63)" stroke="none" stroke-width="1px">10k</text></g><line x1="0" y1="0" x2="271.40625" y2="0" fill="rgb(0, 0, 0)" stroke="rgb(204, 204, 204)" stroke-width="1px"></line></g></g></g></g></svg>