<svg viewBox="0 0 330 200" xmlns="http://www.w3.org/2000/svg"><g><g><g><g><g><line x1="58.59375" y1="177" x2="53.59375" y2="177" style="visibility: inherit;" fill="rgb(0, 0, 0)" stroke="rgb(204, 204, 204)" stroke-width="1px"></line><line x1="58.59375" y1="163.3846153846154" x2="53.59375" y2="163.3846153846154" style="visibility: inherit;" fill="rgb(0, 0, 0)" stroke="rgb(204, 204, 204)" stroke-width="1px"></line><line x1="58.59375" y1="149.76923076923077" x2="53.59375" y2="149.76923076923077" style="visibility: inherit;" fill="rgb(0, 0, 0)" stroke="rgb(204, 204, 204)" stroke-width="1px"></line><line x1="58.59375" y1="136.15384615384616" x2="53.59375" y2="136.15384615384616" style="visibility: inherit;" fill="rgb(0, 0, 0)" stroke="rgb(204, 204, 204)" stroke-width="1px"></line><line x1="58.59375" y1="122.53846153846153" x2="53.59375" y2="122.53846153846153" style="visibility: inherit;" fill="rgb(0, 0, 0)" stroke="rgb(204, 204, 204)" stroke-width="1px"></line><line x1="58.59375" y1="108.92307692307692" x2="53.59375" y2="108.92307692307692" style="visibility: inherit;" fill="rgb(0, 0, 0)" stroke="rgb(204, 204, 204)" stroke-width="1px"></line><line x1="58.59375" y1="95.3076923076923" x2="53.59375" y2="95.3076923076923" style="visibility: inherit;" fill="rgb(0, 0, 0)" stroke="rgb(204, 204, 204)" stroke-width="1px"></line><line x1="58.59375" y1="81.6923076923077" x2="53.59375" y2="81.6923076923077" style="visibility: inherit;" fill="rgb(0, 0, 0)" stroke="rgb(204, 204, 204)" stroke-width="1px"></line><line x1="58.59375" y1="68.07692307692307" x2="53.59375" y2="68.07692307692307" style="visibility: inherit;" fill="rgb(0, 0, 0)" stroke="rgb(204, 204, 204)" stroke-width="1px"></line><line x1="58.59375" y1="54.46153846153847" x2="53.59375" y2="54.46153846153847" style="visibility: inherit;" fill="rgb(0, 0, 0)" stroke="rgb(204, 204, 204)" stroke-width="1px"></line><line x1="58.59375" y1="40.84615384615387" x2="53.59375" y2="40.84615384615387" style="visibility: inherit;" fill="rgb(0, 0, 0)" stroke="rgb(204, 204, 204)" stroke-width="1px"></line><line x1="58.59375" y1="27.230769230769226" x2="53.59375" y2="27.230769230769226" style="visibility: inherit;" fill="rgb(0, 0, 0)" stroke="rgb(204, 204, 204)" stroke-width="1px"></line><line x1="58.59375" y1="13.615384615384613" x2="53.59375" y2="13.615384615384613" style="visibility: inherit;" fill="rgb(0, 0, 0)" stroke="rgb(204, 204, 204)" stroke-width="1px"></line><line x1="58.59375" y1="0" x2="53.59375" y2="0" style="visibility: inherit;" fill="rgb(0, 0, 0)" stroke="rgb(204, 204, 204)" stroke-width="1px"></line></g><g transform="translate(48.59375, 0)"><text x="0" y="177" dx="0em" dy="0.3em" style="text-anchor: end; visibility: hidden; font-family: &quot;Helvetica Neue&quot;, sans-serif; font-size: 12px; font-weight: 200;" fill="rgb(50, 49, 63)" stroke="none" stroke-width="1px">-5e-3</text><text x="0" y="163.3846153846154" dx="0em" dy="0.3em" style="text-anchor: end; visibility: inherit; font-family: &quot;Helvetica Neue&quot;, sans-serif; font-size: 12px; font-weight: 200;" fill="rgb(50, 49, 63)" stroke="none" stroke-width="1px">0</text><text x="0" y="149.76923076923077" dx="0em" dy="0.3em" style="text-anchor: end; visibility: hidden; font-family: &quot;Helvetica Neue&quot;, sans-serif; font-size: 12px; font-weight: 200;" fill="rgb(50, 49, 63)" stroke="none" stroke-width="1px">5e-3</text><text x="0" y="136.15384615384616" dx="0em" dy="0.3em" style="text-anchor: end; visibility: inherit; font-family: &quot;Helvetica Neue&quot;, sans-serif; font-size: 12px; font-weight: 200;" fill="rgb(50, 49, 63)" stroke="none" stroke-width="1px">0.01</text><text x="0" y="122.53846153846153" dx="0em" dy="0.3em" style="text-anchor: end; visibility: hidden; font-family: &quot;Helvetica Neue&quot;, sans-serif; font-size: 12px; font-weight: 200;" fill="rgb(50, 49, 63)" stroke="none" stroke-width="1px">0.015</text><text x="0" y="108.92307692307692" dx="0em" dy="0.3em" style="text-anchor: end; visibility: inherit; font-family: &quot;Helvetica Neue&quot;, sans-serif; font-size: 12px; font-weight: 200;" fill="rgb(50, 49, 63)" stroke="none" stroke-width="1px">0.02</text><text x="0" y="95.3076923076923" dx="0em" dy="0.3em" style="text-anchor: end; visibility: hidden; font-family: &quot;Helvetica Neue&quot;, sans-serif; font-size: 12px; font-weight: 200;" fill="rgb(50, 49, 63)" stroke="none" stroke-width="1px">0.025</text><text x="0" y="81.6923076923077" dx="0em" dy="0.3em" style="text-anchor: end; visibility: inherit; font-family: &quot;Helvetica Neue&quot;, sans-serif; font-size: 12px; font-weight: 200;" fill="rgb(50, 49, 63)" stroke="none" stroke-width="1px">0.03</text><text x="0" y="68.07692307692307" dx="0em" dy="0.3em" style="text-anchor: end; visibility: hidden; font-family: &quot;Helvetica Neue&quot;, sans-serif; font-size: 12px; font-weight: 200;" fill="rgb(50, 49, 63)" stroke="none" stroke-width="1px">0.035</text><text x="0" y="54.46153846153847" dx="0em" dy="0.3em" style="text-anchor: end; visibility: inherit; font-family: &quot;Helvetica Neue&quot;, sans-serif; font-size: 12px; font-weight: 200;" fill="rgb(50, 49, 63)" stroke="none" stroke-width="1px">0.04</text><text x="0" y="40.84615384615387" dx="0em" dy="0.3em" style="text-anchor: end; visibility: hidden; font-family: &quot;Helvetica Neue&quot;, sans-serif; font-size: 12px; font-weight: 200;" fill="rgb(50, 49, 63)" stroke="none" stroke-width="1px">0.045</text><text x="0" y="27.230769230769226" dx="0em" dy="0.3em" style="text-anchor: end; visibility: inherit; font-family: &quot;Helvetica Neue&quot;, sans-serif; font-size: 12px; font-weight: 200;" fill="rgb(50, 49, 63)" stroke="none" stroke-width="1px">0.05</text><text x="0" y="13.615384615384613" dx="0em" dy="0.3em" style="text-anchor: end; visibility: hidden; font-family: &quot;Helvetica Neue&quot;, sans-serif; font-size: 12px; font-weight: 200;" fill="rgb(50, 49, 63)" stroke="none" stroke-width="1px">0.055</text><text x="0" y="0" dx="0em" dy="0.3em" style="text-anchor: end; visibility: hidden; font-family: &quot;Helvetica Neue&quot;, sans-serif; font-size: 12px; font-weight: 200;" fill="rgb(50, 49, 63)" stroke="none" stroke-width="1px">0.06</text></g><line x1="58.59375" y1="0" x2="58.59375" y2="177" fill="rgb(0, 0, 0)" stroke="rgb(204, 204, 204)" stroke-width="1px"></line></g></g><g transform="translate(58, 0)" clip-path="url(#clip_0)"><clipPath id="clip_0"><rect width="271" height="177"></rect></clipPath><g><g><g><line x1="0" y1="0" x2="0" y2="177" fill="rgb(0, 0, 0)" stroke="rgb(60, 60, 60)" stroke-width="1px" opacity="0.25"></line><line x1="22.6171875" y1="0" x2="22.6171875" y2="177" fill="rgb(0, 0, 0)" stroke="rgb(60, 60, 60)" stroke-width="1px" opacity="0.25"></line><line x1="45.234375" y1="0" x2="45.234375" y2="177" fill="rgb(0, 0, 0)" stroke="rgb(60, 60, 60)" stroke-width="1px" opacity="0.25"></line><line x1="67.8515625" y1="0" x2="67.8515625" y2="177" fill="rgb(0, 0, 0)" stroke="rgb(60, 60, 60)" stroke-width="1px" opacity="0.25"></line><line x1="90.46875" y1="0" x2="90.46875" y2="177" fill="rgb(0, 0, 0)" stroke="rgb(60, 60, 60)" stroke-width="1px" opacity="0.25"></line><line x1="113.0859375" y1="0" x2="113.0859375" y2="177" fill="rgb(0, 0, 0)" stroke="rgb(60, 60, 60)" stroke-width="1px" opacity="0.25"></line><line x1="135.703125" y1="0" x2="135.703125" y2="177" fill="rgb(0, 0, 0)" stroke="rgb(60, 60, 60)" stroke-width="1px" opacity="0.25"></line><line x1="158.3203125" y1="0" x2="158.3203125" y2="177" fill="rgb(0, 0, 0)" stroke="rgb(60, 60, 60)" stroke-width="1px" opacity="0.25"></line><line x1="180.9375" y1="0" x2="180.9375" y2="177" fill="rgb(0, 0, 0)" stroke="rgb(60, 60, 60)" stroke-width="1px" opacity="0.25"></line><line x1="203.5546875" y1="0" x2="203.5546875" y2="177" fill="rgb(0, 0, 0)" stroke="rgb(60, 60, 60)" stroke-width="1px" opacity="0.25"></line><line x1="226.171875" y1="0" x2="226.171875" y2="177" fill="rgb(0, 0, 0)" stroke="rgb(60, 60, 60)" stroke-width="1px" opacity="0.25"></line><line x1="248.7890625" y1="0" x2="248.7890625" y2="177" fill="rgb(0, 0, 0)" stroke="rgb(60, 60, 60)" stroke-width="1px" opacity="0.25"></line><line x1="271.40625" y1="0" x2="271.40625" y2="177" fill="rgb(0, 0, 0)" stroke="rgb(60, 60, 60)" stroke-width="1px" opacity="0.25"></line></g><g><line x1="0" y1="177" x2="271.40625" y2="177" fill="rgb(0, 0, 0)" stroke="rgb(60, 60, 60)" stroke-width="1px" opacity="0.25"></line><line x1="0" y1="163.3846153846154" x2="271.40625" y2="163.3846153846154" fill="rgb(0, 0, 0)" stroke="rgb(60, 60, 60)" stroke-width="1px" opacity="0.25"></line><line x1="0" y1="149.76923076923077" x2="271.40625" y2="149.76923076923077" fill="rgb(0, 0, 0)" stroke="rgb(60, 60, 60)" stroke-width="1px" opacity="0.25"></line><line x1="0" y1="136.15384615384616" x2="271.40625" y2="136.15384615384616" fill="rgb(0, 0, 0)" stroke="rgb(60, 60, 60)" stroke-width="1px" opacity="0.25"></line><line x1="0" y1="122.53846153846153" x2="271.40625" y2="122.53846153846153" fill="rgb(0, 0, 0)" stroke="rgb(60, 60, 60)" stroke-width="1px" opacity="0.25"></line><line x1="0" y1="108.92307692307692" x2="271.40625" y2="108.92307692307692" fill="rgb(0, 0, 0)" stroke="rgb(60, 60, 60)" stroke-width="1px" opacity="0.25"></line><line x1="0" y1="95.3076923076923" x2="271.40625" y2="95.3076923076923" fill="rgb(0, 0, 0)" stroke="rgb(60, 60, 60)" stroke-width="1px" opacity="0.25"></line><line x1="0" y1="81.6923076923077" x2="271.40625" y2="81.6923076923077" fill="rgb(0, 0, 0)" stroke="rgb(60, 60, 60)" stroke-width="1px" opacity="0.25"></line><line x1="0" y1="68.07692307692307" x2="271.40625" y2="68.07692307692307" fill="rgb(0, 0, 0)" stroke="rgb(60, 60, 60)" stroke-width="1px" opacity="0.25"></line><line x1="0" y1="54.46153846153847" x2="271.40625" y2="54.46153846153847" fill="rgb(0, 0, 0)" stroke="rgb(60, 60, 60)" stroke-width="1px" opacity="0.25"></line><line x1="0" y1="40.84615384615387" x2="271.40625" y2="40.84615384615387" fill="rgb(0, 0, 0)" stroke="rgb(60, 60, 60)" stroke-width="1px" opacity="0.25"></line><line x1="0" y1="27.230769230769226" x2="271.40625" y2="27.230769230769226" fill="rgb(0, 0, 0)" stroke="rgb(60, 60, 60)" stroke-width="1px" opacity="0.25"></line><line x1="0" y1="13.615384615384613" x2="271.40625" y2="13.615384615384613" fill="rgb(0, 0, 0)" stroke="rgb(60, 60, 60)" stroke-width="1px" opacity="0.25"></line><line x1="0" y1="0" x2="271.40625" y2="0" fill="rgb(0, 0, 0)" stroke="rgb(60, 60, 60)" stroke-width="1px" opacity="0.25"></line></g></g></g><g><g><line x1="0" y1="163.3846153846154" x2="271.40625" y2="163.3846153846154" fill="rgb(0, 0, 0)" stroke="rgb(153, 153, 153)" stroke-width="1.5px"></line></g></g><g><g><line x1="22.6171875" y1="0" x2="22.6171875" y2="177" fill="rgb(0, 0, 0)" stroke="rgb(153, 153, 153)" stroke-width="1.5px"></line></g></g><g><g><g><g><g><path stroke="rgb(187, 187, 187)" stroke-width="2px" d="M23.024296874999997,31.315380719991822L23.16,32.21780733052972L23.521875,34.763864420254265L23.567109375,29.211803804854497L23.6349609375,28.93637489837596L23.88375,31.470940792480604L24.2230078125,35.450503515405444L24.290859375,47.71907021819101L24.743203124999997,37.51815658136681L25.014609375,45.55575860800985L25.466953125,44.628257396297926L26.1228515625,46.379725404823944L26.190703125000002,54.94800143218754L26.3942578125,53.05064872779576L26.7561328125,61.29549813475545L26.801367187500002,64.94564268236248L27.7965234375,69.58814404524158L27.909609375,61.911540411529955L28.2488671875,71.33542486229825L28.3845703125,61.841348274312736L28.49765625,66.78615877100708L28.6559765625,62.19528799247004L28.7916796875,65.34784283823959L29.221406249999998,64.48884023688784L29.58328125,60.42410525685301L29.628515625,66.7087250773727L29.809453125,66.06618065944276L30.2844140625,61.61437325702478L30.4653515625,64.79571422165094L30.827226562499998,66.5339459450113L30.9176953125,72.50820646309961L32.1390234375,63.37975186473321L32.161640625,60.84234688554008L32.5461328125,63.77213818565883L32.613984375,57.90040794511961L32.681835937500004,61.21970414860614L33.02109375,60.82709627465327L33.0889453125,54.26762136068936L33.1115625,57.87643368312844L33.337734375000004,61.64662074272543L33.7674609375,54.869150236323634L34.242421875000005,58.00095016038475L34.6269140625,54.76231130311038L34.74,54.30785671502623L35.3506640625,56.15724533607033L35.5768359375,60.21104656680981L35.7125390625,45.286562044373L35.870859374999995,51.69855369674448L35.8934765625,58.20839520939478L36.639843750000004,53.077735362849594L36.685078125,56.98230435985249L36.956484374999995,48.72106946006764L37.114804687500005,56.94424109507142L37.137421875,52.3841761948332L37.18265625,46.473619130854274L37.250507812500004,48.92111160479399L37.2957421875,50.93932400132557L37.567148437499995,51.78897323375905L37.7933203125,56.2836513327793L38.765859375000005,49.22427120518664L38.856328125,51.64990096032997L38.946796875,46.753503423663545L39.127734375,44.44431133451923L39.3312890625,48.50104489095264L39.6253125,45.66981095095099L39.71578125,42.49246992726188L39.9193359375,44.21010032248722L40.0098046875,38.95120326294614L40.0550390625,36.7829174279384L40.1002734375,44.539796365161436L40.25859375,38.155691811076764L40.3716796875,44.39208139611961L40.4169140625,40.06857553326262L40.53,43.492410527557695L40.575234375,44.63302363772823L40.665703125,36.44747279109225L40.756171875,41.44720446087405L40.891875,43.12996379385012L40.914492187499995,38.727615001518245L41.4346875,49.261149470798955L41.52515625,39.5648911702952L42.2715234375,31.079568662427135L42.429843749999996,38.82446685181432L42.565546874999995,42.15517784242334L42.8821875,36.36643797781559L42.97265625,45.96516657341206L43.1309765625,34.56382200262962L43.176210937499995,45.80796872192022L43.3571484375,48.135507092813384L43.673789062500006,47.537605347513676L43.69640625,51.08481747242L43.922578125,37.99892972585323L43.9904296875,47.38279455333043L44.193984375,33.777576850789984L44.284453125,46.29303085282072L44.374921875,47.804035687558354L44.5784765625,36.88792863003542L44.60109375,40.45867663146069L44.736796874999996,39.25436074697822L44.7594140625,34.68626665098384L44.8725,42.378272588925995L45.279609375,35.332916402267045L45.3474609375,35.38610912605469L45.551015625,43.60284216934028L46.22953125,40.5530259350424L46.523554687499995,44.02457102707757L46.6592578125,36.75340236703903L46.727109375,38.7033126296146L46.772343750000005,39.53882332031921L46.8628125,41.00741183234945L46.998515624999996,43.25487037511721L47.1116015625,41.560689917320985L47.3377734375,35.16367678924482L47.4734765625,40.96551503311997L47.5865625,40.87085775054774L47.812734375,35.02088153072276L48.76265625,44.17505493443778L48.853125,38.08019033491698L48.8757421875,36.17073848548489L48.898359375,39.01458047248434L49.30546875,28.158435094499822L49.5994921875,28.934367865717263L49.893515625,42.91514660578167L50.4815625,28.53397301774092L50.75296875,36.570011487958425L51.0017578125,35.64218780879281L51.069609375000006,31.347271254670716L51.1374609375,23.54813917756033L51.5898046875,27.980036610910815L51.7255078125,28.897439379614354L51.883828125,29.7351646744591L52.01953125,26.885410901639887L52.381406250000005,42.275076903237874L52.4492578125,26.242074213165182L52.698046874999996,28.105801896929563L52.7658984375,18.77429796797307L52.833749999999995,21.1614773625856L52.8563671875,17.984637666695136L53.941992187500006,24.88493107738418L54.00984375,21.346676228159083L54.077695312500005,11.9766560585565L54.1003125,13.708039669632143L54.597890625,13.202677544421874L54.869296874999996,19.14438535781568L55.09546875,15.407703289950462L55.1859375,19.816769342511748L55.7513671875,14.899063853059403L55.773984375,21.007118778129694L56.0227734375,20.32802542684172L56.203710937500006,18.243992382347614L56.2941796875,20.835760450989426L56.339414062500005,19.644739375792454L57.0631640625,16.80691437072602L57.1536328125,17.731066049103333L57.7190625,14.467323271323863L58.0809375,9.904807074768513L58.103554687499994,13.279166929988037L58.442812499999995,12.03419869924096L58.53328125,18.03875170416032L58.89515625,16.474474922698164L58.917773437499996,19.389768148767416L59.4153515625,31.222118904877362L59.528437499999995,31.512011135242943L59.6415234375,22.28660253378439L59.709375,18.433482232504957L59.822460937500004,23.034389226121164L59.8903125,16.64481335704113L60.161718750000006,29.7901547302871L60.34265625,22.14611386893833L60.5009765625,17.10876327982743L60.659296875,16.497910974232923L60.862851562500005,18.098981612380726L60.9533203125,24.69266466316131L60.998554687500004,21.522812691394762L61.0437890625,20.4347740668876L61.111640625,24.528350779521105L61.2699609375,27.535125535185443L61.473515625000005,27.94158425423626L61.699687499999996,26.298204143673956L61.790156249999995,28.549300058896307L61.835390625,26.639936926218382L61.9032421875,40.0648594141764L62.016328125,32.69464354333658L62.084179687500004,30.30524228097792L62.106796875,36.93666422544848L62.559140625000005,27.08048350964029L62.7626953125,26.983714822245503L62.898398437500006,24.80428737219745L63.05671875,38.82112142379114L63.0793359375,33.73282757838123L63.282890625,33.11143001873285L63.4412109375,35.358140711014585L63.916171874999996,34.95945129161396L64.006640625,38.11602110162997L64.2328125,29.052127448415717L64.32328125,29.767185104701014L64.5268359375,33.5861798257354L64.820859375,40.42303755069372L64.88871093750001,33.848480561278365L65.0244140625,40.26139014757945L65.06964843749999,47.41924459427631L65.83863281250001,37.45609979544915L65.9743359375,33.666211756686096L66.358828125,40.439604160400506L66.585,35.36349130391375L66.65285156249999,37.76777811782455L66.6980859375,41.72050766350765L67.1051953125,44.05030413389008L67.4218359375,36.75872912014921L67.4670703125,42.80727232004324L67.8741796875,43.843377107049605L67.9646484375,42.97815665427723L68.1455859375,42.15123309883023L68.530078125,42.843818455555635L68.66578125,42.77124801341799L69.20859375,44.699686652672966L69.5026171875,47.25826978275606L69.57046875,48.65165502338621L69.5930859375,42.0300094621814L69.6383203125,48.43316366973016L69.68355468749999,52.349900233193395L69.7740234375,44.954942552368806L69.8644921875,44.28794484514103L70.0228125,52.57154212457803L70.3620703125,44.784886812905626L71.1310546875,48.355608403998815L71.22152343750001,44.99188267642842L71.37984375,44.94341437254451L71.5833984375,47.30872142076947L71.85480468749999,46.71863779167745L72.0809765625,54.154397752585666L72.12621093749999,54.6138978764191L72.17144531250001,40.241030823907096L72.28453125,54.75698578664286L72.3523828125,44.805394384601556L72.5333203125,53.11053344559784L72.6237890625,59.79631281646181L73.07613281249999,53.83831357386396L73.18921875,47.854327756388244L73.2118359375,50.502564133725784L73.2570703125,60.12022974599908L73.324921875,52.82566219020357L73.415390625,54.98666449233724L73.4380078125,53.27459563712161L73.596328125,57.88682101372157L73.6641796875,54.52275095877128L73.777265625,53.39450919104512L74.20699218749999,51.21750242434831L74.4331640625,55.08566273154854L74.5688671875,53.72696753898981L74.7045703125,59.92391467379396L74.79503906250001,52.5690893592773L75.06644531250001,59.90017754596512L75.0890625,58.17861428077761L75.6544921875,52.85562705525416L75.85804687500001,52.40159162129396L76.64964843749999,50.79602483203813L76.672265625,55.6462317472716L76.7175,53.62706971426468L77.71265625,62.926398732927936L77.89359375,59.23692133283036L78.0519140625,53.29064027040076L78.0971484375,55.08291495493806L78.1423828125,63.87558161947048L78.25546875,57.48994146956716L78.82089843749999,58.32751029029447L78.843515625,55.69366778270461L79.0696875,54.50064750630224L79.114921875,54.0377486537153L79.2280078125,67.54615363667237L79.54464843749999,63.00042985138589L79.6803515625,66.16232208036641L79.88390625,69.19217375889436L80.22316406249999,62.26145382861125L80.3136328125,62.12244064648891L80.3588671875,61.877721262417936L80.92429687500001,62.47488727163835L81.19570312500001,65.40571988902744L81.421875,59.5341971567713L81.55757812499999,61.77383412639786L81.9420703125,66.55623968701703L82.0777734375,62.36363839745577L82.100390625,58.04072775531306L82.41703125,58.441523051443866L82.552734375,61.331714975615256L82.66582031249999,72.0791595297659L83.186015625,68.6894420455142L83.34433593749999,60.429871298535716L83.457421875,63.90269939452057L83.7514453125,67.64473771924155L83.90976562499999,66.69181454266106L84.2490234375,65.63080091240597L84.5204296875,69.29809253249823L84.58828125,68.1137611770798L84.904921875,68.7323631192111L84.9727734375,68.21259884390102L85.69652343749999,64.00214254198514L85.71914062500001,65.93779734096901L85.7417578125,66.55442153973034L86.1488671875,68.84145908063124L86.488125,68.01923805254332L87.57375,69.79249902050665L87.7773046875,72.31896037263236L87.980859375,75.43322151502304L88.1165625,74.99817138342331L88.5915234375,70.58931529827566L88.63675781250001,70.75638427672467L88.659375,78.34886678300201L89.7223828125,80.35239395034884L89.9033203125,79.47148225273929L90.423515625,79.50507316450987L90.6270703125,80.37578903814521L90.7175390625,71.27060288645164L90.80800781250001,67.65831228764523L91.0794140625,73.82064443970754L91.14726562499999,78.76722900356374L91.328203125,74.6086167898685L91.3960546875,70.94055676376128L91.9388671875,75.79571488970984L92.02933593750001,71.18628607042844L92.0745703125,78.86973974284608L92.70785156250001,75.49359504560289L93.228046875,74.57878943790186L93.5673046875,76.9807083196084L93.7482421875,76.83008260639852L93.861328125,76.60695584934211L93.9744140625,81.93527508566281L94.1101171875,82.17447863487827L94.4719921875,78.7689515943623L94.87910156250001,78.92777005187436L94.90171875,85.65478616761482L95.0600390625,80.56907744171336L95.12789062499999,74.98159941656549L95.67070312499999,80.95100740455085L95.7385546875,73.76501307542658L95.896875,77.24413587892748L95.9647265625,76.02085357847464L95.98734375000001,77.92703449623416L96.032578125,75.73033432590569L96.0551953125,82.61757698521032L96.62062499999999,74.97375151132603L96.8241796875,71.44802696184632L97.3669921875,75.03699464361866L97.5479296875,80.7945234030786L97.86457031249999,76.53984014060225L97.88718750000001,77.38664581506738L98.2716796875,76.91411166795854L98.927578125,79.8394600083591L98.97281249999999,79.1493652935717L99.198984375,86.1325356489976L99.5834765625,86.71429337986787L99.6965625,78.41305544752078L100.19414062499999,80.53363181737647L100.2619921875,85.98719955307375L100.375078125,80.2060077461519L100.62386718750001,82.03245992877522L100.6691015625,86.08151733895755L100.827421875,84.32839260256061L100.963125,82.71784278057957L101.1214453125,82.12053051455031L101.25714843749999,83.22054747827535L101.325,76.17826859146507L101.7094921875,84.22187681041125L101.98089843749999,84.59126591267871L102.04875,85.09960872319952L102.2070703125,83.26137496419983L102.5689453125,79.37783360337582L102.6141796875,77.54223119551004L102.7498828125,80.18542038373799L102.8403515625,84.40353833188453L103.20222656249999,84.41293021444794L103.58671875,80.52795289258356L104.0390625,75.1890222458754L104.446171875,81.42582319656947L104.49140625,83.14872428191052L104.536640625,82.42566261850155L104.6044921875,87.4585480947853L104.67234375,79.86275397256307L105.0568359375,85.63238820602164L105.305625,83.80353958349548L105.622265625,82.56120938592964L106.30078125,79.28088814837733L106.34601562499999,82.05689980521163L106.88882812499999,81.98371531864913L106.979296875,78.94540724327454L107.02453125,88.46565631971508L107.160234375,86.98130972553066L107.2280859375,86.4581063251628L107.27332031249999,85.9179239549352L107.476875,82.35106805129045L107.6351953125,86.1474692203182L107.92921875,83.91016135345487L108.11015624999999,80.423879738358L108.40417968749999,78.19064201180282L108.4494140625,81.4473284082927L108.517265625,82.50535293901413L108.879140625,82.292484750522L108.99222656250001,81.38466250280119L109.0374609375,85.0836607168821L109.2636328125,92.11161477588081L109.35410156249999,91.40700091214032L110.00999999999999,90.42137970839687L110.1230859375,85.658623379386L110.28140625,87.69589170593692L111.2765625,87.0379080836543L111.45750000000001,92.51614398080267L111.6158203125,88.89945883725444L111.7062890625,87.71892574618849L111.955078125,84.45139650968169L112.09078124999999,88.95757719833418L112.226484375,90.75411513358816L112.7240625,89.18253776540821L112.9728515625,89.5050441719181L113.0859375,87.4124026441124L113.2894921875,92.59366435481749L113.31210937499999,91.72272480815595L113.58351562499999,95.42936176355201L113.8323046875,95.33287708061607L113.90015625000001,90.99410404334185L114.126328125,91.82349509003195L115.1893359375,90.26766197129093L115.30242187500001,94.26440522361804L115.3250390625,84.51066894025927L115.5512109375,93.50458693254595L117.20226562500001,96.23008648965221L117.4510546875,92.47546419006673L117.47367187500001,87.37945666614605L117.51890625,92.37090490420272L117.564140625,98.58669393008985L117.6319921875,96.41832410544087L117.65460937499999,88.57952313747242L118.22003906249999,93.69901682964593L118.333125,85.68927536395738L118.4009765625,85.9747155791414L118.5819140625,90.78448167794245L118.830703125,98.47424395542971L119.0342578125,97.04286586021341L119.10210937500001,92.06787183870293L119.1247265625,90.7501272246173L119.463984375,90.26141445632585L119.82585937500001,91.4558887123439L119.9615625,95.80600595807039L120.05203125000001,96.92241986111149L120.2555859375,99.31291789299425L120.3008203125,95.70488991086323L120.504375,97.76525139423848L120.59484375000001,87.39474445153094L120.730546875,95.82911165098096L120.84363281249999,95.84750457366533L121.43167968750001,99.09041042849289L121.635234375,91.55597381317662L121.9744921875,96.25860284029422L122.1328125,94.2088881622514L122.268515625,96.8077561105527L122.35898437499999,97.56166140902678L122.38160156250001,96.85396127310801L122.811328125,92.60460627024207L122.8791796875,98.85100974603573L123.6933984375,95.17739565809136L123.8291015625,96.79229752901585L124.16835937500001,90.64838115443749L124.21359375,97.58231261436127L124.5980859375,94.48289608548326L124.620703125,96.09669083516977L125.0504296875,99.07001076616709L125.07304687499999,94.35897033655561L125.1408984375,95.11130605522783L125.344453125,97.64237953612194L125.5932421875,93.41563177240907L126.158671875,91.24505316407021L126.2265234375,95.97830263275347L126.4753125,99.981248181623L126.5431640625,97.78669500138689L126.58839843749999,96.4686639603751L126.63363281250001,91.4451515606277L126.90503906250001,97.53130445526689L127.28953125,97.06361701685545L127.7644921875,99.55808533740897L127.92281249999999,92.08466178567372L128.10375,98.74338123773008L128.19421875,99.25797763160284L128.3525390625,104.97893759209536L128.37515625,101.19655669648364L128.3977734375,100.84548311744348L128.62394531249998,103.17214729466083L129.21199218750002,103.62977035839512L129.325078125,98.97381835833018L129.686953125,101.4650784695203L129.9357421875,96.36632678337983L130.0262109375,97.68622919367368L130.048828125,94.72034645057668L130.229765625,94.53828798910705L130.36546875,100.76286331626683L130.4333203125,97.08473080155524L130.636875,99.56245589084183L130.72734375000002,100.93910753922302L130.8856640625,99.83245899197662L130.90828125,101.42687744750937L131.043984375,98.7337631811485L131.1796875,101.63132668101942L131.224921875,97.6963819844105L131.29277343750002,101.41658877329465L132.084375,96.57223307163281L132.35578125,91.89846963300953L132.78550781250001,98.7048394621286L132.8307421875,100.11375801675625L133.26046875,98.24600380361093L133.30570312499998,97.64343904831412L133.758046875,100.54187105281979L134.30085937500002,99.84620465650212L134.3687109375,95.59934063773363L134.66273437499999,100.11874268182962L134.843671875,93.92823894357056L135.0472265625,105.171323504923L135.115078125,106.63488347642004L135.1603125,106.50595710197254L135.1829296875,105.39957117658325L136.17808593750001,96.96482714056614L136.3137890625,99.75357546619281L136.381640625,99.68302747007034L136.53996093749998,98.80466550217007L136.833984375,96.89532348721295L136.87921874999998,102.97829075197654L136.90183593749998,99.05490573517321L137.06015625,103.64126391048003L137.46726562499998,99.62402044533489L137.9874609375,101.815609934706L138.10054687500002,110.69093074164306L138.55289062499997,104.97021889874472L138.598125,102.7063333813861L138.733828125,103.1014676119958L139.321875,107.28612147246275L139.43496093750002,103.83354411367293L139.728984375,106.573902775607L139.819453125,108.22085518450601L140.2265625,104.89079654696474L140.4075,98.80297151301262L140.9276953125,100.78189427301237L141.01816406249998,106.59003015811746L141.10863281250002,104.76915539967804L141.13125,104.82411359103254L141.719296875,103.32390848221686L142.2394921875,97.6148671509069L142.895390625,109.17355406367352L143.14417968749999,107.89522446843284L143.5060546875,106.11902878779198L143.8226953125,102.9441370284189L143.8453125,103.15069296693157L144.29765625,106.43255258823154L144.84046874999999,99.33805464673058L144.88570312500002,106.07521572230141L145.20234375,105.95822661051851L145.6320703125,104.63837206532506L145.699921875,108.2520795938291L145.8130078125,104.46537671114723L146.64984375,110.15973027629181L146.80816406250003,111.33846146427673L146.8986328125,105.53614104687728L147.03433593749997,113.40454140264004L147.1700390625,109.20291811395039L147.28312499999998,103.7984417521094L147.35097656250002,102.73370105905124L147.3962109375,110.66503597120679L147.9390234375,111.22712010994842L148.1199609375,111.77535079301938L148.504453125,111.4569552780636L148.6175390625,109.66352631886599L148.6627734375,104.97348581640559L148.93417968749998,103.57076816604483L148.9794140625,112.34988629458458L149.1151171875,110.06430267246155L149.3865234375,110.02307015122949L149.49960937499998,112.74977305435766L149.72578124999998,109.47526793345362L149.951953125,111.41271739248496L150.585234375,111.16595053097726L150.63046875,110.6829905242937L150.7209375,109.93519890338301L151.06019531249999,110.86010420373314L151.9875,114.50660177610919L152.0553515625,114.18172458551643L152.4624609375,116.70575462736845L152.8695703125,111.39785070589521L153.2540625,123.03957306249805L153.32191406249999,118.53932926210365L153.435,114.42266618943302L153.5480859375,115.0281084517774L153.9551953125,114.28967646737976L153.9778125,115.21652323468405L154.3623046875,117.3518372140976L154.43015624999998,115.4664960404107L154.5884765625,117.40358158488303L155.19914062499998,116.50892049353442L155.244375,115.45996309272638L155.4026953125,117.6181688978881L155.8098046875,112.4504789925957L155.8550390625,120.88212713071607L156.013359375,118.52461722057623L156.2169140625,116.30909560377145L156.4430859375,117.79393932767442L156.691875,116.58972454629223L156.78234375,119.14767134002656L156.8049609375,119.67716632632954L157.2346875,120.00271142167L157.3477734375,118.55851780197943L157.3930078125,118.90739264442661L157.48347656250002,119.1955493699889L157.68703125,117.52767672457853L158.094140625,123.22874687138886L158.54648437499998,123.11322858162626L158.6595703125,119.85021777581349L158.863125,121.9819937924907L158.998828125,115.70513833415365L159.0214453125,120.47614143744195L159.1119140625,122.75937888997497L159.17976562500002,124.74359049707536L159.67734375,120.18770269231146L160.084453125,118.16493172865074L160.174921875,123.79253993468126L160.2880078125,122.5821148462006L160.64988281249998,125.66662898992797L160.6951171875,126.64103107791799L160.9212890625,122.3079919690497L161.05699218750001,124.65015340444384L161.1022265625,118.89671179164017L161.23792968749999,122.21649732011828L161.2831640625,123.76745346831413L161.3283984375,125.16820156796729L161.5998046875,123.94657698126741L161.64503906250002,127.79655975545333L161.6902734375,121.68342586149863L162.21046875,123.44116804320413L162.41402343750002,122.72532049784056L162.481875,126.46405948640736L162.84375,127.4539180902164L163.069921875,130.25010045260757L163.0925390625,127.58980967069266L163.1377734375,125.74348966868392L163.2734765625,126.0091203277953L163.5675,128.43944586136035L163.68058593749998,131.31786323393726L163.83890625,129.10647637658025L163.974609375,129.72841947408398L164.2686328125,127.26588207496255L164.85667968750002,133.6662171615556L165.37687499999998,134.99108652448035L165.46734375,127.92337287694517L165.4899609375,127.97193760633144L165.64828125,128.84574903801732L166.0327734375,127.94692782739968L166.2815625,127.76087183680183L166.53035156250002,127.50641861357232L166.68867187499998,129.61314715031708L166.824375,129.8333003242475L167.3671875,134.41361237233332L168.6111328125,134.28203678931047L168.7016015625,139.22142025105842L168.99562500000002,137.26870054958957L169.2444140625,138.11214057293236L169.3348828125,134.615752860483L169.5158203125,138.64268057826393L169.53843750000001,137.7487335282428L169.62890625,138.42744703268932L169.855078125,136.62448000733224L170.08125,136.46720546625903L170.10386718750001,137.73029145750724L170.12648437500002,139.7192693341994L170.307421875,136.24406832421764L170.759765625,137.90004170228036L171.302578125,137.81094691408993L171.43828125000002,138.0084459372082L171.46089843750002,137.61744695754427L171.52875,140.34373143333224L171.754921875,140.26025140919518L171.9584765625,140.2429710441988L172.02632812500002,134.84089312376145L172.25250000000003,134.92233119827026L172.3655859375,138.9220819273616L173.1798046875,141.7654702564203L173.383359375,137.31545081464455L173.42859375,135.0986569800446L173.5190625,138.74264173101318L173.654765625,138.84912566383852L173.7226171875,140.07083403087472L173.88093750000002,139.98782201371074L174.061875,140.18657815933352L174.1297265625,140.8755415921026L174.3106640625,142.09785619411343L174.40113281249998,142.78275558863015L174.4916015625,141.19700867569333L175.01179687500002,140.8687590647154L175.102265625,140.80081139524296L175.26058593750003,139.7070480617835L175.3510546875,142.935678210314L175.59984375000002,139.71708421505377L175.87125,143.58557559911713L176.233125,142.01101332848927L176.7985546875,142.33289884354548L177.1378125,140.24012979675786L177.45445312500001,143.26196576262944L177.63539062499999,144.10342644628957L177.816328125,140.19874214292818L177.95203124999998,141.09399916988244L177.9746484375,141.27931737446195L178.5626953125,143.04519832486272L178.8793359375,142.97885540969523L178.94718749999998,143.82888196450747L179.444765625,142.2773173793008L179.8292578125,141.02040375900287L180.1006640625,138.5108477736744L180.16851562500003,142.4721251174997L180.30421875,140.5808628858531L180.71132812500002,142.9006182457207L180.7565625,141.22140624571105L181.163671875,143.8969702594632L181.254140625,142.50735229508135L181.7291015625,141.57188147137813L181.81957031250002,140.29853883389495L181.977890625,140.89871745173681L182.2719140625,141.67077332515728L182.40761718750002,141.88457480479823L182.7242578125,144.03424615119422L182.9956640625,141.8879484995935L183.334921875,141.65960451888787L183.51585937500002,145.28331711216316L183.5384765625,143.65808563184214L184.0360546875,140.5144434619353L184.1265234375,140.51152843229173L184.4431640625,141.59062519813216L184.7145703125,139.43865824153215L184.7371875,140.93666180229346L184.8955078125,141.46268817254676L185.2121484375,140.92375472056406L185.34785156249998,143.1875364886816L185.506171875,145.2876857795237L185.55140624999999,139.12424960490358L185.75496093750002,139.79187903753473L185.8001953125,142.0894786840426L185.8228125,142.34914117214504L186.2525390625,138.5159708711762L186.320390625,138.80220479585225L186.52394531250002,141.88461611601434L186.81796875,139.7154539947095L187.134609375,140.56207724575174L187.36078125,141.1692095361669L187.72265625,142.37458609725945L187.9714453125,142.19221877350518L188.3785546875,144.52980872461703L188.6047265625,143.5021093956201L188.62734375,139.83433547041216L188.76304687500001,140.99457257881988L188.9213671875,141.69061533646345L189.0118359375,140.53905637714334L189.034453125,137.49346441908364L189.0570703125,141.39776621929852L189.5546484375,144.14941640717154L189.577265625,143.20742855273315L189.66773437499998,139.3414572695831L189.71296875,139.62090139094764L189.9165234375,138.59904614709347L190.00699218749997,139.68316192176803L190.66289062500002,144.6582538613836L190.6855078125,139.3538572568408L190.88906250000002,141.1350476316381L190.9569140625,144.09503365952582L191.115234375,140.9168049540525L191.34140624999998,137.85957721503883L191.36402343749998,139.74603148600846L191.40925781250002,140.78434843072432L191.52234375,143.80649929176093L191.65804687500003,143.78426461491932L191.748515625,140.756502144608L191.79375,139.48193440262838L192.155625,144.18471949302125L192.291328125,142.56691638642786L192.3139453125,139.8566901506851L192.4948828125,143.18259375589236L192.924609375,139.1203768334613L193.30910156250002,140.22295664019762L193.89714843750002,139.80337176066485L194.41734375000001,143.14756344485545L194.7113671875,143.21598462270947L194.77921875,143.23014780652522L195.48035156249998,137.834578700692L195.50296875,142.7640166857438L195.86484375,141.19312972279585L195.8874609375,138.2766765011609L196.11363281250001,141.34395148711278L196.181484375,140.6832365935035L196.22671875,143.13774923638005L196.47550781249998,142.56613317647887L196.6112109375,143.09562855715552L196.67906250000001,143.85305400603175L196.76953125,144.6576609790253L197.176640625,144.82421462243497L197.1992578125,143.99493168836887L197.2897265625,140.3682309624606L197.357578125,142.20878353250225L197.4028125,141.94195700387573L197.719453125,144.69394417147944L197.809921875,141.8085663566168L198.0587109375,144.0185124024207L198.1265625,141.45281033614796L198.57890625000002,142.64923109603126L198.75984375,142.03312964952624L198.986015625,142.33747692200012L199.0086328125,137.6497958275953L199.25742187499998,140.1344860051591L199.7776171875,141.08069814936422L199.89070312500002,142.4522368518533L200.2751953125,140.69671203082905L201.2703515625,142.49271874683026L201.29296875,140.921031416265L201.38343749999999,142.32321322643978L201.47390625,143.69316403257358L201.881015625,143.11298431119138L202.01671875,140.6175471217363L202.0393359375,138.3734705359173L202.9892578125,139.85240740343028L203.1701953125,142.9657675940349L203.3511328125,141.88271307143725L203.37375,143.57798709618532L203.7582421875,145.03260240058754L204.05226562500002,142.7424281482941L204.142734375,142.91618198314552L204.39152343749998,140.79274867300654L204.6629296875,139.05755816765543L204.73078124999998,139.34619464367287L204.77601562499999,143.29286182466555L204.866484375,141.73448194400208L205.047421875,143.57129665710897L206.40445312499997,140.4964781441655L206.54015625,141.3715701553143L206.5627734375,140.6889536578212L206.6080078125,141.89127966714696L206.947265625,141.87623370374718L207.1055859375,140.45751336320632L207.62578125000002,143.30696416088426L207.71625,142.60116066585124L207.96503906249998,139.64783908335L208.032890625,143.5952352611572L208.4173828125,142.87677342233246L208.5530859375,139.27301165759013L208.847109375,142.84583267464598L209.299453125,140.5622467329714L209.50300781250002,142.0330041582733L209.86488281249999,139.7461703194571L209.9101171875,139.70467699227157L210.113671875,139.69608787354417L210.3172265625,140.12618919231906L210.4981640625,142.80650079115912L210.9505078125,141.4178655768905L210.99574218749999,141.9941776257888L211.06359375,142.76129412498693L211.108828125,143.99978741729757L211.24453125,146.84743514911057L211.5159375,143.33403816041408L211.53855468749998,139.0797446067401L211.696875,139.6387060770984L211.7647265625,144.43311186836127L211.87781249999998,140.67487389289474L212.0361328125,143.56789842925448L212.0813671875,143.7348742363805L213.23484374999998,144.41725813353176L213.4836328125,141.96723197993737L213.551484375,143.18759664819612L213.6645703125,140.20111260914481L214.0264453125,144.54953002049487L214.1169140625,142.85837179879064L214.13953125,141.42860287547023L214.184765625,141.34858034151864L214.41093750000002,143.70735566411963L214.50140625,144.6275014222495L214.591875,141.14699179690103L214.7954296875,143.18575975487784L214.818046875,139.98479072795425L214.9311328125,139.53813178365476L215.0216015625,144.62823262279414L215.04421875,142.44278296556615L215.3834765625,143.71791496857276L216.084609375,143.33404738811893L216.356015625,141.5270677224612L216.5143359375,142.78456939651184L216.627421875,139.68580469059674L216.9440625,141.41970038360128L217.1476171875,142.42643770267838L217.486875,141.77107178392646L217.7356640625,140.98759012811965L217.89398437499997,141.23329629296535L217.91660156249998,142.8197313222682L218.12015624999998,142.50030346825773L218.979609375,142.74609515286426L219.0474609375,143.56476095816774L219.0926953125,145.2458052287426L219.160546875,141.0590410516694L219.1831640625,140.19238086701523L219.27363281249998,144.54772254987404L219.9973828125,144.58551773442494L220.3140234375,138.7629611863924L220.92468749999998,141.4446124169557L221.060390625,145.4067675771824L221.15085937499998,144.11552015000157L221.55796875000001,141.64084577556542L221.6710546875,138.80123500153363L222.0103125,141.66847472986566L222.0781640625,142.4779339923551L222.146015625,140.70203133891292L222.6209765625,144.8691598307326L222.869765625,144.4361156183869L223.1637890625,144.5624150996071L223.18640625,140.26975838431318L223.412578125,138.2055066611577L223.4804296875,140.89733905833168L223.5708984375,142.96612881342375L223.955390625,142.3146681157512L224.000625,142.82763565640914L224.0684765625,142.28600003224918L224.5434375,144.549221445177L224.58867187500002,144.1539477338522L224.70175781249998,141.48084544975427L224.950546875,141.1434549212197L225.131484375,144.31271460719393L225.221953125,142.64139818366712L225.6064453125,144.62278886252054L225.7421484375,140.54618219501748L225.9683203125,143.97313851414535L226.0135546875,144.0107051628259L226.14925781250003,143.1787153251536L226.26234375,141.7108536186031L226.37542968749997,141.40700624534713L226.44328125,143.50350918748742L226.7825390625,145.11315909069805L226.80515625,141.46346256744565L227.4158203125,142.86737574108562L227.59675781250002,146.6130259321347L227.82292968750002,145.2289751677286L228.07171875,146.2381174751979L228.5466796875,145.1513691171427L228.6823828125,143.41483276369718L228.93117187500002,143.05536973853395L228.9537890625,141.90126071534857L229.6775390625,140.1507807042211L229.70015625000002,140.4362502414449L229.83585937499998,142.22286352325202L231.011953125,142.80863210576183L231.05718750000003,140.1226669488609L231.2155078125,140.2144910609096L231.283359375,140.88131956272886L231.4416796875,144.0425119492616L232.05234375,141.02589897599256L232.5273046875,138.67394101402203L232.7534765625,142.7218250514274L233.1153515625,143.99161731907074L233.1605859375,142.74288386959586L233.20582031249998,142.48439604555455L233.31890625,146.31780950198404L234.04265625,144.73598610033596L234.1557421875,138.79410813813598L234.40453125000002,144.6901593613475L234.4271484375,143.75124261614803L234.449765625,143.9887661162432L234.5176171875,141.01477358855774L234.87949218749998,139.75133823579966L235.49015625,138.62604657397787L235.5580078125,140.55251155393398L236.0103515625,139.87158962780828L236.1460546875,138.2190573346742L236.168671875,145.45887779313455L236.75671874999998,143.4784870596275L236.9150390625,143.500426449692L237.07335937500002,140.48180801123019L237.8197265625,139.20913308384343L237.88757812499998,144.12824962003276L238.31730468749998,139.96394649686556L238.339921875,138.45411685084275L238.5434765625,142.46038181647356L238.70179687499999,145.44907801276338L238.7696484375,145.03602475702425L238.92796875,144.25471601940458L238.9958203125,144.308925749442L239.425546875,143.88826689165933L239.4933984375,143.15337060302213L239.7421875,135.4433458324379L239.99097656249998,140.10963213361094L240.2171484375,140.21179285415286L240.2623828125,140.8807610339302L240.285,145.55397678267735L240.35285156249998,144.14599245553904L240.89566406249997,141.47919870714344L241.00875,140.71123276804983L241.0313671875,141.41602436245836L241.12183593749998,144.58507611470606L241.55156250000002,144.80918955552087L241.5741796875,139.025200886535L241.77773437500002,140.63513649663332L241.958671875,144.20749269330454L242.23007812499998,141.92381053381035L243.0669140625,140.15544851664268L243.134765625,140.22127684544046L243.315703125,142.61024329663056" style="fill: none;" fill="none"></path></g></g></g></g><g opacity="0.2"><g><g><g><path stroke="rgb(187, 187, 187)" stroke-width="2px" d="M23.024296874999997,31.315380719991822L23.16,32.40460963891104L23.521875,35.39999423806486L23.567109375,27.775381661378418L23.6349609375,28.864610580297608L23.88375,32.132297337055235L24.2230078125,36.48922315698405L24.290859375,50.92153169329352L24.743203124999997,34.855379778605254L25.014609375,47.653844936535904L25.466953125,44.386148035526304L26.1228515625,46.83691817522052L26.190703125000002,57.184613193456954L26.3942578125,52.555375071672316L26.7561328125,63.44768454936835L26.801367187500002,65.89845468906256L27.7965234375,70.79999496845099L27.909609375,59.90768549075496L28.2488671875,73.79537956760481L28.3845703125,59.36307103129535L28.49765625,68.07692267115301L28.6559765625,60.99691440967413L28.7916796875,66.17076699091838L29.221406249999998,64.26461131068378L29.58328125,59.36307103129535L29.628515625,68.34922482875677L29.809453125,65.89845468906256L30.2844140625,60.45229995021454L30.4653515625,65.6261525314588L30.827226562499998,66.98768360798175L30.9176953125,74.06769186946063L32.1390234375,60.99691440967413L32.161640625,60.17999779261076L32.5461328125,64.53691346828754L32.613984375,56.367686432141525L32.681835937500004,62.08615347284538L33.02109375,60.72461225207037L33.0889453125,52.555375071672316L33.1115625,58.81845657183574L33.337734375000004,62.63076793230498L33.7674609375,53.09999967538394L34.242421875000005,58.81845657183574L34.6269140625,53.91691629244731L34.74,54.189228594303145L35.3506640625,56.63999873399736L35.5768359375,61.26922671152995L35.7125390625,41.39076343637248L35.870859374999995,53.37230183298773L35.8934765625,59.90768549075496L36.639843750000004,51.73845845460893L36.685078125,58.001529810520324L36.956484374999995,46.564605873364684L37.114804687500005,59.09076887369157L37.137421875,51.19384399514934L37.18265625,44.930762494985885L37.250507812500004,49.55999047251849L37.2957421875,51.4661461527531L37.567148437499995,52.01076061221271L37.7933203125,57.45691535106074L38.765859375000005,47.3815326346801L38.856328125,52.283072914068526L38.946796875,45.475376954445494L39.127734375,43.841533576066695L39.3312890625,49.55999047251849L39.6253125,44.930762494985885L39.71578125,41.66307573822829L39.9193359375,44.65846033738211L40.0098046875,37.57845207590324L40.0550390625,36.21692099938025L40.1002734375,46.564605873364684L40.25859375,36.48922315698405L40.3716796875,46.019991413905075L40.4169140625,38.93999329667827L40.53,44.386148035526304L40.575234375,44.930762494985885L40.665703125,34.310765319145645L40.756171875,42.752304657147505L40.891875,43.56922127421086L40.914492187499995,37.57845207590324L41.4346875,52.01076061221271L41.52515625,37.03383761644366L42.2715234375,28.864610580297608L42.429843749999996,40.84614897691287L42.565546874999995,43.02460681475128L42.8821875,34.855379778605254L42.97265625,48.47076155359929L43.1309765625,31.587682877595626L43.176210937499995,48.74307385545512L43.3571484375,48.74307385545512L43.673789062500006,47.3815326346801L43.69640625,52.01076061221271L43.922578125,34.58306747674945L43.9904296875,49.83230277437431L44.193984375,30.226151801072632L44.284453125,49.55999047251849L44.374921875,48.19845939599551L44.5784765625,34.03845301728984L44.60109375,41.39076343637248L44.736796874999996,38.93999329667827L44.7594140625,33.49383855783023L44.8725,44.386148035526304L45.279609375,33.49383855783023L45.3474609375,35.39999423806486L45.551015625,45.7476892563013L46.22953125,39.75692005799368L46.523554687499995,44.930762494985885L46.6592578125,34.855379778605254L46.727109375,39.21230559853407L46.772343750000005,39.75692005799368L46.8628125,41.39076343637248L46.998515624999996,43.841533576066695L47.1116015625,41.11845113451665L47.3377734375,33.49383855783023L47.4734765625,42.47999235529167L47.5865625,40.84614897691287L47.812734375,33.49383855783023L48.76265625,46.564605873364684L48.853125,36.48922315698405L48.8757421875,35.67230653992067L48.898359375,39.75692005799368L49.30546875,25.324611521684204L49.5994921875,29.13691273790141L49.893515625,46.564605873364684L50.4815625,24.779997062224624L50.75296875,38.66769113907446L51.0017578125,35.39999423806486L51.069609375000006,30.226151801072632L51.1374609375,21.512300161214966L51.5898046875,29.13691273790141L51.7255078125,29.13691273790141L51.883828125,29.953839499216826L52.01953125,26.14152813874759L52.381406250000005,46.29230371576091L52.4492578125,22.056914620674576L52.698046874999996,28.592298278441802L52.7658984375,16.338457724222792L52.833749999999995,21.7846124630708L52.8563671875,17.155374341286148L53.941992187500006,26.686142598207198L54.00984375,20.423071242295777L54.077695312500005,9.530761764599731L54.1003125,14.159989742132325L54.597890625,13.070760823213135L54.869296874999996,20.69537339989958L55.09546875,14.432302043988159L55.1859375,20.967685701755386L55.7513671875,13.615375282672744L55.773984375,22.601529080134185L56.0227734375,20.15075894043997L56.203710937500006,17.699988800745757L56.2941796875,21.512300161214966L56.339414062500005,19.333842323376587L57.0631640625,16.066145422366958L57.1536328125,17.972301102601563L57.7190625,13.615375282672744L58.0809375,8.713835003284316L58.103554687499994,14.159989742132325L58.442812499999995,11.709219602438111L58.53328125,19.606144480980362L58.89515625,16.066145422366958L58.917773437499996,20.15075894043997L59.4153515625,34.310765319145645L59.528437499999995,31.587682877595626L59.6415234375,19.878456782836196L59.709375,17.427686643141982L59.822460937500004,24.235382602765014L59.8903125,14.976916503447768L60.161718750000006,33.221536400226455L60.34265625,20.15075894043997L60.5009765625,15.793843264763183L60.659296875,16.338457724222792L60.862851562500005,18.516915562061172L60.9533203125,26.413840440603394L60.998554687500004,20.69537339989958L61.0437890625,20.15075894043997L61.111640625,25.596913679288008L61.2699609375,28.319996120838027L61.473515625000005,28.04768381898222L61.699687499999996,25.869225981143813L61.790156249999995,29.13691273790141L61.835390625,26.14152813874759L61.9032421875,43.56922127421086L62.016328125,30.77076626053224L62.084179687500004,29.68152719736102L62.106796875,38.66769113907446L62.559140625000005,24.50768476036879L62.7626953125,26.958454900063003L62.898398437500006,24.235382602765014L63.05671875,42.47999235529167L63.0793359375,32.40460963891104L63.282890625,32.94922409837065L63.4412109375,35.944608697524444L63.916171874999996,34.855379778605254L64.006640625,38.93999329667827L64.2328125,26.686142598207198L64.32328125,29.953839499216826L64.5268359375,34.58306747674945L64.820859375,42.207690197687896L64.88871093750001,32.132297337055235L65.0244140625,41.93537789583209L65.06964843749999,49.28768831491472L65.83863281250001,34.855379778605254L65.9743359375,32.676921940766846L66.358828125,42.207690197687896L66.585,34.03845301728984L66.65285156249999,38.39537883721866L66.6980859375,42.752304657147505L67.1051953125,44.65846033738211L67.4218359375,34.855379778605254L67.4670703125,44.386148035526304L67.8741796875,44.11383573367047L67.9646484375,42.752304657147505L68.1455859375,41.93537789583209L68.530078125,43.02460681475128L68.66578125,42.752304657147505L69.20859375,45.20307479684169L69.5026171875,47.92614709413971L69.57046875,49.015376013058884L69.5930859375,40.30153451745329L69.6383203125,50.1046049319781L69.68355468749999,53.37230183298773L69.7740234375,43.02460681475128L69.8644921875,44.11383573367047L70.0228125,54.73384305376274L70.3620703125,42.752304657147505L71.1310546875,49.28768831491472L71.22152343750001,44.11383573367047L71.37984375,44.930762494985885L71.5833984375,47.92614709413971L71.85480468749999,46.564605873364684L72.0809765625,56.095384274537764L72.12621093749999,54.73384305376274L72.17144531250001,36.48922315698405L72.28453125,58.54614426997992L72.3523828125,42.207690197687896L72.5333203125,55.278457513222335L72.6237890625,61.54152886913374L73.07613281249999,52.283072914068526L73.18921875,46.29230371576091L73.2118359375,51.19384399514934L73.2570703125,62.63076793230498L73.324921875,50.92153169329352L73.415390625,55.55075967082611L73.4380078125,52.82768737352812L73.596328125,59.09076887369157L73.6641796875,53.64461413484355L73.777265625,53.09999967538394L74.20699218749999,50.64922953568973L74.4331640625,56.095384274537764L74.5688671875,53.37230183298773L74.7045703125,61.54152886913374L74.79503906250001,50.64922953568973L75.06644531250001,61.81384117098956L75.0890625,57.72922765291655L75.6544921875,51.4661461527531L75.85804687500001,52.283072914068526L76.64964843749999,50.37691723383391L76.672265625,56.912300891601134L76.7175,53.09999967538394L77.71265625,65.35384022960297L77.89359375,58.27384211237616L78.0519140625,51.73845845460893L78.0971484375,55.55075967082611L78.1423828125,66.17076699091838L78.25546875,55.823071972681944L78.82089843749999,58.54614426997992L78.843515625,55.00614521136653L79.0696875,54.189228594303145L79.114921875,53.91691629244731L79.2280078125,71.07230727030681L79.54464843749999,61.81384117098956L79.6803515625,66.98768360798175L79.88390625,69.98306820713557L80.22316406249999,60.45229995021454L80.3136328125,62.08615347284538L80.3588671875,61.81384117098956L80.92429687500001,62.63076793230498L81.19570312500001,66.17076699091838L81.421875,58.001529810520324L81.55757812499999,62.35845563044917L81.9420703125,67.80461036929718L82.0777734375,61.26922671152995L82.100390625,56.912300891601134L82.41703125,58.54614426997992L82.552734375,62.08615347284538L82.66582031249999,74.884608486524L83.186015625,67.80461036929718L83.34433593749999,58.27384211237616L83.457421875,64.80922577014339L83.7514453125,68.6215371306126L83.90976562499999,66.44306914852217L84.2490234375,65.35384022960297L84.5204296875,70.2553805089914L84.58828125,67.80461036929718L84.904921875,68.89383928821638L84.9727734375,68.07692267115301L85.69652343749999,62.90307008990875L85.71914062500001,66.44306914852217L85.7417578125,66.71538145037799L86.1488671875,69.43845374767596L86.488125,67.80461036929718L87.57375,70.2553805089914L87.7773046875,72.9784528062894L87.980859375,76.24614970729903L88.1165625,74.884608486524L88.5915234375,69.43845374767596L88.63675781250001,70.79999496845099L88.659375,80.33076322537204L89.7223828125,80.87538275695765L89.9033203125,79.24153430645282L90.423515625,79.51384153618262L90.6270703125,80.60307552722784L90.7175390625,68.89383928821638L90.80800781250001,66.71538145037799L91.0794140625,75.42922294598361L91.14726562499999,80.05845599564223L91.328203125,73.52307741000102L91.3960546875,69.98306820713557L91.9388671875,77.06307646861445L92.02933593750001,69.98306820713557L92.0745703125,80.87538275695765L92.70785156250001,74.61230632892024L93.228046875,74.33999402706439L93.5673046875,77.60769092807404L93.7482421875,76.7907641667586L93.861328125,76.54871216874858L93.9744140625,83.32614782452585L94.1101171875,82.23691890560664L94.4719921875,77.87999308567782L94.87910156250001,78.96922707672304L94.90171875,87.41076641472488L95.0600390625,79.24153430645282L95.12789062499999,73.52307741000102L95.67070312499999,82.50922613533645L95.7385546875,71.88922388737018L95.896875,78.15230538753363L95.9647265625,75.70153524783942L95.98734375000001,78.42461261726343L96.032578125,75.15692078837982L96.0551953125,84.41538181557105L96.62062499999999,72.9784528062894L96.8241796875,70.52769281084723L97.3669921875,75.9738374054432L97.5479296875,82.29743444117217L97.86457031249999,75.42922294598361L97.88718750000001,77.60769092807404L98.2716796875,76.7907641667586L98.927578125,80.60307552722784L98.97281249999999,78.96922707672304L99.198984375,87.95538087418448L99.5834765625,86.86615195526527L99.6965625,76.24614970729903L100.19414062499999,81.08717445112192L100.2619921875,87.41076641472488L100.375078125,78.69691984699324L100.62386718750001,82.50922613533645L100.6691015625,87.13845918499507L100.827421875,83.87076735611147L100.963125,82.29743444117217L101.1214453125,81.96461167587684L101.25714843749999,83.5076893590964L101.325,74.33999402706439L101.7094921875,86.32153242367966L101.98089843749999,84.68768904530086L102.04875,85.23230350476047L102.2070703125,82.78153336506625L102.5689453125,78.3640970816979L102.6141796875,77.06307646861445L102.7498828125,80.87538275695765L102.8403515625,85.50461073449027L103.20222656249999,84.41538181557105L103.58671875,79.51384153618262L104.0390625,73.79537956760481L104.446171875,83.05384059479606L104.49140625,83.59846012638167L104.536640625,82.23691890560664L104.6044921875,88.77230256337387L104.67234375,77.87999308567782L105.0568359375,87.13845918499507L105.305625,83.32614782452585L105.622265625,82.23691890560664L106.30078125,78.42461261726343L106.34601562499999,82.78153336506625L106.88882812499999,81.96461167587684L106.979296875,78.15230538753363L107.02453125,90.9507654733383L107.160234375,86.59384472553546L107.2280859375,86.32153242367966L107.27332031249999,85.77691796422006L107.476875,81.41999721641726L107.6351953125,87.13845918499507L107.92921875,83.32614782452585L108.11015624999999,79.51384153618262L108.40417968749999,77.60769092807404L108.4494140625,82.29743444117217L108.517265625,82.78153336506625L108.879140625,82.23691890560664L108.99222656250001,81.14768998668745L109.0374609375,86.04922519394985L109.2636328125,93.94615007249209L109.35410156249999,91.22307270306808L110.00999999999999,90.16409901586863L110.1230859375,84.41538181557105L110.28140625,88.22768810391428L111.2765625,86.86615195526527L111.45750000000001,93.94615007249209L111.6158203125,87.95538087418448L111.7062890625,87.41076641472488L111.955078125,83.59846012638167L112.09078124999999,90.1338437841489L112.226484375,91.22307270306808L112.7240625,88.77230256337387L112.9728515625,89.58922932468928L113.0859375,86.86615195526527L113.2894921875,93.94615007249209L113.31210937499999,91.49537993279787L113.58351562499999,96.3969202121863L113.8323046875,95.3076912932671L113.90015625000001,89.86153655441909L114.126328125,92.03999439225747L115.1893359375,89.86153655441909L115.30242187500001,95.3076912932671L115.3250390625,81.96461167587684L115.5512109375,95.8523057527267L117.20226562500001,96.9415346716459L117.4510546875,91.49537993279787L117.47367187500001,86.04922519394985L117.51890625,93.67384284276228L117.564140625,100.20922650052951L117.6319921875,95.8523057527267L117.65460937499999,86.53332918996996L118.22003906249999,95.03537899141128L118.333125,83.59846012638167L118.4009765625,86.04922519394985L118.5819140625,92.03999439225747L118.830703125,100.4815337302593L119.0342578125,96.6692274419161L119.10210937500001,90.76922901089375L119.1247265625,90.40615101387868L119.463984375,90.1338437841489L119.82585937500001,91.76768716252768L119.9615625,96.9415346716459L120.05203125000001,97.2138419013757L120.2555859375,99.9369192707997L120.3008203125,94.76307176168149L120.504375,98.30307589242092L120.59484375000001,84.68768904530086L120.730546875,98.03076866269112L120.84363281249999,95.8523057527267L121.43167968750001,99.9369192707997L121.635234375,89.58922932468928L121.9744921875,97.48614913110549L122.1328125,93.67384284276228L122.268515625,97.48614913110549L122.35898437499999,97.7584563608353L122.38160156250001,96.6692274419161L122.811328125,91.49537993279787L122.8791796875,100.4815337302593L123.6933984375,94.21845730222189L123.8291015625,97.2138419013757L124.16835937500001,89.04460979310366L124.21359375,99.39230481134011L124.5980859375,93.67384284276228L124.620703125,96.51794621119133L125.0504296875,99.84614850351444L125.07304687499999,93.12922838330269L125.1408984375,95.3076912932671L125.344453125,98.30307589242092L125.5932421875,92.31230669411329L126.158671875,90.67845824360849L126.2265234375,97.2138419013757L126.4753125,101.02615326184493L126.5431640625,97.2138419013757L126.58839843749999,96.1246129824565L126.63363281250001,90.1338437841489L126.90503906250001,99.11999758161032L127.28953125,96.9415346716459L127.7644921875,100.20922650052951L127.92281249999999,90.1338437841489L128.10375,100.4815337302593L128.19421875,99.39230481134011L128.3525390625,106.47230292856693L128.37515625,100.20922650052951L128.3977734375,100.7538409599891L128.62394531249998,103.7794858629887L129.21199218750002,103.74922555914291L129.325078125,97.7584563608353L129.686953125,102.11538218076413L129.9357421875,95.03537899141128L130.0262109375,98.03076866269112L130.048828125,93.94615007249209L130.229765625,94.49076453195168L130.36546875,102.38768941049392L130.4333203125,96.1246129824565L130.636875,100.20922650052951L130.72734375000002,101.29846049157473L130.8856640625,99.54358604206489L130.90828125,101.84307495103432L131.043984375,98.03076866269112L131.1796875,102.38768941049392L131.224921875,96.6692274419161L131.29277343750002,102.38768941049392L132.084375,95.3076912932671L132.35578125,90.67845824360849L132.78550781250001,100.4815337302593L132.8307421875,100.4815337302593L133.26046875,97.7584563608353L133.30570312499998,97.48614913110549L133.758046875,101.29846049157473L134.30085937500002,99.66461204106992L134.3687109375,94.49076453195168L134.66273437499999,101.29846049157473L134.843671875,92.31230669411329L135.0472265625,108.10615137907175L135.115078125,107.01692246015256L135.1603125,106.47230292856693L135.1829296875,105.11076677991794L136.17808593750001,94.76307176168149L136.3137890625,100.4815337302593L136.381640625,99.66461204106992L136.53996093749998,98.57538312215071L136.833984375,96.3969202121863L136.87921874999998,104.56615232045834L136.90183593749998,98.03076866269112L137.06015625,104.83845955018813L137.46726562499998,98.57538312215071L137.9874609375,102.38768941049392L138.10054687500002,113.00769165846017L138.55289062499997,103.47691832941312L138.598125,102.11538218076413L138.733828125,103.20461109968332L139.321875,108.37845860880155L139.43496093750002,102.93230386995351L139.728984375,107.28922968988235L139.819453125,108.65076583853134L140.2265625,104.02153786099875L140.4075,97.2138419013757L140.9276953125,101.29846049157473L141.01816406249998,108.10615137907175L141.10863281250002,104.29384509072854L141.13125,104.83845955018813L141.719296875,102.93230386995351L142.2394921875,96.1246129824565L142.895390625,112.19076489714476L143.14417968749999,107.56153691961215L143.5060546875,105.65538123937753L143.8226953125,102.11538218076413L143.8453125,103.20461109968332L144.29765625,107.28922968988235L144.84046874999999,97.48614913110549L144.88570312500002,107.83384414934194L145.20234375,105.92768846910734L145.6320703125,104.29384509072854L145.699921875,109.19538029799095L145.8130078125,103.47691832941312L146.64984375,111.64615043768517L146.80816406250003,111.64615043768517L146.8986328125,104.02153786099875L147.03433593749997,115.45846179815439L147.1700390625,108.10615137907175L147.28312499999998,102.38768941049392L147.35097656250002,102.45576748595788L147.3962109375,112.73538442873037L147.9390234375,111.37384320795536L148.1199609375,111.91845766741496L148.504453125,111.37384320795536L148.6175390625,109.19538029799095L148.6627734375,103.74922555914291L148.93417968749998,103.20461109968332L148.9794140625,114.64153503683897L149.1151171875,109.46768752772074L149.3865234375,110.01230705930637L149.49960937499998,113.4615353506345L149.72578124999998,108.62051060681159L149.951953125,111.91845766741496L150.585234375,111.10153597822556L150.63046875,110.55692151876596L150.7209375,109.73999982957656L151.06019531249999,111.10153597822556L151.9875,115.45846179815439L152.0553515625,114.09692057737938L152.4624609375,117.36461240626298L152.8695703125,110.01230705930637L153.2540625,126.07845897399463L153.32191406249999,117.36461240626298L153.435,113.34807696365394L153.5480859375,115.18614949629857L153.9551953125,114.09692057737938L153.9778125,115.45846179815439L154.3623046875,117.90922686572259L154.43015624999998,114.97435780213429L154.5884765625,117.90922686572259L155.19914062499998,116.27538348734379L155.244375,115.18614949629857L155.4026953125,118.18153409545238L155.8098046875,111.10153597822556L155.8550390625,123.0830743748408L156.013359375,117.90922686572259L156.2169140625,115.7307690278842L156.4430859375,118.18153409545238L156.691875,116.27538348734379L156.78234375,119.81538254595719L156.8049609375,119.81538254595719L157.2346875,120.087689775687L157.3477734375,118.18153409545238L157.3930078125,118.9984608567678L157.48347656250002,119.2707680864976L157.68703125,117.09230517653319L158.094140625,124.71692028928261L158.54648437499998,123.0830743748408L158.6595703125,118.9984608567678L158.863125,122.53845991538121L158.998828125,114.06666534565963L159.0214453125,121.7215356901288L159.1119140625,123.3553816045706L159.17976562500002,125.26153728480523L159.67734375,118.9984608567678L160.084453125,117.63691963599278L160.174921875,125.26153728480523L160.2880078125,122.2661526856514L160.64988281249998,126.47179220272943L160.6951171875,126.89538319924704L160.9212890625,121.17692123066921L161.05699218750001,125.26153728480523L161.1022265625,117.39486763798274L161.23792968749999,123.0830743748408L161.2831640625,124.17230582982302L161.3283984375,125.53384451453502L161.5998046875,123.62769137036342L161.64503906250002,128.80153634341863L161.6902734375,120.087689775687L162.21046875,123.89999860009321L162.41402343750002,122.53845991538121L162.481875,127.43999765870663L162.84375,127.71230488843642L163.069921875,130.97999925338306L163.0925390625,126.89538319924704L163.1377734375,125.26153728480523L163.2734765625,126.07845897399463L163.5675,129.07384357314845L163.68058593749998,132.06922817230225L163.83890625,128.52922911368884L163.974609375,129.89076779840084L164.2686328125,126.62307596951723L164.85667968750002,135.33692253724888L165.37687499999998,135.33692253724888L165.46734375,126.07845897399463L165.4899609375,127.98461465422923L165.64828125,129.07384357314845L166.0327734375,127.71230488843642L166.2815625,127.71230488843642L166.53035156250002,127.43999765870663L166.68867187499998,130.16307502813063L166.824375,129.89076779840084L167.3671875,135.60922976697867L168.6111328125,134.24769108226667L168.7016015625,140.51076751030408L168.99562500000002,136.75897422146338L169.2444140625,138.33230713640268L169.3348828125,133.70307662280706L169.5158203125,139.69384582111468L169.53843750000001,137.51538291115028L169.62890625,138.60461436613247L169.855078125,136.15384422643825L170.08125,136.42615145616807L170.10386718750001,138.05999990667289L170.12648437500002,140.2384602805743L170.307421875,135.33692253724888L170.759765625,138.33230713640268L171.302578125,137.78769014088007L171.43828125000002,138.05999990667289L171.46089843750002,137.51538291115028L171.52875,141.05538450582668L171.754921875,140.2384602805743L171.9584765625,140.2384602805743L172.02632812500002,133.43076685701425L172.25250000000003,134.94358930851405L172.3655859375,139.96615305084447L173.1798046875,142.50769142176097L173.383359375,136.15384422643825L173.42859375,134.51999831199646L173.5190625,139.69384582111468L173.654765625,138.87692159586229L173.7226171875,140.38974151129906L173.88093750000002,139.96615305084447L174.061875,140.2384602805743L174.1297265625,141.05538450582668L174.3106640625,142.41692192250719L174.40113281249998,142.9615376499983L174.4916015625,140.7830747400339L175.01179687500002,140.7830747400339L175.102265625,140.7830747400339L175.26058593750003,139.4215385913849L175.3510546875,143.7784606072192L175.59984375000002,138.87692159586229L175.87125,144.5953835644401L176.233125,141.5999989652863L176.7985546875,142.41692192250719L177.1378125,139.69384582111468L177.45445312500001,144.050767836949L177.63539062499999,144.3230763347103L177.816328125,139.17948659337483L177.95203124999998,141.3276917355565L177.9746484375,141.3276917355565L178.5626953125,143.5061533774894L178.8793359375,142.9615376499983L178.94718749999998,144.050767836949L179.444765625,141.87230619501608L179.8292578125,140.6923065088116L180.1006640625,137.85576821634402L180.16851562500003,143.5061533774894L180.30421875,140.0871790498495L180.71132812500002,143.5061533774894L180.7565625,140.7830747400339L181.163671875,144.5953835644401L181.254140625,142.1446146927774L181.7291015625,141.3276917355565L181.81957031250002,139.96615305084447L181.977890625,141.05538450582668L182.2719140625,141.87230619501608L182.40761718750002,141.94038427048005L182.7242578125,144.5953835644401L182.9956640625,141.3276917355565L183.334921875,141.5999989652863L183.51585937500002,146.2292294788819L183.5384765625,143.2338448797281L184.0360546875,139.69384582111468L184.1265234375,140.51076751030408L184.4431640625,141.87230619501608L184.7145703125,138.87692159586229L184.7371875,141.3276917355565L184.8955078125,141.5999989652863L185.2121484375,140.7830747400339L185.34785156249998,143.7784606072192L185.506171875,145.83589625014707L185.55140624999999,137.51538291115028L185.75496093750002,139.96615305084447L185.8001953125,142.6892304202685L185.8228125,142.41692192250719L186.2525390625,137.51538291115028L186.320390625,138.87692159586229L186.52394531250002,142.6892304202685L186.81796875,139.14922882559208L187.134609375,140.7830747400339L187.36078125,141.3276917355565L187.72265625,142.6892304202685L187.9714453125,142.1446146927774L188.3785546875,145.1399992919312L188.6047265625,143.2338448797281L188.62734375,138.87692159586229L188.76304687500001,141.2974339677737L188.9213671875,141.87230619501608L189.0118359375,140.2384602805743L189.034453125,136.69846122196088L189.0570703125,142.41692192250719L189.5546484375,144.8676907941699L189.577265625,142.9615376499983L189.66773437499998,138.33230713640268L189.71296875,139.69384582111468L189.9165234375,138.33230713640268L190.00699218749997,139.96615305084447L190.66289062500002,145.95692224915211L190.6855078125,137.9692291393876L190.88906250000002,141.5999989652863L190.9569140625,144.8676907941699L191.115234375,140.0871790498495L191.34140624999998,137.06153668291293L191.36402343749998,140.2384602805743L191.40925781250002,141.05538450582668L191.52234375,144.5953835644401L191.65804687500003,143.7784606072192L191.748515625,139.96615305084447L191.79375,139.14922882559208L192.155625,145.412306521661L192.291328125,142.1446146927774L192.3139453125,139.14922882559208L192.4948828125,144.050767836949L192.924609375,138.05999990667289L193.30910156250002,140.51076751030408L193.89714843750002,139.69384582111468L194.41734375000001,144.02051133719775L194.7113671875,143.2338448797281L194.77921875,143.2338448797281L195.48035156249998,136.42615145616807L195.50296875,144.050767836949L195.86484375,140.7830747400339L195.8874609375,137.51538291115028L196.11363281250001,142.1446146927774L196.181484375,140.51076751030408L196.22671875,143.7784606072192L196.47550781249998,142.41692192250719L196.6112109375,143.2338448797281L196.67906250000001,144.050767836949L196.76953125,144.8676907941699L197.176640625,144.8676907941699L197.1992578125,143.7784606072192L197.2897265625,139.4215385913849L197.357578125,142.6892304202685L197.4028125,141.87230619501608L197.719453125,145.412306521661L197.809921875,141.05538450582668L198.0587109375,144.5953835644401L198.1265625,140.7830747400339L198.57890625000002,142.9615376499983L198.75984375,141.87230619501608L198.986015625,142.41692192250719L199.0086328125,136.42615145616807L199.25742187499998,140.7830747400339L199.7776171875,141.3276917355565L199.89070312500002,142.81025515124202L200.2751953125,140.2384602805743L201.2703515625,142.9615376499983L201.29296875,140.51076751030408L201.38343749999999,142.6892304202685L201.47390625,144.050767836949L201.881015625,142.9615376499983L202.01671875,139.96615305084447L202.0393359375,137.78769014088007L202.9892578125,140.2384602805743L203.1701953125,143.7784606072192L203.3511328125,141.5999989652863L203.37375,144.02051133719775L203.7582421875,145.412306521661L204.05226562500002,142.1446146927774L204.142734375,142.9615376499983L204.39152343749998,140.2384602805743L204.6629296875,138.60461436613247L204.73078124999998,139.4215385913849L204.77601562499999,144.3230763347103L204.866484375,141.3276917355565L205.047421875,144.050767836949L206.40445312499997,139.69384582111468L206.54015625,141.5999989652863L206.5627734375,140.51076751030408L206.6080078125,142.20512769227992L206.947265625,141.87230619501608L207.1055859375,140.0871790498495L207.62578125000002,144.050767836949L207.71625,142.41692192250719L207.96503906249998,138.87692159586229L208.032890625,144.62564006419137L208.4173828125,142.6892304202685L208.5530859375,138.33230713640268L208.847109375,143.7784606072192L209.299453125,139.96615305084447L209.50300781250002,142.41692192250719L209.86488281249999,139.14922882559208L209.9101171875,139.69384582111468L210.113671875,139.69384582111468L210.3172265625,140.2384602805743L210.4981640625,143.5061533774894L210.9505078125,141.05538450582668L210.99574218749999,142.1446146927774L211.06359375,142.9615376499983L211.108828125,144.3230763347103L211.24453125,147.5907681635939L211.5159375,142.41692192250719L211.53855468749998,137.9692291393876L211.696875,139.78461405233696L211.7647265625,145.68461501942232L211.87781249999998,139.69384582111468L212.0361328125,144.3230763347103L212.0813671875,143.7784606072192L213.23484374999998,144.5953835644401L213.4836328125,141.3276917355565L213.551484375,143.5061533774894L213.6645703125,139.4215385913849L214.0264453125,145.68461501942232L214.1169140625,142.41692192250719L214.13953125,141.05538450582668L214.184765625,141.3276917355565L214.41093750000002,144.3230763347103L214.50140625,144.8676907941699L214.591875,140.2384602805743L214.7954296875,143.7179476077167L214.818046875,139.14922882559208L214.9311328125,139.4215385913849L215.0216015625,145.95692224915211L215.04421875,141.87230619501608L215.3834765625,144.050767836949L216.084609375,143.2338448797281L216.356015625,141.05538450582668L216.5143359375,143.11282014875457L216.627421875,138.87692159586229L216.9440625,141.87230619501608L217.1476171875,142.6892304202685L217.486875,141.5999989652863L217.7356640625,140.7830747400339L217.89398437499997,141.2974339677737L217.91660156249998,143.2338448797281L218.12015624999998,142.41692192250719L218.979609375,142.81025515124202L219.0474609375,143.7784606072192L219.0926953125,145.68461501942232L219.160546875,139.96615305084447L219.1831640625,139.96615305084447L219.27363281249998,145.68461501942232L219.9973828125,144.5953835644401L220.3140234375,137.24307568142046L220.92468749999998,142.1446146927774L221.060390625,146.4410249771407L221.15085937499998,143.7784606072192L221.55796875000001,140.9948715063242L221.6710546875,138.05999990667289L222.0103125,142.41692192250719L222.0781640625,142.6892304202685L222.146015625,140.2384602805743L222.6209765625,145.95692224915211L222.869765625,144.3230763347103L223.1637890625,144.5953835644401L223.18640625,139.14922882559208L223.412578125,137.66666667793805L223.4804296875,141.5999989652863L223.5708984375,143.5061533774894L223.955390625,142.1446146927774L224.000625,142.9615376499983L224.0684765625,142.1446146927774L224.5434375,145.1399992919312L224.58867187500002,144.050767836949L224.70175781249998,140.7830747400339L224.950546875,141.05538450582668L225.131484375,145.1399992919312L225.221953125,142.20512769227992L225.6064453125,145.1399992919312L225.7421484375,139.4820490548244L225.9683203125,144.8676907941699L226.0135546875,144.02051133719775L226.14925781250003,142.9615376499983L226.26234375,141.3276917355565L226.37542968749997,141.3276917355565L226.44328125,144.050767836949L226.7825390625,145.53333252066602L226.80515625,140.51076751030408L227.4158203125,143.2338448797281L227.59675781250002,147.5907681635939L227.82292968750002,144.8676907941699L228.07171875,146.50153797664322L228.5466796875,144.8676907941699L228.6823828125,142.9615376499983L228.93117187500002,142.9615376499983L228.9537890625,141.5999989652863L229.6775390625,139.69384582111468L229.70015625000002,140.51076751030408L229.83585937499998,142.6892304202685L231.011953125,142.9615376499983L231.05718750000003,139.4215385913849L231.2155078125,140.2384602805743L231.283359375,141.05538450582668L231.4416796875,144.8676907941699L232.05234375,140.2384602805743L232.5273046875,138.05999990667289L232.7534765625,143.7784606072192L233.1153515625,144.3230763347103L233.1605859375,142.41692192250719L233.20582031249998,142.41692192250719L233.31890625,147.31846093386412L234.04265625,144.3230763347103L234.1557421875,137.24307568142046L234.40453125000002,146.2292294788819L234.4271484375,143.5061533774894L234.449765625,144.050767836949L234.5176171875,140.2384602805743L234.87949218749998,139.4215385913849L235.49015625,138.33230713640268L235.5580078125,141.05538450582668L236.0103515625,139.69384582111468L236.1460546875,137.78769014088007L236.168671875,147.34871743361538L236.75671874999998,142.9615376499983L236.9150390625,143.5061533774894L237.07335937500002,139.69384582111468L237.8197265625,138.87692159586229L237.88757812499998,145.412306521661L238.31730468749998,138.87692159586229L238.339921875,138.05999990667289L238.5434765625,143.5061533774894L238.70179687499999,146.2292294788819L238.7696484375,144.92820379367242L238.92796875,144.050767836949L238.9958203125,144.3230763347103L239.425546875,143.7784606072192L239.4933984375,142.9615376499983L239.7421875,133.43076685701425L239.99097656249998,141.3276917355565L240.2171484375,140.2384602805743L240.2623828125,141.05538450582668L240.285,146.773845206373L240.35285156249998,143.7784606072192L240.89566406249997,140.7830747400339L241.00875,140.51076751030408L241.0313671875,141.5999989652863L241.12183593749998,145.412306521661L241.55156250000002,144.8676907941699L241.5741796875,137.51538291115028L241.77773437500002,141.05538450582668L241.958671875,145.1399992919312L242.23007812499998,141.3276917355565L243.0669140625,139.69384582111468L243.134765625,140.2384602805743L243.315703125,143.2338448797281" style="fill: none;" fill="none"></path></g></g></g></g></g></g><g transform="translate(58, 177)" clip-path="url(#clip_1)"><clipPath id="clip_1"><rect width="271" height="23"></rect></clipPath><g><g><line x1="0" y1="0" x2="0" y2="5" style="visibility: inherit;" fill="rgb(0, 0, 0)" stroke="rgb(204, 204, 204)" stroke-width="1px"></line><line x1="22.6171875" y1="0" x2="22.6171875" y2="5" style="visibility: inherit;" fill="rgb(0, 0, 0)" stroke="rgb(204, 204, 204)" stroke-width="1px"></line><line x1="45.234375" y1="0" x2="45.234375" y2="5" style="visibility: inherit;" fill="rgb(0, 0, 0)" stroke="rgb(204, 204, 204)" stroke-width="1px"></line><line x1="67.8515625" y1="0" x2="67.8515625" y2="5" style="visibility: inherit;" fill="rgb(0, 0, 0)" stroke="rgb(204, 204, 204)" stroke-width="1px"></line><line x1="90.46875" y1="0" x2="90.46875" y2="5" style="visibility: inherit;" fill="rgb(0, 0, 0)" stroke="rgb(204, 204, 204)" stroke-width="1px"></line><line x1="113.0859375" y1="0" x2="113.0859375" y2="5" style="visibility: inherit;" fill="rgb(0, 0, 0)" stroke="rgb(204, 204, 204)" stroke-width="1px"></line><line x1="135.703125" y1="0" x2="135.703125" y2="5" style="visibility: inherit;" fill="rgb(0, 0, 0)" stroke="rgb(204, 204, 204)" stroke-width="1px"></line><line x1="158.3203125" y1="0" x2="158.3203125" y2="5" style="visibility: inherit;" fill="rgb(0, 0, 0)" stroke="rgb(204, 204, 204)" stroke-width="1px"></line><line x1="180.9375" y1="0" x2="180.9375" y2="5" style="visibility: inherit;" fill="rgb(0, 0, 0)" stroke="rgb(204, 204, 204)" stroke-width="1px"></line><line x1="203.5546875" y1="0" x2="203.5546875" y2="5" style="visibility: inherit;" fill="rgb(0, 0, 0)" stroke="rgb(204, 204, 204)" stroke-width="1px"></line><line x1="226.171875" y1="0" x2="226.171875" y2="5" style="visibility: inherit;" fill="rgb(0, 0, 0)" stroke="rgb(204, 204, 204)" stroke-width="1px"></line><line x1="248.7890625" y1="0" x2="248.7890625" y2="5" style="visibility: inherit;" fill="rgb(0, 0, 0)" stroke="rgb(204, 204, 204)" stroke-width="1px"></line><line x1="271.40625" y1="0" x2="271.40625" y2="5" style="visibility: inherit;" fill="rgb(0, 0, 0)" stroke="rgb(204, 204, 204)" stroke-width="1px"></line></g><g transform="translate(0, 8)"><text x="0" y="0" dx="0em" dy="0.95em" style="text-anchor: middle; visibility: hidden; font-family: &quot;Helvetica Neue&quot;, sans-serif; font-size: 12px; font-weight: 200;" fill="rgb(50, 49, 63)" stroke="none" stroke-width="1px">-1k</text><text x="22.6171875" y="0" dx="0em" dy="0.95em" style="text-anchor: middle; visibility: inherit; font-family: &quot;Helvetica Neue&quot;, sans-serif; font-size: 12px; font-weight: 200;" fill="rgb(50, 49, 63)" stroke="none" stroke-width="1px">0</text><text x="45.234375" y="0" dx="0em" dy="0.95em" style="text-anchor: middle; visibility: inherit; font-family: &quot;Helvetica Neue&quot;, sans-serif; font-size: 12px; font-weight: 200;" fill="rgb(50, 49, 63)" stroke="none" stroke-width="1px">1k</text><text x="67.8515625" y="0" dx="0em" dy="0.95em" style="text-anchor: middle; visibility: inherit; font-family: &quot;Helvetica Neue&quot;, sans-serif; font-size: 12px; font-weight: 200;" fill="rgb(50, 49, 63)" stroke="none" stroke-width="1px">2k</text><text x="90.46875" y="0" dx="0em" dy="0.95em" style="text-anchor: middle; visibility: inherit; font-family: &quot;Helvetica Neue&quot;, sans-serif; font-size: 12px; font-weight: 200;" fill="rgb(50, 49, 63)" stroke="none" stroke-width="1px">3k</text><text x="113.0859375" y="0" dx="0em" dy="0.95em" style="text-anchor: middle; visibility: inherit; font-family: &quot;Helvetica Neue&quot;, sans-serif; font-size: 12px; font-weight: 200;" fill="rgb(50, 49, 63)" stroke="none" stroke-width="1px">4k</text><text x="135.703125" y="0" dx="0em" dy="0.95em" style="text-anchor: middle; visibility: inherit; font-family: &quot;Helvetica Neue&quot;, sans-serif; font-size: 12px; font-weight: 200;" fill="rgb(50, 49, 63)" stroke="none" stroke-width="1px">5k</text><text x="158.3203125" y="0" dx="0em" dy="0.95em" style="text-anchor: middle; visibility: inherit; font-family: &quot;Helvetica Neue&quot;, sans-serif; font-size: 12px; font-weight: 200;" fill="rgb(50, 49, 63)" stroke="none" stroke-width="1px">6k</text><text x="180.9375" y="0" dx="0em" dy="0.95em" style="text-anchor: middle; visibility: inherit; font-family: &quot;Helvetica Neue&quot;, sans-serif; font-size: 12px; font-weight: 200;" fill="rgb(50, 49, 63)" stroke="none" stroke-width="1px">7k</text><text x="203.5546875" y="0" dx="0em" dy="0.95em" style="text-anchor: middle; visibility: inherit; font-family: &quot;Helvetica Neue&quot;, sans-serif; font-size: 12px; font-weight: 200;" fill="rgb(50, 49, 63)" stroke="none" stroke-width="1px">8k</text><text x="226.171875" y="0" dx="0em" dy="0.95em" style="text-anchor: middle; visibility: inherit; font-family: &quot;Helvetica Neue&quot;, sans-serif; font-size: 12px; font-weight: 200;" fill="rgb(50, 49, 63)" stroke="none" stroke-width="1px">9k</text><text x="248.7890625" y="0" dx="0em" dy="0.95em" style="text-anchor: middle; visibility: inherit; font-family: &quot;Helvetica Neue&quot;, sans-serif; font-size: 12px; font-weight: 200;" fill="rgb(50, 49, 63)" stroke="none" stroke-width="1px">10k</text><text x="271.40625" y="0" dx="0em" dy="0.95em" style="text-anchor: middle; visibility: hidden; font-family: &quot;Helvetica Neue&quot;, sans-serif; font-size: 12px; font-weight: 200;" fill="rgb(50, 49, 63)" stroke="none" stroke-width="1px">11k</text></g><line x1="0" y1="0" x2="271.40625" y2="0" fill="rgb(0, 0, 0)" stroke="rgb(204, 204, 204)" stroke-width="1px"></line></g></g></g></g></svg>