<svg viewBox="0 0 330 200" xmlns="http://www.w3.org/2000/svg"><g><g><g><g><g><line x1="58.59375" y1="177" x2="53.59375" y2="177" style="visibility: inherit;" fill="rgb(0, 0, 0)" stroke="rgb(204, 204, 204)" stroke-width="1px"></line><line x1="58.59375" y1="154.875" x2="53.59375" y2="154.875" style="visibility: inherit;" fill="rgb(0, 0, 0)" stroke="rgb(204, 204, 204)" stroke-width="1px"></line><line x1="58.59375" y1="132.75" x2="53.59375" y2="132.75" style="visibility: inherit;" fill="rgb(0, 0, 0)" stroke="rgb(204, 204, 204)" stroke-width="1px"></line><line x1="58.59375" y1="110.62499999999999" x2="53.59375" y2="110.62499999999999" style="visibility: inherit;" fill="rgb(0, 0, 0)" stroke="rgb(204, 204, 204)" stroke-width="1px"></line><line x1="58.59375" y1="88.49999999999999" x2="53.59375" y2="88.49999999999999" style="visibility: inherit;" fill="rgb(0, 0, 0)" stroke="rgb(204, 204, 204)" stroke-width="1px"></line><line x1="58.59375" y1="66.375" x2="53.59375" y2="66.375" style="visibility: inherit;" fill="rgb(0, 0, 0)" stroke="rgb(204, 204, 204)" stroke-width="1px"></line><line x1="58.59375" y1="44.25" x2="53.59375" y2="44.25" style="visibility: inherit;" fill="rgb(0, 0, 0)" stroke="rgb(204, 204, 204)" stroke-width="1px"></line><line x1="58.59375" y1="22.125" x2="53.59375" y2="22.125" style="visibility: inherit;" fill="rgb(0, 0, 0)" stroke="rgb(204, 204, 204)" stroke-width="1px"></line><line x1="58.59375" y1="0" x2="53.59375" y2="0" style="visibility: inherit;" fill="rgb(0, 0, 0)" stroke="rgb(204, 204, 204)" stroke-width="1px"></line></g><g transform="translate(48.59375, 0)"><text x="0" y="177" dx="0em" dy="0.3em" style="text-anchor: end; visibility: hidden; font-family: &quot;Helvetica Neue&quot;, sans-serif; font-size: 12px; font-weight: 200;" fill="rgb(50, 49, 63)" stroke="none" stroke-width="1px">-0.05</text><text x="0" y="154.875" dx="0em" dy="0.3em" style="text-anchor: end; visibility: inherit; font-family: &quot;Helvetica Neue&quot;, sans-serif; font-size: 12px; font-weight: 200;" fill="rgb(50, 49, 63)" stroke="none" stroke-width="1px">0</text><text x="0" y="132.75" dx="0em" dy="0.3em" style="text-anchor: end; visibility: hidden; font-family: &quot;Helvetica Neue&quot;, sans-serif; font-size: 12px; font-weight: 200;" fill="rgb(50, 49, 63)" stroke="none" stroke-width="1px">0.05</text><text x="0" y="110.62499999999999" dx="0em" dy="0.3em" style="text-anchor: end; visibility: inherit; font-family: &quot;Helvetica Neue&quot;, sans-serif; font-size: 12px; font-weight: 200;" fill="rgb(50, 49, 63)" stroke="none" stroke-width="1px">0.1</text><text x="0" y="88.49999999999999" dx="0em" dy="0.3em" style="text-anchor: end; visibility: hidden; font-family: &quot;Helvetica Neue&quot;, sans-serif; font-size: 12px; font-weight: 200;" fill="rgb(50, 49, 63)" stroke="none" stroke-width="1px">0.15</text><text x="0" y="66.375" dx="0em" dy="0.3em" style="text-anchor: end; visibility: inherit; font-family: &quot;Helvetica Neue&quot;, sans-serif; font-size: 12px; font-weight: 200;" fill="rgb(50, 49, 63)" stroke="none" stroke-width="1px">0.2</text><text x="0" y="44.25" dx="0em" dy="0.3em" style="text-anchor: end; visibility: hidden; font-family: &quot;Helvetica Neue&quot;, sans-serif; font-size: 12px; font-weight: 200;" fill="rgb(50, 49, 63)" stroke="none" stroke-width="1px">0.25</text><text x="0" y="22.125" dx="0em" dy="0.3em" style="text-anchor: end; visibility: inherit; font-family: &quot;Helvetica Neue&quot;, sans-serif; font-size: 12px; font-weight: 200;" fill="rgb(50, 49, 63)" stroke="none" stroke-width="1px">0.3</text><text x="0" y="0" dx="0em" dy="0.3em" style="text-anchor: end; visibility: hidden; font-family: &quot;Helvetica Neue&quot;, sans-serif; font-size: 12px; font-weight: 200;" fill="rgb(50, 49, 63)" stroke="none" stroke-width="1px">0.35</text></g><line x1="58.59375" y1="0" x2="58.59375" y2="177" fill="rgb(0, 0, 0)" stroke="rgb(204, 204, 204)" stroke-width="1px"></line></g></g><g transform="translate(58, 0)" clip-path="url(#clip_0)"><clipPath id="clip_0"><rect width="271" height="177"></rect></clipPath><g><g><g><line x1="0" y1="0" x2="0" y2="177" fill="rgb(0, 0, 0)" stroke="rgb(60, 60, 60)" stroke-width="1px" opacity="0.25"></line><line x1="24.673295454545457" y1="0" x2="24.673295454545457" y2="177" fill="rgb(0, 0, 0)" stroke="rgb(60, 60, 60)" stroke-width="1px" opacity="0.25"></line><line x1="49.346590909090914" y1="0" x2="49.346590909090914" y2="177" fill="rgb(0, 0, 0)" stroke="rgb(60, 60, 60)" stroke-width="1px" opacity="0.25"></line><line x1="74.01988636363636" y1="0" x2="74.01988636363636" y2="177" fill="rgb(0, 0, 0)" stroke="rgb(60, 60, 60)" stroke-width="1px" opacity="0.25"></line><line x1="98.69318181818183" y1="0" x2="98.69318181818183" y2="177" fill="rgb(0, 0, 0)" stroke="rgb(60, 60, 60)" stroke-width="1px" opacity="0.25"></line><line x1="123.36647727272727" y1="0" x2="123.36647727272727" y2="177" fill="rgb(0, 0, 0)" stroke="rgb(60, 60, 60)" stroke-width="1px" opacity="0.25"></line><line x1="148.03977272727272" y1="0" x2="148.03977272727272" y2="177" fill="rgb(0, 0, 0)" stroke="rgb(60, 60, 60)" stroke-width="1px" opacity="0.25"></line><line x1="172.7130681818182" y1="0" x2="172.7130681818182" y2="177" fill="rgb(0, 0, 0)" stroke="rgb(60, 60, 60)" stroke-width="1px" opacity="0.25"></line><line x1="197.38636363636365" y1="0" x2="197.38636363636365" y2="177" fill="rgb(0, 0, 0)" stroke="rgb(60, 60, 60)" stroke-width="1px" opacity="0.25"></line><line x1="222.0596590909091" y1="0" x2="222.0596590909091" y2="177" fill="rgb(0, 0, 0)" stroke="rgb(60, 60, 60)" stroke-width="1px" opacity="0.25"></line><line x1="246.73295454545453" y1="0" x2="246.73295454545453" y2="177" fill="rgb(0, 0, 0)" stroke="rgb(60, 60, 60)" stroke-width="1px" opacity="0.25"></line><line x1="271.40625" y1="0" x2="271.40625" y2="177" fill="rgb(0, 0, 0)" stroke="rgb(60, 60, 60)" stroke-width="1px" opacity="0.25"></line></g><g><line x1="0" y1="177" x2="271.40625" y2="177" fill="rgb(0, 0, 0)" stroke="rgb(60, 60, 60)" stroke-width="1px" opacity="0.25"></line><line x1="0" y1="154.875" x2="271.40625" y2="154.875" fill="rgb(0, 0, 0)" stroke="rgb(60, 60, 60)" stroke-width="1px" opacity="0.25"></line><line x1="0" y1="132.75" x2="271.40625" y2="132.75" fill="rgb(0, 0, 0)" stroke="rgb(60, 60, 60)" stroke-width="1px" opacity="0.25"></line><line x1="0" y1="110.62499999999999" x2="271.40625" y2="110.62499999999999" fill="rgb(0, 0, 0)" stroke="rgb(60, 60, 60)" stroke-width="1px" opacity="0.25"></line><line x1="0" y1="88.49999999999999" x2="271.40625" y2="88.49999999999999" fill="rgb(0, 0, 0)" stroke="rgb(60, 60, 60)" stroke-width="1px" opacity="0.25"></line><line x1="0" y1="66.375" x2="271.40625" y2="66.375" fill="rgb(0, 0, 0)" stroke="rgb(60, 60, 60)" stroke-width="1px" opacity="0.25"></line><line x1="0" y1="44.25" x2="271.40625" y2="44.25" fill="rgb(0, 0, 0)" stroke="rgb(60, 60, 60)" stroke-width="1px" opacity="0.25"></line><line x1="0" y1="22.125" x2="271.40625" y2="22.125" fill="rgb(0, 0, 0)" stroke="rgb(60, 60, 60)" stroke-width="1px" opacity="0.25"></line><line x1="0" y1="0" x2="271.40625" y2="0" fill="rgb(0, 0, 0)" stroke="rgb(60, 60, 60)" stroke-width="1px" opacity="0.25"></line></g></g></g><g><g><line x1="0" y1="154.875" x2="271.40625" y2="154.875" fill="rgb(0, 0, 0)" stroke="rgb(153, 153, 153)" stroke-width="1.5px"></line></g></g><g><g><line x1="24.673295454545457" y1="0" x2="24.673295454545457" y2="177" fill="rgb(0, 0, 0)" stroke="rgb(153, 153, 153)" stroke-width="1.5px"></line></g></g><g><g><g><g><g><path stroke="rgb(187, 187, 187)" stroke-width="2px" d="M25.117414772727273,140.86004729568958L25.265454545454546,139.422773400675L25.660227272727273,128.17470455227692L25.709573863636365,131.75013462268367L25.78359375,133.46505194410886L26.055,132.14562721029398L26.425099431818182,124.74695673052729L26.499119318181815,130.04943896931275L26.992585227272727,124.08389249778085L27.18997159090909,116.16194967769195L27.288664772727273,120.54015454721363L27.78213068181818,117.6058986914814L28.49765625,114.6751210537491L28.571676136363635,112.83052657531492L28.79373579545455,116.15956665107892L29.188508522727272,109.05736807421036L29.237855113636364,108.89323969781442L30.323480113636364,105.91297020045606L30.446846590909093,104.6208602483319L30.816946022727272,103.82759554458319L30.964985795454545,104.87773112682814L31.088352272727274,70.56941288428014L31.261065340909088,94.68159741073292L31.409105113636365,99.4913626625054L31.877897727272725,96.75318702399282L32.272670454545455,100.92647741693791L32.322017045454544,81.67262805386302L32.51940340909091,98.07144977078185L33.03754261363636,103.54767306038286L33.23492897727273,99.05597094522594L33.629701704545454,102.06563389456393L33.72839488636364,107.4853579861938L35.06075284090909,88.4523092541615L35.08542613636364,92.23814284009869L35.50487215909091,96.61846242210316L35.578892045454545,92.15677049853389L35.65291193181819,97.23106787809017L36.023011363636364,47.64740402888867L36.09703125,76.68207854211394L36.12170454545455,85.94722868466152L36.3684375,95.25553095982224L36.837230113636366,95.4601164241748L37.35536931818182,94.68045828083994L37.77481534090909,83.39909379063394L37.89818181818182,76.44934522360879L38.56436079545455,88.81213151159201L38.81109375,87.77074349298239L38.95913352272727,92.14127915186634L39.13184659090909,88.89123665315577L39.15651988636364,81.9648826506008L39.970738636363635,47.73582379838899L40.02008522727272,67.14469650092434L40.31616477272727,80.27398374135753L40.4888778409091,12.853070763228146L40.51355113636364,47.023770262706165L40.56289772727273,62.36863556291503L40.63691761363636,82.02465767998915L40.68626420454545,87.26127189931034L40.98234375,83.8344017410438L41.229076704545456,81.46261938077123L42.29002840909091,89.8524414009354L42.388721590909086,88.9898081336166L42.48741477272727,63.84925012139183L42.68480113636364,67.39457106457624L42.90686079545454,82.41959741813054L43.227613636363635,75.35406580534713L43.32630681818182,85.92774391445464L43.54836647727273,77.37465511498846L43.64705965909091,60.43825956550006L43.69640625,71.55275838256051L43.74575284090909,69.0828251471797L43.918465909090905,-25.848338197896823L44.04183238636363,61.09080064046421L44.091178977272726,77.06755724601788L44.21454545454546,73.79295113409746L44.26389204545455,74.78553851186598L44.36258522727273,72.96233396183747L44.46127840909091,74.83607283880232L44.609318181818175,65.51909354323428L44.63399147727273,65.75407956222011L45.201477272727274,56.45321047611898L45.30017045454545,60.79295082817205L46.11438920454545,62.70691413448455L46.287102272727275,68.98383011442773L46.43514204545455,55.38437728399907L46.78056818181818,58.26199173691053L46.87926136363637,50.10627019872038L47.05197443181818,52.566389559951816L47.10132102272728,52.78699625855852L47.29870738636364,48.55303772789256L47.644133522727266,45.558346978117186L47.66880681818182,48.744314957518725L47.91553977272727,27.942368312258395L47.98955965909091,51.95462417444419L48.211619318181825,45.08570070333829L48.310312499999995,43.120074485211404L48.40900568181818,37.345676372880774L48.631065340909096,22.89491552773123L48.65573863636364,36.66925092796228L48.80377840909091,37.48109677786894L48.82845170454545,44.69920322443582L48.95181818181818,44.147896498010795L49.395937499999995,37.45379568895717L49.46995738636364,41.962918473914556L49.69201704545454,46.51161547374227L50.432215909090914,40.4373433357666L50.75296875,23.251591240545253L50.901008522727274,36.24529583156831L50.97502840909091,39.02294201823028L51.024375,31.23407930275394L51.123068181818184,-22.660780627796044L51.27110795454546,28.304726464630477L51.39447443181818,19.488790953047868L51.64120738636363,35.63367769212502L51.78924715909091,41.34689211448364L51.91261363636363,43.11680108846494L52.15934659090909,44.879030699032455L53.195625,34.61200807900832L53.29431818181818,26.89381544239521L53.31899147727273,26.461117481883065L53.34366477272727,30.618550296762606L53.78778409090909,3.4922273661750296L54.10853693181818,26.349510118594168L54.42928977272727,38.79172962816324L55.070795454545454,43.69466367378567L55.36687499999999,54.10494449797322L55.63828125,54.88796233022512L55.712301136363635,55.792685570225586L55.78632102272728,57.11189006322316L56.27978693181818,51.78938495195521L56.42782670454545,55.983771241084824L56.60053977272727,52.26698859712465L56.74857954545454,55.0835736116465L57.14335227272727,47.872512472228124L57.21737215909091,65.07436407193944L57.48877840909091,45.405374646302846L57.56279829545454,63.34584013438389L57.636818181818185,49.16150758912609L57.661491477272726,40.72142690525294L58.84580965909091,71.95689475131192L58.91982954545454,62.519299818019846L58.993849431818184,63.670005049937686L59.018522727272725,69.03598721596666L59.56133522727273,65.65317235864973L59.857414772727275,73.91904556088794L60.10414772727273,74.34072417364975L60.20284090909091,78.53535022973733L60.81967329545454,73.23039442844362L60.84434659090909,77.85261995012327L61.11575284090909,72.9710017210802L61.31313920454546,72.13081577461737L61.411832386363635,76.98805946042785L61.46117897727273,70.92212604936852L62.25072443181818,69.74622309655028L62.34941761363636,73.44250222866401L62.96625,68.25061221431649L63.361022727272726,65.40620078934L63.385696022727274,68.18265145978185L63.75579545454545,69.37791108196372L63.854488636363634,68.31505726479061L64.24926136363636,63.169277143559654L64.27393465909091,40.35100358312917L64.81674715909091,52.605022009578505L64.94011363636363,46.76542302175412L65.06348011363636,57.72642982023444L65.1375,13.305528823426556L65.26086647727273,44.323348732928906L65.33488636363637,50.218673505478165L65.6309659090909,-40.355703548749034L65.82835227272727,22.220373885676196L66.0010653409091,20.78948181516617L66.17377840909091,36.19298618708913L66.39583806818182,47.71775963071181L66.49453125,42.06327065288306L66.54387784090909,29.42313129196137L66.59322443181819,39.333504721754196L66.66724431818182,23.15698670129808L66.83995738636364,17.011794526305124L67.06201704545454,26.113902537080378L67.30875,37.65352697874795L67.40744318181818,37.22560206840015L67.45678977272728,14.90610656383572L67.5308096590909,25.470617377691354L67.65417613636365,12.434654093433522L67.72819602272727,24.0894890924954L67.75286931818182,8.246424433140703L68.24633522727272,23.17318607971626L68.46839488636363,15.51506258363375L68.61643465909091,25.447774406901715L68.78914772727272,35.982736949600536L68.81382102272727,24.250223836791406L69.03588068181817,26.71179633373896L69.20859375,39.01762762179692L69.72673295454545,24.64998708569226L69.82542613636363,18.327232815319945L70.0721590909091,7.47872235674302L70.17085227272727,29.24586393457966L70.39291193181818,43.19574772846818L70.71366477272727,23.953312775439485L70.78768465909091,25.808301896021675L70.93572443181817,25.674680315662755L70.98507102272727,33.80078165758084L71.82396306818181,-71.67649004024386L71.9720028409091,25.39095848407041L72.39144886363636,33.12353001410642L72.6381818181818,25.323350377466255L72.71220170454546,34.884103849495744L72.76154829545455,37.01850817639411L73.20566761363635,36.05663336588967L73.55109375,30.078961068016525L73.60044034090909,22.141819981843042L74.04455965909091,15.098418337954797L74.1432528409091,37.34891901138994L74.34063920454547,4.070371190128526L74.76008522727273,30.614151311933483L74.90812500000001,22.739745383078855L75.50028409090909,25.113299630652165L75.82103693181818,23.6295928143482L75.89505681818181,31.371084701799873L75.91973011363636,9.24242685244397L75.96907670454544,10.661895006326063L76.01842329545455,23.425058416680912L76.11711647727273,33.44543875899549L76.21580965909091,17.83340151799078L76.38852272727273,30.406801635273467L76.7586221590909,-45.656333501657514L77.59751420454545,-49.57070037207282L77.69620738636364,8.757989526578541L77.86892045454545,29.27297896106367L78.09098011363636,22.884363182461044L78.38705965909091,25.31416677578457L78.63379261363636,32.219743226616L78.68313920454545,28.719381037311962L78.73248579545454,11.968439564091085L78.85585227272728,29.232211448501857L78.9298721590909,24.946707640468617L79.12725852272727,14.5885628900146L79.22595170454545,27.294593931509212L79.71941761363637,33.012590220981366L79.84278409090908,32.740272230409175L79.86745738636364,38.943165690194604L79.91680397727274,43.69073185585847L79.99082386363636,13.351514100600497L80.08951704545454,33.802989600867846L80.11419034090909,38.10754699584896L80.28690340909091,32.40440849051825L80.36092329545454,42.05327707560153L80.48428977272728,12.165183223550287L80.95308238636365,21.688473162997553L81.19981534090908,38.26338931232232L81.34785511363637,45.594861130501556L81.49589488636363,27.271764358730337L81.59458806818182,40.015408266212745L81.89066761363637,48.907743004009745L81.91534090909092,46.1646906140555L82.53217329545454,32.3551336193575L82.75423295454546,32.44448949085174L83.61779829545455,50.75503632007147L83.64247159090908,47.57130316336122L83.69181818181818,41.82964583508081L84.03724431818182,46.91983216264876L84.77744318181817,51.62906103939929L84.97482954545454,59.918511049998315L85.14754261363638,57.7089534148175L85.19688920454546,58.49688425231045L85.24623579545454,57.01505621718455L85.36960227272728,53.63132505242075L85.98643465909092,64.55401972973523L86.01110795454545,64.03692178856724L86.25784090909092,66.03019841928827L86.3071875,73.58114502050576L86.43055397727272,64.67278193595405L86.77598011363636,52.555306185989224L86.92401988636364,58.18464484227418L87.14607954545454,60.74449532767318L87.51617897727272,70.21069578397342L87.61487215909091,65.66847400142092L87.66421875,63.79668748053493L88.28105113636363,75.24441090213233L88.57713068181818,82.59509142384235L88.82386363636364,81.67711306447612L88.97190340909091,70.9783118884296L89.39134943181818,74.38368015324819L89.53938920454546,82.86913765892136L89.5640625,80.81738972680441L89.90948863636363,79.38623840686381L90.05752840909092,79.74271324666715L90.18089488636363,81.74597707291912L90.74838068181818,78.97569453128823L90.92109375000001,76.03403499811728L91.04446022727272,76.73913312254693L91.36521306818182,84.59157321096468L91.53792613636364,85.81456336179015L91.90802556818181,75.44764649472702L92.20410511363636,82.94694468914844L92.278125,82.86445092879882L92.62355113636364,74.7213893876045L92.69757102272727,77.08664782974698L93.48711647727272,83.10408649803598L93.51178977272727,86.55537362943848L93.53646306818182,87.74108765659487L93.98058238636364,75.78189726999418L94.35068181818181,81.59821560862927L95.535,80.92316273175763L95.75705965909091,87.99779267247149L95.97911931818182,89.85198944300735L96.1271590909091,87.61274274860568L96.64529829545454,84.87940945270827L96.69464488636365,76.48451326956537L96.71931818181818,75.38939077537485L97.87896306818182,85.54045020441129L98.07634943181819,84.17481104857009L98.64383522727273,77.25964572528044L98.86589488636363,84.0991409177388L98.96458806818183,90.9112722703685L99.06328125,90.49237191160528L99.35936079545455,84.35561318839699L99.43338068181819,83.2497045538131L99.63076704545455,87.46039285147188L99.70478693181818,80.35033638644207L100.29694602272728,84.29786521817418L100.39563920454546,87.08191582052073L100.44498579545454,80.43195276450164L101.13583806818183,80.51447003180927L101.70332386363637,85.00876318542106L102.07342329545455,88.00986520132653L102.27080965909092,83.74044615466909L102.39417613636363,80.7647580481418L102.51754261363637,83.19930968015714L102.66558238636364,79.61808839987884L103.06035511363636,83.403839575001L103.50447443181818,84.46122061262469L103.52914772727271,80.68637245943235L103.70186079545455,85.36383523993062L103.77588068181818,85.6543215737928L104.36803977272727,84.51433073938102L104.44205965909092,79.49346951704484L104.61477272727272,81.27377454754644L104.68879261363637,81.76168812858666L104.71346590909091,85.75289663103325L104.76281250000001,79.20619294524847L104.78748579545454,78.75635441664353L105.40431818181818,77.29823485994699L105.62637784090909,82.4786229827902L106.21853693181818,82.36171783650641L106.41592329545455,79.82295700953114L106.76134943181818,75.68085432330977L106.78602272727272,68.221659655268L107.20546875000001,84.84433656182959L107.92099431818181,83.74386578370029L107.97034090909091,82.7530215639473L108.21707386363636,77.7547041252832L108.63651988636364,78.14688137491495L108.75988636363635,80.80270306796808L109.30269886363637,76.7450005370345L109.37671875000001,84.30206344356378L109.50008522727273,68.57935823746878L109.77149147727273,81.90439510617813L109.82083806818181,80.17679098874827L109.99355113636364,74.83408096975845L110.14159090909091,81.6918739667975L110.31430397727273,86.03695518641457L110.46234374999999,85.88782907614696L110.53636363636365,83.40957883501595L110.9558096590909,84.79547099828162L111.25188920454545,74.89841361964052L111.3259090909091,76.45607952632984L111.4986221590909,78.14825146380765L111.89339488636364,83.6858163756989L111.94274147727273,84.22646544385476L112.09078124999999,76.53201344152056L112.18947443181818,78.98337837791422L112.5842471590909,78.6591302040676L113.00369318181819,71.05897239519915L113.49715909090908,80.01817472315548L113.94127840909091,71.75957555489342L113.990625,78.15203041671947L114.03997159090909,82.20440654578529L114.11399147727273,83.53088616644496L114.18801136363636,79.32629977697867L114.60745738636365,83.42356629972598L114.87886363636365,73.64230159369232L115.22428977272727,69.2729874892414L115.96448863636363,82.24264139351047L116.01383522727274,83.77912940037277L116.60599431818183,79.75545519305587L116.70468749999999,75.02251399410424L116.75403409090909,82.41065686016776L116.90207386363636,82.05349962708489L116.97609375,72.55067241550988L117.02544034090909,73.97452038134468L117.2475,78.94462689671718L117.42021306818182,70.93199095780558L117.74096590909092,75.77069267093208L117.93835227272727,74.27398851545678L118.25910511363637,73.34081806918114L118.30845170454546,74.34445296957877L118.38247159090909,79.11093008940519L118.77724431818183,63.466993588777825L118.90061079545454,70.91432871300427L118.94995738636364,76.22822680104858L119.19669034090909,62.95014999272695L119.29538352272728,76.32150403316011L120.0109090909091,79.40837105917805L120.13427556818182,76.92834592442938L120.30698863636363,66.63056476737125L121.39261363636363,71.14264412352975L121.59,75.24969137287698L121.76271306818181,68.22385113579878L121.86140625,70.9978940054955L122.1328125,72.78797600888387L122.28085227272727,77.57256004018782L122.42889204545455,75.37849706449123L122.97170454545454,70.23427864689L123.24311079545454,70.30780462348332L123.36647727272727,77.8860138173326L123.58853693181818,74.53075860967911L123.61321022727273,75.38088721100587L123.90928977272726,80.59781442423679L124.18069602272728,69.56044364289077L124.2547159090909,59.22756451850471L124.50144886363636,73.01887685927713L125.66109375,62.998706149026276L125.78446022727273,65.82513894418791L125.80913352272727,56.716891685480306L126.05586647727273,68.20739160720395L127.85701704545455,74.24275600964063L128.12842329545455,70.49671100360132L128.1530965909091,69.59624731338639L128.20244318181818,62.336303729637464L128.25178977272728,70.12021851240502L128.3258096590909,70.43275116697622L128.35048295454544,68.12345649495813L128.9673153409091,72.31680763929221L129.09068181818182,72.18202065334975L129.16470170454545,75.8825023138309L129.3620880681818,71.5909602687809L129.63349431818182,69.27937432921013L129.85555397727273,61.181242539888004L129.92957386363636,69.56840396099231L129.9542471590909,66.86553630843558L130.32434659090907,67.80992406688394L130.7191193181818,69.34997572107393L130.8671590909091,68.59620804761725L130.9658522727273,68.46271973189162L131.18791193181818,69.09918880142911L131.23725852272727,69.23089606798565L131.4593181818182,71.17892696347369L131.55801136363635,69.81456025101006L131.70605113636364,63.71794271339775L131.82941761363637,67.8135842905869L132.47092329545455,73.23955813205203L132.69298295454544,69.80808852846951L133.06308238636362,71.88993045023088L133.23579545454547,61.87682529375968L133.38383522727273,57.31760387022598L133.48252840909092,68.36986260917938L133.50720170454545,75.05611432227325L133.97599431818182,61.71337624906495L134.05001420454545,59.32304940141918L134.9382528409091,61.4956212558663L135.08629261363637,64.87733502110503L135.45639204545455,72.34379104635943L135.50573863636365,66.60773848571526L135.92518465909092,68.94503676364994L135.94985795454545,72.88245852958237L136.41865056818182,73.67106251683246L136.44332386363635,73.28604766752966L136.51734375,69.64420277627822L136.73940340909093,73.09176224993683L137.0108096590909,73.24853403374894L137.62764204545454,65.97419989966954L137.70166193181817,73.31759050475324L137.97306818181818,68.21517099677283L138.04708806818184,58.61254307582895L138.0964346590909,68.45868034279017L138.14578125,65.86957146284674L138.44186079545455,67.83741594567837L138.86130681818182,66.07109347512815L139.37944602272728,71.94616557331695L139.5521590909091,72.24585458930893L139.74954545454545,73.60467755827197L139.84823863636365,72.26120757356342L140.02095170454544,76.6972460020366L140.045625,71.64583756247787L140.07029829545453,74.34692140440359L140.31703125,73.13694642825854L140.95853693181817,72.16180417542103L141.08190340909093,67.79514603251091L141.47667613636364,73.5932120652776L141.74808238636362,76.83382065012393L141.84677556818184,72.66883537806089L141.87144886363635,73.7062426833273L142.06883522727273,78.39709478645156L142.21687500000002,76.15411764560567L142.29089488636362,75.45872691443L142.51295454545453,78.44265055095434L142.61164772727275,76.34568438517404L142.78436079545455,77.1868620789357L142.8090340909091,76.32940080122357L142.95707386363637,70.87025062599265L143.10511363636363,73.18016025131152L143.15446022727275,78.52916226374832L143.22848011363635,73.4983577065111L144.09204545454546,75.28132612249652L144.388125,72.43682490908076L144.85691761363637,75.53953752758306L144.90626420454544,77.71714242096579L145.37505681818183,70.32587948529162L145.42440340909093,71.09467560059839L145.91786931818183,68.82812977837723L146.51002840909092,76.79807531949123L146.58404829545455,76.9985200963697L146.90480113636363,78.7510921246804L147.1021875,78.85471157940559L147.32424715909093,79.87421322156194L147.39826704545453,81.4324383347468L147.44761363636363,82.37482460004456L147.4722869318182,81.05747324582795L148.55791193181818,76.0353970905579L148.70595170454544,72.91419411977385L148.7799715909091,76.04934093486034L148.95268465909092,81.88189961727777L149.2734375,71.29682806469278L149.3227840909091,69.73269976457274L149.34745738636363,73.99920081124726L149.52017045454545,76.2831505620046L149.96428977272728,70.38398305745152L150.5317755681818,72.77129325225394L150.65514204545454,80.71375039337148L151.14860795454547,79.16853568964888L151.19795454545454,79.73947439307553L151.3459943181818,78.30404047610033L151.9875,76.5018844024308L152.1108664772727,79.76714318156293L152.43161931818182,71.4424202011613L152.5303125,74.62285909870106L152.9744318181818,76.86928110279885L153.1718181818182,78.03176215933617L153.73930397727273,77.11069585697004L153.8379971590909,79.51650137434346L153.9366903409091,75.48299460979152L153.96136363636364,77.10245174000882L154.6028693181818,76.10366257773444L155.17035511363636,70.50186458703178L155.8858806818182,71.02902158604158L156.1572869318182,78.89284835968674L156.5520596590909,69.86012379575621L156.89748579545454,70.27426126234741L156.92215909090908,75.37045931654953L157.41562499999998,79.23684906164726L158.00778409090907,78.29536088480185L158.0571306818182,75.57373336786718L158.4025568181818,74.35073644946047L158.87134943181817,73.38467403539484L158.9453693181818,73.12754773363929L159.06873579545456,71.66498414876511L159.98164772727273,72.6116317190593L160.15436079545455,73.04928111763975L160.2530539772727,71.78899992731273L160.40109375,72.7650229905074L160.5491335227273,71.1328455053889L160.67249999999999,71.30516934944703L160.74651988636364,69.73549309687888L160.79586647727274,68.56145639529461L161.3880255681818,73.38241449584613L161.58541193181816,70.23261610787996L162.00485795454546,72.12674635689439L162.12822443181818,75.57211122379682L162.17757102272725,72.26308369391863L162.47365056818182,63.74341870094108L162.5229971590909,72.06355318778422L162.67103693181818,74.5240255064861L162.96711647727273,68.22766990367461L163.09048295454548,70.01186365534717L163.3372159090909,64.40100814085721L163.58394886363638,70.38055041735693L164.27480113636364,65.34548350677093L164.32414772727273,73.69004895556296L164.4228409090909,73.71295560487401L164.7929403409091,72.45559293195879L165.80454545454546,73.68713202450883L165.8785653409091,70.76732487397105L166.3226846590909,77.29479503918448L166.76680397727273,74.9027593071289L167.18625,67.53766145564374L167.26026988636366,70.00981881982833L167.38363636363636,75.01723578834996L167.50700284090908,74.0128811301365L167.95112215909091,74.0327852292906L167.97579545454548,72.04363458701505L168.39524147727275,73.27961801753338L168.46926136363635,71.76518030620655L168.64197443181817,74.11798406780021L169.30815340909092,74.9890790541821L169.3575,77.39898459604527L169.53021306818184,75.02354406363183L169.97433238636364,74.58437263446159L170.02367897727274,76.39313321115583L170.19639204545456,73.13808355747427L170.41845170454545,76.1281206342666L170.66518465909093,75.64283399912956L170.9365909090909,73.42547783395477L171.0352840909091,77.92581327840588L171.05995738636364,77.84150513465279L171.52875,76.69364293444605L171.65211647727273,72.47531359270103L171.70146306818182,76.8550111799126L171.80015625000001,71.56662883650787L172.0222159090909,68.5322116017674L172.46633522727274,73.45502894278559L172.95980113636364,77.74450728949984L173.08316761363636,73.7630322088849L173.30522727272728,74.5515606963615L173.45326704545454,78.66982382520725L173.4779403409091,73.46674673106351L173.57663352272726,77.0847716258803L173.65065340909092,68.22368481627909L174.19346590909092,73.11788826417637L174.63758522727275,73.29892595581674L174.73627840909091,74.54398906804174L174.8596448863636,69.82623180055816L175.25441761363635,71.29629991397974L175.30376420454544,73.36206398814184L175.55049715909092,71.48146721230414L175.69853693181818,73.71219022559958L175.74788352272728,75.77578861612561L175.89592329545454,79.18323857648802L175.94526988636363,79.90358753131747L175.99461647727273,83.3307210748645L176.29069602272727,79.42782249095212L176.34004261363637,81.99555082495986L176.38938920454544,70.58680306545472L176.956875,76.0044156538498L177.1789346590909,76.12506912474826L177.25295454545454,73.66096836941465L177.64772727272728,74.99223547238334L177.8944602272727,80.1642537265276L177.91913352272726,80.42160727347391L177.96848011363636,78.3288319898044L178.11651988636362,77.61961195220061L178.4372727272727,75.80549418774592L178.56063920454545,75.98453891280938L178.73335227272727,76.41257309570912L178.88139204545453,68.64269381717428L179.2021448863636,77.36322017338678L179.84365056818183,78.25660327461507L180.41113636363636,75.98410258149991L180.50982954545455,79.90580217794943L180.53450284090908,79.24987016224682L180.70721590909093,75.23817230376343L181.12666193181818,76.65189685826834L181.3980681818182,75.09443832122439L181.66947443181817,72.1002094502192L181.84218750000002,78.21041591896591L181.99022727272728,77.6043444406746L182.58238636363637,75.38545814178624L183.93941761363635,72.84218340206995L184.03811079545454,70.8649954766074L184.35886363636362,72.75880846645913L184.63026988636364,71.93897269985487L184.7289630681818,71.75294221174501L184.92634943181818,77.56894722755231L184.95102272727271,74.02606412396156L185.0497159090909,73.01258803210098L185.29644886363636,69.35324982109067L185.5431818181818,73.08718046009882L185.56785511363637,76.55952649369132L185.5925284090909,76.64135964314627L185.7899147727273,72.05057481209735L186.2833806818182,78.19260154037448L186.87553977272728,81.49450653835967L187.02357954545454,78.90308027389177L187.0482528409091,79.05291084547056L187.12227272727273,83.4961431889488L187.36900568181818,84.82429721048297L187.5910653409091,65.10243234153886L187.66508522727273,75.47119078826977L187.9118181818182,81.72579310612835L188.0351846590909,78.26738318756549L188.92342329545454,83.19194680691265L189.14548295454546,85.30924455850852L189.19482954545455,83.16939131575934L189.29352272727272,84.77519063384561L189.44156249999997,87.69045185468211L189.51558238636363,84.97917259968344L189.68829545454545,81.35926171047552L189.8856818181818,83.74827261257354L189.95970170454547,81.424199421307L190.15708806818182,85.21835860774048L190.25578124999998,84.03908583268206L190.3544744318182,84.41224789630272L190.92196022727273,83.85537354552005L191.0206534090909,85.83978376803026L191.19336647727272,87.84075598026627L191.2920596590909,83.72220948298323L191.5634659090909,76.53008663692204L191.85954545454547,82.35537120917084L192.2543181818182,78.42009058193374L192.8711505681818,84.0621818722896L193.24124999999998,81.07185328548886L193.58667613636365,84.07100311947333L193.7840625,86.44040321177215L193.9814488636364,86.55046462144708L194.12948863636365,86.19604821175966L194.15416193181818,84.535611573898L194.79566761363637,81.56130098431254L195.14109374999998,84.3479403364702L195.21511363636364,84.66911505989134L195.75792613636364,85.88693451866212L196.1773721590909,85.40514292955233L196.47345170454545,81.66723770559277L196.54747159090908,81.35792342894734L196.69551136363637,86.55565004337785L197.13963068181818,84.90981939390116L197.18897727272727,87.66605237627424L197.63309659090908,87.82514448374667L197.73178977272727,86.56914294712396L198.24992897727273,88.88917212292502L198.3486221590909,88.28358373431837L198.52133522727274,85.3946412703411L198.84208806818182,84.31530364599679L198.99012784090908,87.79712041335651L199.33555397727272,89.88353921658835L199.63163352272727,86.67455545481013L200.00173295454547,88.95742997074727L200.19911931818183,89.56497310888999L200.22379261363636,81.21091783591848L200.76660511363636,85.44214629291334L200.86529829545455,84.88393966029463L201.21072443181816,84.86669335600007L201.50680397727274,86.38634626713251L201.53147727272727,83.35816511731247L201.7041903409091,83.35375356925255L202.04961647727274,86.42940960306488L202.19765625,88.36031652132483L202.37036931818182,89.52380874830922L202.4197159090909,89.93080895559973L202.64177556818183,85.60245887695318L202.69112215909092,88.17476882826064L202.71579545454543,83.69147378859111L203.18458806818182,91.08224152353692L203.25860795454545,91.56447188495346L203.48066761363634,88.59750230382451L203.80142045454545,89.00212442450729L204.1468465909091,85.27990243293453L204.39357954545457,86.69194212562815L204.78835227272725,88.81398315928818L205.05975852272726,85.92884440202917L205.5038778409091,86.67093429733303L205.75061079545452,91.18855950919718L205.77528409090908,88.52434735159476L205.92332386363634,91.74341917253487L206.0960369318182,93.12922607523858L206.19473011363635,91.37086341284135L206.21940340909092,91.52141210347165L206.24407670454545,94.22226680583573L206.78688920454545,90.5073615461859L206.8115625,85.7209059001934L206.91025568181817,88.10732226532944L206.95960227272727,91.29944131711557L207.18166193181818,90.05938009255591L207.28035511363635,91.81216243063683L207.9958806818182,88.84038562784235L208.02055397727273,89.7231221535419L208.24261363636361,91.45816485812199L208.31663352272727,92.16507413855537L208.4893465909091,91.81686450943715L208.73607954545454,88.15000501648247L208.7607528409091,91.94386485273154L208.81009943181817,92.81710134431754L208.93346590909093,91.0170926989009L209.0815056818182,92.68448674584073L209.18019886363635,84.95092082738638L209.22954545454544,88.08177834941934L209.62431818181818,88.6305542188625L209.77235795454544,88.10836392123075L209.79703125,89.51816522278699L209.99441761363636,94.25944095294724L210.46321022727275,90.31458753368801L210.88265625,90.83137128614594L211.52416193181818,92.86207777483942L212.09164772727271,92.05751728341532L212.41240056818182,87.66421286558995L212.48642045454545,92.4932786629473L213.25129261363637,92.23270469450365L213.27596590909093,93.78016015715882L213.67073863636364,87.24515686076423L213.6954119318182,89.24353710608978L213.94214488636362,92.46279610319475L214.01616477272728,93.70745744518261L214.06551136363638,96.57820680064306L214.33691761363636,93.1735597807837L214.48495738636362,95.3154961609165L214.55897727272728,94.38499541502121L214.65767045454544,94.23333937960993L215.10178977272727,94.29654701979848L215.1264630681818,91.8759390066579L215.22515625,92.36859084240659L215.29917613636363,90.05580100296355L215.34852272727272,91.72277678509386L215.69394886363636,90.30959131410653L215.79264204545453,87.57415145608856L216.06404829545454,92.51199611812508L216.1380681818182,95.66777981652281L216.6315340909091,93.82853657615209L216.82892045454545,95.49353465785026L217.07565340909093,93.94111893902304L217.10032670454547,92.21946590576398L217.37173295454545,93.3782855608667L217.93921875,90.65235483465753L218.0625852272727,90.93349886249611L218.48203125,91.0393776024123L219.56765625000003,94.06777092837007L219.59232954545453,90.80209019990463L219.69102272727272,93.4807758379983L219.7897159090909,98.11566328883364L220.23383522727272,96.25628784667649L220.381875,95.24276852964947L220.40654829545454,90.18716552511783L221.44282670454547,92.43818064116714L221.64021306818182,93.9543144090249L221.8375994318182,93.54237337785092L221.8622727272727,93.38170672825042L222.28171874999998,95.53478975411066L222.60247159090912,88.88691428473713L222.70116477272728,87.96547389553658L222.9725710227273,89.72853390152275L223.2686505681818,90.39331508102198L223.34267045454547,93.17210296381653L223.39201704545454,94.06744345667661L223.49071022727273,96.41584109983134L223.68809659090908,92.80187847906407L225.1684943181818,97.33420989759684L225.31653409090907,93.31870057826507L225.34120738636364,93.93793784535L225.39055397727273,88.98308754412736L225.7606534090909,91.81965386365174L225.93336647727273,92.17762147417986L226.5008522727273,91.72530059218886L226.59954545454545,91.6370402034099L226.87095170454546,90.33224720208712L226.9449715909091,94.85883446666514L227.36441761363636,94.04220565125856L227.51245738636365,94.24191800759345L227.83321022727273,96.3766775105274L228.32667613636363,95.45986528743728L228.54873579545455,96.89656224745245L228.94350852272729,92.98401411884109L228.99285511363638,98.30425860169984L229.2149147727273,95.35544567012514L229.43697443181816,96.44178906200995L229.63436079545454,94.58580803683961L230.12782670454547,90.41910829403989L230.17717329545457,92.81148507506013L230.25119318181817,93.98468037118508L230.30053977272726,91.5293381870234L230.44857954545455,93.59139909443128L230.7446590909091,93.4936451663355L230.76933238636363,90.17145632528806L230.94204545454548,96.90701663845998L231.01606534090908,97.89120469219807L231.1394318181818,96.01813510329082L231.31214488636365,100.43874161697308L231.36149147727272,98.45817984405828L232.61982954545456,91.96366245356032L232.89123579545455,92.98768618184093L232.96525568181818,94.29441917659238L233.0886221590909,90.93094254068363L233.48339488636364,96.6392289737447L233.58208806818183,95.63169534807838L233.60676136363634,94.70999853714778L233.65610795454546,95.13018328426504L233.9028409090909,94.46979086467616L234.00153409090908,95.05104275943219L234.10022727272727,93.95562180708929L234.32228693181818,93.62662987369582L234.34696022727275,93.77598092455032L234.47032670454547,85.43054846662692L234.56901988636363,91.74848923145086L234.59369318181817,93.68061776512938L234.96379261363634,96.22946556530837L235.72866477272726,97.09323490077104L236.02474431818183,96.90408587571397L236.19745738636365,96.08939352493083L236.32082386363635,98.85113834128919L236.66625,97.15593844675998L236.8883096590909,97.44093400600268L237.25840909090908,92.8291908655994L237.5298153409091,97.95722920905227L237.70252840909092,97.16044523983555L237.72720170454545,98.75433559011476L237.94926136363637,97.38772714923569L238.8868465909091,97.52756596147451L238.96086647727273,99.15947814057306L239.01021306818183,96.22277905654556L239.08423295454546,98.30567712718855L239.10890625,93.61482350039594L239.20759943181818,95.28561721199927L239.99714488636366,93.23144811115675L240.34257102272727,94.99541016886587L241.00875,96.40842848642696L241.15678977272728,97.55323182569616L241.25548295454544,98.88694270700485L241.69960227272728,99.67577019615155L241.82296875,99.33362331743656L242.19306818181818,99.78693669582941L242.26708806818183,94.0454203764168L242.34110795454544,95.01994682859335L242.85924715909093,98.88722383807244L243.1306534090909,96.12093137990027L243.45140625000002,97.99913056376727L243.47607954545452,97.25691651979497L243.7228125,99.90565413893772L243.79683238636363,86.46260736505373L243.89552556818182,95.03616911085821L244.3149715909091,99.33403317566822L244.3643181818182,99.17225724426183L244.43833806818182,96.50785046077493L244.95647727272728,97.2345222495858L245.00582386363635,93.36301806840676L245.1291903409091,97.75695968885312L245.4005965909091,97.98031777107317L245.59798295454544,96.22965174214508L245.69667613636364,99.87107374845685L246.1161221590909,98.25919135223874L246.2641619318182,98.87693749832995L246.51089488636362,99.3771054063375L246.5602414772727,98.6715480999873L246.70828125,95.86055964310589L246.83164772727272,100.71151998524722L246.95501420454545,101.18893486741722L247.0290340909091,102.13440806033057L247.39913352272728,99.54546305922321L247.42380681818184,101.28226007409015L248.08998579545454,99.63018697287026L248.28737215909092,99.22564982309761L248.53410511363637,96.71769855203488L248.80551136363636,96.64792041320281L249.3236505681818,97.90291154209878L249.4716903409091,99.43050896445254L249.7430965909091,95.61841534022344L249.76776988636362,97.0808986314796L250.5573153409091,95.57163581725739L250.58198863636363,96.3135542219027L250.73002840909092,95.18643840382694L252.01303977272727,97.62687414414833L252.06238636363636,100.31888733477513L252.23509943181818,101.06137931567973L252.3091193181818,99.86042269236164L252.48183238636364,102.15052514082493L253.14801136363636,98.85415117474301L253.66615056818182,100.5497829258539L253.91288352272727,102.16538766906537L254.30765625,104.25831045054272L254.3570028409091,103.38988221663337L254.4063494318182,101.27182557432319L254.5297159090909,101.69398936047834L255.31926136363637,101.37495145928823L255.4426278409091,95.6810864398183L255.7140340909091,101.8756225847339L255.73870738636364,102.19990525096321L255.7633806818182,104.00845215185811L255.8374005681818,103.36201558401922L256.2321732954546,102.47865996309999L256.89835227272727,98.92070512301841L256.9723721590909,99.7897779857351L257.4658380681818,102.48594213664936L257.6138778409091,103.42276621967369L257.6385511363636,102.60442174828654L258.28005681818183,103.81488521465974L258.4527698863636,104.3512629653933L258.6254829545455,105.90300734292825L259.4397017045455,103.39612960976791L259.5137215909091,105.28976026847458L259.98251420454545,103.83917446021854L260.0071875,103.51783091340478L260.2292471590909,100.55445146825438L260.40196022727275,102.3131672256258L260.47598011363635,103.07536468645607L260.64869318181815,102.83639236600268L260.7227130681818,102.97648415125424L261.19150568181817,103.57882707039145L261.26552556818183,104.29956489027377L261.5369318181818,102.54187535137645L261.8083380681818,102.39460232144472L262.0550710227273,102.02865440110044L262.1044176136364,101.54894801051816L262.1290909090909,101.63247046395172L262.20311079545456,104.45595783085474L262.79526988636366,103.33605622018928L262.9186363636364,102.46642611740003L262.9433096590909,101.46610995830414L263.0420028409091,99.33705869891169L263.5107954545455,102.75575752511253L263.53546875,103.57391911113616L263.7575284090909,104.92110161402867L263.95491477272725,105.31554699676599L264.2509943181818,102.59903049279386L264.7444602272727,106.2122370396392" style="fill: none;" fill="none"></path></g></g></g></g><g opacity="0.2"><g><g><g><path stroke="rgb(187, 187, 187)" stroke-width="2px" d="M25.117414772727273,140.86004729568958L25.265454545454546,139.12525770440698L25.660227272727273,125.3643857985735L25.709573863636365,132.67516539618373L25.78359375,133.91188184916973L26.055,131.8013433292508L26.425099431818182,122.81580376625061L26.499119318181815,131.43354483135045L26.992585227272727,122.52668700367212L27.18997159090909,114.09405431896448L27.288664772727273,121.683014921844L27.78213068181818,116.83995803073049L28.49765625,113.91008830815554L28.571676136363635,112.34902461245656L28.79373579545455,117.02855945751071L29.188508522727272,107.2034524306655L29.237855113636364,108.85039660334587L30.323480113636364,105.13501838967204L30.446846590909093,104.2835755571723L30.816946022727272,103.62052644789219L30.964985795454545,105.15185226872563L31.088352272727274,61.613773696124554L31.261065340909088,100.97569854184985L31.409105113636365,100.74687515571713L31.877897727272725,96.0384299531579L32.272670454545455,102.01584830135107L32.322017045454544,76.64671781659126L32.51940340909091,102.352100584656L33.03754261363636,104.97715379297733L33.23492897727273,97.88348376005888L33.629701704545454,102.85125839710236L33.72839488636364,108.90009050443769L35.06075284090909,83.48403549939394L35.08542613636364,93.2263743057847L35.50487215909091,97.76187497377396L35.578892045454545,90.99211699515581L35.65291193181819,98.55563226342201L36.023011363636364,34.70437954366207L36.09703125,84.26111716032028L36.12170454545455,88.36574833095074L36.3684375,97.68531478196383L36.837230113636366,95.51352019608021L37.35536931818182,94.476940959692L37.77481534090909,80.4542735517025L37.89818181818182,74.6352242231369L38.56436079545455,92.03923965990543L38.81109375,87.49890576303005L38.95913352272727,93.28213776648045L39.13184659090909,88.04286490380764L39.15651988636364,80.15686842799187L39.970738636363635,38.80087400972843L40.02008522727272,72.21107310801744L40.31616477272727,83.70117473602295L40.4888778409091,-4.746083065867424L40.51355113636364,55.94348627328873L40.56289772727273,66.37416786700487L40.63691761363636,87.15554869920015L40.68626420454545,88.6282065063715L40.98234375,82.93987195193768L41.229076704545456,80.84350343048573L42.29002840909091,92.04247060418129L42.388721590909086,88.76463147997856L42.48741477272727,57.28670849651098L42.68480113636364,68.32002054154873L42.90686079545454,86.34164086729288L43.227613636363635,73.50972148776054L43.32630681818182,88.68783391267061L43.54836647727273,75.14200772345066L43.64705965909091,56.01728367805481L43.69640625,74.454020999372L43.74575284090909,68.43808847665787L43.918465909090905,-50.628604039549856L44.04183238636363,83.7848759740591L44.091178977272726,81.23803469538689L44.21454545454546,72.93816744536161L44.26389204545455,75.04463761299849L44.36258522727273,72.48641549795866L44.46127840909091,75.32518248260021L44.609318181818175,63.08704472333193L44.63399147727273,65.81541891396046L45.201477272727274,54.025366969406605L45.30017045454545,61.925770819187164L46.11438920454545,63.20652372390032L46.287102272727275,70.62231890112162L46.43514204545455,51.83445706218481L46.78056818181818,59.013147085905075L46.87926136363637,47.97734919190407L47.05197443181818,53.20856447517872L47.10132102272728,52.84458211809397L47.29870738636364,47.44783039391041L47.644133522727266,44.776630729436874L47.66880681818182,49.57596107572317L47.91553977272727,22.512351974844933L47.98955965909091,58.22264052182436L48.211619318181825,43.29267780482769L48.310312499999995,42.60697911679745L48.40900568181818,35.838361859321594L48.631065340909096,19.122774928808212L48.65573863636364,40.26482145488262L48.80377840909091,37.693016186356544L48.82845170454545,46.58337476849556L48.95181818181818,44.00398667156696L49.395937499999995,35.7064074575901L49.46995738636364,43.139953047037125L49.69201704545454,47.69898026436567L50.432215909090914,38.85175149142742L50.75296875,18.765524804592133L50.901008522727274,39.637095138430595L50.97502840909091,39.748002246022224L51.024375,29.200920939445496L51.123068181818184,-36.729174077510834L51.27110795454546,41.60845908522606L51.39447443181818,17.187531620264053L51.64120738636363,39.84804283082485L51.78924715909091,42.8382356017828L51.91261363636363,43.57880759239197L52.15934659090909,45.339032627642155L53.195625,31.931965604424477L53.29431818181818,24.879104375839233L53.31899147727273,26.348168581724167L53.34366477272727,31.703781813383102L53.78778409090909,-3.5886665135622025L54.10853693181818,32.31603915989399L54.42928977272727,42.039572551846504L55.070795454545454,44.97449639439583L55.36687499999999,56.8223822414875L55.63828125,55.09235664457083L55.712301136363635,56.02884913980961L55.78632102272728,57.456247352063656L56.27978693181818,50.40002989768982L56.42782670454545,57.07864887267351L56.60053977272727,51.29678177833557L56.74857954545454,55.818798199296L57.14335227272727,45.99017999321222L57.21737215909091,69.5646330267191L57.48877840909091,40.27109871804714L57.56279829545454,68.0289124622941L57.636818181818185,45.45891384780407L57.661491477272726,38.51827847957611L58.84580965909091,80.11041536182165L58.91982954545454,60.055766209959984L58.993849431818184,63.970378294587135L59.018522727272725,70.43669126182795L59.56133522727273,64.77014250308275L59.857414772727275,76.0767199024558L60.10414772727273,74.45079664885998L60.20284090909091,79.63029044866562L60.81967329545454,71.84562034159899L60.84434659090909,79.05917818844318L61.11575284090909,71.69673315435648L61.31313920454546,71.91149863600731L61.411832386363635,78.25596544146538L61.46117897727273,69.33871089667082L62.25072443181818,69.43927238881588L62.34941761363636,74.40735693275928L62.96625,66.89535214751959L63.361022727272726,64.66371256113052L63.385696022727274,68.90739961713552L63.75579545454545,69.68991453945637L63.854488636363634,68.03761623054743L64.24926136363636,61.82605332881212L64.27393465909091,34.394657269120216L64.81674715909091,55.80373804271221L64.94011363636363,45.24108885973692L65.06348011363636,60.58762579411268L65.1375,1.7101612240076065L65.26086647727273,52.42005582153797L65.33488636363637,51.75755399465561L65.6309659090909,-63.99869982898238L65.82835227272727,38.554860681295395L66.0010653409091,20.415970265865326L66.17377840909091,40.21382528543472L66.39583806818182,50.72611789405346L66.49453125,40.587256506085396L66.54387784090909,26.123624548316002L66.59322443181819,41.92044961452484L66.66724431818182,18.93436472117901L66.83995738636364,15.40769013762474L67.06201704545454,28.489862635731697L67.30875,40.66576185822487L67.40744318181818,37.11389909684658L67.45678977272728,9.07995830476284L67.5308096590909,28.22831439971924L67.65417613636365,9.031823828816414L67.72819602272727,27.13179785013199L67.75286931818182,4.110845133662224L68.24633522727272,27.06957909464836L68.46839488636363,13.516031607985497L68.61643465909091,28.040550380945206L68.78914772727272,38.732720866799355L68.81382102272727,21.187638446688652L69.03588068181817,27.354350566864014L69.20859375,42.229868575930595L69.72673295454545,20.899543717503548L69.82542613636363,16.67677867412567L70.0721590909091,4.646891757845879L70.17085227272727,34.92782901227474L70.39291193181818,46.83714236319065L70.71366477272727,18.93038208782673L70.78768465909091,26.292517215013504L70.93572443181817,25.639800533652306L70.98507102272727,35.921970784664154L71.82396306818181,-99.2096492350102L71.9720028409091,50.72886749356985L72.39144886363636,35.1419944614172L72.6381818181818,23.287237912416458L72.71220170454546,37.379786029458046L72.76154829545455,37.57566037774086L73.20566761363635,35.805551290512085L73.55109375,28.518585070967674L73.60044034090909,20.06995591521263L74.04455965909091,13.259850695729256L74.1432528409091,43.15705727040768L74.34063920454547,-4.616462856531143L74.76008522727273,37.542981684207916L74.90812500000001,20.684257328510284L75.50028409090909,25.732878103852272L75.82103693181818,23.242294818162918L75.89505681818181,33.39187766611576L75.91973011363636,3.4660937190055847L75.96907670454544,11.03242452442646L76.01842329545455,26.756678625941277L76.11711647727273,36.06109920144081L76.21580965909091,13.758128240704536L76.38852272727273,33.6888871639967L76.7586221590909,-65.51140156388286L77.59751420454545,-50.59248340129855L77.69620738636364,23.983763560652733L77.86892045454545,34.6280896961689L78.09098011363636,21.216716945171356L78.38705965909091,25.948428243398666L78.63379261363636,34.022333800792694L78.68313920454545,27.8056673258543L78.73248579545454,7.5958735048770905L78.85585227272728,33.73864370584488L78.9298721590909,23.82804523408413L79.12725852272727,11.884734436869621L79.22595170454545,30.61130064725876L79.71941761363637,34.505181938409805L79.84278409090908,32.66918796300888L79.86745738636364,40.56233207881451L79.91680397727274,44.93000826984644L79.99082386363636,5.431945279240608L80.08951704545454,39.14152103662491L80.11419034090909,39.23118303716183L80.28690340909091,30.915695160627365L80.36092329545454,44.57196030020714L80.48428977272728,4.363373100757599L80.95308238636365,24.17437608540058L81.19981534090908,42.59000676870346L81.34785511363637,47.50862489640713L81.49589488636363,22.48881223797798L81.59458806818182,43.341933220624924L81.89066761363637,51.22894513607025L81.91534090909092,45.4486605450511L82.53217329545454,28.750369057059288L82.75423295454546,32.46781441569328L83.61779829545455,55.534712478518486L83.64247159090908,46.74024040997028L83.69181818181818,40.33087778091431L84.03724431818182,48.2485441043973L84.77744318181817,52.858330115675926L84.97482954545454,62.082339741289616L85.14754261363638,57.1321836411953L85.19688920454546,58.702561028301716L85.24623579545454,56.628248646855354L85.36960227272728,52.74805600941181L85.98643465909092,67.40521493554115L86.01110795454545,63.90194161981344L86.25784090909092,66.55051148682833L86.3071875,75.55219917744398L86.43055397727272,62.34739585965872L86.77598011363636,49.392232440412045L86.92401988636364,59.6540938988328L87.14607954545454,61.41270346194506L87.51617897727272,72.68169640749693L87.61487215909091,64.48279946297407L87.66421875,63.30808746814728L88.28105113636363,78.23265648633242L88.57713068181818,84.51386931538582L88.82386363636364,81.43748945742846L88.97190340909091,68.18556050956249L89.39134943181818,75.2725972160697L89.53938920454546,85.0841309800744L89.5640625,80.2818136587739L89.90948863636363,79.01265918463469L90.05752840909092,79.8357653170824L90.18089488636363,82.26889713853598L90.74838068181818,78.25255646556616L90.92109375000001,75.2661617025733L91.04446022727272,76.92318774014711L91.36521306818182,86.6413274332881L91.53792613636364,86.13380543142557L91.90802556818181,72.74152822047472L92.20410511363636,84.90451685339212L92.278125,82.84291724860668L92.62355113636364,72.59577307105064L92.69757102272727,77.70406081527472L93.48711647727272,84.67484287172556L93.51178977272727,87.45627707988024L93.53646306818182,88.05059938877821L93.98058238636364,72.66014139354229L94.35068181818181,83.11647272855043L95.535,80.74695094674826L95.75705965909091,89.84451196342707L95.97911931818182,90.33599793165922L96.1271590909091,87.02822311967611L96.64529829545454,84.16591639816761L96.69464488636365,74.29315953701735L96.71931818181818,75.10352651774883L97.87896306818182,88.19022233784199L98.07634943181819,83.81833273172379L98.64383522727273,75.45455212891102L98.86589488636363,85.88448203355074L98.96458806818183,92.68947049230337L99.06328125,90.3830246552825L99.35936079545455,82.75371021777391L99.43338068181819,82.96102474629879L99.63076704545455,88.55952586233616L99.70478693181818,78.49436956644058L100.29694602272728,85.32830464839935L100.39563920454546,87.80864781886339L100.44498579545454,78.69608598947525L101.13583806818183,80.53600984811783L101.70332386363637,86.18192671984434L102.07342329545455,88.79325500875711L102.27080965909092,82.62598241865635L102.39417613636363,79.98800213634968L102.51754261363637,83.83481054753065L102.66558238636364,78.68326771259308L103.06035511363636,84.39204952865839L103.50447443181818,84.73723306506872L103.52914772727271,79.7010085657239L103.70186079545455,86.58481228351593L103.77588068181818,85.73014839738607L104.36803977272727,84.21675431728363L104.44205965909092,78.18285378813744L104.61477272727272,81.73849477618933L104.68879261363637,81.88905018568039L104.71346590909091,86.7947379425168L104.76281250000001,77.49728038161993L104.78748579545454,78.63893124461174L105.40431818181818,76.91761600971222L105.62637784090909,83.830880664289L106.21853693181818,82.33120161294937L106.41592329545455,79.16025399416685L106.76134943181818,74.59962449222803L106.78602272727272,66.27455587685108L107.20546875000001,89.18342120200396L107.92099431818181,83.4566054418683L107.97034090909091,82.49437748640776L108.21707386363636,76.44997309148312L108.63651988636364,78.24925298988819L108.75988636363635,81.49596295505762L109.30269886363637,75.68580202013254L109.37671875000001,86.27471416443586L109.50008522727273,64.47519685328007L109.77149147727273,85.38268341869116L109.82083806818181,79.72582749277353L109.99355113636364,73.43945174664259L110.14159090909091,83.48199143260717L110.31430397727273,87.17116932570934L110.46234374999999,85.84890208393335L110.53636363636365,82.76267114281654L110.9558096590909,85.15723603963852L111.25188920454545,72.3149446696043L111.3259090909091,76.86268336325884L111.4986221590909,78.58996595442295L111.89339488636364,85.13130936026573L111.94274147727273,84.36759325861931L112.09078124999999,74.52349948883057L112.18947443181818,79.6232680901885L112.5842471590909,78.57449039071798L113.00369318181819,69.0750724375248L113.49715909090908,82.35683157294989L113.94127840909091,69.60379998385906L113.990625,79.8206787854433L114.03997159090909,83.26221469044685L114.11399147727273,83.8771425113082L114.18801136363636,78.2287595719099L114.60745738636365,84.49309236556292L114.87886363636365,71.08905847370625L115.22428977272727,68.13244774192572L115.96448863636363,85.6281626522541L116.01383522727274,84.18020508438349L116.60599431818183,78.70513922721148L116.70468749999999,73.7870551943779L116.75403409090909,84.3392136991024L116.90207386363636,81.96026942878962L116.97609375,70.07011096179485L117.02544034090909,74.34619317948818L117.2475,80.24199391901493L117.42021306818182,68.84042016416788L117.74096590909092,77.0337585657835L117.93835227272727,73.88329777121544L118.25910511363637,73.09722881019115L118.30845170454546,74.60643585026264L118.38247159090909,80.35514290630817L118.77724431818183,59.38339351862669L118.90061079545454,72.85833674669266L118.94995738636364,77.61533512920141L119.19669034090909,59.48411985486746L119.29538352272728,79.81188270449638L120.0109090909091,80.21414845436811L120.13427556818182,76.28097492456436L120.30698863636363,63.94249326735735L121.39261363636363,72.32045046240091L121.59,76.32177054136992L121.76271306818181,66.38986761868L121.86140625,71.7220136448741L122.1328125,73.25524836033583L122.28085227272727,78.82149937748909L122.42889204545455,74.8057719245553L122.97170454545454,68.89146248996258L123.24311079545454,70.32699740678072L123.36647727272727,79.86418443918228L123.58853693181818,73.65492276102304L123.61321022727273,75.60279972106218L123.90928977272726,81.95961005240679L124.18069602272728,66.6793140694499L124.2547159090909,56.53033125400543L124.50144886363636,76.61887894570827L125.66109375,60.38310042768717L125.78446022727273,66.5629341378808L125.80913352272727,54.33932903409004L126.05586647727273,71.2068033143878L127.85701704545455,75.8181916102767L128.12842329545455,69.51886571198702L128.1530965909091,69.36119563132524L128.20244318181818,60.44121126830578L128.25178977272728,72.15208529680967L128.3258096590909,70.51433283090591L128.35048295454544,67.52065195888281L128.9673153409091,73.41141506284475L129.09068181818182,72.14683666080236L129.16470170454545,76.84845402091742L129.3620880681818,70.47072167694569L129.63349431818182,68.67597169429064L129.85555397727273,59.067354418337345L129.92957386363636,71.7577386572957L129.9542471590909,66.15999582409859L130.32434659090907,68.05644142627716L130.7191193181818,69.75198163837194L130.8671590909091,68.39944902062416L130.9658522727273,68.42787473648787L131.18791193181818,69.26532889902592L131.23725852272727,69.26527614891529L131.4593181818182,71.68742935359478L131.55801136363635,69.45841408520937L131.70605113636364,62.126517958939075L131.82941761363637,68.88268619030714L132.47092329545455,74.65592204779387L132.69298295454544,68.91235812753439L133.06308238636362,72.43336207419634L133.23579545454547,59.26306392252445L133.38383522727273,56.12749184668064L133.48252840909092,71.25487844645977L133.50720170454545,76.80145367234945L133.97599431818182,58.230467319488525L134.05001420454545,58.69909270852804L134.9382528409091,62.062736481428146L135.08629261363637,65.76007745414972L135.45639204545455,74.29279028624296L135.50573863636365,65.1104334667325L135.92518465909092,69.55515119433403L135.94985795454545,73.91025967150927L136.41865056818182,73.87691500782967L136.44332386363635,73.1855456829071L136.51734375,68.69355726242065L136.73940340909093,73.9916926547885L137.0108096590909,73.28945680707693L137.62764204545454,64.07535101473331L137.70166193181817,75.23446547985077L137.97306818181818,66.88326577842236L138.04708806818184,56.10593023896217L138.0964346590909,71.02885740995407L138.14578125,65.1937258914113L138.44186079545455,68.35109035670757L138.86130681818182,65.61002317070961L139.37944602272728,73.47975942492485L139.5521590909091,72.3240836262703L139.74954545454545,73.9593766182661L139.84823863636365,71.9105161651969L140.02095170454544,77.8552030697465L140.045625,70.3272479698062L140.07029829545453,75.05199625343084L140.31703125,72.82110176235437L140.95853693181817,71.90725884586573L141.08190340909093,66.65529958158731L141.47667613636364,75.10670471191406L141.74808238636362,77.67972982674837L141.84677556818184,71.58163241297007L141.87144886363635,73.97704131156206L142.06883522727273,79.62156689912081L142.21687500000002,75.56862424314022L142.29089488636362,75.27720625698566L142.51295454545453,79.22155621647835L142.61164772727275,75.79830481857061L142.78436079545455,77.40643809735775L142.8090340909091,76.10557421296835L142.95707386363637,69.44522655755281L143.10511363636363,73.78312531113625L143.15446022727275,79.92543391138315L143.22848011363635,72.18514642864466L144.09204545454546,75.74674158543348L144.388125,71.6943132430315L144.85691761363637,76.34945116192102L144.90626420454544,78.28557144105434L145.37505681818183,68.39650820195675L145.42440340909093,71.29535756260157L145.91786931818183,68.23648414760828L146.51002840909092,78.87850246578455L146.58404829545455,77.05084300786257L146.90480113636363,79.20857309550047L147.1021875,78.88175978511572L147.32424715909093,80.14033786207438L147.39826704545453,81.83918814361095L147.44761363636363,82.62081950157881L147.4722869318182,80.71359968930483L148.55791193181818,74.72446422278881L148.70595170454544,72.09945387393236L148.7799715909091,76.86772099882364L148.95268465909092,83.404396019876L149.2734375,68.53376398980618L149.3227840909091,69.32440902292728L149.34745738636363,75.11290284991264L149.52017045454545,76.87933921068907L149.96428977272728,68.84409948438406L150.5317755681818,73.39446249604225L150.65514204545454,82.78700213134289L151.14860795454547,78.76518204063177L151.19795454545454,79.8885088339448L151.3459943181818,77.92934335023165L151.9875,76.03146030753851L152.1108664772727,80.61948689818382L152.43161931818182,69.26938406378031L152.5303125,75.45306193828583L152.9744318181818,77.4556737318635L153.1718181818182,78.33520929515362L153.73930397727273,76.87026619166136L153.8379971590909,80.14449852705002L153.9366903409091,74.43011201173067L153.96136363636364,77.5251851901412L154.6028693181818,75.84294459968805L155.17035511363636,69.03960458189249L155.8858806818182,71.1666275113821L156.1572869318182,80.94557489454746L156.5520596590909,67.5022751390934L156.89748579545454,70.38236524164677L156.92215909090908,76.70074052363634L157.41562499999998,80.24610842764378L158.00778409090907,78.04960041493177L158.0571306818182,74.8632959201932L158.4025568181818,74.03149261325598L158.87134943181817,73.13249885290861L158.9453693181818,73.06042901426554L159.06873579545456,71.28320525586605L159.98164772727273,72.85873896628618L160.15436079545455,73.16352251172066L160.2530539772727,71.46002362668514L160.40109375,73.01979824155569L160.5491335227273,70.70679160952568L160.67249999999999,71.35015174001455L160.74651988636364,69.32575415074825L160.79586647727274,68.25499284267426L161.3880255681818,74.64084870368242L161.58541193181816,69.41041148453951L162.00485795454546,72.621178843081L162.12822443181818,76.4714687615633L162.17757102272725,71.39931484311819L162.47365056818182,61.51949606090784L162.5229971590909,74.2353915721178L162.67103693181818,75.1662925556302L162.96711647727273,66.5841067135334L163.09048295454548,70.47759897261858L163.3372159090909,62.936383813619614L163.58394886363638,71.9414145424962L164.27480113636364,64.0311596095562L164.32414772727273,75.86826465278864L164.4228409090909,73.71893502026796L164.7929403409091,72.12737846374512L165.80454545454546,74.00860565900803L165.8785653409091,70.00515579432249L166.3226846590909,78.99868699908257L166.76680397727273,74.27835653722286L167.18625,65.61512015014887L167.26026988636366,70.65513606369495L167.38363636363636,76.32434210926294L167.50700284090908,73.75071036815643L167.95112215909091,74.037980876863L167.97579545454548,71.52439854294062L168.39524147727275,73.60225177556276L168.46926136363635,71.36986050009727L168.64197443181817,74.73214595764875L169.30815340909092,75.21646450459957L169.3575,78.02805199474096L169.53021306818184,74.40347320586443L169.97433238636364,74.46973393857479L170.02367897727274,76.86528130620718L170.19639204545456,72.28840477019548L170.41845170454545,76.90862211585045L170.66518465909093,75.51615766435862L170.9365909090909,72.84667237848043L171.0352840909091,79.10055405646563L171.05995738636364,77.81949783861637L171.52875,76.39401181787252L171.65211647727273,71.37418600916862L171.70146306818182,77.9982613697648L171.80015625000001,70.18618098646402L172.0222159090909,67.74012538790703L172.46633522727274,74.74005188047886L172.95980113636364,78.86420718580484L173.08316761363636,72.7237316519022L173.30522727272728,74.75739347934723L173.45326704545454,79.74483072012663L173.4779403409091,72.10856645554304L173.57663352272726,78.02919930964708L173.65065340909092,65.91063945740461L174.19346590909092,74.39544200152159L174.63758522727275,73.3461829572916L174.73627840909091,74.86899293214083L174.8596448863636,68.59473652392626L175.25441761363635,71.68003774434328L175.30376420454544,73.90129874646664L175.55049715909092,70.99056742340326L175.69853693181818,74.29448488354683L175.74788352272728,76.31445805728436L175.89592329545454,80.0726990327239L175.94526988636363,80.09162313491106L175.99461647727273,84.22531961649656L176.29069602272727,78.40903307497501L176.34004261363637,82.66581534594297L176.38938920454544,67.60873145610094L176.956875,77.4185969978571L177.1789346590909,76.15656378865242L177.25295454545454,73.01775417476892L177.64772727272728,75.33974151313305L177.8944602272727,81.51432658731937L177.91913352272726,80.4887853115797L177.96848011363636,77.7825463861227L178.11651988636362,77.43448137491941L178.4372727272727,75.33194768428802L178.56063920454545,76.03127568215132L178.73335227272727,76.52430459111929L178.88139204545453,66.6144907772541L179.2021448863636,79.63957446813583L179.84365056818183,78.48980668187141L180.41113636363636,75.39090252667665L180.50982954545455,80.92949929833412L180.53450284090908,79.07864957302809L180.70721590909093,74.19098257273436L181.12666193181818,77.02092710137367L181.3980681818182,74.68788861483335L181.66947443181817,71.3186137676239L181.84218750000002,79.80538784712553L181.99022727272728,77.44613914936781L182.58238636363637,74.80625326931477L183.93941761363635,72.1783021017909L184.03811079545454,70.34888210892677L184.35886363636362,73.25315813720226L184.63026988636364,71.72496765106916L184.7289630681818,71.70438192039728L184.92634943181818,79.08712255954742L184.95102272727271,73.1012510061264L185.0497159090909,72.74803626537323L185.29644886363636,68.39803795516491L185.5431818181818,74.06186348944902L185.56785511363637,77.46592703461647L185.5925284090909,76.66272088140249L185.7899147727273,70.85222366452217L186.2833806818182,79.79587963968515L186.87553977272728,82.3564161658287L187.02357954545454,78.22662978619337L187.0482528409091,79.09202172607183L187.12227272727273,84.65597811341286L187.36900568181818,85.1709906309843L187.5910653409091,59.954354122281075L187.66508522727273,78.17778977751732L187.9118181818182,83.3584572672844L188.0351846590909,77.36462044715881L188.92342329545454,84.47742558270693L189.14548295454546,85.86193136125803L189.19482954545455,82.61081676185131L189.29352272727272,85.19435892999172L189.44156249999997,88.4514342918992L189.51558238636363,84.27143640071154L189.68829545454545,80.41434171795845L189.8856818181818,84.37188579887152L189.95970170454547,80.81753718852997L190.15708806818182,86.20876333862543L190.25578124999998,83.73125548660755L190.3544744318182,84.50965590029955L190.92196022727273,83.71001037955284L191.0206534090909,86.3577824011445L191.19336647727272,88.36307785660028L191.2920596590909,82.64712861925364L191.5634659090909,74.65269769728184L191.85954545454547,83.87596882134676L192.2543181818182,77.39284835010767L192.8711505681818,85.5349598005414L193.24124999999998,80.29127570986748L193.58667613636365,84.85388334095478L193.7840625,87.05889730900526L193.9814488636364,86.57919439673424L194.12948863636365,86.10353346168995L194.15416193181818,84.10218107700348L194.79566761363637,80.78490465134382L195.14109374999998,85.07534808665514L195.21511363636364,84.75295259803534L195.75792613636364,86.20482686161995L196.1773721590909,85.27937892079353L196.47345170454545,80.69151717424393L196.54747159090908,81.27718187123537L196.69551136363637,87.91243366152048L197.13963068181818,84.48020155727863L197.18897727272727,88.38552302867174L197.63309659090908,87.86667294055223L197.73178977272727,86.2412837818265L198.24992897727273,89.49477872997522L198.3486221590909,88.12550454586744L198.52133522727274,84.6405289247632L198.84208806818182,84.0335597768426L198.99012784090908,88.70599313825369L199.33555397727272,90.42816556245089L199.63163352272727,85.83690143376589L200.00173295454547,89.55333794653416L200.19911931818183,89.72356255352497L200.22379261363636,79.03022497147322L200.76660511363636,86.54664098471403L200.86529829545455,84.73822872340679L201.21072443181816,84.86219148337841L201.50680397727274,86.78302741795778L201.53147727272727,82.56770673394203L201.7041903409091,83.35260200500488L202.04961647727274,87.23226054757833L202.19765625,88.8643489703536L202.37036931818182,89.8275198340416L202.4197159090909,90.03704986721277L202.64177556818183,84.47261213511229L202.69112215909092,88.8462293073535L202.71579545454543,82.5211811363697L203.18458806818182,93.01148354262114L203.25860795454545,91.69035042822361L203.48066761363634,87.82302222400904L203.80142045454545,89.10774457454681L204.1468465909091,84.30827575922012L204.39357954545457,87.06053256243467L204.78835227272725,89.36790812015533L205.05975852272726,85.17572495341301L205.5038778409091,86.8646450266242L205.75061079545452,92.36781350523233L205.77528409090908,87.82889726758003L205.92332386363634,92.5837065204978L206.0960369318182,93.49096886068583L206.19473011363635,90.91187088936567L206.21940340909092,91.56071043759584L206.24407670454545,94.9272818416357L206.78688920454545,89.53764478862286L206.8115625,84.47147800773382L206.91025568181817,88.73025818914175L206.95960227272727,92.13269307464361L207.18166193181818,89.73568189144135L207.28035511363635,92.26969829946756L207.9958806818182,88.06465069949627L208.02055397727273,89.95354644209146L208.24261363636361,91.91107007861137L208.31663352272727,92.34960152953863L208.4893465909091,91.72596994042397L208.73607954545454,87.19282983988523L208.7607528409091,92.93419144302607L208.81009943181817,93.04504580050707L208.93346590909093,90.5472291558981L209.0815056818182,93.11973336338997L209.18019886363635,82.93219681084156L209.22954545454544,88.89903876185417L209.62431818181818,88.7738034054637L209.77235795454544,87.97205447405577L209.79703125,89.88617136329412L209.99441761363636,95.49707534909248L210.46321022727275,89.28484647721052L210.88265625,90.96626944094896L211.52416193181818,93.39216130971909L212.09164772727271,91.84749960154295L212.41240056818182,86.51741082966328L212.48642045454545,93.75382925570011L213.25129261363637,92.16468601673841L213.27596590909093,94.18409872055054L213.67073863636364,85.53929849714041L213.6954119318182,89.76518239080906L213.94214488636362,93.30313231050968L214.01616477272728,94.03235643357038L214.06551136363638,97.32757012546062L214.33691761363636,92.28483098745346L214.48495738636362,95.87461448460817L214.55897727272728,94.14210303872824L214.65767045454544,94.19375199079514L215.10178977272727,94.31304636597633L215.1264630681818,91.24407789856195L215.22515625,92.49718974530697L215.29917613636363,89.45208410918713L215.34852272727272,92.15791422128677L215.69394886363636,89.94070179015398L215.79264204545453,86.86010851711035L216.06404829545454,93.80094169825315L216.1380681818182,96.49154680967331L216.6315340909091,93.34843146800995L216.82892045454545,95.92815584689379L217.07565340909093,93.53588557988405L217.10032670454547,91.77005584537983L217.37173295454545,93.68077694624662L217.93921875,89.94079410284758L218.0625852272727,91.00688702613115L218.48203125,91.06701555848122L219.56765625000003,94.85828469693661L219.59232954545453,89.9496363401413L219.69102272727272,94.18000399321318L219.7897159090909,99.32552672177553L220.23383522727272,95.77092754840851L220.381875,94.97820547968149L220.40654829545454,88.86748100817204L221.44282670454547,93.02577222883701L221.64021306818182,94.35007694363594L221.8375994318182,93.43484274297953L221.8622727272727,93.33976726233959L222.28171874999998,96.0968177318573L222.60247159090912,87.15159244090319L222.70116477272728,87.72494658082724L222.9725710227273,90.18875259160995L223.2686505681818,90.56684560328722L223.34267045454547,93.89746121317148L223.39201704545454,94.30115780979395L223.49071022727273,97.02885284274817L223.68809659090908,91.85851118713617L225.1684943181818,98.51730271428823L225.31653409090907,92.27051592618227L225.34120738636364,94.09957985579967L225.39055397727273,87.68970291316509L225.7606534090909,92.56009425222874L225.93336647727273,92.27106320858002L226.5008522727273,91.60722944140434L226.59954545454545,91.61400123685598L226.87095170454546,89.99165180325508L226.9449715909091,96.04042786359787L227.36441761363636,93.82903772592545L227.51245738636365,94.29404973238707L227.83321022727273,96.93392242491245L228.32667613636363,95.22054608166218L228.54873579545455,97.27158907055855L228.94350852272729,91.96270584315062L228.99285511363638,99.69302355498075L229.2149147727273,94.58570509403944L229.43697443181816,96.72536167502403L229.63436079545454,94.101333796978L230.12782670454547,89.33145779371262L230.17717329545457,93.43597687035799L230.25119318181817,94.29092428833246L230.30053977272726,90.88841027766466L230.44857954545455,94.1296672001481L230.7446590909091,93.46812806278467L230.76933238636363,89.30425192415714L230.94204545454548,98.66522721201181L231.01606534090908,98.14811128377914L231.1394318181818,95.52920016646385L231.31214488636365,101.59267042949796L231.36149147727272,97.94118578732014L232.61982954545456,90.2683722898364L232.89123579545455,93.25499124079943L232.96525568181818,94.63552097976208L233.0886221590909,90.0529606193304L233.48339488636364,98.12928608804941L233.58208806818183,95.36869476735592L233.60676136363634,94.46940428763628L233.65610795454546,95.23986580967903L233.9028409090909,94.29740595817566L234.00153409090908,95.20276929438114L234.10022727272727,93.66967964172363L234.32228693181818,93.54075177758932L234.34696022727275,93.8149666339159L234.47032670454547,83.2521064504981L234.56901988636363,93.39768688380718L234.59369318181817,94.18496909737587L234.96379261363634,96.89480162411928L235.72866477272726,97.31870810687542L236.02474431818183,96.85471154004335L236.19745738636365,95.87673108279705L236.32082386363635,99.57204777002335L236.66625,96.71343355625868L236.8883096590909,97.51532755047083L237.25840909090908,91.62536888569593L237.5298153409091,99.29582181572914L237.70252840909092,96.95245749503374L237.72720170454545,99.17039524018764L237.94926136363637,97.03099581599236L238.8868465909091,97.56406865268946L238.96086647727273,99.58546278253198L239.01021306818183,95.45620060712099L239.08423295454546,98.84938444197178L239.10890625,92.39035098999739L239.20759943181818,95.72175125777721L239.99714488636366,92.69524003565311L240.34257102272727,95.45586432516575L241.00875,96.77727437764406L241.15678977272728,97.85206447541714L241.25548295454544,99.23508665710688L241.69960227272728,99.88168102875352L241.82296875,99.24431133270264L242.19306818181818,99.90526692196727L242.26708806818183,92.54668913036585L242.34110795454544,95.27433141320944L242.85924715909093,99.89671481028199L243.1306534090909,95.39883486181498L243.45140625000002,98.48940449953079L243.47607954545452,97.06317338347435L243.7228125,100.59706484153867L243.79683238636363,82.95351444929838L243.89552556818182,97.27416063845158L244.3149715909091,100.45592202991247L244.3643181818182,99.13002821803093L244.43833806818182,95.81234957277775L244.95647727272728,97.42420832812786L245.00582386363635,92.35242366045713L245.1291903409091,98.90392805635929L245.4005965909091,98.0386218354106L245.59798295454544,95.77266830205917L245.69667613636364,100.82160887494683L246.1161221590909,97.83843516558409L246.2641619318182,99.03819027543068L246.51089488636362,99.50766626000404L246.5602414772727,98.48737362027168L246.70828125,95.12679594755173L246.83164772727272,101.97778579965234L246.95501420454545,101.31355640664697L247.0290340909091,102.38120875507593L247.39913352272728,98.86966026574373L247.42380681818184,101.73562322929502L248.08998579545454,99.19893964380026L248.28737215909092,99.12005185335875L248.53410511363637,96.06303787976503L248.80551136363636,96.62970594316721L249.3236505681818,98.2305069565773L249.4716903409091,99.82926390320063L249.7430965909091,94.62332911044359L249.76776988636362,97.46265656501055L250.5573153409091,95.17766683548689L250.58198863636363,96.50722018629313L250.73002840909092,94.89222279936075L252.01303977272727,98.26391096413136L252.06238636363636,101.02159443497658L252.23509943181818,101.25519500300288L252.3091193181818,99.54693212360144L252.48183238636364,102.7483198530972L253.14801136363636,97.99368533492088L253.66615056818182,100.99240054562688L253.91288352272727,102.58711551502347L254.30765625,104.80463455617428L254.3570028409091,103.1631928794086L254.4063494318182,100.71894067525864L254.5297159090909,101.80418848246336L255.31926136363637,101.29167170450091L255.4426278409091,94.19479380548L255.7140340909091,103.4926074296236L255.73870738636364,102.28455406799912L255.7633806818182,104.4805444702506L255.8374005681818,103.1932736299932L256.2321732954546,102.24807406961918L256.89835227272727,97.99195776879787L256.9723721590909,100.01663559302688L257.4658380681818,103.18973277881742L257.6138778409091,103.66730920225382L257.6385511363636,102.39080597832799L258.28005681818183,104.13085739314556L258.4527698863636,104.49127582088113L258.6254829545455,106.3080654591322L259.4397017045455,102.74174916744232L259.5137215909091,105.78406234458089L259.98251420454545,103.4605221748352L260.0071875,103.43394930660725L260.2292471590909,99.78090853616595L260.40196022727275,102.77225191891193L260.47598011363635,103.27432417497039L260.64869318181815,102.77401245385408L260.7227130681818,103.01305287703872L261.19150568181817,103.73605908080935L261.26552556818183,104.4877020008862L261.5369318181818,102.0830585360527L261.8083380681818,102.3561590462923L262.0550710227273,101.93312953412533L262.1044176136364,101.42372830957174L262.1290909090909,101.65427266806364L262.20311079545456,105.19298416748643L262.79526988636366,103.04372376948595L262.9186363636364,102.23942305147648L262.9433096590909,101.20499338209629L263.0420028409091,98.78130383044481L263.5107954545455,103.64815431833267L263.53546875,103.787487141788L263.7575284090909,105.27276211604476L263.95491477272725,105.41851067170501L264.2509943181818,101.88992719352245L264.7444602272727,107.15540697053075" style="fill: none;" fill="none"></path></g></g></g></g></g></g><g transform="translate(58, 177)" clip-path="url(#clip_1)"><clipPath id="clip_1"><rect width="271" height="23"></rect></clipPath><g><g><line x1="0" y1="0" x2="0" y2="5" style="visibility: inherit;" fill="rgb(0, 0, 0)" stroke="rgb(204, 204, 204)" stroke-width="1px"></line><line x1="24.673295454545457" y1="0" x2="24.673295454545457" y2="5" style="visibility: inherit;" fill="rgb(0, 0, 0)" stroke="rgb(204, 204, 204)" stroke-width="1px"></line><line x1="49.346590909090914" y1="0" x2="49.346590909090914" y2="5" style="visibility: inherit;" fill="rgb(0, 0, 0)" stroke="rgb(204, 204, 204)" stroke-width="1px"></line><line x1="74.01988636363636" y1="0" x2="74.01988636363636" y2="5" style="visibility: inherit;" fill="rgb(0, 0, 0)" stroke="rgb(204, 204, 204)" stroke-width="1px"></line><line x1="98.69318181818183" y1="0" x2="98.69318181818183" y2="5" style="visibility: inherit;" fill="rgb(0, 0, 0)" stroke="rgb(204, 204, 204)" stroke-width="1px"></line><line x1="123.36647727272727" y1="0" x2="123.36647727272727" y2="5" style="visibility: inherit;" fill="rgb(0, 0, 0)" stroke="rgb(204, 204, 204)" stroke-width="1px"></line><line x1="148.03977272727272" y1="0" x2="148.03977272727272" y2="5" style="visibility: inherit;" fill="rgb(0, 0, 0)" stroke="rgb(204, 204, 204)" stroke-width="1px"></line><line x1="172.7130681818182" y1="0" x2="172.7130681818182" y2="5" style="visibility: inherit;" fill="rgb(0, 0, 0)" stroke="rgb(204, 204, 204)" stroke-width="1px"></line><line x1="197.38636363636365" y1="0" x2="197.38636363636365" y2="5" style="visibility: inherit;" fill="rgb(0, 0, 0)" stroke="rgb(204, 204, 204)" stroke-width="1px"></line><line x1="222.0596590909091" y1="0" x2="222.0596590909091" y2="5" style="visibility: inherit;" fill="rgb(0, 0, 0)" stroke="rgb(204, 204, 204)" stroke-width="1px"></line><line x1="246.73295454545453" y1="0" x2="246.73295454545453" y2="5" style="visibility: inherit;" fill="rgb(0, 0, 0)" stroke="rgb(204, 204, 204)" stroke-width="1px"></line><line x1="271.40625" y1="0" x2="271.40625" y2="5" style="visibility: inherit;" fill="rgb(0, 0, 0)" stroke="rgb(204, 204, 204)" stroke-width="1px"></line></g><g transform="translate(0, 8)"><text x="0" y="0" dx="0em" dy="0.95em" style="text-anchor: middle; visibility: hidden; font-family: &quot;Helvetica Neue&quot;, sans-serif; font-size: 12px; font-weight: 200;" fill="rgb(50, 49, 63)" stroke="none" stroke-width="1px">-1k</text><text x="24.673295454545457" y="0" dx="0em" dy="0.95em" style="text-anchor: middle; visibility: inherit; font-family: &quot;Helvetica Neue&quot;, sans-serif; font-size: 12px; font-weight: 200;" fill="rgb(50, 49, 63)" stroke="none" stroke-width="1px">0</text><text x="49.346590909090914" y="0" dx="0em" dy="0.95em" style="text-anchor: middle; visibility: inherit; font-family: &quot;Helvetica Neue&quot;, sans-serif; font-size: 12px; font-weight: 200;" fill="rgb(50, 49, 63)" stroke="none" stroke-width="1px">1k</text><text x="74.01988636363636" y="0" dx="0em" dy="0.95em" style="text-anchor: middle; visibility: inherit; font-family: &quot;Helvetica Neue&quot;, sans-serif; font-size: 12px; font-weight: 200;" fill="rgb(50, 49, 63)" stroke="none" stroke-width="1px">2k</text><text x="98.69318181818183" y="0" dx="0em" dy="0.95em" style="text-anchor: middle; visibility: inherit; font-family: &quot;Helvetica Neue&quot;, sans-serif; font-size: 12px; font-weight: 200;" fill="rgb(50, 49, 63)" stroke="none" stroke-width="1px">3k</text><text x="123.36647727272727" y="0" dx="0em" dy="0.95em" style="text-anchor: middle; visibility: inherit; font-family: &quot;Helvetica Neue&quot;, sans-serif; font-size: 12px; font-weight: 200;" fill="rgb(50, 49, 63)" stroke="none" stroke-width="1px">4k</text><text x="148.03977272727272" y="0" dx="0em" dy="0.95em" style="text-anchor: middle; visibility: inherit; font-family: &quot;Helvetica Neue&quot;, sans-serif; font-size: 12px; font-weight: 200;" fill="rgb(50, 49, 63)" stroke="none" stroke-width="1px">5k</text><text x="172.7130681818182" y="0" dx="0em" dy="0.95em" style="text-anchor: middle; visibility: inherit; font-family: &quot;Helvetica Neue&quot;, sans-serif; font-size: 12px; font-weight: 200;" fill="rgb(50, 49, 63)" stroke="none" stroke-width="1px">6k</text><text x="197.38636363636365" y="0" dx="0em" dy="0.95em" style="text-anchor: middle; visibility: inherit; font-family: &quot;Helvetica Neue&quot;, sans-serif; font-size: 12px; font-weight: 200;" fill="rgb(50, 49, 63)" stroke="none" stroke-width="1px">7k</text><text x="222.0596590909091" y="0" dx="0em" dy="0.95em" style="text-anchor: middle; visibility: inherit; font-family: &quot;Helvetica Neue&quot;, sans-serif; font-size: 12px; font-weight: 200;" fill="rgb(50, 49, 63)" stroke="none" stroke-width="1px">8k</text><text x="246.73295454545453" y="0" dx="0em" dy="0.95em" style="text-anchor: middle; visibility: inherit; font-family: &quot;Helvetica Neue&quot;, sans-serif; font-size: 12px; font-weight: 200;" fill="rgb(50, 49, 63)" stroke="none" stroke-width="1px">9k</text><text x="271.40625" y="0" dx="0em" dy="0.95em" style="text-anchor: middle; visibility: hidden; font-family: &quot;Helvetica Neue&quot;, sans-serif; font-size: 12px; font-weight: 200;" fill="rgb(50, 49, 63)" stroke="none" stroke-width="1px">10k</text></g><line x1="0" y1="0" x2="271.40625" y2="0" fill="rgb(0, 0, 0)" stroke="rgb(204, 204, 204)" stroke-width="1px"></line></g></g></g></g></svg>