<svg viewBox="0 0 330 200" xmlns="http://www.w3.org/2000/svg"><g><g><g><g><g><line x1="40" y1="178" x2="35" y2="178" style="visibility: inherit;" fill="rgb(0, 0, 0)" stroke="rgb(204, 204, 204)" stroke-width="1px"></line><line x1="40" y1="163.16666666666666" x2="35" y2="163.16666666666666" style="visibility: inherit;" fill="rgb(0, 0, 0)" stroke="rgb(204, 204, 204)" stroke-width="1px"></line><line x1="40" y1="148.33333333333334" x2="35" y2="148.33333333333334" style="visibility: inherit;" fill="rgb(0, 0, 0)" stroke="rgb(204, 204, 204)" stroke-width="1px"></line><line x1="40" y1="133.5" x2="35" y2="133.5" style="visibility: inherit;" fill="rgb(0, 0, 0)" stroke="rgb(204, 204, 204)" stroke-width="1px"></line><line x1="40" y1="118.66666666666669" x2="35" y2="118.66666666666669" style="visibility: inherit;" fill="rgb(0, 0, 0)" stroke="rgb(204, 204, 204)" stroke-width="1px"></line><line x1="40" y1="103.83333333333331" x2="35" y2="103.83333333333331" style="visibility: inherit;" fill="rgb(0, 0, 0)" stroke="rgb(204, 204, 204)" stroke-width="1px"></line><line x1="40" y1="89" x2="35" y2="89" style="visibility: inherit;" fill="rgb(0, 0, 0)" stroke="rgb(204, 204, 204)" stroke-width="1px"></line><line x1="40" y1="74.16666666666666" x2="35" y2="74.16666666666666" style="visibility: inherit;" fill="rgb(0, 0, 0)" stroke="rgb(204, 204, 204)" stroke-width="1px"></line><line x1="40" y1="59.33333333333334" x2="35" y2="59.33333333333334" style="visibility: inherit;" fill="rgb(0, 0, 0)" stroke="rgb(204, 204, 204)" stroke-width="1px"></line><line x1="40" y1="44.5" x2="35" y2="44.5" style="visibility: inherit;" fill="rgb(0, 0, 0)" stroke="rgb(204, 204, 204)" stroke-width="1px"></line><line x1="40" y1="29.66666666666666" x2="35" y2="29.66666666666666" style="visibility: inherit;" fill="rgb(0, 0, 0)" stroke="rgb(204, 204, 204)" stroke-width="1px"></line><line x1="40" y1="14.83333333333334" x2="35" y2="14.83333333333334" style="visibility: inherit;" fill="rgb(0, 0, 0)" stroke="rgb(204, 204, 204)" stroke-width="1px"></line><line x1="40" y1="0" x2="35" y2="0" style="visibility: inherit;" fill="rgb(0, 0, 0)" stroke="rgb(204, 204, 204)" stroke-width="1px"></line></g><g transform="translate(30, 0)"><text x="0" y="178" dx="0em" dy="0.3em" style="text-anchor: end; visibility: hidden; font-family: Roboto, sans-serif; font-size: 12px; font-weight: 200;" fill="rgb(50, 49, 63)" stroke="none" stroke-width="1px">-20</text><text x="0" y="163.16666666666666" dx="0em" dy="0.3em" style="text-anchor: end; visibility: inherit; font-family: Roboto, sans-serif; font-size: 12px; font-weight: 200;" fill="rgb(50, 49, 63)" stroke="none" stroke-width="1px">0</text><text x="0" y="148.33333333333334" dx="0em" dy="0.3em" style="text-anchor: end; visibility: hidden; font-family: Roboto, sans-serif; font-size: 12px; font-weight: 200;" fill="rgb(50, 49, 63)" stroke="none" stroke-width="1px">20</text><text x="0" y="133.5" dx="0em" dy="0.3em" style="text-anchor: end; visibility: inherit; font-family: Roboto, sans-serif; font-size: 12px; font-weight: 200;" fill="rgb(50, 49, 63)" stroke="none" stroke-width="1px">40</text><text x="0" y="118.66666666666669" dx="0em" dy="0.3em" style="text-anchor: end; visibility: hidden; font-family: Roboto, sans-serif; font-size: 12px; font-weight: 200;" fill="rgb(50, 49, 63)" stroke="none" stroke-width="1px">60</text><text x="0" y="103.83333333333331" dx="0em" dy="0.3em" style="text-anchor: end; visibility: inherit; font-family: Roboto, sans-serif; font-size: 12px; font-weight: 200;" fill="rgb(50, 49, 63)" stroke="none" stroke-width="1px">80</text><text x="0" y="89" dx="0em" dy="0.3em" style="text-anchor: end; visibility: hidden; font-family: Roboto, sans-serif; font-size: 12px; font-weight: 200;" fill="rgb(50, 49, 63)" stroke="none" stroke-width="1px">100</text><text x="0" y="74.16666666666666" dx="0em" dy="0.3em" style="text-anchor: end; visibility: inherit; font-family: Roboto, sans-serif; font-size: 12px; font-weight: 200;" fill="rgb(50, 49, 63)" stroke="none" stroke-width="1px">120</text><text x="0" y="59.33333333333334" dx="0em" dy="0.3em" style="text-anchor: end; visibility: hidden; font-family: Roboto, sans-serif; font-size: 12px; font-weight: 200;" fill="rgb(50, 49, 63)" stroke="none" stroke-width="1px">140</text><text x="0" y="44.5" dx="0em" dy="0.3em" style="text-anchor: end; visibility: inherit; font-family: Roboto, sans-serif; font-size: 12px; font-weight: 200;" fill="rgb(50, 49, 63)" stroke="none" stroke-width="1px">160</text><text x="0" y="29.66666666666666" dx="0em" dy="0.3em" style="text-anchor: end; visibility: hidden; font-family: Roboto, sans-serif; font-size: 12px; font-weight: 200;" fill="rgb(50, 49, 63)" stroke="none" stroke-width="1px">180</text><text x="0" y="14.83333333333334" dx="0em" dy="0.3em" style="text-anchor: end; visibility: inherit; font-family: Roboto, sans-serif; font-size: 12px; font-weight: 200;" fill="rgb(50, 49, 63)" stroke="none" stroke-width="1px">200</text><text x="0" y="0" dx="0em" dy="0.3em" style="text-anchor: end; visibility: hidden; font-family: Roboto, sans-serif; font-size: 12px; font-weight: 200;" fill="rgb(50, 49, 63)" stroke="none" stroke-width="1px">220</text></g><line x1="40" y1="0" x2="40" y2="178" fill="rgb(0, 0, 0)" stroke="rgb(204, 204, 204)" stroke-width="1px"></line></g></g><g transform="translate(40, 0)" clip-path="url(#clip_0)"><clipPath id="clip_0"><rect width="290" height="178"></rect></clipPath><g><g><g><line x1="0" y1="0" x2="0" y2="178" fill="rgb(0, 0, 0)" stroke="rgb(60, 60, 60)" stroke-width="1px" opacity="0.25"></line><line x1="32.22222222222222" y1="0" x2="32.22222222222222" y2="178" fill="rgb(0, 0, 0)" stroke="rgb(60, 60, 60)" stroke-width="1px" opacity="0.25"></line><line x1="64.44444444444444" y1="0" x2="64.44444444444444" y2="178" fill="rgb(0, 0, 0)" stroke="rgb(60, 60, 60)" stroke-width="1px" opacity="0.25"></line><line x1="96.66666666666666" y1="0" x2="96.66666666666666" y2="178" fill="rgb(0, 0, 0)" stroke="rgb(60, 60, 60)" stroke-width="1px" opacity="0.25"></line><line x1="128.88888888888889" y1="0" x2="128.88888888888889" y2="178" fill="rgb(0, 0, 0)" stroke="rgb(60, 60, 60)" stroke-width="1px" opacity="0.25"></line><line x1="161.11111111111111" y1="0" x2="161.11111111111111" y2="178" fill="rgb(0, 0, 0)" stroke="rgb(60, 60, 60)" stroke-width="1px" opacity="0.25"></line><line x1="193.33333333333331" y1="0" x2="193.33333333333331" y2="178" fill="rgb(0, 0, 0)" stroke="rgb(60, 60, 60)" stroke-width="1px" opacity="0.25"></line><line x1="225.55555555555557" y1="0" x2="225.55555555555557" y2="178" fill="rgb(0, 0, 0)" stroke="rgb(60, 60, 60)" stroke-width="1px" opacity="0.25"></line><line x1="257.77777777777777" y1="0" x2="257.77777777777777" y2="178" fill="rgb(0, 0, 0)" stroke="rgb(60, 60, 60)" stroke-width="1px" opacity="0.25"></line><line x1="290" y1="0" x2="290" y2="178" fill="rgb(0, 0, 0)" stroke="rgb(60, 60, 60)" stroke-width="1px" opacity="0.25"></line></g><g><line x1="0" y1="178" x2="290" y2="178" fill="rgb(0, 0, 0)" stroke="rgb(60, 60, 60)" stroke-width="1px" opacity="0.25"></line><line x1="0" y1="163.16666666666666" x2="290" y2="163.16666666666666" fill="rgb(0, 0, 0)" stroke="rgb(60, 60, 60)" stroke-width="1px" opacity="0.25"></line><line x1="0" y1="148.33333333333334" x2="290" y2="148.33333333333334" fill="rgb(0, 0, 0)" stroke="rgb(60, 60, 60)" stroke-width="1px" opacity="0.25"></line><line x1="0" y1="133.5" x2="290" y2="133.5" fill="rgb(0, 0, 0)" stroke="rgb(60, 60, 60)" stroke-width="1px" opacity="0.25"></line><line x1="0" y1="118.66666666666669" x2="290" y2="118.66666666666669" fill="rgb(0, 0, 0)" stroke="rgb(60, 60, 60)" stroke-width="1px" opacity="0.25"></line><line x1="0" y1="103.83333333333331" x2="290" y2="103.83333333333331" fill="rgb(0, 0, 0)" stroke="rgb(60, 60, 60)" stroke-width="1px" opacity="0.25"></line><line x1="0" y1="89" x2="290" y2="89" fill="rgb(0, 0, 0)" stroke="rgb(60, 60, 60)" stroke-width="1px" opacity="0.25"></line><line x1="0" y1="74.16666666666666" x2="290" y2="74.16666666666666" fill="rgb(0, 0, 0)" stroke="rgb(60, 60, 60)" stroke-width="1px" opacity="0.25"></line><line x1="0" y1="59.33333333333334" x2="290" y2="59.33333333333334" fill="rgb(0, 0, 0)" stroke="rgb(60, 60, 60)" stroke-width="1px" opacity="0.25"></line><line x1="0" y1="44.5" x2="290" y2="44.5" fill="rgb(0, 0, 0)" stroke="rgb(60, 60, 60)" stroke-width="1px" opacity="0.25"></line><line x1="0" y1="29.66666666666666" x2="290" y2="29.66666666666666" fill="rgb(0, 0, 0)" stroke="rgb(60, 60, 60)" stroke-width="1px" opacity="0.25"></line><line x1="0" y1="14.83333333333334" x2="290" y2="14.83333333333334" fill="rgb(0, 0, 0)" stroke="rgb(60, 60, 60)" stroke-width="1px" opacity="0.25"></line><line x1="0" y1="0" x2="290" y2="0" fill="rgb(0, 0, 0)" stroke="rgb(60, 60, 60)" stroke-width="1px" opacity="0.25"></line></g></g></g><g><g><line x1="0" y1="163.16666666666666" x2="290" y2="163.16666666666666" fill="rgb(0, 0, 0)" stroke="rgb(153, 153, 153)" stroke-width="1.5px"></line></g></g><g><g><line x1="32.22222222222222" y1="0" x2="32.22222222222222" y2="178" fill="rgb(0, 0, 0)" stroke="rgb(153, 153, 153)" stroke-width="1.5px"></line></g></g><g><g><g><g><g><path stroke="rgb(238, 51, 119)" stroke-width="2px" d="M33.51111111111111,159.7118015607198L34.15555555555555,156.83335368242214L34.348888888888894,155.29799838952533L34.73555555555556,154.03717882420767L35.50888888888889,151.93808376327715L35.766666666666666,150.64252246100938L35.89555555555555,149.7184665570622L36.02444444444444,149.03555891539395L36.08888888888889,148.5647010368866L36.217777777777776,148.1085658761171L36.60444444444445,147.0991485161727L36.66888888888889,146.8206262186988L36.733333333333334,146.4318639498088L36.797777777777775,146.22726521196458L37.37777777777778,145.4502806690401L37.76444444444444,144.4292932041442L37.82888888888889,144.20824363446792L37.89333333333333,143.3539970336009L37.95777777777778,143.06456408512136L38.28,142.38352260036075L38.79555555555555,141.51710706157883L39.24666666666667,139.81664573881423L39.76222222222222,138.33375101880628L39.955555555555556,137.52032589343398L40.02,136.93485163952687L40.47111111111111,135.9489407668974L40.79333333333333,135.40221386640093L41.308888888888895,133.28681665862123L41.50222222222222,131.88648859362203L41.56666666666667,132.16714035027388L42.14666666666667,130.7404484085073L42.275555555555556,130.22965459289614L42.339999999999996,129.67483514363477L42.404444444444444,129.4664821271872L42.855555555555554,128.3228545854413L43.17777777777778,127.5070534134577L43.30666666666667,126.48276481959053L43.37111111111111,126.76449905078083L43.62888888888889,126.18739749902906L43.95111111111111,125.60026223198342L44.01555555555556,124.97473852629668L44.208888888888886,124.2370574450468L44.595555555555556,123.55088160527609L44.66,122.94662213652775L44.788888888888884,123.02082913299368L44.98222222222223,121.72295610076056L45.111111111111114,122.0258639133734L45.175555555555555,120.87122759669128L45.30444444444445,121.05003803255711L45.43333333333334,120.75430956842766L45.49777777777778,119.96695560220316L45.94888888888889,119.74903282288439L46.46444444444444,118.93861934910215L46.528888888888886,117.35240832308948L46.593333333333334,117.14815081772454L46.851111111111116,116.88367561904846L47.56,115.63954438234157L47.68888888888889,115.60546531986206L47.946666666666665,114.47216897333513L48.14,113.13881991711251L48.26888888888889,113.44391848000983L48.462222222222216,112.80985167154368L49.23555555555556,110.70407619212544L49.62222222222222,109.9039037287385L49.815555555555555,109.31541166806403L49.94444444444444,108.71457549154971L50.00888888888889,107.93000639041466L50.13777777777778,107.41777018413781L50.39555555555555,107.37229426994378L50.653333333333336,106.80189966931401L50.782222222222224,106.80604200139982L51.10444444444445,106.10837223341943L52.00666666666667,104.8029766444107L52.32888888888888,103.60873681611257L52.39333333333333,102.8577153295426L52.65111111111111,102.72028717799954L52.71555555555556,101.85727308500144L52.973333333333336,101.29180241762614L53.03777777777778,101.19159089817663L53.166666666666664,100.71714528542665L53.36,100.31836995586134L53.68222222222222,99.60390620836309L53.74666666666666,99.60822814491347L54.13333333333333,99.34391102093224L54.19777777777777,98.95910098337468L54.26222222222222,98.82459352869559L54.45555555555555,98.72110115515675L55.035555555555554,97.72463338728555L55.55111111111111,96.2047939138228L56.38888888888889,95.14413724908563L56.58222222222223,94.0498039236681L56.84,93.74421109343095L57.22666666666667,92.26753726106112L57.48444444444444,92.62782991514874L57.54888888888889,92.21709504500134L57.61333333333333,92.01115152232637L58.06444444444444,91.61956450755612L58.38666666666667,90.88299946792002L58.45111111111111,91.41453417752118L59.48222222222222,90.60759112933654L59.93333333333333,89.01469926810225L60.32,88.13334342190743L60.38444444444445,87.53549994025587L60.513333333333335,87.3501136513518L60.9,87.05528913423807L61.48,85.7365860410627L61.608888888888885,85.54342907665225L61.67333333333333,85.14757425502188L61.86666666666667,84.75470717376555L62.25333333333334,84.69781156580913L62.833333333333336,83.51746294809271L63.026666666666664,82.83969822207268L63.09111111111111,82.02734209104142L63.67111111111111,82.16726593907924L63.73555555555555,82.48234927696579L64.44444444444444,81.29399043914916L64.63777777777777,80.76431094547247L64.70222222222222,80.70401027970804L64.83111111111111,81.10105492940835L64.96000000000001,81.11121125802912L65.86222222222223,79.17388434300831L66.18444444444444,78.53011404074772L66.31333333333333,78.28522502655439L66.50666666666666,77.57606308530188L67.02222222222223,77.53932588996868L67.4088888888889,76.80993654007433L67.53777777777778,76.51080534890535L67.7311111111111,76.05135035394035L67.79555555555555,76.49922169705494L67.9888888888889,75.64063969194552L68.11777777777777,75.80316119426399L68.44,75.12752949807533L68.50444444444445,74.9901184477449L69.08444444444444,75.01014924126105L69.21333333333334,74.42667007040396L69.47111111111111,74.3633911407062L69.53555555555556,73.81339087553047L69.85777777777778,73.40110664193183L70.11555555555556,73.81227807575264L70.17999999999999,73.09987923261608L70.50222222222222,72.84056931676305L70.63111111111111,72.31643053390928L70.69555555555556,71.96340829110507L70.76,71.70722279719985L70.82444444444445,71.95430937651967L70.95333333333333,71.94497984376999L71.01777777777778,71.43202902267372L71.34,70.81694039722024L71.40444444444445,70.84530354423542L71.85555555555555,70.74677655393404L71.98444444444445,70.43302823237266L72.3711111111111,69.82094732680349L72.5,70.19474670139505L72.82222222222222,69.60496597190654L73.14444444444445,70.0570120658853L73.27333333333333,69.25646065790473L74.04666666666667,68.4924848712836L74.49777777777778,67.2670200460373L74.56222222222223,67.54325102159406L74.69111111111111,67.46489754478695L74.75555555555556,66.76354358888445L74.82000000000001,67.64351577671522L74.88444444444445,67.17532711427702L75.01333333333334,66.4930634192278L75.20666666666668,66.7310787893312L75.46444444444445,66.1206995910876L75.78666666666666,65.15965261718219L75.98,65.95223820678183L76.23777777777778,65.9890848294706L76.43111111111111,65.70247501423586L76.49555555555555,66.06249302919093L76.62444444444445,65.49506548731743L76.68888888888888,64.92885174579659L76.88222222222223,65.17655807972467L76.94666666666666,65.55679425655246L77.14,65.71475961254993L77.20444444444445,64.11293468450434L77.52666666666666,64.63240068438769L77.5911111111111,64.19828518717375L78.04222222222224,63.98819813270479L78.23555555555556,63.66925401240684L78.49333333333334,63.923645026389124L78.68666666666667,63.56636629267602L78.81555555555556,63.39515207016598L78.94444444444444,62.96078072570556L79.20222222222223,63.67664154836494L79.46000000000001,62.69346786008098L79.65333333333334,62.187317665137925L79.71777777777778,61.708968975737875L79.78222222222222,61.125859016364544L79.84666666666666,60.527076010858714L80.23333333333333,60.20074302644023L80.62,59.38300384947588L80.74888888888889,58.75015996675298L80.81333333333333,60.988081332076725L81.07111111111111,60.46396427785879L81.26444444444444,59.876244145732244L81.32888888888888,59.29295582873328L81.52222222222221,59.47529318413381L81.58666666666666,60.04463339612642L81.6511111111111,59.6918689671316L81.77999999999999,58.98404767009209L81.90888888888888,58.2315699325973L82.29555555555557,57.762756906661586L82.4888888888889,58.99829462139537L82.55333333333334,58.120450931774876L82.74666666666667,57.85817682003089L82.81111111111112,58.16181993432514L82.87555555555556,58.022935588826755L83.00444444444445,58.53890282804234L83.06888888888889,57.7296647620406L83.45555555555556,57.83994735565499L83.71333333333334,57.788251753257434L83.77777777777777,57.94276960358638L83.90666666666667,56.99952926046576L84.03555555555556,57.04895651704347L84.16444444444444,57.062177769777996L84.22888888888889,57.66846694324116L84.29333333333334,55.54326480294712L84.35777777777777,57.47625628642702L84.42222222222222,56.88792660696042L84.61555555555556,56.13097294156764L84.87333333333333,56.138669480361706L85.06666666666666,55.76424807749051L85.19555555555556,55.67310749615187L85.25999999999999,55.14379851471416L85.32444444444444,55.049905422287154L85.71111111111111,55.720863221650724L85.77555555555554,54.924986235529424L85.90444444444445,55.041558827488494L86.09777777777778,55.13698877390835L86.35555555555555,55.299851459249794L86.5488888888889,54.912912846833656L86.74222222222222,54.68320095255658L86.80666666666667,54.87656881475716L86.93555555555555,53.1564067336083L87.06444444444445,54.71402999507329L87.19333333333334,53.74700174880344L87.51555555555555,54.41460106559193L87.7088888888889,53.34125566870781L89.06222222222222,53.7823376329149L89.19111111111111,52.01211583333436L89.25555555555555,52.30685321338621L89.51333333333332,52.346389967238835L89.64222222222222,51.425313646087915L89.9,52.419571185899855L90.0288888888889,51.31605578619852L90.15777777777778,50.982695861872294L90.35111111111111,50.17935868353394L90.48,49.71521316142867L90.54444444444445,49.9480631731032L90.93111111111111,50.05940749752943L91.1888888888889,49.864612324065476L91.64,49.87983654722395L91.70444444444445,48.53960285464665L91.76888888888888,48.37149529894968L91.83333333333333,49.1579966772769L92.15555555555555,48.50576483174775L92.28444444444445,48.449446561673675L92.47777777777777,48.90305436546148L92.54222222222222,47.78167057213477L92.60666666666667,48.23153160353934L92.6711111111111,49.18654088356701L93.18666666666667,48.74188273490413L93.2511111111111,47.957781344691945L93.44444444444446,48.86638395361447L93.89555555555556,47.69266549307232L94.08888888888889,47.39156906190549L94.60444444444445,46.565963446591816L94.66888888888889,45.88410424420525L94.79777777777778,46.56135072177358L94.86222222222223,46.43493880073393L94.92666666666666,46.023162925087455L95.12,45.68899463562509L95.18444444444445,46.15426369336902L95.44222222222223,45.22473619803466L95.76444444444444,45.31175369841184L95.82888888888888,44.97557279896554L96.08666666666666,44.742467418963535L96.1511111111111,44.779884342156606L96.21555555555555,45.749259231499686L96.28,44.4152084481245L96.47333333333333,43.57784988805938L96.53777777777778,43.87222784279148L96.60222222222222,44.72877406123965L96.79555555555555,44.97845668082698L96.86,44.48443262652665L97.37555555555556,44.20156618610002L97.63333333333334,44.20251502197607L97.76222222222222,42.91081722690887L97.89111111111112,43.03890205481143L97.95555555555556,43.337860012076085L98.14888888888889,43.91858456097484L98.40666666666667,41.50628625217978L98.47111111111111,42.1929186925398L98.53555555555556,42.82041854377698L98.72888888888889,43.073111972479225L99.24444444444444,42.59521737107587L99.37333333333333,41.9842381472295L99.63111111111111,41.5801468093826L99.69555555555556,40.625210780360156L99.88888888888889,41.83294362089308L100.01777777777778,42.0154311289713L100.14666666666666,40.51596061271284L100.46888888888888,40.36168960204915L101.17777777777779,39.90347906591772L101.30666666666667,40.01483070478363L101.69333333333334,40.28183524418921L101.75777777777778,40.91431269523196L101.88666666666667,41.857220874726806L102.01555555555557,40.92183725535575L102.27333333333334,39.729094508020935L102.53111111111112,38.98909116353724L102.66,39.05355499417909L102.98222222222222,38.76803025285894L103.04666666666667,37.7177696431187L103.11111111111111,37.91167869614557L103.56222222222222,37.73610705915033L103.62666666666667,37.87384814839972L104.01333333333334,37.634389891762204L104.27111111111111,37.82512133100423L104.33555555555554,37.68613740663342L104.39999999999999,36.33848690720596L104.97999999999999,36.46313067838976L105.1088888888889,37.20313594521537L105.30222222222223,37.926727278594605L105.6888888888889,37.54859191213435L105.75333333333333,36.436130287644005L106.20444444444445,36.350363025853184L106.33333333333333,36.12771300039551L107.23555555555555,35.72347565163452L107.42888888888889,36.76328684109392L107.62222222222222,36.9715385183307L107.68666666666667,36.77260391425892L107.7511111111111,34.330762470523084L107.94444444444444,33.439124052442324L108.00888888888889,34.535958871750864L108.07333333333332,36.31422343427979L109.23333333333333,35.23004039567676L109.42666666666668,34.40799895220796L109.55555555555556,35.62799882652965L110.00666666666667,34.916434126325115L110.07111111111111,33.62238994651026L110.2,34.629699366988866L110.32888888888888,32.95764995266697L110.45777777777778,34.81432487091606L110.58666666666667,34.36654140146551L110.78,35.1006419199L110.90888888888888,35.18335699764432L111.03777777777778,34.73043267924419L111.16666666666667,33.9997368800635L111.42444444444445,33.88080664493302L112.06888888888888,33.239696547337545L112.32666666666665,33.56619616032242L112.58444444444446,35.21807464396069L112.64888888888888,33.939144324572425L112.71333333333334,34.23635972276354L112.84222222222223,35.62665293999234L113.03555555555556,37.28049479600647L113.22888888888889,35.98545114186276L113.35777777777778,36.685114700298826L113.55111111111111,36.64620846514178L113.93777777777778,37.37034779465248L114.06666666666666,35.83366876594776L114.19555555555556,35.69182211564069L114.26,34.65853296345818L114.45333333333333,34.0391348430253L114.51777777777778,36.04894013855978L114.58222222222223,36.71345013064633L114.77555555555556,36.208711206148486L115.2911111111111,36.95335330723021L115.61333333333333,37.138203002638626L115.74222222222222,36.412745329304535L116.12888888888888,37.592334262134344L116.38666666666666,37.38166024464593L116.45111111111112,38.63760475107029L116.51555555555557,36.1236275371846L116.58000000000001,36.459999612186095L116.96666666666667,36.64469146753201L117.16000000000001,36.69982008422208L117.61111111111111,36.32764925291868L117.74000000000001,37.2969830328709L117.93333333333334,38.13381133620657L117.99777777777778,37.68441393390359L118.19111111111111,38.105517241011185L118.57777777777778,38.76351206825868L118.70666666666666,38.93287804238105L118.89999999999999,38.71470186058751L119.09333333333333,41.19210743619215L119.15777777777778,40.34056223934194L119.22222222222221,38.15276833801513L119.28666666666666,37.84794972191663L119.35111111111111,38.925893341245825L119.73777777777778,40.54803387518191L120.51111111111112,40.89638906140576L120.89777777777778,42.05846150912353L121.22,42.41213836516778L121.47777777777777,42.09043927019132L121.92888888888889,42.31613228880329L122.05777777777777,42.47584179965361L122.38,43.79820858996008L122.44444444444444,43.32699980244743L122.63777777777777,45.946176538511125L122.70222222222222,45.178163897842765L122.83111111111111,46.53597769538397L122.89555555555555,45.17544637021559L123.08888888888889,45.326407680474674L124.18444444444445,47.0692065683477L124.2488888888889,48.590399422638065L124.31333333333333,48.281335768019645L124.63555555555556,47.72039819129444L124.8288888888889,49.70549099437098L125.08666666666667,51.19015933553376L125.15111111111112,50.43466238583009L125.21555555555555,51.721748182975084L125.47333333333333,50.25064384851446L125.53777777777778,51.7410210101152L125.60222222222222,53.366038277079745L125.73111111111112,52.60313058665935L125.9888888888889,53.072868948239254L126.11777777777777,53.854380076170415L126.95555555555555,54.26323244778475L127.02,53.7538520101741L127.6,54.30750605469919L127.66444444444444,55.530792249324996L128.37333333333333,52.987455856762395L128.88888888888889,54.8102378419969L128.95333333333332,56.00561177913808L129.14666666666668,55.761812884926826L129.27555555555554,56.668186530122696L129.34,56.40207437023592L129.85555555555555,55.91271422543523L129.92000000000002,55.39297760221184L129.98444444444445,56.26297148590315L130.24222222222224,57.380047817940124L130.3711111111111,56.77896942686146L130.5,57.910004093096326L131.01555555555555,59.149785840392525L131.33777777777777,58.944988650919846L131.40222222222224,60.62277881963347L131.59555555555556,59.56701255846056L132.04666666666665,60.34409075579942L132.17555555555555,59.47707450811796L132.82,60.55174872308517L133.14222222222222,63.00711222228015L133.20666666666665,63.54057931234767L133.33555555555554,62.82849050309564L133.4,61.66115321518653L133.78666666666666,61.40305803870602L134.23777777777778,64.88191969533962L134.3022222222222,65.57325277654051L134.88222222222223,67.25968511764307L135.14000000000001,67.5921242586329L135.26888888888888,66.06081477238534L135.52666666666667,67.7663070360407L136.10666666666665,68.52652129419641L136.23555555555555,68.9821477547364L136.42888888888888,70.74468333320414L136.55777777777777,72.03981319172667L136.6222222222222,69.83218422399703L136.94444444444443,69.83593650322919L137.45999999999998,69.83893442041716L137.5888888888889,69.23384379273651L138.04,69.6080622743749L138.10444444444445,72.24765147653787L138.36222222222221,72.18774218820533L138.68444444444444,71.57951396359522L138.87777777777777,71.30777132633385L139.00666666666666,72.4000665538897L139.2,72.08561360445901L139.39333333333335,72.03663568519367L139.6511111111111,74.32400470252837L140.10222222222222,71.40079624768634L140.16666666666666,72.23961026196662L140.6822222222222,73.71351055263523L140.8111111111111,74.54537797030001L140.94,73.14883742656004L141.13333333333335,73.08460523644405L141.19777777777776,72.81044379222686L141.58444444444444,73.64068398756626L141.6488888888889,74.4841498970387L142.16444444444446,74.71693963168535L142.35777777777778,74.09724731001826L142.42222222222222,73.04964615625221L142.48666666666668,73.18847530291004L142.5511111111111,72.65096347393724L142.68,73.14823853441858L142.87333333333333,74.06631522237213L143.32444444444445,73.65345987650905L143.38888888888889,73.84548485099114L143.7111111111111,73.81359520230761L143.84,75.33597404788526L143.90444444444444,76.47979198147664L143.9688888888889,76.48685849696423L144.54888888888888,74.79744963477205L144.80666666666667,75.74658321204222L144.93555555555554,75.47937558662991L145,76.42901556042862L145.1288888888889,75.26363998524289L145.45111111111112,74.09875951278377L145.51555555555555,74.7832866986425L145.64444444444445,75.39052132090875L145.7088888888889,76.54693728089616L145.77333333333334,75.4610888695529L145.96666666666667,76.79372426421871L146.09555555555556,77.72909540147833L146.22444444444446,76.93951638303542L146.80444444444444,75.2112664208518L146.9977777777778,75.73917490974296L147.57777777777775,77.05617903392906L147.96444444444444,76.29053451263962L148.0288888888889,75.46973034173058L148.41555555555556,75.22081553081975L148.48,76.42169027267454L148.54444444444445,75.66898698115632L149.06,77.85058451875302L149.44666666666666,76.17566611279965L149.51111111111112,77.50910898098577L150.02666666666667,76.87223369272355L150.0911111111111,76.29602178020514L150.28444444444446,76.48042356230546L150.73555555555555,77.1483864831277L150.86444444444444,76.902738640312L151.1222222222222,75.48985287270845L151.76666666666665,75.88226873158071L151.8311111111111,75.77035463735223L152.02444444444444,75.74463847011644L152.34666666666666,75.23700131013693L152.60444444444445,75.63595760349625L152.86222222222221,76.03191882015565L153.44222222222223,74.69142270785908L153.57111111111112,73.91671241060001L153.63555555555556,73.77217979171027L154.0222222222222,73.29836600584713L154.08666666666667,73.06431135576655L154.1511111111111,73.24999237676157L154.28,71.43670511292618L154.4088888888889,73.80859516130108L155.1822222222222,72.9009784660574L155.76222222222222,72.14303712406046L156.02,72.64974817418157L156.3422222222222,72.89941610522148L156.40666666666667,71.03811070822928L156.72888888888886,70.54996853608543L156.79333333333332,71.61076464669229L156.85777777777778,71.15873431444066L157.11555555555557,71.32192121127885L157.18,70.09092602033358L157.56666666666666,69.94531651898812L157.82444444444445,69.60438896486295L157.88888888888889,69.52988061199473L157.95333333333332,68.50758201905384L158.0822222222222,69.40317310927036L158.46888888888887,70.51722641612054L158.66222222222223,69.97141765211059L158.79111111111112,70.30977548372404L158.98444444444445,69.87811146118344L159.17777777777778,70.70013917836455L159.3711111111111,69.011541387135L159.5,68.47326188893712L159.95111111111112,68.55881412814136L160.08,68.72164405593244L160.85333333333332,67.67932186022861L160.9177777777778,67.6228102777923L160.98222222222222,68.24189381574061L161.88444444444443,68.73421984990183L162.14222222222222,68.34179840139927L162.4,66.58432200871528L162.46444444444444,68.2406685993446L162.65777777777777,67.15039763302744L162.72222222222223,67.83439058084626L162.91555555555556,67.09922775391203L163.04444444444442,67.3876858638157L163.17333333333332,69.42398696356634L163.49555555555557,67.69962351820924L163.68888888888887,67.17629872557515L163.81777777777776,66.62624701908072L164.01111111111112,67.9034424732767L164.20444444444442,66.9677386373667L164.39777777777778,67.37901872428355L164.52666666666667,67.2893535026589L164.72,66.86713602087399L164.91333333333333,68.43712309895176L164.9777777777778,67.29365131846181L165.17111111111112,67.08902384994596L165.36444444444444,65.80778423345339L165.94444444444443,66.10419857473921L166.07333333333332,66.96572779172556L166.39555555555557,67.51591511451605L166.71777777777777,67.24572117152009L166.78222222222223,67.9158545303997L166.84666666666666,67.820432389933L166.97555555555556,67.27356538533273L167.04,67.49728325554346L167.1688888888889,65.82134876858557L167.29777777777778,65.69801493294227L167.49111111111114,66.12100188723379L167.55555555555554,67.32081809474421L167.81333333333333,67.4087714868316L168.13555555555553,66.60783352213762L168.26444444444445,67.26231696693159L168.71555555555554,65.95889238710791L168.84444444444443,67.36386599502859L168.9088888888889,66.43016804683698L169.10222222222222,66.97898471669552L169.23111111111112,65.61006354645544L169.48888888888888,66.85177368120434L169.68222222222224,66.79061877180426L169.81111111111113,67.20661604353812L169.94,65.97371215360486L170.00444444444443,64.97578391317258L170.32666666666668,66.18043678365072L170.58444444444444,65.79207544353109L170.64888888888888,65.48841633330017L170.71333333333334,65.93457541511327L170.97111111111113,67.07678239003923L171.03555555555553,67.29876564385152L171.16444444444443,67.34169645493904L171.2288888888889,67.14614788997643L171.35777777777778,67.74551400360137L171.42222222222222,67.09439734876986L171.48666666666668,67.30318859732829L171.61555555555555,66.738882617925L171.67999999999998,68.19103796730332L171.8088888888889,67.91896804693995L172.1311111111111,69.64920587250919L172.19555555555556,67.09629816649559L172.58222222222224,68.25291321847783L172.64666666666668,68.10141890540861L172.7111111111111,68.52622058147514L172.9688888888889,68.69416515232294L173.0977777777778,68.86524972074082L173.2266666666667,67.74140345534683L173.48444444444445,67.26672019354172L174.1288888888889,67.57603689113044L174.2577777777778,68.44008661387771L174.38666666666668,68.4237652576791L174.4511111111111,68.6423183784778L174.70888888888888,68.17393279143128L174.83777777777777,69.9251276798629L174.90222222222224,68.92681721566588L174.96666666666667,68.81145368625452L175.16,67.39556886383053L175.4177777777778,68.36775421932211L175.67555555555555,68.01688577763495L175.8688888888889,67.02524428574694L176.51333333333335,69.41292194843751L176.57777777777778,70.61583783382277L176.83555555555554,69.62482810735189L176.96444444444444,69.22947124060909L177.1577777777778,69.19161958974729L177.28666666666666,70.63116632334494L177.3511111111111,70.52864971565793L177.48,68.71568138596744L177.54444444444445,69.152204198684L177.60888888888888,69.64610485931202L177.67333333333335,69.45542534087286L177.80222222222224,71.57089553465003L177.9311111111111,68.75879438400634L177.99555555555554,69.45494739928067L178.25333333333333,69.5962355946107L178.3177777777778,70.51676968630522L178.44666666666666,69.65567076597212L178.64,70.31066154483088L178.96222222222224,70.07019657451559L179.73555555555555,71.0720940034751L179.99333333333334,70.26407748349202L180.18666666666667,71.08475250311542L180.5088888888889,71.0043616089943L180.63777777777779,72.84189564428895L180.8311111111111,74.66334861955917L181.2177777777778,73.88933120014038L181.2822222222222,73.8163864442877L181.4111111111111,74.06647248728875L181.60444444444445,73.85077043860582L181.79777777777778,74.80307988721648L181.86222222222221,75.41096428392956L181.92666666666665,74.00386930682292L182.50666666666666,73.8559391183567L182.5711111111111,73.88541759950358L182.63555555555556,75.20313970829586L182.7,75.48067353959502L182.82888888888888,73.41554471828847L182.9577777777778,73.42862196930275L183.1511111111111,74.33593831923066L183.47333333333336,74.12006708143605L183.60222222222222,75.95573168139819L183.66666666666666,75.37403733250785L183.73111111111112,76.12649707019402L183.79555555555555,73.9309430673574L184.3111111111111,75.77354648804008L184.89111111111112,74.98289706778131L185.21333333333334,75.50423867623448L185.7288888888889,76.94962999804507L185.79333333333335,77.46457049393756L185.98666666666665,76.6614469415508L186.24444444444444,77.0884860127502L186.69555555555556,77.29183917419934L186.8888888888889,79.73203348243887L187.0822222222222,75.46201341410992L187.14666666666665,77.9929436361289L187.2111111111111,77.66082585915142L187.34,76.17874962170508L187.85555555555555,76.06088763718128L187.98444444444445,77.51050194562978L188.11333333333332,81.30502856154982L188.2422222222222,77.61984216904025L188.88666666666666,77.26831987169841L189.4022222222222,77.8639131651167L189.46666666666667,78.20723761951685L189.5311111111111,78.10022878087166L189.7888888888889,77.54100265178809L190.17555555555555,76.76274614565034L190.6911111111111,79.8893599849078L191.07777777777778,78.76601008890444L191.14222222222222,77.21699414462736L191.20666666666668,79.10164484419629L191.2711111111111,78.90171145481217L191.4,80.0445095056314L191.52888888888887,78.24877502965244L191.72222222222223,79.96822346614859L192.23777777777778,80.02064847950624L192.68888888888887,80.18837548060547L192.94666666666666,81.0940965234145L193.07555555555555,79.78920886535818L193.33333333333331,78.06836407250839L193.39777777777778,79.6354553190722L193.52666666666667,78.40252821837183L193.84888888888887,76.25929873889491L194.04222222222222,79.64868213573338L194.17111111111112,78.09808066723691L194.36444444444447,77.28478122643081L194.42888888888888,79.29293714601297L194.4933333333333,79.1652991293675L195.13777777777779,79.06602179351042L195.20222222222222,79.28319722433724L195.3311111111111,79.43758300702233L195.39555555555557,78.5520345370485L195.46,78.6732847849089L195.52444444444444,76.58891408740574L195.78222222222223,76.31667910825661L195.91111111111113,76.41449894880077L196.10444444444443,78.3338474750507L196.23333333333332,80.19203322941415L196.36222222222221,79.08960097579501L196.4911111111111,80.15169446868163L197.07111111111112,78.46986696990479L197.32888888888888,79.07880169875868L197.45777777777778,79.28709492662743L197.58666666666667,77.98010424780816L197.71555555555557,77.89966142401573L197.90888888888887,80.27824538681342L198.10222222222222,80.4961581303309L198.48888888888888,80.30708483577783L198.5533333333333,80.6082393926572L198.81111111111113,80.71717165197987L199.00444444444443,81.77718914417446L199.1977777777778,81.3221205175147L199.32666666666668,80.74741992870639L199.64888888888888,79.00594791521424L199.90666666666667,80.7542839100025L200.1,81.17830068233451L200.16444444444443,80.96460668400184L200.2288888888889,79.80383037935027L200.29333333333332,80.48582820383297L200.48666666666668,80.53187660643864L200.74444444444444,81.72651105127328L201.13111111111112,80.59473981537238L201.19555555555556,81.10848604720867L201.38888888888889,81.65908949705033L201.7111111111111,81.8587814191677L201.90444444444444,82.64759699448776L201.96888888888887,81.71349217279261L202.09777777777776,82.8285737224622L202.2266666666667,83.10572302096749L202.35555555555558,82.7229932416212L202.42,83.15291736310823L202.61333333333334,84.88122216780818L202.67777777777778,83.83038334564623L202.80666666666667,85.42724481432512L203,84.66581317051477L203.06444444444443,85.07712421284906L203.19333333333333,85.24216138508896L203.57999999999998,84.48567057048257L203.77333333333334,83.94710453089534L203.96666666666667,85.1109998784768L204.03111111111113,83.93345766599283L204.2888888888889,85.58789889381953L204.67555555555555,85.30628602460939L205.51333333333332,86.74723551334326L205.77111111111114,87.68117128985419L205.89999999999998,88.27447980884747L206.22222222222223,87.07124488225577L206.41555555555553,87.26276471891211L206.54444444444445,89.05767501856673L206.80222222222224,90.94614179376953L207.12444444444444,88.48446737861492L207.38222222222223,86.94786885008057L207.64,88.11766025106498L207.83333333333334,86.52157985803515L208.79999999999998,86.12169498582574L209.44444444444443,89.41913897705315L209.5088888888889,88.40490116048777L209.57333333333332,89.14515482503975L209.76666666666668,93.45251556327202L209.83111111111108,91.91527173641164L210.15333333333334,90.70397067620968L210.54,94.70646255149525L210.60444444444445,92.23808779502467L210.6688888888889,93.51954741258659L210.73333333333335,92.61409692263193L210.79777777777778,93.91226549063222L210.86222222222224,94.73560674920519L210.92666666666668,92.81998413604546L211.44222222222223,93.89409277844022L212.92444444444445,95.2674176574283L212.98888888888888,96.08340376322722L213.05333333333334,95.26325486817983L213.50444444444443,96.94569529821024L214.21333333333334,100.0004718604764L214.2777777777778,101.69195660650225L214.34222222222223,101.08891406343383L214.6,99.73061612407362L215.11555555555555,100.6165485009249L215.18,100.14692907420125L215.37333333333333,98.35758357965258L215.5022222222222,100.28191430360074L215.56666666666666,98.88403393609264L215.69555555555556,100.69949187075511L216.4688888888889,102.61835137683622L216.5977777777778,100.68657247410503L216.7911111111111,100.47064262630052L216.92,100.17919361107927L217.2422222222222,100.43328843640651L217.43555555555554,101.30269123645189L217.6288888888889,98.88309550901235L218.2088888888889,98.81391935042652L218.27333333333334,99.31544979034618L218.66,100.79472577269911L218.7888888888889,99.89300217659742L218.85333333333335,96.56380409173319L219.24,99.28905108537722L219.43333333333334,100.54825921280631L219.4977777777778,101.8385582058574L219.82,99.78364651448854L219.9488888888889,99.64703407088386L220.07777777777775,100.36681902401641L220.2711111111111,99.13449979199267L220.33555555555554,100.33329082031342L220.8511111111111,101.10222803526646L221.17333333333335,101.57224898251475L221.3022222222222,102.3683743873105L221.36666666666665,101.16462620045762L221.4311111111111,102.14262651820147L221.6888888888889,100.83894562018511L222.14000000000001,101.08703850242834L222.39777777777778,100.11520930064788L222.5911111111111,100.99423224825625L222.65555555555557,100.95946426913937L222.78444444444446,98.08430881574711L223.3,96.54635745674904L223.6222222222222,99.31797689036873L224.39555555555555,100.99757538326611L224.71777777777777,100.42479544089217L224.84666666666666,99.82592794338771L224.9111111111111,98.49168554388487L225.10444444444445,99.39150333114664L225.7488888888889,99.93538452074692L226.13555555555556,97.65225247395341L226.39333333333332,95.14123580168675L226.71555555555557,96.41093289215209L226.84444444444446,96.83383954992803L226.97333333333333,96.46544426956507L227.10222222222222,97.3047401393532L227.23111111111112,96.40398663908249L227.42444444444445,95.75074160389087L227.4888888888889,95.72870574775443L227.5533333333333,95.04680430461444L227.74666666666667,97.06548568485795L227.8111111111111,98.10026266608185L227.87555555555556,97.38221996274142L228.13333333333333,96.4231547923522L228.26222222222222,96.25925256931106L228.45555555555555,95.79280432205601L228.52,96.29072307891948L228.64888888888888,94.39128742409606L228.7133333333333,95.25159949808959L228.97111111111113,95.4682915365116L229.10000000000002,93.93658708516665L229.16444444444446,94.60707910710761L229.22888888888886,94.70787790391957L229.48666666666668,92.35515169041165L229.61555555555557,92.83498534192252L229.74444444444447,93.64264613758553L229.93777777777777,95.01653118653313L230.51777777777778,94.6468753218051L230.7111111111111,92.60056755954493L230.84,93.38904947883273L230.96888888888887,92.90373352859324L231.09777777777776,92.26417637636112L231.22666666666666,91.98321749270322L231.80666666666667,93.24471824684083L232.06444444444443,92.06169397770641L232.19333333333333,92.0643246324595L232.38666666666666,91.19407965374094L232.90222222222224,90.69599870655927L233.16000000000003,89.99121085580387L233.4177777777778,90.76285957043979L233.80444444444444,89.05281776223785L233.99777777777777,89.85446959286934L234.25555555555556,90.21048017910223L234.38444444444443,90.44858892798072L234.64222222222222,90.03895255940064L234.70666666666668,87.47160104704425L235.15777777777777,87.50552160159663L235.35111111111112,85.76397575744134L235.41555555555556,86.02495664913201L235.73777777777778,86.62037640392457L235.8022222222222,87.19164517460023L235.86666666666667,86.5200348167536L235.99555555555557,84.65357202607413L236.18888888888887,85.69614699944215L236.51111111111112,85.5743439460083L236.70444444444442,83.28114842496849L236.76888888888888,82.73311399117014L236.89777777777778,84.64618304187687L237.28444444444443,85.00655099167871L237.92888888888888,82.03771527450857L238.38,81.38443157059001L238.57333333333332,79.45803406133523L238.63777777777779,79.93185987773722L239.08888888888887,81.57675560679667L239.15333333333334,79.56507199723642L239.21777777777777,77.4290723553457L239.28222222222223,79.02365105704735L239.60444444444443,79.83830873535794L239.79777777777778,78.68580286182517L240.5066666666667,75.85146900821066L241.28,72.92041870203035L241.34444444444443,73.11555542816238L241.4088888888889,73.06848559529816L241.5377777777778,72.44662590024447L241.66666666666669,72.521804267874L241.98888888888888,71.44222638532153L242.18222222222224,72.8340661488027L242.24666666666667,72.03566369511996L242.37555555555554,71.13267686556131L242.44,71.40009633628404L242.89111111111112,72.55803060519855L243.01999999999998,72.5595047035399L243.14888888888888,69.22076501027873L243.66444444444443,68.78379150500682L243.7288888888889,68.25273643729412L244.05111111111108,68.39575582610533L244.11555555555555,68.22238717154512L244.50222222222223,69.86781340599534L244.6311111111111,69.82595990453903L244.76,68.37487375343773L244.88888888888889,69.16233437035386L245.14666666666668,67.33794200618593L245.34,68.48168193170446L245.5977777777778,68.724664937435L245.98444444444445,70.08207286222543L246.17777777777778,68.43518948074555L246.24222222222224,70.04964316179475L246.30666666666667,67.64326125057525L246.69333333333333,68.63901709515838L247.14444444444445,66.19451070732286L247.20888888888888,65.99257597606456L247.46666666666667,64.7314705040782L247.59555555555553,65.47841435550028L247.66,65.83752005227659L247.72444444444443,66.69398758535291L247.98222222222225,69.067461508641L248.30444444444444,68.27295746869041L248.75555555555556,65.13246683778715L249.01333333333335,65.28844423933334L249.2711111111111,61.18215389390384L249.33555555555554,61.823852762248954L249.5288888888889,63.89057341480393L249.78666666666666,62.847887117584136L249.91555555555556,61.978645069629906L250.30222222222224,62.28771130214447L250.49555555555554,60.06377677976033L250.62444444444444,58.143217020896586L250.75333333333333,60.30226059646174L250.88222222222223,58.195032441817084L251.07555555555555,56.83029889929107L251.20444444444445,57.72128288809633L251.39777777777778,59.66342199132415L251.46222222222224,59.980905721313064L251.65555555555554,59.91279185436801L251.78444444444443,57.01092675490714L252.17111111111112,56.02266342645016L252.49333333333334,52.933332001626276L252.5577777777778,54.29869856458454L252.81555555555556,54.20185016617296L253.20222222222222,54.858263371448686L253.26666666666665,53.40471571448997L253.7822222222222,52.863401183660166" style="fill: none;" fill="none"></path></g></g></g></g><g opacity="0.2"><g><g><g><path stroke="rgb(238, 51, 119)" stroke-width="2px" d="M33.51111111111111,159.7118015607198L34.15555555555555,155.7222728013992L34.348888888888894,154.47658944924672L34.73555555555556,153.2901325702667L35.50888888888889,150.64775268236795L35.766666666666666,149.8350283940633L35.89555555555555,149.13946692148843L36.02444444444444,148.60678726832072L36.08888888888889,148.26883529027302L36.217777777777776,147.82186444600424L36.60444444444445,146.4646102587382L36.66888888888889,146.64553410212199L36.733333333333334,146.18746558825174L36.797777777777775,146.09864179293314L37.37777777777778,144.96181886990865L37.76444444444444,143.78743503888447L37.82888888888889,144.0692776521047L37.89333333333333,142.81696257591247L37.95777777777778,142.88260787328085L38.28,141.95537600517272L38.79555555555555,140.9724223772685L39.24666666666667,138.74762608210247L39.76222222222222,137.40150775909424L39.955555555555556,137.00895439783733L40.02,136.5667847633362L40.47111111111111,135.32913360595703L40.79333333333333,135.05850607554117L41.308888888888895,131.95694154103597L41.50222222222222,131.0061520576477L41.56666666666667,132.34357614517214L42.14666666666667,129.84353783925374L42.275555555555556,129.90853665669758L42.339999999999996,129.32603985468546L42.404444444444444,129.3354979832967L42.855555555555554,127.60389655431112L43.17777777777778,126.99418818155924L43.30666666666667,125.83883094787598L43.37111111111111,126.94161535898844L43.62888888888889,125.82459424336751L43.95111111111111,125.23115113576254L44.01555555555556,124.58149398167929L44.208888888888886,123.7733035405477L44.595555555555556,123.11950721740723L44.66,122.56674566268921L44.788888888888884,123.06748043696085L44.98222222222223,120.90702940622965L45.111111111111114,122.21629130045572L45.175555555555555,120.14534873962403L45.30444444444445,121.1624498049418L45.43333333333334,120.56839558283487L45.49777777777778,119.47197411855062L45.94888888888889,119.61203250885009L46.46444444444444,118.42914117177328L46.528888888888886,116.35521376927694L46.593333333333334,117.01974137624103L46.851111111111116,116.71740945180255L47.56,114.85740324656167L47.68888888888889,115.5840410232544L47.946666666666665,113.75970579783122L48.14,112.30059070587158L48.26888888888889,113.63572311401367L48.462222222222216,112.41123638153076L49.23555555555556,109.38024991353353L49.62222222222222,109.40086371103922L49.815555555555555,108.94544760386151L49.94444444444444,108.33685111999512L50.00888888888889,107.43677565256753L50.13777777777778,107.09574546813965L50.39555555555555,107.34370517730713L50.653333333333336,106.44331283569336L50.782222222222224,106.80864613850912L51.10444444444445,105.66977202097574L52.00666666666667,103.98232078552246L52.32888888888888,102.85796063741049L52.39333333333333,102.38557478586831L52.65111111111111,102.63389097849527L52.71555555555556,101.31472676595052L52.973333333333336,100.93631108601886L53.03777777777778,101.1285914738973L53.166666666666664,100.41887817382812L53.36,100.06767406463624L53.68222222222222,99.15474821726481L53.74666666666666,99.6109451929728L54.13333333333333,99.17774422963458L54.19777777777777,98.71718457539878L54.26222222222222,98.74003346761066L54.45555555555555,98.65603917439779L55.035555555555554,97.09818948109945L55.55111111111111,95.24932479858398L56.38888888888889,94.47734006245929L56.58222222222223,93.36183541615804L56.84,93.55209573109943L57.22666666666667,91.33920485178629L57.48444444444444,92.85433311462403L57.54888888888889,91.95888061523438L57.61333333333333,91.88168214162191L58.06444444444444,91.37338765462238L58.38666666666667,90.41994717915854L58.45111111111111,91.74869117736816L59.48222222222222,90.10029468536376L59.93333333333333,88.01330471038818L60.32,87.57926629384359L60.38444444444445,87.15965696970623L60.513333333333335,87.23356787363687L60.9,86.86994342803955L61.48,84.90756422678629L61.608888888888885,85.4219981511434L61.67333333333333,84.8987143834432L61.86666666666667,84.50772558848062L62.25333333333334,84.66204331715902L62.833333333333336,82.77541968027752L63.026666666666664,82.4136116027832L63.09111111111111,81.51664263407389L63.67111111111111,82.25523109436035L63.73555555555555,82.68043098449706L64.44444444444444,80.54691143035889L64.63777777777777,80.43132025400797L64.70222222222222,80.66610139211019L64.83111111111111,81.3506628036499L64.96000000000001,81.11759618123371L65.86222222222223,77.95595569610596L66.18444444444444,78.12539850870768L66.31333333333333,78.13127199808756L66.50666666666666,77.13023815155029L67.02222222222223,77.51623051961263L67.4088888888889,76.35139535268148L67.53777777777778,76.32275218963623L67.7311111111111,75.76250731150309L67.79555555555555,76.7807825088501L67.9888888888889,75.10087966918945L68.11777777777777,75.9053326924642L68.44,74.70278383890788L68.50444444444445,74.90373299916585L69.08444444444444,75.02274188995361L69.21333333333334,74.05985743204752L69.47111111111111,74.3236099243164L69.53555555555556,73.46762523651122L69.85777777777778,73.14191818237305L70.11555555555556,74.0707669576009L70.17999999999999,72.65201937357584L70.50222222222222,72.67755037943522L70.63111111111111,71.98692309061686L70.69555555555556,71.74147574106851L70.76,71.54616807301839L70.82444444444445,72.10964393615723L70.95333333333333,71.93911469777426L71.01777777777778,71.10955505371093L71.34,70.43025601704916L71.40444444444445,70.86313444773356L71.85555555555555,70.68483613332113L71.98444444444445,70.23578580220541L72.3711111111111,69.43615379333497L72.5,70.42974109649658L72.82222222222222,69.23419176737467L73.14444444444445,70.34119739532471L73.27333333333333,68.75318241119385L74.04666666666667,68.01220041910807L74.49777777777778,66.49661382039389L74.56222222222223,67.71690762837729L74.69111111111111,67.4156394958496L74.75555555555556,66.32262725830078L74.82000000000001,68.19672304789225L74.88444444444445,66.88099352518717L75.01333333333334,66.06414845784504L75.20666666666668,66.88071060180664L75.46444444444445,65.7369758605957L75.78666666666666,64.55547650655112L75.98,66.45050862630207L76.23777777777778,66.01224899291992L76.43111111111111,65.5222935994466L76.49555555555555,66.28882357279461L76.62444444444445,65.13834393819174L76.68888888888888,64.57289326985678L76.88222222222223,65.33228225708008L76.94666666666666,65.79583524068197L77.14,65.81406682332357L77.20444444444445,63.10592422485351L77.52666666666666,64.95897051493328L77.5911111111111,63.92537218729655L78.04222222222224,63.85612386067708L78.23555555555556,63.46874516805013L78.49333333333334,64.08357162475586L78.68666666666667,63.34175783793132L78.81555555555556,63.287515767415364L78.94444444444444,62.68770688374837L79.20222222222223,64.126677831014L79.46000000000001,62.075381469726565L79.65333333333334,61.86911900838217L79.71777777777778,61.40824813842774L79.78222222222222,60.75927848815918L79.84666666666666,60.15064239501953L80.23333333333333,59.995589065551755L80.62,58.86892026265462L80.74888888888889,58.352313486735035L80.81333333333333,62.39498303731282L81.07111111111111,60.13447049458821L81.26444444444444,59.506765365600586L81.32888888888888,58.92626317342123L81.52222222222221,59.5899222056071L81.58666666666666,60.402557373046875L81.6511111111111,59.4700984954834L81.77999999999999,58.539065551757815L81.90888888888888,57.75851389567058L82.29555555555557,57.468030802408855L82.4888888888889,59.775033315022796L82.55333333333334,57.56858177185059L82.74666666666667,57.69329439798991L82.81111111111112,58.35270957946777L82.87555555555556,57.93562393188476L83.00444444444445,58.863273111979176L83.06888888888889,57.22092552185059L83.45555555555556,57.909278106689456L83.71333333333334,57.75575256347656L83.77777777777777,58.039909489949544L83.90666666666667,56.40654754638672L84.03555555555556,57.08002967834473L84.16444444444444,57.07048950195312L84.22888888888889,58.04961942036946L84.29333333333334,54.20722567240397L84.35777777777777,58.69145940144856L84.42222222222222,56.51806462605794L84.61555555555556,55.65510304768881L84.87333333333333,56.14350802103679L85.06666666666666,55.52886263529459L85.19555555555556,55.61581064860027L85.25999999999999,54.81104075113932L85.32444444444444,54.990878168741865L85.71111111111111,56.1426705678304L85.77555555555554,54.424646631876634L85.90444444444445,55.11484387715657L86.09777777777778,55.19698219299316L86.35555555555555,55.402237447102856L86.5488888888889,54.66965827941894L86.74222222222222,54.538789240519215L86.80666666666667,54.998132324218744L86.93555555555555,52.075001907348636L87.06444444444445,55.69325243631999L87.19333333333334,53.13906542460123L87.51555555555555,54.834297053019206L87.7088888888889,52.6664815266927L89.06222222222222,54.05963020324707L89.19111111111111,50.89924023946126L89.25555555555555,52.49214413960774L89.51333333333332,52.37124532063802L89.64222222222222,50.846265665690105L89.9,53.044625600179046L90.0288888888889,50.62231483459473L90.15777777777778,50.77312431335449L90.35111111111111,49.67432912190756L90.48,49.42342135111492L90.54444444444445,50.09444770812988L90.93111111111111,50.12940572102864L91.1888888888889,49.742151514689134L91.64,49.8894074757894L91.70444444444445,47.697045516967776L91.76888888888888,48.26581204732259L91.83333333333333,49.652442169189456L92.15555555555555,48.09572982788086L92.28444444444445,48.41404126485188L92.47777777777777,49.188221486409496L92.54222222222222,47.07669639587402L92.60666666666667,48.51434326171875L92.6711111111111,49.7869213104248L93.18666666666667,48.46234194437662L93.2511111111111,47.464844640096025L93.44444444444446,49.437590154012035L93.89555555555556,46.9547903696696L94.08888888888889,47.202280426025396L94.60444444444445,46.04693450927735L94.66888888888889,45.45544357299805L94.79777777777778,46.98711153666179L94.86222222222223,46.35546811421713L94.92666666666666,45.76429405212403L95.12,45.478914896647126L95.18444444444445,46.44676183064778L95.44222222222223,44.64037526448568L95.76444444444444,45.36645851135253L95.82888888888888,44.764227803548174L96.08666666666666,44.5959223429362L96.1511111111111,44.803407033284515L96.21555555555555,46.35867080688476L96.28,43.5765380859375L96.47333333333333,43.05143229166666L96.53777777777778,44.05729281107585L96.60222222222222,45.267254257202154L96.79555555555555,45.13542327880859L96.86,44.173857243855785L97.37555555555556,44.023738098144534L97.63333333333334,44.203111521402995L97.76222222222222,42.09877268473306L97.89111111111112,43.11942443847656L97.95555555555556,43.52580426534016L98.14888888888889,44.28366546630859L98.40666666666667,39.98975995381672L98.47111111111111,42.624580128987624L98.53555555555556,43.21490542093912L98.72888888888889,43.231971359252924L99.24444444444444,42.29478200276694L99.37333333333333,41.600137201944996L99.63111111111111,41.32610893249512L99.69555555555556,40.02487640380859L99.88888888888889,42.59220237731934L100.01777777777778,42.130154546101885L100.14666666666666,39.5732967376709L100.46888888888888,40.264704895019534L101.17777777777779,39.615418370564775L101.30666666666667,40.084833526611334L101.69333333333334,40.44969151814778L101.75777777777778,41.311928812662764L101.88666666666667,42.44999376932779L102.01555555555557,40.3337947845459L102.27333333333334,38.9792594909668L102.53111111111112,38.52387733459473L102.66,39.09408111572266L102.98222222222222,38.58853098551433L103.04666666666667,37.0575080871582L103.11111111111111,38.03358243306477L103.56222222222222,37.62573140462239L103.62666666666667,37.960441080729176L104.01333333333334,37.48385098775227L104.27111111111111,37.945027414957686L104.33555555555554,37.5987631479899L104.39999999999999,35.49126688639322L104.97999999999999,36.54148979187012L105.1088888888889,37.66835098266601L105.30222222222223,38.38162345886231L105.6888888888889,37.31087163289387L105.75333333333333,35.73676516215007L106.20444444444445,36.29644419352214L106.33333333333333,35.987740834554046L107.23555555555555,35.46934598286946L107.42888888888889,37.4169792175293L107.62222222222222,37.10245895385742L107.68666666666667,36.64754079182942L107.7511111111111,32.79566345214843L107.94444444444444,32.87858263651529L108.00888888888889,35.22549997965495L108.07333333333332,37.43215522766113L109.23333333333333,34.548453013102204L109.42666666666668,33.89121068318685L109.55555555555556,36.394969431559254L110.00666666666667,34.46909866333007L110.07111111111111,32.80887031555176L110.2,35.26295903523762L110.32888888888888,31.90649185180663L110.45777777777778,35.98155047098796L110.58666666666667,34.08503583272297L110.78,35.562144851684565L110.90888888888888,35.23535703023274L111.03777777777778,34.44569524129233L111.16666666666667,33.54037437438964L111.42444444444445,33.80603942871093L112.06888888888888,32.83665339152017L112.32666666666665,33.77145487467448L112.58444444444446,36.25655199686687L112.64888888888888,33.13512624104818L112.71333333333334,34.42320849100749L112.84222222222223,36.500680923461914L113.03555555555556,38.32020645141601L113.22888888888889,35.17130317687989L113.35777777777778,37.12496833801269L113.55111111111111,36.621749496459955L113.93777777777778,37.82558848063152L114.06666666666666,34.86761322021485L114.19555555555556,35.6026481628418L114.26,34.0089407602946L114.45333333333333,33.64974123636882L114.51777777777778,37.31243336995443L114.58222222222223,37.13120396931967L114.77555555555556,35.891399765014654L115.2911111111111,37.421483357747405L115.61333333333333,37.25441144307454L115.74222222222222,35.95667584737143L116.12888888888888,38.33389994303386L116.38666666666666,37.24921696980794L116.45111111111112,39.42717247009277L116.51555555555557,34.54317932128906L116.58000000000001,36.67146479288737L116.96666666666667,36.76080067952475L117.16000000000001,36.73447748819988L117.61111111111111,36.093678665161136L117.74000000000001,37.90636876424153L117.93333333333334,38.65989557902017L117.99777777777778,37.40189374287923L118.19111111111111,38.37024993896485L118.57777777777778,39.177170054117845L118.70666666666666,39.03935241699219L118.89999999999999,38.577542241414385L119.09333333333333,42.74956436157227L119.15777777777778,39.80522600809732L119.22222222222221,36.77737998962402L119.28666666666666,37.65632108052571L119.35111111111111,39.60355822245279L119.73777777777778,41.567816034952806L120.51111111111112,41.11538759867349L120.89777777777778,42.78901519775391L121.22,42.63448244730632L121.47777777777777,41.88819847106933L121.92888888888889,42.45801747639974L122.05777777777777,42.57624549865723L122.38,44.62953364054362L122.44444444444444,43.03076756795247L122.63777777777777,47.592759958902995L122.70222222222222,44.695341618855785L122.83111111111111,47.38958702087402L122.89555555555555,44.3201286315918L123.08888888888889,45.42131169637045L124.18444444444445,48.16484235127766L124.2488888888889,49.54671936035156L124.31333333333333,48.087038421630865L124.63555555555556,47.36775665283203L124.8288888888889,50.95344835917155L125.08666666666667,52.12351760864257L125.15111111111112,49.95970827738444L125.21555555555555,52.530893325805664L125.47333333333333,49.32581278483074L125.53777777777778,52.677968215942386L125.60222222222222,54.387628936767584L125.73111111111112,52.12351760864257L125.9888888888889,53.36817677815756L126.11777777777777,54.34568837483723L126.95555555555555,54.52026341756184L127.02,53.43362261454265L127.6,54.655568695068354L127.66444444444444,56.29982884724936L128.37333333333333,51.38855056762695L128.88888888888889,55.95615615844727L128.95333333333332,56.757100931803386L129.14666666666668,55.60854517618815L129.27555555555554,57.23799146016439L129.34,56.234779103597L129.85555555555555,55.60507087707519L129.92000000000002,55.06623764038086L129.98444444444445,56.80990575154622L130.24222222222224,58.08231404622395L130.3711111111111,56.40109278361003L130.5,58.62104543050131L131.01555555555555,59.929192606608076L131.33777777777777,58.81623992919921L131.40222222222224,61.677545928955084L131.59555555555556,58.903289794921875L132.04666666666665,60.83261222839356L132.17555555555555,58.932012176513666L132.82,61.227358245849615L133.14222222222222,64.55071207682293L133.20666666666665,63.875951131184905L133.33555555555554,62.3808255513509L133.4,60.9272897084554L133.78666666666666,61.24080276489258L134.23777777777778,67.06895650227865L134.3022222222222,66.00786933898925L134.88222222222223,68.31988525390625L135.14000000000001,67.80111694335938L135.26888888888888,65.09813486735025L135.52666666666667,68.83848946889242L136.10666666666665,69.00444100697835L136.23555555555555,69.26858393351236L136.42888888888888,71.85272687276205L136.55777777777777,72.8540153503418L136.6222222222222,68.44432627360025L136.94444444444443,69.83829542795819L137.45999999999998,69.84081910451253L137.5888888888889,68.85344479878744L138.04,69.84332014719645L138.10444444444445,73.90706748962403L138.36222222222221,72.15007934570312L138.68444444444444,71.1971424738566L138.87777777777777,71.136936378479L139.00666666666666,73.08675378163656L139.2,71.88792819976807L139.39333333333335,72.00584500630697L139.6511111111111,75.76199239095052L140.10222222222222,69.56307888031006L140.16666666666666,72.76694285074869L140.6822222222222,74.6400993347168L140.8111111111111,75.06834348042807L140.94,72.27088197072348L141.13333333333335,73.0442247390747L141.19777777777776,72.63808822631836L141.58444444444444,74.16262652079264L141.6488888888889,75.01440696716308L142.16444444444446,74.86328627268473L142.35777777777778,73.70766874949139L142.42222222222222,72.39105650583905L142.48666666666668,73.27575225830078L142.5511111111111,72.31304887135822L142.68,73.46085770924887L142.87333333333333,74.64347743988037L143.32444444444445,73.39391237894694L143.38888888888889,73.96620413462323L143.7111111111111,73.79354731241861L143.84,76.29303957621256L143.90444444444444,77.1988697052002L143.9688888888889,76.49130096435547L144.54888888888888,73.73537826538086L144.80666666666667,76.34326979319256L144.93555555555554,75.31139163970947L145,77.02602049509686L145.1288888888889,74.53100973765055L145.45111111111112,73.3664405186971L145.51555555555555,75.21362463633218L145.64444444444445,75.7722681681315L145.7088888888889,77.27393493652343L145.77333333333334,74.77845452626546L145.96666666666667,77.63150482177734L146.09555555555556,78.31713002522787L146.22444444444446,76.44313608805338L146.80444444444444,74.12477703094483L146.9977777777778,76.07105223337808L147.57777777777775,77.88413276672364L147.96444444444444,75.8092009862264L148.0288888888889,74.95371990203857L148.41555555555556,75.06433162689208L148.48,77.17663758595785L148.54444444444445,75.19578914642334L149.06,79.22207743326823L149.44666666666666,75.12270437876383L149.51111111111112,78.34739716847739L150.02666666666667,76.47185281117756L150.0911111111111,75.93377780914307L150.28444444444446,76.59635041554769L150.73555555555555,77.56831105550131L150.86444444444444,76.74830856323243L151.1222222222222,74.6016217549642L151.76666666666665,76.12896664937338L151.8311111111111,75.69999821980795L152.02444444444444,75.72847162882486L152.34666666666666,74.91786785125733L152.60444444444445,75.88676726023355L152.86222222222221,76.28084557851156L153.44222222222223,73.84870039621988L153.57111111111112,73.42967955271402L153.63555555555556,73.68131726582845L154.0222222222222,73.0004961013794L154.08666666666667,72.91716950734457L154.1511111111111,73.36672344207764L154.28,70.29675579071045L154.4088888888889,75.29971822102866L155.1822222222222,72.33039207458496L155.76222222222222,71.66654631296795L156.02,72.96829942067463L156.3422222222222,73.05637346903482L156.40666666666667,69.86797409057617L156.72888888888886,70.24309088389079L156.79333333333332,72.27764949798583L156.85777777777778,70.87455889383953L157.11555555555557,71.42451101938883L157.18,69.31704305013021L157.56666666666666,69.85377699534098L157.82444444444445,69.3900599161784L157.88888888888889,69.48303985595703L157.95333333333332,67.86489919026691L158.0822222222222,69.9661994298299L158.46888888888887,71.2175921758016L158.66222222222223,69.6282870610555L158.79111111111112,70.5224890391032L158.98444444444445,69.60673961639404L159.17777777777778,71.21691881815592L159.3711111111111,67.94997990926107L159.5,68.13486467997232L159.95111111111112,68.61259778340658L160.08,68.82400945027668L160.85333333333332,67.02405090332032L160.9177777777778,67.5872834523519L160.98222222222222,68.63108965555828L161.88444444444443,69.04372774759928L162.14222222222222,68.0950969696045L162.4,65.47945899963379L162.46444444444444,69.2819548924764L162.65777777777777,66.4649829864502L162.72222222222223,68.26439266204834L162.91555555555556,66.63705698649088L163.04444444444442,67.56902923583985L163.17333333333332,70.70413716634116L163.49555555555557,66.61557744344076L163.68888888888887,66.8473030090332L163.81777777777776,66.2804490407308L164.01111111111112,68.7063699086507L164.20444444444442,66.37949485778809L164.39777777777778,67.63757591247558L164.52666666666667,67.23298416137695L164.72,66.60170288085938L164.91333333333333,69.42411823272705L164.9777777777778,66.574791208903L165.17111111111112,66.96038182576498L165.36444444444444,65.00231437683105L165.94444444444443,66.29054374694825L166.07333333333332,67.50734062194825L166.39555555555557,67.86179835001627L166.71777777777777,67.07585983276367L166.78222222222223,68.3371435801188L166.84666666666666,67.76044387817383L166.97555555555556,66.92976951599121L167.04,67.63792673746744L167.1688888888889,64.76774826049805L167.29777777777778,65.62047932942708L167.49111111111114,66.3869187672933L167.55555555555554,68.07509994506836L167.81333333333333,67.46406466166178L168.13555555555553,66.10431226094565L168.26444444444445,67.67376747131348L168.71555555555554,65.13947563171386L168.84444444444443,68.24712301890055L168.9088888888889,65.8431852976481L169.10222222222222,67.32400627136231L169.23111111111112,64.74947141011556L169.48888888888888,67.6323927561442L169.68222222222224,66.7521728515625L169.81111111111113,67.46813875834147L169.94,65.19862925211588L170.00444444444443,64.34842185974121L170.32666666666668,66.93775927225748L170.58444444444444,65.54792645772297L170.64888888888888,65.29751663208008L170.71333333333334,66.2150597890218L170.97111111111113,67.79484736124674L171.03555555555553,67.43831863403321L171.16444444444443,67.36868553161621L171.2288888888889,67.02321345011393L171.35777777777778,68.12231419881185L171.42222222222222,66.68506342569987L171.48666666666668,67.4344482421875L171.61555555555555,66.38412348429361L171.67999999999998,69.10395647684733L171.8088888888889,67.747927347819L172.1311111111111,70.73694496154785L172.19555555555556,65.49137573242187L172.58222222222224,68.9800360361735L172.64666666666668,68.00617980957031L172.7111111111111,68.7932783126831L172.9688888888889,68.79974594116212L173.0977777777778,68.97280451456707L173.2266666666667,67.03488121032714L173.48444444444445,66.96830368041992L174.1288888888889,67.77049331665039L174.2577777777778,68.98328399658203L174.38666666666668,68.4135046005249L174.4511111111111,68.77971496582032L174.70888888888888,67.87947540283203L174.83777777777777,71.02604173024496L174.90222222222224,68.29921487172443L174.96666666666667,68.73892873128256L175.16,66.50545234680176L175.4177777777778,68.97893263498942L175.67555555555555,67.79630724589029L175.8688888888889,66.40183448791504L176.51333333333335,70.91397012074789L176.57777777777778,71.37206834157308L176.83555555555554,69.00181547800699L176.96444444444444,68.98092441558838L177.1577777777778,69.16782360076904L177.28666666666666,71.5361582438151L177.3511111111111,70.46420116424561L177.48,67.57593256632487L177.54444444444445,69.42663059234619L177.60888888888888,69.9566026687622L177.67333333333335,69.33555189768472L177.80222222222224,72.9008165359497L177.9311111111111,66.99092623392742L177.99555555555554,69.89259408315023L178.25333333333333,69.68505846659342L178.3177777777778,71.09547678629556L178.44666666666666,69.1143284479777L178.64,70.72243099212646L178.96222222222224,69.91902478535971L179.73555555555555,71.70195134480795L179.99333333333334,69.75610618591308L180.18666666666667,71.60068174997967L180.5088888888889,70.95382270812988L180.63777777777779,73.99708805084228L180.8311111111111,75.80843143463134L181.2177777777778,73.40273392995199L181.2822222222222,73.77052866617838L181.4111111111111,74.22369270324707L181.60444444444445,73.71516621907553L181.79777777777778,75.40176302591959L181.86222222222221,75.79311962127686L181.92666666666665,73.11927865346273L182.50666666666666,73.76294066111247L182.5711111111111,73.90394967397054L182.63555555555556,76.03154481252035L182.7,75.65514920552572L182.82888888888888,72.11727155049643L182.9577777777778,73.43684317270915L183.1511111111111,74.90633589426676L183.47333333333336,73.98435649871826L183.60222222222222,77.10974884033203L183.66666666666666,75.00834674835205L183.73111111111112,76.59954179128012L183.79555555555555,72.55067621866861L184.3111111111111,76.93192583719889L184.89111111111112,74.48584384918213L185.21333333333334,75.8319876352946L185.7288888888889,77.85829620361328L185.79333333333335,77.78829530080158L185.98666666666665,76.15655167897543L186.24444444444444,77.35695031483966L186.69555555555556,77.41968008677166L186.8888888888889,81.26609700520834L187.0822222222222,72.77760340372721L187.14666666666665,79.58404960632325L187.2111111111111,77.4520352045695L187.34,75.24702091217041L187.85555555555555,75.9867919921875L187.98444444444445,78.42182299296063L188.11333333333332,83.69051272074381L188.2422222222222,75.3030963261922L188.88666666666666,77.04733028411866L189.4022222222222,78.2383415222168L189.46666666666667,78.42307351430257L189.5311111111111,78.03295612335205L189.7888888888889,77.1894370396932L190.17555555555555,76.27348391215006L190.6911111111111,81.85495109558106L191.07777777777778,78.0597998936971L191.14222222222222,76.24318281809488L191.20666666666668,80.28645782470703L191.2711111111111,78.77602043151856L191.4,80.76294606526693L191.52888888888887,77.1198605219523L191.72222222222223,81.04917964935302L192.23777777777778,80.05360622406006L192.68888888888887,80.29381949106852L192.94666666666666,81.66349118550619L193.07555555555555,78.96887232462565L193.33333333333331,76.98653004964193L193.39777777777778,80.62062994639078L193.52666666666667,77.62743072509765L193.84888888888887,74.91192646026612L194.04222222222222,81.7794671376546L194.17111111111112,77.12327257792154L194.36444444444447,76.77348874409994L194.42888888888888,80.55539347330729L194.4933333333333,79.08505764007569L195.13777777777779,79.0036096572876L195.20222222222222,79.41972770690919L195.3311111111111,79.5346398671468L195.39555555555557,77.99532165527344L195.46,78.74951051076253L195.52444444444444,75.27854423522949L195.78222222222223,76.14553464253744L195.91111111111113,76.47599480946859L196.10444444444443,79.54047374725342L196.23333333333332,81.36020863850912L196.36222222222221,78.39654095967612L196.4911111111111,80.81939493815104L197.07111111111112,77.41256173451742L197.32888888888888,79.46161734263102L197.45777777777778,79.4180414835612L197.58666666666667,77.15844561258952L197.71555555555557,77.84908987681071L197.90888888888887,81.77357667287191L198.10222222222222,80.63315213521322L198.48888888888888,80.18822116851807L198.5533333333333,80.79756457010905L198.81111111111113,80.78565349578858L199.00444444444443,82.44358450571696L199.1977777777778,81.03603502909344L199.32666666666668,80.38612607320148L199.64888888888888,77.91114629109701L199.90666666666667,81.85340067545575L200.1,81.44486497243246L200.16444444444443,80.83026485443115L200.2288888888889,79.07409152984619L200.29333333333332,80.91457602183026L200.48666666666668,80.56082560221354L200.74444444444444,82.47753531138102L201.13111111111112,79.8832354227702L201.19555555555556,81.43146006266275L201.38888888888889,82.00523433685302L201.7111111111111,81.98432064056396L201.90444444444444,83.14349733988443L201.96888888888887,81.12625363667804L202.09777777777776,83.52958590189616L202.2266666666667,83.27995694478354L202.35555555555558,82.48238461812338L202.42,83.42319539388019L202.61333333333334,85.96774603525797L202.67777777777778,83.16975828806561L202.80666666666667,86.43113492329915L203,84.18712813059489L203.06444444444443,85.33570086161295L203.19333333333333,85.34591439565021L203.57999999999998,84.01009165445963L203.77333333333334,83.60852718353271L203.96666666666667,85.8426995595296L204.03111111111113,83.19317868550617L204.2888888888889,86.62798735300701L204.67555555555555,85.12924601236979L205.51333333333332,87.65310929616292L205.77111111111114,88.26830355326334L205.89999999999998,88.64747180938721L206.22222222222223,86.31481380462647L206.41555555555553,87.38316644032797L206.54444444444445,90.18607139587402L206.80222222222224,92.13335380554199L207.12444444444444,86.9369000752767L207.38222222222223,85.98186391194662L207.64,88.85306657155355L207.83333333333334,85.51818078358968L208.79999999999998,85.87030156453451L209.44444444444443,91.49212493896485L209.5088888888889,87.76728585561115L209.57333333333332,89.61052602132162L209.76666666666668,96.16040032704672L209.83111111111108,90.94886112213135L210.15333333333334,89.94246870676676L210.54,97.22268708546954L210.60444444444445,90.68630822499591L210.6688888888889,94.32515557607013L210.73333333333335,92.04487234751383L210.79777777777778,94.72837797800702L210.86222222222224,95.25321216583252L210.92666666666668,91.61570021311441L211.44222222222223,94.5693467458089L212.92444444444445,96.13077824910482L212.98888888888888,96.59638525644938L213.05333333333334,94.74765637715659L213.50444444444443,98.00338586171466L214.21333333333334,101.92090142567953L214.2777777777778,102.75533301035563L214.34222222222223,100.70980262756348L214.6,98.87670243581137L215.11555555555555,101.17350273132324L215.18,99.8516960144043L215.37333333333333,97.23268559773764L215.5022222222222,101.491672706604L215.56666666666666,98.00523618062338L215.69555555555556,101.84080581665039L216.4688888888889,103.82467021942139L216.5977777777778,99.47213166554769L216.7911111111111,100.33489519755045L216.92,99.99596996307373L217.2422222222222,100.59302883148193L217.43555555555554,101.84925390879313L217.6288888888889,97.3619815826416L218.2088888888889,98.77043075561524L218.27333333333334,99.63074417114258L218.66,101.7246940612793L218.7888888888889,99.32612056732178L218.85333333333335,94.47085545857747L219.24,101.00231711069745L219.43333333333334,101.33987865447997L219.4977777777778,102.64972337086994L219.82,98.49179649353027L219.9488888888889,99.56115067799887L220.07777777777775,100.81932226816815L220.2711111111111,98.35978444417316L220.33555555555554,101.08692817687988L220.8511111111111,101.5856315612793L221.17333333333335,101.86773446400962L221.3022222222222,102.86887016296387L221.36666666666665,100.40787245432536L221.4311111111111,102.75746059417725L221.6888888888889,100.01936772664389L222.14000000000001,101.24300568898519L222.39777777777778,99.50425478617349L222.5911111111111,101.54684276580811L222.65555555555557,100.93760687510172L222.78444444444446,96.27680066426596L223.3,95.5795020421346L223.6222222222222,101.06039562225342L224.39555555555555,102.0534793217977L224.71777777777777,100.06470902760822L224.84666666666666,99.44944121042887L224.9111111111111,97.65289471944173L225.10444444444445,99.95718682607016L225.7488888888889,100.27730331420898L226.13555555555556,96.21692841847738L226.39333333333332,93.56264877319336L226.71555555555557,97.2091463724772L226.84444444444446,97.09970595041911L226.97333333333333,96.2338472366333L227.10222222222222,97.8323756535848L227.23111111111112,95.83771489461263L227.42444444444445,95.3400696436564L227.4888888888889,95.714852587382L227.5533333333333,94.61811707814535L227.74666666666667,98.33455899556479L227.8111111111111,98.75079021453857L227.87555555555556,96.93081200917563L228.13333333333333,95.82022457122802L228.26222222222222,96.15621306101481L228.45555555555555,95.49956487019857L228.52,96.60374692281088L228.64888888888888,93.19717966715494L228.7133333333333,95.79244715372721L228.97111111111113,95.60451812744141L229.10000000000002,92.97365887959796L229.16444444444446,95.02859363555908L229.22888888888886,94.77124652862548L229.48666666666668,90.87607625325522L229.61555555555557,93.13663972218832L229.74444444444447,94.15039380391437L229.93777777777777,95.8802439371745L230.51777777777778,94.4144858042399L230.7111111111111,91.31412652333579L230.84,93.88474006652832L230.96888888888887,92.59863262176513L231.09777777777776,91.86210950215656L231.22666666666666,91.8065886179606L231.80666666666667,94.0377789815267L232.06444444444443,91.31796862284342L232.19333333333333,92.06597843170167L232.38666666666666,90.64698753356933L232.90222222222224,90.38287289937335L233.16000000000003,89.54813575744629L233.4177777777778,91.24796772003174L233.80444444444444,87.97777519226074L233.99777777777777,90.35843963623047L234.25555555555556,90.43429139455161L234.38444444444443,90.59827944437662L234.64222222222222,89.7814287185669L234.70666666666668,85.85759830474854L235.15777777777777,87.52684624989828L235.35111111111112,84.66912771860758L235.41555555555556,86.18902606964112L235.73777777777778,86.99469566345215L235.8022222222222,87.55078156789145L235.86666666666667,86.0978172302246L235.99555555555557,83.48019313812256L236.18888888888887,86.35157686869303L236.51111111111112,85.49777069091797L236.70444444444442,81.8394978205363L236.76888888888888,82.38858420054117L236.89777777777778,85.84886163075765L237.28444444444443,85.23310152689615L237.92888888888888,80.17131366729737L238.38,80.97373530069989L238.57333333333332,78.2469763437907L238.63777777777779,80.2297373453776L239.08888888888887,82.61084314982098L239.15333333333334,78.30039793650309L239.21777777777777,76.08624521891275L239.28222222222223,80.02610607147217L239.60444444444443,80.35045509338379L239.79777777777778,77.96126333872476L240.5066666666667,74.06962394714355L241.28,71.07777144114176L241.34444444444443,73.23823095957438L241.4088888888889,73.03889446258545L241.5377777777778,72.05568478902181L241.66666666666669,72.56906623840332L241.98888888888888,70.7635341008504L242.18222222222224,73.70906639099121L242.24666666666667,71.53373641967774L242.37555555555554,70.5650011062622L242.44,71.56821346282959L242.89111111111112,73.28598276774088L243.01999999999998,72.56043141682943L243.14888888888888,67.1218179066976L243.66444444444443,68.50908177693685L243.7288888888889,67.91888097127277L244.05111111111108,68.48566703796386L244.11555555555555,68.11339645385742L244.50222222222223,70.90223445892335L244.6311111111111,69.79964809417724L244.76,67.46262741088867L244.88888888888889,69.6573829015096L245.14666666666668,66.19101130167643L245.34,69.20071061452231L245.5977777777778,68.87741972605387L245.98444444444445,70.93542702992758L246.17777777777778,67.39985237121581L246.24222222222224,71.06459287007648L246.30666666666667,66.13045438130698L246.69333333333333,69.26501344045003L247.14444444444445,64.65773633321125L247.20888888888888,65.86562678019207L247.46666666666667,63.93865826924641L247.59555555555553,65.94799143473307L247.66,66.063277053833L247.72444444444443,67.23241831461588L247.98222222222225,70.5595802942912L248.30444444444444,67.77348098754882L248.75555555555556,63.15815188090007L249.01333333333335,65.38650169372559L249.2711111111111,58.600674947102874L249.33555555555554,62.22726605733235L249.5288888888889,65.18984731038412L249.78666666666666,62.192387262980134L249.91555555555556,61.4321834564209L250.30222222222224,62.482010269165045L250.49555555555554,58.665668106079096L250.62444444444444,56.93582928975423L250.75333333333333,61.65957463582357L250.88222222222223,56.870292917887376L251.07555555555555,55.972339375813796L251.20444444444445,58.28141288757324L251.39777777777778,60.88437589009604L251.46222222222224,60.18049647013347L251.65555555555554,59.869971084594724L251.78444444444443,55.18662719726562L252.17111111111112,55.40137736002603L252.49333333333334,50.991179021199535L252.5577777777778,55.15705604553223L252.81555555555556,54.140965016682934L253.20222222222222,55.27092704772949L253.26666666666665,52.49092191060384L253.7822222222222,52.52309595743815" style="fill: none;" fill="none"></path></g></g></g></g></g></g><g transform="translate(40, 178)" clip-path="url(#clip_1)"><clipPath id="clip_1"><rect width="290" height="22"></rect></clipPath><g><g><line x1="0" y1="0" x2="0" y2="5" style="visibility: inherit;" fill="rgb(0, 0, 0)" stroke="rgb(204, 204, 204)" stroke-width="1px"></line><line x1="32.22222222222222" y1="0" x2="32.22222222222222" y2="5" style="visibility: inherit;" fill="rgb(0, 0, 0)" stroke="rgb(204, 204, 204)" stroke-width="1px"></line><line x1="64.44444444444444" y1="0" x2="64.44444444444444" y2="5" style="visibility: inherit;" fill="rgb(0, 0, 0)" stroke="rgb(204, 204, 204)" stroke-width="1px"></line><line x1="96.66666666666666" y1="0" x2="96.66666666666666" y2="5" style="visibility: inherit;" fill="rgb(0, 0, 0)" stroke="rgb(204, 204, 204)" stroke-width="1px"></line><line x1="128.88888888888889" y1="0" x2="128.88888888888889" y2="5" style="visibility: inherit;" fill="rgb(0, 0, 0)" stroke="rgb(204, 204, 204)" stroke-width="1px"></line><line x1="161.11111111111111" y1="0" x2="161.11111111111111" y2="5" style="visibility: inherit;" fill="rgb(0, 0, 0)" stroke="rgb(204, 204, 204)" stroke-width="1px"></line><line x1="193.33333333333331" y1="0" x2="193.33333333333331" y2="5" style="visibility: inherit;" fill="rgb(0, 0, 0)" stroke="rgb(204, 204, 204)" stroke-width="1px"></line><line x1="225.55555555555557" y1="0" x2="225.55555555555557" y2="5" style="visibility: inherit;" fill="rgb(0, 0, 0)" stroke="rgb(204, 204, 204)" stroke-width="1px"></line><line x1="257.77777777777777" y1="0" x2="257.77777777777777" y2="5" style="visibility: inherit;" fill="rgb(0, 0, 0)" stroke="rgb(204, 204, 204)" stroke-width="1px"></line><line x1="290" y1="0" x2="290" y2="5" style="visibility: inherit;" fill="rgb(0, 0, 0)" stroke="rgb(204, 204, 204)" stroke-width="1px"></line></g><g transform="translate(0, 8)"><text x="0" y="0" dx="0em" dy="0.95em" style="text-anchor: middle; visibility: hidden; font-family: Roboto, sans-serif; font-size: 12px; font-weight: 200;" fill="rgb(50, 49, 63)" stroke="none" stroke-width="1px">-500</text><text x="32.22222222222222" y="0" dx="0em" dy="0.95em" style="text-anchor: middle; visibility: inherit; font-family: Roboto, sans-serif; font-size: 12px; font-weight: 200;" fill="rgb(50, 49, 63)" stroke="none" stroke-width="1px">0</text><text x="64.44444444444444" y="0" dx="0em" dy="0.95em" style="text-anchor: middle; visibility: inherit; font-family: Roboto, sans-serif; font-size: 12px; font-weight: 200;" fill="rgb(50, 49, 63)" stroke="none" stroke-width="1px">500</text><text x="96.66666666666666" y="0" dx="0em" dy="0.95em" style="text-anchor: middle; visibility: inherit; font-family: Roboto, sans-serif; font-size: 12px; font-weight: 200;" fill="rgb(50, 49, 63)" stroke="none" stroke-width="1px">1k</text><text x="128.88888888888889" y="0" dx="0em" dy="0.95em" style="text-anchor: middle; visibility: inherit; font-family: Roboto, sans-serif; font-size: 12px; font-weight: 200;" fill="rgb(50, 49, 63)" stroke="none" stroke-width="1px">1.5k</text><text x="161.11111111111111" y="0" dx="0em" dy="0.95em" style="text-anchor: middle; visibility: inherit; font-family: Roboto, sans-serif; font-size: 12px; font-weight: 200;" fill="rgb(50, 49, 63)" stroke="none" stroke-width="1px">2k</text><text x="193.33333333333331" y="0" dx="0em" dy="0.95em" style="text-anchor: middle; visibility: inherit; font-family: Roboto, sans-serif; font-size: 12px; font-weight: 200;" fill="rgb(50, 49, 63)" stroke="none" stroke-width="1px">2.5k</text><text x="225.55555555555557" y="0" dx="0em" dy="0.95em" style="text-anchor: middle; visibility: inherit; font-family: Roboto, sans-serif; font-size: 12px; font-weight: 200;" fill="rgb(50, 49, 63)" stroke="none" stroke-width="1px">3k</text><text x="257.77777777777777" y="0" dx="0em" dy="0.95em" style="text-anchor: middle; visibility: inherit; font-family: Roboto, sans-serif; font-size: 12px; font-weight: 200;" fill="rgb(50, 49, 63)" stroke="none" stroke-width="1px">3.5k</text><text x="290" y="0" dx="0em" dy="0.95em" style="text-anchor: middle; visibility: hidden; font-family: Roboto, sans-serif; font-size: 12px; font-weight: 200;" fill="rgb(50, 49, 63)" stroke="none" stroke-width="1px">4k</text></g><line x1="0" y1="0" x2="290" y2="0" fill="rgb(0, 0, 0)" stroke="rgb(204, 204, 204)" stroke-width="1px"></line></g></g></g></g></svg>