<svg viewBox="0 0 330 200" xmlns="http://www.w3.org/2000/svg"><g><g><g><g><g><line x1="50" y1="178" x2="45" y2="178" style="visibility: inherit;" fill="rgb(0, 0, 0)" stroke="rgb(204, 204, 204)" stroke-width="1px"></line><line x1="50" y1="160.2" x2="45" y2="160.2" style="visibility: inherit;" fill="rgb(0, 0, 0)" stroke="rgb(204, 204, 204)" stroke-width="1px"></line><line x1="50" y1="142.39999999999998" x2="45" y2="142.39999999999998" style="visibility: inherit;" fill="rgb(0, 0, 0)" stroke="rgb(204, 204, 204)" stroke-width="1px"></line><line x1="50" y1="124.6" x2="45" y2="124.6" style="visibility: inherit;" fill="rgb(0, 0, 0)" stroke="rgb(204, 204, 204)" stroke-width="1px"></line><line x1="50" y1="106.8" x2="45" y2="106.8" style="visibility: inherit;" fill="rgb(0, 0, 0)" stroke="rgb(204, 204, 204)" stroke-width="1px"></line><line x1="50" y1="89" x2="45" y2="89" style="visibility: inherit;" fill="rgb(0, 0, 0)" stroke="rgb(204, 204, 204)" stroke-width="1px"></line><line x1="50" y1="71.19999999999999" x2="45" y2="71.19999999999999" style="visibility: inherit;" fill="rgb(0, 0, 0)" stroke="rgb(204, 204, 204)" stroke-width="1px"></line><line x1="50" y1="53.39999999999999" x2="45" y2="53.39999999999999" style="visibility: inherit;" fill="rgb(0, 0, 0)" stroke="rgb(204, 204, 204)" stroke-width="1px"></line><line x1="50" y1="35.599999999999994" x2="45" y2="35.599999999999994" style="visibility: inherit;" fill="rgb(0, 0, 0)" stroke="rgb(204, 204, 204)" stroke-width="1px"></line><line x1="50" y1="17.799999999999997" x2="45" y2="17.799999999999997" style="visibility: inherit;" fill="rgb(0, 0, 0)" stroke="rgb(204, 204, 204)" stroke-width="1px"></line><line x1="50" y1="0" x2="45" y2="0" style="visibility: inherit;" fill="rgb(0, 0, 0)" stroke="rgb(204, 204, 204)" stroke-width="1px"></line></g><g transform="translate(40, 0)"><text x="0" y="178" dx="0em" dy="0.3em" style="text-anchor: end; visibility: hidden; font-family: Roboto, sans-serif; font-size: 12px; font-weight: 200;" fill="rgb(50, 49, 63)" stroke="none" stroke-width="1px">-0.8</text><text x="0" y="160.2" dx="0em" dy="0.3em" style="text-anchor: end; visibility: inherit; font-family: Roboto, sans-serif; font-size: 12px; font-weight: 200;" fill="rgb(50, 49, 63)" stroke="none" stroke-width="1px">-0.7</text><text x="0" y="142.39999999999998" dx="0em" dy="0.3em" style="text-anchor: end; visibility: hidden; font-family: Roboto, sans-serif; font-size: 12px; font-weight: 200;" fill="rgb(50, 49, 63)" stroke="none" stroke-width="1px">-0.6</text><text x="0" y="124.6" dx="0em" dy="0.3em" style="text-anchor: end; visibility: inherit; font-family: Roboto, sans-serif; font-size: 12px; font-weight: 200;" fill="rgb(50, 49, 63)" stroke="none" stroke-width="1px">-0.5</text><text x="0" y="106.8" dx="0em" dy="0.3em" style="text-anchor: end; visibility: hidden; font-family: Roboto, sans-serif; font-size: 12px; font-weight: 200;" fill="rgb(50, 49, 63)" stroke="none" stroke-width="1px">-0.4</text><text x="0" y="89" dx="0em" dy="0.3em" style="text-anchor: end; visibility: inherit; font-family: Roboto, sans-serif; font-size: 12px; font-weight: 200;" fill="rgb(50, 49, 63)" stroke="none" stroke-width="1px">-0.3</text><text x="0" y="71.19999999999999" dx="0em" dy="0.3em" style="text-anchor: end; visibility: hidden; font-family: Roboto, sans-serif; font-size: 12px; font-weight: 200;" fill="rgb(50, 49, 63)" stroke="none" stroke-width="1px">-0.2</text><text x="0" y="53.39999999999999" dx="0em" dy="0.3em" style="text-anchor: end; visibility: inherit; font-family: Roboto, sans-serif; font-size: 12px; font-weight: 200;" fill="rgb(50, 49, 63)" stroke="none" stroke-width="1px">-0.1</text><text x="0" y="35.599999999999994" dx="0em" dy="0.3em" style="text-anchor: end; visibility: hidden; font-family: Roboto, sans-serif; font-size: 12px; font-weight: 200;" fill="rgb(50, 49, 63)" stroke="none" stroke-width="1px">0</text><text x="0" y="17.799999999999997" dx="0em" dy="0.3em" style="text-anchor: end; visibility: inherit; font-family: Roboto, sans-serif; font-size: 12px; font-weight: 200;" fill="rgb(50, 49, 63)" stroke="none" stroke-width="1px">0.1</text><text x="0" y="0" dx="0em" dy="0.3em" style="text-anchor: end; visibility: hidden; font-family: Roboto, sans-serif; font-size: 12px; font-weight: 200;" fill="rgb(50, 49, 63)" stroke="none" stroke-width="1px">0.2</text></g><line x1="50" y1="0" x2="50" y2="178" fill="rgb(0, 0, 0)" stroke="rgb(204, 204, 204)" stroke-width="1px"></line></g></g><g transform="translate(50, 0)" clip-path="url(#clip_0)"><clipPath id="clip_0"><rect width="280" height="178"></rect></clipPath><g><g><g><line x1="0" y1="0" x2="0" y2="178" fill="rgb(0, 0, 0)" stroke="rgb(60, 60, 60)" stroke-width="1px" opacity="0.25"></line><line x1="35" y1="0" x2="35" y2="178" fill="rgb(0, 0, 0)" stroke="rgb(60, 60, 60)" stroke-width="1px" opacity="0.25"></line><line x1="70" y1="0" x2="70" y2="178" fill="rgb(0, 0, 0)" stroke="rgb(60, 60, 60)" stroke-width="1px" opacity="0.25"></line><line x1="105" y1="0" x2="105" y2="178" fill="rgb(0, 0, 0)" stroke="rgb(60, 60, 60)" stroke-width="1px" opacity="0.25"></line><line x1="140" y1="0" x2="140" y2="178" fill="rgb(0, 0, 0)" stroke="rgb(60, 60, 60)" stroke-width="1px" opacity="0.25"></line><line x1="175" y1="0" x2="175" y2="178" fill="rgb(0, 0, 0)" stroke="rgb(60, 60, 60)" stroke-width="1px" opacity="0.25"></line><line x1="210" y1="0" x2="210" y2="178" fill="rgb(0, 0, 0)" stroke="rgb(60, 60, 60)" stroke-width="1px" opacity="0.25"></line><line x1="245" y1="0" x2="245" y2="178" fill="rgb(0, 0, 0)" stroke="rgb(60, 60, 60)" stroke-width="1px" opacity="0.25"></line><line x1="280" y1="0" x2="280" y2="178" fill="rgb(0, 0, 0)" stroke="rgb(60, 60, 60)" stroke-width="1px" opacity="0.25"></line></g><g><line x1="0" y1="178" x2="280" y2="178" fill="rgb(0, 0, 0)" stroke="rgb(60, 60, 60)" stroke-width="1px" opacity="0.25"></line><line x1="0" y1="160.2" x2="280" y2="160.2" fill="rgb(0, 0, 0)" stroke="rgb(60, 60, 60)" stroke-width="1px" opacity="0.25"></line><line x1="0" y1="142.39999999999998" x2="280" y2="142.39999999999998" fill="rgb(0, 0, 0)" stroke="rgb(60, 60, 60)" stroke-width="1px" opacity="0.25"></line><line x1="0" y1="124.6" x2="280" y2="124.6" fill="rgb(0, 0, 0)" stroke="rgb(60, 60, 60)" stroke-width="1px" opacity="0.25"></line><line x1="0" y1="106.8" x2="280" y2="106.8" fill="rgb(0, 0, 0)" stroke="rgb(60, 60, 60)" stroke-width="1px" opacity="0.25"></line><line x1="0" y1="89" x2="280" y2="89" fill="rgb(0, 0, 0)" stroke="rgb(60, 60, 60)" stroke-width="1px" opacity="0.25"></line><line x1="0" y1="71.19999999999999" x2="280" y2="71.19999999999999" fill="rgb(0, 0, 0)" stroke="rgb(60, 60, 60)" stroke-width="1px" opacity="0.25"></line><line x1="0" y1="53.39999999999999" x2="280" y2="53.39999999999999" fill="rgb(0, 0, 0)" stroke="rgb(60, 60, 60)" stroke-width="1px" opacity="0.25"></line><line x1="0" y1="35.599999999999994" x2="280" y2="35.599999999999994" fill="rgb(0, 0, 0)" stroke="rgb(60, 60, 60)" stroke-width="1px" opacity="0.25"></line><line x1="0" y1="17.799999999999997" x2="280" y2="17.799999999999997" fill="rgb(0, 0, 0)" stroke="rgb(60, 60, 60)" stroke-width="1px" opacity="0.25"></line><line x1="0" y1="0" x2="280" y2="0" fill="rgb(0, 0, 0)" stroke="rgb(60, 60, 60)" stroke-width="1px" opacity="0.25"></line></g></g></g><g><g><line x1="0" y1="35.599999999999994" x2="280" y2="35.599999999999994" fill="rgb(0, 0, 0)" stroke="rgb(153, 153, 153)" stroke-width="1.5px"></line></g></g><g><g><line x1="35" y1="0" x2="35" y2="178" fill="rgb(0, 0, 0)" stroke="rgb(153, 153, 153)" stroke-width="1.5px"></line></g></g><g><g><g><g><g><path stroke="rgb(204, 51, 17)" stroke-width="2px" d="M35.7,97.76076880693435L36.050000000000004,126.08136475153299L36.4,125.82678428579291L36.574999999999996,111.5526425496262L36.925,63.809563715373656L37.275,52.062594751377894L37.45,45.991138202022675L37.625,43.65153235145689L37.800000000000004,47.02680284052826L37.975,45.83632034613574L38.150000000000006,46.80017990020647L38.324999999999996,48.70284113076081L38.5,49.813938194193064L38.675,51.313555513669684L38.85,49.06200427934993L39.025,48.049784007555864L39.2,46.54872357000031L39.375,46.65225111933148L39.725,46.15160881493171L39.9,45.178590144272185L40.25,45.5729911914962L40.775,45.526504021334844L40.949999999999996,46.07927996770597L41.125,47.068446867672165L41.3,46.968546661754715L41.475,48.218038692546145L41.825,46.848068765944035L42.35,46.01000242448354L42.525000000000006,44.32752952576276L42.875,44.41491077125305L43.05,46.34621796432732L43.225,48.39328138897738L43.4,46.74961258478149L43.575,44.619730823523504L43.75,45.7541827521301L44.1,45.76671054184025L44.275,45.19793066365678L44.800000000000004,43.9163808136324L44.974999999999994,44.467755948495665L45.15,46.761251524657844L45.324999999999996,44.6587672161056L45.5,40.74076225010647L46.025,43.216365941386066L46.2,44.74025174359974L46.375,45.31626303045721L46.550000000000004,44.15633462073629L46.725,43.97217615677375L46.900000000000006,45.00428220129524L47.074999999999996,42.857074224487484L47.25,43.947766512352935L47.425,44.388811348458546L47.6,41.35348443573817L47.95,36.2508310392058L48.125,36.61733534012634L48.3,34.67453010957185L48.475,35.47962766654762L48.825,33.82122081645224L49,33.89269949527101L49.175000000000004,34.03846943176851L49.349999999999994,34.499750365981875L49.699999999999996,36.11279063348287L49.875,37.32786736150146L50.225,35.30187803863202L50.4,33.248706345340736L50.575,32.85806130729596L50.75,33.11132041654058L50.925000000000004,32.079347104460005L51.1,34.54184084062371L51.449999999999996,34.327016728611454L51.625,33.432060430828024L51.8,31.071058151897734L51.975,32.85890181918656L52.325,32.721301038051145L52.5,34.76501946316673L52.85,35.667398575043485L53.025,38.31202662288047L53.2,37.92524300302589L53.375,42.23060025875879L53.550000000000004,39.67013473671398L53.724999999999994,40.19039421313281L53.9,41.376752446768116L54.074999999999996,42.48049066550084L54.6,44.69707623032041L54.775,46.83184502717476L55.300000000000004,46.201409902208L55.650000000000006,46.65719325446358L55.824999999999996,47.62315274661047L56,47.93860493204109L56.175,48.72058999319303L56.35,49.19096389101207L56.525,49.52641170902346L56.7,50.056966842086624L57.05,50.34076749956648L57.225,50.00614278325786L57.4,54.29661590142856L57.575,56.4174474743401L57.75,55.742300800676595L58.099999999999994,55.88145056916419L58.275,56.09314663192543L58.8,56.862630850255805L58.975,57.25380635021091L59.325,60.41068795685938L59.5,58.963905835263716L59.85,58.03688695782576L60.199999999999996,62.60043955049418L60.375,63.264825734398556L60.55,61.245777911607505L60.725,64.51455989225342L60.9,64.29935424088876L61.075,68.5650156589582L61.425,68.51048386325462L61.6,66.82852798480977L61.775,67.33078865648474L61.95,65.10363719619005L62.300000000000004,63.81096189123871L62.474999999999994,62.345426724540765L62.65,62.30536337730526L63,61.78497306373492L63.175,63.61005144436135L63.35,64.34431024269585L63.7,64.00439602065741L63.875,61.8378920532352L64.225,59.99164602682941L64.4,61.9238362033508L64.75,62.706102666309064L64.925,62.384206400837016L65.10000000000001,58.740953042728556L65.45,58.298403934626194L65.625,61.358831240252194L65.8,60.88609611560999L66.14999999999999,60.09747513417857L66.325,60.59964171733658L66.5,61.1235044054714L66.675,60.462461731087714L67.025,59.14420118749847L67.2,60.55780228876266L67.375,60.49689343179297L67.55,59.45494339966717L67.72500000000001,61.9493976296437L67.89999999999999,62.67651056754197L68.075,62.95652310190931L68.25,61.538759284295615L68.425,61.894200274817244L68.775,61.103280574997484L68.95,59.69023189880372L69.47500000000001,59.010409762963015L70.175,59.14593812461564L70.35,57.69116788869942L70.7,60.57028687514876L70.875,59.12523045943532L71.05,60.48226335322511L71.4,61.0522954570373L71.575,61.738467503924014L71.75,62.37672695403177L71.92500000000001,61.34568760400974L72.10000000000001,60.97676675554416L72.625,62.63304595896017L72.8,63.10113618540055L72.975,65.1117231269933L73.14999999999999,65.2050073103566L73.675,63.918044788800984L73.85,62.15163970196747L74.025,58.985405528757354L74.2,61.40154525477724L74.375,62.85782806563643L74.55,65.68810434920461L74.9,64.58848142648327L75.075,66.5701674861897L75.25,68.79652205551773L75.60000000000001,68.85140033102245L75.775,71.33482998390373L75.95,71.31793532503882L76.125,72.54807609877416L76.30000000000001,68.32541320720426L76.47500000000001,69.17288542811131L76.64999999999999,68.77906766791827L77,72.7386818118755L77.175,70.70924175055379L77.52499999999999,72.27912544792115L77.7,72.2714101312587L77.875,73.98763682058645L78.225,75.39068137872536L78.4,71.29541083898118L78.575,70.41001303522413L78.75,69.06809431157954L78.925,71.67229258211043L79.1,71.52738059332323L79.275,74.2709631334519L79.45,75.90124056841924L79.625,74.867209129426L79.8,71.0552939468431L80.15,74.12508917095757L80.67500000000001,75.26354889106754L80.85000000000001,76.24405834393454L81.02499999999999,76.26071714024413L81.19999999999999,74.66976024670818L81.55,73.162662641985L81.89999999999999,76.2112897671085L82.25,82.21129955256512L82.6,80.55557035557973L82.95,82.06367019485715L83.125,84.25667505947268L83.3,79.22200299927177L83.475,78.72313218338323L83.65,76.81221499303271L84,69.46250868652747L84.175,72.47304757468692L84.35000000000001,74.1541514443264L84.525,80.3733063054428L84.7,79.20826435949458L84.875,83.67108302784656L85.05000000000001,82.77394881632785L85.22500000000001,84.87864817724753L86.1,86.3847026913087L86.45,86.90002045056086L86.625,86.1429319330896L86.975,89.34456495377364L87.15,91.07026170321816L87.325,91.65701354242371L87.5,90.69408430822139L87.675,92.97475065266126L87.85,91.7561997100886L88.025,92.36140387989661L88.2,94.75235049495204L88.375,96.59156536497747L88.55,93.74634648002682L88.72500000000001,94.03613854345154L89.25,93.62581438041168L89.42500000000001,94.6310545410111L89.77499999999999,96.71446572414261L90.3,98.00941479056569L90.475,97.07000632254584L90.825,100.43221244725946L91,102.60685025003114L91.175,104.72963504839115L91.35,108.13938379885548L91.525,110.56914219684097L91.7,109.94069221215548L91.875,112.29653556749106L92.05,106.51081139729305L92.225,108.47017466517639L92.4,104.77657618258841L92.575,101.23514558051323L92.75,98.45601037931122L92.925,103.1056042027671L93.275,105.75382636721419L93.45,103.68271962184009L93.80000000000001,101.99416344641072L94.14999999999999,96.61169474732748L94.5,95.21779738060019L94.85,96.1102305136946L95.02499999999999,100.47974602566273L95.2,99.84575349233785L95.375,102.28532581219379L95.55,109.3629441052722L95.725,111.48267680533708L95.9,109.58888179723223L96.075,111.25102301043894L96.25,109.04440299174203L96.425,107.09850727353286L96.6,109.2446377852782L96.775,112.50604480284657L96.95,115.89957357240505L97.125,117.42000191792265L97.3,119.21044527225479L97.47500000000001,116.84891126304123L97.825,115.28949463698876L98,115.08857428013457L98.17500000000001,113.28477876512568L98.35000000000001,119.59195156230477L98.52499999999999,120.61930860651835L98.69999999999999,119.77152431247328L98.875,120.21232659409591L99.05,121.34353255255418L99.225,124.2204682063801L99.39999999999999,120.1542672904822L99.575,122.25508166318556L99.75,126.03750541356258L99.925,126.28107766141059L100.275,124.25794552712253L100.45,123.93889744739299L100.8,129.06569639225182L101.15,133.4466561055068L101.325,137.62804290168793L101.5,138.4280103799158L101.675,139.11297322009315L101.85000000000001,136.5298528663556L102.2,142.9687369724159L102.375,141.5722618954L102.72500000000001,144.4063196383411L102.89999999999999,146.05624281410402L103.07499999999999,143.85374655275933L103.25,136.1906626646406L103.425,131.4424493796596L103.77499999999999,131.74740786741276L103.95,130.22907873426854L104.125,132.73764008051455L104.3,127.7882731386045L104.825,126.30055067215915L105.175,126.30948999208587L105.35,133.02010106438198L105.7,132.73025074526078L105.875,128.4626290668569L106.05,130.42420318808908L106.4,132.49309894329198L106.575,130.9690868333613L106.92500000000001,120.43260562211624L107.27499999999999,127.96155739479734L107.975,119.16716085567712L108.14999999999999,124.30053513708245L108.325,120.39524662159816L108.85,126.57367255238984L109.025,138.70014961598756L109.2,134.35988697263832L109.375,129.2714831726526L109.55,129.25562030506083L109.725,130.82618846155336L110.075,128.52498661452583L110.425,133.34085521390423L110.775,133.3859683554221L111.125,138.6015871035504L111.64999999999999,140.0256746968701L111.82499999999999,131.29769752844322L112.175,141.05111306244254L112.35,143.4757618330456L112.52499999999999,147.11078323906057L112.7,142.14736780632296L112.875,142.0492948596714L113.225,141.98591563240535L113.4,132.18734018529292L113.575,123.23857710942613L113.75,134.51348496518338L113.925,139.1502096379651L114.1,144.7835590415829L114.275,140.34752424646044L114.45,134.36116244690226L114.625,135.36467363084247L114.8,139.6802560970915L114.97500000000001,142.5234283838404L115.15,132.10005405629286L115.5,133.36137926082867L115.67500000000001,136.54582039298424L115.85000000000001,146.1598968349514L116.02499999999999,138.72708119375412L116.19999999999999,134.19593354642035L116.375,142.63574219073993L116.55,141.2736437680353L116.725,139.32594955034884L116.89999999999999,135.11483207003855L117.075,124.25699231799285L117.25,117.36222523279858L117.425,123.84442302878657L117.6,134.5415088105464L117.775,142.51728447143137L117.95,141.85444596173232L118.125,140.36985447264192L118.3,146.61487530896466L118.475,146.9585993237987L119,144.0116298311204L119.175,143.33602287407265L119.875,149.37547614272555L120.39999999999999,145.70716813857854L120.57499999999999,143.5796235333425L120.75,143.23677624633206L120.925,132.71895805612536L121.1,138.11142994493164L121.45,141.23102512602952L121.625,144.81764822534072L121.8,147.4715219801297L122.325,149.3846581626309L122.5,146.94573453256606L122.85,143.8301392266492L123.55,136.30670969086938L123.72500000000001,141.45163761671432L123.9,138.56655598236594L124.075,138.46637837994137L124.25,136.7882597314209L124.42500000000001,130.78997021298204L124.60000000000001,126.76220054057548L124.77499999999999,129.02428130941135L124.94999999999999,132.57305434755588L125.125,133.67012003123236L125.475,133.62628981156504L125.64999999999999,129.29234406954222L125.825,139.04256518080217L126,128.08147917247447L126.175,130.41610123642542L126.35,134.9854412137539L126.525,130.15280226304543L127.05,130.17981092616003L127.225,131.48470149081206L127.4,135.65387469903553L128.45,133.66065743569044L128.8,138.99123063943537L128.975,132.397833619132L129.15,129.6918398057611L129.325,123.58493798493383L129.5,128.14543553194153L129.675,127.69504545933691L129.85,134.7006885219592L130.025,126.12266666278298L130.20000000000002,127.50229700076808L130.375,123.94855043814913L130.55,125.63869321604139L130.725,133.43148306531302L130.9,130.95086735159276L131.07500000000002,136.1546695615755L131.25,126.63938454381623L131.42499999999998,126.47161370167046L131.6,133.11994267426806L131.95,138.25350058709216L132.125,137.90130208416153L132.29999999999998,137.600919227888L132.65,125.46135159043934L133,124.4854664471335L133.35,117.86179497599029L133.525,116.88689531707304L133.7,112.03954869185175L134.05,106.86222237249883L134.225,100.48637901747286L134.4,110.14389221789406L134.75,105.44042825514354L134.925,95.74576055100273L135.1,108.650353872651L135.275,109.89967364573421L135.45000000000002,110.81587166600349L135.625,103.0341726134756L135.79999999999998,113.94927485734104L135.975,96.27437105452074L136.325,93.98628104510874L136.5,97.77557849244899L136.67499999999998,93.67384350508509L136.85,97.88233030735933L137.025,95.9828799944083L137.2,92.0700375112385L137.375,94.60122389898908L137.55,100.33285538079936L137.725,91.64128593861383L137.9,85.75673226418593L138.075,91.38860302504662L138.25,92.51339492140602L138.425,87.73239950963476L138.6,88.30234076715557L138.95000000000002,87.14855136596461L139.125,83.65164768880598L139.3,75.68115333666596L139.65,75.16491584798867L139.82500000000002,73.58447259369864L140,77.41031866176826L140.17499999999998,81.12084265851284L140.52499999999998,74.64617448524112L140.7,71.62504227189156L140.875,74.79236440678817L141.05,69.21651661834188L141.225,76.5768318002686L141.4,74.48285071408671L141.575,73.68760752222722L141.92499999999998,72.51089521026144L142.275,72.77806601128731L142.45000000000002,72.7383285895216L142.625,72.38941488685586L143.15,66.00334420336324L143.85000000000002,65.0348535480713L144.025,64.59827031314863L144.20000000000002,63.98095225367854L144.375,69.53061474685798L144.54999999999998,67.022584392824L144.725,63.797611458226555L144.89999999999998,66.02284431641307L145.075,61.972045836645485L145.6,65.50972603948321L145.775,63.9513042643297L145.95,69.10432953741615L146.125,70.72083897033825L146.475,71.7520456105197L146.65,67.3901528454496L146.82500000000002,71.21832975184877L147.175,71.95164830995283L147.35,70.53439108751509L147.525,70.36138152790274L147.7,72.10090097533971L147.875,71.71583849329612L148.05,71.46590195598206L148.22500000000002,73.08547995627097L148.4,74.52446177433437L148.57500000000002,79.67204678001976L148.75,77.25925882451125L148.92499999999998,76.90041985295476L149.1,75.18060628305625L149.27499999999998,80.94519906499455L149.45,78.88234214214651L149.625,75.67929068812204L149.8,80.73888187876612L150.325,75.43364057257881L150.5,74.08476715246869L150.85,76.49641317793699L151.025,70.74323965230211L151.20000000000002,73.31065527977732L151.375,69.72269859596018L151.55,70.42247661292944L151.725,61.8121952658573L151.9,70.44858786102851L152.075,64.04005748909884L152.25,66.79786936945635L152.425,68.03327955718903L152.60000000000002,70.31571779570979L152.95000000000002,71.16097864644023L153.125,70.63187309319783L153.29999999999998,69.49542906885736L153.475,66.84704392509144L153.64999999999998,69.06013393682242L154,70.91539848461998L154.175,70.38836557721979L154.35,70.42420151199869L154.525,71.07371203432146L154.7,71.04057177269112L154.875,70.4415779710091L155.04999999999998,72.84872576699125L155.225,76.31145990128428L155.4,73.41660858699831L155.57500000000002,72.69141612085632L155.75,72.19912203849069L155.925,71.3926456596342L156.1,68.9682645711335L156.625,71.00571359452312L156.97500000000002,72.66143366987991L157.32500000000002,71.77645019843635L157.85,68.0033861164254L158.02499999999998,59.411916535739564L158.2,60.59536378808692L158.375,64.67635263274471L158.55,67.05830098063508L158.725,66.87360132768266L158.9,65.40682625138483L159.075,64.93192959537899L159.25,65.26152212131785L159.42499999999998,65.3548150483368L159.6,62.3721075050184L159.775,60.6139173386305L159.95000000000002,61.92410923300925L160.475,60.29001433768148L160.65,63.998835158010856L160.825,72.74882198950148L161.175,68.74758470744362L161.35000000000002,66.89627493326785L161.70000000000002,65.09867006955245L161.875,58.4738248193128L162.04999999999998,62.238642119321334L162.225,66.85935404116302L162.39999999999998,64.0675395693099L162.575,61.436977051457376L163.1,58.79533921938101L163.275,62.63691773509115L163.45,59.36560670768737L163.975,57.94801593958646L164.15,54.44473343147013L164.32500000000002,57.85649019870087L164.675,57.11640926365125L164.85,57.08952064929139L165.025,57.2635910983368L165.2,60.755002097207004L165.375,57.72337858249568L165.55,53.694783510984486L165.72500000000002,61.14588558850834L165.9,59.06248049252396L166.07500000000002,56.640111770682346L166.25,61.78565243670819L166.6,58.350577683817725L166.77499999999998,60.676988171667396L166.95,60.12168058673181L167.125,54.694003810836676L167.3,55.64019173260586L167.475,56.99222191887653L167.65,59.41649360735591L167.825,57.50281823305526L168.35,57.18839543186526L168.525,55.14359897002417L168.875,61.179504900054L169.05,62.79597752357531L169.225,56.1309188460856L169.4,56.97117415872037L169.575,57.64186070223482L169.75,55.15650513912534L170.10000000000002,52.38134504620714L170.275,52.97950275970986L170.45000000000002,56.91436445010231L170.625,56.59161317469989L170.79999999999998,55.60726022382193L170.975,51.34802706718454L171.14999999999998,55.692180605201756L171.325,57.49608876090344L171.85,43.08385267846189L172.025,41.589233833724926L172.375,42.83754146296226L172.54999999999998,44.05336090270677L172.725,41.42113969180417L172.9,42.05013821635072L173.07500000000002,45.985655059279814L173.25,44.476213002439L173.6,43.25219049501813L173.775,42.34149645286282L173.95,42.569066357316046L174.125,43.35802366572197L174.3,40.1538325499617L174.47500000000002,40.714147940297764L174.65,39.18107461313322L174.82500000000002,36.23558250578726L175,38.5282783976045L175.17499999999998,35.64813819519052L175.35,37.210199092147924L175.52499999999998,32.0546774657476L175.875,38.66727685837612L176.225,39.46888951104278L176.4,39.75192109676677L176.575,42.101820615657516L176.75,38.184981281215116L176.92499999999998,37.73121102412096L177.1,39.21686683481768L177.45000000000002,42.94644986006947L177.625,43.72485373640504L177.8,46.901512489031106L177.975,42.3534213061122L178.15,47.392506205992426L178.325,49.2169283977163L178.675,52.04150328372226L179.025,51.38805637928289L179.20000000000002,52.10074106680317L179.54999999999998,52.2693739741803L179.725,51.764992551675206L179.89999999999998,51.91345567453792L180.425,51.24742557897837L180.6,58.81492588055276L180.775,61.32757279335863L180.95,56.72324340469967L181.125,53.66579618080803L181.475,53.373972421177214L181.65,52.37329922526593L181.82500000000002,51.51932732505076L182,50.86414393036557L182.175,46.28824427547069L182.35,44.40263903428311L182.525,45.72527001886099L182.875,47.27734168845982L183.05,48.637770488998584L183.4,44.463509218487665L183.57500000000002,41.77220481360118L183.75,40.970203130269304L183.92499999999998,38.69731643574825L184.27499999999998,38.383726152890404L184.45,34.930268411155346L184.625,34.184699159840626L184.8,33.35901514908123L185.15,33.77575633043291L185.5,34.053032672708824L185.85,35.55062287586351L186.025,32.40903616903071L186.20000000000002,33.05582756758608L186.375,34.81919962100625L186.55,32.259237596619336L187.25,31.46462021583426L187.425,31.83015809228664L187.60000000000002,32.5993113114858L187.775,32.74798230390501L187.95000000000002,32.55921701304713L188.29999999999998,34.0950897470262L188.475,32.347611825427066L188.64999999999998,32.98060595979925L188.825,32.376875426876396L189,33.12150657049545L189.175,32.40220516482875L189.35,31.18187358321017L189.525,31.600575613321148L189.7,32.48574887305272L189.875,32.23763796250077L190.225,31.2507053571103L190.4,29.036681745042703L190.57500000000002,30.776481882594382L190.75,35.43001403326602L190.925,34.08430857817598L191.1,36.29096621610062L191.275,37.87704516228151L191.625,34.221616523680375L191.8,32.880519828031325L191.97500000000002,34.35449036953499L192.15,35.19480451124689L192.32500000000002,36.722575041599804L192.5,36.90158996814422L192.67499999999998,38.935800197544665L192.85,39.007079832117924L193.02499999999998,38.87617672441195L193.725,41.70513454032051L193.9,42.558316350628075L194.25,44.837293891106604L194.42499999999998,42.856125974535836L194.6,44.58448502336604L194.775,45.29254352399171L194.95000000000002,47.32462357365991L195.125,47.461692433601485L195.3,46.613868475568985L195.65,51.55422307809243L195.825,51.71832296181499L196,51.74433525868165L196.175,51.505408002267394L196.525,48.32917908065956L196.70000000000002,48.981847354973425L196.875,47.70720067874309L197.04999999999998,47.95351253764934L197.225,45.94840075150432L197.39999999999998,43.27059013131228L197.75,45.68710973033134L197.925,44.83159641328023L198.275,47.44791076484114L198.45,48.28220508447167L198.625,47.60082466501433L198.79999999999998,47.8408786631862L198.975,48.994544855401365L199.15,51.294434629210954L199.5,50.52892350605431L199.85,50.65086022231581L200.375,52.256809706636766L200.55,50.1295797989779L200.72500000000002,50.65183883534085L200.9,50.421098813226976L201.25,48.1662813124469L201.42499999999998,50.46513316495622L201.6,50.614124603939786L201.95,50.175419885727635L202.125,51.15636302914795L202.3,56.97003341417132L202.475,59.30758728614288L202.825,61.08294079053704L203,60.11649115901037L203.17499999999998,60.30707606061741L203.35,62.53109401159282L203.525,59.28277401707389L203.70000000000002,57.882094818661415L203.875,52.497610967826425L204.05,55.70097818492057L204.225,53.74439727371361L204.575,51.36349285831148L204.75,50.476550806281715L205.10000000000002,48.89918125422701L205.45000000000002,49.68866065700485L205.625,50.77171327947992L205.975,49.94251802456633L206.14999999999998,51.69671189844421L206.325,50.10115786917493L206.5,45.982571827098816L206.675,50.10863593661773L206.85,49.569174146053975L207.375,47.42235546157512L207.54999999999998,47.82620978833099L207.725,44.60916044354948L207.9,41.41742711931008L208.25,39.82627860327156L208.425,41.975067135081304L208.6,40.86354817663267L208.775,37.48706850927539L208.95,39.10134068485037L209.47500000000002,40.5021393687903L209.82500000000002,38.4816922050975L210,39.56002793761722L210.35,44.329204981811L210.52499999999998,44.600023644397496L210.875,49.99960768999131L211.05,45.35528427567629L211.225,44.43987274248528L211.4,48.65150293841901L211.75,46.36444264020509L211.92499999999998,47.4102768529124L212.1,51.251434701353844L212.45000000000002,55.74292057717325L212.625,56.08848008609503L212.8,50.7537901831341L212.975,57.97185712985708L213.325,61.136852803650996L213.5,59.95008315977837L213.85000000000002,58.34396249272059L214.20000000000002,53.09673347013597L214.375,52.7119713375294L214.725,51.495615107643495L214.89999999999998,48.96229301523721L215.075,48.25102967285296L215.25,48.115468101551016L215.6,43.5710590541244L215.95,45.43522108727235L216.125,43.672257058162934L216.29999999999998,45.06287710166676L216.475,44.38903609826094L216.65,44.42094233993863L216.82500000000002,43.65771926549545L217,45.850562001624546L217.175,44.91735431312273L217.35,45.628386876650424L217.525,43.64444136518513L217.875,43.33929626000557L218.05,45.48401061047629L218.22500000000002,45.573550166704386L218.4,42.108038365908456L218.92499999999998,41.27077507997825L219.1,42.23624773918247L219.27499999999998,42.37338713444254L219.45,39.55696566816444L219.625,39.71244032433213L219.975,43.049052956423395L220.15,44.48638178713063L220.325,45.83570456554868L220.5,41.92579352078682L220.67499999999998,43.80667303148397L221.55,47.269319490728634L221.725,46.52324653507591L221.9,41.68109443599879L222.075,42.018114022850504L222.25,39.252724941932314L222.425,42.567334016829896L222.60000000000002,45.83843001487124L222.775,49.26956826151048L222.95000000000002,52.32540187335854L223.125,52.284559398211854L223.29999999999998,53.77003097805447L223.475,54.87380842473908L223.64999999999998,57.88777991375948L223.825,57.132968939519586L224,54.09387722108184L224.175,49.04349850781618L224.35,47.92436068373117L224.525,41.75363491641617L224.7,39.60620181552856L224.875,37.60303742077299L225.04999999999998,34.61732932656288L225.225,32.58737728965929L225.4,33.56988506606438L225.57500000000002,34.00344664328903L225.925,34.44634454616123L226.275,36.12416400146564L226.45,37.55221878518296L226.625,36.94415613677005L226.8,39.352003001788624L226.97500000000002,37.317485782179496L227.32500000000002,35.57640278121108L227.67499999999998,35.05359045411918L227.85,35.07777348926402L228.02499999999998,36.29025822052264L228.2,37.27388065271795L228.55,40.32271013908289L228.725,36.96135242900382L228.9,35.541483995222485L229.075,37.859101085795686L229.25,40.732698021920925L229.775,39.692797633348064L229.95000000000002,37.75696853814489L230.475,37.69736875121379L230.65,38.57987605414925L230.825,35.90331306842807L231.35000000000002,36.77353689901166L231.525,37.60865264782286L231.875,38.226360785540486L232.04999999999998,40.387745160429226L232.225,41.06476289402589L232.39999999999998,39.11877603915867L232.575,36.155425817525035L232.75,34.75280232152409L232.925,37.72804284621956L233.1,38.184888993030846L233.275,42.41968939646964L233.45,46.60298010255025L233.79999999999998,44.157522414006976L233.975,42.547306691041555L234.15,43.76812819136118L234.5,47.34880016062331L234.675,48.6268099106101L234.85,49.68178799731976L235.025,49.56887194715947L235.2,46.89435366986455L235.375,47.087587577074046L235.55,46.19454949788166L235.72500000000002,47.18327184886215L236.07500000000002,47.305807077074085L236.25,47.42684360239211L236.6,47.73500009511128L236.77499999999998,48.53499445633299L236.95,45.219814796715525L237.125,47.52748016122902L237.3,46.89736238379791L237.475,45.380822854017936L237.65,43.949868427430026L237.825,44.14719016702052L238,45.34946939422602L238.17499999999998,44.934473057189884L238.35,44.67631249326401L238.525,43.23246867454849L238.70000000000002,46.10640429321095L238.875,43.93475704599998L239.225,45.260834976780394L239.4,44.833782444255256L239.575,44.97883448323974L239.75,48.974893515203874L240.10000000000002,44.186178742372256L240.275,46.07684421711561L240.975,46.3268661686811L241.325,47.33828354176946L241.5,46.90212109582194L241.85,49.08815117855345L242.025,49.40563830358462L242.2,46.19804454111311L242.375,45.717324941193205L242.54999999999998,43.638950697386626L242.9,43.15680618091968L243.07500000000002,33.94148493345235L243.25,30.13598148115637L243.425,29.818513296315366L243.6,32.29945174946133L243.775,35.928219056096765L243.95,33.105301506946276L244.125,39.990250526367724L244.3,40.666570207073924L244.47500000000002,43.8801799189384L244.65,49.784517468320864L244.82500000000002,52.89916612764071L245,61.00831873237599L245.17499999999998,49.461598579227235L245.35,54.16822203985031L245.52499999999998,37.96654678595557L245.7,44.730985635960316L246.05,45.92083468681023L246.225,45.45540063283386L246.575,46.529516666046725L246.75,46.06403106791676L246.92499999999998,46.17100040392338L247.275,45.64997240617907L247.45000000000002,45.03328938927158L247.625,47.76668871127286L247.8,43.02822496737221L247.975,45.38116744368313L248.15,44.46021936384428L248.5,45.85643199618427L248.85000000000002,43.98709164900289L249.20000000000002,43.950563466843796L249.725,43.48381955004691L249.89999999999998,44.96456951777743L250.075,43.76991350099756L250.25,44.440583229059875L250.425,44.293887672848534L250.6,46.10858569778246L250.95,44.27980995990311L251.125,43.42537908801381L251.29999999999998,45.01727336825225L251.475,43.40500613727052L251.65,44.69548639861802L251.82500000000002,43.43232860137733L252,39.981643139391714L252.175,42.10518109510328L252.35,43.68927104394092L252.525,44.36470762520925L252.875,41.10666211114365L253.05,42.39789750805985L253.22500000000002,43.440575677361636L253.57500000000002,40.81150212380461L253.75,43.08972737466062L253.92499999999998,45.53845725936153L254.1,48.28367449374623L254.27499999999998,49.04109363779036L254.45,50.11098276878296L254.625,51.818570951740845L254.8,50.876468543768596L254.975,50.50254394610168L255.15,48.797815819444104L255.325,43.30290539834217L255.5,40.20171699582685L255.67499999999998,39.21187076443018L255.85,37.599238328832655L256.2,33.59549278129193L256.375,30.398050343284936L256.55,30.238528053197676L256.725,29.240857178448728L256.9,28.33947754404737L257.075,28.452237881835217L257.25,29.060126620122535L257.425,31.177926817651347L257.6,31.666412171589997L257.95,30.322903802648106L258.125,33.23317855999052L258.47499999999997,32.41105321708867L259,31.157261516151628L259.175,36.007450758661975L259.35,39.953587390246994L259.7,44.20773854766042L259.875,45.98979434843966L260.05,48.16837427932201L260.40000000000003,49.331069116381954L260.575,48.0844230278383L260.75,49.632171405198505L260.925,50.13964697480315L261.1,48.26039964189931L261.275,49.655958222284816L261.45,46.248178243300174L261.625,47.13177525187839L261.8,47.48059572708536L261.975,47.04895871807262L262.325,44.83642491390349" style="fill: none;" fill="none"></path></g></g></g></g><g opacity="0.2"><g><g><g><path stroke="rgb(204, 51, 17)" stroke-width="2px" d="M35.7,97.76076880693435L36.050000000000004,137.01311478614807L36.4,125.69058475494384L36.574999999999996,103.09509286880493L36.925,34.461498606391245L37.275,44.74097459614276L37.45,42.186854159831995L37.625,42.18258312195539L37.800000000000004,49.14766981303691L37.975,45.08804864287376L38.150000000000006,47.40607968568801L38.324999999999996,49.89894278943538L38.5,50.51243782639503L38.675,52.25630769729614L38.85,47.646536266803736L39.025,47.41343746185302L39.2,45.60506039708852L39.375,46.71733520776033L39.725,45.83687278479337L39.9,44.566887861490244L40.25,45.8209371253848L40.775,45.49727918803691L40.949999999999996,46.42679057866334L41.125,47.690300977230066L41.3,46.905742949247355L41.475,49.003549969196314L41.825,45.98681731373071L42.35,45.48313987106084L42.525000000000006,43.269818550348276L42.875,44.46984425783157L43.05,47.560362225770945L43.225,49.68019748330116L43.4,45.71629636585712L43.575,43.28074978142976L43.75,46.46737240105867L44.1,45.77458631843328L44.275,44.840358948707575L44.800000000000004,43.11071592420339L44.974999999999994,44.814385919272894L45.15,48.203090763092035L45.324999999999996,43.33700997978448L45.5,38.277651636302465L46.025,44.77269008606672L46.2,45.6982646420598L46.375,45.678380875289434L46.550000000000004,43.4271288126707L46.725,43.85640226900577L46.900000000000006,45.65313062667846L47.074999999999996,41.50720080584287L47.25,44.633446028828615L47.425,44.66608057767152L47.6,39.44528217464685L47.95,33.042974017933005L48.125,36.84774358142167L48.3,33.45315744020044L48.475,35.98576391572132L48.825,32.778639311343426L49,33.93763560280203L49.175000000000004,34.130109815299505L49.349999999999994,34.78974131159484L49.699999999999996,37.126851778849954L49.875,38.091742959246034L50.225,34.028210483863944L50.4,31.95795019939541L50.575,32.612476641684765L50.75,33.27053542658686L50.925000000000004,31.43058212324976L51.1,36.08992322199046L51.449999999999996,34.191964436694974L51.625,32.86943318173289L51.8,29.586779846251L51.975,33.98285565562546L52.325,32.63479631245136L52.5,36.04983267504721L52.85,36.234692283812905L53.025,39.97461037933826L53.2,37.68208587393164L53.375,44.937225504219526L53.550000000000004,38.060460972040886L53.724999999999994,40.517462874203915L53.9,42.12257374674081L54.074999999999996,43.17437169551849L54.6,46.09056487530469L54.775,48.17389837503433L55.300000000000004,45.80507772266864L55.650000000000006,46.94372806549072L55.824999999999996,48.23041718304157L56,48.13691852092742L56.175,49.212196236848825L56.35,49.48667125999927L56.525,49.73729584217071L56.7,50.390508016943926L57.05,50.51918289661407L57.225,49.79577610492706L57.4,56.99388401806354L57.575,57.750738984346384L57.75,55.317860057950014L58.099999999999994,55.96892908811569L58.275,56.226232430338854L58.8,57.34637825787067L58.975,57.499724498391146L59.325,62.39530733823776L59.5,58.0543652832508L59.85,57.45410310328006L60.199999999999996,65.4693830370903L60.375,63.68250173926353L60.55,59.976474231481546L60.725,66.56952706575393L60.9,64.16406208872795L61.075,71.24668554067611L61.425,68.47620165944099L61.6,65.77114204168319L61.775,67.64654210805892L61.95,63.703506147861475L62.300000000000004,62.998302823305124L62.474999999999994,61.424096798896784L62.65,62.28017697334289L63,61.45782214999198L63.175,64.75741342306137L63.35,64.80591267943382L63.7,63.79070401787757L63.875,60.47588793039321L64.225,58.83097670078277L64.4,63.13853556513786L64.75,63.19788581728935L64.925,62.181841647624964L65.10000000000001,56.45056900978088L65.45,58.02018902301788L65.625,63.28281322717666L65.8,60.588904327154154L66.14999999999999,59.601697123050684L66.325,60.91533601880073L66.5,61.45283827781677L66.675,60.046887671947474L67.025,58.315457588434214L67.2,61.446483111381525L67.375,60.45860219597816L67.55,58.79990640878677L67.72500000000001,63.51757243871688L67.89999999999999,63.133620655536646L68.075,63.13255704045295L68.25,60.647461509704584L68.425,62.117653405666346L68.775,60.60605744123458L68.95,58.80189836621284L69.47500000000001,58.583029723167414L70.175,59.2311399936676L70.35,56.77660549283027L70.7,62.3802867591381L70.875,58.21677479743957L71.05,61.33538175225257L71.4,61.41065440177917L71.575,62.16983950734138L71.75,62.777978008985514L71.92500000000001,60.69750977158546L72.10000000000001,60.744839316606516L72.625,63.674289888143534L72.8,63.39540789127349L72.975,66.37570775151252L73.14999999999999,65.26365176439285L73.675,63.10897714495658L73.85,61.04116353988647L74.025,56.9949065208435L74.2,62.920486515760416L74.375,63.773341363668436L74.55,67.46739856004714L74.9,63.897187536954874L75.075,67.81598315238952L75.25,70.19615212678909L75.60000000000001,68.88590035438537L75.775,72.8960740327835L75.95,71.30731425285339L76.125,73.32142192721366L76.30000000000001,65.6707749724388L76.47500000000001,69.705661123991L76.64999999999999,68.53148842453956L77,75.22795063853263L77.175,69.43340483903884L77.52499999999999,73.26605558991432L77.7,72.26655978560447L77.875,75.06656760573387L78.225,76.27272567749023L78.4,68.72085965275764L78.575,69.85339487195014L78.75,68.2244776546955L78.925,73.30945957303047L79.1,71.43627957105636L79.275,75.99575606584548L79.45,76.92613810896873L79.625,74.21715027689933L79.8,68.65887821316718L80.15,76.05496043562889L80.67500000000001,75.9792580962181L80.85000000000001,76.8604698240757L81.02499999999999,76.27118993401527L81.19999999999999,73.66958213448524L81.55,72.21520388722419L81.89999999999999,78.12785339951515L82.25,85.9832926750183L82.6,79.5146721959114L82.95,83.011759018898L83.125,85.63533935546874L83.3,76.05688343048095L83.475,78.40950981378555L83.65,75.61088920235633L84,64.84200928211212L84.175,74.36566648483276L84.35000000000001,75.21100175976753L84.525,84.28306815624236L84.7,78.4758438527584L84.875,86.47669867277145L85.05000000000001,82.20995239019393L85.22500000000001,86.20179793834686L86.1,87.33150569200515L86.45,87.22398242950439L86.625,85.66697726249694L86.975,91.3573179602623L87.15,92.1551459789276L87.325,92.02588359117507L87.5,90.08872488737106L87.675,94.40852460861205L87.85,90.99013999700546L88.025,92.74187425374984L88.2,96.25545374155044L88.375,97.74781445264816L88.55,91.95765838623046L88.72500000000001,94.21832052469253L89.25,93.36785814762115L89.42500000000001,95.26301333904266L89.77499999999999,98.02423236370086L90.3,98.8235032916069L90.475,96.47943357229232L90.825,102.54591206312179L91,103.97396782636642L91.175,106.06415448188781L91.35,110.28297177553176L91.525,112.09664503335952L91.7,109.54560801982879L91.875,113.7775706410408L92.05,102.87353203296661L92.225,109.70195678472518L92.4,102.45454195737838L92.575,99.00877389907836L92.75,96.708866751194L92.925,106.02863875627517L93.275,107.41866961717605L93.45,102.38068834543228L93.80000000000001,100.93262813091278L94.14999999999999,93.22792778015136L94.5,94.34150359630584L94.85,96.67127153873443L95.02499999999999,103.22670528888702L95.2,99.44718489646911L95.375,103.81899831295013L95.55,113.8123914361L95.725,112.81527749300002L95.9,108.39832011461257L96.075,112.29595217704772L96.25,107.65717933177947L96.425,105.87519172430038L96.6,110.59383383989334L96.775,114.55637559890747L96.95,118.03296462297439L97.125,118.3758412361145L97.3,120.33603343963622L97.47500000000001,115.36429867744445L97.825,114.30914477109908L98,114.96226278543472L98.17500000000001,112.1507965683937L98.35000000000001,123.55704716444015L98.52499999999999,121.26517150402069L98.69999999999999,119.23855242729186L98.875,120.48944333791732L99.05,122.0546815752983L99.225,126.02909550666809L99.39999999999999,117.59799114465713L99.575,123.57578907012939L99.75,128.41538093090057L99.925,126.43420288562774L100.275,122.9860741853714L100.45,123.7383232474327L100.8,132.28873286247253L101.15,136.20080993175506L101.325,140.25673232078552L101.5,138.93092153072357L101.675,139.5435850381851L101.85000000000001,134.9059368133545L102.2,147.01663479804992L102.375,140.6943475961685L102.72500000000001,146.18799111843109L102.89999999999999,147.09349093437194L103.07499999999999,142.4691153526306L103.25,131.37315390110015L103.425,128.45741627216339L103.77499999999999,131.93912444114684L103.95,129.27455911636352L104.125,134.31468353271484L104.3,124.67678186893463L104.825,125.3652723789215L105.175,126.31510982513427L105.35,137.23882398605346L105.7,132.5480321407318L105.875,125.77972683906555L106.05,131.6573751926422L106.4,133.7937402486801L106.575,130.01099452972412L106.92500000000001,113.80869398117065L107.27499999999999,132.69474205970764L107.975,113.63843599557876L108.14999999999999,127.52770528793334L108.325,117.94013038873672L108.85,130.45782957077026L109.025,146.32363519668579L109.2,131.63131794929504L109.375,126.0725843667984L109.55,129.24564788341522L109.725,131.8135488986969L110.075,127.07830271720886L110.425,136.36842081546783L110.775,133.41432938575744L111.125,141.88046143054962L111.64999999999999,140.9209480047226L111.82499999999999,125.81072816848754L112.175,147.18273911476135L112.35,145.00005242824554L112.52499999999999,149.39599213600158L112.7,139.02704474925994L112.875,141.98763988018035L113.225,141.94607136249542L113.4,126.02732369899749L113.575,117.61280748844146L113.75,141.60161921977996L113.925,142.06515381336212L114.1,148.32504580020904L114.275,137.55874667167663L114.45,130.59774932861328L114.625,135.9955454826355L114.8,142.39330956935882L114.97500000000001,144.31082985401153L115.15,125.54724869728088L115.5,134.15432963371276L115.67500000000001,138.54776546955108L115.85000000000001,152.20392534732818L116.02499999999999,134.05433390140533L116.19999999999999,131.34736189842224L116.375,147.9415502309799L116.55,140.41734085083007L116.725,138.10150334835052L116.89999999999999,132.4674520254135L117.075,117.43105397224426L117.25,113.02772996425628L117.425,127.91955063343048L117.6,141.26638684272766L117.775,147.5313714504242L117.95,141.43774292469024L118.125,139.4365445137024L118.3,150.54089818000793L118.475,147.1746864080429L119,142.1589747428894L119.175,142.9112927675247L119.875,153.17226598262786L120.39999999999999,143.40103313922882L120.57499999999999,142.24211177825927L120.75,143.02124032974243L120.925,126.10677919387817L121.1,141.50148556232452L121.45,143.19220385551452L121.625,147.07243082523345L121.8,149.1399181842804L122.325,150.58737895488738L122.5,145.41246984004974L122.85,141.8714750766754L123.55,131.57699666023254L123.72500000000001,144.68607113361358L123.9,136.75280759334564L124.075,138.40340027809142L124.25,135.73328611850738L124.42500000000001,127.01905856132507L124.60000000000001,124.2300847530365L124.77499999999999,130.44637117385864L124.94999999999999,134.80404195785522L125.125,134.35980627536773L125.475,133.59873530864715L125.64999999999999,126.56774625778198L125.825,145.17218301296234L126,121.19063357114791L126.175,131.8837952375412L126.35,137.85802302360534L126.525,127.11469373703002L127.05,130.1967903137207L127.225,132.30503985881805L127.4,138.27488586902618L128.45,132.40759251117706L128.8,142.34237275123596L128.975,128.2527990102768L129.15,127.99067757129669L129.325,119.74574563503265L129.5,131.0124584197998L129.675,127.41190121173858L129.85,139.10488758087158L130.025,120.72996888160705L130.20000000000002,128.36962161064147L130.375,121.71443614959716L130.55,126.70122597217559L130.725,138.33053336143493L130.9,129.39139232635497L131.07500000000002,139.42611525058746L131.25,120.65746269226074L131.42499999999998,126.36614212989807L131.6,137.29951105117797L131.95,141.4807861804962L132.125,137.6798873901367L132.29999999999998,137.41207919120788L132.65,117.82963643074035L133,123.87196210622787L133.35,113.69772789478301L133.525,116.274010515213L133.7,108.99219397306442L134.05,103.6074211359024L134.225,96.47811267375945L134.4,116.21522787809371L134.75,102.48352745771408L134.925,89.65106717348098L135.1,116.76301351785659L135.275,110.6850766301155L135.45000000000002,111.39185283184051L135.625,98.14209470748901L135.79999999999998,120.81121209859847L135.975,85.16278657913207L136.325,92.54784009456634L136.5,100.15777525901794L136.67499999999998,91.0952283501625L136.85,100.528056538105L137.025,94.78876302242278L137.2,89.61017236709594L137.375,96.19249091148376L137.55,103.93612859249114L137.725,86.17720482349395L137.9,82.05732229948043L138.075,94.92916021347045L138.25,93.22051165103912L138.425,84.7267574429512L138.6,88.6606426000595L138.95000000000002,86.42320493459701L139.125,81.45326850414276L139.3,70.6703865289688L139.65,74.84037566781043L139.82500000000002,72.59090403318405L140,79.81549224853515L140.17499999999998,83.45351735353469L140.52499999999998,70.57578048706054L140.7,69.7257637143135L140.875,76.78354737758636L141.05,65.71117908358573L141.225,81.20400062799453L141.4,73.16643915176391L141.575,73.18766636252403L141.92499999999998,71.77113795876502L142.275,72.94602680802345L142.45000000000002,72.71334708333015L142.625,72.17006523013114L143.15,61.988648301362986L143.85000000000002,64.42599785923957L144.025,64.32380593419074L144.20000000000002,63.59286630749702L144.375,73.01949051618575L144.54999999999998,65.44587475657463L144.725,61.77018547654151L144.89999999999998,67.42176920771598L145.075,59.42545265555381L145.6,67.73373997807502L145.775,62.97157982587814L145.95,72.34385356903076L146.125,71.73708105683326L146.475,72.40032861232757L146.65,64.64798573255538L146.82500000000002,73.6249686539173L147.175,72.41265965104103L147.35,69.64341179132461L147.525,70.25261656045913L147.7,73.19447509050369L147.875,71.47376338243484L148.05,71.30877572894096L148.22500000000002,74.10365114212036L148.4,75.42909855246543L148.57500000000002,82.90815070867538L148.75,75.74242470264434L148.92499999999998,76.67483053207397L149.1,74.09942055344581L149.27499999999998,84.56919387578964L149.45,77.58549723625183L149.625,73.66564596295356L149.8,83.91966722011566L150.325,72.09842372536659L150.5,73.23677832484245L150.85,78.01252940893173L151.025,67.12642372250556L151.20000000000002,74.92469832897186L151.375,67.46707761883735L151.55,70.86240220665931L151.725,56.39921709001064L151.9,75.87798125147819L152.075,60.0112419784069L152.25,68.53160778284072L152.425,68.80993807911872L152.60000000000002,71.75060567855834L152.95000000000002,71.69236413240432L153.125,70.29924321770667L153.29999999999998,68.78098706007003L153.475,65.1820982158184L153.64999999999998,70.45142505168914L154,72.08173743486404L154.175,70.05703870058059L154.35,70.44673029184341L154.525,71.48203623890876L154.7,71.01973766684532L154.875,70.06501183509826L155.04999999999998,74.36201412081718L155.225,78.48835790753364L155.4,71.5967183470726L155.57500000000002,72.2355133652687L155.75,71.88963422775268L155.925,70.88564259409904L156.1,67.44414225816726L156.625,72.28658545613288L156.97500000000002,73.70232609510421L157.32500000000002,71.22009251117706L157.85,65.63139469027519L158.02499999999998,54.01076464951038L158.2,61.339355057477945L158.375,67.24192542433738L158.55,68.55574733614921L158.725,66.7574872136116L158.9,64.48471683859825L159.075,64.63337892889976L159.25,65.46872524023055L159.42499999999998,65.41346499919891L159.6,60.4969851732254L159.775,59.50860560536384L159.95000000000002,62.747780358791346L160.475,59.26271689534187L160.65,66.33043912649154L160.825,78.24962804317474L161.175,66.23214889168739L161.35000000000002,65.732422208786L161.70000000000002,63.968579715490336L161.875,54.309019824862474L162.04999999999998,64.60544908642768L162.225,69.7642315685749L162.39999999999998,62.312424933910364L162.575,59.783235794305796L163.1,57.13463530540466L163.275,65.05198175311088L163.45,57.3090496122837L163.975,57.05682695508003L164.15,52.242344102263445L164.32500000000002,60.00134054422378L164.675,56.65114665627479L164.85,57.07261673212051L165.025,57.373023009300226L165.2,62.94992823004722L165.375,55.81750451624393L165.55,51.16214882433414L165.72500000000002,65.83012891411781L165.9,57.75271767973899L166.07500000000002,55.11725456118583L166.25,65.02047116160392L166.6,56.19106814861297L166.77499999999998,62.139519846439356L166.95,59.77257842421531L167.125,51.281816130876535L167.3,56.235026484727854L167.475,57.8421952933073L167.65,60.94054714441299L167.825,56.299758470058435L168.35,56.990728980302805L168.525,53.85810803472995L168.875,64.97406465411186L169.05,63.81219646930694L169.225,51.9408330976963L169.4,57.499412840604776L169.575,58.0634975194931L169.75,53.59405033886432L170.10000000000002,50.63670042753219L170.275,53.35554327666759L170.45000000000002,59.38807228803634L170.625,56.388710907101625L170.79999999999998,54.988432472944254L170.975,48.67039840519428L171.14999999999998,58.42319569587707L171.325,58.630141770839685L171.85,34.02339155822992L172.025,40.64962003231048L172.375,43.62230814844369L172.54999999999998,44.817703416943544L172.725,39.76635567322373L172.9,42.44556725621223L173.07500000000002,48.4597747683525L173.25,43.52728037387132L173.6,42.4826910033822L173.775,41.76897544264793L173.95,42.71213147640228L174.125,43.854013113677496L174.3,38.139471359923476L174.47500000000002,41.066398332267994L174.65,38.21728584393858L174.82500000000002,34.383856197260315L175,39.96961490288376L175.17499999999998,33.83749630898237L175.35,38.19221131727099L175.52499999999998,28.813584065437308L175.875,42.8243833169341L176.225,39.97283492460846L176.4,39.92985300570726L176.575,43.579119010269636L176.75,35.72260345858521L176.92499999999998,37.445941774547094L177.1,40.15084589496254L177.45000000000002,45.29110628962516L177.625,44.21420861631631L177.8,48.89856505990028L177.975,39.494197858870024L178.15,50.56039997041225L178.325,50.36387785375118L178.675,53.81721322834491L179.025,50.9772575110197L179.20000000000002,52.54878062605857L179.54999999999998,52.375387495756144L179.725,51.44790585935115L179.89999999999998,52.00678916871547L180.425,50.828716105222696L180.6,63.57234463691711L180.775,62.907184696197504L180.95,53.8286649942398L181.125,51.74368766546249L181.475,53.19051318466663L181.65,51.74421151578426L181.82500000000002,50.982465511560434L182,50.45225339233875L182.175,43.41153862923383L182.35,43.217225967347616L182.525,46.556761159002775L182.875,48.253074041008944L183.05,49.49302377402782L183.4,41.83929936438798L183.57500000000002,40.080277288705105L183.75,40.46601314693689L183.92499999999998,37.268433269485826L184.27499999999998,38.18658307604491L184.45,32.75920214354991L184.625,33.71598624289035L184.8,32.83993692733347L185.15,34.03774671480059L185.5,34.22734646443277L185.85,36.49210466481745L186.025,30.43403214812278L186.20000000000002,33.462442355602974L186.375,35.927769022667775L186.55,30.649880363047114L187.25,30.9650724813342L187.425,32.05995877683162L187.60000000000002,33.08285063169896L187.775,32.84144647829234L187.95000000000002,32.440546976774925L188.29999999999998,35.06063840389251L188.475,31.24903450012206L188.64999999999998,33.37854689769446L188.825,31.99733147621154L189,33.58962973244488L189.175,31.95000590980052L189.35,30.414694445580235L189.525,31.863798713684073L189.7,33.0422258734703L189.875,32.08165944218635L190.225,30.630255869030943L190.4,27.644803708791724L190.57500000000002,31.87023245766758L190.75,38.35552447326481L190.925,33.23831133767962L191.1,37.678213525936L191.275,38.874156682193274L191.625,31.92357832416891L191.8,32.03741995096206L191.97500000000002,35.28112331582233L192.15,35.72308017688337L192.32500000000002,37.68303013071417L192.5,37.014130296558136L192.67499999999998,40.21463594436645L192.85,39.051890807598824L193.02499999999998,38.79388258829712L193.725,43.48359987735748L193.9,43.094681462645525L194.25,46.27000615596771L194.42499999999998,41.61063604652881L194.6,45.67104299217462L194.775,45.73767476379871L194.95000000000002,48.602120152115816L195.125,47.547862759232515L195.3,46.080871655046934L195.65,54.660048609971994L195.825,51.821486732363695L196,51.7606882661581L196.175,51.35520291924476L196.525,46.33239672929048L196.70000000000002,49.3921567261219L196.875,46.90587556958198L197.04999999999998,48.10836005806922L197.225,44.68785816282033L197.39999999999998,41.587145669758314L197.75,47.206289803981775L197.925,44.29376556575298L198.275,49.09269470572471L198.45,48.80669630169868L198.625,47.17246498763561L198.79999999999998,47.99179208874702L198.975,49.71981382966041L199.15,52.74029367268085L199.5,50.0476738423109L199.85,50.72751750648021L200.375,53.266413128376L200.55,48.792265883088106L200.72500000000002,50.980164548754686L200.9,50.276040753722185L201.25,46.74875760674476L201.42499999999998,51.910339704155916L201.6,50.707790231704706L201.95,49.89962180554866L202.125,51.773047155141825L202.3,60.62488157153129L202.475,60.777124410867685L202.825,62.19904250502586L203,59.508918589353556L203.17499999999998,60.42689002156257L203.35,63.92925513386726L203.525,57.240670567750925L203.70000000000002,57.00153753757476L203.875,49.11257714629173L204.05,57.71482141911983L204.225,52.514364323019976L204.575,49.866702786087984L204.75,49.91896182894706L205.10000000000002,47.90754502117633L205.45000000000002,50.18497832715511L205.625,51.452590009570116L205.975,49.421232408285135L206.14999999999998,52.79951130449771L206.325,49.098089700937265L206.5,43.39336301237344L206.675,52.702545946836466L206.85,49.23003367185592L207.375,46.072726777195925L207.54999999999998,48.080098664760584L207.725,42.58671574145555L207.9,39.41089770048856L208.25,38.8259800247848L208.425,43.325934192538256L208.6,40.164775671809906L208.775,35.36439562393352L208.95,40.11617628708481L209.47500000000002,41.382771766185755L209.82500000000002,37.21150880903005L210,40.237939326465124L210.35,47.327417260408396L210.52499999999998,44.770277722179884L210.875,53.39413446784019L211.05,42.43556304126977L211.225,43.86438601315021L211.4,51.2992053091526L211.75,44.92664903253316L211.92499999999998,48.06775569021701L212.1,53.666234260797495L212.45000000000002,58.56655827760696L212.625,56.30572108030319L212.8,47.40006004869937L212.975,62.50959954261779L213.325,63.12657321095466L213.5,59.20400322079658L213.85000000000002,57.334251454472536L214.20000000000002,49.79798688590526L214.375,52.4700850456953L214.725,50.730935132503504L214.89999999999998,47.36968336105346L215.075,47.80388366281986L215.25,48.03024535477161L215.6,40.71415043473243L215.95,46.607153570652L216.125,42.56394416689872L216.29999999999998,45.937110549211496L216.475,43.96541618406772L216.65,44.44100066125392L216.82500000000002,43.17790801674127L217,47.22912437319755L217.175,44.33067977279424L217.35,46.07538780421018L217.525,42.397205261886114L217.875,43.14746236652135L218.05,46.83231637477874L218.22500000000002,45.62984050661325L218.4,39.929394139349455L218.92499999999998,40.74441737905144L219.1,42.843206121027464L219.27499999999998,42.459601803123945L219.45,37.78638148903846L219.625,39.81018172055482L219.975,45.14666285216808L220.15,45.389979390799994L220.325,46.683975888788694L220.5,39.467771267890924L220.67499999999998,44.98911519944667L221.55,49.44616237878799L221.725,46.05421695709228L221.9,38.63700533136725L222.075,42.22998627126216L222.25,37.514223011583084L222.425,44.6511110574007L222.60000000000002,47.89485192894935L222.775,51.4266030550003L222.95000000000002,54.2464959681034L223.125,52.25888318419456L223.29999999999998,54.703894218802446L223.475,55.56771411597728L223.64999999999998,59.782556778192514L223.825,56.65844607949256L224,52.18330816030502L224.175,45.86850472390651L224.35,47.22079846858978L224.525,37.874318717420095L224.7,38.25618686936795L224.875,36.34371908791363L225.04999999999998,32.74032065495848L225.225,31.311218517273655L225.4,34.187552821263665L225.57500000000002,34.276011413335794L225.925,34.72477873265743L226.275,37.17894952222704L226.45,38.44998612478375L226.625,36.56188873890787L226.8,40.865730835497374L226.97500000000002,36.03845704151317L227.32500000000002,34.481845715455705L227.67499999999998,34.724916906468565L227.85,35.092976504843676L228.02499999999998,37.05250432193279L228.2,37.89224915243685L228.55,42.23940098881721L228.725,34.84818618129938L228.9,34.648863123171026L229.075,39.316104663908476L229.25,42.53922638893127L229.775,39.03904918059706L229.95000000000002,36.53998151738196L230.475,37.65990048125386L230.65,39.13467706218361L230.825,34.220652950368816L231.35000000000002,37.32061572410166L231.525,38.133660268411035L231.875,38.61469196006655L232.04999999999998,41.74653077721595L232.225,41.49037990570068L232.39999999999998,37.89540319554507L232.575,34.292472746595735L232.75,33.87102272957563L232.925,39.59847092851996L233.1,38.47209194526076L233.275,45.081958054006094L233.45,49.232866442203516L233.79999999999998,42.62014999091625L233.975,41.53502123653888L234.15,44.53561532348394L234.5,49.599841496348375L234.675,49.430249264836306L234.85,50.34501526355743L235.025,49.49788563549518L235.2,45.21297898739576L235.375,47.20906687378883L235.55,45.63312816470861L235.72500000000002,47.804846486449236L236.07500000000002,47.38284062445163L236.25,47.50293496847152L236.6,47.92872714102268L236.77499999999998,49.037922507524485L236.95,43.1356790497899L237.125,48.97822744250297L237.3,46.50122970938682L237.475,44.427428296208376L237.65,43.050278185307974L237.825,44.27123933881521L238,46.10529965758323L238.17499999999998,44.67357959449291L238.35,44.5140161126852L238.525,42.32477532923221L238.70000000000002,47.91314557790756L238.875,42.56951952576637L239.225,46.09449308961629L239.4,44.5653096795082L239.575,45.07002355009317L239.75,51.48707394897937L240.10000000000002,41.17568378746509L240.275,47.265438473224634L240.975,46.48404609262943L241.325,47.97412573397159L241.5,46.62792125195264L241.85,50.46243067681789L242.025,49.605231186747545L242.2,44.181544227898115L242.375,45.41511359661817L242.54999999999998,42.332350602746004L242.9,42.85369904190301L243.07500000000002,28.148139654099932L243.25,27.743596574664107L243.425,29.618932320177546L243.6,33.85912966951727L243.775,38.20949622280895L243.95,31.330633471161118L244.125,44.318573525547976L244.3,41.09174837768077L244.47500000000002,45.900462245941156L244.65,53.49636485278606L244.82500000000002,54.85723515450954L245,66.10625506043434L245.17499999999998,42.20258558392524L245.35,57.127109101414675L245.52499999999998,27.781128792464724L245.7,48.983548170328135L246.05,46.668850539624685L246.225,45.16279876828193L246.575,47.204775279760355L246.75,45.77139679938554L246.92499999999998,46.23824822753667L247.275,45.322420603036875L247.45000000000002,44.64560267180204L247.625,49.48507981598377L247.8,40.04932105019688L247.975,46.86037883758544L248.15,43.881252004206175L248.5,46.7341813057661L248.85000000000002,42.81190374344587L249.20000000000002,43.92759949564933L249.725,43.19039422124624L249.89999999999998,45.895464448630804L250.075,43.018875679373735L250.25,44.86220947504043L250.425,44.20166538506746L250.6,47.24942191541194L250.95,43.13012358397245L251.125,42.888228735327715L251.29999999999998,46.018040782213205L251.475,42.39143097251653L251.65,45.50676552057266L251.82500000000002,42.63822614252567L252,37.8123197056353L252.175,43.440174011886114L252.35,44.68513215184211L252.525,44.78933062255382L252.875,39.05844457298517L253.05,43.209651356935495L253.22500000000002,44.096070422232145L253.57500000000002,39.1586969256401L253.75,44.52196670174598L253.92499999999998,47.077886795997614L254.1,50.009495100378984L254.27499999999998,49.51725616157054L254.45,50.78358407914638L254.625,52.89207101464271L254.8,50.28420220911502L254.975,50.2674708276987L255.15,47.72611377239227L255.325,39.84845031276345L255.5,38.25210995450615L255.67499999999998,38.589589583128685L255.85,36.58543357290327L256.2,31.078480108082285L256.375,28.387931807339182L256.55,30.13824205324053L256.725,28.613656921684733L256.9,27.772812171280375L257.075,28.523126302659502L257.25,29.442284686863413L257.425,32.509312609583134L257.6,31.97350556999444L257.95,29.4782877922058L258.125,35.06276497095823L258.47499999999997,31.894212203472843L259,30.3690471895039L259.175,39.056592530012125L259.35,42.43438338339328L259.7,46.88217233717441L259.875,47.11010955870151L260.05,49.53797013163566L260.40000000000003,50.06201407909393L260.575,47.30070089399814L260.75,50.605185857415194L260.925,50.45867884755134L261.1,47.078983566164965L261.275,50.53329635262489L261.45,44.1058279633522L261.625,47.687261319160456L261.8,47.69988677501678L261.975,46.7776038557291L262.325,43.445483466982836" style="fill: none;" fill="none"></path></g></g></g></g></g></g><g transform="translate(50, 178)" clip-path="url(#clip_1)"><clipPath id="clip_1"><rect width="280" height="22"></rect></clipPath><g><g><line x1="0" y1="0" x2="0" y2="5" style="visibility: inherit;" fill="rgb(0, 0, 0)" stroke="rgb(204, 204, 204)" stroke-width="1px"></line><line x1="35" y1="0" x2="35" y2="5" style="visibility: inherit;" fill="rgb(0, 0, 0)" stroke="rgb(204, 204, 204)" stroke-width="1px"></line><line x1="70" y1="0" x2="70" y2="5" style="visibility: inherit;" fill="rgb(0, 0, 0)" stroke="rgb(204, 204, 204)" stroke-width="1px"></line><line x1="105" y1="0" x2="105" y2="5" style="visibility: inherit;" fill="rgb(0, 0, 0)" stroke="rgb(204, 204, 204)" stroke-width="1px"></line><line x1="140" y1="0" x2="140" y2="5" style="visibility: inherit;" fill="rgb(0, 0, 0)" stroke="rgb(204, 204, 204)" stroke-width="1px"></line><line x1="175" y1="0" x2="175" y2="5" style="visibility: inherit;" fill="rgb(0, 0, 0)" stroke="rgb(204, 204, 204)" stroke-width="1px"></line><line x1="210" y1="0" x2="210" y2="5" style="visibility: inherit;" fill="rgb(0, 0, 0)" stroke="rgb(204, 204, 204)" stroke-width="1px"></line><line x1="245" y1="0" x2="245" y2="5" style="visibility: inherit;" fill="rgb(0, 0, 0)" stroke="rgb(204, 204, 204)" stroke-width="1px"></line><line x1="280" y1="0" x2="280" y2="5" style="visibility: inherit;" fill="rgb(0, 0, 0)" stroke="rgb(204, 204, 204)" stroke-width="1px"></line></g><g transform="translate(0, 8)"><text x="0" y="0" dx="0em" dy="0.95em" style="text-anchor: middle; visibility: hidden; font-family: Roboto, sans-serif; font-size: 12px; font-weight: 200;" fill="rgb(50, 49, 63)" stroke="none" stroke-width="1px">-200</text><text x="35" y="0" dx="0em" dy="0.95em" style="text-anchor: middle; visibility: inherit; font-family: Roboto, sans-serif; font-size: 12px; font-weight: 200;" fill="rgb(50, 49, 63)" stroke="none" stroke-width="1px">0</text><text x="70" y="0" dx="0em" dy="0.95em" style="text-anchor: middle; visibility: inherit; font-family: Roboto, sans-serif; font-size: 12px; font-weight: 200;" fill="rgb(50, 49, 63)" stroke="none" stroke-width="1px">200</text><text x="105" y="0" dx="0em" dy="0.95em" style="text-anchor: middle; visibility: inherit; font-family: Roboto, sans-serif; font-size: 12px; font-weight: 200;" fill="rgb(50, 49, 63)" stroke="none" stroke-width="1px">400</text><text x="140" y="0" dx="0em" dy="0.95em" style="text-anchor: middle; visibility: inherit; font-family: Roboto, sans-serif; font-size: 12px; font-weight: 200;" fill="rgb(50, 49, 63)" stroke="none" stroke-width="1px">600</text><text x="175" y="0" dx="0em" dy="0.95em" style="text-anchor: middle; visibility: inherit; font-family: Roboto, sans-serif; font-size: 12px; font-weight: 200;" fill="rgb(50, 49, 63)" stroke="none" stroke-width="1px">800</text><text x="210" y="0" dx="0em" dy="0.95em" style="text-anchor: middle; visibility: inherit; font-family: Roboto, sans-serif; font-size: 12px; font-weight: 200;" fill="rgb(50, 49, 63)" stroke="none" stroke-width="1px">1k</text><text x="245" y="0" dx="0em" dy="0.95em" style="text-anchor: middle; visibility: inherit; font-family: Roboto, sans-serif; font-size: 12px; font-weight: 200;" fill="rgb(50, 49, 63)" stroke="none" stroke-width="1px">1.2k</text><text x="280" y="0" dx="0em" dy="0.95em" style="text-anchor: middle; visibility: hidden; font-family: Roboto, sans-serif; font-size: 12px; font-weight: 200;" fill="rgb(50, 49, 63)" stroke="none" stroke-width="1px">1.4k</text></g><line x1="0" y1="0" x2="280" y2="0" fill="rgb(0, 0, 0)" stroke="rgb(204, 204, 204)" stroke-width="1px"></line></g></g></g></g></svg>