<svg viewBox="0 0 330 200" xmlns="http://www.w3.org/2000/svg"><g><g><g><g><g><line x1="50" y1="178" x2="45" y2="178" style="visibility: inherit;" fill="rgb(0, 0, 0)" stroke="rgb(204, 204, 204)" stroke-width="1px"></line><line x1="50" y1="161.8181818181818" x2="45" y2="161.8181818181818" style="visibility: inherit;" fill="rgb(0, 0, 0)" stroke="rgb(204, 204, 204)" stroke-width="1px"></line><line x1="50" y1="145.63636363636363" x2="45" y2="145.63636363636363" style="visibility: inherit;" fill="rgb(0, 0, 0)" stroke="rgb(204, 204, 204)" stroke-width="1px"></line><line x1="50" y1="129.45454545454547" x2="45" y2="129.45454545454547" style="visibility: inherit;" fill="rgb(0, 0, 0)" stroke="rgb(204, 204, 204)" stroke-width="1px"></line><line x1="50" y1="113.27272727272727" x2="45" y2="113.27272727272727" style="visibility: inherit;" fill="rgb(0, 0, 0)" stroke="rgb(204, 204, 204)" stroke-width="1px"></line><line x1="50" y1="97.09090909090908" x2="45" y2="97.09090909090908" style="visibility: inherit;" fill="rgb(0, 0, 0)" stroke="rgb(204, 204, 204)" stroke-width="1px"></line><line x1="50" y1="80.90909090909092" x2="45" y2="80.90909090909092" style="visibility: inherit;" fill="rgb(0, 0, 0)" stroke="rgb(204, 204, 204)" stroke-width="1px"></line><line x1="50" y1="64.72727272727273" x2="45" y2="64.72727272727273" style="visibility: inherit;" fill="rgb(0, 0, 0)" stroke="rgb(204, 204, 204)" stroke-width="1px"></line><line x1="50" y1="48.54545454545454" x2="45" y2="48.54545454545454" style="visibility: inherit;" fill="rgb(0, 0, 0)" stroke="rgb(204, 204, 204)" stroke-width="1px"></line><line x1="50" y1="32.36363636363635" x2="45" y2="32.36363636363635" style="visibility: inherit;" fill="rgb(0, 0, 0)" stroke="rgb(204, 204, 204)" stroke-width="1px"></line><line x1="50" y1="16.181818181818187" x2="45" y2="16.181818181818187" style="visibility: inherit;" fill="rgb(0, 0, 0)" stroke="rgb(204, 204, 204)" stroke-width="1px"></line><line x1="50" y1="0" x2="45" y2="0" style="visibility: inherit;" fill="rgb(0, 0, 0)" stroke="rgb(204, 204, 204)" stroke-width="1px"></line></g><g transform="translate(40, 0)"><text x="0" y="178" dx="0em" dy="0.3em" style="text-anchor: end; visibility: hidden; font-family: Roboto, sans-serif; font-size: 12px; font-weight: 200;" fill="rgb(50, 49, 63)" stroke="none" stroke-width="1px">-0.5</text><text x="0" y="161.8181818181818" dx="0em" dy="0.3em" style="text-anchor: end; visibility: inherit; font-family: Roboto, sans-serif; font-size: 12px; font-weight: 200;" fill="rgb(50, 49, 63)" stroke="none" stroke-width="1px">0</text><text x="0" y="145.63636363636363" dx="0em" dy="0.3em" style="text-anchor: end; visibility: hidden; font-family: Roboto, sans-serif; font-size: 12px; font-weight: 200;" fill="rgb(50, 49, 63)" stroke="none" stroke-width="1px">0.5</text><text x="0" y="129.45454545454547" dx="0em" dy="0.3em" style="text-anchor: end; visibility: inherit; font-family: Roboto, sans-serif; font-size: 12px; font-weight: 200;" fill="rgb(50, 49, 63)" stroke="none" stroke-width="1px">1</text><text x="0" y="113.27272727272727" dx="0em" dy="0.3em" style="text-anchor: end; visibility: hidden; font-family: Roboto, sans-serif; font-size: 12px; font-weight: 200;" fill="rgb(50, 49, 63)" stroke="none" stroke-width="1px">1.5</text><text x="0" y="97.09090909090908" dx="0em" dy="0.3em" style="text-anchor: end; visibility: inherit; font-family: Roboto, sans-serif; font-size: 12px; font-weight: 200;" fill="rgb(50, 49, 63)" stroke="none" stroke-width="1px">2</text><text x="0" y="80.90909090909092" dx="0em" dy="0.3em" style="text-anchor: end; visibility: hidden; font-family: Roboto, sans-serif; font-size: 12px; font-weight: 200;" fill="rgb(50, 49, 63)" stroke="none" stroke-width="1px">2.5</text><text x="0" y="64.72727272727273" dx="0em" dy="0.3em" style="text-anchor: end; visibility: inherit; font-family: Roboto, sans-serif; font-size: 12px; font-weight: 200;" fill="rgb(50, 49, 63)" stroke="none" stroke-width="1px">3</text><text x="0" y="48.54545454545454" dx="0em" dy="0.3em" style="text-anchor: end; visibility: hidden; font-family: Roboto, sans-serif; font-size: 12px; font-weight: 200;" fill="rgb(50, 49, 63)" stroke="none" stroke-width="1px">3.5</text><text x="0" y="32.36363636363635" dx="0em" dy="0.3em" style="text-anchor: end; visibility: inherit; font-family: Roboto, sans-serif; font-size: 12px; font-weight: 200;" fill="rgb(50, 49, 63)" stroke="none" stroke-width="1px">4</text><text x="0" y="16.181818181818187" dx="0em" dy="0.3em" style="text-anchor: end; visibility: hidden; font-family: Roboto, sans-serif; font-size: 12px; font-weight: 200;" fill="rgb(50, 49, 63)" stroke="none" stroke-width="1px">4.5</text><text x="0" y="0" dx="0em" dy="0.3em" style="text-anchor: end; visibility: hidden; font-family: Roboto, sans-serif; font-size: 12px; font-weight: 200;" fill="rgb(50, 49, 63)" stroke="none" stroke-width="1px">5</text></g><line x1="50" y1="0" x2="50" y2="178" fill="rgb(0, 0, 0)" stroke="rgb(204, 204, 204)" stroke-width="1px"></line></g></g><g transform="translate(50, 0)" clip-path="url(#clip_0)"><clipPath id="clip_0"><rect width="280" height="178"></rect></clipPath><g><g><g><line x1="0" y1="0" x2="0" y2="178" fill="rgb(0, 0, 0)" stroke="rgb(60, 60, 60)" stroke-width="1px" opacity="0.25"></line><line x1="31.11111111111111" y1="0" x2="31.11111111111111" y2="178" fill="rgb(0, 0, 0)" stroke="rgb(60, 60, 60)" stroke-width="1px" opacity="0.25"></line><line x1="62.22222222222222" y1="0" x2="62.22222222222222" y2="178" fill="rgb(0, 0, 0)" stroke="rgb(60, 60, 60)" stroke-width="1px" opacity="0.25"></line><line x1="93.33333333333333" y1="0" x2="93.33333333333333" y2="178" fill="rgb(0, 0, 0)" stroke="rgb(60, 60, 60)" stroke-width="1px" opacity="0.25"></line><line x1="124.44444444444444" y1="0" x2="124.44444444444444" y2="178" fill="rgb(0, 0, 0)" stroke="rgb(60, 60, 60)" stroke-width="1px" opacity="0.25"></line><line x1="155.55555555555557" y1="0" x2="155.55555555555557" y2="178" fill="rgb(0, 0, 0)" stroke="rgb(60, 60, 60)" stroke-width="1px" opacity="0.25"></line><line x1="186.66666666666666" y1="0" x2="186.66666666666666" y2="178" fill="rgb(0, 0, 0)" stroke="rgb(60, 60, 60)" stroke-width="1px" opacity="0.25"></line><line x1="217.77777777777777" y1="0" x2="217.77777777777777" y2="178" fill="rgb(0, 0, 0)" stroke="rgb(60, 60, 60)" stroke-width="1px" opacity="0.25"></line><line x1="248.88888888888889" y1="0" x2="248.88888888888889" y2="178" fill="rgb(0, 0, 0)" stroke="rgb(60, 60, 60)" stroke-width="1px" opacity="0.25"></line><line x1="280" y1="0" x2="280" y2="178" fill="rgb(0, 0, 0)" stroke="rgb(60, 60, 60)" stroke-width="1px" opacity="0.25"></line></g><g><line x1="0" y1="178" x2="280" y2="178" fill="rgb(0, 0, 0)" stroke="rgb(60, 60, 60)" stroke-width="1px" opacity="0.25"></line><line x1="0" y1="161.8181818181818" x2="280" y2="161.8181818181818" fill="rgb(0, 0, 0)" stroke="rgb(60, 60, 60)" stroke-width="1px" opacity="0.25"></line><line x1="0" y1="145.63636363636363" x2="280" y2="145.63636363636363" fill="rgb(0, 0, 0)" stroke="rgb(60, 60, 60)" stroke-width="1px" opacity="0.25"></line><line x1="0" y1="129.45454545454547" x2="280" y2="129.45454545454547" fill="rgb(0, 0, 0)" stroke="rgb(60, 60, 60)" stroke-width="1px" opacity="0.25"></line><line x1="0" y1="113.27272727272727" x2="280" y2="113.27272727272727" fill="rgb(0, 0, 0)" stroke="rgb(60, 60, 60)" stroke-width="1px" opacity="0.25"></line><line x1="0" y1="97.09090909090908" x2="280" y2="97.09090909090908" fill="rgb(0, 0, 0)" stroke="rgb(60, 60, 60)" stroke-width="1px" opacity="0.25"></line><line x1="0" y1="80.90909090909092" x2="280" y2="80.90909090909092" fill="rgb(0, 0, 0)" stroke="rgb(60, 60, 60)" stroke-width="1px" opacity="0.25"></line><line x1="0" y1="64.72727272727273" x2="280" y2="64.72727272727273" fill="rgb(0, 0, 0)" stroke="rgb(60, 60, 60)" stroke-width="1px" opacity="0.25"></line><line x1="0" y1="48.54545454545454" x2="280" y2="48.54545454545454" fill="rgb(0, 0, 0)" stroke="rgb(60, 60, 60)" stroke-width="1px" opacity="0.25"></line><line x1="0" y1="32.36363636363635" x2="280" y2="32.36363636363635" fill="rgb(0, 0, 0)" stroke="rgb(60, 60, 60)" stroke-width="1px" opacity="0.25"></line><line x1="0" y1="16.181818181818187" x2="280" y2="16.181818181818187" fill="rgb(0, 0, 0)" stroke="rgb(60, 60, 60)" stroke-width="1px" opacity="0.25"></line><line x1="0" y1="0" x2="280" y2="0" fill="rgb(0, 0, 0)" stroke="rgb(60, 60, 60)" stroke-width="1px" opacity="0.25"></line></g></g></g><g><g><line x1="0" y1="161.8181818181818" x2="280" y2="161.8181818181818" fill="rgb(0, 0, 0)" stroke="rgb(153, 153, 153)" stroke-width="1.5px"></line></g></g><g><g><line x1="31.11111111111111" y1="0" x2="31.11111111111111" y2="178" fill="rgb(0, 0, 0)" stroke="rgb(153, 153, 153)" stroke-width="1.5px"></line></g></g><g><g><g><g><g><path stroke="rgb(238, 51, 119)" stroke-width="2px" d="M32.355555555555554,95.95538581501353L32.977777777777774,131.91359883488184L33.16444444444445,143.1510102623772L33.53777777777778,146.49551151659398L34.284444444444446,147.75729688364913L34.53333333333333,150.32701859311905L34.65777777777778,150.47439875655076L34.782222222222224,150.06445487426487L34.84444444444444,148.29856332709022L34.968888888888884,148.6535202410642L35.342222222222226,148.22387231995708L35.404444444444444,149.84258427543426L35.46666666666667,147.59921234642152L35.528888888888886,146.76056082255843L36.08888888888889,149.07391594776485L36.462222222222216,149.02266876344774L36.52444444444445,148.48787833426513L36.586666666666666,144.55765586657188L36.64888888888889,148.2411487060701L36.96,147.01115965467278L37.45777777777778,145.377809556272L37.89333333333333,142.26432393433356L38.39111111111111,141.07382140790935L38.577777777777776,139.80249059832772L38.64,142.86168321982646L39.07555555555555,138.30393184053386L39.38666666666666,136.39918116931028L39.88444444444445,139.95626116878722L40.07111111111111,136.0590732667687L40.13333333333333,138.0947773757254L40.693333333333335,138.90714939419763L40.81777777777778,138.676533679064L40.879999999999995,138.7812824122326L40.94222222222222,136.7788891346656L41.37777777777778,132.92264607243877L41.68888888888888,132.80072022196293L41.81333333333334,134.31429739737047L41.87555555555556,135.67159263850004L42.12444444444444,134.57487835159893L42.43555555555555,136.51200479972638L42.497777777777785,137.87248826789437L42.684444444444445,132.41773442246256L43.05777777777778,130.50583318227902L43.12,127.39169586462205L43.24444444444444,125.03299809811085L43.431111111111115,131.44669532279752L43.55555555555556,122.92191091640743L43.617777777777775,128.39711450186275L43.742222222222225,129.69597115483316L43.86666666666667,130.35426430861867L43.928888888888885,133.85959641477484L44.364444444444445,133.41961660716746L44.86222222222222,130.3269232800366L44.92444444444445,130.49840344557774L44.98666666666667,129.1488550127786L45.23555555555556,127.39298417072396L45.92,128.60661856664964L46.044444444444444,125.94431549951625L46.29333333333334,126.15066175763486L46.480000000000004,125.16144329116783L46.60444444444445,126.5103981314396L46.79111111111111,128.99505874136435L47.53777777777778,121.45435378846051L47.91111111111111,119.34908528154241L48.09777777777778,125.82860198350095L48.22222222222222,126.09966443031963L48.284444444444446,122.18040709974552L48.40888888888889,123.28694025617311L48.65777777777778,120.79010297567868L48.906666666666666,116.82584879586358L49.03111111111111,122.1217205916943L49.342222222222226,124.2303074466749L50.21333333333334,122.82627205811193L50.52444444444444,115.97194719727521L50.586666666666666,118.90611379279963L50.83555555555556,118.90315822852645L50.89777777777778,114.98602825269089L51.14666666666667,113.44516123827182L51.208888888888886,113.55380185486287L51.33333333333333,115.60667172442047L51.519999999999996,111.00476109082565L51.83111111111111,110.55897986561392L51.89333333333333,119.15285634202688L52.266666666666666,110.73687367757853L52.32888888888888,121.95967770537325L52.391111111111115,122.1065788293073L52.577777777777776,111.63080040296198L53.13777777777778,113.14339515031692L53.635555555555555,117.16718475254987L54.44444444444444,111.82915999676574L54.63111111111112,114.39613380372963L54.88,110.33268588957056L55.25333333333333,103.95225834911065L55.50222222222222,103.5530380249348L55.56444444444445,102.24118723180463L55.626666666666665,105.8132878166745L56.06222222222222,103.6905178553582L56.373333333333335,113.32991155092694L56.43555555555555,113.3904139053143L57.43111111111111,104.55184385099459L57.86666666666667,90.87580495272597L58.239999999999995,95.03228361413687L58.30222222222222,104.52521632691828L58.42666666666667,96.67637253542134L58.8,104.38899743363663L59.36,92.58640695551466L59.48444444444444,97.0073439459411L59.54666666666667,98.47565057585103L59.733333333333334,91.84235999387718L60.10666666666667,94.44860636764027L60.66666666666667,80.7154277845188L60.85333333333333,88.1282094355362L60.91555555555556,93.48715361605802L61.47555555555556,97.89533146655467L61.53777777777778,96.34874139812756L62.22222222222222,86.3568138052127L62.40888888888889,85.4111207839829L62.471111111111114,79.11376333999549L62.595555555555556,75.86369625897531L62.72,85.55736277972517L63.59111111111112,86.92440302849198L63.90222222222222,84.58359025020575L64.02666666666667,79.56926475806047L64.21333333333334,85.41687262475077L64.71111111111111,85.81794444086836L65.08444444444444,79.64812984362331L65.2088888888889,86.53739800364406L65.39555555555555,98.14504925415275L65.45777777777778,90.88536477868374L65.64444444444445,90.96244248565353L65.7688888888889,88.35988701993233L66.08,94.0865853746272L66.14222222222222,98.08976769197666L66.70222222222222,86.82385051470537L66.82666666666667,86.49167471149173L67.07555555555555,90.5015535529283L67.13777777777779,85.87240249666446L67.44888888888889,88.18467672973756L67.69777777777777,90.5884873210334L67.75999999999999,87.74447748115888L68.07111111111111,89.83711960767212L68.19555555555556,90.61662867903729L68.25777777777778,81.06408157550669L68.32,90.85272818178655L68.38222222222223,99.31291938036507L68.50666666666667,103.28258673449261L68.56888888888889,103.88861202856282L68.88,93.17770913128236L68.94222222222223,91.52608213585636L69.37777777777778,99.23813108468194L69.50222222222223,78.77123039383521L69.87555555555555,86.1244100507754L70,95.92762061174429L70.31111111111112,101.55902131914003L70.62222222222222,102.2772554440311L70.74666666666666,98.24932791462149L71.49333333333334,88.68256619517496L71.92888888888889,95.12454066920125L71.99111111111111,96.04250861087745L72.11555555555555,99.27505153360288L72.17777777777778,80.12068799999184L72.24000000000001,77.75122445418849L72.30222222222223,76.86683792779111L72.42666666666666,82.72680438439117L72.61333333333334,87.10189911848195L72.86222222222223,96.56763578162456L73.17333333333333,87.77405923156043L73.36,92.14089808955087L73.60888888888888,88.53966798313854L73.79555555555555,84.93904824226912L73.85777777777778,86.2100467955299L73.98222222222223,89.72735739532219L74.04444444444444,81.72714412269907L74.23111111111112,86.97443283322174L74.29333333333332,80.71195837534258L74.48,89.08639743492968L74.54222222222224,91.9130538141936L74.85333333333332,101.72409780258616L74.91555555555556,85.067763375701L75.35111111111112,86.51172333092413L75.53777777777778,100.02673598518689L75.78666666666666,83.33265110786303L75.97333333333333,76.76672485650339L76.09777777777778,86.6050855588204L76.22222222222221,95.18463044189575L76.47111111111111,98.89555542324452L76.72,91.26342737866429L76.90666666666667,87.55726983749094L76.9688888888889,91.23381796903075L77.0311111111111,75.06089147002552L77.09333333333333,69.42541774181679L77.46666666666667,78.64191580749406L77.84,86.14589620489954L77.96444444444444,97.90509094190566L78.02666666666667,75.87671252036662L78.27555555555556,67.28880709866019L78.46222222222222,83.67466763413522L78.52444444444444,79.08185698471505L78.71111111111111,73.0418789527842L78.77333333333333,64.07208516661194L78.83555555555556,81.57881389231898L78.96,76.72380643787153L79.08444444444444,80.41100045153895L79.45777777777778,80.5443290415176L79.64444444444445,89.59630210468438L79.70666666666666,87.90296350440231L79.89333333333333,80.78934621375936L79.95555555555556,72.15419287938496L80.01777777777778,82.79863595556247L80.14222222222222,83.9204397027199L80.20444444444445,78.38351882729789L80.57777777777778,79.31754462678411L80.82666666666667,79.11657341733797L80.88888888888889,71.81874959461892L81.01333333333334,74.14405865623651L81.13777777777779,80.7054019418777L81.26222222222222,68.27566546950692L81.32444444444445,67.00495724049237L81.38666666666667,77.71399497208198L81.44888888888889,63.872402162671285L81.5111111111111,76.33686372142719L81.69777777777779,72.56432140287681L81.94666666666667,86.58377272655228L82.13333333333334,89.09021099120196L82.25777777777779,88.63178221555178L82.32,93.03858681143478L82.38222222222223,89.37745435817263L82.75555555555556,93.25875270403475L82.81777777777776,87.89631752698105L82.94222222222223,90.69740227649784L83.12888888888888,90.52646621800652L83.37777777777777,81.55820774173205L83.56444444444445,81.59047099263124L83.75111111111111,82.26678736507444L83.81333333333333,90.64666661333594L83.93777777777777,74.07211458026754L84.06222222222222,66.45575866617129L84.18666666666667,75.35899977735563L84.49777777777777,68.23310089610662L84.68444444444445,70.44847915200594L85.99111111111111,76.70049664723633L86.11555555555556,79.97067969206842L86.17777777777778,69.41927948905283L86.42666666666666,70.54392099768833L86.55111111111111,74.35898363271973L86.8,76.31684527081401L86.92444444444445,60.80941098300257L87.04888888888888,77.18430415384607L87.23555555555555,79.2420668569174L87.36,69.31598221834268L87.42222222222223,70.19029061521066L87.79555555555555,70.9650236751284L88.04444444444445,77.86146617788123L88.48,79.12871507509843L88.54222222222222,79.98419535175998L88.60444444444444,77.22251983282432L88.66666666666666,79.7152739861337L88.97777777777777,83.5149355956352L89.10222222222222,84.21023950861746L89.28888888888889,89.17235122691824L89.35111111111111,92.58136070260628L89.41333333333334,88.69882778782306L89.47555555555554,78.48810606377364L89.97333333333334,69.31228420573808L90.03555555555555,83.36923750350256L90.22222222222223,93.54157204052935L90.65777777777778,81.90299784097645L90.84444444444443,89.44107112580795L91.34222222222223,95.35586401073085L91.40444444444444,79.54831595464618L91.52888888888889,83.19266521676231L91.59111111111112,91.5104945704218L91.65333333333332,84.42244923313733L91.84,83.70777147619144L91.90222222222224,74.94984202357176L92.15111111111112,85.15084236995207L92.46222222222221,77.35697904301838L92.52444444444444,65.05600420099371L92.77333333333333,81.73135431383876L92.83555555555556,66.51521405175593L92.89777777777778,78.3727715214956L92.96000000000001,83.6073456095212L93.14666666666666,83.28291460043647L93.2088888888889,80.90861249242658L93.27111111111111,90.55121384669546L93.45777777777778,84.45117907231385L93.52000000000001,64.00655186430039L94.01777777777778,71.66655660456287L94.26666666666667,72.63832027524238L94.3911111111111,71.00211929032409L94.51555555555555,82.26250778980067L94.57777777777778,82.61863045513574L94.76444444444444,79.49536617438025L95.01333333333334,58.157254037575974L95.07555555555555,61.019271247864516L95.13777777777779,65.34141143144532L95.32444444444444,68.33274063921053L95.82222222222222,78.44079992023248L95.94666666666667,91.92965048729735L96.19555555555556,80.1237218617576L96.25777777777778,70.09661161061081L96.44444444444444,75.30187069844492L96.56888888888889,75.13669481423686L96.69333333333333,73.0253066262254L97.00444444444445,83.46741892607821L97.6888888888889,63.80111971744296L97.81333333333333,59.560614931880245L98.18666666666667,67.31552597674427L98.24888888888889,71.34686218314982L98.37333333333333,70.20843527645903L98.49777777777778,75.09425024812799L98.74666666666667,73.37589428828646L98.99555555555555,86.17248267644783L99.11999999999999,78.26719929207117L99.43111111111111,70.34594064727199L99.49333333333334,73.46220539400043L99.55555555555556,75.60200256570897L99.99111111111111,64.0195571065538L100.05333333333333,73.23430057681146L100.42666666666668,71.29327429121918L100.67555555555556,65.83538056781268L100.73777777777777,74.32684880036534L100.8,79.78750346837995L101.36,73.41051869008388L101.48444444444445,72.3653842980821L101.67111111111112,59.0160274888469L102.04444444444445,62.4618860331844L102.10666666666665,78.84194527421225L102.54222222222222,77.47081117638164L102.66666666666666,71.6327880478047L103.53777777777778,66.51331756354445L103.72444444444444,61.163944937230255L103.91111111111111,69.90264760387801L103.97333333333334,61.51579284690091L104.03555555555555,74.51050922922525L104.22222222222223,78.72462678516217L104.28444444444445,80.49002861373718L104.34666666666666,81.71830629077019L105.46666666666667,85.6293150194291L105.65333333333334,85.42521265751245L105.77777777777777,82.14890217555616L106.21333333333334,72.00542069083667L106.27555555555556,64.76193465222553L106.4,55.98838425371704L106.52444444444444,60.22545150190526L106.64888888888889,62.29035914166421L106.77333333333334,60.35210885356919L106.96000000000001,73.06806299285002L107.08444444444444,64.29336958152402L107.2088888888889,67.64187949524222L107.33333333333334,68.25173297232531L107.58222222222223,73.68001337592735L108.20444444444443,79.08415891251147L108.45333333333332,68.67643576979901L108.70222222222223,70.32655244152713L108.76444444444444,59.460517925845664L108.82666666666667,63.50677022148659L108.95111111111112,65.26747827578772L109.13777777777779,70.12285115866014L109.32444444444444,54.107841587344296L109.44888888888889,76.12073374798828L109.63555555555556,78.40425621689127L110.00888888888889,74.97997804847937L110.13333333333333,65.08740134155455L110.25777777777778,70.25846881935567L110.32000000000001,65.53170839381453L110.50666666666666,66.39687385537883L110.56888888888889,70.767772206346L110.63111111111112,77.61186641080944L110.81777777777778,81.06084541901541L111.31555555555555,76.91458712696561L111.62666666666667,87.07536668485699L111.75111111111111,79.83832311484683L112.12444444444444,66.72005853640115L112.37333333333333,73.4107787685419L112.43555555555555,65.51048723901219L112.49777777777778,72.75290834241805L112.56,75.47326747099095L112.93333333333334,73.25845773219335L113.12,66.10493693433395L113.55555555555556,82.63843175573655L113.68,83.95531115584996L113.86666666666667,73.44013823235798L113.92888888888889,64.51088422842605L114.11555555555556,76.76935704094609L114.4888888888889,86.78047191681392L114.61333333333333,78.84829760727094L114.8,68.919191330934L114.98666666666666,59.601402354715695L115.0488888888889,78.18507826289837L115.1111111111111,87.544764649828L115.17333333333333,87.89295316606407L115.23555555555556,71.05819010196717L115.6088888888889,66.6486301700032L116.35555555555555,68.99129221671137L116.72888888888889,78.12333333619459L117.03999999999999,86.27402568642982L117.28888888888888,59.62206276487925L117.72444444444444,59.55804504499242L117.84888888888888,48.919726271031294L118.16,42.23016698694293L118.22222222222223,67.89163267450454L118.40888888888888,75.35761670047908L118.47111111111111,73.86727534575542L118.59555555555556,67.292512809371L118.65777777777777,75.9776276219671L118.84444444444445,75.4255887935998L119.90222222222222,86.31506206714292L119.96444444444445,80.10134297205373L120.02666666666666,74.36832092093465L120.33777777777777,67.92877109627683L120.52444444444446,79.62827491466666L120.77333333333334,67.58836374828414L120.83555555555556,81.97501627426932L120.89777777777778,84.96421719089645L121.14666666666666,87.56140209283963L121.20888888888888,81.74093052350715L121.27111111111111,61.058648289053124L121.39555555555556,42.799367073206525L121.64444444444445,68.75524681699444L121.76888888888888,70.9406983958466L122.57777777777777,73.52944525889738L122.64,72.3829017714375L123.2,74.52794816702821L123.26222222222222,61.36299741571148L123.94666666666666,60.53113963593047L124.44444444444444,55.15616438286205L124.50666666666666,56.86582161546024L124.69333333333334,68.2797062916764L124.81777777777778,63.63873199956292L124.88,71.34455574900952L125.37777777777778,76.06294868599335L125.44,87.32054266252277L125.50222222222223,81.24650194167594L125.75111111111111,79.92709945495761L125.87555555555555,75.53887199825759L126,73.35630549447434L126.49777777777778,79.17982250548957L126.80888888888889,87.25391017694385L126.87111111111112,79.23148656686871L127.05777777777777,69.82195218302256L127.49333333333333,75.94666083152055L127.61777777777777,82.87223725977773L128.24,88.18131362998567L128.5511111111111,58.89772004467694L128.61333333333332,71.53502747196596L128.73777777777778,70.52596726396058L128.8,73.9205929184778L129.17333333333332,82.06066403283243L129.60888888888888,69.47566906516269L129.67111111111112,83.2669684813624L130.2311111111111,85.07311807076377L130.48000000000002,67.31173385262943L130.60444444444445,81.92692278424502L130.85333333333332,79.89174652759046L131.41333333333333,72.08548013924337L131.5377777777778,81.29739130643331L131.72444444444443,79.62446676403617L131.8488888888889,67.71330933381941L131.9111111111111,71.34290236714872L132.22222222222223,83.21273074197813L132.72,88.83648049235127L132.84444444444443,100.33940087255155L133.28,95.76906841375552L133.34222222222223,94.42519025608584L133.5911111111111,76.01687655563018L133.9022222222222,88.13729652172265L134.08888888888887,82.16472880469995L134.21333333333334,76.5200724556284L134.4,87.40075593139989L134.58666666666667,90.40309937345064L134.83555555555557,83.1318224439882L135.2711111111111,86.27612911237041L135.33333333333334,75.83261200550464L135.8311111111111,85.41129737202401L135.95555555555555,66.94446874833099L136.07999999999998,63.368889031454714L136.26666666666668,65.82279225988458L136.32888888888888,79.83812809823742L136.70222222222222,81.35556460615497L136.76444444444445,81.61432880869087L137.26222222222222,83.48642650075854L137.4488888888889,83.72553800234661L137.51111111111112,81.93834976773142L137.57333333333332,83.20709964956137L137.63555555555556,80.74486885731434L137.76,93.0268560387883L137.94666666666666,85.49403082222983L138.38222222222223,82.5846120844937L138.44444444444446,71.50362087474417L138.75555555555556,77.30310171066306L138.88,81.85414426765126L138.94222222222223,84.81368694899885L139.00444444444446,96.25598704962877L139.56444444444446,98.02563060204227L139.81333333333333,100.64510256929168L139.93777777777777,91.51263610774194L140,89.59811647791403L140.12444444444446,91.48869519506204L140.43555555555554,85.94949800876552L140.49777777777777,74.96653037685662L140.62222222222223,76.857810446536L140.68444444444447,85.4700185355323L140.74666666666667,86.46809177762917L140.93333333333334,90.87036110956164L141.05777777777777,102.09104854435492L141.18222222222224,85.58107266808592L141.74222222222224,82.97529396214313L141.9288888888889,86.8940360148723L142.48888888888888,88.02246350059269L142.86222222222221,84.0262632007199L142.92444444444445,88.40810947006173L143.29777777777778,87.0600194471927L143.36,89.68108479253557L143.42222222222222,93.57232617524369L143.92000000000002,92.18810768309908L144.29333333333332,84.04157840410787L144.35555555555555,87.15683494995838L144.85333333333332,83.66694033237927L144.91555555555556,86.52074240561807L145.10222222222222,85.36971343301228L145.5377777777778,90.03262647027013L145.66222222222223,94.51750610931114L145.9111111111111,92.15366962900015L146.53333333333333,99.24709646386917L146.59555555555556,91.21017877999478L146.78222222222223,98.17447650823182L147.09333333333333,85.88468400613961L147.34222222222223,78.522720206185L147.5911111111111,75.32701689737156L148.1511111111111,77.62497097188574L148.27555555555557,79.00002393717948L148.33777777777777,72.63356998516393L148.7111111111111,51.13952586435152L148.77333333333334,57.36488661482089L148.83555555555554,53.126334614966744L148.96,67.16145870645857L149.08444444444447,69.70318288652086L149.8311111111111,66.49843863569404L150.39111111111112,55.98089272811178L150.64000000000001,59.411104051426555L150.95111111111112,53.131581472952114L151.01333333333332,39.265590140193254L151.32444444444442,52.45801595421675L151.38666666666666,59.47735811900992L151.4488888888889,57.40757517638446L151.6977777777778,60.521290392568375L151.76000000000002,60.98941249335913L152.13333333333333,63.64324796715015L152.38222222222223,51.11024372908755L152.44444444444443,53.790075651020636L152.50666666666666,52.7973272564087L152.6311111111111,51.680643401949375L153.00444444444443,64.26826650307284L153.1911111111111,54.55580747516103L153.31555555555556,59.70395875302663L153.50222222222223,68.18539190569743L153.6888888888889,70.19637264800939L153.87555555555556,67.32057011742097L154,85.09910756909758L154.43555555555557,73.7792955336845L154.56,68.75522854528627L155.30666666666667,63.84163227706178L155.36888888888888,63.58828180037596L155.4311111111111,69.3822491704779L156.3022222222222,53.271431782467005L156.5511111111111,44.44580436799313L156.8,48.907395288561965L156.86222222222221,54.72618969165048L157.04888888888888,71.44358924143079L157.11111111111111,65.83476386570202L157.29777777777778,65.5043814472163L157.42222222222222,59.927331975985666L157.54666666666665,63.67161035966884L157.85777777777778,58.04246921366844L158.04444444444442,75.16758672814123L158.1688888888889,60.69105791003204L158.35555555555555,62.15131311313372L158.54222222222222,62.180130119948195L158.7288888888889,59.764528198615025L158.85333333333335,61.03194361859929L159.04,52.9265490540567L159.22666666666666,75.53850037960133L159.2888888888889,77.90849037979972L159.47555555555556,60.03014512957173L159.66222222222223,58.658029247678606L160.2222222222222,61.19350605219522L160.34666666666666,56.55471798810823L160.6577777777778,69.18082734669707L160.9688888888889,78.10275414784778L161.0311111111111,69.53821309943933L161.09333333333333,61.013138641289295L161.2177777777778,71.33486805397735L161.28,71.04509443898574L161.40444444444444,69.89117476070086L161.5288888888889,69.17118474753228L161.71555555555557,80.43422066349544L161.77777777777777,77.75265005301797L162.02666666666667,69.29027348122543L162.33777777777777,63.683448231405485L162.4622222222222,63.022801904357536L162.89777777777778,64.02409740213496L163.0222222222222,64.72520314508954L163.08444444444444,67.82390312290848L163.2711111111111,59.03944700086032L163.39555555555557,60.64774328694572L163.64444444444445,69.34506876939975L163.8311111111111,68.91979064975516L163.95555555555558,81.82838172634459L164.07999999999998,75.74647696692871L164.14222222222222,80.92825380073783L164.45333333333335,75.59268502020066L164.70222222222222,67.84928424191494L164.76444444444445,62.89852906669448L164.82666666666665,70.3547043741533L165.07555555555558,71.2943423334305L165.13777777777776,82.31858637219388L165.26222222222222,79.60061407324145L165.32444444444445,82.63747993135095L165.4488888888889,76.69945120971705L165.51111111111112,78.90373423226394L165.57333333333335,86.61754423174415L165.69777777777776,89.82708858630667L165.76,79.30084307508498L165.88444444444445,69.81674445108614L166.19555555555553,77.76825497844314L166.25777777777776,74.10399577272969L166.63111111111112,84.64023471099716L166.69333333333336,66.82762371551725L166.75555555555553,64.09407212589515L167.00444444444443,77.11038219072232L167.1288888888889,85.2394742234504L167.25333333333336,81.2456683903134L167.50222222222223,86.82212597922958L168.12444444444444,94.70393471922462L168.2488888888889,89.55154200652821L168.37333333333333,85.1328236251367L168.43555555555554,91.65471132693993L168.68444444444444,90.00413334995454L168.8088888888889,72.98199770083097L168.87111111111113,78.15884983383422L168.93333333333334,72.77479924304245L169.12,76.01926407584223L169.3688888888889,81.88235248261091L169.61777777777777,91.57681010808764L169.80444444444444,80.03805757675376L170.42666666666668,92.60345865707075L170.4888888888889,94.9823350237349L170.73777777777778,106.0898114948389L170.86222222222221,102.78661633654852L171.0488888888889,89.84736360148796L171.17333333333332,84.77186877255706L171.23555555555555,76.20633063380885L171.35999999999999,84.05005052020103L171.42222222222222,92.71643805378582L171.48444444444445,91.3605721405136L171.54666666666668,99.36647798601291L171.67111111111112,97.71381347064353L171.79555555555555,96.95027957941639L171.85777777777778,97.6578994772382L172.10666666666668,90.44253250166548L172.1688888888889,87.76104235008764L172.29333333333332,89.90324632419154L172.48,83.4654818419786L172.79111111111112,92.07902377157819L173.53777777777776,99.96770369461066L173.7866666666667,101.27308151383517L173.97333333333333,93.35264820907608L174.28444444444446,97.66713749705632L174.4088888888889,96.00284342254372L174.59555555555553,93.88224113382249L174.9688888888889,89.1807377380739L175.0311111111111,84.79570410731458L175.15555555555554,82.20281758123863L175.34222222222223,82.4340967157263L175.5288888888889,88.20848770063695L175.5911111111111,77.24396651421732L175.65333333333334,75.40871926625204L176.2133333333333,95.18517541562835L176.27555555555554,90.9508720162686L176.33777777777777,88.24427956935318L176.4,72.19346217740753L176.52444444444444,84.48402056402716L176.6488888888889,99.27118488937117L176.83555555555554,96.98203627846476L177.14666666666668,86.70350477655592L177.2711111111111,80.65599822387476L177.33333333333331,86.48365630642422L177.39555555555555,90.23667316886478L177.45777777777778,76.20635916734368L177.95555555555555,81.55476779673398L178.51555555555555,92.75397787791432L178.82666666666668,92.13167484349738L179.32444444444445,86.99524351975106L179.38666666666668,92.7668471098147L179.57333333333332,96.8519398035517L179.82222222222222,94.71701891562137L180.2577777777778,91.01973040868386L180.44444444444446,91.62077811353738L180.6311111111111,96.2162858594021L180.69333333333333,94.04956705240039L180.75555555555556,83.546198982087L180.88,85.57052315961216L181.3777777777778,65.3022599554961L181.50222222222223,76.25107333114019L181.62666666666667,77.90227217904317L181.7511111111111,78.72032533506417L182.37333333333333,78.31606589207753L182.8711111111111,86.89316844473593L182.93333333333334,95.21558833939172L182.99555555555557,84.34156062393807L183.24444444444447,84.37846901896532L183.61777777777777,87.24961286930689L184.11555555555555,91.20117919973379L184.48888888888888,82.18974473706793L184.5511111111111,77.23227926296816L184.61333333333334,87.69963568523183L184.67555555555555,81.43497825513553L184.8,85.09725453377696L184.92444444444442,83.57452137526262L185.11111111111111,76.50129748955155L185.60888888888888,75.42007755909412L186.04444444444442,79.88111638858827L186.29333333333332,74.04730590020077L186.4177777777778,77.61741071969914L186.66666666666666,80.20877697083998L186.7288888888889,75.54269305767251L186.85333333333332,78.10432523240314L187.16444444444443,53.984057088639766L187.3511111111111,73.85699284275849L187.47555555555556,70.22597680574044L187.66222222222223,79.0046379535474L187.72444444444443,87.72576389311212L187.78666666666666,94.59060189901976L188.4088888888889,81.64324099001236L188.4711111111111,87.4061115149759L188.59555555555556,60.961576050631756L188.6577777777778,74.25073974829678L188.72,75.18635360293722L188.7822222222222,81.43671707044429L189.0311111111111,81.1530201548656L189.15555555555557,75.84432559343362L189.3422222222222,73.4104082374566L189.46666666666667,66.86784131414979L189.5911111111111,81.3368451014835L189.71555555555557,79.56333399287654L190.27555555555557,80.25541972315243L190.52444444444444,73.73601263743632L190.64888888888888,73.81483241508904L190.77333333333334,77.38393946246241L190.89777777777778,74.08947524771158L191.08444444444444,64.68242326323114L191.2711111111111,73.41476672640344L191.64444444444445,72.21781552701495L191.70666666666665,65.51412083324072L191.95555555555558,79.28832102255272L192.14222222222222,57.94392626071365L192.32888888888888,63.37730600747315L192.45333333333335,76.44052561762508L192.76444444444445,56.81326167429611L193.01333333333335,65.24146349223744L193.2,67.26928197702608L193.26222222222222,64.94251430992479L193.32444444444442,66.9921337013154L193.38666666666666,70.36109196928264L193.57333333333335,79.61427528388583L193.82222222222222,82.60248761116739L194.19555555555556,77.28651151879174L194.2577777777778,74.22471286309738L194.44444444444443,60.64001345159912L194.75555555555556,70.84759203298499L194.9422222222222,66.63379949895317L195.00444444444443,71.6000945229736L195.1288888888889,74.28835037923801L195.25333333333333,61.74859201983586L195.3777777777778,67.89191345952729L195.44,66.05411426376799L195.62666666666667,67.24622505022111L195.6888888888889,60.20816641893342L195.81333333333333,57.54019335695434L196,44.76424791059102L196.0622222222222,52.10162965484871L196.18666666666667,53.88835712679287L196.56,60.55526708092528L196.74666666666667,51.621630891567285L196.93333333333334,57.696904455750925L196.99555555555557,63.95106296078735L197.24444444444444,59.57529011434158L197.61777777777777,63.50711134787902L198.42666666666668,53.2262261622063L198.67555555555558,61.72062390976081L198.79999999999998,64.3830276032932L199.11111111111111,62.42588662966228L199.29777777777775,63.82173517530535L199.42222222222222,60.585558280371444L199.67111111111112,69.21100429864427L199.98222222222222,59.457169855335465L200.23111111111112,62.32205262705345L200.48,72.44951197148282L200.66666666666666,60.888705935082065L201.6,61.56722468845421L202.22222222222223,49.51131021305715L202.28444444444443,51.3070844612023L202.34666666666666,54.818723203431226L202.53333333333336,55.05744494719743L202.59555555555553,52.17072748084297L202.90666666666667,51.127320765373234L203.28,53.77449504177877L203.34222222222223,67.45668502307313L203.40444444444444,64.72902287690293L203.46666666666667,40.32028952287843L203.5288888888889,50.062938704059384L203.59111111111113,59.80978865430745L203.65333333333334,59.50074690412342L204.15111111111113,53.390602806840725L205.5822222222222,65.09474081545956L205.64444444444445,67.17710020618368L205.70666666666668,66.34451973720408L206.14222222222222,56.44136941487676L206.82666666666668,64.39448121406264L206.8888888888889,60.75936093653879L206.95111111111112,67.58466030487605L207.2,66.22673029772056L207.69777777777776,57.88244947346961L207.76,55.30247998339812L207.9466666666667,54.975017953530255L208.0711111111111,54.351127982336536L208.13333333333333,61.059427403461015L208.25777777777776,60.956966136473135L209.00444444444446,69.35064391414117L209.1288888888889,69.77462093619562L209.31555555555553,64.82069506317276L209.44,64.40260200971255L209.7511111111111,81.32851598841577L209.93777777777777,65.12264846139554L210.12444444444446,76.23414677962883L210.68444444444447,83.10642443301539L210.74666666666667,88.19539531961246L211.12,73.55580204859002L211.24444444444444,72.63854893763101L211.30666666666667,62.413787523585626L211.68,71.49287027283087L211.86666666666667,83.05678313930336L211.9288888888889,80.33229288065075L212.24,79.29592813613475L212.36444444444444,87.4794884163125L212.48888888888888,83.26736444002641L212.67555555555555,88.84965717318158L212.73777777777778,83.49789888153343L213.23555555555555,75.4144888284459L213.54666666666668,70.01009564541896L213.6711111111111,58.958360978614635L213.73333333333332,67.74540738826572L213.79555555555555,59.59723120355013L214.04444444444445,72.84230183405205L214.48000000000002,70.96072280483297L214.7288888888889,70.22325237331816L214.91555555555556,79.85835865803168L214.9777777777778,73.4702224141654L215.10222222222222,76.41334544731573L215.6,77.987711672656L215.9111111111111,73.70453878690243L216.65777777777777,79.8305435137282L216.96888888888887,90.92177345481223L217.09333333333333,90.00793428638308L217.15555555555557,93.45811437883154L217.34222222222223,76.95709774037651L217.96444444444447,76.55180087956728L218.33777777777777,85.55623974501084L218.58666666666664,77.33291889715946L218.89777777777778,71.33153457280476L219.02222222222224,71.59703141759715L219.14666666666665,78.89695494111018L219.2711111111111,81.77061583932559L219.39555555555555,73.25162646404902L219.58222222222224,73.35755098503927L219.64444444444445,77.36578106712423L219.70666666666665,84.5008768624419L219.89333333333335,78.82598412236715L219.95555555555555,76.78718079546552L220.01777777777778,76.369855503085L220.26666666666665,77.3732282439662L220.39111111111112,80.73894883941739L220.57777777777778,83.30166588292998L220.64000000000001,70.33504151623742L220.76444444444442,73.98181524822769L220.82666666666665,76.85701859176903L221.07555555555555,70.61535491828435L221.20000000000002,76.17368131683376L221.26222222222225,66.93410346228855L221.32444444444442,78.26616324341693L221.57333333333332,82.75953362536363L221.6977777777778,87.60139561555702L221.82222222222222,95.91026227544627L222.0088888888889,93.69347298970527L222.5688888888889,84.14994259205656L222.75555555555556,88.24014311700923L222.88000000000002,73.98856928775727L223.00444444444443,74.16850462334108L223.1288888888889,78.78380684593056L223.25333333333333,79.70838552377393L223.81333333333333,79.29527661483205L224.0622222222222,77.76295517763037L224.18666666666667,82.41286043838912L224.37333333333333,73.20918886087159L224.8711111111111,81.196495616304L225.12,81.92483610638163L225.36888888888888,81.65661778058414L225.7422222222222,76.43238710945L225.92888888888888,72.65860464426834L226.17777777777778,52.06870198368129L226.3022222222222,56.505557239945816L226.5511111111111,51.6493844673927L226.61333333333334,46.58738552605663L227.04888888888888,44.00153735744843L227.23555555555555,33.198300914537434L227.29777777777778,32.70488130705308L227.60888888888888,32.04455712652802L227.67111111111112,31.152207591600202L227.73333333333335,44.18549729106742L227.85777777777778,34.12560731746959L228.04444444444442,43.617876518028325L228.35555555555555,37.2153823766763L228.54222222222222,52.684479059445685L228.60444444444443,52.642258741920784L228.7288888888889,65.50376878612737L229.10222222222222,52.55424586053024L229.72444444444443,70.1090274194404L230.16,77.8884432975742L230.34666666666666,72.64003009894206L230.4088888888889,72.19178550924526L230.84444444444443,67.615899115335L230.90666666666667,68.50568337151036L230.9688888888889,69.55272830389306L231.0311111111111,69.9260169209473L231.3422222222222,60.34848047194447L231.5288888888889,72.73224851410593L232.21333333333334,70.82138508097204L232.95999999999998,65.17704231700871L233.0222222222222,56.43009089264007L233.08444444444444,50.85386355368638L233.20888888888888,38.437178959480626L233.33333333333334,56.31159628366653L233.64444444444445,56.0646665480886L233.8311111111111,58.7382464627123L233.89333333333335,56.050193069819514L234.01777777777775,53.73690815341406L234.07999999999998,40.53055402908763L234.51555555555558,39.020784763417076L234.64,33.76759880757283L234.76444444444445,57.94145055320577L235.26222222222222,50.93966400138781L235.32444444444445,60.731702100509054L235.63555555555553,70.49623750802495L235.69777777777776,58.947919835974766L236.07111111111112,63.46366843355615L236.19555555555553,65.68618171908801L236.32,65.35992174295401L236.44444444444446,56.92194269772771L236.69333333333336,59.944029370694444L236.88,58.156833638001075L237.1288888888889,52.579101525952375L237.50222222222223,41.02040804457929L237.6888888888889,65.60690768917311L237.75111111111113,62.27844516270827L237.81333333333336,64.9819471304461L238.18666666666667,61.29796165559988L238.6222222222222,72.97238483380498L238.68444444444444,52.047126934592725L238.93333333333334,39.231965139278195L239.05777777777777,51.84226160003441L239.12,61.8711837308842L239.1822222222222,68.93509906159525L239.43111111111114,58.51486303391142L239.7422222222222,59.808675420732136L240.17777777777778,71.27652352530905L240.42666666666668,78.17817199720801L240.67555555555555,85.590055978523L240.73777777777778,76.18919143982158L240.92444444444445,86.18939564906009L241.17333333333332,84.16710390268969L241.29777777777778,76.39005838466697L241.67111111111112,77.57025899512458L241.85777777777778,62.06749360940419L241.98222222222222,76.07441534908695L242.10666666666668,70.12278688006069L242.23111111111112,65.95446294043892L242.41777777777776,71.00880552935723L242.54222222222222,69.15321174314897L242.7288888888889,74.08848910051742L242.79111111111112,79.7256946004377L242.97777777777776,67.65564457832389L243.10222222222222,76.46032131742174L243.47555555555556,56.89988468784318L243.7866666666667,74.67969343995387L243.8488888888889,87.5946412537472L244.09777777777776,77.75906699248141L244.4711111111111,80.12567032699471L244.53333333333333,82.45075220071963L245.0311111111111,87.07172386235621" style="fill: none;" fill="none"></path></g></g></g></g><g opacity="0.2"><g><g><g><path stroke="rgb(238, 51, 119)" stroke-width="2px" d="M32.355555555555554,95.95538581501353L32.977777777777774,145.79346906055105L33.16444444444445,149.16298042644155L33.53777777777778,148.47715679082003L34.284444444444446,148.5329267761924L34.53333333333333,151.92866803299296L34.65777777777778,150.56674496694043L34.782222222222224,149.80706675486132L34.84444444444444,147.1889571276578L34.968888888888884,148.87662659991872L35.342222222222226,147.95378776030108L35.404444444444444,150.86018216609955L35.46666666666667,146.1888994953849L35.528888888888886,146.23333261229774L36.08888888888889,150.52823780883443L36.462222222222216,148.9904514984651L36.52444444444445,148.15167466076937L36.586666666666666,142.08686477487737L36.64888888888889,150.5568297884681L36.96,146.23790921948174L37.45777777777778,144.35098034685308L37.89333333333333,140.3069860718467L38.39111111111111,140.32539473880422L38.577777777777776,139.00325005704707L38.64,144.78488900444725L39.07555555555555,135.4386353709481L39.38666666666666,135.2017320502888L39.88444444444445,142.1924710707231L40.07111111111111,133.60904960198835L40.13333333333333,139.37455227158287L40.693333333333335,139.41785883903503L40.81777777777778,138.5315537669442L40.879999999999995,138.84713422168386L40.94222222222222,135.52005557580426L41.37777777777778,130.49836297468707L41.68888888888888,132.72406976873222L41.81333333333334,135.2658296281641L41.87555555555556,136.5248759659854L42.12444444444444,133.88541301813993L42.43555555555555,137.7298074202104L42.497777777777785,138.72777592052114L42.684444444444445,128.98852435025302L43.05777777777778,129.3038887544112L43.12,125.43394830010153L43.24444444444444,123.55016855760054L43.431111111111115,135.47875905036926L43.55555555555556,117.56268163160844L43.617777777777775,131.83918059955943L43.742222222222225,130.51251621679828L43.86666666666667,130.76810984178022L43.928888888888885,136.06327425349843L44.364444444444445,133.14301692355764L44.86222222222222,128.38265679099342L44.92444444444445,130.60620693726972L44.98666666666667,128.30044182864103L45.23555555555556,126.2891305143183L45.92,129.36958742141724L46.044444444444444,124.27062008597635L46.29333333333334,126.28038432381369L46.480000000000004,124.53955676338889L46.60444444444445,127.35843814503062L46.79111111111111,130.55707664923236L47.53777777777778,116.71378031643955L47.91111111111111,118.02557771856134L48.09777777777778,129.9020440795205L48.22222222222222,126.27007176659323L48.284444444444446,119.71650916879828L48.40888888888889,123.98257836428554L48.65777777777778,119.22043002735484L48.906666666666666,114.33366294340654L49.03111111111111,125.45104716040872L49.342222222222226,125.55590113726528L50.21333333333334,121.94360485943882L50.52444444444444,111.6628765192899L50.586666666666666,120.75072015415537L50.83555555555556,118.90130017020486L50.89777777777778,112.52346771413629L51.14666666666667,112.47647285461426L51.208888888888886,113.62210035324097L51.33333333333333,116.89723812450063L51.519999999999996,108.11170326579702L51.83111111111111,110.27873303673483L51.89333333333333,124.55552135814321L52.266666666666666,105.44604418494485L52.32888888888888,129.01505613327026L52.391111111111115,122.19893035021694L52.577777777777776,105.0450504476374L53.13777777777778,114.0943097634749L53.635555555555555,119.69679841128261L54.44444444444444,108.47333335876465L54.63111111111112,116.00989909605546L54.88,107.7781404581937L55.25333333333333,99.94111009077592L55.50222222222222,103.3020623813976L55.56444444444445,101.41647321527655L55.626666666666665,108.05894062735818L56.06222222222222,102.35600774938409L56.373333333333335,119.38985612175681L56.43555555555555,113.42844958738847L57.43111111111111,98.9953486702659L57.86666666666667,82.27816486358643L58.239999999999995,97.64531417326494L58.30222222222222,110.49308607795022L58.42666666666667,91.74208311601119L58.8,109.23765087127686L59.36,85.16653737154873L59.48444444444444,99.78663006695835L59.54666666666667,99.39872282201593L59.733333333333334,87.6722457192161L60.10666666666667,96.08706092834473L60.66666666666667,72.08186600425027L60.85333333333333,92.78836206956343L60.91555555555556,96.8561315536499L61.47555555555556,100.66659636930986L61.53777777777778,95.37645513361151L62.22222222222222,80.07524368979715L62.40888888888889,84.81659715825862L62.471111111111114,75.15483830191873L62.595555555555556,73.8204944783991L62.72,91.65142674879594L63.59111111111112,87.78381269628352L63.90222222222222,83.11200436678799L64.02666666666667,76.41693635420366L64.21333333333334,89.09305607188833L64.71111111111111,86.07008405165239L65.08444444444444,75.76938646489924L65.2088888888889,90.8684362931685L65.39555555555555,105.44236746701328L65.45777777777778,86.32145890322597L65.64444444444445,91.01089850339024L65.7688888888889,86.72375280206853L66.08,97.68675730445169L66.14222222222222,100.6064262823625L66.70222222222222,79.74136838045986L66.82666666666667,86.28284757787532L67.07555555555555,93.02242201024835L67.13777777777779,82.9622195850719L67.44888888888889,89.63832144303755L67.69777777777777,92.09967769276011L67.75999999999999,85.95654947107488L68.07111111111111,91.15268941359086L68.19555555555556,91.10667835582387L68.25777777777778,75.05873437361284L68.32,97.0065027583729L68.38222222222223,104.6315412087874L68.50666666666667,105.77817565744574L68.56888888888889,104.2695986140858L68.88,86.4441447691484L68.94222222222223,90.4877628846602L69.37777777777778,104.08642244338989L69.50222222222223,65.90441660447554L69.87555555555555,90.74709302728827L70,102.0905510295521L70.31111111111112,105.09928300163962L70.62222222222222,102.7287837375294L70.74666666666666,95.7171128879894L71.49333333333334,82.66828276894309L71.92888888888889,99.17438129945235L71.99111111111111,96.61960246346213L72.11555555555555,101.30723649805243L72.17777777777778,68.07901971990412L72.24000000000001,76.26162685047497L72.30222222222223,76.31085551868786L72.42666666666666,86.41075723821467L72.61333333333334,89.85236584056508L72.86222222222223,102.51840834184127L73.17333333333333,82.24584986946799L73.36,94.88617463545366L73.60888888888888,86.27570247650146L73.79555555555555,82.67546645077793L73.85777777777778,87.0090784593062L73.98222222222223,91.93856568769975L74.04444444444444,76.69769408486106L74.23111111111112,90.27321694113992L74.29333333333332,76.7749630321156L74.48,94.35110993818803L74.54222222222224,93.69007231972434L74.85333333333332,107.89195281809027L74.91555555555556,74.59651730277322L75.35111111111112,87.41948968713933L75.53777777777778,108.52314459193838L75.78666666666666,72.83767266706987L75.97333333333333,72.63896014473654L76.09777777777778,92.790113622492L76.22222222222221,100.57828569412231L76.47111111111111,101.22848220305009L76.72,86.46537945487283L76.90666666666667,85.2273401780562L76.9688888888889,93.54513324390757L77.0311111111111,64.89354679801248L77.09333333333333,65.88259549574418L77.46666666666667,84.43600091067226L77.84,90.86338225277989L77.96444444444444,105.2976791641929L78.02666666666667,62.02825312180952L78.27555555555556,61.88989587263628L78.46222222222222,93.97587637467818L78.52444444444444,76.19451999664307L78.71111111111111,69.24475921284069L78.77333333333333,58.4330942847512L78.83555555555556,92.58467266776346L78.96,73.67163562774658L79.08444444444444,82.7290084145286L79.45777777777778,80.6281479922208L79.64444444444445,95.28695618022573L79.70666666666666,86.8384216481989L79.89333333333333,76.31726759130305L79.95555555555556,66.72557856819846L80.01777777777778,89.49041938781738L80.14222222222222,84.62567788904363L80.20444444444445,74.90265326066451L80.57777777777778,79.90473348444158L80.82666666666667,78.99022995341907L80.88888888888889,67.23086686567827L81.01333333333334,75.60589790344238L81.13777777777779,84.83028550581498L81.26222222222222,60.461531465703786L81.32444444444445,66.20610809326172L81.38666666666667,84.4463867707686L81.44888888888889,55.17068420756946L81.5111111111111,84.17282815413041L81.69777777777779,70.19265799088912L81.94666666666667,95.39730401472612L82.13333333333334,90.66591973738237L82.25777777777779,88.34358432076193L82.32,95.80898839777167L82.38222222222223,87.07583037289707L82.75555555555556,95.69878716902299L82.81777777777776,84.52514492381702L82.94222222222223,92.45834480632436L83.12888888888888,90.41900478709829L83.37777777777777,75.92018205469304L83.56444444444445,81.61075375296853L83.75111111111111,82.69196345589377L83.81333333333333,95.91479917006059L83.93777777777777,63.652282194657765L84.06222222222222,61.667626120827414L84.18666666666667,80.95615135539661L84.49777777777777,63.75330127369275L84.68444444444445,71.84120880473743L85.99111111111111,80.63091806931929L86.11555555555556,82.02652766487815L86.17777777777778,62.78598880767822L86.42666666666666,71.25094318389893L86.55111111111111,76.75737805800004L86.8,77.54768336902966L86.92444444444445,51.060437635941945L87.04888888888888,87.47861810164018L87.23555555555555,80.53570920770818L87.36,63.07580523057417L87.42222222222223,70.7399372621016L87.79555555555555,71.45207084308971L88.04444444444445,82.19701472195713L88.48,79.92538946325129L88.54222222222222,80.52200542796741L88.60444444444444,75.4863524870439L88.66666666666666,81.28238001736729L88.97777777777777,85.90364794297652L89.10222222222222,84.64735239202327L89.28888888888889,92.29185468500312L89.35111111111111,94.72448392347856L89.41333333333334,86.25801719318737L89.47555555555554,72.06898784637451L89.97333333333334,63.5437707901001L90.03555555555555,92.20634495128286L90.22222222222223,99.93655759638007L90.65777777777778,74.58623946796764L90.84444444444443,94.17999016154897L91.34222222222223,99.07428429343484L91.40444444444444,69.61067173697732L91.52888888888889,85.48373820564963L91.59111111111112,96.73961856148459L91.65333333333332,79.96644678982823L91.84,83.25847894495183L91.90222222222224,69.44404272599654L92.15111111111112,91.56384910236704L92.46222222222221,72.45725388960405L92.52444444444444,57.322818062522195L92.77333333333333,92.21455487337978L92.83555555555556,56.94936691630969L92.89777777777778,85.8271969014948L92.96000000000001,86.89813648570667L93.14666666666666,83.07895634391092L93.2088888888889,79.41597305644642L93.27111111111111,96.61317495866255L93.45777777777778,80.61630379069935L93.52000000000001,51.15374062278054L94.01777777777778,76.48212961717086L94.26666666666667,73.24923359264027L94.3911111111111,69.9734978242354L94.51555555555555,89.34151424061167L94.57777777777778,82.8425121307373L94.76444444444444,77.53188081221147L95.01333333333334,44.742740544405855L95.07555555555555,62.81851985237815L95.13777777777779,68.05858750776811L95.32444444444444,70.21328310533004L95.82222222222222,84.79537790471858L95.94666666666667,100.4096119187095L96.19555555555556,72.70175370303066L96.25777777777778,63.792923407121144L96.44444444444444,78.57423227483577L96.56888888888889,75.03285460038619L96.69333333333333,71.69795183701949L97.00444444444445,90.03200418298896L97.6888888888889,51.43761565468528L97.81333333333333,56.89476013183594L98.18666666666667,72.19076321341775L98.24888888888889,73.88122012398459L98.37333333333333,69.49274669994007L98.49777777777778,78.1657886505127L98.74666666666667,72.29562490636653L98.99555555555555,94.21724345467307L99.11999999999999,73.29742830449885L99.43111111111111,65.36612658067183L99.49333333333334,75.42129039764404L99.55555555555556,76.94721707430752L99.99111111111111,56.73808487978848L100.05333333333333,79.0272826281461L100.42666666666668,70.07301998138428L100.67555555555556,62.40419656580144L100.73777777777777,79.66513338955967L100.8,83.2204231782393L101.36,69.4015347740867L101.48444444444445,71.70834541320801L101.67111111111112,50.62376083027234L102.04444444444445,64.62817495519465L102.10666666666665,89.1395069469105L102.54222222222222,76.60882785103537L102.66666666666666,67.96263018521397L103.53777777777778,63.29488823630593L103.72444444444444,57.800984295931734L103.91111111111111,75.39635970375754L103.97333333333334,56.24327503551135L104.03555555555555,82.67982604286887L104.22222222222223,81.3738928708163L104.28444444444445,81.59987406297164L104.34666666666666,82.49048085646196L105.46666666666667,88.0880273472179L105.65333333333334,85.29690074920654L105.77777777777777,80.0892021005804L106.21333333333334,65.62857402454723L106.27555555555556,60.20821215889671L106.4,50.47276462208142L106.52444444444444,62.88914524425159L106.64888888888889,63.58849326047031L106.77333333333334,59.13359971479937L106.96000000000001,81.06213188171387L107.08444444444444,58.77703137831255L107.2088888888889,69.74696878953414L107.33333333333334,68.63512620058926L107.58222222222223,77.0925805351951L108.20444444444443,82.48155333779074L108.45333333333332,62.13346975499934L108.70222222222223,71.36392220583828L108.76444444444444,52.629427823153414L108.82666666666667,66.05050537802957L108.95111111111112,66.37437291578813L109.13777777777779,73.1752517006614L109.32444444444444,44.03977368094704L109.44888888888889,89.95945748415859L109.63555555555556,79.83982571688564L110.00888888888889,72.82725594260476L110.13333333333333,58.868289600719116L110.25777777777778,73.50933534448797L110.32000000000001,62.56016193736682L110.50666666666666,66.94077266346325L110.56888888888889,73.51560081135143L110.63111111111112,81.91450543837114L110.81777777777778,83.22909606586803L111.31555555555555,74.30798175118186L111.62666666666667,93.4630880355835L111.75111111111111,75.2886507727883L112.12444444444444,58.47307135842063L112.37333333333333,77.61699702522971L112.43555555555555,60.543854453346945L112.49777777777778,77.30596134879373L112.56,77.18346066908403L112.93333333333334,71.86608548597856L113.12,61.607772393660106L113.55555555555556,93.03245293010366L113.68,84.7831864790483L113.86666666666667,66.82962235537441L113.92888888888889,58.89737926829944L114.11555555555556,84.47582366249777L114.4888888888889,93.07410439577968L114.61333333333333,73.8616212498058L114.8,62.67711474678733L114.98666666666666,53.743639252402566L115.0488888888889,89.86797549507834L115.1111111111111,93.42886716669257L115.17333333333333,88.11184692382812L115.23555555555556,60.47477227991277L115.6088888888889,63.8764964017001L116.35555555555555,70.46404066952793L116.72888888888889,83.86432335593484L117.03999999999999,91.39807657762007L117.28888888888888,42.86691995100542L117.72444444444444,59.517799377441406L117.84888888888888,42.23179297013716L118.16,38.024678577076294L118.22222222222223,84.02408504486084L118.40888888888888,80.05121577869762L118.47111111111111,72.93035065044056L118.59555555555556,63.15919303894043L118.65777777777777,81.43765094063498L118.84444444444445,75.07854158228093L119.90222222222222,93.16088728471236L119.96444444444445,76.19499839435925L120.02666666666666,70.76417350769043L120.33777777777777,63.88045475699685L120.52444444444446,86.98333757573909L120.77333333333334,60.01929907365278L120.83555555555556,91.01939392089844L120.89777777777778,86.84342167594217L121.14666666666666,89.19416002793746L121.20888888888888,78.08180670304732L121.27111111111111,48.05643177032471L121.39555555555556,31.320405266501684L121.64444444444445,85.07278685136275L121.76888888888888,72.31461420926182L122.57777777777777,75.15689849853516L122.64,71.6621105887673L123.2,75.87646267630838L123.26222222222222,53.086660298434175L123.94666666666666,60.0081801847978L124.44444444444444,51.77710827914151L124.50666666666666,57.940622416409575L124.69333333333334,75.45521033893932L124.81777777777778,60.72111623937434L124.88,76.1889335458929L125.37777777777778,79.02923479947178L125.44,94.39779229597612L125.50222222222223,77.42796819860285L125.75111111111111,79.09763795679265L125.87555555555555,72.78014919974588L126,71.9842034253207L126.49777777777778,82.84086088700728L126.80888888888889,92.3298024264249L126.87111111111112,74.18807367845015L127.05777777777777,63.906512000344016L127.49333333333333,79.79704770174892L127.61777777777777,87.22610126842152L128.24,91.51894144578414L128.5511111111111,40.48816446824507L128.61333333333332,79.47965396534313L128.73777777777778,69.89160693775524L128.8,76.05467354167591L129.17333333333332,87.17803773013027L129.60888888888888,61.56392955780029L129.67111111111112,91.93706876581366L130.2311111111111,86.20858019048518L130.48000000000002,56.14578221061013L130.60444444444445,91.11497315493496L130.85333333333332,78.6123034737327L131.41333333333333,67.17795762148769L131.5377777777778,87.08859278938986L131.72444444444443,78.57275850122625L131.8488888888889,60.22518756172874L131.9111111111111,73.62469863891602L132.22222222222223,90.67487040433018L132.72,92.37193228981711L132.84444444444443,107.57087850570679L133.28,92.89586266604336L133.34222222222223,93.58034177259965L133.5911111111111,64.44422331723301L133.9022222222222,95.75697422027588L134.08888888888887,78.40998753634365L134.21333333333334,72.97147742184727L134.4,94.2410553151911L134.58666666666667,92.2905660976063L134.83555555555557,78.56062880429356L135.2711111111111,88.25284307653254L135.33333333333334,69.26714359630238L135.8311111111111,91.43307677182285L135.95555555555555,55.33502925526013L136.07999999999998,61.12104901400479L136.26666666666668,67.36547409404407L136.32888888888888,88.64907212690873L136.70222222222222,82.3095230622725L136.76444444444445,81.77700467543168L137.26222222222222,84.66334785114636L137.4488888888889,83.87585891376843L137.51111111111112,80.81480797854336L137.57333333333332,84.00471765344793L137.63555555555556,79.19695177945225L137.76,100.74810530922629L137.94666666666666,80.75841106068005L138.38222222222223,80.75556382265957L138.44444444444446,64.53739513050427L138.75555555555556,80.94902940229936L138.88,84.7152231389826L138.94222222222223,86.67424635453658L139.00444444444446,103.44935486533426L139.56444444444446,99.13814267245205L139.81333333333333,102.29187159104781L139.93777777777777,85.77137869054621L140,88.39452596144243L140.12444444444446,92.67723490975119L140.43555555555554,82.46720140630549L140.49777777777777,68.06192857568914L140.62222222222223,78.04679107666016L140.68444444444447,90.88420798561789L140.74666666666667,87.09554498845881L140.93333333333334,93.63791153647684L141.05777777777777,109.1450963453813L141.18222222222224,75.20183701948686L141.74222222222224,81.33713340759277L141.9288888888889,89.35761000893332L142.48888888888888,88.73186579617588L142.86222222222221,81.51399395682596L142.92444444444445,91.16282064264472L143.29777777777778,86.21252311359753L143.36,91.32885551452637L143.42222222222222,96.01861147447066L143.92000000000002,91.31789866360752L144.29333333333332,78.92014468799938L144.35555555555555,89.11528613350607L144.85333333333332,81.4729674946178L144.91555555555556,88.31482644514604L145.10222222222222,84.64610238508745L145.5377777777778,92.96403434059836L145.66222222222223,97.33699070323598L145.9111111111111,90.66760956157339L146.53333333333333,103.70648206364024L146.59555555555556,86.15765398198909L146.78222222222223,102.55268322337758L147.09333333333333,78.1585278077559L147.34222222222223,73.89451495083897L147.5911111111111,73.31799169020219L148.1511111111111,79.06961310993542L148.27555555555557,79.86447091536088L148.33777777777777,68.63120642575352L148.7111111111111,37.62698346918279L148.77333333333334,61.27854988791726L148.83555555555554,50.46170746196399L148.96,75.9848429072987L149.08444444444447,71.3010746348988L149.8311111111111,64.48372970927845L150.39111111111112,49.3688850402832L150.64000000000001,61.56755612113259L150.95111111111112,49.18386858159846L151.01333333333332,30.548533699729223L151.32444444444442,60.75162566791882L151.38666666666666,63.89016931707209L151.4488888888889,56.106376127763234L151.6977777777778,62.478772596879445L151.76000000000002,61.283704237504445L152.13333333333333,65.31162010539661L152.38222222222223,43.23118894750422L152.44444444444443,55.47479083321311L152.50666666666666,52.173221588134766L152.6311111111111,50.97862391038374L153.00444444444443,72.18165822462602L153.1911111111111,48.44992932406338L153.31555555555556,62.940418676896535L153.50222222222223,73.5173677964644L153.6888888888889,71.46060484105891L153.87555555555556,65.51265517148106L154,96.2758428400213L154.43555555555557,66.66293161565608L154.56,65.59677600860596L155.30666666666667,60.75262875990435L155.36888888888888,63.429009350863375L155.4311111111111,73.02471074191006L156.3022222222222,43.14313290335915L156.5511111111111,38.8974457654086L156.8,51.71223909204656L156.86222222222221,58.38425913724033L157.04888888888888,81.95322478901257L157.11111111111111,62.30869449268689L157.29777777777778,65.29668175090443L157.42222222222222,56.42123898592862L157.54666666666665,66.0255052393133L157.85777777777778,54.503628037192605L158.04444444444442,85.93354008414529L158.1688888888889,51.59017822959206L158.35555555555555,63.06932371312922L158.54222222222222,62.198246348987915L158.7288888888889,58.24592503634366L158.85333333333335,61.82872269370339L159.04,47.83097527243874L159.22666666666666,89.75383134321733L159.2888888888889,79.39841894669966L159.47555555555556,48.79066423936323L159.66222222222223,57.79542870955034L160.2222222222222,62.78747029737993L160.34666666666666,53.63847663185813L160.6577777777778,77.11841401186855L160.9688888888889,83.7116527557373L161.0311111111111,64.15399022535844L161.09333333333333,55.65372701124712L161.2177777777778,77.82377286390825L161.28,70.86292405561967L161.40444444444444,69.16574642874978L161.5288888888889,68.7185525894165L161.71555555555557,87.51489145105535L161.77777777777777,76.06684181906961L162.02666666666667,63.97027778625488L162.33777777777777,60.158636266534984L162.4622222222222,62.607477014715016L162.89777777777778,64.65357633070512L163.0222222222222,65.16596343300559L163.08444444444444,69.7719457799738L163.2711111111111,53.51697132804177L163.39555555555557,61.65882205963135L163.64444444444445,74.8127685026689L163.8311111111111,68.65243339538574L163.95555555555558,89.94355461814187L164.07999999999998,71.92299938201904L164.14222222222222,84.18585291775791L164.45333333333335,72.23840236663818L164.70222222222222,62.98128310116855L164.76444444444445,59.78616506403142L164.82666666666665,75.04213705929844L165.07555555555558,71.88505935668945L165.13777777777776,89.24913718483664L165.26222222222222,77.89192139018665L165.32444444444445,84.54664967276834L165.4488888888889,72.96642338145863L165.51111111111112,80.28948870572178L165.57333333333335,91.46694270047276L165.69777777777776,91.84481516751377L165.76,72.6833662553267L165.88444444444445,63.85442837801846L166.19555555555553,82.76708732951771L166.25777777777776,71.800406109203L166.63111111111112,91.26399404352362L166.69333333333336,55.629467617381714L166.75555555555553,62.37558529593728L167.00444444444443,85.29327418587424L167.1288888888889,90.3499457619407L167.25333333333336,78.73490446264094L167.50222222222223,90.32784687389028L168.12444444444444,99.65894803133877L168.2488888888889,86.31241564317183L168.37333333333333,82.35493226484819L168.43555555555554,95.7547905661843L168.68444444444444,88.96647357940674L168.8088888888889,62.280785387212575L168.87111111111113,81.4133529663086L168.93333333333334,69.39003779671408L169.12,78.05894392186946L169.3688888888889,85.56826799566096L169.61777777777777,97.6713714166121L169.80444444444444,72.78405354239725L170.42666666666668,100.5028801831332L170.4888888888889,96.47785013372247L170.73777777777778,113.07268758253618L170.86222222222221,100.71001482009888L171.0488888888889,81.71291481364857L171.17333333333332,81.58108537847346L171.23555555555555,70.82148092443293L171.35999999999999,88.98111872239546L171.42222222222222,98.16468819704922L171.48444444444445,90.508187380704L171.54666666666668,104.39950674230401L171.67111111111112,96.674841967496L171.79555555555555,96.47027293118565L171.85777777777778,98.10275498303501L172.10666666666668,85.90648746490479L172.1688888888889,86.07528469779275L172.29333333333332,91.24997390400279L172.48,79.41828788410534L172.79111111111112,97.49405175989325L173.53777777777776,104.9270366755399L173.7866666666667,102.09372620149092L173.97333333333333,88.37335300445557L174.28444444444446,100.37950372695923L174.4088888888889,94.95656082846902L174.59555555555553,92.54909376664595L174.9688888888889,86.22506947950883L175.0311111111111,82.03898915377529L175.15555555555554,80.57276188243519L175.34222222222223,82.57949369603938L175.5288888888889,91.83864229375665L175.5911111111111,70.35096133839001L175.65333333333334,74.25496448170055L176.2133333333333,107.61793123592031L176.27555555555554,88.28891580755061L176.33777777777777,86.54274099523371L176.4,62.10288316553289L176.52444444444444,92.21065824682061L176.6488888888889,108.5673500841314L176.83555555555554,95.54292982274835L177.14666666666668,80.24175695939498L177.2711111111111,76.85414557023482L177.33333333333331,90.14729803258722L177.39555555555555,92.59606161984532L177.45777777777778,67.38599889928645L177.95555555555555,84.91712240739302L178.51555555555555,99.79452362927525L178.82666666666668,91.74045502055776L179.32444444444445,83.76615151492031L179.38666666666668,96.39524936676025L179.57333333333332,99.4200925393538L179.82222222222222,93.3748699535023L180.2577777777778,88.6953763961792L180.44444444444446,91.99863546544854L180.6311111111111,99.10531841624868L180.69333333333333,92.68742786754262L180.75555555555556,76.94310439716686L180.88,86.84314389662309L181.3777777777778,52.56032250144265L181.50222222222223,83.13420356403698L181.62666666666667,78.9403222690929L181.7511111111111,79.23460630937056L182.37333333333333,78.06192233345725L182.8711111111111,92.28528829054399L182.93333333333334,100.44759824059226L182.99555555555557,77.50544548034668L183.24444444444447,84.4016720164906L183.61777777777777,89.05459906838156L184.11555555555555,93.68538865176113L184.48888888888888,76.52457584034313L184.5511111111111,74.11569673364812L184.61333333333334,94.28009102561258L184.67555555555555,77.49661055478184L184.8,87.39959760145707L184.92444444444442,82.61723310297185L185.11111111111111,72.05461276661266L185.60888888888888,74.74035297740589L186.04444444444442,82.68561311201616L186.29333333333332,70.37979637492786L186.4177777777778,79.86180886355312L186.66666666666666,81.83787692676891L186.7288888888889,72.60929177024148L186.85333333333332,79.71473243019797L187.16444444444443,38.82050089402632L187.3511111111111,86.35040196505459L187.47555555555556,67.94328594207764L187.66222222222223,84.52347053181042L187.72444444444443,93.20842612873423L187.78666666666666,98.90628181804311L188.4088888888889,73.50369488109241L188.4711111111111,91.02902360395952L188.59555555555556,44.336835514415405L188.6577777777778,82.60516513477673L188.72,75.77454081448643L188.7822222222222,85.36609866402365L189.0311111111111,80.97466997666793L189.15555555555557,72.50693780725652L189.3422222222222,71.88029081171209L189.46666666666667,62.75476178255948L189.5911111111111,90.4329940622503L189.71555555555557,78.44839052720504L190.27555555555557,80.69050944935192L190.52444444444444,69.63749287345193L190.64888888888888,73.86438361081211L190.77333333333334,79.62771034240723L190.89777777777778,72.01836256547408L191.08444444444444,58.768543676896535L191.2711111111111,78.90448102084072L191.64444444444445,71.4653348055753L191.70666666666665,61.299745993180714L191.95555555555558,87.9476716301658L192.14222222222222,44.52546310424805L192.32888888888888,66.79307894273238L192.45333333333335,84.65290797840466L192.76444444444445,44.47429769689387L193.01333333333335,70.53997473283248L193.2,68.5440994609486L193.26222222222222,63.47975808923894L193.32444444444442,68.28065664117986L193.38666666666666,72.47903641787441L193.57333333333335,85.4314231005582L193.82222222222222,84.4810706051913L194.19555555555556,73.94454609264027L194.2577777777778,72.29986875707453L194.44444444444443,52.09979525479404L194.75555555555556,77.26473426818848L194.9422222222222,63.984737743030884L195.00444444444443,74.7222278768366L195.1288888888889,75.97836138985373L195.25333333333333,53.86529116197065L195.3777777777778,71.75400153073399L195.44,64.89875516024502L195.62666666666667,67.99566277590664L195.6888888888889,55.78358884291216L195.81333333333333,55.86293341896751L196,36.7324646169489L196.0622222222222,56.71438104456121L196.18666666666667,55.01160925084895L196.56,64.74651666121049L196.74666666666667,46.00537100705234L196.93333333333334,61.51621324365789L196.99555555555557,67.88283035971902L197.24444444444444,56.82439708709717L197.61777777777777,65.97890775853938L198.42666666666668,46.76299866763028L198.67555555555558,67.06075018102473L198.79999999999998,66.05678627707742L199.11111111111111,61.195501587607644L199.29777777777775,64.69925559650768L199.42222222222222,58.551088766618214L199.67111111111112,74.63351596485485L199.98222222222222,53.325280449607156L200.23111111111112,64.12310270829634L200.48,78.81628608703613L200.66666666666666,53.62083764509722L201.6,61.99378533796831L202.22222222222223,41.93218482624402L202.28444444444443,52.4360239722512L202.34666666666666,57.02636580033735L202.53333333333336,55.207520831714966L202.59555555555553,50.355950702320435L202.90666666666667,50.47136800939387L203.28,55.43867952173406L203.34222222222223,76.05819207971746L203.40444444444444,63.01423853093928L203.46666666666667,24.97538549249822L203.5288888888889,56.187796332619406L203.59111111111113,65.9372871572321L203.65333333333334,59.30646332827481L204.15111111111113,49.54937215284868L205.5822222222222,72.45271682739258L205.64444444444445,68.48620562119918L205.70666666666668,65.82110595703125L206.14222222222222,50.21561041745273L206.82666666666668,69.39432022788309L206.8888888888889,58.474089882590555L206.95111111111112,71.87548368627375L207.2,65.37304791537197L207.69777777777776,52.63669638200239L207.76,53.68054476651279L207.9466666666667,54.76915420185437L208.0711111111111,53.958910508589305L208.13333333333333,65.27669707211582L208.25777777777776,60.89255237579346L209.00444444444446,74.6274511163885L209.1288888888889,70.04116023670544L209.31555555555553,61.70633775537664L209.44,64.13976175134832L209.7511111111111,91.96923715418036L209.93777777777777,54.93459493463689L210.12444444444446,83.21955125982112L210.68444444444447,87.42678139426492L210.74666666666667,91.39465063268487L211.12,64.3524095361883L211.24444444444444,72.06190447373824L211.30666666666667,55.9858430515636L211.68,77.2005672454834L211.86666666666667,90.32660458304666L211.9288888888889,78.61950258775191L212.24,78.64440241726963L212.36444444444444,92.62420220808549L212.48888888888888,80.61935164711691L212.67555555555555,92.35904641584916L212.73777777777778,80.13343845714222L213.23555555555555,70.33273592862217L213.54666666666668,66.61254553361373L213.6711111111111,52.010527784174144L213.73333333333332,73.26951148293234L213.79555555555555,54.47476213628596L214.04444444444445,81.1690074747259L214.48000000000002,69.77784087441184L214.7288888888889,69.7596308968284L214.91555555555556,85.9156078858809L214.9777777777778,69.45422796769576L215.10222222222222,78.2635824030096L215.6,78.97745982083408L215.9111111111111,71.01186006719416L216.65777777777777,83.68174518238415L216.96888888888887,97.8944359259172L217.09333333333333,89.43343604694712L217.15555555555557,95.62712010470302L217.34222222222223,66.58349444649436L217.96444444444447,76.29700513319536L218.33777777777777,91.21701075813986L218.58666666666664,72.16320904818447L218.89777777777778,67.55867732654919L219.02222222222224,71.76393985748291L219.14666666666665,83.48615767739035L219.2711111111111,83.57718441703103L219.39555555555555,67.89604030955921L219.58222222222224,73.42414197054775L219.64444444444445,79.88561300797896L219.70666666666665,88.98645825819536L219.89333333333335,75.25838054310192L219.95555555555555,75.50545753132214L220.01777777777778,76.10749790885232L220.26666666666665,78.00401306152344L220.39111111111112,82.85485787825151L220.57777777777778,84.91275509920986L220.64000000000001,62.1833851554177L220.76444444444442,76.27441241524436L220.82666666666665,78.66455685008656L221.07555555555555,66.69144257632168L221.20000000000002,79.66800377585672L221.26222222222225,61.12550891529431L221.32444444444442,85.39022688432173L221.57333333333332,85.58435604789041L221.6977777777778,90.64530233903365L221.82222222222222,101.13375173915517L222.0088888888889,92.29985627261074L222.5688888888889,78.15026387301357L222.75555555555556,90.81150696494363L222.88000000000002,65.02911082181065L223.00444444444443,74.28162358023904L223.1288888888889,81.68528348749334L223.25333333333333,80.2896353114735L223.81333333333333,79.035569711165L224.0622222222222,76.7996390949596L224.18666666666667,85.33609078147195L224.37333333333333,67.42316731539638L224.8711111111111,86.21783178502864L225.12,82.38271791284734L225.36888888888888,81.48799844221635L225.7422222222222,73.14809877222234L225.92888888888888,70.28616159612483L226.17777777777778,39.12456122311679L226.3022222222222,59.294850609519266L226.5511111111111,48.59648106314919L226.61333333333334,43.405086517333984L227.04888888888888,42.37590642408892L227.23555555555555,26.40668973055752L227.29777777777778,32.39468591863459L227.60888888888888,31.629434758966624L227.67111111111112,30.591219121759593L227.73333333333335,52.37906377965754L227.85777777777778,27.801311666315257L228.04444444444442,49.58532914248379L228.35555555555555,33.190361629832886L228.54222222222222,62.40935091538862L228.60444444444443,52.615716327320435L228.7288888888889,73.58934350447221L229.10222222222222,44.41334056854248L229.72444444444443,81.14509530500932L230.16,82.77908585288309L230.34666666666666,69.34053906527431L230.4088888888889,71.90999005057596L230.84444444444443,64.73920180580832L230.90666666666667,69.06505914167924L230.9688888888889,70.21096827767111L231.0311111111111,70.16069022091953L231.3422222222222,54.32742335579612L231.5288888888889,80.51748379794033L232.21333333333334,69.6200930855491L232.95999999999998,61.62864442305132L233.0222222222222,50.93119309165261L233.08444444444444,47.348287409002126L233.20888888888888,30.63125020807439L233.33333333333334,67.54860782623291L233.64444444444445,55.909430590542875L233.8311111111111,60.41903122988614L233.89333333333335,54.36030934073708L234.01777777777775,52.28262805938721L234.07999999999998,32.22818808122114L234.51555555555558,38.071646430275656L234.64,30.46510731090198L234.76444444444445,73.13869285583496L235.26222222222222,46.53788939389316L235.32444444444445,66.8876087882302L235.63555555555553,76.63485423001377L235.69777777777776,51.687902537259184L236.07111111111112,66.30255924571644L236.19555555555553,67.0833969116211L236.32,65.15481367978184L236.44444444444446,51.617284861477934L236.69333333333336,61.843907963145874L236.88,57.033287135037504L237.1288888888889,49.0725793838501L237.50222222222223,33.75386784293435L237.6888888888889,81.0635670748624L237.75111111111113,60.18595894900235L237.81333333333336,66.68154283003373L238.18666666666667,58.98197078704834L238.6222222222222,80.31168018687855L238.68444444444444,38.89216024225408L238.93333333333334,31.17552791942249L239.05777777777777,59.76990725777366L239.12,68.1760109988126L239.1822222222222,73.37593182650478L239.43111111111114,51.964030612598755L239.7422222222222,60.62204933166504L240.17777777777778,78.48595246401699L240.42666666666668,82.51699334924871L240.67555555555555,90.24964427947998L240.73777777777778,70.2792016809637L240.92444444444445,92.476168979298L241.17333333333332,82.8957608829845L241.29777777777778,71.50090599060059L241.67111111111112,78.31220921603115L241.85777777777778,52.321455435319386L241.98222222222222,84.88006973266602L242.10666666666668,66.38120937347412L242.23111111111112,63.333985675464966L242.41777777777776,74.18629126115279L242.54222222222222,67.98666581240566L242.7288888888889,77.19112274863504L242.79111111111112,83.26960554989903L242.97777777777776,60.0676326751709L243.10222222222222,81.99550897424871L243.47555555555556,44.60293266989968L243.7866666666667,85.85722793232311L243.8488888888889,95.71381040052934L244.09777777777776,71.57579066536643L244.4711111111111,81.61346981742166L244.53333333333333,83.91244862296365L245.0311111111111,89.97676467895508" style="fill: none;" fill="none"></path></g></g></g></g></g></g><g transform="translate(50, 178)" clip-path="url(#clip_1)"><clipPath id="clip_1"><rect width="280" height="22"></rect></clipPath><g><g><line x1="0" y1="0" x2="0" y2="5" style="visibility: inherit;" fill="rgb(0, 0, 0)" stroke="rgb(204, 204, 204)" stroke-width="1px"></line><line x1="31.11111111111111" y1="0" x2="31.11111111111111" y2="5" style="visibility: inherit;" fill="rgb(0, 0, 0)" stroke="rgb(204, 204, 204)" stroke-width="1px"></line><line x1="62.22222222222222" y1="0" x2="62.22222222222222" y2="5" style="visibility: inherit;" fill="rgb(0, 0, 0)" stroke="rgb(204, 204, 204)" stroke-width="1px"></line><line x1="93.33333333333333" y1="0" x2="93.33333333333333" y2="5" style="visibility: inherit;" fill="rgb(0, 0, 0)" stroke="rgb(204, 204, 204)" stroke-width="1px"></line><line x1="124.44444444444444" y1="0" x2="124.44444444444444" y2="5" style="visibility: inherit;" fill="rgb(0, 0, 0)" stroke="rgb(204, 204, 204)" stroke-width="1px"></line><line x1="155.55555555555557" y1="0" x2="155.55555555555557" y2="5" style="visibility: inherit;" fill="rgb(0, 0, 0)" stroke="rgb(204, 204, 204)" stroke-width="1px"></line><line x1="186.66666666666666" y1="0" x2="186.66666666666666" y2="5" style="visibility: inherit;" fill="rgb(0, 0, 0)" stroke="rgb(204, 204, 204)" stroke-width="1px"></line><line x1="217.77777777777777" y1="0" x2="217.77777777777777" y2="5" style="visibility: inherit;" fill="rgb(0, 0, 0)" stroke="rgb(204, 204, 204)" stroke-width="1px"></line><line x1="248.88888888888889" y1="0" x2="248.88888888888889" y2="5" style="visibility: inherit;" fill="rgb(0, 0, 0)" stroke="rgb(204, 204, 204)" stroke-width="1px"></line><line x1="280" y1="0" x2="280" y2="5" style="visibility: inherit;" fill="rgb(0, 0, 0)" stroke="rgb(204, 204, 204)" stroke-width="1px"></line></g><g transform="translate(0, 8)"><text x="0" y="0" dx="0em" dy="0.95em" style="text-anchor: middle; visibility: hidden; font-family: Roboto, sans-serif; font-size: 12px; font-weight: 200;" fill="rgb(50, 49, 63)" stroke="none" stroke-width="1px">-500</text><text x="31.11111111111111" y="0" dx="0em" dy="0.95em" style="text-anchor: middle; visibility: inherit; font-family: Roboto, sans-serif; font-size: 12px; font-weight: 200;" fill="rgb(50, 49, 63)" stroke="none" stroke-width="1px">0</text><text x="62.22222222222222" y="0" dx="0em" dy="0.95em" style="text-anchor: middle; visibility: inherit; font-family: Roboto, sans-serif; font-size: 12px; font-weight: 200;" fill="rgb(50, 49, 63)" stroke="none" stroke-width="1px">500</text><text x="93.33333333333333" y="0" dx="0em" dy="0.95em" style="text-anchor: middle; visibility: inherit; font-family: Roboto, sans-serif; font-size: 12px; font-weight: 200;" fill="rgb(50, 49, 63)" stroke="none" stroke-width="1px">1k</text><text x="124.44444444444444" y="0" dx="0em" dy="0.95em" style="text-anchor: middle; visibility: inherit; font-family: Roboto, sans-serif; font-size: 12px; font-weight: 200;" fill="rgb(50, 49, 63)" stroke="none" stroke-width="1px">1.5k</text><text x="155.55555555555557" y="0" dx="0em" dy="0.95em" style="text-anchor: middle; visibility: inherit; font-family: Roboto, sans-serif; font-size: 12px; font-weight: 200;" fill="rgb(50, 49, 63)" stroke="none" stroke-width="1px">2k</text><text x="186.66666666666666" y="0" dx="0em" dy="0.95em" style="text-anchor: middle; visibility: inherit; font-family: Roboto, sans-serif; font-size: 12px; font-weight: 200;" fill="rgb(50, 49, 63)" stroke="none" stroke-width="1px">2.5k</text><text x="217.77777777777777" y="0" dx="0em" dy="0.95em" style="text-anchor: middle; visibility: inherit; font-family: Roboto, sans-serif; font-size: 12px; font-weight: 200;" fill="rgb(50, 49, 63)" stroke="none" stroke-width="1px">3k</text><text x="248.88888888888889" y="0" dx="0em" dy="0.95em" style="text-anchor: middle; visibility: inherit; font-family: Roboto, sans-serif; font-size: 12px; font-weight: 200;" fill="rgb(50, 49, 63)" stroke="none" stroke-width="1px">3.5k</text><text x="280" y="0" dx="0em" dy="0.95em" style="text-anchor: middle; visibility: hidden; font-family: Roboto, sans-serif; font-size: 12px; font-weight: 200;" fill="rgb(50, 49, 63)" stroke="none" stroke-width="1px">4k</text></g><line x1="0" y1="0" x2="280" y2="0" fill="rgb(0, 0, 0)" stroke="rgb(204, 204, 204)" stroke-width="1px"></line></g></g></g></g></svg>