<svg viewBox="0 0 330 200" xmlns="http://www.w3.org/2000/svg"><g><g><g><g><g><line x1="51.5625" y1="178" x2="46.5625" y2="178" style="visibility: inherit;" fill="rgb(0, 0, 0)" stroke="rgb(204, 204, 204)" stroke-width="1px"></line><line x1="51.5625" y1="165.28571428571428" x2="46.5625" y2="165.28571428571428" style="visibility: inherit;" fill="rgb(0, 0, 0)" stroke="rgb(204, 204, 204)" stroke-width="1px"></line><line x1="51.5625" y1="152.57142857142858" x2="46.5625" y2="152.57142857142858" style="visibility: inherit;" fill="rgb(0, 0, 0)" stroke="rgb(204, 204, 204)" stroke-width="1px"></line><line x1="51.5625" y1="139.85714285714286" x2="46.5625" y2="139.85714285714286" style="visibility: inherit;" fill="rgb(0, 0, 0)" stroke="rgb(204, 204, 204)" stroke-width="1px"></line><line x1="51.5625" y1="127.14285714285714" x2="46.5625" y2="127.14285714285714" style="visibility: inherit;" fill="rgb(0, 0, 0)" stroke="rgb(204, 204, 204)" stroke-width="1px"></line><line x1="51.5625" y1="114.42857142857142" x2="46.5625" y2="114.42857142857142" style="visibility: inherit;" fill="rgb(0, 0, 0)" stroke="rgb(204, 204, 204)" stroke-width="1px"></line><line x1="51.5625" y1="101.71428571428571" x2="46.5625" y2="101.71428571428571" style="visibility: inherit;" fill="rgb(0, 0, 0)" stroke="rgb(204, 204, 204)" stroke-width="1px"></line><line x1="51.5625" y1="89" x2="46.5625" y2="89" style="visibility: inherit;" fill="rgb(0, 0, 0)" stroke="rgb(204, 204, 204)" stroke-width="1px"></line><line x1="51.5625" y1="76.28571428571429" x2="46.5625" y2="76.28571428571429" style="visibility: inherit;" fill="rgb(0, 0, 0)" stroke="rgb(204, 204, 204)" stroke-width="1px"></line><line x1="51.5625" y1="63.57142857142856" x2="46.5625" y2="63.57142857142856" style="visibility: inherit;" fill="rgb(0, 0, 0)" stroke="rgb(204, 204, 204)" stroke-width="1px"></line><line x1="51.5625" y1="50.857142857142854" x2="46.5625" y2="50.857142857142854" style="visibility: inherit;" fill="rgb(0, 0, 0)" stroke="rgb(204, 204, 204)" stroke-width="1px"></line><line x1="51.5625" y1="38.142857142857146" x2="46.5625" y2="38.142857142857146" style="visibility: inherit;" fill="rgb(0, 0, 0)" stroke="rgb(204, 204, 204)" stroke-width="1px"></line><line x1="51.5625" y1="25.428571428571438" x2="46.5625" y2="25.428571428571438" style="visibility: inherit;" fill="rgb(0, 0, 0)" stroke="rgb(204, 204, 204)" stroke-width="1px"></line><line x1="51.5625" y1="12.714285714285708" x2="46.5625" y2="12.714285714285708" style="visibility: inherit;" fill="rgb(0, 0, 0)" stroke="rgb(204, 204, 204)" stroke-width="1px"></line><line x1="51.5625" y1="0" x2="46.5625" y2="0" style="visibility: inherit;" fill="rgb(0, 0, 0)" stroke="rgb(204, 204, 204)" stroke-width="1px"></line></g><g transform="translate(41.5625, 0)"><text x="0" y="178" dx="0em" dy="0.3em" style="text-anchor: end; visibility: hidden; font-family: Roboto, sans-serif; font-size: 12px; font-weight: 200;" fill="rgb(50, 49, 63)" stroke="none" stroke-width="1px">-140</text><text x="0" y="165.28571428571428" dx="0em" dy="0.3em" style="text-anchor: end; visibility: inherit; font-family: Roboto, sans-serif; font-size: 12px; font-weight: 200;" fill="rgb(50, 49, 63)" stroke="none" stroke-width="1px">-120</text><text x="0" y="152.57142857142858" dx="0em" dy="0.3em" style="text-anchor: end; visibility: hidden; font-family: Roboto, sans-serif; font-size: 12px; font-weight: 200;" fill="rgb(50, 49, 63)" stroke="none" stroke-width="1px">-100</text><text x="0" y="139.85714285714286" dx="0em" dy="0.3em" style="text-anchor: end; visibility: inherit; font-family: Roboto, sans-serif; font-size: 12px; font-weight: 200;" fill="rgb(50, 49, 63)" stroke="none" stroke-width="1px">-80</text><text x="0" y="127.14285714285714" dx="0em" dy="0.3em" style="text-anchor: end; visibility: hidden; font-family: Roboto, sans-serif; font-size: 12px; font-weight: 200;" fill="rgb(50, 49, 63)" stroke="none" stroke-width="1px">-60</text><text x="0" y="114.42857142857142" dx="0em" dy="0.3em" style="text-anchor: end; visibility: inherit; font-family: Roboto, sans-serif; font-size: 12px; font-weight: 200;" fill="rgb(50, 49, 63)" stroke="none" stroke-width="1px">-40</text><text x="0" y="101.71428571428571" dx="0em" dy="0.3em" style="text-anchor: end; visibility: hidden; font-family: Roboto, sans-serif; font-size: 12px; font-weight: 200;" fill="rgb(50, 49, 63)" stroke="none" stroke-width="1px">-20</text><text x="0" y="89" dx="0em" dy="0.3em" style="text-anchor: end; visibility: inherit; font-family: Roboto, sans-serif; font-size: 12px; font-weight: 200;" fill="rgb(50, 49, 63)" stroke="none" stroke-width="1px">0</text><text x="0" y="76.28571428571429" dx="0em" dy="0.3em" style="text-anchor: end; visibility: hidden; font-family: Roboto, sans-serif; font-size: 12px; font-weight: 200;" fill="rgb(50, 49, 63)" stroke="none" stroke-width="1px">20</text><text x="0" y="63.57142857142856" dx="0em" dy="0.3em" style="text-anchor: end; visibility: inherit; font-family: Roboto, sans-serif; font-size: 12px; font-weight: 200;" fill="rgb(50, 49, 63)" stroke="none" stroke-width="1px">40</text><text x="0" y="50.857142857142854" dx="0em" dy="0.3em" style="text-anchor: end; visibility: hidden; font-family: Roboto, sans-serif; font-size: 12px; font-weight: 200;" fill="rgb(50, 49, 63)" stroke="none" stroke-width="1px">60</text><text x="0" y="38.142857142857146" dx="0em" dy="0.3em" style="text-anchor: end; visibility: inherit; font-family: Roboto, sans-serif; font-size: 12px; font-weight: 200;" fill="rgb(50, 49, 63)" stroke="none" stroke-width="1px">80</text><text x="0" y="25.428571428571438" dx="0em" dy="0.3em" style="text-anchor: end; visibility: hidden; font-family: Roboto, sans-serif; font-size: 12px; font-weight: 200;" fill="rgb(50, 49, 63)" stroke="none" stroke-width="1px">100</text><text x="0" y="12.714285714285708" dx="0em" dy="0.3em" style="text-anchor: end; visibility: inherit; font-family: Roboto, sans-serif; font-size: 12px; font-weight: 200;" fill="rgb(50, 49, 63)" stroke="none" stroke-width="1px">120</text><text x="0" y="0" dx="0em" dy="0.3em" style="text-anchor: end; visibility: hidden; font-family: Roboto, sans-serif; font-size: 12px; font-weight: 200;" fill="rgb(50, 49, 63)" stroke="none" stroke-width="1px">140</text></g><line x1="51.5625" y1="0" x2="51.5625" y2="178" fill="rgb(0, 0, 0)" stroke="rgb(204, 204, 204)" stroke-width="1px"></line></g></g><g transform="translate(51, 0)" clip-path="url(#clip_0)"><clipPath id="clip_0"><rect width="278" height="178"></rect></clipPath><g><g><g><line x1="0" y1="0" x2="0" y2="178" fill="rgb(0, 0, 0)" stroke="rgb(60, 60, 60)" stroke-width="1px" opacity="0.25"></line><line x1="34.8046875" y1="0" x2="34.8046875" y2="178" fill="rgb(0, 0, 0)" stroke="rgb(60, 60, 60)" stroke-width="1px" opacity="0.25"></line><line x1="69.609375" y1="0" x2="69.609375" y2="178" fill="rgb(0, 0, 0)" stroke="rgb(60, 60, 60)" stroke-width="1px" opacity="0.25"></line><line x1="104.4140625" y1="0" x2="104.4140625" y2="178" fill="rgb(0, 0, 0)" stroke="rgb(60, 60, 60)" stroke-width="1px" opacity="0.25"></line><line x1="139.21875" y1="0" x2="139.21875" y2="178" fill="rgb(0, 0, 0)" stroke="rgb(60, 60, 60)" stroke-width="1px" opacity="0.25"></line><line x1="174.0234375" y1="0" x2="174.0234375" y2="178" fill="rgb(0, 0, 0)" stroke="rgb(60, 60, 60)" stroke-width="1px" opacity="0.25"></line><line x1="208.828125" y1="0" x2="208.828125" y2="178" fill="rgb(0, 0, 0)" stroke="rgb(60, 60, 60)" stroke-width="1px" opacity="0.25"></line><line x1="243.6328125" y1="0" x2="243.6328125" y2="178" fill="rgb(0, 0, 0)" stroke="rgb(60, 60, 60)" stroke-width="1px" opacity="0.25"></line><line x1="278.4375" y1="0" x2="278.4375" y2="178" fill="rgb(0, 0, 0)" stroke="rgb(60, 60, 60)" stroke-width="1px" opacity="0.25"></line></g><g><line x1="0" y1="178" x2="278.4375" y2="178" fill="rgb(0, 0, 0)" stroke="rgb(60, 60, 60)" stroke-width="1px" opacity="0.25"></line><line x1="0" y1="165.28571428571428" x2="278.4375" y2="165.28571428571428" fill="rgb(0, 0, 0)" stroke="rgb(60, 60, 60)" stroke-width="1px" opacity="0.25"></line><line x1="0" y1="152.57142857142858" x2="278.4375" y2="152.57142857142858" fill="rgb(0, 0, 0)" stroke="rgb(60, 60, 60)" stroke-width="1px" opacity="0.25"></line><line x1="0" y1="139.85714285714286" x2="278.4375" y2="139.85714285714286" fill="rgb(0, 0, 0)" stroke="rgb(60, 60, 60)" stroke-width="1px" opacity="0.25"></line><line x1="0" y1="127.14285714285714" x2="278.4375" y2="127.14285714285714" fill="rgb(0, 0, 0)" stroke="rgb(60, 60, 60)" stroke-width="1px" opacity="0.25"></line><line x1="0" y1="114.42857142857142" x2="278.4375" y2="114.42857142857142" fill="rgb(0, 0, 0)" stroke="rgb(60, 60, 60)" stroke-width="1px" opacity="0.25"></line><line x1="0" y1="101.71428571428571" x2="278.4375" y2="101.71428571428571" fill="rgb(0, 0, 0)" stroke="rgb(60, 60, 60)" stroke-width="1px" opacity="0.25"></line><line x1="0" y1="89" x2="278.4375" y2="89" fill="rgb(0, 0, 0)" stroke="rgb(60, 60, 60)" stroke-width="1px" opacity="0.25"></line><line x1="0" y1="76.28571428571429" x2="278.4375" y2="76.28571428571429" fill="rgb(0, 0, 0)" stroke="rgb(60, 60, 60)" stroke-width="1px" opacity="0.25"></line><line x1="0" y1="63.57142857142856" x2="278.4375" y2="63.57142857142856" fill="rgb(0, 0, 0)" stroke="rgb(60, 60, 60)" stroke-width="1px" opacity="0.25"></line><line x1="0" y1="50.857142857142854" x2="278.4375" y2="50.857142857142854" fill="rgb(0, 0, 0)" stroke="rgb(60, 60, 60)" stroke-width="1px" opacity="0.25"></line><line x1="0" y1="38.142857142857146" x2="278.4375" y2="38.142857142857146" fill="rgb(0, 0, 0)" stroke="rgb(60, 60, 60)" stroke-width="1px" opacity="0.25"></line><line x1="0" y1="25.428571428571438" x2="278.4375" y2="25.428571428571438" fill="rgb(0, 0, 0)" stroke="rgb(60, 60, 60)" stroke-width="1px" opacity="0.25"></line><line x1="0" y1="12.714285714285708" x2="278.4375" y2="12.714285714285708" fill="rgb(0, 0, 0)" stroke="rgb(60, 60, 60)" stroke-width="1px" opacity="0.25"></line><line x1="0" y1="0" x2="278.4375" y2="0" fill="rgb(0, 0, 0)" stroke="rgb(60, 60, 60)" stroke-width="1px" opacity="0.25"></line></g></g></g><g><g><line x1="0" y1="89" x2="278.4375" y2="89" fill="rgb(0, 0, 0)" stroke="rgb(153, 153, 153)" stroke-width="1.5px"></line></g></g><g><g><line x1="34.8046875" y1="0" x2="34.8046875" y2="178" fill="rgb(0, 0, 0)" stroke="rgb(153, 153, 153)" stroke-width="1.5px"></line></g></g><g><g><g><g><g><path stroke="rgb(204, 51, 17)" stroke-width="2px" d="M34.9787109375,89.06225351494338L35.3267578125,89.0637715817216L35.6748046875,106.32317082250239L35.848828125000004,117.06215020246452L36.196875,122.45235992673867L36.544921875,72.2658378151638L36.7189453125,119.14337835203018L36.89296875,130.6268154755773L37.0669921875,119.04573716689838L37.241015625,72.35470790726141L37.4150390625,95.58210669556662L37.589062500000004,59.990997597887684L37.7630859375,43.602225694599035L37.937109375000006,37.91912781936299L38.111132812499996,93.1653641208927L38.28515625,59.98150852712087L38.4591796875,81.41571427879178L38.633203125,90.02651422552286L38.98125,93.4164223525042L39.1552734375,93.56761857572855L39.5033203125,91.98260199729822L40.025390625,91.61082697409326L40.199414062500004,92.2812390753393L40.373437499999994,91.34184253593567L40.5474609375,90.86699817693129L40.721484374999996,90.95150422101447L41.06953125,90.87829643406849L41.5916015625,90.508171662548L41.765625,90.70306335188802L42.113671875,91.05705602801086L42.287695312500006,90.61032605489078L42.461718749999996,90.52125210716808L42.6357421875,90.19474622860723L42.809765625,90.22173905247888L42.9837890625,90.42999315646593L43.3318359375,90.36494967077475L43.505859375,90.3750068560102L44.0279296875,90.35258470072161L44.201953125,90.32136771238173L44.3759765625,90.59819134647674L44.550000000000004,90.95954124662212L44.724023437499994,90.94079518848599L45.24609375,90.07823394290337L45.4201171875,90.10404275463986L45.594140625,90.20081982709911L45.7681640625,90.01677435996625L45.9421875,90.02092964005848L46.1162109375,90.06003162645915L46.290234375000004,90.34646967720437L46.4642578125,90.58532136728573L46.638281250000006,90.40285914043197L46.812304687499996,90.3240928225965L47.1603515625,93.15046475456616L47.334375,99.83501762422395L47.5083984375,105.6610308798918L47.682421875,110.7316451253071L48.03046875,97.66161441971991L48.2044921875,92.89046001541118L48.378515625,91.75898932891583L48.5525390625,92.0434390423766L48.900585937500004,90.54581063394218L49.074609374999994,91.02504299114612L49.422656249999996,90.88205718763771L49.5966796875,90.99779162217524L49.770703125,95.03725204800661L49.9447265625,96.80860797329379L50.11875,95.7882102512742L50.2927734375,94.49794522465203L50.640820312500004,91.27573701860224L50.81484375,90.54938872978359L50.988867187500006,90.69310434619993L51.162890624999996,91.25293857471637L51.5109375,91.26988531114736L52.0330078125,90.61941276375104L52.20703125,90.03978849179833L52.3810546875,90.03899980874165L52.555078125,89.95725141564537L52.7291015625,89.65043686742972L52.903125,90.13566095165494L53.0771484375,89.68924133484546L53.251171875000004,89.77688279957894L53.773242187499996,90.44349250488082L53.947265625,91.1037465479371L54.4693359375,90.37014388144591L54.991406250000004,90.09343577424593L55.1654296875,90.10884561824706L55.339453125000006,91.16005091356598L55.513476562499996,90.40699187058216L55.6875,90.36481635753724L55.8615234375,89.71484005074669L56.2095703125,89.72809155356467L56.38359375,90.09227977434L56.5576171875,90.28940660156397L56.731640625,90.33788190424993L56.9056640625,90.39083863784782L57.2537109375,89.89923702803218L57.427734375,89.63058405789513L57.9498046875,89.67676294861558L58.123828124999996,89.6029187113999L58.471875,89.48533545066644L58.6458984375,89.67890002701243L58.9939453125,89.62674137439296L59.341992187500004,90.1223219739498L59.516015625,89.96697490202283L59.690039062500006,90.11820623898079L59.864062499999996,90.35097656923544L60.0380859375,91.17178975609143L60.212109375,90.23769533302043L60.56015625,90.19902782995557L60.7341796875,90.26372659513063L60.908203125,90.26619542190197L61.0822265625,89.56405315529683L61.4302734375,89.71835312127696L61.604296875,89.96791283435132L61.7783203125,90.24106863981407L62.126367187499994,90.11897730488563L62.300390625,89.91563194347304L62.474414062499996,89.88972601227404L62.8224609375,89.88271052862557L62.996484375,89.92518776619448L63.34453125,90.19276328897982L63.5185546875,89.67418816420097L63.8666015625,90.56029243363146L64.040625,90.36475337336495L64.2146484375,89.73411665308629L64.5626953125,89.29777174766616L64.73671875000001,89.33200110557546L64.9107421875,89.21486020144766L65.2587890625,89.3053597596198L65.4328125,89.35926903246116L65.6068359375,89.22965765974152L65.78085937499999,89.65328877706084L66.12890625,89.34833836014835L66.3029296875,90.31031311722239L66.476953125,90.21750152147521L66.6509765625,90.53566529231183L66.825,89.7750601364607L66.9990234375,89.44230175342602L67.173046875,89.27747392848738L67.34707031250001,89.2193770363134L67.52109374999999,89.1683733601096L67.869140625,89.22523596253535L68.0431640625,89.12652822568646L68.565234375,89.28617615407816L69.261328125,89.49514821901279L69.4353515625,89.28469092714388L69.7833984375,90.36476035525436L69.957421875,90.36354918447776L70.1314453125,89.65145856613542L70.4794921875,89.3377669986462L70.653515625,89.48174067773546L70.82753906250001,89.32157501402556L71.0015625,89.24402548657542L71.1755859375,89.22598312708524L71.69765625000001,89.22404342712825L71.87167968749999,89.61824088544661L72.04570312499999,89.66778200329972L72.2197265625,90.18927624239545L72.74179687499999,89.68960285783677L72.9158203125,90.34147309650858L73.08984375,90.31764798392263L73.2638671875,89.89800521492116L73.437890625,90.29004497859594L73.6119140625,90.0525987219426L73.9599609375,90.3440092094736L74.133984375,89.93957792784325L74.3080078125,90.26726526421129L74.6560546875,90.36738069148875L74.830078125,90.56712368810379L75.0041015625,90.0856189337945L75.17812500000001,89.82985768212068L75.3521484375,89.87535072331171L75.526171875,89.74625598592047L75.7001953125,89.76470800470159L76.04824218750001,90.40136171092836L76.22226562499999,90.7312377129099L76.5703125,90.59045161077609L76.7443359375,90.9238132476839L76.918359375,90.72164602239938L77.26640625,90.30978794197178L77.4404296875,89.88787412972539L77.614453125,89.82348062568555L77.7884765625,90.34024635903835L77.9625,91.30133402357848L78.1365234375,91.83272020478131L78.310546875,92.12598711109223L78.4845703125,92.6111904629876L78.65859375,90.85871047853125L78.8326171875,90.9082179617726L79.1806640625,90.16635672214146L79.702734375,89.91360598549718L79.8767578125,90.01825022422737L80.05078125,89.93221124789432L80.22480468750001,90.93539704480273L80.57285156249999,91.24742211483084L80.9208984375,91.97272248532178L81.2689453125,92.22171790562783L81.6169921875,92.32181484874324L81.9650390625,94.89144759367676L82.1390625,96.83608622918393L82.3130859375,96.90871210979873L82.487109375,93.61542022486798L82.6611328125,94.18521484816084L83.0091796875,96.5246472796545L83.183203125,96.53033081435497L83.3572265625,128.1886525205216L83.53125,140.76977217133094L83.7052734375,146.60621490867172L83.87929687500001,133.20144508838814L84.0533203125,111.70940509942932L84.22734375,98.08007562802489L85.09746093749999,95.07179743940344L85.4455078125,93.654318833502L85.61953125,94.44717271730933L85.967578125,94.58042426886792L86.1416015625,94.79259421784916L86.315625,96.97857811054539L86.4896484375,98.32239373658294L86.663671875,98.59470480818663L86.8376953125,96.95914761218215L87.01171875,96.19917122368541L87.1857421875,97.13134497907605L87.359765625,97.8982675288596L87.5337890625,95.6492198097865L87.7078125,95.77291652787652L88.22988281250001,99.57373996259223L88.40390625,98.91092719755865L88.751953125,95.50285168426157L89.27402343749999,94.10757108076521L89.44804687499999,92.39008397644386L89.79609375,94.97091753977874L89.9701171875,96.07858399284582L90.14414062499999,95.60152174361909L90.3181640625,93.81110040080041L90.4921875,92.78095003207424L90.6662109375,92.71456450967362L90.840234375,92.62048676138448L91.0142578125,93.2273237729042L91.18828125,93.363652953597L91.3623046875,92.39622353493014L91.536328125,92.1905076424338L91.7103515625,92.25790167488361L91.884375,92.12027032724772L92.232421875,91.6118794509173L92.4064453125,91.50564843323937L92.7544921875,96.4924053945215L93.1025390625,129.7758160833857L93.45058593750001,142.6417385648144L93.79863281249999,112.39558672975534L93.97265625,125.93879624270019L94.1466796875,104.81902619936862L94.320703125,98.49431535090184L94.49472656249999,95.08600438853976L94.66875,91.38612867441127L94.8427734375,90.13500176324253L95.016796875,89.60411772530928L95.1908203125,90.16923430244819L95.36484375,91.1726968327046L95.5388671875,92.53334716052917L95.712890625,93.36310352155164L95.8869140625,92.67520718557572L96.0609375,93.48954533991402L96.2349609375,94.82328948048482L96.408984375,91.86840766758039L96.75703125,92.32211683049434L96.93105468750001,92.71964955894836L97.105078125,92.44001147621786L97.2791015625,90.46452839775955L97.453125,91.14341595446355L97.62714843750001,89.96952975140147L97.80117187500001,89.71329296140394L97.97519531249999,92.14841669379817L98.14921874999999,92.95296166126111L98.3232421875,92.34733087236322L98.497265625,91.05708534783912L98.6712890625,90.43770557597603L98.84531249999999,89.7808470145045L99.193359375,89.48606289380793L99.3673828125,93.47758543191654L99.7154296875,91.07108138786244L100.0634765625,90.24647520339414L100.2375,89.66013283328986L100.4115234375,89.46532001854023L100.585546875,89.20300643336643L100.7595703125,89.33062551859109L101.1076171875,89.64170736336598L101.28164062500001,89.31490894369985L101.6296875,89.67290290262915L101.8037109375,89.76569927246628L101.97773437500001,89.91632967725853L102.15175781250001,89.45581246043146L102.32578124999999,89.25967575192611L102.673828125,89.13694549156337L102.8478515625,90.53574471115284L103.021875,91.35591299593725L103.19589843749999,92.04566745830218L103.71796875,91.50993773488925L104.066015625,90.0008075430986L104.2400390625,89.59808493079065L104.5880859375,89.67663856365623L104.762109375,89.381556945715L104.9361328125,89.2021184613028L105.2841796875,89.1324424432993L105.458203125,89.32996541561583L105.80625,89.1525622423907L106.154296875,90.2537175828191L106.85039062499999,89.74656654756458L107.0244140625,89.98726833117681L107.1984375,90.44658179758437L107.7205078125,90.42213528943624L107.89453125,90.23075809767519L108.0685546875,89.74838295646141L108.242578125,89.61873318512913L108.4166015625,90.59327963208847L108.590625,90.11002064783175L108.938671875,89.61361407163191L109.28671875,89.37254146084437L109.634765625,89.27232749587618L109.98281250000001,89.62433741741427L110.5048828125,89.41032798350615L110.67890625000001,89.54336676100718L111.02695312499999,89.84244931510649L111.20097656249999,89.5678765976945L111.375,89.36791530125116L111.5490234375,89.69674335335242L111.723046875,89.73422460794124L112.07109375,89.7294980949243L112.2451171875,89.93266301634127L112.419140625,89.93055150828836L112.5931640625,89.52401178639651L112.7671875,89.27512115866917L112.9412109375,89.34935279518407L113.115234375,89.17367128375709L113.2892578125,89.26629690193683L113.46328125,89.28363983139042L113.6373046875,94.21779721395056L113.811328125,94.59510923285954L113.9853515625,91.85081651729804L114.33339843750001,90.68964971337219L114.507421875,89.76846778875152L114.6814453125,89.53692990706023L114.85546875,89.8816479032959L115.02949218750001,89.70914997226751L115.20351562500001,89.74749151961944L115.37753906249999,89.84135806018615L115.55156249999999,92.41962450904118L115.7255859375,99.21536627014673L115.899609375,95.59493255228108L116.0736328125,94.21693465234642L116.24765624999999,91.52745798065027L116.4216796875,91.20313317983607L116.595703125,90.13268680336932L116.7697265625,89.75054014871978L116.94375,95.0938529905361L117.1177734375,94.90424606621316L117.291796875,96.5224025626435L117.8138671875,91.96144889831699L117.987890625,91.2466358063915L118.68398437500001,90.43432224674173L119.2060546875,90.65260955437685L119.38007812500001,91.55239772756794L119.55410156250001,92.46522570576278L119.72812499999999,92.40966065302757L119.90214843749999,92.09326911623982L120.2501953125,91.41746204205316L120.42421875,90.50395106548825L120.59824218749999,90.54070046808208L121.1203125,89.62861581852819L121.2943359375,89.2698827491551L121.6423828125,91.43685359839819L122.3384765625,98.18826787569066L122.5125,96.52768698794591L122.6865234375,93.87571602539573L122.860546875,92.69902402164414L123.03457031250001,91.45415815613988L123.20859375,90.76192445761318L123.3826171875,90.547542422663L123.556640625,93.49425902075491L123.73066406250001,91.78111621801868L123.90468750000001,91.10059005048436L124.25273437499999,90.10004433893529L124.4267578125,90.35249777565923L124.60078125,93.68689124636805L124.7748046875,95.90400113886975L124.94882812499999,95.9364175133996L125.1228515625,93.34384709356081L125.296875,92.0166357993718L125.8189453125,93.15308914356878L125.99296875,91.82539088485677L126.1669921875,90.66861503067217L127.2111328125,94.1357514880772L127.5591796875,92.44064195608173L127.733203125,91.04370624463331L127.9072265625,91.12203418770578L128.08125,91.60182545928843L128.2552734375,93.60724822656393L128.429296875,95.94482254635403L128.6033203125,97.01671570740837L128.77734375,93.23556716337274L128.9513671875,90.9761823545786L129.125390625,90.18952701819327L129.2994140625,89.67184653701543L129.47343750000002,89.7873499024486L129.6474609375,90.28800245258255L129.821484375,90.13904348984768L129.9955078125,99.04423742065993L130.16953125,93.99215293733477L130.34355468750002,92.31630379097086L130.69160156249998,91.32045020117619L130.865625,90.14947857841852L131.0396484375,90.03544928193301L131.3876953125,52.641665315766105L131.7357421875,76.40514542441247L132.0837890625,46.60650065702965L132.2578125,35.50779240583949L132.4318359375,69.89207005281754L132.7798828125,44.20286480408997L132.95390625,73.3534257783925L133.1279296875,46.04925018990217L133.4759765625,35.69502351874989L133.65,31.46330333622435L133.82402343750002,30.58801792022802L133.998046875,29.100896331392594L134.1720703125,30.040635404127137L134.34609375,29.967527833109944L134.5201171875,30.67808625204689L134.69414062500002,69.70119945908557L135.04218749999998,46.605034854871924L135.2162109375,76.27107312505012L135.390234375,86.76542623542544L135.5642578125,91.51759827263717L135.73828125,94.07226423082903L135.91230468749998,55.80617539666881L136.086328125,39.22346525011558L136.2603515625,35.513287508811985L136.434375,32.78522647105541L136.6083984375,70.90237856498041L136.782421875,45.228292204887545L136.9564453125,34.9961315710941L137.13046875,72.34601278613006L137.3044921875,47.068605588548536L137.6525390625,36.71907701365817L137.8265625,34.76867581212401L138.0005859375,33.69957237524658L138.3486328125,32.472783805296984L138.52265625,71.22169790194992L138.6966796875,85.8507723974818L138.870703125,53.251445272415964L139.21875,40.04543515917531L139.39277343749998,35.27366355498137L139.566796875,71.63817751144785L139.74082031249998,85.2005980532446L139.91484375,57.4033748508674L140.0888671875,80.89892382773775L140.262890625,90.30014076638997L140.6109375,93.58319589433742L140.958984375,95.14998430273987L141.13300781249998,58.35608489631935L141.30703125,45.24599510220236L141.8291015625,76.76324597759182L142.5251953125,88.58800534570784L142.69921875,92.91705773720267L142.8732421875,95.08333305070731L143.04726562500002,96.21233992202156L143.2212890625,96.5963437084867L143.39531250000002,96.35992107768337L143.5693359375,97.58199614340657L143.74335937499998,98.6716356095398L144.2654296875,98.01324545457234L144.439453125,97.641875316936L144.6134765625,97.26319863993777L144.7875,97.11775420622783L145.135546875,97.78516683786295L145.3095703125,98.57599338957753L145.48359374999998,99.05337095374476L145.831640625,98.71895921403691L146.00566406250002,98.80035031542943L146.1796875,98.81298894202565L146.3537109375,98.38924254991589L146.527734375,98.41377177040205L146.7017578125,98.1213761914911L146.87578125,98.42572704988464L147.0498046875,98.56057140043745L147.223828125,99.18260229992914L147.39785156250002,99.47773912508211L147.571875,99.00911541217822L147.74589843750002,99.24919296490715L147.919921875,98.90441762141161L148.09394531249998,98.26135313942154L148.26796875,98.86357539034827L148.44199218749998,98.9562170840854L148.9640625,98.72126770448787L149.1380859375,108.79470605509101L149.4861328125,102.33856588725162L149.66015625,99.55434271454982L149.83417968749998,97.03259493059599L150.008203125,98.93341398919982L150.1822265625,99.4506785812773L150.35625000000002,99.17679810228347L150.5302734375,99.37607543156811L150.704296875,99.84304512285773L150.8783203125,97.01692087121404L151.05234375,94.82457955209391L151.2263671875,125.40055467771548L151.5744140625,111.48360315322084L151.74843750000002,105.43401370529415L151.9224609375,102.26139237721645L152.09648437500002,102.78959705787977L152.2705078125,101.51821228541921L152.6185546875,95.65473913963172L152.79257812499998,92.43608876389887L152.9666015625,93.49129887676199L153.140625,93.72344965420736L153.3146484375,94.18904186591239L153.488671875,95.63401495215861L153.6626953125,100.29108482472645L153.83671875,99.6333650676847L154.0107421875,97.27028018974471L154.18476562499998,99.50165144049687L154.3587890625,99.56714051828004L154.5328125,99.34164364783851L154.70683593750002,100.56236501843375L155.22890625,99.01450642709187L155.576953125,98.95276546709567L155.925,99.23528064939678L156.44707031250002,99.87221999128661L156.62109375,99.6596192483867L156.79511718749998,100.00623126135092L156.969140625,100.38946725543954L157.14316406249998,100.68205350784586L157.3171875,100.10734636079164L157.4912109375,99.827666788754L157.665234375,99.25746056066372L157.8392578125,99.19833255536865L158.01328125,99.90677664464903L158.1873046875,100.85141704826226L158.361328125,100.83066608190835L158.53535156249998,100.51048745562602L159.05742187500002,98.06826655017565L159.2314453125,97.69461368907491L159.40546875,97.59074970485182L159.753515625,97.41373074336933L159.9275390625,97.42584571814481L160.2755859375,96.37417001477962L160.44960937500002,97.76154298433879L160.6236328125,99.01662185779666L160.79765625000002,97.70879028402014L160.9716796875,100.33177493120942L161.14570312499998,98.12821512807898L161.6677734375,98.75728746217887L161.841796875,97.72865363894303L162.0158203125,97.73861251853243L162.7119140625,94.74293942940558L162.88593749999998,91.30272169743083L163.233984375,113.32907563390012L163.40800781250002,106.01149006880809L163.58203125,101.27953267346453L163.7560546875,93.92516352949072L163.930078125,98.76146148977472L164.1041015625,96.80589713447594L164.278125,95.52556031167494L164.4521484375,92.6430790566609L164.626171875,91.58091519626637L164.80019531250002,92.1417918944133L165.14824218750002,101.43716321633761L165.322265625,96.63479890902335L165.49628906249998,95.4981563105634L165.6703125,92.01743542430638L165.84433593749998,90.27995572733485L166.018359375,90.4740138540237L166.1923828125,114.79521295781726L166.36640625,99.11808136535862L166.8884765625,108.36236838119095L167.0625,98.27103184589654L167.410546875,92.81243749832385L167.5845703125,90.61825293604063L167.75859375000002,90.58410720777076L167.9326171875,97.6349045467154L168.106640625,95.17302567795029L168.2806640625,93.33559403862397L168.6287109375,101.21101480372953L168.802734375,98.8968088141133L168.9767578125,100.12352884773266L169.15078125000002,93.36374756737163L169.3248046875,91.61851378625666L169.49882812500002,90.50478113939846L169.6728515625,100.70579125429505L169.84687499999998,94.9108076656924L170.3689453125,91.89404070299082L170.54296875,90.24988257261657L170.891015625,103.78193426320071L171.0650390625,107.73168474239932L171.2390625,127.69839025646284L171.4130859375,110.80485940518204L171.58710937499998,108.48684169444512L171.7611328125,96.88321315799537L172.10917968750002,92.53920653577639L172.283203125,90.49269503334364L172.4572265625,89.62071882963401L172.63125,89.46812944998283L172.8052734375,89.41147305931251L172.979296875,89.22503917797108L173.1533203125,89.18765098035811L173.32734375,89.70948360214808L173.50136718750002,118.44308634388673L173.675390625,102.15234585582272L173.84941406250002,94.1542794488205L174.0234375,91.00794356544289L174.371484375,89.9971032439776L174.71953125,89.56170101265167L174.8935546875,89.54692221985765L175.067578125,92.80320980696987L175.2416015625,95.54857420311613L175.415625,95.17538401974613L175.5896484375,93.77383833575236L175.93769531249998,91.89642041066553L176.11171875,90.709443672008L176.2857421875,90.22330159690082L176.45976562500002,90.431701963285L176.6337890625,90.21016641359708L176.8078125,93.19301298171935L177.155859375,90.91153002018899L177.50390625,90.54246662141516L177.6779296875,92.56837040241187L178.0259765625,93.63265873256964L178.20000000000002,93.5862351087456L178.3740234375,93.08450814699835L178.89609374999998,91.26427679914525L179.0701171875,92.85427082766907L179.244140625,93.54441971368631L179.4181640625,92.8155053093402L179.5921875,92.8780709262312L179.940234375,91.26567868341616L180.1142578125,90.53349121749433L180.28828124999998,90.32176428743259L180.4623046875,89.98966238889462L180.636328125,90.38071411648433L180.81035156250002,90.04974970076L180.984375,89.99919383440727L181.332421875,91.32267857255097L181.5064453125,92.6301800565679L181.8544921875,91.07104452082491L182.028515625,90.47077982392807L182.20253906250002,90.3668332905556L182.3765625,91.22168829445275L182.724609375,90.30333596810024L182.89863281249998,90.16193931190165L183.07265625,89.92118571238028L183.24667968749998,90.1049546892446L183.5947265625,90.89352684188987L183.9427734375,91.74569748370439L184.2908203125,90.69116440383004L184.46484375,90.3643504709595L184.63886718749998,89.72380036663388L184.812890625,90.68336442781094L184.9869140625,90.73714538665749L185.6830078125,89.82194566274637L185.85703125,89.72053003895178L186.0310546875,90.05220707661891L186.205078125,89.64178658275132L186.3791015625,90.49921993304146L186.7271484375,89.80955180852229L186.90117187500002,89.51821179595917L187.0751953125,90.2606317732587L187.24921874999998,90.8197740491276L187.4232421875,90.93868602895387L187.59726562499998,90.93245044149305L187.7712890625,90.60776509941421L187.9453125,89.79609242027453L188.1193359375,89.89909829449346L188.293359375,89.7567353681534L188.64140625,89.48355423779995L188.8154296875,90.58451816096188L188.98945312499998,91.18388810786954L189.1634765625,90.14891145885008L189.3375,96.71941186976115L189.51152343750002,93.39431420049429L189.685546875,92.37695070850882L190.03359375,91.62624235056069L190.2076171875,90.6505305590644L190.381640625,91.42116477318723L190.5556640625,91.52926656710929L190.7296875,95.28420426776033L190.90371093750002,92.54804248015954L191.077734375,90.889853385143L191.25175781250002,90.59437887112298L191.42578125,89.70242192075817L192.121875,90.10704275938569L192.2958984375,90.11893404581467L192.6439453125,89.8976385859404L192.81796875,89.77010486826202L192.9919921875,89.74804069187334L193.166015625,91.02277861642727L193.34003906249998,93.80547932922742L193.5140625,91.63883695040718L193.6880859375,90.97514790611412L194.0361328125,90.07501893449367L194.21015625,96.99310945311937L194.3841796875,92.84424071030534L194.558203125,91.24804373058275L194.90625,90.61238933050937L195.0802734375,90.55390304624088L195.25429687500002,90.54300712759724L195.4283203125,91.15313999383689L195.60234375000002,91.02164924608282L195.7763671875,90.16146359179214L196.1244140625,89.96735363949979L196.29843749999998,94.13088123090316L196.646484375,91.53693117440278L196.8205078125,90.50436625923106L196.99453125,90.33218623178495L197.1685546875,89.9283893439268L197.342578125,89.97273704060349L197.5166015625,89.49922799981982L197.8646484375,89.58388265121647L198.21269531250002,90.19054085818034L198.734765625,90.84182960081324L198.9087890625,90.21135618105615L199.0828125,89.80367853510289L199.2568359375,89.75383108166723L199.60488281250002,90.29169103555606L199.77890625,89.62807595132286L199.95292968750002,89.40325284005037L200.30097656249998,92.1674593615155L200.475,101.54286473010993L200.64902343749998,106.32837781080542L200.823046875,101.76552335335991L201.17109375,95.08578831648049L201.3451171875,91.99808082392794L201.519140625,90.61401610482997L201.6931640625,89.6419827992497L201.8671875,89.669102081572L202.04121093749998,89.70506578777069L202.215234375,89.80486688522149L202.3892578125,89.7973354667375L202.56328125000002,89.49443688024175L202.911328125,89.41046359454195L203.0853515625,89.73487533052598L203.4333984375,89.3937247304089L203.7814453125,89.56864670058101L203.95546875000002,89.77055076462757L204.30351562500002,89.81632123053127L204.4775390625,89.6299742811377L204.65156249999998,89.50108413206532L204.8255859375,89.43379717302054L204.99960937499998,89.37909355072229L205.1736328125,89.40677781826336L205.695703125,89.42534340000303L205.8697265625,89.38174452775769L206.04375,89.37384525016225L206.2177734375,89.32752742500135L206.5658203125,89.26916510611876L206.73984375,89.25551830405546L206.91386718750002,89.25637304370284L207.087890625,89.26767999411112L207.2619140625,89.25732283243944L207.783984375,89.27223308095353L208.13203125,89.29854472860448L208.30605468750002,89.32378143316365L208.65410156250002,89.29720653025309L208.828125,89.33465627783715L209.176171875,89.33526212985007L209.35019531249998,89.27772316000716L209.52421875,89.17610466314295L209.6982421875,89.11811100729741L210.0462890625,94.18826179668186L210.2203125,93.02780785450808L210.3943359375,92.42731696531283L210.74238281249998,90.3435566735871L210.91640625,89.71463265358955L211.0904296875,90.15323532508081L211.26445312500002,90.80197546075L211.6125,124.92323128820368L211.7865234375,104.2664214733046L212.1345703125,96.8977468320729L212.4826171875,94.3980562589674L212.65664062500002,93.61780578447039L213.00468750000002,93.68740599244387L213.1787109375,93.80942918908534L213.35273437499998,94.12768944830941L213.5267578125,94.82707377423536L213.8748046875,96.88914425328524L214.2228515625,96.20182168239698L214.396875,94.11754351188603L214.5708984375,93.31637296409109L214.744921875,92.97264181599894L214.9189453125,93.05528599548101L215.09296874999998,92.99529373274248L215.2669921875,92.82702095315436L215.441015625,93.12611340703663L215.61503906250002,94.05767483912948L215.7890625,93.0847699739817L216.137109375,94.73400102050816L216.3111328125,95.70205680679936L216.48515625,95.43604483990015L216.6591796875,91.56588101246201L217.18125,92.15219072113175L217.35527343750002,92.69667712182986L217.529296875,90.60086765027552L217.70332031249998,94.08386761020714L217.87734375,96.41265109210369L218.225390625,95.61783734833281L218.3994140625,97.98671871467556L218.5734375,99.41217359179318L218.7474609375,93.3965275905608L218.921484375,94.6837106751291L219.7916015625,95.93508656253775L219.96562500000002,96.79556278090254L220.1396484375,95.6224954216352L220.313671875,94.4086596631741L220.4876953125,92.4215435860471L220.66171875,100.82006362607663L220.8357421875,93.79604177239487L221.009765625,91.78406708800834L221.1837890625,91.83347157194622L221.35781250000002,91.31613129284952L221.5318359375,90.68539316278957L221.70585937500002,90.2146252806433L221.8798828125,89.8814087616282L222.05390624999998,89.71327802965558L222.2279296875,89.49814371548317L222.40195312499998,89.20817837516923L222.5759765625,89.12713752358259L222.75,89.09184097056057L222.9240234375,89.09722970962278L223.098046875,89.08691598990002L223.2720703125,89.0924165374898L223.44609375,89.415153771025L223.6201171875,89.74903054380735L223.79414062499998,89.45820497196523L224.1421875,92.26768686916058L224.490234375,90.67305167768325L224.6642578125,90.04691849859287L224.83828125,90.20964648783078L225.0123046875,90.66318571525099L225.186328125,90.09791671621085L225.534375,90.20896154984469L225.882421875,90.84078174408845L226.05644531250002,90.6717595858788L226.23046875,90.97669907429827L226.40449218749998,90.98801017671677L226.75253906249998,90.01733829588397L226.9265625,90.07835813750783L227.1005859375,89.55789502122555L227.274609375,89.60319453923533L227.4486328125,90.19233151899094L227.970703125,89.72742251753907L228.14472656249998,89.66626122285253L228.66679687500002,90.8411793456409L228.8408203125,90.43604726719393L229.01484375,90.02287764236046L229.5369140625,90.46111996945328L229.7109375,90.74531362806832L230.05898437500002,90.79536055677649L230.2330078125,90.9996073926006L230.40703125000002,90.3230316918407L230.5810546875,90.23913373209622L230.75507812499998,90.60350326768047L230.9291015625,91.29715487373832L231.10312499999998,90.1952046759055L231.2771484375,89.52587706344653L231.451171875,89.70898484889068L231.6251953125,89.93177086679448L231.9732421875,91.25182368110528L232.147265625,90.474654506037L232.3212890625,90.02202922397399L232.6693359375,122.34374752832645L232.843359375,102.74417029167586L233.01738281250002,94.78626328068175L233.19140625,91.68101882241733L233.3654296875,90.20017803254444L233.539453125,89.55733119290689L233.7134765625,89.38918545579097L233.8875,89.42931715817318L234.235546875,89.32782159331714L234.40957031250002,89.27249551484147L234.75761718750002,89.26545449763275L234.931640625,89.24665515807375L235.10566406249998,89.24127967842158L235.2796875,89.20484990813303L235.45371093749998,89.15749084981934L235.627734375,89.11997800689599L235.8017578125,89.16364845235664L235.97578125,89.0792337287753L236.1498046875,89.3827195258921L236.323828125,89.31208526430251L236.4978515625,89.18701223243673L236.671875,89.15045452039787L236.84589843749998,89.2383920108785L237.019921875,89.16756462151993L237.36796875000002,89.09346611930864L237.5419921875,89.06645439486357L237.716015625,89.082546939407L237.8900390625,89.08883909589055L238.2380859375,89.13285091294438L238.412109375,89.09605697507764L239.10820312500002,89.13715828038143L239.45624999999998,89.15051273975045L239.6302734375,89.1087409784614L239.9783203125,89.07622460349832L240.15234375,89.06138328439035L240.3263671875,89.06942065830388L240.500390625,89.19343585369093L240.6744140625,89.28532579071093L241.0224609375,89.19024587079255L241.19648437499998,89.17405353212187L241.3705078125,89.15727294664175L241.54453125,89.23541500871659L241.71855468750002,89.58449991419552L241.892578125,89.56401938499307L242.0666015625,89.28903787594359L242.240625,89.17577699467327L242.4146484375,89.33908593127444L242.588671875,89.61738036971956L242.7626953125,89.50703680110475L242.93671875,89.61430306604156L243.11074218750002,91.89293441260244L243.284765625,52.76648510882345L243.45878906250002,38.269603369433135L243.6328125,32.37162637838004L243.80683593749998,89.9513674809879L244.15488281249998,51.7959289290735L244.32890625,82.20649622823476L244.676953125,88.03551980522363L244.8509765625,89.79045659344776L245.025,89.83401947009764L245.373046875,89.34730224932059L245.54707031249998,89.16359279703437L245.72109375,89.08474009660343L245.8951171875,89.05668505158694L246.06914062500002,89.0450893402853L246.2431640625,89.03614050413638L246.5912109375,89.04231431464629L246.9392578125,89.04419945041946L247.2873046875,89.05580525870818L247.80937500000002,89.06160077919988L247.9833984375,89.0711563177212L248.15742187499998,89.0580075886169L248.3314453125,89.13454296804815L248.50546874999998,89.15138433532185L248.6794921875,89.11519452671816L249.0275390625,89.1120805336851L249.2015625,89.12837013166764L249.3755859375,89.19541407273438L249.549609375,89.21465882493186L249.7236328125,89.16454243072508L249.89765624999998,89.09726018973133L250.0716796875,89.06505083529213L250.245703125,89.0833063059405L250.41972656250002,89.11364635989113L250.59375,89.14748642636216L250.941796875,89.19011405461056L251.1158203125,89.1590131811257L251.28984375,89.17222353008113L251.637890625,89.14018750615739L251.81191406250002,89.13213064305091L251.9859375,89.1009404836614L252.15996093750002,89.09759645985456L252.333984375,89.09602779640981L252.50800781249998,89.11054495666127L252.68203125,89.11706915151751L252.85605468749998,89.14897395987755L253.030078125,89.22624780641799L253.2041015625,89.22053809596895L253.378125,89.27344369353145L253.5521484375,89.23902651760237L253.726171875,89.21070456215269L253.9001953125,89.1879712293892L254.24824218749998,89.17996596836028L254.422265625,89.19465998292213L254.5962890625,89.1941465227708L254.77031250000002,89.16305587148469L254.9443359375,89.12948740446409L255.118359375,89.12908258205235L255.2923828125,89.13201417955058L255.46640625,89.12366207961097L255.6404296875,89.20329102467959L255.9884765625,89.20161927555351L256.1625,89.2874567961576L256.510546875,89.38045815448241L257.03261718749997,89.71162186565228L257.206640625,89.31757507615603L257.3806640625,89.15216915537953L257.7287109375,51.39349531268812L257.902734375,36.35623685795575L258.0767578125,68.90435845104587L258.4248046875,81.311667585787L258.598828125,86.08812524808408L258.77285156249997,88.01370230776817L258.94687500000003,88.66075949894386L259.1208984375,88.9189284287327L259.294921875,89.03305267694913L259.4689453125,89.05993859887599L259.64296875,89.06725524288274L259.8169921875,89.07872824459892L259.991015625,89.07452564640373L260.3390625,89.06786103828898L260.5130859375,89.07935769223305L260.68710937500003,89.04804463158327L260.8611328125,89.08249585666229" style="fill: none;" fill="none"></path></g></g></g></g><g opacity="0.2"><g><g><g><path stroke="rgb(204, 51, 17)" stroke-width="2px" d="M34.9787109375,89.06225351494338L35.3267578125,89.06435755549796L35.6748046875,115.55688037872315L35.848828125000004,123.42508629390173L36.196875,125.76576638902937L36.544921875,40.985713304792135L36.7189453125,148.51614548819407L36.89296875,137.8368274143764L37.0669921875,111.76871253422328L37.241015625,43.007299477713445L37.4150390625,110.18327538626536L37.589062500000004,37.616765158517026L37.7630859375,33.29929940359933L37.937109375000006,34.34638105119977L38.111132812499996,127.89665475572859L38.28515625,39.12000983101981L38.4591796875,94.89063514300756L38.633203125,95.43981791904994L38.98125,95.54753715651376L39.1552734375,93.66267027173724L39.5033203125,90.98615835564479L40.025390625,91.37710521732059L40.199414062500004,92.70270336014885L40.373437499999994,90.7512772849628L40.5474609375,90.56848038775578L40.721484374999996,91.00463017054965L41.06953125,90.83227329765047L41.5916015625,90.27548735993248L41.765625,90.82558483736855L42.113671875,91.27959865501948L42.287695312500006,90.32948278188705L42.461718749999996,90.46525447879519L42.6357421875,89.98948357531003L42.809765625,90.23870848246983L42.9837890625,90.5609151176044L43.3318359375,90.32405914068222L43.505859375,90.38132945128851L44.0279296875,90.33848868778773L44.201953125,90.30174270016808L44.3759765625,90.77222053664073L44.550000000000004,91.18670909915652L44.724023437499994,90.92901020731244L45.24609375,89.53597231294428L45.4201171875,90.12026783823967L45.594140625,90.26166013649534L45.7681640625,89.90107150929316L45.9421875,90.0235419171197L46.1162109375,90.08461365699767L46.290234375000004,90.52654310975755L46.4642578125,90.73547894443784L46.638281250000006,90.28815161670957L46.812304687499996,90.27457523516246L47.1603515625,94.92730443818229L47.334375,104.03735867909025L47.5083984375,109.32363856179374L47.682421875,113.91936026981898L48.03046875,89.4449501650674L48.2044921875,89.89100464071545L48.378515625,91.04767388105392L48.5525390625,92.22226247787475L48.900585937500004,89.60430482668536L49.074609374999994,91.32631935903002L49.422656249999996,90.79216708966662L49.5966796875,91.07054975203104L49.770703125,97.57671739714488L49.9447265625,97.92219655173167L50.11875,95.14672243254525L50.2927734375,93.68680141312734L50.640820312500004,89.25004912359373L50.81484375,90.09275934951646L50.988867187500006,90.78345325163431L51.162890624999996,91.60488647733416L51.5109375,91.28053912264961L52.0330078125,90.21048376815659L52.20703125,89.67539929151535L52.3810546875,90.03850399170604L52.555078125,89.90585910337313L52.7291015625,89.45755345438208L52.903125,90.44070410558156L53.0771484375,89.40859317183495L53.251171875000004,89.83197987675666L53.773242187499996,90.86256635870252L53.947265625,91.51882482256208L54.4693359375,89.90895393150193L54.991406250000004,89.91947921173914L55.1654296875,90.11853324004582L55.339453125000006,91.82090635980877L55.513476562499996,89.93357038753372L55.6875,90.3383021099227L55.8615234375,89.30622302400214L56.2095703125,89.73642230289322L56.38359375,90.32123197828021L56.5576171875,90.41333323887416L56.731640625,90.36835660593852L56.9056640625,90.42413065603803L57.2537109375,89.59018455020018L57.427734375,89.46169147406306L57.9498046875,89.70579397763525L58.123828124999996,89.55649546129364L58.471875,89.41141502942357L58.6458984375,89.80058720367295L58.9939453125,89.59395108137812L59.341992187500004,90.43387590135846L59.516015625,89.86931371348244L59.690039062500006,90.21328001107487L59.864062499999996,90.4973110113825L60.0380859375,91.68780586378914L60.212109375,89.65046333415168L60.56015625,90.17471894366402L60.7341796875,90.30440041167397L60.908203125,90.26774748563767L61.0822265625,89.12264124176332L61.4302734375,89.81535603148595L61.604296875,90.12480216537203L61.7783203125,90.41279199634279L62.126367187499994,90.04222281745501L62.300390625,89.78779593450683L62.474414062499996,89.87343987311635L62.8224609375,89.8783001431397L62.996484375,89.95189169730459L63.34453125,90.36097851991653L63.5185546875,89.34817839520318L63.8666015625,91.11735472679138L64.040625,90.24182490876743L64.2146484375,89.33765773773193L64.5626953125,89.02345719800465L64.73671875000001,89.3535198875836L64.9107421875,89.14121787409697L65.2587890625,89.36225361866612L65.4328125,89.39315987825394L65.6068359375,89.14817559154972L65.78085937499999,89.91961061954498L66.12890625,89.15662686026522L66.3029296875,90.91507249219077L66.476953125,90.15915416649409L66.6509765625,90.73568355866841L66.825,89.29689468017645L66.9990234375,89.23310837256057L67.173046875,89.17385252714158L67.34707031250001,89.18285358292717L67.52109374999999,89.13630915975996L67.869140625,89.26098346178021L68.0431640625,89.06447417613651L68.565234375,89.38654113837651L69.261328125,89.62652153670788L69.4353515625,89.15238390000802L69.7833984375,91.04376165696553L69.957421875,90.36278776441303L70.1314453125,89.20379247707979L70.4794921875,89.1405602477491L70.653515625,89.57225181800979L70.82753906250001,89.22088454791478L71.0015625,89.19527285205466L71.1755859375,89.21464053626572L71.69765625000001,89.2228240066341L71.87167968749999,89.8660588315555L72.04570312499999,89.69892674514226L72.2197265625,90.51712115492138L72.74179687499999,89.37547594181129L72.9158203125,90.75128077098302L73.08984375,90.30266998154775L73.2638671875,89.63419070541859L73.437890625,90.5365064586912L73.6119140625,89.90332469088692L73.9599609375,90.52720863648824L74.133984375,89.6853263403688L74.3080078125,90.47327065808433L74.6560546875,90.43031970603124L74.830078125,90.69269501822335L75.0041015625,89.78291399053167L75.17812500000001,89.6690696639674L75.3521484375,89.9039505830833L75.526171875,89.66509870801654L75.7001953125,89.77630813377246L76.04824218750001,90.8016032917159L76.22226562499999,90.93861904314585L76.5703125,90.50194438695908L76.7443359375,91.13338587284088L76.918359375,90.59455066578728L77.26640625,90.05086738978115L77.4404296875,89.6226318959679L77.614453125,89.78299871597972L77.7884765625,90.66511862788882L77.9625,91.90553571496692L78.1365234375,92.16678383009776L78.310546875,92.31035360268183L78.4845703125,92.91622058323453L78.65859375,89.75698853390557L78.8326171875,90.9393415587289L79.1806640625,89.69997490048408L79.702734375,89.754710571255L79.8767578125,90.0840363417353L80.05078125,89.87812159827777L80.22480468750001,91.56606433732168L80.57285156249999,91.44358119794302L80.9208984375,92.42869307654246L81.2689453125,92.37825248582021L81.6169921875,92.38474224294934L81.9650390625,96.50688446589879L82.1390625,98.05861149515424L82.3130859375,96.95436942236763L82.487109375,91.54504454476493L82.6611328125,94.5434244973319L83.0091796875,97.9953653880528L83.183203125,96.5339038508279L83.3572265625,148.09111535208567L83.53125,148.67907540457588L83.7052734375,150.27537923540388L83.87929687500001,124.77434223720006L84.0533203125,98.19812263080053L84.22734375,89.51180009714194L85.09746093749999,93.18059975079127L85.4455078125,92.76320036138806L85.61953125,94.94561180387224L85.967578125,94.66419478825159L86.1416015625,94.92597793170384L86.315625,98.35282857077462L86.4896484375,99.16720290865216L86.663671875,98.76589711053029L86.8376953125,95.9309308733259L87.01171875,95.72140105111257L87.1857421875,97.71736952236719L87.359765625,98.38040450641088L87.5337890625,94.23532336098808L87.7078125,95.85068026270186L88.22988281250001,101.96318270819529L88.40390625,98.4942403452737L88.751953125,93.36031561238426L89.27402343749999,93.2304077046258L89.44804687499999,91.31036081314087L89.79609375,96.59339596884593L89.9701171875,96.77493456431799L90.14414062499999,95.30160964557103L90.3181640625,92.68552607127599L90.4921875,92.13333107062749L90.6662109375,92.67283028875079L90.840234375,92.56134342125483L91.0142578125,93.6088206563677L91.18828125,93.44935826914653L91.3623046875,91.78803500788551L91.536328125,92.06118136474065L91.7103515625,92.30026991026742L91.884375,92.03374638557435L92.232421875,91.29227215732847L92.4064453125,91.43886476414544L92.7544921875,99.62740244184222L93.1025390625,150.6999146597726L93.45058593750001,150.73008722577777L93.79863281249999,93.38090495722636L93.97265625,134.4529312133789L94.1466796875,91.54177662815367L94.320703125,94.5181941986084L94.49472656249999,92.94332029819489L94.66875,89.06014817660409L94.8427734375,89.34846269530908L95.016796875,89.27036977963787L95.1908203125,90.5245030300958L95.36484375,91.80353809765407L95.5388671875,93.38873971189771L95.712890625,93.88474188532147L95.8869140625,92.24275118282863L96.0609375,94.00149082456316L96.2349609375,95.66176706722804L96.408984375,90.01077838454928L96.75703125,92.60734767232623L96.93105468750001,92.96956427097321L97.105078125,92.26421294212341L97.2791015625,89.22261232563429L97.453125,91.57020845753807L97.62714843750001,89.23154917423214L97.80117187500001,89.5522059891905L97.97519531249999,93.67929252556391L98.14921874999999,93.45875051702772L98.3232421875,91.96659229823521L98.497265625,90.24595379659108L98.6712890625,90.04832350441386L98.84531249999999,89.36790335859571L99.193359375,89.30074258340255L99.3673828125,95.98691393307277L99.7154296875,89.55819773801736L100.0634765625,89.72807457276751L100.2375,89.29152020322424L100.4115234375,89.34284811871392L100.585546875,89.03809919578157L100.7595703125,89.41085510637079L101.1076171875,89.83727347425051L101.28164062500001,89.10946238019635L101.6296875,89.89796099407333L101.8037109375,89.82403705545835L101.97773437500001,90.01102566463608L102.15175781250001,89.16630163682359L102.32578124999999,89.13637156710028L102.673828125,89.05978933439724L102.8478515625,91.41512011630195L103.021875,91.87152367659978L103.19589843749999,92.47929159913745L103.71796875,91.17314347880226L104.066015625,89.05207097301528L104.2400390625,89.34490752305304L104.5880859375,89.72602244360107L104.762109375,89.19604960935456L104.9361328125,89.08931185709578L105.2841796875,89.08863960461956L105.458203125,89.45414109528065L105.80625,89.04103516606347L106.154296875,90.9459748489516L106.85039062499999,89.42773869803973L107.0244140625,90.13858899644443L107.1984375,90.73533586604253L107.7205078125,90.40676663773402L107.89453125,90.11044605204037L108.0685546875,89.44513083185468L108.242578125,89.53722697709289L108.4166015625,91.2059423821313L108.590625,89.80621288248472L108.938671875,89.30154088203396L109.28671875,89.22098766969785L109.634765625,89.20932653418609L109.98281250000001,89.84563355701312L110.5048828125,89.27578785078867L110.67890625000001,89.62700351689544L111.02695312499999,90.03047189797674L111.20097656249999,89.3952624789306L111.375,89.24220673378024L111.5490234375,89.90346587470601L111.723046875,89.75778774193357L112.07109375,89.72652670400483L112.2451171875,90.06038558908872L112.419140625,89.92922407814436L112.5931640625,89.26843469738961L112.7671875,89.11865245785032L112.9412109375,89.39601958947522L113.115234375,89.06322655507498L113.2892578125,89.3245273394244L113.46328125,89.29454271537915L113.6373046875,97.31972677367074L113.811328125,94.83231190272741L113.9853515625,90.12557712282454L114.33339843750001,89.95966537083898L114.507421875,89.18935341920171L114.6814453125,89.39137026156698L114.85546875,90.09835986835614L115.02949218750001,89.60070664754934L115.20351562500001,89.77159548912731L115.37753906249999,89.90036862151965L115.55156249999999,94.04048908438001L115.7255859375,103.48760783331734L115.899609375,93.31889441694533L116.0736328125,93.35063629831586L116.24765624999999,89.8366794867175L116.4216796875,90.99924169267926L116.595703125,89.45973517256122L116.7697265625,89.51029811501503L116.94375,98.45300406047276L117.1177734375,94.78504692486354L117.291796875,97.5396800994873L117.8138671875,89.09413926569479L117.987890625,90.79725819485527L118.68398437500001,89.92364955289024L119.2060546875,90.7898390344211L119.38007812500001,92.11806260517665L119.55410156250001,93.03908824580056L119.72812499999999,92.3747288772038L119.90214843749999,91.89436499050687L120.2501953125,90.9926061289651L120.42421875,89.92965914862498L120.59824218749999,90.56380351270947L121.1203125,89.05522058281515L121.2943359375,89.04436000521694L121.6423828125,92.79915123326438L122.3384765625,102.43264232363019L122.5125,95.48373874255587L122.6865234375,92.20851603916715L122.860546875,91.95927953720093L123.03457031250001,90.671555185318L123.20859375,90.32674170902797L123.3826171875,90.41276804889951L123.556640625,95.34675512313842L123.73066406250001,90.70412416287832L123.90468750000001,90.67276741095952L124.25273437499999,89.47103677434582L124.4267578125,90.5112062879971L124.60078125,95.78310603414263L124.7748046875,97.29781941005163L124.94882812499999,95.95679653712682L125.1228515625,91.71399011952538L125.296875,91.18226518120083L125.8189453125,93.86753701141902L125.99296875,90.99071412937981L126.1669921875,89.94139112234116L127.2111328125,96.31541707856316L127.5591796875,91.3749867779868L127.733203125,90.1655023608889L127.9072265625,91.17127618449074L128.08125,91.90345319679804L128.2552734375,94.8679863180433L128.429296875,97.41437252589633L128.6033203125,97.69057688031877L128.77734375,90.85849332298551L128.9513671875,89.55578734448977L129.125390625,89.69498473831587L129.2994140625,89.34639919868536L129.47343750000002,89.85996276736259L129.6474609375,90.60274493524007L129.821484375,90.04539827874729L129.9955078125,104.64261666706632L130.16953125,90.81608679635185L130.34355468750002,91.26275693348475L130.69160156249998,90.69439240694047L130.865625,89.41333029440473L131.0396484375,89.96376311182976L131.3876953125,29.13352099827357L131.7357421875,91.34440164906638L132.0837890625,27.873150689261294L132.2578125,28.53042858668736L132.4318359375,91.50824459961481L132.7798828125,28.052973556518552L132.95390625,91.67934847559248L133.1279296875,28.88408442905972L133.4759765625,29.18568883623395L133.65,28.802971104213164L133.82402343750002,30.037757056100034L133.998046875,28.16599578857422L134.1720703125,30.63141599382672L134.34609375,29.921567698887422L134.5201171875,31.12478910173688L134.69414062500002,94.23364522116526L135.04218749999998,32.085296194893964L135.2162109375,94.9210580962045L135.390234375,93.36285343510765L135.5642578125,94.5051201071058L135.73828125,95.67829201562063L135.91230468749998,31.749643979753767L136.086328125,28.79850414821079L136.2603515625,33.18083049229214L136.434375,31.07019135611397L136.6083984375,94.8652787412916L136.782421875,29.087905665806367L136.9564453125,28.563535472324922L137.13046875,95.82655700274874L137.3044921875,31.177597154889785L137.6525390625,30.212695857456758L137.8265625,33.54252782549176L138.0005859375,33.02746500287738L138.3486328125,31.70154538835797L138.52265625,95.58176441873822L138.6966796875,95.04755212920054L138.870703125,32.75740574428013L139.21875,31.743285478864397L139.39277343749998,32.27382016863142L139.566796875,94.49925631795611L139.74082031249998,93.72681031567708L139.91484375,39.92824756077357L140.0888671875,95.66974126270838L140.262890625,96.210352066585L140.6109375,95.64713608877999L140.958984375,96.13496854645867L141.13300781249998,35.225066702706464L141.30703125,37.00414712088449L141.8291015625,96.57702258655004L142.5251953125,96.0218117237091L142.69921875,95.63857927322388L142.8732421875,96.44519342694964L143.04726562500002,96.9221064567566L143.2212890625,96.83775325502667L143.39531250000002,96.21129056385584L143.5693359375,98.35027134759086L143.74335937499998,99.35665325437274L144.2654296875,97.59933894021171L144.439453125,97.40840809685844L144.6134765625,97.02513805798124L144.7875,97.02631845474244L145.135546875,98.20474546296256L145.3095703125,99.07315796443395L145.48359374999998,99.35348127910069L145.831640625,98.50872642653329L146.00566406250002,98.85151801109313L146.1796875,98.82093439783368L146.3537109375,98.1228482382638L146.527734375,98.42919242041451L146.7017578125,97.93755747250148L146.87578125,98.61706162861415L147.0498046875,98.6453432559967L147.223828125,99.57365104130335L147.39785156250002,99.66328116825647L147.571875,98.71450832230705L147.74589843750002,99.4001211983817L147.919921875,98.68766960416521L148.09394531249998,97.85708133152555L148.26796875,99.24217113767351L148.44199218749998,99.01445762770518L148.9640625,98.57356337138586L149.1380859375,115.12751908983502L149.4861328125,98.2798197882516L149.66015625,97.80400045939852L149.83417968749998,95.44726163319179L150.008203125,100.12839144298009L150.1822265625,99.77586446489606L150.35625000000002,99.00461916923523L150.5302734375,99.50135401317053L150.704296875,100.13661238806587L150.8783203125,95.24023689542499L151.05234375,93.4463324035917L151.2263671875,144.62258464268277L151.5744140625,102.73450984954835L151.74843750000002,101.63085160936627L151.9224609375,100.26687799181256L152.09648437500002,103.12166058676583L152.2705078125,100.71893781934466L152.6185546875,91.96858175482068L152.79257812499998,90.41263755049023L152.9666015625,94.15467200960431L153.140625,93.86939460550036L153.3146484375,94.48174315861293L153.488671875,96.54241822787694L153.6626953125,103.21881930487498L153.83671875,99.21988000869752L154.0107421875,95.78469262804303L154.18476562499998,100.90443532126292L154.3587890625,99.60831117630005L154.5328125,99.19988177163259L154.70683593750002,101.3297892025539L155.22890625,98.04142268725802L155.576953125,98.91395111765179L155.925,99.41288791384015L156.44707031250002,100.27264114107403L156.62109375,99.52596470969063L156.79511718749998,100.2241339274815L156.969140625,100.63039411817279L157.14316406249998,100.86599209649223L157.3171875,99.74604838235038L157.4912109375,99.65184217180524L157.665234375,98.89899215017046L157.8392578125,99.16116087777274L158.01328125,100.35215029035295L158.1873046875,101.44527893066406L158.361328125,100.81762068612235L158.53535156249998,100.30920252118791L159.05742187500002,96.53292897769384L159.2314453125,97.45971140180315L159.40546875,97.52545410564967L159.753515625,97.30244520732336L159.9275390625,97.43346197264535L160.2755859375,95.71301883969988L160.44960937500002,98.63373511178153L160.6236328125,99.80564538410734L160.79765625000002,96.88660300799779L160.9716796875,101.98075225012644L161.14570312499998,96.74291531699046L161.6677734375,99.15276290348598L161.841796875,97.08198807580129L162.0158203125,97.74487331254143L162.7119140625,92.85966611930303L162.88593749999998,89.13997895387668L163.233984375,127.17626231057304L163.40800781250002,101.41118383407593L163.58203125,98.30471906661987L163.7560546875,89.3017327647124L163.930078125,101.80187030519757L164.1041015625,95.57650325638906L164.278125,94.72065800939288L164.4521484375,90.83096543380194L164.626171875,90.91317048924309L164.80019531250002,92.49439516067505L165.14824218750002,107.28083313533239L165.322265625,93.61572297641207L165.49628906249998,94.78358946527753L165.6703125,89.82922978571483L165.84433593749998,89.18766393086739L166.018359375,90.59601130826134L166.1923828125,130.08508731297084L166.36640625,89.26242534794976L166.8884765625,114.17392341068815L167.0625,91.92696685791016L167.410546875,89.3808130387749L167.5845703125,89.23884700600591L167.75859375000002,90.56264100074767L167.9326171875,102.06749049595426L168.106640625,93.62532984188624L168.2806640625,92.18046600478036L168.6287109375,106.162012222835L168.802734375,97.44194967406136L168.9767578125,100.8947241783142L169.15078125000002,89.11411308167234L169.3248046875,90.52134727239608L169.49882812500002,89.80461696726934L169.6728515625,107.11880412782942L169.84687499999998,91.26770723376956L170.3689453125,89.99750642350742L170.54296875,89.21625873169728L170.891015625,112.28905470711842L171.0650390625,110.21475263323102L171.2390625,140.25074909755162L171.4130859375,100.18449636186871L171.58710937499998,107.02958626065936L171.7611328125,89.5884238826377L172.10917968750002,89.80828380584717L172.283203125,89.20612591292176L172.4572265625,89.07253834977746L172.63125,89.37220192466464L172.8052734375,89.3758551980768L172.979296875,89.10783481608543L173.1533203125,89.16414634798254L173.32734375,90.0375412438597L173.50136718750002,136.50688220432826L173.675390625,91.91093571186066L173.84941406250002,89.1261790691742L174.0234375,89.02995390586022L174.371484375,89.36162382364273L174.71953125,89.28797908872366L174.8935546875,89.53763131754741L175.067578125,94.8503221988678L175.2416015625,97.27448732512337L175.415625,94.94077260153634L175.5896484375,92.89273632594518L175.93769531249998,90.71615441867282L176.11171875,89.96323353988782L176.2857421875,89.9176813346999L176.45976562500002,90.56271587439946L176.6337890625,90.07089487910271L176.8078125,95.06822271347046L177.155859375,89.47724268606733L177.50390625,90.31044956615992L177.6779296875,93.84198418004173L178.0259765625,94.30173901830402L178.20000000000002,93.55705022471291L178.3740234375,92.76909021990642L178.89609374999998,90.1199619778565L179.0701171875,93.85384362084525L179.244140625,93.97829181466784L179.4181640625,92.3572627033506L179.5921875,92.91740370818547L179.940234375,90.25202492816106L180.1142578125,90.07319095390183L180.28828124999998,90.18865908384323L180.4623046875,89.78088171652385L180.636328125,90.62655445337296L180.81035156250002,89.84168412344798L180.984375,89.96741115621157L181.332421875,92.15470643724713L181.5064453125,93.45215981687818L181.8544921875,90.09087136643272L182.028515625,90.09341472131867L182.20253906250002,90.30148579563412L182.3765625,91.75910528387341L182.724609375,89.72600046651704L182.89863281249998,90.07304825442179L183.07265625,89.76983247229032L183.24667968749998,90.22048372030258L183.5947265625,91.38927415609359L183.9427734375,92.28142690999168L184.2908203125,90.02821689758981L184.46484375,90.15889415485519L184.63886718749998,89.32110925870282L184.812890625,91.28660828386035L184.9869140625,90.77095556599754L185.6830078125,89.2465920903853L185.85703125,89.6567736370223L186.0310546875,90.26072065404483L186.205078125,89.3837697901896L186.3791015625,91.03825783729553L186.7271484375,89.37598194522518L186.90117187500002,89.33505667405468L187.0751953125,90.72736485345021L187.24921874999998,91.17128694568362L187.4232421875,91.01344176871437L187.59726562499998,90.92853034905025L187.7712890625,90.40364695276533L187.9453125,89.28582262524537L188.1193359375,89.96385443040303L188.293359375,89.66723685094288L188.64140625,89.31181496041161L188.8154296875,91.2766550898552L188.98945312499998,91.56069071292877L189.1634765625,89.49825838633947L189.3375,100.85005219323293L189.51152343750002,91.30394335303988L189.685546875,91.73737040247237L190.03359375,91.15429865973336L190.2076171875,90.03713519828662L190.381640625,91.90563514232636L190.5556640625,91.59722632680621L190.7296875,97.64480028152465L190.90371093750002,90.82791471140725L191.077734375,89.84740877492088L191.25175781250002,90.40862453494753L191.42578125,89.14168025489364L192.121875,90.3614135146141L192.2958984375,90.12640967539377L192.6439453125,89.75851798738752L192.81796875,89.68992894802774L192.9919921875,89.73416972756385L193.166015625,91.82416109016965L193.34003906249998,95.55486446789332L193.5140625,90.27674581323352L193.6880859375,90.55791016817093L194.0361328125,89.50913980901241L194.21015625,101.3422673361642L194.3841796875,90.23599423680987L194.558203125,90.24457136222296L194.90625,90.21277597802025L195.0802734375,90.5171347958701L195.25429687500002,90.53615725040436L195.4283203125,91.5367088641439L195.60234375000002,90.93898568153381L195.7763671875,89.62069541173324L196.1244140625,89.84532360434532L196.29843749999998,96.74834320204597L196.646484375,89.90620687178202L196.8205078125,89.8552293581622L196.99453125,90.2239427617618L197.1685546875,89.67453657729286L197.342578125,90.00061686294421L197.5166015625,89.20154967776367L197.8646484375,89.63710202489581L198.21269531250002,90.57192533356803L198.734765625,91.25127170937404L198.9087890625,89.81499992694172L199.0828125,89.54738607364041L199.2568359375,89.7224937575204L199.60488281250002,90.62982449190956L199.77890625,89.21088470944338L199.95292968750002,89.26191453231233L200.30097656249998,93.90521785872322L200.475,107.43684921264648L200.64902343749998,109.33685997554235L200.823046875,98.89701875959123L201.17109375,90.88647606202532L201.3451171875,90.05694875206267L201.519140625,89.74390375699316L201.6931640625,89.03089997196305L201.8671875,89.68615101150104L202.04121093749998,89.7276748929705L202.215234375,89.86760829176221L202.3892578125,89.79260073133878L202.56328125000002,89.30401529329166L202.911328125,89.35767257128443L203.0853515625,89.93882147073745L203.4333984375,89.17925546062845L203.7814453125,89.67861393264361L203.95546875000002,89.89748068111285L204.30351562500002,89.84509549736977L204.4775390625,89.51282457028117L204.65156249999998,89.42005547157358L204.8255859375,89.39149625088487L204.99960937499998,89.34470332562924L205.1736328125,89.42418193433967L205.695703125,89.43701492207393L205.8697265625,89.35433546475004L206.04375,89.36887925480094L206.2177734375,89.29840905283179L206.5658203125,89.23247478838478L206.73984375,89.24693904412645L206.91386718750002,89.25691038817168L207.087890625,89.27478827238083L207.2619140625,89.25081165262631L207.783984375,89.28160662480764L208.13203125,89.31508592729058L208.30605468750002,89.33964685329367L208.65410156250002,89.28049983233214L208.828125,89.35819960449423L209.176171875,89.33564300749983L209.35019531249998,89.24155045258149L209.52421875,89.1122207221176L209.6982421875,89.08165245492545L210.0462890625,97.37568558284215L210.2203125,92.29827166284834L210.3943359375,92.04980966363634L210.74238281249998,89.03357056185071L210.91640625,89.3192504520927L211.0904296875,90.42896925210952L211.26445312500002,91.20981535060066L211.6125,146.3740533556257L211.7865234375,91.28021856035504L212.1345703125,92.26532270908356L212.4826171875,92.82658954688479L212.65664062500002,93.12729001385826L213.00468750000002,93.73116117204938L213.1787109375,93.88614084039416L213.35273437499998,94.32776837348938L213.5267578125,95.26675186838422L213.8748046875,98.18549474988664L214.2228515625,95.76972638538905L214.396875,92.80723182814464L214.5708984375,92.81270548616136L214.744921875,92.75655024732862L214.9189453125,93.10724145684924L215.09296874999998,92.95757872717721L215.2669921875,92.72123383113316L215.441015625,93.31414221354893L215.61503906250002,94.6433144365038L215.7890625,92.4731392281396L216.137109375,95.77081402369906L216.3111328125,96.3106391089303L216.48515625,95.26881256103516L216.6591796875,89.13284642387714L217.18125,92.52078281811305L217.35527343750002,93.03897639002118L217.529296875,89.28330664698568L217.70332031249998,96.27350602149963L217.87734375,97.87667458398002L218.225390625,95.11816616739544L218.3994140625,99.47595032283236L218.5734375,100.30830646242414L218.7474609375,89.61470453441143L218.921484375,95.49291697910856L219.7916015625,96.72178215299334L219.96562500000002,97.33651362827845L220.1396484375,94.88502962248666L220.313671875,93.64556421892985L220.4876953125,91.17231426068716L220.66171875,106.09991498674664L220.8357421875,89.38028862008028L221.009765625,90.51921003886632L221.1837890625,91.86453041689735L221.35781250000002,90.99089782748904L221.5318359375,90.2888704947063L221.70585937500002,89.91867022769793L221.8798828125,89.67192736693792L222.05390624999998,89.60758020792689L222.2279296875,89.36289641048226L222.40195312499998,89.02588746090021L222.5759765625,89.07619001753628L222.75,89.06965128087572L222.9240234375,89.10061741854463L223.098046875,89.08043212049772L223.2720703125,89.0958745364632L223.44609375,89.6180472109999L223.6201171875,89.95892701659885L223.79414062499998,89.27537326067686L224.1421875,94.03390838759287L224.490234375,89.6705611501421L224.6642578125,89.65329079968589L224.83828125,90.31194779702597L225.0123046875,90.9483097246715L225.186328125,89.74255216632571L225.534375,90.27877149411611L225.882421875,91.23798466750554L226.05644531250002,90.56550135612488L226.23046875,91.1684037038258L226.40449218749998,90.9951210652079L226.75253906249998,89.40711134799889L226.9265625,90.11671914543423L227.1005859375,89.23069833900247L227.274609375,89.63167273785386L227.4486328125,90.56270102092199L227.970703125,89.43515073486735L228.14472656249998,89.62781128840788L228.66679687500002,91.57980865410396L228.8408203125,90.18135511364255L229.01484375,89.76313256876809L229.5369140625,90.73662736075266L229.7109375,90.92397609097618L230.05898437500002,90.8268232839448L230.2330078125,91.1280101265226L230.40703125000002,89.89769257051603L230.5810546875,90.18639006359237L230.75507812499998,90.83256945780347L230.9291015625,91.73322901044573L231.10312499999998,89.50244771114417L231.2771484375,89.10509455789413L231.451171875,89.82409821237836L231.6251953125,90.07182852625847L231.9732421875,92.0816940171378L232.147265625,89.98607583897456L232.3212890625,89.73747977955001L232.6693359375,142.66326424734933L232.843359375,90.42261196374893L233.01738281250002,89.78340968745094L233.19140625,89.72886188285693L233.3654296875,89.26922600503478L233.539453125,89.1531962090305L233.7134765625,89.28347820086137L233.8875,89.45454653458935L234.235546875,89.2640149352806L234.40957031250002,89.23771397364992L234.75761718750002,89.26102806010417L234.931640625,89.23483668076142L235.10566406249998,89.23790030522007L235.2796875,89.18194780498743L235.45371093749998,89.1277178913355L235.627734375,89.09639501443931L235.8017578125,89.19110251090356L235.97578125,89.0261651891949L236.1498046875,89.57351027131081L236.323828125,89.26768001190256L236.4978515625,89.1083832580064L236.671875,89.12747198481645L236.84589843749998,89.2936751889331L237.019921875,89.1230379565486L237.36796875000002,89.04688302182726L237.5419921875,89.04947308275315L237.716015625,89.09266375079751L237.8900390625,89.09279475126948L238.2380859375,89.16051957969155L238.412109375,89.0729259327054L239.10820312500002,89.16299721172877L239.45624999999998,89.15890821420719L239.6302734375,89.0824805552406L239.9783203125,89.05578271304921L240.15234375,89.05205307400652L240.3263671875,89.07447346991725L240.500390625,89.27139980388537L240.6744140625,89.34309373157365L241.0224609375,89.13047250094158L241.19648437499998,89.16387398370675L241.3705078125,89.14672358834318L241.54453125,89.28454014871802L241.71855468750002,89.80395720005035L241.892578125,89.55114400344237L242.0666015625,89.11616676439132L242.240625,89.10457389993326L242.4146484375,89.44175246145043L242.588671875,89.79233420235771L242.7626953125,89.43766771725245L242.93671875,89.68173755833081L243.11074218750002,93.32542903763905L243.284765625,28.16907561165946L243.45878906250002,29.155928530011852L243.6328125,28.663777651105608L243.80683593749998,126.14970635005406L244.15488281249998,27.808959415980745L244.32890625,101.32454016549248L244.676953125,91.70001996925899L244.8509765625,90.89372304337364L245.025,89.86140590395246L245.373046875,89.04132041345748L245.54707031249998,89.04810118696521L245.72109375,89.03516820349864L245.8951171875,89.03904784087625L246.06914062500002,89.03779952829436L246.2431640625,89.03051468857697L246.5912109375,89.0461955701134L246.9392578125,89.04538456834852L247.2873046875,89.06310141831636L247.80937500000002,89.06524421716374L247.9833984375,89.07716354552123L248.15742187499998,89.04974144947316L248.3314453125,89.18265804371663L248.50546874999998,89.16197190497603L248.6794921875,89.09244327896408L249.0275390625,89.1101228768272L249.2015625,89.1386108235589L249.3755859375,89.23756221809558L249.549609375,89.22675731735572L249.7236328125,89.13303603306413L249.89765624999998,89.05496223366686L250.0716796875,89.04480195774563L250.245703125,89.09478287217871L250.41972656250002,89.13272007458977L250.59375,89.16876047466484L250.941796875,89.21691253100123L251.1158203125,89.13946116619877L251.28984375,89.18052840743746L251.637890625,89.12004759535193L251.81191406250002,89.12706557927388L251.9859375,89.0813323378563L252.15996093750002,89.09549419081637L252.333984375,89.09504163339734L252.50800781249998,89.11967137988124L252.68203125,89.12117068118285L252.85605468749998,89.16903138011693L253.030078125,89.27482713013887L253.2041015625,89.21694860373225L253.378125,89.30670356431179L253.5521484375,89.21738966107368L253.726171875,89.19289955432926L253.9001953125,89.17367959022522L254.24824218749998,89.17493334497725L254.422265625,89.20389758816789L254.5962890625,89.19382372860399L254.77031250000002,89.14351028289114L254.9443359375,89.10838410109281L255.118359375,89.12882808457528L255.2923828125,89.13385717081171L255.46640625,89.11841141091925L255.6404296875,89.25335091522761L255.9884765625,89.20056830623321L256.1625,89.34141979771L256.510546875,89.43892480645862L257.03261718749997,89.91981273293496L257.206640625,89.06985185018607L257.3806640625,89.04818432570566L257.7287109375,27.655957685198096L257.902734375,26.902846363612593L258.0767578125,89.36620687927518L258.4248046875,89.11170231870241L258.598828125,89.0909145927855L258.77285156249997,89.2242442377976L258.94687500000003,89.0675413813442L259.1208984375,89.08123006863252L259.294921875,89.10479853983436L259.4689453125,89.07684082340982L259.64296875,89.07185495719314L259.8169921875,89.08594091343028L259.991015625,89.0718836221312L260.3390625,89.06367123579341L260.5130859375,89.0865852303803L260.68710937500003,89.02835922211942L260.8611328125,89.10415411868266" style="fill: none;" fill="none"></path></g></g></g></g></g></g><g transform="translate(51, 178)" clip-path="url(#clip_1)"><clipPath id="clip_1"><rect width="278" height="22"></rect></clipPath><g><g><line x1="0" y1="0" x2="0" y2="5" style="visibility: inherit;" fill="rgb(0, 0, 0)" stroke="rgb(204, 204, 204)" stroke-width="1px"></line><line x1="34.8046875" y1="0" x2="34.8046875" y2="5" style="visibility: inherit;" fill="rgb(0, 0, 0)" stroke="rgb(204, 204, 204)" stroke-width="1px"></line><line x1="69.609375" y1="0" x2="69.609375" y2="5" style="visibility: inherit;" fill="rgb(0, 0, 0)" stroke="rgb(204, 204, 204)" stroke-width="1px"></line><line x1="104.4140625" y1="0" x2="104.4140625" y2="5" style="visibility: inherit;" fill="rgb(0, 0, 0)" stroke="rgb(204, 204, 204)" stroke-width="1px"></line><line x1="139.21875" y1="0" x2="139.21875" y2="5" style="visibility: inherit;" fill="rgb(0, 0, 0)" stroke="rgb(204, 204, 204)" stroke-width="1px"></line><line x1="174.0234375" y1="0" x2="174.0234375" y2="5" style="visibility: inherit;" fill="rgb(0, 0, 0)" stroke="rgb(204, 204, 204)" stroke-width="1px"></line><line x1="208.828125" y1="0" x2="208.828125" y2="5" style="visibility: inherit;" fill="rgb(0, 0, 0)" stroke="rgb(204, 204, 204)" stroke-width="1px"></line><line x1="243.6328125" y1="0" x2="243.6328125" y2="5" style="visibility: inherit;" fill="rgb(0, 0, 0)" stroke="rgb(204, 204, 204)" stroke-width="1px"></line><line x1="278.4375" y1="0" x2="278.4375" y2="5" style="visibility: inherit;" fill="rgb(0, 0, 0)" stroke="rgb(204, 204, 204)" stroke-width="1px"></line></g><g transform="translate(0, 8)"><text x="0" y="0" dx="0em" dy="0.95em" style="text-anchor: middle; visibility: hidden; font-family: Roboto, sans-serif; font-size: 12px; font-weight: 200;" fill="rgb(50, 49, 63)" stroke="none" stroke-width="1px">-200</text><text x="34.8046875" y="0" dx="0em" dy="0.95em" style="text-anchor: middle; visibility: inherit; font-family: Roboto, sans-serif; font-size: 12px; font-weight: 200;" fill="rgb(50, 49, 63)" stroke="none" stroke-width="1px">0</text><text x="69.609375" y="0" dx="0em" dy="0.95em" style="text-anchor: middle; visibility: inherit; font-family: Roboto, sans-serif; font-size: 12px; font-weight: 200;" fill="rgb(50, 49, 63)" stroke="none" stroke-width="1px">200</text><text x="104.4140625" y="0" dx="0em" dy="0.95em" style="text-anchor: middle; visibility: inherit; font-family: Roboto, sans-serif; font-size: 12px; font-weight: 200;" fill="rgb(50, 49, 63)" stroke="none" stroke-width="1px">400</text><text x="139.21875" y="0" dx="0em" dy="0.95em" style="text-anchor: middle; visibility: inherit; font-family: Roboto, sans-serif; font-size: 12px; font-weight: 200;" fill="rgb(50, 49, 63)" stroke="none" stroke-width="1px">600</text><text x="174.0234375" y="0" dx="0em" dy="0.95em" style="text-anchor: middle; visibility: inherit; font-family: Roboto, sans-serif; font-size: 12px; font-weight: 200;" fill="rgb(50, 49, 63)" stroke="none" stroke-width="1px">800</text><text x="208.828125" y="0" dx="0em" dy="0.95em" style="text-anchor: middle; visibility: inherit; font-family: Roboto, sans-serif; font-size: 12px; font-weight: 200;" fill="rgb(50, 49, 63)" stroke="none" stroke-width="1px">1k</text><text x="243.6328125" y="0" dx="0em" dy="0.95em" style="text-anchor: middle; visibility: inherit; font-family: Roboto, sans-serif; font-size: 12px; font-weight: 200;" fill="rgb(50, 49, 63)" stroke="none" stroke-width="1px">1.2k</text><text x="278.4375" y="0" dx="0em" dy="0.95em" style="text-anchor: middle; visibility: hidden; font-family: Roboto, sans-serif; font-size: 12px; font-weight: 200;" fill="rgb(50, 49, 63)" stroke="none" stroke-width="1px">1.4k</text></g><line x1="0" y1="0" x2="278.4375" y2="0" fill="rgb(0, 0, 0)" stroke="rgb(204, 204, 204)" stroke-width="1px"></line></g></g></g></g></svg>