<svg viewBox="0 0 330 200" xmlns="http://www.w3.org/2000/svg"><g><g><g><g><g><line x1="60" y1="178" x2="55" y2="178" style="visibility: inherit;" fill="rgb(0, 0, 0)" stroke="rgb(204, 204, 204)" stroke-width="1px"></line><line x1="60" y1="161.8181818181818" x2="55" y2="161.8181818181818" style="visibility: inherit;" fill="rgb(0, 0, 0)" stroke="rgb(204, 204, 204)" stroke-width="1px"></line><line x1="60" y1="145.63636363636363" x2="55" y2="145.63636363636363" style="visibility: inherit;" fill="rgb(0, 0, 0)" stroke="rgb(204, 204, 204)" stroke-width="1px"></line><line x1="60" y1="129.45454545454547" x2="55" y2="129.45454545454547" style="visibility: inherit;" fill="rgb(0, 0, 0)" stroke="rgb(204, 204, 204)" stroke-width="1px"></line><line x1="60" y1="113.27272727272727" x2="55" y2="113.27272727272727" style="visibility: inherit;" fill="rgb(0, 0, 0)" stroke="rgb(204, 204, 204)" stroke-width="1px"></line><line x1="60" y1="97.09090909090908" x2="55" y2="97.09090909090908" style="visibility: inherit;" fill="rgb(0, 0, 0)" stroke="rgb(204, 204, 204)" stroke-width="1px"></line><line x1="60" y1="80.90909090909089" x2="55" y2="80.90909090909089" style="visibility: inherit;" fill="rgb(0, 0, 0)" stroke="rgb(204, 204, 204)" stroke-width="1px"></line><line x1="60" y1="64.7272727272727" x2="55" y2="64.7272727272727" style="visibility: inherit;" fill="rgb(0, 0, 0)" stroke="rgb(204, 204, 204)" stroke-width="1px"></line><line x1="60" y1="48.54545454545454" x2="55" y2="48.54545454545454" style="visibility: inherit;" fill="rgb(0, 0, 0)" stroke="rgb(204, 204, 204)" stroke-width="1px"></line><line x1="60" y1="32.36363636363633" x2="55" y2="32.36363636363633" style="visibility: inherit;" fill="rgb(0, 0, 0)" stroke="rgb(204, 204, 204)" stroke-width="1px"></line><line x1="60" y1="16.18181818181821" x2="55" y2="16.18181818181821" style="visibility: inherit;" fill="rgb(0, 0, 0)" stroke="rgb(204, 204, 204)" stroke-width="1px"></line><line x1="60" y1="0" x2="55" y2="0" style="visibility: inherit;" fill="rgb(0, 0, 0)" stroke="rgb(204, 204, 204)" stroke-width="1px"></line></g><g transform="translate(50, 0)"><text x="0" y="178" dx="0em" dy="0.3em" style="text-anchor: end; visibility: hidden; font-family: Roboto, sans-serif; font-size: 12px; font-weight: 200;" fill="rgb(50, 49, 63)" stroke="none" stroke-width="1px">-2e-3</text><text x="0" y="161.8181818181818" dx="0em" dy="0.3em" style="text-anchor: end; visibility: inherit; font-family: Roboto, sans-serif; font-size: 12px; font-weight: 200;" fill="rgb(50, 49, 63)" stroke="none" stroke-width="1px">0</text><text x="0" y="145.63636363636363" dx="0em" dy="0.3em" style="text-anchor: end; visibility: hidden; font-family: Roboto, sans-serif; font-size: 12px; font-weight: 200;" fill="rgb(50, 49, 63)" stroke="none" stroke-width="1px">2e-3</text><text x="0" y="129.45454545454547" dx="0em" dy="0.3em" style="text-anchor: end; visibility: inherit; font-family: Roboto, sans-serif; font-size: 12px; font-weight: 200;" fill="rgb(50, 49, 63)" stroke="none" stroke-width="1px">4e-3</text><text x="0" y="113.27272727272727" dx="0em" dy="0.3em" style="text-anchor: end; visibility: hidden; font-family: Roboto, sans-serif; font-size: 12px; font-weight: 200;" fill="rgb(50, 49, 63)" stroke="none" stroke-width="1px">6e-3</text><text x="0" y="97.09090909090908" dx="0em" dy="0.3em" style="text-anchor: end; visibility: inherit; font-family: Roboto, sans-serif; font-size: 12px; font-weight: 200;" fill="rgb(50, 49, 63)" stroke="none" stroke-width="1px">8e-3</text><text x="0" y="80.90909090909089" dx="0em" dy="0.3em" style="text-anchor: end; visibility: hidden; font-family: Roboto, sans-serif; font-size: 12px; font-weight: 200;" fill="rgb(50, 49, 63)" stroke="none" stroke-width="1px">0.01</text><text x="0" y="64.7272727272727" dx="0em" dy="0.3em" style="text-anchor: end; visibility: inherit; font-family: Roboto, sans-serif; font-size: 12px; font-weight: 200;" fill="rgb(50, 49, 63)" stroke="none" stroke-width="1px">0.012</text><text x="0" y="48.54545454545454" dx="0em" dy="0.3em" style="text-anchor: end; visibility: hidden; font-family: Roboto, sans-serif; font-size: 12px; font-weight: 200;" fill="rgb(50, 49, 63)" stroke="none" stroke-width="1px">0.014</text><text x="0" y="32.36363636363633" dx="0em" dy="0.3em" style="text-anchor: end; visibility: inherit; font-family: Roboto, sans-serif; font-size: 12px; font-weight: 200;" fill="rgb(50, 49, 63)" stroke="none" stroke-width="1px">0.016</text><text x="0" y="16.18181818181821" dx="0em" dy="0.3em" style="text-anchor: end; visibility: hidden; font-family: Roboto, sans-serif; font-size: 12px; font-weight: 200;" fill="rgb(50, 49, 63)" stroke="none" stroke-width="1px">0.018</text><text x="0" y="0" dx="0em" dy="0.3em" style="text-anchor: end; visibility: hidden; font-family: Roboto, sans-serif; font-size: 12px; font-weight: 200;" fill="rgb(50, 49, 63)" stroke="none" stroke-width="1px">0.02</text></g><line x1="60" y1="0" x2="60" y2="178" fill="rgb(0, 0, 0)" stroke="rgb(204, 204, 204)" stroke-width="1px"></line></g></g><g transform="translate(60, 0)" clip-path="url(#clip_0)"><clipPath id="clip_0"><rect width="270" height="178"></rect></clipPath><g><g><g><line x1="0" y1="0" x2="0" y2="178" fill="rgb(0, 0, 0)" stroke="rgb(60, 60, 60)" stroke-width="1px" opacity="0.25"></line><line x1="33.75" y1="0" x2="33.75" y2="178" fill="rgb(0, 0, 0)" stroke="rgb(60, 60, 60)" stroke-width="1px" opacity="0.25"></line><line x1="67.5" y1="0" x2="67.5" y2="178" fill="rgb(0, 0, 0)" stroke="rgb(60, 60, 60)" stroke-width="1px" opacity="0.25"></line><line x1="101.25" y1="0" x2="101.25" y2="178" fill="rgb(0, 0, 0)" stroke="rgb(60, 60, 60)" stroke-width="1px" opacity="0.25"></line><line x1="135" y1="0" x2="135" y2="178" fill="rgb(0, 0, 0)" stroke="rgb(60, 60, 60)" stroke-width="1px" opacity="0.25"></line><line x1="168.75" y1="0" x2="168.75" y2="178" fill="rgb(0, 0, 0)" stroke="rgb(60, 60, 60)" stroke-width="1px" opacity="0.25"></line><line x1="202.5" y1="0" x2="202.5" y2="178" fill="rgb(0, 0, 0)" stroke="rgb(60, 60, 60)" stroke-width="1px" opacity="0.25"></line><line x1="236.25" y1="0" x2="236.25" y2="178" fill="rgb(0, 0, 0)" stroke="rgb(60, 60, 60)" stroke-width="1px" opacity="0.25"></line><line x1="270" y1="0" x2="270" y2="178" fill="rgb(0, 0, 0)" stroke="rgb(60, 60, 60)" stroke-width="1px" opacity="0.25"></line></g><g><line x1="0" y1="178" x2="270" y2="178" fill="rgb(0, 0, 0)" stroke="rgb(60, 60, 60)" stroke-width="1px" opacity="0.25"></line><line x1="0" y1="161.8181818181818" x2="270" y2="161.8181818181818" fill="rgb(0, 0, 0)" stroke="rgb(60, 60, 60)" stroke-width="1px" opacity="0.25"></line><line x1="0" y1="145.63636363636363" x2="270" y2="145.63636363636363" fill="rgb(0, 0, 0)" stroke="rgb(60, 60, 60)" stroke-width="1px" opacity="0.25"></line><line x1="0" y1="129.45454545454547" x2="270" y2="129.45454545454547" fill="rgb(0, 0, 0)" stroke="rgb(60, 60, 60)" stroke-width="1px" opacity="0.25"></line><line x1="0" y1="113.27272727272727" x2="270" y2="113.27272727272727" fill="rgb(0, 0, 0)" stroke="rgb(60, 60, 60)" stroke-width="1px" opacity="0.25"></line><line x1="0" y1="97.09090909090908" x2="270" y2="97.09090909090908" fill="rgb(0, 0, 0)" stroke="rgb(60, 60, 60)" stroke-width="1px" opacity="0.25"></line><line x1="0" y1="80.90909090909089" x2="270" y2="80.90909090909089" fill="rgb(0, 0, 0)" stroke="rgb(60, 60, 60)" stroke-width="1px" opacity="0.25"></line><line x1="0" y1="64.7272727272727" x2="270" y2="64.7272727272727" fill="rgb(0, 0, 0)" stroke="rgb(60, 60, 60)" stroke-width="1px" opacity="0.25"></line><line x1="0" y1="48.54545454545454" x2="270" y2="48.54545454545454" fill="rgb(0, 0, 0)" stroke="rgb(60, 60, 60)" stroke-width="1px" opacity="0.25"></line><line x1="0" y1="32.36363636363633" x2="270" y2="32.36363636363633" fill="rgb(0, 0, 0)" stroke="rgb(60, 60, 60)" stroke-width="1px" opacity="0.25"></line><line x1="0" y1="16.18181818181821" x2="270" y2="16.18181818181821" fill="rgb(0, 0, 0)" stroke="rgb(60, 60, 60)" stroke-width="1px" opacity="0.25"></line><line x1="0" y1="0" x2="270" y2="0" fill="rgb(0, 0, 0)" stroke="rgb(60, 60, 60)" stroke-width="1px" opacity="0.25"></line></g></g></g><g><g><line x1="0" y1="161.8181818181818" x2="270" y2="161.8181818181818" fill="rgb(0, 0, 0)" stroke="rgb(153, 153, 153)" stroke-width="1.5px"></line></g></g><g><g><line x1="33.75" y1="0" x2="33.75" y2="178" fill="rgb(0, 0, 0)" stroke="rgb(153, 153, 153)" stroke-width="1.5px"></line></g></g><g><g><g><g><g><path stroke="rgb(255, 112, 67)" stroke-width="2px" d="M34.0875,161.8181818181818L34.4925,161.8181818181818L34.7625,161.8181818181818L34.965,161.8181818181818L35.370000000000005,161.8181818181818L36.18,161.8181818181818L36.45,161.8181818181818L36.585,161.8181818181818L36.720000000000006,161.8181818181818L36.7875,161.8181818181818L36.9225,161.8181818181818L37.3275,161.8181818181818L37.395,161.8181818181818L37.462500000000006,161.8181818181818L37.53,161.8181818181818L38.137499999999996,161.8181818181818L38.5425,161.8181818181818L38.61,161.8181818181818L38.677499999999995,161.8181818181818L38.745,161.8181818181818L39.082499999999996,161.8181818181818L39.622499999999995,161.8181818181818L40.095,161.8181818181818L40.635,161.8181818181818L40.8375,161.8181818181818L40.905,161.8181818181818L41.3775,161.8181818181818L41.714999999999996,161.8181818181818L42.255,161.8181818181818L42.4575,161.8181818181818L42.525,161.8181818181818L43.1325,161.8181818181818L43.2675,161.8181818181818L43.335,161.8181818181818L43.4025,161.8181818181818L43.875,161.8181818181818L44.2125,161.8181818181818L44.347500000000004,161.8181818181818L44.415,161.8181818181818L44.685,161.8181818181818L45.0225,161.8181818181818L45.09,161.8181818181818L45.292500000000004,161.8181818181818L45.697500000000005,161.8181818181818L45.765,161.8181818181818L45.900000000000006,161.8181818181818L46.102500000000006,161.8181818181818L46.237500000000004,161.8181818181818L46.30500000000001,161.8181818181818L46.44,161.8181818181818L46.574999999999996,161.8181818181818L46.6425,161.8181818181818L47.114999999999995,161.8181818181818L47.654999999999994,161.8181818181818L47.7225,161.8181818181818L47.79,161.8181818181818L48.059999999999995,161.8181818181818L48.735,161.8181818181818L48.802499999999995,161.8181818181818L48.9375,161.8181818181818L49.207499999999996,161.8181818181818L49.41,161.8181818181818L49.4775,161.8181818181818L49.545,161.8181818181818L49.7475,161.8181818181818L50.5575,161.8181818181818L50.9625,161.8181818181818L51.165,161.8181818181818L51.3,161.8181818181818L51.3675,161.8181818181818L51.5025,161.8181818181818L51.7725,161.8181818181818L52.042500000000004,161.8181818181818L52.1775,161.8181818181818L52.515,161.8181818181818L53.46,161.8181818181818L53.7975,161.8181818181818L53.865,161.8181818181818L54.135000000000005,161.8181818181818L54.2025,161.8181818181818L54.472500000000004,161.8181818181818L54.540000000000006,161.8181818181818L54.675000000000004,161.8181818181818L54.8775,161.8181818181818L55.214999999999996,161.8181818181818L55.2825,161.8181818181818L55.6875,161.8181818181818L55.754999999999995,161.8181818181818L55.8225,161.8181818181818L56.025,161.8181818181818L56.6325,161.8181818181818L56.7675,161.8181818181818L57.1725,161.8181818181818L58.05,161.8181818181818L58.2525,161.8181818181818L58.5225,161.8181818181818L58.7925,161.8181818181818L58.9275,161.8181818181818L59.1975,161.8181818181818L59.265,161.8181818181818L59.3325,161.8181818181818L59.4675,161.8181818181818L59.805,161.8181818181818L60.1425,161.8181818181818L60.21,161.8181818181818L61.29,161.8181818181818L61.7625,161.8181818181818L62.167500000000004,161.8181818181818L62.235,161.8181818181818L62.370000000000005,161.8181818181818L62.775000000000006,161.8181818181818L63.38249999999999,161.8181818181818L63.5175,161.8181818181818L63.584999999999994,161.8181818181818L63.787499999999994,161.8181818181818L64.1925,161.8181818181818L64.7325,161.8181818181818L64.8,161.8181818181818L65.0025,161.8181818181818L65.07,161.8181818181818L65.6775,161.8181818181818L65.745,161.8181818181818L66.4875,161.8181818181818L66.69,161.8181818181818L66.7575,161.8181818181818L66.8925,161.8181818181818L67.0275,161.8181818181818L67.9725,161.8181818181818L68.31,161.8181818181818L68.44500000000001,161.8181818181818L68.6475,161.8181818181818L69.12,161.8181818181818L69.1875,161.8181818181818L69.5925,161.8181818181818L69.72749999999999,161.8181818181818L69.795,161.8181818181818L69.93,161.8181818181818L69.99749999999999,161.8181818181818L70.2,161.8181818181818L70.33500000000001,161.8181818181818L70.6725,161.8181818181818L70.74000000000001,161.8181818181818L71.3475,161.8181818181818L71.4825,161.8181818181818L71.7525,161.8181818181818L71.82000000000001,161.8181818181818L72.1575,161.8181818181818L72.4275,161.8181818181818L72.495,161.8181818181818L72.69749999999999,161.8181818181818L72.8325,161.8181818181818L72.9675,161.8181818181818L73.03500000000001,161.8181818181818L73.10249999999999,161.8181818181818L73.17,161.8181818181818L73.305,161.8181818181818L73.3725,161.8181818181818L73.71000000000001,161.8181818181818L73.7775,161.8181818181818L74.25,161.8181818181818L74.385,161.8181818181818L74.79,161.8181818181818L74.92500000000001,161.8181818181818L75.2625,161.8181818181818L75.60000000000001,161.8181818181818L75.73500000000001,161.8181818181818L76.54499999999999,161.8181818181818L77.0175,161.8181818181818L77.085,161.8181818181818L77.22,161.8181818181818L77.2875,161.8181818181818L77.35499999999999,161.8181818181818L77.4225,161.8181818181818L77.5575,161.8181818181818L77.75999999999999,161.8181818181818L78.03,161.8181818181818L78.3675,161.8181818181818L78.57,161.8181818181818L78.83999999999999,161.8181818181818L79.0425,161.8181818181818L79.11,161.8181818181818L79.24499999999999,161.8181818181818L79.3125,161.8181818181818L79.4475,161.8181818181818L79.515,161.8181818181818L79.58250000000001,161.8181818181818L79.785,161.8181818181818L79.8525,161.8181818181818L80.19,161.8181818181818L80.25750000000001,161.8181818181818L80.72999999999999,161.8181818181818L80.9325,161.8181818181818L81.2025,161.8181818181818L81.405,161.8181818181818L81.53999999999999,161.8181818181818L81.675,161.8181818181818L81.945,161.8181818181818L82.215,161.8181818181818L82.4175,161.8181818181818L82.485,161.8181818181818L82.55250000000001,161.8181818181818L82.62,161.8181818181818L83.025,161.8181818181818L83.42999999999999,161.8181818181818L83.565,161.8181818181818L83.63250000000001,161.8181818181818L83.9025,161.8181818181818L84.105,161.8181818181818L84.17250000000001,161.8181818181818L84.375,161.8181818181818L84.4425,161.8181818181818L84.51,161.8181818181818L84.645,161.8181818181818L84.78,161.8181818181818L85.185,161.8181818181818L85.38749999999999,161.8181818181818L85.455,161.8181818181818L85.6575,161.8181818181818L85.725,161.8181818181818L85.79249999999999,161.76053784931852L85.9275,161.78359543686383L85.995,161.572134131653L86.4,161.67055320626451L86.67,161.72960465103145L86.7375,161.7650355178916L86.87249999999999,161.78629403800767L87.0075,161.79904915007734L87.1425,161.80670221731913L87.21000000000001,161.81129405766418L87.27749999999999,161.81404916187125L87.345,161.81570222439547L87.4125,161.81669406191L87.61500000000001,157.41675732687136L87.885,159.17732712339554L88.08749999999999,160.23366900131006L88.2225,160.86747412805877L88.29,161.24775720410798L88.3575,161.47592704973752L88.7625,161.61282895711523L88.83,161.69497010154188L88.965,161.74425478819785L89.16749999999999,161.77382560019143L89.4375,161.7915680873876L89.64,161.80221357970527L89.8425,161.8086008750959L89.91000000000001,161.81243325233027L90.045,161.81473267867088L90.18,161.81611233447526L90.31500000000001,161.81694012795788L90.6525,161.81743680404747L90.855,161.8177348097012L90.99000000000001,161.81791361309345L92.2725,161.8180208951288L92.4075,161.81808526435L92.47500000000001,161.81812388588273L92.745,161.81814705880237L92.88,161.81816096255415L93.14999999999999,161.81816930480522L93.285,161.81817431015585L93.41999999999999,161.81817731336625L93.6225,161.81817911529248L93.75750000000001,161.8181801964482L93.82499999999999,161.81818084514165L93.96,161.81818123435772L94.22999999999999,161.81818146788737L94.5,161.81818160800515L94.9725,161.8181816920758L95.03999999999999,161.81818174251822L95.1075,161.81818177278365L95.175,161.81818179094293L95.30999999999999,161.81818180183848L95.5125,161.8181818083758L95.64750000000001,161.8181818122982L95.85,161.81818181465167L95.9175,161.8181818160637L95.985,161.81818181691096L96.05250000000001,161.8181818174193L96.5925,161.8181818177243L96.66,161.81818181790732L96.8625,161.8181818180171L97.335,161.818181818083L97.53750000000001,161.81818181812253L98.0775,161.81818181814623L98.145,161.81818181816047L98.28,161.818181818169L98.34750000000001,161.81818181817414L98.41499999999999,161.8181818181772L98.6175,161.81818181817906L98.685,161.81818181818016L98.82,161.81818181818082L98.955,161.81818181818122L99.2925,161.81818181818144L99.36,161.81818181818159L99.63,161.8181818181817L99.6975,161.81818181818173L99.765,161.81818181818178L99.83250000000001,161.81818181818178L100.035,161.81818181818178L100.1025,161.8181818181818L100.17,161.8181818181818L100.3725,161.8181818181818L100.44,161.8181818181818L100.98,161.8181818181818L101.25,161.8181818181818L101.385,161.8181818181818L101.52,161.8181818181818L101.58749999999999,161.8181818181818L101.79,161.8181818181818L102.06,161.8181818181818L102.1275,161.8181818181818L102.19500000000001,161.8181818181818L102.3975,161.8181818181818L102.9375,161.8181818181818L103.07249999999999,161.8181818181818L103.3425,161.8181818181818L103.41,161.8181818181818L103.6125,161.8181818181818L103.74749999999999,161.8181818181818L103.8825,161.8181818181818L104.22,161.8181818181818L104.6925,161.8181818181818L104.76,161.8181818181818L104.96249999999999,161.8181818181818L105.0975,161.8181818181818L105.5025,161.8181818181818L105.57000000000001,161.8181818181818L105.705,161.8181818181818L105.84,161.8181818181818L106.11,161.8181818181818L106.38000000000001,161.8181818181818L106.515,161.8181818181818L106.85249999999999,161.8181818181818L106.92,161.8181818181818L106.9875,161.8181818181818L107.46000000000001,161.8181818181818L107.5275,161.8181818181818L107.9325,161.8181818181818L108.2025,161.8181818181818L108.27000000000001,161.8181818181818L108.3375,161.8181818181818L108.94500000000001,161.8181818181818L109.08000000000001,161.8181818181818L109.2825,161.8181818181818L109.6875,161.8181818181818L109.755,161.8181818181818L110.02499999999999,161.8181818181818L110.2275,161.8181818181818L110.3625,161.8181818181818L111.3075,161.8181818181818L111.50999999999999,161.8181818181818L111.7125,161.8181818181818L111.78,161.8181818181818L111.8475,161.8181818181818L112.05,161.8181818181818L112.1175,161.8181818181818L112.18499999999999,161.8181818181818L113.39999999999999,161.8181818181818L113.6025,161.8181818181818L113.7375,161.8181818181818L113.80499999999999,161.8181818181818L114.21,161.8181818181818L114.2775,161.8181818181818L114.41250000000001,161.8181818181818L114.5475,161.8181818181818L114.6825,161.8181818181818L114.81750000000001,161.8181818181818L115.02,161.8181818181818L115.155,161.8181818181818L115.28999999999999,161.8181818181818L115.425,161.8181818181818L115.56,161.8181818181818L115.695,161.8181818181818L116.37,161.8181818181818L116.64,161.8181818181818L116.91,161.8181818181818L116.9775,161.8181818181818L117.045,161.8181818181818L117.17999999999999,161.8181818181818L117.38250000000001,161.8181818181818L117.585,161.8181818181818L117.72,161.8181818181818L117.92250000000001,161.8181818181818L118.32749999999999,161.8181818181818L118.46249999999999,161.8181818181818L118.5975,161.8181818181818L118.665,161.8181818181818L118.86749999999999,161.8181818181818L118.935,161.8181818181818L119.0025,161.8181818181818L119.205,161.8181818181818L119.745,161.8181818181818L120.0825,161.8181818181818L120.2175,161.8181818181818L120.62249999999999,161.8181818181818L120.8925,161.8181818181818L120.96000000000001,161.8181818181818L121.02749999999999,161.8181818181818L121.095,161.8181818181818L121.5,161.8181818181818L121.7025,161.8181818181818L122.175,161.8181818181818L122.31,161.8181818181818L122.5125,161.8181818181818L122.58,161.8181818181818L122.7825,161.8181818181818L123.1875,161.8181818181818L123.32249999999999,161.8181818181818L123.525,161.8181818181818L123.72749999999999,161.8181818181818L123.795,161.8181818181818L123.8625,161.8181818181818L123.93,161.8181818181818L123.9975,161.8181818181818L124.4025,161.8181818181818L124.8075,161.8181818181818L125.2125,161.8181818181818L125.61749999999999,161.8181818181818L125.95500000000001,161.8181818181818L126.22500000000001,161.8181818181818L126.6975,161.8181818181818L126.8325,161.8181818181818L127.035,161.8181818181818L127.16999999999999,161.8181818181818L127.2375,161.8181818181818L127.44,161.8181818181818L127.50750000000001,161.8181818181818L127.6425,161.8181818181818L127.71,161.8181818181818L127.9125,161.8181818181818L129.06,161.8181818181818L129.1275,161.8181818181818L129.195,161.8181818181818L129.5325,161.8181818181818L129.73499999999999,161.8181818181818L130.005,161.8181818181818L130.0725,161.8181818181818L130.14,161.8181818181818L130.41,161.8181818181818L130.4775,161.8181818181818L130.545,161.8181818181818L130.68,161.8181818181818L130.95,161.8181818181818L131.085,161.8181818181818L131.625,161.8181818181818L131.9625,161.8181818181818L132.03,161.8181818181818L132.63750000000002,161.8181818181818L132.70499999999998,161.8181818181818L133.44750000000002,161.8181818181818L133.9875,161.8181818181818L134.055,161.8181818181818L134.2575,161.8181818181818L134.3925,161.8181818181818L134.46,161.8181818181818L135,161.8181818181818L135.0675,161.8181818181818L135.135,161.8181818181818L135.20250000000001,161.8181818181818L135.40499999999997,161.8181818181818L135.54,161.8181818181818L135.67499999999998,161.8181818181818L136.21499999999997,161.8181818181818L136.5525,161.8181818181818L136.62,161.8181818181818L136.82250000000002,161.8181818181818L137.295,161.8181818181818L137.43,161.8181818181818L138.105,161.8181818181818L138.44250000000002,161.8181818181818L138.51,161.8181818181818L138.64499999999998,161.8181818181818L138.7125,161.8181818181818L139.1175,161.8181818181818L139.59,161.8181818181818L139.6575,161.8181818181818L140.265,161.8181818181818L140.535,161.8181818181818L140.67000000000002,161.8181818181818L140.94,161.8181818181818L141.54749999999999,161.8181818181818L141.6825,161.8181818181818L141.885,161.8181818181818L142.02,161.8181818181818L142.0875,161.8181818181818L142.42499999999998,161.8181818181818L142.6275,161.8181818181818L142.965,161.8181818181818L143.1,161.8181818181818L143.505,161.8181818181818L143.5725,161.8181818181818L143.64000000000001,161.8181818181818L143.91,161.8181818181818L144.2475,161.8181818181818L144.45000000000002,161.8181818181818L144.58499999999998,161.8181818181818L144.7875,161.8181818181818L144.99,161.8181818181818L145.26000000000002,161.8181818181818L145.7325,161.8181818181818L145.8,161.8181818181818L145.8675,161.8181818181818L146.34,161.8181818181818L146.475,161.8181818181818L146.61,161.8181818181818L146.8125,161.8181818181818L146.88000000000002,161.8181818181818L147.285,161.8181818181818L147.3525,161.8181818181818L147.89249999999998,161.8181818181818L148.095,161.8181818181818L148.1625,161.8181818181818L148.23000000000002,161.8181818181818L148.2975,161.8181818181818L148.43249999999998,161.8181818181818L148.635,161.8181818181818L149.10750000000002,161.8181818181818L149.175,161.8181818181818L149.5125,161.8181818181818L149.6475,161.8181818181818L149.715,161.8181818181818L149.7825,161.8181818181818L150.39000000000001,161.8181818181818L150.66000000000003,161.8181818181818L150.795,161.8181818181818L150.86249999999998,161.8181818181818L150.9975,161.8181818181818L151.335,161.8181818181818L151.4025,161.8181818181818L151.5375,161.8181818181818L151.605,161.8181818181818L151.67249999999999,161.8181818181818L151.875,161.8181818181818L152.01,161.8181818181818L152.145,161.8181818181818L152.7525,161.8181818181818L152.955,161.8181818181818L153.5625,161.8181818181818L153.9675,161.8181818181818L154.035,161.8181818181818L154.44,161.8181818181818L154.50750000000002,161.8181818181818L154.575,161.8181818181818L155.115,161.8181818181818L155.51999999999998,161.8181818181818L155.5875,161.8181818181818L156.1275,161.8181818181818L156.195,161.8181818181818L156.3975,161.8181818181818L156.6,161.8181818181818L156.86999999999998,161.8181818181818L157.005,161.8181818181818L157.275,161.8181818181818L157.67999999999998,161.8181818181818L157.95,161.8181818181818L158.0175,161.8181818181818L158.22,161.8181818181818L158.5575,161.8181818181818L158.82750000000001,161.8181818181818L158.9625,161.8181818181818L159.09750000000003,161.8181818181818L159.2325,161.8181818181818L159.705,161.8181818181818L159.84,161.8181818181818L159.90750000000003,161.8181818181818L160.3125,161.8181818181818L160.38,161.8181818181818L160.4475,161.8181818181818L160.5825,161.8181818181818L160.71749999999997,161.8181818181818L161.52749999999997,161.8181818181818L162.13500000000002,161.8181818181818L162.405,161.8181818181818L162.7425,161.8181818181818L162.81,161.8181818181818L163.14749999999998,161.8181818181818L163.215,161.8181818181818L163.2825,161.8181818181818L163.5525,161.8181818181818L163.62,161.8181818181818L164.025,161.8181818181818L164.29500000000002,161.8181818181818L164.3625,161.8181818181818L164.43,161.8181818181818L164.565,161.8181818181818L164.6325,161.8181818181818L164.97,161.8181818181818L165.1725,161.8181818181818L165.30749999999998,161.8181818181818L165.51,161.8181818181818L165.7125,161.8181818181818L165.91500000000002,161.8181818181818L166.05,161.8181818181818L166.5225,161.8181818181818L166.6575,161.8181818181818L166.79250000000002,161.8181818181818L167.4675,161.8181818181818L167.53500000000003,161.8181818181818L167.60250000000002,161.8181818181818L168.54749999999999,161.8181818181818L168.8175,161.8181818181818L169.0875,161.8181818181818L169.15499999999997,161.8181818181818L169.3575,161.8181818181818L169.42499999999998,161.8181818181818L169.6275,161.8181818181818L169.76250000000002,161.8181818181818L169.89749999999998,161.8181818181818L170.23499999999999,161.8181818181818L170.4375,161.8181818181818L170.57250000000002,161.8181818181818L170.77499999999998,161.8181818181818L170.9775,161.8181818181818L171.18,161.8181818181818L171.315,161.8181818181818L171.51749999999998,161.8181818181818L171.72,161.8181818181818L171.7875,161.8181818181818L171.99,161.8181818181818L172.19250000000002,161.8181818181818L172.8,161.8181818181818L172.935,161.8181818181818L173.2725,161.8181818181818L173.61,161.8181818181818L173.6775,161.8181818181818L173.74499999999998,161.8181818181818L173.88,161.8181818181818L173.9475,161.8181818181818L174.0825,161.8181818181818L174.2175,161.8181818181818L174.42000000000002,161.8181818181818L174.4875,161.8181818181818L174.7575,161.8181818181818L175.095,161.8181818181818L175.23000000000002,161.8181818181818L175.70250000000001,161.8181818181818L175.77,161.8181818181818L175.8375,161.8181818181818L175.905,161.8181818181818L176.1075,161.8181818181818L176.2425,161.8181818181818L176.51250000000002,161.8181818181818L176.715,161.8181818181818L176.85,161.8181818181818L176.98499999999999,161.8181818181818L177.0525,161.8181818181818L177.12,161.8181818181818L177.39000000000001,161.8181818181818L177.66,161.8181818181818L177.7275,161.8181818181818L177.795,161.8181818181818L178.065,161.8181818181818L178.1325,161.8181818181818L178.2675,161.8181818181818L178.33499999999998,161.8181818181818L178.47,161.8181818181818L178.5375,161.8181818181818L178.605,161.8181818181818L178.74,161.8181818181818L178.8075,161.8181818181818L178.9425,161.8181818181818L179.28,161.8181818181818L179.3475,161.8181818181818L179.7525,161.8181818181818L179.82000000000002,161.8181818181818L179.8875,161.8181818181818L180.1575,161.8181818181818L180.2925,161.8181818181818L180.4275,161.8181818181818L180.6975,161.8181818181818L181.3725,161.8181818181818L181.5075,161.8181818181818L181.64249999999998,161.8181818181818L181.71,161.8181818181818L181.98000000000002,161.8181818181818L182.115,161.8181818181818L182.18249999999998,161.8181818181818L182.25,161.8181818181818L182.4525,161.8181818181818L182.7225,161.8181818181818L182.79000000000002,161.8181818181818L182.99249999999998,161.8181818181818L183.195,161.8181818181818L183.87,161.8181818181818L183.9375,161.8181818181818L184.14000000000001,161.8181818181818L184.2075,161.8181818181818L184.3425,161.8181818181818L184.545,161.8181818181818L184.68,161.8181818181818L184.7475,161.8181818181818L184.8825,161.8181818181818L184.95000000000002,161.8181818181818L185.0175,161.8181818181818L185.085,161.8181818181818L185.22000000000003,161.8181818181818L185.355,161.8181818181818L185.42249999999999,161.8181818181818L185.6925,161.8181818181818L185.76,161.8181818181818L185.895,161.8181818181818L186.0975,161.8181818181818L186.435,161.8181818181818L187.245,161.8181818181818L187.51500000000001,161.8181818181818L187.7175,161.8181818181818L188.055,161.8181818181818L188.19,161.8181818181818L188.39249999999998,161.8181818181818L188.7975,161.8181818181818L188.865,161.8181818181818L189,161.8181818181818L189.2025,161.8181818181818L189.405,161.8181818181818L189.4725,161.8181818181818L189.54,161.8181818181818L190.1475,161.8181818181818L190.215,161.8181818181818L190.2825,161.8181818181818L190.35,161.8181818181818L190.485,161.8181818181818L190.61999999999998,161.8181818181818L190.8225,161.8181818181818L191.16,161.8181818181818L191.29500000000002,161.8181818181818L191.3625,161.8181818181818L191.42999999999998,161.8181818181818L191.4975,161.8181818181818L192.03750000000002,161.8181818181818L192.645,161.8181818181818L192.9825,161.8181818181818L193.5225,161.8181818181818L193.59,161.8181818181818L193.7925,161.8181818181818L194.0625,161.8181818181818L194.535,161.8181818181818L194.73749999999998,161.8181818181818L194.94,161.8181818181818L195.0075,161.8181818181818L195.07500000000002,161.8181818181818L195.20999999999998,161.8181818181818L195.75,161.8181818181818L195.88500000000002,161.8181818181818L196.01999999999998,161.8181818181818L196.155,161.8181818181818L196.82999999999998,161.8181818181818L197.37,161.8181818181818L197.4375,161.8181818181818L197.50500000000002,155.48662104897878L197.775,158.01924535665998L198.18,159.5388199412687L198.72,160.45056469203396L199.125,160.9976115424931L199.1925,161.3258396527686L199.26,161.52277651893388L199.3275,161.64093863863306L199.4625,161.71183591045255L199.5975,161.75437427354427L199.8,161.7798972913993L200.205,161.7952111021123L200.34,161.8043993885401L200.8125,161.80991236039677L201.0825,161.8132201435108L201.2175,161.8152048133792L201.48749999999998,161.81639561530025L201.555,161.8171100964529L201.69,161.81753878514445L202.0275,161.8177959983594L202.23,161.81795032628835L202.365,161.81804292304577L202.5675,161.81809848110018L202.635,161.81813181593282L202.70250000000001,161.81815181683243L203.3775,161.81816381737218L203.445,161.81817101769605L203.58,161.81817533789035L203.64749999999998,161.81817793000693L203.71499999999997,161.8181794852769L203.7825,161.81818041843886L204.0525,161.81818097833604L204.1875,161.81818131427434L204.39000000000001,161.81818151583732L204.52499999999998,161.81818163677514L204.66,161.8181817093378L204.795,161.8181817528754L205.4025,161.81818177899797L205.6725,161.81818179467152L205.8075,161.81818180407564L205.94250000000002,161.81818180971808L206.0775,161.8181818131036L206.28,161.81818181513486L206.48250000000002,161.81818181635364L206.8875,161.81818181708493L206.95499999999998,161.81818181752368L207.225,161.81818181778692L207.4275,161.8181818179449L207.63,161.81818181803968L207.765,161.81818181809652L207.8325,161.81818181813065L208.10250000000002,161.8181818181511L208.3725,161.8181818181634L208.575,161.81818181817076L208.6425,161.8181818181752L208.71,161.81818181817783L208.7775,155.36680385131487L208.98000000000002,157.94735503806166L209.25,159.49568575010971L209.655,160.42468417733855L209.72250000000003,160.98208323367587L209.92499999999998,161.31652266747824L210.26250000000002,161.51718632775967L210.465,161.63758452392852L210.53250000000003,161.70982344162985L210.6675,161.75316679225065L210.8025,161.7791728026231L210.9375,161.7947764088466L211.005,161.80413857258068L211.2075,161.80975587082114L211.275,161.81312624976542L211.41,161.81514847713197L211.61249999999998,161.8163618135519L211.68,161.81708981540388L211.815,161.81752661651507L212.22,161.81778869718175L212.42249999999999,161.81794594558178L212.625,161.8180402946218L212.6925,161.8180969040458L212.96249999999998,161.8181308697002L213.3675,161.81815124909286L214.245,157.27459005894295L214.515,159.0920267626385L214.65,160.18248878485582L214.9875,160.83676599818622L215.19,161.22933232618445L215.325,161.4648721229834L215.595,161.60619600106276L215.93249999999998,161.69099032791038L216.2025,161.74186692401895L216.4725,161.7723928816841L216.675,161.7907084562832L217.2825,161.80169780104265L217.6875,161.8082914078983L218.36249999999998,161.8122475720117L218.43,161.81462127047976L218.4975,161.8160454895606L218.70000000000002,161.81690002100908L218.7675,161.81741273987816L219.105,161.81772037119964L219.51,161.81790494999248L219.57750000000001,161.81801569726824L219.645,161.81808214563367L219.7125,161.81812201465294L219.77999999999997,155.58888706129457L219.8475,158.08060496404946L219.915,107.86578570870215L220.455,129.446744152494L222.00750000000002,142.39531921876915L222.075,150.1644642585342L222.14249999999998,127.9754424177629L222.615,141.51253817793048L222.9525,139.64333711001248L223.155,148.51327499328022L223.35750000000002,150.0066005610174L223.425,138.19039843448297L223.4925,147.6415117879625L223.7625,153.31217980005025L224.3025,153.77156602730844L224.36999999999998,156.9902123436578L224.5725,158.9214001334674L224.7075,160.08011280735317L224.775,153.56119206907522L224.91,156.86398796871785L225.72,158.84566550850346L225.85500000000002,151.66343462942362L226.0575,155.7253335049269L226.1925,129.19923161206293L226.53,142.2468116945105L226.7325,150.07535974397902L226.935,116.20340581366209L227.5425,120.87174883588696L227.60999999999999,137.2503220288049L228.01500000000001,147.07746594455568L228.15,152.97375229400612L228.21749999999997,156.5115241036764L228.6225,158.63418718947855L228.82500000000002,111.36197591695611L228.8925,45.782944851901114L229.23,50.871274433712856L229.365,77.1205724035603L229.5,100.79887748267934L229.70250000000001,118.54833729562355L229.76999999999998,127.99600576641566L230.31,119.45865342934374L230.64749999999998,65.8932483245643L230.7825,66.50292407272528L230.85,38.79758912529781L230.9175,39.213840582299554L231.1875,88.25557707665246L231.66,117.68061897326422L231.93,135.33564411123123L232.1325,145.9286591940115L232.2,152.2844682436796L232.335,156.0979536734805L232.875,158.38604493136103L233.2125,159.75889968608934L234.0225,160.58261253892633L234.35999999999999,161.07684025062852L234.495,161.37337687764983L234.5625,161.55129885386262L234.76500000000001,161.6580520395903L234.8325,161.72210395102692L235.44,161.7605350978889L235.84500000000003,161.78359378600604L236.115,161.79742899887637L236.45250000000001,161.80573012659855L236.5875,161.81071080323184L236.7225,161.81369920921185L236.8575,161.81549225279983L236.9925,161.81656807895263L237.195,161.8172135746443L237.26250000000002,161.8176008720593L237.33,161.8178332505083L237.5325,161.8179726775777L237.6,161.81805633381936L237.6675,161.81810652756434L237.73499999999999,161.81813664381133L237.9375,161.81815471355952L238.005,161.81816555540846L238.07250000000002,161.81817206051778L238.27499999999998,161.8181759635834L238.3425,161.81817830542278L238.4775,161.81817971052638L238.545,161.81818055358855L238.815,161.81818105942585L238.95,161.81818136292824L239.01749999999998,161.81818154502966L239.08499999999998,161.81818165429053L239.355,161.81818171984705L239.49,161.81818175918096L239.625,161.8181817827813L239.8275,161.8181817969415L240.435,161.81818180543763L240.6375,161.81818181053532L240.7725,161.81818181359392L240.9075,161.81818181542906L241.04250000000002,161.81818181653017L241.1775,161.81818181719083L241.38,161.81818181758723L241.785,161.81818181782506L242.05499999999998,161.81818181796777L242.19,161.81818181805338L242.3925,161.81818181810476L242.66250000000002,161.8181818181356L242.9325,161.81818181815407L243.20250000000001,161.8181818181652L243.47250000000003,161.81818181817184L243.8775,161.81818181817582L244.08,161.8181818181782L244.35,161.81818181817965L244.48499999999999,161.81818181818053L244.755,161.81818181818105L244.8225,161.81818181818136L245.295,161.81818181818153L245.4975,161.81818181818164L245.565,161.81818181818173L245.90249999999997,161.81818181818176L245.97,161.81818181818178L246.0375,161.81818181818178L246.17249999999999,161.81818181818178L246.375,161.8181818181818L246.71249999999998,161.8181818181818L246.915,161.8181818181818L246.9825,161.8181818181818L247.1175,161.8181818181818L247.52249999999998,161.8181818181818L248.1975,161.8181818181818L248.67000000000002,161.8181818181818L248.8725,161.8181818181818L248.94,161.8181818181818L249.4125,161.8181818181818L249.48000000000002,161.8181818181818L249.5475,161.8181818181818L249.615,161.8181818181818L249.68249999999998,161.8181818181818L249.9525,161.8181818181818L250.155,161.8181818181818L250.8975,161.8181818181818L250.965,161.8181818181818L251.7075,161.8181818181818L251.775,161.8181818181818L251.8425,161.8181818181818L251.97750000000002,161.8181818181818L252.11249999999998,161.8181818181818L252.45000000000002,161.8181818181818L252.6525,161.8181818181818L252.72000000000003,161.8181818181818L252.855,161.8181818181818L252.92249999999999,161.8181818181818L253.395,161.8181818181818L253.52999999999997,161.8181818181818L253.665,161.8181818181818" style="fill: none;" fill="none"></path></g></g></g></g><g opacity="0.2"><g><g><g><path stroke="rgb(255, 112, 67)" stroke-width="2px" d="M34.0875,161.8181818181818L34.4925,161.8181818181818L34.7625,161.8181818181818L34.965,161.8181818181818L35.370000000000005,161.8181818181818L36.18,161.8181818181818L36.45,161.8181818181818L36.585,161.8181818181818L36.720000000000006,161.8181818181818L36.7875,161.8181818181818L36.9225,161.8181818181818L37.3275,161.8181818181818L37.395,161.8181818181818L37.462500000000006,161.8181818181818L37.53,161.8181818181818L38.137499999999996,161.8181818181818L38.5425,161.8181818181818L38.61,161.8181818181818L38.677499999999995,161.8181818181818L38.745,161.8181818181818L39.082499999999996,161.8181818181818L39.622499999999995,161.8181818181818L40.095,161.8181818181818L40.635,161.8181818181818L40.8375,161.8181818181818L40.905,161.8181818181818L41.3775,161.8181818181818L41.714999999999996,161.8181818181818L42.255,161.8181818181818L42.4575,161.8181818181818L42.525,161.8181818181818L43.1325,161.8181818181818L43.2675,161.8181818181818L43.335,161.8181818181818L43.4025,161.8181818181818L43.875,161.8181818181818L44.2125,161.8181818181818L44.347500000000004,161.8181818181818L44.415,161.8181818181818L44.685,161.8181818181818L45.0225,161.8181818181818L45.09,161.8181818181818L45.292500000000004,161.8181818181818L45.697500000000005,161.8181818181818L45.765,161.8181818181818L45.900000000000006,161.8181818181818L46.102500000000006,161.8181818181818L46.237500000000004,161.8181818181818L46.30500000000001,161.8181818181818L46.44,161.8181818181818L46.574999999999996,161.8181818181818L46.6425,161.8181818181818L47.114999999999995,161.8181818181818L47.654999999999994,161.8181818181818L47.7225,161.8181818181818L47.79,161.8181818181818L48.059999999999995,161.8181818181818L48.735,161.8181818181818L48.802499999999995,161.8181818181818L48.9375,161.8181818181818L49.207499999999996,161.8181818181818L49.41,161.8181818181818L49.4775,161.8181818181818L49.545,161.8181818181818L49.7475,161.8181818181818L50.5575,161.8181818181818L50.9625,161.8181818181818L51.165,161.8181818181818L51.3,161.8181818181818L51.3675,161.8181818181818L51.5025,161.8181818181818L51.7725,161.8181818181818L52.042500000000004,161.8181818181818L52.1775,161.8181818181818L52.515,161.8181818181818L53.46,161.8181818181818L53.7975,161.8181818181818L53.865,161.8181818181818L54.135000000000005,161.8181818181818L54.2025,161.8181818181818L54.472500000000004,161.8181818181818L54.540000000000006,161.8181818181818L54.675000000000004,161.8181818181818L54.8775,161.8181818181818L55.214999999999996,161.8181818181818L55.2825,161.8181818181818L55.6875,161.8181818181818L55.754999999999995,161.8181818181818L55.8225,161.8181818181818L56.025,161.8181818181818L56.6325,161.8181818181818L56.7675,161.8181818181818L57.1725,161.8181818181818L58.05,161.8181818181818L58.2525,161.8181818181818L58.5225,161.8181818181818L58.7925,161.8181818181818L58.9275,161.8181818181818L59.1975,161.8181818181818L59.265,161.8181818181818L59.3325,161.8181818181818L59.4675,161.8181818181818L59.805,161.8181818181818L60.1425,161.8181818181818L60.21,161.8181818181818L61.29,161.8181818181818L61.7625,161.8181818181818L62.167500000000004,161.8181818181818L62.235,161.8181818181818L62.370000000000005,161.8181818181818L62.775000000000006,161.8181818181818L63.38249999999999,161.8181818181818L63.5175,161.8181818181818L63.584999999999994,161.8181818181818L63.787499999999994,161.8181818181818L64.1925,161.8181818181818L64.7325,161.8181818181818L64.8,161.8181818181818L65.0025,161.8181818181818L65.07,161.8181818181818L65.6775,161.8181818181818L65.745,161.8181818181818L66.4875,161.8181818181818L66.69,161.8181818181818L66.7575,161.8181818181818L66.8925,161.8181818181818L67.0275,161.8181818181818L67.9725,161.8181818181818L68.31,161.8181818181818L68.44500000000001,161.8181818181818L68.6475,161.8181818181818L69.12,161.8181818181818L69.1875,161.8181818181818L69.5925,161.8181818181818L69.72749999999999,161.8181818181818L69.795,161.8181818181818L69.93,161.8181818181818L69.99749999999999,161.8181818181818L70.2,161.8181818181818L70.33500000000001,161.8181818181818L70.6725,161.8181818181818L70.74000000000001,161.8181818181818L71.3475,161.8181818181818L71.4825,161.8181818181818L71.7525,161.8181818181818L71.82000000000001,161.8181818181818L72.1575,161.8181818181818L72.4275,161.8181818181818L72.495,161.8181818181818L72.69749999999999,161.8181818181818L72.8325,161.8181818181818L72.9675,161.8181818181818L73.03500000000001,161.8181818181818L73.10249999999999,161.8181818181818L73.17,161.8181818181818L73.305,161.8181818181818L73.3725,161.8181818181818L73.71000000000001,161.8181818181818L73.7775,161.8181818181818L74.25,161.8181818181818L74.385,161.8181818181818L74.79,161.8181818181818L74.92500000000001,161.8181818181818L75.2625,161.8181818181818L75.60000000000001,161.8181818181818L75.73500000000001,161.8181818181818L76.54499999999999,161.8181818181818L77.0175,161.8181818181818L77.085,161.8181818181818L77.22,161.8181818181818L77.2875,161.8181818181818L77.35499999999999,161.8181818181818L77.4225,161.8181818181818L77.5575,161.8181818181818L77.75999999999999,161.8181818181818L78.03,161.8181818181818L78.3675,161.8181818181818L78.57,161.8181818181818L78.83999999999999,161.8181818181818L79.0425,161.8181818181818L79.11,161.8181818181818L79.24499999999999,161.8181818181818L79.3125,161.8181818181818L79.4475,161.8181818181818L79.515,161.8181818181818L79.58250000000001,161.8181818181818L79.785,161.8181818181818L79.8525,161.8181818181818L80.19,161.8181818181818L80.25750000000001,161.8181818181818L80.72999999999999,161.8181818181818L80.9325,161.8181818181818L81.2025,161.8181818181818L81.405,161.8181818181818L81.53999999999999,161.8181818181818L81.675,161.8181818181818L81.945,161.8181818181818L82.215,161.8181818181818L82.4175,161.8181818181818L82.485,161.8181818181818L82.55250000000001,161.8181818181818L82.62,161.8181818181818L83.025,161.8181818181818L83.42999999999999,161.8181818181818L83.565,161.8181818181818L83.63250000000001,161.8181818181818L83.9025,161.8181818181818L84.105,161.8181818181818L84.17250000000001,161.8181818181818L84.375,161.8181818181818L84.4425,161.8181818181818L84.51,161.8181818181818L84.645,161.8181818181818L84.78,161.8181818181818L85.185,161.8181818181818L85.38749999999999,161.8181818181818L85.455,161.8181818181818L85.6575,161.8181818181818L85.725,161.8181818181818L85.79249999999999,161.67407189602355L85.9275,161.8181818181818L85.995,161.25494217383675L86.4,161.8181818181818L86.67,161.8181818181818L86.7375,161.8181818181818L86.87249999999999,161.8181818181818L87.0075,161.8181818181818L87.1425,161.8181818181818L87.21000000000001,161.8181818181818L87.27749999999999,161.8181818181818L87.345,161.8181818181818L87.4125,161.8181818181818L87.61500000000001,150.8168522243134L87.885,161.8181818181818L88.08749999999999,161.8181818181818L88.2225,161.8181818181818L88.29,161.8181818181818L88.3575,161.8181818181818L88.7625,161.8181818181818L88.83,161.8181818181818L88.965,161.8181818181818L89.16749999999999,161.8181818181818L89.4375,161.8181818181818L89.64,161.8181818181818L89.8425,161.8181818181818L89.91000000000001,161.8181818181818L90.045,161.8181818181818L90.18,161.8181818181818L90.31500000000001,161.8181818181818L90.6525,161.8181818181818L90.855,161.8181818181818L90.99000000000001,161.8181818181818L92.2725,161.8181818181818L92.4075,161.8181818181818L92.47500000000001,161.8181818181818L92.745,161.8181818181818L92.88,161.8181818181818L93.14999999999999,161.8181818181818L93.285,161.8181818181818L93.41999999999999,161.8181818181818L93.6225,161.8181818181818L93.75750000000001,161.8181818181818L93.82499999999999,161.8181818181818L93.96,161.8181818181818L94.22999999999999,161.8181818181818L94.5,161.8181818181818L94.9725,161.8181818181818L95.03999999999999,161.8181818181818L95.1075,161.8181818181818L95.175,161.8181818181818L95.30999999999999,161.8181818181818L95.5125,161.8181818181818L95.64750000000001,161.8181818181818L95.85,161.8181818181818L95.9175,161.8181818181818L95.985,161.8181818181818L96.05250000000001,161.8181818181818L96.5925,161.8181818181818L96.66,161.8181818181818L96.8625,161.8181818181818L97.335,161.8181818181818L97.53750000000001,161.8181818181818L98.0775,161.8181818181818L98.145,161.8181818181818L98.28,161.8181818181818L98.34750000000001,161.8181818181818L98.41499999999999,161.8181818181818L98.6175,161.8181818181818L98.685,161.8181818181818L98.82,161.8181818181818L98.955,161.8181818181818L99.2925,161.8181818181818L99.36,161.8181818181818L99.63,161.8181818181818L99.6975,161.8181818181818L99.765,161.8181818181818L99.83250000000001,161.8181818181818L100.035,161.8181818181818L100.1025,161.8181818181818L100.17,161.8181818181818L100.3725,161.8181818181818L100.44,161.8181818181818L100.98,161.8181818181818L101.25,161.8181818181818L101.385,161.8181818181818L101.52,161.8181818181818L101.58749999999999,161.8181818181818L101.79,161.8181818181818L102.06,161.8181818181818L102.1275,161.8181818181818L102.19500000000001,161.8181818181818L102.3975,161.8181818181818L102.9375,161.8181818181818L103.07249999999999,161.8181818181818L103.3425,161.8181818181818L103.41,161.8181818181818L103.6125,161.8181818181818L103.74749999999999,161.8181818181818L103.8825,161.8181818181818L104.22,161.8181818181818L104.6925,161.8181818181818L104.76,161.8181818181818L104.96249999999999,161.8181818181818L105.0975,161.8181818181818L105.5025,161.8181818181818L105.57000000000001,161.8181818181818L105.705,161.8181818181818L105.84,161.8181818181818L106.11,161.8181818181818L106.38000000000001,161.8181818181818L106.515,161.8181818181818L106.85249999999999,161.8181818181818L106.92,161.8181818181818L106.9875,161.8181818181818L107.46000000000001,161.8181818181818L107.5275,161.8181818181818L107.9325,161.8181818181818L108.2025,161.8181818181818L108.27000000000001,161.8181818181818L108.3375,161.8181818181818L108.94500000000001,161.8181818181818L109.08000000000001,161.8181818181818L109.2825,161.8181818181818L109.6875,161.8181818181818L109.755,161.8181818181818L110.02499999999999,161.8181818181818L110.2275,161.8181818181818L110.3625,161.8181818181818L111.3075,161.8181818181818L111.50999999999999,161.8181818181818L111.7125,161.8181818181818L111.78,161.8181818181818L111.8475,161.8181818181818L112.05,161.8181818181818L112.1175,161.8181818181818L112.18499999999999,161.8181818181818L113.39999999999999,161.8181818181818L113.6025,161.8181818181818L113.7375,161.8181818181818L113.80499999999999,161.8181818181818L114.21,161.8181818181818L114.2775,161.8181818181818L114.41250000000001,161.8181818181818L114.5475,161.8181818181818L114.6825,161.8181818181818L114.81750000000001,161.8181818181818L115.02,161.8181818181818L115.155,161.8181818181818L115.28999999999999,161.8181818181818L115.425,161.8181818181818L115.56,161.8181818181818L115.695,161.8181818181818L116.37,161.8181818181818L116.64,161.8181818181818L116.91,161.8181818181818L116.9775,161.8181818181818L117.045,161.8181818181818L117.17999999999999,161.8181818181818L117.38250000000001,161.8181818181818L117.585,161.8181818181818L117.72,161.8181818181818L117.92250000000001,161.8181818181818L118.32749999999999,161.8181818181818L118.46249999999999,161.8181818181818L118.5975,161.8181818181818L118.665,161.8181818181818L118.86749999999999,161.8181818181818L118.935,161.8181818181818L119.0025,161.8181818181818L119.205,161.8181818181818L119.745,161.8181818181818L120.0825,161.8181818181818L120.2175,161.8181818181818L120.62249999999999,161.8181818181818L120.8925,161.8181818181818L120.96000000000001,161.8181818181818L121.02749999999999,161.8181818181818L121.095,161.8181818181818L121.5,161.8181818181818L121.7025,161.8181818181818L122.175,161.8181818181818L122.31,161.8181818181818L122.5125,161.8181818181818L122.58,161.8181818181818L122.7825,161.8181818181818L123.1875,161.8181818181818L123.32249999999999,161.8181818181818L123.525,161.8181818181818L123.72749999999999,161.8181818181818L123.795,161.8181818181818L123.8625,161.8181818181818L123.93,161.8181818181818L123.9975,161.8181818181818L124.4025,161.8181818181818L124.8075,161.8181818181818L125.2125,161.8181818181818L125.61749999999999,161.8181818181818L125.95500000000001,161.8181818181818L126.22500000000001,161.8181818181818L126.6975,161.8181818181818L126.8325,161.8181818181818L127.035,161.8181818181818L127.16999999999999,161.8181818181818L127.2375,161.8181818181818L127.44,161.8181818181818L127.50750000000001,161.8181818181818L127.6425,161.8181818181818L127.71,161.8181818181818L127.9125,161.8181818181818L129.06,161.8181818181818L129.1275,161.8181818181818L129.195,161.8181818181818L129.5325,161.8181818181818L129.73499999999999,161.8181818181818L130.005,161.8181818181818L130.0725,161.8181818181818L130.14,161.8181818181818L130.41,161.8181818181818L130.4775,161.8181818181818L130.545,161.8181818181818L130.68,161.8181818181818L130.95,161.8181818181818L131.085,161.8181818181818L131.625,161.8181818181818L131.9625,161.8181818181818L132.03,161.8181818181818L132.63750000000002,161.8181818181818L132.70499999999998,161.8181818181818L133.44750000000002,161.8181818181818L133.9875,161.8181818181818L134.055,161.8181818181818L134.2575,161.8181818181818L134.3925,161.8181818181818L134.46,161.8181818181818L135,161.8181818181818L135.0675,161.8181818181818L135.135,161.8181818181818L135.20250000000001,161.8181818181818L135.40499999999997,161.8181818181818L135.54,161.8181818181818L135.67499999999998,161.8181818181818L136.21499999999997,161.8181818181818L136.5525,161.8181818181818L136.62,161.8181818181818L136.82250000000002,161.8181818181818L137.295,161.8181818181818L137.43,161.8181818181818L138.105,161.8181818181818L138.44250000000002,161.8181818181818L138.51,161.8181818181818L138.64499999999998,161.8181818181818L138.7125,161.8181818181818L139.1175,161.8181818181818L139.59,161.8181818181818L139.6575,161.8181818181818L140.265,161.8181818181818L140.535,161.8181818181818L140.67000000000002,161.8181818181818L140.94,161.8181818181818L141.54749999999999,161.8181818181818L141.6825,161.8181818181818L141.885,161.8181818181818L142.02,161.8181818181818L142.0875,161.8181818181818L142.42499999999998,161.8181818181818L142.6275,161.8181818181818L142.965,161.8181818181818L143.1,161.8181818181818L143.505,161.8181818181818L143.5725,161.8181818181818L143.64000000000001,161.8181818181818L143.91,161.8181818181818L144.2475,161.8181818181818L144.45000000000002,161.8181818181818L144.58499999999998,161.8181818181818L144.7875,161.8181818181818L144.99,161.8181818181818L145.26000000000002,161.8181818181818L145.7325,161.8181818181818L145.8,161.8181818181818L145.8675,161.8181818181818L146.34,161.8181818181818L146.475,161.8181818181818L146.61,161.8181818181818L146.8125,161.8181818181818L146.88000000000002,161.8181818181818L147.285,161.8181818181818L147.3525,161.8181818181818L147.89249999999998,161.8181818181818L148.095,161.8181818181818L148.1625,161.8181818181818L148.23000000000002,161.8181818181818L148.2975,161.8181818181818L148.43249999999998,161.8181818181818L148.635,161.8181818181818L149.10750000000002,161.8181818181818L149.175,161.8181818181818L149.5125,161.8181818181818L149.6475,161.8181818181818L149.715,161.8181818181818L149.7825,161.8181818181818L150.39000000000001,161.8181818181818L150.66000000000003,161.8181818181818L150.795,161.8181818181818L150.86249999999998,161.8181818181818L150.9975,161.8181818181818L151.335,161.8181818181818L151.4025,161.8181818181818L151.5375,161.8181818181818L151.605,161.8181818181818L151.67249999999999,161.8181818181818L151.875,161.8181818181818L152.01,161.8181818181818L152.145,161.8181818181818L152.7525,161.8181818181818L152.955,161.8181818181818L153.5625,161.8181818181818L153.9675,161.8181818181818L154.035,161.8181818181818L154.44,161.8181818181818L154.50750000000002,161.8181818181818L154.575,161.8181818181818L155.115,161.8181818181818L155.51999999999998,161.8181818181818L155.5875,161.8181818181818L156.1275,161.8181818181818L156.195,161.8181818181818L156.3975,161.8181818181818L156.6,161.8181818181818L156.86999999999998,161.8181818181818L157.005,161.8181818181818L157.275,161.8181818181818L157.67999999999998,161.8181818181818L157.95,161.8181818181818L158.0175,161.8181818181818L158.22,161.8181818181818L158.5575,161.8181818181818L158.82750000000001,161.8181818181818L158.9625,161.8181818181818L159.09750000000003,161.8181818181818L159.2325,161.8181818181818L159.705,161.8181818181818L159.84,161.8181818181818L159.90750000000003,161.8181818181818L160.3125,161.8181818181818L160.38,161.8181818181818L160.4475,161.8181818181818L160.5825,161.8181818181818L160.71749999999997,161.8181818181818L161.52749999999997,161.8181818181818L162.13500000000002,161.8181818181818L162.405,161.8181818181818L162.7425,161.8181818181818L162.81,161.8181818181818L163.14749999999998,161.8181818181818L163.215,161.8181818181818L163.2825,161.8181818181818L163.5525,161.8181818181818L163.62,161.8181818181818L164.025,161.8181818181818L164.29500000000002,161.8181818181818L164.3625,161.8181818181818L164.43,161.8181818181818L164.565,161.8181818181818L164.6325,161.8181818181818L164.97,161.8181818181818L165.1725,161.8181818181818L165.30749999999998,161.8181818181818L165.51,161.8181818181818L165.7125,161.8181818181818L165.91500000000002,161.8181818181818L166.05,161.8181818181818L166.5225,161.8181818181818L166.6575,161.8181818181818L166.79250000000002,161.8181818181818L167.4675,161.8181818181818L167.53500000000003,161.8181818181818L167.60250000000002,161.8181818181818L168.54749999999999,161.8181818181818L168.8175,161.8181818181818L169.0875,161.8181818181818L169.15499999999997,161.8181818181818L169.3575,161.8181818181818L169.42499999999998,161.8181818181818L169.6275,161.8181818181818L169.76250000000002,161.8181818181818L169.89749999999998,161.8181818181818L170.23499999999999,161.8181818181818L170.4375,161.8181818181818L170.57250000000002,161.8181818181818L170.77499999999998,161.8181818181818L170.9775,161.8181818181818L171.18,161.8181818181818L171.315,161.8181818181818L171.51749999999998,161.8181818181818L171.72,161.8181818181818L171.7875,161.8181818181818L171.99,161.8181818181818L172.19250000000002,161.8181818181818L172.8,161.8181818181818L172.935,161.8181818181818L173.2725,161.8181818181818L173.61,161.8181818181818L173.6775,161.8181818181818L173.74499999999998,161.8181818181818L173.88,161.8181818181818L173.9475,161.8181818181818L174.0825,161.8181818181818L174.2175,161.8181818181818L174.42000000000002,161.8181818181818L174.4875,161.8181818181818L174.7575,161.8181818181818L175.095,161.8181818181818L175.23000000000002,161.8181818181818L175.70250000000001,161.8181818181818L175.77,161.8181818181818L175.8375,161.8181818181818L175.905,161.8181818181818L176.1075,161.8181818181818L176.2425,161.8181818181818L176.51250000000002,161.8181818181818L176.715,161.8181818181818L176.85,161.8181818181818L176.98499999999999,161.8181818181818L177.0525,161.8181818181818L177.12,161.8181818181818L177.39000000000001,161.8181818181818L177.66,161.8181818181818L177.7275,161.8181818181818L177.795,161.8181818181818L178.065,161.8181818181818L178.1325,161.8181818181818L178.2675,161.8181818181818L178.33499999999998,161.8181818181818L178.47,161.8181818181818L178.5375,161.8181818181818L178.605,161.8181818181818L178.74,161.8181818181818L178.8075,161.8181818181818L178.9425,161.8181818181818L179.28,161.8181818181818L179.3475,161.8181818181818L179.7525,161.8181818181818L179.82000000000002,161.8181818181818L179.8875,161.8181818181818L180.1575,161.8181818181818L180.2925,161.8181818181818L180.4275,161.8181818181818L180.6975,161.8181818181818L181.3725,161.8181818181818L181.5075,161.8181818181818L181.64249999999998,161.8181818181818L181.71,161.8181818181818L181.98000000000002,161.8181818181818L182.115,161.8181818181818L182.18249999999998,161.8181818181818L182.25,161.8181818181818L182.4525,161.8181818181818L182.7225,161.8181818181818L182.79000000000002,161.8181818181818L182.99249999999998,161.8181818181818L183.195,161.8181818181818L183.87,161.8181818181818L183.9375,161.8181818181818L184.14000000000001,161.8181818181818L184.2075,161.8181818181818L184.3425,161.8181818181818L184.545,161.8181818181818L184.68,161.8181818181818L184.7475,161.8181818181818L184.8825,161.8181818181818L184.95000000000002,161.8181818181818L185.0175,161.8181818181818L185.085,161.8181818181818L185.22000000000003,161.8181818181818L185.355,161.8181818181818L185.42249999999999,161.8181818181818L185.6925,161.8181818181818L185.76,161.8181818181818L185.895,161.8181818181818L186.0975,161.8181818181818L186.435,161.8181818181818L187.245,161.8181818181818L187.51500000000001,161.8181818181818L187.7175,161.8181818181818L188.055,161.8181818181818L188.19,161.8181818181818L188.39249999999998,161.8181818181818L188.7975,161.8181818181818L188.865,161.8181818181818L189,161.8181818181818L189.2025,161.8181818181818L189.405,161.8181818181818L189.4725,161.8181818181818L189.54,161.8181818181818L190.1475,161.8181818181818L190.215,161.8181818181818L190.2825,161.8181818181818L190.35,161.8181818181818L190.485,161.8181818181818L190.61999999999998,161.8181818181818L190.8225,161.8181818181818L191.16,161.8181818181818L191.29500000000002,161.8181818181818L191.3625,161.8181818181818L191.42999999999998,161.8181818181818L191.4975,161.8181818181818L192.03750000000002,161.8181818181818L192.645,161.8181818181818L192.9825,161.8181818181818L193.5225,161.8181818181818L193.59,161.8181818181818L193.7925,161.8181818181818L194.0625,161.8181818181818L194.535,161.8181818181818L194.73749999999998,161.8181818181818L194.94,161.8181818181818L195.0075,161.8181818181818L195.07500000000002,161.8181818181818L195.20999999999998,161.8181818181818L195.75,161.8181818181818L195.88500000000002,161.8181818181818L196.01999999999998,161.8181818181818L196.155,161.8181818181818L196.82999999999998,161.8181818181818L197.37,161.8181818181818L197.4375,161.8181818181818L197.50500000000002,145.98927989517423L197.775,161.8181818181818L198.18,161.8181818181818L198.72,161.8181818181818L199.125,161.8181818181818L199.1925,161.8181818181818L199.26,161.8181818181818L199.3275,161.8181818181818L199.4625,161.8181818181818L199.5975,161.8181818181818L199.8,161.8181818181818L200.205,161.8181818181818L200.34,161.8181818181818L200.8125,161.8181818181818L201.0825,161.8181818181818L201.2175,161.8181818181818L201.48749999999998,161.8181818181818L201.555,161.8181818181818L201.69,161.8181818181818L202.0275,161.8181818181818L202.23,161.8181818181818L202.365,161.8181818181818L202.5675,161.8181818181818L202.635,161.8181818181818L202.70250000000001,161.8181818181818L203.3775,161.8181818181818L203.445,161.8181818181818L203.58,161.8181818181818L203.64749999999998,161.8181818181818L203.71499999999997,161.8181818181818L203.7825,161.8181818181818L204.0525,161.8181818181818L204.1875,161.8181818181818L204.39000000000001,161.8181818181818L204.52499999999998,161.8181818181818L204.66,161.8181818181818L204.795,161.8181818181818L205.4025,161.8181818181818L205.6725,161.8181818181818L205.8075,161.8181818181818L205.94250000000002,161.8181818181818L206.0775,161.8181818181818L206.28,161.8181818181818L206.48250000000002,161.8181818181818L206.8875,161.8181818181818L206.95499999999998,161.8181818181818L207.225,161.8181818181818L207.4275,161.8181818181818L207.63,161.8181818181818L207.765,161.8181818181818L207.8325,161.8181818181818L208.10250000000002,161.8181818181818L208.3725,161.8181818181818L208.575,161.8181818181818L208.6425,161.8181818181818L208.71,161.8181818181818L208.7775,145.68973690102044L208.98000000000002,161.8181818181818L209.25,161.8181818181818L209.655,161.8181818181818L209.72250000000003,161.8181818181818L209.92499999999998,161.8181818181818L210.26250000000002,161.8181818181818L210.465,161.8181818181818L210.53250000000003,161.8181818181818L210.6675,161.8181818181818L210.8025,161.8181818181818L210.9375,161.8181818181818L211.005,161.8181818181818L211.2075,161.8181818181818L211.275,161.8181818181818L211.41,161.8181818181818L211.61249999999998,161.8181818181818L211.68,161.8181818181818L211.815,161.8181818181818L212.22,161.8181818181818L212.42249999999999,161.8181818181818L212.625,161.8181818181818L212.6925,161.8181818181818L212.96249999999998,161.8181818181818L213.3675,161.8181818181818L214.245,150.4592482737181L214.515,161.8181818181818L214.65,161.8181818181818L214.9875,161.8181818181818L215.19,161.8181818181818L215.325,161.8181818181818L215.595,161.8181818181818L215.93249999999998,161.8181818181818L216.2025,161.8181818181818L216.4725,161.8181818181818L216.675,161.8181818181818L217.2825,161.8181818181818L217.6875,161.8181818181818L218.36249999999998,161.8181818181818L218.43,161.8181818181818L218.4975,161.8181818181818L218.70000000000002,161.8181818181818L218.7675,161.8181818181818L219.105,161.8181818181818L219.51,161.8181818181818L219.57750000000001,161.8181818181818L219.645,161.8181818181818L219.7125,161.8181818181818L219.77999999999997,146.24503463125703L219.8475,161.8181818181818L219.915,32.54355682568115L220.455,161.8181818181818L222.00750000000002,161.8181818181818L222.075,161.8181818181818L222.14249999999998,94.69190965660592L222.615,161.8181818181818L222.9525,136.8395355081355L223.155,161.8181818181818L223.35750000000002,152.24658891262317L223.425,120.46609524468128L223.4925,161.8181818181818L223.7625,161.8181818181818L224.3025,154.4606453681957L224.36999999999998,161.8181818181818L224.5725,161.8181818181818L224.7075,161.8181818181818L224.775,143.7828109616583L224.91,161.8181818181818L225.72,161.8181818181818L225.85500000000002,140.89008831080386L226.0575,161.8181818181818L226.1925,89.41007877276702L226.53,161.8181818181818L226.7325,161.8181818181818L226.935,65.39547491818666L227.5425,127.87426336922427L227.60999999999999,161.8181818181818L228.01500000000001,161.8181818181818L228.15,161.8181818181818L228.21749999999997,161.8181818181818L228.6225,161.8181818181818L228.82500000000002,40.453659008172416L228.8925,-52.585601745681366L229.23,58.50376880643042L229.365,116.4945193583315L229.5,136.3163351013579L229.70250000000001,145.17252701503986L229.76999999999998,142.16750847260383L230.31,106.65262492373586L230.64749999999998,-14.454859332604885L230.7825,67.4174376949668L230.85,-2.7604132958434024L230.9175,39.83821776780214L231.1875,161.8181818181818L231.66,161.8181818181818L231.93,161.8181818181818L232.1325,161.8181818181818L232.2,161.8181818181818L232.335,161.8181818181818L232.875,161.8181818181818L233.2125,161.8181818181818L234.0225,161.8181818181818L234.35999999999999,161.8181818181818L234.495,161.8181818181818L234.5625,161.8181818181818L234.76500000000001,161.8181818181818L234.8325,161.8181818181818L235.44,161.8181818181818L235.84500000000003,161.8181818181818L236.115,161.8181818181818L236.45250000000001,161.8181818181818L236.5875,161.8181818181818L236.7225,161.8181818181818L236.8575,161.8181818181818L236.9925,161.8181818181818L237.195,161.8181818181818L237.26250000000002,161.8181818181818L237.33,161.8181818181818L237.5325,161.8181818181818L237.6,161.8181818181818L237.6675,161.8181818181818L237.73499999999999,161.8181818181818L237.9375,161.8181818181818L238.005,161.8181818181818L238.07250000000002,161.8181818181818L238.27499999999998,161.8181818181818L238.3425,161.8181818181818L238.4775,161.8181818181818L238.545,161.8181818181818L238.815,161.8181818181818L238.95,161.8181818181818L239.01749999999998,161.8181818181818L239.08499999999998,161.8181818181818L239.355,161.8181818181818L239.49,161.8181818181818L239.625,161.8181818181818L239.8275,161.8181818181818L240.435,161.8181818181818L240.6375,161.8181818181818L240.7725,161.8181818181818L240.9075,161.8181818181818L241.04250000000002,161.8181818181818L241.1775,161.8181818181818L241.38,161.8181818181818L241.785,161.8181818181818L242.05499999999998,161.8181818181818L242.19,161.8181818181818L242.3925,161.8181818181818L242.66250000000002,161.8181818181818L242.9325,161.8181818181818L243.20250000000001,161.8181818181818L243.47250000000003,161.8181818181818L243.8775,161.8181818181818L244.08,161.8181818181818L244.35,161.8181818181818L244.48499999999999,161.8181818181818L244.755,161.8181818181818L244.8225,161.8181818181818L245.295,161.8181818181818L245.4975,161.8181818181818L245.565,161.8181818181818L245.90249999999997,161.8181818181818L245.97,161.8181818181818L246.0375,161.8181818181818L246.17249999999999,161.8181818181818L246.375,161.8181818181818L246.71249999999998,161.8181818181818L246.915,161.8181818181818L246.9825,161.8181818181818L247.1175,161.8181818181818L247.52249999999998,161.8181818181818L248.1975,161.8181818181818L248.67000000000002,161.8181818181818L248.8725,161.8181818181818L248.94,161.8181818181818L249.4125,161.8181818181818L249.48000000000002,161.8181818181818L249.5475,161.8181818181818L249.615,161.8181818181818L249.68249999999998,161.8181818181818L249.9525,161.8181818181818L250.155,161.8181818181818L250.8975,161.8181818181818L250.965,161.8181818181818L251.7075,161.8181818181818L251.775,161.8181818181818L251.8425,161.8181818181818L251.97750000000002,161.8181818181818L252.11249999999998,161.8181818181818L252.45000000000002,161.8181818181818L252.6525,161.8181818181818L252.72000000000003,161.8181818181818L252.855,161.8181818181818L252.92249999999999,161.8181818181818L253.395,161.8181818181818L253.52999999999997,161.8181818181818L253.665,161.8181818181818" style="fill: none;" fill="none"></path></g></g></g></g></g></g><g transform="translate(60, 178)" clip-path="url(#clip_1)"><clipPath id="clip_1"><rect width="270" height="22"></rect></clipPath><g><g><line x1="0" y1="0" x2="0" y2="5" style="visibility: inherit;" fill="rgb(0, 0, 0)" stroke="rgb(204, 204, 204)" stroke-width="1px"></line><line x1="33.75" y1="0" x2="33.75" y2="5" style="visibility: inherit;" fill="rgb(0, 0, 0)" stroke="rgb(204, 204, 204)" stroke-width="1px"></line><line x1="67.5" y1="0" x2="67.5" y2="5" style="visibility: inherit;" fill="rgb(0, 0, 0)" stroke="rgb(204, 204, 204)" stroke-width="1px"></line><line x1="101.25" y1="0" x2="101.25" y2="5" style="visibility: inherit;" fill="rgb(0, 0, 0)" stroke="rgb(204, 204, 204)" stroke-width="1px"></line><line x1="135" y1="0" x2="135" y2="5" style="visibility: inherit;" fill="rgb(0, 0, 0)" stroke="rgb(204, 204, 204)" stroke-width="1px"></line><line x1="168.75" y1="0" x2="168.75" y2="5" style="visibility: inherit;" fill="rgb(0, 0, 0)" stroke="rgb(204, 204, 204)" stroke-width="1px"></line><line x1="202.5" y1="0" x2="202.5" y2="5" style="visibility: inherit;" fill="rgb(0, 0, 0)" stroke="rgb(204, 204, 204)" stroke-width="1px"></line><line x1="236.25" y1="0" x2="236.25" y2="5" style="visibility: inherit;" fill="rgb(0, 0, 0)" stroke="rgb(204, 204, 204)" stroke-width="1px"></line><line x1="270" y1="0" x2="270" y2="5" style="visibility: inherit;" fill="rgb(0, 0, 0)" stroke="rgb(204, 204, 204)" stroke-width="1px"></line></g><g transform="translate(0, 8)"><text x="0" y="0" dx="0em" dy="0.95em" style="text-anchor: middle; visibility: hidden; font-family: Roboto, sans-serif; font-size: 12px; font-weight: 200;" fill="rgb(50, 49, 63)" stroke="none" stroke-width="1px">-500</text><text x="33.75" y="0" dx="0em" dy="0.95em" style="text-anchor: middle; visibility: inherit; font-family: Roboto, sans-serif; font-size: 12px; font-weight: 200;" fill="rgb(50, 49, 63)" stroke="none" stroke-width="1px">0</text><text x="67.5" y="0" dx="0em" dy="0.95em" style="text-anchor: middle; visibility: inherit; font-family: Roboto, sans-serif; font-size: 12px; font-weight: 200;" fill="rgb(50, 49, 63)" stroke="none" stroke-width="1px">500</text><text x="101.25" y="0" dx="0em" dy="0.95em" style="text-anchor: middle; visibility: inherit; font-family: Roboto, sans-serif; font-size: 12px; font-weight: 200;" fill="rgb(50, 49, 63)" stroke="none" stroke-width="1px">1k</text><text x="135" y="0" dx="0em" dy="0.95em" style="text-anchor: middle; visibility: inherit; font-family: Roboto, sans-serif; font-size: 12px; font-weight: 200;" fill="rgb(50, 49, 63)" stroke="none" stroke-width="1px">1.5k</text><text x="168.75" y="0" dx="0em" dy="0.95em" style="text-anchor: middle; visibility: inherit; font-family: Roboto, sans-serif; font-size: 12px; font-weight: 200;" fill="rgb(50, 49, 63)" stroke="none" stroke-width="1px">2k</text><text x="202.5" y="0" dx="0em" dy="0.95em" style="text-anchor: middle; visibility: inherit; font-family: Roboto, sans-serif; font-size: 12px; font-weight: 200;" fill="rgb(50, 49, 63)" stroke="none" stroke-width="1px">2.5k</text><text x="236.25" y="0" dx="0em" dy="0.95em" style="text-anchor: middle; visibility: inherit; font-family: Roboto, sans-serif; font-size: 12px; font-weight: 200;" fill="rgb(50, 49, 63)" stroke="none" stroke-width="1px">3k</text><text x="270" y="0" dx="0em" dy="0.95em" style="text-anchor: middle; visibility: hidden; font-family: Roboto, sans-serif; font-size: 12px; font-weight: 200;" fill="rgb(50, 49, 63)" stroke="none" stroke-width="1px">3.5k</text></g><line x1="0" y1="0" x2="270" y2="0" fill="rgb(0, 0, 0)" stroke="rgb(204, 204, 204)" stroke-width="1px"></line></g></g></g></g></svg>