<svg viewBox="0 0 330 200" xmlns="http://www.w3.org/2000/svg"><g><g><g><g><g><line x1="50" y1="161.15017604101743" x2="45" y2="161.15017604101743" style="visibility: inherit;" fill="rgb(0, 0, 0)" stroke="rgb(204, 204, 204)" stroke-width="1px"></line><line x1="50" y1="143.0117518165332" x2="45" y2="143.0117518165332" style="visibility: inherit;" fill="rgb(0, 0, 0)" stroke="rgb(204, 204, 204)" stroke-width="1px"></line><line x1="50" y1="124.873327592049" x2="45" y2="124.873327592049" style="visibility: inherit;" fill="rgb(0, 0, 0)" stroke="rgb(204, 204, 204)" stroke-width="1px"></line><line x1="50" y1="106.73490336756478" x2="45" y2="106.73490336756478" style="visibility: inherit;" fill="rgb(0, 0, 0)" stroke="rgb(204, 204, 204)" stroke-width="1px"></line><line x1="50" y1="88.59647914308057" x2="45" y2="88.59647914308057" style="visibility: inherit;" fill="rgb(0, 0, 0)" stroke="rgb(204, 204, 204)" stroke-width="1px"></line><line x1="50" y1="70.45805491859635" x2="45" y2="70.45805491859635" style="visibility: inherit;" fill="rgb(0, 0, 0)" stroke="rgb(204, 204, 204)" stroke-width="1px"></line><line x1="50" y1="52.319630694112156" x2="45" y2="52.319630694112156" style="visibility: inherit;" fill="rgb(0, 0, 0)" stroke="rgb(204, 204, 204)" stroke-width="1px"></line><line x1="50" y1="34.18120646962794" x2="45" y2="34.18120646962794" style="visibility: inherit;" fill="rgb(0, 0, 0)" stroke="rgb(204, 204, 204)" stroke-width="1px"></line><line x1="50" y1="16.042782245143716" x2="45" y2="16.042782245143716" style="visibility: inherit;" fill="rgb(0, 0, 0)" stroke="rgb(204, 204, 204)" stroke-width="1px"></line></g><g transform="translate(40, 0)"><text x="0" y="161.15017604101743" dx="0em" dy="0.3em" style="text-anchor: end; visibility: inherit; font-family: Roboto, sans-serif; font-size: 12px; font-weight: 200;" fill="rgb(50, 49, 63)" stroke="none" stroke-width="1px">-1</text><text x="0" y="143.0117518165332" dx="0em" dy="0.3em" style="text-anchor: end; visibility: hidden; font-family: Roboto, sans-serif; font-size: 12px; font-weight: 200;" fill="rgb(50, 49, 63)" stroke="none" stroke-width="1px">-0.5</text><text x="0" y="124.873327592049" dx="0em" dy="0.3em" style="text-anchor: end; visibility: inherit; font-family: Roboto, sans-serif; font-size: 12px; font-weight: 200;" fill="rgb(50, 49, 63)" stroke="none" stroke-width="1px">0</text><text x="0" y="106.73490336756478" dx="0em" dy="0.3em" style="text-anchor: end; visibility: hidden; font-family: Roboto, sans-serif; font-size: 12px; font-weight: 200;" fill="rgb(50, 49, 63)" stroke="none" stroke-width="1px">0.5</text><text x="0" y="88.59647914308057" dx="0em" dy="0.3em" style="text-anchor: end; visibility: inherit; font-family: Roboto, sans-serif; font-size: 12px; font-weight: 200;" fill="rgb(50, 49, 63)" stroke="none" stroke-width="1px">1</text><text x="0" y="70.45805491859635" dx="0em" dy="0.3em" style="text-anchor: end; visibility: hidden; font-family: Roboto, sans-serif; font-size: 12px; font-weight: 200;" fill="rgb(50, 49, 63)" stroke="none" stroke-width="1px">1.5</text><text x="0" y="52.319630694112156" dx="0em" dy="0.3em" style="text-anchor: end; visibility: inherit; font-family: Roboto, sans-serif; font-size: 12px; font-weight: 200;" fill="rgb(50, 49, 63)" stroke="none" stroke-width="1px">2</text><text x="0" y="34.18120646962794" dx="0em" dy="0.3em" style="text-anchor: end; visibility: hidden; font-family: Roboto, sans-serif; font-size: 12px; font-weight: 200;" fill="rgb(50, 49, 63)" stroke="none" stroke-width="1px">2.5</text><text x="0" y="16.042782245143716" dx="0em" dy="0.3em" style="text-anchor: end; visibility: inherit; font-family: Roboto, sans-serif; font-size: 12px; font-weight: 200;" fill="rgb(50, 49, 63)" stroke="none" stroke-width="1px">3</text></g><line x1="50" y1="0" x2="50" y2="178" fill="rgb(0, 0, 0)" stroke="rgb(204, 204, 204)" stroke-width="1px"></line></g></g><g transform="translate(50, 0)" clip-path="url(#clip_0)"><clipPath id="clip_0"><rect width="280" height="178"></rect></clipPath><g><g><g><line x1="3.7586762786789927" y1="0" x2="3.7586762786789927" y2="178" fill="rgb(0, 0, 0)" stroke="rgb(60, 60, 60)" stroke-width="1px" opacity="0.25"></line><line x1="34.96355077267196" y1="0" x2="34.96355077267196" y2="178" fill="rgb(0, 0, 0)" stroke="rgb(60, 60, 60)" stroke-width="1px" opacity="0.25"></line><line x1="66.16842526666491" y1="0" x2="66.16842526666491" y2="178" fill="rgb(0, 0, 0)" stroke="rgb(60, 60, 60)" stroke-width="1px" opacity="0.25"></line><line x1="97.37329976065789" y1="0" x2="97.37329976065789" y2="178" fill="rgb(0, 0, 0)" stroke="rgb(60, 60, 60)" stroke-width="1px" opacity="0.25"></line><line x1="128.57817425465083" y1="0" x2="128.57817425465083" y2="178" fill="rgb(0, 0, 0)" stroke="rgb(60, 60, 60)" stroke-width="1px" opacity="0.25"></line><line x1="159.7830487486438" y1="0" x2="159.7830487486438" y2="178" fill="rgb(0, 0, 0)" stroke="rgb(60, 60, 60)" stroke-width="1px" opacity="0.25"></line><line x1="190.98792324263675" y1="0" x2="190.98792324263675" y2="178" fill="rgb(0, 0, 0)" stroke="rgb(60, 60, 60)" stroke-width="1px" opacity="0.25"></line><line x1="222.19279773662973" y1="0" x2="222.19279773662973" y2="178" fill="rgb(0, 0, 0)" stroke="rgb(60, 60, 60)" stroke-width="1px" opacity="0.25"></line><line x1="253.39767223062267" y1="0" x2="253.39767223062267" y2="178" fill="rgb(0, 0, 0)" stroke="rgb(60, 60, 60)" stroke-width="1px" opacity="0.25"></line></g><g><line x1="0" y1="161.15017604101743" x2="280" y2="161.15017604101743" fill="rgb(0, 0, 0)" stroke="rgb(60, 60, 60)" stroke-width="1px" opacity="0.25"></line><line x1="0" y1="143.0117518165332" x2="280" y2="143.0117518165332" fill="rgb(0, 0, 0)" stroke="rgb(60, 60, 60)" stroke-width="1px" opacity="0.25"></line><line x1="0" y1="124.873327592049" x2="280" y2="124.873327592049" fill="rgb(0, 0, 0)" stroke="rgb(60, 60, 60)" stroke-width="1px" opacity="0.25"></line><line x1="0" y1="106.73490336756478" x2="280" y2="106.73490336756478" fill="rgb(0, 0, 0)" stroke="rgb(60, 60, 60)" stroke-width="1px" opacity="0.25"></line><line x1="0" y1="88.59647914308057" x2="280" y2="88.59647914308057" fill="rgb(0, 0, 0)" stroke="rgb(60, 60, 60)" stroke-width="1px" opacity="0.25"></line><line x1="0" y1="70.45805491859635" x2="280" y2="70.45805491859635" fill="rgb(0, 0, 0)" stroke="rgb(60, 60, 60)" stroke-width="1px" opacity="0.25"></line><line x1="0" y1="52.319630694112156" x2="280" y2="52.319630694112156" fill="rgb(0, 0, 0)" stroke="rgb(60, 60, 60)" stroke-width="1px" opacity="0.25"></line><line x1="0" y1="34.18120646962794" x2="280" y2="34.18120646962794" fill="rgb(0, 0, 0)" stroke="rgb(60, 60, 60)" stroke-width="1px" opacity="0.25"></line><line x1="0" y1="16.042782245143716" x2="280" y2="16.042782245143716" fill="rgb(0, 0, 0)" stroke="rgb(60, 60, 60)" stroke-width="1px" opacity="0.25"></line></g></g></g><g><g><line x1="0" y1="124.873327592049" x2="280" y2="124.873327592049" fill="rgb(0, 0, 0)" stroke="rgb(153, 153, 153)" stroke-width="1.5px"></line></g></g><g><g><line x1="3.7586762786789927" y1="0" x2="3.7586762786789927" y2="178" fill="rgb(0, 0, 0)" stroke="rgb(153, 153, 153)" stroke-width="1.5px"></line></g></g><g><g><g><g><g><path stroke="rgb(238, 51, 119)" stroke-width="2px" d="M4.070725023618922,85.75653385529507L4.6948225134987815,26.484508988043817L4.88205176046274,-25.679830652846633L5.256510254390655,29.146503579175427L6.25506623819843,61.99446263878393L6.379885736174402,80.63237337540491L6.504705234150373,91.39665384705134L6.567114983138359,96.96253420448124L6.691934481114331,100.30291795718571L7.066392975042247,102.59888137169916L7.253622222006204,103.98635372616984L7.815309962898077,104.53933085963084L8.189768456825995,107.45576664875023L8.25217820581398,106.53770660051146L8.314587954801967,105.87790530463457L8.376997703789952,105.66113733205002L8.689046448729881,103.0554196926202L9.18832444063377,101.98999145090401L9.62519268354967,101.4876819787065L10.124470675453558,101.65723197306593L10.311699922417516,99.48465209170668L10.3741096714055,98.7615886253762L10.810977914321404,98.84130123001765L11.123026659261333,96.8392334927851L11.62230465116522,96.60127505275695L11.871943647117163,90.69861078363319L12.433631388009037,86.29743988012744L13.120138626876882,85.2143288158257L13.432187371816811,94.61736578997284L13.61941661878077,92.9433595803628L14.181104359672643,100.94729850848894L14.24351410866063,104.44941022734126L14.867611598540488,107.55633920302932L15.179660343480418,100.38318363948517L15.30447984145639,82.8181388606653L15.366889590444377,58.211675794269674L15.61652858639632,-0.8565370296313612L21.982322983170885,-55.22893435714972L22.294371728110814,7.13559326909057L22.3567814770988,46.0148635145609L22.66883022203873,69.02617397665134L22.98087896697866,80.47966380101963L23.10569846495463,90.03998264552847L23.604976456858516,95.72416274175644L23.6673862058465,97.42278280424668L24.04184469977442,99.00112357295815L24.104254448762404,100.67840573396781L24.16666419775039,101.29660369485866L24.35389344471435,101.8747863018586L24.91558118560622,102.14809483541174L25.41485917751011,103.48667532411389L26.413415161317882,104.05175610746285L26.663054157269826,103.26009461373431L27.037512651197744,102.78933489917387L27.287151647149688,102.61245573010797L27.41197114512566,102.39065723396064L28.16088813298149,102.19772653961476L28.223297881969476,102.81233317844415L29.22185386577725,100.96505200975508L30.03318060262107,101.44943894940063L30.095590351609054,101.76042411568136L30.220409849585025,103.65341191319352L30.594868343512942,99.90299721734849L31.156556084404816,102.43547910985123L31.28137558238079,104.26577966257311L31.343785331368775,102.59644811198827L31.53101457833273,103.06688622781616L31.905473072260644,102.84430433913685L32.46716081315252,100.4293247793167L32.65439006011648,99.88271922026647L32.716799809104465,102.24163503870767L33.278487549996335,103.28041506280833L33.34089729898432,100.06483020960428L34.27704353380411,99.4209722366542L34.40186303178008,102.19306339952051L34.52668252975605,101.92270761341695L35.40041901558786,101.8671121500144L35.71246776052779,97.20584692294106L35.83728725850376,102.4303866620282L36.024516505467716,103.19137974880289L36.523794497371604,103.95287278083443L36.89825299129952,104.3204461463943L37.02307248927549,104.07276558967098L37.21030173623945,102.0757107503754L37.58476023016737,102.50576734599633L37.8968089751073,102.64204914426658L38.52090646498715,103.62437285059464L38.64572596296312,108.92429552535401L38.89536495891507,107.6176313837135L39.269823452842985,105.15495389055314L39.519462448794926,108.12634274750994L39.581872197782914,107.18316979140533L39.89392094272284,106.32742947148391L40.018740440698814,104.99467054555302L40.0811501896868,99.24923385428133L40.20596968766277,100.89565754138768L40.33078918563874,101.78660752114423L40.39319893462673,103.11521618718542L40.70524767956666,101.74804386277967L40.76765742855465,102.8244609187134L41.32934516944652,102.94701359330736L41.70380366337444,102.2743921217398L41.82862316135041,101.90461203840913L42.140671906290336,99.99213617646153L42.452720651230266,104.39442325829543L42.57754014920624,106.03732643560211L43.32645713706207,104.61272907944259L43.76332537997798,104.36312998656919L43.82573512896596,104.54421493479633L43.95055462694192,103.66252436739833L44.01296437592991,100.90466164975146L44.0753741249179,97.58307964697487L44.13778387390588,97.87023064423859L44.26260337188186,101.22414908979178L44.44983261884581,101.27488569936142L44.69947161479776,102.10138676713139L45.01152035973769,103.96664739658203L45.19874960670165,103.58239869654511L45.44838860265359,103.29006221695626L45.635617849617546,103.76163187166125L45.822847096581505,103.11250872831165L46.07248609253345,102.33234662586044L46.134895841521434,101.46231562107342L46.38453483747338,99.70400434044068L46.69658358241331,102.31413215246292L46.7589933314013,102.83152151058312L47.1958615743172,100.19947419265033L47.38309082128116,100.72814811375494L47.6327298172331,102.09296039099314L47.81995906419706,99.49220861925404L48.069598060149005,100.7239824394588L48.319237056100945,101.03185403359304L48.56887605205289,99.87437120363835L48.75610529901685,100.08748426397308L48.81851504800483,101.0492491740312L48.88092479699282,102.06888732484657L49.31779303990872,103.61480660488984L49.69225153383663,102.00846471656429L49.8170710318126,101.72273579323239L49.87948078080059,103.06402505715695L50.12911977675253,99.5069560959389L50.37875877270448,99.51547193705068L50.56598801966844,101.1950085647902L50.62839776865642,101.38626221792698L50.69080751764441,100.48565628992395L50.94044651359635,101.41621491357701L51.502134254488226,101.89210624318811L51.751773250440166,103.59234942555479L51.814182999428155,102.84277616691197L51.876592748416144,102.52296034110604L52.001412246392114,101.60548699865844L52.0638219953801,101.53079723939288L52.43828048930801,100.7015451785205L52.68791948525996,102.81772614164129L52.75032923424794,101.94922777985055L52.87514873222392,101.93269934528536L52.99996823019989,102.33844643388764L53.18719747716385,102.08812420406959L53.24960722615183,102.14171257918548L53.31201697513982,102.58622234744588L53.37442672412781,99.60064001594522L53.56165597109177,101.17555977502066L53.81129496704371,102.63511254486005L54.12334371198364,107.19564667581754L54.185753460971625,104.81794401836365L54.24816320995961,103.89389161052385L54.622621703887525,99.94777916158124L54.997080197815436,100.33180009234047L55.246719193767376,101.21224942531433L55.433948440731335,101.72959870343108L55.68358743668328,101.03604098174516L55.93322643263522,101.43762273371419L56.05804593061119,100.23379316242L56.37009467555113,100.33149775505707L57.867928651262794,101.93071098749249L57.992748149238764,103.49241431701785L58.055157898226746,102.75580663634436L58.30479689417869,102.8776527175284L58.429616392154664,101.94276520361306L58.67925538810661,102.84900204222312L58.80407488608258,102.83204452795674L59.30335287798647,102.27219537743554L59.67781137191439,103.42991534819397L59.92745036786633,102.47339227276822L60.364318610782234,102.06783526052098L60.426728359770216,102.03130561777357L60.4891381087582,103.49103486516026L60.55154785774618,103.92197006735772L60.863596602686115,103.4146893587928L60.988416100662086,101.42560400645662L61.175645347626045,102.2930067354831L61.238055096614026,102.18678312793091L61.36287459459,100.94553366722359L61.86215258649389,101.5433348753134L61.92456233548187,102.55544194704548L62.11179158244583,103.03922508095762L62.54865982536173,100.58703512384395L62.73588907232569,100.10965378170944L63.29757681321757,99.94836930261322L63.42239631119354,101.53526640959629L63.54721580916951,99.63312527456416L63.73444505613347,101.40946062614277L63.796854805121455,101.38030887781758L64.0464938010734,101.62559747481757L64.35854254601333,102.2514951857159L64.42095229500131,102.17580120827554L64.67059129095325,102.27285064982041L64.73300103994124,107.18035873501752L64.79541078892923,105.85653745652534L64.85782053791722,104.2932104860891L65.10745953386916,102.11847879344417L65.16986928285715,102.60692421474273L65.3570985298211,99.66901113540102L65.41950827880909,102.06837099639617L65.91878627071299,101.8858477707868L66.16842526666491,100.01950438332635L66.29324476464089,100.77684421565337L66.41806426261687,102.33836340311096L66.48047401160484,101.31506333773326L66.97975200350874,102.46306500437736L67.04216175249672,103.43871948477172L67.22939099946068,103.12339494303883L67.72866899136457,102.4559574187594L67.85348848934053,102.11903619609983L68.10312748529248,101.3055331340391L68.16553723428046,100.94932276613059L68.4775859792204,102.53318822145242L68.9144542221363,103.76613157754399L69.60096146100415,103.36665618021492L69.72578095898012,102.35392789237095L70.10023945290803,101.82439811821006L70.16264920189602,100.87031247679016L70.28746869987198,99.27594178401492L70.41228819784796,101.03514524529814L70.6619271937999,99.89943463547027L70.91156618975184,100.41593970648796L71.03638568772782,100.5330739028583L71.34843443266774,101.90051496137123L71.41084418165573,101.08217455230732L71.47325393064372,97.38065714502704L71.9725319225476,98.45884627990613L72.34699041647552,101.25175259750706L72.59662941242746,100.85826322410738L72.65903916141545,100.45679669781757L72.72144891040344,102.9418335343996L73.28313665129531,100.48121105093138L73.59518539623524,102.18215211451175L73.96964389016316,99.37051242868775L74.46892188206705,100.17617723120662L74.59374138004301,99.2650909944914L75.84193635980274,99.14416746507978L75.90434610879072,99.18226528411455L76.15398510474267,99.67329146770189L76.21639485373066,102.16204335881598L76.27880460271864,102.898970970266L77.40218008450239,102.94522565848865L77.71422882944232,104.27926897532562L78.15109707235823,103.52799994161676L78.21350682134621,102.52382055991654L78.58796531527412,102.82983508584044L78.7127848132501,103.42958278493515L79.02483355819002,102.12410570258575L79.149653056166,106.45869402215126L79.27447255414197,105.12850052904554L79.52411155009392,104.24972835233385L80.64748703187765,102.49580570790431L80.77230652985362,109.0530033644699L80.89712602782959,107.13991069912292L81.39640401973348,104.81354343033775L81.58363326669743,104.84523208416569L81.95809176062535,103.19564417008193L82.08291125860133,102.35666382094568L82.20773075657729,102.4204473314655L82.27014050556528,101.65445728315514L82.45736975252925,101.56048299261154L82.58218925050521,102.86841296937024L82.76941849746918,101.77595849274728L83.26869648937306,102.190090058028L83.70556473228896,103.15231572057877L84.08002322621688,102.54423402732249L84.32966222216882,101.78446393778798L84.39207197115681,101.94630063333375L84.4544817201448,101.84398785545109L84.51689146913279,101.64891403640131L84.89134996306069,102.80301473398788L85.51544745294055,102.34337083771925L85.64026695091653,102.7161180653003L85.82749619788049,101.3059856051481L85.88990594686847,100.87877303074534L86.07713519383243,102.93228379844193L86.45159368776035,102.88794598199836L86.57641318573631,102.3387238206194L86.76364243270028,103.91116355741113L86.95087167966423,104.18999012203174L87.1381009266282,100.13552568426367L87.20051067561617,99.23910604186554L88.32388615739993,99.53544107428507L89.01039339626777,99.1474144399376L89.26003239221971,105.39880973304503L90.13376887805153,105.49397019877817L90.1961786270395,104.48839273048986L90.38340787400347,105.09728498573631L90.44581762299146,103.11688317725596L90.57063712096742,104.05115788058008L90.63304686995541,100.72035092375059L91.88124184971511,101.70527077921861L91.9436515987031,101.1713205823967L92.00606134769109,102.12431999532295L92.31811009263102,101.34965245755775L92.50533933959497,101.34412558359072L92.75497833554692,101.3096468432052L92.87979783352289,100.830779193319L93.12943682947484,100.26884615834778L93.37907582542678,98.2545581082758L93.62871482137872,98.19830581991967L94.6272708051865,96.3537063341054L95.18895854607837,98.93388283838965L95.25136829506636,100.0457640113335L95.9378755339342,100.24957908363334L96.4371535258381,101.44396158195532L96.49956327482607,102.74351622553853L96.68679252179004,104.42171964451464L96.811612019766,104.32628556117145L96.87402176875399,101.88318392014696L97.37329976065789,101.96095442703638L97.43570950964587,103.14109353389215L97.87257775256177,103.35207748618899L97.99739725053774,102.46806932346817L98.49667524244163,108.54211016227762L98.80872398738155,104.47251903367105L98.87113373636954,101.57149157272251L99.05836298333351,101.47669972932032L99.4952312262494,100.46281402596772L100.24414821410524,102.84737293861059L100.55619695904517,102.54901382181848L100.61860670803316,104.60601291976204L100.74342620600913,103.32186087688966L100.80583595499711,103.02719416913054L101.18029444892503,103.2805826848955L101.61716269184093,102.69390524677671L101.67957244082892,101.27693216648443L102.24126018172078,101.57932400769867L102.49089917767272,103.43527359115373L102.6157186756487,102.7420974845381L102.86535767160063,100.4443278855376L103.4270454124925,101.70942012883897L103.86391365540841,100.87935849967093L103.9263234043964,98.60471509595428L104.23837214933633,99.79301999619443L104.73765014124022,98.54577579015191L104.86246963921619,98.65836594249791L105.2993378821321,99.07916208160003L105.36174763112008,100.09095327339023L105.61138662707202,100.82877950975185L105.92343537201195,102.54732101266382L106.1106646189759,102.35616214287967L106.23548411695188,100.65276240672164L106.42271336391585,102.8480486029796L106.6099426108798,105.0582870117121L106.85958160683174,103.90590667922172L107.35885959873563,102.80089962228695L107.85813759063952,102.6987307960307L107.98295708861549,100.59820170613234L108.10777658659146,101.93689140222632L108.29500583355542,103.14404468361303L108.35741558254341,102.8635295387395L108.73187407647133,103.53449638520462L108.7942838254593,101.06024809131178L109.2935618173632,102.33799301045072L109.48079106432715,98.55827721862569L109.54320081331514,99.7186070850617L109.60561056230313,98.97054013748256L109.66802031129112,99.29519622989389L109.79283980926708,100.53186433832299L109.98006905623105,99.63196033085009L110.41693729914695,99.51438510857044L110.47934704813493,100.99699842244641L110.91621529105083,100.77659692807235L110.97862504003882,101.71464615432305L111.04103478902681,101.12083147596312L111.60272252991868,101.6287305320839L111.85236152587062,99.24159164673071L111.9771810238466,100.30357776612362L112.03959077283459,101.66880443248247L112.16441027081055,103.09807556577283L112.47645901575048,102.55205170625422L112.53886876473847,98.79604798362602L112.66368826271444,99.3452415323486L112.72609801170243,102.62909777310914L112.78850776069041,102.6792317493302L113.10055650563032,101.6876410555823L113.97429299146214,99.35247724910822L114.535980732354,99.98314693247286L114.91043922628192,102.46091355275757L115.34730746919783,102.30508138022856L115.4097172181858,102.29981388205533L115.97140495907769,102.13122512682358L116.40827320199358,103.70478960566558L116.96996094288546,103.8121043722481L117.15719018984942,103.3684137200982L117.59405843276532,102.74578047599056L117.71887793074129,103.79862322084753L117.96851692669324,102.37812919143981L118.5926144165731,102.88836129096246L118.65502416556109,103.03834583220025L118.84225341252504,102.37826112525998L119.15430215746497,103.37973124452857L119.40394115341691,101.4632707290104L120.21526789026073,101.6168670550782L120.34008738823671,96.06998990912629L120.40249713722469,99.9951013144448L120.7769556311526,99.05293937323792L120.83936538014059,100.37646864864742L120.90177512912858,100.78913780391255L121.02659462710456,102.34118581825719L121.15141412508052,102.0356427903672L121.90033111293636,102.51294454007454L123.02370659472011,102.43192154735371L123.39816508864801,102.79947095267059L123.77262358257593,102.86857173177997L123.8350333315639,100.08125200194057L124.20949182549182,101.01111590651284L124.45913082144376,102.32329842779771L124.58395031941974,102.06703999876761L124.7087698173957,102.13480763630194L125.08322831132362,102.66650040476414L125.27045755828759,101.57174956547202L125.39527705626355,102.29647716600599L125.58250630322752,102.96945215861093L125.76973555019147,102.04888651746985L125.95696479715544,104.13902150489072L126.5186525380473,101.47176816162326L126.64347203602328,98.84177235915925L127.3923890238791,98.959583378224L127.4547987728671,98.4460068332227L127.51720852185508,93.40152037306649L128.3909450076869,95.76888012859366L128.64058400363882,100.15706594411759L128.89022299959078,97.4563828336948L129.13986199554273,99.9259915036453L129.2022717445307,98.49659666688237L129.38950099149466,98.72073066940543L129.51432048947063,98.9473539878254L129.6391399874466,96.42454015459907L130.1384179793505,94.30595546571068L130.26323747732647,96.60431582110135L130.45046672429044,92.08801463163375L130.63769597125437,93.95578089995362L130.82492521821834,97.15289320752571L130.94974471619432,97.43686344561087L131.13697396315828,100.20781476137887L131.32420321012222,101.24839080618875L132.32275919393,103.38478063900764L132.7596274368459,98.32704174054713L133.07167618178585,98.54246810627703L133.13408593077384,102.01590118473673L133.1964956797618,100.50839602006326L133.32131517773777,95.57464364853405L133.38372492672576,100.10497825782042L133.50854442470174,82.76475060688837L133.63336392267772,88.96023120315542L133.88300291862964,93.40809305905186L134.1326419145816,96.82669100009281L134.44469065952154,93.01298056445373L134.5695101574975,91.67420820384977L135.00637840041338,89.48324054379546L135.13119789838936,98.11409684034815L135.19360764737735,97.97453764793012L135.38083689434131,99.19019672915506L135.50565639231726,97.89236410993078L135.75529538826922,80.25927847852631L135.94252463523318,89.5171263738353L136.06734413320916,83.98986742745038L136.1921636311851,93.60386138039131L136.2545733801731,90.1175437462041L136.87867087005296,96.19578671834662L136.94108061904095,85.65390476168555L137.1907196149929,83.65073549418267L137.37794886195687,91.74646118847315L137.5651781089208,96.51471426639793L137.6275878579088,89.4015151575989L137.81481710487276,85.78987363911358L137.87722685386075,90.60888039276166L138.00204635183673,82.3314670781669L138.31409509677664,81.37249518158231L138.37650484576463,85.61176043386462L138.81337308868052,94.29080881767345L138.8757828376685,90.12471755773439L139.12542183362046,94.32800225441606L139.25024133159644,97.09328192154227L139.37506082957242,90.4902222227165L139.62469982552435,91.55365619490308L140.24879731540423,88.49867240591631L140.37361681338018,92.71108346819712L140.49843631135613,98.1136139889783L140.56084606034412,99.97491556168953L140.81048505629607,101.58803489856267L140.99771430326004,96.32575228116971L141.49699229516392,100.29842557886774L141.74663129111588,97.2581680251374L141.9338605380798,86.12575047099573L142.62036777694766,89.88184616077118L142.87000677289961,94.2492673643988L142.9948262708756,96.02883023585433L143.18205551783953,92.64161642060895L143.3068750158155,94.49782560851915L143.3692847648035,96.05823690669502L143.49410426277947,96.79433977339643L143.61892376075545,99.45086604671268L143.68133350974344,94.8513117764548L143.8061530077194,93.31132880695554L143.93097250569537,97.49888247157894L143.99338225468335,97.53646206309708L144.2430212506353,96.29862773750031L144.43025049759925,92.94651775001383L144.6174797445632,96.5333091131833L144.92952848950316,94.06733679207471L145.678445477359,91.09925889396494L145.92808447331092,86.82785229261653L146.11531372027488,92.34107833733998L146.73941121015474,100.5495316650075L147.11386970408265,99.32610232879412L147.17627945307063,99.65558078753806L147.3010989510466,93.56864350086448L147.48832819801058,99.14163130025793L147.67555744497454,97.08264240476353L147.7379671939625,100.74994590266135L147.8003769429505,100.15135078556358L148.42447443283035,95.88756117520995L148.48688418181834,88.73868810842576L148.54929393080633,94.21940917060257L148.6741134287823,101.72314954229796L149.42303041663814,106.63669705121227L149.48544016562613,102.03318657122904L149.54784991461412,95.6218601073426L149.6102596636021,98.53007543565536L150.109537655506,98.87038625854306L150.67122539639786,98.40301189055474L151.7321911291936,94.15014598432079L152.60592761502542,97.81772607139709L152.7931568619894,97.64348990967154L152.85556661097738,63.5797006205147L152.91797635996537,73.4440275028338L153.04279585794134,73.84316820218002L153.54207384984522,83.03430824104589L153.6668933478212,86.48228030566897L153.79171284579715,85.12912461740834L153.91653234377313,90.14479954042305L154.54062983365299,96.97506296206313L155.0399078255569,94.0686995727531L155.10231757454486,94.67266074732287L155.7888248134127,82.99159278902798L156.2881028053166,89.59591311923883L156.66256129924452,95.63762437366368L156.7249710482325,96.90390835112188L156.84979054620848,99.64345711705572L156.97461004418446,104.01902212321654L157.28665878912437,78.59027661163442L158.4724440198961,83.44957734064549L158.59726351787208,93.79958407111775L158.84690251382403,97.69378280045395L158.90931226281202,96.81004050416274L159.53340975269188,100.22505064035305L159.65822925066786,75.6615770513172L159.8454584976318,86.29460201915143L159.90786824661978,87.38440076279674L159.97027799560777,89.27483561861418L160.59437548548763,82.38342727934702L160.65678523447562,86.46322343100822L160.8440144814396,89.66731134234529L160.96883397941556,89.27730164755695L161.2184729753675,94.52050139591535L161.34329247334347,92.51419860575207L161.53052172030743,96.29952061743917L161.6553412182834,96.92782122759476L161.78016071625936,94.02221396287709L161.90498021423534,86.9662307401784L162.46666795512718,92.41384241388376L162.71630695107913,94.87011946256902L162.9659459470311,99.39448697711337L163.09076544500704,97.57545455774662L163.277994691971,95.69159564184417L163.46522393893497,97.01066623485924L163.83968243286287,83.83768282262885L163.90209218185086,90.87705907582085L164.15173117780282,83.39719377408389L164.33896042476675,78.68630836752834L164.52618967173072,77.39559677086491L164.6510091697067,87.31937718879956L165.21269691059857,56.50173347095061L165.39992615756253,67.85869739051958L165.46233590655052,76.52033279338121L165.5247456555385,80.49967395175267L165.5871554045265,83.23232483132082L165.77438465149044,70.85257142655175L166.0240236474424,82.96287352527578L166.3984821413703,84.01889463088831L166.46089189035828,90.63178472432669L166.64812113732225,91.60981044030328L167.14739912922613,80.70705929909931L167.45944787416607,87.27089477778419L167.64667712113004,92.70905977908231L167.83390636809398,88.42880669904095L167.89631611708197,95.07745909781917L168.02113561505794,99.5844152829914L168.2083648620219,104.95341214267182L168.2707746110099,97.17431945294337L168.39559410898585,84.8919988206378L168.77005260291378,93.8332870180406L168.95728184987775,94.77301646608929L169.14451109684168,84.5677381852811L169.20692084582967,92.70970714775866L169.45655984178163,102.83827738457346L170.64234507255335,98.69367259190844L170.8919840685053,86.8569434511107L171.01680356648126,92.95895352525174L171.3288523114212,94.76218005438292L171.64090105636114,97.68698728359641L172.20258879725301,94.06720083600503L172.45222779320494,99.94319952995639L172.7018667891569,95.40847524612343L172.88909603612086,97.2740244174057L173.82524227094063,88.68164529670445L174.51174950980848,95.13347494871485L174.57415925879647,97.44281797737125L174.76138850576044,99.37118350133464L175.13584699968834,95.61875624265242L175.57271524260426,100.48908202436775L175.63512499159225,92.22179662233955L175.6975347405802,97.66308366395195L175.7599444895682,92.57325194789584L175.8223542385562,96.97924122222379L175.88476398754418,73.02864877388701L176.38404197944806,78.32917960585549L177.81946620617174,87.41428191995553L177.88187595515973,89.1605536927265L177.94428570414772,86.2304256890039L178.3811539470636,85.94943612764393L179.06766118593146,89.88961471562062L179.19248068390743,79.03926428352437L179.94139767176327,81.74126128788708L180.00380742075126,93.80258020835362L180.19103666771522,66.37187805661443L180.31585616569117,82.91707112552096L180.37826591467916,89.73441952404116L180.50308541265514,93.58238202677984L181.68887064342687,71.3703729387142L182.0009193883668,79.46698683080517L182.18814863533078,82.70597899045701L182.3753778822947,80.15156658318182L182.9370656231866,83.0013135896001L182.99947537217457,82.8006019585081L183.3739338661025,90.76839607037728L183.49875336407848,96.4735790473247L183.56116311306647,95.94419058440664L183.93562160699437,87.35994665651586L184.12285085395834,93.81484111853361L184.18526060294633,93.73819687954102L184.49730934788622,77.1478434382568L184.6221288458622,84.01117583492811L184.74694834383817,82.74135183997373L184.9341775908021,89.04969541948061L184.9965873397901,84.85029272509976L185.495865331694,89.17011533974048L185.80791407663392,79.98088722034112L185.9327335746099,92.6969245763207L185.9951433235979,97.82496907121467L186.05755307258588,95.11728512056726L186.74406031145372,90.9745044466544L187.36815780133358,95.20059063184681L187.86743579323746,76.73239871109206L188.9284015260332,86.75752984615433L189.24045027097316,81.70566255649344L189.36526976894913,87.4006697205269L189.42767951793712,85.16943386719224L189.61490876490106,89.82614960923155L190.23900625478092,94.68959298407579L190.61346474870885,89.72053322887483L190.8631037446608,93.16251257385962L191.17515248960072,92.28501772460598L191.2999719875767,96.85121360315202L191.42479148555267,96.0605129141184L191.54961098352862,97.54329506547572L191.6744304815046,95.89488215308005L191.92406947745656,93.17056796158636L191.98647922644454,94.48427169276009L192.1737084734085,91.75625154867325L192.29852797138446,98.26064954111285L192.5481669673364,101.71012958367024L192.6729864653124,98.05639667331612L192.86021571227636,94.33045716803328L192.92262546126432,97.12209372981008L193.0474449592403,91.34175926378065L193.35949370418024,94.77687201439825L193.48431320215622,92.85256282326407L193.5467229511442,94.06908393600885L193.60913270013216,93.21859962558052L194.10841069203607,101.10983637265426L194.8573276798919,100.78036054885455L195.04455692685585,81.85417549547785L195.16937642483182,85.46088446908597L195.2941959228078,89.34784012211743L195.41901542078378,98.61209549631059L195.54383491875973,84.48594552308425L196.10552265965163,87.04111757035898L196.35516165560355,99.15325668320638L196.47998115357953,98.40505366998305L197.16648839244738,97.1006951326548L197.41612738839933,87.97636578520238L198.0402248782792,90.11100956685448L198.60191261917106,94.23013239574423L198.91396136411097,95.33547610122174L199.3508296070269,86.84353041170722L199.53805885399083,62.51556789696661L199.60046860297882,68.85025683341023L199.97492709690675,81.12240031811635L200.03733684589474,91.8456235793562L200.16215634387072,96.05996972313208L200.34938559083466,97.16997780610734L200.6614343357746,95.3355343063495L200.84866358273857,95.72834198422206L200.91107333172653,98.72176674861102L201.0358928297025,94.5909731379565L202.0344488135103,97.89774279049382L202.4713170564262,99.10608031942463L202.65854630339015,90.06731197329519L202.72095605237814,95.51362764726304L203.15782429529403,96.32699302309693L203.22023404428202,91.6626451698721L203.28264379327,96.44045979916527L203.65710228719792,94.84067647117342L203.84433153416188,96.68519282150805L205.34216550987355,98.60936559880184L205.52939475683752,99.21295348100278L205.65421425481347,91.53315853414534L205.9662629997534,95.3284872522997L206.15349224671738,96.6787873691299L206.21590199570534,98.62364300369823L206.34072149368131,93.03598368587994L206.4031312426693,86.52155452026427L206.83999948558517,93.7053430584176L206.96481898356114,93.56145430370755L207.08963848153712,96.93938076514212L207.651326222429,100.66343105357281L207.96337496736894,94.67348640278574L208.5250627082608,95.7715613148677L208.64988220623678,81.81239240950309L208.77470170421276,83.51606254600787L209.0243407001647,82.83235054853314L209.21156994712865,90.3758988994972L210.02289668397248,97.90857729588924L210.08530643296046,100.31617068421983L210.14771618194843,91.86735119974284L210.52217467587636,97.28341402247769L211.02145266778024,101.4738483256157L211.39591116170817,103.69971848652325L211.45832091069616,103.04880803801807L211.52073065968412,100.82186861410165L211.77036965563607,99.94082878242132L212.08241840057602,99.83032709977331L212.5192866434919,96.23416573933893L213.0185646353958,95.33697555026114L213.26820363134775,95.93646883121956L213.51784262729967,96.54006092108129L213.64266212527565,97.00373814846742L214.01712061920358,90.15067517797826L214.20434986616752,91.33906473028532L214.3291693641435,93.65518715202663L214.45398886211947,85.821385326982L214.57880836009545,75.57883773239776L214.76603760705942,9.990609631491914L214.89085710503537,46.24965825177758L215.07808635199933,66.10361344193785L215.82700333985517,77.45213608070243L216.13905208479508,82.50397564942874L216.20146183378307,91.85867734791664L216.45110082973503,96.34867376464037L216.88796907265092,99.77667101128422L217.57447631151877,102.6796537410457L217.76170555848273,102.24532105819209L217.82411530747072,102.85083805526618L218.0113445544347,101.64054252885964L218.3233932993746,102.34893446776093L218.69785179330253,102.57487139202415L218.76026154229052,102.5551065445514L219.00990053824245,101.35653145426689L219.13472003621843,102.41798696899062L219.50917853014633,103.21272751308366L219.57158827913432,102.0880027916004L219.94604677306225,100.32717457587995L220.38291501597814,100.57704512711551L220.75737350990607,101.49275998801468L220.94460275687,101.13490529710165L221.31906125079794,100.10179195576755L222.0055684896658,94.58813220304411L222.13038798764174,96.2778984194634L222.19279773662973,98.16989005062098L222.50484648156967,98.99434366960007L222.56725623055766,102.06921125363183L222.75448547752163,99.3318598325629L222.87930497549758,101.10823358942699L222.94171472448556,100.5318718760886L223.06653422246154,96.39794264183016L223.37858296740148,98.99173427329909L224.00268045728134,99.61197612055311L224.37713895120925,98.26919308391574L224.50195844918522,100.72276444551059L224.5643681981732,98.50382037576466L224.81400719412514,89.18745608984766L224.87641694311313,93.07268843106552L225.12605593906508,94.84561136769916L225.25087543704106,92.64929536474948L225.62533393096896,90.91515833674002L225.68774367995695,94.23280126721762L225.87497292692092,93.4670410986742L226.12461192287284,98.19967208674872L226.87352891072868,98.17621755190653L227.18557765566862,87.79746393707218L227.2479874046566,94.04588615324892L227.3728069026326,101.57343045855691L227.93449464352446,88.28086276823545L227.99690439251245,90.54432507388046L228.37136288644035,97.00356874381157L228.43377263542834,70.23014413208105L229.30750912126013,60.81442201990511L229.55714811721205,73.51587317160582L229.68196761518803,81.05688695627674L229.806787113164,89.6783733443975L229.99401636012797,88.17863986640587L230.1812456070919,93.23110680016485L230.74293334798378,91.39704309034167L231.1173918419117,94.79829254240721L231.2422113398877,98.12374376228739L231.92871857875554,101.895896825913L231.99112832774352,102.90348313825012L232.36558682167143,97.14692939122334L232.80245506458732,97.98184579697445L234.300289040299,99.4411701968105L234.36269878928698,102.83201694244572L234.48751828726296,102.51491597141099L234.67474753422692,102.08617791277885L234.79956703220287,102.65737631516039L236.11017176095058,105.14980383573733L236.29740100791454,106.14944911593773L236.5470400038665,104.638253604253L236.6094497528545,102.10121426549846L236.67185950184248,104.30250898420678L236.79667899981843,107.04798820580314L237.04631799577038,106.7234891042893L237.23354724273435,103.35352838004434L237.35836674071032,102.8419069871489L237.48318623868627,103.26335143523478L237.9200544816022,102.74508477032504L238.16969347755412,104.25721478445567L238.35692272451809,105.29768984008213L238.66897146945803,95.65289436403103L239.1682494613619,99.86760030405809L239.41788845731384,101.44951193033783L239.5427079552898,101.12577545308227L239.6675274532658,103.0674035264186L239.72993720225378,101.69680985849202L240.10439569618168,101.68048773757138L240.35403469213364,88.97732373561955L240.47885419010962,95.86276303297144L240.6036736880856,99.7565455087723L240.79090293504953,100.4875943069917L241.35259067594143,95.91322250684858L241.47741017391738,98.09703504324227L241.53981992290537,99.39452366439438L241.78945891885732,89.14273948332227L242.10150766379724,93.80766636861156L242.2263271617732,94.917163284951L242.85042465165307,96.66989097672965L242.97524414962905,96.79359691331244L243.10006364760503,84.2950264957184L243.91139038444885,75.5199986983236L244.16102938040078,78.80627889232439L244.28584887837675,88.83764485156455L244.9099463682566,94.48892545899865L245.22199511319656,101.03859665943476L245.65886335611245,103.68463971528622L245.8460926030764,100.63725973664431L245.9709121010524,96.14946530208603L247.2191070808121,-12.539743818078986L247.34392657878806,-43.639046967101166L247.46874607676403,4.024056087435676L247.655975323728,15.673635775947869L247.78079482170398,-82.8579773575475L248.15525331563188,-24.67324567805337L248.40489231158384,25.858486417220405L248.84176055449973,51.271532676836735L248.90417030348772,74.23895882596588L248.9665800524757,85.76437501034536L249.27862879741565,88.05720374490646L249.34103854640364,86.2968304094126L249.59067754235556,77.92862852466318L250.2771847812234,-6123.998486589421L254.1465892184785,-69.21704005467235L254.70827695937038,0.6695144846382777L254.77068670835837,42.22839964446278L255.45719394722622,67.86774120039338L255.5820134452022,83.64979559754065L255.64442319419015,92.01364751969102L256.0812914371061,97.42411982683754L256.20611093508205,101.33429623570524L256.26852068407,103.06749967611287L256.330930433058,103.47461738219462L256.39334018204596,105.35530071596398L256.6429791779979,104.69820006764579L256.7677986759739,104.54009228339717L258.1408131537096,101.88904203146399L258.32804240067355,100.57196567860498L258.8897301415654,100.99019625563132L259.07695938852936,103.48215092974272L259.20177888650534,104.5582773642218L259.4514178824573,104.88206926230734L259.5138276314453,105.57079124177665L259.57623738043327,105.52569871934905L259.70105687840925,104.30458828424133L260.2003348703131,104.69270890355547L260.51238361525304,105.65377325057216L260.94925185816896,107.68740600185593L262.6967248298326,107.10805485402017L263.13359307274845,106.47952913957336L263.75769056262834,105.9619743610894L263.82010031161633,105.46614717808123L264.1321490565563,106.19754435755294L264.6314270484601,108.0957427626834L264.6938367974481,108.26017013119832L264.7562465464361,113.09813252882383L265.380344036316,109.29862124950883L265.442753785304,107.76852978283081L265.50516353429197,106.88273508640387L265.6299830322679,107.05234750361667L265.75480253024386,106.93984148091953L265.87962202821984,104.33135822407954L265.94203177720783,104.93939498367708L266.0044415261958,105.969594677681L266.1292610241718,106.0030145593728L267.25263650595554,106.69063450479135L267.5646852508955,106.8182678967646L267.8767339958354,102.67792022587521L268.0639632427994,104.55997209025149L268.2511924897633,105.23329232041353L268.56324123470324,105.81476866000925L269.2497484735711,104.86365270204966L269.81143621446296,102.22900427617051L269.9986654614269,102.8246303125308L270.0610752104149,103.90147488552535L270.6227629513068,100.76371438891049L270.9972214452347,96.08412032691034L271.9333676800545,99.69726220708911L271.9957774290425,101.7415788704152L272.1205969270185,103.63064041757002L272.3702359229704,105.18445913297843L272.61987491892233,105.55333104326377L272.8071041658863,105.76139256325652L273.18156265981423,103.76338934654004L273.3063821577902,104.95468741189207L273.86806989868205,105.65279515969327L274.117708894634,106.30226230190596L274.49216738856194,106.4633181370767L274.8042161335018,105.97929428096533L275.17867462742976,105.55794422072067L275.4283136233817,106.07207747411543L275.6779526193336,105.59550037954719" style="fill: none;" fill="none"></path></g></g></g></g><g opacity="0.2"><g><g><g><path stroke="rgb(238, 51, 119)" stroke-width="2px" d="M4.070725023618922,85.75653385529507L4.6948225134987815,-9.078705932306883L4.88205176046274,-75.75759670810146L5.256510254390655,93.62227263603339L6.25506623819843,104.88075798700876L6.379885736174402,106.41531357201688L6.504705234150373,106.78974714999326L6.567114983138359,105.0776411980655L6.691934481114331,105.22933515628463L7.066392975042247,106.00811946149146L7.253622222006204,106.05497798573874L7.815309962898077,105.36578728268157L8.189768456825995,111.82089766356455L8.25217820581398,105.16241510336006L8.314587954801967,104.88897893247452L8.376997703789952,105.336138254742L8.689046448729881,99.14794588585279L9.18832444063377,100.39211960044484L9.62519268354967,100.73429429220255L10.124470675453558,101.91154146706404L10.311699922417516,96.22590141911179L10.3741096714055,97.67701721859189L10.810977914321404,98.96086856319351L11.123026659261333,93.83615560333728L11.62230465116522,96.2443390840214L11.871943647117163,81.84463955211434L12.433631388009037,79.69569478625891L13.120138626876882,83.58966388220371L13.432187371816811,108.72191258966754L13.61941661878077,90.43235119114553L14.181104359672643,112.95320424648496L14.24351410866063,109.70257710881677L14.867611598540488,112.21673229565646L15.179660343480418,89.6234508079674L15.30447984145639,56.47057244732436L15.366889590444377,21.30198182918007L15.61652858639632,-89.45885535160096L16.98954306413201,-372.3474096550382L17.676050302999858,107.06264059144381L18.05050879692777,23.88110129693648L18.362557541867698,-5144.243147065962L18.549786788831657,-6143.430195845401L19.29870377668749,38.623890160246724L19.673162270615407,-4581.230178932003L19.985211015555336,-59.729667788065065L20.172440262519295,96.19274086685967L20.422079258471236,103.9929153371266L20.671718254423176,114.11243864222955L20.79653775239915,94.65898748352637L21.982322983170885,103.00083187715553L22.294371728110814,100.68238470835298L22.3567814770988,104.33376888272976L22.66883022203873,103.54313966977402L22.98087896697866,97.65989853756814L23.10569846495463,104.38046091228978L23.604976456858516,104.25043288609768L23.6673862058465,99.97071289798194L24.04184469977442,101.36863472602522L24.104254448762404,103.1943289754823L24.16666419775039,102.22390063619493L24.35389344471435,102.74206021235854L24.91558118560622,102.55805763574143L25.41485917751011,105.4945460571671L26.413415161317882,104.89937728248628L26.663054157269826,102.07260237314156L27.037512651197744,102.08319532733323L27.287151647149688,102.34713697650912L27.41197114512566,102.05795948973966L28.16088813298149,101.90833049809595L28.223297881969476,103.7342431366882L29.22185386577725,98.19413025672146L30.03318060262107,102.17601935886893L30.095590351609054,102.22690186510246L30.220409849585025,106.49289360946176L30.594868343512942,94.27737517358098L31.156556084404816,106.23420194860536L31.28137558238079,107.01123049165594L31.343785331368775,100.09245078611103L31.53101457833273,103.77254340155794L31.905473072260644,102.51043150611795L32.46716081315252,96.80685543958646L32.65439006011648,99.0628108816911L32.716799809104465,105.78000876636945L33.278487549996335,104.83858509895937L33.34089729898432,95.24145292979814L34.27704353380411,98.4551852772291L34.40186303178008,106.35120014381997L34.52668252975605,101.5171739342616L35.40041901558786,101.7837189549106L35.71246776052779,90.21394908233103L35.83728725850376,110.2671962706589L36.024516505467716,104.33286937896496L36.523794497371604,105.09511232888171L36.89825299129952,104.87180619473413L37.02307248927549,103.70124475458597L37.21030173623945,99.08012849143208L37.58476023016737,103.15085223942768L37.8968089751073,102.846471841672L38.52090646498715,105.09785841008673L38.64572596296312,116.87417953749308L38.89536495891507,105.65763517125275L39.269823452842985,101.46093765081261L39.519462448794926,112.58342603294513L39.581872197782914,105.76841035724837L39.89392094272284,105.04381899160177L40.018740440698814,102.9955321566567L40.0811501896868,90.63107881737383L40.20596968766277,103.36529307204722L40.33078918563874,103.12303249077901L40.39319893462673,105.10812918624725L40.70524767956666,99.69728537617107L40.76765742855465,104.439086502614L41.32934516944652,103.13084260519832L41.70380366337444,101.26545991438839L41.82862316135041,101.3499419134131L42.140671906290336,97.12342238354017L42.452720651230266,110.99785388104621L42.57754014920624,108.50168120156214L43.32645713706207,102.47583304520334L43.76332537997798,103.9887313472591L43.82573512896596,104.81584235713699L43.95055462694192,102.33998851630139L44.01296437592991,96.76786757328115L44.0753741249179,92.60070664281L44.13778387390588,98.30095714013414L44.26260337188186,106.25502675812156L44.44983261884581,101.35099061371581L44.69947161479776,103.34113836878635L45.01152035973769,106.76453834075802L45.19874960670165,103.00602564648976L45.44838860265359,102.85155749757295L45.635617849617546,104.46898635371876L45.822847096581505,102.1388240132872L46.07248609253345,101.1621034721836L46.134895841521434,100.15726911389287L46.38453483747338,97.06653741949158L46.69658358241331,106.2293238704963L46.7589933314013,103.60760554776341L47.1958615743172,96.2514032157512L47.38309082128116,101.52115899541188L47.6327298172331,104.14017880685039L47.81995906419706,95.5910809616454L48.069598060149005,102.57164316976595L48.319237056100945,101.49366142479435L48.56887605205289,98.13814695870634L48.75610529901685,100.40715385447517L48.81851504800483,102.49189653911839L48.88092479699282,103.59834455106962L49.31779303990872,105.93368552495471L49.69225153383663,99.59895188407597L49.8170710318126,101.29414240823453L49.87948078080059,105.07595895304384L50.12911977675253,94.17135265411184L50.37875877270448,99.52824569871832L50.56598801966844,103.71431350639948L50.62839776865642,101.67314269763219L50.69080751764441,99.13474739791937L50.94044651359635,102.81205284905661L51.502134254488226,102.60594323760475L51.751773250440166,106.14271419910484L51.814182999428155,101.71841627894773L51.876592748416144,102.04323660239714L52.001412246392114,100.22927698498705L52.0638219953801,101.41876260049453L52.43828048930801,99.45766708721193L52.68791948525996,105.99199758632246L52.75032923424794,100.6464802371645L52.87514873222392,101.90790669343754L52.99996823019989,102.94706706679108L53.18719747716385,101.71264085934251L53.24960722615183,102.22209514185934L53.31201697513982,103.25298699983648L53.37442672412781,95.12226651869422L53.56165597109177,103.53793941363381L53.81129496704371,104.82444169961919L54.12334371198364,114.03644787225373L54.185753460971625,101.2513900321828L54.24816320995961,102.5078129987642L54.622621703887525,94.02861048816735L54.997080197815436,100.90783148847926L55.246719193767376,102.53292342477515L55.433948440731335,102.50562262060616L55.68358743668328,99.9957043992163L55.93322643263522,102.03999536166775L56.05804593061119,98.42804880547868L56.37009467555113,100.4780546440127L57.867928651262794,104.32953083614565L57.992748149238764,105.83496931130587L58.055157898226746,101.65089511533415L58.30479689417869,103.06042183930452L58.429616392154664,100.54043393274002L58.67925538810661,104.2083573001382L58.80407488608258,102.80660825655723L59.30335287798647,101.43242165165368L59.67781137191439,105.1664953043316L59.92745036786633,101.0386076596296L60.364318610782234,101.45949974215014L60.426728359770216,101.97651115365244L60.4891381087582,105.6806287362403L60.55154785774618,104.56837287065389L60.863596602686115,102.65376829594544L60.988416100662086,98.44197597795234L61.175645347626045,103.59411082902282L61.238055096614026,102.02744771660261L61.36287459459,99.08365947616262L61.86215258649389,102.44003668744811L61.92456233548187,104.0736025546436L62.11179158244583,103.76489978182585L62.54865982536173,96.90875018817341L62.73588907232569,99.39358176850764L63.29757681321757,99.70644258396891L63.42239631119354,103.9156120700709L63.54721580916951,96.77991357201593L63.73444505613347,104.07396365351072L63.796854805121455,101.33658125532978L64.0464938010734,101.99353037031759L64.35854254601333,103.19034175206335L64.42095229500131,102.06226024211509L64.67059129095325,102.41842481213773L64.73300103994124,114.54162086281312L64.79541078892923,103.87080553878708L64.85782053791722,101.94822003043474L65.10745953386916,98.85638125447679L65.16986928285715,103.33959234669061L65.3570985298211,95.26214151638843L65.41950827880909,105.6674107878889L65.91878627071299,101.61206293237277L66.16842526666491,97.21998930213566L66.29324476464089,101.9128539641439L66.41806426261687,104.68064218429731L66.48047401160484,99.78011323966678L66.97975200350874,104.18506750434351L67.04216175249672,104.90220120536327L67.22939099946068,102.65040813043946L67.72866899136457,101.45480113234028L67.85348848934053,101.61365436211047L68.10312748529248,100.08527854094798L68.16553723428046,100.4150072142678L68.4775859792204,104.9089864044352L68.9144542221363,105.6155466116813L69.60096146100415,102.76744308422134L69.72578095898012,100.83483546060499L70.10023945290803,101.0301034569687L70.16264920189602,99.43918401466034L70.28746869987198,96.88438574485203L70.41228819784796,103.673950437223L70.6619271937999,98.19586872072843L70.91156618975184,101.1906973130145L71.03638568772782,100.70877519741383L71.34843443266774,103.95167654914064L71.41084418165573,99.85466393871145L71.47325393064372,91.82838103410663L71.9725319225476,100.07612998222481L72.34699041647552,105.44111207390846L72.59662941242746,100.26802916400786L72.65903916141545,99.85459690838283L72.72144891040344,106.66938878927269L73.28313665129531,96.79027732572906L73.59518539623524,104.73356370988229L73.96964389016316,95.15305289995177L74.46892188206705,101.38467443498497L74.59374138004301,97.89846163941857L75.84193635980274,98.96278217096238L75.90434610879072,99.23941201266666L76.15398510474267,100.40983074308292L76.21639485373066,105.89517119548711L76.27880460271864,104.00436238744108L77.40218008450239,103.01460769082261L77.71422882944232,106.28033395058108L78.15109707235823,102.40109639105346L78.21350682134621,101.0175514873662L78.58796531527412,103.28885687472635L78.7127848132501,104.32920433357715L79.02483355819002,100.16589007906171L79.149653056166,112.96057650149953L79.27447255414197,103.13321028938692L79.52411155009392,102.93157008726637L80.64748703187765,99.86492174125998L80.77230652985362,118.88879984931829L80.89712602782959,104.27027170110246L81.39640401973348,101.32399252715997L81.58363326669743,104.89276506490758L81.95809176062535,100.72126229895635L82.08291125860133,101.09819329724124L82.20773075657729,102.51612259724523L82.27014050556528,100.50547221068962L82.45736975252925,101.41952155679608L82.58218925050521,104.83030793450833L82.76941849746918,100.13727677781286L83.26869648937306,102.81128740594909L83.70556473228896,104.59565421440489L84.08002322621688,101.63211148743808L84.32966222216882,100.64480880348616L84.39207197115681,102.18905567665247L84.4544817201448,101.69051868862708L84.51689146913279,101.35630330782662L84.89134996306069,104.5341657803677L85.51544745294055,101.65390499331635L85.64026695091653,103.27523890667183L85.82749619788049,99.1907869149198L85.88990594686847,100.23795416914119L86.07713519383243,106.01254994998682L86.45159368776035,102.82143925733298L86.57641318573631,101.51489057855096L86.76364243270028,106.2698231625987L86.95087167966423,104.6082299689627L87.1381009266282,94.05382902761156L87.20051067561617,97.89447657826831L88.32388615739993,99.97994362291442L89.01039339626777,98.56537448841642L89.26003239221971,114.77590267270612L90.13376887805153,105.63671089737795L90.1961786270395,102.98002652805732L90.38340787400347,106.01062336860598L90.44581762299146,100.14628046453544L90.57063712096742,105.45256993556626L90.63304686995541,95.72414048850635L91.88124184971511,103.18265056242063L91.9436515987031,100.37039528716386L92.00606134769109,103.5538191147123L92.31811009263102,100.18765115091L92.50533933959497,101.33583527264021L92.75497833554692,101.25792873262688L92.87979783352289,100.1124777184897L93.12943682947484,99.42594660589093L93.37907582542678,95.23312603316782L93.62871482137872,98.11392738738552L94.6272708051865,93.58680710538398L95.18895854607837,102.804147594816L95.25136829506636,101.71358577074928L95.9378755339342,100.5553016920831L96.4371535258381,103.23553532943829L96.49956327482607,104.69284819091332L96.68679252179004,106.93902477297885L96.811612019766,104.18313443615665L96.87402176875399,98.21853145861017L97.37329976065789,102.07761018737055L97.43570950964587,104.9113021941758L97.87257775256177,103.66855341463422L97.99739725053774,101.14205707938696L98.49667524244163,117.65317142049179L98.80872398738155,98.36813234076125L98.87113373636954,97.21995038129968L99.05836298333351,101.33451196421701L99.4952312262494,98.94198547093885L100.24414821410524,106.42421130757491L100.55619695904517,102.10147514663026L100.61860670803316,107.69151156667742L100.74342620600913,101.39563281258107L100.80583595499711,102.58519410749184L101.18029444892503,103.66066545854297L101.61716269184093,101.81388908959852L101.67957244082892,99.15147254604601L102.24126018172078,102.03291176952001L102.49089917767272,106.21919796633637L102.6157186756487,101.70233332461467L102.86535767160063,96.99767348703682L103.4270454124925,103.60705849379107L103.86391365540841,99.6342660559188L103.9263234043964,95.19274999037933L104.23837214933633,101.57547734655468L104.73765014124022,96.67490948108816L104.86246963921619,98.8272511710169L105.2993378821321,99.71035629025322L105.36174763112008,101.60864006107548L105.61138662707202,101.93551886429434L105.92343537201195,105.12513326703173L106.1106646189759,102.06942383820345L106.23548411695188,98.09766280248458L106.42271336391585,106.14097789736655L106.6099426108798,108.37364462481084L106.85958160683174,102.17733618048615L107.35885959873563,101.14338903688484L107.85813759063952,102.54547755664629L107.98295708861549,97.44740807128476L108.10777658659146,103.94492594636736L108.29500583355542,104.95477460569312L108.35741558254341,102.44275682142916L108.73187407647133,104.54094665490233L108.7942838254593,97.34887565047246L109.2935618173632,104.25461038915917L109.48079106432715,92.88870353088814L109.54320081331514,101.45910188471571L109.60561056230313,97.84843971611387L109.66802031129112,99.78218036851088L109.79283980926708,102.38686650096665L109.98006905623105,98.28210431964077L110.41693729914695,99.33802227515093L110.47934704813493,103.22091839326036L110.91621529105083,100.44599468651124L110.97862504003882,103.12171999369912L111.04103478902681,100.23010945842323L111.60272252991868,102.39057911626507L111.85236152587062,95.6608833187009L111.9771810238466,101.896556945213L112.03959077283459,103.71664443202076L112.16441027081055,105.24198226570839L112.47645901575048,101.73301591697631L112.53886876473847,93.16204239968374L112.66368826271444,100.16903185543246L112.72609801170243,107.55488213424995L112.78850776069041,102.7544327136618L113.10055650563032,100.20025501496043L113.97429299146214,95.84973153939713L114.535980732354,100.92915145751982L114.91043922628192,106.17756348318464L115.34730746919783,102.07133312143499L115.4097172181858,102.29191263479552L115.97140495907769,101.87834199397592L116.40827320199358,106.06513632392864L116.96996094288546,103.97307652212181L117.15719018984942,102.70287774187335L117.59405843276532,101.81183060982909L117.71887793074129,105.377887338133L117.96851692669324,100.24738814732822L118.5926144165731,103.65370944024644L118.65502416556109,103.26332264405697L118.84225341252504,101.38813406484957L119.15430215746497,104.8819364234314L119.40394115341691,98.58857995573318L120.21526789026073,101.84726154417986L120.34008738823671,87.74967419019849L120.40249713722469,105.88276842242256L120.7769556311526,97.63969646142758L120.83936538014059,102.36176256176167L120.90177512912858,101.40814153681025L121.02659462710456,104.66925783977412L121.15141412508052,101.57732824853223L121.90033111293636,103.22889716463558L123.02370659472011,102.31038705827247L123.39816508864801,103.3507950606459L123.77262358257593,102.97222290044401L123.8350333315639,95.90027240718152L124.20949182549182,102.40591176337122L124.45913082144376,104.29157220972503L124.58395031941974,101.68265235522247L124.7087698173957,102.2364590926034L125.08322831132362,103.4640395574574L125.27045755828759,99.92962330653388L125.39527705626355,103.38356856680694L125.58250630322752,103.97891464751831L125.76973555019147,100.66803805575823L125.95696479715544,107.27422398602205L126.5186525380473,97.47088814672205L126.64347203602328,94.89677865546328L127.3923890238791,99.13629990682111L127.4547987728671,97.67564201572071L127.51720852185508,85.83479068283219L128.3909450076869,99.31991976188446L128.64058400363882,106.73934466740344L128.89022299959078,93.40535816806067L129.13986199554273,103.63040450857108L129.2022717445307,96.35250441173797L129.38950099149466,99.05693167318998L129.51432048947063,99.28728896545533L129.6391399874466,92.64031940475961L130.1384179793505,91.12807843237813L130.26323747732647,100.05185635418735L130.45046672429044,85.3135628474324L130.63769597125437,96.7574303024334L130.82492521821834,101.94856166888387L130.94974471619432,97.86281880273859L131.13697396315828,104.36424173503084L131.32420321012222,102.80925487340362L132.32275919393,106.58936538823596L132.7596274368459,90.74043339285632L133.07167618178585,98.86560765487191L133.13408593077384,107.22605080242626L133.1964956797618,98.24713827305305L133.32131517773777,88.17401509124029L133.38372492672576,106.90048017174995L133.50854442470174,56.75440913049033L133.63336392267772,98.25345209755594L133.88300291862964,100.07988584289654L134.1326419145816,101.95458791165424L134.44469065952154,87.29241491099506L134.5695101574975,89.6660496629439L135.00637840041338,86.19678905371401L135.13119789838936,111.06038128517712L135.19360764737735,97.76519885930308L135.38083689434131,101.01368535099253L135.50565639231726,95.94561518109437L135.75529538826922,53.809650031419615L135.94252463523318,103.40389821679875L136.06734413320916,75.69897900787298L136.1921636311851,108.02485230980275L136.2545733801731,84.88806729492327L136.87867087005296,105.31315117656042L136.94108061904095,69.84108182669394L137.1907196149929,80.64598159292834L137.37794886195687,103.89004972990888L137.5651781089208,103.6670938832851L137.6275878579088,78.73171649440035L137.81481710487276,80.37241136138556L137.87722685386075,97.83739052323382L138.00204635183673,69.91534710627478L138.31409509677664,79.93403733670547L138.37650484576463,91.97065831228807L138.81337308868052,107.30938139338666L138.8757828376685,83.87558066782577L139.12542183362046,100.6329292994386L139.25024133159644,101.24120142223157L139.37506082957242,80.58563267447782L139.62469982552435,93.14880715318301L140.24879731540423,83.91619672243613L140.37361681338018,99.02970006161829L140.49843631135613,106.21740977015011L140.56084606034412,102.76686792075637L140.81048505629607,104.0077139038724L140.99771430326004,88.43232835508023L141.49699229516392,106.25743552541478L141.74663129111588,92.69778169454185L141.9338605380798,69.42712413978325L142.62036777694766,95.51598969543438L142.87000677289961,100.80039916984029L142.9948262708756,98.69817454303754L143.18205551783953,87.56079569774096L143.3068750158155,97.28213939038443L143.3692847648035,98.39885385395884L143.49410426277947,97.89849407344856L143.61892376075545,103.43565545668707L143.68133350974344,87.95198037106798L143.8061530077194,91.00135435270668L143.93097250569537,103.78021296851402L143.99338225468335,97.59283145037432L144.2430212506353,94.44187624910512L144.43025049759925,87.91835276878412L144.6174797445632,101.91349615793752L144.92952848950316,90.36837831041184L145.678445477359,86.64714204680025L145.92808447331092,80.42074239059394L146.11531372027488,100.61091740442512L146.73941121015474,112.86221165650879L147.11386970408265,97.49095832447402L147.17627945307063,100.149798475654L147.3010989510466,84.43823757085407L147.48832819801058,107.50111299934815L147.67555744497454,93.99415906152196L147.7379671939625,106.25090114950802L147.8003769429505,99.2534581099169L148.42447443283035,89.49187675967956L148.48688418181834,78.01537850824944L148.54929393080633,102.44049076386786L148.6741134287823,112.97876009984098L149.42303041663814,114.0070183145837L149.48544016562613,95.12792085125417L149.54784991461412,86.00487041151297L149.6102596636021,102.8923984281245L150.109537655506,99.38085249287461L150.67122539639786,97.70195033857229L151.7321911291936,87.77084712496979L152.60592761502542,103.31909620201155L152.7931568619894,97.3821356670832L152.85556661097738,12.48401668677947L152.91797635996537,88.24051782631246L153.04279585794134,74.44187925119934L153.54207384984522,96.82101829934464L153.6668933478212,91.65423840260361L153.79171284579715,83.09939108501739L153.91653234377313,97.6683119249451L154.54062983365299,107.22045809452325L155.0399078255569,89.70915448878806L155.10231757454486,95.57860250917753L155.7888248134127,65.4699908515856L156.2881028053166,99.50239361455515L156.66256129924452,104.70019125530094L156.7249710482325,98.80333431730921L156.84979054620848,103.75278026595643L156.97461004418446,110.58236963245778L157.28665878912437,40.44715834426123L158.4724440198961,90.7385284341621L158.59726351787208,109.32459416682619L158.84690251382403,103.53508089445818L158.90931226281202,95.48442705972595L159.53340975269188,105.3475658446385L159.65822925066786,38.816366667763425L159.8454584976318,102.24413947090281L159.90786824661978,89.01909887826476L159.97027799560777,92.11048790234031L160.59437548548763,72.0463147704463L160.65678523447562,92.58291765849998L160.8440144814396,94.47344320935088L160.96883397941556,88.69228710537452L161.2184729753675,102.3853010184529L161.34329247334347,89.50474442050718L161.53052172030743,101.97750363496986L161.6553412182834,97.87027214282814L161.78016071625936,89.66380306580055L161.90498021423534,76.38225590613037L162.46666795512718,100.58525992444183L162.71630695107913,98.55453503559691L162.9659459470311,106.18103824892991L163.09076544500704,94.84690592869649L163.277994691971,92.86580726799053L163.46522393893497,98.98927212438184L163.83968243286287,64.07820770428329L163.90209218185086,101.43612345560881L164.15173117780282,72.17739582147846L164.33896042476675,71.61998025769502L164.52618967173072,75.45952937586975L164.6510091697067,102.20504781570155L165.21269691059857,10.275267894177187L165.39992615756253,84.89414326987298L165.46233590655052,89.5127858976737L165.5247456555385,86.46868568930981L165.5871554045265,87.3313011506731L165.77438465149044,52.28294131939813L166.0240236474424,101.12832667336185L166.3984821413703,85.60292628930706L166.46089189035828,100.55111986448426L166.64812113732225,93.07684901426812L167.14739912922613,64.35293258729338L167.45944787416607,97.11664799581156L167.64667712113004,100.86630728102946L167.83390636809398,82.0084270789789L167.89631611708197,105.05043769598646L168.02113561505794,106.34484956074978L168.2083648620219,113.00690743219245L168.2707746110099,85.50568041835065L168.39559410898585,66.46851787217948L168.77005260291378,107.24521931414478L168.95728184987775,96.1826106381624L169.14451109684168,69.25982076406878L169.20692084582967,104.92266059147501L169.45655984178163,118.03113273979572L170.64234507255335,92.47676540291091L170.8919840685053,69.10184973991407L171.01680356648126,102.1119686364633L171.3288523114212,97.46701984807967L171.64090105636114,102.0741981274166L172.20258879725301,88.63752116461798L172.45222779320494,108.75719757088339L172.7018667891569,88.60638882037397L172.88909603612086,100.07234817432905L173.82524227094063,75.79307661565262L174.51174950980848,104.81121942673043L174.57415925879647,100.90683252035585L174.76138850576044,102.26373178727972L175.13584699968834,89.99011535462908L175.57271524260426,107.7945706969407L175.63512499159225,79.82086851929726L175.6975347405802,105.82501422637047L175.7599444895682,84.93850437381174L175.8223542385562,103.5882251337157L175.88476398754418,37.10276010138188L176.38404197944806,86.27997585380818L177.81946620617174,101.04193539110561L177.88187595515973,91.77996135188296L177.94428570414772,81.83523368341996L178.3811539470636,85.52795178560399L179.06766118593146,95.79988259758566L179.19248068390743,62.76373863538L179.94139767176327,85.79425679443113L180.00380742075126,111.89455858905343L180.19103666771522,25.225824829005642L180.31585616569117,107.73486072888079L180.37826591467916,99.96044212182142L180.50308541265514,99.35432578088782L181.68887064342687,38.05235930661573L182.0009193883668,91.61190766894163L182.18814863533078,87.56446722993476L182.3753778822947,76.31994797226902L182.9370656231866,87.2759340992276L182.99947537217457,82.49953451187005L183.3739338661025,102.72008723818104L183.49875336407848,105.0313535127459L183.56116311306647,95.15010789002953L183.93562160699437,74.48358076467969L184.12285085395834,103.49718281156021L184.18526060294633,93.62323052105216L184.49730934788622,52.26231327633049L184.6221288458622,94.30617442993507L184.74694834383817,80.83661584754216L184.9341775908021,98.51221078874093L184.9965873397901,78.55118868352848L185.495865331694,95.64984926170153L185.80791407663392,66.19704504124208L185.9327335746099,111.77098061029012L185.9951433235979,105.51703581355565L186.05755307258588,91.0557591945961L186.74406031145372,84.76033343578513L187.36815780133358,101.53971990963542L187.86743579323746,49.030110829959945L188.9284015260332,101.7952265487477L189.24045027097316,74.12786162200211L189.36526976894913,95.94318046657715L189.42767951793712,81.82258008719022L189.61490876490106,96.81122322229052L190.23900625478092,101.98475804634218L190.61346474870885,82.26694359607338L190.8631037446608,98.3254815913368L191.17515248960072,90.96877545072554L191.2999719875767,103.70050742097108L191.42479148555267,94.87446188056799L191.54961098352862,99.76746829251168L191.6744304815046,93.42226278448655L191.92406947745656,89.08409667434582L191.98647922644454,96.45482728952068L192.1737084734085,87.664221332543L192.29852797138446,108.01724652977232L192.5481669673364,106.88434964750626L192.6729864653124,92.57579730778492L192.86021571227636,88.741547910109L192.92262546126432,101.30954857247531L193.0474449592403,82.67125756473651L193.35949370418024,99.9295411403246L193.48431320215622,89.96609903656284L193.5467229511442,95.89386560512604L193.60913270013216,91.94287315993805L194.10841069203607,112.94669149326485L194.8573276798919,100.286146813155L195.04455692685585,53.464897915412784L195.16937642483182,90.87094792949813L195.2941959228078,95.17827360166467L195.41901542078378,112.50847855760034L195.54383491875973,63.29672056324475L196.10552265965163,90.87387564127107L196.35516165560355,117.32146535247749L196.47998115357953,97.28274915014806L197.16648839244738,95.14415732666242L197.41612738839933,74.28987176402373L198.0402248782792,93.31297523933269L198.60191261917106,100.40881663907884L198.91396136411097,96.993491659438L199.3508296070269,74.10561187743542L199.53805885399083,26.023624124855747L199.60046860297882,78.35229023807561L199.97492709690675,99.53061554517556L200.03733684589474,107.93045847121597L200.16215634387072,102.38148893879587L200.34938559083466,98.83498993057026L200.6614343357746,92.58386905671274L200.84866358273857,96.31755350103089L200.91107333172653,103.21190389519444L201.0358928297025,88.39478272197472L202.0344488135103,102.85789726929981L202.4713170564262,100.91858661282083L202.65854630339015,76.50915945410101L202.72095605237814,103.68310115821484L203.15782429529403,97.54704108684774L203.22023404428202,84.6661233900349L203.28264379327,103.60718174310499L203.65710228719792,92.44100147918564L203.84433153416188,99.45196734701001L205.34216550987355,101.4956247647425L205.52939475683752,100.1183353043042L205.65421425481347,80.01346611385922L205.9662629997534,101.02148032953119L206.15349224671738,98.70423754437525L206.21590199570534,101.5409264555507L206.34072149368131,84.65449470915253L206.4031312426693,76.7499107718408L206.83999948558517,104.48102586564754L206.96481898356114,93.34562117164245L207.08963848153712,102.00627045729397L207.651326222429,106.24950648621889L207.96337496736894,85.6885694266051L208.5250627082608,97.41867368299066L208.64988220623678,60.87363905145619L208.77470170421276,86.07156775076501L209.0243407001647,81.806782552321L209.21156994712865,101.69122142594335L210.02289668397248,109.2075948904773L210.08530643296046,103.92756076671574L210.14771618194843,79.19412197302735L210.52217467587636,105.40750825657992L211.02145266778024,107.75949978032271L211.39591116170817,107.0385237278846L211.45832091069616,102.07244236526032L211.52073065968412,97.48145947822704L211.77036965563607,98.61926903490081L212.08241840057602,99.66457457580132L212.5192866434919,90.8399236986874L213.0185646353958,93.99119026664441L213.26820363134775,96.83570875265717L213.51784262729967,97.44544905587394L213.64266212527565,97.69925398954658L214.01712061920358,79.87108072224451L214.20434986616752,93.12164905874596L214.3291693641435,97.12937078463861L214.45398886211947,74.07068258941501L214.57880836009545,60.215016340521395L214.76603760705942,-88.39173251986684L214.89085710503537,100.63823118220608L215.07808635199933,95.88454622717828L215.82700333985517,94.47492003884932L216.13905208479508,90.08173500251823L216.20146183378307,105.89072989564846L216.45110082973503,103.08366838972591L216.88796907265092,104.91866688125008L217.57447631151877,107.03412783568788L217.76170555848273,101.59382203391169L217.82411530747072,103.75911355087732L218.0113445544347,99.82509923924984L218.3233932993746,103.41152237611287L218.69785179330253,102.91377677841902L218.76026154229052,102.52545927334228L219.00990053824245,99.55866881884009L219.13472003621843,104.01017024107627L219.50917853014633,104.40483832922318L219.57158827913432,100.40091570937558L219.94604677306225,97.68593225229922L220.38291501597814,100.9518509539689L220.75737350990607,102.86633227936343L220.94460275687,100.59812326073211L221.31906125079794,98.55212194376637L222.0055684896658,86.31764257395895L222.13038798764174,98.81254774409237L222.19279773662973,101.00787749735733L222.50484648156967,100.23102409806867L222.56725623055766,106.68151262967945L222.75448547752163,95.22583270095951L222.87930497549758,103.77279422472313L222.94171472448556,99.66732930608102L223.06653422246154,90.1970487904425L223.37858296740148,102.88242172050245L224.00268045728134,100.54233889143421L224.37713895120925,96.25501852895968L224.50195844918522,104.40312148790287L224.5643681981732,95.17540427114572L224.81400719412514,75.21290966097214L224.87641694311313,98.90053694289232L225.12605593906508,97.5049957726496L225.25087543704106,89.35482136032498L225.62533393096896,88.31395279472582L225.68774367995695,99.20926566293407L225.87497292692092,92.3184008458591L226.12461192287284,105.29861856886048L226.87352891072868,98.14103574964327L227.18557765566862,72.22933351482068L227.2479874046566,103.418519477514L227.3728069026326,112.86474691651894L227.93449464352446,68.34201123275324L227.99690439251245,93.93951853234803L228.37136288644035,106.69243424870824L228.43377263542834,30.070007214485262L229.30750912126013,46.690838851641196L229.55714811721205,92.56804989915689L229.68196761518803,92.36840763328314L229.806787113164,102.61060292657862L229.99401636012797,85.92903964941841L230.1812456070919,100.80980720080332L230.74293334798378,88.64594752560694L231.1173918419117,99.90016672050552L231.2422113398877,103.11192059210767L231.92871857875554,107.55412642135138L231.99112832774352,104.41486260675585L232.36558682167143,88.51209877068311L232.80245506458732,99.23422040560112L234.300289040299,101.63015679656458L234.36269878928698,107.91828706089859L234.48751828726296,102.03926451485886L234.67474753422692,101.44307082483066L234.79956703220287,103.51417391873272L236.11017176095058,108.8884451166028L236.29740100791454,107.64891703623827L236.5470400038665,102.37146033672587L236.6094497528545,98.29565525736666L236.67185950184248,107.60445106226923L236.79667899981843,111.16620703819771L237.04631799577038,106.23674045201854L237.23354724273435,98.2985872936769L237.35836674071032,102.07447489780577L237.48318623868627,103.89551810736361L237.9200544816022,101.9676847729604L238.16969347755412,106.52540980565162L238.35692272451809,106.85840242352181L238.66897146945803,81.18570114995438L239.1682494613619,106.18965921409873L239.41788845731384,103.82237936975743L239.5427079552898,100.64017073719893L239.6675274532658,105.97984563642308L239.72993720225378,99.64091935660215L240.10439569618168,101.65600455619044L240.35403469213364,69.92257773269179L240.47885419010962,106.19092197899931L240.6036736880856,105.5972192224736L240.79090293504953,101.5841675043208L241.35259067594143,89.05166480663391L241.47741017391738,101.37275384783277L241.53981992290537,101.3407565961226L241.78945891885732,73.7650632117141L242.10150766379724,100.8050566965455L242.2263271617732,96.58140865946017L242.85042465165307,99.29898251439765L242.97524414962905,96.9791558181866L243.10006364760503,65.54717086932736L243.91139038444885,62.35745700223138L244.16102938040078,83.73569918332556L244.28584887837675,103.88469379042476L244.9099463682566,102.96584637014983L245.22199511319656,110.86310346008895L245.65886335611245,107.6537042990634L245.8460926030764,96.06618976868147L245.9709121010524,89.4177736502486L247.2191070808121,-175.57355749832658L247.34392657878806,-36.79021141158741L247.46874607676403,75.51871066924096L247.655975323728,33.14800530871616L247.78079482170398,-230.65539705779062L248.15525331563188,62.60385184118779L248.40489231158384,101.65608456013106L248.84176055449973,89.39110206626125L248.90417030348772,108.69009804965958L248.9665800524757,103.0524992869146L249.27862879741565,91.49644684674813L249.34103854640364,83.6562704061718L249.59067754235556,65.37632569753903L250.2771847812234,-15426.889159260549L251.02610176907922,-262.61798327671397L251.21333101604318,109.80278528784474L251.33815051401913,-552503.8823644602L251.71260900794707,93.08410991244642L251.89983825491103,-472.78541189491733L252.14947725086296,111.15997970444145L252.3991162468149,91.42397625015953L252.5239357447909,106.31182523142354L252.71116499175483,106.12678260357839L252.8359844897308,94.91262808478047L253.08562348568276,94.77898690764852L253.21044298365874,107.23072454614646L253.39767223062267,98.60361420976352L253.70972097556262,106.52354593006207L253.95935997151454,106.23124180280249L254.02176972050253,107.4439782932687L254.1465892184785,104.72067010183068L254.70827695937038,105.49934629360425L254.77068670835837,104.56672738419954L255.45719394722622,106.32675353428928L255.5820134452022,107.32287719326158L255.64442319419015,104.55942540291659L256.0812914371061,105.53982828755731L256.20611093508205,107.19956084900679L256.26852068407,105.6673048367243L256.330930433058,104.08529394131726L256.39334018204596,108.17632571661802L256.6429791779979,103.71254909516854L256.7677986759739,104.30293060702424L258.1408131537096,97.9124666535642L258.32804240067355,98.59635114931653L258.8897301415654,101.61754212117081L259.07695938852936,107.22008294090983L259.20177888650534,106.17246701594037L259.4514178824573,105.36775710943573L259.5138276314453,106.60387421098059L259.57623738043327,105.45805993570761L259.70105687840925,102.47292263157975L260.2003348703131,105.27488983252668L260.51238361525304,107.09536977109721L260.94925185816896,110.73785512878162L262.6967248298326,106.23902813226648L263.13359307274845,105.53674056790315L263.75769056262834,105.18564219336346L263.82010031161633,104.72240640356895L264.1321490565563,107.2946401267605L264.6314270484601,110.94304037037907L264.6938367974481,108.50681118397073L264.7562465464361,120.35507612526204L265.380344036316,103.59935433053634L265.442753785304,105.47339258281377L265.50516353429197,105.55404304176345L265.6299830322679,107.3067661294359L265.75480253024386,106.77108244687378L265.87962202821984,100.41863333881963L265.94203177720783,105.8514501230733L266.0044415261958,107.51489421868688L266.1292610241718,106.0531443819105L267.25263650595554,107.72206442291913L267.5646852508955,107.0097179847245L267.8767339958354,96.46739871954114L268.0639632427994,107.38304988681588L268.2511924897633,106.2432726656566L268.56324123470324,106.68698316940281L269.2497484735711,103.43697876511028L269.81143621446296,98.27703163735183L269.9986654614269,103.71806936707122L270.0610752104149,105.51674174501713L270.6227629513068,96.05707364398826L270.9972214452347,89.0647292339101L271.9333676800545,105.11697502735728L271.9957774290425,104.80805386540433L272.1205969270185,106.46423273830226L272.3702359229704,107.51518720609106L272.61987491892233,106.10663890869179L272.8071041658863,106.07348484324565L273.18156265981423,100.76638452146533L273.3063821577902,106.74163450992008L273.86806989868205,106.69995678139504L274.117708894634,107.27646301522506L274.49216738856194,106.70490188983277L274.8042161335018,105.25325849679831L275.17867462742976,104.92591913035372L275.4283136233817,106.84327735420753L275.6779526193336,104.88063473769485" style="fill: none;" fill="none"></path></g></g></g></g></g></g><g transform="translate(50, 178)" clip-path="url(#clip_1)"><clipPath id="clip_1"><rect width="280" height="22"></rect></clipPath><g><g><line x1="3.7586762786789927" y1="0" x2="3.7586762786789927" y2="5" style="visibility: inherit;" fill="rgb(0, 0, 0)" stroke="rgb(204, 204, 204)" stroke-width="1px"></line><line x1="34.96355077267196" y1="0" x2="34.96355077267196" y2="5" style="visibility: inherit;" fill="rgb(0, 0, 0)" stroke="rgb(204, 204, 204)" stroke-width="1px"></line><line x1="66.16842526666491" y1="0" x2="66.16842526666491" y2="5" style="visibility: inherit;" fill="rgb(0, 0, 0)" stroke="rgb(204, 204, 204)" stroke-width="1px"></line><line x1="97.37329976065789" y1="0" x2="97.37329976065789" y2="5" style="visibility: inherit;" fill="rgb(0, 0, 0)" stroke="rgb(204, 204, 204)" stroke-width="1px"></line><line x1="128.57817425465083" y1="0" x2="128.57817425465083" y2="5" style="visibility: inherit;" fill="rgb(0, 0, 0)" stroke="rgb(204, 204, 204)" stroke-width="1px"></line><line x1="159.7830487486438" y1="0" x2="159.7830487486438" y2="5" style="visibility: inherit;" fill="rgb(0, 0, 0)" stroke="rgb(204, 204, 204)" stroke-width="1px"></line><line x1="190.98792324263675" y1="0" x2="190.98792324263675" y2="5" style="visibility: inherit;" fill="rgb(0, 0, 0)" stroke="rgb(204, 204, 204)" stroke-width="1px"></line><line x1="222.19279773662973" y1="0" x2="222.19279773662973" y2="5" style="visibility: inherit;" fill="rgb(0, 0, 0)" stroke="rgb(204, 204, 204)" stroke-width="1px"></line><line x1="253.39767223062267" y1="0" x2="253.39767223062267" y2="5" style="visibility: inherit;" fill="rgb(0, 0, 0)" stroke="rgb(204, 204, 204)" stroke-width="1px"></line></g><g transform="translate(0, 8)"><text x="3.7586762786789927" y="0" dx="0em" dy="0.95em" style="text-anchor: middle; visibility: inherit; font-family: Roboto, sans-serif; font-size: 12px; font-weight: 200;" fill="rgb(50, 49, 63)" stroke="none" stroke-width="1px">0</text><text x="34.96355077267196" y="0" dx="0em" dy="0.95em" style="text-anchor: middle; visibility: inherit; font-family: Roboto, sans-serif; font-size: 12px; font-weight: 200;" fill="rgb(50, 49, 63)" stroke="none" stroke-width="1px">500</text><text x="66.16842526666491" y="0" dx="0em" dy="0.95em" style="text-anchor: middle; visibility: inherit; font-family: Roboto, sans-serif; font-size: 12px; font-weight: 200;" fill="rgb(50, 49, 63)" stroke="none" stroke-width="1px">1k</text><text x="97.37329976065789" y="0" dx="0em" dy="0.95em" style="text-anchor: middle; visibility: inherit; font-family: Roboto, sans-serif; font-size: 12px; font-weight: 200;" fill="rgb(50, 49, 63)" stroke="none" stroke-width="1px">1.5k</text><text x="128.57817425465083" y="0" dx="0em" dy="0.95em" style="text-anchor: middle; visibility: inherit; font-family: Roboto, sans-serif; font-size: 12px; font-weight: 200;" fill="rgb(50, 49, 63)" stroke="none" stroke-width="1px">2k</text><text x="159.7830487486438" y="0" dx="0em" dy="0.95em" style="text-anchor: middle; visibility: inherit; font-family: Roboto, sans-serif; font-size: 12px; font-weight: 200;" fill="rgb(50, 49, 63)" stroke="none" stroke-width="1px">2.5k</text><text x="190.98792324263675" y="0" dx="0em" dy="0.95em" style="text-anchor: middle; visibility: inherit; font-family: Roboto, sans-serif; font-size: 12px; font-weight: 200;" fill="rgb(50, 49, 63)" stroke="none" stroke-width="1px">3k</text><text x="222.19279773662973" y="0" dx="0em" dy="0.95em" style="text-anchor: middle; visibility: inherit; font-family: Roboto, sans-serif; font-size: 12px; font-weight: 200;" fill="rgb(50, 49, 63)" stroke="none" stroke-width="1px">3.5k</text><text x="253.39767223062267" y="0" dx="0em" dy="0.95em" style="text-anchor: middle; visibility: inherit; font-family: Roboto, sans-serif; font-size: 12px; font-weight: 200;" fill="rgb(50, 49, 63)" stroke="none" stroke-width="1px">4k</text></g><line x1="0" y1="0" x2="280" y2="0" fill="rgb(0, 0, 0)" stroke="rgb(204, 204, 204)" stroke-width="1px"></line></g></g></g></g></svg>