<svg viewBox="0 0 330 200" xmlns="http://www.w3.org/2000/svg"><g><g><g><g><g><line x1="41.171875" y1="178" x2="36.171875" y2="178" style="visibility: inherit;" fill="rgb(0, 0, 0)" stroke="rgb(204, 204, 204)" stroke-width="1px"></line><line x1="41.171875" y1="164.30769230769232" x2="36.171875" y2="164.30769230769232" style="visibility: inherit;" fill="rgb(0, 0, 0)" stroke="rgb(204, 204, 204)" stroke-width="1px"></line><line x1="41.171875" y1="150.6153846153846" x2="36.171875" y2="150.6153846153846" style="visibility: inherit;" fill="rgb(0, 0, 0)" stroke="rgb(204, 204, 204)" stroke-width="1px"></line><line x1="41.171875" y1="136.9230769230769" x2="36.171875" y2="136.9230769230769" style="visibility: inherit;" fill="rgb(0, 0, 0)" stroke="rgb(204, 204, 204)" stroke-width="1px"></line><line x1="41.171875" y1="123.23076923076923" x2="36.171875" y2="123.23076923076923" style="visibility: inherit;" fill="rgb(0, 0, 0)" stroke="rgb(204, 204, 204)" stroke-width="1px"></line><line x1="41.171875" y1="109.53846153846155" x2="36.171875" y2="109.53846153846155" style="visibility: inherit;" fill="rgb(0, 0, 0)" stroke="rgb(204, 204, 204)" stroke-width="1px"></line><line x1="41.171875" y1="95.84615384615384" x2="36.171875" y2="95.84615384615384" style="visibility: inherit;" fill="rgb(0, 0, 0)" stroke="rgb(204, 204, 204)" stroke-width="1px"></line><line x1="41.171875" y1="82.15384615384616" x2="36.171875" y2="82.15384615384616" style="visibility: inherit;" fill="rgb(0, 0, 0)" stroke="rgb(204, 204, 204)" stroke-width="1px"></line><line x1="41.171875" y1="68.46153846153845" x2="36.171875" y2="68.46153846153845" style="visibility: inherit;" fill="rgb(0, 0, 0)" stroke="rgb(204, 204, 204)" stroke-width="1px"></line><line x1="41.171875" y1="54.769230769230774" x2="36.171875" y2="54.769230769230774" style="visibility: inherit;" fill="rgb(0, 0, 0)" stroke="rgb(204, 204, 204)" stroke-width="1px"></line><line x1="41.171875" y1="41.076923076923066" x2="36.171875" y2="41.076923076923066" style="visibility: inherit;" fill="rgb(0, 0, 0)" stroke="rgb(204, 204, 204)" stroke-width="1px"></line><line x1="41.171875" y1="27.384615384615387" x2="36.171875" y2="27.384615384615387" style="visibility: inherit;" fill="rgb(0, 0, 0)" stroke="rgb(204, 204, 204)" stroke-width="1px"></line><line x1="41.171875" y1="13.692307692307683" x2="36.171875" y2="13.692307692307683" style="visibility: inherit;" fill="rgb(0, 0, 0)" stroke="rgb(204, 204, 204)" stroke-width="1px"></line><line x1="41.171875" y1="0" x2="36.171875" y2="0" style="visibility: inherit;" fill="rgb(0, 0, 0)" stroke="rgb(204, 204, 204)" stroke-width="1px"></line></g><g transform="translate(31.171875, 0)"><text x="0" y="178" dx="0em" dy="0.3em" style="text-anchor: end; visibility: hidden; font-family: Roboto, sans-serif; font-size: 12px; font-weight: 200;" fill="rgb(50, 49, 63)" stroke="none" stroke-width="1px">-50</text><text x="0" y="164.30769230769232" dx="0em" dy="0.3em" style="text-anchor: end; visibility: inherit; font-family: Roboto, sans-serif; font-size: 12px; font-weight: 200;" fill="rgb(50, 49, 63)" stroke="none" stroke-width="1px">0</text><text x="0" y="150.6153846153846" dx="0em" dy="0.3em" style="text-anchor: end; visibility: hidden; font-family: Roboto, sans-serif; font-size: 12px; font-weight: 200;" fill="rgb(50, 49, 63)" stroke="none" stroke-width="1px">50</text><text x="0" y="136.9230769230769" dx="0em" dy="0.3em" style="text-anchor: end; visibility: inherit; font-family: Roboto, sans-serif; font-size: 12px; font-weight: 200;" fill="rgb(50, 49, 63)" stroke="none" stroke-width="1px">100</text><text x="0" y="123.23076923076923" dx="0em" dy="0.3em" style="text-anchor: end; visibility: hidden; font-family: Roboto, sans-serif; font-size: 12px; font-weight: 200;" fill="rgb(50, 49, 63)" stroke="none" stroke-width="1px">150</text><text x="0" y="109.53846153846155" dx="0em" dy="0.3em" style="text-anchor: end; visibility: inherit; font-family: Roboto, sans-serif; font-size: 12px; font-weight: 200;" fill="rgb(50, 49, 63)" stroke="none" stroke-width="1px">200</text><text x="0" y="95.84615384615384" dx="0em" dy="0.3em" style="text-anchor: end; visibility: hidden; font-family: Roboto, sans-serif; font-size: 12px; font-weight: 200;" fill="rgb(50, 49, 63)" stroke="none" stroke-width="1px">250</text><text x="0" y="82.15384615384616" dx="0em" dy="0.3em" style="text-anchor: end; visibility: inherit; font-family: Roboto, sans-serif; font-size: 12px; font-weight: 200;" fill="rgb(50, 49, 63)" stroke="none" stroke-width="1px">300</text><text x="0" y="68.46153846153845" dx="0em" dy="0.3em" style="text-anchor: end; visibility: hidden; font-family: Roboto, sans-serif; font-size: 12px; font-weight: 200;" fill="rgb(50, 49, 63)" stroke="none" stroke-width="1px">350</text><text x="0" y="54.769230769230774" dx="0em" dy="0.3em" style="text-anchor: end; visibility: inherit; font-family: Roboto, sans-serif; font-size: 12px; font-weight: 200;" fill="rgb(50, 49, 63)" stroke="none" stroke-width="1px">400</text><text x="0" y="41.076923076923066" dx="0em" dy="0.3em" style="text-anchor: end; visibility: hidden; font-family: Roboto, sans-serif; font-size: 12px; font-weight: 200;" fill="rgb(50, 49, 63)" stroke="none" stroke-width="1px">450</text><text x="0" y="27.384615384615387" dx="0em" dy="0.3em" style="text-anchor: end; visibility: inherit; font-family: Roboto, sans-serif; font-size: 12px; font-weight: 200;" fill="rgb(50, 49, 63)" stroke="none" stroke-width="1px">500</text><text x="0" y="13.692307692307683" dx="0em" dy="0.3em" style="text-anchor: end; visibility: hidden; font-family: Roboto, sans-serif; font-size: 12px; font-weight: 200;" fill="rgb(50, 49, 63)" stroke="none" stroke-width="1px">550</text><text x="0" y="0" dx="0em" dy="0.3em" style="text-anchor: end; visibility: hidden; font-family: Roboto, sans-serif; font-size: 12px; font-weight: 200;" fill="rgb(50, 49, 63)" stroke="none" stroke-width="1px">600</text></g><line x1="41.171875" y1="0" x2="41.171875" y2="178" fill="rgb(0, 0, 0)" stroke="rgb(204, 204, 204)" stroke-width="1px"></line></g></g><g transform="translate(41, 0)" clip-path="url(#clip_0)"><clipPath id="clip_0"><rect width="288" height="178"></rect></clipPath><g><g><g><line x1="0" y1="0" x2="0" y2="178" fill="rgb(0, 0, 0)" stroke="rgb(60, 60, 60)" stroke-width="1px" opacity="0.25"></line><line x1="28.8828125" y1="0" x2="28.8828125" y2="178" fill="rgb(0, 0, 0)" stroke="rgb(60, 60, 60)" stroke-width="1px" opacity="0.25"></line><line x1="57.765625" y1="0" x2="57.765625" y2="178" fill="rgb(0, 0, 0)" stroke="rgb(60, 60, 60)" stroke-width="1px" opacity="0.25"></line><line x1="86.6484375" y1="0" x2="86.6484375" y2="178" fill="rgb(0, 0, 0)" stroke="rgb(60, 60, 60)" stroke-width="1px" opacity="0.25"></line><line x1="115.53125" y1="0" x2="115.53125" y2="178" fill="rgb(0, 0, 0)" stroke="rgb(60, 60, 60)" stroke-width="1px" opacity="0.25"></line><line x1="144.4140625" y1="0" x2="144.4140625" y2="178" fill="rgb(0, 0, 0)" stroke="rgb(60, 60, 60)" stroke-width="1px" opacity="0.25"></line><line x1="173.296875" y1="0" x2="173.296875" y2="178" fill="rgb(0, 0, 0)" stroke="rgb(60, 60, 60)" stroke-width="1px" opacity="0.25"></line><line x1="202.1796875" y1="0" x2="202.1796875" y2="178" fill="rgb(0, 0, 0)" stroke="rgb(60, 60, 60)" stroke-width="1px" opacity="0.25"></line><line x1="231.0625" y1="0" x2="231.0625" y2="178" fill="rgb(0, 0, 0)" stroke="rgb(60, 60, 60)" stroke-width="1px" opacity="0.25"></line><line x1="259.9453125" y1="0" x2="259.9453125" y2="178" fill="rgb(0, 0, 0)" stroke="rgb(60, 60, 60)" stroke-width="1px" opacity="0.25"></line><line x1="288.828125" y1="0" x2="288.828125" y2="178" fill="rgb(0, 0, 0)" stroke="rgb(60, 60, 60)" stroke-width="1px" opacity="0.25"></line></g><g><line x1="0" y1="178" x2="288.828125" y2="178" fill="rgb(0, 0, 0)" stroke="rgb(60, 60, 60)" stroke-width="1px" opacity="0.25"></line><line x1="0" y1="164.30769230769232" x2="288.828125" y2="164.30769230769232" fill="rgb(0, 0, 0)" stroke="rgb(60, 60, 60)" stroke-width="1px" opacity="0.25"></line><line x1="0" y1="150.6153846153846" x2="288.828125" y2="150.6153846153846" fill="rgb(0, 0, 0)" stroke="rgb(60, 60, 60)" stroke-width="1px" opacity="0.25"></line><line x1="0" y1="136.9230769230769" x2="288.828125" y2="136.9230769230769" fill="rgb(0, 0, 0)" stroke="rgb(60, 60, 60)" stroke-width="1px" opacity="0.25"></line><line x1="0" y1="123.23076923076923" x2="288.828125" y2="123.23076923076923" fill="rgb(0, 0, 0)" stroke="rgb(60, 60, 60)" stroke-width="1px" opacity="0.25"></line><line x1="0" y1="109.53846153846155" x2="288.828125" y2="109.53846153846155" fill="rgb(0, 0, 0)" stroke="rgb(60, 60, 60)" stroke-width="1px" opacity="0.25"></line><line x1="0" y1="95.84615384615384" x2="288.828125" y2="95.84615384615384" fill="rgb(0, 0, 0)" stroke="rgb(60, 60, 60)" stroke-width="1px" opacity="0.25"></line><line x1="0" y1="82.15384615384616" x2="288.828125" y2="82.15384615384616" fill="rgb(0, 0, 0)" stroke="rgb(60, 60, 60)" stroke-width="1px" opacity="0.25"></line><line x1="0" y1="68.46153846153845" x2="288.828125" y2="68.46153846153845" fill="rgb(0, 0, 0)" stroke="rgb(60, 60, 60)" stroke-width="1px" opacity="0.25"></line><line x1="0" y1="54.769230769230774" x2="288.828125" y2="54.769230769230774" fill="rgb(0, 0, 0)" stroke="rgb(60, 60, 60)" stroke-width="1px" opacity="0.25"></line><line x1="0" y1="41.076923076923066" x2="288.828125" y2="41.076923076923066" fill="rgb(0, 0, 0)" stroke="rgb(60, 60, 60)" stroke-width="1px" opacity="0.25"></line><line x1="0" y1="27.384615384615387" x2="288.828125" y2="27.384615384615387" fill="rgb(0, 0, 0)" stroke="rgb(60, 60, 60)" stroke-width="1px" opacity="0.25"></line><line x1="0" y1="13.692307692307683" x2="288.828125" y2="13.692307692307683" fill="rgb(0, 0, 0)" stroke="rgb(60, 60, 60)" stroke-width="1px" opacity="0.25"></line><line x1="0" y1="0" x2="288.828125" y2="0" fill="rgb(0, 0, 0)" stroke="rgb(60, 60, 60)" stroke-width="1px" opacity="0.25"></line></g></g></g><g><g><line x1="0" y1="164.30769230769232" x2="288.828125" y2="164.30769230769232" fill="rgb(0, 0, 0)" stroke="rgb(153, 153, 153)" stroke-width="1.5px"></line></g></g><g><g><line x1="28.8828125" y1="0" x2="28.8828125" y2="178" fill="rgb(0, 0, 0)" stroke="rgb(153, 153, 153)" stroke-width="1.5px"></line></g></g><g><g><g><g><g><path stroke="rgb(238, 51, 119)" stroke-width="2px" d="M29.0272265625,161.02153846153846L29.402703125000002,161.36384615384614L29.576,156.1593720565149L30.038124999999997,158.14212669683258L30.095890625,158.55958362248438L30.1825390625,159.36276171197224L30.413601562500002,159.14383620645992L30.50025,158.45942157076385L30.9334921875,158.49881921066557L31.020140625,157.30994903692888L31.597796875,153.9627489557274L31.828859375,150.75466607528986L31.944390625,151.13760748554014L32.522046875,141.7201076232013L32.8975234375,147.1429219921189L33.3596484375,134.61698872259586L33.446296875,135.10135214318115L33.7062421875,145.25138058389575L34.023953125,151.66937328312758L34.1683671875,155.6294610646525L34.2261328125,158.11496193233214L34.370546874999995,159.49668765360096L35.496976562499995,159.99709346709344L35.641390625,160.51641238714097L36.0746328125,160.82800216429717L36.2479296875,161.01495546364032L36.39234375,160.25081864994368L36.5945234375,160.88772235031587L36.7678203125,157.43601675377064L37.31659375,156.1317636100799L37.77871875,156.55413514515007L37.836484375000005,153.63094239290456L38.067546875,152.3151807575279L38.414140625,151.63526228119014L38.674085937499996,154.95161896418614L38.905148437499996,155.73650984814586L39.3672734375,153.57852128014784L39.4828046875,155.89849739208785L41.0424765625,156.52371382126103L41.071359375,155.80345906102457L41.5623671875,156.79530620664102L41.649015625,157.39041449350177L41.7356640625,154.46132561833224L42.16890625,157.3044876791842L42.2555546875,157.695923376782L42.2844375,156.3972463336805L42.573265625,157.26111703100986L43.064273437500006,157.66990098784586L43.122039062499994,159.1200944388809L43.728578125,156.704056663309L44.21958593750001,154.9258186133614L44.364,156.2687219372515L45.1438359375,152.91200239311428L45.432664062499995,152.6505860512529L45.6059609375,153.6986593230601L45.808140625,153.88934943998999L45.8370234375,156.41360966399455L46.270265625,154.09431964455027L46.79015625,154.56489947903788L46.847921875000004,153.75186276434576L47.194515624999994,155.89296381245367L47.3966953125,154.98685521054912L47.425578125,152.3619592801756L47.483343749999996,154.94948326041307L47.569992187500006,156.39245918701707L47.6277578125,151.78132166605639L47.9743515625,151.09586992271076L48.2631796875,152.32767579978028L48.6097734375,152.73814394140666L48.7541875,152.10811713407477L49.505140624999996,155.78302412659872L49.620671875,153.71596832211307L49.736203124999996,155.98096560865247L49.765085937500004,157.8876562882684L49.967265624999996,157.05997838834566L50.2272109375,153.38675626377662L50.3427421875,149.97789991211212L50.4582734375,153.4095091780365L50.6026875,156.1257055068219L50.71821875,155.0169617656316L50.9781640625,157.09017705937896L51.0936953125,154.8288754663966L51.151460937500005,156.75824835676104L51.20922656250001,157.9158720909797L51.41140625,158.50090786997245L51.555820312499996,159.29008318352192L51.6135859375,157.244203756267L51.758,158.09790686914482L51.815765625000004,155.32397489071766L51.931296874999994,156.50761570366137L52.046828125,157.4368771145045L52.220124999999996,158.76120319177963L52.249007812500004,156.7077988381447L52.9133125,156.4616023798099L53.02884375000001,154.23265373557825L53.9819765625,154.20974608750078L54.184156249999994,156.05815534480817L54.357453125,155.52412397611567L54.7618125,154.217859001054L54.87734375,154.52948463140163L55.0795234375,156.79769077884097L55.137289062499995,156.18692215961227L55.3105859375,157.46353791115197L55.3683515625,157.02458428515274L55.7727109375,156.76121210955318L55.80159375,156.38411188111652L56.090421875000004,158.12954405174685L56.1770703125,159.50541873874042L56.437015624999994,159.23555893555195L56.552546875,158.52595074594655L56.668078125,157.66203198602946L56.9280234375,154.40521919161768L56.956906249999996,156.94220843804754L57.130203125,158.46440198590545L57.159085937499995,158.28233349923556L57.3035,154.77740009954132L57.823390624999995,155.08428621357095L57.910039062500005,154.1730332666041L58.169984375,154.06443534457784L59.03646875,153.78019966828518L59.411945312499995,154.81458133943264L59.5852421875,154.12074880365958L59.671890625,153.2662954360419L59.729656250000005,155.49208495393285L59.8451875,156.498943280052L60.01848437500001,157.86982750649273L60.162898437500004,158.58281958081872L60.451726562500006,159.22969174849123L60.6250234375,157.7556612029409L60.7694375,157.30939672176453L61.058265625000004,158.68471495613565L61.2026796875,156.6619058967583L62.27134375000001,155.9959127688242L62.386874999999996,154.82954766129453L62.4157578125,154.7869593660075L62.444640625,150.27032946575832L62.96453125,154.46127460253192L63.311125000000004,156.42814937690378L63.3400078125,155.63658193383455L63.5133046875,157.24287223722382L63.715484374999996,158.9734156500266L64.4664375,157.82097246693905L64.81303125,158.33442963400958L65.1307421875,158.86158085732882L65.21739062500001,158.63017928362805L65.3040390625,153.78118449325376L65.8816953125,153.3911722344138L66.05499218749999,151.07593410987906L66.257171875,154.8350989274659L66.43046875,156.43336704878723L66.89259375,157.8304817677339L66.97924218749999,154.94444290679417L67.296953125,153.32235805176882L67.3836015625,155.08756867721513L67.47025000000001,157.24207966786753L67.4991328125,157.6584785699513L68.8855078125,159.00370252658618L68.97215625,154.77206766979785L69.0588046875,156.83370214034025L69.0876875,157.52299051497337L69.723109375,158.26517892436866L70.069703125,157.8341842776981L70.12746874999999,158.99958748969578L70.243,158.93206018612517L70.35853125,157.90569765013663L70.4740625,155.31818782085122L71.1961328125,156.94229730789533L71.225015625,158.24537838473722L71.54272656250001,157.82230395391923L71.7737890625,158.3352285261977L71.8893203125,155.137752500334L71.94708593749999,154.42418996173888L72.43809375000001,154.98189859242794L72.8713359375,155.75467761699522L72.9868671875,157.42326810865868L73.70893749999999,153.0570377882721L74.17106249999999,155.0379149806556L74.1999453125,155.13105668070105L74.6331875,156.61094170072832L74.74871875,156.73210348197546L75.21084375000001,156.58572362764681L75.2397265625,156.826511099665L75.615203125,156.97098358287593L75.8751484375,154.86689784203324L76.01956249999999,156.45244639752764L76.1639765625,158.38962168467043L76.250625,155.06084993387918L76.3950390625,152.6254330372506L76.48168749999999,153.02633674542727L76.82828125,155.01949435494868L77.05934375,155.6676966129692L77.2615234375,155.83754104470458L77.463703125,152.98190924220737L77.7236484375,155.43099169917056L77.8391796875,153.1761334810408L77.8969453125,153.57583393477833L77.9547109375,152.06303882240545L78.041359375,154.55105406267404L78.24353906249999,156.81063243760443L78.503484375,157.29007177025497L78.7923125,158.1254276775376L78.90784375,157.85987199113794L78.965609375,154.4143847331443L79.0522578125,154.75693853219428L79.19667187499999,156.93416311931657L79.28332031250001,156.59742094851302L79.312203125,154.53322179987703L79.3410859375,156.5808561568493L79.889859375,156.16635984795573L80.14980468750001,157.67027744723498L80.3231015625,157.91539723757177L80.52528124999999,156.30985372715844L80.55416406249999,157.31821992860276L80.814109375,158.25185503408474L81.01628906250001,154.320959174297L81.622828125,152.0719601199628L81.73835937499999,155.32317607197768L82.0271875,157.38344410472507L82.14271875,158.83868184745043L82.4026640625,159.8213629546241L82.778140625,158.11066392662062L82.8647890625,156.6460906636647L83.0380859375,158.3962697828142L83.0958515625,158.5700695619962L84.0778671875,158.89342635258234L84.25116406250001,155.58220965770326L84.742171875,157.64840271769887L84.79993750000001,151.76811855369624L85.03099999999999,152.4024095937562L85.11764843750001,155.41190729471526L85.1754140625,154.58868283836762L85.69530468750001,154.75197893378981L86.0996640625,155.17857197565849L86.1574296875,155.65360472385663L86.67732031249999,154.51462437277553L86.79285156249999,157.00785154674224L87.0239140625,157.18932631266074L87.514921875,156.09328809528873L87.68821874999999,149.849203626404L88.38140625,147.63629140661163L88.728,148.8279286901208L88.75688281250001,149.1047572140725L88.84353125,152.00931586690504L88.8724140625,154.5188202893738L88.9301796875,148.35683063516274L88.9879453125,151.7796368426361L89.10347656249999,137.40255133635088L89.2190078125,143.34491541719515L89.4211875,135.40879540416324L89.8544296875,139.08158493480565L90.8364453125,141.39479711472953L90.95197656250001,139.16795519191464L91.0097421875,136.7364654228411L91.15415625,141.1926484844739L91.41410156250001,146.27620447529972L91.76069531249999,150.64079960825674L92.0495234375,134.41894130341558L92.1072890625,129.83413401281857L92.1650546875,123.24940348461423L92.19393749999999,129.26656516769162L92.30946875,123.01840063907653L92.39611718750001,124.5273480757536L92.62717968749999,129.266562691606L92.7427109375,130.57655299957898L93.1470703125,124.46162410743969L93.3203671875,125.1742052336946L93.46478125,132.61221544790905L93.4936640625,130.83132926874544L93.5514296875,128.44833602278572L93.63807812499999,125.8136169982868L93.753609375,124.67093942974131L93.7824921875,122.6708713501525L93.984671875,124.20929204086072L94.07132031249999,103.33419060913182L94.215734375,118.30328359624833L94.7645078125,124.43673938851823L95.0533359375,118.3678897869571L95.2266328125,125.78996464140502L95.39992968749999,123.34228647715071L95.5154609375,127.78875650167504L95.86205468749999,124.87017697792811L95.8909375,120.49010618675688L96.6130078125,120.92914063513103L96.872953125,125.24548438107861L97.3639609375,126.19221370557025L97.8838515625,131.57994360795755L97.91273437500001,106.88027385708224L97.9705,88.55524123732624L98.259328125,104.50668320393422L98.374859375,104.43816376851437L98.9236328125,107.4641290303394L99.24134375,113.0040158797421L99.47240624999999,111.5082556816914L99.645703125,116.85449187055332L99.6745859375,101.55023358387047L99.7323515625,99.92583245801458L99.79011718749999,99.17026870557798L99.93453124999999,119.96739199257756L100.65660156249999,125.3256659647773L100.685484375,116.27232265578947L100.97431250000001,116.0981628242429L101.032078125,131.98628230993037L101.1764921875,129.25084630903513L101.5808515625,128.04773855465186L101.7541484375,123.71110467125266L102.01409375,114.75589357198236L102.4473359375,118.91261306626635L102.5628671875,98.84172168591365L102.6206328125,105.53026378077895L102.99610937499999,96.61785057615967L103.342703125,117.45009496108044L103.689296875,119.3242108228021L103.97812499999999,109.93298803214282L104.151421875,113.06133128082415L104.6424296875,117.45772184541757L104.8157265625,119.3287869534044L104.84460937499999,108.18311832588877L105.075671875,109.49202484168713L105.24896875,97.35183028962766L105.422265625,102.77417509685351L105.5666796875,72.61835121195827L106.230984375,89.9057799579442L106.4331640625,64.89731412861266L106.577578125,64.46085001562916L106.9530546875,62.33681770168517L107.15523437499999,75.52147523639572L107.5884765625,93.72888514183741L107.93507031249999,100.92902339279476L108.02171875,96.48602942029223L108.426078125,108.82700226755998L108.4549609375,114.04081674515136L108.51272656249999,117.60725927786002L109.4369765625,113.9415863359468L109.46585937500001,115.13787487849116L109.4947421875,115.08887877324855L109.696921875,105.20101957164142L110.01463281250001,78.34645789683103L110.44787500000001,92.57587473809863L110.5922890625,100.67537099670533L111.4587734375,111.45014567494628L111.83425,117.91501048189085L112.0941953125,123.21792936605756L112.354140625,117.52706531194225L112.5274375,116.5223930333192L112.64296875000001,123.4777435122992L113.1339765625,123.15987687661028L113.19174218750001,111.02946458750463L113.220625,116.56721721404125L113.56721875,120.65663802073243L114.08710937500001,115.77121358167022L114.5781171875,115.14026661054059L114.8091796875,108.84662150478589L115.473484375,104.52274213364078L115.7334296875,121.31672220326138L115.7911953125,117.15311024503376L115.84896093750001,117.50294307009716L115.96449218750001,112.78361199590445L115.993375,103.70832104369653L116.3110859375,113.269915703141L116.39773437500001,107.83394942188461L116.62879687499999,96.13790811466922L116.71544531250001,98.43105256110923L117.40863281249999,92.35832384435784L117.52416406249999,66.36884046046087L117.58192968750001,79.03607350704576L118.01517187500001,91.1274902580736L118.39064843749999,92.13864800099802L119.054953125,104.79457341598342L119.4881953125,113.7025902034362L119.517078125,112.47509258360017L119.71925781249999,114.58659401169858L119.863671875,123.74026409932684L120.0080859375,125.17954307498071L120.1236171875,135.0252643065269L120.1813828125,125.15915858391612L120.6435078125,126.68811053496506L121.16339843749999,118.29471247482519L121.19228125,131.1134428695105L121.3944609375,89.62191187555246L121.48110937499999,98.57437789456225L122.174296875,81.27139596750658L122.2609453125,61.25022219588855L122.46312499999999,79.36059485599468L122.54977343750001,83.65451075975064L122.57865625,94.008091071235L122.636421875,67.35870079658716L122.66530468750001,84.34014355487537L123.387375,93.76223997907906L123.6473203125,70.05919014129358L124.3405078125,88.91797562323768L124.5715703125,95.08493922009646L124.9759296875,88.15988660898095L125.0048125,80.1710088884655L125.1492265625,82.6072207176947L125.4958203125,73.99140935369373L126.333421875,76.48961484298546L126.3911875,79.41253813656051L126.448953125,74.155830574244L126.680015625,61.80057526762333L127.17102343750001,86.37265285288169L127.3154375,113.27466863480592L127.95085937500001,128.64910887319124L128.0375078125,140.2836191700686L128.181921875,145.6212484251181L128.4996328125,142.58013367045544L128.5573984375,148.86131097150405L128.7306953125,148.79617119828703L128.759578125,148.6475488728184L128.932875,150.96822163138333L129.1350546875,153.7846252865223L129.3083515625,149.34031363345184L129.395,151.49341894930188L129.8860078125,145.77482060035035L130.2326015625,148.4778154371333L130.31925,147.79930464689537L130.52142968750002,150.7878904804449L130.9835546875,146.88504198057464L131.0413203125,137.6424098037294L131.21461718749998,137.3546766514684L131.3301484375,132.3623444524195L131.7922734375,116.989098979144L132.28328125000002,120.90976707979411L132.8609375,125.56247563249184L133.380828125,127.80640845641818L133.43859375,135.61553738154322L133.496359375,136.02901473661825L133.5830078125,131.34787038043248L133.66965625,125.91026068979794L134.16066406250002,140.0643102600326L134.478375,148.3376630790965L134.5072578125,148.92013630899635L134.882734375,147.51700486232087L135.74921874999998,151.60435676354638L135.806984375,150.77061405812782L136.500171875,151.03713766564593L136.61570312499998,152.62105183015677L136.67346875,152.69509263655561L136.846765625,155.58751712039492L136.93341406250002,144.1783564260831L136.9911796875,147.41039847103448L137.251125,148.4733160056976L137.4533046875,150.97322037264934L137.82878125,154.6639322235896L138.05984375,156.98789779569222L138.4353203125,156.73920021587688L138.49308593749998,143.33582782183382L138.57973437500002,145.59041977002335L138.926328125,142.56163647739862L139.041859375,145.0163665018238L139.1862734375,130.38705067032504L139.24403906249998,134.9731534791181L139.5328671875,91.93773824131702L139.6483984375,104.12633525248252L140.486,101.47149345918181L140.6304140625,119.04781915243217L140.83259375,121.59730687607467L141.583546875,134.8476148948756L141.814609375,143.56456893692535L142.10343749999998,149.12335674677058L142.3345,143.58601404806237L142.5366796875,97.10545458268358L142.6522109375,84.11434967268707L142.969921875,112.24830211130455L143.14321875,132.08621203601348L143.316515625,143.98895799083888L143.9519375,150.36383633296487L144.2696484375,154.18876333824048L144.4140625,156.04556569525195L144.6740078125,157.81687787868964L144.702890625,155.26489595798301L145.049484375,158.00570680555904L145.3671953125,158.99296254487388L145.45384375,156.84685445000125L145.742671875,158.51672805461615L147.1001640625,157.32788298661583L147.244578125,156.28596056120028L147.2734609375,158.18019172133555L147.5622890625,158.54996118664747L149.670734375,158.55274594275772L149.9884453125,149.24364756565464L150.017328125,152.64034238554663L150.07509374999998,155.55466696978954L150.132859375,149.1974155664891L150.2195078125,153.81752626297038L150.24839062499998,154.83697729624376L150.9704609375,155.4486479162078L151.114875,154.5011887497247L151.2015234375,155.79486709598865L151.4325859375,157.66645871913167L151.750296875,157.47495215455592L152.01024218749998,156.92189436965663L152.096890625,157.2472904679478L152.1257734375,152.9514512038456L152.559015625,146.10194764538429L153.02114062500002,151.0839378179998L153.1944375,153.5254396138768L153.30996875000002,156.41434069140303L153.56991406249998,157.81906595330335L153.6276796875,158.33328572582818L153.887625,158.2036637431892L154.00315625,156.70189055360584L154.17645312500002,158.21067279370197L154.3208671875,157.14424983006734L155.07182031250002,157.27116528265577L155.33176562499997,158.11408378497808L155.7650078125,159.05798873252533L155.96718750000002,158.6384855472075L156.140484375,159.15355286678604L156.256015625,158.476747104687L156.2848984375,158.72789441665836L156.83367187500002,159.9739674192258L156.9203203125,157.4354573746124L157.0936171875,158.54127442476744L157.96010156250003,159.20476465486047L158.1333984375,157.41208956214706L158.2489296875,158.30817681421132L158.56664062500002,155.66921378083447L158.62440625,157.37198980696223L159.11541406249998,157.51734773033118L159.144296875,158.91902402281409L159.6930703125,157.67879902907308L159.72195312500003,150.9100486482131L159.8086015625,154.84510611200477L160.068546875,156.65844828258747L160.29960937500002,158.51322281570634L160.35737500000002,158.42116445865457L160.3862578125,156.50377559826967L161.10832812499999,158.5299576666541L161.19497656250002,158.97889767691555L161.5126875,159.2482616830724L161.5993359375,156.34280316368958L161.6571015625,158.21429728282914L161.71486718749998,158.24180913892826L162.06146093750002,151.1383162525877L162.55246875,152.79129744386032L163.1590078125,154.54985538939312L163.3611875,153.52375938748202L163.59225,150.2791787094123L163.70778124999998,152.494891841032L163.9099609375,155.46739664308072L163.93884375,151.66443798584845L163.9677265625,154.9691243299706L164.2565546875,155.1993207518285L165.0075078125,157.09005398955867L165.151921875,157.12910931681213L165.614046875,153.31869635931804L165.9317578125,154.42814089251388L166.0472890625,157.17503838166218L166.076171875,158.27548456745885L166.307234375,156.5259061250907L166.39388281249998,158.21462059813135L166.422765625,157.9133877434942L166.48053125,158.937571107635L166.5671796875,151.66531189535021L166.827125,153.76472559874858L166.94265625,156.44837382078762L167.1448359375,156.74410121554948L167.17371875,157.90738380625277L167.347015625,154.66196874529012L167.5203125,154.248258170251L167.57807812500002,155.09541644061215L167.6647265625,157.13724986436728L168.675625,158.25281145708192L169.02221875,156.8409176434799L169.5709921875,155.7747044322418L169.62875781250003,158.09251496703737L170.17753125,159.59273974945322L170.23529687500002,160.1642592342873L170.26417968750002,154.3730170790339L170.812953125,154.51304101665113L171.506140625,156.6782861484522L171.59278906249997,155.5675870736867L171.96826562500002,157.74916762882742L172.199328125,158.72950057729645L172.4592734375,158.44139265407017L172.545921875,158.48760482321134L172.6036875,158.51533212469604L172.6325703125,159.1891992748176L173.0369296875,159.37444264181363L173.2679921875,159.48558866201128L173.9034140625,155.17073781259137L174.0767109375,150.71967345678559L174.163359375,146.84411176637906L174.3655390625,148.79077475213512L174.741015625,153.46400331281953L174.79878125,151.77686352615325L174.8276640625,153.72211811569196L175.02984375,156.09419394633827L175.549734375,156.7506702139568L176.2140390625,158.349479051451L176.358453125,153.1746105077937L176.936109375,156.09430476621466L176.993875,157.51750593665187L177.16717187499998,158.1523497158373L177.918125,157.32833290642543L178.0625390625,155.30038435923987L178.438015625,157.15069215400547L178.553546875,158.5894922154802L179.0734375,151.3469260985189L179.30450000000002,154.34046335141903L179.96880468749998,147.15443185700525L180.05545312499999,145.690812960357L180.08433593750001,148.31787239159883L180.1998671875,145.84118497342084L180.22875,150.27024944559096L180.34428125,150.5178419750469L180.97970312500001,154.2811667234897L181.6440078125,152.59577695717073L182.019484375,151.4750046358409L182.481609375,152.88377201227377L182.79932031250002,156.13887859197965L183.26144531249997,156.8870194628801L183.6658046875,153.8306732161896L183.69468750000001,154.07809623740604L183.7813359375,155.86962697321286L184.27234375,157.38269926085079L184.38787499999998,157.96192724881817L184.96553125,156.22823327236785L185.02329687499997,156.83109380957453L185.42765625,158.2881947472832L185.9764296875,157.6289168483699L186.0053125,158.10965780132963L186.063078125,155.65964083464394L186.2074921875,156.8185537315556L187.01621093749998,158.6092860850872L187.27615624999999,159.79326395874463L187.4783359375,159.40826606755448L187.5938671875,160.1631134866865L187.7671640625,158.09663732278116L187.94046093749998,158.9379823936687L188.084875,159.22371251312427L188.17152343749999,160.05238135402843L188.2292890625,159.34465958164782L188.66253125,155.0861803643733L188.9224765625,155.59816975708551L189.15353906250002,151.63336339271285L189.64454687499997,153.52647957408925L189.7889609375,154.22419543676125L189.8467265625,155.62867110821057L190.1933203125,153.18520266492635L190.2510859375,155.11481390664812L190.4243828125,155.28673449783503L190.77097656249998,155.71850223716254L190.91539062500001,156.30617826537446L191.20421875,155.7824761899939L191.493046875,140.13287032938095L192.30176562499997,145.42126065916702L192.35953125,145.9653717801156L192.4750625,150.1256846065309L192.90830468750002,153.82679537930318L194.0925,150.13238491988957L194.1791484375,153.83081556731838L194.29467968749998,149.9157201096218L194.69903906250002,154.35804745038845L195.01675,155.92805923946383L195.21892968749998,156.65098938983215L195.7099375,158.18013209543776L195.7965859375,159.31669464187803L195.941,159.67001678512682L196.08541406249998,157.36262545569147L196.25871093749998,158.05942142726104L196.6053046875,159.244268240972L196.6341875,158.42163786766014L197.1251953125,158.80436733598071L197.21184374999999,158.92446655543458L197.4140234375,159.43467993326075L198.19385937500002,158.53588488303336L198.251625,157.77753092982002L198.45380468750002,154.2554416348151L198.97369531249998,154.66157267319673L199.03146093750001,154.24802052699496L199.233640625,156.08112000850468L199.4935859375,139.98344123587205L199.78241406249998,147.19375704921552L199.81129687499998,152.61533115260625L200.100125,151.92489099925604L200.21565625000002,152.05831921493825L200.2445390625,153.78145306742448L200.7933125,155.58210260968545L200.9377265625,156.88156925811896L200.9954921875,157.880326170256L201.1110234375,158.69865724061515L201.37096875,156.9988866520614L201.890859375,155.65040891431374L202.46851562499998,156.70347611781904L202.6129296875,156.4590087476145L202.872875,157.9554052485687L203.046171875,158.85324314914124L203.07505468749997,159.1728689664078L203.1039375,153.12095214907546L203.1905859375,153.10457128944526L203.277234375,153.20428123520563L203.91265625,152.71641489496952L204.40366406249998,154.50492586005865L204.43254687499999,151.08695551603518L204.54807812500002,153.74632715577496L204.6924921875,154.02748860115727L204.894671875,154.52480085300206L205.1546171875,157.1234958964166L205.2123828125,138.74671292246538L205.50121093750002,143.82279698424844L205.6745078125,151.03090895977985L205.73227343750003,143.19700691432945L205.9055703125,148.57420414859766L205.96333593749998,152.12913787377397L206.0211015625,147.79932887811054L206.36769531250002,153.30728963455863L206.4254609375,156.28345070381212L206.4832265625,156.42607042228727L207.14753125,157.8261037918339L207.4074765625,157.89935458279265L207.49412500000003,156.1906896727525L207.95624999999998,154.7273368805746L208.245078125,156.69732520526782L208.2739609375,158.20793358469916L208.33172656250002,156.7044524585118L208.5050234375,146.0534407058763L208.6783203125,146.45421826967964L208.88049999999998,150.52853096180777L209.02491406250002,142.8955801155462L209.22709375000002,148.06473268471234L209.400390625,135.61176268775048L209.77586718749998,144.68028838188104L210.5268203125,150.55955764451326L211.1044765625,153.86804227901564L211.191125,155.74359459817862L211.30665625,156.75938752813792L211.3355390625,157.8070171322674L211.53771875,158.32605643320656L212.0287265625,159.51378770607778L212.34643749999998,155.29719570056974L212.6641484375,155.396163574188L212.866328125,150.96446737528203L213.039625,153.78237273286152L213.7328125,152.84419287048615L215.0903046875,152.17174649152247L215.32136718750002,153.3018171256827L215.4368984375,149.92693642925576L215.812375,151.84539262678425L216.13008593749998,150.6961586529936L216.24561718750002,148.58261826871924L216.47667968750002,151.91510942277003L216.50556250000002,148.87583488443124L216.62109375,153.73411631527412L216.8810390625,154.56785440454908L216.909921875,153.64409725811407L217.19875,153.5279968164069L217.2276328125,152.6915673206134L217.256515625,144.30294039236804L217.487578125,150.77130269695928L218.065234375,151.47570469509864L218.75842187499998,153.43188435552074L218.873953125,151.6480536902355L218.93171875000002,148.38698606029516L218.9606015625,149.7164993284848L219.04725,150.4046688278601L219.336078125,147.20280129671605L219.59602343749998,142.10506539341424L219.682671875,139.8131930822024L219.97150000000002,146.32483892624452L220.1159140625,151.21767258651596L221.1556953125,152.07214201344803L221.41564062499998,154.44697751576112L221.47340625,154.77649420176436L221.5889375,155.52189652105864L221.76223437500002,153.12113791263516L221.8488828125,154.747759670658L222.0510625,156.27142503316406L222.28212499999998,144.04100886605227L222.3687734375,131.5544514734775L222.59983593750002,139.50744011485574L222.7153671875,142.52661791506728L222.8308984375,137.54673997980962L223.11972656249998,138.28312091096268L223.14860937499998,141.79202639273146L223.49520312500002,146.08813891256193L223.610734375,144.50334488599873L223.8129140625,148.0435453931377L223.9284453125,149.1818195435749L224.24615624999998,147.56447634152957L224.59275,151.8519165741485L225.054875,140.0748422521814L225.77694531249998,147.90582842823193L226.2101875,128.5059585954007L226.614546875,141.07403669570195L226.730078125,109.18103740203657L226.845609375,120.16831474891424L227.07667187500002,133.99021961857932L227.24996875000002,139.8735163865322L227.27885156250002,144.27980213961163L227.76985937499998,145.28049666838237L228.0298046875,136.02245184718328L228.2031015625,132.00116341600227L228.4341640625,122.03023651113982L228.5208125,125.79660344514544L229.156234375,123.45580822093342L229.6472421875,137.1676387787139L229.7627734375,121.51535249799755L229.9938359375,123.07782688341393L230.080484375,117.00484997620218L230.25378125,112.9229099857213L230.77367187500002,103.79189983758663L230.8314375,106.20006297947506L231.351328125,120.2418839415312L231.466859375,97.55805344184179L231.5535078125,99.94037052664352L232.0733984375,70.91806846983228L232.18892968749998,60.62468723574552L232.39110937499998,79.86158157221654L232.7665859375,90.52741048179146L232.9398828125,107.33306167369027L233.3442421875,115.88291392729109L233.69083593750003,119.58882527945157L233.893015625,122.79821824459403L234.12407812499998,122.53308479291026L234.355140625,108.24354318343846L234.3840234375,75.89997206390923L234.52843750000002,79.16829093065324L234.64396875,76.09051301993041L235.01944531249998,82.13061550426593L235.13497656250001,83.3448308410211L235.5393359375,90.31705235076652L235.88592968749998,94.17176987199838L235.91481249999998,88.26921576935285L236.1169921875,94.80522176930401L236.3480546875,100.15082536927473L236.5213515625,101.93418752925714L236.6946484375,72.11435867140044L236.896828125,79.63538443360949L236.95459375000002,82.1763075832426L237.2145390625,88.19193839609943L237.2723046875,92.78716303765967L237.3011875,96.20152859182654L237.84996093750001,68.67476330894209L237.936609375,71.76608875459601L238.1965546875,54.01349940660376L238.57203124999998,43.3619457978084L238.8897421875,40.58578286330044L238.976390625,35.30531587182642L239.26521875,32.13703567694198L239.72734375,30.23606756001136L240.0450546875,29.095486689852958L240.5649453125,28.411138167757937L240.8537734375,68.42022136219322L240.88265625,92.64474820193131L241.0270703125,115.9425412288511L241.055953125,130.24983242961835L241.2581328125,137.51974561161717L241.3736640625,143.7438473669703L241.40254687499998,146.38292380479757L241.43142968749999,148.51406197518622L242.06685156249998,150.88812949280404L242.09573437499998,149.5741084649132L242.211265625,149.44292661740946L242.26903124999998,151.22637135506108L242.5289765625,150.6533612745751L242.6445078125,149.76186291859122L242.73115625,148.67927159730857L243.482109375,147.70110141992362L243.5109921875,148.6477377750311L243.7709375,148.66802728040327L243.8575859375,149.00881636824195L243.9731171875,149.10375135940671L244.05976562499998,148.94163543102866L244.34859375,148.07759664323257L244.3774765625,149.8594810628626L244.406359375,150.05230402233295L244.43524218750002,150.3870747210921L244.57965625,149.16393714034754L244.752953125,149.7445161303624L244.868484375,150.20240198590975L244.92624999999998,150.5866719607766L245.388375,150.59815702261983L245.56167187499997,151.37181729049496L245.59055468749997,152.16462883583546L245.82161718749998,153.2975465322705L245.99491406250002,152.66283561166998L246.370390625,151.9533936746943L246.5725703125,149.5560362048166L246.86139843750001,148.0080832613515L247.61235156249998,146.3125422645032L248.27665625,116.70567920485577L248.47883593749998,123.91633059983653L248.65213281249999,132.95287528297885L248.73878125,139.36064824671038L249.6341484375,148.353619717257L249.66303125,153.53032567650803L250.12515625,156.7458877135971L250.1540390625,158.78476339738907L250.44286718749998,159.78901188458727L250.529515625,160.61063789998315L250.58728125000002,160.6654596630668L250.9049921875,161.13650656707085L251.07828906249998,161.30959624793482L251.1649375,161.30391159491472L251.28046875,161.19096234156422L251.74259375000003,161.01365432801546L251.800359375,161.23588490450157L251.8292421875,161.36922325039328L251.9447734375,161.23014933485135L252.031421875,161.4753203701416L252.0891875,159.86980760670033L252.493546875,148.71942302555865L252.60907812500002,143.6722691999506L252.9267890625,142.3965922892011L253.0134375,140.8644169119822L253.59109375,114.97034245488163L253.82215625,115.75512854985206L254.11098437500002,112.17307712991125L254.13986718750002,107.94261550871597L254.457578125,101.02280007446035L255.1218828125,71.56752619852234L255.266296875,82.37436187295958L255.75730468749998,94.22584789300652L256.421609375,98.81735488965006L256.479375,104.31072062609773L257.0281484375,114.2885862218125L257.05703125,120.49438250231826L257.17256249999997,126.40862950139095L257.28809375000003,124.80887000852688L257.807984375,85.83916815896228L257.98128125,62.45734704922353L258.0101640625,48.428254383380285L259.2232421875,40.01079878387432L259.4543046875,34.960325424170755L259.6853671875,31.9300414083486L259.71425,30.111870998855288L260.2052578125,29.020968753159327L260.43632031249996,28.36642740574176L260.580734375,27.973702597291208L260.69626562499997,27.738067712220875L261.0139765625,27.59668678117868L261.3605703125,27.511858222553347L261.44721875,27.46096108737817L261.504984375,27.430422806273043L261.620515625,27.41209983760996L261.851578125,27.401106056412154L262.9780078125,76.24866363384729L263.584546875,106.652582795693L263.75784375,126.42847275433887L263.7867265625,139.60846826798794L263.8444921875,147.07831173002353L264.277734375,150.1362178072449L264.4799140625,152.8472691458854L265.14421875,152.39266917983892L265.201984375,153.43437073867258L265.25975,151.86862244320355L265.5774609375,152.4627119274606L265.664109375,153.3668579257071L266.15511718749997,153.1425762938858L266.32841406250003,152.56985346863917L266.703890625,149.7068351581066L267.281546875,148.09856263332549L267.5414921875,123.80190681076454L267.94585156249997,123.90206716338179L268.00361718749997,129.32954799033678L268.0613828125,129.51895956343284L268.32132812500004,113.42091419959816L268.5812734375,111.42977928898965L268.8123359375,98.1858675733938L269.3899921875,110.28505900557474L269.44775781249996,114.6965738648833L269.53440625,120.52009816508382L269.592171875,116.89421274520416L269.76546875,115.3759122625071L270.11206250000004,80.17939351135041L270.1409453125,59.0614822606564L270.34312500000004,46.39073551023999L270.4297734375,38.788287459990144L270.5741875,34.226818629840245L270.7763671875,31.48993733175032L270.8341328125,29.847808552896367L272.30715625,69.82991590096859L272.6248671875,77.16933415596577L272.711515625,93.07452357050252L272.8559296875,66.79856029614768L273.0869921875,51.03298233153477L273.3180546875,41.57363555276702L273.43358593749997,35.89802748550638L273.46246874999997,32.49266264515L273.520234375,30.449443740936143L273.60688281250003,68.43828162917707L273.8090625,52.01681513135241L273.92459375,75.57316600188838L274.040125,56.29774575497919L274.3000703125,44.73249360683368L274.328953125,37.79334231794636L274.4733671875,33.62985154461396L274.5888984375,31.131757080614516L274.61778125,29.632900402214876L275.0510234375,28.733586395175063L275.9175078125,28.19399799095121L275.946390625,27.870244948416882L276.292984375,27.675993122896276L276.4951640625,27.559442027583923L276.639578125,27.489511370396517L277.0439375,36.210629899161006L277.3038828125,32.680224093342744L277.737125,30.561980609851805L277.910421875,29.291034519757257" style="fill: none;" fill="none"></path></g></g></g></g><g opacity="0.2"><g><g><g><path stroke="rgb(238, 51, 119)" stroke-width="2px" d="M29.0272265625,161.02153846153846L29.402703125000002,161.56923076923076L29.576,151.16307692307691L30.038124999999997,160.47384615384615L30.095890625,159.10461538461539L30.1825390625,160.47384615384615L30.413601562500002,158.83076923076922L30.50025,157.46153846153845L30.9334921875,158.55692307692308L31.020140625,155.54461538461538L31.597796875,148.97230769230768L31.828859375,145.96L31.944390625,151.71076923076924L32.522046875,127.61230769230771L32.8975234375,155.27076923076925L33.3596484375,115.83692307692307L33.446296875,135.8276923076923L33.7062421875,160.47384615384615L34.023953125,161.29538461538462L34.1683671875,161.56923076923076L34.2261328125,161.84307692307692L34.370546874999995,161.56923076923076L35.496976562499995,160.74769230769232L35.641390625,161.29538461538462L36.0746328125,161.29538461538462L36.2479296875,161.29538461538462L36.39234375,159.10461538461539L36.5945234375,161.84307692307692L36.7678203125,152.25846153846155L37.31659375,154.17538461538462L37.77871875,157.18769230769232L37.836484375000005,149.24615384615385L38.067546875,150.34153846153848L38.414140625,150.6153846153846L38.674085937499996,159.92615384615385L38.905148437499996,156.91384615384615L39.3672734375,150.34153846153848L39.4828046875,159.37846153846155L41.0424765625,157.46153846153845L41.071359375,154.72307692307692L41.5623671875,158.28307692307692L41.649015625,158.28307692307692L41.7356640625,150.0676923076923L42.16890625,161.56923076923076L42.2555546875,158.28307692307692L42.2844375,154.44923076923075L42.573265625,158.55692307692308L43.064273437500006,158.28307692307692L43.122039062499994,161.29538461538462L43.728578125,153.07999999999998L44.21958593750001,152.25846153846155L44.364,158.28307692307692L45.1438359375,147.87692307692308L45.432664062499995,152.25846153846155L45.6059609375,155.27076923076925L45.808140625,154.17538461538462L45.8370234375,160.20000000000002L46.270265625,150.6153846153846L46.79015625,155.27076923076925L46.847921875000004,152.53230769230768L47.194515624999994,159.10461538461539L47.3966953125,153.6276923076923L47.425578125,148.4246153846154L47.483343749999996,158.83076923076922L47.569992187500006,158.55692307692308L47.6277578125,144.8646153846154L47.9743515625,150.0676923076923L48.2631796875,154.17538461538462L48.6097734375,153.35384615384615L48.7541875,151.16307692307691L49.505140624999996,161.29538461538462L49.620671875,150.6153846153846L49.736203124999996,159.37846153846155L49.765085937500004,160.74769230769232L49.967265624999996,155.81846153846155L50.2272109375,147.87692307692308L50.3427421875,144.8646153846154L50.4582734375,158.55692307692308L50.6026875,160.20000000000002L50.71821875,153.35384615384615L50.9781640625,160.20000000000002L51.0936953125,151.43692307692308L51.151460937500005,159.6523076923077L51.20922656250001,159.6523076923077L51.41140625,159.37846153846155L51.555820312499996,160.47384615384615L51.6135859375,154.17538461538462L51.758,159.37846153846155L51.815765625000004,151.16307692307691L51.931296874999994,158.28307692307692L52.046828125,158.83076923076922L52.220124999999996,160.74769230769232L52.249007812500004,153.6276923076923L52.9133125,156.09230769230768L53.02884375000001,150.88923076923078L53.9819765625,154.17538461538462L54.184156249999994,158.83076923076922L54.357453125,154.72307692307692L54.7618125,152.25846153846155L54.87734375,154.99692307692308L55.0795234375,160.20000000000002L55.137289062499995,155.27076923076925L55.3105859375,159.37846153846155L55.3683515625,156.36615384615385L55.7727109375,156.36615384615385L55.80159375,155.81846153846155L56.090421875000004,160.74769230769232L56.1770703125,161.56923076923076L56.437015624999994,158.83076923076922L56.552546875,157.46153846153845L56.668078125,156.36615384615385L56.9280234375,149.51999999999998L56.956906249999996,160.74769230769232L57.130203125,160.74769230769232L57.159085937499995,158.00923076923075L57.3035,149.51999999999998L57.823390624999995,155.54461538461538L57.910039062500005,152.80615384615385L58.169984375,153.90153846153845L59.03646875,153.35384615384615L59.411945312499995,156.36615384615385L59.5852421875,153.07999999999998L59.671890625,151.98461538461538L59.729656250000005,158.83076923076922L59.8451875,158.00923076923075L60.01848437500001,159.92615384615385L60.162898437500004,159.6523076923077L60.451726562500006,160.20000000000002L60.6250234375,155.54461538461538L60.7694375,156.64000000000001L61.058265625000004,160.74769230769232L61.2026796875,153.6276923076923L62.27134375000001,154.99692307692308L62.386874999999996,153.07999999999998L62.4157578125,154.72307692307692L62.444640625,143.49538461538464L62.96453125,160.74769230769232L63.311125000000004,159.37846153846155L63.3400078125,154.44923076923075L63.5133046875,159.6523076923077L63.715484374999996,161.56923076923076L64.4664375,156.09230769230768L64.81303125,159.10461538461539L65.1307421875,159.6523076923077L65.21739062500001,158.28307692307692L65.3040390625,146.5076923076923L65.8816953125,152.80615384615385L66.05499218749999,147.6030769230769L66.257171875,160.47384615384615L66.43046875,158.83076923076922L66.89259375,159.92615384615385L66.97924218749999,150.6153846153846L67.296953125,150.88923076923078L67.3836015625,157.73538461538462L67.47025000000001,160.47384615384615L67.4991328125,158.28307692307692L68.8855078125,161.02153846153846L68.97215625,148.4246153846154L69.0588046875,159.92615384615385L69.0876875,158.55692307692308L69.723109375,159.37846153846155L70.069703125,157.18769230769232L70.12746874999999,160.74769230769232L70.243,158.83076923076922L70.35853125,156.36615384615385L70.4740625,151.43692307692308L71.1961328125,159.37846153846155L71.225015625,160.20000000000002L71.54272656250001,157.18769230769232L71.7737890625,159.10461538461539L71.8893203125,150.34153846153848L71.94708593749999,153.35384615384615L72.43809375000001,155.81846153846155L72.8713359375,156.91384615384615L72.9868671875,159.92615384615385L73.70893749999999,146.5076923076923L74.17106249999999,158.00923076923075L74.1999453125,155.27076923076925L74.6331875,158.83076923076922L74.74871875,156.91384615384615L75.21084375000001,156.36615384615385L75.2397265625,157.18769230769232L75.615203125,157.18769230769232L75.8751484375,151.71076923076924L76.01956249999999,158.83076923076922L76.1639765625,161.29538461538462L76.250625,150.0676923076923L76.3950390625,148.97230769230768L76.48168749999999,153.6276923076923L76.82828125,158.00923076923075L77.05934375,156.64000000000001L77.2615234375,156.09230769230768L77.463703125,148.69846153846154L77.7236484375,159.10461538461539L77.8391796875,149.79384615384615L77.8969453125,154.17538461538462L77.9547109375,149.79384615384615L78.041359375,158.28307692307692L78.24353906249999,160.20000000000002L78.503484375,158.00923076923075L78.7923125,159.37846153846155L78.90784375,157.46153846153845L78.965609375,149.24615384615385L79.0522578125,155.27076923076925L79.19667187499999,160.20000000000002L79.28332031250001,156.09230769230768L79.312203125,151.43692307692308L79.3410859375,159.6523076923077L79.889859375,155.54461538461538L80.14980468750001,159.92615384615385L80.3231015625,158.28307692307692L80.52528124999999,153.90153846153845L80.55416406249999,158.83076923076922L80.814109375,159.6523076923077L81.01628906250001,148.4246153846154L81.622828125,148.69846153846154L81.73835937499999,160.20000000000002L82.0271875,160.47384615384615L82.14271875,161.02153846153846L82.4026640625,161.29538461538462L82.778140625,155.54461538461538L82.8647890625,154.44923076923075L83.0380859375,161.02153846153846L83.0958515625,158.83076923076922L84.0778671875,159.37846153846155L84.25116406250001,150.6153846153846L84.742171875,160.74769230769232L84.79993750000001,142.9476923076923L85.03099999999999,153.35384615384615L85.11764843750001,159.92615384615385L85.1754140625,153.35384615384615L85.69530468750001,154.99692307692308L86.0996640625,155.81846153846155L86.1574296875,156.36615384615385L86.67732031249999,152.80615384615385L86.79285156249999,160.74769230769232L87.0239140625,157.46153846153845L87.514921875,154.44923076923075L87.68821874999999,140.4830769230769L88.38140625,144.31692307692308L88.728,150.6153846153846L88.75688281250001,149.51999999999998L88.84353125,156.36615384615385L88.8724140625,158.28307692307692L88.9301796875,139.11384615384614L88.9879453125,156.91384615384615L89.10347656249999,115.83692307692307L89.2190078125,152.25846153846155L89.4211875,123.50461538461538L89.8544296875,144.59076923076924L90.8364453125,144.8646153846154L90.95197656250001,135.8276923076923L91.0097421875,133.08923076923077L91.15415625,147.87692307692308L91.41410156250001,153.90153846153845L91.76069531249999,157.18769230769232L92.0495234375,110.08615384615383L92.1072890625,122.95692307692309L92.1650546875,113.37230769230769L92.19393749999999,138.2923076923077L92.30946875,113.64615384615384L92.39611718750001,126.79076923076923L92.62717968749999,136.37538461538463L92.7427109375,132.54153846153847L93.1470703125,115.28923076923077L93.3203671875,126.24307692307693L93.46478125,143.76923076923077L93.4936640625,128.16L93.5514296875,124.87384615384616L93.63807812499999,121.86153846153846L93.753609375,122.95692307692309L93.7824921875,119.67076923076922L93.984671875,126.51692307692309L94.07132031249999,72.02153846153846L94.215734375,140.75692307692307L94.7645078125,133.63692307692307L95.0533359375,109.26461538461538L95.2266328125,136.9230769230769L95.39992968749999,119.67076923076922L95.5154609375,134.45846153846153L95.86205468749999,120.4923076923077L95.8909375,113.92L96.6130078125,121.58769230769232L96.872953125,131.72L97.3639609375,127.61230769230771L97.8838515625,139.66153846153847L97.91273437500001,69.83076923076923L97.9705,61.067692307692305L98.259328125,128.43384615384613L98.374859375,104.33538461538461L98.9236328125,112.00307692307693L99.24134375,121.31384615384616L99.47240624999999,109.26461538461538L99.645703125,124.87384615384616L99.6745859375,78.59384615384616L99.7323515625,97.48923076923077L99.79011718749999,98.03692307692307L99.93453124999999,151.16307692307691L100.65660156249999,133.36307692307693L100.685484375,102.69230769230768L100.97431250000001,115.83692307692307L101.032078125,155.81846153846155L101.1764921875,125.14769230769232L101.5808515625,126.24307692307693L101.7541484375,117.20615384615384L102.01409375,101.32307692307693L102.4473359375,125.14769230769232L102.5628671875,68.73538461538462L102.6206328125,115.56307692307693L102.99610937499999,83.24923076923078L103.342703125,148.69846153846154L103.689296875,122.13538461538461L103.97812499999999,95.84615384615384L104.151421875,117.75384615384615L104.6424296875,124.0523076923077L104.8157265625,122.13538461538461L104.84460937499999,91.46461538461539L105.075671875,111.45538461538462L105.24896875,79.14153846153846L105.422265625,110.90769230769232L105.5666796875,27.384615384615387L106.230984375,115.83692307692307L106.4331640625,27.384615384615387L106.577578125,63.806153846153855L106.9530546875,59.15076923076923L107.15523437499999,95.29846153846154L107.5884765625,121.03999999999999L107.93507031249999,111.72923076923078L108.02171875,89.82153846153848L108.426078125,127.33846153846154L108.4549609375,121.86153846153846L108.51272656249999,122.95692307692309L109.4369765625,108.44307692307693L109.46585937500001,116.9323076923077L109.4947421875,115.0153846153846L109.696921875,90.36923076923077L110.01463281250001,38.06461538461538L110.44787500000001,113.92L110.5922890625,112.82461538461538L111.4587734375,127.61230769230771L111.83425,127.61230769230771L112.0941953125,131.1723076923077L112.354140625,108.99076923076923L112.5274375,115.0153846153846L112.64296875000001,133.91076923076923L113.1339765625,122.68307692307694L113.19174218750001,92.83384615384615L113.220625,124.87384615384616L113.56721875,126.79076923076923L114.08710937500001,108.44307692307693L114.5781171875,114.19384615384617L114.8091796875,99.40615384615384L115.473484375,98.03692307692307L115.7334296875,146.5076923076923L115.7911953125,110.90769230769232L115.84896093750001,118.02769230769232L115.96449218750001,105.7046153846154L115.993375,90.09538461538462L116.3110859375,127.61230769230771L116.39773437500001,99.68L116.62879687499999,78.59384615384616L116.71544531250001,101.87076923076923L117.40863281249999,83.24923076923078L117.52416406249999,27.384615384615387L117.58192968750001,98.03692307692307L118.01517187500001,109.26461538461538L118.39064843749999,93.65538461538462L119.054953125,123.77846153846154L119.4881953125,127.06461538461538L119.517078125,110.63384615384616L119.71925781249999,117.75384615384615L119.863671875,137.47076923076924L120.0080859375,127.33846153846154L120.1236171875,149.79384615384615L120.1813828125,110.36L120.6435078125,128.98153846153846L121.16339843749999,105.7046153846154L121.19228125,150.34153846153848L121.3944609375,27.384615384615387L121.48110937499999,112.00307692307693L122.174296875,55.31692307692308L122.2609453125,31.218461538461533L122.46312499999999,106.52615384615385L122.54977343750001,90.09538461538462L122.57865625,109.53846153846155L122.636421875,27.384615384615387L122.66530468750001,109.81230769230768L123.387375,107.89538461538461L123.6473203125,34.50461538461539L124.3405078125,117.20615384615384L124.5715703125,104.33538461538461L124.9759296875,77.7723076923077L125.0048125,68.18769230769232L125.1492265625,86.26153846153846L125.4958203125,61.067692307692305L126.333421875,80.23692307692309L126.3911875,83.79692307692306L126.448953125,66.27076923076923L126.680015625,43.26769230769231L127.17102343750001,123.23076923076923L127.3154375,153.6276923076923L127.95085937500001,151.71076923076924L128.0375078125,157.73538461538462L128.181921875,153.6276923076923L128.4996328125,138.01846153846154L128.5573984375,158.28307692307692L128.7306953125,148.69846153846154L128.759578125,148.4246153846154L128.932875,154.44923076923075L129.1350546875,158.00923076923075L129.3083515625,142.67384615384614L129.395,154.72307692307692L129.8860078125,137.19692307692307L130.2326015625,152.53230769230768L130.31925,146.78153846153847L130.52142968750002,155.27076923076925L130.9835546875,141.03076923076924L131.0413203125,123.77846153846154L131.21461718749998,136.9230769230769L131.3301484375,124.87384615384616L131.7922734375,93.92923076923077L132.28328125000002,126.79076923076923L132.8609375,132.54153846153847L133.380828125,131.1723076923077L133.43859375,147.32923076923078L133.496359375,136.64923076923077L133.5830078125,124.32615384615384L133.66965625,117.75384615384615L134.16066406250002,161.29538461538462L134.478375,160.74769230769232L134.5072578125,149.79384615384615L134.882734375,145.41230769230768L135.74921874999998,157.73538461538462L135.806984375,149.51999999999998L136.500171875,151.43692307692308L136.61570312499998,154.99692307692308L136.67346875,152.80615384615385L136.846765625,159.92615384615385L136.93341406250002,127.06461538461538L136.9911796875,152.25846153846155L137.251125,150.0676923076923L137.4533046875,154.72307692307692L137.82878125,160.20000000000002L138.05984375,160.47384615384615L138.4353203125,156.36615384615385L138.49308593749998,123.23076923076923L138.57973437500002,148.97230769230768L138.926328125,138.01846153846154L139.041859375,148.69846153846154L139.1862734375,108.44307692307693L139.24403906249998,141.8523076923077L139.5328671875,27.384615384615387L139.6483984375,122.40923076923077L140.486,97.48923076923077L140.6304140625,145.41230769230768L140.83259375,125.42153846153846L141.583546875,154.72307692307692L141.814609375,156.64000000000001L142.10343749999998,157.46153846153845L142.3345,135.28L142.5366796875,27.384615384615387L142.6522109375,64.62769230769231L142.969921875,154.44923076923075L143.14321875,161.84307692307692L143.316515625,161.84307692307692L143.9519375,159.92615384615385L144.2696484375,159.92615384615385L144.4140625,158.83076923076922L144.6740078125,160.47384615384615L144.702890625,151.43692307692308L145.049484375,162.1169230769231L145.3671953125,160.47384615384615L145.45384375,153.6276923076923L145.742671875,161.02153846153846L147.1001640625,155.54461538461538L147.244578125,154.72307692307692L147.2734609375,161.02153846153846L147.5622890625,159.10461538461539L149.670734375,158.55692307692308L149.9884453125,135.28L150.017328125,157.73538461538462L150.07509374999998,159.92615384615385L150.132859375,139.66153846153847L150.2195078125,160.74769230769232L150.24839062499998,156.36615384615385L150.9704609375,156.36615384615385L151.114875,153.07999999999998L151.2015234375,157.73538461538462L151.4325859375,160.47384615384615L151.750296875,157.18769230769232L152.01024218749998,156.09230769230768L152.096890625,157.73538461538462L152.1257734375,146.5076923076923L152.559015625,135.8276923076923L153.02114062500002,158.55692307692308L153.1944375,157.18769230769232L153.30996875000002,160.74769230769232L153.56991406249998,159.92615384615385L153.6276796875,159.10461538461539L153.887625,158.00923076923075L154.00315625,154.44923076923075L154.17645312500002,160.47384615384615L154.3208671875,155.54461538461538L155.07182031250002,157.46153846153845L155.33176562499997,159.37846153846155L155.7650078125,160.47384615384615L155.96718750000002,158.00923076923075L156.140484375,159.92615384615385L156.256015625,157.46153846153845L156.2848984375,159.10461538461539L156.83367187500002,161.84307692307692L156.9203203125,153.6276923076923L157.0936171875,160.20000000000002L157.96010156250003,160.20000000000002L158.1333984375,154.72307692307692L158.2489296875,159.6523076923077L158.56664062500002,151.71076923076924L158.62440625,159.92615384615385L159.11541406249998,157.73538461538462L159.144296875,161.02153846153846L159.6930703125,155.81846153846155L159.72195312500003,140.75692307692307L159.8086015625,160.74769230769232L160.068546875,159.37846153846155L160.29960937500002,161.29538461538462L160.35737500000002,158.28307692307692L160.3862578125,153.6276923076923L161.10832812499999,161.56923076923076L161.19497656250002,159.6523076923077L161.5126875,159.6523076923077L161.5993359375,151.98461538461538L161.6571015625,161.02153846153846L161.71486718749998,158.28307692307692L162.06146093750002,140.4830769230769L162.55246875,155.27076923076925L163.1590078125,157.18769230769232L163.3611875,151.98461538461538L163.59225,145.41230769230768L163.70778124999998,155.81846153846155L163.9099609375,159.92615384615385L163.93884375,145.96L163.9677265625,159.92615384615385L164.2565546875,155.54461538461538L165.0075078125,159.92615384615385L165.151921875,157.18769230769232L165.614046875,147.6030769230769L165.9317578125,156.09230769230768L166.0472890625,161.29538461538462L166.076171875,159.92615384615385L166.307234375,153.90153846153845L166.39388281249998,160.74769230769232L166.422765625,157.46153846153845L166.48053125,160.47384615384615L166.5671796875,140.75692307692307L166.827125,156.91384615384615L166.94265625,160.47384615384615L167.1448359375,157.18769230769232L167.17371875,159.6523076923077L167.347015625,149.79384615384615L167.5203125,153.6276923076923L167.57807812500002,156.36615384615385L167.6647265625,160.20000000000002L168.675625,159.92615384615385L169.02221875,154.72307692307692L169.5709921875,154.17538461538462L169.62875781250003,161.56923076923076L170.17753125,161.84307692307692L170.23529687500002,161.02153846153846L170.26417968750002,145.68615384615384L170.812953125,154.72307692307692L171.506140625,159.92615384615385L171.59278906249997,153.90153846153845L171.96826562500002,161.02153846153846L172.199328125,160.20000000000002L172.4592734375,158.00923076923075L172.545921875,158.55692307692308L172.6036875,158.55692307692308L172.6325703125,160.20000000000002L173.0369296875,159.6523076923077L173.2679921875,159.6523076923077L173.9034140625,148.69846153846154L174.0767109375,144.0430769230769L174.163359375,141.03076923076924L174.3655390625,151.71076923076924L174.741015625,160.47384615384615L174.79878125,149.24615384615385L174.8276640625,156.64000000000001L175.02984375,159.6523076923077L175.549734375,157.73538461538462L176.2140390625,160.74769230769232L176.358453125,145.41230769230768L176.936109375,160.47384615384615L176.993875,159.6523076923077L177.16717187499998,159.10461538461539L177.918125,156.09230769230768L178.0625390625,152.25846153846155L178.438015625,159.92615384615385L178.553546875,160.74769230769232L179.0734375,140.4830769230769L179.30450000000002,158.83076923076922L179.96880468749998,136.37538461538463L180.05545312499999,143.49538461538464L180.08433593750001,152.25846153846155L180.1998671875,142.12615384615384L180.22875,156.91384615384615L180.34428125,150.88923076923078L180.97970312500001,159.92615384615385L181.6440078125,150.0676923076923L182.019484375,149.79384615384615L182.481609375,154.99692307692308L182.79932031250002,161.02153846153846L183.26144531249997,158.00923076923075L183.6658046875,149.24615384615385L183.69468750000001,154.44923076923075L183.7813359375,158.55692307692308L184.27234375,159.6523076923077L184.38787499999998,158.83076923076922L184.96553125,153.6276923076923L185.02329687499997,157.73538461538462L185.42765625,160.47384615384615L185.9764296875,156.64000000000001L186.0053125,158.83076923076922L186.063078125,151.98461538461538L186.2074921875,158.55692307692308L187.01621093749998,161.29538461538462L187.27615624999999,161.56923076923076L187.4783359375,158.83076923076922L187.5938671875,161.29538461538462L187.7671640625,154.99692307692308L187.94046093749998,160.20000000000002L188.084875,159.6523076923077L188.17152343749999,161.29538461538462L188.2292890625,158.28307692307692L188.66253125,148.69846153846154L188.9224765625,156.36615384615385L189.15353906250002,145.68615384615384L189.64454687499997,156.36615384615385L189.7889609375,155.27076923076925L189.8467265625,157.73538461538462L190.1933203125,149.51999999999998L190.2510859375,158.00923076923075L190.4243828125,155.54461538461538L190.77097656249998,156.36615384615385L190.91539062500001,157.18769230769232L191.20421875,154.99692307692308L191.493046875,116.65846153846155L192.30176562499997,153.35384615384615L192.35953125,146.78153846153847L192.4750625,156.36615384615385L192.90830468750002,159.37846153846155L194.0925,144.59076923076924L194.1791484375,159.37846153846155L194.29467968749998,144.0430769230769L194.69903906250002,161.02153846153846L195.01675,158.28307692307692L195.21892968749998,157.73538461538462L195.7099375,160.47384615384615L195.7965859375,161.02153846153846L195.941,160.20000000000002L196.08541406249998,153.90153846153845L196.25871093749998,159.10461538461539L196.6053046875,161.02153846153846L196.6341875,157.18769230769232L197.1251953125,159.37846153846155L197.21184374999999,159.10461538461539L197.4140234375,160.20000000000002L198.19385937500002,157.18769230769232L198.251625,156.64000000000001L198.45380468750002,148.97230769230768L198.97369531249998,155.27076923076925L199.03146093750001,153.6276923076923L199.233640625,158.83076923076922L199.4935859375,115.83692307692307L199.78241406249998,158.00923076923075L199.81129687499998,160.74769230769232L200.100125,150.88923076923078L200.21565625000002,152.25846153846155L200.2445390625,156.36615384615385L200.7933125,158.28307692307692L200.9377265625,158.83076923076922L200.9954921875,159.37846153846155L201.1110234375,159.92615384615385L201.37096875,154.44923076923075L201.890859375,153.6276923076923L202.46851562499998,158.28307692307692L202.6129296875,156.09230769230768L202.872875,160.20000000000002L203.046171875,160.20000000000002L203.07505468749997,159.6523076923077L203.1039375,144.0430769230769L203.1905859375,153.07999999999998L203.277234375,153.35384615384615L203.91265625,151.98461538461538L204.40366406249998,157.18769230769232L204.43254687499999,145.96L204.54807812500002,157.73538461538462L204.6924921875,154.44923076923075L204.894671875,155.27076923076925L205.1546171875,161.02153846153846L205.2123828125,111.18153846153845L205.50121093750002,151.43692307692308L205.6745078125,161.84307692307692L205.73227343750003,131.44615384615386L205.9055703125,156.64000000000001L205.96333593749998,157.46153846153845L206.0211015625,141.30461538461537L206.36769531250002,161.56923076923076L206.4254609375,160.74769230769232L206.4832265625,156.64000000000001L207.14753125,159.92615384615385L207.4074765625,158.00923076923075L207.49412500000003,153.6276923076923L207.95624999999998,152.53230769230768L208.245078125,159.6523076923077L208.2739609375,160.47384615384615L208.33172656250002,154.44923076923075L208.5050234375,130.0769230769231L208.6783203125,147.0553846153846L208.88049999999998,156.64000000000001L209.02491406250002,131.44615384615386L209.22709375000002,155.81846153846155L209.400390625,116.9323076923077L209.77586718749998,158.28307692307692L210.5268203125,159.37846153846155L211.1044765625,158.83076923076922L211.191125,158.55692307692308L211.30665625,158.28307692307692L211.3355390625,159.37846153846155L211.53771875,159.10461538461539L212.0287265625,161.29538461538462L212.34643749999998,148.97230769230768L212.6641484375,155.54461538461538L212.866328125,144.31692307692308L213.039625,158.00923076923075L213.7328125,151.43692307692308L215.0903046875,151.16307692307691L215.32136718750002,154.99692307692308L215.4368984375,144.8646153846154L215.812375,154.72307692307692L216.13008593749998,148.97230769230768L216.24561718750002,145.41230769230768L216.47667968750002,156.91384615384615L216.50556250000002,144.31692307692308L216.62109375,161.02153846153846L216.8810390625,155.81846153846155L216.909921875,152.25846153846155L217.19875,153.35384615384615L217.2276328125,151.43692307692308L217.256515625,131.72L217.487578125,160.47384615384615L218.065234375,152.53230769230768L218.75842187499998,156.36615384615385L218.873953125,148.97230769230768L218.93171875000002,143.49538461538464L218.9606015625,151.71076923076924L219.04725,151.43692307692308L219.336078125,142.4L219.59602343749998,134.45846153846153L219.682671875,136.37538461538463L219.97150000000002,156.09230769230768L220.1159140625,158.55692307692308L221.1556953125,153.35384615384615L221.41564062499998,158.00923076923075L221.47340625,155.27076923076925L221.5889375,156.64000000000001L221.76223437500002,149.51999999999998L221.8488828125,157.18769230769232L222.0510625,158.55692307692308L222.28212499999998,125.69538461538461L222.3687734375,112.82461538461538L222.59983593750002,151.43692307692308L222.7153671875,147.0553846153846L222.8308984375,130.0769230769231L223.11972656249998,139.3876923076923L223.14860937499998,147.0553846153846L223.49520312500002,152.53230769230768L223.610734375,142.12615384615384L223.8129140625,153.35384615384615L223.9284453125,150.88923076923078L224.24615624999998,145.13846153846154L224.59275,158.28307692307692L225.054875,122.40923076923077L225.77694531249998,159.6523076923077L226.2101875,99.40615384615384L226.614546875,159.92615384615385L226.730078125,61.34153846153847L226.845609375,136.64923076923077L227.07667187500002,154.72307692307692L227.24996875000002,148.69846153846154L227.27885156250002,150.88923076923078L227.76985937499998,146.78153846153847L228.0298046875,122.13538461538461L228.2031015625,125.96923076923076L228.4341640625,107.07384615384616L228.5208125,131.44615384615386L229.156234375,119.94461538461539L229.6472421875,157.73538461538462L229.7627734375,98.03692307692307L229.9938359375,125.42153846153846L230.080484375,107.89538461538461L230.25378125,106.8L230.77367187500002,90.09538461538462L230.8314375,109.81230769230768L231.351328125,141.30461538461537L231.466859375,63.53230769230769L231.5535078125,103.51384615384616L232.0733984375,27.384615384615387L232.18892968749998,45.184615384615384L232.39110937499998,108.71692307692307L232.7665859375,106.52615384615385L232.9398828125,132.54153846153847L233.3442421875,128.7076923076923L233.69083593750003,125.14769230769232L233.893015625,127.61230769230771L234.12407812499998,122.13538461538461L234.355140625,86.80923076923077L234.3840234375,27.384615384615387L234.52843750000002,84.07076923076923L234.64396875,71.47384615384615L235.01944531249998,91.19076923076923L235.13497656250001,85.16615384615385L235.5393359375,100.77538461538462L235.88592968749998,99.95384615384616L235.91481249999998,79.41538461538461L236.1169921875,104.60923076923078L236.3480546875,108.16923076923078L236.5213515625,104.60923076923078L236.6946484375,27.384615384615387L236.896828125,90.91692307692307L236.95459375000002,85.98769230769231L237.2145390625,97.21538461538462L237.2723046875,99.68L237.3011875,101.32307692307693L237.84996093750001,27.384615384615387L237.936609375,76.40307692307691L238.1965546875,27.384615384615387L238.57203124999998,27.384615384615387L238.8897421875,36.42153846153847L238.976390625,27.384615384615387L239.26521875,27.384615384615387L239.72734375,27.384615384615387L240.0450546875,27.384615384615387L240.5649453125,27.384615384615387L240.8537734375,128.43384615384613L240.88265625,128.98153846153846L241.0270703125,150.88923076923078L241.055953125,151.71076923076924L241.2581328125,148.4246153846154L241.3736640625,153.07999999999998L241.40254687499998,150.34153846153848L241.43142968749999,151.71076923076924L242.06685156249998,154.44923076923075L242.09573437499998,147.6030769230769L242.211265625,149.24615384615385L242.26903124999998,153.90153846153845L242.5289765625,149.79384615384615L242.6445078125,148.4246153846154L242.73115625,147.0553846153846L243.482109375,146.23384615384614L243.5109921875,150.0676923076923L243.7709375,148.69846153846154L243.8575859375,149.51999999999998L243.9731171875,149.24615384615385L244.05976562499998,148.69846153846154L244.34859375,146.78153846153847L244.3774765625,152.53230769230768L244.406359375,150.34153846153848L244.43524218750002,150.88923076923078L244.57965625,147.32923076923078L244.752953125,150.6153846153846L244.868484375,150.88923076923078L244.92624999999998,151.16307692307691L245.388375,150.6153846153846L245.56167187499997,152.53230769230768L245.59055468749997,153.35384615384615L245.82161718749998,154.99692307692308L245.99491406250002,151.71076923076924L246.370390625,150.88923076923078L246.5725703125,145.96L246.86139843750001,145.68615384615384L247.61235156249998,143.76923076923077L248.27665625,72.29538461538462L248.47883593749998,134.7323076923077L248.65213281249999,146.5076923076923L248.73878125,148.97230769230768L249.6341484375,161.84307692307692L249.66303125,161.29538461538462L250.12515625,161.56923076923076L250.1540390625,161.84307692307692L250.44286718749998,161.29538461538462L250.529515625,161.84307692307692L250.58728125000002,160.74769230769232L250.9049921875,161.84307692307692L251.07828906249998,161.56923076923076L251.1649375,161.29538461538462L251.28046875,161.02153846153846L251.74259375000003,160.74769230769232L251.800359375,161.56923076923076L251.8292421875,161.56923076923076L251.9447734375,161.02153846153846L252.031421875,161.84307692307692L252.0891875,157.46153846153845L252.493546875,131.99384615384614L252.60907812500002,136.10153846153847L252.9267890625,140.4830769230769L253.0134375,138.56615384615384L253.59109375,76.12923076923077L253.82215625,116.9323076923077L254.11098437500002,106.8L254.13986718750002,101.59692307692306L254.457578125,90.6430769230769L255.1218828125,27.384615384615387L255.266296875,98.58461538461539L255.75730468749998,112.00307692307693L256.421609375,105.7046153846154L256.479375,112.55076923076922L257.0281484375,129.25538461538463L257.05703125,129.80307692307693L257.17256249999997,135.28L257.28809375000003,122.40923076923077L257.807984375,27.384615384615387L257.98128125,27.384615384615387L258.0101640625,27.384615384615387L259.2232421875,27.384615384615387L259.4543046875,27.384615384615387L259.6853671875,27.384615384615387L259.71425,27.384615384615387L260.2052578125,27.384615384615387L260.43632031249996,27.384615384615387L260.580734375,27.384615384615387L260.69626562499997,27.384615384615387L261.0139765625,27.384615384615387L261.3605703125,27.384615384615387L261.44721875,27.384615384615387L261.504984375,27.384615384615387L261.620515625,27.384615384615387L261.851578125,27.384615384615387L262.9780078125,149.51999999999998L263.584546875,152.25846153846155L263.75784375,156.09230769230768L263.7867265625,159.37846153846155L263.8444921875,158.28307692307692L264.277734375,154.72307692307692L264.4799140625,156.91384615384615L265.14421875,151.71076923076924L265.201984375,154.99692307692308L265.25975,149.51999999999998L265.5774609375,153.35384615384615L265.664109375,154.72307692307692L266.15511718749997,152.80615384615385L266.32841406250003,151.71076923076924L266.703890625,145.41230769230768L267.281546875,145.68615384615384L267.5414921875,87.35692307692307L267.94585156249997,124.0523076923077L268.00361718749997,137.47076923076924L268.0613828125,129.80307692307693L268.32132812500004,89.27384615384615L268.5812734375,108.44307692307693L268.8123359375,78.32L269.3899921875,128.43384615384613L269.44775781249996,121.31384615384616L269.53440625,129.25538461538463L269.592171875,111.45538461538462L269.76546875,113.09846153846155L270.11206250000004,27.384615384615387L270.1409453125,27.384615384615387L270.34312500000004,27.384615384615387L270.4297734375,27.384615384615387L270.5741875,27.384615384615387L270.7763671875,27.384615384615387L270.8341328125,27.384615384615387L272.30715625,129.80307692307693L272.6248671875,88.17846153846155L272.711515625,116.9323076923077L272.8559296875,27.384615384615387L273.0869921875,27.384615384615387L273.3180546875,27.384615384615387L273.43358593749997,27.384615384615387L273.46246874999997,27.384615384615387L273.520234375,27.384615384615387L273.60688281250003,125.42153846153846L273.8090625,27.384615384615387L273.92459375,110.90769230769232L274.040125,27.384615384615387L274.3000703125,27.384615384615387L274.328953125,27.384615384615387L274.4733671875,27.384615384615387L274.5888984375,27.384615384615387L274.61778125,27.384615384615387L275.0510234375,27.384615384615387L275.9175078125,27.384615384615387L275.946390625,27.384615384615387L276.292984375,27.384615384615387L276.4951640625,27.384615384615387L276.639578125,27.384615384615387L277.0439375,49.292307692307695L277.3038828125,27.384615384615387L277.737125,27.384615384615387L277.910421875,27.384615384615387" style="fill: none;" fill="none"></path></g></g></g></g></g></g><g transform="translate(41, 178)" clip-path="url(#clip_1)"><clipPath id="clip_1"><rect width="288" height="22"></rect></clipPath><g><g><line x1="0" y1="0" x2="0" y2="5" style="visibility: inherit;" fill="rgb(0, 0, 0)" stroke="rgb(204, 204, 204)" stroke-width="1px"></line><line x1="28.8828125" y1="0" x2="28.8828125" y2="5" style="visibility: inherit;" fill="rgb(0, 0, 0)" stroke="rgb(204, 204, 204)" stroke-width="1px"></line><line x1="57.765625" y1="0" x2="57.765625" y2="5" style="visibility: inherit;" fill="rgb(0, 0, 0)" stroke="rgb(204, 204, 204)" stroke-width="1px"></line><line x1="86.6484375" y1="0" x2="86.6484375" y2="5" style="visibility: inherit;" fill="rgb(0, 0, 0)" stroke="rgb(204, 204, 204)" stroke-width="1px"></line><line x1="115.53125" y1="0" x2="115.53125" y2="5" style="visibility: inherit;" fill="rgb(0, 0, 0)" stroke="rgb(204, 204, 204)" stroke-width="1px"></line><line x1="144.4140625" y1="0" x2="144.4140625" y2="5" style="visibility: inherit;" fill="rgb(0, 0, 0)" stroke="rgb(204, 204, 204)" stroke-width="1px"></line><line x1="173.296875" y1="0" x2="173.296875" y2="5" style="visibility: inherit;" fill="rgb(0, 0, 0)" stroke="rgb(204, 204, 204)" stroke-width="1px"></line><line x1="202.1796875" y1="0" x2="202.1796875" y2="5" style="visibility: inherit;" fill="rgb(0, 0, 0)" stroke="rgb(204, 204, 204)" stroke-width="1px"></line><line x1="231.0625" y1="0" x2="231.0625" y2="5" style="visibility: inherit;" fill="rgb(0, 0, 0)" stroke="rgb(204, 204, 204)" stroke-width="1px"></line><line x1="259.9453125" y1="0" x2="259.9453125" y2="5" style="visibility: inherit;" fill="rgb(0, 0, 0)" stroke="rgb(204, 204, 204)" stroke-width="1px"></line><line x1="288.828125" y1="0" x2="288.828125" y2="5" style="visibility: inherit;" fill="rgb(0, 0, 0)" stroke="rgb(204, 204, 204)" stroke-width="1px"></line></g><g transform="translate(0, 8)"><text x="0" y="0" dx="0em" dy="0.95em" style="text-anchor: middle; visibility: hidden; font-family: Roboto, sans-serif; font-size: 12px; font-weight: 200;" fill="rgb(50, 49, 63)" stroke="none" stroke-width="1px">-1k</text><text x="28.8828125" y="0" dx="0em" dy="0.95em" style="text-anchor: middle; visibility: inherit; font-family: Roboto, sans-serif; font-size: 12px; font-weight: 200;" fill="rgb(50, 49, 63)" stroke="none" stroke-width="1px">0</text><text x="57.765625" y="0" dx="0em" dy="0.95em" style="text-anchor: middle; visibility: inherit; font-family: Roboto, sans-serif; font-size: 12px; font-weight: 200;" fill="rgb(50, 49, 63)" stroke="none" stroke-width="1px">1k</text><text x="86.6484375" y="0" dx="0em" dy="0.95em" style="text-anchor: middle; visibility: inherit; font-family: Roboto, sans-serif; font-size: 12px; font-weight: 200;" fill="rgb(50, 49, 63)" stroke="none" stroke-width="1px">2k</text><text x="115.53125" y="0" dx="0em" dy="0.95em" style="text-anchor: middle; visibility: inherit; font-family: Roboto, sans-serif; font-size: 12px; font-weight: 200;" fill="rgb(50, 49, 63)" stroke="none" stroke-width="1px">3k</text><text x="144.4140625" y="0" dx="0em" dy="0.95em" style="text-anchor: middle; visibility: inherit; font-family: Roboto, sans-serif; font-size: 12px; font-weight: 200;" fill="rgb(50, 49, 63)" stroke="none" stroke-width="1px">4k</text><text x="173.296875" y="0" dx="0em" dy="0.95em" style="text-anchor: middle; visibility: inherit; font-family: Roboto, sans-serif; font-size: 12px; font-weight: 200;" fill="rgb(50, 49, 63)" stroke="none" stroke-width="1px">5k</text><text x="202.1796875" y="0" dx="0em" dy="0.95em" style="text-anchor: middle; visibility: inherit; font-family: Roboto, sans-serif; font-size: 12px; font-weight: 200;" fill="rgb(50, 49, 63)" stroke="none" stroke-width="1px">6k</text><text x="231.0625" y="0" dx="0em" dy="0.95em" style="text-anchor: middle; visibility: inherit; font-family: Roboto, sans-serif; font-size: 12px; font-weight: 200;" fill="rgb(50, 49, 63)" stroke="none" stroke-width="1px">7k</text><text x="259.9453125" y="0" dx="0em" dy="0.95em" style="text-anchor: middle; visibility: inherit; font-family: Roboto, sans-serif; font-size: 12px; font-weight: 200;" fill="rgb(50, 49, 63)" stroke="none" stroke-width="1px">8k</text><text x="288.828125" y="0" dx="0em" dy="0.95em" style="text-anchor: middle; visibility: hidden; font-family: Roboto, sans-serif; font-size: 12px; font-weight: 200;" fill="rgb(50, 49, 63)" stroke="none" stroke-width="1px">9k</text></g><line x1="0" y1="0" x2="288.828125" y2="0" fill="rgb(0, 0, 0)" stroke="rgb(204, 204, 204)" stroke-width="1px"></line></g></g></g></g></svg>