<svg viewBox="0 0 330 200" xmlns="http://www.w3.org/2000/svg"><g><g><g><g><g><line x1="82.734375" y1="169.4685129737594" x2="77.734375" y2="169.4685129737594" style="visibility: inherit;" fill="rgb(0, 0, 0)" stroke="rgb(204, 204, 204)" stroke-width="1px"></line><line x1="82.734375" y1="148.83622347278092" x2="77.734375" y2="148.83622347278092" style="visibility: inherit;" fill="rgb(0, 0, 0)" stroke="rgb(204, 204, 204)" stroke-width="1px"></line><line x1="82.734375" y1="128.2039339718024" x2="77.734375" y2="128.2039339718024" style="visibility: inherit;" fill="rgb(0, 0, 0)" stroke="rgb(204, 204, 204)" stroke-width="1px"></line><line x1="82.734375" y1="107.57164447082393" x2="77.734375" y2="107.57164447082393" style="visibility: inherit;" fill="rgb(0, 0, 0)" stroke="rgb(204, 204, 204)" stroke-width="1px"></line><line x1="82.734375" y1="86.93935496984543" x2="77.734375" y2="86.93935496984543" style="visibility: inherit;" fill="rgb(0, 0, 0)" stroke="rgb(204, 204, 204)" stroke-width="1px"></line><line x1="82.734375" y1="66.30706546886694" x2="77.734375" y2="66.30706546886694" style="visibility: inherit;" fill="rgb(0, 0, 0)" stroke="rgb(204, 204, 204)" stroke-width="1px"></line><line x1="82.734375" y1="45.67477596788845" x2="77.734375" y2="45.67477596788845" style="visibility: inherit;" fill="rgb(0, 0, 0)" stroke="rgb(204, 204, 204)" stroke-width="1px"></line><line x1="82.734375" y1="25.04248646690994" x2="77.734375" y2="25.04248646690994" style="visibility: inherit;" fill="rgb(0, 0, 0)" stroke="rgb(204, 204, 204)" stroke-width="1px"></line><line x1="82.734375" y1="4.410196965931449" x2="77.734375" y2="4.410196965931449" style="visibility: inherit;" fill="rgb(0, 0, 0)" stroke="rgb(204, 204, 204)" stroke-width="1px"></line></g><g transform="translate(72.734375, 0)"><text x="0" y="169.4685129737594" dx="0em" dy="0.3em" style="text-anchor: end; visibility: inherit; font-family: Roboto, sans-serif; font-size: 12px; font-weight: 200;" fill="rgb(50, 49, 63)" stroke="none" stroke-width="1px">-1.4e+3</text><text x="0" y="148.83622347278092" dx="0em" dy="0.3em" style="text-anchor: end; visibility: hidden; font-family: Roboto, sans-serif; font-size: 12px; font-weight: 200;" fill="rgb(50, 49, 63)" stroke="none" stroke-width="1px">-1.2e+3</text><text x="0" y="128.2039339718024" dx="0em" dy="0.3em" style="text-anchor: end; visibility: inherit; font-family: Roboto, sans-serif; font-size: 12px; font-weight: 200;" fill="rgb(50, 49, 63)" stroke="none" stroke-width="1px">-1e+3</text><text x="0" y="107.57164447082393" dx="0em" dy="0.3em" style="text-anchor: end; visibility: hidden; font-family: Roboto, sans-serif; font-size: 12px; font-weight: 200;" fill="rgb(50, 49, 63)" stroke="none" stroke-width="1px">-800</text><text x="0" y="86.93935496984543" dx="0em" dy="0.3em" style="text-anchor: end; visibility: inherit; font-family: Roboto, sans-serif; font-size: 12px; font-weight: 200;" fill="rgb(50, 49, 63)" stroke="none" stroke-width="1px">-600</text><text x="0" y="66.30706546886694" dx="0em" dy="0.3em" style="text-anchor: end; visibility: hidden; font-family: Roboto, sans-serif; font-size: 12px; font-weight: 200;" fill="rgb(50, 49, 63)" stroke="none" stroke-width="1px">-400</text><text x="0" y="45.67477596788845" dx="0em" dy="0.3em" style="text-anchor: end; visibility: inherit; font-family: Roboto, sans-serif; font-size: 12px; font-weight: 200;" fill="rgb(50, 49, 63)" stroke="none" stroke-width="1px">-200</text><text x="0" y="25.04248646690994" dx="0em" dy="0.3em" style="text-anchor: end; visibility: hidden; font-family: Roboto, sans-serif; font-size: 12px; font-weight: 200;" fill="rgb(50, 49, 63)" stroke="none" stroke-width="1px">0</text><text x="0" y="4.410196965931449" dx="0em" dy="0.3em" style="text-anchor: end; visibility: hidden; font-family: Roboto, sans-serif; font-size: 12px; font-weight: 200;" fill="rgb(50, 49, 63)" stroke="none" stroke-width="1px">200</text></g><line x1="82.734375" y1="0" x2="82.734375" y2="178" fill="rgb(0, 0, 0)" stroke="rgb(204, 204, 204)" stroke-width="1px"></line></g></g><g transform="translate(82, 0)" clip-path="url(#clip_0)"><clipPath id="clip_0"><rect width="247" height="178"></rect></clipPath><g><g><g><line x1="7.684277434358921" y1="0" x2="7.684277434358921" y2="178" fill="rgb(0, 0, 0)" stroke="rgb(60, 60, 60)" stroke-width="1px" opacity="0.25"></line><line x1="32.07030165331065" y1="0" x2="32.07030165331065" y2="178" fill="rgb(0, 0, 0)" stroke="rgb(60, 60, 60)" stroke-width="1px" opacity="0.25"></line><line x1="56.456325872262376" y1="0" x2="56.456325872262376" y2="178" fill="rgb(0, 0, 0)" stroke="rgb(60, 60, 60)" stroke-width="1px" opacity="0.25"></line><line x1="80.8423500912141" y1="0" x2="80.8423500912141" y2="178" fill="rgb(0, 0, 0)" stroke="rgb(60, 60, 60)" stroke-width="1px" opacity="0.25"></line><line x1="105.22837431016583" y1="0" x2="105.22837431016583" y2="178" fill="rgb(0, 0, 0)" stroke="rgb(60, 60, 60)" stroke-width="1px" opacity="0.25"></line><line x1="129.61439852911755" y1="0" x2="129.61439852911755" y2="178" fill="rgb(0, 0, 0)" stroke="rgb(60, 60, 60)" stroke-width="1px" opacity="0.25"></line><line x1="154.0004227480693" y1="0" x2="154.0004227480693" y2="178" fill="rgb(0, 0, 0)" stroke="rgb(60, 60, 60)" stroke-width="1px" opacity="0.25"></line><line x1="178.38644696702102" y1="0" x2="178.38644696702102" y2="178" fill="rgb(0, 0, 0)" stroke="rgb(60, 60, 60)" stroke-width="1px" opacity="0.25"></line><line x1="202.77247118597273" y1="0" x2="202.77247118597273" y2="178" fill="rgb(0, 0, 0)" stroke="rgb(60, 60, 60)" stroke-width="1px" opacity="0.25"></line><line x1="227.15849540492448" y1="0" x2="227.15849540492448" y2="178" fill="rgb(0, 0, 0)" stroke="rgb(60, 60, 60)" stroke-width="1px" opacity="0.25"></line></g><g><line x1="0" y1="169.4685129737594" x2="247.265625" y2="169.4685129737594" fill="rgb(0, 0, 0)" stroke="rgb(60, 60, 60)" stroke-width="1px" opacity="0.25"></line><line x1="0" y1="148.83622347278092" x2="247.265625" y2="148.83622347278092" fill="rgb(0, 0, 0)" stroke="rgb(60, 60, 60)" stroke-width="1px" opacity="0.25"></line><line x1="0" y1="128.2039339718024" x2="247.265625" y2="128.2039339718024" fill="rgb(0, 0, 0)" stroke="rgb(60, 60, 60)" stroke-width="1px" opacity="0.25"></line><line x1="0" y1="107.57164447082393" x2="247.265625" y2="107.57164447082393" fill="rgb(0, 0, 0)" stroke="rgb(60, 60, 60)" stroke-width="1px" opacity="0.25"></line><line x1="0" y1="86.93935496984543" x2="247.265625" y2="86.93935496984543" fill="rgb(0, 0, 0)" stroke="rgb(60, 60, 60)" stroke-width="1px" opacity="0.25"></line><line x1="0" y1="66.30706546886694" x2="247.265625" y2="66.30706546886694" fill="rgb(0, 0, 0)" stroke="rgb(60, 60, 60)" stroke-width="1px" opacity="0.25"></line><line x1="0" y1="45.67477596788845" x2="247.265625" y2="45.67477596788845" fill="rgb(0, 0, 0)" stroke="rgb(60, 60, 60)" stroke-width="1px" opacity="0.25"></line><line x1="0" y1="25.04248646690994" x2="247.265625" y2="25.04248646690994" fill="rgb(0, 0, 0)" stroke="rgb(60, 60, 60)" stroke-width="1px" opacity="0.25"></line><line x1="0" y1="4.410196965931449" x2="247.265625" y2="4.410196965931449" fill="rgb(0, 0, 0)" stroke="rgb(60, 60, 60)" stroke-width="1px" opacity="0.25"></line></g></g></g><g><g><line x1="0" y1="25.04248646690994" x2="247.265625" y2="25.04248646690994" fill="rgb(0, 0, 0)" stroke="rgb(153, 153, 153)" stroke-width="1.5px"></line></g></g><g><g><line x1="32.07030165331065" y1="0" x2="32.07030165331065" y2="178" fill="rgb(0, 0, 0)" stroke="rgb(153, 153, 153)" stroke-width="1.5px"></line></g></g><g><g><g><g><g><path stroke="rgb(51, 187, 238)" stroke-width="2px" d="M32.289775871281215,37.03861812898301L32.58240816190864,34.20901405856201L32.618987198237065,38.268031219241166L32.7531103314413,38.05047607266722L32.93600551308344,72.4361508956108L32.97258454941186,36.61912830669834L33.216444791601376,53.31505725597482L33.96021853027941,43.382795111699906L33.99679756660784,51.10008782596219L34.10653467559312,52.98310355086775L34.862501426380625,64.93036259895943L34.923466486928,60.415618867824875L35.179519741227,56.31121012746665L35.24048480177438,68.13392860882038L35.32583588654071,77.58229872245741L35.39899395919756,73.91715400992582L35.82574938302921,84.29768134672007L35.85013540724817,90.47545829771427L35.947679504123975,101.41447826527555L36.301276855298774,97.31946954196171L36.54513709748829,132.07201442655918L37.203559751399986,99.4557492109559L37.215752763509464,77.86844875964525L37.459613005698984,64.14634215486618L37.67908722366955,86.47984814385491L37.84978939320221,77.82468186162832L38.605756143989716,78.72642291654651L38.934967470945566,126.7175509212764L39.130055664697174,70.28288654898067L39.215406749463504,76.92508484553476L39.22759976157298,99.68198065692918L39.629969161185684,89.12842235805772L39.80067133071835,63.29192632190217L39.89821542759416,129.92116897999063L39.959180488141534,172.6975251959219L39.98356651236049,108.98307546493176L40.1298826576742,152.1101770762189L40.25181277876895,122.98675858491548L40.77611229947642,87.90507478515656L40.873656396352224,114.12379948441566L40.971200493228025,142.89912458299483L41.288218808074404,124.10840745219296L41.39795591705968,150.4561151491292L41.44672796549759,74.6386024802739L41.47111398971654,66.00417278646705L41.64181615924921,68.21305099970283L41.66620218346816,86.53325237400172L41.75155326823449,63.98658346075034L41.849097365110296,67.83261571798084L41.92225543776715,62.714378522043354L42.263659776832476,61.009590869766555L43.15374966082421,48.0335446389335L43.55611906043691,63.41421406182112L43.592698096765346,138.99274110199465L43.79997930262643,94.89420619925403L43.90971641161171,110.43039810480924L43.92190942372119,64.78703535223104L43.99506749637805,89.40654844850049L44.00726050848752,71.24559348676408L44.0682255690349,92.28239986640307L44.287699787005465,68.32501454583182L44.32427882333389,78.0474391026539L44.43401593231918,69.6868943538739L45.031473525683495,99.5096393338447L45.06805256201192,70.54908963546683L45.141210634668774,61.726885328764766L45.21436870732563,79.83068864047272L45.275333767873015,107.1139316082951L45.39726388896777,88.94187426217746L45.47042196162462,83.35123360258432L45.531387022172005,75.8147402819825L46.16542365186475,120.37120225546107L46.22638871241213,78.45863149964607L46.2385817245216,105.75687974324919L46.45805594249217,64.84714208591618L46.616565099915356,68.73403108963707L46.775074257338545,67.62588133231915L47.23840871749862,87.40494914370964L47.445689923359716,91.74214649581761L47.689550165549235,77.36699942205318L48.11630558938089,102.3346086934059L48.15288462570931,78.6627974974142L48.32358679524198,78.25637608924335L48.37235884367988,90.25385729164962L48.95762342493472,91.90608246154675L49.042974509701054,112.91598989875293L49.31122077610952,83.75499228236346L49.457536921423234,75.12581181167903L49.57946704251799,76.21339486288912L49.945257405802266,69.130112170692L50.0793805390065,57.256180666712154L50.17692463588231,87.45842058628355L50.25008270853917,68.57094738371397L50.64025909604239,71.44120691157082L50.689031144480296,90.93314332088882L50.99385644721719,74.01100540608488L51.188944640968806,110.07704852493885L51.201137653078284,75.36702729925126L51.384032834720415,85.27499473030734L51.43280488315832,64.74344658159865L51.64008608901941,71.17012479602826L52.06684151285107,70.56620592574502L52.16438560972688,71.59875907472252L52.40824585191639,75.85117589129021L52.57894802144906,47.51612110811535L52.68868513043434,41.31629113527411L52.76184320309119,59.38425866647733L52.82280826363857,69.30190469798522L52.9081593484049,73.53843477569409L53.01789645739019,50.15044446098166L53.18859862692285,76.56792230907334L53.2129846511418,58.45563858013259L53.24956368747023,68.46887332199825L53.35930079645551,49.734743265104996L53.786056220287165,67.2992687407998L54.07868851091458,71.52481742080865L54.33474176521358,65.94624583884841L54.55421598318414,46.49946586580106L54.66395309216942,52.98333306374936L54.82246224959261,58.94952756576398L54.859041285921045,52.77441348148857L54.95658538279685,44.209664213705814L55.444305867175885,55.93495668369846L55.65158707303697,41.14720963777871L55.773517194131735,54.32340113141663L55.81009623046016,66.14844304351894L56.05395647264968,55.93017788300164L56.24904466640129,55.57967033042137L56.46851888437185,50.52183517389519L56.614835029685565,51.84396556857424L56.82211623554666,42.307353421837696L56.895274308203504,51.611482890966506L57.187906598830935,45.13748452000551L57.34641575625412,50.22885704759976L57.38299479258255,47.255165690297716L57.39518780469202,53.787156113608575L57.49273190156783,52.304412713830295L57.54150395000573,57.782568682006115L57.62685503477206,47.3280740921935L58.224312628136374,45.64821385090197L58.27308467657428,51.691414856810674L58.358435761340615,30.400138872708943L58.468172870325894,47.89504036653489L58.73641913673436,45.23941534657586L58.785191185172266,40.7905079163893L58.882735282048074,40.58427862671664L58.98027937892388,52.51301088022582L59.029051427361786,46.54987816140124L59.2729116695513,39.45249202470393L59.33387673009869,49.587827360232374L59.34606974220816,53.68224370249223L59.40703480275554,41.35773851316624L59.553350948069244,42.57968211755034L59.58992998439768,40.51371165694846L59.65089504494505,41.675518942845L59.882562275025094,48.99710963524344L60.07765046877671,2.568577150269393L60.19958058987147,29.315702067540254L60.34589673518518,46.001516320787864L60.66291505003156,51.708799699382986L60.772652159016836,31.36061970851165L61.199407582848494,26.923373881218453L61.211600594957964,39.96019067602106L61.23598661917692,39.850409364602214L61.772479151993856,44.715014889369805L61.870023248869664,28.957900068754302L61.97976035785494,40.68348615011061L62.004146382073905,41.176923956525634L62.06511144262128,41.11653026480684L62.369936745358174,40.70190448401337L62.38212975746765,45.642304658293405L62.5040598785624,44.150438859143286L62.528445902781364,43.46775549644738L62.58941096332874,38.86403967053468L62.7601131328614,38.99531449660582L62.83327120551826,43.447628043523046L62.943008314503544,51.68314899047381L63.12590349614567,43.436634531314645L63.199061568802534,45.38935085322891L63.7721331379479,35.27749032739377L63.84529121060475,38.5856950666448L64.05257241646585,39.266587228997615L64.1257304891227,34.718006164643796L64.72318808248701,43.057355938473926L64.80853916725334,47.92612900774354L64.86950422780072,37.4251545149495L65.02801338522391,38.492410338764486L65.4791548332745,41.38993262278595L65.64985700280718,32.00383777633371L66.07661242663883,35.0778269838475L67.08863243172533,33.07421487681894L67.19836954071062,29.28740869596516L67.3081066496959,32.378108625152976L67.38126472235275,44.02554463099344L67.67389701298018,26.860541215129L68.24696858212553,29.633031523731276L68.34451267900134,30.840270577006653L68.78346111494248,43.884122190100584L68.9785493086941,31.239027293056747L69.01512834502252,39.110826713872456L69.11267244189833,27.6051347694639L69.14925147822676,37.360208095503474L69.44188376885418,41.926687631042626L69.49065581729208,25.978615031588603L69.85644618057636,42.104133449017226L70.31978064073644,28.90336654011402L70.539254858707,27.473717713909327L70.61241293136386,37.52203214598114L70.80750112511546,35.21737918300721L71.02697534308604,6.13897821902482L71.03916835519551,32.82098185080484L71.45373076691769,37.87657262545549L71.57566088801245,45.40095638490279L71.61223992434087,41.7289085028481L71.62443293645035,31.184766043091027L71.6488189606693,35.731493497325765L71.66101197277878,28.452556688862835L71.96583727551568,33.70233559765782L72.36820667512838,34.83527455449159L72.85592715950742,41.412833612153705L73.23391053490117,38.35564569475186L73.56312186185701,49.89279537432006L73.62408692240439,42.2721752918278L73.89233318881287,36.53928485272383L74.1240004188929,27.854012823955813L74.30689560053504,26.34083611548878L74.50198379428666,28.84672075496303L74.85558114546147,41.91167238245838L74.89216018178988,35.958737391344755L75.19698548452678,47.82776346212058L75.51400379937314,37.57371933547363L75.72128500523424,40.46948711504347L75.96514524742376,41.22265025361694L76.18461946539432,32.1483385187959L76.20900548961328,46.86298963094781L76.23339151383223,37.54274063172232L76.30654958648908,31.293310191565535L76.64795392555442,37.31662682437202L76.81865609508708,30.13761381518835L77.50146477321772,37.561761382666674L77.55023682165562,36.82581895321537L77.68435995485986,28.786775872586205L78.06234333025361,39.93169899951811L78.15988742712942,44.76589551615839L78.3183965845526,31.01971495569435L78.37936164509998,43.126452594665395L78.57444983885159,46.839209282826836L78.63541489939897,36.276524856490475L78.65980092361794,32.955137114395164L78.78173104471269,30.97636689814175L78.83050309315058,29.972531600882537L79.1841004443254,32.56533021059443L79.3304165896391,32.58363562210107L79.96445321933184,47.823628517366416L80.09857635253609,37.35535997729109L80.30585755839716,38.12777338068215L80.6472618974625,43.15708751624311L80.96428021230886,36.83870629649978L81.11059635762258,28.27057687315323L81.24471949082681,44.3591090127039L81.28129852715524,36.36798642077954L81.97630021739536,37.14545798015968L82.03726527794275,44.409541891015294L82.04945829005221,47.817801376964404L82.17138841114698,46.73976984942371L83.06147829513871,41.18361898496392L83.19560142834294,34.712813827191454L83.20779444045243,40.799554876609626L83.23218046467137,43.10822632384623L83.29314552521875,43.44133126291708L83.30533853732824,37.722507970399825L83.61016384006514,29.18784337392723L83.67112890061252,36.51749379603039L83.70770793694093,45.06225279812833L83.80525203381674,47.51532927790862L84.04911227600626,36.267597454573334L84.08569131233469,50.1647692907731L84.09788432444417,34.23657296777705L84.2807795060863,40.92834434410029L84.54902577249477,38.98500387588347L84.70753492991795,52.66630120951604L84.7319209541369,36.9356007279401L84.89043011156011,46.66956369819803L85.3415715596107,51.43165824861205L85.63420385023812,35.50102942756454L85.71955493500445,43.62315816047077L85.7927130076613,49.90366920602836L86.08534529828873,46.480500893002535L86.12192433461716,40.475933909549184L86.84131204907624,42.62173669587599L87.04859325493733,46.465375790600575L87.0607862670468,30.689659609578367L87.30464650923632,41.06194688714151L87.34122554556474,46.178142910730955L87.45096265455003,44.52309797777126L87.88991109049115,52.805730742891164L87.92649012681959,50.937699211647626L88.1215783205712,39.814992608612094L88.49956169596496,35.893203734970186L88.84096603503028,50.07917635679973L88.93851013190609,45.367163394446905L88.987282180344,39.13951511354287L89.08482627721979,41.34803104362398L89.21894941042403,42.10298889467934L89.5359677252704,55.227939893358204L89.59693278581777,41.32189508930079L89.79202097956939,52.08135434419217L89.987109173321,37.34013273784211L90.08465327019681,41.9655660087013L90.1943903791821,36.22041748734644L90.30412748816738,43.36719668591289L90.43825062137161,38.626185282928844L90.45044363348109,39.2956990160812L90.5967597787948,40.643535682460495L90.62114580301375,31.559817143955502L91.08448026317383,39.97448350239558L91.23079640848754,51.19105912640155L91.46246363856758,46.98480698334299L91.74290291708553,38.078687187980876L91.98676315927504,49.3497005364279L92.57202774052989,36.34998510532119L92.68176484951518,34.421815861684614L92.7183438858436,55.238557544704996L92.74272991006255,45.85753750235508L93.36457352764582,39.2109153698206L93.40115256397425,55.70049720929823L93.64501280616378,57.370435938808996L93.66939883038272,35.28421901265241L93.6815918424922,41.63022012471047L93.76694292725853,42.150329685853144L93.98641714522908,51.49812255069362L94.32782148429442,45.03070277469386L94.57168172648393,47.413397438407024L94.66922582335974,44.16751096665581L95.04720919875349,54.55342166429413L95.25449040461459,53.590025696136735L95.47396462258514,50.138926774007345L95.57150871946095,51.1082792537022L95.9494920948547,36.494788351143896L96.27870342181055,56.815234643779846L96.5591427003285,40.40811426046047L96.91274005150329,38.754693369039984L97.04686318470753,42.20925889234999L97.24195137845915,45.408234254842775L97.41265354799181,43.79602830153263L97.6687068022908,50.94622684196954L98.15642728666984,45.82687126123667L98.4246735530783,56.176875328290656L98.48563861362568,50.99787770813011L98.93678006167629,47.15647747492516L99.07090319488051,58.08284371140847L99.14406126753738,45.62680097383478L99.31476343707004,38.19469946615262L99.339149461289,36.531404530758614L99.72932584879221,42.232713092771704L100.02195813941964,44.72202518031647L100.16827428473336,57.82329281347961L100.1926603089523,40.461786325342786L100.26581838160917,58.188929687993486L100.41213452692287,50.36479647962857L100.71695982965977,42.40782895631157L101.05836416872509,41.286926858067055L101.08275019294405,35.81021667430696L101.13152224138194,40.81944298611654L101.31441742302408,47.90091099304597L101.8143309195126,37.48251486468977L101.85090995584102,40.725526379137335L102.49713959764324,44.823610815678244L102.53371863397167,43.05149095898814L102.65564875506642,54.87664429199392L102.875122973037,33.601769115177625L102.88731598514647,56.537679430742344L103.09459719100757,49.65152866493536L103.13117622733598,35.233786549327114L103.54573863905817,57.54053401097813L103.57012466327711,47.32181378058447L103.65547574804344,46.9692317460163L103.98468707499929,44.5290361312744L104.09442418398459,38.06295054397029L104.35047743828358,57.499878675626434L104.64310972891099,44.622109682297655L104.70407478945837,48.77339181225791L104.77723286211523,47.81406900706166L105.10644418907107,41.40556865511408L105.3503044312606,41.44761796016162L105.41126949180797,38.00219972129972L105.59416467345011,41.761891169891946L105.65512973399748,41.203544642638605L106.17942925470494,40.371983616877884L106.48425455744184,28.876898939591808L106.5086405816608,51.76507430060133L106.70372877541242,39.16239737440573L106.72811479963137,33.874035708476356L106.80127287228822,47.69697884535483L106.82565889650718,44.85047292670817L107.04513311447774,57.8208470790629L107.3255723929957,42.45710910023473L107.43530950198097,51.058671493998695L107.666976732061,47.08571547854689L107.80109986526524,41.6417990524013L107.82548588948418,53.081847086444405L107.89864396214105,35.18021070369375L108.05715311956423,49.33787927394816L108.2766273375348,43.58818942451068L108.75215480980437,48.13501333568771L109.0325940883223,42.48368226997147L109.08136613676021,40.733139844840515L109.09355914886969,45.71377017290333L109.17891023363602,35.386748148580416L109.38619143949711,59.2222867832487L109.52031457270135,44.350248242441474L109.65443770590558,50.11648919366272L109.73978879067191,45.62167623094224L109.81294686332876,44.34933978119814L110.10557915395619,55.59204905276086L110.82496686841526,38.59902363639472L111.26391530435639,30.36891660406832L111.27610831646587,56.13296115983919L111.32488036490378,34.035001290556714L111.56874060709329,49.81461529044892L111.58093361920277,44.92307741441459L111.59312663131223,56.299507559153085L111.69067072818804,53.77916340154009L112.22716326100497,45.88632873174632L112.3125143457713,76.65414607370685L112.34909338209974,62.074515069920864L112.58076061217977,40.22040375999191L113.23918326609147,49.84499752242549L113.34892037507676,42.67297739698382L113.37330639929571,55.15616157038224L113.42207844773363,48.236778691098245L113.49523652039046,37.853286517282115L113.5318155567189,56.01696683136033L113.61716664148524,43.9842443521438L113.71471073836103,40.23563198568554L113.75128977468947,26.15298684440465L113.89760592000317,38.43495170472908L114.22681724695902,43.800697924414855L114.27558929539693,50.06226046889194L114.40971242860117,38.84290323218168L114.5438355618054,48.58248779481473L115.37296038524975,45.5273983608591L115.54366255478241,57.764564898977625L115.64120665165822,46.08525191144236L115.81190882119088,34.06382520135229L115.82410183330036,47.53801984239523L116.14112014814674,52.257295375673095L116.3118223176794,47.59495474071954L116.61664762041629,39.161021952044706L116.97024497159109,42.20682807744813L117.00682400791952,31.012272063874377L117.3238423227659,9.018537340363805L117.54331654073646,39.32205745771944L117.59208858917437,46.936909977414054L117.89691389191125,49.44866448965166L118.21393220675763,41.5591273319832L118.53095052160401,38.23588636872387L118.71384570324614,48.82651537208956L118.81138980012194,42.23773430586153L118.82358281223142,56.551843801391804L119.0918290786399,37.56163947930505L119.14060112707779,6.369953044379469L119.31130329661046,44.77536734642669L119.79902378098949,53.99113734816165L119.90876088997477,52.40011111489301L120.05507703528848,36.01972294391421L120.28674426536853,35.09177622406628L120.32332330169696,58.503785308317084L120.43306041068224,40.79466290589466L121.07929005248445,44.72988229458692L121.2134131856887,52.714000165586675L121.43288740365925,44.328409333338335L121.55481752475403,40.235219395557266L121.56701053686349,40.386868196919245L121.78648475483406,41.00629355769502L121.79867776694353,33.28928864466023L122.07911704546149,44.608655873912284L122.12788909389938,32.980575074925845L122.31078427554152,24.203646821047304L122.6765746388258,52.51434162891903L122.78631174781108,25.422118766751147L122.8228907841395,47.41868407713648L122.90824186890583,10.080618158093676L123.0301719900006,41.446805546832934L123.06675102632903,34.65428729906138L123.1277160868764,9.334207652851235L123.24964620797117,42.4725581071396L123.54227849859858,46.21264026398683L123.65201560758388,62.77567305108261L123.88368283766391,52.57922178118725L124.09096404352499,57.5613368132416L124.84693079431248,62.326756684527865L125.27368621814416,40.91675748538909L125.48096742400526,42.8146091889052L125.6028975451,49.8143439561676L125.66386260564737,42.390319153163674L125.79798573885162,43.69037687447567L125.87114381150846,39.166145842524394L125.95649489627479,50.347746016665496L126.17596911424536,45.48306380690387L126.23693417479275,43.24296467578279L126.29789923534014,63.43450383460646L126.5173734533107,52.93391612605474L126.65149658651492,48.77981794301623L126.68807562284334,41.61597336042114L126.93193586503288,48.58752868740579L127.02947996190869,38.95479845724487L127.15141008300344,14.644243456705285L127.29772622831715,49.782827112960646L127.57816550683509,41.20301939980548L127.63913056738248,44.871513338819376L128.3829043060605,3.5673052016747113L128.39509731816997,44.62839573850945L128.7852737056732,47.82841770188324L129.30957322638068,46.10836062298841L129.40711732325647,46.99790669966712L129.5046614201323,47.30567512602578L129.51685443224176,57.512212072193L129.93141684396394,47.273673580238736L130.06553997716816,53.504462823625104L130.2118561224819,7.6408940624407675L130.41913732834297,23.74391011981226L131.15071805491152,46.017320146929464L131.44335034553896,37.62954798593647L131.8091407088232,46.66362115377939L131.85791275726112,50.39965500384685L132.0286149267938,51.50795465769946L132.2358961326549,45.320224869537135L132.30905420531172,47.68041608403664L132.8211607139097,46.70662091234889L133.01624890766132,53.721850865926605L133.1503720408656,41.48551213212084L133.26010914985085,5.122507970410336L133.35765324672667,30.39187153359023L133.60151348891617,32.89548125246684L133.62589951313512,48.804862029210845L133.66247854946357,29.85032173774081L133.6868645736825,38.53464119415687L133.76002264633937,19.107212117599076L134.0038828885289,40.31585213639202L134.04046192485728,25.690612350661514L134.1014269854047,38.648267521671364L134.21116409438997,42.562236043676734L135.06467494205327,44.031240978512365L135.3085351842428,11.310825602160055L135.32072819635226,35.908359626689965L135.34511422057122,35.70444603189224L135.51581639010388,50.78489285838191L135.5645884385418,68.21289225434784L135.67432554752708,59.79917269393318L135.68651855963654,26.224964364802933L135.7474836201839,43.37321588341775L135.80844868073132,52.99214881994308L135.99134386237344,49.192783740777706L136.36932723776718,47.80383123299931L136.51564338308089,41.69564843145584L136.60099446784722,40.78850561596079L136.66195952839462,46.54068164024462L136.83266169792728,40.91373948692213L136.94239880691256,42.28723839619721L137.25941712175893,39.30303533281618L137.3447682065253,35.146184514420334L137.35696121863475,44.82877852435445L137.46669832762004,40.36467072881103L137.9300327877801,42.241796632393346L138.0275768846559,69.63141000699987L138.0397698967654,47.30792666529997L138.0885419452033,50.935609227886246L138.47871833270653,45.87410140567336L139.0517899018519,50.69055759665789L139.1005619502898,45.63895264288221L139.32003616826034,37.009044654805955L139.38100122880772,25.09159171214748L139.60047544677832,40.596635690696935L139.63705448310674,43.32645511240032L139.8931077374057,42.436338746498684L140.02723087060997,42.757639645216045L140.31986316123738,56.38149283984004L140.40521424600368,31.783522600491466L140.6124954518648,45.19538475783088L140.63688147608374,31.675136912996138L140.67346051241216,31.645790329784205L140.92951376671118,47.48556556513565L140.95389979093014,58.085407847893514L141.01486485147748,69.24253747257525L141.14898798468175,45.35949662559126L141.29530412999543,39.82527044030213L141.50258533585654,45.501033062180184L141.72205955382708,65.48155842762773L141.79521762648395,47.266481928695875L141.9171477475787,4.779223829741059L142.13662196554927,35.882159422113816L142.14881497765873,38.2312372201356L142.47802630461462,57.816583988112264L142.5755704014904,68.28071071106727L142.69750052258516,59.55539801366669L142.8316236557894,39.101937674194055L143.08767691008842,54.83248029149467L143.30715112805896,36.11604778422953L143.6973275155622,45.40880142608931L143.7826786003285,65.71887911356946L144.41671523002128,47.12184222340114L144.4411012542402,65.08388304376655L144.563031375335,56.69971449288839L144.64838246010132,46.59214925395955L144.97759378705715,69.21412206987029L145.23364704135616,41.80664727907526L145.3555771624509,43.40616401805814L145.55066535620253,48.33778532440427L145.57505138042148,43.22215809270689L145.66040246518781,65.85655464321987L146.05057885269105,40.56957178436523L146.1115439132384,42.27432298400992L146.24566704644263,24.485133058705706L146.30663210699,40.78701169590397L146.83093162769748,14.999623602758328L146.86751066402593,38.53428466749449L147.11137090621543,43.639412634281086L147.1845289788723,42.649529073159925L147.19672199098176,46.93268389017214L147.51374030582815,44.043396680324996L147.59909139059448,41.86670848828025L148.36725115349145,40.99944525228436L148.4769882624767,6.582830229810119L148.56233934724307,0.8296075471624933L148.5989183835715,35.59526737948551L148.68426946833782,43.08098486651634L148.72084850466626,34.2144688542188L148.98909477107472,39.9504286670337L149.12321790427896,64.33694192221594L149.25734103748317,55.376968659318294L149.40365718279688,45.42452797827255L149.41585019490637,46.394127255235226L149.45242923123482,41.041134804501944L149.74506152186223,24.16045184380987L149.81821959451906,42.224704920735505L150.098658873037,62.52609374526933L150.22058899413176,47.06673665593988L150.31813309100758,54.43720085423855L151.0619068296856,63.35265061498175L151.1716439386709,41.104997415766725L151.2813810476562,60.11302732044097L151.70813647148785,61.59389732095647L152.04954081055314,72.46657780418168L152.08611984688156,45.70973937275952L152.5738403312606,56.48261457472349L152.86647262188802,42.40748347405693L152.9884027429828,55.447785826491675L153.65901840900398,44.65267354887052L153.81752756642715,26.018197177290034L154.17112491760196,56.64624038418063L154.61007335354307,38.33898418921091L154.67103841409048,38.19482628178001L154.68323142619994,66.16635160947139L154.7076174504189,47.81227267671294L154.87831961995155,35.19340427180434L155.02463576526526,44.22529850683766L155.3050750437832,42.79892635861553L155.37823311644007,44.21443868933655L155.5611282980822,50.68678565774763L155.63428637073906,45.46107344131305L155.7562164918338,45.238128289356744L156.04884878246122,43.40588890455213L156.25612998832233,45.177166571138635L156.5243762547308,40.299452369050904L156.90235963012455,41.44048060894752L156.98771071489088,2.5138468986037865L157.12183384809512,42.042021878536815L157.31692204184674,43.85968619971335L157.36569409028462,22.119600881821956L157.45104517505098,44.23436146443971L157.51201023559832,64.68288086828142L158.0241167441963,44.42913132583803L158.46306518013748,28.535874706815857L158.80446951920277,35.07063798585077L158.82885554342172,54.607450740307975L158.8410485555312,41.93044375277807L158.86543457975017,39.479660351349246L158.938592652407,46.13611516874685L159.0483297613923,36.42826788539201L159.12148783404916,32.913163325328156L159.18245289459654,39.426572095461836L159.53605024577132,53.43735640458477L159.706752415304,65.78916318037368L159.84087554850822,55.23398707745915L159.96280566960297,8.892163074112485L160.0115777180409,29.375761482152328L160.02377073015037,38.42188189553433L160.3651750692157,14.813193547019438L160.47491217820095,41.40478355550439L160.57245627507677,36.64859348997627L160.75535145671893,21.2604186751371L160.7675444688284,40.59817548466183L160.91386061414212,44.654638820698366L161.29184398953586,44.9689363101938L161.40158109852112,32.73271794722889L161.56009025594432,53.61244755740711L161.60886230438223,47.00703156412817L161.6698273649296,56.30697434591842L161.7795644739149,47.495899548529586L161.8771085707907,52.95239764410417L161.96245965555704,26.32845908796361L161.9746526676665,37.19262864753036L162.18193387352758,52.80150105791787L162.5477242368119,30.962860500076953L162.66965435790664,42.63700459074617L163.12079580595724,40.20761247320682L163.2305329149425,46.49588586984218L163.242725927052,45.09088856976362L163.31588399970886,56.75685685591898L163.51097219346047,35.26076208380511L163.5963232782268,25.099729350524065L163.93772761729213,46.340624944029074L163.9499206294016,53.84840944201508L164.05965773838687,30.467188694093736L164.12062279893425,25.431426109885052L164.2547459321385,41.401101017382416L164.36448304112378,46.340449498961924L164.53518521065644,42.732255083414564L164.66930834386068,77.15760874281797L164.99851967081653,44.519569864377324L165.03509870714495,62.006118375081066L165.14483581613024,101.69314157760076L165.44966111886714,58.94582698998094L165.49843316730502,47.49330335647784L165.60817027629034,43.061444029636164L165.77887244582297,79.69139428593364L165.85203051847984,62.78618925912515L165.8764165426988,7.861181812092971L166.29097895442095,18.180368435381595L166.36413702707782,40.99325956349143L166.43729509973468,59.95515482884445L166.46168112395364,69.85438762719417L166.4738741360631,36.880632034781414L166.59580425715785,48.06197558504778L166.65676931770525,13.351258888316579L166.8274714872379,37.91094401795184L166.9372085962232,59.1175633526946L167.1322967899748,63.035872286562565L167.4371220927117,62.677198256139725L167.66878932279175,34.02169234451012L167.77852643177704,53.98767508051465L167.99800064974758,45.505052378223354L168.32721197670344,30.485702061702202L168.60765125522138,31.647448107013567L168.63203727944034,25.810813351137L168.6442302915498,42.705133899576545L169.26607390913307,47.68813120325896L169.36361800600886,39.03545126024315L169.4001970423373,44.73835820148903L169.5099341513226,62.25113432886776L169.97326861148267,37.612964413429616L170.35125198687643,43.24017891366597L170.59511222906593,52.12952419869644L170.82677945914597,59.16253281224413L171.20476283453974,55.27139811954915L171.30230693141553,68.85352514880374L171.32669295563448,25.088556667445303L171.74125536735667,43.494397333129484L171.77783440368512,50.56420162442272L171.94853657321775,38.891396554324935L171.9851156095462,41.318748604839634L172.1192387427504,60.096815623645405L172.19239681540728,23.04598165125114L172.5338011544726,43.81396378965274L172.57038019080105,35.975983233562836L172.5825732029105,28.960790513107447L172.65573127556735,52.36986629875082L172.68011729978633,43.33495604255862L172.8873985056474,42.85576468172729L172.98494260252323,51.901726114286845L173.09467971150852,36.71728823581124L173.27757489315061,31.995342893812758L173.47266308690223,34.23362730427791L173.94819055917182,54.70830964702972L174.0945067044855,60.91546162217739L174.11889272870448,71.4019417032487L174.24082284979923,40.225466507039826L174.37494598300347,34.21941867135873L174.4602970677698,56.47398433754782L174.54564815253613,6.3917573909886745L174.5700341767551,30.116837992457178L174.77731538261617,55.73409759538558L175.0089826126962,9.362865837859609L175.44793104863734,32.37165356446094L175.5698611697321,23.468107920681483L175.7771423755932,43.92077030174829L175.85030044825007,46.68824988434024L175.96003755723532,56.08694739530661L176.3258279205196,36.53121088574528L176.60626719903755,54.48028511773052L176.618460211147,39.33428660310726L176.83793442911758,11.430311105575024L177.17933876818293,41.152194998163985L177.24030382873028,53.96502769059281L177.39881298615347,38.337979767809834L177.56951515568613,36.58271444545766L177.66705925256193,44.86184792573008L177.72802431310933,60.75835350091338L177.75241033732829,29.117310805227866L177.76460334943775,28.179814413882006L178.00846359162728,38.11276498812852L178.06942865217465,44.15791229637546L178.2401308217073,71.73108302746458L178.36206094280206,66.64496702362429L178.42302600334946,45.274650608109766L178.5083770881158,44.239217032755555L178.74004431819583,52.69305119150988L178.88636046350953,53.187417512512404L179.31311588734118,46.07338269267497L179.42285299632647,54.2969030120611L180.00811757758132,33.26050604729033L180.0690826381287,40.829832825127205L180.25197781977084,35.68401543555858L180.38610095297506,58.19585133221425L180.43487300141297,44.81679566264091L180.62996119516458,41.21566799916413L180.78847035258778,21.200449247062924L181.03233059477728,43.34738196456746L181.14206770376256,36.57040862615867L181.23961180063836,31.372461910014728L181.4834720428279,39.96271461483429L181.6785602365795,42.73396575220531L181.92242047876903,23.661705931284672L181.95899951509745,36.43856031940552L182.15408770884906,40.4347827718268L182.34917590260068,35.931488731679536L182.4832990358049,19.732125978094697L183.21487976237344,55.15111555147458L183.32461687135876,52.18417759175086L183.33680988346822,8.987005545413574L183.7026002467525,23.993954592397003L183.93426747683253,30.317401970256583L183.97084651316098,37.27360428779648L184.23909277956943,54.851500585618666L184.7755853123864,39.291184427226014L185.03163856668536,54.48600325969154L185.10479663934223,57.657947534549706L185.12918266356118,46.2726753296834L185.38523591786017,42.875669052635274L185.65348218426863,42.38133138828411L186.00707953544344,56.68661909863171L186.56795809247933,39.16149554500326L186.76304628623095,35.791193311506284L186.90936243154465,58.78541460459337L187.62875014600374,47.054837542525725L187.82383833975533,42.5247504667745L188.2018217151491,24.343828780236414L188.2993658120249,32.39713483604752L188.5554190663239,34.981866157822424L188.8602443690608,42.21671793936137L188.92120942960815,36.0098606218837L189.07971858703135,42.856416242035635L189.23822774445452,47.73602513860539L189.3113858171114,38.16756468398583L189.8234923257094,48.555362295547035L189.83568533781886,21.14008407549419L189.89665039836623,39.17777122348865L190.07954558000839,44.16371976455334L190.78674028235795,57.079870684822204L190.99402148821906,48.20287377960436L191.32323281517492,64.36968994457419L191.33542582728438,61.89803689825647L191.4329699241602,39.972562281930216L191.5792860694739,60.158044610938916L191.61586510580236,47.333460505902664L191.72560221478764,50.7828997349743L191.90849739642974,49.0091282721995L191.95726944486768,48.093506763582724L191.9816554690866,54.36529663333578L192.16455065072876,37.32324283338705L192.38402486869933,31.260317125086512L192.60349908666987,36.723402357166776L192.78639426831202,34.484120609463695L192.90832438940677,41.247671496739365L192.9449034257352,39.25431020303429L193.09121957104892,42.435626186415824L193.1034125831584,43.180945578055685L193.1521846315963,46.49166072445737L193.49358897066162,43.3149859033149L193.81060728550798,45.12386683927066L194.2129766851207,59.27415652972348L194.39587186676283,43.69608956215426L194.83482030270397,29.613453572407984L194.89578536325135,44.900429702431495L195.48104994450617,40.06550472189557L195.5298219929441,32.950621048752794L195.7736822351336,56.43824002247702L196.35894681638845,63.77258011521281L196.37113982849792,47.76694318864921L196.68815814334428,74.8240406344917L196.7247371796727,56.80648456814627L197.2368436882707,45.56977721868909L197.43193188202233,58.76634450018561L197.85868730585398,66.50375945911587L198.0415824874961,47.17477843666496L198.13912658437192,78.00681103057958L198.2000916449193,70.12811735969136L198.2122846570288,71.67763361021463L198.61465405664148,14.555303011805288L198.82193526250256,65.55623068532384L198.85851429883098,50.59078929079057L198.89509333515943,66.43239773448637L199.0536024925826,81.91901502863901L199.38281381953846,68.26118497865194L199.60228803750903,63.82425319443088L199.68763912227536,44.172206208942505L199.7729902070417,23.443694869938962L200.04123647345017,35.49642952772461L200.29728972774913,34.37601560587626L200.45579888517233,34.64120846108543L200.88255430900398,7.756604306011578L201.16299358752195,42.87719843433686L201.19957262385037,37.27961249983864L201.35808178127357,43.23881350543205L201.40685382971145,65.0433658687584L201.48001190236832,83.79021975517249L202.00431142307576,40.87670893956927L202.01650443518525,76.48753104023598L202.2481716652653,10.75681111631719L202.28475070159374,64.95082185392889L202.38229479846953,45.520999881905546L202.394487810579,45.02217154182251L202.4066808226885,56.342178602678906L202.47983889534535,49.608687368340156L202.72369913753485,11.822549751673423L202.7480851617538,49.93656960987372L202.96755937972435,42.48025267230735L203.57720998519815,69.8256068010105L203.7479121547308,69.4823912788922L203.82107022738768,67.554170325602L204.23563263910987,51.51983649954033L204.73554613559838,51.64747263934696L205.0769504746637,29.744411558222303L205.40616180161953,66.32497933360263L205.46712686216694,76.12108481559991L205.54028493482375,40.83959394895799L205.82072421334172,47.96776556866363L206.12554951607862,30.631486254925793L206.27186566139233,70.63001204112983L206.28405867350182,40.38141040881846L206.35721674615866,41.965107121029604L206.46695385514394,58.50588167428316L206.67423506100505,31.74586495667166L206.82055120631873,33.38393220239757L206.8937092789756,63.77954401143L207.13756952116512,52.52357596419214L207.18634156960303,44.09574553023224L207.4789738602304,54.978136627274544L207.5033598844494,63.16805570384649L207.61309699343468,36.98555069588567L208.22274759890848,70.10138448555479L208.5153798895359,36.280923618743024L208.52757290164536,28.277206057437304L208.7958191680538,21.14039909055676L209.22257459188546,44.02538520021165L209.23476760399498,62.00489661851178L209.52739989462236,65.356121839673L209.55178591884135,45.865526095942755L209.5639789309508,45.48131522934969L209.9297692942351,19.27371101077124L210.23459459697196,21.097389371047903L210.2711736333004,57.394933827657404L210.29555965751936,63.2227503990373L210.47845483916151,45.60103175180257L210.55161291181835,60.91076201554959L210.79547315400788,72.01773806135829L210.91740327510263,51.263796772675335L210.9295962872121,68.54662693027088L211.02714038408791,51.543882182134304L211.07591243252583,5.9995320390321965L211.14907050518266,59.043410216415495L211.34415869893428,72.04404098317956L211.86845821964172,47.8970435089217L212.01477436495546,67.02154460264924L212.1488974981597,23.25180032418932L212.27082761925445,7.135253640243691L212.2830206313639,15.39882136427013L212.33179267980182,56.7309858063272L212.38056472823973,41.806443918593764L212.42933677667764,62.453225636322145L212.63661798253872,53.69200317286423L212.7097760551956,50.709062052203564L212.75854810363347,41.831952662532146L212.78293412785243,38.71365079639659L213.08775943058933,78.58887953805825L213.31942666066936,10.249850799322891L213.4047777454357,66.2282538330121L213.41697075754516,46.35638330261362L213.61205895129677,40.52670886954686L213.64863798762522,51.7337372660352L214.03881437512842,76.34657455880165L214.05100738723795,41.34866915076805L214.0632003993474,60.73362151439977L214.35583268997485,69.3048867210186L214.52653485950748,48.69883043123833L215.14837847709074,26.03002355878729L215.29469462240448,24.74536692900906L216.06285438530145,37.59163460260318L216.09943342162987,64.32459709558985" style="fill: none;" fill="none"></path></g></g></g></g><g opacity="0.2"><g><g><g><path stroke="rgb(51, 187, 238)" stroke-width="2px" d="M32.289775871281215,37.03861812898301L32.58240816190864,33.91756483930865L32.618987198237065,38.72917209984878L32.7531103314413,38.025522121637465L32.93600551308344,76.38411731985792L32.97258454941186,32.506407504847836L33.216444791601376,55.232201769226556L33.96021853027941,42.24230138255679L33.99679756660784,51.9862429424613L34.10653467559312,53.1993249771913L34.862501426380625,66.30223292425269L34.923466486928,59.89720347841524L35.179519741227,55.839912356835335L35.24048480177438,69.49149828951076L35.32583588654071,78.6672286240233L35.39899395919756,73.49629569845342L35.82574938302921,85.48964825384361L35.85013540724817,91.1848351382409L35.947679504123975,102.67057531840689L36.301276855298774,96.84925114898363L36.54513709748829,136.06255191052077L37.203559751399986,95.71051474361239L37.215752763509464,75.38963945475675L37.459613005698984,62.57067105086144L37.67908722366955,89.04434214259052L37.84978939320221,76.83083333646739L38.605756143989716,78.82996731861627L38.934967470945566,132.228237860504L39.130055664697174,63.80265195550637L39.215406749463504,77.68778988962067L39.22759976157298,102.29509132423533L39.629969161185684,87.91658678973691L39.80067133071835,60.32519377817415L39.89821542759416,137.57201847138762L39.959180488141534,177.6094144827011L39.98356651236049,101.66692348913247L40.1298826576742,157.0623414752853L40.25181277876895,119.64259793318274L40.77611229947642,83.87674320056887L40.873656396352224,117.13442227596938L40.971200493228025,146.20331464448162L41.288218808074404,121.9507219845535L41.39795591705968,153.48154869738386L41.44672796549759,65.93268965430725L41.47111398971654,65.01270538572894L41.64181615924921,68.46669030400972L41.66620218346816,88.6369098339268L41.75155326823449,61.39761255989762L41.849097365110296,68.27424484004857L41.92225543776715,62.126665666768496L42.263659776832476,60.81383487402016L43.15374966082421,46.54354156003071L43.55611906043691,65.18033329321177L43.592698096765346,147.67121187695327L43.79997930262643,89.83049483361047L43.90971641161171,112.21437554769909L43.92190942372119,59.54593572735305L43.99506749637805,92.23353824662284L44.00726050848752,69.16022184678768L44.0682255690349,94.69799747744301L44.287699787005465,65.57405502741616L44.32427882333389,79.16383790906713L44.43401593231918,68.7268763949839L45.031473525683495,102.93410168940434L45.06805256201192,67.22363075148365L45.141210634668774,60.71385629466185L45.21436870732563,81.90949771639903L45.275333767873015,110.2467900538756L45.39726388896777,86.85522776646941L45.47042196162462,82.7092759794649L45.531387022172005,74.94934584271607L46.16542365186475,125.4874961052585L46.22638871241213,73.64592828019353L46.2385817245216,108.89146120265958L46.45805594249217,60.149591385018404L46.616565099915356,69.18035167757826L46.775074257338545,67.49863559652904L47.23840871749862,89.67612415438212L47.445689923359716,92.24017473134394L47.689550165549235,75.71634150834332L48.11630558938089,105.20156940126466L48.15288462570931,75.94462965662588L48.32358679524198,78.2097078561981L48.37235884367988,91.63149448657477L48.95762342493472,92.09580285452265L49.042974509701054,115.32849877950235L49.31122077610952,80.40651652485163L49.457536921423234,74.13494716454359L49.57946704251799,76.33827898136697L49.945257405802266,68.3167586397039L50.0793805390065,55.892730337938545L50.17692463588231,90.92645928384862L50.25008270853917,66.40215168709784L50.64025909604239,71.7707907815477L50.689031144480296,93.17134783611709L50.99385644721719,72.06788366112967L51.188944640968806,114.21841133568796L51.201137653078284,71.38137268805191L51.384032834720415,86.41269890577978L51.43280488315832,62.385866359394626L51.64008608901941,71.90808227215564L52.06684151285107,70.49685961176598L52.16438560972688,71.71732426351257L52.40824585191639,76.33946901515473L52.57894802144906,44.26248605497487L52.68868513043434,40.60438200795789L52.76184320309119,61.458952820004576L52.82280826363857,70.44072024006472L52.9081593484049,74.02490366978998L53.01789645739019,47.46486697779839L53.18859862692285,79.60136736855321L53.2129846511418,56.37585572162547L53.24956368747023,69.61866504821023L53.35930079645551,47.583555532819595L53.786056220287165,69.31615405183275L54.07868851091458,72.01002535173498L54.33474176521358,65.3056740741417L54.55421598318414,44.26644653779227L54.66395309216942,53.727857390827054L54.82246224959261,59.63460898572778L54.859041285921045,52.06534241049598L54.95658538279685,43.226198021307134L55.444305867175885,57.2813392081235L55.65158707303697,39.44917402381023L55.773517194131735,55.83638633079757L55.81009623046016,67.5062795172609L56.05395647264968,54.75684308753531L56.24904466640129,55.5394225289545L56.46851888437185,49.94105811578796L56.614835029685565,51.99578210218846L56.82211623554666,41.21229093453129L56.895274308203504,52.67985004294006L57.187906598830935,44.39409340271566L57.34641575625412,50.813485108181936L57.38299479258255,46.91370503277027L57.39518780469202,54.537206295995446L57.49273190156783,52.134153438270474L57.54150395000573,58.41161000276655L57.62685503477206,46.12761373238223L58.224312628136374,45.455320200006746L58.27308467657428,52.38533871813574L58.358435761340615,27.955321229049538L58.468172870325894,49.903930950552805L58.73641913673436,44.934477356547106L58.785191185172266,40.27965232518618L58.882735282048074,40.560597894457686L58.98027937892388,53.88275382572355L59.029051427361786,45.865148317433636L59.2729116695513,38.6375190346484L59.33387673009869,50.751639555950796L59.34606974220816,54.15239407401147L59.40703480275554,39.94255006890695L59.553350948069244,42.71999448237927L59.58992998439768,40.276482049989724L59.65089504494505,41.80892602249644L59.882562275025094,49.83782740705732L60.07765046877671,-2.762681317904886L60.19958058987147,32.386999577550185L60.34589673518518,47.91750168097126L60.66291505003156,52.36415107953382L60.772652159016836,29.02409513876832L61.199407582848494,26.413857359243867L61.211600594957964,41.45717186873529L61.23598661917692,39.83780348380383L61.772479151993856,45.27360392956051L61.870023248869664,27.148554665718176L61.97976035785494,42.029902389106915L62.004146382073905,41.233584039090594L62.06511144262128,41.10959542618138L62.369936745358174,40.654294165817454L62.38212975746765,46.2095969859978L62.5040598785624,43.97913208399006L62.528445902781364,43.38936487620471L62.58941096332874,38.33540786443768L62.7601131328614,39.0103884175482L62.83327120551826,43.95887474957934L62.943008314503544,52.628810816043405L63.12590349614567,42.48971035150036L63.199061568802534,45.613575804351726L63.7721331379479,34.116373678384846L63.84529121060475,38.96556695978064L64.05257241646585,39.34477217071705L64.1257304891227,34.19570532893764L64.72318808248701,44.01494013769857L64.80853916725334,48.4851965954077L64.86950422780072,36.21935699793972L65.02801338522391,38.61496033860054L65.4791548332745,41.722646998766116L65.64985700280718,30.926058769438967L66.07661242663883,35.43080456285969L67.08863243172533,32.84414570510886L67.19836954071062,28.852580338520415L67.3081066496959,32.73300504957477L67.38126472235275,45.36298711549908L67.67389701298018,24.889531904277227L68.24696858212553,29.951388827840557L68.34451267900134,30.978894459378306L68.78346111494248,45.38191117131426L68.9785493086941,29.787026429739573L69.01512834502252,40.01472341436745L69.11267244189833,26.283968358901937L69.14925147822676,38.48035586872762L69.44188376885418,42.45104369811122L69.49065581729208,24.14734248114961L69.85644618057636,43.955781606202464L70.31978064073644,27.387559414565494L70.539254858707,27.309555139662855L70.61241293136386,38.67585197485894L70.80750112511546,34.95274233218636L71.02697534308604,2.799986803985586L71.03916835519551,35.884801665825265L71.45373076691769,38.45709196747221L71.57566088801245,46.264960317147L71.61223992434087,41.30725751973591L71.62443293645035,29.97401166922818L71.6488189606693,36.25358148816877L71.66101197277878,27.61673674318646L71.96583727551568,34.30515301973798L72.36820667512838,34.96536676469659L72.85592715950742,42.168116313312225L73.23391053490117,38.00459736086961L73.56312186185701,51.217573988584846L73.62408692240439,41.397120811898375L73.89233318881287,35.88099308546886L74.1240004188929,26.856707340161933L74.30689560053504,26.167082268251225L74.50198379428666,29.134464476106658L74.85558114546147,43.411884219283394L74.89216018178988,35.275178523914754L75.19698548452678,49.19065051372585L75.51400379937314,36.39627614144396L75.72128500523424,40.80200002618693L75.96514524742376,41.309133869305995L76.18461946539432,31.106360694173183L76.20900548961328,48.552631843379956L76.23339151383223,36.47252251921371L76.30654958648908,30.57570558138032L76.64795392555442,38.00826741877452L76.81865609508708,29.313267839774838L77.50146477321772,38.414255473469666L77.55023682165562,36.74131274336753L77.68435995485986,27.863675050618763L78.06234333025361,41.21143933627841L78.15988742712942,45.320992775036814L78.3183965845526,29.441279506722452L78.37936164509998,44.51663540047813L78.57444983885159,47.265534744232234L78.63541489939897,35.06364136048976L78.65980092361794,32.57375145393161L78.78173104471269,30.749150251236415L78.83050309315058,29.85726400264652L79.1841004443254,32.86305401973638L79.3304165896391,32.585737581281855L79.96445321933184,49.57359425673354L80.09857635253609,36.15331799331368L80.30585755839716,38.2164674504138L80.6472618974625,43.73458958532092L80.96428021230886,36.11318426123382L81.11059635762258,27.286722546949562L81.24471949082681,46.20651013909599L81.28129852715524,35.45038817443818L81.97630021739536,37.23473286378972L82.03726527794275,45.24365632002102L82.04945829005221,48.20916227668879L82.17138841114698,46.615982505681565L83.06147829513871,40.54562172850979L83.19560142834294,33.96978937763676L83.20779444045243,41.49847831929644L83.23218046467137,43.373324605970396L83.29314552521875,43.47958077097094L83.30533853732824,37.06583149422448L83.61016384006514,28.20783172015166L83.67112890061252,37.35913704405339L83.70770793694093,46.04342356425552L83.80525203381674,47.797009185843244L84.04911227600626,34.97605188288602L84.08569131233469,51.76054264543147L84.09788432444417,32.40758275454563L84.2807795060863,41.69674172621991L84.54902577249477,38.76185552780508L84.70753492991795,54.2372862991082L84.7319209541369,35.12928840954286L84.89043011156011,47.78728742833913L85.3415715596107,51.978476240465604L85.63420385023812,33.67175989738851L85.71955493500445,44.5557994753976L85.7927130076613,50.6248427151615L86.08534529828873,46.087428054383075L86.12192433461716,39.78644628491628L86.84131204907624,42.868133225409636L87.04859325493733,46.906730112514325L87.0607862670468,28.878178264377386L87.30464650923632,42.252967611321026L87.34122554556474,46.76562138389675L87.45096265455003,44.33305379929317L87.88991109049115,53.75680228671205L87.92649012681959,50.723198378071174L88.1215783205712,38.53780333312417L88.49956169596496,35.44287569262336L88.84096603503028,51.708111897544924L88.93851013190609,44.82609613121131L88.987282180344,38.42441168775345L89.08482627721979,41.601628747969976L89.21894941042403,42.18967859218068L89.5359677252704,56.735041290084965L89.59693278581777,39.72510287657176L89.79202097956939,53.316832943137356L89.987109173321,35.64743950991117L90.08465327019681,42.496691568231384L90.1943903791821,35.56071815880737L90.30412748816738,44.187841343050394L90.43825062137161,38.08178820989946L90.45044363348109,39.372577404614866L90.5967597787948,40.79830399532236L90.62114580301375,30.51675916238805L91.08448026317383,40.94071609427888L91.23079640848754,52.47902711890167L91.46246363856758,46.50181481975879L91.74290291708553,37.056022373128805L91.98676315927504,50.64391946049707L92.57202774052989,34.85726415838251L92.68176484951518,34.20040958287238L92.7183438858436,57.62888574242083L92.74272991006255,44.78034122101501L93.36457352764582,38.447702349027885L93.40115256397425,57.593949750509154L93.64501280616378,57.56219033026899L93.66939883038272,32.748120525033535L93.6815918424922,42.35891367492449L93.76694292725853,42.21005241138014L93.98641714522908,52.571503448217136L94.32782148429442,44.288067059055095L94.57168172648393,47.68699559934622L94.66922582335974,43.794794905797L95.04720919875349,55.746006727679585L95.25449040461459,53.4794016329035L95.47396462258514,49.74264674170041L95.57150871946095,51.21958728648766L95.9494920948547,34.816762082511225L96.27870342181055,59.14857463055969L96.5591427003285,38.52413053751522L96.91274005150329,38.56483567470743L97.04686318470753,42.605936984770175L97.24195137845915,45.7755636442929L97.41265354799181,43.610903203214946L97.6687068022908,51.76726413256597L98.15642728666984,45.23902998496522L98.4246735530783,57.36533733376064L98.48563861362568,50.40318790336252L98.93678006167629,46.7153802352149L99.07090319488051,59.337487772008L99.14406126753738,44.196508440980715L99.31476343707004,37.34129204665289L99.339149461289,36.34041302758627L99.72932584879221,42.887378401453255L100.02195813941964,45.00786592169562L100.16827428473336,59.327674715615395L100.1926603089523,38.46821311656008L100.26581838160917,60.22448795594557L100.41213452692287,49.466373156928924L100.71695982965977,41.49415264092511L101.05836416872509,41.158216806652135L101.08275019294405,35.18134136892535L101.13152224138194,41.39463842660303L101.31441742302408,48.71405614880262L101.8143309195126,36.28619959019625L101.85090995584102,41.09791231669376L102.49713959764324,45.294182384199665L102.53371863397167,42.84800339461905L102.65564875506642,56.23449355988644L102.875122973037,31.15883473032582L102.88731598514647,59.17134583264107L103.09459719100757,48.86081124143691L103.13117622733598,33.578237566152474L103.54573863905817,60.1019554028957L103.57012466327711,46.148426730717645L103.65547574804344,46.92874573758761L103.98468707499929,44.24883529702866L104.09442418398459,37.32046802948609L104.35047743828358,59.731766744255864L104.64310972891099,43.1433915035765L104.70407478945837,49.25007192305602L104.77723286211523,47.70391265373366L105.10644418907107,40.66969849206995L105.3503044312606,41.452446364197165L105.41126949180797,37.60657198595662L105.59416467345011,42.193606018503985L105.65512973399748,41.13943127328843L106.17942925470494,40.27649779117738L106.48425455744184,27.556950531832072L106.5086405816608,54.39325943124121L106.70372877541242,37.7152672479864L106.72811479963137,33.266787936357375L106.80127287228822,49.28422872617811L106.82565889650718,44.52361661720916L107.04513311447774,59.31019884906574L107.3255723929957,40.692934059187564L107.43530950198097,52.046364834642716L107.666976732061,46.62951205648272L107.80109986526524,41.016689362442584L107.82548588948418,54.395475790464964L107.89864396214105,33.124615890512786L108.05715311956423,50.96356473965184L108.2766273375348,42.92796862797551L108.75215480980437,48.65711240241148L109.0325940883223,41.834755737341844L109.08136613676021,40.53212995655903L109.09355914886969,46.28568201659394L109.17891023363602,34.200925106768544L109.38619143949711,61.95925498767547L109.52031457270135,42.64253367198089L109.65443770590558,50.778610506902154L109.73978879067191,45.105549435891845L109.81294686332876,44.20324094694657L110.10557915395619,56.88301789888235L110.82496686841526,36.6477620779937L111.26391530435639,29.42387644316573L111.27610831646587,59.09137430280956L111.32488036490378,31.497554393637998L111.56874060709329,51.6265442112838L111.58093361920277,44.361395807690464L111.59312663131223,57.6058311989614L111.69067072818804,53.48975933438944L112.22716326100497,44.980016612472355L112.3125143457713,80.18712844407689L112.34909338209974,60.40037683871689L112.58076061217977,37.71095731080274L113.23918326609147,50.950162692470784L113.34892037507676,41.849434394842795L113.37330639929571,56.589570678364424L113.42207844773363,47.44224531699986L113.49523652039046,36.66097916621965L113.5318155567189,58.10265141592002L113.61716664148524,42.602560500015265L113.71471073836103,39.80518931707328L113.75128977468947,24.535916109118208L113.89760592000317,39.845255362046146L114.22681724695902,44.41683154830295L114.27558929539693,50.781258174668025L114.40971242860117,37.554615834878284L114.5438355618054,49.70085703667783L115.37296038524975,45.176590989958974L115.54366255478241,59.169724490311204L115.64120665165822,44.74414908232737L115.81190882119088,32.68343841078452L115.82410183330036,49.085223909315445L116.14112014814674,52.7991965796058L116.3118223176794,47.059591211845266L116.61664762041629,38.192577049889174L116.97024497159109,42.55656947200394L117.00682400791952,29.726832521624562L117.3238423227659,6.493058325289576L117.54331654073646,42.801725876992144L117.59208858917437,47.81130218424633L117.89691389191125,49.73708223185956L118.21393220675763,40.653193856799426L118.53095052160401,37.85428790805973L118.71384570324614,50.04260766567559L118.81138980012194,41.48116301286099L118.82358281223142,58.19549294078937L119.0918290786399,35.381047455698656L119.14060112707779,2.788298972141643L119.31130329661046,49.18535360407537L119.79902378098949,55.04935842974325L119.90876088997477,52.21741802456226L120.05507703528848,34.13880880610951L120.28674426536853,34.985222698821744L120.32332330169696,61.19212079959672L120.43306041068224,38.76117393437904L121.07929005248445,45.1817525253955L121.2134131856887,53.63079407942497L121.43288740365925,43.36551540276801L121.55481752475403,39.76520984863259L121.56701053686349,40.4042816044335L121.78648475483406,41.07742043858678L121.79867776694353,32.40316656434521L122.07911704546149,45.90842713880968L122.12788909389938,31.64535509466318L122.31078427554152,23.195816709397914L122.6765746388258,55.76517949425994L122.78631174781108,22.3111946253874L122.8228907841395,49.94448812058094L122.90824186890583,5.793192528593775L123.0301719900006,45.04849707530579L123.06675102632903,33.87432143560489L123.1277160868764,6.4267737581359015L123.24964620797117,46.277742161533894L123.54227849859858,46.64210343249883L123.65201560758388,64.67755975907691L123.88368283766391,51.40839181374107L124.09096404352499,58.13341914133705L124.84693079431248,62.87395651367224L125.27368621814416,38.458307187160216L125.48096742400526,43.03253418942043L125.6028975451,50.61810391272059L125.66386260564737,41.53783915906177L125.79798573885162,43.83965886477125L125.87114381150846,38.64664105290233L125.95649489627479,51.63169787612651L126.17596911424536,44.92446596118988L126.23693417479275,42.98574036083801L126.29789923534014,65.75304177592066L126.5173734533107,51.72816302239717L126.65149658651492,48.302814472723085L126.68807562284334,40.79336913298824L126.93193586503288,49.38805287768383L127.02947996190869,37.848698999378L127.15141008300344,11.852730452184018L127.29772622831715,53.8176923488517L127.57816550683509,40.217824088261466L127.63913056738248,45.29275623259688L128.3829043060605,-1.1755414406061084L128.39509731816997,49.343325867042296L128.7852737056732,48.19586726958389L129.30957322638068,45.910851281710634L129.40711732325647,47.10005078650985L129.5046614201323,47.34101531322191L129.51685443224176,58.684200149623585L129.93141684396394,46.098010854852674L130.06553997716816,54.21992691734728L130.2118561224819,2.374508797778573L130.41913732834297,25.592974393958578L131.15071805491152,48.57491349452485L131.44335034553896,36.66640357949023L131.8091407088232,47.70097849635222L131.85791275726112,50.828653316619395L132.0286149267938,51.6352176056892L132.2358961326549,44.60970517256868L132.30905420531172,47.95143023687215L132.8211607139097,46.594802737673476L133.01624890766132,54.527390091365305L133.1503720408656,40.080447595240116L133.26010914985085,0.9470459540712368L133.35765324672667,33.29348184240577L133.60151348891617,33.18296375084396L133.62589951313512,50.63169170591611L133.66247854946357,27.673824914974468L133.6868645736825,39.53183729673309L133.76002264633937,16.87641479888618L134.0038828885289,42.7511809233883L134.04046192485728,24.011236990650083L134.1014269854047,40.136158806636814L134.21116409438997,43.01166609692817L135.06467494205327,44.199922704586044L135.3085351842428,7.5536318632924075L135.32072819635226,38.732825629506664L135.34511422057122,35.68103120439594L135.51581639010388,52.516538369115935L135.5645884385418,70.21410065767505L135.67432554752708,58.8330488202178L135.68651855963654,22.369731970265125L135.7474836201839,45.34230162078378L135.80844868073132,54.09666397318959L135.99134386237344,48.756513280182354L136.36932723776718,47.644341703120624L136.51564338308089,40.99426289237113L136.60099446784722,40.68434094483926L136.66195952839462,47.20118791728055L136.83266169792728,40.267613464857234L136.94239880691256,42.44495343260225L137.25941712175893,38.96036764549371L137.3447682065253,34.66886496671157L137.35696121863475,45.940603700523035L137.46669832762004,39.852069722187885L137.9300327877801,42.457341747297434L138.0275768846559,72.77648266874398L138.0397698967654,44.744583539107026L138.0885419452033,51.35216586550763L138.47871833270653,45.29290262564221L139.0517899018519,51.24361778358254L139.1005619502898,45.058890981523355L139.32003616826034,36.01809646888416L139.38100122880772,23.723143938352802L139.60047544677832,42.37703650428734L139.63705448310674,43.639912637969395L139.8931077374057,42.334129174940294L140.02723087060997,42.794533728346366L140.31986316123738,57.945881779690964L140.40521424600368,28.959006508347766L140.6124954518648,46.73543136006717L140.63688147608374,30.122644685551332L140.67346051241216,31.642420543752074L140.92951376671118,49.30440263229416L140.95389979093014,59.3025580765714L141.01486485147748,70.52367944731574L141.14898798468175,42.617073875045705L141.29530412999543,39.18979073340715L141.50258533585654,46.15276500203911L141.72205955382708,67.77586624551077L141.79521762648395,45.17489566404706L141.9171477475787,-0.09946912922476425L142.13662196554927,39.45362248344538L142.14881497765873,38.500975250454715L142.47802630461462,60.06551455344291L142.5755704014904,69.48227710177447L142.69750052258516,58.5534947719362L142.8316236557894,36.753324056618055L143.08767691008842,56.63877448277891L143.30715112805896,33.96689221204635L143.6973275155622,46.47586232364958L143.7826786003285,68.05102850243284L144.41671523002128,44.98639651583443L144.4411012542402,67.14641392949413L144.563031375335,55.73698387890796L144.64838246010132,45.431525820726904L144.97759378705715,71.81173990714879L145.23364704135616,38.65952364089033L145.3555771624509,43.589832049401764L145.55066535620253,48.90406959926898L145.57505138042148,42.634744932322484L145.66040246518781,68.45559906317843L146.05057885269105,37.665938301129955L146.1115439132384,42.47007479400256L146.24566704644263,22.442450157583803L146.30663210699,42.6589108036313L146.83093162769748,12.0385299867115L146.86751066402593,41.23670394248649L147.11137090621543,44.22562019345501L147.1845289788723,42.535863513744665L147.19672199098176,47.42450657261613L147.51374030582815,43.711627914868735L147.59909139059448,41.61676547403208L148.36725115349145,40.89985984168504L148.4769882624767,2.630866631911752L148.56233934724307,0.1689810852754008L148.5989183835715,39.58731081619597L148.68426946833782,43.94054885889556L148.72084850466626,33.196351630956116L148.98909477107472,40.60907288188313L149.12321790427896,67.13717700057019L149.25734103748317,54.34812000148277L149.40365718279688,44.28171706394959L149.41585019490637,46.50546362706037L149.45242923123482,40.42646566021484L149.74506152186223,22.222090255235408L149.81821959451906,44.298972553871884L150.098658873037,64.8572454163139L150.22058899413176,45.2915819399968L150.31813309100758,55.28353063397631L151.0619068296856,64.37638676365125L151.1716439386709,38.55036165264616L151.2813810476562,62.295666205816055L151.70813647148785,61.76394147932111L152.04954081055314,73.71505727995893L152.08611984688156,42.637326487100125L152.5738403312606,57.71963368933026L152.86647262188802,40.79127555502832L152.9884027429828,56.945167256035475L153.65901840900398,43.41310101309016L153.81752756642715,23.878452398836508L154.17112491760196,60.16317288173886L154.61007335354307,36.2368131880048L154.67103841409048,38.17827303265473L154.68323142619994,69.37824359247274L154.7076174504189,45.7047251515467L154.87831961995155,33.74441492319167L155.02463576526526,45.26240564865307L155.3050750437832,42.63514003613297L155.37823311644007,44.3769780093636L155.5611282980822,51.42998714910362L155.63428637073906,44.86101953017285L155.7562164918338,45.21252812140637L156.04884878246122,43.19549798299707L156.25612998832233,45.38055742917478L156.5243762547308,39.739358096124455L156.90235963012455,41.57150168889105L156.98771071489088,-1.9559895252149486L157.12183384809512,46.58093160309991L157.31692204184674,44.06840350749617L157.36569409028462,19.623247718229088L157.45104517505098,46.77373754025867L157.51201023559832,67.03092713204472L158.0241167441963,42.10344994025088L158.46306518013748,26.710896522022903L158.80446951920277,35.82100656750138L158.82885554342172,56.850808280674876L158.8410485555312,40.474778513407294L158.86543457975017,39.19824375118519L158.938592652407,46.90045724922838L159.0483297613923,35.313542946500654L159.12148783404916,32.50953370471882L159.18245289459654,40.17448859860984L159.53605024577132,55.046175561596655L159.706752415304,67.20748658941073L159.84087554850822,54.02196574122705L159.96280566960297,3.5708610982543982L160.0115777180409,31.727835769809076L160.02377073015037,39.4606225896016L160.3651750692157,12.10227392617546L160.47491217820095,44.45822142715875L160.57245627507677,36.10245349360015L160.75535145671893,19.493437620590342L160.7675444688284,42.81867598787368L160.91386061414212,45.12043115471374L161.29184398953586,45.0050262114402L161.40158109852112,31.32766723219502L161.56009025594432,56.01000848254462L161.60886230438223,46.2485501290025L161.6698273649296,57.374860752300144L161.7795644739149,46.484148484838336L161.8771085707907,53.57895205195723L161.96245965555704,23.27130672310019L161.9746526676665,38.4401308377593L162.18193387352758,54.59382419980183L162.5477242368119,28.455190514059556L162.66965435790664,43.97751388989771L163.12079580595724,39.928652174314344L163.2305329149425,47.217950708028845L163.242725927052,44.92955666128191L163.31588399970886,58.09642735031585L163.51097219346047,32.79242567184556L163.5963232782268,23.932966394528577L163.93772761729213,48.779657548411485L163.9499206294016,54.71050732751406L164.05965773838687,27.782388541322376L164.12062279893425,24.85318358349319L164.2547459321385,43.234854100406096L164.36448304112378,46.90762106373637L164.53518521065644,42.31793621518561L164.66930834386068,81.11057577394233L164.99851967081653,40.771835188257604L165.03509870714495,64.0140498094205L165.14483581613024,106.2502913990718L165.44966111886714,54.03727247211598L165.49843316730502,46.17824211428072L165.60817027629034,42.552546024435856L165.77887244582297,83.89750897534127L165.85203051847984,60.845011870316576L165.8764165426988,1.554296899000083L166.29097895442095,19.365291760017865L166.36413702707782,43.612800016329004L166.43729509973468,62.13249620268096L166.46168112395364,70.99108882923434L166.4738741360631,33.09434794780424L166.59580425715785,49.34589797710734L166.65676931770525,9.365524418123371L166.8274714872379,40.731063938077185L166.9372085962232,61.552660110195724L167.1322967899748,63.48580073716278L167.4371220927117,62.63601272087378L167.66878932279175,30.731260784980748L167.77852643177704,56.28031300895217L167.99800064974758,44.53101654953216L168.32721197670344,28.761072092246586L168.60765125522138,31.780848154579992L168.63203727944034,25.140608914286066L168.6442302915498,44.645061454191115L169.26607390913307,48.26031484013666L169.36361800600886,38.04188823445649L169.4001970423373,45.39320704758526L169.5099341513226,64.26207740703944L169.97326861148267,34.78383230496791L170.35125198687643,43.88633620856492L170.59511222906593,53.15026284346583L170.82677945914597,59.97011351145863L171.20476283453974,54.8245900110234L171.30230693141553,70.41312278984414L171.32669295563448,20.06314780057806L171.74125536735667,45.60788851324705L171.77783440368512,51.37600746835049L171.94853657321775,37.551041011158745L171.9851156095462,41.597474648544235L172.1192387427504,62.25304851432211L172.19239681540728,18.791538062447767L172.5338011544726,46.198693065299764L172.57038019080105,35.0759698586718L172.5825732029105,28.155255563044015L172.65573127556735,55.05786496755936L172.68011729978633,42.297502579473004L172.8873985056474,42.800740478644094L172.98494260252323,52.940448553031146L173.09467971150852,34.97370172356709L173.27757489315061,31.45313512321538L173.47266308690223,34.490643239927756L173.94819055917182,57.05936012785852L174.0945067044855,61.62821151452991L174.11889272870448,72.60607486751887L174.24082284979923,36.64555909877948L174.37494598300347,33.52976100460827L174.4602970677698,59.029413839908436L174.54564815253613,0.6409554116179155L174.5700341767551,32.841122610017116L174.77731538261617,58.67565583295708L175.0089826126962,4.038187051878363L175.44793104863734,35.013688275542236L175.5698611697321,22.44573868845263L175.7771423755932,46.269292291993416L175.85030044825007,47.006031820802875L175.96003755723532,57.16617353090252L176.3258279205196,34.285680383532544L176.60626719903755,56.54132708639772L176.618460211147,37.595113975452655L176.83793442911758,8.226175680551817L177.17933876818293,44.5650757572907L177.24030382873028,55.43628941558742L177.39881298615347,36.54356958269651L177.56951515568613,36.381162240103954L177.66705925256193,45.81251765646371L177.72802431310933,62.583704754251045L177.75241033732829,25.484058410962948L177.76460334943775,28.072164326581433L178.00846359162728,39.253337908025266L178.06942865217465,44.85205964615188L178.2401308217073,74.89723306682042L178.36206094280206,66.06094255495589L178.42302600334946,42.82075697288349L178.5083770881158,44.12032109266474L178.74004431819583,53.66378131230328L178.88636046350953,53.244184213809255L179.31311588734118,45.25649798092106L179.42285299632647,55.2411868391478L180.00811757758132,30.84495544821409L180.0690826381287,41.698997438412825L180.25197781977084,35.093135623824395L180.38610095297506,60.78082245524158L180.43487300141297,43.280516137595136L180.62996119516458,40.802160586301156L180.78847035258778,18.902157684670037L181.03233059477728,45.890452276610915L181.14206770376256,35.792227741146284L181.23961180063836,30.775596233579034L181.4834720428279,40.94910929554378L181.6785602365795,43.0521807657496L181.92242047876903,21.471691704356207L181.95899951509745,37.905690756391536L182.15408770884906,40.89365781374363L182.34917590260068,35.414388078240115L182.4832990358049,17.871998482421066L183.21487976237344,59.21817901419267L183.32461687135876,51.8434924079699L183.33680988346822,4.026795154362603L183.7026002467525,25.71716055877303L183.93426747683253,31.0435057382828L183.97084651316098,38.07236553496104L184.23909277956943,56.86992123074207L184.7755853123864,37.504436863887726L185.03163856668536,56.230781787834175L185.10479663934223,58.02217301984556L185.12918266356118,44.96533638085262L185.38523591786017,42.485600327400086L185.65348218426863,42.32456797755038L186.00707953544344,58.329255257122014L186.56795809247933,37.14913464642606L186.76304628623095,35.4041909368684L186.90936243154465,61.42577669287425L187.62875014600374,45.70784820318016L187.82383833975533,42.00457324402938L188.2018217151491,22.25616441712223L188.2993658120249,33.321873435544234L188.5554190663239,35.27866362286459L188.8602443690608,43.04747572475546L188.92120942960815,35.29714456424691L189.07971858703135,43.642587065754284L189.23822774445452,48.29633697399746L189.3113858171114,37.06884514460365L189.8234923257094,49.748164027978234L189.83568533781886,17.992064391363268L189.89665039836623,41.24898836534309L190.07954558000839,44.73624228376144L190.78674028235795,58.56299615281296L190.99402148821906,47.18355306473543L191.32323281517492,66.22608020654955L191.33542582728438,61.614223895167584L191.4329699241602,37.454921383957384L191.5792860694739,62.47588706343378L191.61586510580236,45.86084939908134L191.72560221478764,51.17898918937159L191.90849739642974,48.80545105852523L191.95726944486768,47.98836850785526L191.9816554690866,55.085468714255L192.16455065072876,35.36635148289125L192.38402486869933,30.564128331379763L192.60349908666987,37.35071314747255L192.78639426831202,34.226990152369574L192.90832438940677,42.024311119247024L192.9449034257352,39.025418103534165L193.09121957104892,42.80092779877734L193.1034125831584,43.26652851823283L193.1521846315963,46.871820880621684L193.49358897066162,42.950217222626286L193.81060728550798,45.33157557550641L194.2129766851207,60.898994699307245L194.39587186676283,41.907303723068836L194.83482030270397,27.996383887966676L194.89578536325135,46.655790395176666L195.48104994450617,39.51032381554643L195.5298219929441,32.133638865549116L195.7736822351336,59.13525758579206L196.35894681638845,64.6147618649918L196.37113982849792,45.92906068760566L196.68815814334428,77.93093142258729L196.7247371796727,54.7375790220665L197.2368436882707,44.279497556488316L197.43193188202233,60.2816693942705L197.85868730585398,67.39222516788935L198.0415824874961,44.95528563252623L198.13912658437192,81.54716705864335L198.2000916449193,69.22342901175213L198.2122846570288,71.8555602253806L198.61465405664148,7.996105629825188L198.82193526250256,71.41252449844805L198.85851429883098,48.87234953199799L198.89509333515943,68.25144530382937L199.0536024925826,83.69729995762196L199.38281381953846,66.6928945715743L199.60228803750903,63.31477273314352L199.68763912227536,41.915616644276625L199.7729902070417,21.063497915738996L200.04123647345017,36.88041132231983L200.29728972774913,34.2473616103909L200.45579888517233,34.671659814582135L200.88255430900398,4.6695204398214L201.16299358752195,46.90999798307432L201.19957262385037,36.636857370236285L201.35808178127357,43.923091881771086L201.40685382971145,67.54712160278584L201.48001190236832,85.94286852919774L202.00431142307576,35.94907057389799L202.01650443518525,80.5766220952735L202.2481716652653,3.2091364762239643L202.28475070159374,71.1737684603659L202.38229479846953,43.2899277937022L202.394487810579,44.964892479360365L202.4066808226885,57.642023337649036L202.47983889534535,48.83549941166582L202.72369913753485,7.483673302936875L202.7480851617538,54.31309585892015L202.96755937972435,41.62406466275402L203.57720998519815,72.96559729739447L203.7479121547308,69.4429808008786L203.82107022738768,67.33275810911495L204.23563263910987,49.67865881382758L204.73554613559838,51.66212874012743L205.0769504746637,27.229344343778784L205.40616180161953,70.52542357090942L205.46712686216694,77.24594419647588L205.54028493482375,36.788319077983495L205.82072421334172,48.78627356958858L206.12554951607862,28.640809811988213L206.27186566139233,75.22293083263375L206.28405867350182,36.90804812550958L206.35721674615866,42.146958582966874L206.46695385514394,60.40521253156868L206.67423506100505,28.673087117302675L206.82055120631873,33.57202688055784L206.8937092789756,67.2697870619655L207.13756952116512,51.2310846499608L207.18634156960303,43.128001344392906L207.4789738602304,56.227731145664016L207.5033598844494,64.10848119424438L207.61309699343468,33.9790869101332L208.22274759890848,73.90398301435738L208.5153798895359,32.39741473437111L208.52757290164536,27.358161566005332L208.7958191680538,20.320899516879294L209.22257459188546,46.65320411804272L209.23476760399498,64.06943360411367L209.52739989462236,65.74093365436599L209.55178591884135,43.62747552559244L209.5639789309508,45.4371973706439L209.9297692942351,16.264365152896552L210.23459459697196,21.306797254112006L210.2711736333004,61.56287928923017L210.29555965751936,63.89194226843768L210.47845483916151,43.577579108920546L210.55161291181835,62.668735501799254L210.79547315400788,73.29312104097735L210.91740327510263,48.880679768512216L210.9295962872121,70.53116595617092L211.02714038408791,49.591504580062875L211.07591243252583,0.7698017550416374L211.14907050518266,65.13429031928115L211.34415869893428,73.53686703555044L211.86845821964172,45.124311357474035L212.01477436495546,69.21755754875176L212.1488974981597,18.22584306590461L212.27082761925445,5.2846356821094815L212.2830206313639,16.347703722770383L212.33179267980182,61.47704259287334L212.38056472823973,40.09270053572135L212.42933677667764,64.82403780680824L212.63661798253872,52.68597651318067L212.7097760551956,50.366539270232494L212.75854810363347,40.812619031388174L212.78293412785243,38.355584918791294L213.08775943058933,83.16764047494915L213.31942666066936,2.4026713566364633L213.4047777454357,72.65609721369212L213.41697075754516,44.07455201539952L213.61205895129677,39.857303667087685L213.64863798762522,53.020608977114684L214.03881437512842,79.1727977930881L214.05100738723795,37.32995760447212L214.0632003993474,62.95954135102638L214.35583268997485,70.28910112044083L214.52653485950748,46.33269464768496L215.14837847709074,23.427027897848088L215.29469462240448,24.597853402958723L216.06285438530145,39.066735572926696L216.09943342162987,67.39426837404874" style="fill: none;" fill="none"></path></g></g></g></g></g></g><g transform="translate(82, 178)" clip-path="url(#clip_1)"><clipPath id="clip_1"><rect width="247" height="22"></rect></clipPath><g><g><line x1="7.684277434358921" y1="0" x2="7.684277434358921" y2="5" style="visibility: inherit;" fill="rgb(0, 0, 0)" stroke="rgb(204, 204, 204)" stroke-width="1px"></line><line x1="32.07030165331065" y1="0" x2="32.07030165331065" y2="5" style="visibility: inherit;" fill="rgb(0, 0, 0)" stroke="rgb(204, 204, 204)" stroke-width="1px"></line><line x1="56.456325872262376" y1="0" x2="56.456325872262376" y2="5" style="visibility: inherit;" fill="rgb(0, 0, 0)" stroke="rgb(204, 204, 204)" stroke-width="1px"></line><line x1="80.8423500912141" y1="0" x2="80.8423500912141" y2="5" style="visibility: inherit;" fill="rgb(0, 0, 0)" stroke="rgb(204, 204, 204)" stroke-width="1px"></line><line x1="105.22837431016583" y1="0" x2="105.22837431016583" y2="5" style="visibility: inherit;" fill="rgb(0, 0, 0)" stroke="rgb(204, 204, 204)" stroke-width="1px"></line><line x1="129.61439852911755" y1="0" x2="129.61439852911755" y2="5" style="visibility: inherit;" fill="rgb(0, 0, 0)" stroke="rgb(204, 204, 204)" stroke-width="1px"></line><line x1="154.0004227480693" y1="0" x2="154.0004227480693" y2="5" style="visibility: inherit;" fill="rgb(0, 0, 0)" stroke="rgb(204, 204, 204)" stroke-width="1px"></line><line x1="178.38644696702102" y1="0" x2="178.38644696702102" y2="5" style="visibility: inherit;" fill="rgb(0, 0, 0)" stroke="rgb(204, 204, 204)" stroke-width="1px"></line><line x1="202.77247118597273" y1="0" x2="202.77247118597273" y2="5" style="visibility: inherit;" fill="rgb(0, 0, 0)" stroke="rgb(204, 204, 204)" stroke-width="1px"></line><line x1="227.15849540492448" y1="0" x2="227.15849540492448" y2="5" style="visibility: inherit;" fill="rgb(0, 0, 0)" stroke="rgb(204, 204, 204)" stroke-width="1px"></line></g><g transform="translate(0, 8)"><text x="7.684277434358921" y="0" dx="0em" dy="0.95em" style="text-anchor: middle; visibility: inherit; font-family: Roboto, sans-serif; font-size: 12px; font-weight: 200;" fill="rgb(50, 49, 63)" stroke="none" stroke-width="1px">-2k</text><text x="32.07030165331065" y="0" dx="0em" dy="0.95em" style="text-anchor: middle; visibility: inherit; font-family: Roboto, sans-serif; font-size: 12px; font-weight: 200;" fill="rgb(50, 49, 63)" stroke="none" stroke-width="1px">0</text><text x="56.456325872262376" y="0" dx="0em" dy="0.95em" style="text-anchor: middle; visibility: inherit; font-family: Roboto, sans-serif; font-size: 12px; font-weight: 200;" fill="rgb(50, 49, 63)" stroke="none" stroke-width="1px">2k</text><text x="80.8423500912141" y="0" dx="0em" dy="0.95em" style="text-anchor: middle; visibility: inherit; font-family: Roboto, sans-serif; font-size: 12px; font-weight: 200;" fill="rgb(50, 49, 63)" stroke="none" stroke-width="1px">4k</text><text x="105.22837431016583" y="0" dx="0em" dy="0.95em" style="text-anchor: middle; visibility: inherit; font-family: Roboto, sans-serif; font-size: 12px; font-weight: 200;" fill="rgb(50, 49, 63)" stroke="none" stroke-width="1px">6k</text><text x="129.61439852911755" y="0" dx="0em" dy="0.95em" style="text-anchor: middle; visibility: inherit; font-family: Roboto, sans-serif; font-size: 12px; font-weight: 200;" fill="rgb(50, 49, 63)" stroke="none" stroke-width="1px">8k</text><text x="154.0004227480693" y="0" dx="0em" dy="0.95em" style="text-anchor: middle; visibility: inherit; font-family: Roboto, sans-serif; font-size: 12px; font-weight: 200;" fill="rgb(50, 49, 63)" stroke="none" stroke-width="1px">10k</text><text x="178.38644696702102" y="0" dx="0em" dy="0.95em" style="text-anchor: middle; visibility: inherit; font-family: Roboto, sans-serif; font-size: 12px; font-weight: 200;" fill="rgb(50, 49, 63)" stroke="none" stroke-width="1px">12k</text><text x="202.77247118597273" y="0" dx="0em" dy="0.95em" style="text-anchor: middle; visibility: inherit; font-family: Roboto, sans-serif; font-size: 12px; font-weight: 200;" fill="rgb(50, 49, 63)" stroke="none" stroke-width="1px">14k</text><text x="227.15849540492448" y="0" dx="0em" dy="0.95em" style="text-anchor: middle; visibility: inherit; font-family: Roboto, sans-serif; font-size: 12px; font-weight: 200;" fill="rgb(50, 49, 63)" stroke="none" stroke-width="1px">16k</text></g><line x1="0" y1="0" x2="247.265625" y2="0" fill="rgb(0, 0, 0)" stroke="rgb(204, 204, 204)" stroke-width="1px"></line></g></g></g></g></svg>