<svg viewBox="0 0 330 200" xmlns="http://www.w3.org/2000/svg"><g><g><g><g><g><line x1="48.875" y1="177" x2="43.875" y2="177" style="visibility: inherit;" fill="rgb(0, 0, 0)" stroke="rgb(204, 204, 204)" stroke-width="1px"></line><line x1="48.875" y1="162.25" x2="43.875" y2="162.25" style="visibility: inherit;" fill="rgb(0, 0, 0)" stroke="rgb(204, 204, 204)" stroke-width="1px"></line><line x1="48.875" y1="147.5" x2="43.875" y2="147.5" style="visibility: inherit;" fill="rgb(0, 0, 0)" stroke="rgb(204, 204, 204)" stroke-width="1px"></line><line x1="48.875" y1="132.74999999999997" x2="43.875" y2="132.74999999999997" style="visibility: inherit;" fill="rgb(0, 0, 0)" stroke="rgb(204, 204, 204)" stroke-width="1px"></line><line x1="48.875" y1="118.00000000000001" x2="43.875" y2="118.00000000000001" style="visibility: inherit;" fill="rgb(0, 0, 0)" stroke="rgb(204, 204, 204)" stroke-width="1px"></line><line x1="48.875" y1="103.25" x2="43.875" y2="103.25" style="visibility: inherit;" fill="rgb(0, 0, 0)" stroke="rgb(204, 204, 204)" stroke-width="1px"></line><line x1="48.875" y1="88.49999999999999" x2="43.875" y2="88.49999999999999" style="visibility: inherit;" fill="rgb(0, 0, 0)" stroke="rgb(204, 204, 204)" stroke-width="1px"></line><line x1="48.875" y1="73.75000000000001" x2="43.875" y2="73.75000000000001" style="visibility: inherit;" fill="rgb(0, 0, 0)" stroke="rgb(204, 204, 204)" stroke-width="1px"></line><line x1="48.875" y1="59" x2="43.875" y2="59" style="visibility: inherit;" fill="rgb(0, 0, 0)" stroke="rgb(204, 204, 204)" stroke-width="1px"></line><line x1="48.875" y1="44.25" x2="43.875" y2="44.25" style="visibility: inherit;" fill="rgb(0, 0, 0)" stroke="rgb(204, 204, 204)" stroke-width="1px"></line><line x1="48.875" y1="29.50000000000003" x2="43.875" y2="29.50000000000003" style="visibility: inherit;" fill="rgb(0, 0, 0)" stroke="rgb(204, 204, 204)" stroke-width="1px"></line><line x1="48.875" y1="14.75" x2="43.875" y2="14.75" style="visibility: inherit;" fill="rgb(0, 0, 0)" stroke="rgb(204, 204, 204)" stroke-width="1px"></line><line x1="48.875" y1="0" x2="43.875" y2="0" style="visibility: inherit;" fill="rgb(0, 0, 0)" stroke="rgb(204, 204, 204)" stroke-width="1px"></line></g><g transform="translate(38.875, 0)"><text x="0" y="177" dx="0em" dy="0.3em" style="text-anchor: end; visibility: hidden; font-family: &quot;Helvetica Neue&quot;, sans-serif; font-size: 12px; font-weight: 200;" fill="rgb(50, 49, 63)" stroke="none" stroke-width="1px">0.11</text><text x="0" y="162.25" dx="0em" dy="0.3em" style="text-anchor: end; visibility: inherit; font-family: &quot;Helvetica Neue&quot;, sans-serif; font-size: 12px; font-weight: 200;" fill="rgb(50, 49, 63)" stroke="none" stroke-width="1px">0.12</text><text x="0" y="147.5" dx="0em" dy="0.3em" style="text-anchor: end; visibility: hidden; font-family: &quot;Helvetica Neue&quot;, sans-serif; font-size: 12px; font-weight: 200;" fill="rgb(50, 49, 63)" stroke="none" stroke-width="1px">0.13</text><text x="0" y="132.74999999999997" dx="0em" dy="0.3em" style="text-anchor: end; visibility: inherit; font-family: &quot;Helvetica Neue&quot;, sans-serif; font-size: 12px; font-weight: 200;" fill="rgb(50, 49, 63)" stroke="none" stroke-width="1px">0.14</text><text x="0" y="118.00000000000001" dx="0em" dy="0.3em" style="text-anchor: end; visibility: hidden; font-family: &quot;Helvetica Neue&quot;, sans-serif; font-size: 12px; font-weight: 200;" fill="rgb(50, 49, 63)" stroke="none" stroke-width="1px">0.15</text><text x="0" y="103.25" dx="0em" dy="0.3em" style="text-anchor: end; visibility: inherit; font-family: &quot;Helvetica Neue&quot;, sans-serif; font-size: 12px; font-weight: 200;" fill="rgb(50, 49, 63)" stroke="none" stroke-width="1px">0.16</text><text x="0" y="88.49999999999999" dx="0em" dy="0.3em" style="text-anchor: end; visibility: hidden; font-family: &quot;Helvetica Neue&quot;, sans-serif; font-size: 12px; font-weight: 200;" fill="rgb(50, 49, 63)" stroke="none" stroke-width="1px">0.17</text><text x="0" y="73.75000000000001" dx="0em" dy="0.3em" style="text-anchor: end; visibility: inherit; font-family: &quot;Helvetica Neue&quot;, sans-serif; font-size: 12px; font-weight: 200;" fill="rgb(50, 49, 63)" stroke="none" stroke-width="1px">0.18</text><text x="0" y="59" dx="0em" dy="0.3em" style="text-anchor: end; visibility: hidden; font-family: &quot;Helvetica Neue&quot;, sans-serif; font-size: 12px; font-weight: 200;" fill="rgb(50, 49, 63)" stroke="none" stroke-width="1px">0.19</text><text x="0" y="44.25" dx="0em" dy="0.3em" style="text-anchor: end; visibility: inherit; font-family: &quot;Helvetica Neue&quot;, sans-serif; font-size: 12px; font-weight: 200;" fill="rgb(50, 49, 63)" stroke="none" stroke-width="1px">0.2</text><text x="0" y="29.50000000000003" dx="0em" dy="0.3em" style="text-anchor: end; visibility: hidden; font-family: &quot;Helvetica Neue&quot;, sans-serif; font-size: 12px; font-weight: 200;" fill="rgb(50, 49, 63)" stroke="none" stroke-width="1px">0.21</text><text x="0" y="14.75" dx="0em" dy="0.3em" style="text-anchor: end; visibility: inherit; font-family: &quot;Helvetica Neue&quot;, sans-serif; font-size: 12px; font-weight: 200;" fill="rgb(50, 49, 63)" stroke="none" stroke-width="1px">0.22</text><text x="0" y="0" dx="0em" dy="0.3em" style="text-anchor: end; visibility: hidden; font-family: &quot;Helvetica Neue&quot;, sans-serif; font-size: 12px; font-weight: 200;" fill="rgb(50, 49, 63)" stroke="none" stroke-width="1px">0.23</text></g><line x1="48.875" y1="0" x2="48.875" y2="177" fill="rgb(0, 0, 0)" stroke="rgb(204, 204, 204)" stroke-width="1px"></line></g></g><g transform="translate(48, 0)" clip-path="url(#clip_0)"><clipPath id="clip_0"><rect width="281" height="177"></rect></clipPath><g><g><g><line x1="0" y1="0" x2="0" y2="177" fill="rgb(0, 0, 0)" stroke="rgb(60, 60, 60)" stroke-width="1px" opacity="0.25"></line><line x1="23.427083333333332" y1="0" x2="23.427083333333332" y2="177" fill="rgb(0, 0, 0)" stroke="rgb(60, 60, 60)" stroke-width="1px" opacity="0.25"></line><line x1="46.854166666666664" y1="0" x2="46.854166666666664" y2="177" fill="rgb(0, 0, 0)" stroke="rgb(60, 60, 60)" stroke-width="1px" opacity="0.25"></line><line x1="70.28125" y1="0" x2="70.28125" y2="177" fill="rgb(0, 0, 0)" stroke="rgb(60, 60, 60)" stroke-width="1px" opacity="0.25"></line><line x1="93.70833333333333" y1="0" x2="93.70833333333333" y2="177" fill="rgb(0, 0, 0)" stroke="rgb(60, 60, 60)" stroke-width="1px" opacity="0.25"></line><line x1="117.13541666666667" y1="0" x2="117.13541666666667" y2="177" fill="rgb(0, 0, 0)" stroke="rgb(60, 60, 60)" stroke-width="1px" opacity="0.25"></line><line x1="140.5625" y1="0" x2="140.5625" y2="177" fill="rgb(0, 0, 0)" stroke="rgb(60, 60, 60)" stroke-width="1px" opacity="0.25"></line><line x1="163.98958333333334" y1="0" x2="163.98958333333334" y2="177" fill="rgb(0, 0, 0)" stroke="rgb(60, 60, 60)" stroke-width="1px" opacity="0.25"></line><line x1="187.41666666666666" y1="0" x2="187.41666666666666" y2="177" fill="rgb(0, 0, 0)" stroke="rgb(60, 60, 60)" stroke-width="1px" opacity="0.25"></line><line x1="210.84375" y1="0" x2="210.84375" y2="177" fill="rgb(0, 0, 0)" stroke="rgb(60, 60, 60)" stroke-width="1px" opacity="0.25"></line><line x1="234.27083333333334" y1="0" x2="234.27083333333334" y2="177" fill="rgb(0, 0, 0)" stroke="rgb(60, 60, 60)" stroke-width="1px" opacity="0.25"></line><line x1="257.69791666666663" y1="0" x2="257.69791666666663" y2="177" fill="rgb(0, 0, 0)" stroke="rgb(60, 60, 60)" stroke-width="1px" opacity="0.25"></line><line x1="281.125" y1="0" x2="281.125" y2="177" fill="rgb(0, 0, 0)" stroke="rgb(60, 60, 60)" stroke-width="1px" opacity="0.25"></line></g><g><line x1="0" y1="177" x2="281.125" y2="177" fill="rgb(0, 0, 0)" stroke="rgb(60, 60, 60)" stroke-width="1px" opacity="0.25"></line><line x1="0" y1="162.25" x2="281.125" y2="162.25" fill="rgb(0, 0, 0)" stroke="rgb(60, 60, 60)" stroke-width="1px" opacity="0.25"></line><line x1="0" y1="147.5" x2="281.125" y2="147.5" fill="rgb(0, 0, 0)" stroke="rgb(60, 60, 60)" stroke-width="1px" opacity="0.25"></line><line x1="0" y1="132.74999999999997" x2="281.125" y2="132.74999999999997" fill="rgb(0, 0, 0)" stroke="rgb(60, 60, 60)" stroke-width="1px" opacity="0.25"></line><line x1="0" y1="118.00000000000001" x2="281.125" y2="118.00000000000001" fill="rgb(0, 0, 0)" stroke="rgb(60, 60, 60)" stroke-width="1px" opacity="0.25"></line><line x1="0" y1="103.25" x2="281.125" y2="103.25" fill="rgb(0, 0, 0)" stroke="rgb(60, 60, 60)" stroke-width="1px" opacity="0.25"></line><line x1="0" y1="88.49999999999999" x2="281.125" y2="88.49999999999999" fill="rgb(0, 0, 0)" stroke="rgb(60, 60, 60)" stroke-width="1px" opacity="0.25"></line><line x1="0" y1="73.75000000000001" x2="281.125" y2="73.75000000000001" fill="rgb(0, 0, 0)" stroke="rgb(60, 60, 60)" stroke-width="1px" opacity="0.25"></line><line x1="0" y1="59" x2="281.125" y2="59" fill="rgb(0, 0, 0)" stroke="rgb(60, 60, 60)" stroke-width="1px" opacity="0.25"></line><line x1="0" y1="44.25" x2="281.125" y2="44.25" fill="rgb(0, 0, 0)" stroke="rgb(60, 60, 60)" stroke-width="1px" opacity="0.25"></line><line x1="0" y1="29.50000000000003" x2="281.125" y2="29.50000000000003" fill="rgb(0, 0, 0)" stroke="rgb(60, 60, 60)" stroke-width="1px" opacity="0.25"></line><line x1="0" y1="14.75" x2="281.125" y2="14.75" fill="rgb(0, 0, 0)" stroke="rgb(60, 60, 60)" stroke-width="1px" opacity="0.25"></line><line x1="0" y1="0" x2="281.125" y2="0" fill="rgb(0, 0, 0)" stroke="rgb(60, 60, 60)" stroke-width="1px" opacity="0.25"></line></g></g></g><g><g><line x1="0" y1="339.25" x2="281.125" y2="339.25" fill="rgb(0, 0, 0)" stroke="rgb(153, 153, 153)" stroke-width="1.5px"></line></g></g><g><g><line x1="23.427083333333332" y1="0" x2="23.427083333333332" y2="177" fill="rgb(0, 0, 0)" stroke="rgb(153, 153, 153)" stroke-width="1.5px"></line></g></g><g><g><g><g><g><path stroke="rgb(0, 119, 187)" stroke-width="2px" d="M25.769791666666666,-4.1105145663022995L28.1125,16.235203102230997L30.455208333333335,26.55587887064533L32.797916666666666,33.11753945145756L35.140625,37.64593138026123L37.483333333333334,40.87145059488745L39.82604166666667,43.35337100254006L42.168749999999996,45.22541684086275L44.51145833333333,46.70998485492592L46.854166666666664,47.88731704994356L49.196875,48.90338202482059L51.53958333333333,49.67365765274238L53.88229166666667,50.3194921153452L56.225,50.97685048829838L58.567708333333336,51.47331022952177L60.91041666666667,51.91125961566439L63.253125000000004,52.31361213636838L65.59583333333333,52.65203253409284L67.93854166666667,53.05451430497794L70.28125,53.42619728760471L72.62395833333333,53.67711259238507L74.96666666666667,53.93502372410144L77.309375,54.2108218987247L79.65208333333334,54.39589616848713L81.99479166666667,54.70036658299156L84.33749999999999,55.01569744882768L86.68020833333334,55.17052010013384L89.02291666666666,55.34616977221101L91.36562500000001,55.504986596488166L93.70833333333333,55.724125149048504L96.05104166666666,55.92035022727555L98.39375,56.122019481925236L100.73645833333333,56.324414449025895L103.07916666666667,56.52597005175248L105.421875,56.62229548266242L107.76458333333333,56.78929226195626L110.10729166666667,56.994674049669825L112.45,57.08680693115491L114.79270833333334,57.208692466326085L117.13541666666667,57.315645399896695L119.47812499999999,57.44084903799113L121.82083333333334,57.575657970985745L124.16354166666666,57.70351730426724L126.50625000000001,57.823452828193055L128.84895833333331,57.97346672289997L131.19166666666666,58.136331754178585L133.53437499999998,58.26862847045609L135.87708333333333,58.38856254360677L138.21979166666665,58.46501553858384L140.5625,58.59646559837607L142.90520833333332,58.66325585891727L145.24791666666667,58.781874929964474L147.59062500000002,58.894842043578734L149.93333333333334,58.972785499727934L152.27604166666666,59.074693022392L154.61875,59.189352523220705L156.96145833333333,59.23678442891428L159.30416666666667,59.32915912303919L161.646875,59.39977597137445L163.98958333333334,59.503907668233836L166.33229166666666,59.548328565145084L168.67499999999998,59.6823363701013L171.01770833333333,59.63916512724802L173.36041666666668,59.7797417306724L175.703125,59.904916278351706L178.04583333333332,59.99041277875267L180.38854166666667,60.03434324687581L182.73125000000002,60.12282357469718L185.07395833333334,60.213487433526055L187.41666666666666,60.23419601150344L189.759375,60.32728486912245L192.10208333333333,60.38525697980404L194.44479166666667,60.459022577965726L196.7875,60.55421216867239L199.13020833333334,60.59660864223167L201.47291666666666,60.573252674037946L203.81562499999998,60.67695975666922L206.15833333333333,60.77369137028265L208.50104166666668,60.88331115495805L210.84375,60.96147930176046L213.18645833333332,61.05897633761755L215.52916666666667,61.0854728253519L217.87187500000002,61.089739318599456L220.21458333333334,61.14842533225426L222.55729166666666,61.23927951547269L224.9,61.27169852073649L227.24270833333333,61.35792277226244L229.58541666666667,61.432550871189804L231.928125,61.46268078316233L234.27083333333334,61.58012235539546L236.61354166666666,61.59798664675587L238.95624999999998,61.590796559014564L241.29895833333333,61.672693770503216L243.64166666666668,61.70798519335699L245.984375,61.80010015417645L248.32708333333332,61.85922868042891L250.66979166666667,61.890512162385605L253.01250000000002,61.991888924800264L255.35520833333334,62.031570979573075L257.69791666666663,62.01616929687128" style="fill: none;" fill="none"></path></g><g><path stroke="rgb(238, 51, 119)" stroke-width="2px" d="M25.769791666666666,68.17276421189308L28.1125,100.68896267749369L30.455208333333335,114.48203026123194L32.797916666666666,122.42059213158623L35.140625,127.66147092529714L37.483333333333334,131.2858009214256L39.82604166666667,133.95911052372054L42.168749999999996,135.9502371132348L44.51145833333333,137.50085737461325L46.854166666666664,138.6974995236597L49.196875,139.6421944845511L51.53958333333333,140.40061696178708L53.88229166666667,141.04593204613633L56.225,141.5821131326351L58.567708333333336,142.03819037527174L60.91041666666667,142.4025431752399L63.253125000000004,142.78210085967424L65.59583333333333,143.04248515373388L67.93854166666667,143.3062364580062L70.28125,143.54873075295774L72.62395833333333,143.78632536920782L74.96666666666667,143.97497421488694L77.309375,144.14872833013894L79.65208333333334,144.32826347735613L81.99479166666667,144.4942818509025L84.33749999999999,144.6412886281997L86.68020833333334,144.75671161902878L89.02291666666666,144.91552628907723L91.36562500000001,145.0692182143563L93.70833333333333,145.2099458624121L96.05104166666666,145.2717790059328L98.39375,145.35982670603065L100.73645833333333,145.48048317542373L103.07916666666667,145.58778004423652L105.421875,145.70290377085152L107.76458333333333,145.76628099354755L110.10729166666667,145.8794410681137L112.45,145.94235222693248L114.79270833333334,145.9881433139627L117.13541666666667,146.0362168843426L119.47812499999999,146.11338012790182L121.82083333333334,146.18742463220045L124.16354166666666,146.2510347916601L126.50625000000001,146.33824090684482L128.84895833333331,146.4052378983867L131.19166666666666,146.48194796154812L133.53437499999998,146.53126208967103L135.87708333333333,146.620827442327L138.21979166666665,146.66804322357174L140.5625,146.69557264897364L142.90520833333332,146.7972905245615L145.24791666666667,146.8490196470735L147.59062500000002,146.88615855004298L149.93333333333334,146.95154752389146L152.27604166666666,146.99325137171482L154.61875,147.03244587679706L156.96145833333333,147.07726483285427L159.30416666666667,147.09435347759725L161.646875,147.19513464596272L163.98958333333334,147.2471105791712L166.33229166666666,147.27903464064505L168.67499999999998,147.3002463318438L171.01770833333333,147.34182765707556L173.36041666666668,147.37772210016954L175.703125,147.43387163028186L178.04583333333332,147.5088822683398L180.38854166666667,147.52234408502008L182.73125000000002,147.58532524850503L185.07395833333334,147.6009940668734L187.41666666666666,147.6381331243987L189.759375,147.67299746029823L192.10208333333333,147.69532273145467L194.44479166666667,147.7078826840636L196.7875,147.73879574632153L199.13020833333334,147.7714981966943L201.47291666666666,147.7988475581247L203.81562499999998,147.8520503771447L206.15833333333333,147.87086366606613L208.50104166666668,147.92702440019167L210.84375,147.9436649715645L213.18645833333332,147.98854351256745L215.52916666666667,148.01917193659816L217.87187500000002,148.05180031257075L220.21458333333334,148.0569941413236L222.55729166666666,148.0749332196613L224.9,148.12595379275677L227.24270833333333,148.14057406140924L229.58541666666667,148.16531192275022L231.928125,148.1911618293055L234.27083333333334,148.2264530647235L236.61354166666666,148.227301430013L238.95624999999998,148.2426771886982L241.29895833333333,148.25868103312476L243.64166666666668,148.30209616069214L245.984375,148.30347576882968L248.32708333333332,148.32127148596365L250.66979166666667,148.38752115778874L253.01250000000002,148.39973540313693L255.35520833333334,148.40266810779363L257.69791666666663,148.45688771560543" style="fill: none;" fill="none"></path></g><g><path stroke="rgb(204, 51, 17)" stroke-width="2px" d="M30.455208333333335,-9.0279215945273L32.797916666666666,1.4040319366271206L35.140625,8.206650983824005L37.483333333333334,13.020213763556711L39.82604166666667,16.634912003839474L42.168749999999996,19.4767400619659L44.51145833333333,21.819224708546017L46.854166666666664,23.798868777514485L49.196875,25.479587713126023L51.53958333333333,26.970467814906783L53.88229166666667,28.3332085818534L56.225,29.545455587860715L58.567708333333336,30.633439885348736L60.91041666666667,31.614980670010112L63.253125000000004,32.505509606946134L65.59583333333333,33.32499689092657L67.93854166666667,34.076463703788306L70.28125,34.76824183956293L72.62395833333333,35.37119254947356L74.96666666666667,35.93413728833784L77.309375,36.46068473463231L79.65208333333334,36.94796129569099L81.99479166666667,37.38122170067845L84.33749999999999,37.78063989404427L86.68020833333334,38.184642303562924L89.02291666666666,38.56661157137856L91.36562500000001,38.89159600982779L93.70833333333333,39.20802616945582L96.05104166666666,39.48561645775544L98.39375,39.77106057429842L100.73645833333333,40.00877458887669L103.07916666666667,40.24811152927779L105.421875,40.46361209114934L107.76458333333333,40.69464980697839L110.10729166666667,40.878083654205L112.45,41.027266960674154L114.79270833333334,41.24131116398203L117.13541666666667,41.391514689694134L119.47812499999999,41.56034876179544L121.82083333333334,41.68645934034603L124.16354166666666,41.852627293928066L126.50625000000001,41.98244837921939L128.84895833333331,42.12421262266966L131.19166666666666,42.26083440187077L133.53437499999998,42.39983033897502L135.87708333333333,42.528672121539756L138.21979166666665,42.621239556418175L140.5625,42.74180332037679L142.90520833333332,42.85067982204535L145.24791666666667,42.971094421910266L147.59062500000002,43.09875717304192L149.93333333333334,43.16437400902544L152.27604166666666,43.25012904122619L154.61875,43.34229635426493L156.96145833333333,43.476203198606356L159.30416666666667,43.589463374241944L161.646875,43.68326703383019L163.98958333333334,43.78166140123301L166.33229166666666,43.87673513891755L168.67499999999998,43.953604631438594L171.01770833333333,44.0362997369854L173.36041666666668,44.09204460483119L175.703125,44.239282305844625L178.04583333333332,44.307307342176415L180.38854166666667,44.39891192882348L182.73125000000002,44.45618689399413L185.07395833333334,44.53885339105997L187.41666666666666,44.648052122622005L189.759375,44.713114193933706L192.10208333333333,44.79002601615042L194.44479166666667,44.864614210793064L196.7875,44.946494413774445L199.13020833333334,44.99971066913679L201.47291666666666,45.065321367989014L203.81562499999998,45.140839196449576L206.15833333333333,45.20755764675505L208.50104166666668,45.27078118224367L210.84375,45.343055625554456L213.18645833333332,45.38843358742986L215.52916666666667,45.476252658294385L217.87187500000002,45.52765172310279L220.21458333333334,45.592497399971535L222.55729166666666,45.63469289632184L224.9,45.72116515571801L227.24270833333333,45.781611612647396L229.58541666666667,45.83616619182206L231.928125,45.88843406362881L234.27083333333334,45.95956837012497L236.61354166666666,46.009326260531736L238.95624999999998,46.09555327966501L241.29895833333333,46.17355904623679L243.64166666666668,46.24998169329655L245.984375,46.31822770349319L248.32708333333332,46.39952914424023L250.66979166666667,46.498730322762015L253.01250000000002,46.56500304403528L255.35520833333334,46.653349528685936L257.69791666666663,46.73915919660075" style="fill: none;" fill="none"></path></g><g><path stroke="rgb(51, 187, 238)" stroke-width="2px" d="M25.769791666666666,-60.443478643894196L28.1125,12.454316943883924L30.455208333333335,46.23050209606183L32.797916666666666,64.89234699067825L35.140625,76.58776386343797L37.483333333333334,84.5142946727634L39.82604166666667,90.25236587196369L42.168749999999996,94.57975509108856L44.51145833333333,97.95647129603547L46.854166666666664,100.67040556023964L49.196875,102.83745643216183L51.53958333333333,104.6081402217732L53.88229166666667,106.07205851066732L56.225,107.33221344264747L58.567708333333336,108.38041660498816L60.91041666666667,109.25376463053627L63.253125000000004,110.01292105800441L65.59583333333333,110.65630919297962L67.93854166666667,111.23255511957389L70.28125,111.73677370383047L72.62395833333333,112.15624261648126L74.96666666666667,112.54565921830073L77.309375,112.88846432331616L79.65208333333334,113.18130683281409L81.99479166666667,113.49060148540784L84.33749999999999,113.76628384852897L86.68020833333334,114.02597509298862L89.02291666666666,114.27422550350941L91.36562500000001,114.52101835183174L93.70833333333333,114.73924287358417L96.05104166666666,114.91378431966154L98.39375,115.0608499313231L100.73645833333333,115.23338397163512L103.07916666666667,115.39674060108419L105.421875,115.55178623801073L107.76458333333333,115.72985558935252L110.10729166666667,115.84002045597214L112.45,115.9866248363072L114.79270833333334,116.09925693261769L117.13541666666667,116.23537616740862L119.47812499999999,116.33083307042153L121.82083333333334,116.45089742722584L124.16354166666666,116.5467878829665L126.50625000000001,116.64214398571875L128.84895833333331,116.7295658773813L131.19166666666666,116.81842538039247L133.53437499999998,116.87496763062903L135.87708333333333,116.96939735765929L138.21979166666665,117.05469850394647L140.5625,117.13053986843599L142.90520833333332,117.20149661550658L145.24791666666667,117.27705706626045L147.59062500000002,117.3320553986423L149.93333333333334,117.4144460849878L152.27604166666666,117.47145013766988L154.61875,117.53266941760484L156.96145833333333,117.58548976930682L159.30416666666667,117.67532139392317L161.646875,117.72266177160515L163.98958333333334,117.77345842017522L166.33229166666666,117.84525732930771L168.67499999999998,117.90859271726775L171.01770833333333,117.92713795090775L173.36041666666668,117.98489618888539L175.703125,118.00506243461992L178.04583333333332,118.07613680574067L180.38854166666667,118.14605323560701L182.73125000000002,118.18465346150202L185.07395833333334,118.230469769553L187.41666666666666,118.29197458405234L189.759375,118.31590094553793L192.10208333333333,118.37690544359303L194.44479166666667,118.41721823354011L196.7875,118.44765679561765L199.13020833333334,118.4793624193887L201.47291666666666,118.55442399450664L203.81562499999998,118.58311719696835L206.15833333333333,118.6289500534601L208.50104166666668,118.68030160904331L210.84375,118.70894978785755L213.18645833333332,118.75735796895172L215.52916666666667,118.7830004954728L217.87187500000002,118.81482646253063L220.21458333333334,118.83652438155622L222.55729166666666,118.8747401024807L224.9,118.90914268409661L227.24270833333333,118.92500155636935L229.58541666666667,118.95917755645078L231.928125,118.97686102558112L234.27083333333334,119.02356097441279L236.61354166666666,119.04833681190829L238.95624999999998,119.0978503454019L241.29895833333333,119.10207137038046L243.64166666666668,119.14222360592922L245.984375,119.17126466597223L248.32708333333332,119.20971022108259L250.66979166666667,119.21248634492795L253.01250000000002,119.26385141513013L255.35520833333334,119.2834786421136L257.69791666666663,119.29130751169183" style="fill: none;" fill="none"></path></g></g></g></g><g opacity="0.2"><g><g><g><path stroke="rgb(0, 119, 187)" stroke-width="2px" d="M25.769791666666666,-4.110514566302271L28.1125,28.44263370335102L30.455208333333335,36.463727608323126L32.797916666666666,40.83405229449272L35.140625,43.558199882507324L37.483333333333334,45.33350485563278L39.82604166666667,46.90255689620972L42.168749999999996,47.954877644777326L44.51145833333333,48.89943431317809L46.854166666666664,49.63551814854145L49.196875,50.41826385259628L51.53958333333333,50.824879288673415L53.88229166666667,51.28613504767418L56.225,51.961600214242935L58.567708333333336,52.21741627156736L60.91041666666667,52.56787481904031L63.253125000000004,52.916970655322075L65.59583333333333,53.15957720577718L67.93854166666667,53.65817564725876L70.28125,53.983687788248076L72.62395833333333,54.053471788764L74.96666666666667,54.321881935000434L77.309375,54.624513715505614L79.65208333333334,54.67350538074972L81.99479166666667,55.15707004070282L84.33749999999999,55.488692402839675L86.68020833333334,55.40275368094444L89.02291666666666,55.60964401066305L91.36562500000001,55.74321168661119L93.70833333333333,56.05283285677433L96.05104166666666,56.2146877795458L98.39375,56.42452332377434L100.73645833333333,56.628006875514984L103.07916666666667,56.82830344140531L105.421875,56.76678362488748L107.76458333333333,57.03978742659092L110.10729166666667,57.30274672806263L112.45,57.22500625252724L114.79270833333334,57.39152076840402L117.13541666666667,57.4760747998953L119.47812499999999,57.628654494881644L121.82083333333334,57.777871370315566L124.16354166666666,57.89530630409719L126.50625000000001,58.0033561140299L128.84895833333331,58.19848756492139L131.19166666666666,58.38062930107117L133.53437499999998,58.467073544859886L135.87708333333333,58.56846365332605L138.21979166666665,58.57969503104687L140.5625,58.79364068806173L142.90520833333332,58.76344124972822L145.24791666666667,58.959803536534324L147.59062500000002,59.06429271399976L149.93333333333334,59.08970068395139L152.27604166666666,59.227554306387916L154.61875,59.36134177446367L156.96145833333333,59.30793228745462L159.30416666666667,59.467721164226546L161.646875,59.505701243877425L163.98958333333334,59.660105213522925L166.33229166666666,59.614959910511985L168.67499999999998,59.88334807753563L171.01770833333333,59.57440826296808L173.36041666666668,59.99060663580896L175.703125,60.092678099870696L178.04583333333332,60.11865752935411L180.38854166666667,60.100238949060454L182.73125000000002,60.25554406642915L185.07395833333334,60.34948322176935L187.41666666666666,60.26525887846947L189.759375,60.46691815555097L192.10208333333333,60.472215145826354L194.44479166666667,60.5696709752083L196.7875,60.69699655473234L199.13020833333334,60.66020335257055L201.47291666666666,60.53821872174741L203.81562499999998,60.83252038061619L206.15833333333333,60.918788790702834L208.50104166666668,61.04774083197117L210.84375,61.07873152196407L213.18645833333332,61.20522189140321L215.52916666666667,61.12521755695343L217.87187500000002,61.096139058470726L220.21458333333334,61.23645435273647L222.55729166666666,61.37556079030038L224.9,61.320327028632164L227.24270833333333,61.487259149551406L229.58541666666667,61.544493019580855L231.928125,61.507875651121154L234.27083333333334,61.75628471374513L236.61354166666666,61.624783083796515L238.95624999999998,61.58001142740251L241.29895833333333,61.79553958773613L243.64166666666668,61.76092232763767L245.984375,61.93827259540559L248.32708333333332,61.947921469807625L250.66979166666667,61.93743738532066L253.01250000000002,62.14395406842232L255.35520833333334,62.091094061732306L257.69791666666663,61.99306677281858" style="fill: none;" fill="none"></path></g><g><path stroke="rgb(238, 51, 119)" stroke-width="2px" d="M25.769791666666666,68.17276421189308L28.1125,120.19868175685406L30.455208333333335,127.72337514162064L32.797916666666666,131.75634089112282L35.140625,134.5039622783661L37.483333333333334,136.29955406486988L39.82604166666667,137.781986027956L42.168749999999996,138.8533187955618L44.51145833333333,139.787721067667L46.854166666666664,140.47437365353107L49.196875,141.05066861212254L51.53958333333333,141.53412337601185L53.88229166666667,142.01179760694504L56.225,142.38533432781696L58.567708333333336,142.72177013754845L60.91041666666667,142.9488154053688L63.253125000000004,143.3512767702341L65.59583333333333,143.43299548327923L67.93854166666667,143.7018232345581L70.28125,143.91245003044605L72.62395833333333,144.1427042633295L74.96666666666667,144.25794127583504L77.309375,144.40935607254505L79.65208333333334,144.59756407141685L81.99479166666667,144.74330823123455L84.33749999999999,144.8617981672287L86.68020833333334,144.92984580993652L89.02291666666666,145.15374805033207L91.36562500000001,145.2997559607029L93.70833333333333,145.42103725671768L96.05104166666666,145.36452870070934L98.39375,145.4918982386589L100.73645833333333,145.66146786510944L103.07916666666667,145.74872533977032L105.421875,145.87558935582638L107.76458333333333,145.8613468259573L110.10729166666667,146.04918117821217L112.45,146.03671896457672L114.79270833333334,146.05682994425297L117.13541666666667,146.10832723975182L119.47812499999999,146.22912499308586L121.82083333333334,146.29849138855934L124.16354166666666,146.34645003080368L126.50625000000001,146.46905007958412L128.84895833333331,146.5057333856821L131.19166666666666,146.59701305627823L133.53437499999998,146.60523328185081L135.87708333333333,146.75517547130585L138.21979166666665,146.73886689543724L140.5625,146.736866787076L142.90520833333332,146.94986733794212L145.24791666666667,146.92661333084106L147.59062500000002,146.94186690449715L149.93333333333334,147.04963098466396L152.27604166666666,147.05580714344978L154.61875,147.0912376344204L156.96145833333333,147.14449326694012L159.30416666666667,147.11998644471169L161.646875,147.34630639851093L163.98958333333334,147.32507447898388L166.33229166666666,147.3269207328558L168.67499999999998,147.33206386864185L171.01770833333333,147.4041996449232L173.36041666666668,147.43156376481056L175.703125,147.51809592545033L178.04583333333332,147.62139822542667L180.38854166666667,147.54253681004047L182.73125000000002,147.67979699373245L185.07395833333334,147.62449729442596L187.41666666666666,147.69384171068668L189.759375,147.72529396414757L192.10208333333333,147.72881063818932L194.44479166666667,147.72672261297703L196.7875,147.78516533970833L199.13020833333334,147.82055187225342L201.47291666666666,147.83987160027027L203.81562499999998,147.93185460567474L206.15833333333333,147.8990835994482L208.50104166666668,148.01126550137997L210.84375,147.96862582862377L213.18645833333332,148.05586132407188L215.52916666666667,148.06511457264423L217.87187500000002,148.1007428765297L220.21458333333334,148.06478488445282L222.55729166666666,148.10184183716774L224.9,148.20248465240002L227.24270833333333,148.1625044643879L229.58541666666667,148.20241871476173L231.928125,148.2299366891384L234.27083333333334,148.2793899178505L236.61354166666666,148.22857397794724L238.95624999999998,148.26574082672596L241.29895833333333,148.28268679976463L243.64166666666668,148.36721885204315L245.984375,148.305545181036L248.32708333333332,148.34796506166458L250.66979166666667,148.4868956655264L253.01250000000002,148.41805677115917L255.35520833333334,148.4070671647787L257.69791666666663,148.53821712732315" style="fill: none;" fill="none"></path></g><g><path stroke="rgb(204, 51, 17)" stroke-width="2px" d="M28.1125,-2.078030824661255L30.455208333333335,8.751347094774246L32.797916666666666,13.672009289264679L35.140625,17.088150411844282L37.483333333333334,19.679103970527677L39.82604166666667,21.803988322615623L42.168749999999996,23.62015265226364L44.51145833333333,25.273934558033943L46.854166666666664,26.738409504294395L49.196875,27.985422119498253L51.53958333333333,29.19867466390133L53.88229166666667,30.37287014722827L56.225,31.36145117878914L58.567708333333336,32.26413744688034L60.91041666666667,33.08659958839419L63.253125000000004,33.84092617034915L65.59583333333333,34.55401974916458L67.93854166666667,35.203549444675446L70.28125,35.80584581196308L72.62395833333333,36.27558554708958L74.96666666666667,36.77853587269783L77.309375,37.25049550831321L79.65208333333334,37.67887036502361L81.99479166666667,38.0311092287302L84.33749999999999,38.37976548075676L86.68020833333334,38.7906448841095L89.02291666666666,39.139564886689186L91.36562500000001,39.37907236814499L93.70833333333333,39.68267123401168L96.05104166666666,39.902001798152924L98.39375,40.199226692318945L100.73645833333333,40.36534558236599L103.07916666666667,40.607116922736196L105.421875,40.78686292469504L107.76458333333333,41.04120637476444L110.10729166666667,41.15323442220688L112.45,41.251041918992996L114.79270833333334,41.5623774677515L117.13541666666667,41.61681997776034L119.47812499999999,41.81359986960888L121.82083333333334,41.87562520802024L124.16354166666666,42.101879224181175L126.50625000000001,42.177180007100105L128.84895833333331,42.336858987808256L131.19166666666666,42.46576707065108L133.53437499999998,42.608324244618444L135.87708333333333,42.72193479537967L138.21979166666665,42.760090708732605L140.5625,42.92264896631244L142.90520833333332,43.013994574546814L145.24791666666667,43.1517163217068L147.59062500000002,43.29025129973891L149.93333333333334,43.26279926300049L152.27604166666666,43.37876158952713L154.61875,43.480547323823004L156.96145833333333,43.67706346511841L159.30416666666667,43.75935363769531L161.646875,43.82397252321243L163.98958333333334,43.92925295233729L166.33229166666666,44.0193457454443L168.67499999999998,44.06890887022021L171.01770833333333,44.16034239530563L173.36041666666668,44.17566190660003L175.703125,44.460138857364655L178.04583333333332,44.409344896674185L180.38854166666667,44.53631880879402L182.73125000000002,44.542099341750145L185.07395833333334,44.66285313665867L187.41666666666666,44.81185021996498L189.759375,44.81070730090144L192.10208333333333,44.90539374947551L194.44479166666667,44.97649650275707L196.7875,45.06931471824649L199.13020833333334,45.07953505218032L201.47291666666666,45.16373741626742L203.81562499999998,45.25411593914032L206.15833333333333,45.30763532221317L208.50104166666668,45.365616485476494L210.84375,45.45146729052067L213.18645833333332,45.45650053024295L215.52916666666667,45.60798126459122L217.87187500000002,45.60475032031536L220.21458333333334,45.68976591527462L222.55729166666666,45.697986140847206L224.9,45.85087354481223L227.24270833333333,45.872281298041344L229.58541666666667,45.9179980605841L231.928125,45.966835871338844L234.27083333333334,46.06626982986927L236.61354166666666,46.083963096141844L238.95624999999998,46.22489380836487L241.29895833333333,46.29056769609451L243.64166666666668,46.36461566388607L245.984375,46.42059671878815L248.32708333333332,46.521481305360794L250.66979166666667,46.64753209054473L253.01250000000002,46.66441212594512L255.35520833333334,46.78586925566199L257.69791666666663,46.86787369847298" style="fill: none;" fill="none"></path></g><g><path stroke="rgb(51, 187, 238)" stroke-width="2px" d="M25.769791666666666,-60.443478643894196L28.1125,56.192994296550765L30.455208333333335,78.6556398421526L32.797916666666666,86.83867658674718L35.140625,91.85730013251305L37.483333333333334,95.47954033315182L39.82604166666667,98.4578994959593L42.168749999999996,100.88913011550903L44.51145833333333,102.93647180497646L46.854166666666664,104.70028164982797L49.196875,106.06837774813175L51.53958333333333,107.25452992320061L53.88229166666667,108.26315599679948L56.225,109.21997706592084L58.567708333333336,109.95148922502996L60.91041666666667,110.5631707161665L63.253125000000004,111.15133444964886L65.59583333333333,111.6212280392647L67.93854166666667,112.09683622419836L70.28125,112.49305549263956L72.62395833333333,112.78542298078538L74.96666666666667,113.12977130711079L77.309375,113.40266521275043L79.65208333333334,113.62056712806225L81.99479166666667,113.95454126596451L84.33749999999999,114.17980621755123L86.68020833333334,114.4155112951994L89.02291666666666,114.64660073816776L91.36562500000001,114.8912073969841L93.70833333333333,115.06657953560352L96.05104166666666,115.17559643089771L98.39375,115.28144831955433L100.73645833333333,115.49218501150608L103.07916666666667,115.64177553355694L105.421875,115.78435468673706L107.76458333333333,115.99695961177349L110.10729166666667,116.00526775419712L112.45,116.20653140544891L114.79270833333334,116.26820507645607L117.13541666666667,116.43955501914024L119.47812499999999,116.47401842474937L121.82083333333334,116.6309939622879L124.16354166666666,116.6906235665083L126.50625000000001,116.7851781398058L128.84895833333331,116.86069871485233L131.19166666666666,116.95171463489532L133.53437499999998,116.95978100597858L135.87708333333333,117.11104194819927L138.21979166666665,117.18265022337437L140.5625,117.24430191516876L142.90520833333332,117.30793173611164L145.24791666666667,117.39039774239063L147.59062500000002,117.41455289721489L149.93333333333334,117.53803211450577L152.27604166666666,117.55695621669292L154.61875,117.62449833750725L156.96145833333333,117.66472029685974L159.30416666666667,117.81006883084774L161.646875,117.79367233812809L163.98958333333334,117.84965339303017L166.33229166666666,117.95295569300652L168.67499999999998,118.00359579920769L171.01770833333333,117.95495580136776L173.36041666666668,118.07153354585171L175.703125,118.0353118032217L178.04583333333332,118.18274836242199L180.38854166666667,118.25092788040638L182.73125000000002,118.24255380034447L185.07395833333334,118.29919423162937L187.41666666666666,118.38423180580139L189.759375,118.35179048776627L192.10208333333333,118.46841219067574L194.44479166666667,118.47768741846085L196.7875,118.49331463873386L199.13020833333334,118.52692085504532L201.47291666666666,118.66701635718346L203.81562499999998,118.6261570006609L206.15833333333333,118.69769933819771L208.50104166666668,118.7573289424181L210.84375,118.75192205607891L213.18645833333332,118.82997024059296L215.52916666666667,118.82146428525448L217.87187500000002,118.86256541311741L220.21458333333334,118.86907126009464L222.55729166666666,118.93206368386745L224.9,118.96074655652046L227.24270833333333,118.94878986477852L229.58541666666667,119.01044155657291L231.928125,119.00338622927666L234.27083333333334,119.09361089766026L236.61354166666666,119.08550056815147L238.95624999999998,119.17212064564228L241.29895833333333,119.10840290784836L243.64166666666668,119.20245195925236L245.984375,119.21482625603676L248.32708333333332,119.26737855374813L250.66979166666667,119.21665053069592L253.01250000000002,119.34089902043343L255.35520833333334,119.31291948258877L257.69791666666663,119.30305081605911" style="fill: none;" fill="none"></path></g></g></g></g></g></g><g transform="translate(48, 177)" clip-path="url(#clip_1)"><clipPath id="clip_1"><rect width="281" height="23"></rect></clipPath><g><g><line x1="0" y1="0" x2="0" y2="5" style="visibility: inherit;" fill="rgb(0, 0, 0)" stroke="rgb(204, 204, 204)" stroke-width="1px"></line><line x1="23.427083333333332" y1="0" x2="23.427083333333332" y2="5" style="visibility: inherit;" fill="rgb(0, 0, 0)" stroke="rgb(204, 204, 204)" stroke-width="1px"></line><line x1="46.854166666666664" y1="0" x2="46.854166666666664" y2="5" style="visibility: inherit;" fill="rgb(0, 0, 0)" stroke="rgb(204, 204, 204)" stroke-width="1px"></line><line x1="70.28125" y1="0" x2="70.28125" y2="5" style="visibility: inherit;" fill="rgb(0, 0, 0)" stroke="rgb(204, 204, 204)" stroke-width="1px"></line><line x1="93.70833333333333" y1="0" x2="93.70833333333333" y2="5" style="visibility: inherit;" fill="rgb(0, 0, 0)" stroke="rgb(204, 204, 204)" stroke-width="1px"></line><line x1="117.13541666666667" y1="0" x2="117.13541666666667" y2="5" style="visibility: inherit;" fill="rgb(0, 0, 0)" stroke="rgb(204, 204, 204)" stroke-width="1px"></line><line x1="140.5625" y1="0" x2="140.5625" y2="5" style="visibility: inherit;" fill="rgb(0, 0, 0)" stroke="rgb(204, 204, 204)" stroke-width="1px"></line><line x1="163.98958333333334" y1="0" x2="163.98958333333334" y2="5" style="visibility: inherit;" fill="rgb(0, 0, 0)" stroke="rgb(204, 204, 204)" stroke-width="1px"></line><line x1="187.41666666666666" y1="0" x2="187.41666666666666" y2="5" style="visibility: inherit;" fill="rgb(0, 0, 0)" stroke="rgb(204, 204, 204)" stroke-width="1px"></line><line x1="210.84375" y1="0" x2="210.84375" y2="5" style="visibility: inherit;" fill="rgb(0, 0, 0)" stroke="rgb(204, 204, 204)" stroke-width="1px"></line><line x1="234.27083333333334" y1="0" x2="234.27083333333334" y2="5" style="visibility: inherit;" fill="rgb(0, 0, 0)" stroke="rgb(204, 204, 204)" stroke-width="1px"></line><line x1="257.69791666666663" y1="0" x2="257.69791666666663" y2="5" style="visibility: inherit;" fill="rgb(0, 0, 0)" stroke="rgb(204, 204, 204)" stroke-width="1px"></line><line x1="281.125" y1="0" x2="281.125" y2="5" style="visibility: inherit;" fill="rgb(0, 0, 0)" stroke="rgb(204, 204, 204)" stroke-width="1px"></line></g><g transform="translate(0, 8)"><text x="0" y="0" dx="0em" dy="0.95em" style="text-anchor: middle; visibility: hidden; font-family: &quot;Helvetica Neue&quot;, sans-serif; font-size: 12px; font-weight: 200;" fill="rgb(50, 49, 63)" stroke="none" stroke-width="1px">-10</text><text x="23.427083333333332" y="0" dx="0em" dy="0.95em" style="text-anchor: middle; visibility: inherit; font-family: &quot;Helvetica Neue&quot;, sans-serif; font-size: 12px; font-weight: 200;" fill="rgb(50, 49, 63)" stroke="none" stroke-width="1px">0</text><text x="46.854166666666664" y="0" dx="0em" dy="0.95em" style="text-anchor: middle; visibility: inherit; font-family: &quot;Helvetica Neue&quot;, sans-serif; font-size: 12px; font-weight: 200;" fill="rgb(50, 49, 63)" stroke="none" stroke-width="1px">10</text><text x="70.28125" y="0" dx="0em" dy="0.95em" style="text-anchor: middle; visibility: inherit; font-family: &quot;Helvetica Neue&quot;, sans-serif; font-size: 12px; font-weight: 200;" fill="rgb(50, 49, 63)" stroke="none" stroke-width="1px">20</text><text x="93.70833333333333" y="0" dx="0em" dy="0.95em" style="text-anchor: middle; visibility: inherit; font-family: &quot;Helvetica Neue&quot;, sans-serif; font-size: 12px; font-weight: 200;" fill="rgb(50, 49, 63)" stroke="none" stroke-width="1px">30</text><text x="117.13541666666667" y="0" dx="0em" dy="0.95em" style="text-anchor: middle; visibility: inherit; font-family: &quot;Helvetica Neue&quot;, sans-serif; font-size: 12px; font-weight: 200;" fill="rgb(50, 49, 63)" stroke="none" stroke-width="1px">40</text><text x="140.5625" y="0" dx="0em" dy="0.95em" style="text-anchor: middle; visibility: inherit; font-family: &quot;Helvetica Neue&quot;, sans-serif; font-size: 12px; font-weight: 200;" fill="rgb(50, 49, 63)" stroke="none" stroke-width="1px">50</text><text x="163.98958333333334" y="0" dx="0em" dy="0.95em" style="text-anchor: middle; visibility: inherit; font-family: &quot;Helvetica Neue&quot;, sans-serif; font-size: 12px; font-weight: 200;" fill="rgb(50, 49, 63)" stroke="none" stroke-width="1px">60</text><text x="187.41666666666666" y="0" dx="0em" dy="0.95em" style="text-anchor: middle; visibility: inherit; font-family: &quot;Helvetica Neue&quot;, sans-serif; font-size: 12px; font-weight: 200;" fill="rgb(50, 49, 63)" stroke="none" stroke-width="1px">70</text><text x="210.84375" y="0" dx="0em" dy="0.95em" style="text-anchor: middle; visibility: inherit; font-family: &quot;Helvetica Neue&quot;, sans-serif; font-size: 12px; font-weight: 200;" fill="rgb(50, 49, 63)" stroke="none" stroke-width="1px">80</text><text x="234.27083333333334" y="0" dx="0em" dy="0.95em" style="text-anchor: middle; visibility: inherit; font-family: &quot;Helvetica Neue&quot;, sans-serif; font-size: 12px; font-weight: 200;" fill="rgb(50, 49, 63)" stroke="none" stroke-width="1px">90</text><text x="257.69791666666663" y="0" dx="0em" dy="0.95em" style="text-anchor: middle; visibility: inherit; font-family: &quot;Helvetica Neue&quot;, sans-serif; font-size: 12px; font-weight: 200;" fill="rgb(50, 49, 63)" stroke="none" stroke-width="1px">100</text><text x="281.125" y="0" dx="0em" dy="0.95em" style="text-anchor: middle; visibility: hidden; font-family: &quot;Helvetica Neue&quot;, sans-serif; font-size: 12px; font-weight: 200;" fill="rgb(50, 49, 63)" stroke="none" stroke-width="1px">110</text></g><line x1="0" y1="0" x2="281.125" y2="0" fill="rgb(0, 0, 0)" stroke="rgb(204, 204, 204)" stroke-width="1px"></line></g></g></g></g></svg>