<svg viewBox="0 0 330 200" xmlns="http://www.w3.org/2000/svg"><g><g><g><g><g><line x1="30" y1="177.2943025536724" x2="25" y2="177.2943025536724" style="visibility: inherit;" fill="rgb(0, 0, 0)" stroke="rgb(204, 204, 204)" stroke-width="1px"></line><line x1="30" y1="162.36604054741017" x2="25" y2="162.36604054741017" style="visibility: inherit;" fill="rgb(0, 0, 0)" stroke="rgb(204, 204, 204)" stroke-width="1px"></line><line x1="30" y1="147.43777854114794" x2="25" y2="147.43777854114794" style="visibility: inherit;" fill="rgb(0, 0, 0)" stroke="rgb(204, 204, 204)" stroke-width="1px"></line><line x1="30" y1="132.5095165348857" x2="25" y2="132.5095165348857" style="visibility: inherit;" fill="rgb(0, 0, 0)" stroke="rgb(204, 204, 204)" stroke-width="1px"></line><line x1="30" y1="117.58125452862348" x2="25" y2="117.58125452862348" style="visibility: inherit;" fill="rgb(0, 0, 0)" stroke="rgb(204, 204, 204)" stroke-width="1px"></line><line x1="30" y1="102.65299252236123" x2="25" y2="102.65299252236123" style="visibility: inherit;" fill="rgb(0, 0, 0)" stroke="rgb(204, 204, 204)" stroke-width="1px"></line><line x1="30" y1="87.72473051609902" x2="25" y2="87.72473051609902" style="visibility: inherit;" fill="rgb(0, 0, 0)" stroke="rgb(204, 204, 204)" stroke-width="1px"></line><line x1="30" y1="72.79646850983677" x2="25" y2="72.79646850983677" style="visibility: inherit;" fill="rgb(0, 0, 0)" stroke="rgb(204, 204, 204)" stroke-width="1px"></line><line x1="30" y1="57.868206503574534" x2="25" y2="57.868206503574534" style="visibility: inherit;" fill="rgb(0, 0, 0)" stroke="rgb(204, 204, 204)" stroke-width="1px"></line><line x1="30" y1="42.93994449731231" x2="25" y2="42.93994449731231" style="visibility: inherit;" fill="rgb(0, 0, 0)" stroke="rgb(204, 204, 204)" stroke-width="1px"></line><line x1="30" y1="28.011682491050067" x2="25" y2="28.011682491050067" style="visibility: inherit;" fill="rgb(0, 0, 0)" stroke="rgb(204, 204, 204)" stroke-width="1px"></line><line x1="30" y1="13.083420484787826" x2="25" y2="13.083420484787826" style="visibility: inherit;" fill="rgb(0, 0, 0)" stroke="rgb(204, 204, 204)" stroke-width="1px"></line></g><g transform="translate(20, 0)"><text x="0" y="177.2943025536724" dx="0em" dy="0.3em" style="text-anchor: end; visibility: hidden; font-family: Roboto, sans-serif; font-size: 12px; font-weight: 200;" fill="rgb(50, 49, 63)" stroke="none" stroke-width="1px">-1</text><text x="0" y="162.36604054741017" dx="0em" dy="0.3em" style="text-anchor: end; visibility: inherit; font-family: Roboto, sans-serif; font-size: 12px; font-weight: 200;" fill="rgb(50, 49, 63)" stroke="none" stroke-width="1px">0</text><text x="0" y="147.43777854114794" dx="0em" dy="0.3em" style="text-anchor: end; visibility: hidden; font-family: Roboto, sans-serif; font-size: 12px; font-weight: 200;" fill="rgb(50, 49, 63)" stroke="none" stroke-width="1px">1</text><text x="0" y="132.5095165348857" dx="0em" dy="0.3em" style="text-anchor: end; visibility: inherit; font-family: Roboto, sans-serif; font-size: 12px; font-weight: 200;" fill="rgb(50, 49, 63)" stroke="none" stroke-width="1px">2</text><text x="0" y="117.58125452862348" dx="0em" dy="0.3em" style="text-anchor: end; visibility: hidden; font-family: Roboto, sans-serif; font-size: 12px; font-weight: 200;" fill="rgb(50, 49, 63)" stroke="none" stroke-width="1px">3</text><text x="0" y="102.65299252236123" dx="0em" dy="0.3em" style="text-anchor: end; visibility: inherit; font-family: Roboto, sans-serif; font-size: 12px; font-weight: 200;" fill="rgb(50, 49, 63)" stroke="none" stroke-width="1px">4</text><text x="0" y="87.72473051609902" dx="0em" dy="0.3em" style="text-anchor: end; visibility: hidden; font-family: Roboto, sans-serif; font-size: 12px; font-weight: 200;" fill="rgb(50, 49, 63)" stroke="none" stroke-width="1px">5</text><text x="0" y="72.79646850983677" dx="0em" dy="0.3em" style="text-anchor: end; visibility: inherit; font-family: Roboto, sans-serif; font-size: 12px; font-weight: 200;" fill="rgb(50, 49, 63)" stroke="none" stroke-width="1px">6</text><text x="0" y="57.868206503574534" dx="0em" dy="0.3em" style="text-anchor: end; visibility: hidden; font-family: Roboto, sans-serif; font-size: 12px; font-weight: 200;" fill="rgb(50, 49, 63)" stroke="none" stroke-width="1px">7</text><text x="0" y="42.93994449731231" dx="0em" dy="0.3em" style="text-anchor: end; visibility: inherit; font-family: Roboto, sans-serif; font-size: 12px; font-weight: 200;" fill="rgb(50, 49, 63)" stroke="none" stroke-width="1px">8</text><text x="0" y="28.011682491050067" dx="0em" dy="0.3em" style="text-anchor: end; visibility: hidden; font-family: Roboto, sans-serif; font-size: 12px; font-weight: 200;" fill="rgb(50, 49, 63)" stroke="none" stroke-width="1px">9</text><text x="0" y="13.083420484787826" dx="0em" dy="0.3em" style="text-anchor: end; visibility: inherit; font-family: Roboto, sans-serif; font-size: 12px; font-weight: 200;" fill="rgb(50, 49, 63)" stroke="none" stroke-width="1px">10</text></g><line x1="30" y1="0" x2="30" y2="178" fill="rgb(0, 0, 0)" stroke="rgb(204, 204, 204)" stroke-width="1px"></line></g></g><g transform="translate(30, 0)" clip-path="url(#clip_0)"><clipPath id="clip_0"><rect width="300" height="178"></rect></clipPath><g><g><g><line x1="11.352239018808476" y1="0" x2="11.352239018808476" y2="178" fill="rgb(0, 0, 0)" stroke="rgb(60, 60, 60)" stroke-width="1px" opacity="0.25"></line><line x1="50.32522996351627" y1="0" x2="50.32522996351627" y2="178" fill="rgb(0, 0, 0)" stroke="rgb(60, 60, 60)" stroke-width="1px" opacity="0.25"></line><line x1="89.29822090822407" y1="0" x2="89.29822090822407" y2="178" fill="rgb(0, 0, 0)" stroke="rgb(60, 60, 60)" stroke-width="1px" opacity="0.25"></line><line x1="128.27121185293186" y1="0" x2="128.27121185293186" y2="178" fill="rgb(0, 0, 0)" stroke="rgb(60, 60, 60)" stroke-width="1px" opacity="0.25"></line><line x1="167.24420279763967" y1="0" x2="167.24420279763967" y2="178" fill="rgb(0, 0, 0)" stroke="rgb(60, 60, 60)" stroke-width="1px" opacity="0.25"></line><line x1="206.21719374234746" y1="0" x2="206.21719374234746" y2="178" fill="rgb(0, 0, 0)" stroke="rgb(60, 60, 60)" stroke-width="1px" opacity="0.25"></line><line x1="245.19018468705525" y1="0" x2="245.19018468705525" y2="178" fill="rgb(0, 0, 0)" stroke="rgb(60, 60, 60)" stroke-width="1px" opacity="0.25"></line><line x1="284.16317563176307" y1="0" x2="284.16317563176307" y2="178" fill="rgb(0, 0, 0)" stroke="rgb(60, 60, 60)" stroke-width="1px" opacity="0.25"></line></g><g><line x1="0" y1="177.2943025536724" x2="300" y2="177.2943025536724" fill="rgb(0, 0, 0)" stroke="rgb(60, 60, 60)" stroke-width="1px" opacity="0.25"></line><line x1="0" y1="162.36604054741017" x2="300" y2="162.36604054741017" fill="rgb(0, 0, 0)" stroke="rgb(60, 60, 60)" stroke-width="1px" opacity="0.25"></line><line x1="0" y1="147.43777854114794" x2="300" y2="147.43777854114794" fill="rgb(0, 0, 0)" stroke="rgb(60, 60, 60)" stroke-width="1px" opacity="0.25"></line><line x1="0" y1="132.5095165348857" x2="300" y2="132.5095165348857" fill="rgb(0, 0, 0)" stroke="rgb(60, 60, 60)" stroke-width="1px" opacity="0.25"></line><line x1="0" y1="117.58125452862348" x2="300" y2="117.58125452862348" fill="rgb(0, 0, 0)" stroke="rgb(60, 60, 60)" stroke-width="1px" opacity="0.25"></line><line x1="0" y1="102.65299252236123" x2="300" y2="102.65299252236123" fill="rgb(0, 0, 0)" stroke="rgb(60, 60, 60)" stroke-width="1px" opacity="0.25"></line><line x1="0" y1="87.72473051609902" x2="300" y2="87.72473051609902" fill="rgb(0, 0, 0)" stroke="rgb(60, 60, 60)" stroke-width="1px" opacity="0.25"></line><line x1="0" y1="72.79646850983677" x2="300" y2="72.79646850983677" fill="rgb(0, 0, 0)" stroke="rgb(60, 60, 60)" stroke-width="1px" opacity="0.25"></line><line x1="0" y1="57.868206503574534" x2="300" y2="57.868206503574534" fill="rgb(0, 0, 0)" stroke="rgb(60, 60, 60)" stroke-width="1px" opacity="0.25"></line><line x1="0" y1="42.93994449731231" x2="300" y2="42.93994449731231" fill="rgb(0, 0, 0)" stroke="rgb(60, 60, 60)" stroke-width="1px" opacity="0.25"></line><line x1="0" y1="28.011682491050067" x2="300" y2="28.011682491050067" fill="rgb(0, 0, 0)" stroke="rgb(60, 60, 60)" stroke-width="1px" opacity="0.25"></line><line x1="0" y1="13.083420484787826" x2="300" y2="13.083420484787826" fill="rgb(0, 0, 0)" stroke="rgb(60, 60, 60)" stroke-width="1px" opacity="0.25"></line></g></g></g><g><g><line x1="0" y1="162.36604054741017" x2="300" y2="162.36604054741017" fill="rgb(0, 0, 0)" stroke="rgb(153, 153, 153)" stroke-width="1.5px"></line></g></g><g><g><line x1="11.352239018808476" y1="0" x2="11.352239018808476" y2="178" fill="rgb(0, 0, 0)" stroke="rgb(153, 153, 153)" stroke-width="1.5px"></line></g></g><g><g><g><g><g><path stroke="rgb(204, 51, 17)" stroke-width="2px" d="M12.326563792426173,72.79646850983676L12.521428747149711,72.79646850983676L13.300888566043868,72.79646850983676L13.495753520767405,45.35481041009001L13.885483430214483,31.357850865805577L14.080348384938024,23.690343489237325L14.275213339661562,37.75521508446026L14.859808203832179,27.717909046407208L15.054673158555717,21.80452028751758L15.249538113279257,18.294858785417038L16.02899793217341,16.20269314983279L17.782782524685263,14.9522621677406L17.9776474794088,14.203747882955456L18.36737738885588,13.755265474197685L19.146837207750036,13.486401062424461L19.536567117197116,25.27114304161504L19.926297026644193,20.39522868946695L20.121161981367734,17.470208342655614L20.510891890814808,15.715386267716152L20.900621800261888,14.662561461601802L21.095486754985426,37.91663440434612L21.680081619156045,69.78290188329912L21.874946573879583,47.10293021330375L22.06981152860312,33.49506184262783L22.26467648332666,25.330382087072124L22.4595414380502,20.4315890897127L23.239001256944356,41.37756229576415L23.628731166391432,36.03120709071269L24.018461075838513,80.59385209028447L24.213326030562047,107.3314285816107L24.408190985285586,69.6322203422945L24.603055940009128,82.84053026552581L25.187650804179743,108.67943080963299L25.382515758903285,106.26885542565846L25.577380713626823,68.99468080854075L25.77224566835036,82.45800563293541L26.746570441968057,54.70817140194222L27.720895215585752,38.058270973256185L27.91576017030929,28.068330755612116L28.110625125032826,75.81610993365324L28.30549007975637,50.7230341339812L28.500355034479906,89.40893191546469L28.695219989203444,100.67786096398198L29.669544762821143,65.64008476623427L31.228464400609454,98.35916227960075L31.81305926478007,64.24886555954824L32.00792421950361,97.5244307534333L33.37197890256839,117.48976986896741L33.956573766739,99.6124493250743L34.346303676186075,65.00083778867995L34.54116863090962,44.2338708670224L35.515493404527305,55.65890992418138L35.71035835925085,62.513933358455475L35.90522331397439,54.68433781399002L36.48981817814501,91.7857141048765L36.68468313286854,108.07523507688632L38.048737815933315,117.8489476600883L38.43846772538039,129.68448001251375L38.82819763482747,83.04405620141956L39.02306258955101,67.00241151977588L39.21792754427455,69.3200343158003L39.41279249899809,100.56713200593992L40.581982227339324,119.31539062002332L41.16657709150994,94.73651697344364L41.55630700095701,115.81702160052545L41.946036910404096,128.46532437677445L42.14090186512763,136.05430604252388L42.33576681985117,122.69378063445882L42.92036168402179,78.84963657459039L43.50495654819241,106.28489336121342L43.89468645763949,110.80343782817744L44.08955141236303,125.45717411336564L44.67414627653364,104.39289187195408L45.64847105015134,121.61084653963164L45.84333600487487,108.05640013021856L46.03820095959841,123.80895149459032L46.42793086904549,115.34656790569868L47.01252573321611,74.44130893733434L47.402255642663185,73.78337276633532L47.59712059738673,103.24513507626038L47.986850506833804,120.92219246221539L48.37658041628088,131.5284268937884L48.57144537100442,84.15042433018819L49.9355000540692,109.46536601457207L51.49441969185751,94.79780701267796L51.689284646581044,97.93988121655127L51.884149601304586,117.73904014638993L52.66360942019874,99.76201149176866L53.24820428436936,65.09057508897634L53.83279914853997,80.11554206233032L54.02766410326351,107.04443665385736L54.61225896743413,69.46003018622956L54.807123922157665,82.73721512068224L55.19685383160475,108.61744048886852L55.39171878632828,106.2316613022656L55.586583741051825,122.71410819781855L55.9763136504989,126.6322715326454L56.56090851466952,134.95447433604645L56.75577346939306,122.03388161057237L56.9506384241166,114.28152597528789L57.535233288287216,127.54402700163192L59.09415292607552,81.75978439489428L59.4838828355226,108.03098205339575L59.873612744969684,70.0519574259526L61.04280247331092,83.09237146451605L61.62739733748153,55.08879107262475L61.822262292205075,38.28664283748998L62.01712724692862,64.03318271143849L62.211992201652144,43.653277820778214L62.60172211109923,49.33924929389673L63.38118192999338,58.72213698027273L63.77091183944046,94.20839360462283L64.16064174888754,109.52884277672796L64.55037165833461,106.77850267498127L65.52469643195231,69.30046979890389L65.91442634139939,94.58408849329663L66.69388616029354,97.81165010492246L67.66821093391124,63.9203582568686L68.05794084335831,85.38471676557054L68.25280579808185,74.37811266077213L69.22713057169955,49.860235790378425L69.42199552642309,59.03472887816176L69.61686048114663,40.654205520812184L70.00659039059371,71.42502512393669L70.20145534531724,83.9162120833065L70.39632030004078,73.49700985141372L71.17578011893494,49.331574104763355L71.37064507365848,64.68883666929763L71.76037498310556,44.04667019549371L72.34496984727618,67.48919912624072L73.12442966617033,63.64080207717423L73.31929462089387,43.41784944021969L73.51415957561741,67.1119066730763L73.70902453034095,57.44312180277069L74.09875443978802,57.613155683092224L74.68334930395865,45.77256640627536L74.87821425868218,32.69690803768036L75.07307921340573,24.851513016523363L75.65767407757633,20.144276003829138L75.85253903229989,17.319933796212617L76.24226894174694,15.625328471642703L77.41145867008818,14.608565276900755L77.80118857953526,67.7402505825996L78.38578344370589,81.70534735850426L78.58064839842942,54.25657660901768L78.9703783078765,55.70122856684042L79.16524326260004,38.65410533401938L80.13956803621774,64.25366020935611L80.33443299094128,49.756869122033685L80.72416290038836,47.03009927214512L81.11389280983542,33.451427757202225L81.30875776455898,25.304224848236462L81.5036227192825,20.415903102857023L82.08821758345313,17.48291005562933L82.86767740234728,15.723114227292724L83.4522722665179,14.667236730290773L83.64713722124144,14.033710232089602L84.03686713068852,13.653594333168902L84.81632694958266,31.33943920133117L85.01119190430622,59.8648605297432L85.20605685902974,41.15228451176105L85.59578676847683,83.66648212351579L85.79065172320037,61.404562270529496L86.57011154209452,42.07610555623282L86.76497649681805,30.479031527654843L86.9598414515416,59.348615925537395L87.34957136098868,40.84253774923757L87.54443631571222,65.56671965848706L87.73930127043576,80.40122880403672L87.93416622515929,89.30193429136654L89.68795081767114,58.81452876873506L89.8828157723947,58.43599986267083L90.85714054601237,76.122796926547L92.22119522907715,104.64878957238737L92.4160601838007,103.8504707523769L93.19552000269485,121.28539386788535L93.39038495741838,78.00460451464633L93.58524991214193,75.92135011272251L93.974979821589,50.786178261548635L94.36470973103609,71.53290396587367L95.14416954993024,48.153110573439356L96.89795414244209,34.12523453797874L97.09281909716562,25.70850891670238L97.28768405188917,38.57238795145124L97.4825490066127,64.20462977981524L98.06714387078333,91.52658448184343L98.65173873495394,60.14931888302119L99.23633359912456,77.15078833875721L100.60038828218934,87.35167001219882L100.79525323691288,63.61567500373932L100.99011819163641,79.2306020111881L101.18498314635997,52.77172940062799L101.57471305580702,72.72423464932128L101.76957801053057,84.69573779853725L102.35417287470118,79.93603008305708L102.54903782942473,89.02281505877872L102.74390278414826,112.38880045172641L103.52336260304241,90.58056287246568L103.71822755776597,107.35214433743369L104.49768737666012,69.64465479637535L105.86174205972489,100.76190429428439L106.4463369238955,119.4322539930298L106.64120187861904,112.7205494047624L107.03093178806613,108.69352665180192L107.42066169751321,124.19122740754032L108.00525656168382,115.57593345346869L110.14877106364274,74.57892826599635L110.73336592781337,85.8085539685423L110.9282308825369,92.54632939006989L111.12309583726045,96.58899464298644L111.51282574670752,99.01459379473634L111.9025556561546,118.38386769330099L112.09742061087813,112.0915176249251L112.48715052032522,126.23002199141423L113.4614752939429,116.79921020379302L113.65634024866645,111.14072313122031L114.82552997700769,125.65954529519138L115.21525988645476,116.45692418605931L115.4101248411783,110.93535152058008L115.60498979590184,107.62240792129252L115.79985475062537,105.63464176172L115.99471970534893,86.52806765846181L116.18958466007246,92.97803760402158L116.384449614796,78.93410516384277L116.57931456951954,88.42166010725013L116.77417952424308,58.286364258265216L116.96904447896661,76.03301556390362L117.35877438841369,86.68100634728667L117.94336925258432,57.24197200228713L118.13823420730785,75.4063802103168L118.33309916203137,86.30502513513456L118.72282907147846,80.90160248501543L119.50228889037261,89.60215849995376L119.8920187998197,112.73640651643142L120.28174870926678,108.70304091880335L121.06120852816093,106.2830215602265L121.25607348288447,104.83100994508038L121.450938437608,103.95980297599274L122.23039825650217,103.43707879454014L123.00985807539632,109.09474908817346L123.20472303011985,106.51804646184858L123.78931789429048,104.97202488605363L124.17904780373756,104.04441194057667L124.37391275846109,103.48784417329051L124.56877771318463,103.1539035129188L124.76364266790817,102.95353911669578L124.95850762263171,102.83332047896197L125.15337257735524,102.76118929632166L125.54310248680233,102.7179105867375L125.73796744152587,102.69194336098698L126.71229221514356,102.67636302553669L126.90715716986709,102.6670148242665L127.29688707931417,102.66140590350439L127.49175203403772,102.65804055104714L127.68661698876126,102.65602133957279L128.27121185293186,102.65480981268816L128.66094176237894,102.65408289655737L129.4404015812731,102.65364674687893L129.8301314907202,102.65338505707184L130.21986140016728,102.6532280431876L130.4147263548908,102.65313383485704L130.60959130961433,102.65307730985873L131.19418617378494,102.65304339485971L131.9736459926791,102.65302304586032L132.16851094740267,102.65301083646067L132.55824085684972,102.65300351082092L133.14283572102033,102.65299911543704L133.9222955399145,102.65299647820672L134.8966203135322,102.65299489586852L136.26067499659698,102.65299394646561L136.4555399513205,102.65299337682386L136.8452698607676,102.6529930350388L137.04013481549114,102.65299282996779L137.23499977021467,102.65299270692515L137.4298647249382,102.65299263309959L137.62472967966175,102.65299258880427L137.81959463438528,102.65299256222704L138.20932454383237,102.65299254628073L138.4041894985559,102.65299253671293L139.18364931745006,102.65299253097224L139.3785142721736,102.65299252752784L140.15797409106776,102.6529925254612L140.74256895523837,102.65299252422119L141.13229886468545,102.65299252347724L141.32716381940898,102.65299252303082L141.52202877413254,102.652992522763L142.10662363830315,102.65299252260229L142.30148859302668,102.65299252250585L142.49635354775023,102.65299252244802L142.69121850247376,102.65299252241329L142.8860834571973,102.65299252239248L143.27581336664437,102.65299252237998L143.4706783213679,102.65299252237249L143.66554327609146,102.65299252236798L144.05527318553854,102.6529925223653L144.25013814026207,102.65299252236368L144.44500309498562,102.6529925223627L144.63986804970915,102.65299252236211L144.83473300443268,102.65299252236176L145.02959795915623,102.65299252236156L145.4193278686033,102.65299252236143L145.61419282332685,102.65299252236136L146.97824750639163,102.6529925223613L147.56284237056224,102.65299252236127L147.75770732528576,102.65299252236127L147.9525722800093,102.65299252236123L148.34230218945638,102.65299252236123L148.92689705362702,102.65299252236123L149.3166269630741,102.65299252236123L149.70635687252116,102.65299252236123L150.4858166914153,102.65299252236123L151.2652765103095,102.65299252236123L151.46014146503302,102.65299252236123L151.8498713744801,102.65299252236123L152.04473632920366,102.65299252236123L152.23960128392716,102.65299252236123L152.4344662386507,102.65299252236123L152.62933119337424,102.65299252236123L153.60365596699194,102.65299252236123L154.7728456953332,102.65299252236123L155.16257560478024,102.65299252236123L155.3574405595038,102.65299252236123L155.55230551422733,102.65299252236123L155.74717046895086,102.65299252236123L156.13690037839794,102.65299252236123L156.72149524256855,102.65299252236123L156.9163601972921,102.65299252236123L157.50095506146272,102.65299252236123L157.69582001618627,102.65299252236123L157.8906849709098,102.65299252236123L158.2804148803569,102.65299252236123L158.67014478980397,102.65299252236123L159.25473965397458,102.65299252236123L159.8393345181452,102.65299252236123L160.4239293823158,102.65299252236123L160.61879433703933,102.65299252236123L160.8136592917629,102.65299252236123L161.20338920120994,102.65299252236123L161.3982541559335,102.65299252236123L161.59311911065706,102.65299252236123L161.9828490201041,102.65299252236123L162.17771397482767,102.65299252236123L162.37257892955117,102.65299252236123L163.3469037031689,102.65299252236123L164.12636352206303,102.65299252236123L164.3212284767866,102.65299252236123L164.71095838623364,102.65299252236123L165.10068829568075,102.65299252236123L165.4904182051278,102.65299252236123L165.68528315985137,102.65299252236123L165.8801481145749,102.65299252236123L166.07501306929845,102.65299252236123L166.26987802402198,102.65299252236123L166.4647429787455,102.65299252236123L166.85447288819262,102.65299252236123L167.24420279763967,102.65299252236123L167.63393270708673,102.65299252236123L168.21852757125737,102.65299252236123L168.60825748070442,102.65299252236123L168.80312243542798,102.65299252236123L168.99798739015154,102.65299252236123L169.77744720904568,102.65299252236123L170.16717711849276,102.65299252236123L170.3620420732163,102.65299252236123L170.75177198266337,102.65299252236123L171.336366846834,102.65299252236123L172.11582666572812,102.65299252236123L172.70042152989876,102.65299252236123L173.28501639406937,102.65299252236123L173.47988134879293,102.65299252236123L173.86961125823998,102.65299252236123L174.2593411676871,102.65299252236123L174.64907107713415,102.65299252236123L175.62339585075185,102.65299252236123L176.0131257601989,102.65299252236123L176.20799071492246,102.65299252236123L176.40285566964602,102.65299252236123L176.59772062436952,102.65299252236123L177.18231548854016,102.65299252236123L178.35150521688138,102.65299252236123L178.7412351263285,102.65299252236123L178.936100081052,102.65299252236123L179.13096503577555,102.65299252236123L179.3258299904991,102.65299252236123L179.5206949452226,102.65299252236123L180.30015476411677,102.65299252236123L180.68988467356385,102.65299252236123L180.8847496282874,102.65299252236123L181.66420944718158,102.65299252236123L181.85907440190508,102.65299252236123L182.05393935662863,102.65299252236123L182.2488043113522,102.65299252236123L182.83339917552277,102.65299252236123L183.02826413024633,102.65299252236123L183.22312908496988,102.65299252236123L183.61285899441694,102.65299252236123L184.19745385858755,102.65299252236123L184.58718376803463,102.65299252236123L184.78204872275816,102.65299252236123L185.17177863220525,102.65299252236123L185.3666435869288,102.65299252236123L185.9512384510994,102.65299252236123L186.53583331527003,102.65299252236123L186.73069826999358,102.65299252236123L188.09475295305833,102.65299252236123L188.2896179077819,102.65299252236123L188.48448286250544,102.65299252236123L188.67934781722894,102.65299252236123L188.8742127719525,102.65299252236123L189.06907772667606,102.65299252236123L189.26394268139956,102.65299252236123L189.65367259084667,102.65299252236123L189.8485375455702,102.65299252236123L190.04340250029372,102.65299252236123L190.62799736446436,102.65299252236123L190.82286231918786,102.65299252236123L191.01772727391142,102.65299252236123L191.21259222863497,102.65299252236123L191.60232213808203,102.65299252236123L192.77151186642328,102.65299252236123L192.9663768211468,102.65299252236123L193.55097168531745,102.65299252236123L194.9150263683822,102.65299252236123L195.4996212325528,102.65299252236123L196.8636759156176,102.65299252236123L197.05854087034115,102.65299252236123L197.25340582506468,102.65299252236123L197.64313573451176,102.65299252236123L197.8380006892353,102.65299252236123L198.03286564395884,102.65299252236123L198.61746050812945,102.65299252236123L198.81232546285298,102.65299252236123L199.20205537230007,102.65299252236123L199.59178528174715,102.65299252236123L199.78665023647068,102.65299252236123L200.56611005536482,102.65299252236123L200.76097501008837,102.65299252236123L201.15070491953543,102.65299252236123L201.54043482898254,102.65299252236123L201.73529978370607,102.65299252236123L201.9301647384296,102.65299252236123L202.12502969315315,102.65299252236123L202.70962455732376,102.65299252236123L202.9044895120473,102.65299252236123L203.09935446677085,102.65299252236123L203.68394933094146,102.65299252236123L203.87881428566502,102.65299252236123L205.43773392345332,102.65299252236123L206.02232878762393,102.65299252236123L206.21719374234746,102.65299252236123L206.60692365179455,102.65299252236123L206.99665356124163,102.65299252236123L207.19151851596516,102.65299252236123L207.7761133801358,102.65299252236123L207.9709783348593,102.65299252236123L208.3607082443064,102.65299252236123L208.5555731990299,102.65299252236123L208.75043815375346,102.65299252236123L208.94530310847702,102.65299252236123L209.52989797264763,102.65299252236123L211.08881761043594,102.65299252236123L211.47854751988302,102.65299252236123L211.8682774293301,102.65299252236123L212.2580073387772,102.65299252236123L212.45287229350072,102.65299252236123L212.64773724822425,102.65299252236123L213.0374671576713,102.65299252236123L213.4271970671184,102.65299252236123L213.62206202184194,102.65299252236123L213.81692697656547,102.65299252236123L214.4015218407361,102.65299252236123L214.79125175018316,102.65299252236123L216.15530643324794,102.65299252236123L216.3501713879715,102.65299252236123L216.9347662521421,102.65299252236123L217.3244961615892,102.65299252236123L218.49368588993042,102.65299252236123L218.68855084465397,102.65299252236123L219.07828075410103,102.65299252236123L219.4680106635481,102.65299252236123L220.24747048244228,102.65299252236123L220.63720039188934,102.65299252236123L221.02693030133642,102.65299252236123L221.4166602107835,102.65299252236123L221.8063901202306,102.65299252236123L222.3909849844012,102.65299252236123L222.58584993912476,102.65299252236123L222.78071489384826,102.65299252236123L222.9755798485718,102.65299252236123L224.14476957691306,102.65299252236123L224.3396345316366,102.65299252236123L225.50882425997784,102.65299252236123L225.8985541694249,102.65299252236123L226.28828407887198,102.65299252236123L226.4831490335955,102.65299252236123L226.67801398831907,102.65299252236123L228.4317985808309,102.65299252236123L228.82152849027798,102.65299252236123L229.4061233544486,102.65299252236123L229.99071821861924,102.65299252236123L230.18558317334274,102.65299252236123L230.57531308278985,102.65299252236123L230.77017803751338,102.65299252236123L230.9650429922369,102.65299252236123L231.54963785640754,102.65299252236123L231.74450281113107,102.65299252236123L232.13423272057815,102.65299252236123L232.3290976753017,102.65299252236123L232.5239626300252,102.65299252236123L233.10855749419582,102.65299252236123L233.30342244891938,102.65299252236123L233.69315235836646,102.65299252236123L235.2520719961548,102.65299252236123L235.4469369508783,102.65299252236123L235.64180190560185,102.65299252236123L235.83666686032538,102.65299252236123L236.421261724496,102.65299252236123L236.61612667921955,102.65299252236123L236.8109916339431,102.65299252236123L237.39558649811372,102.65299252236123L237.59045145283721,102.65299252236123L237.78531640756077,102.65299252236123L240.70829072841386,102.65299252236123L241.29288559258447,102.65299252236123L241.68261550203155,102.65299252236123L241.8774804567551,102.65299252236123L242.26721036620216,102.65299252236123L242.46207532092572,102.65299252236123L243.04667018509633,102.65299252236123L243.63126504926694,102.65299252236123L243.82613000399047,102.65299252236123L244.02099495871403,102.65299252236123L244.21585991343758,102.65299252236123L244.60558982288464,102.65299252236123L244.9953197323317,102.65299252236123L245.3850496417788,102.65299252236123L245.77477955122586,102.65299252236123L245.96964450594942,102.65299252236123L246.3593744153965,102.65299252236123L246.74910432484356,102.65299252236123L247.13883423429067,102.65299252236123L247.33369918901417,102.65299252236123L247.52856414373773,102.65299252236123L247.72342909846128,102.65299252236123L247.9182940531848,102.65299252236123L249.8669436004202,102.65299252236123L250.06180855514376,102.65299252236123L250.64640341931434,102.65299252236123L251.4258632382085,102.65299252236123L251.62072819293206,102.65299252236123L251.81559314765556,102.65299252236123L252.20532305710267,102.65299252236123L252.7899179212733,102.65299252236123L253.3745127854439,102.65299252236123L253.76424269489098,102.65299252236123L254.15397260433804,102.65299252236123L254.3488375590616,102.65299252236123L254.73856746850865,102.65299252236123L255.51802728740282,102.65299252236123L255.71289224212637,102.65299252236123L255.9077571968499,102.65299252236123L256.297487106297,102.65299252236123L256.49235206102054,102.65299252236123L256.68721701574407,102.65299252236123L257.0769469251911,102.65299252236123L257.2718118799147,102.65299252236123L257.46667683463824,102.65299252236123L257.66154178936176,102.65299252236123L257.8564067440853,102.65299252236123L258.0512716988088,102.65299252236123L259.0255964724265,102.65299252236123L259.22046142715004,102.65299252236123L259.61019133659715,102.65299252236123L260.38965115549126,102.65299252236123L260.58451611021485,102.65299252236123L260.9742460196619,102.65299252236123L261.7537058385561,102.65299252236123L262.1434357480031,102.65299252236123L262.53316565745024,102.65299252236123L262.9228955668973,102.65299252236123L263.1177605216209,102.65299252236123L263.31262547634435,102.65299252236123L263.50749043106794,102.65299252236123L263.897220340515,102.65299252236123L264.48181520468563,102.65299252236123L264.67668015940916,102.65299252236123L265.0664100688562,102.65299252236123L265.2612750235798,102.65299252236123L265.45613997830327,102.65299252236123L265.8458698877504,102.65299252236123L266.62532970664455,102.65299252236123L267.0150596160916,102.65299252236123L267.20992457081513,102.65299252236123L267.59965448026225,102.65299252236123L267.7945194349858,102.65299252236123L268.3791142991564,102.65299252236123L268.57397925387994,102.65299252236123L269.54830402749764,102.65299252236123L269.74316898222116,102.65299252236123L269.93803393694475,102.65299252236123L270.52262880111533,102.65299252236123L270.9123587105624,102.65299252236123L271.10722366528597,102.65299252236123L271.3020886200095,102.65299252236123L271.496953574733,102.65299252236123L271.69181852945655,102.65299252236123L271.8866834841801,102.65299252236123L272.4712783483507,102.65299252236123L273.0558732125213,102.65299252236123L273.4456031219684,102.65299252236123L274.030197986139,102.65299252236123L274.2250629408626,102.65299252236123L274.4199278955861,102.65299252236123L274.61479285030964,102.65299252236123L275.3942526692038,102.65299252236123L276.173712488098,102.65299252236123L276.56344239754503,102.65299252236123L276.75830735226856,102.65299252236123L277.5377671711627,102.65299252236123L277.73263212588625,102.65299252236123L278.3172269900569,102.65299252236123L278.9018218542275,102.65299252236123L279.68128167312165,102.65299252236123L279.8761466278452,102.65299252236123L280.07101158256876,102.65299252236123L280.65560644673934,102.65299252236123L281.04533635618645,102.65299252236123L281.24020131091,102.65299252236123L281.62993122035704,102.65299252236123L281.8247961750806,102.65299252236123L282.0196611298041,102.65299252236123L282.4093910392512,102.65299252236123L282.60425599397473,102.65299252236123L283.1888508581454,102.65299252236123L284.16317563176307,102.65299252236123L286.5015550884455,102.65299252236123L286.69642004316904,102.65299252236123L286.8912849978926,102.65299252236123L287.08614995261615,102.65299252236123L287.86560977151026,102.65299252236123L288.4502046356809,102.65299252236123L288.64506959040443,102.65299252236123L289.03479949985154,102.65299252236123L289.2296644545751,102.65299252236123L289.4245294092986,102.65299252236123L289.6193943640221,102.65299252236123L290.3988541829163,102.65299252236123L290.5937191376398,102.65299252236123L290.78858409236335,102.65299252236123L291.17831400181046,102.65299252236123L291.373178956534,102.65299252236123L291.5680439112575,102.65299252236123L291.95777382070463,102.65299252236123L292.3475037301517,102.65299252236123L293.5166934584929,102.65299252236123L293.90642336794,102.65299252236123L294.8807481415577,102.65299252236123L295.07561309628124,102.65299252236123L296.82939768879305,102.65299252236123L297.02426264351664,102.65299252236123L297.8037224624108,102.65299252236123L299.16777714547555,102.65299252236123L299.9472369643697,102.65299252236123L300.14210191909325,102.65299252236123" style="fill: none;" fill="none"></path></g></g></g></g><g opacity="0.2"><g><g><g><path stroke="rgb(204, 51, 17)" stroke-width="2px" d="M12.326563792426173,72.79646850983677L12.521428747149711,72.79646850983677L13.300888566043868,72.79646850983677L13.495753520767405,13.083420484787826L13.885483430214483,13.083420484787826L14.080348384938024,13.083420484787826L14.275213339661562,57.868206503574534L14.859808203832179,13.083420484787826L15.054673158555717,13.083420484787826L15.249538113279257,13.083420484787826L16.02899793217341,13.083420484787826L17.782782524685263,13.083420484787826L17.9776474794088,13.083420484787826L18.36737738885588,13.083420484787826L19.146837207750036,13.083420484787826L19.536567117197116,42.93994449731231L19.926297026644193,13.083420484787826L20.121161981367734,13.083420484787826L20.510891890814808,13.083420484787826L20.900621800261888,13.083420484787826L21.095486754985426,72.79646850983677L21.680081619156045,117.58125452862348L21.874946573879583,13.083420484787826L22.06981152860312,13.083420484787826L22.26467648332666,13.083420484787826L22.4595414380502,13.083420484787826L23.239001256944356,72.79646850983677L23.628731166391432,28.011682491050067L24.018461075838513,147.43777854114794L24.213326030562047,147.43777854114794L24.408190985285586,13.083420484787826L24.603055940009128,102.65299252236123L25.187650804179743,147.43777854114794L25.382515758903285,102.65299252236123L25.577380713626823,13.083420484787826L25.77224566835036,102.65299252236123L26.746570441968057,13.083420484787826L27.720895215585752,13.083420484787826L27.91576017030929,13.083420484787826L28.110625125032826,147.43777854114794L28.30549007975637,13.083420484787826L28.500355034479906,147.43777854114794L28.695219989203444,117.58125452862348L29.669544762821143,13.083420484787826L31.228464400609454,147.43777854114794L31.81305926478007,13.083420484787826L32.00792421950361,147.43777854114794L33.37197890256839,147.43777854114794L33.956573766739,72.79646850983677L34.346303676186075,13.083420484787826L34.54116863090962,13.083420484787826L35.515493404527305,72.79646850983677L35.71035835925085,72.79646850983677L35.90522331397439,42.93994449731231L36.48981817814501,147.43777854114794L36.68468313286854,132.5095165348857L38.048737815933315,132.5095165348857L38.43846772538039,147.43777854114794L38.82819763482747,13.083420484787826L39.02306258955101,42.93994449731231L39.21792754427455,72.79646850983677L39.41279249899809,147.43777854114794L40.581982227339324,147.43777854114794L41.16657709150994,57.868206503574534L41.55630700095701,147.43777854114794L41.946036910404096,147.43777854114794L42.14090186512763,147.43777854114794L42.33576681985117,102.65299252236123L42.92036168402179,13.083420484787826L43.50495654819241,147.43777854114794L43.89468645763949,117.58125452862348L44.08955141236303,147.43777854114794L44.67414627653364,72.79646850983677L45.64847105015134,147.43777854114794L45.84333600487487,87.72473051609902L46.03820095959841,147.43777854114794L46.42793086904549,102.65299252236123L47.01252573321611,13.083420484787826L47.402255642663185,72.79646850983677L47.59712059738673,147.43777854114794L47.986850506833804,147.43777854114794L48.37658041628088,147.43777854114794L48.57144537100442,13.083420484787826L49.9355000540692,147.43777854114794L51.49441969185751,72.79646850983677L51.689284646581044,102.65299252236123L51.884149601304586,147.43777854114794L52.66360942019874,72.79646850983677L53.24820428436936,13.083420484787826L53.83279914853997,102.65299252236123L54.02766410326351,147.43777854114794L54.61225896743413,13.083420484787826L54.807123922157665,102.65299252236123L55.19685383160475,147.43777854114794L55.39171878632828,102.65299252236123L55.586583741051825,147.43777854114794L55.9763136504989,132.5095165348857L56.56090851466952,147.43777854114794L56.75577346939306,102.65299252236123L56.9506384241166,102.65299252236123L57.535233288287216,147.43777854114794L59.09415292607552,13.083420484787826L59.4838828355226,147.43777854114794L59.873612744969684,13.083420484787826L61.04280247331092,102.65299252236123L61.62739733748153,13.083420484787826L61.822262292205075,13.083420484787826L62.01712724692862,102.65299252236123L62.211992201652144,13.083420484787826L62.60172211109923,57.868206503574534L63.38118192999338,72.79646850983677L63.77091183944046,147.43777854114794L64.16064174888754,132.5095165348857L64.55037165833461,102.65299252236123L65.52469643195231,13.083420484787826L65.91442634139939,132.5095165348857L66.69388616029354,102.65299252236123L67.66821093391124,13.083420484787826L68.05794084335831,117.58125452862348L68.25280579808185,57.868206503574534L69.22713057169955,13.083420484787826L69.42199552642309,72.79646850983677L69.61686048114663,13.083420484787826L70.00659039059371,117.58125452862348L70.20145534531724,102.65299252236123L70.39632030004078,57.868206503574534L71.17578011893494,13.083420484787826L71.37064507365848,87.72473051609902L71.76037498310556,13.083420484787826L72.34496984727618,102.65299252236123L73.12442966617033,57.868206503574534L73.31929462089387,13.083420484787826L73.51415957561741,102.65299252236123L73.70902453034095,42.93994449731231L74.09875443978802,57.868206503574534L74.68334930395865,28.011682491050067L74.87821425868218,13.083420484787826L75.07307921340573,13.083420484787826L75.65767407757633,13.083420484787826L75.85253903229989,13.083420484787826L76.24226894174694,13.083420484787826L77.41145867008818,13.083420484787826L77.80118857953526,147.43777854114794L78.38578344370589,102.65299252236123L78.58064839842942,13.083420484787826L78.9703783078765,57.868206503574534L79.16524326260004,13.083420484787826L80.13956803621774,102.65299252236123L80.33443299094128,28.011682491050067L80.72416290038836,42.93994449731231L81.11389280983542,13.083420484787826L81.30875776455898,13.083420484787826L81.5036227192825,13.083420484787826L82.08821758345313,13.083420484787826L82.86767740234728,13.083420484787826L83.4522722665179,13.083420484787826L83.64713722124144,13.083420484787826L84.03686713068852,13.083420484787826L84.81632694958266,57.868206503574534L85.01119190430622,102.65299252236123L85.20605685902974,13.083420484787826L85.59578676847683,147.43777854114794L85.79065172320037,28.011682491050067L86.57011154209452,13.083420484787826L86.76497649681805,13.083420484787826L86.9598414515416,102.65299252236123L87.34957136098868,13.083420484787826L87.54443631571222,102.65299252236123L87.73930127043576,102.65299252236123L87.93416622515929,102.65299252236123L89.68795081767114,13.083420484787826L89.8828157723947,57.868206503574534L90.85714054601237,102.65299252236123L92.22119522907715,147.43777854114794L92.4160601838007,102.65299252236123L93.19552000269485,147.43777854114794L93.39038495741838,13.083420484787826L93.58524991214193,72.79646850983677L93.974979821589,13.083420484787826L94.36470973103609,102.65299252236123L95.14416954993024,13.083420484787826L96.89795414244209,13.083420484787826L97.09281909716562,13.083420484787826L97.28768405188917,57.868206503574534L97.4825490066127,102.65299252236123L98.06714387078333,132.5095165348857L98.65173873495394,13.083420484787826L99.23633359912456,102.65299252236123L100.60038828218934,102.65299252236123L100.79525323691288,28.011682491050067L100.99011819163641,102.65299252236123L101.18498314635997,13.083420484787826L101.57471305580702,102.65299252236123L101.76957801053057,102.65299252236123L102.35417287470118,72.79646850983677L102.54903782942473,102.65299252236123L102.74390278414826,147.43777854114794L103.52336260304241,57.868206503574534L103.71822755776597,132.5095165348857L104.49768737666012,13.083420484787826L105.86174205972489,147.43777854114794L106.4463369238955,147.43777854114794L106.64120187861904,102.65299252236123L107.03093178806613,102.65299252236123L107.42066169751321,147.43777854114794L108.00525656168382,102.65299252236123L110.14877106364274,13.083420484787826L110.73336592781337,102.65299252236123L110.9282308825369,102.65299252236123L111.12309583726045,102.65299252236123L111.51282574670752,102.65299252236123L111.9025556561546,147.43777854114794L112.09742061087813,102.65299252236123L112.48715052032522,147.43777854114794L113.4614752939429,102.65299252236123L113.65634024866645,102.65299252236123L114.82552997700769,147.43777854114794L115.21525988645476,102.65299252236123L115.4101248411783,102.65299252236123L115.60498979590184,102.65299252236123L115.79985475062537,102.65299252236123L115.99471970534893,57.868206503574534L116.18958466007246,102.65299252236123L116.384449614796,57.868206503574534L116.57931456951954,102.65299252236123L116.77417952424308,13.083420484787826L116.96904447896661,102.65299252236123L117.35877438841369,102.65299252236123L117.94336925258432,13.083420484787826L118.13823420730785,102.65299252236123L118.33309916203137,102.65299252236123L118.72282907147846,72.79646850983677L119.50228889037261,102.65299252236123L119.8920187998197,147.43777854114794L120.28174870926678,102.65299252236123L121.06120852816093,102.65299252236123L121.25607348288447,102.65299252236123L121.450938437608,102.65299252236123L122.23039825650217,102.65299252236123L123.00985807539632,117.58125452862348L123.20472303011985,102.65299252236123L123.78931789429048,102.65299252236123L124.17904780373756,102.65299252236123L124.37391275846109,102.65299252236123L124.56877771318463,102.65299252236123L124.76364266790817,102.65299252236123L124.95850762263171,102.65299252236123L125.15337257735524,102.65299252236123L125.54310248680233,102.65299252236123L125.73796744152587,102.65299252236123L126.71229221514356,102.65299252236123L126.90715716986709,102.65299252236123L127.29688707931417,102.65299252236123L127.49175203403772,102.65299252236123L127.68661698876126,102.65299252236123L128.27121185293186,102.65299252236123L128.66094176237894,102.65299252236123L129.4404015812731,102.65299252236123L129.8301314907202,102.65299252236123L130.21986140016728,102.65299252236123L130.4147263548908,102.65299252236123L130.60959130961433,102.65299252236123L131.19418617378494,102.65299252236123L131.9736459926791,102.65299252236123L132.16851094740267,102.65299252236123L132.55824085684972,102.65299252236123L133.14283572102033,102.65299252236123L133.9222955399145,102.65299252236123L134.8966203135322,102.65299252236123L136.26067499659698,102.65299252236123L136.4555399513205,102.65299252236123L136.8452698607676,102.65299252236123L137.04013481549114,102.65299252236123L137.23499977021467,102.65299252236123L137.4298647249382,102.65299252236123L137.62472967966175,102.65299252236123L137.81959463438528,102.65299252236123L138.20932454383237,102.65299252236123L138.4041894985559,102.65299252236123L139.18364931745006,102.65299252236123L139.3785142721736,102.65299252236123L140.15797409106776,102.65299252236123L140.74256895523837,102.65299252236123L141.13229886468545,102.65299252236123L141.32716381940898,102.65299252236123L141.52202877413254,102.65299252236123L142.10662363830315,102.65299252236123L142.30148859302668,102.65299252236123L142.49635354775023,102.65299252236123L142.69121850247376,102.65299252236123L142.8860834571973,102.65299252236123L143.27581336664437,102.65299252236123L143.4706783213679,102.65299252236123L143.66554327609146,102.65299252236123L144.05527318553854,102.65299252236123L144.25013814026207,102.65299252236123L144.44500309498562,102.65299252236123L144.63986804970915,102.65299252236123L144.83473300443268,102.65299252236123L145.02959795915623,102.65299252236123L145.4193278686033,102.65299252236123L145.61419282332685,102.65299252236123L146.97824750639163,102.65299252236123L147.56284237056224,102.65299252236123L147.75770732528576,102.65299252236123L147.9525722800093,102.65299252236123L148.34230218945638,102.65299252236123L148.92689705362702,102.65299252236123L149.3166269630741,102.65299252236123L149.70635687252116,102.65299252236123L150.4858166914153,102.65299252236123L151.2652765103095,102.65299252236123L151.46014146503302,102.65299252236123L151.8498713744801,102.65299252236123L152.04473632920366,102.65299252236123L152.23960128392716,102.65299252236123L152.4344662386507,102.65299252236123L152.62933119337424,102.65299252236123L153.60365596699194,102.65299252236123L154.7728456953332,102.65299252236123L155.16257560478024,102.65299252236123L155.3574405595038,102.65299252236123L155.55230551422733,102.65299252236123L155.74717046895086,102.65299252236123L156.13690037839794,102.65299252236123L156.72149524256855,102.65299252236123L156.9163601972921,102.65299252236123L157.50095506146272,102.65299252236123L157.69582001618627,102.65299252236123L157.8906849709098,102.65299252236123L158.2804148803569,102.65299252236123L158.67014478980397,102.65299252236123L159.25473965397458,102.65299252236123L159.8393345181452,102.65299252236123L160.4239293823158,102.65299252236123L160.61879433703933,102.65299252236123L160.8136592917629,102.65299252236123L161.20338920120994,102.65299252236123L161.3982541559335,102.65299252236123L161.59311911065706,102.65299252236123L161.9828490201041,102.65299252236123L162.17771397482767,102.65299252236123L162.37257892955117,102.65299252236123L163.3469037031689,102.65299252236123L164.12636352206303,102.65299252236123L164.3212284767866,102.65299252236123L164.71095838623364,102.65299252236123L165.10068829568075,102.65299252236123L165.4904182051278,102.65299252236123L165.68528315985137,102.65299252236123L165.8801481145749,102.65299252236123L166.07501306929845,102.65299252236123L166.26987802402198,102.65299252236123L166.4647429787455,102.65299252236123L166.85447288819262,102.65299252236123L167.24420279763967,102.65299252236123L167.63393270708673,102.65299252236123L168.21852757125737,102.65299252236123L168.60825748070442,102.65299252236123L168.80312243542798,102.65299252236123L168.99798739015154,102.65299252236123L169.77744720904568,102.65299252236123L170.16717711849276,102.65299252236123L170.3620420732163,102.65299252236123L170.75177198266337,102.65299252236123L171.336366846834,102.65299252236123L172.11582666572812,102.65299252236123L172.70042152989876,102.65299252236123L173.28501639406937,102.65299252236123L173.47988134879293,102.65299252236123L173.86961125823998,102.65299252236123L174.2593411676871,102.65299252236123L174.64907107713415,102.65299252236123L175.62339585075185,102.65299252236123L176.0131257601989,102.65299252236123L176.20799071492246,102.65299252236123L176.40285566964602,102.65299252236123L176.59772062436952,102.65299252236123L177.18231548854016,102.65299252236123L178.35150521688138,102.65299252236123L178.7412351263285,102.65299252236123L178.936100081052,102.65299252236123L179.13096503577555,102.65299252236123L179.3258299904991,102.65299252236123L179.5206949452226,102.65299252236123L180.30015476411677,102.65299252236123L180.68988467356385,102.65299252236123L180.8847496282874,102.65299252236123L181.66420944718158,102.65299252236123L181.85907440190508,102.65299252236123L182.05393935662863,102.65299252236123L182.2488043113522,102.65299252236123L182.83339917552277,102.65299252236123L183.02826413024633,102.65299252236123L183.22312908496988,102.65299252236123L183.61285899441694,102.65299252236123L184.19745385858755,102.65299252236123L184.58718376803463,102.65299252236123L184.78204872275816,102.65299252236123L185.17177863220525,102.65299252236123L185.3666435869288,102.65299252236123L185.9512384510994,102.65299252236123L186.53583331527003,102.65299252236123L186.73069826999358,102.65299252236123L188.09475295305833,102.65299252236123L188.2896179077819,102.65299252236123L188.48448286250544,102.65299252236123L188.67934781722894,102.65299252236123L188.8742127719525,102.65299252236123L189.06907772667606,102.65299252236123L189.26394268139956,102.65299252236123L189.65367259084667,102.65299252236123L189.8485375455702,102.65299252236123L190.04340250029372,102.65299252236123L190.62799736446436,102.65299252236123L190.82286231918786,102.65299252236123L191.01772727391142,102.65299252236123L191.21259222863497,102.65299252236123L191.60232213808203,102.65299252236123L192.77151186642328,102.65299252236123L192.9663768211468,102.65299252236123L193.55097168531745,102.65299252236123L194.9150263683822,102.65299252236123L195.4996212325528,102.65299252236123L196.8636759156176,102.65299252236123L197.05854087034115,102.65299252236123L197.25340582506468,102.65299252236123L197.64313573451176,102.65299252236123L197.8380006892353,102.65299252236123L198.03286564395884,102.65299252236123L198.61746050812945,102.65299252236123L198.81232546285298,102.65299252236123L199.20205537230007,102.65299252236123L199.59178528174715,102.65299252236123L199.78665023647068,102.65299252236123L200.56611005536482,102.65299252236123L200.76097501008837,102.65299252236123L201.15070491953543,102.65299252236123L201.54043482898254,102.65299252236123L201.73529978370607,102.65299252236123L201.9301647384296,102.65299252236123L202.12502969315315,102.65299252236123L202.70962455732376,102.65299252236123L202.9044895120473,102.65299252236123L203.09935446677085,102.65299252236123L203.68394933094146,102.65299252236123L203.87881428566502,102.65299252236123L205.43773392345332,102.65299252236123L206.02232878762393,102.65299252236123L206.21719374234746,102.65299252236123L206.60692365179455,102.65299252236123L206.99665356124163,102.65299252236123L207.19151851596516,102.65299252236123L207.7761133801358,102.65299252236123L207.9709783348593,102.65299252236123L208.3607082443064,102.65299252236123L208.5555731990299,102.65299252236123L208.75043815375346,102.65299252236123L208.94530310847702,102.65299252236123L209.52989797264763,102.65299252236123L211.08881761043594,102.65299252236123L211.47854751988302,102.65299252236123L211.8682774293301,102.65299252236123L212.2580073387772,102.65299252236123L212.45287229350072,102.65299252236123L212.64773724822425,102.65299252236123L213.0374671576713,102.65299252236123L213.4271970671184,102.65299252236123L213.62206202184194,102.65299252236123L213.81692697656547,102.65299252236123L214.4015218407361,102.65299252236123L214.79125175018316,102.65299252236123L216.15530643324794,102.65299252236123L216.3501713879715,102.65299252236123L216.9347662521421,102.65299252236123L217.3244961615892,102.65299252236123L218.49368588993042,102.65299252236123L218.68855084465397,102.65299252236123L219.07828075410103,102.65299252236123L219.4680106635481,102.65299252236123L220.24747048244228,102.65299252236123L220.63720039188934,102.65299252236123L221.02693030133642,102.65299252236123L221.4166602107835,102.65299252236123L221.8063901202306,102.65299252236123L222.3909849844012,102.65299252236123L222.58584993912476,102.65299252236123L222.78071489384826,102.65299252236123L222.9755798485718,102.65299252236123L224.14476957691306,102.65299252236123L224.3396345316366,102.65299252236123L225.50882425997784,102.65299252236123L225.8985541694249,102.65299252236123L226.28828407887198,102.65299252236123L226.4831490335955,102.65299252236123L226.67801398831907,102.65299252236123L228.4317985808309,102.65299252236123L228.82152849027798,102.65299252236123L229.4061233544486,102.65299252236123L229.99071821861924,102.65299252236123L230.18558317334274,102.65299252236123L230.57531308278985,102.65299252236123L230.77017803751338,102.65299252236123L230.9650429922369,102.65299252236123L231.54963785640754,102.65299252236123L231.74450281113107,102.65299252236123L232.13423272057815,102.65299252236123L232.3290976753017,102.65299252236123L232.5239626300252,102.65299252236123L233.10855749419582,102.65299252236123L233.30342244891938,102.65299252236123L233.69315235836646,102.65299252236123L235.2520719961548,102.65299252236123L235.4469369508783,102.65299252236123L235.64180190560185,102.65299252236123L235.83666686032538,102.65299252236123L236.421261724496,102.65299252236123L236.61612667921955,102.65299252236123L236.8109916339431,102.65299252236123L237.39558649811372,102.65299252236123L237.59045145283721,102.65299252236123L237.78531640756077,102.65299252236123L240.70829072841386,102.65299252236123L241.29288559258447,102.65299252236123L241.68261550203155,102.65299252236123L241.8774804567551,102.65299252236123L242.26721036620216,102.65299252236123L242.46207532092572,102.65299252236123L243.04667018509633,102.65299252236123L243.63126504926694,102.65299252236123L243.82613000399047,102.65299252236123L244.02099495871403,102.65299252236123L244.21585991343758,102.65299252236123L244.60558982288464,102.65299252236123L244.9953197323317,102.65299252236123L245.3850496417788,102.65299252236123L245.77477955122586,102.65299252236123L245.96964450594942,102.65299252236123L246.3593744153965,102.65299252236123L246.74910432484356,102.65299252236123L247.13883423429067,102.65299252236123L247.33369918901417,102.65299252236123L247.52856414373773,102.65299252236123L247.72342909846128,102.65299252236123L247.9182940531848,102.65299252236123L249.8669436004202,102.65299252236123L250.06180855514376,102.65299252236123L250.64640341931434,102.65299252236123L251.4258632382085,102.65299252236123L251.62072819293206,102.65299252236123L251.81559314765556,102.65299252236123L252.20532305710267,102.65299252236123L252.7899179212733,102.65299252236123L253.3745127854439,102.65299252236123L253.76424269489098,102.65299252236123L254.15397260433804,102.65299252236123L254.3488375590616,102.65299252236123L254.73856746850865,102.65299252236123L255.51802728740282,102.65299252236123L255.71289224212637,102.65299252236123L255.9077571968499,102.65299252236123L256.297487106297,102.65299252236123L256.49235206102054,102.65299252236123L256.68721701574407,102.65299252236123L257.0769469251911,102.65299252236123L257.2718118799147,102.65299252236123L257.46667683463824,102.65299252236123L257.66154178936176,102.65299252236123L257.8564067440853,102.65299252236123L258.0512716988088,102.65299252236123L259.0255964724265,102.65299252236123L259.22046142715004,102.65299252236123L259.61019133659715,102.65299252236123L260.38965115549126,102.65299252236123L260.58451611021485,102.65299252236123L260.9742460196619,102.65299252236123L261.7537058385561,102.65299252236123L262.1434357480031,102.65299252236123L262.53316565745024,102.65299252236123L262.9228955668973,102.65299252236123L263.1177605216209,102.65299252236123L263.31262547634435,102.65299252236123L263.50749043106794,102.65299252236123L263.897220340515,102.65299252236123L264.48181520468563,102.65299252236123L264.67668015940916,102.65299252236123L265.0664100688562,102.65299252236123L265.2612750235798,102.65299252236123L265.45613997830327,102.65299252236123L265.8458698877504,102.65299252236123L266.62532970664455,102.65299252236123L267.0150596160916,102.65299252236123L267.20992457081513,102.65299252236123L267.59965448026225,102.65299252236123L267.7945194349858,102.65299252236123L268.3791142991564,102.65299252236123L268.57397925387994,102.65299252236123L269.54830402749764,102.65299252236123L269.74316898222116,102.65299252236123L269.93803393694475,102.65299252236123L270.52262880111533,102.65299252236123L270.9123587105624,102.65299252236123L271.10722366528597,102.65299252236123L271.3020886200095,102.65299252236123L271.496953574733,102.65299252236123L271.69181852945655,102.65299252236123L271.8866834841801,102.65299252236123L272.4712783483507,102.65299252236123L273.0558732125213,102.65299252236123L273.4456031219684,102.65299252236123L274.030197986139,102.65299252236123L274.2250629408626,102.65299252236123L274.4199278955861,102.65299252236123L274.61479285030964,102.65299252236123L275.3942526692038,102.65299252236123L276.173712488098,102.65299252236123L276.56344239754503,102.65299252236123L276.75830735226856,102.65299252236123L277.5377671711627,102.65299252236123L277.73263212588625,102.65299252236123L278.3172269900569,102.65299252236123L278.9018218542275,102.65299252236123L279.68128167312165,102.65299252236123L279.8761466278452,102.65299252236123L280.07101158256876,102.65299252236123L280.65560644673934,102.65299252236123L281.04533635618645,102.65299252236123L281.24020131091,102.65299252236123L281.62993122035704,102.65299252236123L281.8247961750806,102.65299252236123L282.0196611298041,102.65299252236123L282.4093910392512,102.65299252236123L282.60425599397473,102.65299252236123L283.1888508581454,102.65299252236123L284.16317563176307,102.65299252236123L286.5015550884455,102.65299252236123L286.69642004316904,102.65299252236123L286.8912849978926,102.65299252236123L287.08614995261615,102.65299252236123L287.86560977151026,102.65299252236123L288.4502046356809,102.65299252236123L288.64506959040443,102.65299252236123L289.03479949985154,102.65299252236123L289.2296644545751,102.65299252236123L289.4245294092986,102.65299252236123L289.6193943640221,102.65299252236123L290.3988541829163,102.65299252236123L290.5937191376398,102.65299252236123L290.78858409236335,102.65299252236123L291.17831400181046,102.65299252236123L291.373178956534,102.65299252236123L291.5680439112575,102.65299252236123L291.95777382070463,102.65299252236123L292.3475037301517,102.65299252236123L293.5166934584929,102.65299252236123L293.90642336794,102.65299252236123L294.8807481415577,102.65299252236123L295.07561309628124,102.65299252236123L296.82939768879305,102.65299252236123L297.02426264351664,102.65299252236123L297.8037224624108,102.65299252236123L299.16777714547555,102.65299252236123L299.9472369643697,102.65299252236123L300.14210191909325,102.65299252236123" style="fill: none;" fill="none"></path></g></g></g></g></g></g><g transform="translate(30, 178)" clip-path="url(#clip_1)"><clipPath id="clip_1"><rect width="300" height="22"></rect></clipPath><g><g><line x1="11.352239018808476" y1="0" x2="11.352239018808476" y2="5" style="visibility: inherit;" fill="rgb(0, 0, 0)" stroke="rgb(204, 204, 204)" stroke-width="1px"></line><line x1="50.32522996351627" y1="0" x2="50.32522996351627" y2="5" style="visibility: inherit;" fill="rgb(0, 0, 0)" stroke="rgb(204, 204, 204)" stroke-width="1px"></line><line x1="89.29822090822407" y1="0" x2="89.29822090822407" y2="5" style="visibility: inherit;" fill="rgb(0, 0, 0)" stroke="rgb(204, 204, 204)" stroke-width="1px"></line><line x1="128.27121185293186" y1="0" x2="128.27121185293186" y2="5" style="visibility: inherit;" fill="rgb(0, 0, 0)" stroke="rgb(204, 204, 204)" stroke-width="1px"></line><line x1="167.24420279763967" y1="0" x2="167.24420279763967" y2="5" style="visibility: inherit;" fill="rgb(0, 0, 0)" stroke="rgb(204, 204, 204)" stroke-width="1px"></line><line x1="206.21719374234746" y1="0" x2="206.21719374234746" y2="5" style="visibility: inherit;" fill="rgb(0, 0, 0)" stroke="rgb(204, 204, 204)" stroke-width="1px"></line><line x1="245.19018468705525" y1="0" x2="245.19018468705525" y2="5" style="visibility: inherit;" fill="rgb(0, 0, 0)" stroke="rgb(204, 204, 204)" stroke-width="1px"></line><line x1="284.16317563176307" y1="0" x2="284.16317563176307" y2="5" style="visibility: inherit;" fill="rgb(0, 0, 0)" stroke="rgb(204, 204, 204)" stroke-width="1px"></line></g><g transform="translate(0, 8)"><text x="11.352239018808476" y="0" dx="0em" dy="0.95em" style="text-anchor: middle; visibility: inherit; font-family: Roboto, sans-serif; font-size: 12px; font-weight: 200;" fill="rgb(50, 49, 63)" stroke="none" stroke-width="1px">0</text><text x="50.32522996351627" y="0" dx="0em" dy="0.95em" style="text-anchor: middle; visibility: inherit; font-family: Roboto, sans-serif; font-size: 12px; font-weight: 200;" fill="rgb(50, 49, 63)" stroke="none" stroke-width="1px">200</text><text x="89.29822090822407" y="0" dx="0em" dy="0.95em" style="text-anchor: middle; visibility: inherit; font-family: Roboto, sans-serif; font-size: 12px; font-weight: 200;" fill="rgb(50, 49, 63)" stroke="none" stroke-width="1px">400</text><text x="128.27121185293186" y="0" dx="0em" dy="0.95em" style="text-anchor: middle; visibility: inherit; font-family: Roboto, sans-serif; font-size: 12px; font-weight: 200;" fill="rgb(50, 49, 63)" stroke="none" stroke-width="1px">600</text><text x="167.24420279763967" y="0" dx="0em" dy="0.95em" style="text-anchor: middle; visibility: inherit; font-family: Roboto, sans-serif; font-size: 12px; font-weight: 200;" fill="rgb(50, 49, 63)" stroke="none" stroke-width="1px">800</text><text x="206.21719374234746" y="0" dx="0em" dy="0.95em" style="text-anchor: middle; visibility: inherit; font-family: Roboto, sans-serif; font-size: 12px; font-weight: 200;" fill="rgb(50, 49, 63)" stroke="none" stroke-width="1px">1k</text><text x="245.19018468705525" y="0" dx="0em" dy="0.95em" style="text-anchor: middle; visibility: inherit; font-family: Roboto, sans-serif; font-size: 12px; font-weight: 200;" fill="rgb(50, 49, 63)" stroke="none" stroke-width="1px">1.2k</text><text x="284.16317563176307" y="0" dx="0em" dy="0.95em" style="text-anchor: middle; visibility: inherit; font-family: Roboto, sans-serif; font-size: 12px; font-weight: 200;" fill="rgb(50, 49, 63)" stroke="none" stroke-width="1px">1.4k</text></g><line x1="0" y1="0" x2="300" y2="0" fill="rgb(0, 0, 0)" stroke="rgb(204, 204, 204)" stroke-width="1px"></line></g></g></g></g></svg>