<svg viewBox="0 0 330 200" xmlns="http://www.w3.org/2000/svg"><g><g><g><g><g><line x1="30" y1="177.00707744124514" x2="25" y2="177.00707744124514" style="visibility: inherit;" fill="rgb(0, 0, 0)" stroke="rgb(204, 204, 204)" stroke-width="1px"></line><line x1="30" y1="160.11069798269483" x2="25" y2="160.11069798269483" style="visibility: inherit;" fill="rgb(0, 0, 0)" stroke="rgb(204, 204, 204)" stroke-width="1px"></line><line x1="30" y1="143.21431852414452" x2="25" y2="143.21431852414452" style="visibility: inherit;" fill="rgb(0, 0, 0)" stroke="rgb(204, 204, 204)" stroke-width="1px"></line><line x1="30" y1="126.31793906559423" x2="25" y2="126.31793906559423" style="visibility: inherit;" fill="rgb(0, 0, 0)" stroke="rgb(204, 204, 204)" stroke-width="1px"></line><line x1="30" y1="109.42155960704393" x2="25" y2="109.42155960704393" style="visibility: inherit;" fill="rgb(0, 0, 0)" stroke="rgb(204, 204, 204)" stroke-width="1px"></line><line x1="30" y1="92.52518014849363" x2="25" y2="92.52518014849363" style="visibility: inherit;" fill="rgb(0, 0, 0)" stroke="rgb(204, 204, 204)" stroke-width="1px"></line><line x1="30" y1="75.62880068994335" x2="25" y2="75.62880068994335" style="visibility: inherit;" fill="rgb(0, 0, 0)" stroke="rgb(204, 204, 204)" stroke-width="1px"></line><line x1="30" y1="58.73242123139305" x2="25" y2="58.73242123139305" style="visibility: inherit;" fill="rgb(0, 0, 0)" stroke="rgb(204, 204, 204)" stroke-width="1px"></line><line x1="30" y1="41.836041772842755" x2="25" y2="41.836041772842755" style="visibility: inherit;" fill="rgb(0, 0, 0)" stroke="rgb(204, 204, 204)" stroke-width="1px"></line><line x1="30" y1="24.939662314292455" x2="25" y2="24.939662314292455" style="visibility: inherit;" fill="rgb(0, 0, 0)" stroke="rgb(204, 204, 204)" stroke-width="1px"></line><line x1="30" y1="8.043282855742161" x2="25" y2="8.043282855742161" style="visibility: inherit;" fill="rgb(0, 0, 0)" stroke="rgb(204, 204, 204)" stroke-width="1px"></line></g><g transform="translate(20, 0)"><text x="0" y="177.00707744124514" dx="0em" dy="0.3em" style="text-anchor: end; visibility: hidden; font-family: Roboto, sans-serif; font-size: 12px; font-weight: 200;" fill="rgb(50, 49, 63)" stroke="none" stroke-width="1px">0</text><text x="0" y="160.11069798269483" dx="0em" dy="0.3em" style="text-anchor: end; visibility: inherit; font-family: Roboto, sans-serif; font-size: 12px; font-weight: 200;" fill="rgb(50, 49, 63)" stroke="none" stroke-width="1px">1</text><text x="0" y="143.21431852414452" dx="0em" dy="0.3em" style="text-anchor: end; visibility: hidden; font-family: Roboto, sans-serif; font-size: 12px; font-weight: 200;" fill="rgb(50, 49, 63)" stroke="none" stroke-width="1px">2</text><text x="0" y="126.31793906559423" dx="0em" dy="0.3em" style="text-anchor: end; visibility: inherit; font-family: Roboto, sans-serif; font-size: 12px; font-weight: 200;" fill="rgb(50, 49, 63)" stroke="none" stroke-width="1px">3</text><text x="0" y="109.42155960704393" dx="0em" dy="0.3em" style="text-anchor: end; visibility: hidden; font-family: Roboto, sans-serif; font-size: 12px; font-weight: 200;" fill="rgb(50, 49, 63)" stroke="none" stroke-width="1px">4</text><text x="0" y="92.52518014849363" dx="0em" dy="0.3em" style="text-anchor: end; visibility: inherit; font-family: Roboto, sans-serif; font-size: 12px; font-weight: 200;" fill="rgb(50, 49, 63)" stroke="none" stroke-width="1px">5</text><text x="0" y="75.62880068994335" dx="0em" dy="0.3em" style="text-anchor: end; visibility: hidden; font-family: Roboto, sans-serif; font-size: 12px; font-weight: 200;" fill="rgb(50, 49, 63)" stroke="none" stroke-width="1px">6</text><text x="0" y="58.73242123139305" dx="0em" dy="0.3em" style="text-anchor: end; visibility: inherit; font-family: Roboto, sans-serif; font-size: 12px; font-weight: 200;" fill="rgb(50, 49, 63)" stroke="none" stroke-width="1px">7</text><text x="0" y="41.836041772842755" dx="0em" dy="0.3em" style="text-anchor: end; visibility: hidden; font-family: Roboto, sans-serif; font-size: 12px; font-weight: 200;" fill="rgb(50, 49, 63)" stroke="none" stroke-width="1px">8</text><text x="0" y="24.939662314292455" dx="0em" dy="0.3em" style="text-anchor: end; visibility: inherit; font-family: Roboto, sans-serif; font-size: 12px; font-weight: 200;" fill="rgb(50, 49, 63)" stroke="none" stroke-width="1px">9</text><text x="0" y="8.043282855742161" dx="0em" dy="0.3em" style="text-anchor: end; visibility: hidden; font-family: Roboto, sans-serif; font-size: 12px; font-weight: 200;" fill="rgb(50, 49, 63)" stroke="none" stroke-width="1px">10</text></g><line x1="30" y1="0" x2="30" y2="178" fill="rgb(0, 0, 0)" stroke="rgb(204, 204, 204)" stroke-width="1px"></line></g></g><g transform="translate(30, 0)" clip-path="url(#clip_0)"><clipPath id="clip_0"><rect width="300" height="178"></rect></clipPath><g><g><g><line x1="10.938311224640412" y1="0" x2="10.938311224640412" y2="178" fill="rgb(0, 0, 0)" stroke="rgb(60, 60, 60)" stroke-width="1px" opacity="0.25"></line><line x1="50.16661474585536" y1="0" x2="50.16661474585536" y2="178" fill="rgb(0, 0, 0)" stroke="rgb(60, 60, 60)" stroke-width="1px" opacity="0.25"></line><line x1="89.39491826707031" y1="0" x2="89.39491826707031" y2="178" fill="rgb(0, 0, 0)" stroke="rgb(60, 60, 60)" stroke-width="1px" opacity="0.25"></line><line x1="128.62322178828526" y1="0" x2="128.62322178828526" y2="178" fill="rgb(0, 0, 0)" stroke="rgb(60, 60, 60)" stroke-width="1px" opacity="0.25"></line><line x1="167.8515253095002" y1="0" x2="167.8515253095002" y2="178" fill="rgb(0, 0, 0)" stroke="rgb(60, 60, 60)" stroke-width="1px" opacity="0.25"></line><line x1="207.07982883071512" y1="0" x2="207.07982883071512" y2="178" fill="rgb(0, 0, 0)" stroke="rgb(60, 60, 60)" stroke-width="1px" opacity="0.25"></line><line x1="246.30813235193008" y1="0" x2="246.30813235193008" y2="178" fill="rgb(0, 0, 0)" stroke="rgb(60, 60, 60)" stroke-width="1px" opacity="0.25"></line><line x1="285.536435873145" y1="0" x2="285.536435873145" y2="178" fill="rgb(0, 0, 0)" stroke="rgb(60, 60, 60)" stroke-width="1px" opacity="0.25"></line></g><g><line x1="0" y1="177.00707744124514" x2="300" y2="177.00707744124514" fill="rgb(0, 0, 0)" stroke="rgb(60, 60, 60)" stroke-width="1px" opacity="0.25"></line><line x1="0" y1="160.11069798269483" x2="300" y2="160.11069798269483" fill="rgb(0, 0, 0)" stroke="rgb(60, 60, 60)" stroke-width="1px" opacity="0.25"></line><line x1="0" y1="143.21431852414452" x2="300" y2="143.21431852414452" fill="rgb(0, 0, 0)" stroke="rgb(60, 60, 60)" stroke-width="1px" opacity="0.25"></line><line x1="0" y1="126.31793906559423" x2="300" y2="126.31793906559423" fill="rgb(0, 0, 0)" stroke="rgb(60, 60, 60)" stroke-width="1px" opacity="0.25"></line><line x1="0" y1="109.42155960704393" x2="300" y2="109.42155960704393" fill="rgb(0, 0, 0)" stroke="rgb(60, 60, 60)" stroke-width="1px" opacity="0.25"></line><line x1="0" y1="92.52518014849363" x2="300" y2="92.52518014849363" fill="rgb(0, 0, 0)" stroke="rgb(60, 60, 60)" stroke-width="1px" opacity="0.25"></line><line x1="0" y1="75.62880068994335" x2="300" y2="75.62880068994335" fill="rgb(0, 0, 0)" stroke="rgb(60, 60, 60)" stroke-width="1px" opacity="0.25"></line><line x1="0" y1="58.73242123139305" x2="300" y2="58.73242123139305" fill="rgb(0, 0, 0)" stroke="rgb(60, 60, 60)" stroke-width="1px" opacity="0.25"></line><line x1="0" y1="41.836041772842755" x2="300" y2="41.836041772842755" fill="rgb(0, 0, 0)" stroke="rgb(60, 60, 60)" stroke-width="1px" opacity="0.25"></line><line x1="0" y1="24.939662314292455" x2="300" y2="24.939662314292455" fill="rgb(0, 0, 0)" stroke="rgb(60, 60, 60)" stroke-width="1px" opacity="0.25"></line><line x1="0" y1="8.043282855742161" x2="300" y2="8.043282855742161" fill="rgb(0, 0, 0)" stroke="rgb(60, 60, 60)" stroke-width="1px" opacity="0.25"></line></g></g></g><g><g><line x1="0" y1="177.00707744124514" x2="300" y2="177.00707744124514" fill="rgb(0, 0, 0)" stroke="rgb(153, 153, 153)" stroke-width="1.5px"></line></g></g><g><g><line x1="10.938311224640412" y1="0" x2="10.938311224640412" y2="178" fill="rgb(0, 0, 0)" stroke="rgb(153, 153, 153)" stroke-width="1.5px"></line></g></g><g><g><g><g><g><path stroke="rgb(204, 51, 17)" stroke-width="2px" d="M11.919018812670783,160.11069798269483L12.11516033027686,160.11069798269483L12.899726400701159,160.11069798269483L13.095867918307235,160.11069798269483L13.488150953519382,130.797062558423L13.684292471125458,93.47117776318423L13.880433988731532,120.8946680692195L14.468858541549757,136.84905242698414L14.66500005915583,125.7663673681211L14.861141576761906,98.78967114727102L15.645707647186205,82.70842890750576L17.410981305640878,100.1902871710096L17.607122823246954,76.81806326525219L17.999405858459102,49.28657628181043L18.7839719288834,53.06669161511314L19.17625496409555,35.052246038275335L19.5685379993077,37.766223717861536L19.764679516913773,52.91279279159306L20.156962552125922,55.24078602604828L20.549245587338074,56.637491173939324L20.745387104944147,98.02768187201188L21.333811657762375,62.03344850327155L21.529953175368448,67.47163232492149L21.726094692974524,50.458763707210714L21.922236210580596,47.00966512757692L22.11837772818667,51.69877556786903L22.90294379861097,95.06358891726815L23.29522683382312,121.08244852147016L23.68750986903527,89.38387414247238L23.883651386641343,77.12329026754531L24.07979290424742,83.28404703711423L24.275934421853492,53.18773896930225L24.864358974671717,35.129955661583544L25.060500492277793,24.295286228820938L25.25664200988387,17.79448476783604L25.45278352748994,13.894003962767263L26.43349111552032,38.58792280645983L27.414198703550692,60.162825823385155L27.610340221156765,66.3492157837912L27.806481738762844,63.30249795875923L28.002623256368917,61.47446726634658L28.19876477397499,53.61909706516482L28.394906291581066,35.38877137613196L29.37561387961144,85.27754202739997L30.944746020460038,88.1765972761388L31.533170573278262,89.91603042518923L31.729312090884335,57.16693139618493L33.10230271412686,64.55167911385409L33.69072726694508,41.94832061030481L34.083010302157234,68.93761620921862L34.27915181976331,85.13119356842728L35.259859407793684,54.296029283263515L35.456000925399756,35.79493071222266L35.652142443005836,24.694271569618838L36.240566995824054,58.5851867846102L36.436708513430126,38.36842521305536L37.809699136672656,26.238368270127314L38.2019821718848,66.27019658831954L38.59426520709695,83.53074179581071L38.790406724703026,114.16272427056586L38.986548242309105,71.71494770463514L39.18268975991518,100.3146960324394L40.35953886555163,63.40613076176013L40.947963418369845,41.26099159935279L41.340246453582004,61.76666701900923L41.73252948879415,94.34572762106343L41.92867100640022,120.65171576571603L42.124812524006295,75.60834260172646L42.71323707682453,109.40928475411381L43.30166162964275,102.65564291186575L43.6939446648549,125.6376649401974L43.89008618246097,112.3926710235159L44.478510735279194,131.47988180718747L45.45921832330957,102.3808975768697L45.655359840915644,64.64585168841867L45.851501358521716,75.79758307244866L46.24378439373386,109.52282903654714L46.83220894655209,89.20666591448553L47.22449198176424,117.56827874176925L47.42063349937032,114.30959108787911L47.81291653458246,78.56161957844446L48.205199569794615,84.14704380646415L48.40134108740069,67.2226429930156L49.77433171064321,90.86076142204703L51.34346385149181,57.73376999552511L51.539605369097885,98.68454119039298L51.73574688670396,102.97934855705337L52.520312957128255,125.83188832730994L53.10873750994648,92.23354970552307L53.69716206276471,119.38440901639177L53.89330358037078,122.15782103607278L54.481728133189,103.546212897621L54.67786965079508,126.17200693165054L55.07015268600723,85.67906908470732L55.266294203613306,115.45172064390232L55.46243572121938,126.5567597959992L55.854718756431524,79.1513690198964L56.443143309249756,50.708134554234704L56.63928482685583,94.46915992561877L56.8354263444619,120.7257751484492L57.423850897280126,102.68698536504685L58.99298303812873,71.5880561447451L59.38526607334087,100.23856109650485L59.777549108553025,63.36044980019979L60.954398214189474,102.06054907319782L61.5428227670077,91.48784971989605L61.73896428461377,85.14423010791496L61.93510580221985,115.1308172578269L62.13124731982592,85.81290706383325L62.523530355038076,54.70505738059682L63.308096425462374,36.04034757065495L63.70037946067452,78.9099359520508L64.09266249588667,111.39024076430842L64.48494553109882,130.87842365166298L65.46565311912919,95.26147090013488L65.85793615434135,121.20116173315887L66.64250222476565,136.76497623297325L67.623209812796,85.27629888208081L68.01549284800817,54.38309247154536L68.21163436561423,35.84716862522408L69.19234195364461,45.00126966769167L69.3884834712507,30.218074942911876L69.58462498885676,34.865261674884216L69.97690802406892,24.136470147227385L70.17304954167498,78.52616128141437L70.36919105928106,50.333009911145496L71.15375712970535,53.69277443924453L71.34989864731143,35.432977805843585L71.74218168252358,24.477099825803016L72.3306062353418,78.73053908855977L73.11517230576611,50.45563659543272L73.31131382337219,47.00779866639673L73.50745534097825,92.24895839291597L73.70359685858433,58.566688178046455L74.09587989379648,38.35732604912472L74.6843044466147,26.23170877177169L74.88044596422078,73.02475267272085L75.07658748182685,94.34202722987023L75.66501203464507,80.09818483047934L75.86115355225115,112.10319009136553L76.2534365874633,131.30619324789726L77.43028569309975,142.8279951418163L77.8225687283119,142.9825244947476L78.41099328113012,149.83379388992648L78.60713479873621,113.3932448265131L78.99941783394834,71.25326003820474L79.19555935155442,106.79623521600077L80.17626693958479,128.1220203226784L80.37240845719087,80.0905253359039L80.76469149240303,112.09859439462028L81.15697452761516,124.54488404642998L81.35311604522126,138.77120962093593L81.54925756282732,99.99714248169865L82.13768211564555,103.76690933183676L82.92224818606984,126.30442479217999L83.51067273888808,139.82693406838592L83.70681425649414,147.9404396341095L84.0990972917063,139.2914394067034L84.88366336213059,147.61914283709996L85.07980487973666,152.61576489533792L85.27594639734275,128.5795309966002L85.66822943255488,80.365031740257L85.86437095016096,51.43633218645106L86.64893702058527,54.35476780442786L86.84507853819134,56.10582917521396L87.04122005579741,97.70777669820629L87.43350309100957,122.66894521200172L87.62964460861564,137.64564632027896L87.8257861262217,146.63166698524532L88.0219276438278,152.02327938422513L89.78720130228245,155.258246823613L89.98334281988853,157.19922728724572L90.9640504079189,158.36381556542537L92.33704103116143,159.06256853233316L92.53318254876751,159.48182031247782L93.3177486191918,132.69916424688415L93.51389013679788,109.87101882410782L93.71003165440395,129.96689048754263L94.10231468961611,135.26586170218337L94.49459772482827,145.20379621438795L95.27916379525256,151.1665569217107L97.04443745370722,154.74421334610437L97.24057897131331,156.89080720074054L97.43672048891938,158.17876351352226L97.63286200652544,158.95153730119128L98.22128655934367,159.4152015737927L98.80971111216189,159.69340013735356L99.39813566498012,159.86031927549007L100.77112628822265,99.13350470759092L100.96726780582871,123.52438201763249L101.1634093234348,138.15890840365742L101.35955084104087,133.42252066843216L101.75183387625302,144.09779159413722L101.9479753938591,150.50295414956025L102.53639994667732,154.34605168281408L102.7325414642834,156.65191020276637L102.92868298188947,144.51832174789752L103.71324905231376,89.9283061910354L103.90939056991985,118.00126290769916L104.69395664034414,87.5351744537566L106.06694726358667,116.56538386533191L106.6553718164049,73.15654346149601L106.85151333401096,107.93820526997554L107.24379636922312,128.80720235506325L107.63607940443525,114.29439347243542L108.22450395725349,132.62091527653917L110.3820606509203,143.61682835900143L110.97048520373853,150.2143762084788L111.16662672134461,154.17290491816522L111.36276823895068,156.54802214397705L111.75505127416284,157.97309247946419L112.14733430937498,111.5182721968156L112.34347582698105,130.95524251116728L112.73575886219321,102.06611399925761L113.71646645022359,125.28394759263249L113.91260796782966,139.21464774865743L115.08945707346611,100.26320535833155L115.48174010867825,124.20220240807689L115.67788162628432,138.56560063792406L115.8740231438904,147.1836395758324L116.07016466149648,152.35446293857734L116.26630617910254,155.45695695622436L116.46244769670864,157.31845336681255L116.6585892143147,158.43535121316546L116.85473073192077,159.10548992097722L117.05087224952686,112.19771066172343L117.24701376713293,131.362905590112L117.63929680234507,142.86202254714513L118.2277213551633,115.96873380426442L118.42386287276938,133.6255194756366L118.62000439037544,144.21959087845985L119.01228742558759,150.57603372015387L119.7968534960119,154.38989942517026L120.18913653122404,143.16111528133985L120.5814195664362,149.94094836188182L121.36598563686049,154.00884821020702L121.56212715446657,156.44958811920213L121.75826867207265,157.9140320645992L122.54283474249695,158.79269843183747L123.32740081292124,159.31989825218042L123.5235423305273,159.63621814438616L124.11196688334553,159.82601007970962L124.50424991855769,159.93988524090372L124.70039143616377,160.00821033762017L124.89653295376984,160.04920539565003L125.09267447137591,160.07380243046794L125.288815988982,160.0885606513587L125.48495750658806,160.09741558389317L125.87724054180022,160.10272854341383L126.07338205940628,160.10591631912624L127.05408964743667,160.10782898455366L127.25023116504273,160.10897658381012L127.64251420025488,160.109665143364L127.83865571786096,160.11007827909634L128.03479723546704,160.11032616053575L128.62322178828526,160.11047488939937L129.0155048234974,160.11056412671755L129.8000708939217,160.11061766910848L130.19235392913387,160.110649794543L130.584636964346,160.11066906980375L130.7807784819521,160.11068063496018L130.97691999955816,160.11068757405403L131.5653445523764,160.11069173751036L132.34991062280068,160.11069423558413L132.54605214040674,160.11069573442842L132.9383351756189,160.110696633735L133.52675972843713,160.11069717331893L134.31132579886142,160.11069749706928L135.2920333868918,160.1106976913195L136.66502401013432,160.11069780786966L136.8611655277404,160.1106978777997L137.25344856295254,160.11069791975777L137.44959008055864,160.11069794493258L137.6457315981647,160.11069796003747L137.84187311577077,160.1106979691004L138.03801463337686,160.11069797453817L138.23415615098293,160.11069797780084L138.62643918619509,160.11069797975844L138.82258070380115,160.110697980933L139.60714677422544,160.11069798163774L139.8032882918315,160.11069798206057L140.5878543622558,160.1106979823143L141.17627891507405,160.1106979824665L141.56856195028618,160.11069798255784L141.76470346789228,160.11069798261263L141.96084498549834,160.11069798264552L142.54926953831657,160.11069798266524L142.74541105592263,160.11069798267707L142.94155257352872,160.11069798268417L143.1376940911348,160.11069798268844L143.33383560874086,160.110697982691L143.72611864395301,160.11069798269253L143.9222601615591,160.11069798269347L144.11840167916517,160.110697982694L144.5106847143773,160.11069798269435L144.7068262319834,160.11069798269455L144.90296774958946,160.11069798269466L145.09910926719553,160.11069798269472L145.29525078480162,160.11069798269475L145.4913923024077,160.11069798269477L145.88367533761982,160.11069798269483L146.0798168552259,160.11069798269483L147.45280747846843,160.11069798269483L148.04123203128665,160.11069798269483L148.23737354889272,160.11069798269483L148.4335150664988,160.11069798269483L148.82579810171094,160.11069798269483L149.4142226545292,160.11069798269483L149.80650568974133,160.11069798269483L150.1987887249535,160.11069798269483L150.98335479537778,160.11069798269483L151.76792086580207,160.11069798269483L151.96406238340816,160.11069798269483L152.3563454186203,160.11069798269483L152.55248693622636,160.11069798269483L152.74862845383245,160.11069798269483L152.94476997143852,160.11069798269483L153.14091148904458,160.11069798269483L154.121619077075,160.11069798269483L155.29846818271145,160.11069798269483L155.69075121792358,160.11069798269483L155.88689273552967,160.11069798269483L156.0830342531357,160.11069798269483L156.2791757707418,160.11069798269483L156.67145880595393,160.11069798269483L157.25988335877216,160.11069798269483L157.45602487637825,160.11069798269483L158.04444942919648,160.11069798269483L158.24059094680254,160.11069798269483L158.4367324644086,160.11069798269483L158.82901549962077,160.11069798269483L159.2212985348329,160.11069798269483L159.80972308765112,160.11069798269483L160.39814764046935,160.11069798269483L160.98657219328757,160.11069798269483L161.18271371089367,160.11069798269483L161.37885522849976,160.11069798269483L161.7711382637119,160.11069798269483L161.96727978131798,160.11069798269483L162.16342129892402,160.11069798269483L162.5557043341362,160.11069798269483L162.75184585174225,160.11069798269483L162.94798736934834,160.11069798269483L163.9286949573787,160.11069798269483L164.71326102780301,160.11069798269483L164.90940254540908,160.11069798269483L165.30168558062124,160.11069798269483L165.6939686158334,160.11069798269483L166.08625165104553,160.11069798269483L166.28239316865162,160.11069798269483L166.47853468625766,160.11069798269483L166.67467620386375,160.11069798269483L166.87081772146985,160.11069798269483L167.06695923907589,160.11069798269483L167.45924227428807,160.11069798269483L167.8515253095002,160.11069798269483L168.24380834471233,160.11069798269483L168.83223289753056,160.11069798269483L169.22451593274275,160.11069798269483L169.42065745034878,160.11069798269483L169.61679896795488,160.11069798269483L170.40136503837917,160.11069798269483L170.79364807359133,160.11069798269483L170.9897895911974,160.11069798269483L171.38207262640955,160.11069798269483L171.97049717922778,160.11069798269483L172.75506324965207,160.11069798269483L173.3434878024703,160.11069798269483L173.93191235528852,160.11069798269483L174.1280538728946,160.11069798269483L174.52033690810674,160.11069798269483L174.91261994331887,160.11069798269483L175.30490297853106,160.11069798269483L176.28561056656142,160.11069798269483L176.67789360177358,160.11069798269483L176.87403511937964,160.11069798269483L177.0701766369857,160.11069798269483L177.2663181545918,160.11069798269483L177.85474270741003,160.11069798269483L179.03159181304648,160.11069798269483L179.4238748482586,160.11069798269483L179.6200163658647,160.11069798269483L179.81615788347074,160.11069798269483L180.01229940107683,160.11069798269483L180.20844091868292,160.11069798269483L180.99300698910724,160.11069798269483L181.38529002431937,160.11069798269483L181.58143154192544,160.11069798269483L182.36599761234973,160.11069798269483L182.56213912995582,160.11069798269483L182.7582806475619,160.11069798269483L182.95442216516795,160.11069798269483L183.54284671798618,160.11069798269483L183.73898823559227,160.11069798269483L183.93512975319834,160.11069798269483L184.32741278841047,160.11069798269483L184.9158373412287,160.11069798269483L185.30812037644085,160.11069798269483L185.50426189404692,160.11069798269483L185.89654492925908,160.11069798269483L186.09268644686514,160.11069798269483L186.68111099968337,160.11069798269483L187.2695355525016,160.11069798269483L187.4656770701077,160.11069798269483L188.8386676933502,160.11069798269483L189.03480921095627,160.11069798269483L189.23095072856236,160.11069798269483L189.42709224616843,160.11069798269483L189.6232337637745,160.11069798269483L189.8193752813806,160.11069798269483L190.01551679898665,160.11069798269483L190.4077998341988,160.11069798269483L190.60394135180488,160.11069798269483L190.80008286941094,160.11069798269483L191.38850742222917,160.11069798269483L191.58464893983523,160.11069798269483L191.78079045744133,160.11069798269483L191.97693197504742,160.11069798269483L192.36921501025955,160.11069798269483L193.546064115896,160.11069798269483L193.7422056335021,160.11069798269483L194.33063018632032,160.11069798269483L195.7036208095628,160.11069798269483L196.29204536238103,160.11069798269483L197.66503598562355,160.11069798269483L197.86117750322964,160.11069798269483L198.05731902083573,160.11069798269483L198.44960205604787,160.11069798269483L198.64574357365396,160.11069798269483L198.84188509126,160.11069798269483L199.43030964407822,160.11069798269483L199.62645116168432,160.11069798269483L200.01873419689645,160.11069798269483L200.41101723210863,160.11069798269483L200.60715874971467,160.11069798269483L201.39172482013896,160.11069798269483L201.58786633774503,160.11069798269483L201.9801493729572,160.11069798269483L202.37243240816935,160.11069798269483L202.5685739257754,160.11069798269483L202.76471544338148,160.11069798269483L202.96085696098757,160.11069798269483L203.5492815138058,160.11069798269483L203.7454230314119,160.11069798269483L203.94156454901793,160.11069798269483L204.52998910183615,160.11069798269483L204.72613061944224,160.11069798269483L206.29526276029083,160.11069798269483L206.88368731310905,160.11069798269483L207.07982883071512,160.11069798269483L207.47211186592727,160.11069798269483L207.86439490113943,160.11069798269483L208.0605364187455,160.11069798269483L208.64896097156375,160.11069798269483L208.8451024891698,160.11069798269483L209.23738552438198,160.11069798269483L209.43352704198801,160.11069798269483L209.6296685595941,160.11069798269483L209.8258100772002,160.11069798269483L210.41423463001843,160.11069798269483L211.983366770867,160.11069798269483L212.37564980607914,160.11069798269483L212.7679328412913,160.11069798269483L213.16021587650346,160.11069798269483L213.35635739410952,160.11069798269483L213.5524989117156,160.11069798269483L213.94478194692775,160.11069798269483L214.33706498213988,160.11069798269483L214.53320649974597,160.11069798269483L214.72934801735207,160.11069798269483L215.3177725701703,160.11069798269483L215.71005560538242,160.11069798269483L217.08304622862497,160.11069798269483L217.279187746231,160.11069798269483L217.86761229904923,160.11069798269483L218.2598953342614,160.11069798269483L219.43674443989784,160.11069798269483L219.63288595750393,160.11069798269483L220.02516899271606,160.11069798269483L220.41745202792822,160.11069798269483L221.2020180983525,160.11069798269483L221.59430113356464,160.11069798269483L221.98658416877683,160.11069798269483L222.37886720398896,160.11069798269483L222.7711502392011,160.11069798269483L223.35957479201932,160.11069798269483L223.5557163096254,160.11069798269483L223.7518578272315,160.11069798269483L223.94799934483754,160.11069798269483L225.12484845047402,160.11069798269483L225.32098996808008,160.11069798269483L226.49783907371653,160.11069798269483L226.8901221089287,160.11069798269483L227.28240514414082,160.11069798269483L227.47854666174692,160.11069798269483L227.67468817935296,160.11069798269483L229.43996183780763,160.11069798269483L229.83224487301982,160.11069798269483L230.42066942583804,160.11069798269483L231.00909397865627,160.11069798269483L231.20523549626233,160.11069798269483L231.59751853147446,160.11069798269483L231.79366004908056,160.11069798269483L231.98980156668662,160.11069798269483L232.57822611950485,160.11069798269483L232.7743676371109,160.11069798269483L233.16665067232307,160.11069798269483L233.36279218992914,160.11069798269483L233.55893370753523,160.11069798269483L234.14735826035346,160.11069798269483L234.3434997779595,160.11069798269483L234.73578281317168,160.11069798269483L236.30491495402026,160.11069798269483L236.50105647162636,160.11069798269483L236.69719798923242,160.11069798269483L236.8933395068385,160.11069798269483L237.4817640596567,160.11069798269483L237.6779055772628,160.11069798269483L237.87404709486887,160.11069798269483L238.4624716476871,160.11069798269483L238.65861316529316,160.11069798269483L238.85475468289923,160.11069798269483L241.79687744699035,160.11069798269483L242.38530199980858,160.11069798269483L242.77758503502073,160.11069798269483L242.9737265526268,160.11069798269483L243.36600958783896,160.11069798269483L243.56215110544503,160.11069798269483L244.15057565826325,160.11069798269483L244.73900021108147,160.11069798269483L244.93514172868757,160.11069798269483L245.13128324629363,160.11069798269483L245.3274247638997,160.11069798269483L245.71970779911186,160.11069798269483L246.111990834324,160.11069798269483L246.50427386953615,160.11069798269483L246.8965569047483,160.11069798269483L247.0926984223544,160.11069798269483L247.48498145756653,160.11069798269483L247.87726449277866,160.11069798269483L248.26954752799085,160.11069798269483L248.4656890455969,160.11069798269483L248.66183056320298,160.11069798269483L248.85797208080908,160.11069798269483L249.0541135984151,160.11069798269483L251.01552877447588,160.11069798269483L251.21167029208195,160.11069798269483L251.80009484490017,160.11069798269483L252.5846609153245,160.11069798269483L252.78080243293053,160.11069798269483L252.97694395053662,160.11069798269483L253.36922698574875,160.11069798269483L253.95765153856698,160.11069798269483L254.5460760913852,160.11069798269483L254.9383591265974,160.11069798269483L255.33064216180952,160.11069798269483L255.52678367941562,160.11069798269483L255.91906671462775,160.11069798269483L256.70363278505204,160.11069798269483L256.8997743026581,160.11069798269483L257.09591582026417,160.11069798269483L257.4881988554763,160.11069798269483L257.6843403730824,160.11069798269483L257.8804818906885,160.11069798269483L258.2727649259006,160.11069798269483L258.46890644350674,160.11069798269483L258.6650479611128,160.11069798269483L258.86118947871887,160.11069798269483L259.05733099632494,160.11069798269483L259.253472513931,160.11069798269483L260.2341801019614,160.11069798269483L260.43032161956745,160.11069798269483L260.82260465477964,160.11069798269483L261.6071707252039,160.11069798269483L261.80331224280997,160.11069798269483L262.19559527802215,160.11069798269483L262.9801613484464,160.11069798269483L263.3724443836586,160.11069798269483L263.76472741887073,160.11069798269483L264.1570104540829,160.11069798269483L264.35315197168893,160.11069798269483L264.54929348929505,160.11069798269483L264.7454350069011,160.11069798269483L265.13771804211325,160.11069798269483L265.7261425949315,160.11069798269483L265.92228411253757,160.11069798269483L266.3145671477497,160.11069798269483L266.51070866535576,160.11069798269483L266.70685018296183,160.11069798269483L267.099133218174,160.11069798269483L267.8836992885983,160.11069798269483L268.27598232381047,160.11069798269483L268.47212384141653,160.11069798269483L268.86440687662866,160.11069798269483L269.06054839423473,160.11069798269483L269.648972947053,160.11069798269483L269.84511446465905,160.11069798269483L270.82582205268943,160.11069798269483L271.0219635702955,160.11069798269483L271.21810508790156,160.11069798269483L271.8065296407198,160.11069798269483L272.19881267593195,160.11069798269483L272.394954193538,160.11069798269483L272.5910957111441,160.11069798269483L272.78723722875014,160.11069798269483L272.98337874635627,160.11069798269483L273.17952026396233,160.11069798269483L273.7679448167805,160.11069798269483L274.3563693695988,160.11069798269483L274.7486524048109,160.11069798269483L275.3370769576291,160.11069798269483L275.53321847523523,160.11069798269483L275.7293599928413,160.11069798269483L275.92550151044736,160.11069798269483L276.7100675808717,160.11069798269483L277.494633651296,160.11069798269483L277.88691668650813,160.11069798269483L278.0830582041142,160.11069798269483L278.86762427453846,160.11069798269483L279.0637657921446,160.11069798269483L279.6521903449628,160.11069798269483L280.24061489778103,160.11069798269483L281.0251809682053,160.11069798269483L281.2213224858114,160.11069798269483L281.4174640034174,160.11069798269483L282.0058885562357,160.11069798269483L282.39817159144786,160.11069798269483L282.59431310905387,160.11069798269483L282.98659614426606,160.11069798269483L283.1827376618721,160.11069798269483L283.3788791794782,160.11069798269483L283.7711622146903,160.11069798269483L283.96730373229644,160.11069798269483L284.55572828511464,160.11069798269483L285.536435873145,160.11069798269483L287.8901340844179,160.11069798269483L288.086275602024,160.11069798269483L288.28241711963005,160.11069798269483L288.4785586372362,160.11069798269483L289.26312470766044,160.11069798269483L289.85154926047863,160.11069798269483L290.04769077808476,160.11069798269483L290.4399738132969,160.11069798269483L290.63611533090295,160.11069798269483L290.8322568485091,160.11069798269483L291.0283983661151,160.11069798269483L291.8129644365394,160.11069798269483L292.0091059541455,160.11069798269483L292.2052474717516,160.11069798269483L292.5975305069637,160.11069798269483L292.7936720245698,160.11069798269483L292.98981354217585,160.11069798269483L293.38209657738804,160.11069798269483L293.77437961260017,160.11069798269483L294.9512287182366,160.11069798269483L295.34351175344875,160.11069798269483L296.32421934147914,160.11069798269483L296.5203608590852,160.11069798269483L298.2856345175399,160.11069798269483L298.48177603514597,160.11069798269483L299.2663421055703,160.11069798269483L300.63933272881275,160.11069798269483" style="fill: none;" fill="none"></path></g></g></g></g><g opacity="0.2"><g><g><g><path stroke="rgb(204, 51, 17)" stroke-width="2px" d="M11.919018812670783,160.11069798269483L12.11516033027686,160.11069798269483L12.899726400701159,160.11069798269483L13.095867918307235,160.11069798269483L13.488150953519382,92.52518014849363L13.684292471125458,41.836041772842755L13.880433988731532,160.11069798269483L14.468858541549757,160.11069798269483L14.66500005915583,109.42155960704393L14.861141576761906,58.73242123139305L15.645707647186205,58.73242123139305L17.410981305640878,126.31793906559423L17.607122823246954,41.836041772842755L17.999405858459102,8.043282855742161L18.7839719288834,58.73242123139305L19.17625496409555,8.043282855742161L19.5685379993077,41.836041772842755L19.764679516913773,75.62880068994335L20.156962552125922,58.73242123139305L20.549245587338074,58.73242123139305L20.745387104944147,160.11069798269483L21.333811657762375,8.043282855742161L21.529953175368448,75.62880068994335L21.726094692974524,24.939662314292455L21.922236210580596,41.836041772842755L22.11837772818667,58.73242123139305L22.90294379861097,160.11069798269483L23.29522683382312,160.11069798269483L23.68750986903527,41.836041772842755L23.883651386641343,58.73242123139305L24.07979290424742,92.52518014849363L24.275934421853492,8.043282855742161L24.864358974671717,8.043282855742161L25.060500492277793,8.043282855742161L25.25664200988387,8.043282855742161L25.45278352748994,8.043282855742161L26.43349111552032,75.62880068994335L27.414198703550692,92.52518014849363L27.610340221156765,75.62880068994335L27.806481738762844,58.73242123139305L28.002623256368917,58.73242123139305L28.19876477397499,41.836041772842755L28.394906291581066,8.043282855742161L29.37561387961144,160.11069798269483L30.944746020460038,92.52518014849363L31.533170573278262,92.52518014849363L31.729312090884335,8.043282855742161L33.10230271412686,75.62880068994335L33.69072726694508,8.043282855742161L34.083010302157234,109.42155960704393L34.27915181976331,109.42155960704393L35.259859407793684,8.043282855742161L35.456000925399756,8.043282855742161L35.652142443005836,8.043282855742161L36.240566995824054,109.42155960704393L36.436708513430126,8.043282855742161L37.809699136672656,8.043282855742161L38.2019821718848,126.31793906559423L38.59426520709695,109.42155960704393L38.790406724703026,160.11069798269483L38.986548242309105,8.043282855742161L39.18268975991518,143.21431852414452L40.35953886555163,8.043282855742161L40.947963418369845,8.043282855742161L41.340246453582004,92.52518014849363L41.73252948879415,143.21431852414452L41.92867100640022,160.11069798269483L42.124812524006295,8.043282855742161L42.71323707682453,160.11069798269483L43.30166162964275,92.52518014849363L43.6939446648549,160.11069798269483L43.89008618246097,92.52518014849363L44.478510735279194,160.11069798269483L45.45921832330957,58.73242123139305L45.655359840915644,8.043282855742161L45.851501358521716,92.52518014849363L46.24378439373386,160.11069798269483L46.83220894655209,58.73242123139305L47.22449198176424,160.11069798269483L47.42063349937032,109.42155960704393L47.81291653458246,24.939662314292455L48.205199569794615,92.52518014849363L48.40134108740069,41.836041772842755L49.77433171064321,126.31793906559423L51.34346385149181,8.043282855742161L51.539605369097885,160.11069798269483L51.73574688670396,109.42155960704393L52.520312957128255,160.11069798269483L53.10873750994648,41.836041772842755L53.69716206276471,160.11069798269483L53.89330358037078,126.31793906559423L54.481728133189,75.62880068994335L54.67786965079508,160.11069798269483L55.07015268600723,24.939662314292455L55.266294203613306,160.11069798269483L55.46243572121938,143.21431852414452L55.854718756431524,8.043282855742161L56.443143309249756,8.043282855742161L56.63928482685583,160.11069798269483L56.8354263444619,160.11069798269483L57.423850897280126,75.62880068994335L58.99298303812873,24.939662314292455L59.38526607334087,143.21431852414452L59.777549108553025,8.043282855742161L60.954398214189474,160.11069798269483L61.5428227670077,75.62880068994335L61.73896428461377,75.62880068994335L61.93510580221985,160.11069798269483L62.13124731982592,41.836041772842755L62.523530355038076,8.043282855742161L63.308096425462374,8.043282855742161L63.70037946067452,143.21431852414452L64.09266249588667,160.11069798269483L64.48494553109882,160.11069798269483L65.46565311912919,41.836041772842755L65.85793615434135,160.11069798269483L66.64250222476565,160.11069798269483L67.623209812796,8.043282855742161L68.01549284800817,8.043282855742161L68.21163436561423,8.043282855742161L69.19234195364461,58.73242123139305L69.3884834712507,8.043282855742161L69.58462498885676,41.836041772842755L69.97690802406892,8.043282855742161L70.17304954167498,160.11069798269483L70.36919105928106,8.043282855742161L71.15375712970535,58.73242123139305L71.34989864731143,8.043282855742161L71.74218168252358,8.043282855742161L72.3306062353418,160.11069798269483L73.11517230576611,8.043282855742161L73.31131382337219,41.836041772842755L73.50745534097825,160.11069798269483L73.70359685858433,8.043282855742161L74.09587989379648,8.043282855742161L74.6843044466147,8.043282855742161L74.88044596422078,143.21431852414452L75.07658748182685,126.31793906559423L75.66501203464507,58.73242123139305L75.86115355225115,160.11069798269483L76.2534365874633,160.11069798269483L77.43028569309975,160.11069798269483L77.8225687283119,143.21431852414452L78.41099328113012,160.11069798269483L78.60713479873621,58.73242123139305L78.99941783394834,8.043282855742161L79.19555935155442,160.11069798269483L80.17626693958479,160.11069798269483L80.37240845719087,8.043282855742161L80.76469149240303,160.11069798269483L81.15697452761516,143.21431852414452L81.35311604522126,160.11069798269483L81.54925756282732,41.836041772842755L82.13768211564555,109.42155960704393L82.92224818606984,160.11069798269483L83.51067273888808,160.11069798269483L83.70681425649414,160.11069798269483L84.0990972917063,126.31793906559423L84.88366336213059,160.11069798269483L85.07980487973666,160.11069798269483L85.27594639734275,92.52518014849363L85.66822943255488,8.043282855742161L85.86437095016096,8.043282855742161L86.64893702058527,58.73242123139305L86.84507853819134,58.73242123139305L87.04122005579741,160.11069798269483L87.43350309100957,160.11069798269483L87.62964460861564,160.11069798269483L87.8257861262217,160.11069798269483L88.0219276438278,160.11069798269483L89.78720130228245,160.11069798269483L89.98334281988853,160.11069798269483L90.9640504079189,160.11069798269483L92.33704103116143,160.11069798269483L92.53318254876751,160.11069798269483L93.3177486191918,92.52518014849363L93.51389013679788,75.62880068994335L93.71003165440395,160.11069798269483L94.10231468961611,143.21431852414452L94.49459772482827,160.11069798269483L95.27916379525256,160.11069798269483L97.04443745370722,160.11069798269483L97.24057897131331,160.11069798269483L97.43672048891938,160.11069798269483L97.63286200652544,160.11069798269483L98.22128655934367,160.11069798269483L98.80971111216189,160.11069798269483L99.39813566498012,160.11069798269483L100.77112628822265,8.043282855742161L100.96726780582871,160.11069798269483L101.1634093234348,160.11069798269483L101.35955084104087,126.31793906559423L101.75183387625302,160.11069798269483L101.9479753938591,160.11069798269483L102.53639994667732,160.11069798269483L102.7325414642834,160.11069798269483L102.92868298188947,126.31793906559423L103.71324905231376,8.043282855742161L103.90939056991985,160.11069798269483L104.69395664034414,41.836041772842755L106.06694726358667,160.11069798269483L106.6553718164049,8.043282855742161L106.85151333401096,160.11069798269483L107.24379636922312,160.11069798269483L107.63607940443525,92.52518014849363L108.22450395725349,160.11069798269483L110.3820606509203,160.11069798269483L110.97048520373853,160.11069798269483L111.16662672134461,160.11069798269483L111.36276823895068,160.11069798269483L111.75505127416284,160.11069798269483L112.14733430937498,41.836041772842755L112.34347582698105,160.11069798269483L112.73575886219321,58.73242123139305L113.71646645022359,160.11069798269483L113.91260796782966,160.11069798269483L115.08945707346611,41.836041772842755L115.48174010867825,160.11069798269483L115.67788162628432,160.11069798269483L115.8740231438904,160.11069798269483L116.07016466149648,160.11069798269483L116.26630617910254,160.11069798269483L116.46244769670864,160.11069798269483L116.6585892143147,160.11069798269483L116.85473073192077,160.11069798269483L117.05087224952686,41.836041772842755L117.24701376713293,160.11069798269483L117.63929680234507,160.11069798269483L118.2277213551633,75.62880068994335L118.42386287276938,160.11069798269483L118.62000439037544,160.11069798269483L119.01228742558759,160.11069798269483L119.7968534960119,160.11069798269483L120.18913653122404,126.31793906559423L120.5814195664362,160.11069798269483L121.36598563686049,160.11069798269483L121.56212715446657,160.11069798269483L121.75826867207265,160.11069798269483L122.54283474249695,160.11069798269483L123.32740081292124,160.11069798269483L123.5235423305273,160.11069798269483L124.11196688334553,160.11069798269483L124.50424991855769,160.11069798269483L124.70039143616377,160.11069798269483L124.89653295376984,160.11069798269483L125.09267447137591,160.11069798269483L125.288815988982,160.11069798269483L125.48495750658806,160.11069798269483L125.87724054180022,160.11069798269483L126.07338205940628,160.11069798269483L127.05408964743667,160.11069798269483L127.25023116504273,160.11069798269483L127.64251420025488,160.11069798269483L127.83865571786096,160.11069798269483L128.03479723546704,160.11069798269483L128.62322178828526,160.11069798269483L129.0155048234974,160.11069798269483L129.8000708939217,160.11069798269483L130.19235392913387,160.11069798269483L130.584636964346,160.11069798269483L130.7807784819521,160.11069798269483L130.97691999955816,160.11069798269483L131.5653445523764,160.11069798269483L132.34991062280068,160.11069798269483L132.54605214040674,160.11069798269483L132.9383351756189,160.11069798269483L133.52675972843713,160.11069798269483L134.31132579886142,160.11069798269483L135.2920333868918,160.11069798269483L136.66502401013432,160.11069798269483L136.8611655277404,160.11069798269483L137.25344856295254,160.11069798269483L137.44959008055864,160.11069798269483L137.6457315981647,160.11069798269483L137.84187311577077,160.11069798269483L138.03801463337686,160.11069798269483L138.23415615098293,160.11069798269483L138.62643918619509,160.11069798269483L138.82258070380115,160.11069798269483L139.60714677422544,160.11069798269483L139.8032882918315,160.11069798269483L140.5878543622558,160.11069798269483L141.17627891507405,160.11069798269483L141.56856195028618,160.11069798269483L141.76470346789228,160.11069798269483L141.96084498549834,160.11069798269483L142.54926953831657,160.11069798269483L142.74541105592263,160.11069798269483L142.94155257352872,160.11069798269483L143.1376940911348,160.11069798269483L143.33383560874086,160.11069798269483L143.72611864395301,160.11069798269483L143.9222601615591,160.11069798269483L144.11840167916517,160.11069798269483L144.5106847143773,160.11069798269483L144.7068262319834,160.11069798269483L144.90296774958946,160.11069798269483L145.09910926719553,160.11069798269483L145.29525078480162,160.11069798269483L145.4913923024077,160.11069798269483L145.88367533761982,160.11069798269483L146.0798168552259,160.11069798269483L147.45280747846843,160.11069798269483L148.04123203128665,160.11069798269483L148.23737354889272,160.11069798269483L148.4335150664988,160.11069798269483L148.82579810171094,160.11069798269483L149.4142226545292,160.11069798269483L149.80650568974133,160.11069798269483L150.1987887249535,160.11069798269483L150.98335479537778,160.11069798269483L151.76792086580207,160.11069798269483L151.96406238340816,160.11069798269483L152.3563454186203,160.11069798269483L152.55248693622636,160.11069798269483L152.74862845383245,160.11069798269483L152.94476997143852,160.11069798269483L153.14091148904458,160.11069798269483L154.121619077075,160.11069798269483L155.29846818271145,160.11069798269483L155.69075121792358,160.11069798269483L155.88689273552967,160.11069798269483L156.0830342531357,160.11069798269483L156.2791757707418,160.11069798269483L156.67145880595393,160.11069798269483L157.25988335877216,160.11069798269483L157.45602487637825,160.11069798269483L158.04444942919648,160.11069798269483L158.24059094680254,160.11069798269483L158.4367324644086,160.11069798269483L158.82901549962077,160.11069798269483L159.2212985348329,160.11069798269483L159.80972308765112,160.11069798269483L160.39814764046935,160.11069798269483L160.98657219328757,160.11069798269483L161.18271371089367,160.11069798269483L161.37885522849976,160.11069798269483L161.7711382637119,160.11069798269483L161.96727978131798,160.11069798269483L162.16342129892402,160.11069798269483L162.5557043341362,160.11069798269483L162.75184585174225,160.11069798269483L162.94798736934834,160.11069798269483L163.9286949573787,160.11069798269483L164.71326102780301,160.11069798269483L164.90940254540908,160.11069798269483L165.30168558062124,160.11069798269483L165.6939686158334,160.11069798269483L166.08625165104553,160.11069798269483L166.28239316865162,160.11069798269483L166.47853468625766,160.11069798269483L166.67467620386375,160.11069798269483L166.87081772146985,160.11069798269483L167.06695923907589,160.11069798269483L167.45924227428807,160.11069798269483L167.8515253095002,160.11069798269483L168.24380834471233,160.11069798269483L168.83223289753056,160.11069798269483L169.22451593274275,160.11069798269483L169.42065745034878,160.11069798269483L169.61679896795488,160.11069798269483L170.40136503837917,160.11069798269483L170.79364807359133,160.11069798269483L170.9897895911974,160.11069798269483L171.38207262640955,160.11069798269483L171.97049717922778,160.11069798269483L172.75506324965207,160.11069798269483L173.3434878024703,160.11069798269483L173.93191235528852,160.11069798269483L174.1280538728946,160.11069798269483L174.52033690810674,160.11069798269483L174.91261994331887,160.11069798269483L175.30490297853106,160.11069798269483L176.28561056656142,160.11069798269483L176.67789360177358,160.11069798269483L176.87403511937964,160.11069798269483L177.0701766369857,160.11069798269483L177.2663181545918,160.11069798269483L177.85474270741003,160.11069798269483L179.03159181304648,160.11069798269483L179.4238748482586,160.11069798269483L179.6200163658647,160.11069798269483L179.81615788347074,160.11069798269483L180.01229940107683,160.11069798269483L180.20844091868292,160.11069798269483L180.99300698910724,160.11069798269483L181.38529002431937,160.11069798269483L181.58143154192544,160.11069798269483L182.36599761234973,160.11069798269483L182.56213912995582,160.11069798269483L182.7582806475619,160.11069798269483L182.95442216516795,160.11069798269483L183.54284671798618,160.11069798269483L183.73898823559227,160.11069798269483L183.93512975319834,160.11069798269483L184.32741278841047,160.11069798269483L184.9158373412287,160.11069798269483L185.30812037644085,160.11069798269483L185.50426189404692,160.11069798269483L185.89654492925908,160.11069798269483L186.09268644686514,160.11069798269483L186.68111099968337,160.11069798269483L187.2695355525016,160.11069798269483L187.4656770701077,160.11069798269483L188.8386676933502,160.11069798269483L189.03480921095627,160.11069798269483L189.23095072856236,160.11069798269483L189.42709224616843,160.11069798269483L189.6232337637745,160.11069798269483L189.8193752813806,160.11069798269483L190.01551679898665,160.11069798269483L190.4077998341988,160.11069798269483L190.60394135180488,160.11069798269483L190.80008286941094,160.11069798269483L191.38850742222917,160.11069798269483L191.58464893983523,160.11069798269483L191.78079045744133,160.11069798269483L191.97693197504742,160.11069798269483L192.36921501025955,160.11069798269483L193.546064115896,160.11069798269483L193.7422056335021,160.11069798269483L194.33063018632032,160.11069798269483L195.7036208095628,160.11069798269483L196.29204536238103,160.11069798269483L197.66503598562355,160.11069798269483L197.86117750322964,160.11069798269483L198.05731902083573,160.11069798269483L198.44960205604787,160.11069798269483L198.64574357365396,160.11069798269483L198.84188509126,160.11069798269483L199.43030964407822,160.11069798269483L199.62645116168432,160.11069798269483L200.01873419689645,160.11069798269483L200.41101723210863,160.11069798269483L200.60715874971467,160.11069798269483L201.39172482013896,160.11069798269483L201.58786633774503,160.11069798269483L201.9801493729572,160.11069798269483L202.37243240816935,160.11069798269483L202.5685739257754,160.11069798269483L202.76471544338148,160.11069798269483L202.96085696098757,160.11069798269483L203.5492815138058,160.11069798269483L203.7454230314119,160.11069798269483L203.94156454901793,160.11069798269483L204.52998910183615,160.11069798269483L204.72613061944224,160.11069798269483L206.29526276029083,160.11069798269483L206.88368731310905,160.11069798269483L207.07982883071512,160.11069798269483L207.47211186592727,160.11069798269483L207.86439490113943,160.11069798269483L208.0605364187455,160.11069798269483L208.64896097156375,160.11069798269483L208.8451024891698,160.11069798269483L209.23738552438198,160.11069798269483L209.43352704198801,160.11069798269483L209.6296685595941,160.11069798269483L209.8258100772002,160.11069798269483L210.41423463001843,160.11069798269483L211.983366770867,160.11069798269483L212.37564980607914,160.11069798269483L212.7679328412913,160.11069798269483L213.16021587650346,160.11069798269483L213.35635739410952,160.11069798269483L213.5524989117156,160.11069798269483L213.94478194692775,160.11069798269483L214.33706498213988,160.11069798269483L214.53320649974597,160.11069798269483L214.72934801735207,160.11069798269483L215.3177725701703,160.11069798269483L215.71005560538242,160.11069798269483L217.08304622862497,160.11069798269483L217.279187746231,160.11069798269483L217.86761229904923,160.11069798269483L218.2598953342614,160.11069798269483L219.43674443989784,160.11069798269483L219.63288595750393,160.11069798269483L220.02516899271606,160.11069798269483L220.41745202792822,160.11069798269483L221.2020180983525,160.11069798269483L221.59430113356464,160.11069798269483L221.98658416877683,160.11069798269483L222.37886720398896,160.11069798269483L222.7711502392011,160.11069798269483L223.35957479201932,160.11069798269483L223.5557163096254,160.11069798269483L223.7518578272315,160.11069798269483L223.94799934483754,160.11069798269483L225.12484845047402,160.11069798269483L225.32098996808008,160.11069798269483L226.49783907371653,160.11069798269483L226.8901221089287,160.11069798269483L227.28240514414082,160.11069798269483L227.47854666174692,160.11069798269483L227.67468817935296,160.11069798269483L229.43996183780763,160.11069798269483L229.83224487301982,160.11069798269483L230.42066942583804,160.11069798269483L231.00909397865627,160.11069798269483L231.20523549626233,160.11069798269483L231.59751853147446,160.11069798269483L231.79366004908056,160.11069798269483L231.98980156668662,160.11069798269483L232.57822611950485,160.11069798269483L232.7743676371109,160.11069798269483L233.16665067232307,160.11069798269483L233.36279218992914,160.11069798269483L233.55893370753523,160.11069798269483L234.14735826035346,160.11069798269483L234.3434997779595,160.11069798269483L234.73578281317168,160.11069798269483L236.30491495402026,160.11069798269483L236.50105647162636,160.11069798269483L236.69719798923242,160.11069798269483L236.8933395068385,160.11069798269483L237.4817640596567,160.11069798269483L237.6779055772628,160.11069798269483L237.87404709486887,160.11069798269483L238.4624716476871,160.11069798269483L238.65861316529316,160.11069798269483L238.85475468289923,160.11069798269483L241.79687744699035,160.11069798269483L242.38530199980858,160.11069798269483L242.77758503502073,160.11069798269483L242.9737265526268,160.11069798269483L243.36600958783896,160.11069798269483L243.56215110544503,160.11069798269483L244.15057565826325,160.11069798269483L244.73900021108147,160.11069798269483L244.93514172868757,160.11069798269483L245.13128324629363,160.11069798269483L245.3274247638997,160.11069798269483L245.71970779911186,160.11069798269483L246.111990834324,160.11069798269483L246.50427386953615,160.11069798269483L246.8965569047483,160.11069798269483L247.0926984223544,160.11069798269483L247.48498145756653,160.11069798269483L247.87726449277866,160.11069798269483L248.26954752799085,160.11069798269483L248.4656890455969,160.11069798269483L248.66183056320298,160.11069798269483L248.85797208080908,160.11069798269483L249.0541135984151,160.11069798269483L251.01552877447588,160.11069798269483L251.21167029208195,160.11069798269483L251.80009484490017,160.11069798269483L252.5846609153245,160.11069798269483L252.78080243293053,160.11069798269483L252.97694395053662,160.11069798269483L253.36922698574875,160.11069798269483L253.95765153856698,160.11069798269483L254.5460760913852,160.11069798269483L254.9383591265974,160.11069798269483L255.33064216180952,160.11069798269483L255.52678367941562,160.11069798269483L255.91906671462775,160.11069798269483L256.70363278505204,160.11069798269483L256.8997743026581,160.11069798269483L257.09591582026417,160.11069798269483L257.4881988554763,160.11069798269483L257.6843403730824,160.11069798269483L257.8804818906885,160.11069798269483L258.2727649259006,160.11069798269483L258.46890644350674,160.11069798269483L258.6650479611128,160.11069798269483L258.86118947871887,160.11069798269483L259.05733099632494,160.11069798269483L259.253472513931,160.11069798269483L260.2341801019614,160.11069798269483L260.43032161956745,160.11069798269483L260.82260465477964,160.11069798269483L261.6071707252039,160.11069798269483L261.80331224280997,160.11069798269483L262.19559527802215,160.11069798269483L262.9801613484464,160.11069798269483L263.3724443836586,160.11069798269483L263.76472741887073,160.11069798269483L264.1570104540829,160.11069798269483L264.35315197168893,160.11069798269483L264.54929348929505,160.11069798269483L264.7454350069011,160.11069798269483L265.13771804211325,160.11069798269483L265.7261425949315,160.11069798269483L265.92228411253757,160.11069798269483L266.3145671477497,160.11069798269483L266.51070866535576,160.11069798269483L266.70685018296183,160.11069798269483L267.099133218174,160.11069798269483L267.8836992885983,160.11069798269483L268.27598232381047,160.11069798269483L268.47212384141653,160.11069798269483L268.86440687662866,160.11069798269483L269.06054839423473,160.11069798269483L269.648972947053,160.11069798269483L269.84511446465905,160.11069798269483L270.82582205268943,160.11069798269483L271.0219635702955,160.11069798269483L271.21810508790156,160.11069798269483L271.8065296407198,160.11069798269483L272.19881267593195,160.11069798269483L272.394954193538,160.11069798269483L272.5910957111441,160.11069798269483L272.78723722875014,160.11069798269483L272.98337874635627,160.11069798269483L273.17952026396233,160.11069798269483L273.7679448167805,160.11069798269483L274.3563693695988,160.11069798269483L274.7486524048109,160.11069798269483L275.3370769576291,160.11069798269483L275.53321847523523,160.11069798269483L275.7293599928413,160.11069798269483L275.92550151044736,160.11069798269483L276.7100675808717,160.11069798269483L277.494633651296,160.11069798269483L277.88691668650813,160.11069798269483L278.0830582041142,160.11069798269483L278.86762427453846,160.11069798269483L279.0637657921446,160.11069798269483L279.6521903449628,160.11069798269483L280.24061489778103,160.11069798269483L281.0251809682053,160.11069798269483L281.2213224858114,160.11069798269483L281.4174640034174,160.11069798269483L282.0058885562357,160.11069798269483L282.39817159144786,160.11069798269483L282.59431310905387,160.11069798269483L282.98659614426606,160.11069798269483L283.1827376618721,160.11069798269483L283.3788791794782,160.11069798269483L283.7711622146903,160.11069798269483L283.96730373229644,160.11069798269483L284.55572828511464,160.11069798269483L285.536435873145,160.11069798269483L287.8901340844179,160.11069798269483L288.086275602024,160.11069798269483L288.28241711963005,160.11069798269483L288.4785586372362,160.11069798269483L289.26312470766044,160.11069798269483L289.85154926047863,160.11069798269483L290.04769077808476,160.11069798269483L290.4399738132969,160.11069798269483L290.63611533090295,160.11069798269483L290.8322568485091,160.11069798269483L291.0283983661151,160.11069798269483L291.8129644365394,160.11069798269483L292.0091059541455,160.11069798269483L292.2052474717516,160.11069798269483L292.5975305069637,160.11069798269483L292.7936720245698,160.11069798269483L292.98981354217585,160.11069798269483L293.38209657738804,160.11069798269483L293.77437961260017,160.11069798269483L294.9512287182366,160.11069798269483L295.34351175344875,160.11069798269483L296.32421934147914,160.11069798269483L296.5203608590852,160.11069798269483L298.2856345175399,160.11069798269483L298.48177603514597,160.11069798269483L299.2663421055703,160.11069798269483L300.63933272881275,160.11069798269483" style="fill: none;" fill="none"></path></g></g></g></g></g></g><g transform="translate(30, 178)" clip-path="url(#clip_1)"><clipPath id="clip_1"><rect width="300" height="22"></rect></clipPath><g><g><line x1="10.938311224640412" y1="0" x2="10.938311224640412" y2="5" style="visibility: inherit;" fill="rgb(0, 0, 0)" stroke="rgb(204, 204, 204)" stroke-width="1px"></line><line x1="50.16661474585536" y1="0" x2="50.16661474585536" y2="5" style="visibility: inherit;" fill="rgb(0, 0, 0)" stroke="rgb(204, 204, 204)" stroke-width="1px"></line><line x1="89.39491826707031" y1="0" x2="89.39491826707031" y2="5" style="visibility: inherit;" fill="rgb(0, 0, 0)" stroke="rgb(204, 204, 204)" stroke-width="1px"></line><line x1="128.62322178828526" y1="0" x2="128.62322178828526" y2="5" style="visibility: inherit;" fill="rgb(0, 0, 0)" stroke="rgb(204, 204, 204)" stroke-width="1px"></line><line x1="167.8515253095002" y1="0" x2="167.8515253095002" y2="5" style="visibility: inherit;" fill="rgb(0, 0, 0)" stroke="rgb(204, 204, 204)" stroke-width="1px"></line><line x1="207.07982883071512" y1="0" x2="207.07982883071512" y2="5" style="visibility: inherit;" fill="rgb(0, 0, 0)" stroke="rgb(204, 204, 204)" stroke-width="1px"></line><line x1="246.30813235193008" y1="0" x2="246.30813235193008" y2="5" style="visibility: inherit;" fill="rgb(0, 0, 0)" stroke="rgb(204, 204, 204)" stroke-width="1px"></line><line x1="285.536435873145" y1="0" x2="285.536435873145" y2="5" style="visibility: inherit;" fill="rgb(0, 0, 0)" stroke="rgb(204, 204, 204)" stroke-width="1px"></line></g><g transform="translate(0, 8)"><text x="10.938311224640412" y="0" dx="0em" dy="0.95em" style="text-anchor: middle; visibility: inherit; font-family: Roboto, sans-serif; font-size: 12px; font-weight: 200;" fill="rgb(50, 49, 63)" stroke="none" stroke-width="1px">0</text><text x="50.16661474585536" y="0" dx="0em" dy="0.95em" style="text-anchor: middle; visibility: inherit; font-family: Roboto, sans-serif; font-size: 12px; font-weight: 200;" fill="rgb(50, 49, 63)" stroke="none" stroke-width="1px">200</text><text x="89.39491826707031" y="0" dx="0em" dy="0.95em" style="text-anchor: middle; visibility: inherit; font-family: Roboto, sans-serif; font-size: 12px; font-weight: 200;" fill="rgb(50, 49, 63)" stroke="none" stroke-width="1px">400</text><text x="128.62322178828526" y="0" dx="0em" dy="0.95em" style="text-anchor: middle; visibility: inherit; font-family: Roboto, sans-serif; font-size: 12px; font-weight: 200;" fill="rgb(50, 49, 63)" stroke="none" stroke-width="1px">600</text><text x="167.8515253095002" y="0" dx="0em" dy="0.95em" style="text-anchor: middle; visibility: inherit; font-family: Roboto, sans-serif; font-size: 12px; font-weight: 200;" fill="rgb(50, 49, 63)" stroke="none" stroke-width="1px">800</text><text x="207.07982883071512" y="0" dx="0em" dy="0.95em" style="text-anchor: middle; visibility: inherit; font-family: Roboto, sans-serif; font-size: 12px; font-weight: 200;" fill="rgb(50, 49, 63)" stroke="none" stroke-width="1px">1k</text><text x="246.30813235193008" y="0" dx="0em" dy="0.95em" style="text-anchor: middle; visibility: inherit; font-family: Roboto, sans-serif; font-size: 12px; font-weight: 200;" fill="rgb(50, 49, 63)" stroke="none" stroke-width="1px">1.2k</text><text x="285.536435873145" y="0" dx="0em" dy="0.95em" style="text-anchor: middle; visibility: inherit; font-family: Roboto, sans-serif; font-size: 12px; font-weight: 200;" fill="rgb(50, 49, 63)" stroke="none" stroke-width="1px">1.4k</text></g><line x1="0" y1="0" x2="300" y2="0" fill="rgb(0, 0, 0)" stroke="rgb(204, 204, 204)" stroke-width="1px"></line></g></g></g></g></svg>