<svg viewBox="0 0 330 200" xmlns="http://www.w3.org/2000/svg"><g><g><g><g><g><line x1="61.953125" y1="178" x2="56.953125" y2="178" style="visibility: inherit;" fill="rgb(0, 0, 0)" stroke="rgb(204, 204, 204)" stroke-width="1px"></line><line x1="61.953125" y1="158.2222222222222" x2="56.953125" y2="158.2222222222222" style="visibility: inherit;" fill="rgb(0, 0, 0)" stroke="rgb(204, 204, 204)" stroke-width="1px"></line><line x1="61.953125" y1="138.44444444444446" x2="56.953125" y2="138.44444444444446" style="visibility: inherit;" fill="rgb(0, 0, 0)" stroke="rgb(204, 204, 204)" stroke-width="1px"></line><line x1="61.953125" y1="118.66666666666669" x2="56.953125" y2="118.66666666666669" style="visibility: inherit;" fill="rgb(0, 0, 0)" stroke="rgb(204, 204, 204)" stroke-width="1px"></line><line x1="61.953125" y1="98.8888888888889" x2="56.953125" y2="98.8888888888889" style="visibility: inherit;" fill="rgb(0, 0, 0)" stroke="rgb(204, 204, 204)" stroke-width="1px"></line><line x1="61.953125" y1="79.11111111111113" x2="56.953125" y2="79.11111111111113" style="visibility: inherit;" fill="rgb(0, 0, 0)" stroke="rgb(204, 204, 204)" stroke-width="1px"></line><line x1="61.953125" y1="59.33333333333334" x2="56.953125" y2="59.33333333333334" style="visibility: inherit;" fill="rgb(0, 0, 0)" stroke="rgb(204, 204, 204)" stroke-width="1px"></line><line x1="61.953125" y1="39.55555555555557" x2="56.953125" y2="39.55555555555557" style="visibility: inherit;" fill="rgb(0, 0, 0)" stroke="rgb(204, 204, 204)" stroke-width="1px"></line><line x1="61.953125" y1="19.777777777777786" x2="56.953125" y2="19.777777777777786" style="visibility: inherit;" fill="rgb(0, 0, 0)" stroke="rgb(204, 204, 204)" stroke-width="1px"></line><line x1="61.953125" y1="0" x2="56.953125" y2="0" style="visibility: inherit;" fill="rgb(0, 0, 0)" stroke="rgb(204, 204, 204)" stroke-width="1px"></line></g><g transform="translate(51.953125, 0)"><text x="0" y="178" dx="0em" dy="0.3em" style="text-anchor: end; visibility: hidden; font-family: Roboto, sans-serif; font-size: 12px; font-weight: 200;" fill="rgb(50, 49, 63)" stroke="none" stroke-width="1px">-2e-3</text><text x="0" y="158.2222222222222" dx="0em" dy="0.3em" style="text-anchor: end; visibility: inherit; font-family: Roboto, sans-serif; font-size: 12px; font-weight: 200;" fill="rgb(50, 49, 63)" stroke="none" stroke-width="1px">0</text><text x="0" y="138.44444444444446" dx="0em" dy="0.3em" style="text-anchor: end; visibility: hidden; font-family: Roboto, sans-serif; font-size: 12px; font-weight: 200;" fill="rgb(50, 49, 63)" stroke="none" stroke-width="1px">2e-3</text><text x="0" y="118.66666666666669" dx="0em" dy="0.3em" style="text-anchor: end; visibility: inherit; font-family: Roboto, sans-serif; font-size: 12px; font-weight: 200;" fill="rgb(50, 49, 63)" stroke="none" stroke-width="1px">4e-3</text><text x="0" y="98.8888888888889" dx="0em" dy="0.3em" style="text-anchor: end; visibility: hidden; font-family: Roboto, sans-serif; font-size: 12px; font-weight: 200;" fill="rgb(50, 49, 63)" stroke="none" stroke-width="1px">6e-3</text><text x="0" y="79.11111111111113" dx="0em" dy="0.3em" style="text-anchor: end; visibility: inherit; font-family: Roboto, sans-serif; font-size: 12px; font-weight: 200;" fill="rgb(50, 49, 63)" stroke="none" stroke-width="1px">8e-3</text><text x="0" y="59.33333333333334" dx="0em" dy="0.3em" style="text-anchor: end; visibility: hidden; font-family: Roboto, sans-serif; font-size: 12px; font-weight: 200;" fill="rgb(50, 49, 63)" stroke="none" stroke-width="1px">0.01</text><text x="0" y="39.55555555555557" dx="0em" dy="0.3em" style="text-anchor: end; visibility: inherit; font-family: Roboto, sans-serif; font-size: 12px; font-weight: 200;" fill="rgb(50, 49, 63)" stroke="none" stroke-width="1px">0.012</text><text x="0" y="19.777777777777786" dx="0em" dy="0.3em" style="text-anchor: end; visibility: hidden; font-family: Roboto, sans-serif; font-size: 12px; font-weight: 200;" fill="rgb(50, 49, 63)" stroke="none" stroke-width="1px">0.014</text><text x="0" y="0" dx="0em" dy="0.3em" style="text-anchor: end; visibility: hidden; font-family: Roboto, sans-serif; font-size: 12px; font-weight: 200;" fill="rgb(50, 49, 63)" stroke="none" stroke-width="1px">0.016</text></g><line x1="61.953125" y1="0" x2="61.953125" y2="178" fill="rgb(0, 0, 0)" stroke="rgb(204, 204, 204)" stroke-width="1px"></line></g></g><g transform="translate(61, 0)" clip-path="url(#clip_0)"><clipPath id="clip_0"><rect width="268" height="178"></rect></clipPath><g><g><g><line x1="0" y1="0" x2="0" y2="178" fill="rgb(0, 0, 0)" stroke="rgb(60, 60, 60)" stroke-width="1px" opacity="0.25"></line><line x1="20.618990384615387" y1="0" x2="20.618990384615387" y2="178" fill="rgb(0, 0, 0)" stroke="rgb(60, 60, 60)" stroke-width="1px" opacity="0.25"></line><line x1="41.237980769230774" y1="0" x2="41.237980769230774" y2="178" fill="rgb(0, 0, 0)" stroke="rgb(60, 60, 60)" stroke-width="1px" opacity="0.25"></line><line x1="61.85697115384616" y1="0" x2="61.85697115384616" y2="178" fill="rgb(0, 0, 0)" stroke="rgb(60, 60, 60)" stroke-width="1px" opacity="0.25"></line><line x1="82.47596153846155" y1="0" x2="82.47596153846155" y2="178" fill="rgb(0, 0, 0)" stroke="rgb(60, 60, 60)" stroke-width="1px" opacity="0.25"></line><line x1="103.09495192307693" y1="0" x2="103.09495192307693" y2="178" fill="rgb(0, 0, 0)" stroke="rgb(60, 60, 60)" stroke-width="1px" opacity="0.25"></line><line x1="123.71394230769232" y1="0" x2="123.71394230769232" y2="178" fill="rgb(0, 0, 0)" stroke="rgb(60, 60, 60)" stroke-width="1px" opacity="0.25"></line><line x1="144.33293269230768" y1="0" x2="144.33293269230768" y2="178" fill="rgb(0, 0, 0)" stroke="rgb(60, 60, 60)" stroke-width="1px" opacity="0.25"></line><line x1="164.9519230769231" y1="0" x2="164.9519230769231" y2="178" fill="rgb(0, 0, 0)" stroke="rgb(60, 60, 60)" stroke-width="1px" opacity="0.25"></line><line x1="185.57091346153845" y1="0" x2="185.57091346153845" y2="178" fill="rgb(0, 0, 0)" stroke="rgb(60, 60, 60)" stroke-width="1px" opacity="0.25"></line><line x1="206.18990384615387" y1="0" x2="206.18990384615387" y2="178" fill="rgb(0, 0, 0)" stroke="rgb(60, 60, 60)" stroke-width="1px" opacity="0.25"></line><line x1="226.80889423076923" y1="0" x2="226.80889423076923" y2="178" fill="rgb(0, 0, 0)" stroke="rgb(60, 60, 60)" stroke-width="1px" opacity="0.25"></line><line x1="247.42788461538464" y1="0" x2="247.42788461538464" y2="178" fill="rgb(0, 0, 0)" stroke="rgb(60, 60, 60)" stroke-width="1px" opacity="0.25"></line><line x1="268.046875" y1="0" x2="268.046875" y2="178" fill="rgb(0, 0, 0)" stroke="rgb(60, 60, 60)" stroke-width="1px" opacity="0.25"></line></g><g><line x1="0" y1="178" x2="268.046875" y2="178" fill="rgb(0, 0, 0)" stroke="rgb(60, 60, 60)" stroke-width="1px" opacity="0.25"></line><line x1="0" y1="158.2222222222222" x2="268.046875" y2="158.2222222222222" fill="rgb(0, 0, 0)" stroke="rgb(60, 60, 60)" stroke-width="1px" opacity="0.25"></line><line x1="0" y1="138.44444444444446" x2="268.046875" y2="138.44444444444446" fill="rgb(0, 0, 0)" stroke="rgb(60, 60, 60)" stroke-width="1px" opacity="0.25"></line><line x1="0" y1="118.66666666666669" x2="268.046875" y2="118.66666666666669" fill="rgb(0, 0, 0)" stroke="rgb(60, 60, 60)" stroke-width="1px" opacity="0.25"></line><line x1="0" y1="98.8888888888889" x2="268.046875" y2="98.8888888888889" fill="rgb(0, 0, 0)" stroke="rgb(60, 60, 60)" stroke-width="1px" opacity="0.25"></line><line x1="0" y1="79.11111111111113" x2="268.046875" y2="79.11111111111113" fill="rgb(0, 0, 0)" stroke="rgb(60, 60, 60)" stroke-width="1px" opacity="0.25"></line><line x1="0" y1="59.33333333333334" x2="268.046875" y2="59.33333333333334" fill="rgb(0, 0, 0)" stroke="rgb(60, 60, 60)" stroke-width="1px" opacity="0.25"></line><line x1="0" y1="39.55555555555557" x2="268.046875" y2="39.55555555555557" fill="rgb(0, 0, 0)" stroke="rgb(60, 60, 60)" stroke-width="1px" opacity="0.25"></line><line x1="0" y1="19.777777777777786" x2="268.046875" y2="19.777777777777786" fill="rgb(0, 0, 0)" stroke="rgb(60, 60, 60)" stroke-width="1px" opacity="0.25"></line><line x1="0" y1="0" x2="268.046875" y2="0" fill="rgb(0, 0, 0)" stroke="rgb(60, 60, 60)" stroke-width="1px" opacity="0.25"></line></g></g></g><g><g><line x1="0" y1="158.2222222222222" x2="268.046875" y2="158.2222222222222" fill="rgb(0, 0, 0)" stroke="rgb(153, 153, 153)" stroke-width="1.5px"></line></g></g><g><g><line x1="20.618990384615387" y1="0" x2="20.618990384615387" y2="178" fill="rgb(0, 0, 0)" stroke="rgb(153, 153, 153)" stroke-width="1.5px"></line></g></g><g><g><g><g><g><path stroke="rgb(204, 51, 17)" stroke-width="2px" d="M21.13446514423077,158.2222222222222L21.237560096153846,158.2222222222222L21.649939903846153,158.2222222222222L21.753034855769233,158.2222222222222L21.959224759615385,158.2222222222222L22.06231971153846,158.2222222222222L22.165414663461537,158.2222222222222L22.47469951923077,158.2222222222222L22.577794471153847,158.2222222222222L22.680889423076923,158.2222222222222L23.09326923076923,158.2222222222222L24.02112379807692,158.2222222222222L24.12421875,158.2222222222222L24.330408653846153,158.2222222222222L24.742788461538463,158.2222222222222L24.948978365384615,158.2222222222222L25.155168269230767,158.2222222222222L25.258263221153847,158.2222222222222L25.464453125,158.2222222222222L25.670643028846154,158.2222222222222L25.773737980769234,158.2222222222222L26.08302283653846,158.2222222222222L26.186117788461537,158.2222222222222L26.289212740384617,158.2222222222222L26.392307692307693,158.2222222222222L26.49540264423077,158.2222222222222L26.907782451923076,158.2222222222222L27.11397235576923,158.2222222222222L27.320162259615383,158.2222222222222L27.423257211538463,158.2222222222222L27.52635216346154,158.2222222222222L27.629447115384615,158.2222222222222L27.938731971153846,158.2222222222222L28.041826923076922,158.2222222222222L28.144921874999998,158.2222222222222L28.248016826923077,158.2222222222222L28.763491586538464,158.2222222222222L29.278966346153844,158.2222222222222L29.382061298076923,158.2222222222222L29.48515625,158.2222222222222L29.58825120192308,158.2222222222222L29.691346153846155,158.2222222222222L29.79444110576923,158.2222222222222L30.309915865384614,158.2222222222222L31.13467548076923,158.2222222222222L31.44396033653846,158.2222222222222L31.54705528846154,158.2222222222222L32.268719951923075,158.2222222222222L32.57800480769231,158.2222222222222L32.78419471153846,158.2222222222222L32.88728966346154,158.2222222222222L33.402764423076924,158.2222222222222L33.505859375,158.2222222222222L33.608954326923076,158.2222222222222L33.91823918269231,158.2222222222222L34.02133413461538,158.2222222222222L34.74299879807692,158.2222222222222L34.94918870192308,158.2222222222222L35.15537860576923,158.2222222222222L35.25847355769231,158.2222222222222L35.36156850961538,158.2222222222222L35.464663461538464,158.2222222222222L36.08323317307692,157.82666667665924L36.392518028846155,157.98488889488442L36.59870793269231,157.68426668025657L36.80489783653846,157.50389335147986L36.90799278846154,157.7912248997768L37.01108774038461,157.96362382875498L37.32037259615385,158.06706318614187L37.62965745192308,157.73357125501101L37.83584735576923,157.9290316418955L37.93894230769231,158.04630787402618L38.24822716346154,157.32556252217864L38.76370192307692,156.49755967916576L38.866796875,156.39631360526238L38.96989182692308,156.73112150648333L39.17608173076923,156.83311732484958L39.48536658653846,156.5976481926727L39.69155649038461,156.85192225892953L39.79465144230769,155.81782006199467L40.00084134615384,156.77958092608569L40.20703125,156.96108189897734L40.31012620192308,157.0699824827123L41.031790865384615,157.1353228329533L41.85655048076923,156.38341586563055L41.95964543269231,156.67943223054144L42.06274038461538,155.71432604496184L42.47512019230769,156.717484515866L42.78440504807692,156.9238240528455L43.093689903846155,156.12466481619927L43.19678485576923,154.98590990689127L43.506069711538466,154.69821265077172L43.60916466346154,153.91028556194254L43.81535456730769,153.26172677999378L43.91844951923077,153.26814708516798L44.021544471153845,152.87644369392908L44.227734375000004,154.61919955968335L44.53701923076923,154.47818644244697L44.64011418269231,154.2177760434539L44.743209134615384,151.8639987715269L45.05249399038461,152.0339547057444L45.87725360576923,152.1359282662749L46.083443509615385,150.61489010521947L46.28963341346154,150.49337858751673L46.908203125,152.70590368594733L47.217487980769235,152.53909765439667L47.320582932692304,152.04345869136648L47.42367788461539,153.1964455993119L47.52677283653846,150.46008935635479L47.732962740384615,150.00494256385448L48.145342548076925,149.7318544883543L48.35153245192308,149.56800164305417L48.557722355769236,150.26080108456097L48.76391225961538,149.92932011781917L49.27938701923077,151.66425877732848L49.48557692307693,150.72744421643867L49.89795673076923,151.08831840995828L50.41343149038462,152.35965775261192L50.61962139423077,151.5402391759522L50.722716346153845,150.6530324556129L51.23819110576923,149.72515261882228L51.34128605769231,150.75064701412165L51.444381009615384,151.76149922564468L51.650570913461536,151.18134405977185L51.75366586538462,150.92115222457375L51.856760817307695,151.46824677757255L52.269140625,150.60983701658512L52.372235576923075,150.88590230867956L52.57842548076923,151.84265240237943L52.88771033653846,151.42781363786258L53.300090144230765,149.7944659840723L53.40318509615385,148.41890158721102L53.506280048076924,146.18714364085903L53.609375,147.83673070890046L53.81556490384615,149.61759386816854L54.12484975961539,149.89500084528615L54.22794471153846,148.47922250393935L54.33103966346154,149.21197802674862L54.64032451923077,148.06940881281685L54.74341947115385,145.0105342988844L54.949609374999994,146.73520952937224L55.56817908653846,149.74779242426033L55.774368990384616,148.39089745132384L56.083653846153844,147.3789830257557L56.18674879807693,146.96961181222107L56.39293870192308,149.49287810450434L56.496033653846155,148.23794885947027L57.011508413461534,147.1459437430822L57.11460336538462,147.62089939130385L57.32079326923077,146.32365094335037L57.52698317307693,145.94085721867808L57.630078125,149.66673649706544L57.73317307692308,148.73781969959398L58.04245793269231,148.5760249652109L58.45483774038462,148.08339278048126L58.76412259615385,147.7878134696435L58.86721754807693,147.61046588314082L59.073407451923075,150.6685016957431L59.485787259615385,150.12998996748743L59.58888221153846,148.2811684078925L59.69197716346154,147.90647884609024L59.89816706730769,147.68166510900886L60.001262019230765,146.75566571807317L60.413641826923076,147.38673257629844L60.51673677884616,146.9742615425467L60.61983173076923,148.39690271423868L60.82602163461539,149.16258615292824L60.929116586538456,147.07286047167378L61.03221153846154,144.41260529419858L61.135306490384615,143.21200753181324L62.063161057692305,142.88720467896914L62.16625600961539,145.065655952836L62.68173076923077,145.80764758837253L63.40339543269231,145.23569986159157L63.50649038461539,144.99141994642613L63.91887019230769,146.3281851133102L64.02196514423078,145.1524665719671L64.12506009615385,145.23814659584812L64.33125,144.49844346148984L64.53743990384615,146.03239922234846L64.94981971153847,144.18388388870315L65.87767427884616,145.84366347867643L65.98076923076924,146.04842008397353L66.08386418269231,144.98460755436508L66.18695913461538,143.49870111318097L66.49624399038461,143.45477617188956L66.80552884615385,144.61508769990138L67.11481370192307,144.7838674912421L67.83647836538462,147.39032059347375L67.93957331730769,146.9764143528519L68.04266826923076,146.03584864118233L68.14576322115384,146.95484233016393L68.351953125,142.7595721119189L68.45504807692308,144.42399728382227L68.76433293269231,142.03217577231354L68.86742788461538,142.97041677195617L68.97052283653846,143.53336137174176L69.38290264423077,142.28890583423936L69.48599759615384,143.9155654973113L69.89837740384615,143.70489480236773L70.6200420673077,145.1607146827754L70.92932692307693,145.63865080643288L71.032421875,146.22207956431131L71.23861177884615,144.80626344793234L71.44480168269232,142.65709127536664L71.75408653846154,144.43314384567157L72.88813100961539,144.8065529600708L73.19741586538461,145.72282085649408L73.3005108173077,146.76702565935096L73.40360576923077,146.8284694122815L73.60979567307692,145.45263715134988L73.81598557692308,142.25380480921757L73.91908052884615,139.9389495993511L74.1252704326923,139.34114716163083L74.6407451923077,140.67770400632403L74.74384014423077,140.91455898435635L75.36240985576923,137.55317980706064L75.5685997596154,142.52450039701117L75.67169471153846,142.58771594755225L75.77478966346153,140.93040697055153L75.87788461538462,139.37094291605473L75.9809795673077,137.41812085427927L76.08407451923077,137.26357124629138L76.18716947115385,138.13147595438207L76.29026442307692,139.57518170928995L76.39335937499999,139.12288642759415L76.49645432692309,138.85150925857664L76.70264423076922,139.12818950903784L77.01192908653846,140.04135806071682L77.11502403846154,139.40259223845027L77.21811899038461,137.83266625230365L77.42430889423078,137.28626646520274L77.83668870192308,136.9584265929422L78.04287860576923,140.71727795253298L78.24906850961538,141.29147775001056L78.66144831730769,142.5259979585744L78.76454326923077,141.77238882042093L78.86763822115385,134.5078773093648L79.28001802884616,137.4010225222796L79.69239783653846,134.65394724161496L79.79549278846154,136.17014574698916L80.10477764423078,134.0033217500354L80.31096754807692,130.50569643445377L80.4140625,132.69230713268655L80.51715745192307,133.2351373160944L80.62025240384617,131.36330450872973L80.72334735576923,130.89946419163118L80.8264423076923,130.52698022332268L81.03263221153847,133.69396553601376L81.13572716346154,134.01193442625467L81.65120192307693,134.65477980020574L81.754296875,133.53360873383707L81.96048677884616,130.88312799205505L82.06358173076923,129.9520989143061L82.16667668269231,128.2633232100895L82.47596153846155,130.57774696253617L82.68215144230768,129.1096109292745L83.09453125,124.14132270549108L83.30072115384614,123.92923764040691L83.5069110576923,131.05383872090485L83.61000600961538,130.84563696079013L83.71310096153846,136.25849348504212L84.0223858173077,126.25509669518459L84.434765625,120.84639094668886L84.53786057692308,116.81005588841724L84.74405048076923,121.50825565212342L85.05333533653845,128.2827307932942L85.46571514423077,129.8751941715202L85.98118990384614,129.34733862198522L86.7028545673077,123.75655219565111L86.80594951923077,129.63170871941082L87.01213942307693,131.46156478682855L87.115234375,129.73408140189935L87.21832932692308,127.50464659467498L87.32142427884615,129.5072323732518L87.42451923076922,130.7087838403979L87.52761418269232,117.32156628617572L87.73380408653846,116.87071663587648L87.83689903846154,117.58909589667734L88.24927884615384,118.02012345315784L88.35237379807691,120.65207389359404L88.76475360576923,124.37854604450037L89.07403846153846,128.30966718188228L89.28022836538462,127.08950369356191L89.3833233173077,128.86259082799688L89.48641826923077,126.76199851391037L89.795703125,128.79793996205987L89.89879807692309,125.5365415015615L90.00189302884615,124.10711047170342L90.10498798076922,119.95315593816177L90.20808293269232,117.8563381016493L90.41427283653846,115.35507359271026L90.51736778846154,114.30637708520425L90.62046274038461,118.42382607282188L90.82665264423078,119.31207316801871L90.92974759615385,120.74914858377531L91.03284254807691,120.48123557566204L91.13593750000001,122.12874116709655L91.23903245192308,126.01798555397157L91.34212740384615,123.07745724753438L91.5483173076923,122.44329944221383L91.65141225961538,126.47042408177514L92.37307692307692,121.37114410420479L92.68236177884616,120.28935237767433L92.78545673076923,118.84916757453097L92.8885516826923,117.19394508347082L93.09474158653846,111.84970050130057L93.4040264423077,116.27172498374443L93.61021634615385,118.35986008393986L93.81640625,118.48258196551535L94.2287860576923,114.60066073248811L94.64116586538461,118.8640998239254L94.74426081730769,121.04544416659022L94.95045072115384,114.55615483478473L95.05354567307693,115.541099448702L95.156640625,112.8357712224001L95.25973557692308,110.42146267744481L95.36283052884616,109.10472979232551L95.87830528846153,107.65543069393367L96.496875,105.467332500258L96.70306490384615,110.74706541530622L96.80615985576924,113.12379539711011L96.9092548076923,119.29649935733914L97.01234975961538,119.04456552955493L97.21853966346154,115.7289606381369L97.52782451923076,106.61959874656607L97.63091947115385,112.09768545138589L97.94020432692307,113.14305580958377L98.04329927884616,114.56138963367665L98.14639423076923,120.15905589927907L98.35258413461538,117.97987807831967L98.55877403846154,117.4634829949182L98.86805889423076,114.55428001842616L99.17734375,113.56219829887515L99.48662860576924,107.69287432858235L99.58972355769231,109.88486051586601L99.69281850961538,107.06869487712515L99.89900841346154,115.66343904534816L100.00210336538461,112.11806337121365L100.1051983173077,113.94639417065457L100.31138822115385,117.812280519505L100.41448317307693,120.79107169613553L100.517578125,108.07464216301696L101.03305288461539,104.40034064706745L101.44543269230769,108.52464892699268L101.54852764423076,110.60367901133534L101.75471754807693,108.55480022533955L101.96090745192308,106.6662135864218L102.16709735576924,112.78491372261962L102.27019230769231,111.18205978675067L102.37328725961538,108.638124206881L102.47638221153846,111.06731906288084L102.57947716346153,108.56927977255913L102.68257211538462,104.69712321279273L102.88876201923077,103.95605249528118L103.09495192307693,100.34696547002677L103.30114182692307,101.74151273323415L103.6104266826923,102.9737959747711L103.81661658653846,99.75761155772074L103.91971153846153,103.36567848781132L104.02280649038462,99.59718433998326L104.43518629807693,104.06053192439389L104.64137620192308,106.7385404750403L104.74447115384615,109.53201394016389L104.95066105769232,106.59328244799613L105.25994591346154,102.38136563951319L105.67232572115384,105.9288199878672L105.98161057692307,108.65062492229842L106.29089543269231,108.04222713923767L106.39399038461539,105.96311485114818L106.60018028846153,107.74823983118806L106.8063701923077,106.18227734993091L107.01256009615385,105.24269986117662L107.52803485576922,98.08636153667044L107.73422475961539,101.57181686600701L107.83731971153846,97.33420087411398L107.94041466346154,104.28496506322062L108.04350961538461,108.71912806039238L108.35279447115384,103.99592057631853L108.9713641826923,103.53533091339666L109.17755408653846,101.01749452997498L109.28064903846153,104.12160827116388L109.38374399038462,99.39148284267449L109.4868389423077,103.93711102600864L109.58993389423077,99.94004386290163L110.00231370192309,100.17884103431851L110.20850360576922,101.6406380718092L110.3115985576923,103.83623502894412L110.72397836538461,103.43951958497203L110.82707331730768,100.82815549106633L110.93016826923078,98.73392990925653L111.03326322115385,100.37813651315948L111.34254807692308,103.7379934610746L111.44564302884616,106.41316699714392L111.54873798076923,100.2390109527961L111.75492788461538,106.81896271960407L112.06421274038462,99.69137677709807L112.27040264423077,96.99704842994275L112.37349759615385,96.43526567258237L112.57968749999999,97.41671475280667L112.68278245192309,94.05002799701964L112.99206730769231,98.62260961675011L113.30135216346154,100.31134433765563L113.40444711538461,106.86236275051976L114.12611177884617,103.67297299956911L114.22920673076923,105.05563598560009L114.3323016826923,104.1711601589656L114.43539663461539,104.31856980172014L114.53849158653847,97.53188350099653L114.64158653846154,96.09690734789437L114.74468149038462,95.6314783815947L114.95087139423076,99.57147984749514L115.05396634615386,100.61696199239488L115.15706129807693,103.22202938129556L115.46634615384616,105.44432918195623L115.56944110576923,100.84437475647019L115.67253605769231,96.76588336653799L115.77563100961538,93.6595291652584L115.98182091346155,97.33349606676062L116.600390625,95.58232000374028L116.70348557692307,98.48717056984972L117.0127704326923,103.92193262972927L117.73443509615386,102.5679742944151L118.04371995192308,99.51411854950712L118.76538461538462,100.95926432579965L118.86847956730769,91.23111432786247L118.97157451923077,91.65718647669364L119.17776442307692,93.41970805673166L119.280859375,91.65182397937464L119.38395432692307,92.56887163492122L119.69323918269231,84.8124329367934L119.79633413461538,90.44301511133328L120.00252403846153,92.23914303965805L120.2087139423077,96.59427901989021L120.31180889423077,90.39212380447132L120.72418870192308,88.25305205161925L120.82728365384615,89.68198955484893L121.03347355769232,92.04623034752608L121.23966346153846,95.57440516694706L121.34275841346154,99.53723591870659L121.44585336538462,92.94900771098625L121.54894831730769,94.53384836667486L121.85823317307691,99.44030896400969L121.96132812500001,106.3397415263322L122.06442307692308,97.4260678011232L122.37370793269231,95.04452887698997L122.47680288461538,91.96745894615843L123.3015625,97.56142774233217L123.61084735576922,97.3013003854824L123.71394230769232,94.64003874394535L123.92013221153846,94.36180049366364L124.12632211538461,95.51337627813517L124.2294170673077,91.58950801952527L124.53870192307691,85.01592821867905L124.64179687500001,87.17463658678847L124.84798677884615,95.15663413793173L124.95108173076923,93.48509123726879L125.0541766826923,85.75771958181446L125.15727163461538,84.4175952670923L125.4665564903846,83.61352067825901L126.29131610576923,87.08663028693157L126.49750600961539,83.89642111357293L126.70369591346154,85.14674204625435L126.9098858173077,74.03026599409827L127.01298076923078,80.01815874179458L127.11607572115385,78.99607881917046L127.322265625,81.01987017682617L127.52845552884615,88.95858906452713L127.63155048076923,87.3929312076527L127.7346454326923,78.99448812549132L128.04393028846155,82.33743449525922L128.2501201923077,88.16690443723864L128.97178485576924,85.20384497107744L129.0748798076923,85.40378923529063L129.38416466346155,89.21560751403246L129.59035456730768,89.92047526292924L130.20892427884615,85.59672809917151L130.31201923076924,86.29877847946736L130.51820913461538,82.10519129445387L130.72439903846154,76.29274583074259L131.13677884615385,85.33120284770281L131.34296875,83.50242401735595L131.54915865384615,83.72367729573747L131.75534855769232,78.71420656605808L131.96153846153848,91.53074526003878L132.2708233173077,84.18955711186392L132.37391826923076,75.56558721922781L132.47701322115384,84.89490768079393L132.58010817307692,82.58138754989037L133.1986778846154,76.67264244107933L133.30177283653845,71.05543841675704L133.92034254807692,70.32215347144476L134.12653245192308,71.4644020387075L134.33272235576925,77.6875306013351L134.4358173076923,79.04807475333828L134.5389122596154,83.0288439973386L135.46676682692308,84.7580480183676L135.67295673076924,84.08149497078284L135.98224158653846,82.75259929120395L136.29152644230768,79.71378298168625L136.39462139423077,80.26382618154898L136.6008112980769,71.23237055907803L136.70390625,69.86323224659193L136.8070012019231,76.8586809679196L137.1162860576923,73.8040990021423L137.21938100961538,80.44753905686645L137.42557091346154,78.5944476408933L137.52866586538462,79.59222497707322L137.63176081730768,88.89311355384947L137.94104567307693,86.56253429207197L138.044140625,82.79085374943212L138.25033052884615,82.1100686421965L139.07509014423076,82.22900470332152L139.17818509615387,87.90406912026977L139.28128004807692,84.38688441357586L139.384375,80.29879548759868L139.69365985576923,77.45038724839985L139.7967548076923,86.02578769829718L139.8998497596154,89.58880659183639L140.2091346153846,85.39772689651583L140.31222956730767,82.88307907932348L140.41532451923078,87.70318142045214L141.9617487980769,82.28857369172445L142.27103365384616,78.38055337106576L142.4772235576923,78.67277496405347L142.58031850961538,75.68366516704768L142.78650841346155,73.09908952161913L142.88960336538463,76.29501010550871L143.19888822115382,79.68176736180276L143.50817307692307,81.43128330240555L143.61126802884615,81.29432637398055L143.71436298076924,75.67437279465562L143.8174579326923,79.42240144572982L144.02364783653846,78.50677404162683L144.22983774038462,78.18343054004283L144.43602764423076,84.09228068770962L144.64221754807693,82.89092480516301L144.7453125,82.17011127563504L144.95150240384615,82.26503028338465L145.15769230769232,74.6745719219498L145.36388221153845,75.13066735994332L145.46697716346154,68.02062118231166L145.57007211538462,76.41237185472262L145.67316706730767,84.61186685291668L145.77626201923078,77.32584951264968L146.80721153846153,74.8755098962054L146.91030649038464,73.40530612633884L147.21959134615383,71.73207409719384L147.63197115384617,66.7725786757852L147.73506610576922,74.08132497440755L147.8381610576923,71.57260489578962L148.04435096153844,76.28324556767495L148.3536358173077,79.10962997080617L148.6629206730769,83.06577712781932L148.86911057692308,76.86909733076187L149.07530048076922,70.84367982495733L149.1783954326923,71.51361705100548L149.38458533653846,72.17928018644395L149.79696514423077,67.04090232933527L149.90006009615385,63.95787561507005L150.00315504807693,57.49324401526904L150.20934495192307,67.7226125689237L150.31243990384615,62.784678540474836L150.4155348557692,69.3152500656989L150.6217247596154,73.23359298083335L150.72481971153846,73.60682062795317L150.82791466346154,71.19372343084216L150.9310096153846,70.40512447989583L151.03410456730768,66.76751867263147L151.1371995192308,68.4086609922897L151.65267427884615,63.19630759449443L151.75576923076923,60.06889555581727L151.9619591346154,65.70800217294354L152.3743389423077,61.575912302886735L152.47743389423078,69.38110377426925L152.68362379807692,62.39532748714014L153.09600360576923,71.45497426122051L153.3021935096154,76.89076232566873L153.50838341346156,69.86779161287012L153.7145733173077,66.44511895241605L153.81766826923078,68.87448052748071L153.92076322115383,73.76024470902566L154.02385817307692,70.95614635387643L154.23004807692308,58.39590962195148L154.5393329326923,59.56198975786486L154.64242788461536,61.05274760663791L154.84861778846155,61.15609254867672L154.9517127403846,63.25238493010573L155.0548076923077,68.01365436502732L155.26099759615383,78.66851012143556L155.67337740384616,76.47221602870198L155.87956730769233,79.10999577698348L155.98266225961538,73.17710978561979L156.18885216346155,68.29885945616105L156.2919471153846,64.71264989116554L156.60123197115385,65.85722098876958L156.70432692307693,66.21433212172279L157.21980168269232,53.968597864311L157.32289663461538,54.136714834094676L157.42599158653846,57.79758265237582L157.7352764423077,73.4429933315086L157.94146634615385,75.71023894031914L158.04456129807693,72.12614289265252L158.14765624999998,75.71124212812873L158.25075120192307,72.32452224714454L158.35384615384618,67.12804756575562L158.45694110576923,62.69164402228173L158.76622596153845,65.96313620207985L159.0755108173077,68.0578819098635L159.28170072115384,58.63472905750454L159.5909855769231,62.07861440477003L159.69408052884614,61.77161262755597L159.79717548076923,62.77407989596329L159.9002704326923,73.2644470829136L160.3126502403846,77.58089113507206L160.72503004807695,76.61075808800713L160.93121995192308,69.69978907027318L161.03431490384614,67.92654064520616L161.44669471153847,64.92876239354065L161.54978966346152,61.89947820247006L161.85907451923077,62.45524067340105L162.168359375,66.48055356007171L162.58073918269233,72.19203444477729L162.68383413461538,63.75225804773392L162.78692908653846,63.30320778074979L163.0962139423077,60.924145434795555L163.30240384615385,57.65078400906513L163.40549879807693,63.86158036127974L163.61168870192307,77.08139195685096L163.71478365384615,73.37264508525568L163.81787860576924,74.08581045811728L164.02406850961538,72.79963606358118L164.12716346153846,66.09459712097707L164.4364483173077,62.598979038931915L164.9519230769231,59.597483793989944L166.1890625,57.514046391902035L166.2921574519231,67.47139135314484L166.39525240384614,69.75394476772757L166.49834735576923,68.22273854738653L166.91072716346153,67.3040148151819L167.22001201923075,71.03796462149184L167.32310697115386,74.2672217143091L167.529296875,65.8214436976288L167.63239182692308,68.76397617441792L167.73548677884614,58.39912624891692L167.83858173076925,54.252173252652L168.25096153846152,62.87722815836464L168.3540564903846,69.37077983643279L168.45715144230772,60.74098654808667L168.66334134615386,54.640146724050986L168.7664362980769,60.47297845582115L168.86953125,68.71934346602991L169.07572115384616,74.45827223938022L169.2819110576923,62.079408371602064L169.90048076923077,67.57356922973469L170.1066706730769,60.32191955138807L170.6221454326923,57.28944847902065L170.72524038461538,63.64477904325304L171.65309495192307,71.80909031127574L171.75618990384615,55.941010685398936L172.16856971153848,54.66090315942717L172.890234375,53.233579276523834L173.3026141826923,55.673481783383224L173.4057091346154,65.04853201144392L173.7149939903846,60.12541595505417L173.81808894230767,66.13747297999637L174.12737379807692,67.37137420938838L174.33356370192305,66.13393684506273L174.43665865384617,62.6225828733833L174.53975360576925,65.26244014542053L175.26141826923077,56.56190911522623L175.36451322115386,63.20825542497638L175.4676081730769,67.591618094439L175.570703125,68.24386127805394L175.77689302884616,71.79964994102129L175.87998798076924,69.18645716765502L175.9830829326923,67.61854150363527L176.08617788461538,57.97556993015509L176.18927283653844,57.529785282632446L176.29236778846155,63.78898112542012L176.39546274038463,65.39719858639718L176.91093750000002,65.34498635488055L177.11712740384615,66.89588223431886L177.63260216346154,65.84864166002104L177.73569711538462,67.19807541740317L177.83879206730768,62.4699562495625L178.04498197115385,61.2153079672064L178.7666466346154,51.76029682272443L178.97283653846154,48.196918637900836L179.48831129807692,49.82608653288045L179.59140625,56.00231912277053L180.0037860576923,60.49916844392962L180.20997596153845,56.86838884713011L180.31307091346153,55.87658942378615L180.5192608173077,54.29261887685027L180.62235576923078,56.96816491089934L180.82854567307692,52.376453741738565L180.931640625,61.48809565200702L181.55021033653844,65.24100717991503L181.65330528846155,64.19645726005845L181.7564002403846,55.922319384009015L182.27187500000002,58.60524458251484L182.37496995192308,54.94092476305619L183.30282451923077,52.74233287138098L183.40591947115385,62.49873289701754L183.71520432692307,58.59553648639832L183.9213942307692,58.89065610930789L184.1275841346154,61.44106086862698L184.33377403846154,56.642414534723464L184.84924879807693,64.97063229492778L184.95234374999998,57.630000053911274L185.15853365384615,62.26689045373731L185.26162860576923,61.75272785703154L185.4678185096154,63.15830391726117L185.67400841346154,66.90239150638779L185.7771033653846,63.87476912130158L185.98329326923078,58.10263948632822L186.08638822115384,55.29862107266448L186.49876802884617,56.912506861067584L186.60186298076923,47.59639294069283L186.8080528846154,58.62005917137957L186.91114783653845,63.65203569144335L187.01424278846156,63.24307436697545L187.1173377403846,52.28473377431483L187.42662259615383,56.68639401650792L187.52971754807692,55.76739252541282L187.6328125,55.21599163075577L188.0451923076923,50.9295948900399L188.25138221153847,50.99479431489148L188.35447716346155,55.912430340853895L188.4575721153846,66.18079203885584L188.66376201923077,63.44180944078241L188.86995192307694,58.831750887048045L189.07614182692308,55.73608791309637L189.28233173076922,57.174986965326724L189.38542668269233,54.08277019274332L189.48852163461538,52.22744012919324L189.69471153846155,43.20312968321995L189.7978064903846,52.81965478019926L189.90090144230768,50.810311514346544L190.00399639423077,59.75729686444859L190.10709134615385,54.313637397575874L190.21018629807693,59.48595940881283L190.41637620192307,56.952686314331046L190.51947115384615,51.97161170018506L190.82875600961538,53.59778250293941L190.93185096153846,59.05644647203094L191.1380408653846,48.289424381852065L191.2411358173077,52.04772947925988L191.55042067307693,53.37974868667653L191.65351562499998,61.29895916784657L191.75661057692307,58.53493161621603L191.85970552884618,53.580218248636356L192.16899038461537,55.09035171552747L192.5813701923077,62.06162018534758L192.78756009615384,55.31951227791772L192.89065504807692,56.26578221689927L192.99375,60.45946885860059L193.30303485576923,54.471236110359335L193.4061298076923,61.690150822246686L193.61231971153848,56.791868506895284L194.02469951923075,64.92845427832611L194.12779447115383,56.75707247858213L194.23088942307695,65.69868642856326L194.333984375,73.70069410978213L194.54017427884614,68.74486045056324L194.95255408653847,68.93580669172849L195.05564903846152,61.13926202858436L195.2618389423077,57.779853965338425L195.36493389423077,52.86346717440203L195.46802884615386,47.540302114266844L195.57112379807694,57.0041814571757L195.77731370192308,60.902508402766465L196.08659855769233,50.781503632937216L196.18969350961538,56.575569382804574L196.29278846153846,53.72311964323003L196.39588341346152,53.33016853412583L196.80826322115385,43.8647667261795L196.91135817307693,36.207747539450885L197.42683293269232,48.62242549393785L197.63302283653846,46.57790032433663L197.7361177884615,39.02229603308093L197.83921274038462,43.19115563339583L198.2515925480769,52.812470350304814L198.56087740384615,49.48748212176934L198.76706730769232,50.129526653929155L199.07635216346154,48.53697527126421L199.17944711538462,50.482186394654086L199.2825420673077,51.762327697177845L199.38563701923076,46.879618427932336L199.48873197115384,42.367769648036735L199.694921875,45.19843980236932L199.90111177884614,51.64350786611555L200.2103966346154,49.1816595148683L200.31349158653848,49.286773722468254L200.5196814903846,50.668360981668755L200.6227764423077,54.79361017379042L200.72587139423075,58.98283330731651L201.03515625,57.80451546721826L201.24134615384614,57.09752476315931L201.34444110576925,56.409625857016195L201.4475360576923,53.623553527756975L201.5506310096154,54.9185754411936L202.2722956730769,54.706701380224246L202.375390625,48.64624263776018L202.68467548076924,52.12996634900177L203.20015024038463,51.84686759017338L203.6125300480769,54.84145477157295L203.8187199519231,48.7270946725694L204.23109975961538,51.38736780266226L204.3341947115385,50.61019869514462L204.54038461538462,46.97945079393744L204.95276442307693,44.0098922859881L205.055859375,49.48001022174151L205.15895432692307,51.839117132165526L205.36514423076923,53.25458127841993L205.4682391826923,50.41200804595867L205.5713341346154,47.76466448403893L205.98371394230767,53.18324267511732L206.18990384615387,52.67661082764896L206.39609375,53.644062867220164L206.60228365384614,54.337548719452705L206.70537860576923,48.424751041297256L206.9115685096154,51.99707139112402L207.32394831730767,28.23157451762137L207.53013822115386,41.46338869526677L207.63323317307692,47.82025398350574L207.94251802884617,51.1069678729318L208.2518028846154,50.44195873730636L208.6641826923077,49.47787274568566L208.87037259615386,42.34450270423863L209.28275240384616,45.97558940331549L209.69513221153844,53.01392570629631L209.79822716346155,52.377243204550126L209.90132211538463,42.30412431940274L210.31370192307693,45.95136237241397L210.41679687500002,48.930818655343955L210.51989182692307,51.50960219232699L210.72608173076924,44.35465013944848L210.8291766826923,40.852788674946424L210.9322716346154,35.38945160164052L211.13846153846154,39.03367087257076L211.24155649038462,49.52686972658471L211.55084134615385,47.516121747537284L211.65393629807693,39.58522888700133L211.86012620192307,31.002987366662886L212.06631610576923,29.149939291061198L212.16941105769232,39.24551969014482L212.2725060096154,51.23620223547743L212.99417067307692,53.15653682411483L213.20036057692306,50.08947688966787L213.30345552884617,37.96479553558308L213.92202524038464,46.512211538818775L214.0251201923077,42.59939139632423L214.12821514423078,42.964079865768454L214.23131009615383,44.76511616578329L214.33440504807692,44.65906961105641L214.54059495192308,48.55099788214195L214.8498798076923,52.07281949563084L215.57154447115383,39.15480109916087L215.6746394230769,38.52399270189709L215.77773437500002,46.847729838607165L216.2932091346154,37.60197052329494L216.70558894230768,40.756737109175944L217.01487379807693,52.934042454121155L217.11796875000002,54.834500322621324L217.4272536057692,58.2162539454918L217.53034855769232,48.7741960749599L217.6334435096154,52.99785186244484L217.73653846153846,42.67648951413958L217.83963341346154,49.9984872932729L218.1489182692308,45.82131418558937L218.25201322115385,38.56834434983255L218.35510817307693,35.007672215603534L218.45820312499998,40.78238134290938L218.87058293269232,44.906466186613166L218.9736778846154,42.76610152159354L219.07677283653845,44.64632915927833L219.3860576923077,44.587797407153445L219.59224759615384,53.12305013104206L219.79843749999998,49.27827510659914L220.00462740384617,34.84104068035895L220.10772235576923,39.10017920341434L220.2108173076923,48.775661273967614L220.41700721153845,48.25206501070278L220.52010216346156,51.89345977276732L221.03557692307692,51.70496364443273L221.24176682692308,45.26297677793699L221.34486177884617,46.93556408030946L221.5510516826923,45.56578347615963L221.86033653846155,49.09502620120386L222.16962139423077,46.5977562649885L222.27271634615383,39.03420959747204L222.47890625,45.17608187399131L222.68509615384616,46.88342713794205L222.78819110576922,47.116724529087456L222.89128605769233,52.79447870214643L223.3036658653846,41.96113329254174L223.40676081730768,44.16334822184725L223.61295072115385,37.04615580417179L223.819140625,38.04991529212871L224.33461538461538,39.4432807521279L224.7469951923077,45.02596968317229L224.85009014423076,50.748916027372275L224.95318509615385,44.68934820770071L225.05628004807693,33.029480479564675L226.29341947115384,43.55102250520771L226.499609375,43.64807315958835L226.70579927884614,45.96662190930028L226.9119891826923,50.324416470119566L227.01508413461536,39.424278018494626L227.3243689903846,37.894565402374134L227.4274639423077,46.47007345889339L227.53055889423075,36.584266928241625L227.63365384615383,37.772781966570605L227.73674879807695,48.770336382984624L227.83984375,49.83108961056308L227.94293870192308,52.31346924916622L228.14912860576922,42.59548778788344L228.25222355769233,35.84173874398396L228.3553185096154,38.118374823241076L228.56150841346152,33.94658073242359L229.07698317307694,35.20128304004847L229.38626802884613,36.942991633654714L229.59245793269233,41.152463226515046L229.69555288461538,31.284072286949026L229.90174278846152,34.59266518179504L230.21102764423077,49.23559929769262L230.5203125,57.88950936732637L230.72650240384615,49.89666806270118L230.93269230769232,41.804666443324706L231.03578725961538,38.927243573659645L231.13888221153846,44.45264289238361L231.34507211538462,39.52714223406366L231.4481670673077,43.49406335398547L231.7574519230769,45.21495665861827L231.9636418269231,36.35860213159386L232.06673677884615,41.59293929250359L232.89149639423076,39.98687561790274L232.99459134615384,37.83656907840645L233.20078125,43.044799970836564L233.7162560096154,41.649101792127574L234.23173076923075,31.2053326302208L234.33482572115386,42.45653379560139L234.43792067307692,42.08725185421152L234.64411057692308,35.14123861627008L234.74720552884614,41.65363095053437L234.9533954326923,48.066253420469266L235.15958533653847,47.035306847480555L235.46887019230772,43.2522961508889L235.57196514423077,38.9482043167282L235.98434495192308,44.728923821932476L236.49981971153846,42.65957610278512L236.70600961538463,49.98833924646026L237.3245793269231,51.353004779771716L237.42767427884615,45.645137468457314L237.53076923076924,37.275969984817564L237.6338641826923,40.16558190247699L237.73695913461538,37.284533481830735L238.04624399038462,46.10405430656733L238.25243389423076,44.14391376088632L238.56171875,34.39745765831415L238.66481370192307,37.25180617183917L238.9740985576923,38.17330551272914L239.18028846153848,44.0002800558253L239.38647836538462,43.01349961034585L239.48957331730767,49.54143398367642L239.59266826923076,44.88782283251121L240.00504807692306,56.5993585389599L240.4174278846154,49.78183693300157L240.52052283653848,48.32836143870767L240.62361778846153,51.939237629570265L241.03599759615386,54.23761742789078L241.13909254807692,61.54997961276557L241.34528245192305,56.04850641388634L241.44837740384617,52.61577209465403L241.6545673076923,49.65200342350158L241.7576622596154,38.6912023488128L241.86075721153844,21.63249886877664L242.06694711538464,33.746164543844586L242.1700420673077,44.77214271100072L242.27313701923077,40.3121744506527L242.37623197115386,45.9428607858997L242.68551682692308,35.476825873322184L242.89170673076924,38.69054055196723L242.9948016826923,39.03654614080597L243.61337139423077,30.673777718945676L243.71646634615382,39.87728249175278L243.81956129807693,42.12192429025065L244.23194110576924,49.797598558844356L244.4381310096154,49.65633714885389L244.64432091346154,41.660467895016325L245.05670072115385,42.79628064859624L245.15979567307693,39.522212096822564L245.262890625,39.53554906771916L245.7783653846154,32.9509575770544L246.08765024038462,30.84613038471157L246.29384014423078,27.209901083732543L246.50003004807692,40.05927486770844L246.603125,34.91334331729774" style="fill: none;" fill="none"></path></g></g></g></g><g opacity="0.2"><g><g><g><path stroke="rgb(204, 51, 17)" stroke-width="2px" d="M21.13446514423077,158.2222222222222L21.237560096153846,158.2222222222222L21.649939903846153,158.2222222222222L21.753034855769233,158.2222222222222L21.959224759615385,158.2222222222222L22.06231971153846,158.2222222222222L22.165414663461537,158.2222222222222L22.47469951923077,158.2222222222222L22.577794471153847,158.2222222222222L22.680889423076923,158.2222222222222L23.09326923076923,158.2222222222222L24.02112379807692,158.2222222222222L24.12421875,158.2222222222222L24.330408653846153,158.2222222222222L24.742788461538463,158.2222222222222L24.948978365384615,158.2222222222222L25.155168269230767,158.2222222222222L25.258263221153847,158.2222222222222L25.464453125,158.2222222222222L25.670643028846154,158.2222222222222L25.773737980769234,158.2222222222222L26.08302283653846,158.2222222222222L26.186117788461537,158.2222222222222L26.289212740384617,158.2222222222222L26.392307692307693,158.2222222222222L26.49540264423077,158.2222222222222L26.907782451923076,158.2222222222222L27.11397235576923,158.2222222222222L27.320162259615383,158.2222222222222L27.423257211538463,158.2222222222222L27.52635216346154,158.2222222222222L27.629447115384615,158.2222222222222L27.938731971153846,158.2222222222222L28.041826923076922,158.2222222222222L28.144921874999998,158.2222222222222L28.248016826923077,158.2222222222222L28.763491586538464,158.2222222222222L29.278966346153844,158.2222222222222L29.382061298076923,158.2222222222222L29.48515625,158.2222222222222L29.58825120192308,158.2222222222222L29.691346153846155,158.2222222222222L29.79444110576923,158.2222222222222L30.309915865384614,158.2222222222222L31.13467548076923,158.2222222222222L31.44396033653846,158.2222222222222L31.54705528846154,158.2222222222222L32.268719951923075,158.2222222222222L32.57800480769231,158.2222222222222L32.78419471153846,158.2222222222222L32.88728966346154,158.2222222222222L33.402764423076924,158.2222222222222L33.505859375,158.2222222222222L33.608954326923076,158.2222222222222L33.91823918269231,158.2222222222222L34.02133413461538,158.2222222222222L34.74299879807692,158.2222222222222L34.94918870192308,158.2222222222222L35.15537860576923,158.2222222222222L35.25847355769231,158.2222222222222L35.36156850961538,158.2222222222222L35.464663461538464,158.2222222222222L36.08323317307692,157.23333335831478L36.392518028846155,158.2222222222222L36.59870793269231,157.23333335831478L36.80489783653846,157.23333335831478L36.90799278846154,158.2222222222222L37.01108774038461,158.2222222222222L37.32037259615385,158.2222222222222L37.62965745192308,157.23333335831478L37.83584735576923,158.2222222222222L37.93894230769231,158.2222222222222L38.24822716346154,156.24444449440733L38.76370192307692,155.25555541464644L38.866796875,156.24444449440733L38.96989182692308,157.23333335831478L39.17608173076923,156.986111052399L39.48536658653846,156.24444449440733L39.69155649038461,157.23333335831478L39.79465144230769,154.2666667665924L40.00084134615384,158.2222222222222L40.20703125,157.23333335831478L40.31012620192308,157.23333335831478L41.031790865384615,157.23333335831478L41.85655048076923,155.25555541464644L41.95964543269231,157.12345677790776L42.06274038461538,154.2666667665924L42.47512019230769,158.2222222222222L42.78440504807692,157.23333335831478L43.093689903846155,154.92592596122995L43.19678485576923,153.27777754292927L43.506069711538466,154.2666667665924L43.60916466346154,152.72839492869875L43.81535456730769,152.28888860707067L43.91844951923077,153.27777754292927L44.021544471153845,152.28888860707067L44.227734375000004,157.23333335831478L44.53701923076923,154.2666667665924L44.64011418269231,153.82716044496436L44.743209134615384,148.33333286363631L45.05249399038461,152.28888860707067L45.87725360576923,152.28888860707067L46.083443509615385,148.33333286363631L46.28963341346154,150.3111113109626L46.908203125,156.0246913335933L47.217487980769235,152.28888860707067L47.320582932692304,151.30000024682116L47.42367788461539,154.92592596122995L47.52677283653846,146.35555499191912L47.732962740384615,149.32222237510402L48.145342548076925,149.32222237510402L48.35153245192308,149.32222237510402L48.557722355769236,151.30000024682116L48.76391225961538,149.43209866770647L49.27938701923077,154.2666667665924L49.48557692307693,149.32222237510402L49.89795673076923,151.6296297002377L50.41343149038462,154.2666667665924L50.61962139423077,150.3111113109626L50.722716346153845,149.32222237510402L51.23819110576923,148.33333286363631L51.34128605769231,152.28888860707067L51.444381009615384,153.27777754292927L51.650570913461536,150.3111113109626L51.75366586538462,150.5308644717766L51.856760817307695,152.28888860707067L52.269140625,149.32222237510402L52.372235576923075,151.30000024682116L52.57842548076923,153.27777754292927L52.88771033653846,150.80555549108735L53.300090144230765,147.34444450338682L53.40318509615385,146.35555499191912L53.506280048076924,142.83950672133102L53.609375,150.3111113109626L53.81556490384615,152.28888860707067L54.12484975961539,150.3111113109626L54.22794471153846,146.35555499191912L54.33103966346154,150.3111113109626L54.64032451923077,146.35555499191912L54.74341947115385,140.42222252798578L54.949609374999994,149.32222237510402L55.56817908653846,154.2666667665924L55.774368990384616,146.35555499191912L56.083653846153844,145.8611113874035L56.18674879807693,146.35555499191912L56.39293870192308,153.27777754292927L56.496033653846155,146.35555499191912L57.011508413461534,145.5079360685001L57.11460336538462,148.33333286363631L57.32079326923077,144.3777782714201L57.52698317307693,145.36666663166963L57.630078125,155.25555541464644L57.73317307692308,147.34444450338682L58.04245793269231,148.33333286363631L58.45483774038462,147.34444450338682L58.76412259615385,147.34444450338682L58.86721754807693,147.34444450338682L59.073407451923075,155.25555541464644L59.485787259615385,149.32222237510402L59.58888221153846,145.5079360685001L59.69197716346154,147.34444450338682L59.89816706730769,147.34444450338682L60.001262019230765,145.36666663166963L60.413641826923076,148.33333286363631L60.51673677884616,146.35555499191912L60.61983173076923,150.5308644717766L60.82602163461539,150.3111113109626L60.929116586538456,143.9382719497921L61.03221153846154,140.42222252798578L61.135306490384615,141.41111088823527L62.063161057692305,142.40000039970298L62.16625600961539,148.33333286363631L62.68173076923077,146.9206350416773L63.40339543269231,144.3777782714201L63.50649038461539,144.62500007367797L63.91887019230769,148.33333286363631L64.02196514423078,143.38888875995247L64.12506009615385,145.36666663166963L64.33125,143.38888875995247L64.53743990384615,148.33333286363631L64.94981971153847,141.41111088823527L65.87767427884616,148.33333286363631L65.98076923076924,146.35555499191912L66.08386418269231,143.38888875995247L66.18695913461538,141.26984145140483L66.49624399038461,143.38888875995247L66.80552884615385,146.35555499191912L67.11481370192307,145.03703717825314L67.83647836538462,151.30000024682116L67.93957331730769,146.35555499191912L68.04266826923076,144.62500007367797L68.14576322115384,148.33333286363631L68.351953125,136.46666678455142L68.45504807692308,146.9206350416773L68.76433293269231,138.44444350505043L68.86742788461538,144.3777782714201L68.97052283653846,144.3777782714201L69.38290264423077,140.42222252798578L69.48599759615384,146.35555499191912L69.89837740384615,143.38888875995247L70.6200420673077,147.34444450338682L70.92932692307693,146.35555499191912L71.032421875,147.097222701129L71.23861177884615,142.68253927336386L71.44480168269232,139.43333301651808L71.75408653846154,147.097222701129L72.88813100961539,145.36666663166963L73.19741586538461,147.097222701129L73.3005108173077,148.33333286363631L73.40360576923077,146.9206350416773L73.60979567307692,143.38888875995247L73.81598557692308,137.4555562960191L73.91908052884615,136.46666678455142L74.1252704326923,138.44444350505043L74.6407451923077,142.68253927336386L74.74384014423077,141.26984145140483L75.36240985576923,132.51111104111706L75.5685997596154,149.981481281937L75.67169471153846,142.68253927336386L75.77478966346153,138.44444350505043L75.87788461538462,137.0317468343096L75.9809795673077,134.48888776161604L76.08407451923077,137.0317468343096L76.18716947115385,139.43333301651808L76.29026442307692,141.74074034165176L76.39335937499999,138.44444350505043L76.49645432692309,138.44444350505043L76.70264423076922,139.54320988472966L77.01192908653846,141.41111088823527L77.11502403846154,138.44444350505043L77.21811899038461,135.47777727308375L77.42430889423078,136.46666678455142L77.83668870192308,136.46666678455142L78.04287860576923,146.35555499191912L78.24906850961538,142.15277744622696L78.66144831730769,144.3777782714201L78.76454326923077,140.6419751131907L78.86763822115385,123.61111004278064L79.28001802884616,141.74074034165176L79.69239783653846,130.53333432061802L79.79549278846154,138.44444350505043L80.10477764423078,130.75308575460483L80.31096754807692,125.25925846108133L80.4140625,135.97222318003577L80.51715745192307,134.04938259120615L80.62025240384617,128.5555552976827L80.72334735576923,130.20370371598338L80.8264423076923,129.9682542708599L81.03263221153847,138.44444350505043L81.13572716346154,134.48888776161604L81.65120192307693,135.61904786113234L81.754296875,131.85185213428406L81.96048677884616,126.90740687938201L82.06358173076923,128.5555552976827L82.16667668269231,125.73015965376463L82.47596153846155,134.04938259120615L82.68215144230768,126.90740687938201L83.09453125,116.68889036981597L83.30072115384614,123.61111004278064L83.5069110576923,141.74074034165176L83.61000600961538,130.53333432061802L83.71310096153846,144.3777782714201L84.0223858173077,111.25000151039826L84.434765625,112.73333232394522L84.53786057692308,110.75555330100988L84.74405048076923,128.5555552976827L85.05333533653845,138.44444350505043L85.46571514423077,132.26388923885924L85.98118990384614,128.5555552976827L86.7028545673077,115.37037255614996L86.80594951923077,138.44444350505043L87.01213942307693,134.20634888795516L87.115234375,127.14285632450547L87.21832932692308,124.16049438383844L87.32142427884615,132.51111104111706L87.42451923076922,132.51111104111706L87.52761418269232,97.24073995484247L87.73380408653846,116.19444216042757L87.83689903846154,118.6666647878786L88.24927884615384,118.6666647878786L88.35237379807691,124.59999955424833L88.76475360576923,129.9682542708599L89.07403846153846,134.20634888795516L89.28022836538462,125.25925846108133L89.3833233173077,131.52222152964939L89.48641826923077,123.61111004278064L89.795703125,131.85185213428406L89.89879807692309,120.64444381081397L90.00189302884615,121.96296392691633L90.10498798076922,113.72222413784927L90.20808293269232,114.71111134688061L90.41427283653846,111.60317682930166L90.51736778846154,112.73333232394522L90.62046274038461,124.59999955424833L90.82665264423078,120.64444381081397L90.92974759615385,122.90476170741022L91.03284254807691,120.07936606349217L91.13593750000001,124.59999955424833L91.23903245192308,131.85185213428406L91.34212740384615,118.6666647878786L91.5483173076923,121.49206273423302L91.65141225961538,132.51111104111706L92.37307692307692,113.72222413784927L92.68236177884616,118.6666647878786L92.78545673076923,116.68889036981597L92.8885516826923,114.71111134688061L93.09474158653846,103.8333336280452L93.4040264423077,122.90476170741022L93.61021634615385,121.49206273423302L93.81640625,118.6666647878786L94.2287860576923,108.77777888294726L94.64116586538461,125.25925846108133L94.74426081730769,124.31746068058742L94.95045072115384,104.82222083707651L95.05354567307693,117.01851636957791L95.156640625,108.77777888294726L95.25973557692308,106.79999986001188L95.36283052884616,107.12963046464657L95.87830528846153,105.48148204634589L96.496875,102.18518520974452L96.70306490384615,118.6666647878786L96.80615985576924,116.68889036981597L96.9092548076923,128.5555552976827L97.01234975961538,118.6666647878786L97.21853966346154,110.75555330100988L97.52782451923076,92.95555590920979L97.63091947115385,120.31481550861564L97.94020432692307,114.71111134688061L98.04329927884616,116.68889036981597L98.14639423076923,128.5555552976827L98.35258413461538,114.71111134688061L98.55877403846154,116.68889036981597L98.86805889423076,110.1904755536881L99.17734375,112.0740757195486L99.48662860576924,98.88888837314313L99.58972355769231,113.1728397967915L99.69281850961538,102.84444641901388L99.89900841346154,128.5555552976827L100.00210336538461,106.79999986001188L100.1051983173077,116.68889036981597L100.31138822115385,123.61111004278064L100.41448317307693,125.25925846108133L100.517578125,88.99999786333906L101.03305288461539,98.88888837314313L101.44543269230769,114.71111134688061L101.54852764423076,113.72222413784927L101.75471754807693,105.48148204634589L101.96090745192308,103.8333336280452L102.16709735576924,121.96296392691633L102.27019230769231,108.77777888294726L102.37328725961538,104.82222083707651L102.47638221153846,114.71111134688061L102.57947716346153,104.82222083707651L102.68257211538462,98.88888837314313L102.88876201923077,102.84444641901388L103.09495192307693,94.93333493214517L103.30114182692307,103.8333336280452L103.6104266826923,104.82222083707651L103.81661658653846,94.93333493214517L103.91971153846153,108.77777888294726L104.02280649038462,93.94444311824113L104.43518629807693,110.75555330100988L104.64137620192308,110.75555330100988L104.74447115384615,113.72222413784927L104.95066105769232,102.18518520974452L105.25994591346154,96.06349042678875L105.67232572115384,111.25000151039826L105.98161057692307,112.73333232394522L106.29089543269231,107.12963046464657L106.39399038461539,102.84444641901388L106.60018028846153,110.42592730124792L106.8063701923077,103.8333336280452L107.01256009615385,103.8333336280452L107.52803485576922,87.35185404991111L107.73422475961539,106.79999986001188L107.83731971153846,90.97777688627443L107.94041466346154,114.71111134688061L108.04350961538461,115.37037255614996L108.35279447115384,96.9111093502078L108.9713641826923,102.84444641901388L109.17755408653846,97.24073995484247L109.28064903846153,108.77777888294726L109.38374399038462,92.29629469994043L109.4868389423077,110.75555330100988L109.58993389423077,93.94444311824113L110.00231370192309,100.53703679144382L110.20850360576922,103.8333336280452L110.3115985576923,107.12963046464657L110.72397836538461,102.84444641901388L110.82707331730768,96.9111093502078L110.93016826923078,95.59259153654179L111.03326322115385,102.84444641901388L111.34254807692308,108.77777888294726L111.44564302884616,110.42592730124792L111.54873798076923,90.97777688627443L111.75492788461538,116.68889036981597L112.06421274038462,88.99999786333906L112.27040264423077,92.95555590920979L112.37349759615385,95.59259153654179L112.57968749999999,98.88888837314313L112.68278245192309,88.99999786333906L112.99206730769231,105.48148204634589L113.30135216346154,102.84444641901388L113.40444711538461,116.68889036981597L114.12611177884617,98.88888837314313L114.22920673076923,107.12963046464657L114.3323016826923,102.84444641901388L114.43539663461539,104.53968426585197L114.53849158653847,87.35185404991111L114.64158653846154,93.94444311824113L114.74468149038462,94.93333493214517L114.95087139423076,105.48148204634589L115.05396634615386,102.18518520974452L115.15706129807693,107.12963046464657L115.46634615384616,108.77777888294726L115.56944110576923,93.94444311824113L115.67253605769231,90.64814628163975L115.77563100961538,88.99999786333906L115.98182091346155,102.84444641901388L116.600390625,92.95555590920979L116.70348557692307,102.84444641901388L117.0127704326923,112.0740757195486L117.73443509615386,100.53703679144382L118.04371995192308,94.93333493214517L118.76538461538462,103.12698299023842L118.86847956730769,76.63888933095669L118.97157451923077,92.29629469994043L119.17776442307692,96.06349042678875L119.280859375,88.99999786333906L119.38395432692307,93.94444311824113L119.69323918269231,73.17777488960161L119.79633413461538,98.88888837314313L120.00252403846153,94.93333493214517L120.2087139423077,103.12698299023842L120.31180889423077,81.08889098134306L120.72418870192308,85.04444442234107L120.82728365384615,91.82539580969348L121.03347355769232,95.59259153654179L121.23966346153846,100.86666739607853L121.34275841346154,105.48148204634589L121.44585336538462,83.06666539940571L121.54894831730769,96.9111093502078L121.85823317307691,106.79999986001188L121.96132812500001,116.68889036981597L122.06442307692308,84.05555721330975L122.37370793269231,91.47222049079006L122.47680288461538,87.35185404991111L123.3015625,105.95238093659282L123.61084735576922,96.9111093502078L123.71394230769232,90.64814628163975L123.92013221153846,93.94444311824113L124.12632211538461,97.24073995484247L124.2294170673077,85.70370563161042L124.53870192307691,75.1555585174097L124.64179687500001,90.41269913895263L124.84798677884615,107.12963046464657L124.95108173076923,90.97777688627443L125.0541766826923,74.16666209863293L125.15727163461538,82.40740879500908L125.4665564903846,82.40740879500908L126.29131610576923,92.29629469994043L126.49750600961539,79.11110735353496L126.70369591346154,87.02222344527644L126.9098858173077,57.35555191586416L127.01298076923078,88.99999786333906L127.11607572115385,77.4629589352343L127.322265625,84.05555721330975L127.52845552884615,100.86666739607853L127.63155048076923,85.04444442234107L127.7346454326923,66.3968235022492L128.04393028846155,87.35185404991111L128.2501201923077,96.9111093502078L128.97178485576924,80.75925577183565L129.0748798076923,85.70370563161042L129.38416466346155,94.93333493214517L129.59035456730768,90.97777688627443L130.20892427884615,79.11110735353496L130.31201923076924,87.35185404991111L130.51820913461538,75.81481051693362L130.72439903846154,67.57407763517567L131.13677884615385,98.88888837314313L131.34296875,80.75925577183565L131.54915865384615,84.05555721330975L131.75534855769232,71.20000047153898L131.96153846153848,110.75555330100988L132.2708233173077,73.17777488960161L132.37391826923076,62.62963238027363L132.47701322115384,98.88888837314313L132.58010817307692,79.11110735353496L133.1986778846154,67.80952477786278L133.30177283653845,62.62963238027363L133.92034254807692,69.22222605347635L134.12653245192308,73.17777488960161L134.33272235576925,87.02222344527644L134.4358173076923,81.08889098134306L134.5389122596154,88.99999786333906L135.46676682692308,87.35185404991111L135.67295673076924,83.06666539940571L135.98224158653846,80.75925577183565L136.29152644230768,75.1555585174097L136.39462139423077,81.08889098134306L136.6008112980769,57.68518712537157L136.70390625,67.80952477786278L136.8070012019231,87.35185404991111L137.1162860576923,69.22222605347635L137.21938100961538,90.41269913895263L137.42557091346154,75.81481051693362L137.52866586538462,81.08889098134306L137.63176081730768,102.84444641901388L137.94104567307693,83.06666539940571L138.044140625,77.13333293547234L138.25033052884615,81.08889098134306L139.07509014423076,82.40740879500908L139.17818509615387,96.41666574569213L139.28128004807692,79.11110735353496L139.384375,74.16666209863293L139.69365985576923,73.17777488960161L139.7967548076923,98.88888837314313L139.8998497596154,94.93333493214517L140.2091346153846,79.11110735353496L140.31222956730767,79.11110735353496L140.41532451923078,94.93333493214517L141.9617487980769,74.16666209863293L142.27103365384616,72.5185228900777L142.4772235576923,79.11110735353496L142.58031850961538,71.20000047153898L142.78650841346155,69.22222605347635L142.88960336538463,81.08889098134306L143.19888822115382,84.7619032462438L143.50817307692307,84.05555721330975L143.61126802884615,81.08889098134306L143.71436298076924,67.24444242566825L143.8174579326923,85.04444442234107L144.02364783653846,77.13333293547234L144.22983774038462,77.69841528766686L144.43602764423076,92.95555590920979L144.64221754807693,81.08889098134306L144.7453125,81.08889098134306L144.95150240384615,82.40740879500908L145.15769230769232,63.288884379797516L145.36388221153845,75.81481051693362L145.46697716346154,57.35555191586416L145.57007211538462,88.99999786333906L145.67316706730767,96.9111093502078L145.77626201923078,66.3968235022492L146.80721153846153,71.20000047153898L146.91030649038464,71.20000047153898L147.21959134615383,69.22222605347635L147.63197115384617,59.333335543672256L147.73506610576922,85.04444442234107L147.8381610576923,67.80952477786278L148.04435096153844,83.34920657550296L148.3536358173077,83.34920657550296L148.6629206730769,88.99999786333906L148.86911057692308,67.57407763517567L149.07530048076922,61.80555356625055L149.1783954326923,72.5185228900777L149.38458533653846,73.17777488960161L149.79696514423077,59.333335543672256L149.90006009615385,59.333335543672256L150.00315504807693,47.79629661556749L150.20934495192307,83.06666539940571L150.31243990384615,55.37777749780153L150.4155348557692,79.11110735353496L150.6217247596154,79.11110735353496L150.72481971153846,74.16666209863293L150.82791466346154,67.57407763517567L150.9310096153846,69.22222605347635L151.03410456730768,61.311109961734886L151.1371995192308,70.87037447177703L151.65267427884615,55.37777749780153L151.75576923076923,55.37777749780153L151.9619591346154,74.16666209863293L152.3743389423077,55.37777749780153L152.47743389423078,81.08889098134306L152.68362379807692,51.91666305644646L153.09600360576923,85.04444442234107L153.3021935096154,85.04444442234107L153.50838341346156,59.333335543672256L153.7145733173077,61.311109961734886L153.81766826923078,72.5185228900777L153.92076322115383,81.08889098134306L154.02385817307692,66.74999882115259L154.23004807692308,39.555554524064085L154.5393329326923,61.311109961734886L154.64242788461536,63.288884379797516L154.84861778846155,61.311109961734886L154.9517127403846,66.3968235022492L155.0548076923077,75.1555585174097L155.26099759615383,94.6507937560479L155.67337740384616,73.17777488960161L155.87956730769233,83.06666539940571L155.98266225961538,64.2777807985743L156.18885216346155,60.98148396197294L156.2919471153846,59.333335543672256L156.60123197115385,67.57407763517567L156.70432692307693,66.74999882115259L157.21980168269232,35.59999647819336L157.32289663461538,54.38889028877022L157.42599158653846,63.288884379797516L157.7352764423077,96.9111093502078L157.94146634615385,79.11110735353496L158.04456129807693,66.74999882115259L158.14765624999998,81.08889098134306L158.25075120192307,67.24444242566825L158.35384615384618,59.333335543672256L158.45694110576923,56.037038707070884L158.76622596153845,70.87037447177703L159.0755108173077,71.20000047153898L159.28170072115384,44.49999977896612L159.5909855769231,67.24444242566825L159.69408052884614,61.311109961734886L159.79717548076923,64.2777807985743L159.9002704326923,88.99999786333906L160.3126502403846,84.05555721330975L160.72503004807695,75.1555585174097L160.93121995192308,59.333335543672256L161.03431490384614,65.26666800760562L161.44669471153847,60.4320950160424L161.54978966346152,57.35555191586416L161.85907451923077,63.288884379797516L162.168359375,72.5185228900777L162.58073918269233,80.75925577183565L162.68383413461538,51.09259345216885L162.78692908653846,62.62963238027363L163.0962139423077,57.35555191586416L163.30240384615385,52.740741870469535L163.40549879807693,73.17777488960161L163.61168870192307,96.9111093502078L163.71478365384615,67.80952477786278L163.81787860576924,75.1555585174097L164.02406850961538,70.87037447177703L164.12716346153846,56.037038707070884L164.4364483173077,57.35555191586416L164.9519230769231,55.095240926577L166.1890625,54.38889028877022L166.2921574519231,82.40740879500908L166.39525240384614,73.17777488960161L166.49834735576923,65.92592921687498L166.91072716346153,65.92592921687498L167.22001201923075,76.63888933095669L167.32310697115386,79.11110735353496L167.529296875,53.15277667260834L167.63239182692308,73.17777488960161L167.73548677884614,42.851851360665435L167.83858173076925,48.031743758254606L168.25096153846152,75.81481051693362L168.3540564903846,79.11110735353496L168.45715144230772,47.79629661556749L168.66334134615386,45.48888698799744L168.7664362980769,69.22222605347635L168.86953125,81.08889098134306L169.07572115384616,83.06666539940571L169.2819110576923,43.51111256993481L169.90048076923077,75.81481051693362L170.1066706730769,49.44444503386816L170.6221454326923,52.740741870469535L170.72524038461538,73.17777488960161L171.65309495192307,84.05555721330975L171.75618990384615,32.138891246583746L172.16856971153848,52.740741870469535L172.890234375,51.09259345216885L173.3026141826923,59.333335543672256L173.4057091346154,79.11110735353496L173.7149939903846,52.740741870469535L173.81808894230767,75.1555585174097L174.12737379807692,69.22222605347635L174.33356370192305,64.2777807985743L174.43665865384617,57.35555191586416L174.53975360576925,69.22222605347635L175.26141826923077,43.51111256993481L175.36451322115386,73.17777488960161L175.4676081730769,74.16666209863293L175.570703125,69.22222605347635L175.77689302884616,77.13333293547234L175.87998798076924,65.26666800760562L175.9830829326923,65.26666800760562L176.08617788461538,43.51111256993481L176.18927283653844,56.861108311348495L176.29236778846155,73.17777488960161L176.39546274038463,67.80952477786278L176.91093750000002,65.26666800760562L177.11712740384615,69.22222605347635L177.63260216346154,64.2777807985743L177.73569711538462,69.22222605347635L177.83879206730768,55.37777749780153L178.04498197115385,59.333335543672256L178.7666466346154,37.577780106001455L178.97283653846154,42.851851360665435L179.48831129807692,52.26983837534985L179.59140625,65.26666800760562L180.0037860576923,67.24444242566825L180.20997596153845,51.42221945193081L180.31307091346153,54.38889028877022L180.5192608173077,51.91666305644646L180.62235576923078,60.98148396197294L180.82854567307692,45.48888698799744L180.931640625,75.1555585174097L181.55021033653844,70.87037447177703L181.65330528846155,62.62963238027363L181.7564002403846,43.51111256993481L182.27187500000002,62.62963238027363L182.37496995192308,49.44444503386816L183.30282451923077,49.44444503386816L183.40591947115385,77.13333293547234L183.71520432692307,52.740741870469535L183.9213942307692,59.333335543672256L184.1275841346154,65.26666800760562L184.33377403846154,49.44444503386816L184.84924879807693,77.4629589352343L184.95234374999998,46.61905169238648L185.15853365384615,69.22222605347635L185.26162860576923,60.98148396197294L185.4678185096154,65.26666800760562L185.67400841346154,72.5185228900777L185.7771033653846,59.333335543672256L185.98329326923078,49.44444503386816L186.08638822115384,51.09259345216885L186.49876802884617,59.333335543672256L186.60186298076923,33.62222206013071L186.8080528846154,75.1555585174097L186.91114783653845,71.20000047153898L187.01424278846156,62.62963238027363L187.1173377403846,35.84722288532391L187.42662259615383,63.288884379797516L187.52971754807692,54.38889028877022L187.6328125,54.38889028877022L188.0451923076923,44.49999977896612L188.25138221153847,51.09259345216885L188.35447716346155,63.288884379797516L188.4575721153846,81.58333458585872L188.66376201923077,59.333335543672256L188.86995192307694,51.91666305644646L189.07614182692308,51.09259345216885L189.28233173076922,59.333335543672256L189.38542668269233,49.44444503386816L189.48852163461538,49.44444503386816L189.69471153846155,29.666664014259986L189.7978064903846,67.24444242566825L189.90090144230768,47.79629661556749L190.00399639423077,73.17777488960161L190.10709134615385,46.148148197266806L190.21018629807693,67.24444242566825L190.41637620192307,53.15277667260834L190.51947115384615,44.49999977896612L190.82875600961538,56.037038707070884L190.93185096153846,67.24444242566825L191.1380408653846,32.138891246583746L191.2411358173077,57.68518712537157L191.55042067307693,55.37777749780153L191.65351562499998,73.17777488960161L191.75661057692307,54.38889028877022L191.85970552884618,46.148148197266806L192.16899038461537,57.35555191586416L192.5813701923077,72.5185228900777L192.78756009615384,45.20635041677292L192.89065504807692,57.68518712537157L192.99375,66.74999882115259L193.30303485576923,45.48888698799744L193.4061298076923,72.5185228900777L193.61231971153848,49.44444503386816L194.02469951923075,77.13333293547234L194.12779447115383,44.49999977896612L194.23088942307695,79.11110735353496L194.333984375,85.70370563161042L194.54017427884614,61.311109961734886L194.95255408653847,69.22222605347635L195.05564903846152,49.44444503386816L195.2618389423077,52.740741870469535L195.36493389423077,45.48888698799744L195.46802884615386,39.555554524064085L195.57112379807694,71.20000047153898L195.77731370192308,66.74999882115259L196.08659855769233,35.59999647819336L196.18969350961538,65.26666800760562L196.29278846153846,49.44444503386816L196.39588341346152,52.740741870469535L196.80826322115385,29.666664014259986L196.91135817307693,24.72221875935795L197.42683293269232,67.24444242566825L197.63302283653846,43.51111256993481L197.7361177884615,27.688889596197356L197.83921274038462,49.44444503386816L198.2515925480769,67.24444242566825L198.56087740384615,44.49999977896612L198.76706730769232,51.09259345216885L199.07635216346154,46.148148197266806L199.17944711538462,53.4000030797389L199.2825420673077,53.68253965096342L199.38563701923076,39.555554524064085L199.48873197115384,35.59999647819336L199.694921875,49.44444503386816L199.90111177884614,61.311109961734886L200.2103966346154,45.48888698799744L200.31349158653848,49.44444503386816L200.5196814903846,52.740741870469535L200.6227764423077,60.98148396197294L200.72587139423075,65.26666800760562L201.03515625,56.037038707070884L201.24134615384614,56.037038707070884L201.34444110576925,55.37777749780153L201.4475360576923,49.44444503386816L201.5506310096154,56.861108311348495L202.2722956730769,54.38889028877022L202.375390625,39.555554524064085L202.68467548076924,57.35555191586416L203.20015024038463,51.42221945193081L203.6125300480769,59.333335543672256L203.8187199519231,39.555554524064085L204.23109975961538,55.37777749780153L204.3341947115385,49.44444503386816L204.54038461538462,41.533328942126715L204.95276442307693,39.555554524064085L205.055859375,57.68518712537157L205.15895432692307,55.37777749780153L205.36514423076923,55.37777749780153L205.4682391826923,46.148148197266806L205.5713341346154,43.79364914115934L205.98371394230767,61.311109961734886L206.18990384615387,51.91666305644646L206.39609375,55.095240926577L206.60228365384614,55.37777749780153L206.70537860576923,39.555554524064085L206.9115685096154,57.35555191586416L207.32394831730767,-7.416670792632637L207.53013822115386,61.311109961734886L207.63323317307692,57.35555191586416L207.94251802884617,56.037038707070884L208.2518028846154,49.44444503386816L208.6641826923077,48.031743758254606L208.87037259615386,31.64444764206808L209.28275240384616,51.42221945193081L209.69513221153844,63.57143016076752L209.79822716346155,51.42221945193081L209.90132211538463,27.19444599168169L210.31370192307693,51.42221945193081L210.41679687500002,53.4000030797389L210.51989182692307,55.37777749780153L210.72608173076924,33.62222206013071L210.8291766826923,35.59999647819336L210.9322716346154,27.19444599168169L211.13846153846154,44.49999977896612L211.24155649038462,65.26666800760562L211.55084134615385,44.49999977896612L211.65393629807693,27.688889596197356L211.86012620192307,18.129625086155205L212.06631610576923,26.370367177658636L212.16941105769232,54.38889028877022L212.2725060096154,69.22222605347635L212.99417067307692,56.037038707070884L213.20036057692306,45.48888698799744L213.30345552884617,19.77777350445589L213.92202524038464,59.333335543672256L214.0251201923077,36.7301611825824L214.12821514423078,43.51111256993481L214.23131009615383,47.46667061580553L214.33440504807692,44.49999977896612L214.54059495192308,54.38889028877022L214.8498798076923,57.35555191586416L215.57154447115383,19.77777350445589L215.6746394230769,37.577780106001455L215.77773437500002,59.333335543672256L216.2932091346154,23.733331550326636L216.70558894230768,45.48888698799744L217.01487379807693,71.20000047153898L217.11796875000002,57.68518712537157L217.4272536057692,63.288884379797516L217.53034855769232,34.61110926916203L217.6334435096154,59.333335543672256L217.73653846153846,27.19444599168169L217.83963341346154,60.98148396197294L218.1489182692308,39.555554524064085L218.25201322115385,27.688889596197356L218.35510817307693,29.666664014259986L218.45820312499998,49.44444503386816L218.87058293269232,51.09259345216885L218.9736778846154,39.555554524064085L219.07677283653845,47.46667061580553L219.3860576923077,44.49999977896612L219.59224759615384,65.92592921687498L219.79843749999998,43.51111256993481L220.00462740384617,13.185189040998612L220.10772235576923,45.48888698799744L220.2108173076923,63.288884379797516L220.41700721153845,47.46667061580553L220.52010216346156,57.35555191586416L221.03557692307692,51.42221945193081L221.24176682692308,35.59999647819336L221.34486177884617,49.44444503386816L221.5510516826923,43.51111256993481L221.86033653846155,54.38889028877022L222.16962139423077,42.851851360665435L222.27271634615383,27.688889596197356L222.47890625,54.38889028877022L222.68509615384616,49.44444503386816L222.78819110576922,47.46667061580553L222.89128605769233,61.311109961734886L223.3036658653846,25.71111517813473L223.40676081730768,47.46667061580553L223.61295072115385,26.370367177658636L223.819140625,39.555554524064085L224.33461538461538,41.533328942126715L224.7469951923077,53.4000030797389L224.85009014423076,59.333335543672256L224.95318509615385,35.59999647819336L225.05628004807693,15.53967888736063L226.29341947115384,59.333335543672256L226.499609375,43.79364914115934L226.70579927884614,49.44444503386816L226.9119891826923,56.861108311348495L227.01508413461536,23.074070341057244L227.3243689903846,35.59999647819336L227.4274639423077,59.333335543672256L227.53055889423075,21.755557132263984L227.63365384615383,39.555554524064085L227.73674879807695,65.26666800760562L227.83984375,51.42221945193081L227.94293870192308,56.037038707070884L228.14912860576922,28.0185155959593L228.25222355769233,25.71111517813473L228.3553185096154,41.533328942126715L228.56150841346152,27.688889596197356L229.07698317307694,37.08333650148579L229.38626802884613,39.555554524064085L229.59245793269233,47.46667061580553L229.69555288461538,16.481485877599983L229.90174278846152,39.555554524064085L230.21102764423077,71.20000047153898L230.5203125,70.87037447177703L230.72650240384615,37.9074061057634L230.93269230769232,29.666664014259986L231.03578725961538,34.61110926916203L231.13888221153846,52.740741870469535L231.34507211538462,32.138891246583746L231.4481670673077,49.44444503386816L231.7574519230769,47.79629661556749L231.9636418269231,23.074070341057244L232.06673677884615,49.44444503386816L232.89149639423076,37.577780106001455L232.99459134615384,34.61110926916203L233.20078125,50.857146309481735L233.7162560096154,39.555554524064085L234.23173076923075,15.53967888736063L234.33482572115386,59.333335543672256L234.43792067307692,41.533328942126715L234.64411057692308,24.72221875935795L234.74720552884614,51.42221945193081L234.9533954326923,57.68518712537157L235.15958533653847,45.48888698799744L235.46887019230772,37.577780106001455L235.57196514423077,32.492066565487136L235.98434495192308,53.4000030797389L236.49981971153846,39.555554524064085L236.70600961538463,60.98148396197294L237.3245793269231,53.4000030797389L237.42767427884615,37.08333650148579L237.53076923076924,24.72221875935795L237.6338641826923,44.49999977896612L237.73695913461538,32.96296085086136L238.04624399038462,59.333335543672256L238.25243389423076,41.20370294236477L238.56171875,19.77777350445589L238.66481370192307,41.533328942126715L238.9740985576923,39.555554524064085L239.18028846153848,52.740741870469535L239.38647836538462,41.533328942126715L239.48957331730767,59.333335543672256L239.59266826923076,37.9074061057634L240.00504807692306,74.16666209863293L240.4174278846154,39.555554524064085L240.52052283653848,46.148148197266806L240.62361778846153,57.35555191586416L241.03599759615386,57.68518712537157L241.13909254807692,72.5185228900777L241.34528245192305,47.79629661556749L241.44837740384617,47.46667061580553L241.6545673076923,45.20635041677292L241.7576622596154,22.250000736779633L241.86075721153844,-3.9555563512775413L242.06694711538464,51.91666305644646L242.1700420673077,61.311109961734886L242.27313701923077,33.62222206013071L242.37623197115386,54.38889028877022L242.68551682692308,19.77777350445589L242.89170673076924,43.51111256993481L242.9948016826923,39.555554524064085L243.61337139423077,18.129625086155205L243.71646634615382,53.68253965096342L243.81956129807693,45.48888698799744L244.23194110576924,61.311109961734886L244.4381310096154,49.44444503386816L244.64432091346154,29.666664014259986L245.05670072115385,44.49999977896612L245.15979567307693,34.61110926916203L245.262890625,39.555554524064085L245.7783653846154,23.074070341057244L246.08765024038462,27.688889596197356L246.29384014423078,21.755557132263984L246.50003004807692,59.333335543672256L246.603125,27.19444599168169" style="fill: none;" fill="none"></path></g></g></g></g></g></g><g transform="translate(61, 178)" clip-path="url(#clip_1)"><clipPath id="clip_1"><rect width="268" height="22"></rect></clipPath><g><g><line x1="0" y1="0" x2="0" y2="5" style="visibility: inherit;" fill="rgb(0, 0, 0)" stroke="rgb(204, 204, 204)" stroke-width="1px"></line><line x1="20.618990384615387" y1="0" x2="20.618990384615387" y2="5" style="visibility: inherit;" fill="rgb(0, 0, 0)" stroke="rgb(204, 204, 204)" stroke-width="1px"></line><line x1="41.237980769230774" y1="0" x2="41.237980769230774" y2="5" style="visibility: inherit;" fill="rgb(0, 0, 0)" stroke="rgb(204, 204, 204)" stroke-width="1px"></line><line x1="61.85697115384616" y1="0" x2="61.85697115384616" y2="5" style="visibility: inherit;" fill="rgb(0, 0, 0)" stroke="rgb(204, 204, 204)" stroke-width="1px"></line><line x1="82.47596153846155" y1="0" x2="82.47596153846155" y2="5" style="visibility: inherit;" fill="rgb(0, 0, 0)" stroke="rgb(204, 204, 204)" stroke-width="1px"></line><line x1="103.09495192307693" y1="0" x2="103.09495192307693" y2="5" style="visibility: inherit;" fill="rgb(0, 0, 0)" stroke="rgb(204, 204, 204)" stroke-width="1px"></line><line x1="123.71394230769232" y1="0" x2="123.71394230769232" y2="5" style="visibility: inherit;" fill="rgb(0, 0, 0)" stroke="rgb(204, 204, 204)" stroke-width="1px"></line><line x1="144.33293269230768" y1="0" x2="144.33293269230768" y2="5" style="visibility: inherit;" fill="rgb(0, 0, 0)" stroke="rgb(204, 204, 204)" stroke-width="1px"></line><line x1="164.9519230769231" y1="0" x2="164.9519230769231" y2="5" style="visibility: inherit;" fill="rgb(0, 0, 0)" stroke="rgb(204, 204, 204)" stroke-width="1px"></line><line x1="185.57091346153845" y1="0" x2="185.57091346153845" y2="5" style="visibility: inherit;" fill="rgb(0, 0, 0)" stroke="rgb(204, 204, 204)" stroke-width="1px"></line><line x1="206.18990384615387" y1="0" x2="206.18990384615387" y2="5" style="visibility: inherit;" fill="rgb(0, 0, 0)" stroke="rgb(204, 204, 204)" stroke-width="1px"></line><line x1="226.80889423076923" y1="0" x2="226.80889423076923" y2="5" style="visibility: inherit;" fill="rgb(0, 0, 0)" stroke="rgb(204, 204, 204)" stroke-width="1px"></line><line x1="247.42788461538464" y1="0" x2="247.42788461538464" y2="5" style="visibility: inherit;" fill="rgb(0, 0, 0)" stroke="rgb(204, 204, 204)" stroke-width="1px"></line><line x1="268.046875" y1="0" x2="268.046875" y2="5" style="visibility: inherit;" fill="rgb(0, 0, 0)" stroke="rgb(204, 204, 204)" stroke-width="1px"></line></g><g transform="translate(0, 8)"><text x="0" y="0" dx="0em" dy="0.95em" style="text-anchor: middle; visibility: hidden; font-family: Roboto, sans-serif; font-size: 12px; font-weight: 200;" fill="rgb(50, 49, 63)" stroke="none" stroke-width="1px">-200</text><text x="20.618990384615387" y="0" dx="0em" dy="0.95em" style="text-anchor: middle; visibility: inherit; font-family: Roboto, sans-serif; font-size: 12px; font-weight: 200;" fill="rgb(50, 49, 63)" stroke="none" stroke-width="1px">0</text><text x="41.237980769230774" y="0" dx="0em" dy="0.95em" style="text-anchor: middle; visibility: hidden; font-family: Roboto, sans-serif; font-size: 12px; font-weight: 200;" fill="rgb(50, 49, 63)" stroke="none" stroke-width="1px">200</text><text x="61.85697115384616" y="0" dx="0em" dy="0.95em" style="text-anchor: middle; visibility: inherit; font-family: Roboto, sans-serif; font-size: 12px; font-weight: 200;" fill="rgb(50, 49, 63)" stroke="none" stroke-width="1px">400</text><text x="82.47596153846155" y="0" dx="0em" dy="0.95em" style="text-anchor: middle; visibility: hidden; font-family: Roboto, sans-serif; font-size: 12px; font-weight: 200;" fill="rgb(50, 49, 63)" stroke="none" stroke-width="1px">600</text><text x="103.09495192307693" y="0" dx="0em" dy="0.95em" style="text-anchor: middle; visibility: inherit; font-family: Roboto, sans-serif; font-size: 12px; font-weight: 200;" fill="rgb(50, 49, 63)" stroke="none" stroke-width="1px">800</text><text x="123.71394230769232" y="0" dx="0em" dy="0.95em" style="text-anchor: middle; visibility: hidden; font-family: Roboto, sans-serif; font-size: 12px; font-weight: 200;" fill="rgb(50, 49, 63)" stroke="none" stroke-width="1px">1k</text><text x="144.33293269230768" y="0" dx="0em" dy="0.95em" style="text-anchor: middle; visibility: inherit; font-family: Roboto, sans-serif; font-size: 12px; font-weight: 200;" fill="rgb(50, 49, 63)" stroke="none" stroke-width="1px">1.2k</text><text x="164.9519230769231" y="0" dx="0em" dy="0.95em" style="text-anchor: middle; visibility: hidden; font-family: Roboto, sans-serif; font-size: 12px; font-weight: 200;" fill="rgb(50, 49, 63)" stroke="none" stroke-width="1px">1.4k</text><text x="185.57091346153845" y="0" dx="0em" dy="0.95em" style="text-anchor: middle; visibility: inherit; font-family: Roboto, sans-serif; font-size: 12px; font-weight: 200;" fill="rgb(50, 49, 63)" stroke="none" stroke-width="1px">1.6k</text><text x="206.18990384615387" y="0" dx="0em" dy="0.95em" style="text-anchor: middle; visibility: hidden; font-family: Roboto, sans-serif; font-size: 12px; font-weight: 200;" fill="rgb(50, 49, 63)" stroke="none" stroke-width="1px">1.8k</text><text x="226.80889423076923" y="0" dx="0em" dy="0.95em" style="text-anchor: middle; visibility: inherit; font-family: Roboto, sans-serif; font-size: 12px; font-weight: 200;" fill="rgb(50, 49, 63)" stroke="none" stroke-width="1px">2k</text><text x="247.42788461538464" y="0" dx="0em" dy="0.95em" style="text-anchor: middle; visibility: hidden; font-family: Roboto, sans-serif; font-size: 12px; font-weight: 200;" fill="rgb(50, 49, 63)" stroke="none" stroke-width="1px">2.2k</text><text x="268.046875" y="0" dx="0em" dy="0.95em" style="text-anchor: middle; visibility: hidden; font-family: Roboto, sans-serif; font-size: 12px; font-weight: 200;" fill="rgb(50, 49, 63)" stroke="none" stroke-width="1px">2.4k</text></g><line x1="0" y1="0" x2="268.046875" y2="0" fill="rgb(0, 0, 0)" stroke="rgb(204, 204, 204)" stroke-width="1px"></line></g></g></g></g></svg>