<svg viewBox="0 0 330 200" xmlns="http://www.w3.org/2000/svg"><g><g><g><g><g><line x1="51.5625" y1="157.7616477224294" x2="46.5625" y2="157.7616477224294" style="visibility: inherit;" fill="rgb(0, 0, 0)" stroke="rgb(204, 204, 204)" stroke-width="1px"></line><line x1="51.5625" y1="137.3367231778651" x2="46.5625" y2="137.3367231778651" style="visibility: inherit;" fill="rgb(0, 0, 0)" stroke="rgb(204, 204, 204)" stroke-width="1px"></line><line x1="51.5625" y1="116.91179863330088" x2="46.5625" y2="116.91179863330088" style="visibility: inherit;" fill="rgb(0, 0, 0)" stroke="rgb(204, 204, 204)" stroke-width="1px"></line><line x1="51.5625" y1="96.4868740887366" x2="46.5625" y2="96.4868740887366" style="visibility: inherit;" fill="rgb(0, 0, 0)" stroke="rgb(204, 204, 204)" stroke-width="1px"></line><line x1="51.5625" y1="76.06194954417234" x2="46.5625" y2="76.06194954417234" style="visibility: inherit;" fill="rgb(0, 0, 0)" stroke="rgb(204, 204, 204)" stroke-width="1px"></line><line x1="51.5625" y1="55.63702499960808" x2="46.5625" y2="55.63702499960808" style="visibility: inherit;" fill="rgb(0, 0, 0)" stroke="rgb(204, 204, 204)" stroke-width="1px"></line><line x1="51.5625" y1="35.21210045504381" x2="46.5625" y2="35.21210045504381" style="visibility: inherit;" fill="rgb(0, 0, 0)" stroke="rgb(204, 204, 204)" stroke-width="1px"></line><line x1="51.5625" y1="14.787175910479577" x2="46.5625" y2="14.787175910479577" style="visibility: inherit;" fill="rgb(0, 0, 0)" stroke="rgb(204, 204, 204)" stroke-width="1px"></line></g><g transform="translate(41.5625, 0)"><text x="0" y="157.7616477224294" dx="0em" dy="0.3em" style="text-anchor: end; visibility: inherit; font-family: Roboto, sans-serif; font-size: 12px; font-weight: 200;" fill="rgb(50, 49, 63)" stroke="none" stroke-width="1px">0</text><text x="0" y="137.3367231778651" dx="0em" dy="0.3em" style="text-anchor: end; visibility: hidden; font-family: Roboto, sans-serif; font-size: 12px; font-weight: 200;" fill="rgb(50, 49, 63)" stroke="none" stroke-width="1px">1e-3</text><text x="0" y="116.91179863330088" dx="0em" dy="0.3em" style="text-anchor: end; visibility: inherit; font-family: Roboto, sans-serif; font-size: 12px; font-weight: 200;" fill="rgb(50, 49, 63)" stroke="none" stroke-width="1px">2e-3</text><text x="0" y="96.4868740887366" dx="0em" dy="0.3em" style="text-anchor: end; visibility: hidden; font-family: Roboto, sans-serif; font-size: 12px; font-weight: 200;" fill="rgb(50, 49, 63)" stroke="none" stroke-width="1px">3e-3</text><text x="0" y="76.06194954417234" dx="0em" dy="0.3em" style="text-anchor: end; visibility: inherit; font-family: Roboto, sans-serif; font-size: 12px; font-weight: 200;" fill="rgb(50, 49, 63)" stroke="none" stroke-width="1px">4e-3</text><text x="0" y="55.63702499960808" dx="0em" dy="0.3em" style="text-anchor: end; visibility: hidden; font-family: Roboto, sans-serif; font-size: 12px; font-weight: 200;" fill="rgb(50, 49, 63)" stroke="none" stroke-width="1px">5e-3</text><text x="0" y="35.21210045504381" dx="0em" dy="0.3em" style="text-anchor: end; visibility: inherit; font-family: Roboto, sans-serif; font-size: 12px; font-weight: 200;" fill="rgb(50, 49, 63)" stroke="none" stroke-width="1px">6e-3</text><text x="0" y="14.787175910479577" dx="0em" dy="0.3em" style="text-anchor: end; visibility: hidden; font-family: Roboto, sans-serif; font-size: 12px; font-weight: 200;" fill="rgb(50, 49, 63)" stroke="none" stroke-width="1px">7e-3</text></g><line x1="51.5625" y1="0" x2="51.5625" y2="178" fill="rgb(0, 0, 0)" stroke="rgb(204, 204, 204)" stroke-width="1px"></line></g></g><g transform="translate(51, 0)" clip-path="url(#clip_0)"><clipPath id="clip_0"><rect width="278" height="178"></rect></clipPath><g><g><g><line x1="14.435326526567591" y1="0" x2="14.435326526567591" y2="178" fill="rgb(0, 0, 0)" stroke="rgb(60, 60, 60)" stroke-width="1px" opacity="0.25"></line><line x1="34.53542283066496" y1="0" x2="34.53542283066496" y2="178" fill="rgb(0, 0, 0)" stroke="rgb(60, 60, 60)" stroke-width="1px" opacity="0.25"></line><line x1="54.63551913476233" y1="0" x2="54.63551913476233" y2="178" fill="rgb(0, 0, 0)" stroke="rgb(60, 60, 60)" stroke-width="1px" opacity="0.25"></line><line x1="74.7356154388597" y1="0" x2="74.7356154388597" y2="178" fill="rgb(0, 0, 0)" stroke="rgb(60, 60, 60)" stroke-width="1px" opacity="0.25"></line><line x1="94.83571174295707" y1="0" x2="94.83571174295707" y2="178" fill="rgb(0, 0, 0)" stroke="rgb(60, 60, 60)" stroke-width="1px" opacity="0.25"></line><line x1="114.93580804705444" y1="0" x2="114.93580804705444" y2="178" fill="rgb(0, 0, 0)" stroke="rgb(60, 60, 60)" stroke-width="1px" opacity="0.25"></line><line x1="135.0359043511518" y1="0" x2="135.0359043511518" y2="178" fill="rgb(0, 0, 0)" stroke="rgb(60, 60, 60)" stroke-width="1px" opacity="0.25"></line><line x1="155.1360006552492" y1="0" x2="155.1360006552492" y2="178" fill="rgb(0, 0, 0)" stroke="rgb(60, 60, 60)" stroke-width="1px" opacity="0.25"></line><line x1="175.23609695934655" y1="0" x2="175.23609695934655" y2="178" fill="rgb(0, 0, 0)" stroke="rgb(60, 60, 60)" stroke-width="1px" opacity="0.25"></line><line x1="195.3361932634439" y1="0" x2="195.3361932634439" y2="178" fill="rgb(0, 0, 0)" stroke="rgb(60, 60, 60)" stroke-width="1px" opacity="0.25"></line><line x1="215.43628956754134" y1="0" x2="215.43628956754134" y2="178" fill="rgb(0, 0, 0)" stroke="rgb(60, 60, 60)" stroke-width="1px" opacity="0.25"></line><line x1="235.53638587163869" y1="0" x2="235.53638587163869" y2="178" fill="rgb(0, 0, 0)" stroke="rgb(60, 60, 60)" stroke-width="1px" opacity="0.25"></line><line x1="255.63648217573606" y1="0" x2="255.63648217573606" y2="178" fill="rgb(0, 0, 0)" stroke="rgb(60, 60, 60)" stroke-width="1px" opacity="0.25"></line><line x1="275.73657847983344" y1="0" x2="275.73657847983344" y2="178" fill="rgb(0, 0, 0)" stroke="rgb(60, 60, 60)" stroke-width="1px" opacity="0.25"></line></g><g><line x1="0" y1="157.7616477224294" x2="278.4375" y2="157.7616477224294" fill="rgb(0, 0, 0)" stroke="rgb(60, 60, 60)" stroke-width="1px" opacity="0.25"></line><line x1="0" y1="137.3367231778651" x2="278.4375" y2="137.3367231778651" fill="rgb(0, 0, 0)" stroke="rgb(60, 60, 60)" stroke-width="1px" opacity="0.25"></line><line x1="0" y1="116.91179863330088" x2="278.4375" y2="116.91179863330088" fill="rgb(0, 0, 0)" stroke="rgb(60, 60, 60)" stroke-width="1px" opacity="0.25"></line><line x1="0" y1="96.4868740887366" x2="278.4375" y2="96.4868740887366" fill="rgb(0, 0, 0)" stroke="rgb(60, 60, 60)" stroke-width="1px" opacity="0.25"></line><line x1="0" y1="76.06194954417234" x2="278.4375" y2="76.06194954417234" fill="rgb(0, 0, 0)" stroke="rgb(60, 60, 60)" stroke-width="1px" opacity="0.25"></line><line x1="0" y1="55.63702499960808" x2="278.4375" y2="55.63702499960808" fill="rgb(0, 0, 0)" stroke="rgb(60, 60, 60)" stroke-width="1px" opacity="0.25"></line><line x1="0" y1="35.21210045504381" x2="278.4375" y2="35.21210045504381" fill="rgb(0, 0, 0)" stroke="rgb(60, 60, 60)" stroke-width="1px" opacity="0.25"></line><line x1="0" y1="14.787175910479577" x2="278.4375" y2="14.787175910479577" fill="rgb(0, 0, 0)" stroke="rgb(60, 60, 60)" stroke-width="1px" opacity="0.25"></line></g></g></g><g><g><line x1="0" y1="157.7616477224294" x2="278.4375" y2="157.7616477224294" fill="rgb(0, 0, 0)" stroke="rgb(153, 153, 153)" stroke-width="1.5px"></line></g></g><g><g><line x1="14.435326526567591" y1="0" x2="14.435326526567591" y2="178" fill="rgb(0, 0, 0)" stroke="rgb(153, 153, 153)" stroke-width="1.5px"></line></g></g><g><g><g><g><g><path stroke="rgb(204, 51, 17)" stroke-width="2px" d="M14.937828934170026,157.7616477224294L15.038329415690512,157.7616477224294L15.44033134177246,157.7616477224294L15.540831823292946,-2265.443668294743L16.445336156977326,-0.9259912337103953L16.847338083059277,62.00869611152832L17.751842416743656,99.08374902446116L17.852342898264148,121.96244687333184L18.05334386130512,135.97515326196827L18.455345787387067,120.22253158175488L18.65634675042804,132.25932421513846L18.85734771346901,141.87361651781035L18.9578481949895,147.82419535271526L19.158849158030474,151.5513397651883L19.359850121071446,153.85123835973624L19.460350602591934,128.88961385694805L19.761852047153397,139.09765097647434L19.86235252867388,145.99407873477986L19.96285301019437,150.40043477970227L20.063353491714857,153.13797502963274L20.163853973235344,154.83269940420868L20.565855899317288,147.74077770257108L20.766856862358264,150.61470735275068L20.967857825399236,153.20581529684628L21.068358306919723,154.82492621164855L21.168858788440208,155.8134343978073L21.2693592699607,156.39301053659707L21.57086071452216,148.76211080895828L21.671361196042646,149.33125244764162L21.771861677563134,151.50552292431726L21.872362159083618,153.4273793812997L22.374864566686053,154.96226853121075L22.877366974288485,155.36772924141687L22.977867455808976,155.93589637715803L23.078367937329464,156.36744376959692L23.178868418849948,156.66557599403126L23.279368900370436,156.84853309234362L23.379869381890924,156.9666962276947L23.882371789493355,156.46823144852044L24.686375641657254,153.35103057251894L24.987877086218713,154.59430978819213L25.088377567739197,155.4687202790162L25.791880938382604,154.81024933873235L26.093382382944064,155.52499236042476L26.29438334598504,156.02198119820727L26.394883827505527,156.36839415592576L26.897386235107962,156.2449342621165L26.99788671662845,156.36285731820695L27.098387198148934,156.51474678049945L27.399888642710394,156.6400129898907L27.500389124230882,135.61764010024078L28.203892494874292,143.99419539047008L28.404893457915264,149.07209811812555L28.60589442095624,145.54990365732826L28.706394902476724,147.36805371043297L28.80689538399721,150.23964133718488L28.9073958655177,152.48751769825878L29.51039875464062,135.231271992658L29.81190019920208,142.7663964103935L30.012901162243054,147.3815287925346L30.21390212528403,150.26697434941582L30.314402606804514,152.81370709062674L30.414903088325,154.28394622569581L30.71640453288646,151.95143414777806L31.01790597744792,152.7893391540448L31.218906940488896,154.30227689589083L31.31940742200938,155.25855398060176L31.620908866570844,142.77384774153677L32.12341127417328,145.8649267584324L32.22391175569376,148.5284439570646L32.324412237214254,151.0001551619189L32.52541320025522,138.97866987281023L32.82691464481668,142.48269789671014L33.02791560785766,147.18075017410084L33.12841608937814,147.5464223054001L33.329417052419124,151.1418986011575L33.53041801546009,141.67024624173555L33.630918496980584,134.71315022018558L34.33442186762399,142.6219862039274L35.13842571978788,145.72710987572813L35.23892620130837,149.09183632222232L35.33942668282885,149.00955026664033L35.7414286089108,144.8500782907431L36.04293005347227,148.07277398023194L36.34443149803373,148.58151819160403L36.44493197955421,148.0238312409849L36.74643342411567,137.16412632838598L36.84693390563616,135.52910904764778L37.04793486867713,139.1378857127472L37.14843535019762,142.40333783090585L37.24893583171811,143.52407420283436L37.44993679475908,147.7849820557397L37.75143823932054,132.27473678566787L37.85193872084103,130.9153058576832L37.95243920236151,130.28547320514943L38.25394064692297,135.6911121796296L39.057944499086865,136.3798677889454L39.25894546212784,138.15455236993898L39.45994642516882,140.98504732846305L40.06294931429174,142.69966201655637L40.3644507588532,144.5417228022976L40.464951240373686,144.34076517883588L40.56545172189417,146.56838050275488L40.66595220341466,144.9629078482857L40.86695316645563,132.2896814162795L41.26895509253758,135.73313636776095L41.46995605557856,138.06350559476232L41.670957018619525,142.09062777345903L41.8719579816605,131.35251203433282L42.374460389262936,136.02170600547805L42.575461352303904,139.24484835184194L42.97746327838586,117.25041719147843L43.4799656859883,127.60165449936558L43.680966649029266,133.6219728401622L43.78146713054976,138.946000505292L44.283969538152185,135.39101383291268L44.384470019672676,138.34749239696475L44.48497050119316,139.70668002785942L44.685971464234136,141.03625549181382L44.78647194575462,140.80674906913399L44.886972427275104,140.20571499522953L45.288974353357055,133.12891163783175L45.38947483487754,132.5699993175805L45.590475797918515,133.4723899021505L45.891977242479975,134.41015925944967L46.293979168561926,132.03053839426326L46.39447965008242,131.65795261819392L46.4949801316029,133.291376197074L46.595480613123385,132.88419029266547L46.79648157616436,134.31358257084696L47.09798302072582,125.8395233907458L47.198483502246305,117.50512713293661L47.298983983766796,117.60769682263187L47.600485428328255,122.55658032889262L47.70098590984874,125.83402526216813L47.901986872889715,128.95394476250283L48.504989762012634,130.51712156307659L48.7059907250536,131.48783712244742L49.00749216961506,131.93485317053145L49.107992651135554,132.13592872363134L49.30899361417652,127.7448826365962L49.40949409569701,129.5215006625897L49.911996503299456,131.9226496890435L50.01249698481994,132.18307478307153L50.213497947860915,125.12000325553225L50.414498910901884,123.43815057897707L50.514999392422375,125.57339421217573L50.61549987394286,127.16031929627513L50.91700131850432,129.63314652457626L51.31900324458626,117.80592613087406L51.62050468914772,123.0554025276179L51.721005170668214,127.25305047968644L51.92200613370919,129.3971902288868L52.32400805979113,112.4882499620842L52.42450854131162,111.0231672412225L52.52500902283211,115.56891044880004L52.72600998587308,120.9821749848967L52.82651046739357,124.29809144327568L53.22851239347552,126.46727644974632L53.329012874996,120.6190992171728L53.429513356516495,118.07142235012981L53.63051431955746,121.84371276940158L53.731014801077954,124.53449668251827L53.83151528259844,128.079503749781L53.93201576411892,128.5817787082161L54.83652009780331,128.47741171322323L54.93702057932379,128.8248595952472L55.43952298692623,129.67949891577462L56.14302635756963,128.7367185424123L56.243526839090116,127.86571177798986L56.645528765172074,115.89705453674216L56.74602924669256,113.87969326868271L56.84652972821305,116.18347454490878L57.04753069125402,120.71243352400539L57.24853165429499,122.92927223215588L57.65053358037694,113.63507817225194L58.555037914061316,118.95388247588154L58.65553839558181,113.98789121510775L58.75603887710229,108.84095911246277L58.856539358622776,112.32568287504478L59.158040803184235,116.3403028755798L59.459542247745695,119.62484524272321L59.761043692307155,116.9781548447892L60.46454706295057,119.17338854531204L60.56504754447106,121.84252354648201L60.66554802599155,121.93405517971316L60.76604850751203,120.00288788023636L60.96704947055301,115.59864941074709L61.06754995207349,115.19014499608687L61.36905139663495,119.38061741075285L61.469551878155436,120.50042000993119L61.57005235967593,121.93264051168794L61.97205428575787,113.79492620159387L62.072554767278355,111.14585692329928L62.474556693360306,115.22215185690871L63.17806006400371,113.31399320287372L63.479561508565176,115.82866650214271L63.58006199008567,118.02134971793154L63.781062953126636,119.74978214001625L63.98206391616761,119.87589919100867L64.28356536072907,113.43617241673721L65.38907065745443,105.0638121284659L65.69057210201588,109.775060450098L65.79107258353638,112.59888002530704L65.89157306505686,116.1129974225232L66.09257402809783,116.72782336638043L66.2935749911388,117.45456823774079L66.3940754726593,117.21877411936781L66.59507643570026,118.61932984705685L67.0975788433027,115.36128417886441L67.1980793248232,114.48383386060097L67.80108221394612,114.80342327272942L68.00208317698709,109.43192343700471L68.10258365850757,107.48493715205078L68.20308414002805,105.86021464378167L68.30358462154854,107.66151997755026L68.40408510306904,108.32196406551229L68.50458558458952,110.96424936267147L68.60508606611,110.79163508822771L68.70558654763049,111.7051527645074L68.80608702915097,111.01079647629683L68.90658751067146,112.9083371419809L69.10758847371244,107.88835987857581L69.40908991827389,106.93367889171277L69.50959039979439,107.23646376001949L69.61009088131487,106.92686561427826L69.81109184435586,107.91656414042758L70.2130937704378,108.45869995688527L70.41409473347878,101.51422988165957L70.61509569651975,100.18561532780457L71.0170976226017,99.29204972865774L71.11759810412218,101.20352451606527L71.21809858564266,100.34323320336799L71.62010051172462,92.64482986430254L72.02210243780655,95.48720704578709L72.12260291932705,96.14045497150776L72.4241043638885,98.46494633661774L72.62510532692947,98.68725011965174L72.72560580844997,97.28936675217457L72.82610628997045,90.9581267856181L72.92660677149094,89.88370709204857L73.02710725301142,91.16905461833845L73.1276077345319,92.21913229252212L73.32860869757289,93.852013710748L73.42910917909337,95.42007046756994L73.93161158669581,95.71988514029921L74.03211206821629,95.58808008874584L74.23311303125726,96.78342313877764L74.33361351277775,94.11074857391387L74.43411399429823,87.35748039010541L74.7356154388597,87.75825351276058L74.93661640190066,89.76173801366294L75.33861832798262,91.57772625234232L75.5396192910236,92.41801623220684L75.74062025406458,94.27124416989567L75.84112073558506,94.24162106739892L75.94162121710555,82.47388214740012L76.24312266166702,80.57613598017899L76.64512458774895,85.59412196327851L76.74562506926944,89.50847534439114L76.94662603231042,91.76250332124764L77.24812747687187,93.95696792987835L77.65012940295382,85.80253088437713L78.15263181055626,85.87711877918997L78.85613518119966,88.54698174877848L78.95663566272015,86.9376470419561L79.15763662576113,77.76589484919286L79.25813710728161,75.92928379255929L79.3586375888021,77.25867684128865L79.45913807032258,75.24466510353857L79.55963855184307,80.17648700480736L79.66013903336355,81.04492316285268L79.86113999640453,85.07696624185239L79.96164047792502,85.11006147558341L80.36364240400697,86.65901952752056L80.46414288552745,85.65676481428429L80.8661448116094,74.48952900388403L81.16764625617085,73.37258930780298L81.36864721921182,72.77419242108625L81.46914770073232,72.04557209517468L81.5696481822528,73.64845404369197L81.87114962681426,76.374434576019L81.97165010833474,79.68597894393008L82.07215058985524,82.75793717791797L82.17265107137572,82.53648700714379L82.27315155289621,82.3499039374209L82.47415251593719,79.98916181542013L82.57465299745769,72.12653273883241L82.67515347897817,67.30469845576896L82.87615444201914,69.56501060512309L82.97665492353963,71.64447875108226L83.07715540506011,72.33878881742298L83.17765588658061,72.64126832841905L83.2781563681011,74.9000974824134L83.37865684962158,77.66341201719293L83.57965781266255,79.3730022418613L83.68015829418303,79.45712356771239L84.38366166482645,70.39209284765585L84.6851631093879,73.73327182743853L84.78566359090838,75.58251653601761L84.88616407242887,75.41087298825907L85.08716503546985,75.33300756809332L85.3886664800313,77.59961338697582L85.58966744307229,76.57903118059326L85.79066840611326,74.42707118325967L86.1926703321952,66.11129594052137L86.59467225827714,70.73842834001711L86.69517273979764,73.43759180802299L86.89617370283861,71.73303389168453L86.9966741843591,68.53185854146389L87.09717466587958,68.00981716126229L87.19767514740006,68.86811976159689L87.29817562892056,70.54493123610217L87.80067803652298,63.474400279720896L88.4036809256459,65.724245954956L88.60468188868688,62.63951323743632L88.70518237020737,65.98598954828356L88.80568285172785,65.43299734225165L88.90618333324834,66.04089836830312L89.10718429628932,66.00605498675887L89.40868574085079,64.27116183822642L89.50918622237127,62.74512577967318L89.81068766693274,65.50838491799239L89.91118814845322,67.3971404768913L90.0116886299737,67.83348152025465L90.21268959301469,69.20109950570856L90.41369055605566,72.5988807446998L90.71519200061712,69.10347224519646L91.01669344517857,69.28944579111966L91.31819488974004,59.53871509363132L91.41869537126053,45.06232832667882L91.51919585278101,47.30425555233631L91.72019681582198,49.4703945333726L91.82069729734246,54.41470352972718L91.92119777886296,56.50516855236057L92.12219874190393,57.68684746294155L92.22269922342441,61.228814841665994L92.3231997049449,61.12168762145882L92.82570211254733,63.03082308134543L93.22770403862928,53.02569627234598L93.32820452014977,51.10010341239766L93.52920548319074,56.64696261293387L93.73020644623172,61.418440313033706L93.93120740927269,65.31297276080142L94.03170789079317,66.00367901544142L94.13220837231366,66.159697685382L94.23270885383415,64.25454812052631L94.33320933535464,63.834822935610156L94.43370981687512,65.67932863873843L94.63471077991609,69.41534429581903L94.83571174295707,67.87506773982541L95.03671270599804,53.01137387088067L95.3382141505595,55.94417040111349L95.53921511360048,62.031602737687265L95.63971559512096,63.78901417519352L95.74021607664145,66.548169131405L96.1422180027234,68.60034712004612L96.34321896576438,70.27722216052113L96.44371944728486,70.96531513480326L96.64472041032585,71.88036062727892L96.9462218548873,65.61238167849142L97.34822378096925,70.34249649847085L97.6497252255307,71.60324892536909L97.95122667009217,73.0286538537523L98.05172715161265,75.54430602070225L98.25272811465362,74.20021995078882L98.4537290776946,74.70732304144971L98.65473004073557,63.13415402217329L99.15723244833801,70.82409821076408L99.35823341137898,76.24010506945909L99.45873389289947,78.65396341480393L99.55923437441996,81.44042885057377L99.65973485594044,83.23176368160372L99.9612363005019,82.34652348789062L100.56423918962481,79.04856711431414L100.7652401526658,82.92025145668964L100.86574063418628,85.25417319219937L100.96624111570677,87.93329127676377L101.06674159722725,90.20568479698362L101.16724207874773,91.51620687397626L101.56924400482968,91.52502791510196L101.77024496787065,92.24761130744976L101.87074544939115,92.55052262584158L102.27274737547309,92.00541429040645L102.37324785699359,91.54819373583865L102.47374833851407,94.19899157095342L102.57424882003455,97.03271707592651L102.87575026459601,97.79101331264813L102.9762507461165,98.3530726874989L103.07675122763699,99.02347441941222L103.27775219067797,99.15979660935811L103.57925363523944,98.92935013118658L103.78025459828041,99.61765741475953L103.88075507980089,99.63127273851262L104.08175604284187,95.64081711191221L104.18225652436236,94.95870852943845L104.48375796892381,97.23133676191416L104.78525941348528,98.63985363310196L104.88575989500576,102.02534723727925L105.58926326564917,103.05365070186542L105.68976374716965,102.7359582899812L105.79026422869013,102.74466879770202L105.89076471021063,100.42179549380624L105.99126519173112,99.80865482295204L106.0917656732516,100.51503737448483L106.19226615477208,102.60413438349671L106.39326711781305,104.50925678964576L106.49376759933355,105.86866012678924L106.59426808085404,107.3153843166524L106.89576952541549,107.47561633292253L106.99627000693599,108.85488047265056L107.09677048845647,107.53268001914735L107.19727096997696,108.71447592757723L107.39827193301792,108.68977426779892L108.00127482214084,108.75476849285467L108.10177530366133,107.64447454341567L108.4032767482228,106.65918566316918L109.1067801188662,108.28028961290437L109.40828156342766,108.59968040666855L110.11178493407108,109.85690391238292L110.21228541559157,111.00714882745791L110.31278589711205,110.52962414663192L110.51378686015303,111.90456286646925L110.61428734167352,110.5705204728621L110.714787823194,112.10068274811148L111.01628926775545,113.26877738666012L111.11678974927595,112.47236309416168L111.31779071231692,111.14697879337501L111.51879167535789,109.08789656920193L111.61929215687837,108.237785511301L112.02129408296032,112.09996049849602L112.12179456448081,111.50370842536928L112.32279552752179,113.2931614382713L112.52379649056276,114.96137760467363L112.62429697208324,114.68634613255087L112.72479745360373,114.0166950917494L112.82529793512423,113.20835264068278L113.12679937968568,114.76676063344624L113.22729986120616,114.04029673641074L113.32780034272665,113.07611882774144L113.62930178728811,113.78613931540674L113.7298022688086,113.50866714824024L114.53380612097249,113.97527858356996L114.83530756553395,114.44764922347251L114.93580804705444,114.20760177184826L115.1368090100954,114.3324196656267L115.33780997313639,113.1091198948238L115.43831045465687,112.46961946208995L115.73981189921834,112.96979492584273L115.84031238073882,114.28108956511326L116.04131334377979,115.51046142715109L116.14181382530028,116.16534751455818L116.24231430682076,115.67665947573623L116.34281478834126,115.78315239165539L116.64431623290271,114.95911117954142L117.44832008506663,114.55962621909907L117.6493210481076,114.5384526885187L117.85032201114856,115.35427541768024L118.05132297418955,114.83002120915774L118.15182345571003,113.41149096626306L118.25232393723051,113.34085341216564L118.45332490027148,113.70376724153427L118.65432586331247,113.77943497286071L118.75482634483295,112.38147152965915L118.85532682635343,110.35620508024185L119.15682827091489,111.80909804469677L119.35782923395587,112.65532886657542L120.06133260459927,111.84056458735907L120.16183308611976,110.58795164277016L120.46333453068122,110.29695682939263L120.66433549372219,110.45485646716433L121.26733838284511,110.77495597844715L121.3678388643656,111.11110689734477L121.56883982740658,112.80970900485734L121.76984079044755,112.57108099867277L122.1718427165295,113.72342969274881L122.37284367957047,111.85403700542744L122.57384464261143,107.09237915608361L122.77484560565242,107.07036844022166L122.97584656869338,108.61876233967857L123.27734801325484,110.15191310346971L123.37784849477534,111.6782082579363L123.47834897629582,111.18568868199166L123.5788494578163,111.73897763756786L124.18185234693924,111.22755071045219L124.28235282845972,111.54687852698174L124.88535571758264,110.61765334693949L125.08635668062362,109.4264870774331L125.28735764366459,109.12408384469558L125.38785812518508,109.2889922942413L125.48835860670556,109.94960947036536L126.39286294038995,105.12002211820915L126.59386390343091,103.73095980518893L126.89536534799238,106.8774484222022L127.19686679255383,107.86614159008396L127.29736727407432,109.1094352406326L127.4983682371153,108.63168900627424L127.59886871863579,107.9256932096317L127.69936920015627,109.51110946066204L128.00087064471774,108.95046006899481L128.1013711262382,108.28262012882846L128.3023720892792,104.47201491138371L128.40287257079967,103.55416353222694L128.50337305232017,104.54879096064354L128.80487449688164,105.06499511347691L128.9053749784021,105.90506396362545L129.10637594144308,105.5530951613059L129.91037979360698,106.22663038425173L130.01088027512748,104.31252252560114L130.11138075664795,101.7438912931588L130.21188123816844,102.4642535078189L130.51338268272988,104.80272667735304L130.61388316425038,105.01131004775367L130.71438364577088,106.73803934265442L131.01588509033235,107.07549828348469L131.11638557185285,107.54109813698726L131.21688605337332,106.99791558359536L132.72439327618062,106.02159731557694L133.0258947207421,106.80627168532926L133.22689568378306,107.94122477339401L133.32739616530353,108.21401840211884L133.52839712834452,107.35403807283745L133.628897609865,107.38959456594532L133.93039905442646,104.65043157264142L134.23190049898793,106.50286480148218L134.3324009805084,107.19644900052154L134.4329014620289,109.07071150841831L134.53340194354936,106.36616617467241L134.73440290659036,106.96696597743333L134.93540386963133,108.51873924861718L135.1364048326723,108.81287550374526L135.33740579571327,108.93046835076319L135.43790627723376,110.35310063526148L135.63890724027473,105.69457529855842L135.8399082033157,105.78517627984715L136.04090916635667,105.42867271081057L136.14140964787717,104.81490694597179L136.24191012939764,106.66553307490857L136.34241061091814,106.44317964880197L136.44291109243864,106.44900624375173L137.44791590764348,101.6286565895574L137.54841638916398,98.67910629751755L137.84991783372544,100.15628381001537L138.2519197598074,102.99864435812673L138.35242024132788,104.49203551588626L138.45292072284838,106.54650085890141L138.65392168588934,106.49822176256296L138.9554231304508,105.15535717267124L139.25692457501225,99.45843331883073L139.45792553805322,98.55944893800816L139.6589265010942,101.49553667208741L139.75942698261468,103.45127655534789L139.96042794565568,102.73718438500558L140.36242987173762,102.56113076143399L140.4629303532581,102.72453136953855L140.5634308347786,101.17759332769688L140.76443179781955,101.0049121277791L140.86493227934002,103.39773801386231L140.96543276086052,102.99260834311342L141.16643372390152,98.57881954578492L141.26693420542202,93.82378129137425L141.3674346869425,94.01656910540072L141.467935168463,95.64977911420009L141.56843564998346,97.29314596010178L141.66893613150395,97.15798658044856L142.1714385391064,98.49907192018051L142.2719390206269,98.64197145416375L142.47293998366786,97.64636225793792L142.8749419097498,96.20581519496415L142.97544239127026,95.56699315668818L143.17644335431123,94.74819252447557L143.5784452803932,96.26801831542831L143.77944624343417,96.45947675155358L143.98044720647513,97.18006600380338L144.1814481695161,97.4482466135446L144.2819486510366,98.54482813517421L144.38244913255707,98.03272193745887L144.4829496140776,99.50939374768677L144.68395057711857,97.8956980194171L144.98545202168,96.34290955974824L145.0859525032005,96.21989845497976L145.28695346624147,95.23709345801687L145.38745394776194,95.68624287218067L145.48795442928244,96.35858833510395L145.68895539232344,95.30537686655988L146.09095731840537,96.84188300994894L146.29195828144634,96.2952220122837L146.3924587629668,95.72194754644653L146.59345972600778,99.27271988123593L146.69396020752828,95.40767898935597L146.99546165208974,95.64067381134223L147.09596213361024,96.86254056227638L147.59846454121265,95.25083288750896L147.69896502273315,95.28396667376506L147.79946550425362,95.49884535139137L148.1009669488151,95.68949957526839L148.30196791185608,97.52772892089807L148.40246839337658,96.14410824501016L148.50296887489705,91.66017577451566L148.60346935641755,91.6664880161639L148.70396983793802,92.42744805932563L148.80447031945852,92.50237801634185L149.10597176401996,94.22844134679627L149.40747320858145,95.31169189493187L149.60847417162242,96.23522891913986L149.90997561618386,94.79250590171128L150.01047609770436,96.40814981365602L150.11097657922483,96.08486018759443L150.21147706074532,95.65567889385942L150.6134789868273,95.50259054559176L151.01548091290923,95.48263001403893L151.2164818759502,97.4966998960157L151.31698235747066,96.43001331839267L151.71898428355263,95.99384509758211L151.81948476507313,96.358059924969L152.12098620963457,94.64563836930387L152.42248765419603,93.45983138323062L152.824489580278,94.1117590928695L152.92499006179847,94.78336752354627L153.02549054331897,95.19978507706338L153.3269919878804,95.20228432286451L153.52799295092137,96.38711647197087L153.62849343244187,96.06612074299447L153.82949439548287,95.98257373543439L153.92999487700334,92.29873866212726L154.03049535852384,91.79208998012184L154.2314963215648,94.29325986776722L154.33199680308527,96.21856759061372L154.63349824764674,96.82249857320258L155.1360006552492,97.19305953251252L156.34200643349504,98.1180131558491L156.4425069150155,97.50534603770868L156.543007396536,96.3194870992651L156.64350787805648,94.7020036374919L157.04550980413842,94.70873499084753L157.3470112486999,89.56260626984786L157.44751173022038,88.491757083277L157.64851269326135,89.3408899799607L157.74901317478185,91.73190051184058L157.84951365630232,93.19443141075223L157.95001413782282,93.5075272345495L158.35201606390476,94.07951509615535L158.45251654542523,95.21564794137839L158.55301702694575,94.23843450739923L158.75401798998672,94.95282310135369L158.8545184715072,94.76604455300068L158.9550189530277,93.26952127024366L159.15601991606866,86.85875502099024L159.35702087910963,86.55847912655605L159.96002376823256,90.12562289935215L160.16102473127353,89.93212001648156L160.66352713887593,91.38702889476532L160.76402762039646,91.63663787127561L161.6685319540808,89.58696025312715L161.7690324356013,88.63788321115379L162.17103436168327,88.80671684174395L162.87453773232667,87.76771452196603L163.27653965840864,88.23524732992558L163.3770401399291,88.17619423299061L163.67854158449057,89.26972193908892L163.77904206601104,89.97306496208655L164.0805435105725,90.30075493699975L164.2815444736135,86.51622169231156L164.38204495513398,86.7254935676326L164.48254543665448,86.55433140155242L165.18604880729785,88.59695896598302L165.28654928881835,88.681943869171L165.38704977033882,88.39863117692084L165.48755025185935,88.24151207534709L165.68855121490031,89.20096550188926L165.78905169642078,87.93590936860168L165.88955217794128,86.53755118468943L165.99005265946175,88.89919720568084L166.09055314098225,89.46497210302061L166.19105362250272,83.62927574170526L166.29155410402322,82.61654859605214L166.79405651162566,84.87718514070265L166.99505747466662,86.28121766174245L167.49755988226906,87.1323759699744L167.59806036378953,87.2668386022497L167.69856084531003,86.37995612317913L167.89956180835102,86.35319304992645L168.60306517899443,85.78812997810543L168.8040661420354,85.88552402285488L169.30656854963783,85.11644368065969L169.40706903115833,84.0328651319387L169.80907095724027,84.45838118574058L170.01007192028123,81.91615201181435L170.11057240180173,83.02228005494536L170.3115733648427,82.10767218609489L170.4120738463632,82.69481203182258L170.61307480940417,83.42701098854849L170.71357529092464,84.64355435472821L171.31657818004757,83.86303452771975L171.41707866156807,85.06680385925162L171.51757914308854,84.38978150473794L172.02008155069097,86.20928454948857L172.12058203221144,82.89181887274381L173.02508636589585,83.87600342593994L173.12558684741632,84.98799427200288L173.42708829197778,84.15095558126038L173.62808925501878,81.70498378305656L173.82909021805975,81.19066938873382L174.03009118110072,82.69542078742074L174.53259358870312,85.77787638528129L174.63309407022362,86.49165632330539L174.83409503326462,86.4989498325641L174.9345955147851,87.05532525921619L175.13559647782606,87.37262593587631L175.33659744086702,84.06461004079591L175.43709792238752,83.54256151626649L175.6380988854285,85.63893259732743L175.738599366949,84.45048787035496L176.14060129303095,84.68645347632021L176.24110177455142,83.63088822370894L176.4421027375924,84.81254403824101L176.5426032191129,85.65214580846781L176.64310370063336,86.90807673193531L176.74360418215386,86.99856918260194L177.04510562671533,83.2485743634757L177.14560610823582,78.7544380203173L177.2461065897563,78.73006648236125L177.64810851583823,81.30007456491802L177.8491094788792,82.25930408679382L177.9496099603997,86.8482963226785L178.05011044192017,87.37114547186823L178.25111140496116,85.30860257270085L178.45211236800213,86.67357538470985L178.6531133310431,86.4536220375105L178.85411429408407,85.25388105638135L178.95461477560457,85.21131024730332L179.05511525712504,79.40981001544613L179.256116220166,80.19742157591135L179.35661670168653,80.82478921915373L179.457117183207,83.00963640784697L179.5576176647275,81.68450623830365L179.65811814624797,81.65767365347803L179.75861862776847,82.76522647490765L179.95961959080944,84.36442124508535L180.0601200723299,83.17306446932383L180.36162151689138,83.89062916922597L180.46212199841185,84.2633880769785L180.66312296145284,85.9128309970061L180.76362344297334,83.99427540880325L181.06512488753478,86.004134105285L181.16562536905528,88.72844264225662L181.26612585057575,88.34385618419451L181.36662633209625,89.05134165680072L181.66812777665768,88.84243004520317L182.07012970273965,87.660428772988L182.27113066578062,88.60586208168903L182.37163114730112,87.06332305106264L182.47213162882161,87.4028820122952L182.77363307338305,80.64312884293446L182.87413355490358,79.45475464567991L183.07513451794455,83.07930380194951L183.47713644402648,86.32004271563932L183.57763692554695,86.6461995988059L183.67813740706745,87.37051477422082L183.77863788858792,88.5373993532276L183.9796388516289,89.17049589139604L184.38164077771086,88.32507537419654L184.48214125923135,90.80149212943425L184.68314222227232,85.62880602635732L184.7836427037928,84.34246628714962L184.8841431853133,84.93585101776327L184.98464366683376,85.25453938843837L185.18564462987476,86.4633199132802L185.48714607443623,86.18008670308159L185.5876465559567,86.12649221792378L185.6881470374772,86.16200507732135L185.78864751899766,86.50161115366919L186.1906494450796,87.15953156704914L186.2911499266001,86.96807688374517L186.79365233420253,87.42957272671318L186.9946532972435,85.2590463075315L187.095153778764,86.38219516102424L187.19565426028447,84.90859678566152L187.59765618636644,86.06779225504795L187.8991576309279,87.83015973755235L188.10015859396887,88.17413764908986L188.4016600385303,81.22209641283874L188.5021605200508,78.8016286903683L188.60266100157128,79.40218511485678L188.7031614830918,81.991710781727L188.80366196461227,81.77996120269914L189.00466292765324,82.7330619737195L189.2056638906942,82.93997214652188L189.50716533525568,84.13950561143479L189.60766581677618,82.94340549084656L189.80866677981717,81.92925029575989L189.90916726133764,81.65828127019881L190.00966774285814,82.0583497019951L190.31116918741958,79.42083890313229L190.51217015046055,79.39606934532681L190.61267063198105,81.07319746590206L190.71317111350152,82.62633766714956L190.81367159502202,83.11748517770923L191.51717496566542,84.59675414155207L191.61767544718592,87.36791973279854L191.91917689174736,86.42805776279907L192.42167929934982,83.98534898276685L192.82368122543176,82.5797121035799L193.02468218847272,83.78246171089557L193.4266841145547,84.94773565441876L193.52718459607516,82.88191960040014L193.72818555911613,86.25737575440725L194.13018748519806,83.8815397443039L194.23068796671856,83.07716601205819L194.33118844823903,81.99207847497334L194.53218941128003,79.70807908328862L194.63268989280053,80.18870815516976L194.733190374321,79.98050553520015L195.13519230040293,80.36357734230461L195.3361932634439,84.09854677963796L195.53719422648487,82.3250999829811L195.73819518952587,80.91913461125341L195.83869567104637,79.9440644769395L196.03969663408733,79.55267403093723L196.44169856016927,80.16763532518912L196.64269952321024,81.48006153015154L196.74320000473077,81.29010560077636L197.0447014492922,83.36459353500624L197.34620289385367,83.43101930399774L197.7482048199356,83.86460373146598L197.9492057829766,84.50805728986528L198.35120770905854,86.32185536177953L198.75320963514048,85.76691915554383L198.85371011666095,84.34346835129962L198.95421059818145,85.63349009470512L199.3562125242634,82.69707976634533L199.45671300578388,79.73509485991156L199.55721348730438,78.35641886596221L199.75821445034535,80.19844167524465L199.85871493186582,80.97553774391656L199.95921541338632,81.97110313181334L200.1602163764273,83.35949358901492L200.26071685794776,81.29392224183628L200.56221830250925,81.33924706337272L200.66271878402972,82.97428523721301L200.8637197470707,83.21865658549066L201.06472071011166,83.09530311142142L201.16522119163216,82.5515493764271L201.26572167315263,79.85342936230798L201.96922504379606,81.42990538658287L202.17022600683703,82.5086553147823L202.2707264883575,82.17675308866116L202.87372937748043,81.78232801421615L202.97422985900093,82.16174474438279L203.07473034052143,83.39598267493915L203.1752308220419,79.27194379512858L203.2757313035624,78.58080543708803L203.47673226660336,78.24928745142888L203.77823371116483,79.23380437262568L204.48173708180823,78.7001887673755L204.5822375633287,79.76880120472997L204.6827380448492,82.64384754775217L205.18524045245164,78.13862958645002L205.58724237853357,78.89060630542241L205.88874382309504,79.3009288611305L205.98924430461554,82.17590391056562L206.290745749177,81.36379820042454L206.3912462306975,81.76413694540311L206.49174671221797,80.96140279073173L206.59224719373847,79.66595862804347L206.69274767525897,80.1379138052544L206.9942491198204,77.6988855019904L207.0947496013409,75.10359095131842L207.1952500828614,75.73567464488936L207.2957505643819,77.43307725776471L207.69775249046384,79.79644876374971L207.7982529719843,80.09618735796869L207.8987534535048,78.64676253725305L208.20025489806625,76.91883389141076L208.40125586110724,74.97589365441387L208.6022568241482,77.26302282466783L208.80325778718918,79.81356922058593L208.90375826870968,75.64819584753403L209.00425875023015,74.69237171811494L209.20525971327112,76.56273450417974L209.30576019479162,77.72899425999661L209.80826260239405,76.59056138708118L210.00926356543502,76.50731326732144L210.10976404695552,76.76238906968098L210.3107650099965,79.35248757626479L210.61226645455793,80.31960168778261L210.91376789911942,75.42954959712294L211.0142683806399,73.51364319542797L211.21526934368086,75.9820938915054L211.41627030672183,77.6938445452413L211.51677078824233,79.42127687751916L211.6172712697628,80.41804647053794L212.01927319584476,79.69883275272812L212.11977367736526,77.78491641046286L212.32077464040623,78.69225318763277L212.5217756034472,78.46545749263214L213.0242780110496,77.24929233043262L213.42627993713157,79.73518087954447L213.52678041865207,79.95570811840551L213.62728090017256,79.85160142547137L213.72778138169303,79.26643607075493L214.93378715993887,80.36774218840428L215.13478812297984,79.91342966922114L215.33578908602084,80.37549448122054L215.5367900490618,81.71945231615886L215.6372905305823,82.10935321450398L215.93879197514374,82.53499751550183L216.03929245666424,81.3445033779278L216.1397929381847,80.19788570351629L216.2402934197052,80.26181294283639L216.34079390122568,78.37312028617971L216.44129438274618,74.6425535461868L216.54179486426668,72.26948311139256L216.74279582730765,75.47145972263213L216.84329630882814,78.23475628513059L216.9437967903486,78.47379653906569L217.14479775338958,78.14910353618295L217.64730016099205,77.73357702987924L217.94880160555348,79.91027557248552L218.14980256859445,80.91302006561877L218.25030305011495,79.88809422904417L218.45130401315592,75.82018834806738L218.75280545771736,75.5557929786345L219.05430690227885,76.13494293794203L219.25530786531982,76.4980501342367L219.4563088283608,75.95800179052085L219.55680930988126,77.39689449619536L219.65730979140176,78.05247352867228L219.85831075444273,80.16192714009944L219.9588112359632,80.43379242618643L220.2603126805247,80.17626622822719L220.46131364356566,82.01872509231957L220.56181412508616,83.37654692504822L221.36581797725006,83.80229133579167L221.46631845877053,84.33930829209794L221.6673194218115,85.2366601873634L222.16982182941393,83.53832199494225L222.67232423701637,84.14147465865676L222.77282471853687,84.51547007849067L222.87332520005734,85.17779055818882L223.0743261630983,86.06078329912563L223.1748266446188,88.22414974106222L223.37582760765977,85.58868248193421L223.57682857070077,85.57595696930677L223.8783300152622,79.14505769906609L223.9788304967827,79.15542681713275L224.38083242286464,81.44956731756564L224.88333483046708,84.04274914652238L225.08433579350805,84.95489205781811L225.68733868263095,82.07125512542024L225.78783916415148,80.07446551338143L225.88833964567195,80.05529788339989L225.98884012719245,80.255092024295L226.08934060871292,80.18181335349146L226.39084205327438,79.74622103951647L226.59184301631535,80.97124842330659L226.8933444608768,82.49896339998512L226.99384494239732,83.3816320642702L227.29534638695876,83.58169278588392L227.49634734999975,83.07705941264092L227.69734831304072,82.19289838780672L227.7978487945612,82.05190020318669L227.8983492760817,81.27231785084064L228.30035120216365,80.70624272219726L228.7023531282456,81.55141587993467L228.80285360976606,82.9006950457891L228.90335409128656,81.98944836051578L229.30535601736852,82.42620100578397L229.405856498889,80.69403432588804L229.60685746192996,77.38369558270368L229.70735794345046,77.45512298747872L229.90835890649143,79.46420844215962L230.0088593880119,80.89294222007814L230.1093598695324,81.443189015606L230.31036083257337,78.31505098866637L230.41086131409384,80.50126681537051L230.51136179561436,81.12402388290596L230.61186227713483,81.38800186344149L230.9133637216963,83.25887492031627L231.11436468473727,80.68340067671024L231.21486516625774,82.30409960347545L231.81786805538067,80.38817961576612L231.91836853690117,79.22255006535222L232.01886901842164,81.10503180686854L232.42087094450358,81.40711631367402L232.62187190754454,81.36994848747749L232.82287287058554,82.42303134855237L233.22487479666748,79.75199296477423L233.32537527818798,77.47299019799367L233.42587575970845,76.78093346712278L233.9283781673109,77.8371935300692L234.22987961187235,80.43470189008353L234.43088057491335,80.8565509624183L234.6318815379543,80.07109810862264L234.73238201947478,81.06144607726532" style="fill: none;" fill="none"></path></g></g></g></g><g opacity="0.2"><g><g><g><path stroke="rgb(204, 51, 17)" stroke-width="2px" d="M14.937828934170026,157.7616477224294L15.038329415690512,157.7616477224294L15.44033134177246,157.7616477224294L15.540831823292946,-5115.133119930937L15.842333267854409,-0.6385432816019208L15.942833749374895,88.88535306411086L16.244335193936355,152.39753306345222L16.344835675456842,154.74948608628478L16.445336156977326,92.25707011770862L16.847338083059277,155.83991414715805L17.751842416743656,154.4945675931426L17.852342898264148,156.2057907286157L18.05334386130512,156.9667604943512L18.455345787387067,96.6121156768891L18.65634675042804,150.30602388647583L18.85734771346901,156.29098652552796L18.9578481949895,156.74855275375103L19.158849158030474,157.14148859096028L19.359850121071446,157.3008760317167L19.460350602591934,91.4485460575773L19.761852047153397,154.40937075595414L19.86235252867388,156.3385842143023L19.96285301019437,157.0099166495978L20.063353491714857,157.24426594726398L20.163853973235344,157.37477873884723L20.565855899317288,137.10291329639858L20.766856862358264,154.92559741586112L20.967857825399236,157.09247482621302L21.068358306919723,157.25359168899394L21.168858788440208,157.29619634924535L21.2693592699607,157.26237462946548L21.57086071452216,137.3157621284763L21.671361196042646,150.1849648649002L21.771861677563134,154.76692854588762L21.872362159083618,156.31016401721624L22.374864566686053,157.26460223233008L22.877366974288485,155.97592030296218L22.977867455808976,156.78814707760517L23.078367937329464,157.01476485681306L23.178868418849948,157.112774330085L23.279368900370436,157.122968739592L23.379869381890924,157.1439409306361L23.882371789493355,155.72053427997497L24.686375641657254,148.67522925932673L24.987877086218713,156.45922861150805L25.088377567739197,156.78033601517052L25.791880938382604,153.82254292834355L26.093382382944064,156.59710689293925L26.29438334598504,156.767464454871L26.394883827505527,156.88801359249933L26.897386235107962,156.05974442140348L26.99788671662845,156.53974190234212L27.098387198148934,156.74258097393778L27.399888642710394,156.8279123039774L27.500389124230882,104.08408076578576L28.203892494874292,156.5590283258093L28.404893457915264,156.68895220960698L28.60589442095624,140.2666119661331L28.706394902476724,150.09527879008985L28.80689538399721,154.5470227773125L28.9073958655177,155.85933223986956L29.51039875464062,109.34690343425734L29.81190019920208,154.0690830369966L30.012901162243054,154.30422736574621L30.21390212528403,154.59514268473765L30.314402606804514,156.6338062024431L30.414903088325,156.48930492829948L30.71640453288646,148.45266603090136L31.01790597744792,154.0461966634449L31.218906940488896,156.57168350865987L31.31940742200938,156.69296960766818L31.620908866570844,124.04678838293928L32.12341127417328,150.50154528377587L32.22391175569376,152.52371975501285L32.324412237214254,154.7077219692004L32.52541320025522,120.94644193914722L32.82691464481668,147.73873993255998L33.02791560785766,154.22782859018687L33.12841608937814,148.0949305023491L33.329417052419124,156.53511304479352L33.53041801546009,127.46276770260263L33.630918496980584,124.27750618786057L34.33442186762399,154.48524017954017L35.13842571978788,150.3847953834292L35.23892620130837,154.13892599196362L35.33942668282885,148.88612118326733L35.7414286089108,138.6108703268973L36.04293005347227,152.90681751446525L36.34443149803373,149.34463450866218L36.44493197955421,147.18730081505615L36.74643342411567,120.87456895948758L36.84693390563616,133.07658312654053L37.04793486867713,144.5510507103963L37.14843535019762,147.30151600814384L37.24893583171811,145.20517876072714L37.44993679475908,154.1763438350977L37.75143823932054,109.0093688805601L37.85193872084103,128.87615946570617L37.95243920236151,129.34072422634875L38.25394064692297,143.79957064134996L39.057944499086865,137.41300120291905L39.25894546212784,140.8165792414293L39.45994642516882,145.23078976624916L40.06294931429174,145.27158404869633L40.3644507588532,147.3048139809095L40.464951240373686,144.03932874364332L40.56545172189417,149.9098034886333L40.66595220341466,142.55469886658196L40.86695316645563,113.27984176827023L41.26895509253758,140.89831879498308L41.46995605557856,141.55905943526437L41.670957018619525,148.1313110415041L41.8719579816605,115.24533842564354L42.374460389262936,143.02549696219586L42.575461352303904,144.07956187138774L42.97746327838586,84.25877045093321L43.4799656859883,143.12851046119624L43.680966649029266,142.6524503513571L43.78146713054976,146.93204200298672L44.283969538152185,130.05853382434373L44.384470019672676,142.7822102430429L44.48497050119316,141.7454614742014L44.685971464234136,143.03061868774543L44.78647194575462,140.4624894351142L44.886972427275104,139.30416388437283L45.288974353357055,122.51370660173515L45.38947483487754,131.73163083720362L45.590475797918515,134.8259757790054L45.891977242479975,135.81681329539848L46.293979168561926,128.4611070964836L46.39447965008242,131.09907395408996L46.4949801316029,135.74151156539412L46.595480613123385,132.2734114360527L46.79648157616436,136.4576709881192L47.09798302072582,113.12843462059404L47.198483502246305,105.00353274622283L47.298983983766796,117.76155135717477L47.600485428328255,129.97990558828374L47.70098590984874,130.75019266208142L47.901986872889715,133.63382401300487L48.504989762012634,132.86188676393726L48.7059907250536,132.94391046150366L49.00749216961506,132.60537724265748L49.107992651135554,132.43754205328122L49.30899361417652,121.15831350604347L49.40949409569701,132.1864277015799L49.911996503299456,135.52437322872427L50.01249698481994,132.57371242411355L50.213497947860915,114.5253959642233L50.414498910901884,120.91537156414432L50.514999392422375,128.77625966197374L50.61549987394286,129.54070692242428L50.91700131850432,133.34238736702795L51.31900324458626,100.06509554032073L51.62050468914772,130.92961712273373L51.721005170668214,133.54952240778923L51.92200613370919,132.6133998526873L52.32400805979113,87.12483956188028L52.42450854131162,108.82554315992996L52.52500902283211,122.38752526016638L52.72600998587308,129.1020717890417L52.82651046739357,129.2719661308441L53.22851239347552,129.72105395945226L53.329012874996,111.8468333683125L53.429513356516495,114.24990704956532L53.63051431955746,127.50214839830923L53.731014801077954,128.57067255219332L53.83151528259844,133.39701435067505L53.93201576411892,129.33519114586878L54.83652009780331,128.32086122073392L54.93702057932379,129.3460314182831L55.43952298692623,130.96145789656583L56.14302635756963,127.32254798236876L56.243526839090116,126.55920163135622L56.645528765172074,97.94406867487059L56.74602924669256,110.85365136659357L56.84652972821305,119.63914645924793L57.04753069125402,127.50587199265028L57.24853165429499,126.25453029438165L57.65053358037694,99.69378708239597L58.555037914061316,126.93208893132598L58.65553839558181,106.53890432394705L58.75603887710229,101.12056095849529L58.856539358622776,117.55276851891773L59.158040803184235,122.36223287638236L59.459542247745695,124.55165879343832L59.761043692307155,113.00811924788823L60.46454706295057,122.46623909609627L60.56504754447106,125.84622604823694L60.66554802599155,122.07135262955985L60.76604850751203,117.10613693102113L60.96704947055301,108.99229170651321L61.06754995207349,114.57738837409653L61.36905139663495,125.6663260327518L61.469551878155436,122.18012390869873L61.57005235967593,124.08097126432305L61.97205428575787,101.5883547364528L62.072554767278355,107.17225300585739L62.474556693360306,121.33659425732284L63.17806006400371,110.45175522182123L63.479561508565176,119.6006764510462L63.58006199008567,121.3103745416148L63.781062953126636,122.34243077314335L63.98206391616761,120.06507476749728L64.28356536072907,103.77658225533L65.38907065745443,92.50527169605887L65.69057210201588,116.8419329325462L65.79107258353638,116.83460938812063L65.89157306505686,121.38417351834741L66.09257402809783,117.65006228216627L66.2935749911388,118.54468554478134L66.3940754726593,116.86508294180831L66.59507643570026,120.7201634385904L67.0975788433027,110.47421567657575L67.1980793248232,113.1676583832058L67.80108221394612,115.28280739092213L68.00208317698709,101.37467368341763L68.10258365850757,104.5644577246199L68.20308414002805,103.42313088137799L68.30358462154854,110.36347797820314L68.40408510306904,109.31263019745533L68.50458558458952,114.92767730841022L68.60508606611,110.53271367656208L68.70558654763049,113.07542927892689L68.80608702915097,109.96926204398099L68.90658751067146,115.754648140507L69.10758847371244,100.35839398346818L69.40908991827389,105.50165741141817L69.50959039979439,107.69064106247957L69.61009088131487,106.4624683956664L69.81109184435586,109.40111192965155L70.2130937704378,109.27190368157183L70.41409473347878,91.09752476882102L70.61509569651975,98.19269349702206L71.0170976226017,97.9517013299375L71.11759810412218,104.07073669717656L71.21809858564266,99.05279623432206L71.62010051172462,81.09722485570434L72.02210243780655,99.7507728180139L72.12260291932705,97.12032686008875L72.4241043638885,101.95168338428266L72.62510532692947,99.02070579420274L72.72560580844997,95.1925417009588L72.82610628997045,81.46126683578346L72.92660677149094,88.27207755169424L73.02710725301142,93.09707590777325L73.1276077345319,93.79424880379761L73.32860869757289,96.30133583808686L73.42910917909337,97.77215560280284L73.93161158669581,96.16960714939313L74.03211206821629,95.39037251141576L74.23311303125726,98.57643771382533L74.33361351277775,90.1017367266182L74.43411399429823,77.2275781143927L74.7356154388597,88.35941319674335L74.93661640190066,92.7669647650165L75.33861832798262,94.30170861036137L75.5396192910236,93.67845120200367L75.74062025406458,97.05108607642879L75.84112073558506,94.19718641365384L75.94162121710555,64.8222737674019L76.24312266166702,77.72951672934732L76.64512458774895,93.12110093792778L76.74562506926944,95.38000541606009L76.94662603231042,95.1435452865324L77.24812747687187,97.24866484282437L77.65012940295382,73.57087531612534L78.15263181055626,85.98900062140922L78.85613518119966,92.55177620316124L78.95663566272015,84.52364498172246L79.15763662576113,64.00826656004804L79.25813710728161,73.17436720760897L79.3586375888021,79.25276641438273L79.45913807032258,72.22364749691337L79.55963855184307,87.57421985671061L79.66013903336355,82.34757739992068L79.86113999640453,91.12503086035187L79.96164047792502,85.15970432617992L80.36364240400697,88.98245660542626L80.46414288552745,84.15338274442992L80.8661448116094,57.7386752882836L81.16764625617085,71.69717976368139L81.36864721921182,71.87659709101122L81.46914770073232,70.95264160630725L81.5696481822528,76.05277696646795L81.87114962681426,80.4634053745095L81.97165010833474,84.6532954957967L82.07215058985524,87.3658745288998L82.17265107137572,82.20431175098253L82.27315155289621,82.07002933283654L82.47415251593719,76.44804863241896L82.57465299745769,60.33258912395081L82.67515347897817,60.071947031173735L82.87615444201914,72.95547882915432L82.97665492353963,74.76368097002101L83.07715540506011,73.38025391693407L83.17765588658061,73.0949875949131L83.2781563681011,78.28834121340499L83.37865684962158,81.80838381936222L83.57965781266255,81.9373875788638L83.68015829418303,79.58330555648904L84.38366166482645,56.794546767571L84.6851631093879,78.74504029711258L84.78566359090838,78.3563835988862L84.88616407242887,75.15340766662125L85.08716503546985,75.21620943784468L85.3886664800313,80.99952211529957L85.58966744307229,75.04815787101947L85.79066840611326,71.1991311872593L86.1926703321952,53.63763307641389L86.59467225827714,77.67912693926074L86.69517273979764,77.48633701003175L86.89617370283861,69.17619701717689L86.9966741843591,63.7300955161329L87.09717466587958,67.22675509095988L87.19767514740006,70.15557366209877L87.29817562892056,73.06014844786002L87.80067803652298,52.86860384514903L88.4036809256459,69.0990144678087L88.60468188868688,58.01241416115678L88.70518237020737,71.00570401455434L88.80568285172785,64.60350903320378L88.90618333324834,66.95274990738034L89.10718429628932,65.95378991444252L89.40868574085079,61.66882211542777L89.50918622237127,60.45607169184324L89.81068766693274,69.6532736254712L89.91118814845322,70.2302738152396L90.0116886299737,68.48799308529969L90.21268959301469,71.25252648388937L90.41369055605566,77.69555260318666L90.71519200061712,63.860359495941495L91.01669344517857,69.5684061100045L91.31819488974004,44.91261904739878L91.41869537126053,23.347748176250118L91.51919585278101,50.667146390822495L91.72019681582198,52.719603004926974L91.82069729734246,61.83116702425903L91.92119777886296,59.640866086310666L92.12219874190393,59.45936582881306L92.22269922342441,66.54176590975263L92.3231997049449,60.96099679114805L92.82570211254733,65.89452627117534L93.22770403862928,38.01800605884684L93.32820452014977,48.21171412247517L93.52920548319074,64.96725141373823L93.73020644623172,68.57565686318344L93.93120740927269,71.15477143245299L94.03170789079317,67.03973839740145L94.13220837231366,66.39372569029288L94.23270885383415,61.39682377324275L94.33320933535464,63.2052351582359L94.43370981687512,68.44608719343078L94.63471077991609,75.01936778144L94.83571174295707,65.56465290583499L95.03671270599804,30.715833067463546L95.3382141505595,60.34336519646271L95.53921511360048,71.16275124254787L95.63971559512096,66.42513133145292L95.74021607664145,70.68690156572225L96.1422180027234,71.67861410300775L96.34321896576438,72.7925347212337L96.44371944728486,71.99745459622645L96.64472041032585,73.25292886599236L96.9462218548873,56.210413255310165L97.34822378096925,77.43766872844002L97.6497252255307,73.49437756571642L97.95122667009217,75.16676124632708L98.05172715161265,79.31778427112715L98.25272811465362,72.18409084591862L98.4537290776946,75.46797767744114L98.65473004073557,45.774400493258646L99.15723244833801,82.35901449365022L99.35823341137898,84.36411535750156L99.45873389289947,82.2747509328212L99.55923437441996,85.62012700422855L99.65973485594044,85.91876592814867L99.9612363005019,81.01866319732095L100.56423918962481,74.10163255394941L100.7652401526658,88.72777797025289L100.86574063418628,88.75505579546396L100.96624111570677,91.95196840361035L101.06674159722725,93.61427507731338L101.16724207874773,93.48198998946525L101.56924400482968,91.53825947679053L101.77024496787065,93.33148639597145L101.87074544939115,93.00488960342928L102.27274737547309,91.18775178725373L102.37324785699359,90.86236290398696L102.47374833851407,98.17518832362563L102.57424882003455,101.28330533338614L102.87575026459601,98.92845766773053L102.9762507461165,99.1961617497751L103.07675122763699,100.02907701728225L103.27775219067797,99.36427989427692L103.57925363523944,98.5836804139293L103.78025459828041,100.65011834011895L103.88075507980089,99.65169572414226L104.08175604284187,89.65513367201159L104.18225652436236,93.93554565572782L104.48375796892381,100.64027911062773L104.78525941348528,100.75262893988364L104.88575989500576,107.10358764354517L105.58926326564917,104.59610589874467L105.68976374716965,102.25941967215482L105.79026422869013,102.75773455928328L105.89076471021063,96.93748553796254L105.99126519173112,98.88894381667075L106.0917656732516,101.57461120178402L106.19226615477208,105.73777989701453L106.39326711781305,107.36694039886937L106.49376759933355,107.90776513250445L106.59426808085404,109.48547060144712L106.89576952541549,107.71596435732775L106.99627000693599,110.92377668224256L107.09677048845647,105.54937933889256L107.19727096997696,110.48716979022201L107.39827193301792,108.65272177813148L108.00127482214084,108.8522598304383L108.10177530366133,105.97903361925717L108.4032767482228,105.18125234279945L109.1067801188662,110.7119455375071L109.40828156342766,109.07876659731488L110.11178493407108,111.7427391709545L110.21228541559157,112.73251620007036L110.31278589711205,109.81333712539293L110.51378686015303,113.96697094622522L110.61428734167352,108.5694568824514L110.714787823194,114.39592616098555L111.01628926775545,115.02091934448308L111.11678974927595,111.27774165541403L111.31779071231692,109.15890234219493L111.51879167535789,105.99927323294239L111.61929215687837,106.96261892444959L112.02129408296032,117.89322297928852L112.12179456448081,110.6093303156792L112.32279552752179,115.9773409576243L112.52379649056276,117.46370185427715L112.62429697208324,114.27379892436666L112.72479745360373,113.01221853054723L112.82529793512423,111.9958389640829L113.12679937968568,117.10437262259136L113.22729986120616,112.95060089085754L113.32780034272665,111.62985196473748L113.62930178728811,114.85117004690466L113.7298022688086,113.09245889749049L114.53380612097249,114.67519573656453L114.83530756553395,115.15620518332634L114.93580804705444,113.84753059441181L115.1368090100954,114.51964650629441L115.33780997313639,111.27417023861949L115.43831045465687,111.51036881298914L115.73981189921834,113.72005812147194L115.84031238073882,116.24803152401904L116.04131334377979,117.35451922020788L116.14181382530028,117.14767664566878L116.24231430682076,114.94362741750332L116.34281478834126,115.94289176553416L116.64431623290271,113.72304936137043L117.44832008506663,113.96039877843552L117.6493210481076,114.50669239264815L117.85032201114856,116.57800951142261L118.05132297418955,114.04363989637395L118.15182345571003,111.28369560192108L118.25232393723051,113.23489708101954L118.45332490027148,114.24813798558718L118.65432586331247,113.89293656985035L118.75482634483295,110.28452636485682L118.85532682635343,107.31830540611591L119.15682827091489,113.98843749137913L119.35782923395587,113.9246750993934L120.06133260459927,110.61841816853457L120.16183308611976,108.70903222588677L120.46333453068122,109.86046460932631L120.66433549372219,110.69170592382187L121.26733838284511,111.25510524537137L121.3678388643656,111.61533327569123L121.56883982740658,115.3576121661262L121.76984079044755,112.21313898939587L122.1718427165295,115.45195273386285L122.37284367957047,109.04994797444543L122.57384464261143,99.94989238206783L122.77484560565242,107.0373523664287L122.97584656869338,110.94135318886394L123.27734801325484,112.45163924915641L123.37784849477534,113.96765098963617L123.47834897629582,110.4469093180747L123.5788494578163,112.56891107093212L124.18185234693924,110.46041031977873L124.28235282845972,112.02587025177606L124.88535571758264,109.22381557687612L125.08635668062362,107.63973767317354L125.28735764366459,108.6704789955893L125.38785812518508,109.53635496855986L125.48835860670556,110.94053523455149L126.39286294038995,97.8756410899748L126.59386390343091,101.64736633565857L126.89536534799238,111.59718134772213L127.19686679255383,109.34918134190659L127.29736727407432,110.9743757164556L127.4983682371153,107.91506965473671L127.59886871863579,106.86669951466794L127.69936920015627,111.88923383720756L128.00087064471774,108.10948598149396L128.1013711262382,107.28086021857895L128.3023720892792,98.75610708521656L128.40287257079967,102.17738646349177L128.50337305232017,106.04073210326841L128.80487449688164,105.83930134272693L128.9053749784021,107.16516723884823L129.10637594144308,105.02514195782658L129.91037979360698,107.23693321867049L130.01088027512748,101.44136073762527L130.11138075664795,97.89094444449523L130.21188123816844,103.54479682980902L130.51338268272988,108.31043643165428L130.61388316425038,105.32418510335462L130.71438364577088,109.32813328500556L131.01588509033235,107.58168669473007L131.11638557185285,108.23949791724115L131.21688605337332,106.18314175350748L132.72439327618062,104.55711991354934L133.0258947207421,107.98328323995773L133.22689568378306,109.64365440549112L133.32739616530353,108.6232088452061L133.52839712834452,106.06406757891536L133.628897609865,107.44292930560715L133.93039905442646,100.54168708268556L134.23190049898793,109.28151464474331L134.3324009805084,108.23682529908065L134.4329014620289,111.88210527026342L134.53340194354936,102.30934817405357L134.73440290659036,107.86816568157475L134.93540386963133,110.84639915539292L135.1364048326723,109.25407988643738L135.33740579571327,109.1068576212901L135.43790627723376,112.4870490620089L135.63890724027473,98.70678729350382L135.8399082033157,105.92107775178025L136.04090916635667,104.89391735725567L136.14140964787717,103.89425829871362L136.24191012939764,109.44147226831377L136.34241061091814,106.10964950964204L136.44291109243864,106.45774613617641L137.44791590764348,94.39813210826584L137.54841638916398,94.25478085945777L137.84991783372544,102.37205007876211L138.2519197598074,107.26218518029374L138.35242024132788,106.73212225252558L138.45292072284838,109.62819887342415L138.65392168588934,106.42580311805527L138.9554231304508,103.14106028783365L139.25692457501225,90.9130475380699L139.45792553805322,97.21097236677433L139.6589265010942,105.89966827320629L139.75942698261468,106.38488638023864L139.96042794565568,101.6660461294921L140.36242987173762,102.29705032607662L140.4629303532581,102.96963228169534L140.5634308347786,98.85718626493441L140.76443179781955,100.74589032790244L140.86493227934002,106.9869768429871L140.96543276086052,102.38491383699014L141.16643372390152,91.95813634979216L141.26693420542202,86.69122390975824L141.3674346869425,94.30575082644042L141.467935168463,98.09959412739909L141.56843564998346,99.75819622895438L141.66893613150395,96.95524751096872L142.1714385391064,100.51069992977841L142.2719390206269,98.85632075513865L142.47293998366786,96.15294846359912L142.8749419097498,94.04499460050349L142.97544239127026,94.60876009927425L143.17644335431123,93.51999157615666L143.5784452803932,98.54775700185739L143.77944624343417,96.74666440574147L143.98044720647513,98.26094988217807L144.1814481695161,97.85051752815642L144.2819486510366,100.18970041761865L144.38244913255707,97.26456264088586L144.4829496140776,101.72440146302858L144.68395057711857,95.47515442701257L144.98545202168,94.01372687024495L145.0859525032005,96.03538179782707L145.28695346624147,93.7628859625725L145.38745394776194,96.35996699342637L145.48795442928244,97.36710652948884L145.68895539232344,93.72555966374374L146.09095731840537,99.1466422250326L146.29195828144634,95.47523051578582L146.3924587629668,94.86203584769079L146.59345972600778,104.59887838342007L146.69396020752828,89.61011765153596L146.99546165208974,95.99016604432167L147.09596213361024,98.69534068867762L147.59846454121265,92.83327137535785L147.69896502273315,95.3336673531492L147.79946550425362,95.82116336783079L148.1009669488151,95.9754809110839L148.30196791185608,100.28507293934257L148.40246839337658,94.06867723117838L148.50296887489705,84.93427706877387L148.60346935641755,91.67595637863624L148.70396983793802,93.56888812406814L148.80447031945852,92.61477295186614L149.10597176401996,96.81753634247804L149.40747320858145,96.93656771713519L149.60847417162242,97.62053445545186L149.90997561618386,92.62842137556834L150.01047609770436,98.83161568157317L150.11097657922483,95.59992574850196L150.21147706074532,95.01190695325694L150.6134789868273,95.2729580231902L151.01548091290923,95.4526892167097L151.2164818759502,100.51780471898087L151.31698235747066,94.8299834519581L151.71898428355263,95.33959276636625L151.81948476507313,96.9043821660493L152.12098620963457,92.07700603580615L152.42248765419603,91.68112090412077L152.824489580278,95.08965065732785L152.92499006179847,95.79078016956136L153.02549054331897,95.82441140733903L153.3269919878804,95.20603319156615L153.52799295092137,98.16436469563043L153.62849343244187,95.58462714952985L153.82949439548287,95.85725322409422L153.92999487700334,86.77298605216656L154.03049535852384,91.03211695711371L154.2314963215648,98.04501469923527L154.33199680308527,99.10652917488345L154.63349824764674,97.72839504708587L155.1360006552492,97.74890097147748L156.34200643349504,99.50544359085393L156.4425069150155,96.58634536049807L156.543007396536,94.54069869159972L156.64350787805648,92.27577844483213L157.04550980413842,94.71883202088091L157.3470112486999,81.8434131883484L157.44751173022038,86.88548330342066L157.64851269326135,90.61458932498626L157.74901317478185,95.31841630966036L157.84951365630232,95.3882277591197L157.95001413782282,93.97717097024538L158.35201606390476,94.93749688856413L158.45251654542523,96.91984720921289L158.55301702694575,92.77261435643051L158.75401798998672,96.02440599228537L158.8545184715072,94.48587673047116L158.9550189530277,91.0247363461082L159.15601991606866,77.2426056471101L159.35702087910963,86.1080652849047L159.96002376823256,95.4763385585463L160.16102473127353,89.64186569217566L160.66352713887593,93.56939221219095L160.76402762039646,92.01105133604106L161.6685319540808,86.5124438259044L161.7690324356013,87.21426764819381L162.17103436168327,89.05996728762909L162.87453773232667,86.20921104229915L163.27653965840864,88.93654654186494L163.3770401399291,88.0876145875881L163.67854158449057,90.91001349823645L163.77904206601104,91.02807949658298L164.0805435105725,90.79228989936958L164.2815444736135,80.83942182527927L164.38204495513398,87.03940138061417L164.48254543665448,86.29758815243213L165.18604880729785,91.66090031262888L165.28654928881835,88.80942122395301L165.38704977033882,87.97366213854555L165.48755025185935,88.00583342298646L165.68855121490031,90.6401456417025L165.78905169642078,86.03832516867027L165.88955217794128,84.44001390882109L165.99005265946175,92.44166623716796L166.09055314098225,90.31363444903026L166.19105362250272,74.87573119973224L166.29155410402322,81.09745787757242L166.79405651162566,88.26813995767841L166.99505747466662,88.38726644330214L167.49755988226906,88.40911343232233L167.59806036378953,87.46853255066263L167.69856084531003,85.04963240457325L167.89956180835102,86.31304844004742L168.60306517899443,84.9405353703739L168.8040661420354,86.03161508997906L169.30656854963783,83.9628231673669L169.40706903115833,82.40749730885716L169.80907095724027,85.0966552664434L170.01007192028123,78.10280825092498L170.11057240180173,84.68147211964182L170.3115733648427,80.73576038281915L170.4120738463632,83.5755218004141L170.61307480940417,84.52530942363735L170.71357529092464,86.46836940399778L171.31657818004757,82.69225478720699L171.41707866156807,86.87245785654946L171.51757914308854,83.37424797296745L172.02008155069097,88.93853911661449L172.12058203221144,77.91562035762674L173.02508636589585,85.35228025573414L173.12558684741632,86.65598054109725L173.42708829197778,82.89539754514668L173.62808925501878,78.03602608575078L173.82909021805975,80.4191977972497L174.03009118110072,84.95254788545117L174.53259358870312,90.40155978207206L174.63309407022362,87.56232623034157L174.83409503326462,86.50989009645211L174.9345955147851,87.88988839919435L175.13559647782606,87.84857695086647L175.33659744086702,79.10258619817526L175.43709792238752,82.7594887294724L175.6380988854285,88.78348921891885L175.738599366949,82.66782077989622L176.14060129303095,85.04040188526804L176.24110177455142,82.04754034479203L176.4421027375924,86.58502776003913L176.5426032191129,86.91154846380802L176.64310370063336,88.79197311713651L176.74360418215386,87.13430785860191L177.04510562671533,77.62358213478629L177.14560610823582,72.01323350557972L177.2461065897563,78.6935091754272L177.64810851583823,85.15508668875314L177.8491094788792,83.69814836960745L177.9496099603997,93.73178467650547L178.05011044192017,88.15541919565291L178.25111140496116,82.21478822394975L178.45211236800213,88.72103460272336L178.6531133310431,86.12369201671147L178.85411429408407,83.45426958468762L178.95461477560457,85.14745403368624L179.05511525712504,70.70755966766036L179.256116220166,81.37883891660917L179.35661670168653,81.7658406840173L179.457117183207,86.28690719088678L179.5576176647275,79.69681098398874L179.65811814624797,81.61742477623962L179.75861862776847,84.42655570705203L179.95961959080944,86.76321340035193L180.0601200723299,81.38602930568155L180.36162151689138,84.9669762190792L180.46212199841185,84.82252643860733L180.66312296145284,88.38699537704743L180.76362344297334,81.11644202649897L181.06512488753478,89.0189221500076L181.16562536905528,92.81490544771401L181.26612585057575,87.7669764971013L181.36662633209625,90.11256986571006L181.66812777665768,88.52906262780684L182.07012970273965,85.88742686466523L182.27113066578062,90.02401204474059L182.37163114730112,84.74951450512305L182.47213162882161,87.912220454144L182.77363307338305,70.50349908889332L182.87413355490358,77.67219334979809L183.07513451794455,88.51612753635389L183.47713644402648,91.18115108617407L183.57763692554695,87.13543492355572L183.67813740706745,88.45698753734325L183.77863788858792,90.28772622173773L183.9796388516289,90.1201406986487L184.38164077771086,87.05694459839724L184.48214125923135,94.51611726229079L184.68314222227232,77.86977687174199L184.7836427037928,82.41295667833803L184.8841431853133,85.82592811368374L184.98464366683376,85.73257194445104L185.18564462987476,88.2764907005429L185.48714607443623,85.75523688778368L185.5876465559567,86.04610049018704L185.6881470374772,86.21527436641772L185.78864751899766,87.01102026819092L186.1906494450796,88.14641218711911L186.2911499266001,86.68089485878917L186.79365233420253,88.12181649116518L186.9946532972435,82.00325667875897L187.095153778764,88.06691844126337L187.19565426028447,82.69819922261736L187.59765618636644,87.80658545912765L187.8991576309279,90.47371096130891L188.10015859396887,88.69010451639615L188.4016600385303,70.79403455846203L188.5021605200508,75.17092710666267L188.60266100157128,80.3030197515895L188.7031614830918,85.87599928203234L188.80366196461227,81.46233683415734L189.00466292765324,84.16271313025004L189.2056638906942,83.25033740572546L189.50716533525568,85.93880580880409L189.60766581677618,81.1492553099642L189.80866677981717,80.40801750312988L189.90916726133764,81.25182773185713L190.00966774285814,82.6584523496895L190.31116918741958,75.46457270483809L190.51217015046055,79.35891500861857L190.61267063198105,83.58888964676493L190.71317111350152,84.95604796902079L190.81367159502202,83.8542064435487L191.51717496566542,86.81565758731634L191.61767544718592,91.52466811966828L191.91917689174736,85.01826480779984L192.42167929934982,80.32128581271847L192.82368122543176,80.47125678479952L193.02468218847272,85.58658612186912L193.4266841145547,86.69564656970354L193.52718459607516,79.78319551937216L193.72818555911613,91.32055998541796L194.13018748519806,80.31778572914884L194.23068796671856,81.87060541368959L194.33118844823903,80.36444716934606L194.53218941128003,76.28207999576155L194.63268989280053,80.9096517629915L194.733190374321,79.66820160524573L195.13519230040293,80.93818505296126L195.3361932634439,89.70100093563796L195.53719422648487,79.66492978799586L195.73819518952587,78.81018655366186L195.83869567104637,78.48145927546862L196.03969663408733,78.9655883619338L196.44169856016927,81.09007726656692L196.64269952321024,83.4487008375952L196.74320000473077,81.00517170671358L197.0447014492922,86.476325436351L197.34620289385367,83.53065795748499L197.7482048199356,84.51498037266832L197.9492057829766,85.47323762746424L198.35120770905854,89.0425524696509L198.75320963514048,84.93451484619028L198.85371011666095,82.20829214493332L198.95421059818145,87.56852270981332L199.3562125242634,78.29246427380563L199.45671300578388,75.29211750026089L199.55721348730438,76.28840487503818L199.75821445034535,82.9614758891683L199.85871493186582,82.14118184692444L199.95921541338632,83.46445121365849L200.1602163764273,85.44207927481729L200.26071685794776,78.19556522106834L200.56221830250925,81.4072342956774L200.66271878402972,85.42684249797344L200.8637197470707,83.58521360790716L201.06472071011166,82.91027290031758L201.16522119163216,81.73591877393568L201.26572167315263,75.80624934112926L201.96922504379606,83.79461942299518L202.17022600683703,84.12678020708144L202.2707264883575,81.67889974947946L202.87372937748043,81.1906904025486L202.97422985900093,82.73086983963273L203.07473034052143,85.24733957077369L203.1752308220419,73.08588547541275L203.2757313035624,77.54409790002721L203.47673226660336,77.75201047294016L203.77823371116483,80.71057975442085L204.48173708180823,77.89976535950021L204.5822375633287,81.37171986076171L204.6827380448492,86.95641706228547L205.18524045245164,71.38080264449674L205.58724237853357,80.01857138388102L205.88874382309504,79.91641269469262L205.98924430461554,86.48836648471826L206.290745749177,80.14563963521299L206.3912462306975,82.3646450628709L206.49174671221797,79.7573015587246L206.59224719373847,77.72279238401113L206.69274767525897,80.84584657107078L206.9942491198204,74.0403430470944L207.0947496013409,71.21064912531043L207.1952500828614,76.68380018524576L207.2957505643819,79.97918117707775L207.69775249046384,83.34150602272715L207.7982529719843,80.54579524929717L207.8987534535048,76.4726253061796L208.20025489806625,74.32694092264727L208.40125586110724,72.06148329891859L208.6022568241482,80.69371658004872L208.80325778718918,83.63938881446308L208.90375826870968,69.40013578795619L209.00425875023015,73.2586355239863L209.20525971327112,79.36827868327696L209.30576019479162,79.47838389372193L209.80826260239405,74.88291207770797L210.00926356543502,76.38244108768185L210.10976404695552,77.14500277322023L210.3107650099965,83.23763533614057L210.61226645455793,81.77027285505926L210.91376789911942,68.09447146113348L211.0142683806399,70.63978359288555L211.21526934368086,79.68476993562149L211.41627030672183,80.26147052584521L211.51677078824233,82.01242537593593L211.6172712697628,81.9132008600661L212.01927319584476,78.62001217601343L212.11977367736526,74.91404189706496L212.32077464040623,80.05325835338758L212.5217756034472,78.12526395013118L213.0242780110496,75.42504458713331L213.42627993713157,83.4640137032123L213.52678041865207,80.286498976697L213.62728090017256,79.69544138607017L213.72778138169303,78.3886880386803L214.93378715993887,82.01970136487822L215.13478812297984,79.23196089044646L215.33578908602084,81.06859169921968L215.5367900490618,83.7353890685663L215.6372905305823,82.6942045620216L215.93879197514374,83.1734639669986L216.03929245666424,79.55876217156671L216.1397929381847,78.477959191899L216.2402934197052,80.35770380181654L216.34079390122568,75.54008130119472L216.44129438274618,69.04670343619749L216.54179486426668,68.70987745920117L216.74279582730765,80.27442463949149L216.84329630882814,82.3797011288783L216.9437967903486,78.83235691996836L217.14479775338958,77.66206403185883L217.64730016099205,77.1102872704237L217.94880160555348,83.17532338639495L218.14980256859445,82.4171368053186L218.25030305011495,78.35070547418222L218.45130401315592,69.71832952660223L218.75280545771736,75.15919992448512L219.05430690227885,77.00366787690336L219.25530786531982,77.04271092867864L219.4563088283608,75.14792927494705L219.55680930988126,79.55523355470714L219.65730979140176,79.03584207738767L219.85831075444273,83.32610755724014L219.9588112359632,80.84159035531697L220.2603126805247,79.78997693128831L220.46131364356566,84.78241338845817L220.56181412508616,85.41327967414115L221.36581797725006,84.44090795190681L221.46631845877053,85.14483372655735L221.6673194218115,86.58268803026161L222.16982182941393,80.99081470631047L222.67232423701637,85.04620365422855L222.77282471853687,85.07646320824148L222.87332520005734,86.17127127773603L223.0743261630983,87.38527241053089L223.1748266446188,91.46919940396707L223.37582760765977,81.63548159324213L223.57682857070077,85.5568687003656L223.8783300152622,69.49870879370505L223.9788304967827,79.17098049423275L224.38083242286464,84.89077806821497L224.88333483046708,87.9325218899575L225.08433579350805,86.32310642476176L225.68733868263095,77.7457997268234L225.78783916415148,77.07928109532321L225.88833964567195,80.02654643842754L225.98884012719245,80.55478323563764L226.08934060871292,80.07189534728616L226.39084205327438,79.09283256855393L226.59184301631535,82.8087894989918L226.8933444608768,84.7905358650029L226.99384494239732,84.70563506069789L227.29534638695876,83.88178386830447L227.49634734999975,82.32010935277647L227.69734831304072,80.8666568505554L227.7978487945612,81.8404029262566L227.8983492760817,80.10294432232156L228.30035120216365,79.85713002923214L228.7023531282456,82.81917561654079L228.80285360976606,84.92461379457077L228.90335409128656,80.62257833260577L229.30535601736852,83.08132997368627L229.405856498889,78.0957843060441L229.60685746192996,72.41818746792717L229.70735794345046,77.56226409464128L229.90835890649143,82.47783662418095L230.0088593880119,83.03604288695593L230.1093598695324,82.26855920889776L230.31036083257337,73.62284394825693L230.41086131409384,83.78059055542674L230.51136179561436,82.05815948420911L230.61186227713483,81.78396883424475L230.9133637216963,86.06518450562848L231.11436468473727,76.82018931130118L231.21486516625774,84.73514799362327L231.81786805538067,77.51429963420212L231.91836853690117,77.4741057397314L232.01886901842164,83.92875441914302L232.42087094450358,81.86024307388223L232.62187190754454,81.31419674818268L232.82287287058554,84.00265564016469L233.22487479666748,75.74543538910706L233.32537527818798,74.05448604782273L233.42587575970845,75.74284837081646L233.9283781673109,79.42158362448879L234.22987961187235,84.33096443010501L234.43088057491335,81.4893245709204L234.6318815379543,78.89291882792917L234.73238201947478,82.54696803022934" style="fill: none;" fill="none"></path></g></g></g></g></g></g><g transform="translate(51, 178)" clip-path="url(#clip_1)"><clipPath id="clip_1"><rect width="278" height="22"></rect></clipPath><g><g><line x1="14.435326526567591" y1="0" x2="14.435326526567591" y2="5" style="visibility: inherit;" fill="rgb(0, 0, 0)" stroke="rgb(204, 204, 204)" stroke-width="1px"></line><line x1="34.53542283066496" y1="0" x2="34.53542283066496" y2="5" style="visibility: inherit;" fill="rgb(0, 0, 0)" stroke="rgb(204, 204, 204)" stroke-width="1px"></line><line x1="54.63551913476233" y1="0" x2="54.63551913476233" y2="5" style="visibility: inherit;" fill="rgb(0, 0, 0)" stroke="rgb(204, 204, 204)" stroke-width="1px"></line><line x1="74.7356154388597" y1="0" x2="74.7356154388597" y2="5" style="visibility: inherit;" fill="rgb(0, 0, 0)" stroke="rgb(204, 204, 204)" stroke-width="1px"></line><line x1="94.83571174295707" y1="0" x2="94.83571174295707" y2="5" style="visibility: inherit;" fill="rgb(0, 0, 0)" stroke="rgb(204, 204, 204)" stroke-width="1px"></line><line x1="114.93580804705444" y1="0" x2="114.93580804705444" y2="5" style="visibility: inherit;" fill="rgb(0, 0, 0)" stroke="rgb(204, 204, 204)" stroke-width="1px"></line><line x1="135.0359043511518" y1="0" x2="135.0359043511518" y2="5" style="visibility: inherit;" fill="rgb(0, 0, 0)" stroke="rgb(204, 204, 204)" stroke-width="1px"></line><line x1="155.1360006552492" y1="0" x2="155.1360006552492" y2="5" style="visibility: inherit;" fill="rgb(0, 0, 0)" stroke="rgb(204, 204, 204)" stroke-width="1px"></line><line x1="175.23609695934655" y1="0" x2="175.23609695934655" y2="5" style="visibility: inherit;" fill="rgb(0, 0, 0)" stroke="rgb(204, 204, 204)" stroke-width="1px"></line><line x1="195.3361932634439" y1="0" x2="195.3361932634439" y2="5" style="visibility: inherit;" fill="rgb(0, 0, 0)" stroke="rgb(204, 204, 204)" stroke-width="1px"></line><line x1="215.43628956754134" y1="0" x2="215.43628956754134" y2="5" style="visibility: inherit;" fill="rgb(0, 0, 0)" stroke="rgb(204, 204, 204)" stroke-width="1px"></line><line x1="235.53638587163869" y1="0" x2="235.53638587163869" y2="5" style="visibility: inherit;" fill="rgb(0, 0, 0)" stroke="rgb(204, 204, 204)" stroke-width="1px"></line><line x1="255.63648217573606" y1="0" x2="255.63648217573606" y2="5" style="visibility: inherit;" fill="rgb(0, 0, 0)" stroke="rgb(204, 204, 204)" stroke-width="1px"></line><line x1="275.73657847983344" y1="0" x2="275.73657847983344" y2="5" style="visibility: inherit;" fill="rgb(0, 0, 0)" stroke="rgb(204, 204, 204)" stroke-width="1px"></line></g><g transform="translate(0, 8)"><text x="14.435326526567591" y="0" dx="0em" dy="0.95em" style="text-anchor: middle; visibility: inherit; font-family: Roboto, sans-serif; font-size: 12px; font-weight: 200;" fill="rgb(50, 49, 63)" stroke="none" stroke-width="1px">0</text><text x="34.53542283066496" y="0" dx="0em" dy="0.95em" style="text-anchor: middle; visibility: hidden; font-family: Roboto, sans-serif; font-size: 12px; font-weight: 200;" fill="rgb(50, 49, 63)" stroke="none" stroke-width="1px">200</text><text x="54.63551913476233" y="0" dx="0em" dy="0.95em" style="text-anchor: middle; visibility: inherit; font-family: Roboto, sans-serif; font-size: 12px; font-weight: 200;" fill="rgb(50, 49, 63)" stroke="none" stroke-width="1px">400</text><text x="74.7356154388597" y="0" dx="0em" dy="0.95em" style="text-anchor: middle; visibility: hidden; font-family: Roboto, sans-serif; font-size: 12px; font-weight: 200;" fill="rgb(50, 49, 63)" stroke="none" stroke-width="1px">600</text><text x="94.83571174295707" y="0" dx="0em" dy="0.95em" style="text-anchor: middle; visibility: inherit; font-family: Roboto, sans-serif; font-size: 12px; font-weight: 200;" fill="rgb(50, 49, 63)" stroke="none" stroke-width="1px">800</text><text x="114.93580804705444" y="0" dx="0em" dy="0.95em" style="text-anchor: middle; visibility: hidden; font-family: Roboto, sans-serif; font-size: 12px; font-weight: 200;" fill="rgb(50, 49, 63)" stroke="none" stroke-width="1px">1k</text><text x="135.0359043511518" y="0" dx="0em" dy="0.95em" style="text-anchor: middle; visibility: inherit; font-family: Roboto, sans-serif; font-size: 12px; font-weight: 200;" fill="rgb(50, 49, 63)" stroke="none" stroke-width="1px">1.2k</text><text x="155.1360006552492" y="0" dx="0em" dy="0.95em" style="text-anchor: middle; visibility: hidden; font-family: Roboto, sans-serif; font-size: 12px; font-weight: 200;" fill="rgb(50, 49, 63)" stroke="none" stroke-width="1px">1.4k</text><text x="175.23609695934655" y="0" dx="0em" dy="0.95em" style="text-anchor: middle; visibility: inherit; font-family: Roboto, sans-serif; font-size: 12px; font-weight: 200;" fill="rgb(50, 49, 63)" stroke="none" stroke-width="1px">1.6k</text><text x="195.3361932634439" y="0" dx="0em" dy="0.95em" style="text-anchor: middle; visibility: hidden; font-family: Roboto, sans-serif; font-size: 12px; font-weight: 200;" fill="rgb(50, 49, 63)" stroke="none" stroke-width="1px">1.8k</text><text x="215.43628956754134" y="0" dx="0em" dy="0.95em" style="text-anchor: middle; visibility: inherit; font-family: Roboto, sans-serif; font-size: 12px; font-weight: 200;" fill="rgb(50, 49, 63)" stroke="none" stroke-width="1px">2k</text><text x="235.53638587163869" y="0" dx="0em" dy="0.95em" style="text-anchor: middle; visibility: hidden; font-family: Roboto, sans-serif; font-size: 12px; font-weight: 200;" fill="rgb(50, 49, 63)" stroke="none" stroke-width="1px">2.2k</text><text x="255.63648217573606" y="0" dx="0em" dy="0.95em" style="text-anchor: middle; visibility: inherit; font-family: Roboto, sans-serif; font-size: 12px; font-weight: 200;" fill="rgb(50, 49, 63)" stroke="none" stroke-width="1px">2.4k</text><text x="275.73657847983344" y="0" dx="0em" dy="0.95em" style="text-anchor: middle; visibility: hidden; font-family: Roboto, sans-serif; font-size: 12px; font-weight: 200;" fill="rgb(50, 49, 63)" stroke="none" stroke-width="1px">2.6k</text></g><line x1="0" y1="0" x2="278.4375" y2="0" fill="rgb(0, 0, 0)" stroke="rgb(204, 204, 204)" stroke-width="1px"></line></g></g></g></g></svg>