<svg viewBox="0 0 330 200" xmlns="http://www.w3.org/2000/svg"><g><g><g><g><g><line x1="41.171875" y1="178" x2="36.171875" y2="178" style="visibility: inherit;" fill="rgb(0, 0, 0)" stroke="rgb(204, 204, 204)" stroke-width="1px"></line><line x1="41.171875" y1="160.20000000000002" x2="36.171875" y2="160.20000000000002" style="visibility: inherit;" fill="rgb(0, 0, 0)" stroke="rgb(204, 204, 204)" stroke-width="1px"></line><line x1="41.171875" y1="142.4" x2="36.171875" y2="142.4" style="visibility: inherit;" fill="rgb(0, 0, 0)" stroke="rgb(204, 204, 204)" stroke-width="1px"></line><line x1="41.171875" y1="124.6" x2="36.171875" y2="124.6" style="visibility: inherit;" fill="rgb(0, 0, 0)" stroke="rgb(204, 204, 204)" stroke-width="1px"></line><line x1="41.171875" y1="106.8" x2="36.171875" y2="106.8" style="visibility: inherit;" fill="rgb(0, 0, 0)" stroke="rgb(204, 204, 204)" stroke-width="1px"></line><line x1="41.171875" y1="89" x2="36.171875" y2="89" style="visibility: inherit;" fill="rgb(0, 0, 0)" stroke="rgb(204, 204, 204)" stroke-width="1px"></line><line x1="41.171875" y1="71.2" x2="36.171875" y2="71.2" style="visibility: inherit;" fill="rgb(0, 0, 0)" stroke="rgb(204, 204, 204)" stroke-width="1px"></line><line x1="41.171875" y1="53.400000000000006" x2="36.171875" y2="53.400000000000006" style="visibility: inherit;" fill="rgb(0, 0, 0)" stroke="rgb(204, 204, 204)" stroke-width="1px"></line><line x1="41.171875" y1="35.599999999999994" x2="36.171875" y2="35.599999999999994" style="visibility: inherit;" fill="rgb(0, 0, 0)" stroke="rgb(204, 204, 204)" stroke-width="1px"></line><line x1="41.171875" y1="17.799999999999997" x2="36.171875" y2="17.799999999999997" style="visibility: inherit;" fill="rgb(0, 0, 0)" stroke="rgb(204, 204, 204)" stroke-width="1px"></line><line x1="41.171875" y1="0" x2="36.171875" y2="0" style="visibility: inherit;" fill="rgb(0, 0, 0)" stroke="rgb(204, 204, 204)" stroke-width="1px"></line></g><g transform="translate(31.171875, 0)"><text x="0" y="178" dx="0em" dy="0.3em" style="text-anchor: end; visibility: hidden; font-family: Roboto, sans-serif; font-size: 12px; font-weight: 200;" fill="rgb(50, 49, 63)" stroke="none" stroke-width="1px">-50</text><text x="0" y="160.20000000000002" dx="0em" dy="0.3em" style="text-anchor: end; visibility: inherit; font-family: Roboto, sans-serif; font-size: 12px; font-weight: 200;" fill="rgb(50, 49, 63)" stroke="none" stroke-width="1px">0</text><text x="0" y="142.4" dx="0em" dy="0.3em" style="text-anchor: end; visibility: hidden; font-family: Roboto, sans-serif; font-size: 12px; font-weight: 200;" fill="rgb(50, 49, 63)" stroke="none" stroke-width="1px">50</text><text x="0" y="124.6" dx="0em" dy="0.3em" style="text-anchor: end; visibility: inherit; font-family: Roboto, sans-serif; font-size: 12px; font-weight: 200;" fill="rgb(50, 49, 63)" stroke="none" stroke-width="1px">100</text><text x="0" y="106.8" dx="0em" dy="0.3em" style="text-anchor: end; visibility: hidden; font-family: Roboto, sans-serif; font-size: 12px; font-weight: 200;" fill="rgb(50, 49, 63)" stroke="none" stroke-width="1px">150</text><text x="0" y="89" dx="0em" dy="0.3em" style="text-anchor: end; visibility: inherit; font-family: Roboto, sans-serif; font-size: 12px; font-weight: 200;" fill="rgb(50, 49, 63)" stroke="none" stroke-width="1px">200</text><text x="0" y="71.2" dx="0em" dy="0.3em" style="text-anchor: end; visibility: hidden; font-family: Roboto, sans-serif; font-size: 12px; font-weight: 200;" fill="rgb(50, 49, 63)" stroke="none" stroke-width="1px">250</text><text x="0" y="53.400000000000006" dx="0em" dy="0.3em" style="text-anchor: end; visibility: inherit; font-family: Roboto, sans-serif; font-size: 12px; font-weight: 200;" fill="rgb(50, 49, 63)" stroke="none" stroke-width="1px">300</text><text x="0" y="35.599999999999994" dx="0em" dy="0.3em" style="text-anchor: end; visibility: hidden; font-family: Roboto, sans-serif; font-size: 12px; font-weight: 200;" fill="rgb(50, 49, 63)" stroke="none" stroke-width="1px">350</text><text x="0" y="17.799999999999997" dx="0em" dy="0.3em" style="text-anchor: end; visibility: inherit; font-family: Roboto, sans-serif; font-size: 12px; font-weight: 200;" fill="rgb(50, 49, 63)" stroke="none" stroke-width="1px">400</text><text x="0" y="0" dx="0em" dy="0.3em" style="text-anchor: end; visibility: hidden; font-family: Roboto, sans-serif; font-size: 12px; font-weight: 200;" fill="rgb(50, 49, 63)" stroke="none" stroke-width="1px">450</text></g><line x1="41.171875" y1="0" x2="41.171875" y2="178" fill="rgb(0, 0, 0)" stroke="rgb(204, 204, 204)" stroke-width="1px"></line></g></g><g transform="translate(41, 0)" clip-path="url(#clip_0)"><clipPath id="clip_0"><rect width="288" height="178"></rect></clipPath><g><g><g><line x1="0" y1="0" x2="0" y2="178" fill="rgb(0, 0, 0)" stroke="rgb(60, 60, 60)" stroke-width="1px" opacity="0.25"></line><line x1="26.257102272727273" y1="0" x2="26.257102272727273" y2="178" fill="rgb(0, 0, 0)" stroke="rgb(60, 60, 60)" stroke-width="1px" opacity="0.25"></line><line x1="52.51420454545455" y1="0" x2="52.51420454545455" y2="178" fill="rgb(0, 0, 0)" stroke="rgb(60, 60, 60)" stroke-width="1px" opacity="0.25"></line><line x1="78.77130681818181" y1="0" x2="78.77130681818181" y2="178" fill="rgb(0, 0, 0)" stroke="rgb(60, 60, 60)" stroke-width="1px" opacity="0.25"></line><line x1="105.0284090909091" y1="0" x2="105.0284090909091" y2="178" fill="rgb(0, 0, 0)" stroke="rgb(60, 60, 60)" stroke-width="1px" opacity="0.25"></line><line x1="131.28551136363635" y1="0" x2="131.28551136363635" y2="178" fill="rgb(0, 0, 0)" stroke="rgb(60, 60, 60)" stroke-width="1px" opacity="0.25"></line><line x1="157.54261363636363" y1="0" x2="157.54261363636363" y2="178" fill="rgb(0, 0, 0)" stroke="rgb(60, 60, 60)" stroke-width="1px" opacity="0.25"></line><line x1="183.7997159090909" y1="0" x2="183.7997159090909" y2="178" fill="rgb(0, 0, 0)" stroke="rgb(60, 60, 60)" stroke-width="1px" opacity="0.25"></line><line x1="210.0568181818182" y1="0" x2="210.0568181818182" y2="178" fill="rgb(0, 0, 0)" stroke="rgb(60, 60, 60)" stroke-width="1px" opacity="0.25"></line><line x1="236.31392045454547" y1="0" x2="236.31392045454547" y2="178" fill="rgb(0, 0, 0)" stroke="rgb(60, 60, 60)" stroke-width="1px" opacity="0.25"></line><line x1="262.5710227272727" y1="0" x2="262.5710227272727" y2="178" fill="rgb(0, 0, 0)" stroke="rgb(60, 60, 60)" stroke-width="1px" opacity="0.25"></line><line x1="288.828125" y1="0" x2="288.828125" y2="178" fill="rgb(0, 0, 0)" stroke="rgb(60, 60, 60)" stroke-width="1px" opacity="0.25"></line></g><g><line x1="0" y1="178" x2="288.828125" y2="178" fill="rgb(0, 0, 0)" stroke="rgb(60, 60, 60)" stroke-width="1px" opacity="0.25"></line><line x1="0" y1="160.20000000000002" x2="288.828125" y2="160.20000000000002" fill="rgb(0, 0, 0)" stroke="rgb(60, 60, 60)" stroke-width="1px" opacity="0.25"></line><line x1="0" y1="142.4" x2="288.828125" y2="142.4" fill="rgb(0, 0, 0)" stroke="rgb(60, 60, 60)" stroke-width="1px" opacity="0.25"></line><line x1="0" y1="124.6" x2="288.828125" y2="124.6" fill="rgb(0, 0, 0)" stroke="rgb(60, 60, 60)" stroke-width="1px" opacity="0.25"></line><line x1="0" y1="106.8" x2="288.828125" y2="106.8" fill="rgb(0, 0, 0)" stroke="rgb(60, 60, 60)" stroke-width="1px" opacity="0.25"></line><line x1="0" y1="89" x2="288.828125" y2="89" fill="rgb(0, 0, 0)" stroke="rgb(60, 60, 60)" stroke-width="1px" opacity="0.25"></line><line x1="0" y1="71.2" x2="288.828125" y2="71.2" fill="rgb(0, 0, 0)" stroke="rgb(60, 60, 60)" stroke-width="1px" opacity="0.25"></line><line x1="0" y1="53.400000000000006" x2="288.828125" y2="53.400000000000006" fill="rgb(0, 0, 0)" stroke="rgb(60, 60, 60)" stroke-width="1px" opacity="0.25"></line><line x1="0" y1="35.599999999999994" x2="288.828125" y2="35.599999999999994" fill="rgb(0, 0, 0)" stroke="rgb(60, 60, 60)" stroke-width="1px" opacity="0.25"></line><line x1="0" y1="17.799999999999997" x2="288.828125" y2="17.799999999999997" fill="rgb(0, 0, 0)" stroke="rgb(60, 60, 60)" stroke-width="1px" opacity="0.25"></line><line x1="0" y1="0" x2="288.828125" y2="0" fill="rgb(0, 0, 0)" stroke="rgb(60, 60, 60)" stroke-width="1px" opacity="0.25"></line></g></g></g><g><g><line x1="0" y1="160.20000000000002" x2="288.828125" y2="160.20000000000002" fill="rgb(0, 0, 0)" stroke="rgb(153, 153, 153)" stroke-width="1.5px"></line></g></g><g><g><line x1="26.257102272727273" y1="0" x2="26.257102272727273" y2="178" fill="rgb(0, 0, 0)" stroke="rgb(153, 153, 153)" stroke-width="1.5px"></line></g></g><g><g><g><g><g><path stroke="rgb(255, 112, 67)" stroke-width="2px" d="M26.729730113636364,156.64000000000001L26.887272727272727,156.64000000000001L27.307386363636365,156.82163265306122L27.359900568181818,156.90176470588236L27.438671875,157.09704371963915L27.7275,157.05464822771214L28.121356534090907,156.88401222049566L28.20012784090909,156.7847399391768L28.725269886363634,156.58240489241467L28.935326704545453,156.60558308511673L29.040355113636366,156.76231848247735L29.56549715909091,156.71328435285923L30.326953125,156.82651850337473L30.40572443181818,156.7518525907065L30.642038352272728,156.84955749380225L30.93086647727273,157.05059121010225L31.062151988636362,156.88632692160462L31.11466619318182,156.93020060877257L32.26997869318182,156.95652196918127L32.401264204545456,156.68750334576166L32.79512073863636,156.81090471450673L32.95266335227273,156.88494380321916L33.083948863636365,156.929366632752L33.267748579545454,155.5320133584585L33.42529119318182,156.26001008479076L33.924176136363634,156.55440655306106L34.34428977272727,156.5886439668783L34.396803977272725,156.8939865676361L34.606860795454544,156.93479195561667L34.921946022727276,156.9592751787826L35.15825994318182,156.83156509032955L35.36831676136364,156.89733905943245L35.788430397727275,156.7944034307441L35.89345880681818,157.01744206483676L37.311342329545454,157.00886523875462L37.33759943181818,157.0037191431997L37.783970170454545,157.0006314859007L37.86274147727273,157.1411788920623L37.94151278409091,157.083107335108L38.33536931818182,156.90586440082788L38.414140625,157.08431864063985L38.440397727272725,157.0489911843669L38.702968750000004,156.8853947105729L39.20185369318182,156.9296368263514L39.75325284090909,156.8137820957988L40.19962357954545,155.6050692574039L40.330909090909095,153.3134415543566L41.03985085227273,150.5144649325511L41.30242187499999,149.11987895951188L41.45996448863636,149.70712737571188L41.643764204545455,148.06587642541916L41.670021306818185,141.95472585523373L42.06387784090909,145.12323551314577L42.536505681818184,145.31554130788766L42.58901988636364,145.85812478473292L42.90410511363636,140.48767487083774L43.08790482954546,143.8158049225034L43.11416193181818,145.6702829535023L43.166676136363634,146.49816977210145L43.245447443181824,148.56130186326095L43.29796164772727,149.0871811179566L43.613046875,148.12110867077394L43.875617897727274,149.53506520246438L44.321988636363635,149.67143912147864L45.004673295454545,151.74686347288718L45.10970170454545,152.7073180837323L45.214730113636364,152.99879085023937L45.42478693181818,153.17367451014363L45.661100852272725,153.42100470608617L46.00244318181818,153.1422028236517L46.10747159090909,152.405321694191L46.34378551136364,150.6815930165146L46.44881392045454,148.79295580990876L46.501328125,133.98937348594526L46.55384232954545,138.20802409156715L46.73764204545454,137.8912144549403L46.86892755681818,138.27072867296417L46.92144176136364,141.20403720377848L47.052727272727275,137.9800223222671L47.10524147727273,137.46961339336028L47.21026988636364,131.89456803601615L47.31529829545454,136.0967408216097L47.472840909090905,141.46604449296584L47.49909801136364,144.5452266957795L48.10301136363636,148.6711360174677L48.20803977272727,151.28908161048062L49.07452414772727,153.00224896628836L49.25832386363636,153.74534937977302L49.41586647727273,154.04880962786382L49.78346590909091,153.6612857767183L49.88849431818182,154.28317146603098L50.07229403409091,154.9411028796186L50.12480823863637,155.33586172777115L50.28235085227273,155.57271703666268L50.33486505681818,154.8604302219976L50.70246448863636,154.71785813319858L50.728721590909096,154.48991487991913L50.99129261363636,155.3499489279515L51.070063920454544,156.00836935677088L51.30637784090909,156.26102161406254L51.41140625,156.69741296843753L51.51643465909091,156.8168477810625L51.75274857954546,156.7461086686375L51.779005681818184,156.7036652011825L51.93654829545455,156.6781991207095L51.96280539772727,156.8053194724257L52.09409090909091,156.73919168345543L52.56671875,156.69951501007324L52.64549005681818,156.96050900604396L52.881803977272725,156.83230540362638L53.66951704545455,156.89778324217582L54.010859375,156.7946699453055L54.16840198863636,156.7328019671833L54.24717329545455,156.69568118030998L54.2996875,156.81580870818598L54.40471590909091,156.8878852249116L54.56225852272728,156.78873113494697L54.69354403409091,156.87163868096818L54.95611505681818,157.0637832085809L55.11365767045455,157.03666992514854L55.24494318181818,157.02040195508914L55.50751420454545,156.86824117305346L56.6103125,156.77694470383207L56.715340909090905,156.72216682229927L56.74159801136364,156.83170009337957L56.767855113636365,157.03982005602774L57.240482954545456,156.87989203361664L57.581825284090904,157.06873522017L57.923167613636366,156.89724113210198L58.60585227272727,156.93674467926118L58.920937499999994,156.9604468075567L59.209765624999996,156.97466808453404L59.28853693181818,156.9832008507204L59.36730823863637,156.98832051043226L59.892450284090906,156.99139230625934L60.04999289772727,156.9932353837556L60.23379261363636,156.99434123025338L60.39133522727273,157.13740473815201L60.81144886363636,156.93844284289122L60.89022017045455,156.81906570573474L61.17904829545455,156.74743942344082L61.257819602272725,156.7044636540645L61.33659090909091,156.6786781924387L61.36284801136364,156.80560691546322L62.623188920454545,156.73936414927795L62.70196022727273,156.84201848956675L62.78073153409091,156.76121109374006L62.806988636363634,156.71272665624403L63.38464488636364,156.82603599374642L63.69973011363636,156.89402159624785L63.752244318181816,156.7924129577487L63.962301136363635,157.01624777464923L64.06732954545456,156.86574866478952L64.72375710227273,156.9178491988737L64.75001420454545,156.80670951932424L65.03884232954546,156.74002571159454L65.24889914772727,156.8424154269567L65.35392755681818,156.90384925617403L65.40644176136364,156.9407095537044L66.2466690340909,156.82042573222265L66.35169744318182,156.8906554393336L67.008125,156.79039326360015L67.42823863636363,157.0150359581601L67.45449573863637,157.00742157489606L67.84835227272727,157.00285294493762L67.95338068181819,156.85771176696258L68.37349431818181,156.91302706017757L68.39975142045455,156.80381623610654L68.74109374999999,156.5958897416639L68.97740767045454,156.75593384499834L69.10869318181818,156.709560306999L69.23997869318183,156.68173618419942L69.31875,156.52264171051965L69.45003551136364,156.7119850263118L69.52880681818182,156.82559101578707L69.84389204545455,157.03615460947225L70.05394886363636,156.87769276568335L70.23774857954545,156.92501565941L70.42154829545454,156.668609395646L70.65786221590909,156.7995656373876L70.762890625,156.73573938243257L70.81540482954546,156.83984362945952L70.8679190340909,156.9023061776757L70.94669034090909,156.37018370660545L71.13049005681819,156.19331022396327L71.36680397727272,156.37198613437795L71.629375,155.62479168062677L71.73440340909092,155.31887500837607L71.78691761363636,155.27772500502564L71.86568892045455,155.8226350030154L71.99697443181819,156.14958100180925L72.07574573863636,156.20334860108554L72.1020028409091,155.95080916065132L72.62714488636362,155.7992854963908L72.86345880681817,155.85077129783448L73.02100142045455,155.3120627787007L73.20480113636363,155.2736376672204L73.23105823863635,155.39298260033226L73.4673721590909,155.46458956019933L73.651171875,154.93795373611962L74.20257102272727,154.33717224167177L74.30759943181818,154.54630334500305L74.57017045454545,154.81418200700185L74.67519886363635,154.2629092042011L74.9115127840909,154.07454552252068L75.25285511363636,154.3887273135124L75.33162642045455,154.71963638810743L75.4891690340909,154.34858183286445L75.54168323863635,153.6987490997187L76.43442471590909,154.5904494598312L76.59196732954545,154.69826967589873L77.03833806818182,154.76296180553922L77.30090909090909,154.80177708332354L77.37968039772728,154.82506624999414L77.43219460227273,155.2662397499965L77.90482244318181,154.9613438499979L78.272421875,154.63600630999875L78.32493607954545,154.29840378599926L78.79756392045454,155.09264227159954L78.90259232954546,155.14198536295973L79.11264914772728,155.45639121777583L79.55901988636363,154.64823473066548L79.71656250000001,154.59054083839928L80.34673295454546,155.1255245030396L80.68807528409091,154.73451470182374L80.76684659090908,154.64230882109425L80.79310369318182,155.01418529265655L80.84561789772727,155.09491117559395L80.89813210227274,155.00094670535637L81.00316051136363,155.3717680232138L81.10818892045454,155.1670608139283L81.29198863636364,154.47463648835696L81.68584517045454,154.34398189301416L82.57858664772726,153.8383891358085L82.68361505681818,154.24703348148512L82.86741477272727,153.21062008889106L83.10372869318182,153.58557205333463L83.41881392045454,153.66814323200077L83.68138494318181,153.86008593920047L83.73389914772727,153.9752515635203L83.78641335227272,153.33235093811217L83.91769886363636,152.6618105628673L83.99647017045454,152.11708633772037L84.20652698863637,151.64785180263223L84.31155539772728,152.36311108157932L84.83669744318182,152.3650666489476L84.96798295454545,152.50863998936856L84.99424005681819,153.30678399362114L85.04675426136365,152.36167039617268L85.12552556818181,152.93380223770362L85.23055397727272,151.99548134262218L85.25681107954544,151.2900888055733L85.44061079545455,151.721253283344L85.51938210227271,151.9799519700064L85.65066761363637,152.13517118200383L86.1495525568182,152.5131027092023L86.41212357954545,151.60066162552138L86.56966619318182,151.05319697531283L86.72720880681817,151.1519181851877L86.83223721590909,150.3567509111126L87.14732244318182,149.87965054666756L87.17357954545454,149.87819032800056L87.83000710227272,150.3045141968003L88.06632102272727,151.12990851808019L88.98531960227272,150.91314511084812L89.01157670454545,149.21668706650888L89.06409090909091,147.20201223990532L89.4316903409091,148.5564073439432L90.2194034090909,143.24584440636593L90.42946022727273,145.61310664381955L90.61325994318182,147.31826398629173L90.66577414772728,148.34135839177503L90.71828835227272,148.100815035065L90.84957386363637,149.665289021039L91.50600142045455,147.18637341262342L91.53225852272728,144.55982404757404L91.79482954545455,144.55029442854442L91.84734375000001,145.68377665712666L91.97862926136364,144.93986599427598L92.34622869318183,139.3671195965656L92.50377130681818,140.29547175793934L92.74008522727273,139.71328305476362L93.13394176136363,143.06636983285816L93.23897017045455,138.6702218997149L93.291484375,139.02293313982892L93.63282670454545,140.37375988389738L93.94791193181818,139.1906559303384L94.2629971590909,137.76879355820304L94.52556818181819,142.18447613492185L94.68311079545455,141.8434856809531L95.12948153409091,140.07249140857186L95.28702414772728,144.4210948451431L95.31328125,142.47345690708588L95.68088068181818,142.58647414425153L95.83842329545455,140.51828448655093L95.96970880681818,139.56217069193056L96.5736221590909,137.56450241515833L96.757421875,137.220301449095L96.88870738636363,137.013780869457L97.23004971590909,137.3170685216742L97.41384943181818,135.9326411130045L97.8077059659091,138.2347846678027L98.12279119318181,140.18567080068163L98.20156250000001,141.92580248040898L98.56916193181819,143.1122814882454L98.59541903409091,144.25136889294723L98.64793323863637,145.36202133576833L99.48816051136363,143.322812801461L99.51441761363637,143.09608768087662L99.54067471590909,126.29925260852595L99.72447443181818,131.17315156511557L100.01330255681819,122.84789093906934L100.40715909090909,126.11193456344162L100.53844460227273,128.92476073806498L101.66749999999999,133.60285644283897L101.90381392045454,132.28011386570338L102.14012784090909,128.35366831942204L102.29767045454547,69.8922009916532L102.40269886363636,34.815320594991945L102.84906960227272,47.09079235699516L102.9015838068182,67.27207541419709L102.92784090909092,82.08644524851826L104.1619247159091,112.05026714911097L104.37198153409092,129.88616028946657L104.97589488636365,140.58769617367994L105.21220880681817,147.15101770420796L105.31723721590909,150.9466106225248L105.422265625,153.36636637351486L105.44852272727272,154.81821982410892L105.73735085227273,155.68933189446537L105.81612215909092,156.21199913667922L106.02617897727272,156.38319948200754L106.1049502840909,156.62831968920452L106.73512073863637,156.77539181352273L106.84014914772727,156.86363508811363L106.89266335227272,156.63178105286818L107.62786221590909,156.7774686317209L108.23177556818182,156.86488117903252L108.62563210227273,156.91732870741953L108.83568892045454,157.09119722445172L108.96697443181817,157.053118334671L109.09825994318183,157.03027100080263L109.20328835227272,156.87416260048155L109.25580255681818,156.78049756028895L109.67591619318182,157.00909853617335L110.1485440340909,157.14625912170402L110.17480113636363,157.2285554730224L110.35860085227273,156.99313328381345L110.4373721590909,157.13667997028807L111.06754261363636,157.08040798217283L111.14631392045455,156.9042447893037L111.33011363636363,156.94094687358222L111.40888494318183,156.82056812414933L111.43514204545455,156.7483408744896L111.48765625,156.84740452469376L111.51391335227272,156.76444271481625L112.17034090909091,156.99946562888974L112.40665482954546,156.99807937733385L113.03682528409091,156.9972476264003L113.24688210227274,157.13914857584018L113.61448153409091,156.9394891455041L113.64073863636364,156.96209348730247L114.08710937500001,156.83325609238148L114.84856534090909,156.7559536554289L114.90107954545454,156.99437219325733L115.16365056818181,156.9950233159544L115.61002130681818,156.85301398957264L115.74130681818181,156.7678083937436L116.31896306818182,156.71668503624616L116.39773437500001,156.9708110217477L116.52901988636364,156.98088661304863L116.81784801136364,156.98693196782918L116.87036221590908,157.1329591806975L117.05416193181819,156.93577550841852L117.21170454545454,156.81746530505112L117.39550426136364,157.03127918303068L117.55304687499999,157.0171675098184L117.63181818181819,157.00870050589103L118.07818892045454,157.1460203035346L118.39327414772727,157.08601218212075L118.47204545454547,157.05000730927247L118.65584517045454,157.02840438556348L119.07595880681819,157.0154426313381L119.12847301136364,157.15006557880287L119.28601562499999,156.94603934728173L119.39104403409091,156.82362360836902L119.81115767045455,156.89257416502141L120.25752840909091,157.07634449901286L120.78267045454545,157.0442066994077L121.25529829545454,157.02492401964463L121.3078125,156.87095441178678L121.36032670454544,156.77857264707208L121.43909801136364,156.72314358824326L121.51786931818182,156.83228615294593L121.96424005681818,156.8977716917676L122.2530681818182,156.93706301506055L122.62066761363637,157.10303780903632L123.40838068181817,157.0602226854218L123.46089488636365,157.03453361125307L124.0910653409091,157.01912016675186L124.19609375,157.0098721000511L124.24860795454545,156.86192326003066L124.40615056818181,157.0579539560184L124.484921875,157.17557237361103L124.53743607954544,156.9613434241666L124.77374999999999,156.97520605449998L124.9575497159091,157.1259236327L125.29889204545455,157.07395417962L125.50894886363638,156.900372507772L125.85029119318182,156.9386235046632L125.90280539772728,157.10397410279793L125.98157670454545,156.91838446167876L126.29666193181818,156.94943067700723L126.4016903409091,156.68325840620435L126.53297585227273,156.8083550437226L126.58549005681817,157.02581302623355L126.84806107954545,156.87148781574012L126.95308948863637,156.92129268944407L127.71454545454546,156.80877561366646L127.8458309659091,156.74126536819986L128.0296306818182,156.84315922091992L129.18494318181817,156.90429553255197L129.395,156.79857731953118L129.57879971590907,156.8775463917187L129.683828125,157.06732783503122L129.97265625,157.03879670101873L130.13019886363637,156.87927802061125L130.28774147727273,156.78356681236676L130.86539772727272,156.86854008742006L131.15422585227273,156.91952405245203L131.28551136363635,156.9501144314712L131.5218252840909,156.82606865888275L131.54808238636363,156.89404119532963L131.86316761363636,157.0772247171978L132.15199573863637,156.90233483031867L132.23076704545454,156.7974008981912L132.4933380681818,156.87684053891473L133.727421875,156.92450432334886L133.85870738636365,156.9531025940093L133.88496448863637,157.11266155640558L134.14753551136363,157.06599693384334L136.06430397727274,157.037998160306L136.35313210227272,156.8787988961836L136.37938920454545,156.78327933771016L136.43190340909092,156.7259676026261L136.48441761363637,156.97638056157567L136.56318892045454,156.84182833694538L136.58944602272726,156.76109700216725L137.24587357954547,156.71265820130034L137.3771590909091,156.6835949207802L137.45593039772726,156.66615695246813L137.6659872159091,156.79809417148087L137.95481534090908,156.73485650288853L138.19112926136364,156.69691390173313L138.2699005681818,156.95894834103987L138.29615767045453,156.83136900462392L138.69001420454543,156.75482140277435L139.1101278409091,156.7088928416646L139.26767045454545,156.82373570499877L139.37269886363637,156.75024142299927L139.6090127840909,156.56374485379956L139.66152698863635,156.87904691227973L139.89784090909092,156.92582814736784L140.0028693181818,156.9538968884207L140.1604119318182,156.68593813305242L140.29169744318182,156.66756287983145L140.97438210227273,156.79893772789887L141.21069602272726,156.73536263673932L141.60455255681816,156.9820175820436L141.78835227272728,156.98761054922616L141.94589488636365,156.84856632953569L142.05092329545454,156.76513979772142L142.07718039772726,156.71508387863287L142.57606534090908,156.8274503271797L142.65483664772728,156.75247019630783L142.81237926136365,156.5650821177847L143.60009232954545,156.73744927067082L143.7576349431818,156.8408695624025L144.1514914772727,156.76052173744148L144.2040056818182,156.8547130424649L144.65037642045453,156.91122782547893L144.67663352272726,156.94513669528735L145.1755184659091,156.82308201717242L145.2017755681818,156.74984921030347L145.280546875,156.84830952618208L145.51686079545456,157.04978571570925L145.80568892045454,156.74347142942554L146.4621164772727,156.70208285765534L146.5408877840909,156.8196497145932L146.8297159090909,156.7477898287559L146.9084872159091,156.70467389725354L146.96100142045455,156.82120433835212L147.013515625,156.8911226030113L147.3286008522727,156.79067356180678L147.7749715909091,157.01520413708405L148.32637073863637,156.86512248225043L148.51017045454546,156.77507348935026L148.72022727272727,156.72104409361015L148.8252556818182,156.8310264561661L149.00905539772725,157.03941587369965L149.0353125,157.0220495242198L149.06156960227273,156.86922971453188L149.324140625,156.77753782871912L150.00682528409092,156.72252269723148L150.13811079545457,156.6895136183389L150.55822443181816,156.81210817100333L150.84705255681817,156.600864902602L150.9520809659091,156.4741189415612L150.9783380681818,156.3980713649367L151.18839488636365,156.63724281896202L151.26716619318182,156.78074569137723L151.34593750000002,156.86684741482634L151.42470880681816,156.7761084488958L151.66102272727272,157.00646506933748L151.76605113636364,157.0022790416025L151.9498508522727,156.7149674249615L151.97610795454545,156.6849804549769L152.13365056818182,156.95178827298614L152.29119318181816,157.11187296379168L152.34370738636366,156.92312377827503L152.4224786931818,156.809874266965L153.34147727272727,156.884324560179L153.6565625,156.9289947361074L154.15544744318183,156.81339684166446L154.20796164772727,156.88643810499866L154.7068465909091,156.6454628629992L154.75936079545457,156.64327771779952L155.2845028409091,156.9267666306797L155.91467329545455,157.09685997840782L155.99344460227272,156.9141159870447L156.33478693181817,156.94686959222682L156.54484375,156.9665217553361L156.78115767045455,156.97831305320165L156.85992897727272,156.842987831921L156.91244318181816,156.9041926991526L156.9387002840909,156.79851561949155L157.30629971590906,156.73510937169493L158.09401278409092,156.69706562301695L158.25155539772726,156.67423937381017L158.33032670454546,156.6605436242861L158.51412642045457,156.65232617457167L158.85546875,156.647395704743L158.90798295454547,156.64443742284578L158.93424005681817,156.50026245370748L159.11803977272726,156.55615747222447L159.59066761363636,156.7320944833347L160.19458096590907,156.8376566900008L160.3258664772727,156.7585940140005L160.85100852272728,156.71115640840029L160.90352272727273,156.8250938450402L161.06106534090907,156.7510563070241L161.74375,156.84903378421447L161.87503551136362,156.76542027052867L162.21637784090908,156.8576521623172L162.32140625000002,156.91299129739033L162.7940340909091,156.8037947784342L163.00409090909093,156.59587686706053L163.60800426136362,156.8983261202363L163.68677556818182,156.7949956721418L163.71303267045454,156.87539740328506L163.81806107954546,156.92363844197104L163.84431818181818,156.81018306518263L164.5270028409091,156.88450983910957L165.13091619318183,156.92910590346574L165.4722585227273,156.95586354207944L165.8923721590909,156.82951812524766L166.18120028409092,157.0385108751486L166.60131392045454,157.02150652508917L166.96891335227272,157.1537039150535L166.99517045454544,157.2330223490321L167.5203125,156.99581340941927L168.15048295454545,156.99588804565155L168.20299715909093,156.99593282739093L168.57059659090908,156.85355969643456L169.0694815340909,156.76813581786072L169.09573863636365,156.71688149071645L169.1482528409091,156.82852889442987L169.27953835227274,156.89551733665792L170.25105113636363,156.79331040199475L170.43485085227275,156.73198624119686L170.53987926136364,156.8375917447181L170.697421875,156.90095504683086L170.85496448863637,156.93897302809853L170.98624999999998,156.8193838168591L171.06502130681818,156.74763029011547L171.11753551136363,156.7045781740693L171.51139204545453,156.82114690444158L171.7477059659091,156.89108814266493L171.9577627840909,156.79065288559897L172.40413352272728,156.87279173135937L172.5354190340909,156.92207503881562L172.58793323863634,156.9516450232894L172.9030184659091,157.11178701397364L172.95553267045455,157.06547220838416L173.11307528409088,157.0376833250305L173.42816051136364,157.0210099950183L173.5594460227273,157.01100599701098L173.82201704545454,157.0050035982066L174.08458806818183,156.85900215892394L174.8197869318182,156.91380129535438L174.87230113636363,156.80428077721263L174.97732954545455,156.73856846632756L175.37118607954545,156.69914107979653L176.4477272727273,156.67548464787794L176.52649857954546,156.66129078872677L176.99912642045456,156.79517447323605L177.47175426136363,156.73310468394163L177.918125,156.69586281036499L177.9968963068182,156.673517686219L178.12818181818182,156.9449106117314L178.25946732954546,157.10774636703883L178.73209517045456,157.2054478202233L178.75835227272728,157.121668692134L179.20472301136365,156.9290012152804L179.2834943181818,156.95580072916823L179.4672940340909,156.97188043750094L180.17623579545455,156.98152826250058L180.22875,156.98731695750035L180.4125497159091,156.9907901745002L180.8851775568182,157.13527410470013L180.93769176136365,157.0795644628201L181.12149147727274,157.04613867769203L181.35780539772725,157.02608320661523L181.62037642045456,157.01404992396914L181.64663352272726,157.1492299543815L181.90920454545454,157.08793797262888L182.01423295454546,156.90876278357732L182.0404900568182,156.9436576701464L182.539375,156.96459460208783L182.67066051136365,156.8347567612527L182.7231747159091,156.89925405675163L182.82820312500002,156.93795243405097L183.06451704545455,156.81877146043058L183.53714488636365,156.88966287625834L184.0622869318182,157.074597725755L184.1935724431818,156.900758635453L184.42988636363637,157.0812551812718L184.5874289772727,157.0471531087631L184.61368607954546,156.88429186525786L184.71871448863635,156.78657511915472L184.79748579545455,156.87034507149284L185.37514204545457,157.0630070428957L185.84776988636364,156.89380422573743L185.95279829545456,156.79228253544244L186.08408380681817,156.73136952126546L186.26788352272726,156.69482171275928L186.50419744318182,156.81529302765557L186.55671164772727,156.88757581659334L186.81928267045456,156.930945489956L186.97682528409092,157.09936729397361L187.02933948863637,156.91562037638417L187.1868821022727,156.8053722258305L187.23939630681818,156.73922333549828L187.29191051136365,156.69953400129899L187.60699573863636,156.81812040077938L187.6595099431818,156.88927224046762L187.71202414772728,157.07436334428058L188.31593750000002,157.04301800656836L188.55225142045455,157.166610803941L188.63102272727272,157.0983664823646L189.05113636363637,156.91501988941877L189.31370738636363,156.80501193365126L189.33996448863635,156.88140716019075L189.3924786931818,157.06964429611446L189.55002130681817,156.89778657766868L189.70756392045456,156.9370719466012L189.89136363636362,156.81824316796073L190.02264914772726,156.74694590077644L190.20644886363635,156.70416754046587L190.36399147727272,156.6785005242795L190.70533380681817,156.6631003145677L191.3880184659091,156.9386601887406L191.99193181818183,156.96159611324438L192.09696022727272,156.97535766794664L192.12321732954547,156.98361460076796L192.30701704545456,156.9885687604608L192.7533877840909,156.9915412562765L193.0422159090909,156.85092475376587L193.33104403409092,157.05135485225952L193.51484375,156.88681291135572L193.67238636363638,156.78808774681343L194.3025568181818,156.87125264808805L195.74669744318183,156.77875158885283L195.85172585227272,156.8656509533117L196.19306818181818,157.06019057198702L196.4818963068182,157.1769143431922L196.58692471590908,156.96214860591533L196.79698153409092,156.8332891635492L196.82323863636364,156.8983734981295L196.92826704545453,157.0798240988777L197.16458096590907,157.04629445932662L197.19083806818182,156.88377667559598L197.45340909090908,156.7862660053576L197.47966619318183,156.87015960321457L197.50592329545452,156.92049576192872L197.71598011363636,156.95069745715725L198.2411221590909,156.82641847429434L198.87129261363637,156.8942510845766L199.02883522727274,156.79255065074597L199.05509232954546,156.73153039044757L199.13386363636363,156.69491823426856L199.39643465909091,156.67295094056112L199.63274857954548,156.65977056433667L199.71151988636362,156.794262338602L199.97409090909093,156.8749574031612L200.10537642045455,157.06577444189674L201.05063210227271,156.89546466513804L201.28694602272728,156.93567879908284L201.33946022727272,156.95980727944968L201.44448863636364,156.8318843676698L201.60203124999998,156.7551306206019L201.68080255681818,156.70907837236112L201.86460227272727,156.82384702341668L202.07465909090908,156.89270821405003L202.15343039772728,156.79162492843L202.3634872159091,156.873374957058L202.46851562499998,157.0648249742348L202.57354403409093,157.0372949845409L203.17745738636364,157.16317699072454L203.28248579545453,157.0963061944347L203.46628551136362,156.77138371666084L203.57131392045454,156.8612302299965L203.86014204545452,156.9151381379979L204.17522727272728,156.94748288279874L204.59534090909094,156.96688972967925L205.2517684659091,156.97853383780753L205.645625,156.98552030268453L206.01322443181817,156.84731218161073L206.22328124999999,156.62198730896642L206.43333806818183,156.77159238537985L206.5908806818182,156.7189554312279L206.6171377840909,156.82977325873676L207.0635085227273,156.75386395524205L207.29982244318182,156.70831837314523L207.667421875,156.68099102388712L207.7461931818182,156.6645946143323L208.3238494318182,156.65475676859936L208.77022017045454,156.79125406115963L209.0853053977273,156.73075243669575L209.16407670454544,156.83685146201745L209.32161931818183,156.90051087721048L209.7942471590909,156.93870652632629L209.84676136363635,156.81922391579576L210.31938920454544,157.03233434947748L210.42441761363634,156.87540060968647L210.50318892045453,156.7812403658119L210.97581676136363,156.72474421948712L211.08084517045455,156.69084653169227L211.26464488636364,156.81290791901537L211.6059872159091,156.88614475140923L211.76352982954543,156.93008685084553L212.13112926136364,156.95645211050734L212.44621448863634,156.8298712663044L212.63001420454546,156.75392275978265L212.8400710227273,156.85075365586957L213.05012784090908,156.90885219352177L213.0763849431818,156.80131131611304L213.6540411931818,156.73678678966783L213.75906960227275,156.69807207380072L214.1266690340909,156.95964324428041L214.44175426136366,157.11658594656825L214.46801136363635,157.21075156794095L214.65181107954544,157.1248509407646L215.01941051136365,157.07331056445875L215.176953125,157.04238633867524L215.3607528409091,156.88143180320515L215.41326704545455,156.9272590819231L215.6495809659091,156.95475544915385L215.70209517045456,156.9712532694923L215.72835227272725,156.83875196169538L216.2272372159091,156.61685117701725L216.30600852272727,156.76851070621035L216.5423224431818,156.8595064237262L216.88366477272726,156.77170385423574L217.25126420454546,156.86142231254144L217.51383522727275,156.77285338752486L217.93394886363635,156.86211203251491L218.22277698863635,157.05806721950896L218.69540482954545,157.03324033170537L218.9579758522727,157.0183441990232L218.98423295454546,157.00940651941394L219.1417755681818,157.00404391164835L219.32557528409092,157.00082634698902L219.4306036931818,156.9988958081934L219.45686079545456,156.99773748491606L219.48311789772725,156.99704249094964L220.06077414772727,156.8542254945698L220.08703125,157.05333529674186L220.19205965909092,157.03040117804514L220.24457386363636,156.87424070682707L220.4808877840909,156.78054442409623L220.58591619318182,156.86672665445775L221.3473721590909,156.77603599267465L221.37362926136365,156.7216215956048L221.60994318181815,156.83137295736287L221.68871448863635,156.75482377441773L221.87251420454547,156.70889426465064L222.13508522727273,156.82373655879036L222.16134232954545,156.75024193527423L222.18759943181817,156.70614516116453L222.21385653409092,156.6796870966987L222.34514204545457,156.94861225801924L222.5026846590909,156.96756735481154L222.60771306818182,156.9789404128869L222.66022727272727,156.98576424773216L223.08034090909092,157.1322585486393L223.23788352272726,156.93535512918356L223.264140625,156.81721307751016L223.47419744318182,156.88872784650607L223.97308238636364,156.78923670790365L224.41945312500002,156.8719420247422L225.1021377840909,156.7791652148453L225.7060511363636,156.8658991289072L226.0473934659091,156.9179394773443L226.12616477272726,156.80676368640658L226.94013494318182,157.02485821184393L226.96639204545457,156.87091492710636L227.38650568181816,156.92094895626383L227.41276278409092,157.0933693737583L227.67533380681817,156.91202162425498L227.75410511363637,156.94561297455297L227.80661931818182,156.6809677847318L228.09544744318183,156.80698067083907L228.25299005681816,156.74018840250343L228.33176136363636,156.70011304150208L228.43678977272728,156.67606782490122L228.90941761363638,156.66164069494076L228.93567471590907,156.65298441696444L229.04070312500002,156.64779065017865L229.11947443181816,156.78707439010722L229.17198863636364,156.7282446340643L229.5395880681818,156.8353467804386L229.64461647727273,156.61480806826316L229.93344460227271,156.6248848409579L230.0122159090909,156.63093090457474L230.53735795454546,156.63455854274486L230.74741477272727,156.6367351256469L231.00998579545455,156.78044107538815L231.03624289772728,156.8666646452329L231.32507102272726,156.91839878713972L231.92898437500003,156.80703927228384L232.0602698863636,156.7402235633703L232.50664062500002,156.8425341380222L233.11055397727273,156.9039204828133L233.66195312500003,156.940752289688L233.68821022727272,156.8204513738128L233.79323863636364,156.89067082428767L233.89826704545453,156.9328024945726L234.37089488636363,156.95808149674355L234.52843750000002,156.68844889804615L234.55469460227272,156.81146933882766L235.65749289772728,156.88528160329662L235.8675497159091,156.78716896197795L236.07760653409093,156.5859013771868L236.10386363636363,156.74994082631207L236.55023437499997,156.70596449578724L236.89157670454546,156.67957869747235L236.99660511363638,156.6637472184834L237.2854332386364,156.79664833109004L237.6005184659091,156.87638899865402L237.6792897727273,156.7818333991924L237.73180397727273,156.72510003951547L237.83683238636362,156.83346002370928L238.04688920454544,156.75607601422558L239.6223153409091,156.85204560853535L239.77985795454543,156.9096273651212L239.8061150568182,156.94417641907273L239.85862926136363,156.96490585144363L240.25248579545453,156.83494351086617L240.43628551136362,156.89936610651972L241.04019886363636,156.79561966391182L241.14522727272728,156.7333717983471L241.4340553977273,156.69602307900826L241.51282670454543,156.95841384740496L241.95919744318184,156.83104830844297L242.11674005681817,156.75462898506578L242.45808238636363,156.70877739103946L242.98322443181817,156.96606643462368L243.21953835227274,157.1204398607742L243.58713778409088,157.07066391646453L243.6396519886364,157.0407983498787L243.69216619318183,156.88047900992723L243.92848011363637,156.78428740595635L244.1647940340909,157.0113724435738L244.37485085227274,156.86282346614428L244.8999928977273,156.77369407968658L244.95250710227273,156.86261644781194L245.0312784090909,156.77356986868716L245.08379261363635,157.0049419212123L245.24133522727274,156.8589651527274L245.55642045454545,156.77137909163645L245.5826775568182,156.86122745498184L245.7664772727273,156.9151364729891L245.84524857954545,156.94748188379347L245.9765340909091,156.9668891302761L246.1603338068182,157.12093347816565L246.21284801136363,157.0709600868994L247.55196022727273,156.89857605213965L247.84078835227274,156.7951456312838L247.9195596590909,156.59068737877027L248.05084517045455,156.75281242726214L248.4709588068182,156.8500874563573L248.5759872159091,156.76605247381437L248.6022443181818,156.85803148428863L248.6547585227273,156.91321889057318L248.73352982954546,156.9463313343439L248.91732954545455,156.96619880060635L249.02235795454544,156.9781192803638L249.12738636363636,156.7004715682183L249.3637002840909,156.81868294093096L249.38995738636365,156.60480976455858L249.5212428977273,156.76128585873516L249.62627130681818,156.99757151524108L249.6525284090909,156.99694290914465L250.0463849431818,156.8541657454868L250.86035511363636,156.91089944729208L251.1754403409091,156.94493966837524L251.35924005681818,156.96536380102515L251.4905255681818,157.12001828061508L251.858125,156.92801096836905L252.09443892045454,156.81280658102142L252.48829545454547,156.74368394861287L252.77712357954545,156.9870103691677L252.96092329545453,156.84820622150062L252.98718039772726,156.76492373290037L253.06595170454545,156.85735423974023L253.22349431818182,156.77041254384415L254.22126420454546,156.71824752630647L254.30003551136366,156.8293485157839L254.3525497159091,156.89600910947033L254.43132102272725,156.7936054656822L254.457578125,157.01696327940934L254.56260653409092,157.1509779676456L255.4028338068182,156.94658678058735L255.77043323863637,156.96635206835242L256.479375,156.83581124101144L256.63691761363634,156.75748674460687L256.74194602272723,156.71049204676413L257.21457386363636,156.82469522805846L257.34585937500003,156.75081713683508L257.73971590909093,156.84889028210105L257.8184872159091,156.76533416926063L257.89725852272727,156.8576005015564L258.44865767045457,156.91296030093383L258.7374857954546,156.94617618056031L259.07882812500003,156.9661057083362L259.1050852272727,156.8356634250017L259.36765625,156.75739805500103L259.44642755681815,156.7104388330006L259.5514559659091,156.68226329980038L259.99782670454545,156.80775797988022L260.0503409090909,156.88305478792813L260.1291122159091,157.07063287275687L260.68051136363636,157.18317972365412L260.7330255681818,156.96590783419248L260.8643110795455,156.6931447005155L261.1531392045455,156.8142868203093L261.36319602272727,157.02937209218558L261.46822443181816,156.87362325531134L261.91459517045456,156.78017395318682L262.0721377840909,156.8665043719121L262.3347088068182,156.63350262314725L262.38722301136363,156.77850157388835L262.544765625,156.723100944333L262.67605113636364,156.83226056659979L262.80733664772725,156.8977563399599L262.8861079545455,157.07945380397592L263.2799644886364,156.90367228238554L263.3062215909091,156.79820336943135L264.01516335227274,156.8773220216588L264.2252201704546,156.63999321299528L264.4877911931818,156.49759592779716L264.56656250000003,156.8393575566783L264.7766193181818,156.90201453400698L265.32801846590905,156.93960872040418L265.48556107954545,156.9621652322425L265.77438920454546,156.97569913934552L265.8006463068182,156.9838194836073L266.6408735795455,156.84629169016438L266.66713068181815,156.90617501409864L266.82467329545455,156.94210500845918L268.19004261363636,156.8212630050755L268.2425568181818,156.7487578030453L268.4263565340909,156.70525468182717L268.5051278409091,156.6791528090963L268.68892755681816,156.66349168545779L269.39786931818185,156.65409501127468L269.9492684659091,156.6484570067648L270.2118394886364,156.6450742040589L270.631953125,156.64304452243533L270.68446732954544,156.6418267134612L270.73698153409094,156.7834960280767L270.86826704545456,156.86849761684604L271.7084943181818,156.77709857010763L271.8397798295455,156.72225914206456L272.1286079545455,156.83175548523874L272.15486505681815,157.03985329114326L272.18112215909093,156.87991197468594L272.2598934659091,156.78394718481158L272.31240767045455,156.72636831088695" style="fill: none;" fill="none"></path></g></g></g></g><g opacity="0.2"><g><g><g><path stroke="rgb(255, 112, 67)" stroke-width="2px" d="M26.729730113636364,156.64000000000001L26.887272727272727,156.64000000000001L27.307386363636365,156.996L27.359900568181818,156.996L27.438671875,157.352L27.7275,156.996L28.121356534090907,156.64000000000001L28.20012784090909,156.64000000000001L28.725269886363634,156.284L28.935326704545453,156.64000000000001L29.040355113636366,156.996L29.56549715909091,156.64000000000001L30.326953125,156.996L30.40572443181818,156.64000000000001L30.642038352272728,156.996L30.93086647727273,157.352L31.062151988636362,156.64000000000001L31.11466619318182,156.996L32.26997869318182,156.996L32.401264204545456,156.284L32.79512073863636,156.996L32.95266335227273,156.996L33.083948863636365,156.996L33.267748579545454,153.436L33.42529119318182,157.352L33.924176136363634,156.996L34.34428977272727,156.64000000000001L34.396803977272725,157.352L34.606860795454544,156.996L34.921946022727276,156.996L35.15825994318182,156.64000000000001L35.36831676136364,156.996L35.788430397727275,156.64000000000001L35.89345880681818,157.352L37.311342329545454,156.996L37.33759943181818,156.996L37.783970170454545,156.996L37.86274147727273,157.352L37.94151278409091,156.996L38.33536931818182,156.64000000000001L38.414140625,157.352L38.440397727272725,156.996L38.702968750000004,156.64000000000001L39.20185369318182,156.996L39.75325284090909,156.64000000000001L40.19962357954545,153.792L40.330909090909095,149.876L41.03985085227273,146.316L41.30242187499999,147.02800000000002L41.45996448863636,150.588L41.643764204545455,145.604L41.670021306818185,132.788L42.06387784090909,149.876L42.536505681818184,145.604L42.58901988636364,146.67200000000003L42.90410511363636,132.432L43.08790482954546,148.808L43.11416193181818,148.452L43.166676136363634,147.73999999999998L43.245447443181824,151.656L43.29796164772727,149.876L43.613046875,146.67200000000003L43.875617897727274,151.656L44.321988636363635,149.876L45.004673295454545,154.85999999999999L45.10970170454545,154.148L45.214730113636364,153.436L45.42478693181818,153.436L45.661100852272725,153.792L46.00244318181818,152.724L46.10747159090909,151.29999999999998L46.34378551136364,148.096L46.44881392045454,145.96L46.501328125,111.784L46.55384232954545,144.536L46.73764204545454,137.416L46.86892755681818,138.84L46.92144176136364,145.604L47.052727272727275,133.144L47.10524147727273,136.704L47.21026988636364,123.532L47.31529829545454,142.4L47.472840909090905,149.51999999999998L47.49909801136364,149.164L48.10301136363636,154.85999999999999L48.20803977272727,155.216L49.07452414772727,155.572L49.25832386363636,154.85999999999999L49.41586647727273,154.504L49.78346590909091,153.07999999999998L49.88849431818182,155.216L50.07229403409091,155.928L50.12480823863637,155.928L50.28235085227273,155.928L50.33486505681818,153.792L50.70246448863636,154.504L50.728721590909096,154.148L50.99129261363636,156.64000000000001L51.070063920454544,156.996L51.30637784090909,156.64000000000001L51.41140625,157.352L51.51643465909091,156.996L51.75274857954546,156.64000000000001L51.779005681818184,156.64000000000001L51.93654829545455,156.64000000000001L51.96280539772727,156.996L52.09409090909091,156.64000000000001L52.56671875,156.64000000000001L52.64549005681818,157.352L52.881803977272725,156.64000000000001L53.66951704545455,156.996L54.010859375,156.64000000000001L54.16840198863636,156.64000000000001L54.24717329545455,156.64000000000001L54.2996875,156.996L54.40471590909091,156.996L54.56225852272728,156.64000000000001L54.69354403409091,156.996L54.95611505681818,157.352L55.11365767045455,156.996L55.24494318181818,156.996L55.50751420454545,156.64000000000001L56.6103125,156.64000000000001L56.715340909090905,156.64000000000001L56.74159801136364,156.996L56.767855113636365,157.352L57.240482954545456,156.64000000000001L57.581825284090904,157.352L57.923167613636366,156.64000000000001L58.60585227272727,156.996L58.920937499999994,156.996L59.209765624999996,156.996L59.28853693181818,156.996L59.36730823863637,156.996L59.892450284090906,156.996L60.04999289772727,156.996L60.23379261363636,156.996L60.39133522727273,157.352L60.81144886363636,156.64000000000001L60.89022017045455,156.64000000000001L61.17904829545455,156.64000000000001L61.257819602272725,156.64000000000001L61.33659090909091,156.64000000000001L61.36284801136364,156.996L62.623188920454545,156.64000000000001L62.70196022727273,156.996L62.78073153409091,156.64000000000001L62.806988636363634,156.64000000000001L63.38464488636364,156.996L63.69973011363636,156.996L63.752244318181816,156.64000000000001L63.962301136363635,157.352L64.06732954545456,156.64000000000001L64.72375710227273,156.996L64.75001420454545,156.64000000000001L65.03884232954546,156.64000000000001L65.24889914772727,156.996L65.35392755681818,156.996L65.40644176136364,156.996L66.2466690340909,156.64000000000001L66.35169744318182,156.996L67.008125,156.64000000000001L67.42823863636363,157.352L67.45449573863637,156.996L67.84835227272727,156.996L67.95338068181819,156.64000000000001L68.37349431818181,156.996L68.39975142045455,156.64000000000001L68.74109374999999,156.284L68.97740767045454,156.996L69.10869318181818,156.64000000000001L69.23997869318183,156.64000000000001L69.31875,156.284L69.45003551136364,156.996L69.52880681818182,156.996L69.84389204545455,157.352L70.05394886363636,156.64000000000001L70.23774857954545,156.996L70.42154829545454,156.284L70.65786221590909,156.996L70.762890625,156.64000000000001L70.81540482954546,156.996L70.8679190340909,156.996L70.94669034090909,155.572L71.13049005681819,155.928L71.36680397727272,156.64000000000001L71.629375,154.504L71.73440340909092,154.85999999999999L71.78691761363636,155.216L71.86568892045455,156.64000000000001L71.99697443181819,156.64000000000001L72.07574573863636,156.284L72.1020028409091,155.572L72.62714488636362,155.572L72.86345880681817,155.928L73.02100142045455,154.504L73.20480113636363,155.216L73.23105823863635,155.572L73.4673721590909,155.572L73.651171875,154.148L74.20257102272727,153.436L74.30759943181818,154.85999999999999L74.57017045454545,155.216L74.67519886363635,153.436L74.9115127840909,153.792L75.25285511363636,154.85999999999999L75.33162642045455,155.216L75.4891690340909,153.792L75.54168323863635,152.724L76.43442471590909,155.928L76.59196732954545,154.85999999999999L77.03833806818182,154.85999999999999L77.30090909090909,154.85999999999999L77.37968039772728,154.85999999999999L77.43219460227273,155.928L77.90482244318181,154.504L78.272421875,154.148L78.32493607954545,153.792L78.79756392045454,156.284L78.90259232954546,155.216L79.11264914772728,155.928L79.55901988636363,153.436L79.71656250000001,154.504L80.34673295454546,155.928L80.68807528409091,154.148L80.76684659090908,154.504L80.79310369318182,155.572L80.84561789772727,155.216L80.89813210227274,154.85999999999999L81.00316051136363,155.928L81.10818892045454,154.85999999999999L81.29198863636364,153.436L81.68584517045454,154.148L82.57858664772726,153.07999999999998L82.68361505681818,154.85999999999999L82.86741477272727,151.656L83.10372869318182,154.148L83.41881392045454,153.792L83.68138494318181,154.148L83.73389914772727,154.148L83.78641335227272,152.368L83.91769886363636,151.656L83.99647017045454,151.29999999999998L84.20652698863637,150.944L84.31155539772728,153.436L84.83669744318182,152.368L84.96798295454545,152.724L84.99424005681819,154.504L85.04675426136365,150.944L85.12552556818181,153.792L85.23055397727272,150.588L85.25681107954544,150.232L85.44061079545455,152.368L85.51938210227271,152.368L85.65066761363637,152.368L86.1495525568182,153.07999999999998L86.41212357954545,150.232L86.56966619318182,150.232L86.72720880681817,151.29999999999998L86.83223721590909,149.164L87.14732244318182,149.164L87.17357954545454,149.876L87.83000710227272,150.944L88.06632102272727,152.368L88.98531960227272,150.588L89.01157670454545,146.67200000000003L89.06409090909091,144.18L89.4316903409091,150.588L90.2194034090909,135.28L90.42946022727273,149.164L90.61325994318182,149.876L90.66577414772728,149.876L90.71828835227272,147.73999999999998L90.84957386363637,152.012L91.50600142045455,143.46800000000002L91.53225852272728,140.62L91.79482954545455,144.536L91.84734375000001,147.38400000000001L91.97862926136364,143.824L92.34622869318183,131.008L92.50377130681818,141.68800000000002L92.74008522727273,138.84L93.13394176136363,148.096L93.23897017045455,132.076L93.291484375,139.552L93.63282670454545,142.4L93.94791193181818,137.416L94.2629971590909,135.636L94.52556818181819,148.808L94.68311079545455,141.332L95.12948153409091,137.416L95.28702414772728,150.944L95.31328125,139.552L95.68088068181818,142.756L95.83842329545455,137.416L95.96970880681818,138.12800000000001L96.5736221590909,134.568L96.757421875,136.704L96.88870738636363,136.704L97.23004971590909,137.772L97.41384943181818,133.856L97.8077059659091,141.68800000000002L98.12279119318181,143.112L98.20156250000001,144.536L98.56916193181819,144.892L98.59541903409091,145.96L98.64793323863637,147.02800000000002L99.48816051136363,140.264L99.51441761363637,142.756L99.54067471590909,101.10400000000001L99.72447443181818,138.484L100.01330255681819,110.36L100.40715909090909,131.008L100.53844460227273,133.144L101.66749999999999,140.62L101.90381392045454,130.296L102.14012784090909,122.46399999999998L102.29767045454547,-17.800000000000015L102.40269886363636,-17.800000000000015L102.84906960227272,65.504L102.9015838068182,97.54400000000001L102.92784090909092,104.308L104.1619247159091,156.996L104.37198153409092,156.64000000000001L104.97589488636365,156.64000000000001L105.21220880681817,156.996L105.31723721590909,156.64000000000001L105.422265625,156.996L105.44852272727272,156.996L105.73735085227273,156.996L105.81612215909092,156.996L106.02617897727272,156.64000000000001L106.1049502840909,156.996L106.73512073863637,156.996L106.84014914772727,156.996L106.89266335227272,156.284L107.62786221590909,156.996L108.23177556818182,156.996L108.62563210227273,156.996L108.83568892045454,157.352L108.96697443181817,156.996L109.09825994318183,156.996L109.20328835227272,156.64000000000001L109.25580255681818,156.64000000000001L109.67591619318182,157.352L110.1485440340909,157.352L110.17480113636363,157.352L110.35860085227273,156.64000000000001L110.4373721590909,157.352L111.06754261363636,156.996L111.14631392045455,156.64000000000001L111.33011363636363,156.996L111.40888494318183,156.64000000000001L111.43514204545455,156.64000000000001L111.48765625,156.996L111.51391335227272,156.64000000000001L112.17034090909091,157.352L112.40665482954546,156.996L113.03682528409091,156.996L113.24688210227274,157.352L113.61448153409091,156.64000000000001L113.64073863636364,156.996L114.08710937500001,156.64000000000001L114.84856534090909,156.64000000000001L114.90107954545454,157.352L115.16365056818181,156.996L115.61002130681818,156.64000000000001L115.74130681818181,156.64000000000001L116.31896306818182,156.64000000000001L116.39773437500001,157.352L116.52901988636364,156.996L116.81784801136364,156.996L116.87036221590908,157.352L117.05416193181819,156.64000000000001L117.21170454545454,156.64000000000001L117.39550426136364,157.352L117.55304687499999,156.996L117.63181818181819,156.996L118.07818892045454,157.352L118.39327414772727,156.996L118.47204545454547,156.996L118.65584517045454,156.996L119.07595880681819,156.996L119.12847301136364,157.352L119.28601562499999,156.64000000000001L119.39104403409091,156.64000000000001L119.81115767045455,156.996L120.25752840909091,157.352L120.78267045454545,156.996L121.25529829545454,156.996L121.3078125,156.64000000000001L121.36032670454544,156.64000000000001L121.43909801136364,156.64000000000001L121.51786931818182,156.996L121.96424005681818,156.996L122.2530681818182,156.996L122.62066761363637,157.352L123.40838068181817,156.996L123.46089488636365,156.996L124.0910653409091,156.996L124.19609375,156.996L124.24860795454545,156.64000000000001L124.40615056818181,157.352L124.484921875,157.352L124.53743607954544,156.64000000000001L124.77374999999999,156.996L124.9575497159091,157.352L125.29889204545455,156.996L125.50894886363638,156.64000000000001L125.85029119318182,156.996L125.90280539772728,157.352L125.98157670454545,156.64000000000001L126.29666193181818,156.996L126.4016903409091,156.284L126.53297585227273,156.996L126.58549005681817,157.352L126.84806107954545,156.64000000000001L126.95308948863637,156.996L127.71454545454546,156.64000000000001L127.8458309659091,156.64000000000001L128.0296306818182,156.996L129.18494318181817,156.996L129.395,156.64000000000001L129.57879971590907,156.996L129.683828125,157.352L129.97265625,156.996L130.13019886363637,156.64000000000001L130.28774147727273,156.64000000000001L130.86539772727272,156.996L131.15422585227273,156.996L131.28551136363635,156.996L131.5218252840909,156.64000000000001L131.54808238636363,156.996L131.86316761363636,157.352L132.15199573863637,156.64000000000001L132.23076704545454,156.64000000000001L132.4933380681818,156.996L133.727421875,156.996L133.85870738636365,156.996L133.88496448863637,157.352L134.14753551136363,156.996L136.06430397727274,156.996L136.35313210227272,156.64000000000001L136.37938920454545,156.64000000000001L136.43190340909092,156.64000000000001L136.48441761363637,157.352L136.56318892045454,156.64000000000001L136.58944602272726,156.64000000000001L137.24587357954547,156.64000000000001L137.3771590909091,156.64000000000001L137.45593039772726,156.64000000000001L137.6659872159091,156.996L137.95481534090908,156.64000000000001L138.19112926136364,156.64000000000001L138.2699005681818,157.352L138.29615767045453,156.64000000000001L138.69001420454543,156.64000000000001L139.1101278409091,156.64000000000001L139.26767045454545,156.996L139.37269886363637,156.64000000000001L139.6090127840909,156.284L139.66152698863635,157.352L139.89784090909092,156.996L140.0028693181818,156.996L140.1604119318182,156.284L140.29169744318182,156.64000000000001L140.97438210227273,156.996L141.21069602272726,156.64000000000001L141.60455255681816,157.352L141.78835227272728,156.996L141.94589488636365,156.64000000000001L142.05092329545454,156.64000000000001L142.07718039772726,156.64000000000001L142.57606534090908,156.996L142.65483664772728,156.64000000000001L142.81237926136365,156.284L143.60009232954545,156.996L143.7576349431818,156.996L144.1514914772727,156.64000000000001L144.2040056818182,156.996L144.65037642045453,156.996L144.67663352272726,156.996L145.1755184659091,156.64000000000001L145.2017755681818,156.64000000000001L145.280546875,156.996L145.51686079545456,157.352L145.80568892045454,156.284L146.4621164772727,156.64000000000001L146.5408877840909,156.996L146.8297159090909,156.64000000000001L146.9084872159091,156.64000000000001L146.96100142045455,156.996L147.013515625,156.996L147.3286008522727,156.64000000000001L147.7749715909091,157.352L148.32637073863637,156.64000000000001L148.51017045454546,156.64000000000001L148.72022727272727,156.64000000000001L148.8252556818182,156.996L149.00905539772725,157.352L149.0353125,156.996L149.06156960227273,156.64000000000001L149.324140625,156.64000000000001L150.00682528409092,156.64000000000001L150.13811079545457,156.64000000000001L150.55822443181816,156.996L150.84705255681817,156.284L150.9520809659091,156.284L150.9783380681818,156.284L151.18839488636365,156.996L151.26716619318182,156.996L151.34593750000002,156.996L151.42470880681816,156.64000000000001L151.66102272727272,157.352L151.76605113636364,156.996L151.9498508522727,156.284L151.97610795454545,156.64000000000001L152.13365056818182,157.352L152.29119318181816,157.352L152.34370738636366,156.64000000000001L152.4224786931818,156.64000000000001L153.34147727272727,156.996L153.6565625,156.996L154.15544744318183,156.64000000000001L154.20796164772727,156.996L154.7068465909091,156.284L154.75936079545457,156.64000000000001L155.2845028409091,157.352L155.91467329545455,157.352L155.99344460227272,156.64000000000001L156.33478693181817,156.996L156.54484375,156.996L156.78115767045455,156.996L156.85992897727272,156.64000000000001L156.91244318181816,156.996L156.9387002840909,156.64000000000001L157.30629971590906,156.64000000000001L158.09401278409092,156.64000000000001L158.25155539772726,156.64000000000001L158.33032670454546,156.64000000000001L158.51412642045457,156.64000000000001L158.85546875,156.64000000000001L158.90798295454547,156.64000000000001L158.93424005681817,156.284L159.11803977272726,156.64000000000001L159.59066761363636,156.996L160.19458096590907,156.996L160.3258664772727,156.64000000000001L160.85100852272728,156.64000000000001L160.90352272727273,156.996L161.06106534090907,156.64000000000001L161.74375,156.996L161.87503551136362,156.64000000000001L162.21637784090908,156.996L162.32140625000002,156.996L162.7940340909091,156.64000000000001L163.00409090909093,156.284L163.60800426136362,157.352L163.68677556818182,156.64000000000001L163.71303267045454,156.996L163.81806107954546,156.996L163.84431818181818,156.64000000000001L164.5270028409091,156.996L165.13091619318183,156.996L165.4722585227273,156.996L165.8923721590909,156.64000000000001L166.18120028409092,157.352L166.60131392045454,156.996L166.96891335227272,157.352L166.99517045454544,157.352L167.5203125,156.64000000000001L168.15048295454545,156.996L168.20299715909093,156.996L168.57059659090908,156.64000000000001L169.0694815340909,156.64000000000001L169.09573863636365,156.64000000000001L169.1482528409091,156.996L169.27953835227274,156.996L170.25105113636363,156.64000000000001L170.43485085227275,156.64000000000001L170.53987926136364,156.996L170.697421875,156.996L170.85496448863637,156.996L170.98624999999998,156.64000000000001L171.06502130681818,156.64000000000001L171.11753551136363,156.64000000000001L171.51139204545453,156.996L171.7477059659091,156.996L171.9577627840909,156.64000000000001L172.40413352272728,156.996L172.5354190340909,156.996L172.58793323863634,156.996L172.9030184659091,157.352L172.95553267045455,156.996L173.11307528409088,156.996L173.42816051136364,156.996L173.5594460227273,156.996L173.82201704545454,156.996L174.08458806818183,156.64000000000001L174.8197869318182,156.996L174.87230113636363,156.64000000000001L174.97732954545455,156.64000000000001L175.37118607954545,156.64000000000001L176.4477272727273,156.64000000000001L176.52649857954546,156.64000000000001L176.99912642045456,156.996L177.47175426136363,156.64000000000001L177.918125,156.64000000000001L177.9968963068182,156.64000000000001L178.12818181818182,157.352L178.25946732954546,157.352L178.73209517045456,157.352L178.75835227272728,156.996L179.20472301136365,156.64000000000001L179.2834943181818,156.996L179.4672940340909,156.996L180.17623579545455,156.996L180.22875,156.996L180.4125497159091,156.996L180.8851775568182,157.352L180.93769176136365,156.996L181.12149147727274,156.996L181.35780539772725,156.996L181.62037642045456,156.996L181.64663352272726,157.352L181.90920454545454,156.996L182.01423295454546,156.64000000000001L182.0404900568182,156.996L182.539375,156.996L182.67066051136365,156.64000000000001L182.7231747159091,156.996L182.82820312500002,156.996L183.06451704545455,156.64000000000001L183.53714488636365,156.996L184.0622869318182,157.352L184.1935724431818,156.64000000000001L184.42988636363637,157.352L184.5874289772727,156.996L184.61368607954546,156.64000000000001L184.71871448863635,156.64000000000001L184.79748579545455,156.996L185.37514204545457,157.352L185.84776988636364,156.64000000000001L185.95279829545456,156.64000000000001L186.08408380681817,156.64000000000001L186.26788352272726,156.64000000000001L186.50419744318182,156.996L186.55671164772727,156.996L186.81928267045456,156.996L186.97682528409092,157.352L187.02933948863637,156.64000000000001L187.1868821022727,156.64000000000001L187.23939630681818,156.64000000000001L187.29191051136365,156.64000000000001L187.60699573863636,156.996L187.6595099431818,156.996L187.71202414772728,157.352L188.31593750000002,156.996L188.55225142045455,157.352L188.63102272727272,156.996L189.05113636363637,156.64000000000001L189.31370738636363,156.64000000000001L189.33996448863635,156.996L189.3924786931818,157.352L189.55002130681817,156.64000000000001L189.70756392045456,156.996L189.89136363636362,156.64000000000001L190.02264914772726,156.64000000000001L190.20644886363635,156.64000000000001L190.36399147727272,156.64000000000001L190.70533380681817,156.64000000000001L191.3880184659091,157.352L191.99193181818183,156.996L192.09696022727272,156.996L192.12321732954547,156.996L192.30701704545456,156.996L192.7533877840909,156.996L193.0422159090909,156.64000000000001L193.33104403409092,157.352L193.51484375,156.64000000000001L193.67238636363638,156.64000000000001L194.3025568181818,156.996L195.74669744318183,156.64000000000001L195.85172585227272,156.996L196.19306818181818,157.352L196.4818963068182,157.352L196.58692471590908,156.64000000000001L196.79698153409092,156.64000000000001L196.82323863636364,156.996L196.92826704545453,157.352L197.16458096590907,156.996L197.19083806818182,156.64000000000001L197.45340909090908,156.64000000000001L197.47966619318183,156.996L197.50592329545452,156.996L197.71598011363636,156.996L198.2411221590909,156.64000000000001L198.87129261363637,156.996L199.02883522727274,156.64000000000001L199.05509232954546,156.64000000000001L199.13386363636363,156.64000000000001L199.39643465909091,156.64000000000001L199.63274857954548,156.64000000000001L199.71151988636362,156.996L199.97409090909093,156.996L200.10537642045455,157.352L201.05063210227271,156.64000000000001L201.28694602272728,156.996L201.33946022727272,156.996L201.44448863636364,156.64000000000001L201.60203124999998,156.64000000000001L201.68080255681818,156.64000000000001L201.86460227272727,156.996L202.07465909090908,156.996L202.15343039772728,156.64000000000001L202.3634872159091,156.996L202.46851562499998,157.352L202.57354403409093,156.996L203.17745738636364,157.352L203.28248579545453,156.996L203.46628551136362,156.284L203.57131392045454,156.996L203.86014204545452,156.996L204.17522727272728,156.996L204.59534090909094,156.996L205.2517684659091,156.996L205.645625,156.996L206.01322443181817,156.64000000000001L206.22328124999999,156.284L206.43333806818183,156.996L206.5908806818182,156.64000000000001L206.6171377840909,156.996L207.0635085227273,156.64000000000001L207.29982244318182,156.64000000000001L207.667421875,156.64000000000001L207.7461931818182,156.64000000000001L208.3238494318182,156.64000000000001L208.77022017045454,156.996L209.0853053977273,156.64000000000001L209.16407670454544,156.996L209.32161931818183,156.996L209.7942471590909,156.996L209.84676136363635,156.64000000000001L210.31938920454544,157.352L210.42441761363634,156.64000000000001L210.50318892045453,156.64000000000001L210.97581676136363,156.64000000000001L211.08084517045455,156.64000000000001L211.26464488636364,156.996L211.6059872159091,156.996L211.76352982954543,156.996L212.13112926136364,156.996L212.44621448863634,156.64000000000001L212.63001420454546,156.64000000000001L212.8400710227273,156.996L213.05012784090908,156.996L213.0763849431818,156.64000000000001L213.6540411931818,156.64000000000001L213.75906960227275,156.64000000000001L214.1266690340909,157.352L214.44175426136366,157.352L214.46801136363635,157.352L214.65181107954544,156.996L215.01941051136365,156.996L215.176953125,156.996L215.3607528409091,156.64000000000001L215.41326704545455,156.996L215.6495809659091,156.996L215.70209517045456,156.996L215.72835227272725,156.64000000000001L216.2272372159091,156.284L216.30600852272727,156.996L216.5423224431818,156.996L216.88366477272726,156.64000000000001L217.25126420454546,156.996L217.51383522727275,156.64000000000001L217.93394886363635,156.996L218.22277698863635,157.352L218.69540482954545,156.996L218.9579758522727,156.996L218.98423295454546,156.996L219.1417755681818,156.996L219.32557528409092,156.996L219.4306036931818,156.996L219.45686079545456,156.996L219.48311789772725,156.996L220.06077414772727,156.64000000000001L220.08703125,157.352L220.19205965909092,156.996L220.24457386363636,156.64000000000001L220.4808877840909,156.64000000000001L220.58591619318182,156.996L221.3473721590909,156.64000000000001L221.37362926136365,156.64000000000001L221.60994318181815,156.996L221.68871448863635,156.64000000000001L221.87251420454547,156.64000000000001L222.13508522727273,156.996L222.16134232954545,156.64000000000001L222.18759943181817,156.64000000000001L222.21385653409092,156.64000000000001L222.34514204545457,157.352L222.5026846590909,156.996L222.60771306818182,156.996L222.66022727272727,156.996L223.08034090909092,157.352L223.23788352272726,156.64000000000001L223.264140625,156.64000000000001L223.47419744318182,156.996L223.97308238636364,156.64000000000001L224.41945312500002,156.996L225.1021377840909,156.64000000000001L225.7060511363636,156.996L226.0473934659091,156.996L226.12616477272726,156.64000000000001L226.94013494318182,157.352L226.96639204545457,156.64000000000001L227.38650568181816,156.996L227.41276278409092,157.352L227.67533380681817,156.64000000000001L227.75410511363637,156.996L227.80661931818182,156.284L228.09544744318183,156.996L228.25299005681816,156.64000000000001L228.33176136363636,156.64000000000001L228.43678977272728,156.64000000000001L228.90941761363638,156.64000000000001L228.93567471590907,156.64000000000001L229.04070312500002,156.64000000000001L229.11947443181816,156.996L229.17198863636364,156.64000000000001L229.5395880681818,156.996L229.64461647727273,156.284L229.93344460227271,156.64000000000001L230.0122159090909,156.64000000000001L230.53735795454546,156.64000000000001L230.74741477272727,156.64000000000001L231.00998579545455,156.996L231.03624289772728,156.996L231.32507102272726,156.996L231.92898437500003,156.64000000000001L232.0602698863636,156.64000000000001L232.50664062500002,156.996L233.11055397727273,156.996L233.66195312500003,156.996L233.68821022727272,156.64000000000001L233.79323863636364,156.996L233.89826704545453,156.996L234.37089488636363,156.996L234.52843750000002,156.284L234.55469460227272,156.996L235.65749289772728,156.996L235.8675497159091,156.64000000000001L236.07760653409093,156.284L236.10386363636363,156.996L236.55023437499997,156.64000000000001L236.89157670454546,156.64000000000001L236.99660511363638,156.64000000000001L237.2854332386364,156.996L237.6005184659091,156.996L237.6792897727273,156.64000000000001L237.73180397727273,156.64000000000001L237.83683238636362,156.996L238.04688920454544,156.64000000000001L239.6223153409091,156.996L239.77985795454543,156.996L239.8061150568182,156.996L239.85862926136363,156.996L240.25248579545453,156.64000000000001L240.43628551136362,156.996L241.04019886363636,156.64000000000001L241.14522727272728,156.64000000000001L241.4340553977273,156.64000000000001L241.51282670454543,157.352L241.95919744318184,156.64000000000001L242.11674005681817,156.64000000000001L242.45808238636363,156.64000000000001L242.98322443181817,157.352L243.21953835227274,157.352L243.58713778409088,156.996L243.6396519886364,156.996L243.69216619318183,156.64000000000001L243.92848011363637,156.64000000000001L244.1647940340909,157.352L244.37485085227274,156.64000000000001L244.8999928977273,156.64000000000001L244.95250710227273,156.996L245.0312784090909,156.64000000000001L245.08379261363635,157.352L245.24133522727274,156.64000000000001L245.55642045454545,156.64000000000001L245.5826775568182,156.996L245.7664772727273,156.996L245.84524857954545,156.996L245.9765340909091,156.996L246.1603338068182,157.352L246.21284801136363,156.996L247.55196022727273,156.64000000000001L247.84078835227274,156.64000000000001L247.9195596590909,156.284L248.05084517045455,156.996L248.4709588068182,156.996L248.5759872159091,156.64000000000001L248.6022443181818,156.996L248.6547585227273,156.996L248.73352982954546,156.996L248.91732954545455,156.996L249.02235795454544,156.996L249.12738636363636,156.284L249.3637002840909,156.996L249.38995738636365,156.284L249.5212428977273,156.996L249.62627130681818,157.352L249.6525284090909,156.996L250.0463849431818,156.64000000000001L250.86035511363636,156.996L251.1754403409091,156.996L251.35924005681818,156.996L251.4905255681818,157.352L251.858125,156.64000000000001L252.09443892045454,156.64000000000001L252.48829545454547,156.64000000000001L252.77712357954545,157.352L252.96092329545453,156.64000000000001L252.98718039772726,156.64000000000001L253.06595170454545,156.996L253.22349431818182,156.64000000000001L254.22126420454546,156.64000000000001L254.30003551136366,156.996L254.3525497159091,156.996L254.43132102272725,156.64000000000001L254.457578125,157.352L254.56260653409092,157.352L255.4028338068182,156.64000000000001L255.77043323863637,156.996L256.479375,156.64000000000001L256.63691761363634,156.64000000000001L256.74194602272723,156.64000000000001L257.21457386363636,156.996L257.34585937500003,156.64000000000001L257.73971590909093,156.996L257.8184872159091,156.64000000000001L257.89725852272727,156.996L258.44865767045457,156.996L258.7374857954546,156.996L259.07882812500003,156.996L259.1050852272727,156.64000000000001L259.36765625,156.64000000000001L259.44642755681815,156.64000000000001L259.5514559659091,156.64000000000001L259.99782670454545,156.996L260.0503409090909,156.996L260.1291122159091,157.352L260.68051136363636,157.352L260.7330255681818,156.64000000000001L260.8643110795455,156.284L261.1531392045455,156.996L261.36319602272727,157.352L261.46822443181816,156.64000000000001L261.91459517045456,156.64000000000001L262.0721377840909,156.996L262.3347088068182,156.284L262.38722301136363,156.996L262.544765625,156.64000000000001L262.67605113636364,156.996L262.80733664772725,156.996L262.8861079545455,157.352L263.2799644886364,156.64000000000001L263.3062215909091,156.64000000000001L264.01516335227274,156.996L264.2252201704546,156.284L264.4877911931818,156.284L264.56656250000003,157.352L264.7766193181818,156.996L265.32801846590905,156.996L265.48556107954545,156.996L265.77438920454546,156.996L265.8006463068182,156.996L266.6408735795455,156.64000000000001L266.66713068181815,156.996L266.82467329545455,156.996L268.19004261363636,156.64000000000001L268.2425568181818,156.64000000000001L268.4263565340909,156.64000000000001L268.5051278409091,156.64000000000001L268.68892755681816,156.64000000000001L269.39786931818185,156.64000000000001L269.9492684659091,156.64000000000001L270.2118394886364,156.64000000000001L270.631953125,156.64000000000001L270.68446732954544,156.64000000000001L270.73698153409094,156.996L270.86826704545456,156.996L271.7084943181818,156.64000000000001L271.8397798295455,156.64000000000001L272.1286079545455,156.996L272.15486505681815,157.352L272.18112215909093,156.64000000000001L272.2598934659091,156.64000000000001L272.31240767045455,156.64000000000001" style="fill: none;" fill="none"></path></g></g></g></g></g></g><g transform="translate(41, 178)" clip-path="url(#clip_1)"><clipPath id="clip_1"><rect width="288" height="22"></rect></clipPath><g><g><line x1="0" y1="0" x2="0" y2="5" style="visibility: inherit;" fill="rgb(0, 0, 0)" stroke="rgb(204, 204, 204)" stroke-width="1px"></line><line x1="26.257102272727273" y1="0" x2="26.257102272727273" y2="5" style="visibility: inherit;" fill="rgb(0, 0, 0)" stroke="rgb(204, 204, 204)" stroke-width="1px"></line><line x1="52.51420454545455" y1="0" x2="52.51420454545455" y2="5" style="visibility: inherit;" fill="rgb(0, 0, 0)" stroke="rgb(204, 204, 204)" stroke-width="1px"></line><line x1="78.77130681818181" y1="0" x2="78.77130681818181" y2="5" style="visibility: inherit;" fill="rgb(0, 0, 0)" stroke="rgb(204, 204, 204)" stroke-width="1px"></line><line x1="105.0284090909091" y1="0" x2="105.0284090909091" y2="5" style="visibility: inherit;" fill="rgb(0, 0, 0)" stroke="rgb(204, 204, 204)" stroke-width="1px"></line><line x1="131.28551136363635" y1="0" x2="131.28551136363635" y2="5" style="visibility: inherit;" fill="rgb(0, 0, 0)" stroke="rgb(204, 204, 204)" stroke-width="1px"></line><line x1="157.54261363636363" y1="0" x2="157.54261363636363" y2="5" style="visibility: inherit;" fill="rgb(0, 0, 0)" stroke="rgb(204, 204, 204)" stroke-width="1px"></line><line x1="183.7997159090909" y1="0" x2="183.7997159090909" y2="5" style="visibility: inherit;" fill="rgb(0, 0, 0)" stroke="rgb(204, 204, 204)" stroke-width="1px"></line><line x1="210.0568181818182" y1="0" x2="210.0568181818182" y2="5" style="visibility: inherit;" fill="rgb(0, 0, 0)" stroke="rgb(204, 204, 204)" stroke-width="1px"></line><line x1="236.31392045454547" y1="0" x2="236.31392045454547" y2="5" style="visibility: inherit;" fill="rgb(0, 0, 0)" stroke="rgb(204, 204, 204)" stroke-width="1px"></line><line x1="262.5710227272727" y1="0" x2="262.5710227272727" y2="5" style="visibility: inherit;" fill="rgb(0, 0, 0)" stroke="rgb(204, 204, 204)" stroke-width="1px"></line><line x1="288.828125" y1="0" x2="288.828125" y2="5" style="visibility: inherit;" fill="rgb(0, 0, 0)" stroke="rgb(204, 204, 204)" stroke-width="1px"></line></g><g transform="translate(0, 8)"><text x="0" y="0" dx="0em" dy="0.95em" style="text-anchor: middle; visibility: hidden; font-family: Roboto, sans-serif; font-size: 12px; font-weight: 200;" fill="rgb(50, 49, 63)" stroke="none" stroke-width="1px">-1k</text><text x="26.257102272727273" y="0" dx="0em" dy="0.95em" style="text-anchor: middle; visibility: inherit; font-family: Roboto, sans-serif; font-size: 12px; font-weight: 200;" fill="rgb(50, 49, 63)" stroke="none" stroke-width="1px">0</text><text x="52.51420454545455" y="0" dx="0em" dy="0.95em" style="text-anchor: middle; visibility: inherit; font-family: Roboto, sans-serif; font-size: 12px; font-weight: 200;" fill="rgb(50, 49, 63)" stroke="none" stroke-width="1px">1k</text><text x="78.77130681818181" y="0" dx="0em" dy="0.95em" style="text-anchor: middle; visibility: inherit; font-family: Roboto, sans-serif; font-size: 12px; font-weight: 200;" fill="rgb(50, 49, 63)" stroke="none" stroke-width="1px">2k</text><text x="105.0284090909091" y="0" dx="0em" dy="0.95em" style="text-anchor: middle; visibility: inherit; font-family: Roboto, sans-serif; font-size: 12px; font-weight: 200;" fill="rgb(50, 49, 63)" stroke="none" stroke-width="1px">3k</text><text x="131.28551136363635" y="0" dx="0em" dy="0.95em" style="text-anchor: middle; visibility: inherit; font-family: Roboto, sans-serif; font-size: 12px; font-weight: 200;" fill="rgb(50, 49, 63)" stroke="none" stroke-width="1px">4k</text><text x="157.54261363636363" y="0" dx="0em" dy="0.95em" style="text-anchor: middle; visibility: inherit; font-family: Roboto, sans-serif; font-size: 12px; font-weight: 200;" fill="rgb(50, 49, 63)" stroke="none" stroke-width="1px">5k</text><text x="183.7997159090909" y="0" dx="0em" dy="0.95em" style="text-anchor: middle; visibility: inherit; font-family: Roboto, sans-serif; font-size: 12px; font-weight: 200;" fill="rgb(50, 49, 63)" stroke="none" stroke-width="1px">6k</text><text x="210.0568181818182" y="0" dx="0em" dy="0.95em" style="text-anchor: middle; visibility: inherit; font-family: Roboto, sans-serif; font-size: 12px; font-weight: 200;" fill="rgb(50, 49, 63)" stroke="none" stroke-width="1px">7k</text><text x="236.31392045454547" y="0" dx="0em" dy="0.95em" style="text-anchor: middle; visibility: inherit; font-family: Roboto, sans-serif; font-size: 12px; font-weight: 200;" fill="rgb(50, 49, 63)" stroke="none" stroke-width="1px">8k</text><text x="262.5710227272727" y="0" dx="0em" dy="0.95em" style="text-anchor: middle; visibility: inherit; font-family: Roboto, sans-serif; font-size: 12px; font-weight: 200;" fill="rgb(50, 49, 63)" stroke="none" stroke-width="1px">9k</text><text x="288.828125" y="0" dx="0em" dy="0.95em" style="text-anchor: middle; visibility: hidden; font-family: Roboto, sans-serif; font-size: 12px; font-weight: 200;" fill="rgb(50, 49, 63)" stroke="none" stroke-width="1px">10k</text></g><line x1="0" y1="0" x2="288.828125" y2="0" fill="rgb(0, 0, 0)" stroke="rgb(204, 204, 204)" stroke-width="1px"></line></g></g></g></g></svg>