<svg viewBox="0 0 330 200" xmlns="http://www.w3.org/2000/svg"><g><g><g><g><g><line x1="50" y1="178" x2="45" y2="178" style="visibility: inherit;" fill="rgb(0, 0, 0)" stroke="rgb(204, 204, 204)" stroke-width="1px"></line><line x1="50" y1="158.2222222222222" x2="45" y2="158.2222222222222" style="visibility: inherit;" fill="rgb(0, 0, 0)" stroke="rgb(204, 204, 204)" stroke-width="1px"></line><line x1="50" y1="138.44444444444446" x2="45" y2="138.44444444444446" style="visibility: inherit;" fill="rgb(0, 0, 0)" stroke="rgb(204, 204, 204)" stroke-width="1px"></line><line x1="50" y1="118.66666666666669" x2="45" y2="118.66666666666669" style="visibility: inherit;" fill="rgb(0, 0, 0)" stroke="rgb(204, 204, 204)" stroke-width="1px"></line><line x1="50" y1="98.8888888888889" x2="45" y2="98.8888888888889" style="visibility: inherit;" fill="rgb(0, 0, 0)" stroke="rgb(204, 204, 204)" stroke-width="1px"></line><line x1="50" y1="79.1111111111111" x2="45" y2="79.1111111111111" style="visibility: inherit;" fill="rgb(0, 0, 0)" stroke="rgb(204, 204, 204)" stroke-width="1px"></line><line x1="50" y1="59.33333333333334" x2="45" y2="59.33333333333334" style="visibility: inherit;" fill="rgb(0, 0, 0)" stroke="rgb(204, 204, 204)" stroke-width="1px"></line><line x1="50" y1="39.55555555555555" x2="45" y2="39.55555555555555" style="visibility: inherit;" fill="rgb(0, 0, 0)" stroke="rgb(204, 204, 204)" stroke-width="1px"></line><line x1="50" y1="19.777777777777786" x2="45" y2="19.777777777777786" style="visibility: inherit;" fill="rgb(0, 0, 0)" stroke="rgb(204, 204, 204)" stroke-width="1px"></line><line x1="50" y1="0" x2="45" y2="0" style="visibility: inherit;" fill="rgb(0, 0, 0)" stroke="rgb(204, 204, 204)" stroke-width="1px"></line></g><g transform="translate(40, 0)"><text x="0" y="178" dx="0em" dy="0.3em" style="text-anchor: end; visibility: hidden; font-family: Roboto, sans-serif; font-size: 12px; font-weight: 200;" fill="rgb(50, 49, 63)" stroke="none" stroke-width="1px">-350</text><text x="0" y="158.2222222222222" dx="0em" dy="0.3em" style="text-anchor: end; visibility: inherit; font-family: Roboto, sans-serif; font-size: 12px; font-weight: 200;" fill="rgb(50, 49, 63)" stroke="none" stroke-width="1px">-300</text><text x="0" y="138.44444444444446" dx="0em" dy="0.3em" style="text-anchor: end; visibility: hidden; font-family: Roboto, sans-serif; font-size: 12px; font-weight: 200;" fill="rgb(50, 49, 63)" stroke="none" stroke-width="1px">-250</text><text x="0" y="118.66666666666669" dx="0em" dy="0.3em" style="text-anchor: end; visibility: inherit; font-family: Roboto, sans-serif; font-size: 12px; font-weight: 200;" fill="rgb(50, 49, 63)" stroke="none" stroke-width="1px">-200</text><text x="0" y="98.8888888888889" dx="0em" dy="0.3em" style="text-anchor: end; visibility: hidden; font-family: Roboto, sans-serif; font-size: 12px; font-weight: 200;" fill="rgb(50, 49, 63)" stroke="none" stroke-width="1px">-150</text><text x="0" y="79.1111111111111" dx="0em" dy="0.3em" style="text-anchor: end; visibility: inherit; font-family: Roboto, sans-serif; font-size: 12px; font-weight: 200;" fill="rgb(50, 49, 63)" stroke="none" stroke-width="1px">-100</text><text x="0" y="59.33333333333334" dx="0em" dy="0.3em" style="text-anchor: end; visibility: hidden; font-family: Roboto, sans-serif; font-size: 12px; font-weight: 200;" fill="rgb(50, 49, 63)" stroke="none" stroke-width="1px">-50</text><text x="0" y="39.55555555555555" dx="0em" dy="0.3em" style="text-anchor: end; visibility: inherit; font-family: Roboto, sans-serif; font-size: 12px; font-weight: 200;" fill="rgb(50, 49, 63)" stroke="none" stroke-width="1px">0</text><text x="0" y="19.777777777777786" dx="0em" dy="0.3em" style="text-anchor: end; visibility: hidden; font-family: Roboto, sans-serif; font-size: 12px; font-weight: 200;" fill="rgb(50, 49, 63)" stroke="none" stroke-width="1px">50</text><text x="0" y="0" dx="0em" dy="0.3em" style="text-anchor: end; visibility: hidden; font-family: Roboto, sans-serif; font-size: 12px; font-weight: 200;" fill="rgb(50, 49, 63)" stroke="none" stroke-width="1px">100</text></g><line x1="50" y1="0" x2="50" y2="178" fill="rgb(0, 0, 0)" stroke="rgb(204, 204, 204)" stroke-width="1px"></line></g></g><g transform="translate(50, 0)" clip-path="url(#clip_0)"><clipPath id="clip_0"><rect width="280" height="178"></rect></clipPath><g><g><g><line x1="0" y1="0" x2="0" y2="178" fill="rgb(0, 0, 0)" stroke="rgb(60, 60, 60)" stroke-width="1px" opacity="0.25"></line><line x1="31.11111111111111" y1="0" x2="31.11111111111111" y2="178" fill="rgb(0, 0, 0)" stroke="rgb(60, 60, 60)" stroke-width="1px" opacity="0.25"></line><line x1="62.22222222222222" y1="0" x2="62.22222222222222" y2="178" fill="rgb(0, 0, 0)" stroke="rgb(60, 60, 60)" stroke-width="1px" opacity="0.25"></line><line x1="93.33333333333333" y1="0" x2="93.33333333333333" y2="178" fill="rgb(0, 0, 0)" stroke="rgb(60, 60, 60)" stroke-width="1px" opacity="0.25"></line><line x1="124.44444444444444" y1="0" x2="124.44444444444444" y2="178" fill="rgb(0, 0, 0)" stroke="rgb(60, 60, 60)" stroke-width="1px" opacity="0.25"></line><line x1="155.55555555555557" y1="0" x2="155.55555555555557" y2="178" fill="rgb(0, 0, 0)" stroke="rgb(60, 60, 60)" stroke-width="1px" opacity="0.25"></line><line x1="186.66666666666666" y1="0" x2="186.66666666666666" y2="178" fill="rgb(0, 0, 0)" stroke="rgb(60, 60, 60)" stroke-width="1px" opacity="0.25"></line><line x1="217.77777777777777" y1="0" x2="217.77777777777777" y2="178" fill="rgb(0, 0, 0)" stroke="rgb(60, 60, 60)" stroke-width="1px" opacity="0.25"></line><line x1="248.88888888888889" y1="0" x2="248.88888888888889" y2="178" fill="rgb(0, 0, 0)" stroke="rgb(60, 60, 60)" stroke-width="1px" opacity="0.25"></line><line x1="280" y1="0" x2="280" y2="178" fill="rgb(0, 0, 0)" stroke="rgb(60, 60, 60)" stroke-width="1px" opacity="0.25"></line></g><g><line x1="0" y1="178" x2="280" y2="178" fill="rgb(0, 0, 0)" stroke="rgb(60, 60, 60)" stroke-width="1px" opacity="0.25"></line><line x1="0" y1="158.2222222222222" x2="280" y2="158.2222222222222" fill="rgb(0, 0, 0)" stroke="rgb(60, 60, 60)" stroke-width="1px" opacity="0.25"></line><line x1="0" y1="138.44444444444446" x2="280" y2="138.44444444444446" fill="rgb(0, 0, 0)" stroke="rgb(60, 60, 60)" stroke-width="1px" opacity="0.25"></line><line x1="0" y1="118.66666666666669" x2="280" y2="118.66666666666669" fill="rgb(0, 0, 0)" stroke="rgb(60, 60, 60)" stroke-width="1px" opacity="0.25"></line><line x1="0" y1="98.8888888888889" x2="280" y2="98.8888888888889" fill="rgb(0, 0, 0)" stroke="rgb(60, 60, 60)" stroke-width="1px" opacity="0.25"></line><line x1="0" y1="79.1111111111111" x2="280" y2="79.1111111111111" fill="rgb(0, 0, 0)" stroke="rgb(60, 60, 60)" stroke-width="1px" opacity="0.25"></line><line x1="0" y1="59.33333333333334" x2="280" y2="59.33333333333334" fill="rgb(0, 0, 0)" stroke="rgb(60, 60, 60)" stroke-width="1px" opacity="0.25"></line><line x1="0" y1="39.55555555555555" x2="280" y2="39.55555555555555" fill="rgb(0, 0, 0)" stroke="rgb(60, 60, 60)" stroke-width="1px" opacity="0.25"></line><line x1="0" y1="19.777777777777786" x2="280" y2="19.777777777777786" fill="rgb(0, 0, 0)" stroke="rgb(60, 60, 60)" stroke-width="1px" opacity="0.25"></line><line x1="0" y1="0" x2="280" y2="0" fill="rgb(0, 0, 0)" stroke="rgb(60, 60, 60)" stroke-width="1px" opacity="0.25"></line></g></g></g><g><g><line x1="0" y1="39.55555555555555" x2="280" y2="39.55555555555555" fill="rgb(0, 0, 0)" stroke="rgb(153, 153, 153)" stroke-width="1.5px"></line></g></g><g><g><line x1="31.11111111111111" y1="0" x2="31.11111111111111" y2="178" fill="rgb(0, 0, 0)" stroke="rgb(153, 153, 153)" stroke-width="1.5px"></line></g></g><g><g><g><g><g><path stroke="rgb(255, 112, 67)" stroke-width="2px" d="M36.24444444444445,39.618717628518745L36.55555555555556,39.71198261411359L36.86666666666666,39.82175709852759L37.02222222222222,39.88836378116712L37.333333333333336,39.9360028256224L37.644444444444446,39.93950426118611L37.800000000000004,39.93894574259349L37.955555555555556,39.95006810847657L38.11111111111111,39.96398338718509L38.266666666666666,39.97574740687544L38.422222222222224,39.99149923273141L38.577777777777776,40.025885813946275L38.733333333333334,40.049816895485215L38.88888888888889,40.04430821519009L39.044444444444444,40.09932906191871L39.2,40.05768413198786L39.511111111111106,40.11748786843065L39.82222222222222,40.13132019181601L39.97777777777778,40.18415826234559L40.28888888888889,40.230943027616554L40.75555555555555,40.26306133514117L40.91111111111111,40.25329725839923L41.06666666666667,40.2886512779594L41.22222222222222,40.31916727303533L41.37777777777778,40.31572319756505L41.68888888888888,40.32143781007533L42.15555555555555,40.405347468834485L42.31111111111111,40.42617470871694L42.62222222222223,40.44965710915366L42.77777777777778,40.46884055931861L42.93333333333333,40.47976170921451L43.08888888888889,40.470510252757656L43.24444444444444,40.51091605806733L43.4,40.49495355549442L43.711111111111116,40.54694924883279L43.86666666666667,40.56618500190948L44.33333333333333,40.61129665155507L44.48888888888889,40.617053416889334L44.644444444444446,40.642512219825676L44.800000000000004,40.72262079870509L44.955555555555556,40.76077429004119L45.42222222222222,40.75135764877626L45.577777777777776,40.755728247359094L45.733333333333334,40.769488545734575L45.888888888888886,40.779914884061604L46.044444444444444,40.858672666865246L46.2,40.91103456315034L46.35555555555556,40.8616109938054L46.511111111111106,40.871548699745205L46.666666666666664,40.883370967703954L46.82222222222222,40.96373372593322L47.13333333333333,40.976998981947794L47.28888888888889,41.030398520767996L47.44444444444445,41.010820571758764L47.6,41.016184054412385L47.91111111111111,41.057385563340844L48.22222222222222,41.02945741446324L48.37777777777778,41.11054555052601L48.68888888888889,41.19367423873352L48.84444444444445,41.26519787094301L49.15555555555555,41.25730050900097L49.31111111111111,41.34754979757099L49.46666666666667,41.34246435738164L49.62222222222222,41.33254534830985L49.77777777777778,41.40318033721635L49.93333333333334,41.39588473669817L50.24444444444444,41.422953745198L50.4,41.514762361006454L50.55555555555556,41.57623862141054L50.71111111111111,41.635239195091344L51.022222222222226,41.6323845542656L51.48888888888889,41.63352520717429L51.644444444444446,41.72976640198752L51.8,41.72071323129162L51.955555555555556,41.735110421354975L52.266666666666666,41.85399323585561L52.422222222222224,41.87342255087837L52.577777777777776,41.94613138652823L53.044444444444444,42.20435946947489L53.2,42.38499501714205L53.66666666666667,42.42687058847206L54.13333333333333,42.4295345907522L54.28888888888889,42.45024769535649L54.44444444444444,42.51027984774792L54.6,42.56125857990158L54.75555555555556,42.73483774574942L55.22222222222222,42.9087247262571L55.37777777777778,42.786429439963946L55.53333333333333,42.85876332160434L55.68888888888889,42.88067435731193L55.84444444444445,43.03147080907371L56.15555555555555,43.05678334383233L56.31111111111111,42.98303461101299L56.77777777777778,43.056830120235475L57.24444444444445,43.13878835606278L57.4,43.20089916557139L57.71111111111111,43.23591456576287L58.022222222222226,43.372454052106896L58.17777777777778,43.51023739375364L58.333333333333336,43.47314766005771L58.488888888888894,43.630748144517874L58.64444444444444,43.70871207910588L58.8,43.599914797078064L59.111111111111114,43.51995931734704L59.266666666666666,43.44360958846442L59.422222222222224,43.56867819709927L59.57777777777778,43.5898354592563L59.888888888888886,43.650978275323254L60.044444444444444,43.732139505449084L60.199999999999996,43.76712247132456L60.51111111111111,43.70431036831706L60.66666666666667,43.579638196116726L60.82222222222222,43.61237047956362L61.13333333333333,43.63667948085349L61.288888888888884,43.88232968708862L61.6,43.951010271789464L61.75555555555556,43.75839762728969L62.06666666666667,43.79104945249386L62.22222222222222,43.607657421163516L62.37777777777777,43.7853766059218L62.68888888888889,43.91748987332243L62.84444444444445,43.83445292525977L63.31111111111112,43.93168929295814L63.46666666666666,44.07126292745713L63.62222222222222,44.04393865284532L63.77777777777778,44.19727579334288L64.08888888888889,44.581704650535784L64.24444444444444,44.266207856429844L64.55555555555556,44.116045007691106L64.86666666666666,43.93660582741281L65.02222222222223,44.16499199419062L65.17777777777778,44.4565106677854L65.33333333333333,44.269837648023355L65.64444444444445,44.106308430769815L65.8,43.853243904205264L66.26666666666667,44.23102114675876L66.88888888888889,44.730012384194616L67.04444444444444,44.411110513382226L67.5111111111111,44.5590511820286L67.66666666666667,44.471868637965024L67.97777777777777,44.22007975833022L68.13333333333334,44.71065635104482L68.28888888888889,45.091767568456156L68.44444444444444,44.68207327829772L68.6,44.83594997893318L69.06666666666666,45.08654679360194L69.22222222222223,45.67299421609147L69.37777777777778,45.257872270495284L69.53333333333333,45.10003709828189L70,45.188000104374204L70.15555555555555,45.02642305008799L70.31111111111112,45.2314625399199L70.46666666666667,45.114935488573266L70.62222222222222,45.25370941063831L70.77777777777777,45.08441329041587L71.08888888888889,45.032869999725364L71.24444444444444,45.27024127481445L71.4,45.14157564068263L71.71111111111111,45.425851766707254L71.86666666666666,45.390099781916774L72.02222222222223,45.427264704335435L72.17777777777778,45.44178454258457L72.33333333333334,45.618344172581175L72.4888888888889,45.52663697059451L72.64444444444443,45.58007929324504L72.95555555555555,45.71489202823512L73.11111111111111,45.777240073988914L73.42222222222223,45.81453052855356L74.04444444444444,45.64424387388746L74.2,45.621607736523636L74.51111111111112,45.63961209939356L74.66666666666667,45.79464799265257L74.82222222222222,45.93605912582511L74.97777777777777,45.91976904780517L75.13333333333333,46.001752363632406L75.28888888888889,46.066972160449666L75.44444444444444,46.219386026814966L75.75555555555556,45.78325546202379L76.22222222222221,46.15188909145479L76.37777777777778,46.51925834994947L76.53333333333333,46.31993025538504L76.6888888888889,46.24803475643507L77,46.41005116434955L77.3111111111111,46.170842450685406L77.62222222222222,46.54631948333123L77.93333333333334,46.61529802748521L78.24444444444444,46.4223999244566L78.4,46.56358312755072L78.55555555555556,46.78011420597508L78.71111111111111,46.44238408869437L78.86666666666667,46.88817857224156L79.17777777777778,47.00029347259997L79.33333333333333,46.71808636547948L79.64444444444445,46.775039234057914L79.8,46.805257130226884L79.95555555555556,46.74281582778841L80.26666666666667,46.993071010919294L81.04444444444445,47.43930815065945L81.35555555555555,47.399301025751186L81.5111111111111,47.46917316455432L81.82222222222222,47.76895874719832L81.97777777777779,47.537723671121384L82.13333333333334,47.67729307289268L82.28888888888888,47.52681183083155L82.44444444444444,47.5513073818716L82.6,48.045033173691046L82.75555555555556,47.932515327678615L82.91111111111111,47.972978497898055L83.06666666666668,48.08186414643025L83.22222222222223,48.01181913949816L83.84444444444445,47.8610527106124L84,48.03001117746636L84.3111111111111,48.257150477170896L84.77777777777777,48.252079600416536L85.39999999999999,48.44813876183256L85.55555555555556,48.15779231151127L85.71111111111111,48.44104564379391L85.86666666666666,48.61437848295554L86.17777777777778,48.657276162281754L86.33333333333334,49.139285592184585L86.48888888888888,48.8167186656666L86.64444444444445,48.758203301780924L86.8,48.7449881773683L86.95555555555555,48.801803781936705L87.42222222222223,49.12046939689896L87.57777777777777,49.603627582161494L87.88888888888889,49.180514538316565L88.2,48.87477211795474L88.51111111111112,48.83416431765138L88.82222222222222,49.146795685992494L89.13333333333334,48.97866402666933L89.28888888888889,48.84478600834208L89.44444444444444,49.106751677309774L89.60000000000001,48.7888277976796L89.75555555555555,49.17960410367889L89.91111111111111,50.06113842791652L90.06666666666666,49.35170817859815L90.22222222222223,48.95409179568331L90.37777777777778,49.59975996256289L90.6888888888889,49.36325028515498L91,49.504478492109214L91.15555555555555,49.39682526811747L91.46666666666667,49.11483387488413L91.77777777777777,49.5339068002692L91.93333333333332,49.71174429984355L92.08888888888889,49.185837399877954L92.24444444444444,49.85720029705234L92.4,50.20344427468417L92.55555555555556,50.102404618490134L92.71111111111112,49.77117677012937L92.86666666666666,50.51418693039654L93.02222222222221,50.47086002406686L93.17777777777778,49.93979318570352L93.33333333333333,50.15827258721629L93.64444444444445,50.46916282839652L93.80000000000001,49.51565111689777L94.11111111111111,49.82591590211321L94.42222222222222,49.85354803504866L94.57777777777778,50.36516998477967L94.73333333333333,50.21355246038756L94.8888888888889,50.83744853801933L95.04444444444444,51.129125971721464L95.35555555555555,50.36705124760579L95.5111111111111,50.42040045589224L95.82222222222222,50.278331198221025L95.97777777777779,51.056062386431506L96.13333333333333,51.0016819738119L96.28888888888889,51.15019755586301L96.44444444444444,51.170252752890825L96.75555555555556,51.36411133594486L96.91111111111111,51.515655589617175L97.06666666666666,51.4562288640023L97.22222222222221,51.51576722941721L97.6888888888889,52.05481772278676L98,51.749461143274345L98.15555555555555,52.01983067929935L98.46666666666667,52.469133317136304L98.62222222222222,52.608802286281325L98.77777777777779,52.707008579382304L99.08888888888889,52.40573196711846L99.24444444444444,52.617999492737894L99.55555555555556,52.52022640438944L99.86666666666667,52.99889562115925L100.64444444444445,52.826726345163806L100.8,52.779436944455675L101.26666666666668,52.902330574785154L101.42222222222222,52.792007468451004L101.57777777777777,52.85141149472667L101.73333333333333,52.79957453195826L101.88888888888889,53.127807898377775L102.04444444444445,52.97430329111594L102.35555555555557,52.52275489239224L102.66666666666666,53.00333016648532L102.97777777777777,52.80074189361094L103.28888888888889,52.96697597627372L103.75555555555556,53.25977252284861L103.91111111111111,53.61717789535085L104.37777777777778,53.686342467260914L104.53333333333333,54.51456079737708L104.68888888888888,54.029128261163216L104.84444444444445,54.3195044894066L105.15555555555555,54.2535944213536L105.31111111111112,53.828718061707335L105.62222222222222,54.1206262872026L105.77777777777777,54.21633253241658L105.93333333333334,55.13419433767638L106.08888888888889,54.60380736558006L106.24444444444444,54.407828595716694L106.71111111111111,54.68476656172866L106.86666666666666,54.907116039372674L107.17777777777778,55.720325905950716L107.33333333333334,55.39050862776095L107.4888888888889,55.44640126680524L107.64444444444443,55.17426135790635L107.8,55.00169999326916L107.95555555555555,55.18401974232377L108.11111111111111,54.662329199102786L108.26666666666667,54.90524446110569L108.42222222222223,55.416473195333694L108.57777777777778,55.290881112233976L108.73333333333332,55.5784460431602L108.88888888888889,56.0399232097353L109.04444444444444,56.16305385135556L109.2,56.03697572150553L109.35555555555555,56.387563973207364L109.66666666666667,55.55968747004558L109.82222222222222,55.713487886488544L110.28888888888889,56.15152936207385L110.44444444444444,55.64175756049255L111.06666666666666,55.970888912090636L111.53333333333333,56.46284434527993L111.6888888888889,56.74768571512959L112,57.955526900782054L112.15555555555555,57.07884712274946L112.46666666666667,56.98094990430506L112.62222222222222,56.87248692218989L112.77777777777779,56.964660523830794L113.24444444444444,57.55525742763923L113.4,57.58207054626796L113.71111111111111,56.740979948565055L114.33333333333333,56.821073898031315L114.4888888888889,57.87989629808436L114.8,57.674763503707595L114.95555555555556,57.80881712151588L115.1111111111111,57.13483539559945L115.26666666666667,57.85203029018212L115.42222222222222,57.52724398789518L115.57777777777778,58.21570649070855L115.73333333333333,57.99469629923133L116.04444444444445,57.79566004787726L116.19999999999999,58.900830304671494L116.35555555555555,58.64182451347912L116.5111111111111,58.402037849374715L116.66666666666667,58.359832519214635L116.82222222222222,58.77376603712958L116.97777777777779,57.92662856500649L117.44444444444444,58.10942806412826L117.6,57.9682102205397L117.75555555555556,57.785030623365905L118.68888888888888,59.14485808353836L119,59.00978844734406L119.15555555555557,59.41037219826623L119.3111111111111,59.205467789115886L119.46666666666667,59.55496793167714L119.62222222222222,59.80542461632409L119.77777777777777,59.695557057011776L119.93333333333334,59.569923428445826L120.08888888888889,59.70592988087331L120.24444444444445,59.765868004010855L120.39999999999999,59.76917004076591L120.55555555555556,59.202460649088785L120.71111111111111,59.21531964700796L120.86666666666666,59.81891514864444L121.02222222222223,59.72348631868616L121.17777777777778,59.8284318414833L121.33333333333334,60.14119059769324L121.48888888888888,60.30020595973413L121.8,60.561194101558726L121.95555555555555,60.49875927596453L122.11111111111111,60.46399379824827L122.42222222222223,60.86282446531571L122.73333333333333,61.831493465352594L123.04444444444445,60.53489275875405L123.2,60.47688884159373L123.66666666666666,60.65133551419444L123.82222222222222,61.64832395998323L123.97777777777777,61.867625507761694L124.28888888888889,61.922533125358L124.44444444444444,62.22395516740355L124.60000000000001,61.38920125950491L124.91111111111111,62.15699154572022L125.06666666666666,61.796833726780655L125.22222222222223,61.74392539676406L125.37777777777778,62.021011183579L125.6888888888889,61.27533345634039L125.84444444444443,61.81443414593723L126,61.902396866552756L126.15555555555555,62.82184740782877L126.31111111111112,61.87558397497122L126.46666666666667,62.74308821890433L126.62222222222223,63.33467981135394L126.77777777777777,63.08365593331245L126.93333333333332,63.76604508094465L127.24444444444444,63.69626015403869L127.4,63.35463598227767L127.55555555555556,62.38255011337929L128.0222222222222,61.83856482611167L128.17777777777778,63.56259633480266L128.33333333333331,63.24653296784017L128.64444444444445,63.66677609878916L128.8,63.83114030686645L128.95555555555555,64.2643911417268L129.11111111111111,64.7089713870922L129.42222222222222,63.70683604667871L129.57777777777778,64.19959408958763L129.73333333333332,64.17706874918386L129.88888888888889,63.67836993865388L130.04444444444445,63.55532760621623L130.35555555555555,63.421161084024114L130.66666666666666,63.64596314855999L130.9777777777778,64.98159162797815L131.13333333333333,64.01483960012972L131.2888888888889,64.58101447291133L131.75555555555556,65.05011145511473L132.3777777777778,65.01745327361385L132.53333333333333,64.58521488333336L132.6888888888889,63.9063740589261L132.84444444444443,64.87015575797486L133,64.03984842502106L133.3111111111111,64.64744626514299L133.46666666666667,65.66626082783033L133.93333333333334,65.9042174462797L134.08888888888887,65.86281126366393L134.4,65.83794724216173L134.7111111111111,64.77851937718043L134.86666666666667,66.67783506596317L135.33333333333334,64.76967995547724L135.64444444444445,66.41072282003263L135.79999999999998,67.68243024551177L135.95555555555555,66.35107185379313L136.11111111111111,66.59628797357414L136.26666666666668,67.06715147447713L136.42222222222222,67.35034320216684L136.57777777777778,67.57831317827979L136.73333333333335,67.08401149884942L136.88888888888889,67.15259203108516L137.04444444444445,66.85495370087875L137.2,67.75800344520314L137.35555555555555,67.0761016766502L137.51111111111112,67.53420026678604L137.66666666666666,68.04366776388979L138.13333333333333,67.12186472957197L138.2888888888889,68.15414521096199L138.6,68.55151408361719L138.91111111111113,68.51792373443976L139.06666666666666,69.24884143245185L139.22222222222223,68.52186502328665L139.37777777777777,68.92591696862297L139.53333333333333,68.97048109276501L139.6888888888889,68.06960069380492L139.84444444444446,68.57122230071069L140,69.14128252774665L140.15555555555554,69.94862685631513L140.46666666666667,69.09446301598969L140.62222222222223,69.0462722086284L140.77777777777777,71.56583969327167L140.93333333333334,71.0875643449237L141.0888888888889,70.30989739315727L141.4,70.44440743111223L141.55555555555554,71.40320746334204L141.7111111111111,69.75007815090481L141.86666666666667,69.90964707712439L142.02222222222224,70.74061912557048L142.17777777777778,71.2730286382319L142.33333333333331,69.9888000155934L142.48888888888888,70.91631262660282L142.64444444444445,70.6247330612656L142.8,70.1696989867272L142.95555555555555,71.74429099061228L143.1111111111111,70.62089306547257L143.26666666666668,70.99209258392237L143.73333333333332,71.25106883202567L144.04444444444445,71.21346253667764L144.35555555555555,71.22997616691094L144.82222222222222,72.0180380812436L144.9777777777778,71.52214243901118L145.13333333333333,72.27916034903915L145.28888888888886,73.02900579442799L145.44444444444446,73.1054058206607L145.6,73.15493413511051L145.75555555555556,73.22912572754699L145.9111111111111,72.61222778928312L146.06666666666666,72.34178771800444L146.22222222222223,74.01616302498357L146.3777777777778,73.08418396907975L146.53333333333333,74.21640229945899L146.68888888888887,74.66733947735624L147.15555555555557,75.73717004028046L147.3111111111111,74.48646530888809L147.46666666666664,75.59193901146604L147.77777777777777,76.34220638845247L147.93333333333334,76.05943039810684L148.24444444444447,75.71504194797315L148.4,76.12890524485545L148.55555555555554,75.41308677699902L148.7111111111111,76.30393781889254L148.86666666666665,75.95630406113506L149.02222222222224,75.70751929573942L149.48888888888888,75.74936709469407L149.64444444444445,75.98427889387796L149.8,76.64477696207825L150.42222222222225,76.08344866193305L150.57777777777778,78.17013989607125L150.88888888888889,79.12360414874148L151.04444444444442,78.32640589881547L151.20000000000002,78.19659928332027L151.35555555555555,78.35396424908862L151.66666666666666,78.75426937101952L151.9777777777778,78.414912286499L152.13333333333333,78.84360687697719L152.2888888888889,79.7408648830261L152.60000000000002,78.90771064538518L152.75555555555556,77.6970427460897L152.9111111111111,78.48694871117226L153.06666666666666,78.2565731714795L153.22222222222223,79.1559093531592L153.3777777777778,79.51442473190419L153.53333333333333,78.64487765680148L153.6888888888889,78.66028863890156L154.15555555555557,80.11436961930079L154.3111111111111,78.6232198166319L154.6222222222222,79.97061700727386L154.7777777777778,79.11753219441653L154.93333333333334,78.52347948169158L155.08888888888887,79.3335612808878L155.24444444444444,79.63669714309728L155.4,79.03201320345028L155.7111111111111,77.9508039537638L155.86666666666667,78.00995313756776L156.0222222222222,79.32009870648419L156.17777777777778,79.24045015785893L156.33333333333334,79.89105941868908L156.48888888888888,79.31604147053966L156.64444444444445,79.04272791630616L156.8,80.03639891685629L157.26666666666665,80.84146900920959L157.42222222222222,80.902100617199L157.73333333333335,82.17219041126398L157.88888888888889,81.96828937380215L158.04444444444442,81.34739464505142L158.2,80.58664000159607L158.51111111111112,81.6710643567375L158.82222222222222,83.34731693640012L158.9777777777778,83.20779505441008L159.13333333333333,84.42672268332001L159.2888888888889,84.11316560090312L159.44444444444443,85.07301388904388L159.6,83.31571002064902L159.75555555555556,83.2567850673873L159.91111111111113,84.28599851212641L160.2222222222222,84.3296394290445L160.3777777777778,84.35271817882342L160.53333333333333,83.484090885727L160.84444444444443,82.66363109286338L161.15555555555557,82.31756791023557L161.3111111111111,82.61326080238088L161.46666666666667,82.87872019851405L161.6222222222222,84.09161058111263L161.77777777777777,85.12512236749633L161.93333333333334,85.01562249949214L162.24444444444444,84.26147629459672L162.39999999999998,85.83730484829019L162.55555555555557,85.44188578899372L162.86666666666667,87.7946183729256L163.0222222222222,85.4737910550542L163.33333333333334,84.86377442330074L163.79999999999998,85.43207737518868L164.11111111111111,85.75795598710279L164.26666666666668,86.9461950648411L164.42222222222222,88.9806232482893L164.88888888888889,87.38946784536475L165.04444444444445,87.42094004810896L165.35555555555555,86.06872086543314L165.51111111111112,87.71154722885645L165.82222222222222,89.9560519767036L165.97777777777776,89.17495337624001L166.13333333333335,89.19044436752714L166.44444444444446,88.80023149595824L166.6,88.23185589627181L167.06666666666666,87.22294836068855L167.22222222222223,88.45402507100997L167.53333333333336,88.53764586212935L167.6888888888889,90.00678057008878L167.84444444444443,90.11786063962676L168,89.37129340482615L168.31111111111113,88.64816214468445L168.46666666666667,89.68330987631391L168.6222222222222,87.06065544130448L168.77777777777777,88.87108713717079L169.0888888888889,87.90875964437446L169.4,88.4830443628517L169.71111111111114,88.53352518645225L169.86666666666667,88.15532675773717L170.0222222222222,88.7783203679207L170.17777777777778,88.61645168161645L170.33333333333331,89.61500649412349L170.95555555555555,87.76034102608658L171.11111111111111,88.5865546039378L171.26666666666668,89.71333931024716L171.42222222222222,89.45892908592447L171.57777777777778,88.24353111657385L171.8888888888889,88.37048087429233L172.04444444444445,88.05208978353315L172.2,89.04296958789453L172.35555555555555,88.83517967028331L172.51111111111112,90.74814758935588L172.66666666666669,89.73818027378552L172.82222222222222,91.28690841182598L172.97777777777776,93.06861407996178L173.13333333333333,91.7595773402309L173.2888888888889,92.35064083973865L173.6,91.11824047449066L173.75555555555556,91.35733160060566L173.9111111111111,92.85505722317558L174.06666666666666,95.49939965826839L174.22222222222223,94.11054209309701L174.37777777777777,94.26818741389684L174.53333333333333,92.51003631710597L174.84444444444446,98.82893229259994L175,97.67606039030707L175.15555555555554,97.56873888612512L175.3111111111111,99.25432665337654L175.46666666666667,98.78580562463456L175.62222222222223,98.14386235294488L175.93333333333334,95.43587565068029L176.0888888888889,93.97366947821337L176.7111111111111,90.43531900261542L176.86666666666667,90.41145309689648L177.17777777777778,91.42829125388185L177.33333333333331,90.70566491550773L177.48888888888888,91.01808465231328L177.64444444444445,90.24717907721437L177.8,91.26471419617887L177.95555555555555,90.47732356461275L178.1111111111111,89.45676794859351L178.42222222222222,90.15657619484004L178.57777777777778,91.23307310481178L178.73333333333332,88.9264940424184L178.88888888888889,90.07112100077498L179.20000000000002,90.23065974053308L179.35555555555555,89.76670346009804L179.5111111111111,90.04351664489145L179.66666666666669,92.68950291537948L179.82222222222222,92.38240763624142L179.9777777777778,91.49627296263368L180.75555555555556,90.2170425209388L180.9111111111111,90.84215806301185L181.06666666666666,89.03055694942924L181.22222222222223,89.52603201630671L181.3777777777778,90.89947357028983L181.53333333333333,90.91421019996021L181.84444444444446,92.89642081901515L182.15555555555557,90.74370245686467L182.62222222222223,90.38775378491931L182.77777777777777,90.91623157426011L182.93333333333334,90.214243528737L183.08888888888887,91.59464293834466L183.55555555555554,91.18933111381692L183.7111111111111,90.4405748249344L184.02222222222224,91.87769416839473L184.17777777777778,92.60244980115968L184.33333333333334,92.28989584487307L184.48888888888888,89.8966748352513L184.8,91.8726601546199L184.95555555555555,92.93325373184692L185.11111111111111,92.64445511475506L185.26666666666665,91.92204697477831L185.42222222222225,91.18809574926205L185.57777777777778,90.9259254325767L185.73333333333332,93.43610725752907L185.88888888888889,93.01250500421656L186.04444444444442,95.9288430351432L186.35555555555555,94.60746816322002L186.51111111111112,91.9433371889489L186.82222222222222,94.65800164234746L187.13333333333333,93.94548386425211L187.2888888888889,95.67808176644724L187.60000000000002,93.50366863492806L187.9111111111111,94.06563098471091L188.06666666666666,92.81494891762878L188.22222222222223,92.27833863588309L188.3777777777778,95.90416502611365L188.84444444444443,96.40586023846419L189,95.75136683801722L189.15555555555557,95.4934440389549L189.3111111111111,91.74960733631957L189.6222222222222,94.13134438532413L189.7777777777778,95.26418547109232L189.93333333333334,94.59413722283665L190.08888888888887,95.51255037336975L190.24444444444444,93.46777173565177L190.7111111111111,96.0763517139633L191.0222222222222,94.55871370182966L191.17777777777778,96.12954278700194L191.48888888888888,96.80742558121243L191.64444444444445,98.34587751363294L191.95555555555558,96.8328012117174L192.11111111111111,96.46061744556582L192.26666666666665,96.71268737207434L192.42222222222222,97.18323541305017L192.73333333333335,98.56052244487681L192.88888888888889,97.7835989271773L193.04444444444442,93.92546085798244L193.35555555555555,96.0216777182483L193.51111111111112,97.01076203188815L193.66666666666666,100.52950529027778L193.82222222222222,95.20075761179008L194.13333333333333,96.53979475653746L194.2888888888889,96.10640244838675L194.6,99.31475315334552L195.06666666666666,99.00771563204054L195.3777777777778,98.10342571999739L195.53333333333333,98.60780220693375L195.6888888888889,97.59911290757303L195.84444444444443,99.03496103121641L196.15555555555557,96.7848812819699L196.46666666666667,96.4004361751659L196.6222222222222,99.83062774498882L196.77777777777777,99.81208651244654L196.93333333333334,100.36891488789074L197.0888888888889,98.4677782729194L197.24444444444444,99.82635332019368L197.39999999999998,96.5552314059817L197.55555555555557,99.0565580347315L197.7111111111111,100.16186849789617L198.17777777777778,99.2305954769772L198.33333333333334,99.58924226147539L198.48888888888888,99.06481329689218L199.26666666666668,98.92913102464138L199.42222222222222,99.55520026873532L199.57777777777775,101.11539564303304L199.73333333333335,102.44404307492734L200.04444444444445,103.53243391861575L200.2,101.46137840751624L200.35555555555555,101.51080285726633L200.51111111111112,101.51643191462354L200.66666666666666,98.40125603515254L201.44444444444446,101.67016366230544L201.6,102.32701148596L201.75555555555553,102.0401687472199L201.91111111111113,103.21741738170682L202.06666666666666,104.83876996996167L202.22222222222223,103.03334757968882L202.53333333333336,102.50645986771843L202.6888888888889,103.94513317853568L202.84444444444443,103.49668695935075L203,103.65796808905245L203.15555555555554,103.72870915975055L203.31111111111113,104.97740089704067L203.46666666666667,104.2269035842297L203.6222222222222,106.65612213594322L203.77777777777777,105.42210598993307L204.0888888888889,106.46340149297896L204.24444444444444,104.63268468174779L204.4,105.63962272758434L204.55555555555554,103.84791592612446L204.71111111111114,106.18264101257193L204.86666666666667,106.49011589840919L205.0222222222222,104.66188921758021L205.33333333333331,105.17954724579846L205.64444444444445,108.09508666876297L205.95555555555555,108.69278795419676L206.11111111111111,104.61273484186184L206.26666666666668,109.65538652325337L206.57777777777778,109.94681627018717L206.8888888888889,112.63008567054288L207.04444444444445,109.87406099037904L207.35555555555555,108.5462887910656L207.66666666666669,109.0263954347771L207.82222222222222,110.15316086384392L207.97777777777776,108.28645717270807L208.2888888888889,110.3292614436816L208.75555555555556,112.44209777207878L208.9111111111111,109.84766600114438L209.37777777777777,107.02571224972732L209.53333333333333,108.15136956625281L209.6888888888889,112.61342535301303L210.15555555555554,112.20313735472007L210.3111111111111,112.15537675337832L210.62222222222223,109.66295113114974L210.77777777777777,113.09231480136447L210.93333333333334,110.30948321533951L211.0888888888889,108.96504866429596L211.24444444444444,110.65485803694104L211.4,112.56190788129571L211.55555555555554,110.95959419825653L211.7111111111111,113.60298436123233L211.86666666666667,112.10723257582174L212.02222222222224,112.70926630185511L212.33333333333331,112.64132363998242L212.48888888888888,113.27917252551063L212.64444444444445,112.35237728457149L213.1111111111111,114.51832443211043L213.26666666666668,114.98896158867767L213.57777777777778,113.64352946660523L213.73333333333332,113.14094342160853L213.88888888888889,113.00266370121399L214.04444444444445,115.2823824227452L214.35555555555555,113.7449050261497L214.5111111111111,113.70245332558098L214.82222222222222,110.04871482967577L214.9777777777778,112.79951850880887L215.13333333333333,115.27058227346924L215.28888888888886,113.85021213887964L215.44444444444446,112.52735659589399L215.6,111.02543436267631L215.75555555555556,113.029099670829L215.9111111111111,112.91775595302894L216.06666666666666,113.86744475571423L216.22222222222223,113.44882191626559L216.3777777777778,114.14380110074298L216.53333333333333,112.62184104270362L216.68888888888887,113.6792773974478L216.84444444444446,112.06359355222149L217.15555555555557,113.00730987482937L217.3111111111111,114.45324949918958L217.46666666666664,114.38481504792523L217.62222222222223,112.32317531192253L217.93333333333334,113.81948219085567L218.08888888888887,115.26512371345241L218.7111111111111,112.39840148372576L219.17777777777778,112.79382604821184L219.48888888888888,114.1014985452836L219.64444444444445,115.63015368085688L219.8,116.18446356207595L219.95555555555555,115.94209883353444L220.11111111111111,117.9681760985019L220.42222222222225,113.64612778690149L220.57777777777778,115.35154872621598L220.73333333333332,112.93435828073147L220.88888888888889,116.05029133756786L221.04444444444442,117.9333074108639L221.35555555555555,116.03654251508567L221.51111111111112,114.75893556937882L221.66666666666666,119.66330585938093L221.82222222222222,118.55372005491222L221.9777777777778,117.5207177105375L222.13333333333333,116.29745628716265L222.2888888888889,115.9843354235299L222.44444444444443,116.23213930356066L222.60000000000002,116.56014531408891L222.75555555555556,118.48576068555798L222.9111111111111,114.94334554099365L223.22222222222223,116.79103966441383L223.3777777777778,117.04574587887737L223.6888888888889,117.86482296851858L223.84444444444443,117.35444077487051L224,119.5013121661725L224.3111111111111,116.85348185882704L224.46666666666667,121.28751798188225L224.6222222222222,119.62984185311592L224.7777777777778,118.92943897374892L224.93333333333334,117.07036708169802L225.08888888888887,117.29722991998943L225.7111111111111,118.11045127957924L226.0222222222222,121.48220118366368L226.48888888888888,127.11922170035122L226.64444444444445,124.05010955924571L226.8,124.79696840138686L226.95555555555558,119.21799669149868L227.11111111111111,121.4266805172707L227.26666666666665,124.75411933654041L227.57777777777778,124.21657714818738L227.73333333333335,125.16254946306536L227.88888888888889,125.07978998792552L228.04444444444442,123.00980800014501L228.2,127.61014113016209L228.35555555555555,124.630119385368L228.51111111111112,127.00509019774229L228.66666666666666,127.85614892792789L228.82222222222222,126.95389223265369L228.9777777777778,125.90028469252157L229.2888888888889,124.03400484492661L229.44444444444443,125.7949633972684L229.6,123.20166274932953L229.91111111111113,124.41231154319216L230.06666666666666,124.70576990297033L230.2222222222222,125.95129204284387L230.3777777777778,125.02399593841729L230.53333333333333,122.01838430370259L230.6888888888889,125.79413180048485L231,125.00123622494917L231.15555555555557,125.56673657586967L231.3111111111111,126.35506418018349L231.46666666666667,124.90886035853889L231.6222222222222,127.40040065096763L231.77777777777777,124.13689088933774L231.93333333333334,123.2535418486164L232.24444444444444,126.62734161333698L232.39999999999998,125.37205499406862L232.55555555555557,125.58891142283309L232.7111111111111,126.68935913226588L232.86666666666667,125.44291810343462L233.0222222222222,125.71385254949261L233.17777777777778,127.64938331932008L233.33333333333334,124.76482723089732L233.48888888888888,128.30846140710076L233.79999999999998,126.85899041602069L233.95555555555558,128.90037160605817L234.26666666666668,127.25211432454131L234.88888888888889,128.50199598672194L235.04444444444445,129.43391899484712L235.35555555555555,127.69685821676576L235.51111111111112,128.451626989011L235.66666666666666,126.48672639083225L235.97777777777776,125.94821734986039L236.2888888888889,128.51429256653395L236.44444444444446,128.356107224329L236.6,130.9072796108132L236.91111111111113,131.79397353383206L237.06666666666666,129.56899902277448L237.22222222222223,132.1418176698287L237.37777777777777,130.01565359999182L237.6888888888889,131.58754749304737L237.84444444444443,130.16154634596103L238,129.60526937475686L238.15555555555554,133.55007742171713L238.31111111111113,134.57011729105994L238.6222222222222,130.56646842606898L238.77777777777777,129.14852505003856L238.93333333333334,134.23680112979122L239.24444444444444,134.116136874283L239.4,129.60751163552945L239.86666666666667,134.3180088838111L240.17777777777778,131.816030095872L240.33333333333331,133.32496414437747L240.64444444444445,133.2117523859938L240.79999999999998,131.03769396141246L240.95555555555555,135.40013168754595L241.11111111111111,135.15104750687559L241.26666666666668,136.33805325000748L241.42222222222222,133.65507453540567L241.57777777777778,135.71396498580873L241.73333333333332,135.40750138241714L242.04444444444445,138.8869126489559L242.2,133.96889298071204L242.35555555555555,139.85580984170502L242.51111111111112,136.25190626155006L242.66666666666669,138.40740107330595L242.82222222222222,136.3671643316572L242.97777777777776,137.73033342491246L243.2888888888889,139.57716542076622L243.44444444444446,137.64528379105508L243.6,140.47736809043928L243.75555555555556,140.96924502800505L243.9111111111111,141.07354726679085L244.06666666666666,136.06333326746935L244.53333333333333,139.44232592645366L244.84444444444446,141.46394219671703L245,139.12051502370753L245.15555555555554,137.1556738699519L245.3111111111111,144.09552859958703L245.46666666666667,140.44572567477587L245.62222222222223,142.20972804964535L245.77777777777777,142.69900730391007L245.93333333333334,144.5527235836322L246.0888888888889,141.8415800144908L246.24444444444444,140.89359674892896L246.7111111111111,142.97722840829186L246.86666666666667,140.09738197902297L247.33333333333331,143.89511822916762L247.48888888888888,145.12805329080985L247.64444444444445,141.18366086069855L247.8,140.8730053843032L247.95555555555555,143.8396078194977L248.1111111111111,144.31935565256006L248.42222222222222,144.40038716703359L248.57777777777778,143.73149863294415L248.73333333333332,141.13440208410572L248.88888888888889,142.60916293737498L249.04444444444445,142.96326979014836L249.20000000000002,143.06964802929673L249.35555555555555,139.92963064402858L249.66666666666669,141.3123053943611L249.82222222222222,142.51970204910708L249.9777777777778,142.619293646283L250.28888888888886,146.47347626185328L250.44444444444446,143.9037133925224L250.6,142.96144424028185L250.9111111111111,144.42024004348056L251.06666666666666,145.94048517305953L251.3777777777778,146.28284254861086L251.53333333333333,147.41765113109886L251.68888888888887,144.9728898711636L251.84444444444446,146.4593387970183L252,143.47126033771502L252.15555555555557,142.9662422382421L252.46666666666664,143.95510921072145L252.62222222222223,143.5017571217013L252.93333333333334,144.5648811238682" style="fill: none;" fill="none"></path></g></g></g></g><g opacity="0.2"><g><g><g><path stroke="rgb(255, 112, 67)" stroke-width="2px" d="M36.24444444444445,39.618717628518745L36.55555555555556,39.74798289855321L36.86666666666666,39.88048600859113L37.02222222222222,39.92782880385716L37.333333333333336,39.965286939938856L37.644444444444446,39.94168662680519L37.800000000000004,39.938595783180666L37.955555555555556,39.95705141756269L38.11111111111111,39.972727117538454L38.266666666666666,39.983141621483696L38.422222222222224,40.001401119232185L38.577777777777776,40.047502823935616L38.733333333333334,40.064861352178795L38.88888888888889,40.040845118098794L39.044444444444444,40.13391865836248L39.2,40.03150345961253L39.511111111111106,40.155084345075814L39.82222222222222,40.14001608159806L39.97777777777778,40.21737568007574L40.28888888888889,40.260354948043826L40.75555555555555,40.28325297461616L40.91111111111111,40.24715893003676L41.06666666666667,40.31087709479862L41.22222222222222,40.338351595666666L41.37777777777778,40.31355802959866L41.68888888888888,40.32503038406372L42.15555555555555,40.45809849209255L42.31111111111111,40.439268054962156L42.62222222222223,40.46441966056824L42.77777777777778,40.4809005133311L42.93333333333333,40.48662744839987L43.08888888888889,40.46469419055514L43.24444444444444,40.53631775326199L43.4,40.484918496873654L43.711111111111116,40.57963709513347L43.86666666666667,40.578277836905585L44.33333333333333,40.63965674400329L44.48888888888889,40.620672490861686L44.644444444444446,40.65851726531983L44.800000000000004,40.772982218000614L44.955555555555556,40.784760035408866L45.42222222222222,40.745437740749786L45.577777777777776,40.758475887510514L45.733333333333334,40.77813915676541L45.888888888888886,40.78646955278184L46.044444444444444,40.90818488862779L46.2,40.94395262824165L46.35555555555556,40.83054015053644L46.511111111111106,40.87779618263245L46.666666666666664,40.890803207821314L46.82222222222222,41.01425493876138L47.13333333333333,40.98533837742276L47.28888888888889,41.063968914879695L47.44444444444445,40.998512610329534L47.6,41.01955588552686L47.91111111111111,41.08328748914931L48.22222222222222,41.01189997884963L48.37777777777778,41.161522782643644L48.68888888888889,41.245934293535015L48.84444444444445,41.310162239074714L49.15555555555555,41.25233571794297L49.31111111111111,41.40428632100423L49.46666666666667,41.339267321692574L49.62222222222222,41.32630961947971L49.77777777777778,41.44758604685466L49.93333333333334,41.39129825168185L50.24444444444444,41.439971069759785L50.4,41.57247917811076L50.55555555555556,41.614886563618974L50.71111111111111,41.672330760955816L51.022222222222226,41.63058994293213L51.48888888888889,41.634242295159225L51.644444444444446,41.790269824133986L51.8,41.71502182430691L51.955555555555556,41.7441614235772L52.266666666666666,41.92873064041137L52.422222222222224,41.885637071397575L52.577777777777776,41.99184084998237L53.044444444444444,42.36669829686482L53.2,42.49855417251587L53.66666666666667,42.45319627337985L54.13333333333333,42.431209354400636L54.28888888888889,42.4632692888048L54.44444444444444,42.548019930521654L54.6,42.593307098812524L54.75555555555556,42.843960804409456L55.22222222222222,43.018041297064876L55.37777777777778,42.70954673555161L55.53333333333333,42.90423706478543L55.68888888888889,42.894449047512474L55.84444444444445,43.12627118428548L56.15555555555555,43.07269643571641L56.31111111111111,42.93667140112983L56.77777777777778,43.10322273678249L57.24444444444445,43.1903125890096L57.4,43.23994602627224L57.71111111111111,43.25792750464545L58.022222222222226,43.45829157935249L58.17777777777778,43.59685688866509L58.333333333333336,43.44983066134983L58.488888888888894,43.72982597351074L58.64444444444444,43.75772523668077L58.8,43.53151780870225L59.111111111111114,43.469694146050344L59.266666666666666,43.39561122470432L59.422222222222224,43.647304390801324L59.57777777777778,43.60313627878825L59.888888888888886,43.68941659291586L60.044444444444444,43.78316268920898L60.199999999999996,43.789115019904244L60.51111111111111,43.664822629292814L60.66666666666667,43.50126122792562L60.82222222222222,43.632948104010694L61.13333333333333,43.65196168687608L61.288888888888884,44.036761249966105L61.6,43.994187316894525L61.75555555555556,43.63730889638264L62.06666666666667,43.811576495700415L62.22222222222222,43.49236536237929L62.37777777777777,43.89710234747993L62.68888888888889,44.00054479387072L62.84444444444445,43.782250544230145L63.31111111111112,43.99281834496392L63.46666666666666,44.159007915920675L63.62222222222222,44.02676085154216L63.77777777777778,44.293673409356L64.08888888888889,44.823381423950195L64.24444444444444,44.06786622365317L64.55555555555556,44.021642956203884L64.86666666666666,43.82379878573948L65.02222222222223,44.30857026841905L65.17777777777778,44.639778107537175L65.33333333333333,44.152482948303216L65.64444444444445,44.003503417968744L65.8,43.69415122138129L66.26666666666667,44.46851628621419L66.88888888888889,45.04371045854356L67.04444444444444,44.21062822977702L67.5111111111111,44.652056227789984L67.66666666666667,44.417060067918555L67.97777777777777,44.06178902943929L68.13333333333334,45.0190644370185L68.28888888888889,45.33135865953233L68.44444444444444,44.42451302422417L68.6,44.932686797247996L69.06666666666666,45.24408811357286L69.22222222222223,46.04167288886177L69.37777777777778,44.996899842156296L69.53333333333333,45.00081172943115L70,45.24329932318794L70.15555555555555,44.92484529283311L70.31111111111112,45.360363587273504L70.46666666666667,45.04167906867132L70.62222222222222,45.3409516482883L70.77777777777777,44.97798283047147L71.08888888888889,45.0004665629069L71.24444444444444,45.419468167622895L71.4,45.06068812476265L71.71111111111111,45.60456607394749L71.86666666666666,45.36762377844917L72.02222222222223,45.450628971523706L72.17777777777778,45.4509126493666L72.33333333333334,45.729340943230525L72.4888888888889,45.46898390875923L72.64444444444443,45.61367658403186L72.95555555555555,45.79964400821262L73.11111111111111,45.81643607669407L73.42222222222223,45.837973713345L74.04444444444444,45.53719070010715L74.2,45.607377200656465L74.51111111111112,45.65093080308703L74.66666666666667,45.892113554212784L74.82222222222222,46.02495928446452L74.97777777777777,45.9095280541314L75.13333333333333,46.053292363484694L75.28888888888889,46.10797353108723L75.44444444444444,46.31520321316189L75.75555555555556,45.50907566070556L76.22222222222221,46.38363596598308L76.37777777777778,46.75021035936143L76.53333333333333,46.19461975945368L76.6888888888889,46.20283660888671L77,46.511905127631294L77.3111111111111,46.02046042548285L77.62222222222222,46.78236856248645L77.93333333333334,46.65866238911946L78.24444444444444,46.30113173590766L78.4,46.652339994642475L78.55555555555556,46.91623960706923L78.71111111111111,46.230065155029294L78.86666666666667,47.16843373616536L79.17777777777778,47.07077612982856L79.33333333333333,46.54067277696397L79.64444444444445,46.810843480428055L79.8,46.82425404866536L79.95555555555556,46.703561197916656L80.26666666666667,47.15039755927192L81.04444444444445,47.71984159681533L81.35555555555555,47.37414996676974L81.5111111111111,47.51309929741755L81.82222222222222,47.95742329915364L81.97777777777779,47.392354388766826L82.13333333333334,47.76503540039063L82.28888888888888,47.43220961676704L82.44444444444444,47.56670686509874L82.6,48.355421049329976L82.75555555555556,47.861779352823895L82.91111111111111,47.99841625637479L83.06666666666668,48.150316687689894L83.22222222222223,47.967784330579974L83.84444444444445,47.76627120971679L84,48.13622936672635L84.3111111111111,48.39994489034018L84.77777777777777,48.248891720241964L85.39999999999999,48.571394195556636L85.55555555555556,47.975261806911895L85.71111111111111,48.61911695692275L85.86666666666666,48.72334668477377L86.17777777777778,48.684244410196946L86.33333333333334,49.442307807074656L86.48888888888888,48.61393229166666L86.64444444444445,48.721416770087345L86.8,48.736680297851564L86.95555555555555,48.837521735297315L87.42222222222223,49.32080315483941L87.57777777777777,49.90737197875977L87.88888888888889,48.91451839023165L88.2,48.68256271362304L88.51111111111112,48.80863563537598L88.82222222222222,49.343335927327466L89.13333333333334,48.87296562194824L89.28888888888889,48.760621651543524L89.44444444444444,49.27144019232855L89.60000000000001,48.58896034240723L89.75555555555555,49.42527129279243L89.91111111111111,50.615327758789064L90.06666666666666,48.9057145690918L90.22222222222223,48.70412449306912L90.37777777777778,50.005668614705414L90.6888888888889,49.21456504821778L91,49.59326365152994L91.15555555555555,49.32914750840928L91.46666666666667,48.93755589803061L91.77777777777777,49.79736306932238L91.93333333333332,49.823544421725806L92.08888888888889,48.85521840413411L92.24444444444444,50.27926231384278L92.4,50.421115570068366L92.55555555555556,50.03888457404243L92.71111111111112,49.56294558207194L92.86666666666666,50.98129103766547L93.02222222222221,50.443621936374235L93.17777777777778,49.60593031989204L93.33333333333333,50.29562282986111L93.64444444444445,50.66460848490397L93.80000000000001,48.91621215820312L94.11111111111111,50.02096835666233L94.42222222222222,49.870919375949434L94.57777777777778,50.686808539496525L94.73333333333333,50.11823590596518L94.8888888888889,51.229669850667314L95.04444444444444,51.312493218315964L95.35555555555555,49.88796192593045L95.5111111111111,50.45393920898438L95.82222222222222,50.18901730007595L95.97777777777779,51.54499437120225L96.13333333333333,50.967494939168304L96.28888888888889,51.243564029269756L96.44444444444444,51.18286074320474L96.75555555555556,51.485983344184035L96.91111111111111,51.61092608133952L97.06666666666666,51.4188693915473L97.22222222222221,51.5531968858507L97.6888888888889,52.39369962904189L98,51.55749430338542L98.15555555555555,52.18980240715874L98.46666666666667,52.75159393310547L98.62222222222222,52.69660720825195L98.77777777777779,52.768747389051654L99.08888888888889,52.21633005777995L99.24444444444444,52.751444549560546L99.55555555555556,52.458759935167095L99.86666666666667,53.299817962646486L100.64444444444445,52.71848963419597L100.8,52.74970777723524L101.26666666666668,52.97958943684897L101.42222222222222,52.722651248508036L101.57777777777777,52.88875669691297L101.73333333333333,52.76698647393122L101.88888888888889,53.33415656195747L102.04444444444445,52.87780039469401L102.35555555555557,52.23888244628907L102.66666666666666,53.30545077853733L102.97777777777777,52.67338183932833L103.28888888888889,53.071481441921655L103.75555555555556,53.44384331597222L103.91111111111111,53.84186596340603L104.37777777777778,53.729823777940545L104.53333333333333,55.03523225572375L104.68888888888888,53.723954060872394L104.84444444444445,54.50205371432835L105.15555555555555,54.21215910169813L105.31111111111112,53.561613379584415L105.62222222222222,54.3041386244032L105.77777777777777,54.27649965074328L105.93333333333334,55.71122146606446L106.08888888888889,54.27037190755208L106.24444444444444,54.2846237013075L106.71111111111111,54.85886762830947L106.86666666666666,55.04689926147461L107.17777777777778,56.23156207614475L107.33333333333334,55.183164215087885L107.4888888888889,55.48153898451063L107.64444444444443,55.00317665947809L107.8,54.89321679009332L107.95555555555555,55.29863769531249L108.11111111111111,54.33436087714301L108.26666666666667,55.057956661648234L108.42222222222223,55.73786454942492L108.57777777777778,55.211925828721796L108.73333333333332,55.759227905273434L108.88888888888889,56.33003751966689L109.04444444444444,56.24046171400281L109.2,55.957714877658425L109.35555555555555,56.60796635945638L109.66666666666667,55.03923090616861L109.82222222222222,55.810176747639986L110.28888888888889,56.42691048516167L110.44444444444444,55.32128212822808L111.06666666666666,56.17780210706922L111.53333333333333,56.77211925930447L111.6888888888889,56.92675537109375L112,58.71485376993815L112.15555555555555,56.527709672715936L112.46666666666667,56.919405398898654L112.62222222222222,56.80430009629992L112.77777777777779,57.02260679456922L113.24444444444444,57.926544731987846L113.4,57.59892700195313L113.71111111111111,56.21221615261502L114.33333333333333,56.8714261203342L114.4888888888889,58.54554034762912L114.8,57.545803799099396L114.95555555555556,57.89309187147353L115.1111111111111,56.711127014160155L115.26666666666667,58.3029052564833L115.42222222222222,57.323062371148L115.57777777777778,58.64851842244466L115.73333333333333,57.85575503879124L116.04444444444445,57.67053302341038L116.19999999999999,59.59561160617403L116.35555555555555,58.47899676852756L116.5111111111111,58.25129248725044L116.66666666666667,58.33329952663845L116.82222222222222,59.03399134318034L116.97777777777779,57.39406331380209L117.44444444444444,58.22434761895073L117.6,57.879431576199L117.75555555555556,57.669872114393456L118.68888888888888,59.99973332722981L119,58.92487496270074L119.15555555555557,59.66220497979057L119.3111111111111,59.07665166219075L119.46666666666667,59.77468626234267L119.62222222222222,59.962877841525604L119.77777777777777,59.6264872233073L119.93333333333334,59.49094202677408L120.08888888888889,59.79143230862088L120.24444444444445,59.8035489739312L120.39999999999999,59.77124591403537L120.55555555555556,58.84619057549371L120.71111111111111,59.2234036424425L120.86666666666666,60.19837420993381L121.02222222222223,59.66349360148113L121.17777777777778,59.894407365587014L121.33333333333334,60.337810923258466L121.48888888888888,60.400173272026905L121.8,60.725268079969624L121.95555555555555,60.45950871785481L122.11111111111111,60.44213797675239L122.42222222222223,61.113555145263675L122.73333333333333,62.440461273193364L123.04444444444445,59.71976593017578L123.2,60.44042383829753L123.66666666666666,60.76100394354927L123.82222222222222,62.275095197889534L123.97777777777777,62.005492604573575L124.28888888888889,61.95705159505209L124.44444444444444,62.413448503282325L124.60000000000001,60.864421115451385L124.91111111111111,62.63967403835721L125.06666666666666,61.57041529337565L125.22222222222223,61.710663808186844L125.37777777777778,62.19520517985027L125.6888888888889,60.80655234442817L125.84444444444443,62.15334760877822L126,61.957695905897346L126.15555555555555,63.39987331814236L126.31111111111112,61.28070175170899L126.46666666666667,63.28845733642578L126.62222222222223,63.70659244113498L126.77777777777777,62.92584613376192L126.93333333333332,64.19503890991211L127.24444444444444,63.65238884819878L127.4,63.1398689948188L127.55555555555556,61.771434241400826L128.0222222222222,61.496580590142145L128.17777777777778,64.64643373277453L128.33333333333331,63.04783515082465L128.64444444444445,63.93096803453233L128.8,63.93447024875217L128.95555555555555,64.53676055908203L129.11111111111111,64.98846320258247L129.42222222222222,63.07682913886177L129.57777777777778,64.50937357584635L129.73333333333332,64.16290786743164L129.88888888888889,63.364855702718096L130.04444444444445,63.477975260416656L130.35555555555555,63.33681535508897L130.66666666666666,63.78728822496203L130.9777777777778,65.82125383165148L131.13333333333333,63.40707692464192L131.2888888888889,64.93694851345487L131.75555555555556,65.34501607259115L132.3777777777778,64.99692223442925L132.53333333333333,64.3134819539388L132.6888888888889,63.479610934787324L132.84444444444443,65.47605109320747L133,63.5178636847602L133.3111111111111,65.0294214545356L133.46666666666667,66.30675337049696L133.93333333333334,66.05381232367621L134.08888888888887,65.83678066677518L134.4,65.82231611463759L134.7111111111111,64.11249469333224L134.86666666666667,67.87186740451388L135.33333333333334,63.57009058634439L135.64444444444445,67.4423882039388L135.79999999999998,68.48190755208334L135.95555555555555,65.51409410264756L136.11111111111111,66.75044664171007L136.26666666666668,67.36316663953994L136.42222222222222,67.52837578667534L136.57777777777778,67.72162980821398L136.73333333333335,66.77326158311632L136.88888888888889,67.19570617675781L137.04444444444445,66.66783905029297L137.2,68.32571875678168L137.35555555555555,66.64741424560548L137.51111111111112,67.82219058566622L137.66666666666666,68.3639518907335L138.13333333333333,66.542359890408L138.2888888888889,68.80310329861112L138.6,68.80132578531901L138.91111111111113,68.49680667453343L139.06666666666666,69.70834343804253L139.22222222222223,68.06484076605904L139.37777777777777,69.17993008083768L139.53333333333333,68.99849697536894L139.6888888888889,67.50324917263455L139.84444444444446,68.88657399495443L140,69.49965915256075L140.15555555555554,70.45617557101781L140.46666666666667,68.55748053656684L140.62222222222223,69.01597635904947L140.77777777777777,73.1498023139106L140.93333333333334,70.78688961452909L141.0888888888889,69.82100579155816L141.4,70.52896911621093L141.55555555555554,72.0059710015191L141.7111111111111,68.71081444634332L141.86666666666667,70.00996239556207L142.02222222222224,71.26302174886068L142.17777777777778,71.60773559570312L142.33333333333331,69.18145107693141L142.48888888888888,71.49940687391494L142.64444444444445,70.44142734103734L142.8,69.88363521999784L142.95555555555555,72.73418107774522L143.1111111111111,69.91465267605253L143.26666666666668,71.22545254177518L143.73333333333332,71.41387800428603L144.04444444444445,71.18982079399956L144.35555555555555,71.24035769992403L144.82222222222222,72.51346462673612L144.9777777777778,71.2103904554579L145.13333333333333,72.75507063123915L145.28888888888886,73.50040700276693L145.44444444444446,73.15343580457899L145.6,73.186070827908L145.75555555555556,73.27576734754774L145.9111111111111,72.22440595838759L146.06666666666666,72.17177164713542L146.22222222222223,75.068783331977L146.3777777777778,72.49828182644315L146.53333333333333,74.92818776448568L146.68888888888887,74.95082767062716L147.15555555555557,76.40973453097872L147.3111111111111,73.70019165039062L147.46666666666664,76.28691107855903L147.77777777777777,76.81387285020617L147.93333333333334,75.88165917290581L148.24444444444447,75.49853715684678L148.4,76.38908640543619L148.55555555555554,74.96307712131077L148.7111111111111,76.86398423936632L148.86666666666665,75.73775906032985L149.02222222222224,75.5511171468099L149.48888888888888,75.77567532009547L149.64444444444445,76.13195960150824L149.8,77.06000864664713L150.42222222222225,75.73056148952907L150.57777777777778,79.48196858723959L150.88888888888889,79.72301327175565L151.04444444444442,77.82523566351996L151.20000000000002,78.1149944729275L151.35555555555555,78.452894015842L151.66666666666666,79.00592698838976L151.9777777777778,78.20157053629556L152.13333333333333,79.11311194525825L152.2888888888889,80.30493913438585L152.60000000000002,78.38393615722656L152.75555555555556,76.93593882242838L152.9111111111111,78.98353454589844L153.06666666666666,78.11174424913195L153.22222222222223,79.72129007975262L153.3777777777778,79.73981062147352L153.53333333333333,78.09822428385417L153.6888888888889,78.66997697618272L154.15555555555557,81.02849870469835L154.3111111111111,77.68578687879774L154.6222222222222,80.81767778184678L154.7777777777778,78.58122806125216L154.93333333333334,78.15001963297526L155.08888888888887,79.84283094618056L155.24444444444444,79.82726789686416L155.4,78.65186987982857L155.7111111111111,77.27108608669705L155.86666666666667,78.04713812934028L156.0222222222222,80.14374070909288L156.17777777777778,79.19037794325087L156.33333333333334,80.30007436116537L156.48888888888888,78.95454810248481L156.64444444444445,78.87090538872613L156.8,80.66108459472656L157.26666666666665,81.34758799235026L157.42222222222222,80.94021755642362L157.73333333333335,82.9706507703993L157.88888888888889,81.840104031033L158.04444444444442,80.95706017388238L158.2,80.1083805677626L158.51111111111112,82.35280344645182L158.82222222222222,84.40111741807725L158.9777777777778,83.12008260091146L159.13333333333333,85.19301920572916L159.2888888888889,83.9160433959961L159.44444444444443,85.67643642849393L159.6,82.21095547146268L159.75555555555556,83.21974104139541L159.91111111111113,84.93302846272788L160.2222222222222,84.35707492404515L160.3777777777778,84.36722696940103L160.53333333333333,82.93801574707031L160.84444444444443,82.14783715142144L161.15555555555557,82.1000102742513L161.3111111111111,82.79915242513022L161.46666666666667,83.04560509575738L161.6222222222222,84.85411170111762L161.77777777777777,85.7748545328776L161.93333333333334,84.94678382025825L162.24444444444444,83.787371351454L162.39999999999998,86.82797231038413L162.55555555555557,85.19329986572265L162.86666666666667,89.27369781494141L163.0222222222222,84.01476932101781L163.33333333333334,84.48027862548828L163.79999999999998,85.78934926350912L164.11111111111111,85.96282430013021L164.26666666666668,87.69319878472223L164.42222222222222,90.25959601508247L164.88888888888889,86.38916493733724L165.04444444444445,87.44072550455729L165.35555555555555,85.21862867567275L165.51111111111112,88.74433383517794L165.82222222222222,91.36709242078993L165.97777777777776,88.68390441894532L166.13333333333335,89.2001830037435L166.44444444444446,88.5549185180664L166.6,87.87453833685981L167.06666666666666,86.58868401421441L167.22222222222223,89.22795928955078L167.53333333333336,88.59021528455946L167.6888888888889,90.93037339952257L167.84444444444443,90.18769273546008L168,88.90195309109158L168.31111111111113,88.19355519612631L168.46666666666667,90.33407050238715L168.6222222222222,85.41188571506078L168.77777777777777,90.00924126519097L169.0888888888889,87.30377851698134L169.4,88.84407677544488L169.71111111111114,88.56526068793403L169.86666666666667,87.9175668334961L170.0222222222222,89.16997433132596L170.17777777777778,88.51469058566624L170.33333333333331,90.24276245117187L170.95555555555555,86.59437869601778L171.11111111111111,89.10596574571397L171.26666666666668,90.42170884874132L171.42222222222222,89.29899041069878L171.57777777777778,87.47945356580946L171.8888888888889,88.45028967963324L172.04444444444445,87.85192860921225L172.2,89.66590053982203L172.35555555555555,88.70454952663846L172.51111111111112,91.95076260036893L172.66666666666669,89.10324968126085L172.82222222222222,92.260538804796L172.97777777777776,94.18870917426216L173.13333333333333,90.93663241916232L173.2888888888889,92.722221476237L173.6,90.34347412109375L173.75555555555556,91.50763970269098L173.9111111111111,93.79662414550782L174.06666666666666,97.16180386013455L174.22222222222223,93.23741665310331L174.37777777777777,94.3672934299045L174.53333333333333,91.40474914550782L174.84444444444446,102.80139784071181L175,96.951290757921L175.15555555555554,97.50126966688369L175.3111111111111,100.313995836046L175.46666666666667,98.49126308865019L175.62222222222223,97.74029541015625L175.93333333333334,93.73346055772569L176.0888888888889,93.05443237304686L176.7111111111111,88.21088368733724L176.86666666666667,90.39644944932726L177.17777777777778,92.06754130045572L177.33333333333331,90.25137539333768L177.48888888888888,91.2144918484158L177.64444444444445,89.76253811306422L177.8,91.90440239800347L177.95555555555555,89.98231903076172L178.1111111111111,88.81518086751302L178.42222222222222,90.59652079264325L178.57777777777778,91.90982849121093L178.73333333333332,87.47642968071831L178.88888888888889,90.79070732964409L179.20000000000002,90.33095608181422L179.35555555555555,89.47503061930338L179.5111111111111,90.21753926595052L179.66666666666669,94.35294053819445L179.82222222222222,92.18934773763021L179.9777777777778,90.93919155544705L180.75555555555556,89.41283576117623L180.9111111111111,91.23514600965711L181.06666666666666,87.89166765001085L181.22222222222223,89.83751959906685L181.3777777777778,91.76290751139322L181.53333333333333,90.92347459581163L181.84444444444446,94.14256625705296L182.15555555555557,89.39036485460069L182.62222222222223,90.16398149278429L182.77777777777777,91.248466796875L182.93333333333334,89.77292856852213L183.08888888888887,92.46245103624132L183.55555555555554,90.93452596028646L183.7111111111111,89.96985833062065L184.02222222222224,92.78116007486979L184.17777777777778,93.05807793511285L184.33333333333334,92.09340426974825L184.48888888888888,88.39214175754122L184.8,93.11489196777345L184.95555555555555,93.6000112575955L185.11111111111111,92.4628976779514L185.26666666666665,91.46789462619357L185.42222222222225,90.72668667263456L185.57777777777778,90.76110826280382L185.73333333333332,95.01416944715712L185.88888888888889,92.74620130750868L186.04444444444442,97.7622412109375L186.35555555555555,93.77676669650609L186.51111111111112,90.26849263509115L186.82222222222222,96.36461480034721L187.13333333333333,93.49754923502603L187.2888888888889,96.76730455186632L187.60000000000002,92.13669230143229L187.9111111111111,94.41891676161025L188.06666666666666,92.02868950737847L188.22222222222223,91.94099080403646L188.3777777777778,98.18359334309896L188.84444444444443,96.72125820583766L189,95.33991007486979L189.15555555555557,95.331297132704L189.3111111111111,89.39599012586805L189.6222222222222,95.6286579047309L189.7777777777778,95.97636244032118L189.93333333333334,94.17290167914497L190.08888888888887,96.08992411295573L190.24444444444444,92.18229200575087L190.7111111111111,97.71627332899305L191.0222222222222,93.6046285671658L191.17777777777778,97.11706726074219L191.48888888888888,97.23358642578125L191.64444444444445,99.31304762098524L191.95555555555558,95.8815838623047L192.11111111111111,96.22663872612847L192.26666666666665,96.87115478515625L192.42222222222222,97.47905225965712L192.73333333333335,99.42637390136719L192.88888888888889,97.29517469618057L193.04444444444442,91.49998643663194L193.35555555555555,97.33949483235678L193.51111111111112,97.63256422254776L193.66666666666666,102.74161424424912L193.82222222222222,91.85076314290366L194.13333333333333,97.38159986707899L194.2888888888889,95.83394409179687L194.6,101.33172932942709L195.06666666666666,98.81469204372831L195.3777777777778,97.53493075900609L195.53333333333333,98.92488579644096L195.6888888888889,96.96498575846353L195.84444444444443,99.9376277669271L196.15555555555557,95.37033603244356L196.46666666666667,96.15874918619791L196.6222222222222,101.98706739637586L196.77777777777777,99.80043029785156L196.93333333333334,100.71897311740453L197.0888888888889,97.2726011827257L197.24444444444444,100.68044121636284L197.39999999999998,94.49879319932725L197.55555555555557,100.62905327690972L197.7111111111111,100.85673794216581L198.17777777777778,98.64513719346789L198.33333333333334,99.81471076117622L198.48888888888888,98.73512342664931L199.26666666666668,98.84383239746094L199.42222222222222,99.94878777398003L199.57777777777775,102.09623508029513L199.73333333333335,103.27931654188367L200.04444444444445,104.21666659884984L200.2,100.15937934027778L200.35555555555555,101.54187425401474L200.51111111111112,101.519970703125L200.66666666666666,96.44285556369357L201.44444444444446,103.7252098253038L201.6,102.73994839138456L201.75555555555553,101.85984090169272L201.91111111111113,103.95751180013019L202.06666666666666,105.85805677625868L202.22222222222223,101.89834262424044L202.53333333333336,102.17522427029081L202.6888888888889,104.84957600911459L202.84444444444443,103.21476474338107L203,103.75935980902777L203.15555555555554,103.77318155924479L203.31111111111113,105.76240905761719L203.46666666666667,103.755092569987L203.6222222222222,108.18328559027778L203.77777777777777,104.64632385253907L204.0888888888889,107.1180270046658L204.24444444444444,103.4817780219184L204.4,106.27264892578125L204.55555555555554,102.72153347439237L204.71111111111114,107.65039978027343L204.86666666666667,106.68341444227431L205.0222222222222,103.51254801432292L205.33333333333331,105.50498046875L205.64444444444445,109.92798278808593L205.95555555555555,109.06854153103299L206.11111111111111,102.04775031195747L206.26666666666668,112.82552259657118L206.57777777777778,110.1300278049045L206.8888888888889,114.31696187337238L207.04444444444445,108.14144612630209L207.35555555555555,107.71156555175781L207.66666666666669,109.32822143554688L207.82222222222222,110.86151828342015L207.97777777777776,107.11292683919271L208.2888888888889,111.61349995930988L208.75555555555556,113.77036295572918L208.9111111111111,108.21663886176215L209.37777777777777,105.25165011935763L209.53333333333333,108.85903035481769L209.6888888888889,115.41856140136719L210.15555555555554,111.94520385742187L210.3111111111111,112.12535135904947L210.62222222222223,108.09605163574219L210.77777777777777,115.24823398166231L210.93333333333334,108.56001580132379L211.0888888888889,108.11985039605035L211.24444444444444,111.71718119303385L211.4,113.76080240885416L211.55555555555554,109.95227647569445L211.7111111111111,115.2647899034288L211.86666666666667,111.16690653483072L212.02222222222224,113.08774353027343L212.33333333333331,112.59861050075953L212.48888888888888,113.68016547309027L212.64444444444445,111.76973402235242L213.1111111111111,115.87997850206162L213.26666666666668,115.28483445909288L213.57777777777778,112.79770406087238L213.73333333333332,112.82498541937935L213.88888888888889,112.91573215060762L214.04444444444445,116.71556064181857L214.35555555555555,112.77834757486978L214.5111111111111,113.67576544867622L214.82222222222222,107.75173916286893L214.9777777777778,114.52885111490885L215.13333333333333,116.82405232747396L215.28888888888886,112.95727586534288L215.44444444444446,111.69572428385416L215.6,110.08122918023004L215.75555555555556,114.28873291015626L215.9111111111111,112.8477581108941L216.06666666666666,114.46448038736979L216.22222222222223,113.18564860026044L216.3777777777778,114.5807098388672L216.53333333333333,111.66503879123263L216.68888888888887,114.34405008951825L216.84444444444446,111.04787048339844L217.15555555555557,113.6005908203125L217.3111111111111,115.3622604031033L217.46666666666664,114.34179273817276L217.62222222222223,111.02709560818144L217.93333333333334,114.76015719943575L218.08888888888887,116.17394721137153L218.7111111111111,110.59619500054254L219.17777777777778,113.04241543240019L219.48888888888888,114.92358581542969L219.64444444444445,116.59116488986544L219.8,116.53293850368925L219.95555555555555,115.78973273383247L220.11111111111111,119.24189893934462L220.42222222222225,110.9290094672309L220.57777777777778,116.42368631998697L220.73333333333332,111.41475646972657L220.88888888888889,118.00916781955294L221.04444444444442,119.11709275987413L221.35555555555555,114.84411376953125L221.51111111111112,113.95574944390191L221.66666666666666,122.74650933159722L221.82222222222222,117.85616285536025L221.9777777777778,116.87130581325955L222.13333333333333,115.52843526204428L222.2888888888889,115.78748745388454L222.44444444444443,116.3879248046875L222.60000000000002,116.766351047092L222.75555555555556,119.69632670084634L222.9111111111111,112.71635491265191L223.22222222222223,117.95261935763888L223.3777777777778,117.20587063259549L223.6888888888889,118.37974765353732L223.84444444444443,117.03358161078559L224,120.85097398546006L224.3111111111111,115.18888495551215L224.46666666666667,124.0750390625L224.6222222222222,118.5877197265625L224.7777777777778,118.48912055121528L224.93333333333334,115.90163458930122L225.08888888888887,117.43985053168403L225.7111111111111,118.62169467502171L226.0222222222222,123.60190063476563L226.48888888888888,130.66301635742187L226.64444444444445,122.12066772460938L226.8,125.26649203830294L226.95555555555558,115.71069525824653L227.11111111111111,122.81520161946615L227.26666666666665,126.84596198187934L227.57777777777778,123.87864345974391L227.73333333333335,125.75724867078993L227.88888888888889,125.02776204427082L228.04444444444442,121.70848381890191L228.2,130.5022072347005L228.35555555555555,122.75668551974826L228.51111111111112,128.49815002441406L228.66666666666666,128.39117933485244L228.82222222222222,126.3866754828559L228.9777777777778,125.23791904025606L229.2888888888889,122.86074096679687L229.44444444444443,126.90201551649307L229.6,121.57134670681423L229.91111111111113,125.17340345594619L230.06666666666666,124.89025675455729L230.2222222222222,126.73430759006075L230.3777777777778,124.44103780110677L230.53333333333333,120.1288629828559L230.6888888888889,128.16781019422743L231,124.50277092827692L231.15555555555557,125.92224656846787L231.3111111111111,126.85065775553385L231.46666666666667,123.99968336317275L231.6222222222222,128.96674357096356L231.77777777777777,122.08523817274306L231.93333333333334,122.69821166992188L232.24444444444444,128.7483297390408L232.39999999999998,124.58290086534288L232.55555555555557,125.72524136013456L232.7111111111111,127.38117153591578L232.86666666666667,124.65932488335504L233.0222222222222,125.88417941623263L233.17777777777778,128.86618279351129L233.33333333333334,122.95140923394096L233.48888888888888,130.53621839735243L233.79999999999998,125.94775946723091L233.95555555555558,130.1837154812283L234.26666666666668,126.21591349283854L234.88888888888889,129.28775221082898L235.04444444444445,130.01978590223524L235.35555555555555,126.6048297797309L235.51111111111112,128.92612331814237L235.66666666666666,125.251463148329L235.97777777777776,125.60967583550347L236.2888888888889,130.1274929470486L236.44444444444446,128.2566617160373L236.6,132.51111111111112L236.91111111111113,132.35140652126736L237.06666666666666,128.1702365451389L237.22222222222223,133.75925740559896L237.37777777777777,128.67900973849825L237.6888888888889,132.57574137369792L237.84444444444443,129.265070054796L238,129.2555577935113L238.15555555555554,136.03003818088106L238.31111111111113,135.2113801405165L238.6222222222222,128.04951653374567L238.77777777777777,128.2571143934462L238.93333333333334,137.43561964246962L239.24444444444444,134.04027954101562L239.4,126.77309902615016L239.86666666666667,137.27933125813803L240.17777777777778,130.2431248643663L240.33333333333331,134.2735774061415L240.64444444444445,133.14058017306857L240.79999999999998,129.67094061957465L240.95555555555555,138.14264139811198L241.11111111111111,134.99445712619357L241.26666666666668,137.08428161621094L241.42222222222222,131.96838107638888L241.57777777777778,137.00831631130643L241.73333333333332,135.21483859592013L242.04444444444445,141.07429497612847L242.2,130.87710862901477L242.35555555555555,143.5567054578993L242.51111111111112,133.98626003689236L242.66666666666669,139.76248413085938L242.82222222222222,135.08453993055556L242.97777777777776,138.58730943467882L243.2888888888889,140.73820312499998L243.44444444444446,136.4307784016927L243.6,142.25779893663196L243.75555555555556,141.27847059461806L243.9111111111111,141.1391183810764L244.06666666666666,132.91358961317275L244.53333333333333,141.56657864040798L244.84444444444446,142.73486056857638L245,137.64728556315106L245.15555555555554,135.92044799804688L245.3111111111111,148.45836886935763L245.46666666666667,138.15122416178386L245.62222222222223,143.31869371202257L245.77777777777777,143.00659979926218L245.93333333333334,145.71808919270833L246.0888888888889,140.13718031141494L246.24444444444444,140.297633327908L246.7111111111111,144.2871336534288L246.86666666666667,138.28692477756076L247.33333333333331,146.28262017144098L247.48888888888888,145.90315578884548L247.64444444444445,138.70396138509113L247.8,140.67770731608073L247.95555555555555,145.70460544162327L248.1111111111111,144.62095608181423L248.42222222222222,144.4513288031684L248.57777777777778,143.31099216037327L248.73333333333332,139.50169969346788L248.88888888888889,143.53629272460938L249.04444444444445,143.18588419596355L249.20000000000002,143.1365242513021L249.35555555555555,137.9556131998698L249.66666666666669,142.18154391818575L249.82222222222222,143.27874945746527L249.9777777777778,142.68190334743923L250.28888888888886,148.8964640299479L250.44444444444446,142.2881947157118L250.6,142.36907307942707L250.9111111111111,145.33733317057292L251.06666666666666,146.89620930989582L251.3777777777778,146.49807047526042L251.53333333333333,148.1310649956597L251.68888888888887,143.43595526801215L251.84444444444446,147.39381646050347L252,141.5927615017361L252.15555555555557,142.64875528971353L252.46666666666664,144.57677476671006L252.62222222222223,143.2167507595486L252.93333333333334,145.23322943793403" style="fill: none;" fill="none"></path></g></g></g></g></g></g><g transform="translate(50, 178)" clip-path="url(#clip_1)"><clipPath id="clip_1"><rect width="280" height="22"></rect></clipPath><g><g><line x1="0" y1="0" x2="0" y2="5" style="visibility: inherit;" fill="rgb(0, 0, 0)" stroke="rgb(204, 204, 204)" stroke-width="1px"></line><line x1="31.11111111111111" y1="0" x2="31.11111111111111" y2="5" style="visibility: inherit;" fill="rgb(0, 0, 0)" stroke="rgb(204, 204, 204)" stroke-width="1px"></line><line x1="62.22222222222222" y1="0" x2="62.22222222222222" y2="5" style="visibility: inherit;" fill="rgb(0, 0, 0)" stroke="rgb(204, 204, 204)" stroke-width="1px"></line><line x1="93.33333333333333" y1="0" x2="93.33333333333333" y2="5" style="visibility: inherit;" fill="rgb(0, 0, 0)" stroke="rgb(204, 204, 204)" stroke-width="1px"></line><line x1="124.44444444444444" y1="0" x2="124.44444444444444" y2="5" style="visibility: inherit;" fill="rgb(0, 0, 0)" stroke="rgb(204, 204, 204)" stroke-width="1px"></line><line x1="155.55555555555557" y1="0" x2="155.55555555555557" y2="5" style="visibility: inherit;" fill="rgb(0, 0, 0)" stroke="rgb(204, 204, 204)" stroke-width="1px"></line><line x1="186.66666666666666" y1="0" x2="186.66666666666666" y2="5" style="visibility: inherit;" fill="rgb(0, 0, 0)" stroke="rgb(204, 204, 204)" stroke-width="1px"></line><line x1="217.77777777777777" y1="0" x2="217.77777777777777" y2="5" style="visibility: inherit;" fill="rgb(0, 0, 0)" stroke="rgb(204, 204, 204)" stroke-width="1px"></line><line x1="248.88888888888889" y1="0" x2="248.88888888888889" y2="5" style="visibility: inherit;" fill="rgb(0, 0, 0)" stroke="rgb(204, 204, 204)" stroke-width="1px"></line><line x1="280" y1="0" x2="280" y2="5" style="visibility: inherit;" fill="rgb(0, 0, 0)" stroke="rgb(204, 204, 204)" stroke-width="1px"></line></g><g transform="translate(0, 8)"><text x="0" y="0" dx="0em" dy="0.95em" style="text-anchor: middle; visibility: hidden; font-family: Roboto, sans-serif; font-size: 12px; font-weight: 200;" fill="rgb(50, 49, 63)" stroke="none" stroke-width="1px">-200</text><text x="31.11111111111111" y="0" dx="0em" dy="0.95em" style="text-anchor: middle; visibility: inherit; font-family: Roboto, sans-serif; font-size: 12px; font-weight: 200;" fill="rgb(50, 49, 63)" stroke="none" stroke-width="1px">0</text><text x="62.22222222222222" y="0" dx="0em" dy="0.95em" style="text-anchor: middle; visibility: inherit; font-family: Roboto, sans-serif; font-size: 12px; font-weight: 200;" fill="rgb(50, 49, 63)" stroke="none" stroke-width="1px">200</text><text x="93.33333333333333" y="0" dx="0em" dy="0.95em" style="text-anchor: middle; visibility: inherit; font-family: Roboto, sans-serif; font-size: 12px; font-weight: 200;" fill="rgb(50, 49, 63)" stroke="none" stroke-width="1px">400</text><text x="124.44444444444444" y="0" dx="0em" dy="0.95em" style="text-anchor: middle; visibility: inherit; font-family: Roboto, sans-serif; font-size: 12px; font-weight: 200;" fill="rgb(50, 49, 63)" stroke="none" stroke-width="1px">600</text><text x="155.55555555555557" y="0" dx="0em" dy="0.95em" style="text-anchor: middle; visibility: inherit; font-family: Roboto, sans-serif; font-size: 12px; font-weight: 200;" fill="rgb(50, 49, 63)" stroke="none" stroke-width="1px">800</text><text x="186.66666666666666" y="0" dx="0em" dy="0.95em" style="text-anchor: middle; visibility: inherit; font-family: Roboto, sans-serif; font-size: 12px; font-weight: 200;" fill="rgb(50, 49, 63)" stroke="none" stroke-width="1px">1k</text><text x="217.77777777777777" y="0" dx="0em" dy="0.95em" style="text-anchor: middle; visibility: inherit; font-family: Roboto, sans-serif; font-size: 12px; font-weight: 200;" fill="rgb(50, 49, 63)" stroke="none" stroke-width="1px">1.2k</text><text x="248.88888888888889" y="0" dx="0em" dy="0.95em" style="text-anchor: middle; visibility: inherit; font-family: Roboto, sans-serif; font-size: 12px; font-weight: 200;" fill="rgb(50, 49, 63)" stroke="none" stroke-width="1px">1.4k</text><text x="280" y="0" dx="0em" dy="0.95em" style="text-anchor: middle; visibility: hidden; font-family: Roboto, sans-serif; font-size: 12px; font-weight: 200;" fill="rgb(50, 49, 63)" stroke="none" stroke-width="1px">1.6k</text></g><line x1="0" y1="0" x2="280" y2="0" fill="rgb(0, 0, 0)" stroke="rgb(204, 204, 204)" stroke-width="1px"></line></g></g></g></g></svg>