<svg viewBox="0 0 330 200" xmlns="http://www.w3.org/2000/svg"><g><g><g><g><g><line x1="61.953125" y1="178" x2="56.953125" y2="178" style="visibility: inherit;" fill="rgb(0, 0, 0)" stroke="rgb(204, 204, 204)" stroke-width="1px"></line><line x1="61.953125" y1="161.8181818181818" x2="56.953125" y2="161.8181818181818" style="visibility: inherit;" fill="rgb(0, 0, 0)" stroke="rgb(204, 204, 204)" stroke-width="1px"></line><line x1="61.953125" y1="145.63636363636363" x2="56.953125" y2="145.63636363636363" style="visibility: inherit;" fill="rgb(0, 0, 0)" stroke="rgb(204, 204, 204)" stroke-width="1px"></line><line x1="61.953125" y1="129.45454545454547" x2="56.953125" y2="129.45454545454547" style="visibility: inherit;" fill="rgb(0, 0, 0)" stroke="rgb(204, 204, 204)" stroke-width="1px"></line><line x1="61.953125" y1="113.27272727272727" x2="56.953125" y2="113.27272727272727" style="visibility: inherit;" fill="rgb(0, 0, 0)" stroke="rgb(204, 204, 204)" stroke-width="1px"></line><line x1="61.953125" y1="97.09090909090908" x2="56.953125" y2="97.09090909090908" style="visibility: inherit;" fill="rgb(0, 0, 0)" stroke="rgb(204, 204, 204)" stroke-width="1px"></line><line x1="61.953125" y1="80.90909090909089" x2="56.953125" y2="80.90909090909089" style="visibility: inherit;" fill="rgb(0, 0, 0)" stroke="rgb(204, 204, 204)" stroke-width="1px"></line><line x1="61.953125" y1="64.72727272727275" x2="56.953125" y2="64.72727272727275" style="visibility: inherit;" fill="rgb(0, 0, 0)" stroke="rgb(204, 204, 204)" stroke-width="1px"></line><line x1="61.953125" y1="48.54545454545454" x2="56.953125" y2="48.54545454545454" style="visibility: inherit;" fill="rgb(0, 0, 0)" stroke="rgb(204, 204, 204)" stroke-width="1px"></line><line x1="61.953125" y1="32.363636363636374" x2="56.953125" y2="32.363636363636374" style="visibility: inherit;" fill="rgb(0, 0, 0)" stroke="rgb(204, 204, 204)" stroke-width="1px"></line><line x1="61.953125" y1="16.181818181818187" x2="56.953125" y2="16.181818181818187" style="visibility: inherit;" fill="rgb(0, 0, 0)" stroke="rgb(204, 204, 204)" stroke-width="1px"></line><line x1="61.953125" y1="0" x2="56.953125" y2="0" style="visibility: inherit;" fill="rgb(0, 0, 0)" stroke="rgb(204, 204, 204)" stroke-width="1px"></line></g><g transform="translate(51.953125, 0)"><text x="0" y="178" dx="0em" dy="0.3em" style="text-anchor: end; visibility: hidden; font-family: Roboto, sans-serif; font-size: 12px; font-weight: 200;" fill="rgb(50, 49, 63)" stroke="none" stroke-width="1px">-0.02</text><text x="0" y="161.8181818181818" dx="0em" dy="0.3em" style="text-anchor: end; visibility: inherit; font-family: Roboto, sans-serif; font-size: 12px; font-weight: 200;" fill="rgb(50, 49, 63)" stroke="none" stroke-width="1px">0</text><text x="0" y="145.63636363636363" dx="0em" dy="0.3em" style="text-anchor: end; visibility: hidden; font-family: Roboto, sans-serif; font-size: 12px; font-weight: 200;" fill="rgb(50, 49, 63)" stroke="none" stroke-width="1px">0.02</text><text x="0" y="129.45454545454547" dx="0em" dy="0.3em" style="text-anchor: end; visibility: inherit; font-family: Roboto, sans-serif; font-size: 12px; font-weight: 200;" fill="rgb(50, 49, 63)" stroke="none" stroke-width="1px">0.04</text><text x="0" y="113.27272727272727" dx="0em" dy="0.3em" style="text-anchor: end; visibility: hidden; font-family: Roboto, sans-serif; font-size: 12px; font-weight: 200;" fill="rgb(50, 49, 63)" stroke="none" stroke-width="1px">0.06</text><text x="0" y="97.09090909090908" dx="0em" dy="0.3em" style="text-anchor: end; visibility: inherit; font-family: Roboto, sans-serif; font-size: 12px; font-weight: 200;" fill="rgb(50, 49, 63)" stroke="none" stroke-width="1px">0.08</text><text x="0" y="80.90909090909089" dx="0em" dy="0.3em" style="text-anchor: end; visibility: hidden; font-family: Roboto, sans-serif; font-size: 12px; font-weight: 200;" fill="rgb(50, 49, 63)" stroke="none" stroke-width="1px">0.1</text><text x="0" y="64.72727272727275" dx="0em" dy="0.3em" style="text-anchor: end; visibility: inherit; font-family: Roboto, sans-serif; font-size: 12px; font-weight: 200;" fill="rgb(50, 49, 63)" stroke="none" stroke-width="1px">0.12</text><text x="0" y="48.54545454545454" dx="0em" dy="0.3em" style="text-anchor: end; visibility: hidden; font-family: Roboto, sans-serif; font-size: 12px; font-weight: 200;" fill="rgb(50, 49, 63)" stroke="none" stroke-width="1px">0.14</text><text x="0" y="32.363636363636374" dx="0em" dy="0.3em" style="text-anchor: end; visibility: inherit; font-family: Roboto, sans-serif; font-size: 12px; font-weight: 200;" fill="rgb(50, 49, 63)" stroke="none" stroke-width="1px">0.16</text><text x="0" y="16.181818181818187" dx="0em" dy="0.3em" style="text-anchor: end; visibility: hidden; font-family: Roboto, sans-serif; font-size: 12px; font-weight: 200;" fill="rgb(50, 49, 63)" stroke="none" stroke-width="1px">0.18</text><text x="0" y="0" dx="0em" dy="0.3em" style="text-anchor: end; visibility: hidden; font-family: Roboto, sans-serif; font-size: 12px; font-weight: 200;" fill="rgb(50, 49, 63)" stroke="none" stroke-width="1px">0.2</text></g><line x1="61.953125" y1="0" x2="61.953125" y2="178" fill="rgb(0, 0, 0)" stroke="rgb(204, 204, 204)" stroke-width="1px"></line></g></g><g transform="translate(61, 0)" clip-path="url(#clip_0)"><clipPath id="clip_0"><rect width="268" height="178"></rect></clipPath><g><g><g><line x1="0" y1="0" x2="0" y2="178" fill="rgb(0, 0, 0)" stroke="rgb(60, 60, 60)" stroke-width="1px" opacity="0.25"></line><line x1="33.505859375" y1="0" x2="33.505859375" y2="178" fill="rgb(0, 0, 0)" stroke="rgb(60, 60, 60)" stroke-width="1px" opacity="0.25"></line><line x1="67.01171875" y1="0" x2="67.01171875" y2="178" fill="rgb(0, 0, 0)" stroke="rgb(60, 60, 60)" stroke-width="1px" opacity="0.25"></line><line x1="100.517578125" y1="0" x2="100.517578125" y2="178" fill="rgb(0, 0, 0)" stroke="rgb(60, 60, 60)" stroke-width="1px" opacity="0.25"></line><line x1="134.0234375" y1="0" x2="134.0234375" y2="178" fill="rgb(0, 0, 0)" stroke="rgb(60, 60, 60)" stroke-width="1px" opacity="0.25"></line><line x1="167.529296875" y1="0" x2="167.529296875" y2="178" fill="rgb(0, 0, 0)" stroke="rgb(60, 60, 60)" stroke-width="1px" opacity="0.25"></line><line x1="201.03515625" y1="0" x2="201.03515625" y2="178" fill="rgb(0, 0, 0)" stroke="rgb(60, 60, 60)" stroke-width="1px" opacity="0.25"></line><line x1="234.541015625" y1="0" x2="234.541015625" y2="178" fill="rgb(0, 0, 0)" stroke="rgb(60, 60, 60)" stroke-width="1px" opacity="0.25"></line><line x1="268.046875" y1="0" x2="268.046875" y2="178" fill="rgb(0, 0, 0)" stroke="rgb(60, 60, 60)" stroke-width="1px" opacity="0.25"></line></g><g><line x1="0" y1="178" x2="268.046875" y2="178" fill="rgb(0, 0, 0)" stroke="rgb(60, 60, 60)" stroke-width="1px" opacity="0.25"></line><line x1="0" y1="161.8181818181818" x2="268.046875" y2="161.8181818181818" fill="rgb(0, 0, 0)" stroke="rgb(60, 60, 60)" stroke-width="1px" opacity="0.25"></line><line x1="0" y1="145.63636363636363" x2="268.046875" y2="145.63636363636363" fill="rgb(0, 0, 0)" stroke="rgb(60, 60, 60)" stroke-width="1px" opacity="0.25"></line><line x1="0" y1="129.45454545454547" x2="268.046875" y2="129.45454545454547" fill="rgb(0, 0, 0)" stroke="rgb(60, 60, 60)" stroke-width="1px" opacity="0.25"></line><line x1="0" y1="113.27272727272727" x2="268.046875" y2="113.27272727272727" fill="rgb(0, 0, 0)" stroke="rgb(60, 60, 60)" stroke-width="1px" opacity="0.25"></line><line x1="0" y1="97.09090909090908" x2="268.046875" y2="97.09090909090908" fill="rgb(0, 0, 0)" stroke="rgb(60, 60, 60)" stroke-width="1px" opacity="0.25"></line><line x1="0" y1="80.90909090909089" x2="268.046875" y2="80.90909090909089" fill="rgb(0, 0, 0)" stroke="rgb(60, 60, 60)" stroke-width="1px" opacity="0.25"></line><line x1="0" y1="64.72727272727275" x2="268.046875" y2="64.72727272727275" fill="rgb(0, 0, 0)" stroke="rgb(60, 60, 60)" stroke-width="1px" opacity="0.25"></line><line x1="0" y1="48.54545454545454" x2="268.046875" y2="48.54545454545454" fill="rgb(0, 0, 0)" stroke="rgb(60, 60, 60)" stroke-width="1px" opacity="0.25"></line><line x1="0" y1="32.363636363636374" x2="268.046875" y2="32.363636363636374" fill="rgb(0, 0, 0)" stroke="rgb(60, 60, 60)" stroke-width="1px" opacity="0.25"></line><line x1="0" y1="16.181818181818187" x2="268.046875" y2="16.181818181818187" fill="rgb(0, 0, 0)" stroke="rgb(60, 60, 60)" stroke-width="1px" opacity="0.25"></line><line x1="0" y1="0" x2="268.046875" y2="0" fill="rgb(0, 0, 0)" stroke="rgb(60, 60, 60)" stroke-width="1px" opacity="0.25"></line></g></g></g><g><g><line x1="0" y1="161.8181818181818" x2="268.046875" y2="161.8181818181818" fill="rgb(0, 0, 0)" stroke="rgb(153, 153, 153)" stroke-width="1.5px"></line></g></g><g><g><line x1="33.505859375" y1="0" x2="33.505859375" y2="178" fill="rgb(0, 0, 0)" stroke="rgb(153, 153, 153)" stroke-width="1.5px"></line></g></g><g><g><g><g><g><path stroke="rgb(204, 51, 17)" stroke-width="2px" d="M34.1759765625,155.34062640572137L34.51103515625,157.84257323112058L34.84609375,158.97890926627008L35.013623046875,159.7181698072977L35.348681640624996,159.572918435725L35.683740234375,160.42246023048665L35.851269531250004,160.7406405228033L36.018798828125,110.46697303061055L36.186328125,141.59934953034917L36.353857421875,153.63992755757332L36.52138671875,158.04397159410408L36.688916015625,59.49027837390479L36.8564453125,121.6844625203331L37.023974609375,145.11200231301171L37.191503906250006,154.6699234570124L37.359033203125,158.30142465385205L37.526562500000004,159.62072776251162L37.694091796875,159.88928642966823L38.029150390625,160.2281737726L38.196679687499994,160.43085013272227L38.53173828125,160.56214927803703L39.034326171875,110.09848725273719L39.20185546875,141.13832822829042L39.369384765625,52.093934005388505L39.536914062499996,68.0122448404565L39.704443359375,124.60111528449778L40.039501953125004,146.55124020850533L40.54208984375,154.98152280261206L40.709619140625,158.26501245387652L41.044677734375,159.43113787743852L41.21220703125,159.9665279921231L41.379736328125006,159.68715893314123L41.547265625,159.8919859163361L41.714794921875004,160.03428444471044L41.88232421875,160.1245172288094L42.2173828125,159.21941739125302L42.384912109374994,159.40708646482L42.8875,159.94950279293113L43.055029296875,160.00990979325334L43.22255859375,159.93979118195753L43.390087890625,159.622390475558L43.5576171875,160.17712229639994L44.060205078125,160.13872386767713L44.227734375000004,159.5168950741705L44.395263671875,159.5080028536003L44.56279296875,159.28514760132515L44.730322265625,159.29692064005602L44.8978515625,159.44958128400697L45.065380859375,159.0908353648478L45.23291015625,159.64738192763772L45.400439453125,160.08747005673132L45.567968750000006,160.21338976848466L45.903027343750004,160.3269144188185L46.070556640625,160.15224041427294L46.238085937499996,160.2052015687109L46.405615234375,159.89094397957044L46.740673828125,159.85582516013142L46.908203125,160.17668957395665L47.075732421875,160.4990493370408L47.24326171875,160.56130815271533L47.5783203125,160.774776087467L47.745849609375,160.9224678374906L48.080908203125,160.91025888821088L48.2484375,161.00687560437592L48.415966796875004,160.9751261453173L48.58349609375,161.03594208813246L48.751025390625,161.06626464456275L48.9185546875,161.17957629390406L49.25361328125,161.2089544504498L49.421142578125,161.05869257863216L49.588671875,161.16530606053433L49.756201171875006,161.28530261422716L50.091259765625004,161.3573560793233L50.2587890625,161.00427154326965L50.59384765625,161.2353617006096L50.761376953124994,161.33768241243092L50.92890625,161.34733388450974L51.096435546875,161.35301775212727L51.26396484375,161.30458904096147L51.431494140625,161.26853203420396L51.5990234375,161.33770946013917L51.766552734375,160.92003803618613L52.269140625,161.26997187530463L52.436669921875,161.35924850255898L52.9392578125,161.3160917355062L53.27431640625,161.37014576682554L53.441845703125,161.42519078795942L53.609375,161.43024904245186L53.776904296875,161.15876758203822L53.944433593750006,161.24984361117689L54.111962890625,161.21422817717638L54.279492187500004,161.37219905912838L54.614550781249996,161.3766241670644L54.782080078125,161.32654967570784L54.949609374999994,161.3722766736426L55.117138671875,161.34484541847047L55.28466796875,161.31237276750764L55.6197265625,161.36457188810644L55.787255859375,161.34126250526904L56.289843749999996,161.3354777653235L56.457373046875,161.3373875791688L56.792431640625004,161.40006595079214L56.9599609375,161.49051780101624L57.29501953125,161.44120555642277L57.630078125,161.46545414056985L57.797607421875,161.40105613635757L57.96513671875,161.27711936093465L58.132666015625006,161.3898827284847L58.3001953125,161.36845749039776L58.467724609375004,161.35348883950587L58.802783203124996,161.434251873896L58.9703125,161.4271005960944L59.137841796874994,161.4080044291293L59.30537109375,161.3021073645911L59.6404296875,161.3264578615038L59.807958984375,161.3536148095585L59.97548828125,161.39264391241332L60.310546875,161.34635566173708L60.478076171874996,161.43297093922004L60.64560546875,161.42394927767276L60.980664062500004,161.4423251791328L61.148193359375,161.40738285600708L61.483251953125,161.3601572466782L61.65078125,161.44296126798542L61.98583984375,161.42806854021302L62.153369140625,161.45393060592858L62.320898437500006,161.47657976233566L62.655957031250004,161.43328799211534L62.823486328125,161.45944389370342L62.991015624999996,161.5200950766965L63.326074218749994,161.43991470747986L63.493603515625,161.48559312170264L63.6611328125,161.50175514905203L63.828662109375,161.46077602752283L64.163720703125,161.3888990557389L64.33125,161.39249399534108L64.498779296875,161.36997107345658L64.66630859375,161.44134259652697L64.833837890625,161.41566534547997L65.0013671875,161.40305887914906L65.168896484375,161.48665602837332L65.33642578125,161.33536547262318L65.503955078125,161.33291648070656L65.83901367187501,161.3158024467576L66.00654296875,161.3857368060009L66.509130859375,161.3963351726847L67.179248046875,161.4551339914467L67.34677734374999,161.43242648825975L67.6818359375,161.37235969053148L67.849365234375,161.39653764243266L68.01689453124999,161.47878207688055L68.351953125,161.51145288932608L68.519482421875,161.45733595982023L68.68701171875,161.4833077317043L68.854541015625,161.4238728107774L69.0220703125,161.4287527900661L69.524658203125,161.4308451669653L69.6921875,161.39516539680244L69.859716796875,161.31126018026265L70.02724609375,161.33003997749947L70.529833984375,161.43672407278044L70.69736328124999,161.34802608778634L70.86489257812501,161.31093978233136L71.032421875,161.228177128565L71.199951171875,161.26521029239467L71.36748046875,161.3482805201891L71.70253906250001,161.4148117629645L71.870068359375,161.3844430595429L72.03759765625,161.42404049987925L72.37265625,161.36896533538211L72.540185546875,161.39122902017027L72.70771484375,161.30456315144363L72.875244140625,161.33051897535583L73.0427734375,161.39008115422266L73.210302734375,161.35554548150557L73.37783203125,161.16297296336512L73.712890625,161.16821163628785L73.880419921875,161.2517793854372L74.215478515625,161.1756895344534L74.38300781250001,161.24531691588328L74.550537109375,161.22855315930926L74.88559570312499,161.17931789965047L75.05312500000001,161.1608136920021L75.220654296875,161.23454438044882L75.38818359375,161.37560981783946L75.555712890625,161.2424498499009L75.72324218749999,161.20373302710158L75.89077148437501,161.03089341603467L76.05830078125,160.9022481141179L76.225830078125,160.99298078774257L76.39335937499999,161.10167456214157L76.72841796875,160.90316360225307L77.231005859375,161.12581364216862L77.39853515625,161.1937453903073L77.566064453125,160.9518793847856L77.73359375,161.00097602119905L78.06865234375,160.96209688118242L78.4037109375,161.06278751635972L78.73876953125,161.0186620185928L79.07382812499999,160.65053355321234L79.40888671875,160.70856231467812L79.576416015625,160.90662298335053L79.7439453125,160.806561185729L79.91147460937499,160.7940652471389L80.07900390625001,160.88060577615832L80.4140625,160.4397198382095L80.58159179687499,160.4070062493939L80.74912109375,160.50856361540752L80.916650390625,160.78112415600373L81.0841796875,160.66564567115765L81.251708984375,160.69504813528616L81.41923828125,161.0175591764948L81.586767578125,161.04648432543772L82.4244140625,160.84787708629844L82.75947265625001,160.47454121324787L82.927001953125,160.43297156010638L83.26206054687499,160.65249377199376L83.42958984375001,160.73533612419533L83.597119140625,160.49392689315246L83.7646484375,160.7443898295172L83.932177734375,160.63456608392096L84.09970703124999,160.83724863366717L84.26723632812501,160.86234307515434L84.434765625,160.7699584216444L84.602294921875,159.9774244938289L84.76982421874999,160.39482021800342L84.937353515625,160.6992312993793L85.43994140625,160.61614577322808L85.607470703125,160.46852289202297L85.942529296875,160.2134934390052L86.4451171875,159.96786438603223L86.612646484375,160.05818095233997L86.94770507812501,159.29312024465378L87.115234375,159.48502902934425L87.282763671875,159.8759190103722L87.45029296874999,160.06388969906303L87.61782226562501,159.77757078011103L87.7853515625,159.45516446414646L87.952880859375,159.78955779547013L88.12041015625,160.0481020792614L88.28793945312499,160.25568998277492L88.45546875000001,160.20482753884048L88.622998046875,160.16701679346315L88.79052734375,160.20933820769733L88.95805664062499,160.26602020434856L89.293115234375,160.23799337988163L89.46064453125,159.6793846379158L89.795703125,159.45402131142401L90.13076171875,160.0441070450259L90.4658203125,160.2970184149312L90.80087890625,160.1676073671135L90.968408203125,160.4681697932602L91.13593750000001,160.4868529997733L91.303466796875,160.60056167040173L91.47099609375,160.8153249669391L91.63852539062499,161.02295281520287L91.80605468750001,160.66877330215829L91.973583984375,160.7380449593357L92.14111328125,160.51139997149596L92.308642578125,160.37908771074797L92.47617187499999,160.48418276798293L92.64370117187501,160.50489162679725L92.81123046875,160.47814015390378L92.978759765625,160.58650894652394L93.14628906249999,160.46575490621856L93.313818359375,160.51515272442802L93.648876953125,160.84033555015148L93.81640625,160.8060356531719L93.983935546875,160.58408724003937L94.15146484375,160.70783243340438L94.318994140625,160.8528392616994L94.4865234375,160.86226187212137L94.654052734375,160.91103176917264L94.82158203125,160.42685655485985L94.989111328125,160.4953164223229L95.156640625,160.75386965875293L95.32416992187501,160.3867572847917L95.49169921875,160.61428783524568L95.659228515625,160.7405244826265L95.99428710937501,160.72470260738112L96.16181640625,160.55834910025283L96.496875,159.90440760678317L96.83193359375001,160.3710013982583L96.999462890625,160.37334543631925L97.1669921875,160.4623138974782L97.33452148437499,160.1468863896128L97.50205078125,160.27550929028672L97.837109375,160.44331705738279L98.004638671875,160.42564740543557L98.339697265625,159.9936273721242L98.5072265625,159.95519169746072L98.674755859375,160.17494578441892L98.84228515625,160.12185415721797L99.009814453125,160.4518795810357L99.344873046875,160.48934622722285L99.51240234375001,160.67783153899245L99.679931640625,160.60060937840518L99.8474609375,160.7834970540556L100.350048828125,160.76237385532121L100.685107421875,160.81542174199086L100.85263671874999,160.82822390078886L101.1876953125,160.94142604696603L101.355224609375,161.08671152104694L101.52275390624999,160.80729264776372L101.8578125,160.72129408329164L102.025341796875,160.5005219947772L102.360400390625,159.82647689259815L102.695458984375,159.7490151934993L103.365576171875,159.21844866573474L103.53310546875,159.73725609438793L103.70063476562501,159.26746950288899L104.20322265624999,159.61878563121283L104.37075195312501,159.67130669873896L104.53828125,159.46795517577965L104.705810546875,159.06600328432867L104.87333984375,158.84077567164914L105.04086914062499,159.55657139997652L105.375927734375,159.95590782837286L105.71098632812499,159.57942359628328L106.046044921875,159.45246925799958L106.381103515625,159.39904470606717L106.88369140625,159.40429604771393L107.051220703125,158.9682967334794L107.386279296875,159.61692599728462L107.55380859375,158.68592442520662L107.721337890625,159.06171618721532L107.88886718750001,159.11488405241647L108.056396484375,159.26476970319857L108.39145507812499,158.1192339856027L108.55898437500001,159.13679141981143L108.726513671875,158.76287954500953L108.89404296875,158.88372839447166L109.061572265625,158.68661579008906L109.22910156249999,158.148146577324L109.39663085937501,158.88397427013882L109.56416015625,159.401035879847L109.731689453125,159.40219889922167L109.89921874999999,159.95445945763765L110.066748046875,159.1235045974072L110.23427734375,159.7385139868554L110.5693359375,160.02846613976777L110.736865234375,159.91282505009372L110.90439453125,159.31599657196222L111.071923828125,159.78576553714873L111.239453125,159.61089472021678L111.406982421875,159.37134425618862L111.57451171875,157.5317143954515L111.742041015625,157.98632469110785L111.9095703125,157.8943436883122L112.07709960937501,158.44418929203525L112.24462890625,158.85255232236278L112.412158203125,158.84737264887463L112.57968749999999,159.14005749142572L112.74721679687501,158.92973224886703L112.91474609375,158.98718620703065L113.082275390625,158.84306436822308L113.2498046875,159.09941238250283L113.41733398437499,159.0821070201086L113.919921875,158.9439157988937L114.08745117187499,159.28385977369592L114.757568359375,159.1818648946842L115.26015625,158.18520324532747L115.427685546875,158.6941887875161L115.59521484375,158.90993271944882L115.762744140625,158.85415108602308L115.9302734375,158.99786657529827L116.26533203125001,159.3956765792502L116.432861328125,159.84007474675104L116.600390625,159.47404438412678L117.102978515625,159.5701652400309L117.2705078125,159.54824420905067L117.60556640624999,159.8995584089282L118.27568359374999,159.80720494690573L118.443212890625,159.9356661349328L118.6107421875,160.31400282982372L118.778271484375,159.88838347276914L118.94580078125,160.21358216934246L119.113330078125,160.1277029393235L119.280859375,160.09910408950745L119.448388671875,160.0251365982622L119.61591796875,160.1524093819137L119.783447265625,160.4479854778907L120.118505859375,160.2060808266518L120.28603515625,160.25825253490623L120.45356445312501,159.773110179593L120.62109375,160.05978621201524L120.788623046875,160.43911799943723L120.95615234374999,160.53911814421102L121.12368164062501,160.05839917927452L121.62626953125,159.59386178624823L121.79379882812499,159.8236407451364L121.96132812500001,159.72125999888294L122.96650390625,159.8945768211942L123.3015625,158.50410120810113L123.469091796875,157.79801895695016L123.63662109375,158.31837549555715L123.804150390625,158.8327397647835L123.9716796875,158.45044137577858L124.139208984375,158.61518300553502L124.30673828125,157.70289631511883L124.474267578125,158.12428133541093L124.64179687500001,158.13524758822345L124.809326171875,158.9474053557449L124.97685546875,158.43762018251815L125.14438476562499,158.84596810369027L125.31191406250001,158.94406981863654L125.479443359375,158.04086726832475L125.64697265625,158.50740015699535L125.814501953125,159.1807662422032L125.98203124999999,158.66884219703655L126.31708984375,159.159099615582L126.484619140625,154.8858815261213L126.65214843749999,153.21488695535479L126.98720703125,152.13988347878012L127.322265625,151.677602522477L127.65732421875,153.0567666435736L127.824853515625,151.6040811604075L127.9923828125,103.48750596952294L128.32744140625,135.78155223200042L128.494970703125,149.7599993111808L128.6625,102.3321398339954L128.99755859375,134.97262737732945L129.165087890625,146.3643100761059L129.3326171875,152.02249413213815L129.500146484375,154.26447409919118L129.66767578125,151.15313056663112L129.835205078125,153.24471367871797L130.002734375,152.8196515331433L130.170263671875,102.47422924734195L130.505322265625,85.1686256194639L130.6728515625,129.68930254242622L130.840380859375,147.24802530037812L131.00791015625,154.72032185502735L131.175439453125,157.14995071126347L131.34296875,157.34269279059117L131.510498046875,106.65858147276008L131.67802734375002,34.893213513902175L131.845556640625,59.905692111180095L132.0130859375,120.18385221228698L132.18061523437498,144.08044035916745L132.34814453125,102.72597446759494L132.515673828125,86.97581327176538L132.683203125,131.61212376713812L133.01826171875,148.9300088771886L133.185791015625,155.64281937507542L133.3533203125,158.4396382083494L133.68837890625,108.35688264527874L133.855908203125,139.7976948806955L134.0234375,151.9979113068756L134.190966796875,157.02828837464264L134.526025390625,159.14598700708396L134.69355468749998,159.94858826994286L134.861083984375,58.9297466494136L135.02861328125002,121.02918750855021L135.196142578125,42.8473201031637L135.363671875,114.75943679167955L135.531201171875,41.048284046358106L135.866259765625,113.80260602534852L136.20131835937502,91.44449795361344L136.36884765625,82.9743685306768L136.536376953125,79.22008209333391L137.03896484375,129.27326557861585L137.70908203125,148.57792039791124L137.876611328125,104.83574924287204L138.044140625,138.86021860571108L138.211669921875,152.11345856704085L138.37919921875,106.62827583379747L138.546728515625,139.55629304676543L138.7142578125,49.37520043606285L138.88178710937498,117.70911217474375L139.384375,93.0857010101519L139.551904296875,31.040704535328253L139.71943359375,110.18015070546093L139.886962890625,89.99236499240511L140.22202148437498,132.46995807707714L140.38955078125002,149.40519866310441L140.557080078125,155.72355791622323L140.892138671875,158.17295631677737L141.05966796875,159.48873606727588L141.227197265625,159.8187852084636L141.39472656249998,160.13207868850898L141.562255859375,160.35072041254827L141.72978515625002,159.5865075906928L141.897314453125,108.3806707282408L142.06484375,139.56656355248623L142.232373046875,150.89504644976637L142.39990234375,104.57249653824364L142.567431640625,137.7604661746559L142.7349609375,150.4490597964608L142.902490234375,155.56479868609222L143.07001953124998,157.35080166622097L143.237548828125,157.94902691867907L143.40507812500002,158.48611424412505L143.907666015625,157.98201700931227L144.0751953125,158.47238148668234L144.41025390624998,158.8677037426817L144.57778320312502,159.46730454488227L144.7453125,159.21723265396568L144.912841796875,159.60007420812167L145.08037109375,159.30321868191672L145.247900390625,159.2923234594825L145.4154296875,159.23571517718062L145.58295898437498,159.75972314522457L145.75048828125,160.31818491842168L145.91801757812502,160.64163472016355L146.085546875,160.7304555076453L146.42060546875,160.99476024821257L146.588134765625,160.815661056203L146.7556640625,160.91244318736167L146.923193359375,161.10100079494683L147.09072265625,161.04935343644857L147.42578125,160.8718807117157L147.59331054687502,160.95909978796146L147.76083984375,161.02217120099374L147.928369140625,161.01762905964506L148.0958984375,160.2400210832575L148.263427734375,160.49595984441416L148.43095703125,160.6113661278411L148.59848632812498,160.56942998274906L148.76601562500002,160.65177366413855L148.933544921875,160.32686585886057L149.10107421875,160.04846796845976L149.268603515625,160.33241282729293L149.4361328125,160.01429112136336L149.938720703125,159.90508771111848L150.273779296875,159.7160146991863L150.608837890625,160.20949562343208L151.11142578125,160.0730659387727L151.278955078125,160.44558859157L151.44648437499998,160.28198690494622L151.614013671875,160.06957149222788L151.78154296875002,160.150568079117L151.949072265625,160.08797509855677L152.1166015625,160.225187058481L152.284130859375,160.39152162878565L152.45166015625,159.80216060998737L152.619189453125,160.22936185746047L152.78671874999998,159.98867004381088L152.95424804687502,159.43083865190923L153.12177734375,159.21339557629645L153.624365234375,159.7723166496307L153.79189453125,159.39955234616943L153.95942382812498,159.16567854131011L154.29448242187502,159.62927802055748L154.46201171875,160.1063201204838L154.7970703125,160.24633334191756L154.964599609375,160.3734481468279L155.13212890625,160.18429842108745L155.299658203125,160.04387681138437L155.4671875,159.43976838195192L155.63471679687498,159.6887192576861L156.1373046875,159.74596832204594L156.304833984375,160.04270272700694L156.47236328125,160.12820829868025L156.97495117187498,160.27807083994293L157.14248046875002,160.43719455232997L157.310009765625,160.5417235312139L157.645068359375,160.51920127269514L157.81259765625,160.67311382037735L157.980126953125,160.27479882352006L158.14765624999998,160.64051717556654L158.315185546875,160.50922601119336L158.48271484375002,160.7615160506981L158.650244140625,160.93540553790282L158.8177734375,160.86394333161482L158.985302734375,161.06045855756622L159.15283203125,161.16221626397996L159.487890625,161.18045910710538L159.655419921875,160.82703324143807L159.82294921874998,160.78700733192596L159.990478515625,160.73211602412186L160.15800781250002,160.94629522324757L160.325537109375,160.85155075677216L160.49306640625,161.0311807753997L160.660595703125,160.99999839879885L161.16318359374998,161.27579908702546L161.33071289062502,161.42778167087678L161.665771484375,161.44503641288375L161.83330078125,161.3252590679366L162.000830078125,161.27258646320016L162.168359375,161.10221306544514L162.33588867187498,161.35646967319875L162.50341796875,161.4007741337052L162.8384765625,161.25472302291266L163.006005859375,161.28922444605615L163.17353515625,160.86433421219405L163.341064453125,160.93549198863815L163.50859375,160.93553597817652L163.676123046875,160.89662879422815L163.84365234375,161.1749024011502L164.01118164062498,161.24537757500678L164.51376953125,160.96882609198838L164.681298828125,160.8295550547543L165.016357421875,161.02955099151987L165.18388671875,160.7446943326458L165.35141601562498,160.45832652662418L165.51894531250002,160.21151679318555L165.686474609375,160.03932257618314L165.85400390625,159.94691403110352L166.1890625,160.54283880782023L166.356591796875,160.87740097083721L166.52412109374998,160.86343833352404L166.691650390625,160.60514260871687L166.85917968750002,160.37718637869497L167.026708984375,160.71644205247287L167.19423828125,160.7254317377028L167.361767578125,160.7594600274589L167.529296875,160.45709815226024L167.696826171875,160.06503336209155L167.86435546875,159.72586848384L168.031884765625,159.44164072240127L168.366943359375,160.16758996753344L168.702001953125,159.80955844396556L168.86953125,160.3975292206316L169.037060546875,160.73327545189628L169.20458984375,160.87681622747692L169.372119140625,160.89273550937247L169.53964843749998,160.99556671480855L169.87470703125,160.8206610483537L170.042236328125,160.96926382925682L170.209765625,160.170306603087L170.377294921875,160.25167009336369L170.54482421875,160.5549230334054L170.71235351562498,160.91675447628413L171.04741210937502,160.93283700197165L171.382470703125,160.82663632882074L171.55,160.72997720382224L171.88505859375,160.72824825503503L172.052587890625,160.72387771717123L172.2201171875,161.05400310352817L172.72270507812502,160.8947626150588L172.890234375,160.79925087842935L173.057763671875,160.91872200803311L173.22529296875,160.78819611445473L173.392822265625,160.66110282978713L173.72788085937498,160.83725583653788L173.89541015625002,160.83376824931105L174.062939453125,160.7687510138435L174.23046875,160.6969086865626L174.397998046875,160.22721232511995L174.56552734375,160.71436324082146L174.733056640625,160.9394823801751L175.068115234375,160.82177823030293L175.23564453125002,160.9939237405605L175.570703125,160.99714382378565L175.738232421875,160.8132388307574L175.90576171875,160.41738928774876L176.073291015625,160.06575555877993L176.408349609375,160.41842001080437L176.57587890624998,160.79374893439058L176.743408203125,160.581766208437L176.91093750000002,160.4733044930571L177.24599609375,160.46846395043926L177.5810546875,160.65590736540634L177.91611328124998,160.80310182377644L178.08364257812502,161.01388156196836L178.251171875,160.9115115913802L178.418701171875,161.03852350905638L178.58623046875,160.98227247874186L179.25634765625,161.19573270846286L179.42387695312502,161.30852489836542L179.59140625,161.42230374341273L179.758935546875,161.4656525633601L179.92646484375,161.37387570938975L180.2615234375,161.3176345849115L180.429052734375,161.2919534237101L180.59658203125,161.3272706267959L180.76411132812498,161.49494938544635L180.931640625,161.55033892075167L181.09916992187502,161.50745276248188L181.26669921875,161.54671295802635L181.434228515625,161.50734453764198L181.6017578125,161.52045074958022L181.769287109375,161.5689760440243L182.10434570312498,161.43907364518873L182.27187500000002,160.8398196495339L182.439404296875,160.9899993331051L182.60693359375,160.9920489075324L182.774462890625,161.15396372013558L182.9419921875,161.25347524464226L183.109521484375,161.40466338614317L183.444580078125,161.40189968294624L183.61210937500002,161.29649797003964L183.779638671875,161.41315090884555L183.94716796875,161.49471818925224L184.114697265625,161.53971567000136L184.2822265625,161.5861480143004L184.449755859375,161.54061872698978L184.61728515625,161.54538700749134L184.784814453125,161.5341543817531L185.454931640625,161.49035589772834L185.6224609375,161.44740140366497L185.95751953125,161.4330210958971L186.125048828125,161.4312674104639L186.29257812499998,161.3767442638422L186.46010742187502,161.43730187041217L186.62763671875,161.4212467013391L186.795166015625,161.4127013278251L186.9626953125,161.41340237148373L187.29775390625,161.30842535913334L187.46528320312498,161.36612872186382L187.6328125,161.34115681040268L187.80034179687502,161.337074075184L188.135400390625,161.20864659651244L188.3029296875,161.24978528139803L188.470458984375,161.29193508502266L188.63798828125,161.09719762529957L188.805517578125,161.2086723860243L188.973046875,161.34467116514836L189.30810546875,161.35997656619259L189.47563476562502,161.3773176332778L189.810693359375,161.23100166708628L189.97822265625,161.2065560522027L190.145751953125,161.2522960089633L190.31328125,161.27843122463364L190.48081054687498,161.26371214841012L190.64833984375002,161.30341851367945L190.9833984375,161.3376750153892L191.31845703125,161.08981304647995L191.821044921875,161.28362385542545L191.98857421875002,161.1465309296044L192.156103515625,161.30842937112604L192.3236328125,161.34302895930435L192.65869140625,161.17832747685276L192.826220703125,161.04060239329976L192.99375,160.91127182748968L193.32880859374998,160.80478248455304L193.496337890625,160.82925601565316L193.66386718750002,160.9344232053451L193.831396484375,160.98067722160468L194.166455078125,160.8819181679405L194.333984375,161.05949188086666L194.501513671875,161.18344011448661L194.66904296874998,160.99810031638327L194.83657226562502,161.06548802359842L195.0041015625,161.1711091663004L195.171630859375,161.158614662513L195.33916015625,161.2417609184551L195.506689453125,161.23593837129903L195.84174804687498,161.22665996385135L196.00927734375,161.21633918839396L196.3443359375,161.38546422989603L196.67939453125,161.4207555954545L196.846923828125,161.4374513379065L197.181982421875,161.37628645381534L197.34951171875,161.4236786471583L197.51704101562498,161.3069153595829L197.6845703125,161.08336767915117L197.85209960937502,161.23532690384445L198.01962890625,161.3126559415391L198.522216796875,161.31474495819083L198.68974609375,161.06411152791554L198.85727539062498,161.15281480425L199.02480468750002,161.36520135407426L199.35986328125,161.4499288497847L199.527392578125,161.30197535278194L199.694921875,161.38120993285236L199.862451171875,161.42347858603654L200.02998046874998,161.463586051265L200.532568359375,161.38079134062983L200.867626953125,161.4118835524497L201.03515625,160.99862383289212L201.37021484375,161.19566881956464L201.537744140625,161.19103927239036L201.872802734375,160.2023870058665L202.04033203125002,159.95412623148994L202.207861328125,159.92077029930277L202.375390625,159.79496102630173L202.71044921875,160.04694017122452L202.877978515625,160.56126205260486L203.04550781249998,160.75620002523146L203.38056640625,160.7606452282494L203.548095703125,160.96645798029482L203.715625,160.90664844791883L203.883154296875,161.1783910366424L204.21821289062498,161.3908937263902L204.3857421875,161.51238067675746L204.72080078125,161.53756134969285L205.055859375,161.49764759573065L205.223388671875,161.464541569509L205.558447265625,161.54545014729774L205.7259765625,161.5636179705891L205.89350585937498,161.54601581905774L206.06103515625,161.58848797517493L206.39609375,161.58977447994815L206.73115234375,161.55358403249255L206.898681640625,161.55050838027316L207.0662109375,161.5399429623067L207.23374023437498,161.56313663559618L207.40126953125002,161.56755008011962L207.568798828125,161.62806325324243L207.736328125,161.62653804709706L207.903857421875,161.65027686213577L208.07138671875,161.66170513261565L208.238916015625,161.64929244497256L208.573974609375,161.6211764274158L208.74150390625002,161.6605191740545L208.909033203125,161.65166556937663L209.0765625,161.66755692412303L209.579150390625,161.68671715805473L209.7466796875,161.69789979852433L209.914208984375,161.6907394298496L210.08173828124998,161.70094487760323L210.249267578125,161.63531212578238L210.584326171875,161.65473611917204L210.75185546875,161.57790181514886L210.919384765625,161.60879000326L211.0869140625,161.58241393437592L211.254443359375,161.5631675333971L212.09208984375,161.61999276043807L212.259619140625,161.6200647917611L212.4271484375,161.639746828L212.59467773437498,161.66226035636276L212.76220703125,161.65074221189792L212.92973632812502,161.6081323676466L213.097265625,161.62795605655978L213.264794921875,161.63626454978578L213.43232421875,161.4037786831494L213.599853515625,161.43746530430343L213.7673828125,161.28863859436976L213.934912109375,161.43529566051757L214.10244140625,161.37048902207013L214.26997070312498,160.84731391734707L214.4375,160.72086551134265L214.60502929687502,160.69986618383294L214.77255859375,160.63977741116352L214.940087890625,160.79524725722854L215.1076171875,160.90129092195707L215.275146484375,161.02705324329838L215.44267578125,161.074826643076L215.61020507812498,161.1789146033973L215.77773437500002,161.15551715617406L215.945263671875,160.98053529230302L216.280322265625,161.17640594669328L216.615380859375,161.16125114065562L216.78291015624998,161.07896302661644L216.950439453125,161.24724086000242L217.11796875000002,161.3021907028876L217.285498046875,161.38297231188193L217.620556640625,161.37869495752656L217.955615234375,161.3657002708874L218.12314453125,161.4065225817677L218.290673828125,161.40644029718032L218.45820312499998,161.3815453124151L218.79326171875002,161.37027233944534L218.960791015625,161.42532818733702L219.1283203125,161.34251760502525L219.295849609375,161.36385272592668L219.46337890625,161.24282961637266L219.96596679687502,161.3145923364366L220.13349609375,161.3397973096066L220.636083984375,161.34828874489108L220.80361328125,161.28107201272613L220.97114257812498,161.3047204201676L221.47373046875,161.19563388722597L221.641259765625,161.2941404064421L221.976318359375,161.17404738927877L222.14384765625,161.30675076996226L222.311376953125,161.33970812187323L222.47890625,161.32226306254918L222.64643554687498,161.36858568266368L222.81396484375,161.4017677888665L222.98149414062502,161.37948566853098L223.1490234375,161.2224062241567L223.316552734375,161.19507944752323L223.48408203125,161.2178881515241L223.819140625,161.20228064853697L223.98666992187498,161.09723053104256L224.15419921875002,161.16110728291085L224.4892578125,161.22509513313545L224.656787109375,161.36040919367125L224.82431640625,161.44931759880706L224.991845703125,161.40390336873452L225.15937499999998,161.4363002553203L225.326904296875,161.47514499429522L225.49443359375002,161.41098479394387L225.661962890625,161.3817467584561L225.997021484375,161.40967060563898L226.16455078125,161.30841013434488L226.499609375,161.3600365564045L226.667138671875,161.24973247270148L226.83466796874998,161.29883708145815L227.002197265625,161.33604066839766L227.16972656250002,161.34021908554337L227.337255859375,161.19085279580733L227.50478515625,161.21728400964452L227.672314453125,161.16383069930373L227.83984375,161.30818629204555L228.007373046875,161.24324908532034L228.17490234374998,161.1068095148503L228.34243164062502,161.04701430219595L228.5099609375,160.71329285118964L228.677490234375,160.84512306216448L229.012548828125,161.05617586165727L229.180078125,161.16411096751207L229.34760742187498,161.205039641494L229.51513671875,160.91543973981337L229.8501953125,161.02672939022776L230.017724609375,161.08440419400821L230.687841796875,160.25924241650245L231.02290039062498,160.6325640660073L231.1904296875,160.86564121783778L231.52548828125,160.9705051638461L231.693017578125,161.11005534442108L231.860546875,161.09752547998087L232.028076171875,161.00770322074368L232.19560546875,160.9863736161292L232.53066406250002,160.79844933558098L232.698193359375,160.90245538476125L232.86572265625,161.05118121062156L233.033251953125,161.19640635514457L233.20078125,161.31305531582998L233.368310546875,159.97628423228838L233.53583984374998,160.4896794015521L233.703369140625,160.81447526592595L233.87089843750002,160.6075594200458L234.038427734375,160.39458849128428L234.20595703125,160.0540496146551L234.373486328125,158.99382374072061L234.541015625,158.35255905551963L234.708544921875,158.69895513367578L234.87607421875,154.48828284605085L235.043603515625,152.89275752448765L235.21113281249998,154.48029024457327L235.54619140625002,107.52566481180551L235.713720703125,139.9908618026227L236.048779296875,150.8991416792757L236.21630859375,156.89029219912896L236.383837890625,158.79416187962806L236.71889648437502,159.72843755666418L236.88642578125,160.32398897239256L237.053955078125,160.71556408102737L237.221484375,160.9413394199133L237.389013671875,161.0162887972416L237.55654296875,160.92017114984392L237.8916015625,160.80540878909756L238.22666015625,160.97177982563056L238.56171875,160.53926370169887L239.064306640625,159.8758795426645L239.2318359375,159.93553953372626L239.39936523437498,160.1805981999052L239.56689453125,160.5499402903792L239.73442382812502,161.06597335641675L239.901953125,161.11858922966772L240.23701171875,161.0976820029432L240.404541015625,160.21052268457495L240.5720703125,160.72238420918774L240.73959960937498,161.10222769811517L240.90712890625002,161.35068046774043L241.074658203125,161.40396037687415L241.2421875,161.24869831042747L241.409716796875,161.36779828786746L241.57724609375,161.3330820972537L241.744775390625,161.32328233120575L242.079833984375,161.39466472875634L242.24736328125002,161.29121837131743L242.414892578125,161.40044886489335L242.749951171875,161.45343474926068L242.91748046875,161.51987987349244L243.085009765625,161.48941559878077L243.2525390625,161.45879863287976L243.420068359375,161.40562925643945L243.58759765624998,161.34330090615165L243.755126953125,161.2297430850348L243.92265625000002,161.25847232981L244.090185546875,161.16855819216454L244.25771484375,161.19060275722376L244.425244140625,161.27707592427086L244.5927734375,161.33928452726445L244.760302734375,161.3099413491525L244.92783203124998,161.37334057439662L245.262890625,161.41732186228685L245.430419921875,161.4645998429171L245.59794921875,161.4714747050435L245.765478515625,161.47626923546596L245.9330078125,161.5341634558346L246.10053710937498,161.5118419220411L246.26806640625,161.51852416064477L246.43559570312502,161.5311322122528L246.603125,161.4304728968355L246.93818359375,161.4880524671798L247.105712890625,161.52609678332757L247.440771484375,161.53023829451894L247.943359375,161.5213846991612L248.11088867187502,161.23452034561157L248.27841796875,161.13166371592177L248.6134765625,161.17748018232436L248.781005859375,161.10966628094923L248.94853515625,161.20894747739715L249.28359375000002,161.34787679520412L249.451123046875,161.25487932375353L249.61865234375,110.4476727050567L249.786181640625,141.63693129703222L249.9537109375,153.66878738995683L250.121240234375,158.2006998349579L250.28876953124998,160.0472166572852L250.456298828125,160.88318090761666L250.62382812500002,161.20148150551086L250.791357421875,161.30473933446896L251.126416015625,161.05837620362826" style="fill: none;" fill="none"></path></g></g></g></g><g opacity="0.2"><g><g><g><path stroke="rgb(204, 51, 17)" stroke-width="2px" d="M34.1759765625,155.34062640572137L34.51103515625,158.8083247057247L34.84609375,159.58684449973092L35.013623046875,160.1561879290437L35.348681640624996,159.48363121725959L35.683740234375,160.9519604229453L35.851269531250004,160.9400075443343L36.018798828125,78.90205575661226L36.186328125,161.1615236754402L36.353857421875,161.20797149868767L36.52138671875,160.8124344118617L36.688916015625,-2.465173304080963L36.8564453125,160.78331011982465L37.023974609375,159.84000258994374L37.191503906250006,160.6786393323405L37.359033203125,160.58441908373922L37.526562500000004,160.45012658377263L37.694091796875,160.05811971273613L38.029150390625,160.44122020523488L38.196679687499994,160.55826556255025L38.53173828125,160.64469238849017L39.034326171875,78.37377471002667L39.20185546875,160.65197416792878L39.369384765625,-3.8851151141253313L39.536914062499996,78.01952168345451L39.704443359375,160.1765289496292L40.039501953125004,160.3505044112998L40.54208984375,160.2813421532681L40.709619140625,160.32922581769526L41.044677734375,160.16423952808097L41.21220703125,160.3031087482602L41.379736328125006,159.51152952472594L41.547265625,160.02075336831197L41.714794921875004,160.12374247720635L41.88232421875,160.1812433764677L42.2173828125,158.65041325884786L42.384912109374994,159.52506734820253L42.8875,160.2905006799847L43.055029296875,160.04788552961227L43.22255859375,159.89571010058916L43.390087890625,159.42285192072052L43.5576171875,160.52586249647322L44.060205078125,160.11458413887092L44.227734375000004,159.12597338965332L44.395263671875,159.5024126302451L44.56279296875,159.14504641667008L44.730322265625,159.30432193150574L44.8978515625,159.54555361066014L45.065380859375,158.86530454270542L45.23291015625,159.99726299154148L45.400439453125,160.36413783821362L45.567968750000006,160.292551020499L45.903027343750004,160.3982833358036L46.070556640625,160.04242906939578L46.238085937499996,160.2384963661263L46.405615234375,159.69338139095768L46.740673828125,159.8337472052398L46.908203125,160.3784056386741L47.075732421875,160.70170547474515L47.24326171875,160.60044805963778L47.5783203125,160.90897579889068L47.745849609375,161.01531639695168L48.080908203125,160.9025835552761L48.2484375,161.0676151034634L48.415966796875004,160.95516638766804L48.58349609375,161.07417491211726L48.751025390625,161.08532735919155L48.9185546875,161.25081130472773L49.25361328125,161.22742345440201L49.421142578125,160.96422827485102L49.588671875,161.2323301713067L49.756201171875006,161.36074018706992L50.091259765625004,161.40265353457917L50.2587890625,160.78229983167893L50.59384765625,161.38063987769948L50.761376953124994,161.4020078110678L50.92890625,161.35340142233127L51.096435546875,161.35659099789336L51.26396484375,161.2741436297074L51.431494140625,161.2458642742554L51.5990234375,161.381198851688L51.766552734375,160.65746284132317L52.269140625,161.48996285559735L52.436669921875,161.41537354835734L52.9392578125,161.28896060833623L53.27431640625,161.40412761713378L53.441845703125,161.45979563837912L53.609375,161.4334289874585L53.776904296875,160.98809682679448L53.944433593750006,161.30709987705234L54.111962890625,161.19183801834217L54.279492187500004,161.47150974387344L54.614550781249996,161.3794060753108L54.782080078125,161.29506962088107L54.949609374999994,161.40102361371234L55.117138671875,161.3276003622873L55.28466796875,161.29195836478505L55.6197265625,161.3973876219031L55.787255859375,161.32660872387615L56.289843749999996,161.33184110470623L56.457373046875,161.3385882113256L56.792431640625004,161.4394696176433L56.9599609375,161.5473816677695L57.29501953125,161.41020469907247L57.630078125,161.48069836447988L57.797607421875,161.36057139755312L57.96513671875,161.19920471058734L58.132666015625006,161.46077305401295L58.3001953125,161.35498820391314L58.467724609375004,161.34407858015038L58.802783203124996,161.48502472613472L58.9703125,161.4226048416458L59.137841796874994,161.3959993469656L59.30537109375,161.23553363997914L59.6404296875,161.34176615435123L59.807958984375,161.37068741859613L59.97548828125,161.41718012365428L60.310546875,161.31725588199598L60.478076171874996,161.48742288890801L60.64560546875,161.41827767937104L60.980664062500004,161.45387745594647L61.148193359375,161.38541585808113L61.483251953125,161.33046818283302L61.65078125,161.49501721623395L61.98583984375,161.4187060110271L62.153369140625,161.47018916841427L62.320898437500006,161.4908184828131L62.655957031250004,161.4060719932472L62.823486328125,161.4758871803695L62.991015624999996,161.55822432203092L63.326074218749994,161.3895081561482L63.493603515625,161.51430951891763L63.6611328125,161.51191564181565L63.828662109375,161.43501390877645L64.163720703125,161.34371255556206L64.33125,161.39475400623104L64.498779296875,161.35581171214156L64.66630859375,161.48621133904354L64.833837890625,161.39952296941456L65.0013671875,161.39513364135794L65.168896484375,161.53921058798335L65.33642578125,161.240254471777L65.503955078125,161.33137688643976L65.83901367187501,161.30504346124573L66.00654296875,161.4297020546457L66.509130859375,161.402997989525L67.179248046875,161.492098721157L67.34677734374999,161.41815108723347L67.6818359375,161.3345978274645L67.849365234375,161.41173746235754L68.01689453124999,161.5304862327387L68.351953125,161.5319918691371L68.519482421875,161.42331456765532L68.68701171875,161.49963526256298L68.854541015625,161.3865081862208L69.0220703125,161.4318206597818L69.524658203125,161.4321605700322L69.6921875,161.3727347921072L69.859716796875,161.25851194966924L70.02724609375,161.3418461692477L70.529833984375,161.50379257567693L70.69736328124999,161.29226481383242L70.86489257812501,161.28762493883684L71.032421875,161.17614718662068L71.199951171875,161.2884917276361L71.36748046875,161.4005038230045L71.70253906250001,161.45663759311321L71.870068359375,161.36535133393906L72.03759765625,161.44893400471616L72.37265625,161.33434153490023L72.540185546875,161.405225408327L72.70771484375,161.25007939683698L72.875244140625,161.34683648029088L73.0427734375,161.42752578132786L73.210302734375,161.33383413025348L73.37783203125,161.04190945847552L73.712890625,161.1715050039559L73.880419921875,161.304315462264L74.215478515625,161.12785454670137L74.38300781250001,161.28908917847596L74.550537109375,161.21801438074644L74.88559570312499,161.14836543999527L75.05312500000001,161.14918075364338L75.220654296875,161.28089624647558L75.38818359375,161.4642926498147L75.555712890625,161.1587369058874L75.72324218749999,161.17939313524403L75.89077148437501,160.92223528920758L76.05830078125,160.82137338033962L76.225830078125,161.0500211981972L76.39335937499999,161.17000647894614L76.72841796875,160.7783668098802L77.231005859375,161.26578581709921L77.39853515625,161.23645166845316L77.566064453125,160.79982681453905L77.73359375,161.0318413333417L78.06865234375,160.9376549462534L78.4037109375,161.12608814368616L78.73876953125,160.99092188481748L79.07382812499999,160.41910425738686L79.40888671875,160.74504293670708L79.576416015625,161.03113669362344L79.7439453125,160.74365588624707L79.91147460937499,160.78620949421418L80.07900390625001,160.9350107341412L80.4140625,160.16255050262606L80.58159179687499,160.38644037759778L80.74912109375,160.5724091256376L80.916650390625,160.9524732906456L81.0841796875,160.59304844778538L81.251708984375,160.71353242055258L81.41923828125,161.22031041738492L81.586767578125,161.064668539594L82.4244140625,160.72301976657897L82.75947265625001,160.23983820510858L82.927001953125,160.40683819510213L83.26206054687499,160.79049959249625L83.42958984375001,160.7874161697162L83.597119140625,160.34216148080304L83.7646484375,160.90184698495167L83.932177734375,160.56552379434422L84.09970703124999,160.96466795647177L84.26723632812501,160.87811905954203L84.434765625,160.7118794700893L84.602294921875,159.47918655223805L84.76982421874999,160.65722209020433L84.937353515625,160.89060373815963L85.43994140625,160.56391285287893L85.607470703125,160.3757176279429L85.942529296875,160.05316547668454L86.4451171875,159.81344612145966L86.612646484375,160.11495977089825L86.94770507812501,158.8121537411247L87.115234375,159.6056752685796L87.282763671875,160.1216576629403L87.45029296874999,160.18206019716507L87.61782226562501,159.59757224148646L87.7853515625,159.252479060299L87.952880859375,159.99977901027623L88.12041015625,160.21063969089565L88.28793945312499,160.38619312732905L88.45546875000001,160.17285212620416L88.622998046875,160.14324652031064L88.79052734375,160.2359441782094L88.95805664062499,160.30165416315538L89.293115234375,160.22037391042844L89.46064453125,159.32820715518162L89.795703125,159.31234338955784L90.13076171875,160.41507299481466L90.4658203125,160.45601481360129L90.80087890625,160.08625123607501L90.968408203125,160.65712271914393L91.13593750000001,160.49859846836296L91.303466796875,160.67204627441242L91.47099609375,160.9503390263258L91.63852539062499,161.15348107160324L91.80605468750001,160.44611321741039L91.973583984375,160.7815935907208L92.14111328125,160.3689163146456L92.308642578125,160.29590769014746L92.47617187499999,160.5502522990785L92.64370117187501,160.51791055106813L92.81123046875,160.46132245270366L92.978759765625,160.6546365588226L93.14628906249999,160.389841128437L93.313818359375,160.54620737887242L93.648876953125,161.04476644710468L93.81640625,160.78447252575478L93.983935546875,160.44455615295604L94.15146484375,160.78562664291397L94.318994140625,160.94399990619752L94.4865234375,160.86818553274497L94.654052734375,160.9416916718791L94.82158203125,160.12247278820723L94.989111328125,160.5383547103371L95.156640625,160.91641289859334L95.32416992187501,160.15596676956523L95.49169921875,160.75732821386984L95.659228515625,160.81988498081708L95.99428710937501,160.7147559561682L96.16181640625,160.45376855668357L96.496875,159.49329780795696L96.83193359375001,160.66433234859934L96.999462890625,160.37481904982334L97.1669921875,160.51824521019378L97.33452148437499,159.94858831463551L97.50205078125,160.35636994119903L97.837109375,160.54881184256044L98.004638671875,160.41453912261534L98.339697265625,159.72203171600333L98.5072265625,159.93102855345404L98.674755859375,160.31309737654573L98.84228515625,160.08847733620894L99.009814453125,160.65935484747487L99.344873046875,160.5129001774317L99.51240234375001,160.79632556235248L99.679931640625,160.552062547808L99.8474609375,160.89847204233095L100.350048828125,160.74909445025366L100.685107421875,160.8487710648809L100.85263671874999,160.83627216348594L101.1876953125,161.0125922170383L101.355224609375,161.17804734025742L101.52275390624999,160.6316319228658L101.8578125,160.66722983917728L102.025341796875,160.36173042121598L102.360400390625,159.40272866875273L102.695458984375,159.70031777354464L103.365576171875,158.88490032743323L103.53310546875,160.0634119045836L103.70063476562501,158.97213135253298L104.20322265624999,159.83964560765097L104.37075195312501,159.70432482913813L104.53828125,159.3401152932678L104.705810546875,158.8133104014295L104.87333984375,158.6991830682382L105.04086914062499,160.00656676013023L105.375927734375,160.20695646251127L105.71098632812499,159.3427413265983L106.046044921875,159.37265757301992L106.381103515625,159.36545858709988L106.88369140625,159.40759737975895L107.051220703125,158.6941994447261L107.386279296875,160.02469618593088L107.55380859375,158.10063679194585L107.721337890625,159.29796312554654L107.88886718750001,159.1483088015494L108.056396484375,159.35899749017236L108.39145507812499,157.39907635206526L108.55898437500001,159.77649365043774L108.726513671875,158.52781442502007L108.89404296875,158.95970177540386L109.061572265625,158.56269809417427L109.22910156249999,157.80963010154665L109.39663085937501,159.34656301513314L109.56416015625,159.72609415565702L109.731689453125,159.4029300482097L109.89921874999999,160.3016460627656L110.066748046875,158.60111277973786L110.23427734375,160.12514855416322L110.5693359375,160.21074876358563L110.736865234375,159.84012560283935L110.90439453125,158.94079169808802L111.071923828125,160.08109260646796L111.239453125,159.5009596463801L111.406982421875,159.22074738466605L111.57451171875,156.37520441785455L111.742041015625,158.27212204310027L111.9095703125,157.8365184976296L112.07709960937501,158.78985770089045L112.24462890625,159.10927566064692L112.412158203125,158.8441163720563L112.57968749999999,159.32405806019563L112.74721679687501,158.79750823644414L112.91474609375,159.02330547063187L113.082275390625,158.75246008519423L113.2498046875,159.26056927747348L113.41733398437499,159.07122775319624L113.919921875,158.85703988457945L114.08745117187499,159.497570480982L114.757568359375,159.11774433556604L115.26015625,157.55863745273516L115.427685546875,159.01416992641646L115.59521484375,159.04556326949123L115.762744140625,158.81908315360886L115.9302734375,159.0882154008035L116.26533203125001,159.64576560453597L116.432861328125,160.11945209635252L116.600390625,159.24393409101123L117.102978515625,159.63059300937775L117.2705078125,159.5344632351771L117.60556640624999,160.12041717302054L118.27568359374999,159.74914560433137L118.443212890625,160.0164251228456L118.6107421875,160.55184967710045L118.778271484375,159.62081169455567L118.94580078125,160.41802304373547L119.113330078125,160.07371371654287L119.280859375,160.081125008027L119.448388671875,159.97863586272368L119.61591796875,160.23242126218975L119.783447265625,160.63380367503586L120.118505859375,160.05400396121496L120.28603515625,160.29105103553528L120.45356445312501,159.46811840573156L120.62109375,160.24000925519928L120.788623046875,160.67759042605758L120.95615234374999,160.60198468473655L121.12368164062501,159.75618823389098L121.62626953125,159.30182362059978L121.79379882812499,159.9680946183137L121.96132812500001,159.6568968587301L122.96650390625,160.00353495378724L123.3015625,157.62995855882764L123.469091796875,157.35413011502135L123.63662109375,158.6455051761798L123.804150390625,159.15610231840137L123.9716796875,158.21010395207188L124.139208984375,158.71875021903014L124.30673828125,157.1293740634891L124.474267578125,158.38919113644144L124.64179687500001,158.14214168201116L124.809326171875,159.4579801086167L124.97685546875,158.11713634397495L125.14438476562499,159.10268194338477L125.31191406250001,159.00574288373306L125.479443359375,157.4730558930473L125.64697265625,158.80069281990555L125.814501953125,159.60408759218726L125.98203124999999,158.34701372564516L126.31708984375,159.46730704808778L126.484619140625,152.19946103339845L126.65214843749999,152.16439199718562L126.98720703125,151.46406696093354L127.322265625,151.38698289848188L127.65732421875,153.92379815944216L127.824853515625,150.69082937457344L127.9923828125,73.23832352053036L128.32744140625,156.08367252078924L128.494970703125,158.54775268669155L128.6625,72.5159285014326L128.99755859375,155.49254299903458L129.165087890625,153.52585652843118L129.3326171875,155.5795935549858L129.500146484375,155.67392730323428L129.66767578125,149.19713935560802L129.835205078125,154.55961771986702L130.002734375,152.55243005400354L130.170263671875,70.82384976473723L130.505322265625,74.28920705210079L130.6728515625,157.67787142233416L130.840380859375,158.28657087785277L131.00791015625,159.41788939589804L131.175439453125,158.6773721094836L131.34296875,157.46386289257896L131.510498046875,74.7952802208337L131.67802734375002,-10.223125300624133L131.845556640625,75.63014934008773L132.0130859375,158.07859129865062L132.18061523437498,159.10337688147345L132.34814453125,76.72789004716007L132.515673828125,77.07424613562496L132.683203125,159.67338736846366L133.01826171875,159.8171483763409L133.185791015625,159.86292499752545L133.3533203125,160.1978989080949L133.68837890625,76.87163240530275L133.855908203125,159.56341723064807L134.0234375,159.66775420672175L134.190966796875,160.19070783418348L134.526025390625,160.47730894865128L134.69355468749998,160.45315518763593L134.861083984375,-4.577212414958239L135.02861328125002,160.06890114312145L135.196142578125,-6.302844096313795L135.363671875,159.96803132224488L135.531201171875,-5.291300578550855L135.866259765625,159.5406651196324L136.20131835937502,77.3887492309917L136.36884765625,77.64949889345603L136.536376953125,76.85989550568841L137.03896484375,160.73992490323937L137.70908203125,160.71407147323373L137.876611328125,77.33659929849885L138.044140625,160.25019445922226L138.211669921875,160.445299975955L138.37919921875,78.03335639563473L138.546728515625,160.25696836306122L138.7142578125,-7.318450618873914L138.88178710937498,160.66821629710665L139.384375,77.60583666237919L139.551904296875,-7.9647818478670915L139.71943359375,159.93231067560953L139.886962890625,77.30102087963711L140.22202148437498,159.17411268731072L140.38955078125002,160.05178313575345L140.557080078125,159.6956860460341L140.892138671875,159.71280612559482L141.05966796875,160.31592007980427L141.227197265625,160.02627538517118L141.39472656249998,160.32903517596424L141.562255859375,160.48817270160228L141.72978515625002,159.10607412288135L141.897314453125,76.18937915021723L142.06484375,159.17202711952004L142.232373046875,158.01686143079266L142.39990234375,75.45115408572285L142.567431640625,158.62456434999L142.7349609375,158.4259280994196L142.902490234375,158.78088209227744L143.07001953124998,158.4735983279957L143.237548828125,158.32510989498007L143.40507812500002,158.8237619764087L143.907666015625,157.66510897570035L144.0751953125,158.78065622327003L144.41025390624998,159.11622880915687L144.57778320312502,159.8442522804676L144.7453125,159.0600213349204L144.912841796875,159.84075310047376L145.08037109375,159.1165961524133L145.247900390625,159.28547401997176L145.4154296875,159.20012755996802L145.58295898437498,160.08914834989065L145.75048828125,160.6692700071091L145.91801757812502,160.84497612647036L146.085546875,160.78629398316315L146.42060546875,161.16091925449754L146.588134765625,160.703067753083L146.7556640625,160.97328667698258L146.923193359375,161.21954026811926L147.09072265625,161.01688457589427L147.42578125,160.76030991082504L147.59331054687502,161.01393132449383L147.76083984375,161.06182195902377L147.928369140625,161.01477357664737L148.0958984375,159.75116655738518L148.263427734375,160.65685945647684L148.43095703125,160.68391796074468L148.59848632812498,160.54306621726772L148.76601562500002,160.7035402130251L148.933544921875,160.1226078574969L149.10107421875,159.87344909925014L149.268603515625,160.5109188786115L149.4361328125,159.81429929972035L149.938720703125,159.83643540435216L150.273779296875,159.59715120960027L150.608837890625,160.51972955952144L151.11142578125,159.98729743994772L151.278955078125,160.67978035700932L151.44648437499998,160.17913633322513L151.614013671875,159.93603346403688L151.78154296875002,160.20148775751957L151.949072265625,160.0486251140352L152.1166015625,160.31144734599036L152.284130859375,160.49609026744622L152.45166015625,159.43165026266468L152.619189453125,160.49792811401528L152.78671874999998,159.8373556463048L152.95424804687502,159.0801498615606L153.12177734375,159.0766968349503L153.624365234375,160.12369048400697L153.79189453125,159.1652086635374L153.95942382812498,159.01865038385785L154.29448242187502,159.9207265531136L154.46201171875,160.40621955138207L154.7970703125,160.3343546830795L154.964599609375,160.45336071147838L155.13212890625,160.06538670425388L155.299658203125,159.95559873101726L155.4671875,159.05998686116865L155.63471679687498,159.8452258342877L156.1373046875,159.78195877618748L156.304833984375,160.22924911188468L156.47236328125,160.18196261572567L156.97495117187498,160.37228409878233L157.14248046875002,160.53722998063841L157.310009765625,160.60743718894875L157.645068359375,160.5050423284146L157.81259765625,160.76987317445773L157.980126953125,160.02439232712442L158.14765624999998,160.8704313187098L158.315185546875,160.42668791762978L158.48271484375002,160.92012184100565L158.650244140625,161.044723684582L158.8177734375,160.81901757977903L158.985302734375,161.18400070287117L159.15283203125,161.22618772110647L159.487890625,161.19192773486827L159.655419921875,160.6048469480381L159.82294921874998,160.76184446373108L159.990478515625,160.69760780781507L160.15800781250002,161.08094208132982L160.325537109375,160.79198827459052L160.49306640625,161.1441077903675L160.660595703125,160.9803951457566L161.16318359374998,161.44918518744154L161.33071289062502,161.5233277252198L161.665771484375,161.45588385655586L161.83330078125,161.2499593038493L162.000830078125,161.2394730667372L162.168359375,160.99510535936463L162.33588867187498,161.51631177514156L162.50341796875,161.42862677500077L162.8384765625,161.16290587508544L163.006005859375,161.31091426581736L163.17353515625,160.59722080784425L163.341064453125,160.98022635623983L163.50859375,160.93556363283741L163.676123046875,160.87216922907498L163.84365234375,161.3498431377494L164.01118164062498,161.2896828145974L164.51376953125,160.79496799354357L164.681298828125,160.74200029844758L165.016357421875,161.15528133613142L165.18388671875,160.56561506501484L165.35141601562498,160.2782972544347L165.51894531250002,160.05635627672416L165.686474609375,159.93107018568978L165.85400390625,159.88882005976683L166.1890625,160.91747555670074L166.356591796875,161.0877283241346L166.52412109374998,160.8546605191871L166.691650390625,160.44276125729084L166.85917968750002,160.2338783904402L167.026708984375,160.929720049343L167.19423828125,160.7310832336291L167.361767578125,160.78085240505806L167.529296875,160.26701397664675L167.696826171875,159.8185561487282L167.86435546875,159.51264756689355L168.031884765625,159.26295682025903L168.366943359375,160.62396848320284L168.702001953125,159.58447673696685L168.86953125,160.76716557208618L169.037060546875,160.9443471868607L169.20458984375,160.96705521668562L169.372119140625,160.90274339668792L169.53964843749998,161.06021304265596L169.87470703125,160.71070406585932L170.042236328125,161.0626851214858L170.209765625,159.66803056187928L170.377294921875,160.3028204308992L170.54482421875,160.74556738984856L170.71235351562498,161.14422505763784L171.04741210937502,160.94294751486316L171.382470703125,160.75987173625353L171.55,160.6692110438069L171.88505859375,160.72716132631865L172.052587890625,160.7211301151917L172.2201171875,161.2615412128666L172.72270507812502,160.79465377377346L172.890234375,160.73920604074374L173.057763671875,160.9938292654062L173.22529296875,160.70613911946896L173.392822265625,160.58120379414916L173.72788085937498,160.9479969775897L173.89541015625002,160.83157572704792L174.062939453125,160.72787698633462L174.23046875,160.65174396615475L174.397998046875,159.93193089919671L174.56552734375,161.0206177252853L174.733056640625,161.0810067902573L175.068115234375,160.74778181035072L175.23564453125002,161.10214551085267L175.570703125,160.99916817578062L175.738232421875,160.69762429116633L175.90576171875,160.16853273465213L176.073291015625,159.84469591809267L176.408349609375,160.64012763048098L176.57587890624998,161.0297049026386L176.743408203125,160.44850019505247L176.91093750000002,160.40511846351862L177.24599609375,160.46542087315837L177.5810546875,160.77374638523906L177.91611328124998,160.89563775363123L178.08364257812502,161.14639129965906L178.251171875,160.84715522550553L178.418701171875,161.11837139215575L178.58623046875,160.94690945316952L179.25634765625,161.32992757600732L179.42387695312502,161.3794333434833L179.59140625,161.4938324635891L179.758935546875,161.49290442736608L179.92646484375,161.31617885982533L180.2615234375,161.28227778678675L180.429052734375,161.27580858946948L180.59658203125,161.34947329844263L180.76411132812498,161.60036306759469L180.931640625,161.58516035499898L181.09916992187502,161.4804917574458L181.26669921875,161.5713944490364L181.434228515625,161.4825950095176L181.6017578125,161.52869015969125L181.769287109375,161.5994821737563L182.10434570312498,161.35740861921064L182.27187500000002,160.4630899389105L182.439404296875,161.08441196805373L182.60693359375,160.9933374022049L182.774462890625,161.25575381405227L182.9419921875,161.31603460695425L183.109521484375,161.49971000278708L183.444580078125,161.4001622408713L183.61210937500002,161.23023565541106L183.779638671875,161.48648646972353L183.94716796875,161.54599664240695L184.114697265625,161.56800398851786L184.2822265625,161.6153383805861L184.449755859375,161.51199608056976L184.61728515625,161.5483846561454L184.784814453125,161.52709282876458L185.454931640625,161.46282134588216L185.6224609375,161.42039743834175L185.95751953125,161.42398070697462L186.125048828125,161.43016493069644L186.29257812499998,161.34246749739924L186.46010742187502,161.47537228757176L186.62763671875,161.41115338657983L186.795166015625,161.40732915489934L186.9626953125,161.41384309274144L187.29775390625,161.2424300386655L187.46528320312498,161.40240477726118L187.6328125,161.3254578562919L187.80034179687502,161.33450740450908L188.135400390625,161.12790880047461L188.3029296875,161.27564771196128L188.470458984375,161.3184331700375L188.63798828125,160.974773098503L188.805517578125,161.27875261019324L188.973046875,161.43016876896252L189.30810546875,161.36959852841258L189.47563476562502,161.38821934646165L189.810693359375,161.13901801407337L189.97822265625,161.1911879620642L190.145751953125,161.28105109578675L190.31328125,161.2948615067977L190.48081054687498,161.25445878778754L190.64833984375002,161.32838049575432L190.9833984375,161.35921086174096L191.31845703125,160.93399102693763L191.821044921875,161.4054658297788L191.98857421875002,161.06034547460942L192.156103515625,161.41020917312497L192.3236328125,161.36478049193764L192.65869140625,161.07478550254282L192.826220703125,160.9540195231834L192.99375,160.8299662926319L193.32880859374998,160.73783641554076L193.496337890625,160.84464165572584L193.66386718750002,161.00053808355534L193.831396484375,161.00975547938353L194.166455078125,160.81983185733077L194.333984375,161.17112616944888L194.501513671875,161.2613619681956L194.66904296874998,160.88158376578411L194.83657226562502,161.10785228253172L195.0041015625,161.23750942865047L195.171630859375,161.1507598115978L195.33916015625,161.29403201746754L195.506689453125,161.23227794263087L195.84174804687498,161.2208269585178L196.00927734375,161.20985088330187L196.3443359375,161.49178713872308L196.67939453125,161.4429420239652L196.846923828125,161.44794735840563L197.181982421875,161.33783426283944L197.34951171875,161.45347243645864L197.51704101562498,161.23351042635147L197.6845703125,160.94283118949863L197.85209960937502,161.33085827311416L198.01962890625,161.36126996197908L198.522216796875,161.31605824878946L198.68974609375,160.90654718901285L198.85727539062498,161.20857940468176L199.02480468750002,161.49872123718853L199.35986328125,161.50319401809776L199.527392578125,161.20896224228835L199.694921875,161.4310219001279L199.862451171875,161.4500513875497L200.02998046874998,161.48880019064316L200.532568359375,161.32874124567024L200.867626953125,161.4314301220954L201.03515625,160.7388221199455L201.37021484375,161.31954400662588L201.537744140625,161.1881288404534L201.872802734375,159.580856427889L202.04033203125002,159.7980534971099L202.207861328125,159.89980060903525L202.375390625,159.71586920320988L202.71044921875,160.20535051314667L202.877978515625,160.8845979584889L203.04550781249998,160.87875060737133L203.38056640625,160.7634397695603L203.548095703125,161.09584515014748L203.715625,160.86904831844467L203.883154296875,161.3492259539833L204.21821289062498,161.52448662255085L204.3857421875,161.588755209073L204.72080078125,161.5533915447304L205.055859375,161.47255523574793L205.223388671875,161.44372898624914L205.558447265625,161.5963144975037L205.7259765625,161.57503943604587L205.89350585937498,161.53494997135238L206.06103515625,161.61518871175676L206.39609375,161.59058325982187L206.73115234375,161.53083238311493L206.898681640625,161.54857482692353L207.0662109375,161.53330085915513L207.23374023437498,161.57771767450456L207.40126953125002,161.57032465599266L207.568798828125,161.66610573667143L207.736328125,161.62557920414574L207.903857421875,161.66520061230668L208.07138671875,161.6688896805069L208.238916015625,161.6414890289624L208.573974609375,161.60350088543385L208.74150390625002,161.68525256200653L208.909033203125,161.6460996224619L209.0765625,161.67754725463138L209.579150390625,161.69876251684565L209.7466796875,161.7049299275492L209.914208984375,161.68623796029186L210.08173828124998,161.7073606802627L210.249267578125,161.59405114499597L210.584326171875,161.6669472941695L210.75185546875,161.5295988162027L210.919384765625,161.62820831044385L211.0869140625,161.5658322363478L211.254443359375,161.55106800444298L212.09208984375,161.65571676310554L212.259619140625,161.62011007529642L212.4271484375,161.65212022537492L212.59467773437498,161.67641381230416L212.76220703125,161.64350116342328L212.92973632812502,161.58134507142347L213.097265625,161.64041850594168L213.264794921875,161.64148780448488L213.43232421875,161.25762307317927L213.599853515625,161.4586428869833L213.7673828125,161.19507652590983L213.934912109375,161.52749375096226L214.10244140625,161.3297473894305L214.26997070312498,160.51841230428016L214.4375,160.64137188802388L214.60502929687502,160.68666465220633L214.77255859375,160.60200173323128L214.940087890625,160.89298562951046L215.1076171875,160.96795680890366L215.275146484375,161.10611554954878L215.44267578125,161.10486008332703L215.61020507812498,161.24435100842013L215.77773437500002,161.1408080118285L215.945263671875,160.87053040719846L216.280322265625,161.29954287274316L216.615380859375,161.15172385216945L216.78291015624998,161.0272314109501L216.950439453125,161.35303115916693L217.11796875000002,161.3367357181216L217.285498046875,161.43375684131487L217.620556640625,161.37600593671033L217.955615234375,161.3575309727722L218.12314453125,161.43218611922666L218.290673828125,161.40638856778176L218.45820312499998,161.3658947193868L218.79326171875002,161.36318542158486L218.960791015625,161.45993984415492L219.1283203125,161.29045753210613L219.295849609375,161.37726535893637L219.46337890625,161.16674668430775L219.96596679687502,161.3597070106136L220.13349609375,161.3556427813389L220.636083984375,161.35362700876695L220.80361328125,161.23881523973648L220.97114257812498,161.319587334292L221.47373046875,161.12705505707046L221.641259765625,161.35606795761058L221.976318359375,161.09854917327704L222.14384765625,161.3901766737796L222.311376953125,161.3604272388726L222.47890625,161.31129597313702L222.64643554687498,161.39770706925034L222.81396484375,161.4226282009093L222.98149414062502,161.3654776906002L223.1490234375,161.12365595456637L223.316552734375,161.17790007328784L223.48408203125,161.23222717390902L223.819140625,161.19246876555155L223.98666992187498,161.03118925196625L224.15419921875002,161.20126432887363L224.4892578125,161.26532202269036L224.656787109375,161.44547633921982L224.82431640625,161.50521115643312L224.991845703125,161.375353054715L225.15937499999998,161.45666702766903L225.326904296875,161.49956530251075L225.49443359375002,161.37064955398355L225.661962890625,161.3633658436381L225.997021484375,161.42722533692987L226.16455078125,161.24475127128377L226.499609375,161.39249225496314L226.667138671875,161.18038821161133L226.83466796874998,161.32970740552992L227.002197265625,161.35942924259737L227.16972656250002,161.34284590804864L227.337255859375,161.09695151268335L227.50478515625,161.23390037534674L227.672314453125,161.13022650094618L227.83984375,161.39893752787347L228.007373046875,161.20242536904036L228.17490234374998,161.0210348011672L228.34243164062502,161.00942317502233L228.5099609375,160.50349402368408L228.677490234375,160.92800003518775L229.012548828125,161.1888572632928L229.180078125,161.23196593633938L229.34760742187498,161.23077004565857L229.51513671875,160.73337856383824L229.8501953125,161.0966932421169L230.017724609375,161.1206622954077L230.687841796875,159.7404925042594L231.02290039062498,160.8672581323084L231.1904296875,161.0121685478159L231.52548828125,161.0364294035191L231.693017578125,161.19778558823535L231.860546875,161.0896483990787L232.028076171875,160.9512351554903L232.19560546875,160.9729644510133L232.53066406250002,160.68030801263046L232.698193359375,160.967840295158L232.86572265625,161.14467985684644L233.033251953125,161.287704247304L233.20078125,161.38638837580484L233.368310546875,159.1359037139707L233.53583984374998,160.81243271643126L233.703369140625,161.01866289401767L233.87089843750002,160.47747877426445L234.038427734375,160.26070122988048L234.20595703125,159.8399649137123L234.373486328125,158.32729737697676L234.541015625,157.9494187159633L234.708544921875,158.91672204925933L234.87607421875,151.8411826782606L235.043603515625,151.88970740376547L235.21113281249998,155.47831570052287L235.54619140625002,78.00695892084728L235.713720703125,160.40057847763157L236.048779296875,157.75678994049403L236.21630859375,160.65671581584454L236.383837890625,159.9910571510819L236.71889648437502,160.31578350346535L236.88642578125,160.6983910024759L237.053955078125,160.96173344899645L237.221484375,161.08327635934322L237.389013671875,161.0634068096988L237.55654296875,160.85974539757115L237.8916015625,160.73326176752082L238.22666015625,161.0763713893142L238.56171875,160.2673561710187L239.064306640625,159.45883347525853L239.2318359375,159.9730456518856L239.39936523437498,160.3346578825519L239.56689453125,160.78213254921138L239.73442382812502,161.3903850233394L239.901953125,161.15166696106L240.23701171875,161.08453837181017L240.404541015625,159.6527971196073L240.5720703125,161.04417337612674L240.73959960937498,161.34102181330408L240.90712890625002,161.5068739027166L241.074658203125,161.4374555640494L241.2421875,161.15109056181444L241.409716796875,161.44267221505288L241.57724609375,161.31125726080924L241.744775390625,161.31712156623095L242.079833984375,161.43954030767253L242.24736328125002,161.22618531924672L242.414892578125,161.4691181979883L242.749951171875,161.48674509350465L242.91748046875,161.56165156397037L243.085009765625,161.47026379090013L243.2525390625,161.43955083346967L243.420068359375,161.3722035572441L243.58759765624998,161.30411728528668L243.755126953125,161.15835331475617L243.92265625000002,161.27653338597156L244.090185546875,161.11203236621805L244.25771484375,161.20446139258672L244.425244140625,161.33143853417343L244.5927734375,161.37839286725713L244.760302734375,161.29149433489974L244.92783203124998,161.41319741632535L245.262890625,161.44497133643281L245.430419921875,161.49432183074003L245.59794921875,161.47579668677116L245.765478515625,161.47928338651334L245.9330078125,161.57055949665266L246.10053710937498,161.4978091662686L246.26806640625,161.52272504680283L246.43559570312502,161.53905844665132L246.603125,161.36719195913017L246.93818359375,161.5242506986992L247.105712890625,161.55001389413056L247.440771484375,161.53284191556105L247.943359375,161.5158187581057L248.11088867187502,161.05417891162108L248.27841796875,161.0670014047487L248.6134765625,161.20628336804327L248.781005859375,161.0670340888795L248.94853515625,161.27136204063638L249.28359375000002,161.43521672463976L249.451123046875,161.19641511531717L249.61865234375,78.50698580796069L249.786181640625,161.24451080273667L249.9537109375,161.2327881258997L250.121240234375,161.04975228409538L250.28876953124998,161.2080562231131L250.456298828125,161.40872195098464L250.62382812500002,161.40158579018052L250.791357421875,161.3696538653775L251.126416015625,160.90349645036358" style="fill: none;" fill="none"></path></g></g></g></g></g></g><g transform="translate(61, 178)" clip-path="url(#clip_1)"><clipPath id="clip_1"><rect width="268" height="22"></rect></clipPath><g><g><line x1="0" y1="0" x2="0" y2="5" style="visibility: inherit;" fill="rgb(0, 0, 0)" stroke="rgb(204, 204, 204)" stroke-width="1px"></line><line x1="33.505859375" y1="0" x2="33.505859375" y2="5" style="visibility: inherit;" fill="rgb(0, 0, 0)" stroke="rgb(204, 204, 204)" stroke-width="1px"></line><line x1="67.01171875" y1="0" x2="67.01171875" y2="5" style="visibility: inherit;" fill="rgb(0, 0, 0)" stroke="rgb(204, 204, 204)" stroke-width="1px"></line><line x1="100.517578125" y1="0" x2="100.517578125" y2="5" style="visibility: inherit;" fill="rgb(0, 0, 0)" stroke="rgb(204, 204, 204)" stroke-width="1px"></line><line x1="134.0234375" y1="0" x2="134.0234375" y2="5" style="visibility: inherit;" fill="rgb(0, 0, 0)" stroke="rgb(204, 204, 204)" stroke-width="1px"></line><line x1="167.529296875" y1="0" x2="167.529296875" y2="5" style="visibility: inherit;" fill="rgb(0, 0, 0)" stroke="rgb(204, 204, 204)" stroke-width="1px"></line><line x1="201.03515625" y1="0" x2="201.03515625" y2="5" style="visibility: inherit;" fill="rgb(0, 0, 0)" stroke="rgb(204, 204, 204)" stroke-width="1px"></line><line x1="234.541015625" y1="0" x2="234.541015625" y2="5" style="visibility: inherit;" fill="rgb(0, 0, 0)" stroke="rgb(204, 204, 204)" stroke-width="1px"></line><line x1="268.046875" y1="0" x2="268.046875" y2="5" style="visibility: inherit;" fill="rgb(0, 0, 0)" stroke="rgb(204, 204, 204)" stroke-width="1px"></line></g><g transform="translate(0, 8)"><text x="0" y="0" dx="0em" dy="0.95em" style="text-anchor: middle; visibility: hidden; font-family: Roboto, sans-serif; font-size: 12px; font-weight: 200;" fill="rgb(50, 49, 63)" stroke="none" stroke-width="1px">-200</text><text x="33.505859375" y="0" dx="0em" dy="0.95em" style="text-anchor: middle; visibility: inherit; font-family: Roboto, sans-serif; font-size: 12px; font-weight: 200;" fill="rgb(50, 49, 63)" stroke="none" stroke-width="1px">0</text><text x="67.01171875" y="0" dx="0em" dy="0.95em" style="text-anchor: middle; visibility: inherit; font-family: Roboto, sans-serif; font-size: 12px; font-weight: 200;" fill="rgb(50, 49, 63)" stroke="none" stroke-width="1px">200</text><text x="100.517578125" y="0" dx="0em" dy="0.95em" style="text-anchor: middle; visibility: inherit; font-family: Roboto, sans-serif; font-size: 12px; font-weight: 200;" fill="rgb(50, 49, 63)" stroke="none" stroke-width="1px">400</text><text x="134.0234375" y="0" dx="0em" dy="0.95em" style="text-anchor: middle; visibility: inherit; font-family: Roboto, sans-serif; font-size: 12px; font-weight: 200;" fill="rgb(50, 49, 63)" stroke="none" stroke-width="1px">600</text><text x="167.529296875" y="0" dx="0em" dy="0.95em" style="text-anchor: middle; visibility: inherit; font-family: Roboto, sans-serif; font-size: 12px; font-weight: 200;" fill="rgb(50, 49, 63)" stroke="none" stroke-width="1px">800</text><text x="201.03515625" y="0" dx="0em" dy="0.95em" style="text-anchor: middle; visibility: inherit; font-family: Roboto, sans-serif; font-size: 12px; font-weight: 200;" fill="rgb(50, 49, 63)" stroke="none" stroke-width="1px">1k</text><text x="234.541015625" y="0" dx="0em" dy="0.95em" style="text-anchor: middle; visibility: inherit; font-family: Roboto, sans-serif; font-size: 12px; font-weight: 200;" fill="rgb(50, 49, 63)" stroke="none" stroke-width="1px">1.2k</text><text x="268.046875" y="0" dx="0em" dy="0.95em" style="text-anchor: middle; visibility: hidden; font-family: Roboto, sans-serif; font-size: 12px; font-weight: 200;" fill="rgb(50, 49, 63)" stroke="none" stroke-width="1px">1.4k</text></g><line x1="0" y1="0" x2="268.046875" y2="0" fill="rgb(0, 0, 0)" stroke="rgb(204, 204, 204)" stroke-width="1px"></line></g></g></g></g></svg>