<svg viewBox="0 0 330 200" xmlns="http://www.w3.org/2000/svg"><g><g><g><g><g><line x1="82.734375" y1="178" x2="77.734375" y2="178" style="visibility: inherit;" fill="rgb(0, 0, 0)" stroke="rgb(204, 204, 204)" stroke-width="1px"></line><line x1="82.734375" y1="164.30769230769232" x2="77.734375" y2="164.30769230769232" style="visibility: inherit;" fill="rgb(0, 0, 0)" stroke="rgb(204, 204, 204)" stroke-width="1px"></line><line x1="82.734375" y1="150.6153846153846" x2="77.734375" y2="150.6153846153846" style="visibility: inherit;" fill="rgb(0, 0, 0)" stroke="rgb(204, 204, 204)" stroke-width="1px"></line><line x1="82.734375" y1="136.9230769230769" x2="77.734375" y2="136.9230769230769" style="visibility: inherit;" fill="rgb(0, 0, 0)" stroke="rgb(204, 204, 204)" stroke-width="1px"></line><line x1="82.734375" y1="123.23076923076923" x2="77.734375" y2="123.23076923076923" style="visibility: inherit;" fill="rgb(0, 0, 0)" stroke="rgb(204, 204, 204)" stroke-width="1px"></line><line x1="82.734375" y1="109.53846153846155" x2="77.734375" y2="109.53846153846155" style="visibility: inherit;" fill="rgb(0, 0, 0)" stroke="rgb(204, 204, 204)" stroke-width="1px"></line><line x1="82.734375" y1="95.84615384615384" x2="77.734375" y2="95.84615384615384" style="visibility: inherit;" fill="rgb(0, 0, 0)" stroke="rgb(204, 204, 204)" stroke-width="1px"></line><line x1="82.734375" y1="82.15384615384616" x2="77.734375" y2="82.15384615384616" style="visibility: inherit;" fill="rgb(0, 0, 0)" stroke="rgb(204, 204, 204)" stroke-width="1px"></line><line x1="82.734375" y1="68.46153846153845" x2="77.734375" y2="68.46153846153845" style="visibility: inherit;" fill="rgb(0, 0, 0)" stroke="rgb(204, 204, 204)" stroke-width="1px"></line><line x1="82.734375" y1="54.769230769230774" x2="77.734375" y2="54.769230769230774" style="visibility: inherit;" fill="rgb(0, 0, 0)" stroke="rgb(204, 204, 204)" stroke-width="1px"></line><line x1="82.734375" y1="41.076923076923066" x2="77.734375" y2="41.076923076923066" style="visibility: inherit;" fill="rgb(0, 0, 0)" stroke="rgb(204, 204, 204)" stroke-width="1px"></line><line x1="82.734375" y1="27.384615384615387" x2="77.734375" y2="27.384615384615387" style="visibility: inherit;" fill="rgb(0, 0, 0)" stroke="rgb(204, 204, 204)" stroke-width="1px"></line><line x1="82.734375" y1="13.692307692307683" x2="77.734375" y2="13.692307692307683" style="visibility: inherit;" fill="rgb(0, 0, 0)" stroke="rgb(204, 204, 204)" stroke-width="1px"></line><line x1="82.734375" y1="0" x2="77.734375" y2="0" style="visibility: inherit;" fill="rgb(0, 0, 0)" stroke="rgb(204, 204, 204)" stroke-width="1px"></line></g><g transform="translate(72.734375, 0)"><text x="0" y="178" dx="0em" dy="0.3em" style="text-anchor: end; visibility: hidden; font-family: Roboto, sans-serif; font-size: 12px; font-weight: 200;" fill="rgb(50, 49, 63)" stroke="none" stroke-width="1px">-2.2e+3</text><text x="0" y="164.30769230769232" dx="0em" dy="0.3em" style="text-anchor: end; visibility: inherit; font-family: Roboto, sans-serif; font-size: 12px; font-weight: 200;" fill="rgb(50, 49, 63)" stroke="none" stroke-width="1px">-2e+3</text><text x="0" y="150.6153846153846" dx="0em" dy="0.3em" style="text-anchor: end; visibility: hidden; font-family: Roboto, sans-serif; font-size: 12px; font-weight: 200;" fill="rgb(50, 49, 63)" stroke="none" stroke-width="1px">-1.8e+3</text><text x="0" y="136.9230769230769" dx="0em" dy="0.3em" style="text-anchor: end; visibility: inherit; font-family: Roboto, sans-serif; font-size: 12px; font-weight: 200;" fill="rgb(50, 49, 63)" stroke="none" stroke-width="1px">-1.6e+3</text><text x="0" y="123.23076923076923" dx="0em" dy="0.3em" style="text-anchor: end; visibility: hidden; font-family: Roboto, sans-serif; font-size: 12px; font-weight: 200;" fill="rgb(50, 49, 63)" stroke="none" stroke-width="1px">-1.4e+3</text><text x="0" y="109.53846153846155" dx="0em" dy="0.3em" style="text-anchor: end; visibility: inherit; font-family: Roboto, sans-serif; font-size: 12px; font-weight: 200;" fill="rgb(50, 49, 63)" stroke="none" stroke-width="1px">-1.2e+3</text><text x="0" y="95.84615384615384" dx="0em" dy="0.3em" style="text-anchor: end; visibility: hidden; font-family: Roboto, sans-serif; font-size: 12px; font-weight: 200;" fill="rgb(50, 49, 63)" stroke="none" stroke-width="1px">-1e+3</text><text x="0" y="82.15384615384616" dx="0em" dy="0.3em" style="text-anchor: end; visibility: inherit; font-family: Roboto, sans-serif; font-size: 12px; font-weight: 200;" fill="rgb(50, 49, 63)" stroke="none" stroke-width="1px">-800</text><text x="0" y="68.46153846153845" dx="0em" dy="0.3em" style="text-anchor: end; visibility: hidden; font-family: Roboto, sans-serif; font-size: 12px; font-weight: 200;" fill="rgb(50, 49, 63)" stroke="none" stroke-width="1px">-600</text><text x="0" y="54.769230769230774" dx="0em" dy="0.3em" style="text-anchor: end; visibility: inherit; font-family: Roboto, sans-serif; font-size: 12px; font-weight: 200;" fill="rgb(50, 49, 63)" stroke="none" stroke-width="1px">-400</text><text x="0" y="41.076923076923066" dx="0em" dy="0.3em" style="text-anchor: end; visibility: hidden; font-family: Roboto, sans-serif; font-size: 12px; font-weight: 200;" fill="rgb(50, 49, 63)" stroke="none" stroke-width="1px">-200</text><text x="0" y="27.384615384615387" dx="0em" dy="0.3em" style="text-anchor: end; visibility: inherit; font-family: Roboto, sans-serif; font-size: 12px; font-weight: 200;" fill="rgb(50, 49, 63)" stroke="none" stroke-width="1px">0</text><text x="0" y="13.692307692307683" dx="0em" dy="0.3em" style="text-anchor: end; visibility: hidden; font-family: Roboto, sans-serif; font-size: 12px; font-weight: 200;" fill="rgb(50, 49, 63)" stroke="none" stroke-width="1px">200</text><text x="0" y="0" dx="0em" dy="0.3em" style="text-anchor: end; visibility: hidden; font-family: Roboto, sans-serif; font-size: 12px; font-weight: 200;" fill="rgb(50, 49, 63)" stroke="none" stroke-width="1px">400</text></g><line x1="82.734375" y1="0" x2="82.734375" y2="178" fill="rgb(0, 0, 0)" stroke="rgb(204, 204, 204)" stroke-width="1px"></line></g></g><g transform="translate(82, 0)" clip-path="url(#clip_0)"><clipPath id="clip_0"><rect width="247" height="178"></rect></clipPath><g><g><g><line x1="0" y1="0" x2="0" y2="178" fill="rgb(0, 0, 0)" stroke="rgb(60, 60, 60)" stroke-width="1px" opacity="0.25"></line><line x1="27.473958333333332" y1="0" x2="27.473958333333332" y2="178" fill="rgb(0, 0, 0)" stroke="rgb(60, 60, 60)" stroke-width="1px" opacity="0.25"></line><line x1="54.947916666666664" y1="0" x2="54.947916666666664" y2="178" fill="rgb(0, 0, 0)" stroke="rgb(60, 60, 60)" stroke-width="1px" opacity="0.25"></line><line x1="82.421875" y1="0" x2="82.421875" y2="178" fill="rgb(0, 0, 0)" stroke="rgb(60, 60, 60)" stroke-width="1px" opacity="0.25"></line><line x1="109.89583333333333" y1="0" x2="109.89583333333333" y2="178" fill="rgb(0, 0, 0)" stroke="rgb(60, 60, 60)" stroke-width="1px" opacity="0.25"></line><line x1="137.36979166666669" y1="0" x2="137.36979166666669" y2="178" fill="rgb(0, 0, 0)" stroke="rgb(60, 60, 60)" stroke-width="1px" opacity="0.25"></line><line x1="164.84375" y1="0" x2="164.84375" y2="178" fill="rgb(0, 0, 0)" stroke="rgb(60, 60, 60)" stroke-width="1px" opacity="0.25"></line><line x1="192.31770833333334" y1="0" x2="192.31770833333334" y2="178" fill="rgb(0, 0, 0)" stroke="rgb(60, 60, 60)" stroke-width="1px" opacity="0.25"></line><line x1="219.79166666666666" y1="0" x2="219.79166666666666" y2="178" fill="rgb(0, 0, 0)" stroke="rgb(60, 60, 60)" stroke-width="1px" opacity="0.25"></line><line x1="247.265625" y1="0" x2="247.265625" y2="178" fill="rgb(0, 0, 0)" stroke="rgb(60, 60, 60)" stroke-width="1px" opacity="0.25"></line></g><g><line x1="0" y1="178" x2="247.265625" y2="178" fill="rgb(0, 0, 0)" stroke="rgb(60, 60, 60)" stroke-width="1px" opacity="0.25"></line><line x1="0" y1="164.30769230769232" x2="247.265625" y2="164.30769230769232" fill="rgb(0, 0, 0)" stroke="rgb(60, 60, 60)" stroke-width="1px" opacity="0.25"></line><line x1="0" y1="150.6153846153846" x2="247.265625" y2="150.6153846153846" fill="rgb(0, 0, 0)" stroke="rgb(60, 60, 60)" stroke-width="1px" opacity="0.25"></line><line x1="0" y1="136.9230769230769" x2="247.265625" y2="136.9230769230769" fill="rgb(0, 0, 0)" stroke="rgb(60, 60, 60)" stroke-width="1px" opacity="0.25"></line><line x1="0" y1="123.23076923076923" x2="247.265625" y2="123.23076923076923" fill="rgb(0, 0, 0)" stroke="rgb(60, 60, 60)" stroke-width="1px" opacity="0.25"></line><line x1="0" y1="109.53846153846155" x2="247.265625" y2="109.53846153846155" fill="rgb(0, 0, 0)" stroke="rgb(60, 60, 60)" stroke-width="1px" opacity="0.25"></line><line x1="0" y1="95.84615384615384" x2="247.265625" y2="95.84615384615384" fill="rgb(0, 0, 0)" stroke="rgb(60, 60, 60)" stroke-width="1px" opacity="0.25"></line><line x1="0" y1="82.15384615384616" x2="247.265625" y2="82.15384615384616" fill="rgb(0, 0, 0)" stroke="rgb(60, 60, 60)" stroke-width="1px" opacity="0.25"></line><line x1="0" y1="68.46153846153845" x2="247.265625" y2="68.46153846153845" fill="rgb(0, 0, 0)" stroke="rgb(60, 60, 60)" stroke-width="1px" opacity="0.25"></line><line x1="0" y1="54.769230769230774" x2="247.265625" y2="54.769230769230774" fill="rgb(0, 0, 0)" stroke="rgb(60, 60, 60)" stroke-width="1px" opacity="0.25"></line><line x1="0" y1="41.076923076923066" x2="247.265625" y2="41.076923076923066" fill="rgb(0, 0, 0)" stroke="rgb(60, 60, 60)" stroke-width="1px" opacity="0.25"></line><line x1="0" y1="27.384615384615387" x2="247.265625" y2="27.384615384615387" fill="rgb(0, 0, 0)" stroke="rgb(60, 60, 60)" stroke-width="1px" opacity="0.25"></line><line x1="0" y1="13.692307692307683" x2="247.265625" y2="13.692307692307683" fill="rgb(0, 0, 0)" stroke="rgb(60, 60, 60)" stroke-width="1px" opacity="0.25"></line><line x1="0" y1="0" x2="247.265625" y2="0" fill="rgb(0, 0, 0)" stroke="rgb(60, 60, 60)" stroke-width="1px" opacity="0.25"></line></g></g></g><g><g><line x1="0" y1="27.384615384615387" x2="247.265625" y2="27.384615384615387" fill="rgb(0, 0, 0)" stroke="rgb(153, 153, 153)" stroke-width="1.5px"></line></g></g><g><g><line x1="27.473958333333332" y1="0" x2="27.473958333333332" y2="178" fill="rgb(0, 0, 0)" stroke="rgb(153, 153, 153)" stroke-width="1.5px"></line></g></g><g><g><g><g><g><path stroke="rgb(238, 51, 119)" stroke-width="2px" d="M27.748697916666668,144.65073993389424L28.298177083333332,148.3735119128918L28.46302083333333,141.4015908705628L28.792708333333334,125.51685280143307L29.452083333333334,125.362447588737L29.671875,128.77845230026142L29.781770833333336,123.60557978957014L29.89166666666667,135.3498348724817L29.946614583333336,128.86064851007015L30.056510416666665,128.74213564142707L30.386197916666667,121.91546426383508L30.441145833333334,122.67608277266768L30.49609375,127.357095182927L30.551041666666666,128.85870464320624L31.045572916666668,120.44668666357474L31.375260416666666,106.91457323999322L31.430208333333336,105.7074327772813L31.48515625,104.84362342450403L31.54010416666667,102.39006408741551L31.81484375,102.02535886081348L32.25442708333333,99.78972010272284L32.6390625,108.61492424081702L33.07864583333333,100.58698431882509L33.243489583333336,118.48484077568123L33.2984375,108.9534319126204L33.68307291666667,127.68351941136395L33.9578125,107.45839020904974L34.397395833333334,129.8634865722251L34.56223958333333,117.13436176169006L34.6171875,100.60757214886999L35.111718749999994,96.44794801961042L35.221614583333334,128.04673611127762L35.2765625,110.13759425328568L35.33151041666667,126.5546734092624L35.71614583333333,105.56522287959751L35.990885416666664,101.61952823517548L36.10078125,87.73855910257879L36.15572916666667,100.20680237128772L36.37552083333333,103.44010779877559L36.65026041666667,97.47999320494127L36.70520833333333,95.29282601367584L36.870052083333334,101.72943444216529L37.19973958333333,99.42697035903879L37.2546875,101.27969393824641L37.364583333333336,99.06474494610063L37.52942708333334,107.09058603255573L37.63932291666667,108.61087398162842L37.694270833333334,104.59047919547528L37.80416666666667,108.0868656169895L37.9140625,128.70019663638362L37.96901041666667,116.60292874081173L38.35364583333333,107.39257145906001L38.79322916666666,104.45284403264128L38.84817708333333,105.18137692933692L38.903124999999996,102.02016355865133L39.12291666666666,101.47740171668478L39.72734375,97.91175605584193L40.05703125,95.48531216879749L40.221875,117.31677169231808L40.33177083333334,102.69855435625762L40.49661458333333,94.45318453043748L41.15598958333334,95.70058927494777L41.485677083333336,100.04004502510882L41.65052083333334,101.23777423591194L41.76041666666667,101.43931617845443L41.815364583333334,97.25956626329537L41.92526041666666,96.0400567102755L42.14505208333333,113.29548915879616L42.36484375,105.80411339856605L42.47473958333333,98.44958477342402L42.74947916666667,96.6647745064772L43.51875,90.21960186884891L43.79348958333333,93.12031207483122L43.8484375,83.89025055929228L44.06822916666667,99.30519659400431L44.12317708333333,105.89842196889443L44.342968750000004,99.78092095004284L44.39791666666667,95.8348592656378L44.5078125,88.61747810019529L44.67265625,94.4302655693617L44.94739583333334,95.5439439474802L45.00234375,95.4688475742517L45.33203125,94.67094431592979L45.38697916666667,109.48784127277582L45.44192708333333,116.79233160377494L45.60677083333333,108.76239458420588L46.10130208333333,103.64269281611405L46.54088541666667,102.65868618502031L47.255208333333336,98.24382189141875L47.42005208333333,101.02367243608523L47.639843750000004,104.12950480548366L47.96953125,100.35590158027728L48.18932291666667,98.82207534622499L48.24427083333334,98.46483571367591L48.29921875,91.13511382969466L48.68385416666667,89.50473478852882L48.958593750000006,90.59973926110948L49.01354166666667,102.44391040590756L49.89270833333333,92.3477690567607L50.27734375,84.00397468533045L50.60703125,85.77709119659269L50.66197916666667,93.00718349601789L50.771875,85.40700034044924L51.1015625,90.19200273894795L51.59609375,95.91146189719034L51.705989583333334,96.87038559771662L51.760937500000004,85.09826909659678L51.92578125,85.04446504783759L52.255468750000006,87.02805383796125L52.75,87.69998358989656L52.914843749999996,92.37044434412931L52.969791666666666,89.14731468437071L53.46432291666667,88.09173781067761L53.51927083333333,96.4114816289435L54.123697916666664,96.36623287106185L54.28854166666667,90.96681369162154L54.34348958333333,92.36117115636765L54.45338541666667,89.73161743144205L54.56328125,94.27267206093973L55.33255208333333,90.59469318375815L55.60729166666667,95.27434457805775L55.7171875,91.18261294059258L55.882031250000004,94.45687265475172L56.321614583333336,95.41558012669779L56.65130208333333,96.41279303713476L56.76119791666667,100.67409344211167L56.92604166666666,98.26774645903596L56.98098958333333,94.97047045291819L57.14583333333333,95.44433268237903L57.25572916666666,96.67911332266242L57.53046875,103.08498564049692L57.58541666666667,104.16932499528019L58.07994791666667,101.58374569235633L58.18984375,105.37620654582074L58.40963541666667,108.70287664766037L58.46458333333334,91.24895458014504L58.739322916666666,92.75195629919725L58.95911458333333,106.71829396919297L59.0140625,100.72394300953712L59.28880208333334,98.82789892081445L59.39869791666667,91.5349191430648L59.45364583333333,83.8901007746497L59.56354166666667,91.80845735867524L59.673437500000006,90.42968140211481L59.72838541666667,94.26987739231006L60.003125,115.96519919311318L60.05807291666666,108.39613441107775L60.44270833333333,96.76018149849257L60.55260416666666,97.02465697755126L60.88229166666667,103.61609042555385L60.9921875,99.52052990300552L61.266927083333336,93.85262601651219L61.541666666666664,92.69895382378897L61.6515625,96.2896131142713L62.3109375,125.37739813900929L62.69557291666666,102.61104646225027L62.75052083333333,93.67611086886747L62.86041666666667,100.17437970114456L62.91536458333333,97.72250273251665L62.9703125,92.75213173421356L63.02526041666667,90.58115097027482L63.13515625000001,85.6924386237974L63.300000000000004,81.61278494394581L63.51979166666667,113.49062845346975L63.79453125,97.4738072620883L63.959374999999994,91.77850038751478L64.17916666666666,89.24786460285594L64.34401041666668,83.98432793190221L64.39895833333333,83.78820520432919L64.50885416666667,80.43092732849999L64.56380208333334,84.39635810073158L64.72864583333333,90.20302949928697L64.78359375000001,82.12363760318361L64.9484375,75.41002535816196L65.00338541666667,90.87024157216727L65.278125,83.30560586704888L65.33307291666668,85.21475351255498L65.71770833333333,81.43221615777304L65.88255208333332,79.72543232711223L66.10234374999999,84.5499813977778L66.2671875,86.21149373544517L66.37708333333333,105.78132192987614L66.48697916666667,106.87465456349739L66.70677083333334,95.61851785507595L66.9265625,85.37457141181594L67.09140624999999,119.362653567177L67.14635416666667,100.73612212905621L67.20130208333333,102.53930819045601L67.25625000000001,119.73906013042378L67.5859375,100.06426760801111L67.915625,95.45178541596435L68.02552083333333,94.55501090508749L68.08046875,89.05154989661963L68.30026041666666,121.67376703526045L68.46510416666668,104.75005504794751L68.52005208333333,102.8542868507839L68.68489583333334,94.46406271334114L68.73984375,93.30233158343891L68.79479166666667,98.60529532060946L68.90468750000001,100.94510670315279L69.01458333333333,96.62753249281812L69.34427083333333,85.52951855381508L69.50911458333333,81.84820945708888L69.56406249999999,86.96290801547538L69.72890625,81.14580099626465L69.78385416666666,83.3079273224225L69.83880208333333,90.2490815913056L69.94869791666667,83.70648518747187L70.00364583333332,79.43087880153858L70.33333333333333,89.26948065134447L70.553125,72.35876199878864L70.60807291666667,76.20772625431637L70.71796875,72.53177678747893L70.82786458333334,86.63630923953117L70.93776041666668,66.08264184928467L70.99270833333333,68.33164281910335L71.04765625,78.83150980143863L71.10260416666667,89.08959088084254L71.15755208333334,92.35821249269678L71.32239583333333,86.60457856175051L71.5421875,80.64551303425202L71.70703125,97.08730976931473L71.81692708333334,80.4453959866143L71.871875,82.79071316389651L71.92682291666667,88.90281815902472L72.25651041666667,95.48201073625404L72.31145833333333,85.85524722207492L72.42135416666666,89.70959063477095L72.58619791666668,77.80742439722486L72.80598958333333,82.87764756866217L72.97083333333333,94.0036373160709L73.13567708333332,97.3630846763291L73.190625,85.92802814365302L73.30052083333334,95.66875009729924L73.41041666666666,92.21111831636611L73.5203125,83.53519675049593L73.79505208333333,88.64746438985834L73.95989583333333,87.02922193103656L75.11380208333333,85.68451912949143L75.22369791666667,82.7526830576428L75.27864583333334,84.7676907726487L75.49843750000001,89.72090540431813L75.60833333333333,95.01930653140182L75.828125,86.12183003859407L75.93802083333334,82.0656042033596L76.04791666666668,84.4814041985898L76.21276041666667,91.92419476432677L76.32265625,91.35927477717468L76.37760416666667,92.71702432668474L76.70729166666666,97.7846830202085L76.92708333333333,86.62300378255678L77.31171875,87.21522512929393L77.36666666666666,88.30233577714228L77.42161458333334,96.34573069820559L77.4765625,98.48940918555003L77.75130208333334,87.57031381066888L77.86119791666667,94.92889729377875L78.02604166666666,98.26068117631206L78.08098958333333,101.88909356731968L78.1359375,99.84579692512843L78.19088541666667,95.66907449767737L78.63046875,104.23575470791387L78.68541666666667,98.40554157482312L78.85026041666667,92.55691554953438L79.23489583333333,90.46651506608885L79.39973958333334,101.85454377903945L79.83932291666667,98.07022008288517L79.89427083333334,124.3747380816887L80.00416666666666,106.84239073856804L80.05911458333333,100.60127829778108L80.1140625,98.65227879122024L80.27890624999999,97.72321573354698L80.33385416666667,125.93247746380418L80.55364583333333,133.68956502511196L80.82838541666666,110.04975113083053L80.88333333333334,104.99523674468118L81.103125,98.68936529063593L81.15807291666667,94.12840953390499L81.21302083333333,111.38407645099326L81.26796875,96.83151621131161L81.4328125,95.47954437603082L81.48776041666666,124.31651562629332L81.54270833333334,106.63180698524982L81.70755208333333,124.7831227928434L81.7625,107.31995438278814L82.20208333333333,127.89483365678026L82.421875,134.34497350485853L82.53177083333334,114.87328640242016L82.64166666666667,127.66435452414068L82.69661458333333,104.44647598904668L82.86145833333335,97.606833396135L83.08125000000001,124.84145674345469L83.13619791666666,110.74144160942633L83.19114583333334,101.93662075116495L83.35598958333333,102.79059437703953L83.79557291666667,121.54887537098107L83.90546875,95.48655859912192L84.12526041666666,123.35486714979743L84.18020833333333,110.32040166603575L84.34505208333333,106.15417409488516L84.45494791666667,89.8340361388393L84.56484375000001,91.20383728346367L84.83958333333332,79.6642688099191L85.44401041666667,90.13892995808219L85.55390625,82.86628468495479L85.88359375,90.09312646888382L85.93854166666667,119.60817123574667L86.04843749999999,73.41685098756219L86.15833333333333,90.11050253239341L86.378125,92.34492292610285L86.59791666666666,85.93172399083687L86.7078125,116.46924087306068L86.98255208333335,99.24351713512944L87.0375,120.80774565765455L87.09244791666667,129.46813908316958L87.47708333333334,110.81808332316024L87.53203124999999,125.58767890842044L87.86171875,102.94375238459678L88.08151041666666,93.89919193936588L88.13645833333334,90.3446152604139L88.19140625,117.5015080306715L88.68593750000001,100.06689037104186L88.79583333333333,87.13044332026017L88.96067708333332,88.12673484636126L89.29036458333333,84.06843210027102L89.3453125,82.21607430984147L89.72994791666666,75.522744287152L89.83984375,83.41914526004125L90.60911458333334,112.08894163588072L90.77395833333334,86.97157841133503L90.93880208333333,72.07043858374497L90.99374999999999,108.15609056905421L91.04869791666667,90.29944859186647L91.21354166666666,116.04350485102175L91.26848958333333,83.54936617515366L91.3234375,75.83311898750203L92.3125,68.48704950037096L92.47734375,70.3857223957362L92.58723958333334,65.21223194153714L92.971875,68.63453111617838L93.02682291666667,54.34020523685334L93.13671875,58.893101362069174L93.24661458333334,65.74426680640397L93.35651041666667,69.81051012748378L93.46640625,54.640541320031666L93.74114583333333,59.941863083959824L93.85104166666666,60.96809682975795L93.9609375,45.4165044608766L94.18072916666667,39.64641424231228L94.73020833333334,37.52476677942011L94.95,37.3851868526543L95.16979166666667,57.72289241349222L95.22473958333333,39.263116493107105L95.27968750000001,37.04819881669992L95.38958333333333,36.56204567586334L95.55442708333332,51.45222569172123L95.71927083333334,37.30067577736605L95.82916666666667,37.01500211666015L95.99401041666667,45.61301149752586L96.32369791666666,40.22977382722861L96.43359375,37.81191652325206L96.54348958333333,46.24385727497049L96.5984375,39.86798512642381L96.76328124999999,75.44876569160458L96.81822916666667,46.16899538857013L96.87317708333333,45.24518680008967L97.03802083333333,82.4941056142622L97.47760416666667,109.59081181675967L97.75234375,122.65656003306908L97.86223958333333,74.3070334410048L98.19192708333334,108.99013714286578L98.41171875,106.75572777357198L98.46666666666665,91.16467967369748L98.52161458333333,52.18603451384754L98.5765625,41.95198667169396L98.90625,33.09480765639038L99.07109375,38.75248653840078L99.45572916666666,46.49647692202432L99.565625,48.579089634795025L99.73046875,44.90981760638796L99.78541666666666,39.3800869792069L99.95026041666667,57.29607250275992L100.27994791666667,43.92767383272624L100.38984375000001,54.54974484469975L100.5546875,42.65101477467203L100.71953125,58.83277090759446L100.77447916666667,60.364487466402686L100.82942708333334,45.08225744919011L100.88437499999999,39.270144207946814L100.93932291666667,47.61972171933056L101.26901041666667,55.937962237122754L101.92838541666666,43.35319496317641L102.25807291666666,64.02695801671607L102.5328125,41.55840305903836L102.75260416666667,38.28749127739245L103.13723958333333,41.90033635454189L103.24713541666667,38.10397706841837L103.52187500000001,41.47718413191593L103.57682291666666,32.96497508731943L103.74166666666667,39.47428003970177L103.79661458333334,37.414339312556024L103.90651041666666,41.34024776883609L103.96145833333334,37.762854026832265L104.12630208333333,41.420106512356604L105.06041666666667,37.777814889967836L105.11536458333333,36.51414106449301L105.17031250000001,36.02999045683818L105.44505208333334,35.990494184041154L105.60989583333333,35.50478244829598L105.82968749999999,35.435645388069965L105.88463541666667,35.747584306363066L105.93958333333333,60.585264224948446L106.159375,45.413090448495176L106.21432291666667,44.802727675199414L106.26927083333332,39.05585679676459L106.37916666666666,36.82783959341479L106.59895833333333,36.21473152481179L106.70885416666667,35.7124867650007L107.42317708333334,41.05480410522788L107.47812499999999,42.736745298314254L107.97265625,38.41952398862314L108.02760416666666,36.6430803600677L108.63203125000001,36.21034966604095L109.07161458333333,36.113886009335026L109.1265625,35.98815005618994L109.29140625,40.56745776229835L109.40130208333332,74.51646135803728L109.45625,56.00742036018929L109.89583333333333,70.13247275428171L109.95078124999999,44.15056543815267L110.00572916666667,34.08717237403574L110.22552083333333,35.132187514027194L110.33541666666667,63.77845139617096L110.4453125,46.84070357272795L110.88489583333333,35.20230694149564L111.15963541666666,40.80694488920736L111.21458333333334,37.849787601975805L111.37942708333333,36.77987086348376L111.76406250000001,36.35148116720431L111.87395833333333,40.18221636482291L112.4234375,41.875902919681835L112.69817708333333,38.413960101727696L112.753125,41.46424806607785L112.86302083333332,38.10957948929425L112.91796875,36.444220708051624L113.24765625,41.17462798676026L113.63229166666666,32.89000893788931L113.68723958333334,39.72317393325939L114.18177083333333,42.758126614256L114.4015625,42.95846729485575L114.51145833333332,43.56142583107085L114.73125,43.205821889747114L115.22578125000001,38.93617053184266L115.33567708333334,36.986700456695246L115.50052083333333,31.459107447684634L115.61041666666667,38.693533703918156L115.66536458333334,37.057304616836156L115.94010416666667,41.62516071880811L116.3796875,42.99712507233917L116.48958333333333,33.77521041569657L116.87421875,35.16380338926099L116.92916666666667,35.6260369515329L117.14895833333334,35.90710700660835L117.42369791666667,41.15184895617155L117.58854166666667,38.38637200624406L117.6984375,32.26352049624865L117.86328125,35.1629024988933L118.028125,35.88092864563502L118.24791666666667,41.2124139184296L118.6875,38.09572582360496L119.12708333333335,32.06946177678944L119.23697916666667,34.75253889113725L119.34687500000001,35.841865015594145L119.51171875,31.05185505657996L119.56666666666668,34.27928498518008L119.89635416666667,35.71844943300455L119.95130208333333,36.160618382361385L120.39088541666666,63.195265425327825L120.55572916666667,46.813564696514284L120.61067708333333,45.227925092234585L120.66562499999999,40.034720038924746L120.72057291666667,42.501070037512356L120.83046875000001,49.38370651573729L120.9953125,41.41134194810212L121.37994791666667,47.177891495385396L121.43489583333333,76.87478604566677L121.70963541666667,61.61919608564324L121.81953125,46.270029787207505L121.87447916666666,40.1648059074174L121.92942708333334,42.73591534832483L122.42395833333333,43.9523846888943L122.64375,60.205791977856414L122.75364583333334,50.30884949753872L122.80859375,42.37516880374094L122.91848958333334,38.917508056709664L123.19322916666667,52.570720818019815L123.24817708333335,52.85979871441211L123.35807291666667,42.91635470998022L123.41302083333333,64.7080533202271L123.46796875000001,47.74313307942917L123.6328125,46.2890859062761L123.74270833333334,55.591148069340306L123.85260416666668,48.97930736006416L124.34713541666667,51.263926292905964L124.51197916666666,42.76303993112769L125.00651041666666,48.60290995262803L125.33619791666668,41.47638955049597L125.39114583333333,61.14734844027825L125.72083333333335,76.72414195458428L125.77578125000001,52.41347339668465L125.83072916666666,47.328695816311274L126.27031250000002,61.691508427512765L126.60000000000001,46.2007759330173L126.65494791666667,45.32843562464662L127.09453125,44.90540233733187L127.14947916666668,35.16038974978324L127.31432291666665,36.05204941856563L127.69895833333334,69.78684629519898L127.80885416666665,49.256551754607266L128.02864583333334,41.53771445354044L128.578125,38.74150601254486L128.63307291666666,32.56807501201382L128.79791666666665,74.82352130428427L129.07265625,89.34838941782722L129.29244791666665,86.86796701410567L129.51223958333333,56.097890824226276L130.00677083333335,64.87268822143258L130.11666666666667,83.84976669907093L130.17161458333334,91.04842799215297L130.50130208333334,94.9272175984694L130.55625,96.904607173523L130.61119791666667,97.16538685821892L130.72109375,87.74906638134026L130.83098958333332,92.92675255542015L131.49036458333333,99.90207598534049L131.98489583333333,104.37713438322604L132.20468749999998,105.23819931381979L132.47942708333335,113.3243131557249L132.534375,114.52935633919756L132.80911458333333,94.36132517345143L132.8640625,88.53478195358838L132.91901041666668,87.18341648199679L133.13880208333333,87.89533193381307L133.19375,85.378252092798L133.5234375,80.67587008264725L133.74322916666665,94.21567318907883L133.79817708333334,99.36405723943095L133.853125,101.56637485230799L133.96302083333333,104.45578596361136L134.29270833333334,91.90119875943294L134.45755208333333,95.22296970224839L134.56744791666668,93.89005872271736L134.73229166666667,78.83865742433069L134.89713541666666,80.44145539437865L135.06197916666667,81.10930839553019L135.171875,85.76693238074375L135.55651041666667,92.29332754701021L135.66640625,92.59845408224075L136.32578125,78.99036880778368L136.38072916666667,79.08740744685004L136.43567708333333,79.72773500615479L137.20494791666667,84.44139453233144L137.42473958333335,74.7187622613662L137.64453125,70.82362838025439L137.69947916666666,64.6768438406293L137.86432291666668,77.36276888481764L137.91927083333334,71.7292872602803L138.08411458333333,67.14947678629557L138.19401041666666,75.16198571942294L138.30390625,56.21462216138453L138.57864583333333,54.3599877910977L138.74348958333334,56.063478531100564L138.85338541666667,61.71104097397237L139.01822916666666,67.39472789308299L139.18307291666667,48.41782861919116L139.34791666666666,41.125553573246336L139.4578125,37.79255384845785L139.62265625,50.156383017513434L139.7875,55.13574220742171L139.84244791666669,43.585389186860816L140.00729166666665,38.93110154865449L140.17213541666666,41.756855509717234L140.66666666666666,42.43969115970608L140.7765625,53.84427310552704L141.05130208333333,58.93716489832891L141.32604166666667,60.485680623993396L141.38098958333336,71.44629480065787L141.4359375,44.84866913322869L141.54583333333332,39.322456917562675L141.60078125,37.48767375319828L141.71067708333334,41.57948480024559L141.82057291666666,48.72806712823734L141.98541666666665,45.49545080631256L142.04036458333331,60.38930760799144L142.26015625,61.021734105562416L142.53489583333334,60.61307204949581L142.64479166666666,60.86763778948954L143.02942708333333,66.55614963571759L143.13932291666666,105.30195665451919L143.19427083333335,67.99976307006419L143.3591145833333,53.34150859222965L143.46901041666666,52.92304043662392L143.68880208333334,68.45824118271803L143.85364583333333,69.25274200801879L143.96354166666666,69.46135557714828L144.0734375,106.69188563972335L144.12838541666667,121.61345065572378L144.403125,127.58063210053275L144.62291666666667,130.14850689382547L144.67786458333333,82.95480353899329L144.73281250000002,111.76565038637892L144.95260416666667,81.57459274967562L145.00755208333334,111.4704566775767L145.11744791666666,80.7051412177771L145.17239583333335,68.16610838729679L145.28229166666668,63.22598318309639L145.33723958333331,46.34327583816177L145.3921875,39.977762990563946L145.50208333333333,96.38528660600433L145.55703125,69.72604350420403L145.66692708333335,63.975173995015346L145.94166666666666,50.88117446946306L145.99661458333333,46.594004992786346L146.32630208333333,50.26326589838816L146.38125,100.35883631811797L146.43619791666666,60.45850757031473L146.65598958333334,40.23586973005402L146.76588541666666,37.39657144983079L146.87578125,41.005325312685684L147.09557291666667,37.68397524183456L147.64505208333335,36.39700616862422L147.75494791666665,43.59451385045869L147.86484375,97.64989436682242L147.91979166666667,64.53229130884071L148.13958333333335,51.755202220997525L148.24947916666665,41.776947490934006L148.30442708333334,42.88384343419358L148.359375,33.460173971876806L148.52421875000002,40.2104019471508L148.74401041666667,48.504152434502856L148.96380208333335,45.52509040211482L149.12864583333334,82.08334083234071L149.678125,58.768639150399544L149.73307291666666,54.33699681499705L149.95286458333334,42.91215019080184L150.06276041666666,54.631081822733044L150.22760416666665,42.82478441879647L150.3375,38.28211104106175L150.39244791666667,36.58319192051869L150.50234375,36.15992217171092L150.55729166666669,40.924763961318085L150.61223958333335,51.28463706317861L150.66718749999998,50.80283623601434L150.77708333333334,46.61568144314966L150.88697916666666,45.56346724604014L150.94192708333333,55.44576415028769L151.16171874999998,43.2605056914868L151.21666666666667,38.806427725776494L151.3265625,37.10745326586949L151.49140625,46.1628870681414L151.76614583333333,45.89506953032595L152.42552083333334,44.79534956535752L152.6453125,39.45677874038746L152.81015625,42.366264391805444L153.08489583333332,38.484279735241316L153.19479166666665,42.27001779473523L153.35963541666666,49.57973443703327L153.68932291666667,46.217564795621726L153.74427083333333,44.683542768748765L153.85416666666666,39.47739629972449L154.01901041666667,37.46138786410276L154.18385416666666,36.43401573344339L154.23880208333333,30.892484714100664L154.29375,43.99518592290382L154.78828125,49.59495907829956L154.84322916666667,46.28308741910963L154.89817708333334,39.71638309184339L154.953125,37.33913866989929L155.06302083333333,57.81117865263281L155.17291666666665,39.391282485715344L155.33776041666667,37.21952867073753L155.72239583333334,68.09958450329668L155.77734375,53.11179662095336L155.83229166666666,85.87038421609064L155.88723958333335,55.29227342615957L156.32682291666666,58.85359997376262L156.82135416666668,44.74610255891581L157.09609375,81.16425108391037L157.53567708333333,90.09115100374473L157.590625,94.37735984511899L157.75546875,58.34237670282825L157.97526041666666,54.94351530913778L158.35989583333335,48.01220589403083L158.52473958333331,45.79383666662893L158.68958333333333,89.07896600271027L158.74453125,77.91411771129347L158.79947916666669,78.63664827783032L158.909375,83.77667663863794L159.34895833333334,79.46181859045447L159.45885416666667,62.423403933265924L159.56875,51.58725406749508L159.67864583333335,50.595904152835544L160.228125,46.71512054345144L160.66770833333334,39.91903535654743L160.72265625,58.14984900307728L160.77760416666666,44.31849959733834L160.99739583333331,43.86316485378421L161.32708333333335,54.46700595761982L161.76666666666668,48.29354693168846L162.09635416666666,45.640794569005585L162.15130208333335,39.557379156298694L162.20625,47.7998973762664L162.26119791666667,45.435039955861114L162.37109375,49.9712598014367L162.48098958333333,46.46850068556217L162.64583333333334,39.828267417487204L163.08541666666667,57.522938251019646L163.47005208333334,39.34879248847939L163.68984375,52.26458203456746L163.79973958333332,54.87004763868477L164.01953125,43.400668506071945L164.07447916666666,49.274182320077166L164.18437500000002,52.19941228457923L164.45911458333333,50.81686754792857L164.62395833333335,57.6161580539579L164.73385416666667,54.761021338755626L164.89869791666666,58.58764898811185L164.95364583333333,60.15024376603114L165.00859375,60.9885600252723L165.55807291666667,61.36350002842586L165.61302083333334,61.48117351801489L165.7229166666667,61.64127942617716L165.77786458333333,68.48455469656403L165.8328125,64.46279368651027L165.88776041666665,62.922293357640655L166.10755208333333,67.5706841856812L166.21744791666669,68.18625073413823L166.38229166666667,63.816170390001076L166.4921875,62.99228524691512L166.60208333333335,62.775913524986976L166.71197916666665,61.90326589954746L167.20651041666665,67.3072890638329L167.42630208333333,53.63649077341676L167.53619791666668,58.46011343146818L167.64609375,70.78435396605587L167.75598958333333,70.10647207348696L167.92083333333332,64.73141319759516L168.08567708333334,59.21145534370269L168.41536458333334,60.716776462423226L168.4703125,56.11758757874378L168.69010416666666,43.562948259400414L168.85494791666667,39.13743870780198L169.01979166666666,37.1464675631706L169.12968750000002,36.20847190074943L169.40442708333333,46.851091404628285L169.62421875,40.183270729184535L169.7890625,37.74484208978309L169.84401041666666,36.696120662115995L169.89895833333333,36.18163869255535L169.95390625000002,40.74267562605279L170.11874999999998,42.9104581607078L170.33854166666666,43.76800002440125L170.66822916666666,38.87430202330205L170.72317708333333,47.05217742233135L170.88802083333334,40.51962088005822L171.16276041666666,50.63817553925662L171.32760416666667,36.5483283141154L171.38255208333334,31.235975947871175L171.49244791666666,34.18394944298776L171.60234375,35.53476787878271L171.71223958333331,36.117197191089545L171.7671875,36.33994315435358L171.93203125,36.153071527523004L171.98697916666669,41.301424561345065L172.09687499999998,38.16155081918863L172.26171875,41.650132316369266L172.31666666666666,38.24972169308543L172.42656250000002,37.09127711466398L172.75625,41.24334058095945L172.92109375,47.134156871336046L173.0859375,45.161502938847875L173.14088541666666,44.691011294837935L173.36067708333334,39.34131146233712L173.69036458333332,37.12494067617861L174.4046875,36.45818920325528L174.62447916666667,40.60186780390805L174.734375,32.89136874178606L175.00911458333331,39.398131120513874L175.17395833333333,37.34444212998613L175.28385416666666,36.52562982795554L175.5036458333333,35.91893236152033L175.77838541666668,35.869091633084096L175.99817708333333,40.89083545571639L176.21796875,37.69738293619337L176.3828125,31.518350569773023L177.20703125,34.213415171187364L177.75651041666669,35.10330288816544L177.81145833333335,41.087097204894384L177.86640625,37.766522554031795L178.03125,36.73572947062913L178.08619791666666,36.27115058776188L178.3609375,36.29421592161487L178.690625,36.15545073803035L178.74557291666667,30.982207448101796L178.80052083333334,28.96326234712978L178.85546875,28.11664682550212L178.91041666666666,42.72529260302609L178.96536458333333,38.47037988163658L179.0203125,36.77884041198882L179.45989583333332,35.95853529123725L180.72369791666668,40.25397089814625L180.77864583333334,47.600286343532396L180.83359374999998,45.26525196727256L181.21822916666667,43.945986549974364L181.82265625,39.035653154857116L181.87760416666666,37.09970207564887L181.93255208333332,36.227259431625065L182.15234375,40.991182232911214L182.59192708333333,50.58878937544488L182.646875,41.46325978459867L182.81171874999998,32.91608178648036L182.92161458333334,34.658820978570944L182.9765625,35.373326632523586L183.08645833333333,35.77162660842981L183.85572916666666,30.81411082816421L184.02057291666668,28.79172620299536L184.13046875,37.730620182482724L184.40520833333332,45.672669582276505L184.57005208333334,39.339112387058876L184.73489583333333,36.877293338658966L185.22942708333332,36.17988714766768L185.28437499999998,40.5695945451962L185.61406250000002,32.58318915256684L185.72395833333331,34.630108751139176L185.77890624999998,45.54440451423217L186.10859375,39.369001778494045L186.2734375,37.26870291875625L186.32838541666666,36.41718239687258L186.603125,35.88598916338094L186.71302083333333,35.84713509887844L186.82291666666666,44.98449705283017L186.98776041666667,39.18074864658152L187.04270833333334,41.94726012128539L187.48229166666667,42.99266499090384L187.75703124999998,38.51682476938165L187.86692708333334,36.78536420615158L187.921875,35.95435331667012L187.97682291666666,30.79882651252557L188.19661458333331,38.275698612837836L188.58125,41.78848178038605L188.80104166666666,38.08617759041673L188.96588541666668,36.53679029904872L189.02083333333334,36.03912881077105L189.13072916666667,45.361413280518555L189.5703125,34.46307279008327L189.84505208333334,35.08947087866581L190.50442708333335,35.54559475680341L190.77916666666667,30.671097346773028L190.8890625,28.77912507371543L190.94401041666669,42.58910056998625L191.10885416666665,38.44303028210246L191.65833333333333,41.47151615162255L191.98802083333334,37.964334288058815L192.2078125,41.40237978002149L192.48255208333336,37.842975028921494L192.59244791666666,46.096428765826786L192.70234375,45.01910575677357L192.81223958333334,44.84620173913496L192.92213541666666,49.829747732765675L193.08697916666665,41.167794512934904L193.14192708333331,37.946917021578386L193.196875,31.577018080249108L193.36171875,34.07733774250954L193.41666666666669,34.95141407719398L193.47161458333335,35.32337500123038L193.69140625,30.57765147352411L193.80130208333333,40.83159948003894L193.96614583333334,42.632853993697644L194.02109374999998,58.326952408544464L194.13098958333333,55.125767628439895L194.1859375,53.7111789815328L194.40572916666667,47.69536197151992L194.515625,40.29904510301635L194.57057291666666,37.50579343474646L194.62552083333333,46.23296301517362L194.8453125,45.32524794166801L194.95520833333333,44.648162442333124L195.06510416666666,53.56747565161191L195.22994791666667,42.81938649153215L195.72447916666667,38.643054389814175L195.88932291666669,36.905706331128805L195.99921874999998,45.73785394226825L196.10911458333334,34.61403798760678L196.21901041666666,40.000080326612014L196.32890625000002,32.411404066191956L196.8234375,39.14041375316168L197.04322916666666,52.86004932372943L197.153125,53.23903561300928L197.31796875,58.06010089246745L197.75755208333334,71.01841467898012L197.97734375,49.56604182683791L198.19713541666667,36.14133190326433L198.52682291666667,35.9408698311306L198.69166666666666,35.98599162335841L198.91145833333331,44.61935432752005L199.02135416666667,39.31976995333807L199.24114583333335,37.059091581099L199.29609375,36.57139053518438L199.68072916666668,36.189741231690945L199.84557291666667,35.882550504250105L199.90052083333333,40.85951516180176L200.17526041666667,37.621102686838924L200.23020833333334,46.39600478206423L200.28515625,44.75134175346488L200.39505208333333,43.983623032240835L200.55989583333334,39.23655571102133L200.83463541666666,37.32145910427254L200.99947916666667,36.38795125260275L201.05442708333334,41.255046598196294L201.16432291666666,37.87234668036409L201.49401041666667,41.88229606151698L202.04348958333333,74.93229823258885L202.428125,86.11662030287545L202.59296875,71.06314424339091L202.64791666666667,55.60070969155504L203.03255208333334,43.66596713028539L203.0875,39.20298029813939L203.14244791666667,37.07511043980179L203.19739583333336,68.71851417301394L203.47213541666667,43.72822980974683L203.63697916666666,38.94717108563519L204.24140624999998,42.16741802065073L204.90078125,38.57660591801576L204.95572916666666,47.241946295064345L205.01067708333335,55.95922926812951L205.12057291666667,43.76769434809567L205.23046875,51.475466273529435L205.50520833333334,47.205462712600436L205.67005208333333,40.46575284081433L205.725,42.77936175305316L205.83489583333332,50.578075599522194L205.88984375,52.80661694520951L206.27447916666665,37.646761240257774L206.384375,31.80122079910421L206.49427083333333,39.09269271815806L206.93385416666666,47.90554109570503L206.98880208333335,55.63715300136048L207.26354166666667,53.9798778986412L207.31848958333333,43.295531822028664L207.6481770833333,39.263191944398315L207.75807291666666,32.47749513562277L207.86796875,39.7656718884308L207.97786458333334,37.65684718138809L208.19765625,41.37690381232755L208.3625,43.20346251085945L208.58229166666666,43.88440937434555L208.91197916666667,34.277195415929846L209.07682291666666,40.27103276513896L209.13177083333332,85.24371975912247L209.18671874999998,55.31511644479095L209.51640625000002,97.6860358885697L209.90104166666669,65.38920931268592L209.95598958333335,47.43631742620404L210.17578125,51.139984638950914L210.28567708333333,62.68043405138551L210.34062500000002,104.12796910333L210.39557291666668,120.01474813537126L210.61536458333333,84.342738105289L210.89010416666667,50.243591376752434L211.27473958333334,52.52574095305769L211.49453125,47.86958044466663L211.71432291666667,41.00665058978829L211.76927083333334,38.29087108229038L211.93411458333335,42.67790307553264L212.15390625,44.26711206735202L212.26380208333333,96.9256676075697L212.59348958333334,91.54688342725359L212.75833333333333,73.28882122857154L212.86822916666668,108.65053916978451L212.97812499999998,64.75717474445702L213.08802083333333,68.29537103874397L213.25286458333335,49.15036528802813L213.36276041666667,41.64566166279995L213.52760416666666,68.74588046381494L213.58255208333333,107.26680563389735L213.74739583333334,63.90522257872115L213.85729166666667,52.94142159367474L214.18697916666667,58.68455871872592L214.46171875,50.712525276953514L214.51666666666665,47.64663097591698L214.73645833333333,98.90806458355942L215.06614583333334,66.68289350213931L215.12109375,63.73169653542741L215.56067708333333,106.39881491957854L215.615625,84.5609640017345L215.72552083333335,65.90551619660724L215.8903645833333,53.580563133679384L215.9453125,103.11981859067897L216.11015625,72.93389675480128L216.38489583333333,109.65621114141881" style="fill: none;" fill="none"></path></g></g></g></g><g opacity="0.2"><g><g><g><path stroke="rgb(238, 51, 119)" stroke-width="2px" d="M27.748697916666668,144.65073993389424L28.298177083333332,149.81050189678487L28.46302083333333,137.67164100060097L28.792708333333334,116.1050111741286L29.452083333333334,125.26753342848559L29.671875,130.90757080078126L29.781770833333336,120.36433509239782L29.89166666666667,142.7236044546274L29.946614583333336,124.78313795823318L30.056510416666665,128.66764498197114L30.386197916666667,117.62409348707932L30.441145833333334,123.15424307016225L30.49609375,130.2998492901142L30.551041666666666,129.80270920973558L31.045572916666668,115.15835824819712L31.375260416666666,98.4074193396935L31.430208333333336,104.94854661207931L31.48515625,104.30057720477765L31.54010416666667,100.84759850135217L31.81484375,101.79608163686899L32.25442708333333,98.3842533991887L32.6390625,114.16301673302283L33.07864583333333,95.54010352501501L33.243489583333336,129.7365876652644L33.2984375,102.96137357271634L33.68307291666667,139.45846041165865L33.9578125,94.74356957068808L34.397395833333334,143.9487751652644L34.56223958333333,109.13201293945312L34.6171875,90.21776630108172L35.111718749999994,93.83294001652644L35.221614583333334,147.91177227313702L35.2765625,98.87875262920673L35.33151041666667,136.87550818810095L35.71614583333333,92.36990055964542L35.990885416666664,99.13901010366587L36.10078125,79.01208665114184L36.15572916666667,108.04514423076924L36.37552083333333,105.47277212289664L36.65026041666667,93.73308077298678L36.70520833333333,93.91783165564905L36.870052083333334,105.77590163010818L37.19973958333333,97.97949293870194L37.2546875,102.44443547175482L37.364583333333336,97.67228515625L37.52942708333334,112.13614736703725L37.63932291666667,109.56662503756009L37.694270833333334,102.06299973707932L37.80416666666667,110.28491962139424L37.9140625,141.6590659743089L37.96901041666667,108.99780592698318L38.35364583333333,101.60234684870794L38.79322916666666,102.60474177433893L38.84817708333333,105.63937969501202L38.903124999999996,100.03282095102163L39.12291666666666,101.13618661733774L39.72734375,95.67016122671274L40.05703125,93.9598930476262L40.221875,131.04143517127403L40.33177083333334,93.50860013521634L40.49661458333333,89.26961327185998L41.15598958333334,96.48478834885816L41.485677083333336,102.76810678335336L41.65052083333334,101.99074406550481L41.76041666666667,101.5660184420072L41.815364583333334,94.63190589317908L41.92526041666666,95.27339435283955L42.14505208333333,124.14336688701923L42.36484375,101.09455143855169L42.47473958333333,93.82605374849759L42.74947916666667,95.54272766113282L43.51875,86.1677506666917L43.79348958333333,94.94388559194711L43.8484375,78.08763859675481L44.06822916666667,108.9960258601262L44.12317708333333,110.0433486703726L44.342968750000004,95.93506526066706L44.39791666666667,93.3541103891226L44.5078125,84.08016681377704L44.67265625,98.08455866887019L44.94739583333334,96.24407400277944L45.00234375,95.42163715069111L45.33203125,94.16933086688702L45.38697916666667,118.80269831730769L45.44192708333333,121.38440532977765L45.60677083333333,103.7142582820012L46.10130208333333,100.42411808894232L46.54088541666667,102.04007615309494L47.255208333333336,95.46835345928486L47.42005208333333,102.7712657752404L47.639843750000004,106.08203134390024L47.96953125,97.9835712139423L48.18932291666667,97.85781325120193L48.24427083333334,98.2402518404447L48.29921875,86.52717792217548L48.68385416666667,88.47977337176984L48.958593750000006,91.28812969501203L49.01354166666667,109.88992027869591L49.89270833333333,86.00068345289964L50.27734375,78.75852740948017L50.60703125,86.89178659292368L50.66197916666667,97.5524858210637L50.771875,80.6290350341797L51.1015625,93.20016385591947L51.59609375,99.50708280123196L51.705989583333334,97.47322688176081L51.760937500000004,77.69755741999698L51.92578125,85.01064035268931L52.255468750000006,88.27506568321814L52.75,88.12240196814905L52.914843749999996,95.30659719613882L52.969791666666666,87.1210475041316L53.46432291666667,87.4281341083233L53.51927083333333,101.6418091759315L54.123697916666664,96.33778658353366L54.28854166666667,87.57239055926983L54.34348958333333,93.23775418795074L54.45338541666667,88.07851036658654L54.56328125,97.12747187687799L55.33255208333333,88.28247844989484L55.60729166666667,98.21627525916466L55.7171875,88.61028653658353L55.882031250000004,96.51528348482572L56.321614583333336,96.01828547551081L56.65130208333333,97.03970538799578L56.76119791666667,103.35302170973557L56.92604166666666,96.75496154785156L56.98098958333333,92.89759009728064L57.14583333333333,95.74223304161657L57.25572916666666,97.45537607046275L57.53046875,107.11213012695313L57.58541666666667,104.85101064828726L58.07994791666667,99.95828378530649L58.18984375,107.7603920335036L58.40963541666667,110.79423602764423L58.46458333333334,80.2762934758113L58.739322916666666,93.6968401160607L58.95911458333333,115.49843458909255L59.0140625,96.9555073899489L59.28880208333334,97.63592332106369L59.39869791666667,86.95008169320914L59.45364583333333,79.08407489483173L59.56354166666667,96.78644700270432L59.673437500000006,89.56289391150841L59.72838541666667,96.68407226562499L60.003125,129.60427771935096L60.05807291666666,103.63773212139424L60.44270833333333,89.44507103553185L60.55260416666666,97.19092332106369L60.88229166666667,107.75989060621994L60.9921875,96.94579641488882L61.266927083333336,90.28941608135517L61.541666666666664,91.97368107722357L61.6515625,98.54693312424881L62.3109375,143.66385582557092L62.69557291666666,88.29864947979267L62.75052083333333,88.05903409517728L62.86041666666667,104.25961059570312L62.91536458333333,96.18109473595251L62.9703125,89.62743596003607L63.02526041666667,89.21633244441107L63.13515625000001,82.61907874474159L63.300000000000004,79.0480515230619L63.51979166666667,133.53109684870793L63.79453125,87.40460045447716L63.959374999999994,88.19806316669171L64.17916666666666,87.65694373497595L64.34401041666668,80.67532930814303L64.39895833333333,83.66490980881912L64.50885416666667,78.32032592773437L64.56380208333334,86.8892836350661L64.72864583333333,93.85347764235276L64.78359375000001,77.04441077599158L64.9484375,71.18941570575421L65.00338541666667,100.58953059269831L65.278125,78.54998798076923L65.33307291666668,86.41496685321515L65.71770833333333,79.05426922137922L65.88255208333332,78.65243793194111L66.10234374999999,87.58300410344052L66.2671875,87.25602755033053L66.37708333333333,118.08417809119592L66.48697916666667,107.56199397160455L66.70677083333334,88.54218435434194L66.9265625,78.93456599308895L67.09140624999999,140.72975407527042L67.14635416666667,89.02628314678486L67.20130208333333,103.67290724534256L67.25625000000001,130.55193349984978L67.5859375,87.6954241004357L67.915625,92.55208162747897L68.02552083333333,93.99124060997596L68.08046875,85.59171936035156L68.30026041666666,142.18219670222356L68.46510416666668,94.11071819598858L68.52005208333333,101.66248469426081L68.68489583333334,89.18942669208234L68.73984375,92.57199246920071L68.79479166666667,101.93908034104568L68.90468750000001,102.4160630446214L69.01458333333333,93.9132268817608L69.34427083333333,78.55259122408353L69.50911458333333,79.5339011324369L69.56406249999999,90.17833740234374L69.72890625,77.48879234900842L69.78385416666666,84.66717937762921L69.83880208333333,94.61273883526141L69.94869791666667,79.59338712252104L70.00364583333332,76.7429568716196L70.33333333333333,95.4546603158804L70.553125,61.727593595064604L70.60807291666667,78.62743342472956L70.71796875,70.22083787184495L70.82786458333334,95.50332801231971L70.93776041666668,53.16128091665415L70.99270833333333,69.7455098783053L71.04765625,85.43240337665264L71.10260416666667,95.53848224346454L71.15755208333334,94.41307884803186L71.32239583333333,82.98747319148136L71.5421875,76.8992601130559L71.70703125,107.42368361253006L71.81692708333334,69.98321566068209L71.871875,84.26513080303485L71.92682291666667,92.74528155987079L72.25651041666667,99.61811551607572L72.31145833333333,79.80324279785157L72.42135416666666,92.13267949030949L72.58619791666668,70.32495506873498L72.80598958333333,86.06511685884915L72.97083333333333,100.99815204326923L73.13567708333332,99.47504995492788L73.190625,78.7392141019381L73.30052083333334,101.79239614633413L73.41041666666666,90.03742797851562L73.5203125,78.08095289963943L73.79505208333333,91.86136554424579L73.95989583333333,86.0118903526893L75.11380208333333,84.83915222167968L75.22369791666667,80.90954181377704L75.27864583333334,86.03445458045373L75.49843750000001,92.83481557992788L75.60833333333333,98.3502232008714L75.828125,80.52830247145432L75.93802083333334,79.51559903658352L76.04791666666668,86.00013188288763L76.21276041666667,96.60321293757514L76.32265625,91.00412963867188L76.37760416666667,93.57059326171876L76.70729166666666,100.97054011418268L76.92708333333333,79.606052339994L77.31171875,87.58753366323617L77.36666666666666,88.98576364370493L77.42161458333334,101.40232750525843L77.4765625,99.83706373948318L77.75130208333334,80.70586622971756L77.86119791666667,99.55497746394232L78.02604166666666,100.35525540865385L78.08098958333333,104.17014761117788L78.1359375,98.56124887319712L78.19088541666667,93.04331740159253L78.63046875,109.62132239708532L78.68541666666667,94.74029357910156L78.85026041666667,88.88009202223557L79.23489583333333,89.15235450157752L79.39973958333334,109.01379310021034L79.83932291666667,95.69115013709435L79.89427083333334,140.91145460862379L80.00416666666666,95.82042644794171L80.05911458333333,96.67771249624398L80.1140625,97.42701200045072L80.27890624999999,97.13914677546573L80.33385416666667,143.6666387469952L80.55364583333333,138.5661705603966L80.82838541666666,95.18823946439304L80.88333333333334,101.8176430100661L81.103125,94.72508779672476L81.15807291666667,91.26109858586237L81.21302083333333,122.23210158128003L81.26796875,87.68283827561599L81.4328125,94.62960768479569L81.48776041666666,142.44529559795674L81.54270833333334,95.51405855618991L81.70755208333333,136.19421058067908L81.7625,96.34148043118991L82.20208333333333,140.82952974759615L82.421875,138.39994741586537L82.53177083333334,102.63212806114782L82.64166666666667,135.70564490685095L82.69661458333333,89.85022010216346L82.86145833333335,93.30699293870191L83.08125000000001,141.96289747971755L83.13619791666666,101.87726271409255L83.19114583333334,96.40134249173678L83.35598958333333,103.32745727539063L83.79557291666667,133.341540621244L83.90546875,79.10210538423978L84.12526041666666,140.87468327448917L84.18020833333333,102.12609600360577L84.34505208333333,103.53501474233774L84.45494791666667,79.5741448505108L84.56484375000001,92.06498262845552L84.83958333333332,72.40975182166467L85.44401041666667,96.72397752028245L85.55390625,78.29423081618089L85.88359375,94.6363853102464L85.93854166666667,138.1632319523738L86.04843749999999,44.37800796508789L86.15833333333333,100.6052085524339L86.378125,93.74962369478665L86.59791666666666,81.8999735201322L86.7078125,135.66709350585936L86.98255208333335,88.41431621844953L87.0375,134.36441049429087L87.09244791666667,134.91262094350964L87.47708333333334,99.09345543494592L87.53203124999999,134.8727992600661L87.86171875,88.70831974909856L88.08151041666666,88.21319791353666L88.13645833333334,88.10997910719651L88.19140625,134.57408231295074L88.68593750000001,89.10636526254508L88.79583333333333,78.99775836651142L88.96067708333332,88.75306795560397L89.29036458333333,81.51712125338041L89.3453125,81.0515627347506L89.72994791666666,71.3148853478065L89.83984375,88.38333219088041L90.60911458333334,130.11262469951924L90.77395833333334,71.1811839411809L90.93880208333333,62.702621037409855L90.99374999999999,130.84185875525841L91.04869791666667,79.07361177884616L91.21354166666666,132.2278789813702L91.26848958333333,63.12145489032451L91.3234375,70.98218834510217L92.3125,63.86883643517128L92.47734375,71.57935063288761L92.58723958333334,61.95984217717098L92.971875,70.78600909893329L93.02682291666667,45.3538700749324L93.13671875,61.75534550593449L93.24661458333334,70.05135127140925L93.35651041666667,72.3668129319411L93.46640625,45.10372053879957L93.74114583333333,63.274615854116576L93.85104166666666,61.613253549429096L93.9609375,35.639770496074966L94.18072916666667,36.01896338829628L94.73020833333334,36.19096234835111L94.95,37.297437908466044L95.16979166666667,70.50848581167368L95.22473958333333,27.658110784200527L95.27968750000001,35.65575871394231L95.38958333333333,36.256418457031245L95.55442708333332,60.81315319354718L95.71927083333334,28.404098795377298L95.82916666666667,36.83540922898512L95.99401041666667,51.01827472393329L96.32369791666666,36.8455234351525L96.43359375,36.291895481989926L96.54348958333333,51.54471905048076L96.5984375,35.85970068124623L96.76328124999999,97.81713914137619L96.81822916666667,27.761843373958875L96.87317708333333,44.664421140230615L97.03802083333333,105.91117835411657L97.47760416666667,126.62554894080529L97.75234375,130.870532038762L97.86223958333333,43.91140271700346L98.19192708333334,130.79417302058295L98.41171875,105.35103393554687L98.46666666666665,81.3631412916917L98.52161458333333,27.681544234202466L98.5765625,35.518204152033874L98.90625,27.526613682600157L99.07109375,42.30926837627705L99.45572916666666,51.36484872671274L99.565625,49.88835430438702L99.73046875,42.603076559213484L99.78541666666666,35.90374166635367L99.95026041666667,68.55921649639423L100.27994791666667,35.52343623234676L100.38984375000001,61.22746375450722L100.5546875,35.1707056427002L100.71953125,69.00566645695612L100.77447916666667,61.327423283503606L100.82942708333334,35.47486203120305L100.88437499999999,35.61627497159517L100.93932291666667,52.8688046499399L101.26901041666667,61.167344712477465L101.92838541666666,35.44159859877365L102.25807291666666,77.02381882887622L102.5328125,27.433220300628587L102.75260416666667,36.231185173621554L103.13723958333333,44.17160378089317L103.24713541666667,35.717340774536126L103.52187500000001,43.5977996474046L103.57682291666666,27.613651485993316L103.74166666666667,43.566448951134305L103.79661458333334,36.1193277153602L103.90651041666666,43.80832702636718L103.96145833333334,35.5138735961914L104.12630208333333,43.719291299673216L105.06041666666667,35.48803546612079L105.11536458333333,35.7197141970121L105.17031250000001,35.72562215951773L105.44505208333334,35.96566427964431L105.60989583333333,35.19943272517278L105.82968749999999,35.39218137300931L105.88463541666667,35.94368922893817L105.93958333333333,76.19983173076923L106.159375,35.874883481539214L106.21432291666667,44.41901427048904L106.26927083333332,35.443003117487976L106.37916666666666,35.427164283165574L106.59895833333333,35.82929225041317L106.70885416666667,35.39674331665039L107.42317708333334,44.41332933866062L107.47812499999999,43.794122009277345L107.97265625,35.70544023367074L108.02760416666666,35.526293323223406L108.63203125000001,35.93830724276029L109.07161458333333,36.053242733295136L109.1265625,35.90910432668832L109.29140625,43.44630592933067L109.40130208333332,95.85899456317608L109.45625,44.37144344623271L109.89583333333333,79.01239168607272L109.95078124999999,27.81666279315948L110.00572916666667,27.76067445424887L110.22552083333333,35.789151429396405L110.33541666666667,81.78734041654147L110.4453125,36.1925428889348L110.88489583333333,27.88566019938542L111.15963541666666,44.33038177490235L111.21458333333334,35.9907278090257L111.37942708333333,36.10725219726562L111.76406250000001,36.08216777508075L111.87395833333333,42.590463573749254L112.4234375,42.94066352257362L112.69817708333333,36.23755956796499L112.753125,43.38185580913837L112.86302083333332,36.00061846219575L112.91796875,35.397268770658066L113.24765625,44.148467090313254L113.63229166666666,27.681763086318966L113.68723958333334,44.01894215510442L114.18177083333333,44.66609360914965L114.4015625,43.08441436767578L114.51145833333332,43.9404844548152L114.73125,42.98226631751427L115.22578125000001,36.25199231661283L115.33567708333334,35.76113783616285L115.50052083333333,27.98410597947928L115.61041666666667,43.24156063373271L115.66536458333334,36.02866548391489L115.94010416666667,44.496809668907744L116.3796875,43.8596303499662L116.48958333333333,27.977720094093915L116.87421875,36.03676248990572L116.92916666666667,35.916626780583314L117.14895833333334,36.08380577087402L117.42369791666667,44.44903200589694L117.58854166666667,36.64781483576848L117.6984375,28.414301143059365L117.86328125,36.98564102172851L118.028125,36.332326190655046L118.24791666666667,44.56412941565881L118.6875,36.13637467604418L119.12708333333335,28.28096353237446L119.23697916666667,36.43929421058068L119.34687500000001,36.526685673640316L119.51171875,28.040545864105226L119.56666666666668,36.308255591759306L119.89635416666667,36.62320102398212L119.95130208333333,36.43859430166391L120.39088541666666,80.19098815917968L120.55572916666667,36.51497107872597L120.61067708333333,44.23108977097731L120.66562499999999,36.7699364060622L120.72057291666667,44.051576714148894L120.83046875000001,53.710575702373795L120.9953125,36.39939940232497L121.37994791666667,50.803116455078126L121.43489583333333,95.54416926457333L121.70963541666667,52.02854832575871L121.81953125,36.620553905780504L121.87447916666666,36.32666841947116L121.92942708333334,44.35228056687576L122.42395833333333,44.71713577270508L122.64375,70.42373206505408L122.75364583333334,44.08699314997747L122.80859375,37.38754543597882L122.91848958333334,36.74379950890175L123.19322916666667,61.154010925292965L123.24817708333335,53.04153172419621L123.35807291666667,36.66526450523964L123.41302083333333,78.40772052471453L123.46796875000001,37.07789006159856L123.6328125,45.37497807429387L123.74270833333334,61.439024282602155L123.85260416666668,44.822677858792815L124.34713541666667,52.70018510084886L124.51197916666666,37.418834498478816L125.00651041666666,52.27422889122597L125.33619791666668,36.99619919996996L125.39114583333333,73.51378187913161L125.72083333333335,86.51671898475061L125.77578125000001,37.13021922184871L125.83072916666666,44.13207668597882L126.27031250000002,70.72089876615084L126.60000000000001,36.46230241041918L126.65494791666667,44.780026245117185L127.09453125,44.639456329345705L127.14947916666668,29.034046331552354L127.31432291666665,36.61260419405423L127.69895833333334,90.99471534142127L127.80885416666665,36.349884502704334L128.02864583333334,36.685155498798075L128.578125,36.98362904475285L128.63307291666666,28.687058128943818L128.79791666666665,101.3880201134315L129.07265625,98.47965829702524L129.29244791666665,85.3086135160006L129.51223958333333,36.75383641169622L130.00677083333335,70.389091796875L130.11666666666667,95.77998215895434L130.17161458333334,95.57397075946514L130.50130208333334,97.36567490797775L130.55625,98.14772179236779L130.61119791666667,97.32932978703427L130.72109375,81.82936002291166L130.83098958333332,96.18178001990685L131.49036458333333,104.28721416766828L131.98489583333333,107.19044471153845L132.20468749999998,105.77952026367188L132.47942708333335,118.40776583158053L132.534375,115.28692420372596L132.80911458333333,81.68240004319412L132.8640625,84.87184110201322L132.91901041666668,86.33386099008413L133.13880208333333,88.34288790189304L133.19375,83.79585336538462L133.5234375,77.71964947040264L133.74322916666665,102.72766667292669L133.79817708333334,102.60066349909857L133.853125,102.95089374248798L133.96302083333333,106.27225614107572L134.29270833333334,84.00857553335337L134.45755208333333,97.31124915489784L134.56744791666668,93.05210491473858L134.73229166666667,69.37637582632212L134.89713541666666,81.44907757098858L135.06197916666667,81.52916386530949L135.171875,88.69501521183894L135.55651041666667,96.39624046912562L135.66640625,92.79027630145734L136.32578125,70.4354487492488L136.38072916666667,79.14841219388522L136.43567708333333,80.13028620793268L137.20494791666667,87.40470491849459L137.42473958333335,68.6064885535607L137.64453125,68.37489600548378L137.69947916666666,60.812578641451324L137.86432291666668,85.33795954777644L137.91927083333334,68.1877173790565L138.08411458333333,64.27031254695011L138.19401041666666,80.19916560246394L138.30390625,44.30308741642879L138.57864583333333,53.194045011080235L138.74348958333334,57.13440267709585L138.85338541666667,65.26146296574518L139.01822916666666,70.96786006047176L139.18307291666667,36.48772581834061L139.34791666666666,36.54115916325495L139.4578125,35.69721525925856L139.62265625,57.9290834397536L139.7875,58.26608853853665L139.84244791666669,36.32409233680138L140.00729166666665,36.00511616046611L140.17213541666666,43.533306696965134L140.66666666666666,42.86896568885217L140.7765625,61.01392885648288L141.05130208333333,62.13888514592097L141.32604166666667,61.45917748084436L141.38098958333336,78.33684377817008L141.4359375,28.127686221782973L141.54583333333332,35.84832350510818L141.60078125,36.334210721529445L141.71067708333334,44.15186112623949L141.82057291666666,53.22212702824519L141.98541666666665,43.46321969839242L142.04036458333331,69.75254657451923L142.26015625,61.419318190354566L142.53489583333334,60.356160724346466L142.64479166666666,61.02767423189603L143.02942708333333,70.13231506347657L143.13932291666666,129.66006986177885L143.19427083333335,44.549198373647826L143.3591145833333,44.12638444166916L143.46901041666666,52.659964364858766L143.68880208333334,78.22467031625601L143.85364583333333,69.75221646822416L143.96354166666666,69.592503521259L144.0734375,130.09739802433893L144.12838541666667,130.9941087928185L144.403125,131.33198721078725L144.62291666666667,131.76283860426682L144.67786458333333,53.285797846867496L144.73281250000002,129.8780068734976L144.95260416666667,62.59454674353966L145.00755208333334,130.2649248798077L145.11744791666666,61.36407970721904L145.17239583333335,60.28326364370493L145.28229166666668,60.12030186579778L145.33723958333331,35.7297171490009L145.3921875,35.97599107008714L145.50208333333333,131.84669396033655L145.55703125,52.966323899489176L145.66692708333335,60.35980651855469L145.94166666666666,42.64944186870868L145.99661458333333,43.898813758263216L146.32630208333333,52.56999995304988L146.38125,131.85214280348558L146.43619791666666,35.3745875431941L146.65598958333334,27.522615322333117L146.76588541666666,35.61160543001614L146.87578125,43.27402073786809L147.09557291666667,35.595960376446065L147.64505208333335,35.58793440598708L147.75494791666665,48.11933138333835L147.86484375,131.63259286733776L147.91979166666667,43.712430103008565L148.13958333333335,43.722699960561904L148.24947916666665,35.50397301893968L148.30442708333334,43.57970961350662L148.359375,27.53584756722817L148.52421875000002,44.454030609130854L148.74401041666667,53.71813889723558L148.96380208333335,43.65225987361027L149.12864583333334,105.06621488131012L149.678125,44.11151398878831L149.73307291666666,51.55098062368539L149.95286458333334,35.729754756047164L150.06276041666666,61.99835806039664L150.22760416666665,35.40258442218487L150.3375,35.42629357558031L150.39244791666667,35.51514178936299L150.50234375,35.893827508779665L150.55729166666669,43.9202508192796L150.61223958333335,57.79752145620493L150.66718749999998,50.49994516225963L150.77708333333334,43.98336588932917L150.88697916666666,44.9019775390625L150.94192708333333,61.65841334416316L151.16171874999998,35.60006633465106L151.21666666666667,36.006307050264795L151.3265625,36.03936834482046L151.49140625,51.85571678748497L151.76614583333333,45.72670215313251L152.42552083333334,44.10399466881386L152.6453125,36.1006088080773L152.81015625,44.19535471989558L153.08489583333332,36.04381381108211L153.19479166666665,44.649976900540864L153.35963541666666,54.17509375939003L153.68932291666667,44.103888115516085L153.74427083333333,43.719157585730926L153.85416666666666,36.20447685828575L154.01901041666667,36.19399493877704L154.18385416666666,35.788143351628236L154.23880208333333,27.408720913666947L154.29375,52.23238896296575L154.78828125,53.11533764178937L154.84322916666667,44.20103129460262L154.89817708333334,35.58812923137958L154.953125,35.84464950561524L155.06302083333333,70.68122333233173L155.17291666666665,27.811347761887763L155.33776041666667,35.8542241551326L155.72239583333334,87.51277921236478L155.77734375,43.689506519024185L155.83229166666666,106.46454514723557L155.88723958333335,36.06890084486742L156.32682291666666,61.09247952974759L156.82135416666668,35.87721981928899L157.09609375,104.05904803936298L157.53567708333333,95.70317603478067L157.590625,97.07194716233475L157.75546875,35.688462219238275L157.97526041666666,52.806771827110886L158.35989583333335,43.65473776010367L158.52473958333331,44.39922669630784L158.68958333333333,116.29078998272234L158.74453125,70.89517399714542L158.79947916666669,79.09087759164663L158.909375,87.00802997295673L159.34895833333334,76.74922053410458L159.45885416666667,51.711957585261416L159.56875,44.77495138315054L159.67864583333335,49.972677659254806L160.228125,44.27540967501126L160.66770833333334,35.646577893770655L160.72265625,69.61091425969052L160.77760416666666,35.62322130643405L160.99739583333331,43.576912067119885L161.32708333333335,61.13326437143179L161.76666666666668,44.41251243004432L162.09635416666666,43.97310334425706L162.15130208333335,35.73295187730056L162.20625,52.981675931490386L162.26119791666667,43.94833805964543L162.37109375,52.82302016038161L162.48098958333333,44.26644039447491L162.64583333333334,35.65378852257363L163.08541666666667,68.64694955679086L163.47005208333334,27.923352318543657L163.68984375,60.38428034855769L163.79973958333332,56.50801135723407L164.01953125,36.190277064396774L164.07447916666666,52.966651916503906L164.18437500000002,54.0384005033053L164.45911458333333,49.94771075908955L164.62395833333335,61.89063058706431L164.73385416666667,52.966098257211534L164.89869791666666,60.993313927283644L164.95364583333333,61.13259162315956L165.00859375,61.51557969313402L165.55807291666667,61.59921149620642L165.61302083333334,61.5551506629357L165.7229166666667,61.74193232609675L165.77786458333333,72.78667888934795L165.8328125,61.93445533165564L165.88776041666665,61.95383549616887L166.10755208333333,70.49296245868389L166.21744791666669,68.57323556753305L166.38229166666667,61.06885603684645L166.4921875,62.474337909405044L166.60208333333335,62.63988830566406L166.71197916666665,61.3546633206881L167.20651041666665,70.70460655799279L167.42630208333333,45.04214526836688L167.53619791666668,61.49255373441257L167.64609375,78.53216641939603L167.75598958333333,69.6803117957482L167.92083333333332,61.352304523174574L168.08567708333334,55.74125382643479L168.41536458333334,61.66311840350812L168.4703125,53.226240821251494L168.69010416666666,35.670292270366964L168.85494791666667,36.35527797992412L169.01979166666666,35.89481469374437L169.12968750000002,35.61878733121432L169.40442708333333,53.541728421724756L169.62421875,35.99144861074595L169.7890625,36.21188858032227L169.84401041666666,36.03682673527644L169.89895833333333,35.85820214491624L169.95390625000002,43.610037607046266L170.11874999999998,44.27326607337364L170.33854166666666,44.30710614717925L170.66822916666666,35.79780784020056L170.72317708333333,52.19331733116737L170.88802083333334,36.41283451960637L171.16276041666666,56.999351595365084L171.32760416666667,27.690541622088507L171.38255208333334,27.896288629678573L171.49244791666666,36.03723571190468L171.60234375,36.38397946871245L171.71223958333331,36.483349820650545L171.7671875,36.47997563288762L171.93203125,36.03559197059044L171.98697916666669,44.53801132202149L172.09687499999998,36.18762367835411L172.26171875,43.843279641958375L172.31666666666666,36.11200426541841L172.42656250000002,36.36300413865309L172.75625,43.85359546367938L172.92109375,50.83750392033503L173.0859375,43.92136545034555L173.14088541666666,44.39522990300106L173.36067708333334,35.97814511812651L173.69036458333332,35.73158705491286L174.4046875,36.039026225163376L174.62447916666667,43.206851419302126L174.734375,28.044051741820123L175.00911458333331,43.4887016061636L175.17395833333333,36.05336077763484L175.28385416666666,36.0108716055063L175.5036458333333,35.53752320509691L175.77838541666668,35.837758536705614L175.99817708333333,44.04782750056341L176.21796875,35.68977272033692L176.3828125,27.63381230684428L177.20703125,35.90770659813514L177.75651041666669,35.662743700467615L177.81145833333335,44.848896237886876L177.86640625,35.67899516765889L178.03125,36.087706457284774L178.08619791666666,35.97908633892352L178.3609375,36.308716278076176L178.690625,36.068213993952824L178.74557291666667,27.729973067136918L178.80052083333334,27.69402324456434L178.85546875,27.58440970604237L178.91041666666666,51.90922952505258L178.96536458333333,35.79546732389011L179.0203125,35.7154296053373L179.45989583333332,35.442838586660535L180.72369791666668,42.954358755258404L180.77864583333334,52.21865403395433L180.83359374999998,43.79729876004732L181.21822916666667,43.11661122248723L181.82265625,35.94870089017427L181.87760416666666,35.882638367872964L181.93255208333332,35.678785717303924L182.15234375,43.98609135554387L182.59192708333333,56.622464224008404L182.646875,35.72636333172137L182.81171874999998,27.5427744456438L182.92161458333334,35.754419232881986L182.9765625,35.82251096872183L183.08645833333333,36.02202366168683L183.85572916666666,27.69749667314383L184.02057291666668,27.520324793687234L184.13046875,43.350185452974756L184.40520833333332,50.66555405836839L184.57005208333334,35.35742985065167L184.73489583333333,35.329635109534635L185.22942708333332,35.74145263671875L185.28437499999998,43.329247729961686L185.61406250000002,27.562419638633727L185.72395833333331,35.916934427114626L185.77890624999998,52.40583474966196L186.10859375,35.48674533550556L186.2734375,35.948319596510665L186.32838541666666,35.881861677903395L186.603125,35.552046837439896L186.71302083333333,35.82270892803486L186.82291666666666,50.72883209228516L186.98776041666667,35.53213808499851L187.04270833333334,43.6864676607572L187.48229166666667,43.649873915452226L187.75703124999998,35.70302293630746L187.86692708333334,35.6968564253587L187.921875,35.43192627540001L187.97682291666666,27.557729857151323L188.19661458333331,42.976142636812654L188.58125,43.99684383685772L188.80104166666666,35.75867039607122L188.96588541666668,35.56274551978478L189.02083333333334,35.726266702505264L189.13072916666667,51.2220025400015L189.5703125,27.61167306808325L189.84505208333334,35.483265116764954L190.50442708333335,35.83234364436223L190.77916666666667,27.60667389356173L190.8890625,27.589709279904003L190.94401041666669,51.270941842886124L191.10885416666665,35.83654309786284L191.65833333333333,43.37541769174429L191.98802083333334,35.75949357252855L192.2078125,43.56375691340519L192.48255208333336,35.605303638164806L192.59244791666666,51.28508209228515L192.70234375,44.341831031212436L192.81223958333334,44.737503122182986L192.92213541666666,52.96272615872897L193.08697916666665,35.72233206528883L193.14192708333331,35.92206569965068L193.196875,27.57248877837107L193.36171875,35.6491999406081L193.41666666666669,35.50091483482948L193.47161458333335,35.55721362774189L193.69140625,27.594183588027963L193.80130208333333,47.27789252647986L193.96614583333334,43.76523875309871L194.02109374999998,68.19327486478366L194.13098958333333,53.11329641488882L194.1859375,52.82187732403095L194.40572916666667,43.9134314082219L194.515625,35.64924329317534L194.57057291666666,35.74977528498723L194.62552083333333,51.71942467322716L194.8453125,44.75459970327523L194.95520833333333,44.22250282874475L195.06510416666666,59.17473118708684L195.22994791666667,36.062444446270284L195.72447916666667,36.01754267765926L195.88932291666669,35.81349729097807L195.99921874999998,51.2903115609976L196.10911458333334,27.620889846728407L196.21901041666666,43.38609391432542L196.32890625000002,27.6406727363513L196.8234375,43.370703230637766L197.04322916666666,61.485097092848555L197.153125,53.47729083721454L197.31796875,61.09093346228966L197.75755208333334,79.16484647310696L197.97734375,36.079696678748505L198.19713541666667,27.701693417108967L198.52682291666667,35.81484644376314L198.69166666666666,36.01435809208797L198.91145833333331,50.046842933067914L199.02135416666667,35.98810941842886L199.24114583333335,35.63788335360013L199.29609375,36.264790203387925L199.68072916666668,35.94981186499963L199.84557291666667,35.68943060067984L199.90052083333333,43.988356135441705L200.17526041666667,35.58522774329553L200.23020833333334,51.91247417743389L200.28515625,43.717400500957794L200.39505208333333,43.500985529972965L200.55989583333334,36.252243030254654L200.83463541666666,36.11750586289626L200.99947916666667,35.80108801034781L201.05442708333334,44.314816636305586L201.16432291666666,35.745763344397915L201.49401041666667,44.403208864652186L202.04348958333333,95.70966116098258L202.428125,93.14780649038461L202.59296875,61.59955831674429L202.64791666666667,45.88002608079176L203.03255208333334,36.16301822368915L203.0875,36.397258934607876L203.14244791666667,35.73739420964167L203.19739583333336,88.61159860464242L203.47213541666667,28.01772530775803L203.63697916666666,35.94148921673114L204.24140624999998,44.19187293419471L204.90078125,36.31918984046349L204.95572916666666,52.689538128192616L205.01067708333335,61.43947556715745L205.12057291666667,36.10330920292781L205.23046875,56.32106881948617L205.50520833333334,44.52106307983398L205.67005208333333,36.22873653705304L205.725,44.23384553175706L205.83489583333332,55.480850102351255L205.88984375,54.20762176513672L206.27447916666665,28.1162982075031L206.384375,28.126337068997902L206.49427083333333,43.67658223078801L206.93385416666666,53.445865971491884L206.98880208333335,60.49774289644681L207.26354166666667,52.938007882925184L207.31848958333333,36.578662790151746L207.6481770833333,36.72820303109977L207.75807291666666,28.211568477337174L207.86796875,44.3474898470365L207.97786458333334,36.33110396165115L208.19765625,43.71557133601262L208.3625,44.351755112868084L208.58229166666666,44.31249649047851L208.91197916666667,28.23748110331022L209.07682291666666,44.03914549607497L209.13177083333332,113.51645132211539L209.18671874999998,36.50006615271935L209.51640625000002,124.32312856820913L209.90104166666669,45.08534113957332L209.95598958333335,36.149971712552585L210.17578125,53.468348717322726L210.28567708333333,69.93550485464243L210.34062500000002,130.18456280048076L210.39557291666668,130.00220205453726L210.61536458333333,61.91701193002554L210.89010416666667,28.806668514838588L211.27473958333334,53.960447364220244L211.49453125,44.94241764948918L211.71432291666667,36.692170257568364L211.76927083333334,36.583556929368235L211.93411458333335,45.43587432861328L212.15390625,45.26619133582483L212.26380208333333,130.0302318396935L212.59348958333334,88.16543278620794L212.75833333333333,61.810625774676986L212.86822916666668,130.88119572566106L212.97812499999998,37.162974959153395L213.08802083333333,70.51970942570614L213.25286458333335,37.11457991379958L213.36276041666667,36.92772094726563L213.52760416666666,85.78282583383414L213.58255208333333,131.48354360727166L213.74739583333334,36.64533485999474L213.85729166666667,46.0488691828801L214.18697916666667,62.29506511981671L214.46171875,45.70079089824969L214.51666666666665,45.71921208308293L214.73645833333333,131.13430786132812L215.06614583333334,46.424072594275835L215.12109375,61.87638378436749L215.56067708333333,133.22211735652044L215.615625,70.83228248009314L215.72552083333335,54.17749852107121L215.8903645833333,45.83230273907002L215.9453125,134.2633896108774L216.11015625,53.95707944429837L216.38489583333333,132.74222637469953" style="fill: none;" fill="none"></path></g></g></g></g></g></g><g transform="translate(82, 178)" clip-path="url(#clip_1)"><clipPath id="clip_1"><rect width="247" height="22"></rect></clipPath><g><g><line x1="0" y1="0" x2="0" y2="5" style="visibility: inherit;" fill="rgb(0, 0, 0)" stroke="rgb(204, 204, 204)" stroke-width="1px"></line><line x1="27.473958333333332" y1="0" x2="27.473958333333332" y2="5" style="visibility: inherit;" fill="rgb(0, 0, 0)" stroke="rgb(204, 204, 204)" stroke-width="1px"></line><line x1="54.947916666666664" y1="0" x2="54.947916666666664" y2="5" style="visibility: inherit;" fill="rgb(0, 0, 0)" stroke="rgb(204, 204, 204)" stroke-width="1px"></line><line x1="82.421875" y1="0" x2="82.421875" y2="5" style="visibility: inherit;" fill="rgb(0, 0, 0)" stroke="rgb(204, 204, 204)" stroke-width="1px"></line><line x1="109.89583333333333" y1="0" x2="109.89583333333333" y2="5" style="visibility: inherit;" fill="rgb(0, 0, 0)" stroke="rgb(204, 204, 204)" stroke-width="1px"></line><line x1="137.36979166666669" y1="0" x2="137.36979166666669" y2="5" style="visibility: inherit;" fill="rgb(0, 0, 0)" stroke="rgb(204, 204, 204)" stroke-width="1px"></line><line x1="164.84375" y1="0" x2="164.84375" y2="5" style="visibility: inherit;" fill="rgb(0, 0, 0)" stroke="rgb(204, 204, 204)" stroke-width="1px"></line><line x1="192.31770833333334" y1="0" x2="192.31770833333334" y2="5" style="visibility: inherit;" fill="rgb(0, 0, 0)" stroke="rgb(204, 204, 204)" stroke-width="1px"></line><line x1="219.79166666666666" y1="0" x2="219.79166666666666" y2="5" style="visibility: inherit;" fill="rgb(0, 0, 0)" stroke="rgb(204, 204, 204)" stroke-width="1px"></line><line x1="247.265625" y1="0" x2="247.265625" y2="5" style="visibility: inherit;" fill="rgb(0, 0, 0)" stroke="rgb(204, 204, 204)" stroke-width="1px"></line></g><g transform="translate(0, 8)"><text x="0" y="0" dx="0em" dy="0.95em" style="text-anchor: middle; visibility: hidden; font-family: Roboto, sans-serif; font-size: 12px; font-weight: 200;" fill="rgb(50, 49, 63)" stroke="none" stroke-width="1px">-500</text><text x="27.473958333333332" y="0" dx="0em" dy="0.95em" style="text-anchor: middle; visibility: inherit; font-family: Roboto, sans-serif; font-size: 12px; font-weight: 200;" fill="rgb(50, 49, 63)" stroke="none" stroke-width="1px">0</text><text x="54.947916666666664" y="0" dx="0em" dy="0.95em" style="text-anchor: middle; visibility: inherit; font-family: Roboto, sans-serif; font-size: 12px; font-weight: 200;" fill="rgb(50, 49, 63)" stroke="none" stroke-width="1px">500</text><text x="82.421875" y="0" dx="0em" dy="0.95em" style="text-anchor: middle; visibility: inherit; font-family: Roboto, sans-serif; font-size: 12px; font-weight: 200;" fill="rgb(50, 49, 63)" stroke="none" stroke-width="1px">1k</text><text x="109.89583333333333" y="0" dx="0em" dy="0.95em" style="text-anchor: middle; visibility: inherit; font-family: Roboto, sans-serif; font-size: 12px; font-weight: 200;" fill="rgb(50, 49, 63)" stroke="none" stroke-width="1px">1.5k</text><text x="137.36979166666669" y="0" dx="0em" dy="0.95em" style="text-anchor: middle; visibility: inherit; font-family: Roboto, sans-serif; font-size: 12px; font-weight: 200;" fill="rgb(50, 49, 63)" stroke="none" stroke-width="1px">2k</text><text x="164.84375" y="0" dx="0em" dy="0.95em" style="text-anchor: middle; visibility: inherit; font-family: Roboto, sans-serif; font-size: 12px; font-weight: 200;" fill="rgb(50, 49, 63)" stroke="none" stroke-width="1px">2.5k</text><text x="192.31770833333334" y="0" dx="0em" dy="0.95em" style="text-anchor: middle; visibility: inherit; font-family: Roboto, sans-serif; font-size: 12px; font-weight: 200;" fill="rgb(50, 49, 63)" stroke="none" stroke-width="1px">3k</text><text x="219.79166666666666" y="0" dx="0em" dy="0.95em" style="text-anchor: middle; visibility: inherit; font-family: Roboto, sans-serif; font-size: 12px; font-weight: 200;" fill="rgb(50, 49, 63)" stroke="none" stroke-width="1px">3.5k</text><text x="247.265625" y="0" dx="0em" dy="0.95em" style="text-anchor: middle; visibility: hidden; font-family: Roboto, sans-serif; font-size: 12px; font-weight: 200;" fill="rgb(50, 49, 63)" stroke="none" stroke-width="1px">4k</text></g><line x1="0" y1="0" x2="247.265625" y2="0" fill="rgb(0, 0, 0)" stroke="rgb(204, 204, 204)" stroke-width="1px"></line></g></g></g></g></svg>