<svg viewBox="0 0 330 200" xmlns="http://www.w3.org/2000/svg"><g><g><g><g><g><line x1="82.734375" y1="178" x2="77.734375" y2="178" style="visibility: inherit;" fill="rgb(0, 0, 0)" stroke="rgb(204, 204, 204)" stroke-width="1px"></line><line x1="82.734375" y1="160.20000000000002" x2="77.734375" y2="160.20000000000002" style="visibility: inherit;" fill="rgb(0, 0, 0)" stroke="rgb(204, 204, 204)" stroke-width="1px"></line><line x1="82.734375" y1="142.4" x2="77.734375" y2="142.4" style="visibility: inherit;" fill="rgb(0, 0, 0)" stroke="rgb(204, 204, 204)" stroke-width="1px"></line><line x1="82.734375" y1="124.6" x2="77.734375" y2="124.6" style="visibility: inherit;" fill="rgb(0, 0, 0)" stroke="rgb(204, 204, 204)" stroke-width="1px"></line><line x1="82.734375" y1="106.8" x2="77.734375" y2="106.8" style="visibility: inherit;" fill="rgb(0, 0, 0)" stroke="rgb(204, 204, 204)" stroke-width="1px"></line><line x1="82.734375" y1="89" x2="77.734375" y2="89" style="visibility: inherit;" fill="rgb(0, 0, 0)" stroke="rgb(204, 204, 204)" stroke-width="1px"></line><line x1="82.734375" y1="71.2" x2="77.734375" y2="71.2" style="visibility: inherit;" fill="rgb(0, 0, 0)" stroke="rgb(204, 204, 204)" stroke-width="1px"></line><line x1="82.734375" y1="53.400000000000006" x2="77.734375" y2="53.400000000000006" style="visibility: inherit;" fill="rgb(0, 0, 0)" stroke="rgb(204, 204, 204)" stroke-width="1px"></line><line x1="82.734375" y1="35.599999999999994" x2="77.734375" y2="35.599999999999994" style="visibility: inherit;" fill="rgb(0, 0, 0)" stroke="rgb(204, 204, 204)" stroke-width="1px"></line><line x1="82.734375" y1="17.799999999999997" x2="77.734375" y2="17.799999999999997" style="visibility: inherit;" fill="rgb(0, 0, 0)" stroke="rgb(204, 204, 204)" stroke-width="1px"></line><line x1="82.734375" y1="0" x2="77.734375" y2="0" style="visibility: inherit;" fill="rgb(0, 0, 0)" stroke="rgb(204, 204, 204)" stroke-width="1px"></line></g><g transform="translate(72.734375, 0)"><text x="0" y="178" dx="0em" dy="0.3em" style="text-anchor: end; visibility: hidden; font-family: Roboto, sans-serif; font-size: 12px; font-weight: 200;" fill="rgb(50, 49, 63)" stroke="none" stroke-width="1px">-1.6e+3</text><text x="0" y="160.20000000000002" dx="0em" dy="0.3em" style="text-anchor: end; visibility: inherit; font-family: Roboto, sans-serif; font-size: 12px; font-weight: 200;" fill="rgb(50, 49, 63)" stroke="none" stroke-width="1px">-1.4e+3</text><text x="0" y="142.4" dx="0em" dy="0.3em" style="text-anchor: end; visibility: hidden; font-family: Roboto, sans-serif; font-size: 12px; font-weight: 200;" fill="rgb(50, 49, 63)" stroke="none" stroke-width="1px">-1.2e+3</text><text x="0" y="124.6" dx="0em" dy="0.3em" style="text-anchor: end; visibility: inherit; font-family: Roboto, sans-serif; font-size: 12px; font-weight: 200;" fill="rgb(50, 49, 63)" stroke="none" stroke-width="1px">-1e+3</text><text x="0" y="106.8" dx="0em" dy="0.3em" style="text-anchor: end; visibility: hidden; font-family: Roboto, sans-serif; font-size: 12px; font-weight: 200;" fill="rgb(50, 49, 63)" stroke="none" stroke-width="1px">-800</text><text x="0" y="89" dx="0em" dy="0.3em" style="text-anchor: end; visibility: inherit; font-family: Roboto, sans-serif; font-size: 12px; font-weight: 200;" fill="rgb(50, 49, 63)" stroke="none" stroke-width="1px">-600</text><text x="0" y="71.2" dx="0em" dy="0.3em" style="text-anchor: end; visibility: hidden; font-family: Roboto, sans-serif; font-size: 12px; font-weight: 200;" fill="rgb(50, 49, 63)" stroke="none" stroke-width="1px">-400</text><text x="0" y="53.400000000000006" dx="0em" dy="0.3em" style="text-anchor: end; visibility: inherit; font-family: Roboto, sans-serif; font-size: 12px; font-weight: 200;" fill="rgb(50, 49, 63)" stroke="none" stroke-width="1px">-200</text><text x="0" y="35.599999999999994" dx="0em" dy="0.3em" style="text-anchor: end; visibility: hidden; font-family: Roboto, sans-serif; font-size: 12px; font-weight: 200;" fill="rgb(50, 49, 63)" stroke="none" stroke-width="1px">0</text><text x="0" y="17.799999999999997" dx="0em" dy="0.3em" style="text-anchor: end; visibility: inherit; font-family: Roboto, sans-serif; font-size: 12px; font-weight: 200;" fill="rgb(50, 49, 63)" stroke="none" stroke-width="1px">200</text><text x="0" y="0" dx="0em" dy="0.3em" style="text-anchor: end; visibility: hidden; font-family: Roboto, sans-serif; font-size: 12px; font-weight: 200;" fill="rgb(50, 49, 63)" stroke="none" stroke-width="1px">400</text></g><line x1="82.734375" y1="0" x2="82.734375" y2="178" fill="rgb(0, 0, 0)" stroke="rgb(204, 204, 204)" stroke-width="1px"></line></g></g><g transform="translate(82, 0)" clip-path="url(#clip_0)"><clipPath id="clip_0"><rect width="247" height="178"></rect></clipPath><g><g><g><line x1="0" y1="0" x2="0" y2="178" fill="rgb(0, 0, 0)" stroke="rgb(60, 60, 60)" stroke-width="1px" opacity="0.25"></line><line x1="27.473958333333332" y1="0" x2="27.473958333333332" y2="178" fill="rgb(0, 0, 0)" stroke="rgb(60, 60, 60)" stroke-width="1px" opacity="0.25"></line><line x1="54.947916666666664" y1="0" x2="54.947916666666664" y2="178" fill="rgb(0, 0, 0)" stroke="rgb(60, 60, 60)" stroke-width="1px" opacity="0.25"></line><line x1="82.421875" y1="0" x2="82.421875" y2="178" fill="rgb(0, 0, 0)" stroke="rgb(60, 60, 60)" stroke-width="1px" opacity="0.25"></line><line x1="109.89583333333333" y1="0" x2="109.89583333333333" y2="178" fill="rgb(0, 0, 0)" stroke="rgb(60, 60, 60)" stroke-width="1px" opacity="0.25"></line><line x1="137.36979166666669" y1="0" x2="137.36979166666669" y2="178" fill="rgb(0, 0, 0)" stroke="rgb(60, 60, 60)" stroke-width="1px" opacity="0.25"></line><line x1="164.84375" y1="0" x2="164.84375" y2="178" fill="rgb(0, 0, 0)" stroke="rgb(60, 60, 60)" stroke-width="1px" opacity="0.25"></line><line x1="192.31770833333334" y1="0" x2="192.31770833333334" y2="178" fill="rgb(0, 0, 0)" stroke="rgb(60, 60, 60)" stroke-width="1px" opacity="0.25"></line><line x1="219.79166666666666" y1="0" x2="219.79166666666666" y2="178" fill="rgb(0, 0, 0)" stroke="rgb(60, 60, 60)" stroke-width="1px" opacity="0.25"></line><line x1="247.265625" y1="0" x2="247.265625" y2="178" fill="rgb(0, 0, 0)" stroke="rgb(60, 60, 60)" stroke-width="1px" opacity="0.25"></line></g><g><line x1="0" y1="178" x2="247.265625" y2="178" fill="rgb(0, 0, 0)" stroke="rgb(60, 60, 60)" stroke-width="1px" opacity="0.25"></line><line x1="0" y1="160.20000000000002" x2="247.265625" y2="160.20000000000002" fill="rgb(0, 0, 0)" stroke="rgb(60, 60, 60)" stroke-width="1px" opacity="0.25"></line><line x1="0" y1="142.4" x2="247.265625" y2="142.4" fill="rgb(0, 0, 0)" stroke="rgb(60, 60, 60)" stroke-width="1px" opacity="0.25"></line><line x1="0" y1="124.6" x2="247.265625" y2="124.6" fill="rgb(0, 0, 0)" stroke="rgb(60, 60, 60)" stroke-width="1px" opacity="0.25"></line><line x1="0" y1="106.8" x2="247.265625" y2="106.8" fill="rgb(0, 0, 0)" stroke="rgb(60, 60, 60)" stroke-width="1px" opacity="0.25"></line><line x1="0" y1="89" x2="247.265625" y2="89" fill="rgb(0, 0, 0)" stroke="rgb(60, 60, 60)" stroke-width="1px" opacity="0.25"></line><line x1="0" y1="71.2" x2="247.265625" y2="71.2" fill="rgb(0, 0, 0)" stroke="rgb(60, 60, 60)" stroke-width="1px" opacity="0.25"></line><line x1="0" y1="53.400000000000006" x2="247.265625" y2="53.400000000000006" fill="rgb(0, 0, 0)" stroke="rgb(60, 60, 60)" stroke-width="1px" opacity="0.25"></line><line x1="0" y1="35.599999999999994" x2="247.265625" y2="35.599999999999994" fill="rgb(0, 0, 0)" stroke="rgb(60, 60, 60)" stroke-width="1px" opacity="0.25"></line><line x1="0" y1="17.799999999999997" x2="247.265625" y2="17.799999999999997" fill="rgb(0, 0, 0)" stroke="rgb(60, 60, 60)" stroke-width="1px" opacity="0.25"></line><line x1="0" y1="0" x2="247.265625" y2="0" fill="rgb(0, 0, 0)" stroke="rgb(60, 60, 60)" stroke-width="1px" opacity="0.25"></line></g></g></g><g><g><line x1="0" y1="35.599999999999994" x2="247.265625" y2="35.599999999999994" fill="rgb(0, 0, 0)" stroke="rgb(153, 153, 153)" stroke-width="1.5px"></line></g></g><g><g><line x1="27.473958333333332" y1="0" x2="27.473958333333332" y2="178" fill="rgb(0, 0, 0)" stroke="rgb(153, 153, 153)" stroke-width="1.5px"></line></g></g><g><g><g><g><g><path stroke="rgb(255, 112, 67)" stroke-width="2px" d="M27.611328125,41.935059410095214L27.886067708333336,46.08343976670082L28.160807291666668,54.71729945467011L28.298177083333332,49.033352451250835L28.572916666666664,50.070079583267436L28.84765625,43.9473518139515L28.985026041666668,45.21469969833165L29.122395833333332,42.32902279381134L29.259765625,47.876478501744124L29.397135416666668,46.16305750649435L29.534505208333336,45.68520516810099L29.671875,45.50943888801947L29.809244791666668,43.64218439841406L29.946614583333336,45.67581147965044L30.083984375,62.61704937387194L30.221354166666664,51.178117440730105L30.49609375,45.965429160815845L30.770833333333332,48.03882638711405L30.908203125,52.020083379631906L31.595052083333332,43.892427464368154L31.732421875,56.75074222350364L31.869791666666664,50.101544466273474L32.007161458333336,52.76143554395681L32.14453125,81.92492663224726L32.419270833333336,94.58832151632592L32.83138020833333,99.5107824993105L32.96875,98.69494223625655L33.243489583333336,70.01556198656608L33.380859375,83.81078879609136L33.51822916666667,60.38210195730714L33.65559895833333,78.72915170183681L33.79296875,83.18424926503914L33.930338541666664,85.60348511718406L34.205078125,102.14583072630253L34.34244791666667,110.03136292353639L34.754557291666664,103.65276575620966L34.89192708333333,111.8458167830688L35.029296875,102.28140315241006L35.166666666666664,85.88706278260176L35.304036458333336,95.40847209895244L35.71614583333333,92.8477549734818L35.853515625,85.93261525728838L35.990885416666664,70.38653205346125L36.128255208333336,83.31514802119563L36.265625,95.06698232136218L36.402994791666664,87.96324882253018L36.540364583333336,89.90580474972028L36.677734375,91.07372460165375L36.815104166666664,94.23782696442683L36.95247395833333,97.6490295456711L37.227213541666664,95.26734955086927L37.364583333333336,92.05338937194804L37.501953125,87.30920300448112L37.63932291666667,94.44249262181468L37.9140625,86.52269875480367L38.188802083333336,66.97201863927609L38.326171875,76.372356751035L38.600911458333336,56.913981210599225L38.73828125,89.62105171701785L39.01302083333333,88.32509921081578L39.150390625,101.1420523865614L39.287760416666664,106.20423162611993L39.425130208333336,100.92146009750164L39.5625,108.33591152707899L39.69986979166667,97.1259911145892L39.974609375,101.99104340861034L40.111979166666664,108.83323117454684L40.24934895833333,106.36669238156843L40.38671875,80.71329895325515L40.661458333333336,94.53122868025822L41.07356770833333,119.86788371491562L41.2109375,99.97922371722892L41.485677083333336,117.28401476085622L41.76041666666667,105.5997330516944L41.897786458333336,94.43764385907707L42.03515625,97.69109123736743L42.447265625,101.56851574667657L42.584635416666664,85.19362654592955L42.99674479166667,119.55845893315458L43.408854166666664,134.12875129248476L43.546223958333336,105.16937056945577L43.68359375,98.83821384864781L43.820963541666664,99.82358728544621L43.958333333333336,104.17618598808068L44.37044270833333,128.5511557828542L44.5078125,118.76854511863192L44.645182291666664,116.34921845631926L44.782552083333336,99.57326483427106L44.919921875,97.03570079377766L45.194661458333336,102.3580915955095L45.33203125,100.48814182754634L45.744140625,131.516080797679L46.15625,119.67061460916875L46.29361979166667,107.13260289160495L46.568359375,128.26754098569077L46.843098958333336,128.83861167106258L46.98046875,104.95185732634363L47.11783854166667,121.54373699291004L47.255208333333336,118.9510808487701L47.392578125,112.01978038047682L47.529947916666664,125.07248717266484L47.8046875,121.32232500616817L47.942057291666664,138.60954848753715L48.079427083333336,147.15280818030067L48.216796875,113.65889287458823L48.491536458333336,101.68363149065551L48.62890625,98.614806000144L48.766276041666664,101.28347610885342L49.041015625,100.58382541107405L49.178385416666664,97.65165220157009L49.315755208333336,103.36291738249648L49.590494791666664,116.21015113430184L49.72786458333333,111.81712949323601L50.002604166666664,104.19050438050726L50.139973958333336,99.47044530867366L50.41471354166667,106.0103877996705L50.552083333333336,104.78916317162984L50.689453125,114.80334860717392L50.96419270833333,110.11201236803319L51.1015625,119.57124702625808L51.513671875,108.5075685364618L51.65104166666667,121.12406351269144L51.78841145833333,113.59991486599654L51.92578125,111.75847553207349L52.200520833333336,110.20325516304638L52.337890625,102.74614453089977L52.612630208333336,107.99660584764315L52.887369791666664,136.21513106080354L53.02473958333333,149.7504483907397L53.162109375,118.93151117050034L53.299479166666664,133.06920073612952L53.57421875,112.67458839625539L53.71158854166667,101.83238600962646L54.123697916666664,120.03688009004783L54.673177083333336,109.26384754996354L54.810546875,96.37917719981814L55.22265625,116.93203709297747L55.360026041666664,140.6478155095397L55.634765625,135.20464647393817L55.77213541666667,111.87799484606906L55.909505208333336,137.7076037808463L56.046875,111.52562150886956L56.184244791666664,106.01398628316096L56.596354166666664,107.7612080055931L56.733723958333336,106.61334624963158L56.87109375,88.294952645766L57.00846354166667,86.3794045167979L57.420572916666664,93.30865382524667L57.557942708333336,93.41695323665263L57.6953125,109.92619082691138L57.83268229166667,106.34730435498858L57.970052083333336,132.23429489533223L58.107421875,118.27080607202987L58.38216145833333,114.69076129810041L58.51953125,108.10533007725327L58.656901041666664,104.94589118167035L58.931640625,112.90378391970873L59.06901041666667,107.18785068944312L59.20638020833333,127.01537869449417L59.34375,124.55163659331107L59.481119791666664,106.10881909769873L59.618489583333336,132.98056739412382L59.755859375,120.44407420871185L60.030598958333336,115.47480668521219L60.16796875,102.61173668298214L60.44270833333333,126.06199135108619L60.9921875,114.04545861256906L61.12955729166667,130.97864217606298L61.404296875,112.57323459163025L61.541666666666664,109.82118242639272L61.679036458333336,137.97171333553288L61.81640625,116.26273530637799L61.95377604166666,108.36805637245136L62.091145833333336,107.15274547070372L62.22851562499999,102.98257301572973L62.50325520833333,100.12698499779236L62.91536458333333,103.48896001591056L63.052734375,102.14346896103893L63.190104166666664,105.9879680716954L63.327473958333336,109.81948138856507L63.60221354166667,97.893418845283L63.87695312500001,85.44378169454289L64.15169270833333,76.55469234035579L64.42643229166666,86.30271054098475L64.701171875,106.04918710549003L64.83854166666667,102.77379932599064L64.97591145833333,101.23264080716638L65.11328125,90.21342208935917L65.25065104166667,79.08189368644136L65.525390625,86.92157706989997L65.66276041666666,84.76185482832709L65.9375,84.48280024132214L66.07486979166667,94.2619187243271L66.21223958333333,95.920226616726L66.48697916666667,104.93746453631208L67.173828125,94.53630667380943L67.44856770833333,86.34231483385412L67.5859375,94.61534689000344L67.86067708333333,76.35597308081573L67.998046875,74.63317653174126L68.13541666666667,82.59471556276091L68.27278645833333,82.69371505121985L68.41015625,90.24756160107945L68.54752604166666,94.80788945575105L68.68489583333334,85.06815311049851L68.822265625,83.57534823822567L68.95963541666667,95.50144594839749L69.09700520833333,93.21437725473379L69.646484375,80.30991735244393L69.78385416666666,77.56140545509902L70.05859375,75.12067336571462L70.470703125,75.41580706156086L71.02018229166666,61.70337929001419L71.15755208333334,63.97338406750554L71.294921875,68.08798010284035L71.43229166666666,76.4207059417667L71.70703125,81.7609543719399L71.84440104166667,64.7151866217607L71.98177083333333,68.66721431297717L72.119140625,66.81806802589563L72.25651041666667,67.81211180151377L72.39388020833334,64.01344920317484L72.80598958333333,66.56105155569453L72.943359375,79.73825370835942L73.21809895833333,77.51717709164403L73.49283854166667,62.62247849824373L73.767578125,68.57580721887676L74.04231770833334,79.59200040301475L74.31705729166667,83.30733000773654L74.45442708333333,75.0837606626494L74.591796875,59.34215282125751L74.72916666666667,72.31845240001614L74.86653645833333,67.09230568878415L75.00390625,68.90119363246738L75.14127604166666,72.14324337390731L75.27864583333334,72.95427797742342L75.416015625,76.19324473702959L75.69075520833333,72.22168438133521L75.96549479166667,67.37012830779207L76.10286458333333,64.68553732594104L76.37760416666667,61.05600497782058L76.65234375,57.847745134756615L76.78971354166666,56.295033937201595L76.92708333333333,77.5728452948282L77.064453125,69.02630503685545L77.20182291666667,67.40380933516859L77.33919270833333,66.7215958933653L77.4765625,62.17821961823257L77.61393229166667,59.84036053252549L77.75130208333334,65.04295475289614L77.888671875,62.58389898719359L78.02604166666666,48.40574140217654L78.30078125,46.165146183956196L78.43815104166667,59.67654620978297L78.712890625,51.21516998758047L78.98763020833333,48.10109422200234L79.125,53.565020383486846L79.26236979166666,46.971652424529225L79.39973958333334,43.40512634465735L79.537109375,46.60899546984339L79.81184895833333,48.25786868116912L79.94921875,46.49677301018055L80.22395833333333,45.55729275416787L80.361328125,42.78554469990902L80.49869791666666,44.30691626786727L80.63606770833334,43.90124422091595L80.7734375,45.32889559929064L81.04817708333333,48.403340803438L81.185546875,49.76861254533581L81.32291666666667,54.334788674280624L81.46028645833333,48.93692601227196L81.87239583333334,50.701054048128334L82.14713541666666,45.23069070963869L82.28450520833333,47.9609869430221L82.55924479166667,50.26267053459149L82.69661458333333,44.81971973879739L82.833984375,46.33807015291603L83.10872395833334,45.20595754766877L83.24609375,40.89820965501849L83.52083333333334,41.2674405594818L83.79557291666667,45.630517097097666L84.482421875,39.59957777942041L84.61979166666666,47.55175373983626L85.03190104166667,40.24942739706287L85.16927083333333,44.972143684922024L85.306640625,48.0188036788716L85.44401041666667,46.01065098512013L85.58138020833333,52.25984477134523L85.71875,48.60838963883766L85.99348958333334,46.6083286551232L86.26822916666667,45.582452949225946L86.54296875,46.52717555275667L86.81770833333333,44.265193720380076L87.22981770833334,46.693669470311086L87.3671875,47.62881643461358L87.779296875,44.51543707735459L87.91666666666667,43.92582024597752L88.05403645833333,45.52441356891155L88.19140625,45.45207431278603L88.46614583333333,43.88794011619291L88.603515625,45.6437881900873L89.015625,51.27111850348918L89.15299479166667,49.35107007520205L89.427734375,49.226452430131495L89.83984375,49.06113661715674L89.97721354166666,47.31614514277659L90.251953125,56.43917095901068L90.38932291666667,44.12707641896156L90.52669270833333,34.34403060877262L90.6640625,41.84835205804348L90.80143229166667,41.99247553550281L90.93880208333333,44.34688679495483L91.076171875,43.71725196650308L91.21354166666666,42.83238799814489L91.35091145833334,45.453489878856196L91.48828125,45.47725335213437L91.62565104166667,46.12723161803581L91.76302083333333,48.87885438316899L91.900390625,47.30879853627274L92.17513020833333,46.023967874756515L92.44986979166667,55.53842357627956L92.58723958333334,51.136838513139224L92.99934895833333,61.398221446894475L93.13671875,52.018975697739556L93.68619791666667,48.17562897392645L94.09830729166666,46.55715814042671L94.23567708333334,48.20412930856214L94.51041666666667,44.41313852627941L94.64778645833333,42.865469412977355L94.92252604166667,59.97710536632186L95.05989583333333,52.93782374922006L95.197265625,49.96217402484664L95.609375,46.46476164227977L95.74674479166667,50.88400340752472L96.021484375,48.31729582989195L96.57096354166666,48.63262746298233L96.70833333333334,56.27161419863598L96.98307291666667,50.177845972824365L97.12044270833333,57.900519062233826L97.2578125,51.487803796315724L97.39518229166667,47.854418420163036L97.53255208333333,54.77655635045393L97.669921875,55.04789654113116L97.80729166666667,62.124699998348305L98.08203125,56.08757677678553L98.21940104166666,50.779574699437866L98.35677083333333,47.935335030531476L98.494140625,59.04882873297899L98.63151041666667,64.4567040011594L98.76888020833333,54.58107999099903L98.90625,51.43515145312475L99.318359375,48.539670149550574L99.45572916666666,48.16745456414009L99.59309895833334,47.26975735364956L100.41731770833333,48.924016848335405L100.69205729166666,72.20798315152877L100.82942708333334,68.61145317575036L100.966796875,69.57497346905252L101.10416666666667,56.89414704125032L101.24153645833333,43.900195183024394L101.37890625,65.68065025977585L101.51627604166667,63.71849555435062L101.65364583333333,74.32575581223863L101.791015625,57.434017613717586L101.92838541666666,60.9186545200864L102.06575520833334,58.226619370522386L102.203125,52.87244098711687L102.34049479166666,55.88814716832324L102.47786458333333,60.694914815883905L102.615234375,53.275134205051785L102.75260416666667,55.02123726991634L102.88997395833333,66.35613516797481L103.16471354166667,71.37746529593203L103.30208333333334,92.21331880967409L103.439453125,69.09452369981643L103.71419270833333,56.47517466918626L103.98893229166667,50.73312861780149L104.263671875,48.62875582817304L104.40104166666667,55.2890799614668L104.81315104166666,85.9381231672502L104.95052083333334,65.29175874669066L105.087890625,54.87140615728947L105.36263020833333,55.55615717863024L105.5,61.857935190238365L105.63736979166667,65.32747810830996L105.912109375,74.0329717896758L106.04947916666666,68.16519925021916L106.18684895833334,67.03755392199815L106.32421875,56.86066357893645L106.59895833333333,69.9192576049094L106.736328125,57.30123796256411L106.87369791666667,57.7397427343786L107.01106770833333,62.75690108505755L107.1484375,49.66825896733074L107.28580729166667,71.017977508875L107.42317708333334,49.567417846769914L107.560546875,54.15189628143743L107.69791666666666,53.64071236246198L107.97265625,53.19710647477899L108.11002604166667,57.43424320076617L108.24739583333333,57.762086255927855L108.65950520833334,59.01786204655817L108.796875,67.7045411870442L108.93424479166666,78.79071042163656L109.208984375,78.7461920470315L109.34635416666667,85.8761554260526L109.48372395833333,85.38534935065746L109.62109375,78.17291495769118L109.89583333333333,80.03312319564145L110.17057291666666,68.14712237724805L110.30794270833334,73.63134210083798L110.4453125,73.11423466689025L110.72005208333333,65.7658193975207L110.99479166666667,61.26198938839515L111.26953125,58.036598814809196L111.40690104166666,58.315065429015384L111.54427083333334,58.05120488804623L111.95638020833333,58.43266029967646L112.505859375,62.347809494510564L112.64322916666667,73.11107448581615L112.78059895833334,81.9045494860221L112.91796875,75.17356975364311L113.05533854166666,75.38744257242821L113.330078125,63.45316730933669L113.46744791666667,74.5352272189772L113.87955729166667,61.320475599347475L114.01692708333334,72.98745842583055L114.29166666666666,69.2844614198999L114.56640625,56.30849549650909L114.70377604166667,62.44068254082731L115.11588541666667,66.54638443213386L115.390625,57.1199705014299L115.52799479166666,70.12249840438446L115.66536458333334,79.09202409551817L115.802734375,76.46228764333829L115.94010416666667,72.84395151250631L116.07747395833333,62.06424888267386L116.21484375,52.98871997209346L116.35221354166667,52.948375835314486L116.48958333333333,72.77641358366185L116.626953125,63.10173001893435L116.76432291666666,76.38391864119049L116.90169270833334,71.66628349973536L117.0390625,77.60508004466737L117.58854166666667,82.85962292275431L117.72591145833333,62.41486823556718L118.00065104166667,71.84554216761548L118.275390625,66.47951847823765L118.41276041666666,59.239900438752066L118.55013020833333,76.1509342490458L118.6875,62.83768099433824L118.82486979166667,62.87942883787461L118.96223958333333,59.83532998304923L119.099609375,51.83168576380733L119.23697916666667,72.01695822838921L119.37434895833333,80.13932784686138L119.64908854166666,83.18341469927911L119.78645833333334,63.68590779193931L119.923828125,67.43635439438289L120.06119791666667,82.43323632381971L120.19856770833333,82.91002063029615L120.47330729166667,79.26618611984951L120.61067708333333,66.16816947455561L120.748046875,73.02610778088695L120.88541666666666,80.84675627529737L121.02278645833334,87.16280433046792L121.16015625,65.41102271347346L121.29752604166667,92.18159307233238L121.43489583333333,88.26711601161365L121.572265625,77.74668713991892L121.70963541666667,64.11439159794719L121.84700520833333,55.51515810355445L121.984375,54.07732952961996L122.12174479166666,50.727252673988716L122.53385416666667,66.27204099566062L122.80859375,55.12020763969367L123.08333333333333,62.16351860216882L123.49544270833334,60.01234380854995L123.6328125,74.18599787172137L123.77018229166666,58.25714743684626L123.90755208333331,68.82455874460703L124.04492187500001,80.27091027038902L124.18229166666667,78.42338133342534L124.31966145833333,62.72153344653323L124.45703124999999,54.95383403435476L124.59440104166669,52.29288290979511L124.73177083333334,54.052274853840096L124.869140625,69.29291482795728L125.00651041666666,56.378257430873L125.14388020833333,52.24439934500155L125.55598958333333,86.1095448034206L125.69335937499999,89.95187694072679L125.83072916666666,63.07477584639534L126.10546875,55.53541175109214L126.24283854166666,50.93590819672478L126.51757812500001,50.16795540188744L126.65494791666667,50.1160226135282L126.79231770833333,54.4136542753612L126.9296875,61.28689133471325L127.06705729166666,54.00054085054843L127.20442708333334,51.41899681149407L127.61653645833333,72.63637913410486L127.75390625000001,57.48534746679721L127.89127604166667,57.28103147557726L128.44075520833334,46.446559275061105L128.578125,46.697160320328614L128.85286458333331,46.97994020746887L128.990234375,69.33004442801756L129.12760416666669,96.93805450712493L129.26497395833334,92.39373609846604L129.53971354166666,68.6776631156058L129.814453125,58.344460940803756L129.95182291666666,72.83079315129966L130.08919270833331,63.307259180174874L130.36393229166669,57.83440764984024L130.50130208333334,56.86675134414081L130.638671875,54.08475958765549L130.77604166666666,47.31391101077156L130.91341145833334,66.91017686378086L131.05078125,73.021420282603L131.18815104166666,64.54517811159208L131.32552083333331,57.57915112378574L131.73763020833334,61.54545892820266L131.875,54.88759938362145L132.14973958333334,49.82287924864405L132.42447916666666,58.59575108107767L132.56184895833334,51.60337618807845L132.69921875,48.80482083372036L132.83658854166669,49.33741676732266L133.111328125,63.67398695159329L133.24869791666666,74.86082728716755L133.38606770833331,63.549939839499515L133.5234375,65.16681710562248L133.66080729166666,86.90162642852712L133.79817708333334,73.47147257423862L133.935546875,82.63133445039927L134.07291666666669,77.5165099597926L134.48502604166666,75.27564670501461L134.62239583333331,59.07165819188685L134.89713541666666,59.2022431896318L135.03450520833334,54.813178474469375L135.171875,50.39798207232805L135.30924479166669,46.31527070734477L135.583984375,64.08110762462688L135.85872395833331,51.49620235728445L135.99609375,49.36931641304291L136.13346354166669,56.27685761327881L136.27083333333334,74.87130848440434L136.408203125,77.81611796517782L136.54557291666666,65.1913630084356L136.68294270833334,54.199361495340625L136.8203125,75.16121098959407L137.09505208333331,61.492827254605395L137.232421875,51.79211025908994L137.36979166666669,78.63413687861224L137.64453125,64.93436008828763L137.91927083333334,65.47085061981146L138.056640625,54.352581649092194L138.19401041666666,77.91517156244802L138.33138020833331,76.35706288399362L138.46875,84.61481883999402L138.60611979166669,85.59312534897109L138.880859375,65.50545360629097L139.01822916666666,60.20410671614331L139.15559895833334,90.05454344865689L139.43033854166666,68.49808549576044L139.56770833333331,82.03985104506471L139.84244791666669,83.88217916172016L140.25455729166666,86.17794174895327L140.529296875,85.66464619539383L140.66666666666666,85.44763282473255L140.80403645833331,85.65325865901863L141.21614583333334,87.42693973386068L141.353515625,99.62808838033664L141.62825520833334,85.55533555285925L141.765625,84.19048930233436L142.04036458333331,77.59668188998818L142.177734375,79.62204278967461L142.31510416666669,88.41913520736614L142.58984375,89.32515793064393L142.72721354166666,93.48291909636039L143.13932291666666,76.10805738795537L143.27669270833334,103.3237207799246L143.55143229166669,96.90902232688586L143.68880208333334,109.71094504444747L143.826171875,77.13634722050635L143.96354166666666,88.24155412574825L144.23828125,99.06247678487281L144.37565104166666,92.15435980019136L144.51302083333334,92.20093517169222L144.650390625,103.34856642671267L144.92513020833334,90.82026056441714L145.19986979166666,70.9316111797327L145.474609375,74.74851510104577L145.61197916666666,73.5356292328733L145.74934895833334,100.53290877793208L145.88671875,97.17856732600151L146.02408854166666,101.24665404154752L146.57356770833331,96.56513160017407L146.7109375,95.26599757391232L146.84830729166669,101.1170826451952L146.98567708333334,98.45437964042524L147.39778645833334,90.6623493805596L147.53515625,93.49259889788331L147.67252604166666,96.5620636961894L147.80989583333331,97.60807079839903L147.947265625,93.76315306975917L148.08463541666669,101.92043500851102L148.22200520833334,96.03181010200598L148.359375,96.00909608523855L148.49674479166666,98.812005925572L148.63411458333334,95.38159504276396L148.90885416666666,87.51196363169733L149.04622395833331,81.80598249668624L149.18359375,88.65251150873554L149.32096354166669,93.6769821295057L149.45833333333334,72.49746590832464L149.595703125,65.86623233237358L149.73307291666666,84.14158606945635L150.0078125,88.2825910902418L150.14518229166666,102.25280138519857L150.28255208333331,89.23307930526771L150.419921875,87.31346997743393L150.55729166666669,83.68904708585005L150.69466145833334,85.99182607455216L150.96940104166666,72.03306971170099L151.10677083333334,84.08596240847241L151.65625,101.2986273422094L151.79361979166669,87.26273211509137L152.068359375,90.78076664940377L152.20572916666666,83.41468452682854L152.34309895833334,80.51370902111802L152.48046875,84.16632034719062L152.61783854166666,80.63497616957955L152.75520833333334,60.191143603062926L152.892578125,69.78391682842634L153.16731770833334,85.70083706239853L153.3046875,88.65510486682801L153.44205729166666,59.787965821674234L153.57942708333331,74.37478926676098L153.85416666666666,78.93732469298048L153.99153645833334,81.93508593769164L154.12890625,82.41675132404859L154.26627604166669,55.07596488843261L154.40364583333334,75.79318207755023L154.541015625,78.50019571980059L155.365234375,75.97310102281862L155.50260416666669,90.82412333379725L155.63997395833334,62.50743253651796L155.77734375,71.14822044579027L155.91471354166666,72.86659130655258L156.46419270833334,76.17548062958319L156.87630208333334,72.44149960419587L157.013671875,70.9877154755155L157.28841145833331,66.72005243636639L157.70052083333334,70.14751313979046L157.837890625,77.78911181402457L158.11263020833334,74.64561149218366L158.25,70.55111808255273L158.38736979166666,47.974548580265896L158.52473958333331,52.68386372167868L158.79947916666669,63.226704251060156L158.93684895833334,63.11794629879497L159.07421875,57.31640023602602L159.21158854166666,65.57966430958749L159.34895833333334,64.5727923004539L159.486328125,63.907746147128044L159.62369791666666,60.92927629806973L159.76106770833331,74.04671230461938L159.8984375,74.98157632647518L160.17317708333334,67.644380376204L160.310546875,57.92788653960071L160.58528645833334,64.7005013727429L160.86002604166666,57.00764342254845L160.99739583333331,62.7447140609328L161.27213541666669,67.87628544240043L161.546875,70.7841295118823L161.68424479166666,67.49726650611292L161.82161458333334,63.63852077437472L161.958984375,65.02496744426264L162.37109375,69.94683983997952L162.50846354166669,66.78136627131069L162.64583333333334,68.67029140159994L162.783203125,66.6642114319453L163.05794270833334,69.31688319073382L163.1953125,64.34817883679416L163.33268229166666,64.38155708343174L163.47005208333334,61.88553629604548L163.607421875,60.049307211201274L164.29427083333331,62.3116038579988L164.431640625,75.75215460102837L164.70638020833334,72.52484659494226L164.84375,65.05287874725657L165.11848958333334,66.23028712240541L165.255859375,60.46280651513108L165.39322916666666,63.63392464223317L165.53059895833331,64.52352130649429L165.80533854166666,52.02790396435807L165.94270833333334,71.30043818427055L166.080078125,67.661345601958L166.35481770833334,66.11082035328353L166.4921875,50.874593616648816L166.62955729166666,50.442568782358244L166.76692708333331,61.08344035858403L167.04166666666669,74.5795525842484L167.17903645833334,71.69642923898716L167.45377604166666,71.42460473641995L167.86588541666666,68.66146976804082L168.140625,68.564417568745L168.27799479166669,53.406113460878224L168.41536458333334,41.2423224548765L168.552734375,58.82530664452324L168.82747395833334,66.06353993070394L169.10221354166666,66.29771610825905L169.23958333333331,65.51005155536124L169.376953125,66.65606319236163L169.51432291666669,68.45877521799622L169.65169270833334,59.67370532475325L169.7890625,55.858819974928736L169.92643229166666,59.827330989387434L170.06380208333334,57.3660717151201L170.201171875,44.65949643322084L170.61328125,60.46930339489071L170.75065104166669,62.49387276387021L170.88802083333334,62.55894994843837L171.57486979166666,59.26225316969071L171.71223958333331,63.68041586534631L171.849609375,54.587782569159195L171.98697916666669,63.38581938858998L172.26171875,64.54084528387367L172.39908854166666,56.975995760318646L172.53645833333334,67.29803728316074L172.673828125,57.3695484223059L172.81119791666666,63.86820082186945L173.498046875,67.18249401949991L173.63541666666666,61.98313332458361L173.77278645833331,61.496890824068075L173.91015625,49.258065957257145L174.04752604166666,59.28990676943778L174.18489583333334,62.97210201977788L174.45963541666669,67.24531587365281L174.59700520833334,69.96975236118995L174.734375,51.55584130545465L174.87174479166666,65.65886012922044L175.00911458333331,62.94042780650994L175.146484375,66.49450310993639L175.28385416666666,59.27946053078823L175.42122395833334,59.431615725516565L175.55859375,69.26814433679745L175.83333333333334,62.107931027846575L175.970703125,65.31387902012037L176.10807291666666,66.69181556537731L176.24544270833331,67.02011570569657L176.3828125,48.37533100917395L176.52018229166666,63.755447542246216L176.65755208333334,70.05889341164638L176.93229166666666,72.91106901717383L177.20703125,58.71479515927534L177.48177083333331,67.0021207354964L177.619140625,71.71519522377466L177.75651041666669,79.4677154764942L178.03125,70.36007667166847L178.30598958333334,61.818527782184184L178.443359375,65.6496418605198L178.71809895833331,67.72606413956935L178.99283854166669,72.37056543597436L179.13020833333334,67.82018441221676L179.267578125,75.1798084722392L179.54231770833334,76.71845160476919L179.95442708333331,74.18295379765135L180.091796875,72.57221882312L180.50390625,68.67899780977947L180.64127604166666,71.1343539561496L180.77864583333334,55.51891766128396L181.19075520833331,70.41314185379125L181.60286458333334,72.38265129328315L181.740234375,77.64075237192458L181.87760416666666,64.55564566409805L182.01497395833334,62.89965387758696L182.15234375,69.41907038332083L182.28971354166666,49.70234140227962L182.42708333333331,71.59093463735904L182.564453125,72.88600843737898L182.70182291666669,75.28535072026824L182.83919270833334,53.634154775598915L183.11393229166666,61.84393238589828L183.25130208333334,60.92754103187715L183.388671875,75.40555185551648L183.80078125,73.93641506286023L183.93815104166669,70.64395907070937L184.212890625,58.00549733697497L184.35026041666666,66.45500338393757L184.48763020833331,74.05896024327265L184.625,75.52898343747259L184.89973958333334,69.11739542504068L185.037109375,60.21536288000686L185.31184895833334,56.14174143282767L185.44921875,45.12180834857762L185.58658854166666,62.08438792751921L185.72395833333331,57.40823259012008L185.861328125,61.1022438647473L185.99869791666666,57.45785460420456L186.13606770833334,52.148900153254466L186.2734375,68.5547534592783L186.41080729166669,57.723914386367845L186.54817708333334,69.33747210798418L186.685546875,76.80978746195338L186.82291666666666,72.81935322050688L186.96028645833331,72.88686507016644L187.09765625,57.01766182983449L187.37239583333334,71.93410882154075L187.509765625,67.81731949028318L187.64713541666666,54.113234533408615L187.78450520833334,67.43878782512276L188.05924479166666,55.994472818301354L188.19661458333331,60.61009127617486L188.74609375,74.15539884149021L189.158203125,59.905200122859156L189.5703125,50.03399738084649L189.70768229166669,53.1459086206901L189.84505208333334,54.417824466966266L189.982421875,43.08409283735811L190.25716145833334,45.95737191441334L190.39453125,41.951382204387436L190.53190104166666,67.6835537733252L190.66927083333331,80.37843991336389L190.806640625,55.37277444452842L191.08138020833334,67.64302168564902L191.21875,49.32684403660366L191.35611979166666,70.37953847513099L191.49348958333334,62.347608491811926L191.630859375,63.44604264840825L191.76822916666666,62.051459443486756L191.90559895833331,67.44761620608678L192.04296875,71.0291752520949L192.18033854166669,55.21657513130217L192.31770833333334,50.9232457622488L192.455078125,44.467783969116965L192.72981770833334,68.91769529249908L192.8671875,76.98462832382259L193.14192708333331,66.5625812326415L193.279296875,58.960598199000316L193.41666666666669,55.601538037718164L193.69140625,66.56612622565002L193.82877604166666,74.52141613582063L193.96614583333334,64.02881505146144L194.103515625,69.294493243348L194.24088541666666,77.33921402169305L194.37825520833334,51.92175881929748L194.927734375,53.03741992316972L195.20247395833331,46.053256800151864L195.61458333333334,59.05454756962179L195.751953125,66.81875048644677L196.02669270833334,59.07672650765372L196.1640625,66.73426426740355L196.30143229166666,71.5175379435581L196.576171875,79.22892262765875L196.71354166666666,60.74715375240983L196.85091145833334,71.2720463668628L196.98828125,53.51261540186625L197.12565104166669,45.891310587913644L197.26302083333334,42.40199214448013L197.400390625,54.625654391780564L197.53776041666666,55.83007161246974L197.67513020833331,44.94423227007978L197.8125,53.31853275549397L198.08723958333334,48.301359541020574L198.224609375,45.474611078335656L198.36197916666666,43.05964813194433L198.63671875,46.713507239813076L198.77408854166666,63.64055167615964L198.91145833333331,48.78782121597954L199.048828125,46.894473060886035L199.18619791666669,52.95138288018853L199.32356770833334,57.286792448796234L199.59830729166666,55.3060360945249L199.73567708333334,51.40619825401981L199.873046875,49.487094336690085L200.01041666666666,59.78179959035396L200.14778645833331,71.24104221115154L200.28515625,59.58130565245225L200.42252604166669,55.1232953352096L200.697265625,49.34050472624333L200.83463541666666,47.71492890761241L200.97200520833334,45.860027066883305L201.109375,59.62543841729938L201.24674479166666,51.55616509835552L201.38411458333331,46.745989587691184L201.521484375,54.69419601911785L201.65885416666669,63.78774235679989L201.79622395833334,58.42441348435611L202.07096354166666,51.064542720211094L202.20833333333334,58.47310168763331L202.48307291666666,67.2971575276716L203.03255208333334,60.455437077043534L203.169921875,48.844943996361L203.44466145833334,47.81629240819959L203.58203125,46.85561763998131L203.71940104166666,46.06605769577595L203.994140625,65.84546695135565L204.26888020833334,69.01437257281312L204.40625,73.25862609057168L204.54361979166666,55.67687638069271L204.818359375,49.88933110457216L204.95572916666666,47.899972783766586L205.09309895833334,61.47582622622337L205.23046875,58.24711800456001L205.50520833333334,50.14525386963015L205.642578125,44.71378775809679L205.77994791666666,53.1604031534828L205.91731770833331,50.44161325149118L206.0546875,39.99635647270881L206.32942708333334,42.15483213436955L206.466796875,46.0891830009858L206.60416666666669,55.56707869654703L206.87890625,56.73345002560983L207.01627604166666,51.76969712324598L207.42838541666666,47.27842237573626L207.703125,48.03764968870657L207.84049479166666,47.32833722527531L208.115234375,47.42873380100582L208.25260416666666,47.91661703005568L208.38997395833331,64.45828827498087L208.52734375,56.614268235232714L208.66471354166669,52.584154825054725L208.80208333333334,48.75273018796247L208.939453125,58.961892684035426L209.07682291666666,51.34147913588265L209.3515625,49.48296772391654L209.48893229166666,68.01388203496207L209.62630208333331,58.01155310038306L209.763671875,50.60346616889751L209.90104166666669,45.76243008978451L210.03841145833334,58.596960360115816L210.17578125,52.07553410726888L210.45052083333334,48.20556494805958L210.587890625,47.57239549783795L210.72526041666666,55.29198035845453L210.86263020833331,56.743093809812414L211,48.59906870500288L211.13736979166669,51.373571108601574L211.54947916666666,67.97431170475616L211.82421875,52.40460549006345L211.96158854166666,48.38821142033636L212.09895833333331,43.00051354645173L212.236328125,43.15152312718477L212.37369791666669,42.38440815919476L212.51106770833334,42.674613937983736L212.6484375,47.050358417866896L212.78580729166666,44.84022157823948L212.92317708333334,46.96712433928954L213.060546875,44.77871858079644L213.47265625,44.383787422022635L213.61002604166669,41.428014242408985L214.02213541666666,44.60007258404141L214.15950520833334,46.72196235291974L214.296875,44.00653727422676L214.43424479166666,48.88636269607907L214.57161458333334,45.25889418977344L214.708984375,49.678559554377784L214.98372395833334,50.91142755845491L215.12109375,41.03232578065138L215.25846354166666,43.7923657212716L215.39583333333331,44.53151737603718L215.533203125,44.67796732119454L215.67057291666666,45.44525896760035L215.80794270833334,47.30879590857625L216.08268229166669,44.972609205894166L216.22005208333334,50.818275917238566L216.357421875,47.99163300799085L216.63216145833331,41.83797364937686L216.76953125,38.4235666204161L216.90690104166666,37.54070552623349L217.181640625,40.52760059562308L217.31901041666669,44.29376966246056L217.59375,48.936327988879704L217.73111979166666,54.95438176630522L217.86848958333331,50.969303822944944L218.005859375,47.695073901373924L218.14322916666666,38.67998881596938L218.28059895833334,42.337897399165975L218.55533854166666,43.38487943756671L218.69270833333334,45.74605064509071L219.10481770833331,55.27612485509631L219.37955729166669,51.34187596646708L219.79166666666666,59.520394385141266L220.34114583333331,49.60411793205114L221.02799479166666,46.007905257596306L221.44010416666666,46.194827882694504L221.57747395833331,47.9433166915348L221.71484375,45.80749481553375L221.85221354166669,47.89559447535851L221.98958333333334,49.20960712352477L222.126953125,46.6672117420298L222.40169270833334,46.147465574266164L222.5390625,50.22508144503466L222.81380208333331,47.80216147188676L222.951171875,55.07573440456431L223.22591145833334,48.30684010359018L223.36328125,48.401619204851535" style="fill: none;" fill="none"></path></g></g></g></g><g opacity="0.2"><g><g><g><path stroke="rgb(255, 112, 67)" stroke-width="2px" d="M27.611328125,41.935059410095214L27.886067708333336,47.68471458435059L28.160807291666668,59.336379852294925L28.298177083333332,45.66556578826905L28.572916666666664,50.70736431884765L28.84765625,40.13119403076171L28.985026041666668,46.00880096435547L29.122395833333332,40.517216388702394L29.259765625,51.36224819946288L29.397135416666668,45.08609547424317L29.534505208333336,45.38481842803956L29.671875,45.398944000244136L29.809244791666668,42.46832064056397L29.946614583333336,46.95427522277833L30.083984375,73.26738677978516L30.221354166666664,43.98687159729005L30.49609375,42.688397911071775L30.770833333333332,49.34229748535157L30.908203125,54.52295820617676L31.595052083333332,38.782858833313L31.732421875,64.83430813598632L31.869791666666664,45.92142992401123L32.007161458333336,54.433614624023434L32.14453125,100.25897802734376L32.419270833333336,102.54934826660157L32.83138020833333,102.60535894775391L32.96875,98.18205242919922L33.243489583333336,51.985853881835936L33.380859375,92.48335809326171L33.51822916666667,45.653318374633784L33.65559895833333,90.2632904663086L33.79296875,85.98501092529298L33.930338541666664,87.12437280273437L34.205078125,112.54541607666015L34.34244791666667,114.98871704101563L34.754557291666664,99.64276818847658L34.89192708333333,116.9964970703125L35.029296875,96.26859588623047L35.166666666666664,75.58052307128906L35.304036458333336,101.39424407958984L35.71614583333333,91.23792303466797L35.853515625,81.58531243896483L35.990885416666664,60.61326150512695L36.128255208333336,91.44290985107422L36.265625,102.45494329833986L36.402994791666664,83.49738378906251L36.540364583333336,91.12702069091797L36.677734375,91.80795434570311L36.815104166666664,96.2269857788086L36.95247395833333,99.79353149414062L37.227213541666664,93.77007189941406L37.364583333333336,90.03288671875L37.501953125,84.32670147705078L37.63932291666667,98.92693853759766L37.9140625,81.54380554199219L38.188802083333336,54.681200195312506L38.326171875,82.28201556396485L38.600911458333336,44.68119137573243L38.73828125,110.18282568359376L39.01302083333333,87.51037988281252L39.150390625,109.1996157836914L39.287760416666664,109.38664398193359L39.425130208333336,97.60036920166017L39.5625,112.99711389160156L39.69986979166667,90.07871215820313L39.974609375,105.04952905273437L40.111979166666664,113.13467169189454L40.24934895833333,104.81606701660156L40.38671875,64.5859213256836L40.661458333333336,103.21807049560546L41.07356770833333,135.79613916015626L41.2109375,87.47592932128907L41.485677083333336,128.16292248535157L41.76041666666667,98.25423999023438L41.897786458333336,87.42043469238281L42.03515625,99.73641809082031L42.447265625,104.00611486816408L42.584635416666664,74.89931509399415L42.99674479166667,141.16240893554686L43.408854166666664,143.28857678222656L43.546223958333336,86.96363610839843L43.68359375,94.85804040527346L43.820963541666664,100.44305657958984L43.958333333333336,106.91251025390626L44.37044270833333,143.87483386230468L44.5078125,112.6185651245117L44.645182291666664,114.82827368164064L44.782552083333336,89.02681842041015L44.919921875,95.4404243774414L45.194661458333336,105.7040897216797L45.33203125,99.31257080078126L45.744140625,151.0222443847656L46.15625,112.2237905883789L46.29361979166667,99.25040008544923L46.568359375,141.554326171875L46.843098958333336,129.19762353515625L46.98046875,89.93510296630859L47.11783854166667,131.97446264648437L47.255208333333336,117.32116998291015L47.392578125,107.66231787109376L47.529947916666664,133.27826049804688L47.8046875,118.96473120117186L47.942057291666664,149.477412109375L48.079427083333336,152.52365222167967L48.216796875,92.60245751953124L48.491536458333336,94.1552098388672L48.62890625,96.68554437255858L48.766276041666664,102.96117425537109L49.041015625,100.14397985839842L49.178385416666664,95.80829901123047L49.315755208333336,106.95338702392579L49.590494791666664,124.2867508544922L49.72786458333333,109.05539276123048L50.002604166666664,99.39591595458984L50.139973958333336,96.5031117553711L50.41471354166667,110.12181744384766L50.552083333333336,104.02142260742188L50.689453125,121.09891143798828L50.96419270833333,107.16273583984375L51.1015625,125.51793200683595L51.513671875,101.5522266845703L51.65104166666667,129.05560595703128L51.78841145833333,108.86974975585937L51.92578125,110.60082800292967L52.200520833333336,109.22554333496093L52.337890625,98.05812384033202L52.612630208333336,111.29738446044921L52.887369791666664,153.95511596679688L53.02473958333333,158.25962182617187L53.162109375,99.55673956298828L53.299479166666664,141.95706420898438L53.57421875,99.8532197265625L53.71158854166667,95.0162783203125L54.123697916666664,131.48139916992187L54.673177083333336,102.49122448730468L54.810546875,88.27904241943358L55.22265625,129.85289038085938L55.360026041666664,155.55708337402345L55.634765625,131.78271936035156L55.77213541666667,97.21335717773437L55.909505208333336,153.94576184082032L56.046875,95.06593884277343L56.184244791666664,102.54901690673829L56.596354166666664,108.85962426757811L56.733723958333336,105.89172631835936L56.87109375,76.77882897949218L57.00846354166667,85.17516741943359L57.420572916666664,97.66482684326172L57.557942708333336,93.48503723144532L57.6953125,120.3049623413086L57.83268229166667,104.09738549804686L57.970052083333336,148.5085267333984L58.107421875,109.49245642089842L58.38216145833333,112.4401142578125L58.51953125,103.9653032836914L58.656901041666664,102.95966412353515L58.931640625,117.90662854003905L59.06901041666667,103.59444641113282L59.20638020833333,139.48024157714843L59.34375,123.00276940917968L59.481119791666664,94.51447454833985L59.618489583333336,149.87388146972657L59.755859375,112.56282604980468L60.030598958333336,112.35080462646485L60.16796875,94.52518127441405L60.44270833333333,140.8043338623047L60.9921875,106.49109112548828L61.12955729166667,141.6239334716797L61.404296875,101.00240832519532L61.541666666666664,108.09106494140626L61.679036458333336,155.66895263671876L61.81640625,102.61507159423829L61.95377604166666,103.40495202636718L62.091145833333336,106.38872265625L62.22851562499999,100.36093365478516L62.50325520833333,98.33177819824218L62.91536458333333,105.60251434326172L63.052734375,101.29760650634765L63.190104166666664,108.40486816406249L63.327473958333336,112.2282177734375L63.60221354166667,90.39592675781252L63.87695312500001,77.61713684082031L64.15169270833333,70.96643746948241L64.42643229166666,92.43094348144531L64.701171875,118.46309582519531L64.83854166666667,100.71467932128907L64.97591145833333,100.26376916503908L65.11328125,83.28603051757814L65.25065104166667,72.08389700317383L65.525390625,91.85010766601562L65.66276041666666,83.40411413574219L65.9375,84.30736853027342L66.07486979166667,100.40970330810546L66.21223958333333,96.96274591064453L66.48697916666667,110.60628186035156L67.173828125,87.99746801757813L67.44856770833333,81.19104309082032L67.5859375,99.81630841064454L67.86067708333333,64.87695306396483L67.998046875,73.5501155090332L68.13541666666667,87.59985247802734L68.27278645833333,82.75595251464844L68.41015625,94.99639672851562L68.54752604166666,97.6748056640625L68.68489583333334,78.9451266784668L68.822265625,82.63687481689453L68.95963541666667,102.99896014404297L69.09700520833333,91.77657836914062L69.646484375,72.19734158325195L69.78385416666666,75.83351361083984L70.05859375,73.5862717590332L70.470703125,75.60134713745119L71.02018229166666,53.082862808227546L71.15755208333334,65.40045547485352L71.294921875,70.67468054199217L71.43229166666666,81.65919482421876L71.70703125,85.11817895507812L71.84440104166667,53.999117645263674L71.98177083333333,71.15171380615236L72.119140625,65.65557540893555L72.25651041666667,68.43703182983398L72.39388020833334,61.62536489868165L72.80598958333333,68.16263870239258L72.943359375,88.02229284667969L73.21809895833333,76.12086508178712L73.49283854166667,53.258710327148435L73.767578125,72.31845361328126L74.04231770833334,86.51748992919921L74.31705729166667,85.64302581787109L74.45442708333333,69.91389459228515L74.591796875,49.445962875366206L74.72916666666667,80.47619122314453L74.86653645833333,63.806812805175774L75.00390625,70.03837725830078L75.14127604166666,74.18140493774415L75.27864583333334,73.4641466369629L75.416015625,78.22946813964845L75.69075520833333,69.72490539550782L75.96549479166667,64.32012725830079L76.10286458333333,62.99783029174805L76.37760416666667,58.77424685668946L76.65234375,55.830826080322275L76.78971354166666,55.31889953613282L76.92708333333333,90.94944982910157L77.064453125,63.65339862060547L77.20182291666667,66.38380389404297L77.33919270833333,66.29271252441406L77.4765625,59.32196026611328L77.61393229166667,58.37063153076171L77.75130208333334,68.31364102172851L77.888671875,61.03797793579102L78.02604166666666,39.49243712234497L78.30078125,44.75656352233886L78.43815104166667,68.17068368530275L78.712890625,45.89580317687987L78.98763020833333,46.14338535308838L79.125,56.999996765136714L79.26236979166666,42.82663608551026L79.39973958333334,41.16297802734374L79.537109375,48.62315423583984L79.81184895833333,49.29445672607422L79.94921875,45.389634689331054L80.22395833333333,44.96667487335204L80.361328125,41.04304510879518L80.49869791666666,45.26334855651856L80.63606770833334,43.64621260833741L80.7734375,46.226409332275395L81.04817708333333,50.33613534545899L81.185546875,50.62691041564941L81.32291666666667,57.20538148498536L81.46028645833333,45.54348140716553L81.87239583333334,51.81009870910645L82.14713541666666,41.791667503356926L82.28450520833333,49.67742724609376L82.55924479166667,51.70965728759765L82.69661458333333,41.3979298248291L82.833984375,47.29260314941406L83.10872395833334,44.494238548278815L83.24609375,38.190081501007086L83.52083333333334,41.49956291961669L83.79557291666667,48.37342840576172L84.482421875,35.80814035820962L84.61979166666666,52.551004425048816L85.03190104166667,35.658714093625534L85.16927083333333,47.94114773559571L85.306640625,49.93413064575196L85.44401041666667,44.74819668579102L85.58138020833333,56.18849102783203L85.71875,46.31284944152832L85.99348958333334,45.35096132659913L86.26822916666667,44.93752131652831L86.54296875,47.121089111328125L86.81770833333333,42.84316605377197L87.22981770833334,48.220365951538085L87.3671875,48.216710128784186L87.779296875,42.55816601562499L87.91666666666667,43.55514907836914L88.05403645833333,46.52939243316651L88.19140625,45.406597190856935L88.46614583333333,42.90462448120117L88.603515625,46.747627532958994L89.015625,54.80882127380371L89.15299479166667,48.14400379943849L89.427734375,49.14810974121093L89.83984375,48.95720843505858L89.97721354166666,46.21913095855712L90.251953125,62.17449337768556L90.38932291666667,36.38689972114564L90.52669270833333,28.193777053833006L90.6640625,46.56605251312256L90.80143229166667,42.08308084869385L90.93880208333333,45.82702156066894L91.076171875,43.32142290496827L91.21354166666666,42.27610543823243L91.35091145833334,47.10128356933593L91.48828125,45.49219260406493L91.62565104166667,46.5358498764038L91.76302083333333,50.60870191955566L91.900390625,46.3217601699829L92.17513020833333,45.21624045562744L92.44986979166667,61.519824066162116L92.58723958333334,48.36971826171875L92.99934895833333,67.84918856811524L93.13671875,46.12257690429688L93.68619791666667,45.75945334625244L94.09830729166666,45.539682991027824L94.23567708333334,49.23952160644531L94.51041666666667,42.029877220153814L94.64778645833333,41.89250479125976L94.92252604166667,70.73458334350585L95.05989583333333,48.512477325439455L95.197265625,48.091488693237295L95.609375,44.266062652587884L95.74674479166667,53.66222380065919L96.021484375,46.70369790649415L96.57096354166666,48.830865264892566L96.70833333333334,61.07397393798828L96.98307291666667,46.34691024780274L97.12044270833333,62.75548944091798L97.2578125,47.456357391357415L97.39518229166667,45.57023803710938L97.53255208333333,59.12825869750976L97.669921875,55.21847848510742L97.80729166666667,66.57363507080078L98.08203125,52.29225175476075L98.21940104166666,47.44262225341796L98.35677083333333,46.14726253509521L98.494140625,66.03548764038085L98.63151041666667,67.85644317626954L98.76888020833333,48.372625808715824L98.90625,49.45741787719726L99.318359375,46.71938385772706L99.45572916666666,47.93345584106446L99.59309895833334,46.70540699005127L100.41731770833333,49.963991058349606L100.69205729166666,86.84578607177734L100.82942708333334,66.35044247436524L100.966796875,70.18070446777344L101.10416666666667,48.92216169738771L101.24153645833333,35.731358998537054L101.37890625,79.37324905395508L101.51627604166667,62.4849585571289L101.65364583333333,80.99416372680665L101.791015625,46.814781547546374L101.92838541666666,63.109322021484374L102.06575520833334,56.53423245239257L102.203125,49.506459136962896L102.34049479166666,57.784014572143555L102.47786458333333,63.71675897216797L102.615234375,48.61058157348632L102.75260416666667,56.11895027160645L102.88997395833333,73.48198303222657L103.16471354166667,74.534197265625L103.30208333333334,105.31208013916016L103.439453125,54.560558044433584L103.71419270833333,48.54183798217773L103.98893229166667,47.123308135986335L104.263671875,47.305811370849604L104.40104166666667,59.47618927001953L104.81315104166666,105.20608843994141L104.95052083333334,52.312122482299806L105.087890625,48.32050045776368L105.36263020833333,55.98663583374022L105.5,65.81963928222656L105.63736979166667,67.50865655517578L105.912109375,79.50580657958984L106.04947916666666,64.47633898925781L106.18684895833334,66.32864334106445L106.32421875,50.462813949584955L106.59895833333333,78.12873202514649L106.736328125,49.36873701477051L106.87369791666667,58.01541511535645L107.01106770833333,65.91101040649414L107.1484375,41.4398943786621L107.28580729166667,84.43978753662108L107.42317708333334,36.08221258687974L107.560546875,57.03399510192871L107.69791666666666,53.3193491821289L107.97265625,52.91822720336915L108.11002604166667,60.09798062133788L108.24739583333333,57.96818954467773L108.65950520833334,59.807323699951176L108.796875,73.16554794311523L108.93424479166666,85.76019140624999L109.208984375,78.71820492553711L109.34635416666667,90.35851025390625L109.48372395833333,85.0767969970703L109.62109375,73.63871353149415L109.89583333333333,81.20257006835938L110.17057291666666,60.67481567382812L110.30794270833334,77.0790763244629L110.4453125,72.7891475830078L110.72005208333333,61.146131622314456L110.99479166666667,58.43059136962891L111.26953125,56.00891027832031L111.40690104166666,58.4901275024414L111.54427083333334,57.88532513427734L111.95638020833333,58.67246777343751L112.505859375,64.80912478637696L112.64322916666667,79.87755703735351L112.78059895833334,87.43269500732421L112.91796875,70.94204177856446L113.05533854166666,75.52189682006836L113.330078125,55.950512176513676L113.46744791666667,81.50212481689454L113.87955729166667,53.01283044433594L114.01692708333334,80.32207629394532L114.29166666666666,66.95651867675781L114.56640625,48.15096643066406L114.70377604166667,66.2957708129883L115.11588541666667,69.1274934387207L115.390625,51.193918746948235L115.52799479166666,78.29672604370117L115.66536458333334,84.73084643554688L115.802734375,74.8090657043457L115.94010416666667,70.56923205566406L116.07747395833333,55.28743257141114L116.21484375,47.283257171630865L116.35221354166667,52.92301290893554L116.48958333333333,85.24159692382814L116.626953125,57.01959996032714L116.76432291666666,84.73395904541016L116.90169270833334,68.70047378540039L117.0390625,81.33859057617188L117.58854166666667,86.16296746826171L117.72591145833333,49.56197685241699L118.00065104166667,77.7742720336914L118.275390625,63.10608990478515L118.41276041666666,54.68860961914062L118.55013020833333,86.78230078124999L118.6875,54.46811135864258L118.82486979166667,62.90567422485352L118.96223958333333,57.921613113403325L119.099609375,46.800078811645506L119.23697916666667,84.70672235107423L119.37434895833333,85.2455732421875L119.64908854166666,85.0971240234375L119.78645833333334,51.42851745605469L119.923828125,69.79412701416015L120.06119791666667,91.86124353027346L120.19856770833333,83.20975799560547L120.47330729166667,76.97543673706055L120.61067708333333,57.93391145324707L120.748046875,77.33745010375976L120.88541666666666,85.7633203125L121.02278645833334,91.1334794921875L121.16015625,51.73644990539551L121.29752604166667,109.01130017089844L121.43489583333333,85.80622326660156L121.572265625,71.1328670349121L121.70963541666667,55.54425140380859L121.84700520833333,50.10912532043457L121.984375,53.173417755126955L122.12174479166666,48.621178298950184L122.53385416666667,76.0444974975586L122.80859375,48.109445953369146L123.08333333333333,66.59139813232422L123.49544270833334,58.65997659301758L123.6328125,83.09647094726563L123.77018229166666,48.24324472045898L123.90755208333331,75.4679150390625L124.04492187500001,87.46682507324219L124.18229166666667,77.26190548706055L124.31966145833333,52.85033917236328L124.45703124999999,50.0705572052002L124.59440104166669,50.62003741455077L124.73177083333334,55.15834210205079L124.869140625,78.87416406250001L125.00651041666666,48.25927085876465L125.14388020833333,49.64558953857422L125.55598958333333,107.39935937499999L125.69335937499999,92.36741473388672L125.83072916666666,46.17809665679931L126.10546875,50.79568122863769L126.24283854166666,48.04436361694337L126.51757812500001,49.685170745849604L126.65494791666667,50.08337431335449L126.79231770833333,57.11542271423339L126.9296875,65.60785144042968L127.06705729166666,49.419871002197254L127.20442708333334,49.79607173156737L127.61653645833333,85.97499407958985L127.75390625000001,47.9604317932129L127.89127604166667,57.15258526611328L128.44075520833334,39.63531127929687L128.578125,46.85470429992676L128.85286458333331,47.15771388244628L128.990234375,83.38076141357422L129.12760416666669,114.29423022460938L129.26497395833334,89.53688446044922L129.53971354166666,53.768210067749024L129.814453125,51.8483436126709L129.95182291666666,81.93783587646485L130.08919270833331,57.320151504516595L130.36393229166669,54.39382020568848L130.50130208333334,56.25842018127442L130.638671875,52.33582014465332L130.77604166666666,43.057318908691414L130.91341145833334,79.22965344238281L131.05078125,76.86334204101563L131.18815104166666,59.216465606689454L131.32552083333331,53.1998572845459L131.73763020833334,64.0389358215332L131.875,50.7020394744873L132.14973958333334,46.63886952209472L132.42447916666666,64.11094412231446L132.56184895833334,47.207518356323234L132.69921875,47.04546844482422L132.83658854166669,49.67224092102051L133.111328125,72.6868796081543L133.24869791666666,81.89359661865234L133.38606770833331,56.43918649291992L133.5234375,66.18329043579102L133.66080729166666,100.56552935791017L133.79817708333334,65.0284116821289L133.935546875,88.38981439208983L134.07291666666669,74.30100140380858L134.48502604166666,73.86689553833007L134.62239583333331,48.88478593444824L134.89713541666666,59.2843373413086L135.03450520833334,52.053929321289054L135.171875,47.62230485534668L135.30924479166669,43.74861502838135L135.583984375,75.24985852050781L135.85872395833331,43.584519241333L135.99609375,48.0322187347412L136.13346354166669,60.61938351440429L136.27083333333334,86.56097955322265L136.408203125,79.66741513061523L136.54557291666666,57.25462780761718L136.68294270833334,47.28908041381836L136.8203125,88.33918151855468L137.09505208333331,52.89999969482422L137.232421875,45.69361390686036L137.36979166666669,95.50876599121094L137.64453125,56.32179682922362L137.91927083333334,65.80812316894531L138.056640625,47.36292070007324L138.19401041666666,92.72813525390625L138.33138020833331,75.37753527832031L138.46875,89.80617681884766L138.60611979166669,86.20815191650391L138.880859375,52.87704759216309L139.01822916666666,56.87133815002441L139.15559895833334,108.82045318603517L139.43033854166666,54.946305740356436L139.56770833333331,90.55307824707033L139.84244791666669,85.04038543701172L140.25455729166666,87.62120617675781L140.529296875,85.34195550537109L140.66666666666666,85.31120422363281L140.80403645833331,85.7825283203125L141.21614583333334,88.54199005126954L141.353515625,107.29851733398438L141.62825520833334,76.70829550170899L141.765625,83.33245892333984L142.04036458333331,73.45138928222656L142.177734375,80.89531527709961L142.31510416666669,93.94955487060547L142.58984375,89.89474224853515L142.72721354166666,96.09675592041015L143.13932291666666,65.18509872436523L143.27669270833334,120.4332420654297L143.55143229166669,92.87632916259766L143.68880208333334,117.75905932617188L143.826171875,56.657854125976556L143.96354166666666,95.22300341796876L144.23828125,105.86520666503907L144.37565104166666,87.81147192382814L144.51302083333334,92.23021545410157L144.650390625,110.35668640136718L144.92513020833334,82.94415948486328L145.19986979166666,58.42832345581055L145.474609375,77.14806707763672L145.61197916666666,72.77313095092774L145.74934895833334,117.50513989257813L145.88671875,95.06981195068359L146.02408854166666,103.80411572265625L146.57356770833331,93.62202465820313L146.7109375,94.44927813720703L146.84830729166669,104.79545208740234L146.98567708333334,96.78043280029297L147.39778645833334,85.76377661132811L147.53515625,95.27187628173829L147.67252604166666,98.4917272338867L147.80989583333331,98.26565832519532L147.947265625,91.3459898071289L148.08463541666669,107.04862854003906L148.22200520833334,92.32984069824218L148.359375,95.99481658935547L148.49674479166666,100.57409582519531L148.63411458333334,93.22501751708984L148.90885416666666,82.56460577392579L149.04622395833331,78.21883474731446L149.18359375,92.95668121337891L149.32096354166669,96.83568841552733L149.45833333333334,59.18265603637696L149.595703125,61.69741122436524L149.73307291666666,95.63065209960936L150.0078125,90.88589392089844L150.14518229166666,111.03537658691405L150.28255208333331,81.04804229736328L150.419921875,86.10667974853514L150.55729166666669,81.4105010986328L150.69466145833334,87.43950146484374L150.96940104166666,63.25769519042968L151.10677083333334,91.66318811035156L151.65625,112.11961865234375L151.79361979166669,78.43886312866212L152.068359375,92.99243005371093L152.20572916666666,78.78389022827149L152.34309895833334,78.68996871948242L152.48046875,86.46258740234374L152.61783854166666,78.41494546508788L152.75520833333334,47.33883192443847L152.892578125,75.81455276489258L153.16731770833334,95.7072396850586L153.3046875,90.51234814453124L153.44205729166666,41.6402204284668L153.57942708333331,83.5450072631836L153.85416666666666,81.80562872314454L153.99153645833334,83.81967199707032L154.12890625,82.71955725097655L154.26627604166669,37.88778318786621L154.40364583333334,88.81736096191406L154.541015625,80.20199908447266L155.365234375,74.38440631103516L155.50260416666669,100.16043377685547L155.63997395833334,44.70573441314697L155.77734375,76.58037701416015L155.91471354166666,73.94687005615233L156.46419270833334,78.25566186523437L156.87630208333334,70.09407830810547L157.013671875,70.0737730102539L157.28841145833331,64.03712420654297L157.70052083333334,72.30223599243163L157.837890625,82.59311358642579L158.11263020833334,72.66940444946289L158.25,67.97705545043945L158.38736979166666,33.78146091270446L158.52473958333331,55.64444294738769L158.79947916666669,69.85461376953124L158.93684895833334,63.04957403564453L159.07421875,53.669174209594715L159.21158854166666,70.77448504638672L159.34895833333334,63.93980761718749L159.486328125,63.48965524291993L159.62369791666666,59.05681805419921L159.76106770833331,82.29317858886719L159.8984375,75.56929214477539L160.17317708333334,63.03174578857423L160.310546875,51.81947184753419L160.58528645833334,68.95820385742188L160.86002604166666,52.171416763305665L160.99739583333331,66.35140667724609L161.27213541666669,71.10232217407226L161.546875,72.61218783569336L161.68424479166666,65.43093243408202L161.82161458333334,61.2126643371582L161.958984375,65.89657723999022L162.37109375,73.04104626464843L162.50846354166669,64.79134542846678L162.64583333333334,69.85779156494141L162.783203125,65.40306018066407L163.05794270833334,70.98452374267578L163.1953125,61.2245308227539L163.33268229166666,64.40254080200197L163.47005208333334,60.31637664794921L163.607421875,58.89493518066406L164.29427083333331,63.73382943725586L164.431640625,84.20175164794921L164.70638020833334,70.49595263671876L164.84375,60.355517852783194L165.11848958333334,66.97048196411134L165.255859375,56.8369962310791L165.39322916666666,65.62749401855469L165.53059895833331,65.08277914428712L165.80533854166666,44.17235299682617L165.94270833333334,83.41639617919923L166.080078125,65.37357730102539L166.35481770833334,65.13606018066406L166.4921875,41.29611882781983L166.62955729166666,50.170970108032236L166.76692708333331,67.772978515625L167.04166666666669,83.06407916259766L167.17903645833334,69.88391195678712L167.45377604166666,71.25371832275391L167.86588541666666,66.9243849182129L168.140625,68.503404296875L168.27799479166669,43.876625862121585L168.41536458333334,33.595378923416135L168.552734375,69.87910452270506L168.82747395833334,70.61396020507811L169.10221354166666,66.44493435668944L169.23958333333331,65.01487481689452L169.376953125,67.37652001953124L169.51432291666669,69.59207626342773L169.65169270833334,54.15084379577636L169.7890625,53.46053700256347L169.92643229166666,62.32219296264648L170.06380208333334,55.81876539611816L170.201171875,36.67132369899749L170.61328125,70.40836770629882L170.75065104166669,63.76664764404296L170.88802083333334,62.59986166381835L171.57486979166666,57.189736953735355L171.71223958333331,66.45795788574219L171.849609375,48.87156684875488L171.98697916666669,68.91683276367188L172.26171875,65.26696905517579L172.39908854166666,52.22024345397949L172.53645833333334,73.78713830566406L172.673828125,51.127859985351556L172.81119791666666,67.95367285156249L173.498046875,69.26607247924804L173.63541666666666,58.71447985839843L173.77278645833331,61.19120742797851L173.91015625,41.563951301574704L174.04752604166666,65.59656890869141L174.18489583333334,65.28696743774414L174.45963541666669,69.93173370361328L174.59700520833334,71.68250885009766L174.734375,39.979669208526616L174.87174479166666,74.52492733764649L175.00911458333331,61.23144592285156L175.146484375,68.72882406616212L175.28385416666666,54.74361943054198L175.42122395833334,59.52727029418946L175.55859375,75.45202062988282L175.83333333333334,57.606559143066406L175.970703125,67.32934469604493L176.10807291666666,67.55807534790038L176.24544270833331,67.22650634765625L176.3828125,36.65401685142518L176.52018229166666,73.4243807373047L176.65755208333334,74.02164602661134L176.93229166666666,74.70413055419922L177.20703125,49.79010182189941L177.48177083333331,72.2120680847168L177.619140625,74.67813781738282L177.75651041666669,84.34144970703124L178.03125,64.63442752075196L178.30598958333334,56.44875926208496L178.443359375,68.05812725830077L178.71809895833331,69.03143710327149L178.99283854166669,75.29039849853515L179.13020833333334,64.95952142333984L179.267578125,79.8065428161621L179.54231770833334,77.6857419128418L179.95442708333331,72.58897634887694L180.091796875,71.55960693359376L180.50390625,66.23146798706054L180.64127604166666,72.67794918823242L180.77864583333334,45.7020472869873L181.19075520833331,79.77661178588868L181.60286458333334,73.6208119506836L181.740234375,80.94633383178711L181.87760416666666,56.32950366210937L182.01497395833334,61.85859063720704L182.15234375,73.51759606933595L182.28971354166666,37.30713393211364L182.42708333333331,85.35151605224608L182.564453125,73.7001753540039L182.70182291666669,76.79373202514648L182.83919270833334,40.022816608428954L183.11393229166666,67.00512808227538L183.25130208333334,60.3514383239746L183.388671875,84.50736322021484L183.80078125,73.01282092285156L183.93815104166669,68.57410888671875L184.212890625,50.06014517211914L184.35026041666666,71.76690783691407L184.48763020833331,78.83929794311524L184.625,76.45313482666016L184.89973958333334,65.08665768432617L185.037109375,54.618971084594726L185.31184895833334,53.58080026245117L185.44921875,38.19396767997741L185.58658854166666,72.7481594543457L185.72395833333331,54.46849975585937L185.861328125,63.42453759765625L185.99869791666666,55.166756469726565L186.13606770833334,48.81134898376464L186.2734375,78.86853094482423L186.41080729166669,50.91495040893555L186.54817708333334,76.6385035095215L186.685546875,81.50736682128907L186.82291666666666,70.31070889282226L186.96028645833331,72.92930737304687L187.09765625,47.041257186889645L187.37239583333334,81.31154943847655L187.509765625,65.22924020385742L187.64713541666666,45.497962882995616L187.78450520833334,75.81609005737305L188.05924479166666,48.7998383026123L188.19661458333331,63.51176672363281L188.74609375,82.67085278320312L189.158203125,50.94660614013672L189.5703125,43.82832269287109L189.70768229166669,55.10225672912598L189.84505208333334,55.217432800292976L189.982421875,35.95897816467284L190.25716145833334,47.76370045471191L190.39453125,39.432958705902095L190.53190104166666,83.86045642089844L190.66927083333331,88.35926409912109L190.806640625,39.65260038757324L191.08138020833334,75.35689047241212L191.21875,37.81211346244812L191.35611979166666,83.61461999511718L191.49348958333334,57.298219284057616L191.630859375,64.13658920288086L191.76822916666666,61.17473449707032L191.90559895833331,70.83998837280274L192.04296875,73.28077426147462L192.18033854166669,45.27575485992433L192.31770833333334,48.22418202209472L192.455078125,40.409464340209965L192.72981770833334,84.28848645019531L192.8671875,82.05602270507814L193.14192708333331,60.01061026000976L193.279296875,54.18150137329103L193.41666666666669,53.489816177368155L193.69140625,73.45917352294921L193.82877604166666,79.52262445068361L193.96614583333334,57.432489288330075L194.103515625,72.60483816528321L194.24088541666666,82.39664434814453L194.37825520833334,35.94270717740059L194.927734375,53.738796447753906L195.20247395833331,41.66256141662598L195.61458333333334,67.22799746704102L195.751953125,71.69982919311525L196.02669270833334,54.209590911865234L196.1640625,71.54828637695311L196.30143229166666,74.52461227416993L196.576171875,84.07679638671874L196.71354166666666,49.12832185363769L196.85091145833334,77.88867266845703L196.98828125,42.347891700744626L197.12565104166669,41.10006684494019L197.26302083333334,40.20838152694703L197.400390625,62.31023684692382L197.53776041666666,56.58724595642089L197.67513020833331,38.100691576004024L197.8125,58.583158142089836L198.08723958333334,45.14724087524414L198.224609375,43.69753468322753L198.36197916666666,41.54144667053224L198.63671875,49.010558731079094L198.77408854166666,74.28198352050782L198.91145833333331,39.45043692016603L199.048828125,45.70419229888916L199.18619791666669,56.759147033691406L199.32356770833334,60.01231051635743L199.59830729166666,54.06080490112305L199.73567708333334,48.95450866699218L199.873046875,48.28062184143066L200.01041666666666,66.2537152709961L200.14778645833331,78.44506118774414L200.28515625,52.25124325561524L200.42252604166669,52.32070252990723L200.697265625,45.70506958770751L200.83463541666666,46.69298710632325L200.97200520833334,44.69391613769531L201.109375,68.27926379394532L201.24674479166666,46.483299461364744L201.38411458333331,43.72200302886962L201.521484375,59.69095120239257L201.65885416666669,69.50453207397462L201.79622395833334,55.05267904663087L202.07096354166666,46.437653282165535L202.20833333333334,63.13059967041016L202.48307291666666,72.84452813720702L203.03255208333334,56.15429034423829L203.169921875,41.545839225769036L203.44466145833334,47.16961567687989L203.58203125,46.25167552185058L203.71940104166666,45.569689392089856L203.994140625,78.28007928466796L204.26888020833334,71.00655102539062L204.40625,75.92683758544922L204.54361979166666,44.62385457611084L204.818359375,46.25090687561036L204.95572916666666,46.6493338394165L205.09309895833334,70.0104832763672L205.23046875,56.21734378051758L205.50520833333334,45.05189954376221L205.642578125,41.29921785736084L205.77994791666666,58.47049035644532L205.91731770833331,48.73240657043458L206.0546875,33.42979439353943L206.32942708333334,43.51178914642335L206.466796875,48.562569702148444L206.60416666666669,61.52549520874023L206.87890625,57.46670626831054L207.01627604166666,48.64916191101074L207.42838541666666,44.45491740417481L207.703125,48.51494894409179L207.84049479166666,46.88241766357423L208.115234375,47.49184956359864L208.25260416666666,48.22333189392089L208.38997395833331,74.85744967651368L208.52734375,51.68301133728027L208.66471354166669,50.050565612792965L208.80208333333334,46.344049552917475L208.939453125,65.38003067016602L209.07682291666666,46.55079570007325L209.3515625,48.31458758544921L209.48893229166666,79.6636099243164L209.62630208333331,51.72344403076171L209.763671875,45.946264938354496L209.90104166666669,42.71904258728027L210.03841145833334,66.66557385253905L210.17578125,47.97574496459961L210.45052083333334,45.77265274047852L210.587890625,47.17434434509277L210.72526041666666,60.145009277343746L210.86263020833331,57.65535731506348L211,43.479209274292L211.13736979166669,53.11780226135255L211.54947916666666,78.41060791015624L211.82421875,42.61648399353027L211.96158854166666,45.8632470703125L212.09895833333331,39.613459182739255L212.236328125,43.246457489013665L212.37369791666669,41.90215021514893L212.51106770833334,42.85705600738525L212.6484375,49.80123361206055L212.78580729166666,43.450787017822265L212.92317708333334,48.30423258972167L213.060546875,43.40294557952881L213.47265625,44.13550822448731L213.61002604166669,39.56982458877563L214.02213541666666,46.59423303985596L214.15950520833334,48.05591911315918L214.296875,42.299445938110345L214.43424479166666,51.954135681152344L214.57161458333334,42.978433532714845L214.708984375,52.457046249389656L214.98372395833334,51.68648789978028L215.12109375,34.8216852493286L215.25846354166666,45.527504837036126L215.39583333333331,44.99619577789308L215.533203125,44.77003520202636L215.67057291666666,45.92762798309326L215.80794270833334,48.48033541870117L216.08268229166669,43.50393157196045L216.22005208333334,54.49323902893066L216.357421875,46.214622970581054L216.63216145833331,37.96938649559021L216.76953125,36.27705014944077L216.90690104166666,36.98568210220338L217.181640625,42.40535547637939L217.31901041666669,46.661426437377926L217.59375,51.85493957519532L217.73111979166666,58.73771850585938L217.86848958333331,48.46402680969237L218.005859375,45.63668180084229L218.14322916666666,33.012524902343756L218.28059895833334,44.63749465179444L218.55533854166666,44.043079872131344L218.69270833333334,47.23043515014648L219.10481770833331,61.267344146728504L219.37955729166669,48.86855337524414L219.79166666666666,64.66193853759766L220.34114583333331,43.370107002258294L221.02799479166666,43.747094032287606L221.44010416666666,46.31233950042725L221.57747395833331,49.042529525756834L221.71484375,44.464779434204104L221.85221354166669,49.208308593750004L221.98958333333334,50.03568022155762L222.126953125,45.068898033142084L222.40169270833334,45.82071961212158L222.5390625,52.788533767700194L222.81380208333331,46.27895771026611L222.951171875,59.64837145996094L223.22591145833334,44.05147658538819L223.36328125,48.461203460693355" style="fill: none;" fill="none"></path></g></g></g></g></g></g><g transform="translate(82, 178)" clip-path="url(#clip_1)"><clipPath id="clip_1"><rect width="247" height="22"></rect></clipPath><g><g><line x1="0" y1="0" x2="0" y2="5" style="visibility: inherit;" fill="rgb(0, 0, 0)" stroke="rgb(204, 204, 204)" stroke-width="1px"></line><line x1="27.473958333333332" y1="0" x2="27.473958333333332" y2="5" style="visibility: inherit;" fill="rgb(0, 0, 0)" stroke="rgb(204, 204, 204)" stroke-width="1px"></line><line x1="54.947916666666664" y1="0" x2="54.947916666666664" y2="5" style="visibility: inherit;" fill="rgb(0, 0, 0)" stroke="rgb(204, 204, 204)" stroke-width="1px"></line><line x1="82.421875" y1="0" x2="82.421875" y2="5" style="visibility: inherit;" fill="rgb(0, 0, 0)" stroke="rgb(204, 204, 204)" stroke-width="1px"></line><line x1="109.89583333333333" y1="0" x2="109.89583333333333" y2="5" style="visibility: inherit;" fill="rgb(0, 0, 0)" stroke="rgb(204, 204, 204)" stroke-width="1px"></line><line x1="137.36979166666669" y1="0" x2="137.36979166666669" y2="5" style="visibility: inherit;" fill="rgb(0, 0, 0)" stroke="rgb(204, 204, 204)" stroke-width="1px"></line><line x1="164.84375" y1="0" x2="164.84375" y2="5" style="visibility: inherit;" fill="rgb(0, 0, 0)" stroke="rgb(204, 204, 204)" stroke-width="1px"></line><line x1="192.31770833333334" y1="0" x2="192.31770833333334" y2="5" style="visibility: inherit;" fill="rgb(0, 0, 0)" stroke="rgb(204, 204, 204)" stroke-width="1px"></line><line x1="219.79166666666666" y1="0" x2="219.79166666666666" y2="5" style="visibility: inherit;" fill="rgb(0, 0, 0)" stroke="rgb(204, 204, 204)" stroke-width="1px"></line><line x1="247.265625" y1="0" x2="247.265625" y2="5" style="visibility: inherit;" fill="rgb(0, 0, 0)" stroke="rgb(204, 204, 204)" stroke-width="1px"></line></g><g transform="translate(0, 8)"><text x="0" y="0" dx="0em" dy="0.95em" style="text-anchor: middle; visibility: hidden; font-family: Roboto, sans-serif; font-size: 12px; font-weight: 200;" fill="rgb(50, 49, 63)" stroke="none" stroke-width="1px">-200</text><text x="27.473958333333332" y="0" dx="0em" dy="0.95em" style="text-anchor: middle; visibility: inherit; font-family: Roboto, sans-serif; font-size: 12px; font-weight: 200;" fill="rgb(50, 49, 63)" stroke="none" stroke-width="1px">0</text><text x="54.947916666666664" y="0" dx="0em" dy="0.95em" style="text-anchor: middle; visibility: inherit; font-family: Roboto, sans-serif; font-size: 12px; font-weight: 200;" fill="rgb(50, 49, 63)" stroke="none" stroke-width="1px">200</text><text x="82.421875" y="0" dx="0em" dy="0.95em" style="text-anchor: middle; visibility: inherit; font-family: Roboto, sans-serif; font-size: 12px; font-weight: 200;" fill="rgb(50, 49, 63)" stroke="none" stroke-width="1px">400</text><text x="109.89583333333333" y="0" dx="0em" dy="0.95em" style="text-anchor: middle; visibility: inherit; font-family: Roboto, sans-serif; font-size: 12px; font-weight: 200;" fill="rgb(50, 49, 63)" stroke="none" stroke-width="1px">600</text><text x="137.36979166666669" y="0" dx="0em" dy="0.95em" style="text-anchor: middle; visibility: inherit; font-family: Roboto, sans-serif; font-size: 12px; font-weight: 200;" fill="rgb(50, 49, 63)" stroke="none" stroke-width="1px">800</text><text x="164.84375" y="0" dx="0em" dy="0.95em" style="text-anchor: middle; visibility: inherit; font-family: Roboto, sans-serif; font-size: 12px; font-weight: 200;" fill="rgb(50, 49, 63)" stroke="none" stroke-width="1px">1k</text><text x="192.31770833333334" y="0" dx="0em" dy="0.95em" style="text-anchor: middle; visibility: inherit; font-family: Roboto, sans-serif; font-size: 12px; font-weight: 200;" fill="rgb(50, 49, 63)" stroke="none" stroke-width="1px">1.2k</text><text x="219.79166666666666" y="0" dx="0em" dy="0.95em" style="text-anchor: middle; visibility: inherit; font-family: Roboto, sans-serif; font-size: 12px; font-weight: 200;" fill="rgb(50, 49, 63)" stroke="none" stroke-width="1px">1.4k</text><text x="247.265625" y="0" dx="0em" dy="0.95em" style="text-anchor: middle; visibility: hidden; font-family: Roboto, sans-serif; font-size: 12px; font-weight: 200;" fill="rgb(50, 49, 63)" stroke="none" stroke-width="1px">1.6k</text></g><line x1="0" y1="0" x2="247.265625" y2="0" fill="rgb(0, 0, 0)" stroke="rgb(204, 204, 204)" stroke-width="1px"></line></g></g></g></g></svg>