<svg viewBox="0 0 330 200" xmlns="http://www.w3.org/2000/svg"><g><g><g><g><g><line x1="60" y1="178" x2="55" y2="178" style="visibility: inherit;" fill="rgb(0, 0, 0)" stroke="rgb(204, 204, 204)" stroke-width="1px"></line><line x1="60" y1="160.20000000000002" x2="55" y2="160.20000000000002" style="visibility: inherit;" fill="rgb(0, 0, 0)" stroke="rgb(204, 204, 204)" stroke-width="1px"></line><line x1="60" y1="142.39999999999998" x2="55" y2="142.39999999999998" style="visibility: inherit;" fill="rgb(0, 0, 0)" stroke="rgb(204, 204, 204)" stroke-width="1px"></line><line x1="60" y1="124.6" x2="55" y2="124.6" style="visibility: inherit;" fill="rgb(0, 0, 0)" stroke="rgb(204, 204, 204)" stroke-width="1px"></line><line x1="60" y1="106.79999999999998" x2="55" y2="106.79999999999998" style="visibility: inherit;" fill="rgb(0, 0, 0)" stroke="rgb(204, 204, 204)" stroke-width="1px"></line><line x1="60" y1="88.99999999999999" x2="55" y2="88.99999999999999" style="visibility: inherit;" fill="rgb(0, 0, 0)" stroke="rgb(204, 204, 204)" stroke-width="1px"></line><line x1="60" y1="71.19999999999999" x2="55" y2="71.19999999999999" style="visibility: inherit;" fill="rgb(0, 0, 0)" stroke="rgb(204, 204, 204)" stroke-width="1px"></line><line x1="60" y1="53.39999999999999" x2="55" y2="53.39999999999999" style="visibility: inherit;" fill="rgb(0, 0, 0)" stroke="rgb(204, 204, 204)" stroke-width="1px"></line><line x1="60" y1="35.59999999999997" x2="55" y2="35.59999999999997" style="visibility: inherit;" fill="rgb(0, 0, 0)" stroke="rgb(204, 204, 204)" stroke-width="1px"></line><line x1="60" y1="17.799999999999958" x2="55" y2="17.799999999999958" style="visibility: inherit;" fill="rgb(0, 0, 0)" stroke="rgb(204, 204, 204)" stroke-width="1px"></line><line x1="60" y1="0" x2="55" y2="0" style="visibility: inherit;" fill="rgb(0, 0, 0)" stroke="rgb(204, 204, 204)" stroke-width="1px"></line></g><g transform="translate(50, 0)"><text x="0" y="178" dx="0em" dy="0.3em" style="text-anchor: end; visibility: hidden; font-family: Roboto, sans-serif; font-size: 12px; font-weight: 200;" fill="rgb(50, 49, 63)" stroke="none" stroke-width="1px">-1e-3</text><text x="0" y="160.20000000000002" dx="0em" dy="0.3em" style="text-anchor: end; visibility: inherit; font-family: Roboto, sans-serif; font-size: 12px; font-weight: 200;" fill="rgb(50, 49, 63)" stroke="none" stroke-width="1px">0</text><text x="0" y="142.39999999999998" dx="0em" dy="0.3em" style="text-anchor: end; visibility: hidden; font-family: Roboto, sans-serif; font-size: 12px; font-weight: 200;" fill="rgb(50, 49, 63)" stroke="none" stroke-width="1px">1e-3</text><text x="0" y="124.6" dx="0em" dy="0.3em" style="text-anchor: end; visibility: inherit; font-family: Roboto, sans-serif; font-size: 12px; font-weight: 200;" fill="rgb(50, 49, 63)" stroke="none" stroke-width="1px">2e-3</text><text x="0" y="106.79999999999998" dx="0em" dy="0.3em" style="text-anchor: end; visibility: hidden; font-family: Roboto, sans-serif; font-size: 12px; font-weight: 200;" fill="rgb(50, 49, 63)" stroke="none" stroke-width="1px">3e-3</text><text x="0" y="88.99999999999999" dx="0em" dy="0.3em" style="text-anchor: end; visibility: inherit; font-family: Roboto, sans-serif; font-size: 12px; font-weight: 200;" fill="rgb(50, 49, 63)" stroke="none" stroke-width="1px">4e-3</text><text x="0" y="71.19999999999999" dx="0em" dy="0.3em" style="text-anchor: end; visibility: hidden; font-family: Roboto, sans-serif; font-size: 12px; font-weight: 200;" fill="rgb(50, 49, 63)" stroke="none" stroke-width="1px">5e-3</text><text x="0" y="53.39999999999999" dx="0em" dy="0.3em" style="text-anchor: end; visibility: inherit; font-family: Roboto, sans-serif; font-size: 12px; font-weight: 200;" fill="rgb(50, 49, 63)" stroke="none" stroke-width="1px">6e-3</text><text x="0" y="35.59999999999997" dx="0em" dy="0.3em" style="text-anchor: end; visibility: hidden; font-family: Roboto, sans-serif; font-size: 12px; font-weight: 200;" fill="rgb(50, 49, 63)" stroke="none" stroke-width="1px">7e-3</text><text x="0" y="17.799999999999958" dx="0em" dy="0.3em" style="text-anchor: end; visibility: inherit; font-family: Roboto, sans-serif; font-size: 12px; font-weight: 200;" fill="rgb(50, 49, 63)" stroke="none" stroke-width="1px">8e-3</text><text x="0" y="0" dx="0em" dy="0.3em" style="text-anchor: end; visibility: hidden; font-family: Roboto, sans-serif; font-size: 12px; font-weight: 200;" fill="rgb(50, 49, 63)" stroke="none" stroke-width="1px">9e-3</text></g><line x1="60" y1="0" x2="60" y2="178" fill="rgb(0, 0, 0)" stroke="rgb(204, 204, 204)" stroke-width="1px"></line></g></g><g transform="translate(60, 0)" clip-path="url(#clip_0)"><clipPath id="clip_0"><rect width="270" height="178"></rect></clipPath><g><g><g><line x1="0" y1="0" x2="0" y2="178" fill="rgb(0, 0, 0)" stroke="rgb(60, 60, 60)" stroke-width="1px" opacity="0.25"></line><line x1="30" y1="0" x2="30" y2="178" fill="rgb(0, 0, 0)" stroke="rgb(60, 60, 60)" stroke-width="1px" opacity="0.25"></line><line x1="60" y1="0" x2="60" y2="178" fill="rgb(0, 0, 0)" stroke="rgb(60, 60, 60)" stroke-width="1px" opacity="0.25"></line><line x1="90" y1="0" x2="90" y2="178" fill="rgb(0, 0, 0)" stroke="rgb(60, 60, 60)" stroke-width="1px" opacity="0.25"></line><line x1="120" y1="0" x2="120" y2="178" fill="rgb(0, 0, 0)" stroke="rgb(60, 60, 60)" stroke-width="1px" opacity="0.25"></line><line x1="150" y1="0" x2="150" y2="178" fill="rgb(0, 0, 0)" stroke="rgb(60, 60, 60)" stroke-width="1px" opacity="0.25"></line><line x1="180" y1="0" x2="180" y2="178" fill="rgb(0, 0, 0)" stroke="rgb(60, 60, 60)" stroke-width="1px" opacity="0.25"></line><line x1="210" y1="0" x2="210" y2="178" fill="rgb(0, 0, 0)" stroke="rgb(60, 60, 60)" stroke-width="1px" opacity="0.25"></line><line x1="240" y1="0" x2="240" y2="178" fill="rgb(0, 0, 0)" stroke="rgb(60, 60, 60)" stroke-width="1px" opacity="0.25"></line><line x1="270" y1="0" x2="270" y2="178" fill="rgb(0, 0, 0)" stroke="rgb(60, 60, 60)" stroke-width="1px" opacity="0.25"></line></g><g><line x1="0" y1="178" x2="270" y2="178" fill="rgb(0, 0, 0)" stroke="rgb(60, 60, 60)" stroke-width="1px" opacity="0.25"></line><line x1="0" y1="160.20000000000002" x2="270" y2="160.20000000000002" fill="rgb(0, 0, 0)" stroke="rgb(60, 60, 60)" stroke-width="1px" opacity="0.25"></line><line x1="0" y1="142.39999999999998" x2="270" y2="142.39999999999998" fill="rgb(0, 0, 0)" stroke="rgb(60, 60, 60)" stroke-width="1px" opacity="0.25"></line><line x1="0" y1="124.6" x2="270" y2="124.6" fill="rgb(0, 0, 0)" stroke="rgb(60, 60, 60)" stroke-width="1px" opacity="0.25"></line><line x1="0" y1="106.79999999999998" x2="270" y2="106.79999999999998" fill="rgb(0, 0, 0)" stroke="rgb(60, 60, 60)" stroke-width="1px" opacity="0.25"></line><line x1="0" y1="88.99999999999999" x2="270" y2="88.99999999999999" fill="rgb(0, 0, 0)" stroke="rgb(60, 60, 60)" stroke-width="1px" opacity="0.25"></line><line x1="0" y1="71.19999999999999" x2="270" y2="71.19999999999999" fill="rgb(0, 0, 0)" stroke="rgb(60, 60, 60)" stroke-width="1px" opacity="0.25"></line><line x1="0" y1="53.39999999999999" x2="270" y2="53.39999999999999" fill="rgb(0, 0, 0)" stroke="rgb(60, 60, 60)" stroke-width="1px" opacity="0.25"></line><line x1="0" y1="35.59999999999997" x2="270" y2="35.59999999999997" fill="rgb(0, 0, 0)" stroke="rgb(60, 60, 60)" stroke-width="1px" opacity="0.25"></line><line x1="0" y1="17.799999999999958" x2="270" y2="17.799999999999958" fill="rgb(0, 0, 0)" stroke="rgb(60, 60, 60)" stroke-width="1px" opacity="0.25"></line><line x1="0" y1="0" x2="270" y2="0" fill="rgb(0, 0, 0)" stroke="rgb(60, 60, 60)" stroke-width="1px" opacity="0.25"></line></g></g></g><g><g><line x1="0" y1="160.20000000000002" x2="270" y2="160.20000000000002" fill="rgb(0, 0, 0)" stroke="rgb(153, 153, 153)" stroke-width="1.5px"></line></g></g><g><g><line x1="30" y1="0" x2="30" y2="178" fill="rgb(0, 0, 0)" stroke="rgb(153, 153, 153)" stroke-width="1.5px"></line></g></g><g><g><g><g><g><path stroke="rgb(204, 51, 17)" stroke-width="2px" d="M30,160.20000000000002L31.5,160.189777018742L33,153.08897012810857L34.5,97.94058122140585L36,131.5174361888036L37.5,133.5031529762806L38.99999999999999,135.80480658703584L40.5,136.9256004144686L42,137.49871699885517L43.5,32.09515714518963L45,102.76796065700198L46.5,81.12840076935237L48,68.72370752693112L49.5,66.12150385017692L51,117.44060533500536L52.5,140.23620188723734L54,130.89230431417343L55.5,146.28598802674958L57,152.41324832736282L58.5,155.72154931290905L60,105.02875274685182L61.5,113.97408398995641L63,139.60557247568732L64.5,123.36154017305081L66,121.66354276247047L67.5,115.38923654724185L69,117.05746079267162L70.5,140.6683882548864L72,141.34695928571784L73.5,126.72982777316079L75,117.79385843997079L76.5,122.41161685271717L77.99999999999999,117.59907079339632L79.5,120.76349098676714L81,115.67936772397779L82.5,43.61039397955423L84,84.6996087121524L85.5,101.81378802221484L87,107.65344061274406L88.5,107.47138673795511L90,110.57577847431085L91.5,114.05368314733816L93,124.11218843449024L94.5,144.14186067278598L96,134.44993230832438L97.5,120.99328572651112L99,118.49416134716122L100.5,140.95983760394458L102,118.58626663663222L103.5,114.41723239821451L105,106.37971688021756L106.5,109.52494771843999L108,109.7329168488111L109.5,97.56722337666923L111,103.22056743430174L112.5,104.66913554274014L114,105.56613044743305L115.5,105.67902302725312L117,108.51148481577282L118.5,110.1605624525553L120,112.35226385337447L121.5,107.19772099636835L123,105.20216960665047L124.50000000000001,105.57618916066289L126,105.14747944533254L127.5,106.20486877027749L129,112.68104311165524L130.5,116.26283389135838L132,113.77108060750594L133.5,110.70785164063184L135,105.95456507787249L136.5,113.49696028030232L138,116.71340647223137L139.5,115.0851514969995L141,114.73743428951569L142.5,111.7798692916939L144,111.79881161961764L145.5,138.11505342013268L147,118.5059659639756L148.5,95.17532841330282L150,98.95404405756477L151.5,107.39529935397158L153,102.2756239265798L154.5,60.922280997431535L155.99999999999997,88.09515247416762L157.5,103.29746202149268L159,105.77899176712394L160.5,104.87057496044588L162,96.94068922042933L163.5,101.51513332542265L165,105.33264798385053L166.5,109.09295243060348L168,106.81700165248157L169.5,105.12436122107293L171,109.72553304762629L172.5,109.6703528542396L174,137.15199387331756L175.5,123.40993797416236L177,118.13409563323451L178.5,114.62539604039834L180,111.74499409365326L181.50000000000003,137.76881945681083L183,122.76741503008051L184.5,115.3403825515435L186,137.94962575972409L187.5,123.10676655881446L189,120.05295032211022L190.5,120.40760614009136L192,122.99946518241624L193.5,141.79561404656096L195,125.2051226787662L196.5,144.27547806614567L198,127.55554391046049L199.5,120.98256771447505L201,142.02310668279216L202.5,119.90488301800845L204,112.72029078877915L205.5,111.72153130625327L207,108.38628787479541L208.5,105.41480079826064L210,106.24765896829591L211.5,109.6971198185587L213,106.77949510026679L214.5,110.804873021992L216,113.7809605534016L217.5,138.77827597015875L219,125.76004195732L220.5,120.95923078848682L222,142.07122050072266L223.49999999999997,132.24170179424212L225,117.54967648354902L226.5,116.9111881199594L228,113.18308384003828L229.5,114.02529498530701L231,112.99416252713061L232.5,118.72506326801714L234,117.94479290509636L235.5,116.27114141529077L237,115.6483598067967L238.5,116.46275175419997L240,119.58315669575106L241.5,119.99711737923369L243,118.81871955150847L244.5,140.95174345064297L246,127.95066883239517L247.5,124.35741202094309L249.00000000000003,121.34964970431636L250.5,116.15654254787589L252,117.55865299396199L253.5,111.95056928577691L255,53.01329556896459L256.5,89.7335135021455L258,105.4834164175825" style="fill: none;" fill="none"></path></g></g></g></g><g opacity="0.2"><g><g><g><path stroke="rgb(204, 51, 17)" stroke-width="2px" d="M30,160.20000000000002L31.5,160.18524823804475L33,148.54978642407804L34.5,57.8925211958587L36,157.19368998699358L37.5,135.0555119615048L38.99999999999999,137.621549661085L40.5,137.81401906609534L42,137.95385892018675L43.5,-51.68059579581028L45,158.9599503976526L46.5,63.91998278424142L48,58.858419959247094L49.5,64.05194001719354L51,158.25587836599445L52.5,158.36618235054195L54,123.46081864535807L55.5,158.52906744850335L57,157.2864532486303L58.5,158.35274690045046L60,64.71114596799015L61.5,121.0885931316763L63,159.99111863431173L64.5,110.44213935248553L66,120.31307085864245L67.5,110.39907918758689L69,118.38425314500927L70.5,159.44691763153534L72,141.88664863333105L73.5,115.10435333922504L75,110.6867948591709L76.5,126.08426851667463L77.99999999999999,113.77149825431405L79.5,123.2802560597658L81,111.63580110743641L82.5,-13.708376879990157L84,117.37918165028094L85.5,115.42524481639265L87,112.29790398366748L88.5,107.32659344077109L90,113.04480098634957L91.5,116.81977250128983L93,132.11204093396663L94.5,160.07210268636774L96,126.74163021594285L97.5,110.29078225120901L99,116.50652741529046L100.5,158.82751189793927L102,100.79184663929044L103.5,111.10146549046038L105,99.98722249157726L106.5,112.02645088061689L108,109.8983213815838L109.5,87.8914563961327L111,107.71685364171861L112.5,105.82122831121086L114,106.27953932136296L115.5,105.76881012395023L117,110.76423270143567L118.5,111.47212689258157L120,114.09539441093801L121.5,103.09814741350709L123,103.6150434564799L124.50000000000001,105.87365893162786L126,104.806512831524L127.5,107.04584448114036L129,117.83175268657504L130.5,119.11154720447956L132,111.78930914476513L133.5,108.2715672019869L135,102.17412352077662L136.5,119.49566957056521L138,119.27154949381946L139.5,113.79014798887073L141,114.46088362000881L142.5,109.42762280330061L144,111.81387706175445L145.5,159.04520623454593L147,102.91022854372858L148.5,76.61972260549663L150,101.95937804393469L151.5,114.1089009631425L153,98.20378153100609L154.5,28.03263841643926L155.99999999999997,109.7066103991121L157.5,115.38834735266863L159,107.75263212136923L160.5,104.14808188080787L162,90.63379625305532L163.5,105.1533357284963L165,108.36884007304906L166.5,112.08364339992403L168,105.00686485767363L169.5,103.77814989052712L171,113.38499286659061L172.5,109.62646627314388L174,159.00902613804212L175.5,112.4804392967373L177,113.93804867267608L178.5,111.83481449708341L180,109.45411785952746L181.50000000000003,158.46640408136884L183,110.83631599768995L184.5,109.43342494294046L186,155.93148346389646L187.5,111.30176363959907L189,117.62415213026105L190.5,120.68967530950903L192,125.06085397191345L193.5,156.74479527962396L195,112.01017173454164L196.5,159.44274455916022L198,114.25764295719563L199.5,115.75486851371824L201,158.75732349242318L202.5,102.31354893632232L204,107.0061537016183L205.5,110.92718579322099L207,105.73366159088908L208.5,103.05148163326083L210,106.91005783602594L211.5,112.44058688618242L213,104.45901439972221L214.5,114.00638544447719L216,116.14793860800563L217.5,158.65944424596384L219,115.40622208714484L220.5,117.14099138490855L222,158.86226438316518L223.49999999999997,124.42396968118845L225,105.86463660448788L226.5,116.40337780565022L228,110.21800269819795L229.5,114.69513257481157L231,112.17406974621116L232.5,123.28303279802202L234,117.32421881034969L235.5,114.94003260023891L237,115.15304157957434L238.5,117.110463841632L240,122.06491502448915L241.5,120.32635361403226L243,117.88150188960134L244.5,158.55484863433523L246,117.61049638018011L247.5,121.49957940429448L249.00000000000003,118.95747967511414L250.5,112.02629753835498L252,118.67379649057983L253.5,107.4902800887823L255,6.1385877475142125L256.5,118.93828288167714L258,118.00982035212218" style="fill: none;" fill="none"></path></g></g></g></g></g></g><g transform="translate(60, 178)" clip-path="url(#clip_1)"><clipPath id="clip_1"><rect width="270" height="22"></rect></clipPath><g><g><line x1="0" y1="0" x2="0" y2="5" style="visibility: inherit;" fill="rgb(0, 0, 0)" stroke="rgb(204, 204, 204)" stroke-width="1px"></line><line x1="30" y1="0" x2="30" y2="5" style="visibility: inherit;" fill="rgb(0, 0, 0)" stroke="rgb(204, 204, 204)" stroke-width="1px"></line><line x1="60" y1="0" x2="60" y2="5" style="visibility: inherit;" fill="rgb(0, 0, 0)" stroke="rgb(204, 204, 204)" stroke-width="1px"></line><line x1="90" y1="0" x2="90" y2="5" style="visibility: inherit;" fill="rgb(0, 0, 0)" stroke="rgb(204, 204, 204)" stroke-width="1px"></line><line x1="120" y1="0" x2="120" y2="5" style="visibility: inherit;" fill="rgb(0, 0, 0)" stroke="rgb(204, 204, 204)" stroke-width="1px"></line><line x1="150" y1="0" x2="150" y2="5" style="visibility: inherit;" fill="rgb(0, 0, 0)" stroke="rgb(204, 204, 204)" stroke-width="1px"></line><line x1="180" y1="0" x2="180" y2="5" style="visibility: inherit;" fill="rgb(0, 0, 0)" stroke="rgb(204, 204, 204)" stroke-width="1px"></line><line x1="210" y1="0" x2="210" y2="5" style="visibility: inherit;" fill="rgb(0, 0, 0)" stroke="rgb(204, 204, 204)" stroke-width="1px"></line><line x1="240" y1="0" x2="240" y2="5" style="visibility: inherit;" fill="rgb(0, 0, 0)" stroke="rgb(204, 204, 204)" stroke-width="1px"></line><line x1="270" y1="0" x2="270" y2="5" style="visibility: inherit;" fill="rgb(0, 0, 0)" stroke="rgb(204, 204, 204)" stroke-width="1px"></line></g><g transform="translate(0, 8)"><text x="0" y="0" dx="0em" dy="0.95em" style="text-anchor: middle; visibility: hidden; font-family: Roboto, sans-serif; font-size: 12px; font-weight: 200;" fill="rgb(50, 49, 63)" stroke="none" stroke-width="1px">-20</text><text x="30" y="0" dx="0em" dy="0.95em" style="text-anchor: middle; visibility: inherit; font-family: Roboto, sans-serif; font-size: 12px; font-weight: 200;" fill="rgb(50, 49, 63)" stroke="none" stroke-width="1px">0</text><text x="60" y="0" dx="0em" dy="0.95em" style="text-anchor: middle; visibility: inherit; font-family: Roboto, sans-serif; font-size: 12px; font-weight: 200;" fill="rgb(50, 49, 63)" stroke="none" stroke-width="1px">20</text><text x="90" y="0" dx="0em" dy="0.95em" style="text-anchor: middle; visibility: inherit; font-family: Roboto, sans-serif; font-size: 12px; font-weight: 200;" fill="rgb(50, 49, 63)" stroke="none" stroke-width="1px">40</text><text x="120" y="0" dx="0em" dy="0.95em" style="text-anchor: middle; visibility: inherit; font-family: Roboto, sans-serif; font-size: 12px; font-weight: 200;" fill="rgb(50, 49, 63)" stroke="none" stroke-width="1px">60</text><text x="150" y="0" dx="0em" dy="0.95em" style="text-anchor: middle; visibility: inherit; font-family: Roboto, sans-serif; font-size: 12px; font-weight: 200;" fill="rgb(50, 49, 63)" stroke="none" stroke-width="1px">80</text><text x="180" y="0" dx="0em" dy="0.95em" style="text-anchor: middle; visibility: inherit; font-family: Roboto, sans-serif; font-size: 12px; font-weight: 200;" fill="rgb(50, 49, 63)" stroke="none" stroke-width="1px">100</text><text x="210" y="0" dx="0em" dy="0.95em" style="text-anchor: middle; visibility: inherit; font-family: Roboto, sans-serif; font-size: 12px; font-weight: 200;" fill="rgb(50, 49, 63)" stroke="none" stroke-width="1px">120</text><text x="240" y="0" dx="0em" dy="0.95em" style="text-anchor: middle; visibility: inherit; font-family: Roboto, sans-serif; font-size: 12px; font-weight: 200;" fill="rgb(50, 49, 63)" stroke="none" stroke-width="1px">140</text><text x="270" y="0" dx="0em" dy="0.95em" style="text-anchor: middle; visibility: hidden; font-family: Roboto, sans-serif; font-size: 12px; font-weight: 200;" fill="rgb(50, 49, 63)" stroke="none" stroke-width="1px">160</text></g><line x1="0" y1="0" x2="270" y2="0" fill="rgb(0, 0, 0)" stroke="rgb(204, 204, 204)" stroke-width="1px"></line></g></g></g></g></svg>