<svg viewBox="0 0 1129.4000244140625 400" xmlns="http://www.w3.org/2000/svg"><g><g><g><g><g><line x1="49.98400115966797" y1="369.76641772608014" x2="44.98400115966797" y2="369.76641772608014" style="visibility: inherit;" fill="rgb(0, 0, 0)" stroke="rgb(204, 204, 204)" stroke-width="1px"></line><line x1="49.98400115966797" y1="339.6572111274418" x2="44.98400115966797" y2="339.6572111274418" style="visibility: inherit;" fill="rgb(0, 0, 0)" stroke="rgb(204, 204, 204)" stroke-width="1px"></line><line x1="49.98400115966797" y1="309.54800452880346" x2="44.98400115966797" y2="309.54800452880346" style="visibility: inherit;" fill="rgb(0, 0, 0)" stroke="rgb(204, 204, 204)" stroke-width="1px"></line><line x1="49.98400115966797" y1="279.43879793016515" x2="44.98400115966797" y2="279.43879793016515" style="visibility: inherit;" fill="rgb(0, 0, 0)" stroke="rgb(204, 204, 204)" stroke-width="1px"></line><line x1="49.98400115966797" y1="249.3295913315268" x2="44.98400115966797" y2="249.3295913315268" style="visibility: inherit;" fill="rgb(0, 0, 0)" stroke="rgb(204, 204, 204)" stroke-width="1px"></line><line x1="49.98400115966797" y1="219.22038473288848" x2="44.98400115966797" y2="219.22038473288848" style="visibility: inherit;" fill="rgb(0, 0, 0)" stroke="rgb(204, 204, 204)" stroke-width="1px"></line><line x1="49.98400115966797" y1="189.11117813425048" x2="44.98400115966797" y2="189.11117813425048" style="visibility: inherit;" fill="rgb(0, 0, 0)" stroke="rgb(204, 204, 204)" stroke-width="1px"></line><line x1="49.98400115966797" y1="159.00197153561217" x2="44.98400115966797" y2="159.00197153561217" style="visibility: inherit;" fill="rgb(0, 0, 0)" stroke="rgb(204, 204, 204)" stroke-width="1px"></line><line x1="49.98400115966797" y1="128.89276493697383" x2="44.98400115966797" y2="128.89276493697383" style="visibility: inherit;" fill="rgb(0, 0, 0)" stroke="rgb(204, 204, 204)" stroke-width="1px"></line><line x1="49.98400115966797" y1="98.78355833833547" x2="44.98400115966797" y2="98.78355833833547" style="visibility: inherit;" fill="rgb(0, 0, 0)" stroke="rgb(204, 204, 204)" stroke-width="1px"></line><line x1="49.98400115966797" y1="68.6743517396971" x2="44.98400115966797" y2="68.6743517396971" style="visibility: inherit;" fill="rgb(0, 0, 0)" stroke="rgb(204, 204, 204)" stroke-width="1px"></line><line x1="49.98400115966797" y1="38.56514514105879" x2="44.98400115966797" y2="38.56514514105879" style="visibility: inherit;" fill="rgb(0, 0, 0)" stroke="rgb(204, 204, 204)" stroke-width="1px"></line><line x1="49.98400115966797" y1="8.455938542420483" x2="44.98400115966797" y2="8.455938542420483" style="visibility: inherit;" fill="rgb(0, 0, 0)" stroke="rgb(204, 204, 204)" stroke-width="1px"></line></g><g transform="translate(39.98400115966797, 0)"><text style="text-anchor: end; visibility: inherit; font-family: &quot;Helvetica Neue&quot;, sans-serif; font-size: 12px; font-weight: 200;" x="0" y="369.76641772608014" dx="0em" dy="0.3em" fill="rgb(50, 49, 63)" stroke="none" stroke-width="1px">0.88</text><text style="text-anchor: end; visibility: inherit; font-family: &quot;Helvetica Neue&quot;, sans-serif; font-size: 12px; font-weight: 200;" x="0" y="339.6572111274418" dx="0em" dy="0.3em" fill="rgb(50, 49, 63)" stroke="none" stroke-width="1px">0.89</text><text style="text-anchor: end; visibility: inherit; font-family: &quot;Helvetica Neue&quot;, sans-serif; font-size: 12px; font-weight: 200;" x="0" y="309.54800452880346" dx="0em" dy="0.3em" fill="rgb(50, 49, 63)" stroke="none" stroke-width="1px">0.9</text><text style="text-anchor: end; visibility: inherit; font-family: &quot;Helvetica Neue&quot;, sans-serif; font-size: 12px; font-weight: 200;" x="0" y="279.43879793016515" dx="0em" dy="0.3em" fill="rgb(50, 49, 63)" stroke="none" stroke-width="1px">0.91</text><text style="text-anchor: end; visibility: inherit; font-family: &quot;Helvetica Neue&quot;, sans-serif; font-size: 12px; font-weight: 200;" x="0" y="249.3295913315268" dx="0em" dy="0.3em" fill="rgb(50, 49, 63)" stroke="none" stroke-width="1px">0.92</text><text style="text-anchor: end; visibility: inherit; font-family: &quot;Helvetica Neue&quot;, sans-serif; font-size: 12px; font-weight: 200;" x="0" y="219.22038473288848" dx="0em" dy="0.3em" fill="rgb(50, 49, 63)" stroke="none" stroke-width="1px">0.93</text><text style="text-anchor: end; visibility: inherit; font-family: &quot;Helvetica Neue&quot;, sans-serif; font-size: 12px; font-weight: 200;" x="0" y="189.11117813425048" dx="0em" dy="0.3em" fill="rgb(50, 49, 63)" stroke="none" stroke-width="1px">0.94</text><text style="text-anchor: end; visibility: inherit; font-family: &quot;Helvetica Neue&quot;, sans-serif; font-size: 12px; font-weight: 200;" x="0" y="159.00197153561217" dx="0em" dy="0.3em" fill="rgb(50, 49, 63)" stroke="none" stroke-width="1px">0.95</text><text style="text-anchor: end; visibility: inherit; font-family: &quot;Helvetica Neue&quot;, sans-serif; font-size: 12px; font-weight: 200;" x="0" y="128.89276493697383" dx="0em" dy="0.3em" fill="rgb(50, 49, 63)" stroke="none" stroke-width="1px">0.96</text><text style="text-anchor: end; visibility: inherit; font-family: &quot;Helvetica Neue&quot;, sans-serif; font-size: 12px; font-weight: 200;" x="0" y="98.78355833833547" dx="0em" dy="0.3em" fill="rgb(50, 49, 63)" stroke="none" stroke-width="1px">0.97</text><text style="text-anchor: end; visibility: inherit; font-family: &quot;Helvetica Neue&quot;, sans-serif; font-size: 12px; font-weight: 200;" x="0" y="68.6743517396971" dx="0em" dy="0.3em" fill="rgb(50, 49, 63)" stroke="none" stroke-width="1px">0.98</text><text style="text-anchor: end; visibility: inherit; font-family: &quot;Helvetica Neue&quot;, sans-serif; font-size: 12px; font-weight: 200;" x="0" y="38.56514514105879" dx="0em" dy="0.3em" fill="rgb(50, 49, 63)" stroke="none" stroke-width="1px">0.99</text><text style="text-anchor: end; visibility: inherit; font-family: &quot;Helvetica Neue&quot;, sans-serif; font-size: 12px; font-weight: 200;" x="0" y="8.455938542420483" dx="0em" dy="0.3em" fill="rgb(50, 49, 63)" stroke="none" stroke-width="1px">1</text></g><line x1="49.98400115966797" y1="0" x2="49.98400115966797" y2="378.60799980163574" fill="rgb(0, 0, 0)" stroke="rgb(204, 204, 204)" stroke-width="1px"></line></g></g><g transform="translate(49, 0)" clip-path="url(#clip_0)"><clipPath id="clip_0"><rect width="1079" height="378"></rect></clipPath><g><g><g><line x1="28.76727849688586" y1="0" x2="28.76727849688586" y2="378.60799980163574" fill="rgb(0, 0, 0)" stroke="rgb(60, 60, 60)" stroke-width="1px" opacity="0.25"></line><line x1="197.0231170697063" y1="0" x2="197.0231170697063" y2="378.60799980163574" fill="rgb(0, 0, 0)" stroke="rgb(60, 60, 60)" stroke-width="1px" opacity="0.25"></line><line x1="365.27895564252674" y1="0" x2="365.27895564252674" y2="378.60799980163574" fill="rgb(0, 0, 0)" stroke="rgb(60, 60, 60)" stroke-width="1px" opacity="0.25"></line><line x1="533.5347942153471" y1="0" x2="533.5347942153471" y2="378.60799980163574" fill="rgb(0, 0, 0)" stroke="rgb(60, 60, 60)" stroke-width="1px" opacity="0.25"></line><line x1="701.7906327881676" y1="0" x2="701.7906327881676" y2="378.60799980163574" fill="rgb(0, 0, 0)" stroke="rgb(60, 60, 60)" stroke-width="1px" opacity="0.25"></line><line x1="870.0464713609881" y1="0" x2="870.0464713609881" y2="378.60799980163574" fill="rgb(0, 0, 0)" stroke="rgb(60, 60, 60)" stroke-width="1px" opacity="0.25"></line><line x1="1038.3023099338086" y1="0" x2="1038.3023099338086" y2="378.60799980163574" fill="rgb(0, 0, 0)" stroke="rgb(60, 60, 60)" stroke-width="1px" opacity="0.25"></line></g><g><line x1="0" y1="369.76641772608014" x2="1079.4159988403321" y2="369.76641772608014" fill="rgb(0, 0, 0)" stroke="rgb(60, 60, 60)" stroke-width="1px" opacity="0.25"></line><line x1="0" y1="339.6572111274418" x2="1079.4159988403321" y2="339.6572111274418" fill="rgb(0, 0, 0)" stroke="rgb(60, 60, 60)" stroke-width="1px" opacity="0.25"></line><line x1="0" y1="309.54800452880346" x2="1079.4159988403321" y2="309.54800452880346" fill="rgb(0, 0, 0)" stroke="rgb(60, 60, 60)" stroke-width="1px" opacity="0.25"></line><line x1="0" y1="279.43879793016515" x2="1079.4159988403321" y2="279.43879793016515" fill="rgb(0, 0, 0)" stroke="rgb(60, 60, 60)" stroke-width="1px" opacity="0.25"></line><line x1="0" y1="249.3295913315268" x2="1079.4159988403321" y2="249.3295913315268" fill="rgb(0, 0, 0)" stroke="rgb(60, 60, 60)" stroke-width="1px" opacity="0.25"></line><line x1="0" y1="219.22038473288848" x2="1079.4159988403321" y2="219.22038473288848" fill="rgb(0, 0, 0)" stroke="rgb(60, 60, 60)" stroke-width="1px" opacity="0.25"></line><line x1="0" y1="189.11117813425048" x2="1079.4159988403321" y2="189.11117813425048" fill="rgb(0, 0, 0)" stroke="rgb(60, 60, 60)" stroke-width="1px" opacity="0.25"></line><line x1="0" y1="159.00197153561217" x2="1079.4159988403321" y2="159.00197153561217" fill="rgb(0, 0, 0)" stroke="rgb(60, 60, 60)" stroke-width="1px" opacity="0.25"></line><line x1="0" y1="128.89276493697383" x2="1079.4159988403321" y2="128.89276493697383" fill="rgb(0, 0, 0)" stroke="rgb(60, 60, 60)" stroke-width="1px" opacity="0.25"></line><line x1="0" y1="98.78355833833547" x2="1079.4159988403321" y2="98.78355833833547" fill="rgb(0, 0, 0)" stroke="rgb(60, 60, 60)" stroke-width="1px" opacity="0.25"></line><line x1="0" y1="68.6743517396971" x2="1079.4159988403321" y2="68.6743517396971" fill="rgb(0, 0, 0)" stroke="rgb(60, 60, 60)" stroke-width="1px" opacity="0.25"></line><line x1="0" y1="38.56514514105879" x2="1079.4159988403321" y2="38.56514514105879" fill="rgb(0, 0, 0)" stroke="rgb(60, 60, 60)" stroke-width="1px" opacity="0.25"></line><line x1="0" y1="8.455938542420483" x2="1079.4159988403321" y2="8.455938542420483" fill="rgb(0, 0, 0)" stroke="rgb(60, 60, 60)" stroke-width="1px" opacity="0.25"></line></g></g></g><g><g><line x1="0" y1="3019.376598406251" x2="1079.4159988403321" y2="3019.376598406251" fill="rgb(0, 0, 0)" stroke="rgb(153, 153, 153)" stroke-width="1.5px"></line></g></g><g><g><line x1="28.76727849688586" y1="0" x2="28.76727849688586" y2="378.60799980163574" fill="rgb(0, 0, 0)" stroke="rgb(153, 153, 153)" stroke-width="1.5px"></line></g></g><g><g><g><g><g><path style="fill: none;" stroke="rgb(204, 51, 17)" stroke-width="2px" d="M30.78634855975971,237.28583403469133L31.122860236905346,38.565116426681755L32.80541862263355,32.54335263577207L33.81495365407048,20.499645589096247L34.151465331216116,23.51052748455112L35.16100036265304,20.499645589096247L35.834023716944316,32.54335263577207L37.180070425526885,32.54335263577207L41.218210551274574,20.499645589096247L42.564257259857136,20.499645589096247L43.237280614148425,23.51052748455112L43.9103039684397,20.499645589096247L44.24681564558534,23.51052748455112L44.919838999876625,20.499645589096247L46.93890906275047,62.65253052003334L47.275420739896106,29.532470740317194L47.61193241704176,29.532470740317194L47.948444094187394,38.565116426681755L48.28495577133303,32.54335263577207L50.977049188498164,29.532470740317194L51.98658421993509,35.55423453122688L52.996119251372,26.521409380005935L53.33263092851765,23.51052748455112L53.66914260566329,20.499645589096247L54.005654282808926,122.87088628855591L55.68821266853713,29.532470740317194L58.38030608570226,26.521409380005935L58.716817762847896,23.51052748455112L60.73588782572175,20.499645589096247L63.42798124288688,29.532470740317194L64.4375162743238,23.51052748455112L64.77402795146944,32.54335263577207L67.12960969148892,26.521409380005935L68.13914472292583,26.521409380005935L68.81216807721714,20.499645589096247L71.50426149438226,26.521409380005935L72.51379652581917,20.499645589096247L72.85030820296481,35.55423453122688L75.87891329727559,65.66341241548821L76.55193665156688,38.565116426681755L76.88844832871251,20.499645589096247L77.22496000585815,56.63058726426726L79.58054174587762,23.51052748455112L81.26310013160585,20.499645589096247L81.93612348589713,41.57599832213663L82.27263516304276,53.61970536881245L83.61868187162533,35.55423453122688L85.30124025735353,35.55423453122688L85.63775193449918,23.51052748455112L86.64728696593609,41.57599832213663L88.66635702880994,26.521409380005935L89.00286870595559,35.55423453122688L89.67589206024687,38.565116426681755L90.68542709168379,23.51052748455112L91.35845044597507,95.77259029974948L91.69496212312072,29.532470740317194L92.36798547741199,32.54335263577207L93.04100883170327,38.565116426681755L93.37752050884892,50.608823473357575L95.7331022488684,23.51052748455112L98.42519566603353,53.61970536881245L98.76170734317917,41.57599832213663L99.0982190203248,44.58705968244783L100.44426572890738,41.57599832213663L103.80938250036378,38.565116426681755L104.14589417750942,26.521409380005935L104.81891753180071,38.565116426681755L106.16496424038327,23.51052748455112L107.1744992718202,29.532470740317194L107.51101094896583,29.532470740317194L107.84752262611147,20.499645589096247L108.8570576575484,26.521409380005935L112.8951977832961,29.532470740317194L114.91426784616992,116.84912249764619L115.92380287760685,44.58705968244783L116.59682623189813,20.499645589096247L116.93333790904377,41.57599832213663L117.60636126333506,26.521409380005935L118.95240797191762,20.499645589096247L120.29845468050019,20.499645589096247L120.97147803479146,20.499645589096247L122.65403642051966,29.532470740317194L127.36519990055864,47.5979415779027L129.04775828628684,41.57599832213663L129.3842699634325,23.51052748455112L130.73031667201505,44.58705968244783L131.0668283491607,20.499645589096247L132.41287505774326,26.521409380005935L132.7493867348889,20.499645589096247L133.42241008918018,29.532470740317194L134.43194512061712,23.51052748455112L136.1145035063453,26.521409380005935L136.45101518349094,26.521409380005935L136.7875268606366,20.499645589096247L138.4700852463648,29.532470740317194L138.80659692351045,47.5979415779027L139.14310860065606,53.61970536881245L140.152643632093,50.608823473357575L143.18124872640377,20.499645589096247L143.85427208069507,29.532470740317194L145.87334214356892,38.565116426681755L147.8924122064427,29.532470740317194L148.22892388358838,26.521409380005935L150.24799394646223,29.532470740317194L151.25752897789914,38.565116426681755L152.60357568648172,38.565116426681755L153.94962239506427,32.54335263577207L154.62264574935557,29.532470740317194L155.96869245793812,20.499645589096247L156.30520413508378,38.565116426681755L156.6417158122294,20.499645589096247L157.3147391665207,20.499645589096247L158.99729755224888,20.499645589096247L160.6798559379771,20.499645589096247L161.01636761512273,20.499645589096247L161.35287929226837,38.565116426681755L166.40055444945298,29.532470740317194L168.75613618947247,20.499645589096247L170.77520625234632,29.532470740317194L171.11171792949196,44.58705968244783L171.78474128378326,20.499645589096247L172.4577646380745,29.532470740317194L173.80381134665708,71.68535567125429L176.83241644096785,107.8162973464253L177.50543979525915,26.521409380005935L177.84195147240476,23.51052748455112L178.8514865038417,47.5979415779027L180.87055656671555,26.521409380005935L183.56264998388068,26.521409380005935L183.8991616610263,26.521409380005935L184.90869669246322,44.58705968244783L185.24520836960886,20.499645589096247L188.27381346391962,23.51052748455112L188.6103251410653,20.499645589096247L192.31195358966733,32.54335263577207L193.32148862110427,44.58705968244783L193.6580002982499,23.51052748455112L194.33102365254118,20.499645589096247L195.00404700683248,26.521409380005935L199.71521048687143,23.51052748455112L201.39776887259964,29.532470740317194L202.07079222689094,26.521409380005935L203.08032725832786,26.521409380005935L203.75335061261913,23.51052748455112L205.43590899834734,41.57599832213663L205.77242067549295,23.51052748455112L207.7914907383668,50.608823473357575L208.4645140926581,20.499645589096247L208.80102576980374,26.521409380005935L209.47404912409502,26.521409380005935L209.81056080124065,23.51052748455112L210.8200958326776,23.51052748455112L211.49311918696887,20.499645589096247L213.17567757269705,20.499645589096247L213.51218924984272,77.70711946216397L216.54079434415348,53.61970536881245L217.21381769844476,23.51052748455112L218.55986440702733,20.499645589096247L218.89637608417297,32.54335263577207L219.2328877613186,32.54335263577207L220.57893446990118,23.51052748455112L221.92498117848373,68.67429431094303L222.26149285562937,26.521409380005935L223.27102788706628,32.54335263577207L223.94405124135758,32.54335263577207L224.28056291850322,23.51052748455112L224.61707459564886,38.565116426681755L224.95358627279452,20.499645589096247L225.29009794994013,20.499645589096247L225.62660962708577,29.532470740317194L226.29963298137707,23.51052748455112L226.6361446585227,23.51052748455112L228.31870304425092,29.532470740317194L228.65521472139653,23.51052748455112L230.00126142997914,26.521409380005935L231.01079646141605,35.55423453122688L231.68381981570732,23.51052748455112L233.70288987858117,29.532470740317194L234.37591323287245,20.499645589096247L236.05847161860063,35.55423453122688L237.4045183271832,26.521409380005935L237.74103000432885,23.51052748455112L238.41405335862015,23.51052748455112L242.45219348436785,23.51052748455112L244.8077752243873,38.565116426681755L245.14428690153295,26.521409380005935L245.81731025582425,38.565116426681755L246.15382193296986,20.499645589096247L246.4903336101155,23.51052748455112L246.82684528726116,26.521409380005935L247.49986864155244,29.532470740317194L248.50940367298935,68.67429431094303L249.85545038157193,32.54335263577207L250.19196205871756,29.532470740317194L251.5380087673001,23.51052748455112L252.54754379873705,41.57599832213663L253.89359050731963,23.51052748455112L254.90312553875654,44.58705968244783L255.23963721590218,20.499645589096247L255.57614889304782,29.532470740317194L255.91266057019348,50.608823473357575L256.2491722473391,20.499645589096247L256.9221956016304,26.521409380005935L257.258707278776,23.51052748455112L257.59521895592167,41.57599832213663L258.6047539873586,20.499645589096247L258.9412656645042,23.51052748455112L259.2777773416499,32.54335263577207L259.95080069594115,26.521409380005935L260.62382405023243,26.521409380005935L260.9603357273781,38.565116426681755L263.3159174673976,35.55423453122688L264.32545249883447,29.532470740317194L265.671499207417,26.521409380005935L266.68103423885395,29.532470740317194L267.3540575931452,32.54335263577207L268.02708094743656,41.57599832213663L269.3731276560191,20.499645589096247L270.71917436460166,53.61970536881245L271.7287093960386,26.521409380005935L272.0652210731842,26.521409380005935L272.40173275032987,32.54335263577207L272.7382444274755,47.5979415779027L274.75731449034936,23.51052748455112L276.7763845532232,20.499645589096247L277.4494079075145,35.55423453122688L277.7859195846601,32.54335263577207L279.13196629324267,38.565116426681755L280.1415013246796,26.521409380005935L280.4780130018252,20.499645589096247L281.4875480332622,20.499645589096247L281.8240597104078,50.608823473357575L282.16057138755343,20.499645589096247L282.8335947418447,20.499645589096247L283.50661809613604,26.521409380005935L285.5256881590099,32.54335263577207L286.5352231904468,50.608823473357575L286.8717348675924,20.499645589096247L287.88126989902935,23.51052748455112L288.217781576175,20.499645589096247L288.5542932533206,50.608823473357575L289.2273166076119,26.521409380005935L289.5638282847575,23.51052748455112L291.5828983476314,32.54335263577207L292.92894505621393,23.51052748455112L293.2654567333596,65.66341241548821L293.93848008765093,29.532470740317194L294.61150344194215,23.51052748455112L295.2845267962334,26.521409380005935L295.6210384733791,26.521409380005935L295.95755015052475,44.58705968244783L296.29406182767036,38.565116426681755L296.630573504816,41.57599832213663L297.6401085362529,23.51052748455112L298.31313189054424,68.67429431094303L298.9861552448355,23.51052748455112L299.9956902762724,20.499645589096247L300.66871363056373,20.499645589096247L301.00522530770934,29.532470740317194L301.341736984855,35.55423453122688L303.3608070477288,32.54335263577207L303.69731872487444,20.499645589096247L304.37034207916577,35.55423453122688L305.37987711060265,41.57599832213663L306.72592381918525,20.499645589096247L307.73545885062214,23.51052748455112L308.7449938820591,26.521409380005935L309.08150555920474,35.55423453122688L309.754528913496,23.51052748455112L310.42755226778723,26.521409380005935L311.10057562207857,32.54335263577207L312.7831340078068,38.565116426681755L313.79266903924366,35.55423453122688L314.46569239353494,53.61970536881245L319.5133675507196,23.51052748455112L320.8594142593022,47.5979415779027L321.53243761359346,23.51052748455112L321.86894929073907,20.499645589096247L323.2149959993217,20.499645589096247L323.88801935361295,20.499645589096247L324.22453103075856,50.608823473357575L325.2340660621955,20.499645589096247L325.90708941648677,26.521409380005935L326.58011277077804,26.521409380005935L327.589647802215,32.54335263577207L328.26267115650626,23.51052748455112L328.59918283365187,20.499645589096247L329.2722061879432,23.51052748455112L330.61825289652575,146.9583003819075L331.9642996051083,20.499645589096247L334.3198813451278,35.55423453122688L334.65639302227345,20.499645589096247L334.99290469941906,29.532470740317194L335.32941637656467,23.51052748455112L336.002439730856,20.499645589096247L337.0119747622929,47.5979415779027L337.34848643943855,20.499645589096247L337.6849981165842,32.54335263577207L338.6945331480211,32.54335263577207L339.03104482516676,44.58705968244783L339.36755650231237,23.51052748455112L339.7040681794581,20.499645589096247L342.3961615966232,20.499645589096247L342.7326732737688,23.51052748455112L343.74220830520574,44.58705968244783L346.0977900452252,35.55423453122688L347.10732507666216,23.51052748455112L349.79941849382726,26.521409380005935L350.1359301709729,74.6962375667091L350.8089535252642,38.565116426681755L351.1454652024098,38.565116426681755L351.4819768795555,20.499645589096247L352.4915119109924,20.499645589096247L352.828023588138,26.521409380005935L353.5010469424293,26.521409380005935L354.17407029672063,20.499645589096247L355.8566286824488,26.521409380005935L356.19314035959445,20.499645589096247L357.539187068177,20.499645589096247L357.8756987453226,23.51052748455112L358.21221042246833,20.499645589096247L358.54872209961394,32.54335263577207L359.5582571310508,38.565116426681755L359.8947688081965,23.51052748455112L360.2312804853421,29.532470740317194L361.24081551677904,26.521409380005935L361.5773271939247,38.565116426681755L364.2694206110898,35.55423453122688L365.6154673196724,35.55423453122688L366.2884906739637,29.532470740317194L366.96151402825495,23.51052748455112L367.2980257054006,38.565116426681755L368.3075607368375,26.521409380005935L369.31709576827444,23.51052748455112L369.6536074454201,32.54335263577207L369.9901191225657,29.532470740317194L370.3266307997113,20.499645589096247L371.3361658311483,29.532470740317194L374.0282592483134,23.51052748455112L374.7012826026047,23.51052748455112L375.37430595689597,29.532470740317194L376.04732931118724,53.61970536881245L376.3838409883329,20.499645589096247L377.39337601976985,35.55423453122688L378.0663993740611,23.51052748455112L378.7394227283524,47.5979415779027L380.4219811140806,29.532470740317194L382.77756285410004,32.54335263577207L383.11407453124576,41.57599832213663L384.12360956268265,20.499645589096247L384.7966329169739,29.532470740317194L386.81570297984774,35.55423453122688L387.1522146569934,26.521409380005935L387.8252380112847,47.5979415779027L388.49826136557596,20.499645589096247L389.84430807415856,20.499645589096247L391.19035478274105,53.61970536881245L391.8633781370324,35.55423453122688L393.5459365227606,20.499645589096247L393.88244819990626,20.499645589096247L394.2189598770519,20.499645589096247L396.57454161707136,29.532470740317194L396.91105329421697,20.499645589096247L398.93012335709085,26.521409380005935L400.2761700656734,29.532470740317194L400.61268174281906,32.54335263577207L400.9491934199647,41.57599832213663L403.9777985142755,26.521409380005935L404.65082186856677,26.521409380005935L405.66035690000365,41.57599832213663L407.67942696287747,38.565116426681755L408.0159386400232,32.54335263577207L409.3619853486057,32.54335263577207L410.3715203800427,20.499645589096247L410.7080320571883,47.5979415779027L411.0445437343339,20.499645589096247L412.05407876577084,29.532470740317194L415.7557072143729,23.51052748455112L416.7652422458098,32.54335263577207L417.7747772772467,26.521409380005935L418.11128895439236,41.57599832213663L418.44780063153803,23.51052748455112L419.4573356629749,20.499645589096247L419.7938473401206,23.51052748455112L420.1303590172662,38.565116426681755L425.17803417445083,32.54335263577207L426.18756920588777,38.565116426681755L426.86059256017904,23.51052748455112L427.1971042373247,20.499645589096247L427.870127591616,20.499645589096247L428.2066392687616,26.521409380005935L429.21617430019853,26.521409380005935L430.2257093316354,23.51052748455112L430.5622210087811,56.63058726426726L431.2352443630724,26.521409380005935L431.90826771736363,35.55423453122688L432.5812910716549,26.521409380005935L433.25431442594623,29.532470740317194L434.2638494573831,41.57599832213663L434.9368728116744,29.532470740317194L435.6098961659657,20.499645589096247L436.282919520257,20.499645589096247L436.9559428745482,20.499645589096247L437.62896622883954,92.76170840429461L440.9940830002959,56.63058726426726L442.3401297088785,23.51052748455112L443.6861764174611,26.521409380005935L444.02268809460674,23.51052748455112L444.35919977175234,20.499645589096247L445.0322231260436,20.499645589096247L446.04175815748056,29.532470740317194L447.0512931889175,26.521409380005935L447.7243165432088,38.565116426681755L448.7338515746457,26.521409380005935L450.75292163751953,32.54335263577207L451.4259449918108,20.499645589096247L452.09896834610214,47.5979415779027L452.43548002324775,38.565116426681755L453.44501505468463,20.499645589096247L453.78152673183035,23.51052748455112L454.11803840897596,32.54335263577207L455.12757344041285,20.499645589096247L457.81966685757806,23.51052748455112L459.5022252433062,23.51052748455112L460.1752485975975,23.51052748455112L462.19431866047137,26.521409380005935L463.54036536905386,20.499645589096247L463.8768770461995,29.532470740317194L464.2133887233452,23.51052748455112L464.54990040049086,20.499645589096247L466.5689704633647,23.51052748455112L467.57850549480156,53.61970536881245L469.93408723482105,53.61970536881245L470.6071105891124,26.521409380005935L471.61664562054926,29.532470740317194L471.9531572976949,59.641648624578465L472.96269232913187,35.55423453122688L473.2992040062775,32.54335263577207L474.9817623920057,20.499645589096247L475.31827406915136,26.521409380005935L475.65478574629697,26.521409380005935L476.6643207777339,23.51052748455112L477.6738558091708,26.521409380005935L478.01036748631645,26.521409380005935L478.34687916346206,35.55423453122688L478.6833908406078,44.58705968244783L479.0199025177534,20.499645589096247L481.0389725806272,38.565116426681755L483.0580426435011,41.57599832213663L485.0771127063749,20.499645589096247L486.42315941495747,53.61970536881245L487.0961827692488,20.499645589096247L488.77874115497696,26.521409380005935L490.1247878635595,44.58705968244783L492.480369603579,38.565116426681755L493.1533929578703,32.54335263577207L494.1629279893072,26.521409380005935L494.8359513435985,47.5979415779027L495.1724630207441,23.51052748455112L496.1819980521811,47.5979415779027L496.5185097293267,26.521409380005935L497.19153308361797,26.521409380005935L497.52804476076363,23.51052748455112L498.5375797922005,23.51052748455112L504.25827830367643,23.51052748455112L504.5947899808221,23.51052748455112L504.9313016579677,20.499645589096247L505.2678133351134,35.55423453122688L506.6138600436959,29.532470740317194L507.6233950751328,26.521409380005935L508.9694417837154,32.54335263577207L509.305953460861,29.532470740317194L509.6424651380067,23.51052748455112L510.98851184658923,23.51052748455112L511.3250235237349,38.565116426681755L511.6615352008805,23.51052748455112L512.3345585551718,26.521409380005935L513.0075819094632,20.499645589096247L513.6806052637544,35.55423453122688L514.3536286180456,38.565116426681755L517.0457220352108,50.608823473357575L518.728280420939,32.54335263577207L519.0647920980846,38.565116426681755L522.0933971923954,59.641648624578465L522.429908869541,20.499645589096247L526.1315373181432,47.5979415779027L527.8140957038713,32.54335263577207L528.8236307353083,35.55423453122688L529.1601424124539,32.54335263577207L530.1696774438908,35.55423453122688L530.842700798182,20.499645589096247L531.1792124753277,23.51052748455112L533.8713058924928,23.51052748455112L534.2078175696385,47.5979415779027L534.5443292467842,20.499645589096247L534.8808409239298,35.55423453122688L535.8903759553667,20.499645589096247L536.5633993096579,23.51052748455112L536.8999109868037,23.51052748455112L537.2364226639493,32.54335263577207L539.9285160811145,23.51052748455112L541.6110744668426,23.51052748455112L541.9475861439882,38.565116426681755L542.9571211754251,20.499645589096247L545.3127029154447,32.54335263577207L545.9857262697359,26.521409380005935L549.3508430411923,26.521409380005935L551.0334014269205,29.532470740317194L551.3699131040661,23.51052748455112L552.0429364583574,29.532470740317194L552.3794481355031,38.565116426681755L554.3985181983769,68.67429431094303L554.7350298755225,23.51052748455112L556.7540999383965,23.51052748455112L557.0906116155421,20.499645589096247L560.1192167098528,20.499645589096247L561.4652634184355,20.499645589096247L562.1382867727267,29.532470740317194L563.4843334813092,23.51052748455112L566.5129385756201,29.532470740317194L567.1859619299113,20.499645589096247L568.1954969613482,35.55423453122688L568.8685203156394,35.55423453122688L569.2050319927852,20.499645589096247L570.8875903785133,38.565116426681755L571.8971254099503,35.55423453122688L573.5796837956785,23.51052748455112L574.2527071499698,20.499645589096247L575.5987538585523,32.54335263577207L576.2717772128435,56.63058726426726L576.6082888899892,20.499645589096247L576.9448005671348,41.57599832213663L577.6178239214262,35.55423453122688L578.2908472757175,44.58705968244783L579.9734056614457,23.51052748455112L580.9829406928825,44.58705968244783L581.6559640471739,32.54335263577207L582.6654990786108,44.58705968244783L583.6750341100477,50.608823473357575L585.0210808186303,38.565116426681755L586.0306158500672,47.5979415779027L587.3766625586497,26.521409380005935L587.7131742357953,26.521409380005935L588.049685912941,56.63058726426726L590.4052676529606,20.499645589096247L591.0782910072518,26.521409380005935L591.7513143615431,53.61970536881245L592.7608493929799,50.608823473357575L593.0973610701257,38.565116426681755L595.1164311329995,38.565116426681755L595.4529428101451,47.5979415779027L596.7989895187277,29.532470740317194L598.1450362273104,20.499645589096247L599.1545712587472,23.51052748455112L599.4910829358928,32.54335263577207L599.8275946130385,20.499645589096247L600.1641062901841,32.54335263577207L600.8371296444753,35.55423453122688L601.8466646759123,41.57599832213663L604.2022464159318,38.565116426681755L604.5387580930774,50.608823473357575L606.2213164788055,38.565116426681755L606.894339833097,26.521409380005935L607.2308515102426,44.58705968244783L607.5673631873882,20.499645589096247L610.595968281699,20.499645589096247L611.9420149902816,20.499645589096247L612.2785266674272,23.51052748455112L612.6150383445728,20.499645589096247L612.9515500217184,35.55423453122688L613.6245733760097,32.54335263577207L615.307131761738,41.57599832213663L615.6436434388836,29.532470740317194L616.3166667931748,26.521409380005935L616.6531784703205,38.565116426681755L616.9896901474661,20.499645589096247L617.999225178903,44.58705968244783L618.6722485331943,44.58705968244783L619.00876021034,26.521409380005935L619.3452718874856,23.51052748455112L622.3738769817963,23.51052748455112L623.3834120132334,20.499645589096247L626.4120171075441,32.54335263577207L628.431087170418,29.532470740317194L628.7675988475636,26.521409380005935L630.7866689104374,23.51052748455112L631.123180587583,35.55423453122688L631.4596922647288,23.51052748455112L632.13271561902,23.51052748455112L634.1517856818938,20.499645589096247L636.1708557447677,26.521409380005935L636.5073674219134,26.521409380005935L639.1994608390784,47.5979415779027L639.535972516224,20.499645589096247L640.545507547661,29.532470740317194L641.555042579098,38.565116426681755L642.9010892876804,20.499645589096247L643.5741126419717,20.499645589096247L644.9201593505544,26.521409380005935L646.9392294134282,26.521409380005935L648.2852761220108,20.499645589096247L648.6217877991564,29.532470740317194L649.6313228305933,23.51052748455112L650.3043461848846,29.532470740317194L651.3138812163214,32.54335263577207L652.6599279249041,41.57599832213663L653.3329512791954,23.51052748455112L654.0059746334866,23.51052748455112L654.3424863106322,38.565116426681755L654.678997987778,59.641648624578465L657.0345797277974,26.521409380005935L657.7076030820887,23.51052748455112L658.0441147592344,50.608823473357575L660.0631848221082,26.521409380005935L660.3996964992539,29.532470740317194L660.7362081763995,35.55423453122688L661.4092315306908,20.499645589096247L662.082254884982,20.499645589096247L666.1203950107297,32.54335263577207L669.1490001050405,35.55423453122688L670.495046813623,29.532470740317194L672.1776051993512,20.499645589096247L672.5141168764968,20.499645589096247L674.1966752622251,29.532470740317194L674.5331869393707,20.499645589096247L674.8696986165164,80.71800135761885L676.2157453250989,20.499645589096247L676.5522570022446,44.58705968244783L678.5713270651185,20.499645589096247L679.917373773701,74.6962375667091L680.2538854508466,20.499645589096247L680.5903971279922,20.499645589096247L681.2634204822835,20.499645589096247L681.5999321594293,29.532470740317194L683.2824905451574,23.51052748455112L684.2920255765943,32.54335263577207L684.9650489308856,20.499645589096247L685.9745839623225,26.521409380005935L686.9841189937595,26.521409380005935L687.9936540251964,26.521409380005935L688.6666773794876,23.51052748455112L690.6857474423615,20.499645589096247L691.0222591195071,20.499645589096247L691.6952824737984,29.532470740317194L692.3683058280897,47.5979415779027L695.3969109224005,38.565116426681755L695.7334225995461,47.5979415779027L696.0699342766917,38.565116426681755L696.4064459538374,23.51052748455112L701.1176094338763,20.499645589096247L702.463656142459,50.608823473357575L703.8097028510415,29.532470740317194L704.1462145281871,38.565116426681755L705.155749559624,23.51052748455112L705.4922612367697,50.608823473357575L706.5017962682067,26.521409380005935L707.1748196224979,29.532470740317194L707.8478429767891,20.499645589096247L709.5304013625173,20.499645589096247L710.5399363939543,20.499645589096247L711.2129597482456,20.499645589096247L711.5494714253913,53.61970536881245L712.2224947796825,32.54335263577207L713.2320298111194,20.499645589096247L714.2415648425563,20.499645589096247L714.9145881968477,23.51052748455112L715.9241232282845,38.565116426681755L716.9336582597215,35.55423453122688L717.2701699368671,26.521409380005935L718.279704968304,20.499645589096247L719.289239999741,32.54335263577207L721.9813334169061,26.521409380005935L722.3178450940517,23.51052748455112L722.9908684483431,23.51052748455112L724.6734268340713,20.499645589096247L726.3559852197994,35.55423453122688L726.692496896945,26.521409380005935L727.0290085740908,26.521409380005935L727.702031928382,38.565116426681755L728.0385436055277,32.54335263577207L728.7115669598189,23.51052748455112L729.3845903141101,20.499645589096247L730.3941253455471,26.521409380005935L730.7306370226927,29.532470740317194L732.0766837312754,26.521409380005935L733.7592421170035,56.63058726426726L734.4322654712947,20.499645589096247L736.4513355341687,26.521409380005935L736.7878472113143,23.51052748455112L737.1243588884599,20.499645589096247L737.4608705656055,26.521409380005935L737.7973822427512,29.532470740317194L738.8069172741881,44.58705968244783L739.4799406284794,35.55423453122688L740.4894756599164,23.51052748455112L740.825987337062,35.55423453122688L741.8355223684989,23.51052748455112L742.5085457227901,47.5979415779027L743.1815690770815,35.55423453122688L743.5180807542272,23.51052748455112L743.8545924313728,26.521409380005935L745.2006391399553,56.63058726426726L746.5466858485379,23.51052748455112L746.8831975256835,26.521409380005935L747.2197092028291,77.70711946216397L748.5657559114118,29.532470740317194L748.9022675885574,20.499645589096247L749.5752909428487,20.499645589096247L749.9118026199943,44.58705968244783L750.5848259742855,26.521409380005935L750.9213376514311,29.532470740317194L751.2578493285769,29.532470740317194L751.9308726828682,29.532470740317194L752.2673843600138,47.5979415779027L752.9404077143051,35.55423453122688L753.949942745742,23.51052748455112L754.6229661000333,20.499645589096247L754.9594777771789,29.532470740317194L756.9785478400528,26.521409380005935L757.3150595171984,29.532470740317194L757.651571194344,35.55423453122688L758.9976179029265,47.5979415779027L759.6706412572179,23.51052748455112L760.3436646115092,26.521409380005935L761.6897113200918,20.499645589096247L764.0452930601111,41.57599832213663L765.0548280915482,20.499645589096247L765.7278514458394,29.532470740317194L766.4008748001307,20.499645589096247L766.7373864772763,47.5979415779027L768.0834331858589,35.55423453122688L768.7564565401502,35.55423453122688L769.0929682172958,26.521409380005935L769.4294798944414,20.499645589096247L770.4390149258784,56.63058726426726L770.775526603024,35.55423453122688L771.7850616344609,23.51052748455112L772.1215733116065,26.521409380005935L773.1311083430436,32.54335263577207L774.1406433744804,44.58705968244783L775.486690083063,41.57599832213663L777.5057601459368,20.499645589096247L777.8422718230825,29.532470740317194L778.8518068545194,20.499645589096247L779.188318531665,20.499645589096247L779.8613418859563,38.565116426681755L780.5343652402476,20.499645589096247L780.8708769173933,23.51052748455112L781.5439002716846,26.521409380005935L781.8804119488302,20.499645589096247L782.5534353031214,32.54335263577207L782.8899469802672,38.565116426681755L783.2264586574128,29.532470740317194L783.5629703345584,56.63058726426726L784.2359936888496,20.499645589096247L784.909017043141,20.499645589096247L785.2455287202866,20.499645589096247L786.5915754288692,35.55423453122688L786.9280871060148,20.499645589096247L787.601110460306,26.521409380005935L788.610645491743,38.565116426681755L789.2836688460343,44.58705968244783L790.2932038774712,26.521409380005935L794.3313440032189,32.54335263577207L795.6773907118014,29.532470740317194L796.6869257432384,32.54335263577207L798.3694841289666,23.51052748455112L799.0425074832579,44.58705968244783L800.0520425146948,23.51052748455112L802.0711125775687,29.532470740317194L802.4076242547143,74.6962375667091L803.0806476090056,35.55423453122688L804.0901826404424,65.66341241548821L805.0997176718794,26.521409380005935L805.436229349025,20.499645589096247L805.7727410261706,23.51052748455112L808.8013461204814,59.641648624578465L809.137857797627,50.608823473357575L809.4743694747726,23.51052748455112L809.8108811519185,35.55423453122688L810.4839045062097,50.608823473357575L811.1569278605009,38.565116426681755L812.1664628919378,29.532470740317194L813.849021277666,26.521409380005935L814.5220446319574,20.499645589096247L814.858556309103,32.54335263577207L815.1950679862487,20.499645589096247L815.5315796633943,23.51052748455112L818.2236730805595,38.565116426681755L821.2522781748702,32.54335263577207L822.9348365605985,20.499645589096247L825.6269299777634,20.499645589096247L825.963441654909,23.51052748455112L826.9729766863461,23.51052748455112L828.3190233949286,29.532470740317194L829.3285584263655,20.499645589096247L830.674605134948,20.499645589096247L831.6841401663851,26.521409380005935L832.6936751978219,26.521409380005935L833.0301868749676,20.499645589096247L833.3666985521132,29.532470740317194L834.0397219064045,26.521409380005935L836.7318153235697,26.521409380005935L837.4048386778609,59.641648624578465L838.0778620321522,47.5979415779027L838.7508853864434,50.608823473357575L840.4334437721717,47.5979415779027L842.1160021578999,26.521409380005935L844.8080955750651,44.58705968244783L845.1446072522107,26.521409380005935L845.4811189293563,29.532470740317194L846.8271656379388,23.51052748455112L847.8367006693759,20.499645589096247L848.8462357008127,20.499645589096247L851.5383291179779,29.532470740317194L852.2113524722691,44.58705968244783L853.5573991808517,26.521409380005935L853.8939108579973,29.532470740317194L854.2304225351429,26.521409380005935L854.5669342122886,26.521409380005935L855.2399575665798,26.521409380005935L855.9129809208712,20.499645589096247L856.9225159523081,23.51052748455112L857.9320509837451,26.521409380005935L858.2685626608907,20.499645589096247L858.9415860151819,20.499645589096247L859.6146093694732,35.55423453122688L861.9701911094927,47.5979415779027L863.3162378180753,29.532470740317194L863.9892611723666,41.57599832213663L864.6622845266579,62.65253052003334L865.3353078809491,23.51052748455112L865.6718195580947,62.65253052003334L866.3448429123861,26.521409380005935L867.3543779438229,29.532470740317194L868.0274012981143,20.499645589096247L869.0369363295512,29.532470740317194L869.7099596838425,26.521409380005935L870.7194947152793,41.57599832213663L871.0560063924249,20.499645589096247L871.3925180695707,23.51052748455112L874.7576348410271,20.499645589096247L875.0941465181727,32.54335263577207L875.7671698724639,26.521409380005935L876.1036815496096,23.51052748455112L876.4401932267554,29.532470740317194L876.776704903901,20.499645589096247L877.7862399353379,20.499645589096247L878.1227516124835,65.66341241548821L878.7957749667747,26.521409380005935L879.8053099982117,23.51052748455112L880.4783333525029,32.54335263577207L881.1513567067943,20.499645589096247L881.8243800610855,20.499645589096247L884.8529851553964,41.57599832213663L885.189496832542,29.532470740317194L886.1990318639789,23.51052748455112L886.8720552182701,47.5979415779027L887.5450785725614,20.499645589096247L888.2181019268527,20.499645589096247L888.891125281144,41.57599832213663L889.2276369582896,23.51052748455112L890.2371719897266,20.499645589096247L892.2562420526003,32.54335263577207L892.5927537297459,32.54335263577207L893.9388004383286,23.51052748455112L894.9483354697655,26.521409380005935L895.9578705012024,20.499645589096247L896.6308938554937,65.66341241548821L896.9674055326393,32.54335263577207L898.313452241222,53.61970536881245L899.6594989498045,35.55423453122688L900.6690339812413,26.521409380005935L901.005545658387,20.499645589096247L901.3420573355328,53.61970536881245L901.6785690126784,20.499645589096247L902.6881040441152,20.499645589096247L904.0341507526978,44.58705968244783L904.7071741069891,35.55423453122688L906.0532208155716,50.608823473357575L906.3897324927174,32.54335263577207L907.0627558470086,23.51052748455112L907.3992675241542,29.532470740317194L909.0818259098824,23.51052748455112L910.0913609413194,62.65253052003334L910.427872618465,26.521409380005935L911.1008959727563,26.521409380005935L911.7739193270476,23.51052748455112L912.4469426813388,20.499645589096247L912.7834543584845,38.565116426681755L913.7929893899214,29.532470740317194L914.129501067067,29.532470740317194L914.8025244213584,38.565116426681755L915.8120594527952,32.54335263577207L916.1485711299409,35.55423453122688L916.8215944842322,26.521409380005935L918.840664547106,41.57599832213663L919.850199578543,29.532470740317194L920.8597346099798,35.55423453122688L921.1962462871255,23.51052748455112L922.5422929957081,35.55423453122688L924.561363058582,20.499645589096247L928.9360148614752,20.499645589096247L930.2820615700577,20.499645589096247L930.9550849243491,62.65253052003334L932.6376433100772,29.532470740317194L933.6471783415142,20.499645589096247L934.3202016958054,20.499645589096247L935.666248404388,20.499645589096247L937.3488067901162,20.499645589096247L938.6948534986989,65.66341241548821L940.0409002072814,104.80541545097043L941.0504352387184,20.499645589096247L944.0790403330291,26.521409380005935L946.098110395903,53.61970536881245L949.4632271673594,32.54335263577207L949.799738844505,23.51052748455112L950.1362505216506,26.521409380005935L951.1457855530876,20.499645589096247L951.4822972302333,23.51052748455112L953.1648556159614,26.521409380005935L953.8378789702526,41.57599832213663L955.1839256788352,23.51052748455112L955.5204373559809,20.499645589096247L955.8569490331265,26.521409380005935L956.1934607102722,38.565116426681755L956.5299723874178,47.5979415779027L956.8664840645635,20.499645589096247L957.2029957417091,32.54335263577207L959.8950891588743,38.565116426681755L960.9046241903111,65.66341241548821L962.923694253185,26.521409380005935L964.2697409617675,20.499645589096247L967.6348577332238,35.55423453122688L967.9713694103697,26.521409380005935L968.3078810875153,50.608823473357575L970.6634628275347,20.499645589096247L972.3460212132629,71.68535567125429L973.3555562446999,20.499645589096247L974.0285795989911,20.499645589096247L974.3650912761368,20.499645589096247L974.7016029532824,26.521409380005935L975.038114630428,26.521409380005935L976.3841613390107,41.57599832213663L979.0762547561757,20.499645589096247L979.4127664333214,20.499645589096247L980.4223014647583,20.499645589096247L981.0953248190497,20.499645589096247L981.4318364961953,26.521409380005935L982.1048598504865,38.565116426681755L983.7874182362146,29.532470740317194L986.1429999762343,32.54335263577207L986.8160233305255,20.499645589096247L987.8255583619624,32.54335263577207L988.4985817162537,20.499645589096247L990.1811401019819,35.55423453122688L991.1906751334188,44.58705968244783L992.2002101648557,38.565116426681755L995.2288152591665,20.499645589096247L995.5653269363121,38.565116426681755L996.574861967749,26.521409380005935L997.584396999186,20.499645589096247L998.2574203534773,20.499645589096247L998.5939320306229,26.521409380005935L1000.6130020934967,32.54335263577207L1001.6225371249337,26.521409380005935L1001.9590488020793,20.499645589096247L1002.6320721563707,20.499645589096247L1003.6416071878075,20.499645589096247L1004.3146305420988,32.54335263577207L1004.98765389639,20.499645589096247L1005.9971889278271,44.58705968244783L1006.3337006049727,23.51052748455112L1006.6702122821183,29.532470740317194L1009.0257940221377,23.51052748455112L1010.708352407866,29.532470740317194L1011.3813757621573,32.54335263577207L1011.7178874393029,32.54335263577207L1012.0543991164485,29.532470740317194L1013.4004458250312,53.61970536881245L1013.7369575021768,32.54335263577207L1015.4195158879049,29.532470740317194L1015.7560275650505,35.55423453122688L1017.1020742736331,26.521409380005935L1018.1116093050701,47.5979415779027L1018.4481209822158,29.532470740317194L1019.121144336507,35.55423453122688L1021.4767260765265,20.499645589096247L1021.8132377536722,26.521409380005935L1023.4957961394003,26.521409380005935L1027.533936265148,26.521409380005935L1029.2164946508763,68.67429431094303L1029.8895180051675,26.521409380005935L1030.226029682313,23.51052748455112L1031.2355647137501,29.532470740317194L1031.5720763908957,23.51052748455112L1034.6006814852065,23.51052748455112L1036.6197515480803,20.499645589096247L1037.965798256663,47.5979415779027L1038.3023099338086,32.54335263577207" fill="none"></path></g></g></g></g></g></g><g transform="translate(49, 378)" clip-path="url(#clip_1)"><clipPath id="clip_1"><rect width="1079" height="21"></rect></clipPath><g><g><line x1="28.76727849688586" y1="0" x2="28.76727849688586" y2="5" style="visibility: inherit;" fill="rgb(0, 0, 0)" stroke="rgb(204, 204, 204)" stroke-width="1px"></line><line x1="197.0231170697063" y1="0" x2="197.0231170697063" y2="5" style="visibility: inherit;" fill="rgb(0, 0, 0)" stroke="rgb(204, 204, 204)" stroke-width="1px"></line><line x1="365.27895564252674" y1="0" x2="365.27895564252674" y2="5" style="visibility: inherit;" fill="rgb(0, 0, 0)" stroke="rgb(204, 204, 204)" stroke-width="1px"></line><line x1="533.5347942153471" y1="0" x2="533.5347942153471" y2="5" style="visibility: inherit;" fill="rgb(0, 0, 0)" stroke="rgb(204, 204, 204)" stroke-width="1px"></line><line x1="701.7906327881676" y1="0" x2="701.7906327881676" y2="5" style="visibility: inherit;" fill="rgb(0, 0, 0)" stroke="rgb(204, 204, 204)" stroke-width="1px"></line><line x1="870.0464713609881" y1="0" x2="870.0464713609881" y2="5" style="visibility: inherit;" fill="rgb(0, 0, 0)" stroke="rgb(204, 204, 204)" stroke-width="1px"></line><line x1="1038.3023099338086" y1="0" x2="1038.3023099338086" y2="5" style="visibility: inherit;" fill="rgb(0, 0, 0)" stroke="rgb(204, 204, 204)" stroke-width="1px"></line></g><g transform="translate(0, 8)"><text style="text-anchor: middle; visibility: inherit; font-family: &quot;Helvetica Neue&quot;, sans-serif; font-size: 12px; font-weight: 200;" x="28.76727849688586" y="0" dx="0em" dy="0.95em" fill="rgb(50, 49, 63)" stroke="none" stroke-width="1px">0</text><text style="text-anchor: middle; visibility: inherit; font-family: &quot;Helvetica Neue&quot;, sans-serif; font-size: 12px; font-weight: 200;" x="197.0231170697063" y="0" dx="0em" dy="0.95em" fill="rgb(50, 49, 63)" stroke="none" stroke-width="1px">500</text><text style="text-anchor: middle; visibility: inherit; font-family: &quot;Helvetica Neue&quot;, sans-serif; font-size: 12px; font-weight: 200;" x="365.27895564252674" y="0" dx="0em" dy="0.95em" fill="rgb(50, 49, 63)" stroke="none" stroke-width="1px">1k</text><text style="text-anchor: middle; visibility: inherit; font-family: &quot;Helvetica Neue&quot;, sans-serif; font-size: 12px; font-weight: 200;" x="533.5347942153471" y="0" dx="0em" dy="0.95em" fill="rgb(50, 49, 63)" stroke="none" stroke-width="1px">1.5k</text><text style="text-anchor: middle; visibility: inherit; font-family: &quot;Helvetica Neue&quot;, sans-serif; font-size: 12px; font-weight: 200;" x="701.7906327881676" y="0" dx="0em" dy="0.95em" fill="rgb(50, 49, 63)" stroke="none" stroke-width="1px">2k</text><text style="text-anchor: middle; visibility: inherit; font-family: &quot;Helvetica Neue&quot;, sans-serif; font-size: 12px; font-weight: 200;" x="870.0464713609881" y="0" dx="0em" dy="0.95em" fill="rgb(50, 49, 63)" stroke="none" stroke-width="1px">2.5k</text><text style="text-anchor: middle; visibility: inherit; font-family: &quot;Helvetica Neue&quot;, sans-serif; font-size: 12px; font-weight: 200;" x="1038.3023099338086" y="0" dx="0em" dy="0.95em" fill="rgb(50, 49, 63)" stroke="none" stroke-width="1px">3k</text></g><line x1="0" y1="0" x2="1079.4159988403321" y2="0" fill="rgb(0, 0, 0)" stroke="rgb(204, 204, 204)" stroke-width="1px"></line></g></g></g></g></svg>