<svg viewBox="0 0 1129.4000244140625 400" xmlns="http://www.w3.org/2000/svg"><g><g><g><g><g><line x1="39.98800086975098" y1="364.67066041524777" x2="34.98800086975098" y2="364.67066041524777" style="visibility: inherit;" fill="rgb(0, 0, 0)" stroke="rgb(204, 204, 204)" stroke-width="1px"></line><line x1="39.98800086975098" y1="332.90115298754495" x2="34.98800086975098" y2="332.90115298754495" style="visibility: inherit;" fill="rgb(0, 0, 0)" stroke="rgb(204, 204, 204)" stroke-width="1px"></line><line x1="39.98800086975098" y1="301.131645559842" x2="34.98800086975098" y2="301.131645559842" style="visibility: inherit;" fill="rgb(0, 0, 0)" stroke="rgb(204, 204, 204)" stroke-width="1px"></line><line x1="39.98800086975098" y1="269.3621381321392" x2="34.98800086975098" y2="269.3621381321392" style="visibility: inherit;" fill="rgb(0, 0, 0)" stroke="rgb(204, 204, 204)" stroke-width="1px"></line><line x1="39.98800086975098" y1="237.59263070443626" x2="34.98800086975098" y2="237.59263070443626" style="visibility: inherit;" fill="rgb(0, 0, 0)" stroke="rgb(204, 204, 204)" stroke-width="1px"></line><line x1="39.98800086975098" y1="205.82312327673344" x2="34.98800086975098" y2="205.82312327673344" style="visibility: inherit;" fill="rgb(0, 0, 0)" stroke="rgb(204, 204, 204)" stroke-width="1px"></line><line x1="39.98800086975098" y1="174.0536158490305" x2="34.98800086975098" y2="174.0536158490305" style="visibility: inherit;" fill="rgb(0, 0, 0)" stroke="rgb(204, 204, 204)" stroke-width="1px"></line><line x1="39.98800086975098" y1="142.2841084213276" x2="34.98800086975098" y2="142.2841084213276" style="visibility: inherit;" fill="rgb(0, 0, 0)" stroke="rgb(204, 204, 204)" stroke-width="1px"></line><line x1="39.98800086975098" y1="110.51460099362481" x2="34.98800086975098" y2="110.51460099362481" style="visibility: inherit;" fill="rgb(0, 0, 0)" stroke="rgb(204, 204, 204)" stroke-width="1px"></line><line x1="39.98800086975098" y1="78.74509356592188" x2="34.98800086975098" y2="78.74509356592188" style="visibility: inherit;" fill="rgb(0, 0, 0)" stroke="rgb(204, 204, 204)" stroke-width="1px"></line><line x1="39.98800086975098" y1="46.97558613821906" x2="34.98800086975098" y2="46.97558613821906" style="visibility: inherit;" fill="rgb(0, 0, 0)" stroke="rgb(204, 204, 204)" stroke-width="1px"></line><line x1="39.98800086975098" y1="15.206078710516124" x2="34.98800086975098" y2="15.206078710516124" style="visibility: inherit;" fill="rgb(0, 0, 0)" stroke="rgb(204, 204, 204)" stroke-width="1px"></line></g><g transform="translate(29.988000869750977, 0)"><text style="text-anchor: end; visibility: inherit; font-family: &quot;Helvetica Neue&quot;, sans-serif; font-size: 12px; font-weight: 200;" x="0" y="364.67066041524777" dx="0em" dy="0.3em" fill="rgb(50, 49, 63)" stroke="none" stroke-width="1px">0.9</text><text style="text-anchor: end; visibility: inherit; font-family: &quot;Helvetica Neue&quot;, sans-serif; font-size: 12px; font-weight: 200;" x="0" y="332.90115298754495" dx="0em" dy="0.3em" fill="rgb(50, 49, 63)" stroke="none" stroke-width="1px">1</text><text style="text-anchor: end; visibility: inherit; font-family: &quot;Helvetica Neue&quot;, sans-serif; font-size: 12px; font-weight: 200;" x="0" y="301.131645559842" dx="0em" dy="0.3em" fill="rgb(50, 49, 63)" stroke="none" stroke-width="1px">1.1</text><text style="text-anchor: end; visibility: inherit; font-family: &quot;Helvetica Neue&quot;, sans-serif; font-size: 12px; font-weight: 200;" x="0" y="269.3621381321392" dx="0em" dy="0.3em" fill="rgb(50, 49, 63)" stroke="none" stroke-width="1px">1.2</text><text style="text-anchor: end; visibility: inherit; font-family: &quot;Helvetica Neue&quot;, sans-serif; font-size: 12px; font-weight: 200;" x="0" y="237.59263070443626" dx="0em" dy="0.3em" fill="rgb(50, 49, 63)" stroke="none" stroke-width="1px">1.3</text><text style="text-anchor: end; visibility: inherit; font-family: &quot;Helvetica Neue&quot;, sans-serif; font-size: 12px; font-weight: 200;" x="0" y="205.82312327673344" dx="0em" dy="0.3em" fill="rgb(50, 49, 63)" stroke="none" stroke-width="1px">1.4</text><text style="text-anchor: end; visibility: inherit; font-family: &quot;Helvetica Neue&quot;, sans-serif; font-size: 12px; font-weight: 200;" x="0" y="174.0536158490305" dx="0em" dy="0.3em" fill="rgb(50, 49, 63)" stroke="none" stroke-width="1px">1.5</text><text style="text-anchor: end; visibility: inherit; font-family: &quot;Helvetica Neue&quot;, sans-serif; font-size: 12px; font-weight: 200;" x="0" y="142.2841084213276" dx="0em" dy="0.3em" fill="rgb(50, 49, 63)" stroke="none" stroke-width="1px">1.6</text><text style="text-anchor: end; visibility: inherit; font-family: &quot;Helvetica Neue&quot;, sans-serif; font-size: 12px; font-weight: 200;" x="0" y="110.51460099362481" dx="0em" dy="0.3em" fill="rgb(50, 49, 63)" stroke="none" stroke-width="1px">1.7</text><text style="text-anchor: end; visibility: inherit; font-family: &quot;Helvetica Neue&quot;, sans-serif; font-size: 12px; font-weight: 200;" x="0" y="78.74509356592188" dx="0em" dy="0.3em" fill="rgb(50, 49, 63)" stroke="none" stroke-width="1px">1.8</text><text style="text-anchor: end; visibility: inherit; font-family: &quot;Helvetica Neue&quot;, sans-serif; font-size: 12px; font-weight: 200;" x="0" y="46.97558613821906" dx="0em" dy="0.3em" fill="rgb(50, 49, 63)" stroke="none" stroke-width="1px">1.9</text><text style="text-anchor: end; visibility: inherit; font-family: &quot;Helvetica Neue&quot;, sans-serif; font-size: 12px; font-weight: 200;" x="0" y="15.206078710516124" dx="0em" dy="0.3em" fill="rgb(50, 49, 63)" stroke="none" stroke-width="1px">2</text></g><line x1="39.98800086975098" y1="0" x2="39.98800086975098" y2="378.60799980163574" fill="rgb(0, 0, 0)" stroke="rgb(204, 204, 204)" stroke-width="1px"></line></g></g><g transform="translate(39, 0)" clip-path="url(#clip_0)"><clipPath id="clip_0"><rect width="1089" height="378"></rect></clipPath><g><g><g><line x1="15.558737922154767" y1="0" x2="15.558737922154767" y2="378.60799980163574" fill="rgb(0, 0, 0)" stroke="rgb(60, 60, 60)" stroke-width="1px" opacity="0.25"></line><line x1="86.05806293353491" y1="0" x2="86.05806293353491" y2="378.60799980163574" fill="rgb(0, 0, 0)" stroke="rgb(60, 60, 60)" stroke-width="1px" opacity="0.25"></line><line x1="156.55738794491506" y1="0" x2="156.55738794491506" y2="378.60799980163574" fill="rgb(0, 0, 0)" stroke="rgb(60, 60, 60)" stroke-width="1px" opacity="0.25"></line><line x1="227.0567129562952" y1="0" x2="227.0567129562952" y2="378.60799980163574" fill="rgb(0, 0, 0)" stroke="rgb(60, 60, 60)" stroke-width="1px" opacity="0.25"></line><line x1="297.5560379676753" y1="0" x2="297.5560379676753" y2="378.60799980163574" fill="rgb(0, 0, 0)" stroke="rgb(60, 60, 60)" stroke-width="1px" opacity="0.25"></line><line x1="368.0553629790555" y1="0" x2="368.0553629790555" y2="378.60799980163574" fill="rgb(0, 0, 0)" stroke="rgb(60, 60, 60)" stroke-width="1px" opacity="0.25"></line><line x1="438.5546879904356" y1="0" x2="438.5546879904356" y2="378.60799980163574" fill="rgb(0, 0, 0)" stroke="rgb(60, 60, 60)" stroke-width="1px" opacity="0.25"></line><line x1="509.05401300181575" y1="0" x2="509.05401300181575" y2="378.60799980163574" fill="rgb(0, 0, 0)" stroke="rgb(60, 60, 60)" stroke-width="1px" opacity="0.25"></line><line x1="579.5533380131959" y1="0" x2="579.5533380131959" y2="378.60799980163574" fill="rgb(0, 0, 0)" stroke="rgb(60, 60, 60)" stroke-width="1px" opacity="0.25"></line><line x1="650.0526630245761" y1="0" x2="650.0526630245761" y2="378.60799980163574" fill="rgb(0, 0, 0)" stroke="rgb(60, 60, 60)" stroke-width="1px" opacity="0.25"></line><line x1="720.5519880359562" y1="0" x2="720.5519880359562" y2="378.60799980163574" fill="rgb(0, 0, 0)" stroke="rgb(60, 60, 60)" stroke-width="1px" opacity="0.25"></line><line x1="791.0513130473363" y1="0" x2="791.0513130473363" y2="378.60799980163574" fill="rgb(0, 0, 0)" stroke="rgb(60, 60, 60)" stroke-width="1px" opacity="0.25"></line><line x1="861.5506380587165" y1="0" x2="861.5506380587165" y2="378.60799980163574" fill="rgb(0, 0, 0)" stroke="rgb(60, 60, 60)" stroke-width="1px" opacity="0.25"></line><line x1="932.0499630700966" y1="0" x2="932.0499630700966" y2="378.60799980163574" fill="rgb(0, 0, 0)" stroke="rgb(60, 60, 60)" stroke-width="1px" opacity="0.25"></line><line x1="1002.5492880814768" y1="0" x2="1002.5492880814768" y2="378.60799980163574" fill="rgb(0, 0, 0)" stroke="rgb(60, 60, 60)" stroke-width="1px" opacity="0.25"></line><line x1="1073.0486130928568" y1="0" x2="1073.0486130928568" y2="378.60799980163574" fill="rgb(0, 0, 0)" stroke="rgb(60, 60, 60)" stroke-width="1px" opacity="0.25"></line></g><g><line x1="0" y1="364.67066041524777" x2="1089.4119991302491" y2="364.67066041524777" fill="rgb(0, 0, 0)" stroke="rgb(60, 60, 60)" stroke-width="1px" opacity="0.25"></line><line x1="0" y1="332.90115298754495" x2="1089.4119991302491" y2="332.90115298754495" fill="rgb(0, 0, 0)" stroke="rgb(60, 60, 60)" stroke-width="1px" opacity="0.25"></line><line x1="0" y1="301.131645559842" x2="1089.4119991302491" y2="301.131645559842" fill="rgb(0, 0, 0)" stroke="rgb(60, 60, 60)" stroke-width="1px" opacity="0.25"></line><line x1="0" y1="269.3621381321392" x2="1089.4119991302491" y2="269.3621381321392" fill="rgb(0, 0, 0)" stroke="rgb(60, 60, 60)" stroke-width="1px" opacity="0.25"></line><line x1="0" y1="237.59263070443626" x2="1089.4119991302491" y2="237.59263070443626" fill="rgb(0, 0, 0)" stroke="rgb(60, 60, 60)" stroke-width="1px" opacity="0.25"></line><line x1="0" y1="205.82312327673344" x2="1089.4119991302491" y2="205.82312327673344" fill="rgb(0, 0, 0)" stroke="rgb(60, 60, 60)" stroke-width="1px" opacity="0.25"></line><line x1="0" y1="174.0536158490305" x2="1089.4119991302491" y2="174.0536158490305" fill="rgb(0, 0, 0)" stroke="rgb(60, 60, 60)" stroke-width="1px" opacity="0.25"></line><line x1="0" y1="142.2841084213276" x2="1089.4119991302491" y2="142.2841084213276" fill="rgb(0, 0, 0)" stroke="rgb(60, 60, 60)" stroke-width="1px" opacity="0.25"></line><line x1="0" y1="110.51460099362481" x2="1089.4119991302491" y2="110.51460099362481" fill="rgb(0, 0, 0)" stroke="rgb(60, 60, 60)" stroke-width="1px" opacity="0.25"></line><line x1="0" y1="78.74509356592188" x2="1089.4119991302491" y2="78.74509356592188" fill="rgb(0, 0, 0)" stroke="rgb(60, 60, 60)" stroke-width="1px" opacity="0.25"></line><line x1="0" y1="46.97558613821906" x2="1089.4119991302491" y2="46.97558613821906" fill="rgb(0, 0, 0)" stroke="rgb(60, 60, 60)" stroke-width="1px" opacity="0.25"></line><line x1="0" y1="15.206078710516124" x2="1089.4119991302491" y2="15.206078710516124" fill="rgb(0, 0, 0)" stroke="rgb(60, 60, 60)" stroke-width="1px" opacity="0.25"></line></g></g></g><g><g><line x1="0" y1="650.5962272645737" x2="1089.4119991302491" y2="650.5962272645737" fill="rgb(0, 0, 0)" stroke="rgb(153, 153, 153)" stroke-width="1.5px"></line></g></g><g><g><line x1="15.558737922154767" y1="0" x2="15.558737922154767" y2="378.60799980163574" fill="rgb(0, 0, 0)" stroke="rgb(153, 153, 153)" stroke-width="1.5px"></line></g></g><g><g><g><g><g><path style="fill: none;" stroke="rgb(187, 187, 187)" stroke-width="2px" d="M17.67371767249617,346.8797456480408L18.02621429755307,345.6089627756228L19.788697422837576,343.3850880148658L20.846187298008275,350.37438434511375L21.19868392306518,345.9266537597018L22.256173798235878,345.9266537597018L22.961167048349683,341.7966141583688L24.371153548577286,337.98426554111484L28.601113049260093,341.7966141583688L30.011099549487696,344.6558708872838L30.716092799601494,335.7604097164599L31.4210860497153,339.57275833371386L31.773582674772197,338.93735742945387L32.478575924886,337.3488835729569L34.59355567522741,335.7604097164599L34.94605230028431,341.47892317428983L35.2985489253412,335.7604097164599L35.65104555039811,340.84352227002984L36.00354217545501,344.0204889191258L38.82351517591022,335.7604097164599L39.88100505108091,340.2081403018718L40.938494926251614,337.3488835729569L41.290991551308515,349.10360147269574L41.64348817636542,339.89044931779284L41.99598480142232,337.98426554111484L43.75846792670682,337.0311925888779L46.57844092716203,338.6196664453749L46.93093755221893,337.3488835729569L49.04591730256033,336.39579168461785L51.86589030301554,336.39579168461785L52.92338017818624,337.0311925888779L53.275876803243136,334.80731782812086L55.74335317864145,339.89044931779284L56.80084305381215,342.74970604670784L57.50583630392595,344.9735618713628L60.32580930438116,337.66657455703586L61.38329917955186,337.66657455703586L61.735795804608756,338.6196664453749L64.90826543012086,337.0311925888779L65.61325868023467,335.12502774830193L65.96575530529157,337.0311925888779L66.31825193034847,334.80731782812086L68.78572830574677,334.80731782812086L70.54821143103128,337.3488835729569L71.25320468114508,337.0311925888779L71.60570130620198,335.7604097164599L73.01568780642958,334.80731782812086L74.77817093171409,335.12502774830193L75.13066755677099,337.3488835729569L76.18815743194169,336.39579168461785L78.3031371822831,337.3488835729569L78.65563380734,336.7135016047989L79.3606270574538,334.80731782812086L80.4181169326245,335.12502774830193L81.12311018273829,335.7604097164599L81.4756068077952,334.80731782812086L82.18060005790899,336.7135016047989L82.8855933080228,334.80731782812086L83.23808993307969,335.7604097164599L85.705566308478,334.80731782812086L88.5255393089332,334.80731782812086L88.8780359339901,334.80731782812086L89.23053255904702,335.4427187323809L90.64051905927462,335.12502774830193L94.16548530984362,336.7135016047989L94.51798193490052,335.7604097164599L95.22297518501432,337.66657455703586L96.63296168524192,335.4427187323809L97.69045156041263,335.4427187323809L98.04294818546953,334.80731782812086L98.39544481052643,334.80731782812086L99.45293468569713,335.12502774830193L103.68289418637994,335.12502774830193L105.79787393672134,335.4427187323809L106.85536381189205,335.12502774830193L107.56035706200585,335.4427187323809L107.91285368706275,336.39579168461785L108.61784693717655,335.4427187323809L110.02783343740415,335.12502774830193L111.43781993763176,335.4427187323809L112.14281318774556,335.4427187323809L113.90529631303005,336.7135016047989L118.84024906382668,335.4427187323809L120.60273218911117,334.80731782812086L120.95522881416808,335.7604097164599L122.36521531439568,335.12502774830193L122.71771193945257,335.7604097164599L124.12769843968019,337.3488835729569L124.48019506473709,335.4427187323809L125.18518831485088,335.7604097164599L126.24267819002158,335.12502774830193L128.00516131530608,335.4427187323809L128.357657940363,335.7604097164599L128.71015456541988,334.80731782812086L130.4726376907044,335.4427187323809L130.8251343157613,337.3488835729569L131.17763094081818,335.7604097164599L132.2351208159889,336.07810070053887L135.40759044150101,336.07810070053887L136.11258369161482,335.4427187323809L138.22756344195622,334.80731782812086L140.3425431922976,334.80731782812086L140.6950398173545,337.66657455703586L142.81001956769592,335.7604097164599L143.8675094428666,335.7604097164599L145.27749594309424,335.12502774830193L146.6874824433218,335.4427187323809L147.39247569343564,336.39579168461785L148.80246219366322,337.66657455703586L149.15495881872013,335.4427187323809L149.50745544377705,335.4427187323809L150.21244869389085,337.3488835729569L151.97493181917534,336.07810070053887L153.73741494445983,335.7604097164599L154.08991156951674,335.12502774830193L154.44240819457366,338.6196664453749L159.72985757042716,335.12502774830193L162.19733394582545,337.98426554111484L164.31231369616685,337.3488835729569L164.66481032122377,334.80731782812086L165.36980357133757,336.39579168461785L166.07479682145134,337.3488835729569L167.48478332167898,335.4427187323809L170.65725294719107,334.80731782812086L171.36224619730487,335.12502774830193L171.71474282236179,336.39579168461785L172.77223269753247,335.4427187323809L174.88721244787388,336.7135016047989L177.70718544832908,338.3019754612959L178.059682073386,335.7604097164599L179.1171719485567,336.7135016047989L179.46966857361357,336.07810070053887L182.6421381991257,334.80731782812086L182.9946348241826,335.7604097164599L186.8720976998085,337.0311925888779L187.92958757497922,335.7604097164599L188.28208420003614,337.3488835729569L188.9870774501499,334.80731782812086L189.6920707002637,336.7135016047989L194.62702345106035,335.4427187323809L196.38950657634484,335.4427187323809L197.09449982645864,337.0311925888779L198.15198970162933,335.4427187323809L198.85698295174313,338.3019754612959L200.61946607702765,337.3488835729569L200.97196270208454,337.66657455703586L203.08694245242594,337.0311925888779L203.79193570253977,337.3488835729569L204.14443232759666,336.07810070053887L204.84942557771046,338.3019754612959L205.20192220276735,335.4427187323809L206.25941207793807,335.12502774830193L206.96440532805187,335.4427187323809L208.72688845333636,335.4427187323809L209.07938507839327,335.7604097164599L212.25185470390537,338.3019754612959L212.9568479540192,335.7604097164599L214.36683445424677,337.66657455703586L214.71933107930369,335.4427187323809L215.0718277043606,335.4427187323809L216.48181420458818,334.80731782812086L217.89180070481578,335.12502774830193L218.2442973298727,337.3488835729569L219.3017872050434,335.4427187323809L220.00678045515718,336.39579168461785L220.3592770802141,336.39579168461785L220.71177370527099,335.4427187323809L221.0642703303279,334.80731782812086L221.41676695538482,336.07810070053887L221.76926358044167,335.7604097164599L222.47425683055548,334.80731782812086L222.8267534556124,336.07810070053887L224.58923658089688,336.07810070053887L224.9417332059538,335.7604097164599L226.3517197061814,334.80731782812086L227.40920958135212,335.12502774830193L228.11420283146592,335.4427187323809L230.22918258180732,335.4427187323809L230.9341758319211,335.7604097164599L232.69665895720559,335.12502774830193L234.10664545743322,336.7135016047989L234.45914208249013,337.0311925888779L235.1641353326039,336.07810070053887L239.39409483328672,336.07810070053887L241.86157120868504,334.80731782812086L242.21406783374192,335.4427187323809L242.91906108385575,336.7135016047989L243.27155770891264,338.3019754612959L243.62405433396953,335.12502774830193L243.9765509590264,335.4427187323809L244.68154420914024,335.12502774830193L245.73903408431096,335.4427187323809L247.14902058453853,335.4427187323809L247.50151720959545,334.80731782812086L248.91150370982305,335.12502774830193L249.96899358499377,335.12502774830193L251.37898008522134,335.7604097164599L252.43646996039203,336.7135016047989L252.78896658544895,337.98426554111484L253.14146321050586,336.07810070053887L253.49395983556275,335.7604097164599L253.84645646061966,337.98426554111484L254.55144971073344,337.3488835729569L254.90394633579035,335.4427187323809L255.25644296084727,335.4427187323809L256.31393283601795,335.4427187323809L256.66642946107487,335.12502774830193L257.0189260861317,336.7135016047989L257.72391933624556,335.4427187323809L258.4289125863594,337.0311925888779L258.7814092114163,335.12502774830193L261.24888558681454,336.07810070053887L262.3063754619853,335.12502774830193L263.7163619622129,337.3488835729569L264.7738518373836,335.7604097164599L265.4788450874974,335.4427187323809L266.1838383376112,336.07810070053887L267.5938248378388,336.7135016047989L269.0038113380664,334.80731782812086L270.0613012132371,335.4427187323809L270.413797838294,335.7604097164599L270.7662944633509,335.7604097164599L271.1187910884078,338.3019754612959L273.2337708387492,335.4427187323809L275.34875058909057,337.66657455703586L276.0537438392044,337.0311925888779L276.40624046426126,337.66657455703586L277.8162269644889,335.4427187323809L278.8737168396596,336.39579168461785L279.2262134647165,337.0311925888779L280.2837033398872,335.4427187323809L280.63619996494407,335.4427187323809L280.988696590001,335.4427187323809L281.6936898401148,335.4427187323809L282.39868309022864,335.4427187323809L284.51366284056996,335.7604097164599L285.5711527157407,336.39579168461785L285.9236493407976,336.07810070053887L286.9811392159683,335.12502774830193L287.3336358410252,336.7135016047989L287.68613246608214,338.3019754612959L288.391125716196,336.7135016047989L288.7436223412528,336.39579168461785L290.8586020915942,337.3488835729569L292.26858859182187,337.98426554111484L292.6210852168788,334.80731782812086L293.3260784669925,336.7135016047989L294.03107171710633,335.4427187323809L294.73606496722016,334.80731782812086L295.088561592277,335.4427187323809L295.44105821733393,335.4427187323809L295.79355484239085,336.39579168461785L296.14605146744776,336.07810070053887L297.2035413426184,335.4427187323809L297.9085345927322,335.4427187323809L298.61352784284605,335.4427187323809L299.67101771801674,334.80731782812086L300.3760109681306,336.07810070053887L300.7285075931875,337.66657455703586L301.08100421824435,337.0311925888779L303.1959839685857,336.07810070053887L303.54848059364264,334.80731782812086L304.25347384375647,335.4427187323809L305.31096371892716,334.80731782812086L306.72095021915476,335.12502774830193L307.77844009432545,335.4427187323809L308.8359299694962,336.39579168461785L309.18842659455305,337.0311925888779L309.8934198446669,335.12502774830193L310.59841309478065,335.7604097164599L311.3034063448944,336.07810070053887L313.065889470179,335.12502774830193L314.1233793453497,336.07810070053887L314.82837259546346,335.4427187323809L320.11582197131696,334.80731782812086L321.52580847154456,337.3488835729569L322.2308017216584,337.66657455703586L322.5832983467153,336.39579168461785L323.99328484694286,337.0311925888779L324.6982780970567,336.07810070053887L325.0507747221136,337.0311925888779L326.1082645972843,336.07810070053887L326.8132578473981,337.98426554111484L327.51825109751195,334.80731782812086L328.5757409726826,337.3488835729569L329.2807342227964,336.39579168461785L329.6332308478533,334.80731782812086L330.3382240979671,335.4427187323809L331.74821059819476,335.7604097164599L333.1581970984223,335.12502774830193L335.62567347382065,336.39579168461785L335.9781700988775,336.07810070053887L336.3306667239344,335.12502774830193L336.6831633489913,335.12502774830193L337.3881565991051,345.6089627756228L338.4456464742758,335.4427187323809L338.7981430993327,335.12502774830193L339.15063972438963,337.98426554111484L340.2081295995603,336.07810070053887L340.56062622461724,335.4427187323809L340.91312284967415,336.07810070053887L341.265619474731,334.80731782812086L344.0855924751862,335.7604097164599L344.43808910024313,337.98426554111484L345.4955789754138,335.7604097164599L347.96305535081217,336.7135016047989L349.02054522598286,337.98426554111484L351.84051822643806,334.80731782812086L352.193014851495,336.07810070053887L352.89800810160875,335.4427187323809L353.25050472666567,334.80731782812086L353.6030013517226,335.7604097164599L354.6604912268932,334.80731782812086L355.01298785195013,334.80731782812086L355.71798110206396,47.293265760636814L356.42297435217773,334.80731782812086L358.1854574774623,336.07810070053887L358.5379541025191,335.7604097164599L359.94794060274677,335.7604097164599L360.3004372278037,336.07810070053887L360.65293385286054,335.4427187323809L361.00543047791746,335.12502774830193L362.0629203530882,335.12502774830193L362.4154169781451,334.80731782812086L362.767913603202,335.4427187323809L363.82540347837266,335.7604097164599L364.1779001034296,335.4427187323809L366.9978731038848,335.12502774830193L368.4078596041124,336.7135016047989L369.11285285422616,334.80731782812086L369.81784610434,335.7604097164599L370.1703427293969,335.12502774830193L371.2278326045676,337.98426554111484L372.2853224797383,335.4427187323809L372.6378191047952,335.7604097164599L372.99031572985206,336.07810070053887L373.342812354909,337.0311925888779L374.4003022300797,339.57275833371386L377.22027523053487,335.7604097164599L377.9252684806487,334.80731782812086L378.6302617307625,336.07810070053887L379.3352549808763,335.7604097164599L379.6877516059332,336.7135016047989L380.7452414811039,336.07810070053887L381.4502347312177,336.07810070053887L382.1552279813315,336.7135016047989L383.917711106616,336.07810070053887L386.3851874820143,335.7604097164599L386.73768410707123,335.4427187323809L387.7951739822419,336.39579168461785L388.50016723235575,337.66657455703586L390.6151469826971,338.6196664453749L390.96764360775404,336.07810070053887L391.6726368578678,335.4427187323809L392.37763010798164,337.66657455703586L393.7876166082092,334.80731782812086L395.19760310843685,335.4427187323809L395.9025963585506,335.7604097164599L397.66507948383514,335.12502774830193L398.017576108892,337.0311925888779L398.3700727339489,336.07810070053887L400.83754910934726,336.07810070053887L401.1900457344042,338.3019754612959L403.30502548474556,337.98426554111484L404.71501198497316,335.4427187323809L405.0675086100301,336.39579168461785L405.420005235087,336.07810070053887L408.59247486059905,335.12502774830193L409.2974681107129,335.12502774830193L410.3549579858836,334.80731782812086L412.46993773622495,336.7135016047989L412.82243436128186,334.80731782812086L414.23242086150947,335.12502774830193L415.2899107366802,337.98426554111484L415.64240736173707,338.6196664453749L415.99490398679393,336.07810070053887L417.0523938619647,335.12502774830193L420.92985673759057,336.39579168461785L421.9873466127613,334.80731782812086L423.044836487932,336.07810070053887L423.3973331129889,334.80731782812086L423.74982973804583,335.12502774830193L424.80731961321646,334.80731782812086L425.1598162382734,336.7135016047989L425.5123128633303,336.07810070053887L430.7997622391838,335.12502774830193L431.85725211435454,334.80731782812086L432.5622453644683,335.4427187323809L432.91474198952517,336.39579168461785L433.619735239639,335.12502774830193L433.9722318646959,336.7135016047989L435.0297217398666,336.07810070053887L436.08721161503735,335.7604097164599L436.4397082400942,338.6196664453749L437.14470149020804,335.12502774830193L437.8496947403218,336.39579168461785L438.5546879904356,334.80731782812086L439.2596812405494,334.80731782812086L440.31717111572016,335.12502774830193L441.02216436583393,335.4427187323809L441.7271576159477,336.07810070053887L442.43215086606153,334.80731782812086L443.1371441161753,336.07810070053887L443.84213736628914,339.25504841353285L447.3671036168581,335.7604097164599L448.7770901170857,335.4427187323809L450.1870766173134,335.7604097164599L450.53957324237024,335.4427187323809L450.8920698674271,335.7604097164599L451.5970631175409,335.7604097164599L452.6545529927117,335.12502774830193L453.71204286788236,337.3488835729569L454.4170361179962,336.7135016047989L455.4745259931668,336.7135016047989L457.58950574350825,336.39579168461785L458.2944989936221,335.7604097164599L458.9994922437359,335.4427187323809L459.3519888687927,335.12502774830193L460.40947874396346,334.80731782812086L460.7619753690204,336.39579168461785L461.11447199407723,335.12502774830193L462.171961869248,337.0311925888779L464.9919348697032,335.4427187323809L466.7544179949877,334.80731782812086L467.4594112451015,334.80731782812086L469.57439099544285,336.7135016047989L470.9843774956705,336.39579168461785L471.3368741207274,337.0311925888779L471.6893707457843,335.12502774830193L472.0418673708412,334.80731782812086L474.1568471211826,335.12502774830193L475.2143369963533,335.12502774830193L477.68181337175156,336.39579168461785L478.3868066218654,335.7604097164599L479.44429649703613,337.3488835729569L479.796793122093,334.80731782812086L480.85428299726374,336.7135016047989L481.2067796223206,337.3488835729569L482.9692627476051,334.80731782812086L483.32175937266203,335.7604097164599L483.6742559977189,336.39579168461785L484.73174587288963,334.80731782812086L485.78923574806026,335.4427187323809L486.1417323731172,336.7135016047989L486.4942289981741,335.12502774830193L486.846725623231,334.80731782812086L487.1992222482879,335.12502774830193L489.31420199862936,335.12502774830193L491.42918174897073,335.4427187323809L493.54416149931217,335.12502774830193L494.9541479995397,336.07810070053887L495.65914124965354,335.4427187323809L497.42162437493806,335.4427187323809L498.8316108751656,335.7604097164599L501.29908725056396,335.4427187323809L502.0040805006778,335.7604097164599L503.0615703758484,336.07810070053887L503.76656362596225,335.4427187323809L504.1190602510191,335.4427187323809L505.17655012618985,335.12502774830193L505.52904675124677,336.7135016047989L506.23404000136054,334.80731782812086L506.58653662641746,335.4427187323809L507.64402650158814,337.3488835729569L513.6364691275554,334.80731782812086L513.9889657526123,336.07810070053887L514.3414623776692,334.80731782812086L514.6939590027262,336.7135016047989L516.1039455029537,335.12502774830193L517.1614353781245,336.39579168461785L518.5714218783521,336.07810070053887L518.923918503409,334.80731782812086L519.2764151284659,335.7604097164599L520.6864016286935,335.4427187323809L521.0388982537504,336.7135016047989L521.3913948788073,337.0311925888779L522.096388128921,337.98426554111484L522.8013813790349,334.80731782812086L523.5063746291487,335.7604097164599L524.2113678792625,335.7604097164599L527.0313408797177,336.39579168461785L528.7938240050022,334.80731782812086L529.1463206300591,337.98426554111484L532.3187902555712,335.12502774830193L532.6712868806281,336.39579168461785L536.548749756254,338.6196664453749L538.3112328815384,334.80731782812086L539.3687227567092,335.7604097164599L539.7212193817661,335.7604097164599L540.7787092569368,336.07810070053887L541.4837025070507,336.07810070053887L541.8361991321076,336.39579168461785L544.6561721325627,336.07810070053887L545.0086687576196,336.07810070053887L545.3611653826765,335.4427187323809L545.7136620077334,334.80731782812086L546.7711518829041,336.07810070053887L547.4761451330179,335.4427187323809L547.8286417580749,337.0311925888779L548.1811383831317,335.12502774830193L551.0011113835869,335.7604097164599L552.7635945088714,338.6196664453749L553.1160911339283,336.39579168461785L554.173581009099,335.7604097164599L556.6410573844973,335.4427187323809L557.3460506346112,334.80731782812086L560.8710168851802,334.80731782812086L562.6335000104647,335.7604097164599L562.9859966355215,336.07810070053887L563.6909898856353,337.3488835729569L564.0434865106923,336.39579168461785L566.1584662610337,336.07810070053887L566.5109628860906,335.4427187323809L568.625942636432,335.7604097164599L568.9784392614888,336.39579168461785L572.1509088870009,336.39579168461785L573.5608953872286,337.66657455703586L574.2658886373424,336.39579168461785L575.67587513757,338.3019754612959L578.8483447630821,335.7604097164599L579.5533380131959,336.7135016047989L580.6108278883665,335.4427187323809L581.3158211384804,336.07810070053887L581.6683177635373,336.07810070053887L583.4308008888218,339.89044931779284L584.4882907639925,337.0311925888779L586.2507738892771,338.93735742945387L586.9557671393909,335.7604097164599L588.3657536396183,335.4427187323809L589.0707468897322,334.80731782812086L589.4232435147891,336.39579168461785L589.775740139846,336.07810070053887L590.4807333899598,334.80731782812086L591.1857266400737,337.3488835729569L592.9482097653581,334.80731782812086L594.0056996405289,337.3488835729569L594.7106928906427,337.0311925888779L595.7681827658133,335.7604097164599L596.8256726409841,335.4427187323809L598.2356591412116,337.0311925888779L599.2931490163824,335.4427187323809L600.70313551661,337.3488835729569L601.0556321416668,335.12502774830193L601.4081287667237,337.0311925888779L603.875605142122,335.7604097164599L604.5805983922359,335.7604097164599L605.2855916423497,335.12502774830193L606.3430815175203,335.12502774830193L606.6955781425772,334.80731782812086L608.8105578929186,335.4427187323809L609.1630545179756,334.80731782812086L610.5730410182031,336.7135016047989L611.9830275184307,336.39579168461785L613.0405173936015,337.98426554111484L613.3930140186584,337.0311925888779L613.7455106437153,336.39579168461785L614.0980072687721,344.6558708872838L614.8030005188859,335.7604097164599L615.8604903940567,337.98426554111484L618.327966769455,335.12502774830193L618.6804633945119,335.7604097164599L620.4429465197964,339.89044931779284L621.1479397699102,336.07810070053887L621.5004363949671,334.80731782812086L621.852933020024,334.80731782812086L625.025402645536,335.12502774830193L626.4353891457637,334.80731782812086L626.7878857708206,335.4427187323809L627.1403823958775,336.39579168461785L627.4928790209343,334.80731782812086L628.1978722710481,336.07810070053887L629.9603553963327,336.07810070053887L630.3128520213895,334.80731782812086L631.0178452715033,335.7604097164599L631.3703418965604,335.4427187323809L631.7228385216172,335.12502774830193L632.7803283967878,336.39579168461785L633.4853216469016,334.80731782812086L633.8378182719587,336.7135016047989L634.1903148970155,336.07810070053887L637.3627845225276,335.7604097164599L638.4202743976983,337.0311925888779L641.5927440232105,335.12502774830193L643.7077237735518,335.4427187323809L644.0602203986087,337.0311925888779L646.1752001489501,336.07810070053887L646.527696774007,336.07810070053887L646.880193399064,336.7135016047989L647.5851866491778,336.07810070053887L649.700166399519,335.4427187323809L651.8151461498605,335.4427187323809L652.1676427749175,336.7135016047989L654.9876157753725,335.7604097164599L655.3401124004296,346.8797456480408L656.3976022756002,335.4427187323809L657.455092150771,335.7604097164599L658.8650786509985,335.4427187323809L659.5700719011123,335.7604097164599L660.98005840134,334.80731782812086L663.0950381516814,334.80731782812086L664.505024651909,336.7135016047989L664.8575212769658,335.12502774830193L665.9150111521366,335.7604097164599L666.6200044022504,337.3488835729569L667.677494277421,337.66657455703586L669.0874807776487,335.12502774830193L669.7924740277625,335.12502774830193L670.4974672778764,337.98426554111484L670.8499639029332,335.7604097164599L671.2024605279902,335.4427187323809L673.6699369033884,336.7135016047989L674.3749301535022,335.12502774830193L674.7274267785591,336.7135016047989L676.8424065289005,335.4427187323809L677.1949031539574,336.07810070053887L677.5473997790143,335.7604097164599L678.2523930291281,336.07810070053887L678.957386279242,335.12502774830193L683.1873457799247,342.43199612652677L686.3598154054367,335.12502774830193L687.7698019056644,334.80731782812086L689.5322850309489,334.80731782812086L689.8847816560059,335.7604097164599L691.6472647812903,334.80731782812086L691.9997614063473,335.12502774830193L692.3522580314041,335.4427187323809L693.7622445316317,336.39579168461785L694.1147411566885,334.80731782812086L696.22972090703,335.12502774830193L697.6397074072577,335.12502774830193L697.9922040323145,335.12502774830193L698.3447006573714,335.4427187323809L699.0496939074852,335.7604097164599L699.4021905325421,335.7604097164599L701.1646736578267,337.3488835729569L702.2221635329973,335.4427187323809L702.9271567831112,338.6196664453749L703.9846466582818,337.0311925888779L705.0421365334525,336.07810070053887L706.0996264086233,336.07810070053887L706.804619658737,337.3488835729569L708.9195994090785,336.07810070053887L709.2720960341353,334.80731782812086L709.9770892842491,335.12502774830193L710.682082534363,335.12502774830193L713.8545521598751,336.07810070053887L714.207048784932,336.07810070053887L714.5595454099888,336.7135016047989L714.9120420350458,337.98426554111484L719.8469947858424,337.98426554111484L721.25698128607,335.7604097164599L722.6669677862976,335.12502774830193L723.0194644113544,336.39579168461785L724.0769542865252,334.80731782812086L724.4294509115821,335.4427187323809L725.4869407867527,335.7604097164599L726.1919340368665,334.80731782812086L726.8969272869804,334.80731782812086L728.6594104122648,336.7135016047989L729.7169002874356,337.98426554111484L730.4218935375494,334.80731782812086L730.7743901626063,334.80731782812086L731.47938341272,336.07810070053887L732.5368732878908,335.4427187323809L733.5943631630615,340.52583128595086L734.2993564131754,335.4427187323809L735.356846288346,335.12502774830193L736.4143361635167,340.2081403018718L736.7668327885737,335.4427187323809L737.8243226637443,334.80731782812086L738.881812538915,335.4427187323809L741.7017855393701,337.66657455703586L742.0542821644271,336.7135016047989L742.759275414541,335.7604097164599L744.5217585398254,334.80731782812086L746.2842416651099,336.39579168461785L746.6367382901668,335.4427187323809L746.9892349152237,335.12502774830193L747.6942281653374,336.39579168461785L748.0467247903945,335.4427187323809L748.7517180405083,334.80731782812086L749.4567112906221,335.4427187323809L750.5142011657928,336.07810070053887L750.8666977908496,334.80731782812086L752.2766842910772,335.4427187323809L754.0391674163618,336.07810070053887L754.7441606664755,335.4427187323809L756.8591404168169,335.4427187323809L757.2116370418739,336.39579168461785L757.5641336669307,335.7604097164599L757.9166302919876,338.6196664453749L758.2691269170446,335.7604097164599L759.3266167922152,336.39579168461785L760.031610042329,337.0311925888779L761.0890999174998,334.80731782812086L761.4415965425567,335.4427187323809L762.4990864177274,335.7604097164599L763.2040796678411,335.4427187323809L763.9090729179549,336.07810070053887L764.2615695430119,334.80731782812086L764.6140661680687,336.39579168461785L766.0240526682963,336.7135016047989L767.434039168524,335.4427187323809L767.7865357935808,335.4427187323809L768.1390324186377,335.4427187323809L769.5490189188654,335.7604097164599L769.9015155439222,335.7604097164599L770.606508794036,336.39579168461785L770.959005419093,336.07810070053887L771.6639986692069,335.12502774830193L772.0164952942637,335.4427187323809L772.3689919193205,335.4427187323809L773.0739851694343,336.7135016047989L773.4264817944913,336.39579168461785L774.131475044605,335.12502774830193L775.1889649197758,334.80731782812086L775.8939581698896,335.12502774830193L776.2464547949464,335.4427187323809L778.3614345452878,335.4427187323809L778.7139311703448,336.07810070053887L779.0664277954016,334.80731782812086L780.4764142956293,336.07810070053887L781.1814075457431,335.7604097164599L781.886400795857,335.4427187323809L783.2963872960845,335.12502774830193L785.7638636714828,335.4427187323809L786.8213535466534,336.07810070053887L787.5263467967673,334.80731782812086L788.2313400468811,336.07810070053887L788.583836671938,334.80731782812086L789.9938231721655,335.7604097164599L790.6988164222794,337.66657455703586L791.0513130473363,334.80731782812086L791.4038096723932,336.39579168461785L792.461299547564,337.3488835729569L792.8137961726208,335.4427187323809L793.8712860477915,335.7604097164599L794.2237826728484,334.80731782812086L795.281272548019,336.7135016047989L796.3387624231899,338.6196664453749L797.7487489234175,336.39579168461785L799.8637286737588,336.39579168461785L800.2162252988157,339.25504841353285L801.2737151739864,337.66657455703586L801.6262117990434,334.80731782812086L802.3312050491572,336.7135016047989L803.0361982992708,336.07810070053887L803.3886949243279,336.39579168461785L804.0936881744417,337.3488835729569L804.4461847994985,337.3488835729569L805.1511780496123,337.66657455703586L805.5036746746692,340.52583128595086L805.8561712997262,336.7135016047989L806.2086679247831,337.66657455703586L806.9136611748968,335.7604097164599L807.6186544250106,336.07810070053887L807.9711510500675,335.12502774830193L809.3811375502952,335.12502774830193L809.733634175352,336.07810070053887L810.4386274254658,336.7135016047989L811.4961173006365,334.80731782812086L812.2011105507503,337.66657455703586L813.258600425921,339.25504841353285L817.4885599266038,337.0311925888779L818.8985464268314,335.12502774830193L819.9560363020022,335.4427187323809L821.7185194272867,335.7604097164599L822.4235126774005,338.3019754612959L823.4810025525711,334.80731782812086L825.5959823029126,344.0204889191258L825.9484789279694,336.07810070053887L826.6534721780832,335.7604097164599L827.710962053254,336.39579168461785L828.7684519284247,335.4427187323809L829.1209485534815,336.07810070053887L829.4734451785384,338.3019754612959L832.6459148040506,336.07810070053887L832.9984114291076,336.07810070053887L833.3509080541644,337.3488835729569L833.7034046792212,334.80731782812086L834.408397929335,336.39579168461785L835.1133911794489,337.66657455703586L836.1708810546196,335.4427187323809L837.9333641799041,335.7604097164599L838.6383574300179,335.7604097164599L838.9908540550748,335.12502774830193L839.3433506801317,336.39579168461785L839.6958473051885,335.4427187323809L842.5158203056438,335.7604097164599L845.688289931156,334.80731782812086L847.4507730564404,336.07810070053887L850.2707460568956,335.12502774830193L850.6232426819524,336.7135016047989L851.6807325571233,335.4427187323809L853.0907190573508,336.39579168461785L854.1482089325215,335.7604097164599L855.5581954327491,335.4427187323809L856.6156853079198,337.3488835729569L857.6731751830906,337.3488835729569L858.0256718081474,336.39579168461785L858.3781684332043,335.12502774830193L859.0831616833182,335.7604097164599L861.9031346837734,334.80731782812086L862.6081279338871,336.39579168461785L863.3131211840009,335.7604097164599L864.0181144341148,335.4427187323809L865.7805975593992,335.12502774830193L867.5430806846838,334.80731782812086L870.363053685139,335.4427187323809L870.7155503101959,343.0673970307868L871.0680469352527,338.6196664453749L872.4780334354804,334.80731782812086L873.535523310651,335.7604097164599L874.5930131858219,334.80731782812086L877.412986186277,336.39579168461785L878.1179794363908,335.4427187323809L879.5279659366183,338.3019754612959L879.8804625616754,335.7604097164599L880.2329591867322,335.12502774830193L880.5854558117892,335.7604097164599L881.2904490619028,335.7604097164599L881.9954423120166,335.7604097164599L883.0529321871874,338.6196664453749L884.1104220623581,335.4427187323809L884.462918687415,336.07810070053887L885.1679119375289,337.66657455703586L885.8729051876426,335.12502774830193L888.340381563041,335.12502774830193L889.7503680632685,338.3019754612959L890.4553613133822,335.12502774830193L891.1603545634961,335.7604097164599L891.8653478136099,337.0311925888779L892.2178444386668,335.7604097164599L892.9228376887806,335.7604097164599L893.9803275639513,339.89044931779284L894.6853208140651,336.39579168461785L895.7428106892357,336.07810070053887L896.4478039393496,336.39579168461785L897.5052938145203,335.12502774830193L897.8577904395772,335.4427187323809L898.2102870646341,336.07810070053887L901.7352533152031,335.12502774830193L902.0877499402601,336.39579168461785L902.7927431903739,336.7135016047989L903.1452398154307,336.07810070053887L903.4977364404875,337.3488835729569L903.8502330655446,335.12502774830193L904.9077229407152,334.80731782812086L905.2602195657722,337.98426554111484L905.9652128158859,339.25504841353285L907.0227026910567,335.12502774830193L907.7276959411704,335.7604097164599L908.4326891912842,336.39579168461785L909.137682441398,336.7135016047989L912.3101520669102,336.39579168461785L912.662648691967,335.12502774830193L913.7201385671377,335.4427187323809L914.4251318172516,336.07810070053887L915.1301250673654,337.66657455703586L915.8351183174792,336.39579168461785L916.5401115675929,340.52583128595086L916.8926081926498,334.80731782812086L917.9500980678205,335.7604097164599L920.065077818162,334.80731782812086L920.4175744432189,335.7604097164599L921.8275609434464,334.80731782812086L922.8850508186172,338.6196664453749L923.9425406937878,336.39579168461785L924.6475339439016,335.12502774830193L925.0000305689586,335.12502774830193L926.4100170691861,334.80731782812086L927.8200035694138,337.3488835729569L928.8774934445845,336.39579168461785L929.2299900696414,336.39579168461785L929.5824866946982,335.7604097164599L929.9349833197552,335.7604097164599L930.9924731949259,335.12502774830193L932.4024596951534,334.80731782812086L933.1074529452673,335.12502774830193L934.5174394454949,336.07810070053887L934.8699360705517,337.0311925888779L935.5749293206655,336.39579168461785L935.9274259457226,337.3488835729569L937.689909071007,337.98426554111484L938.7473989461777,334.80731782812086L939.0998955712346,337.0311925888779L939.8048888213484,339.89044931779284L940.5098820714622,338.93735742945387L941.2148753215761,335.4427187323809L941.5673719466329,334.80731782812086L942.6248618218035,338.93735742945387L942.9773584468605,334.80731782812086L943.6823516969744,335.7604097164599L944.739841572145,336.39579168461785L945.0923381972019,335.12502774830193L945.7973314473157,335.12502774830193L947.9123111976571,335.4427187323809L948.9698010728279,335.7604097164599L950.0272909479985,335.12502774830193L950.3797875730555,335.7604097164599L951.789774073283,336.07810070053887L953.9047538236244,336.07810070053887L958.4872099493641,335.4427187323809L959.8971964495918,338.93735742945387L960.6021896997056,336.7135016047989L962.3646728249901,336.39579168461785L963.4221627001608,337.66657455703586L964.1271559502746,334.80731782812086L965.5371424505021,335.12502774830193L967.2996255757866,335.4427187323809L968.7096120760142,335.4427187323809L970.1195985762419,334.80731782812086L971.1770884514126,337.0311925888779L974.3495580769247,336.39579168461785L976.4645378272661,335.7604097164599L979.989504077835,335.4427187323809L980.342000702892,336.7135016047989L980.6944973279489,335.4427187323809L981.7519872031196,336.39579168461785L982.1044838281765,336.07810070053887L983.866966953461,335.4427187323809L984.5719602035748,337.98426554111484L985.9819467038024,336.39579168461785L986.3344433288593,336.39579168461785L986.6869399539162,335.4427187323809L987.0394365789731,335.12502774830193L987.39193320403,25.37230381765596L987.7444298290868,335.4427187323809L988.0969264541438,336.07810070053887L990.9168994545989,335.7604097164599L991.9743893297697,334.80731782812086L994.0893690801112,335.7604097164599L995.4993555803387,336.7135016047989L999.0243218309078,337.0311925888779L999.3768184559646,337.0311925888779L999.7293150810216,338.6196664453749L1002.1967914564198,335.7604097164599L1003.9592745817042,336.07810070053887L1005.0167644568751,337.0311925888779L1005.7217577069889,335.4427187323809L1006.0742543320457,334.80731782812086L1006.4267509571026,337.0311925888779L1006.7792475821595,335.12502774830193L1008.1892340823871,335.4427187323809L1011.0092070828424,336.07810070053887L1011.3617037078992,336.39579168461785L1012.41919358307,343.0673970307868L1013.1241868331837,336.39579168461785L1013.4766834582407,337.98426554111484L1014.1816767083544,336.39579168461785L1015.944159833639,334.80731782812086L1018.4116362090372,335.4427187323809L1019.116629459151,337.66657455703586L1020.1741193343219,336.07810070053887L1020.8791125844356,336.07810070053887L1022.64159570972,336.07810070053887L1023.6990855848908,335.4427187323809L1024.7565754600614,338.6196664453749L1027.9290450855735,336.07810070053887L1028.2815417106306,336.39579168461785L1029.3390315858012,336.39579168461785L1030.3965214609718,335.12502774830193L1031.1015147110857,336.7135016047989L1031.4540113361425,335.4427187323809L1033.568991086484,335.7604097164599L1034.6264809616546,336.07810070053887L1034.9789775867116,336.07810070053887L1035.6839708368254,336.07810070053887L1036.741460711996,335.4427187323809L1037.44645396211,336.7135016047989L1038.1514472122237,335.4427187323809L1039.2089370873944,336.07810070053887L1039.5614337124514,334.80731782812086L1039.9139303375082,336.39579168461785L1042.3814067129065,335.7604097164599L1044.143889838191,335.7604097164599L1044.8488830883048,335.4427187323809L1045.2013797133616,336.07810070053887L1045.5538763384186,334.80731782812086L1046.9638628386463,336.07810070053887L1047.316359463703,335.12502774830193L1049.0788425889875,336.07810070053887L1049.4313392140446,334.80731782812086L1050.8413257142722,335.7604097164599L1051.8988155894428,335.7604097164599L1052.2513122144996,334.80731782812086L1052.9563054646135,334.80731782812086L1055.4237818400118,335.7604097164599L1055.7762784650688,335.4427187323809L1057.5387615903533,336.07810070053887L1061.768721091036,335.7604097164599L1063.5312042163205,334.80731782812086L1064.2361974664343,334.80731782812086L1064.5886940914913,335.7604097164599L1065.646183966662,337.98426554111484L1065.9986805917188,335.12502774830193L1069.1711502172311,335.12502774830193L1071.2861299675724,334.80731782812086L1072.6961164678,334.80731782812086L1073.0486130928568,336.39579168461785" fill="none"></path></g></g></g></g></g></g><g transform="translate(39, 378)" clip-path="url(#clip_1)"><clipPath id="clip_1"><rect width="1089" height="21"></rect></clipPath><g><g><line x1="15.558737922154767" y1="0" x2="15.558737922154767" y2="5" style="visibility: inherit;" fill="rgb(0, 0, 0)" stroke="rgb(204, 204, 204)" stroke-width="1px"></line><line x1="86.05806293353491" y1="0" x2="86.05806293353491" y2="5" style="visibility: inherit;" fill="rgb(0, 0, 0)" stroke="rgb(204, 204, 204)" stroke-width="1px"></line><line x1="156.55738794491506" y1="0" x2="156.55738794491506" y2="5" style="visibility: inherit;" fill="rgb(0, 0, 0)" stroke="rgb(204, 204, 204)" stroke-width="1px"></line><line x1="227.0567129562952" y1="0" x2="227.0567129562952" y2="5" style="visibility: inherit;" fill="rgb(0, 0, 0)" stroke="rgb(204, 204, 204)" stroke-width="1px"></line><line x1="297.5560379676753" y1="0" x2="297.5560379676753" y2="5" style="visibility: inherit;" fill="rgb(0, 0, 0)" stroke="rgb(204, 204, 204)" stroke-width="1px"></line><line x1="368.0553629790555" y1="0" x2="368.0553629790555" y2="5" style="visibility: inherit;" fill="rgb(0, 0, 0)" stroke="rgb(204, 204, 204)" stroke-width="1px"></line><line x1="438.5546879904356" y1="0" x2="438.5546879904356" y2="5" style="visibility: inherit;" fill="rgb(0, 0, 0)" stroke="rgb(204, 204, 204)" stroke-width="1px"></line><line x1="509.05401300181575" y1="0" x2="509.05401300181575" y2="5" style="visibility: inherit;" fill="rgb(0, 0, 0)" stroke="rgb(204, 204, 204)" stroke-width="1px"></line><line x1="579.5533380131959" y1="0" x2="579.5533380131959" y2="5" style="visibility: inherit;" fill="rgb(0, 0, 0)" stroke="rgb(204, 204, 204)" stroke-width="1px"></line><line x1="650.0526630245761" y1="0" x2="650.0526630245761" y2="5" style="visibility: inherit;" fill="rgb(0, 0, 0)" stroke="rgb(204, 204, 204)" stroke-width="1px"></line><line x1="720.5519880359562" y1="0" x2="720.5519880359562" y2="5" style="visibility: inherit;" fill="rgb(0, 0, 0)" stroke="rgb(204, 204, 204)" stroke-width="1px"></line><line x1="791.0513130473363" y1="0" x2="791.0513130473363" y2="5" style="visibility: inherit;" fill="rgb(0, 0, 0)" stroke="rgb(204, 204, 204)" stroke-width="1px"></line><line x1="861.5506380587165" y1="0" x2="861.5506380587165" y2="5" style="visibility: inherit;" fill="rgb(0, 0, 0)" stroke="rgb(204, 204, 204)" stroke-width="1px"></line><line x1="932.0499630700966" y1="0" x2="932.0499630700966" y2="5" style="visibility: inherit;" fill="rgb(0, 0, 0)" stroke="rgb(204, 204, 204)" stroke-width="1px"></line><line x1="1002.5492880814768" y1="0" x2="1002.5492880814768" y2="5" style="visibility: inherit;" fill="rgb(0, 0, 0)" stroke="rgb(204, 204, 204)" stroke-width="1px"></line><line x1="1073.0486130928568" y1="0" x2="1073.0486130928568" y2="5" style="visibility: inherit;" fill="rgb(0, 0, 0)" stroke="rgb(204, 204, 204)" stroke-width="1px"></line></g><g transform="translate(0, 8)"><text style="text-anchor: middle; visibility: inherit; font-family: &quot;Helvetica Neue&quot;, sans-serif; font-size: 12px; font-weight: 200;" x="15.558737922154767" y="0" dx="0em" dy="0.95em" fill="rgb(50, 49, 63)" stroke="none" stroke-width="1px">0</text><text style="text-anchor: middle; visibility: inherit; font-family: &quot;Helvetica Neue&quot;, sans-serif; font-size: 12px; font-weight: 200;" x="86.05806293353491" y="0" dx="0em" dy="0.95em" fill="rgb(50, 49, 63)" stroke="none" stroke-width="1px">200</text><text style="text-anchor: middle; visibility: inherit; font-family: &quot;Helvetica Neue&quot;, sans-serif; font-size: 12px; font-weight: 200;" x="156.55738794491506" y="0" dx="0em" dy="0.95em" fill="rgb(50, 49, 63)" stroke="none" stroke-width="1px">400</text><text style="text-anchor: middle; visibility: inherit; font-family: &quot;Helvetica Neue&quot;, sans-serif; font-size: 12px; font-weight: 200;" x="227.0567129562952" y="0" dx="0em" dy="0.95em" fill="rgb(50, 49, 63)" stroke="none" stroke-width="1px">600</text><text style="text-anchor: middle; visibility: inherit; font-family: &quot;Helvetica Neue&quot;, sans-serif; font-size: 12px; font-weight: 200;" x="297.5560379676753" y="0" dx="0em" dy="0.95em" fill="rgb(50, 49, 63)" stroke="none" stroke-width="1px">800</text><text style="text-anchor: middle; visibility: inherit; font-family: &quot;Helvetica Neue&quot;, sans-serif; font-size: 12px; font-weight: 200;" x="368.0553629790555" y="0" dx="0em" dy="0.95em" fill="rgb(50, 49, 63)" stroke="none" stroke-width="1px">1k</text><text style="text-anchor: middle; visibility: inherit; font-family: &quot;Helvetica Neue&quot;, sans-serif; font-size: 12px; font-weight: 200;" x="438.5546879904356" y="0" dx="0em" dy="0.95em" fill="rgb(50, 49, 63)" stroke="none" stroke-width="1px">1.2k</text><text style="text-anchor: middle; visibility: inherit; font-family: &quot;Helvetica Neue&quot;, sans-serif; font-size: 12px; font-weight: 200;" x="509.05401300181575" y="0" dx="0em" dy="0.95em" fill="rgb(50, 49, 63)" stroke="none" stroke-width="1px">1.4k</text><text style="text-anchor: middle; visibility: inherit; font-family: &quot;Helvetica Neue&quot;, sans-serif; font-size: 12px; font-weight: 200;" x="579.5533380131959" y="0" dx="0em" dy="0.95em" fill="rgb(50, 49, 63)" stroke="none" stroke-width="1px">1.6k</text><text style="text-anchor: middle; visibility: inherit; font-family: &quot;Helvetica Neue&quot;, sans-serif; font-size: 12px; font-weight: 200;" x="650.0526630245761" y="0" dx="0em" dy="0.95em" fill="rgb(50, 49, 63)" stroke="none" stroke-width="1px">1.8k</text><text style="text-anchor: middle; visibility: inherit; font-family: &quot;Helvetica Neue&quot;, sans-serif; font-size: 12px; font-weight: 200;" x="720.5519880359562" y="0" dx="0em" dy="0.95em" fill="rgb(50, 49, 63)" stroke="none" stroke-width="1px">2k</text><text style="text-anchor: middle; visibility: inherit; font-family: &quot;Helvetica Neue&quot;, sans-serif; font-size: 12px; font-weight: 200;" x="791.0513130473363" y="0" dx="0em" dy="0.95em" fill="rgb(50, 49, 63)" stroke="none" stroke-width="1px">2.2k</text><text style="text-anchor: middle; visibility: inherit; font-family: &quot;Helvetica Neue&quot;, sans-serif; font-size: 12px; font-weight: 200;" x="861.5506380587165" y="0" dx="0em" dy="0.95em" fill="rgb(50, 49, 63)" stroke="none" stroke-width="1px">2.4k</text><text style="text-anchor: middle; visibility: inherit; font-family: &quot;Helvetica Neue&quot;, sans-serif; font-size: 12px; font-weight: 200;" x="932.0499630700966" y="0" dx="0em" dy="0.95em" fill="rgb(50, 49, 63)" stroke="none" stroke-width="1px">2.6k</text><text style="text-anchor: middle; visibility: inherit; font-family: &quot;Helvetica Neue&quot;, sans-serif; font-size: 12px; font-weight: 200;" x="1002.5492880814768" y="0" dx="0em" dy="0.95em" fill="rgb(50, 49, 63)" stroke="none" stroke-width="1px">2.8k</text><text style="text-anchor: middle; visibility: inherit; font-family: &quot;Helvetica Neue&quot;, sans-serif; font-size: 12px; font-weight: 200;" x="1073.0486130928568" y="0" dx="0em" dy="0.95em" fill="rgb(50, 49, 63)" stroke="none" stroke-width="1px">3k</text></g><line x1="0" y1="0" x2="1089.4119991302491" y2="0" fill="rgb(0, 0, 0)" stroke="rgb(204, 204, 204)" stroke-width="1px"></line></g></g></g></g></svg>