<svg viewBox="0 0 1129.4000244140625 400" xmlns="http://www.w3.org/2000/svg"><g><g><g><g><g><line x1="49.98400115966797" y1="335.4852907719675" x2="44.98400115966797" y2="335.4852907719675" style="visibility: inherit;" fill="rgb(0, 0, 0)" stroke="rgb(204, 204, 204)" stroke-width="1px"></line><line x1="49.98400115966797" y1="288.64084060406043" x2="44.98400115966797" y2="288.64084060406043" style="visibility: inherit;" fill="rgb(0, 0, 0)" stroke="rgb(204, 204, 204)" stroke-width="1px"></line><line x1="49.98400115966797" y1="241.7963904361534" x2="44.98400115966797" y2="241.7963904361534" style="visibility: inherit;" fill="rgb(0, 0, 0)" stroke="rgb(204, 204, 204)" stroke-width="1px"></line><line x1="49.98400115966797" y1="194.95194026824632" x2="44.98400115966797" y2="194.95194026824632" style="visibility: inherit;" fill="rgb(0, 0, 0)" stroke="rgb(204, 204, 204)" stroke-width="1px"></line><line x1="49.98400115966797" y1="148.10749010033953" x2="44.98400115966797" y2="148.10749010033953" style="visibility: inherit;" fill="rgb(0, 0, 0)" stroke="rgb(204, 204, 204)" stroke-width="1px"></line><line x1="49.98400115966797" y1="101.26303993243243" x2="44.98400115966797" y2="101.26303993243243" style="visibility: inherit;" fill="rgb(0, 0, 0)" stroke="rgb(204, 204, 204)" stroke-width="1px"></line><line x1="49.98400115966797" y1="54.41858976452539" x2="44.98400115966797" y2="54.41858976452539" style="visibility: inherit;" fill="rgb(0, 0, 0)" stroke="rgb(204, 204, 204)" stroke-width="1px"></line><line x1="49.98400115966797" y1="7.574139596618295" x2="44.98400115966797" y2="7.574139596618295" style="visibility: inherit;" fill="rgb(0, 0, 0)" stroke="rgb(204, 204, 204)" stroke-width="1px"></line></g><g transform="translate(39.98400115966797, 0)"><text style="text-anchor: end; visibility: inherit; font-family: &quot;Helvetica Neue&quot;, sans-serif; font-size: 12px; font-weight: 200;" x="0" y="335.4852907719675" dx="0em" dy="0.3em" fill="rgb(50, 49, 63)" stroke="none" stroke-width="1px">0.86</text><text style="text-anchor: end; visibility: inherit; font-family: &quot;Helvetica Neue&quot;, sans-serif; font-size: 12px; font-weight: 200;" x="0" y="288.64084060406043" dx="0em" dy="0.3em" fill="rgb(50, 49, 63)" stroke="none" stroke-width="1px">0.88</text><text style="text-anchor: end; visibility: inherit; font-family: &quot;Helvetica Neue&quot;, sans-serif; font-size: 12px; font-weight: 200;" x="0" y="241.7963904361534" dx="0em" dy="0.3em" fill="rgb(50, 49, 63)" stroke="none" stroke-width="1px">0.9</text><text style="text-anchor: end; visibility: inherit; font-family: &quot;Helvetica Neue&quot;, sans-serif; font-size: 12px; font-weight: 200;" x="0" y="194.95194026824632" dx="0em" dy="0.3em" fill="rgb(50, 49, 63)" stroke="none" stroke-width="1px">0.92</text><text style="text-anchor: end; visibility: inherit; font-family: &quot;Helvetica Neue&quot;, sans-serif; font-size: 12px; font-weight: 200;" x="0" y="148.10749010033953" dx="0em" dy="0.3em" fill="rgb(50, 49, 63)" stroke="none" stroke-width="1px">0.94</text><text style="text-anchor: end; visibility: inherit; font-family: &quot;Helvetica Neue&quot;, sans-serif; font-size: 12px; font-weight: 200;" x="0" y="101.26303993243243" dx="0em" dy="0.3em" fill="rgb(50, 49, 63)" stroke="none" stroke-width="1px">0.96</text><text style="text-anchor: end; visibility: inherit; font-family: &quot;Helvetica Neue&quot;, sans-serif; font-size: 12px; font-weight: 200;" x="0" y="54.41858976452539" dx="0em" dy="0.3em" fill="rgb(50, 49, 63)" stroke="none" stroke-width="1px">0.98</text><text style="text-anchor: end; visibility: inherit; font-family: &quot;Helvetica Neue&quot;, sans-serif; font-size: 12px; font-weight: 200;" x="0" y="7.574139596618295" dx="0em" dy="0.3em" fill="rgb(50, 49, 63)" stroke="none" stroke-width="1px">1</text></g><line x1="49.98400115966797" y1="0" x2="49.98400115966797" y2="378.60799980163574" fill="rgb(0, 0, 0)" stroke="rgb(204, 204, 204)" stroke-width="1px"></line></g></g><g transform="translate(49, 0)" clip-path="url(#clip_0)"><clipPath id="clip_0"><rect width="1079" height="378"></rect></clipPath><g><g><g><line x1="19.36843929482773" y1="0" x2="19.36843929482773" y2="378.60799980163574" fill="rgb(0, 0, 0)" stroke="rgb(60, 60, 60)" stroke-width="1px" opacity="0.25"></line><line x1="89.4730661632075" y1="0" x2="89.4730661632075" y2="378.60799980163574" fill="rgb(0, 0, 0)" stroke="rgb(60, 60, 60)" stroke-width="1px" opacity="0.25"></line><line x1="159.57769303158727" y1="0" x2="159.57769303158727" y2="378.60799980163574" fill="rgb(0, 0, 0)" stroke="rgb(60, 60, 60)" stroke-width="1px" opacity="0.25"></line><line x1="229.68231989996704" y1="0" x2="229.68231989996704" y2="378.60799980163574" fill="rgb(0, 0, 0)" stroke="rgb(60, 60, 60)" stroke-width="1px" opacity="0.25"></line><line x1="299.7869467683468" y1="0" x2="299.7869467683468" y2="378.60799980163574" fill="rgb(0, 0, 0)" stroke="rgb(60, 60, 60)" stroke-width="1px" opacity="0.25"></line><line x1="369.8915736367266" y1="0" x2="369.8915736367266" y2="378.60799980163574" fill="rgb(0, 0, 0)" stroke="rgb(60, 60, 60)" stroke-width="1px" opacity="0.25"></line><line x1="439.99620050510634" y1="0" x2="439.99620050510634" y2="378.60799980163574" fill="rgb(0, 0, 0)" stroke="rgb(60, 60, 60)" stroke-width="1px" opacity="0.25"></line><line x1="510.1008273734862" y1="0" x2="510.1008273734862" y2="378.60799980163574" fill="rgb(0, 0, 0)" stroke="rgb(60, 60, 60)" stroke-width="1px" opacity="0.25"></line><line x1="580.2054542418659" y1="0" x2="580.2054542418659" y2="378.60799980163574" fill="rgb(0, 0, 0)" stroke="rgb(60, 60, 60)" stroke-width="1px" opacity="0.25"></line><line x1="650.3100811102456" y1="0" x2="650.3100811102456" y2="378.60799980163574" fill="rgb(0, 0, 0)" stroke="rgb(60, 60, 60)" stroke-width="1px" opacity="0.25"></line><line x1="720.4147079786254" y1="0" x2="720.4147079786254" y2="378.60799980163574" fill="rgb(0, 0, 0)" stroke="rgb(60, 60, 60)" stroke-width="1px" opacity="0.25"></line><line x1="790.5193348470052" y1="0" x2="790.5193348470052" y2="378.60799980163574" fill="rgb(0, 0, 0)" stroke="rgb(60, 60, 60)" stroke-width="1px" opacity="0.25"></line><line x1="860.623961715385" y1="0" x2="860.623961715385" y2="378.60799980163574" fill="rgb(0, 0, 0)" stroke="rgb(60, 60, 60)" stroke-width="1px" opacity="0.25"></line><line x1="930.7285885837649" y1="0" x2="930.7285885837649" y2="378.60799980163574" fill="rgb(0, 0, 0)" stroke="rgb(60, 60, 60)" stroke-width="1px" opacity="0.25"></line><line x1="1000.8332154521446" y1="0" x2="1000.8332154521446" y2="378.60799980163574" fill="rgb(0, 0, 0)" stroke="rgb(60, 60, 60)" stroke-width="1px" opacity="0.25"></line><line x1="1070.9378423205244" y1="0" x2="1070.9378423205244" y2="378.60799980163574" fill="rgb(0, 0, 0)" stroke="rgb(60, 60, 60)" stroke-width="1px" opacity="0.25"></line></g><g><line x1="0" y1="335.4852907719675" x2="1079.4159988403321" y2="335.4852907719675" fill="rgb(0, 0, 0)" stroke="rgb(60, 60, 60)" stroke-width="1px" opacity="0.25"></line><line x1="0" y1="288.64084060406043" x2="1079.4159988403321" y2="288.64084060406043" fill="rgb(0, 0, 0)" stroke="rgb(60, 60, 60)" stroke-width="1px" opacity="0.25"></line><line x1="0" y1="241.7963904361534" x2="1079.4159988403321" y2="241.7963904361534" fill="rgb(0, 0, 0)" stroke="rgb(60, 60, 60)" stroke-width="1px" opacity="0.25"></line><line x1="0" y1="194.95194026824632" x2="1079.4159988403321" y2="194.95194026824632" fill="rgb(0, 0, 0)" stroke="rgb(60, 60, 60)" stroke-width="1px" opacity="0.25"></line><line x1="0" y1="148.10749010033953" x2="1079.4159988403321" y2="148.10749010033953" fill="rgb(0, 0, 0)" stroke="rgb(60, 60, 60)" stroke-width="1px" opacity="0.25"></line><line x1="0" y1="101.26303993243243" x2="1079.4159988403321" y2="101.26303993243243" fill="rgb(0, 0, 0)" stroke="rgb(60, 60, 60)" stroke-width="1px" opacity="0.25"></line><line x1="0" y1="54.41858976452539" x2="1079.4159988403321" y2="54.41858976452539" fill="rgb(0, 0, 0)" stroke="rgb(60, 60, 60)" stroke-width="1px" opacity="0.25"></line><line x1="0" y1="7.574139596618295" x2="1079.4159988403321" y2="7.574139596618295" fill="rgb(0, 0, 0)" stroke="rgb(60, 60, 60)" stroke-width="1px" opacity="0.25"></line></g></g></g><g><g><line x1="0" y1="2349.7966479919696" x2="1079.4159988403321" y2="2349.7966479919696" fill="rgb(0, 0, 0)" stroke="rgb(153, 153, 153)" stroke-width="1.5px"></line></g></g><g><g><line x1="19.36843929482773" y1="0" x2="19.36843929482773" y2="378.60799980163574" fill="rgb(0, 0, 0)" stroke="rgb(153, 153, 153)" stroke-width="1.5px"></line></g></g><g><g><g><g><g><path style="fill: none;" stroke="rgb(0, 119, 187)" stroke-width="2px" d="M21.471578100879125,75.49855548374558L21.822101235221023,47.39196803054699L23.57471690693052,368.2763690331645L24.626286309956214,162.1607894112323L24.976809444298112,42.70744371678683L26.02837884732381,16.943048616798023L26.729425116007608,40.365251363577045L28.1315176533752,26.311957636977752L32.337795265477986,108.28966725070433L33.73988780284559,194.95190117819104L34.440934071529384,19.285240970007806L35.14198034021318,120.00076862409384L35.49250347455508,150.4496880378428L36.193549743238876,42.70744371678683L38.29668854929027,16.943048616798023L38.64721168363217,30.996342343397316L38.99773481797407,42.70744371678683L39.34825795231597,30.996342343397316L39.69878108665787,26.311957636977752L42.502966161393054,148.107495684633L43.55453556441876,204.32081019837076L44.60610496744445,40.365251363577045L44.95662810178635,40.365251363577045L45.30715123612825,35.68086665715748L45.65767437047015,33.3385346966071L47.41029004217964,23.96976528376797L50.214475116914834,49.73416038375677L50.56499825125673,16.943048616798023L52.66813705730813,105.94747489749454L55.47232213204332,28.654149990187534L56.52389153506901,30.996342343397316L56.87441466941091,38.02305901036726L59.32807660980421,101.26309019107498L60.3796460128299,38.02305901036726L61.0806922815137,162.1607894112323L63.88487735624889,56.76087705072672L64.93644675927459,16.943048616798023L65.28696989361649,26.311957636977752L68.44167810269357,28.654149990187534L69.14272437137738,38.02305901036726L69.49324750571928,190.26751647177147L69.84377064006117,84.8674645039253L72.29743258045447,127.02748529106378L74.05004825216396,108.28966725070433L74.75109452084774,23.96976528376797L75.10161765518964,30.996342343397316L76.50371019255725,98.9207582305246L78.25632586426676,30.996342343397316L78.60684899860865,35.68086665715748L79.65841840163434,183.24079980480153L81.76155720768574,28.654149990187534L82.11208034202764,115.31638391767427L82.81312661071144,16.943048616798023L83.86469601373712,80.18307979750574L84.56574228242091,91.89418117089525L84.91626541676283,68.47197842411623L85.61731168544662,35.68086665715748L86.31835795413042,75.49855548374558L86.66888108847232,47.39196803054699L89.1225430288656,166.84531372499245L91.92672810360081,49.73416038375677L92.27725123794269,98.9207582305246L92.62777437228459,52.076352736966555L94.02986690965218,183.24079980480153L97.53509825307118,33.3385346966071L97.88562138741308,21.627433323217588L98.58666765609688,45.04963606999661L99.98876019346447,19.285240970007806L101.04032959649018,143.42311097821343L101.39085273083207,89.55198881768547L101.74137586517396,63.787454110356066L102.79294526819966,136.39639431124348L106.99922288030245,38.02305901036726L109.10236168635385,35.68086665715748L110.15393108937954,124.68529293785397L110.85497735806334,98.9207582305246L111.20550049240524,26.311957636977752L111.90654676108903,61.445261757146284L113.30863929845664,26.311957636977752L114.71073183582422,45.04963606999661L115.41177810450802,38.02305901036726L117.16439377621752,159.8185970580225L122.0717176570041,47.39196803054699L123.82433332871359,21.627433323217588L124.17485646305549,21.627433323217588L125.5769490004231,302.694145499247L125.927472134765,47.39196803054699L127.32956467213259,87.20965685713509L127.68008780647449,180.89860745159174L128.3811340751583,42.70744371678683L129.43270347818398,157.47640470481275L131.18531914989347,91.89418117089525L131.53584228423537,40.365251363577045L131.88636541857727,28.654149990187534L133.63898109028676,45.04963606999661L133.98950422462866,33.3385346966071L134.34002735897056,42.70744371678683L135.39159676199625,52.076352736966555L138.54630497107337,84.8674645039253L139.24735123975714,45.04963606999661L141.35049004580853,33.3385346966071L143.45362885185995,145.76530333142324L143.80415198620182,148.107495684633L145.9072907922532,21.627433323217588L146.95886019527893,16.943048616798023L148.3609527326465,16.943048616798023L149.76304527001412,19.285240970007806L150.46409153869791,19.285240970007806L151.8661840760655,16.943048616798023L152.21670721040744,16.943048616798023L152.5672303447493,23.96976528376797L153.2682766134331,16.943048616798023L155.0208922851426,16.943048616798023L156.77350795685211,26.311957636977752L157.12403109119398,19.285240970007806L157.47455422553588,26.311957636977752L162.73240124066436,16.943048616798023L165.18606318105768,21.627433323217588L167.28920198710904,16.943048616798023L167.63972512145097,30.996342343397316L168.34077139013476,19.285240970007806L169.04181765881856,26.311957636977752L170.44391019618612,21.627433323217588L173.59861840526324,16.943048616798023L174.29966467394706,16.943048616798023L174.65018780828893,26.311957636977752L175.70175721131463,21.627433323217588L177.80489601736602,19.285240970007806L180.6090810921012,26.311957636977752L180.9596042264431,26.311957636977752L182.01117362946883,19.285240970007806L182.3616967638107,19.285240970007806L185.51640497288778,26.311957636977752L185.8669281072297,16.943048616798023L189.7226825849906,19.285240970007806L190.7742519880163,16.943048616798023L191.1247751223582,16.943048616798023L191.82582139104198,16.943048616798023L192.52686765972578,21.627433323217588L197.43419154051236,19.285240970007806L199.18680721222185,16.943048616798023L199.88785348090565,23.96976528376797L200.93942288393137,28.654149990187534L201.64046915261517,28.654149990187534L203.39308482432466,16.943048616798023L203.74360795866653,23.96976528376797L205.84674676471792,16.943048616798023L206.54779303340175,33.3385346966071L206.89831616774362,23.96976528376797L207.5993624364274,28.654149990187534L207.94988557076934,19.285240970007806L209.001454973795,19.285240970007806L209.70250124247883,21.627433323217588L211.4551169141883,19.285240970007806L211.80564004853022,23.96976528376797L214.9603482576073,21.627433323217588L215.6613945262911,16.943048616798023L217.0634870636587,47.39196803054699L217.4140101980006,16.943048616798023L217.7645333323425,16.943048616798023L219.16662586971012,16.943048616798023L220.56871840707768,28.654149990187534L220.91924154141958,19.285240970007806L221.97081094444528,16.943048616798023L222.67185721312907,21.627433323217588L223.022380347471,21.627433323217588L223.37290348181287,21.627433323217588L223.7234266161548,21.627433323217588L224.07394975049667,21.627433323217588L224.42447288483856,19.285240970007806L225.12551915352236,21.627433323217588L225.4760422878643,30.996342343397316L227.22865795957375,23.96976528376797L227.57918109391568,21.627433323217588L228.98127363128324,21.627433323217588L230.03284303430897,21.627433323217588L230.73388930299276,16.943048616798023L232.83702810904416,16.943048616798023L233.53807437772792,23.96976528376797L235.29069004943744,28.654149990187534L236.69278258680504,23.96976528376797L237.04330572114694,23.96976528376797L237.74435198983073,23.96976528376797L241.95062960193354,23.96976528376797L244.40429154232683,16.943048616798023L244.7548146766687,16.943048616798023L245.4558609453525,16.943048616798023L245.80638407969442,19.285240970007806L246.1569072140363,28.654149990187534L246.5074303483782,21.627433323217588L247.208476617062,16.943048616798023L248.2600460200877,21.627433323217588L249.6621385574553,16.943048616798023L250.01266169179718,19.285240970007806L251.4147542291648,23.96976528376797L252.46632363219047,19.285240970007806L253.8684161695581,16.943048616798023L254.91998557258378,19.285240970007806L255.27050870692568,16.943048616798023L255.62103184126755,16.943048616798023L255.97155497560948,19.285240970007806L256.32207810995135,28.654149990187534L257.02312437863515,16.943048616798023L257.3736475129771,23.96976528376797L257.72417064731894,16.943048616798023L258.77574005034467,21.627433323217588L259.12626318468654,19.285240970007806L259.47678631902846,21.627433323217588L260.17783258771226,16.943048616798023L260.87887885639606,28.654149990187534L261.229401990738,26.311957636977752L263.68306393113124,26.311957636977752L264.7346333341569,16.943048616798023L266.13672587152456,23.96976528376797L267.1882952745502,28.654149990187534L267.889341543234,19.285240970007806L268.5903878119178,16.943048616798023L269.9924803492855,16.943048616798023L271.39457288665307,23.96976528376797L272.44614228967873,16.943048616798023L272.79666542402066,16.943048616798023L273.14718855836253,28.654149990187534L273.4977116927044,19.285240970007806L275.6008504987558,16.943048616798023L277.70398930480724,16.943048616798023L278.405035573491,16.943048616798023L278.75555870783285,16.943048616798023L280.1576512452005,16.943048616798023L281.20922064822616,16.943048616798023L281.5597437825681,19.285240970007806L282.6113131855938,16.943048616798023L282.9618363199357,21.627433323217588L283.31235945427755,19.285240970007806L284.0134057229614,19.285240970007806L284.71445199164515,19.285240970007806L286.8175907976966,16.943048616798023L287.86916020072226,19.285240970007806L288.2196833350642,28.654149990187534L289.27125273808986,21.627433323217588L289.6217758724318,16.943048616798023L289.97229900677365,16.943048616798023L290.67334527545745,16.943048616798023L291.0238684097994,19.285240970007806L293.12700721585077,23.96976528376797L294.52909975321836,26.311957636977752L294.87962288756023,28.654149990187534L295.5806691562441,16.943048616798023L296.2817154249278,26.311957636977752L296.9827616936116,26.311957636977752L297.33328482795355,28.654149990187534L297.6838079622955,21.627433323217588L298.03433109663735,28.654149990187534L298.3848542309792,16.943048616798023L299.43642363400494,19.285240970007806L300.13746990268874,21.627433323217588L300.83851617137253,21.627433323217588L301.89008557439826,16.943048616798023L302.591131843082,19.285240970007806L302.9416549774239,19.285240970007806L303.29217811176585,21.627433323217588L305.39531691781724,23.96976528376797L305.7458400521591,16.943048616798023L306.4468863208429,21.627433323217588L307.4984557238686,40.365251363577045L308.90054826123617,33.3385346966071L309.9521176642619,23.96976528376797L311.0036870672876,21.627433323217588L311.3542102016295,26.311957636977752L312.0552564703133,21.627433323217588L312.7563027389971,21.627433323217588L313.4573490076809,19.285240970007806L315.20996467939034,16.943048616798023L316.26153408241606,21.627433323217588L316.9625803510999,16.943048616798023L322.22042736622836,28.654149990187534L323.62251990359596,16.943048616798023L324.32356617227975,23.96976528376797L324.6740893066217,16.943048616798023L326.0761818439893,21.627433323217588L326.7772281126731,19.285240970007806L327.12775124701494,16.943048616798023L328.17932065004067,16.943048616798023L328.8803669187244,16.943048616798023L329.58141318740826,19.285240970007806L330.632982590434,16.943048616798023L331.3340288591177,19.285240970007806L331.6845519934596,28.654149990187534L332.38559826214345,26.311957636977752L333.78769079951104,35.68086665715748L335.18978333687863,16.943048616798023L337.6434452772719,19.285240970007806L337.99396841161376,16.943048616798023L338.34449154595575,16.943048616798023L338.6950146802976,26.311957636977752L339.3960609489814,33.3385346966071L340.4476303520071,21.627433323217588L340.798153486349,19.285240970007806L341.1486766206909,21.627433323217588L342.2002460237166,16.943048616798023L342.5507691580585,21.627433323217588L342.9012922924004,21.627433323217588L343.2518154267423,21.627433323217588L346.0560005014775,16.943048616798023L346.4065236358194,16.943048616798023L347.4580930388451,21.627433323217588L349.91175497923837,16.943048616798023L350.9633243822641,23.96976528376797L353.7675094569993,19.285240970007806L354.11803259134115,30.996342343397316L354.81907886002494,16.943048616798023L355.1696019943669,26.311957636977752L355.52012512870874,26.311957636977752L356.57169453173447,19.285240970007806L356.92221766607634,30.996342343397316L357.62326393476013,19.285240970007806L358.324310203444,23.96976528376797L360.07692587515345,21.627433323217588L360.4274490094953,19.285240970007806L361.8295415468629,23.96976528376797L362.18006468120484,21.627433323217588L362.53058781554677,16.943048616798023L362.88111094988864,21.627433323217588L363.9326803529143,21.627433323217588L364.28320348725623,30.996342343397316L364.63372662159816,19.285240970007806L365.6852960246238,21.627433323217588L366.03581915896575,16.943048616798023L368.84000423370094,19.285240970007806L370.24209677106853,28.654149990187534L370.94314303975233,21.627433323217588L371.6441893084361,16.943048616798023L371.994712442778,21.627433323217588L373.04628184580366,19.285240970007806L374.0978512488294,16.943048616798023L374.44837438317126,19.285240970007806L374.79889751751324,21.627433323217588L375.1494206518551,19.285240970007806L376.20099005488083,16.943048616798023L379.00517512961596,16.943048616798023L379.7062213982998,23.96976528376797L380.40726766698356,21.627433323217588L381.1083139356674,16.943048616798023L381.4588370700093,19.285240970007806L382.510406473035,16.943048616798023L383.21145274171874,19.285240970007806L383.9124990104026,23.96976528376797L385.66511468211206,21.627433323217588L388.1187766225053,21.627433323217588L388.46929975684725,16.943048616798023L389.5208691598729,16.943048616798023L390.22191542855677,16.943048616798023L392.32505423460816,16.943048616798023L392.67557736895003,16.943048616798023L393.3766236376338,19.285240970007806L394.0776699063176,16.943048616798023L395.4797624436852,21.627433323217588L396.8818549810528,16.943048616798023L397.58290124973666,16.943048616798023L399.33551692144613,21.627433323217588L399.686040055788,19.285240970007806L400.0365631901299,16.943048616798023L402.49022513052324,16.943048616798023L402.8407482648651,21.627433323217588L404.9438870709165,28.654149990187534L406.3459796082841,16.943048616798023L406.696502742626,21.627433323217588L407.0470258769679,16.943048616798023L410.201734086045,16.943048616798023L410.90278035472875,19.285240970007806L411.95434975775447,19.285240970007806L414.05748856380586,21.627433323217588L414.4080116981478,21.627433323217588L415.8101042355154,28.654149990187534L416.86167363854105,19.285240970007806L417.2121967728829,16.943048616798023L417.5627199072249,23.96976528376797L418.6142893102505,23.96976528376797L422.4700437880114,23.96976528376797L423.52161319103715,28.654149990187534L424.5731825940628,16.943048616798023L424.92370572840474,16.943048616798023L425.27422886274667,16.943048616798023L426.3257982657723,28.654149990187534L426.67632140011426,26.311957636977752L427.02684453445613,19.285240970007806L432.2846915495846,21.627433323217588L433.3362609526103,21.627433323217588L434.03730722129416,26.311957636977752L434.387830355636,23.96976528376797L435.08887662431977,19.285240970007806L435.4393997586617,16.943048616798023L436.4909691616874,16.943048616798023L437.5425385647131,21.627433323217588L437.893061699055,16.943048616798023L438.5941079677388,23.96976528376797L439.2951542364226,16.943048616798023L439.99620050510634,21.627433323217588L440.6972467737902,23.96976528376797L441.7488161768159,19.285240970007806L442.44986244549966,16.943048616798023L443.1509087141835,19.285240970007806L443.85195498286726,23.96976528376797L444.55300125155105,23.96976528376797L445.25404752023485,28.654149990187534L448.75927886365383,21.627433323217588L450.1613714010214,23.96976528376797L451.563463938389,19.285240970007806L451.91398707273095,26.311957636977752L452.2645102070729,16.943048616798023L452.96555647575667,21.627433323217588L454.01712587878234,16.943048616798023L455.068695281808,16.943048616798023L455.76974155049186,23.96976528376797L456.8213109535175,16.943048616798023L458.9244497595689,21.627433323217588L459.6254960282527,16.943048616798023L460.3265422969365,26.311957636977752L460.67706543127844,19.285240970007806L461.72863483430416,16.943048616798023L462.07915796864603,28.654149990187534L462.4296811029879,28.654149990187534L463.4812505060136,28.654149990187534L466.2854355807488,28.654149990187534L468.03805125245833,16.943048616798023L468.73909752114207,26.311957636977752L470.8422363271935,19.285240970007806L472.2443288645611,19.285240970007806L472.594851998903,16.943048616798023L472.94537513324485,16.943048616798023L473.2958982675868,21.627433323217588L475.39903707363817,23.96976528376797L476.45060647666384,19.285240970007806L478.90426841705715,16.943048616798023L479.60531468574095,23.96976528376797L480.6568840887667,19.285240970007806L481.00740722310854,16.943048616798023L482.05897662613427,21.627433323217588L482.40949976047614,16.943048616798023L484.1621154321856,16.943048616798023L484.5126385665276,21.627433323217588L484.86316170086945,23.96976528376797L485.9147311038952,19.285240970007806L486.96630050692085,16.943048616798023L487.3168236412628,21.627433323217588L487.66734677560464,21.627433323217588L488.0178699099465,19.285240970007806L488.36839304428844,16.943048616798023L490.47153185033983,16.943048616798023L492.5746706563912,21.627433323217588L494.6778094624426,19.285240970007806L496.0799019998102,16.943048616798023L496.780948268494,35.68086665715748L498.5335639402035,19.285240970007806L499.9356564775711,26.311957636977752L502.3893184179644,23.96976528376797L503.0903646866482,21.627433323217588L504.1419340896739,23.96976528376797L504.8429803583577,19.285240970007806L505.19350349269956,21.627433323217588L506.2450728957253,21.627433323217588L506.59559603006716,16.943048616798023L507.296642298751,19.285240970007806L507.6471654330929,16.943048616798023L508.6987348361186,19.285240970007806L514.6576281199309,16.943048616798023L515.0081512542728,16.943048616798023L515.3586743886146,16.943048616798023L515.7091975229565,26.311957636977752L517.1112900603241,28.654149990187534L518.1628594633498,21.627433323217588L519.5649520007174,16.943048616798023L519.9154751350593,19.285240970007806L520.2659982694012,16.943048616798023L521.6680908067689,21.627433323217588L522.0186139411107,19.285240970007806L522.3691370754526,16.943048616798023L523.0701833441365,19.285240970007806L523.7712296128202,21.627433323217588L524.4722758815041,28.654149990187534L525.1733221501878,16.943048616798023L527.977507224923,26.311957636977752L529.7301228966325,28.654149990187534L530.0806460309744,23.96976528376797L533.2353542400515,23.96976528376797L533.5858773743934,21.627433323217588L537.4416318521543,21.627433323217588L539.1942475238637,23.96976528376797L540.2458169268895,16.943048616798023L540.5963400612313,26.311957636977752L541.647909464257,23.96976528376797L542.3489557329409,16.943048616798023L542.6994788672828,19.285240970007806L545.503663942018,21.627433323217588L545.8541870763598,19.285240970007806L546.2047102107017,21.627433323217588L546.5552333450436,16.943048616798023L547.6068027480694,26.311957636977752L548.3078490167532,26.311957636977752L548.658372151095,26.311957636977752L549.0088952854369,16.943048616798023L551.8130803601721,23.96976528376797L553.5656960318817,16.943048616798023L553.9162191662235,16.943048616798023L554.9677885692493,16.943048616798023L557.4214505096426,26.311957636977752L558.1224967783263,26.311957636977752L561.6277281217452,33.3385346966071L563.3803437934548,19.285240970007806L563.7308669277967,19.285240970007806L564.4319131964804,26.311957636977752L564.7824363308224,19.285240970007806L566.8855751368737,26.311957636977752L567.2360982712157,16.943048616798023L569.3392370772671,16.943048616798023L569.689760211609,21.627433323217588L572.8444684206861,21.627433323217588L574.2465609580536,16.943048616798023L574.9476072267375,16.943048616798023L576.349699764105,21.627433323217588L579.5044079731821,19.285240970007806L580.2054542418659,16.943048616798023L581.2570236448917,16.943048616798023L581.9580699135754,28.654149990187534L582.3085930479174,45.04963606999661L584.0612087196268,28.654149990187534L585.1127781226526,21.627433323217588L586.8653937943619,21.627433323217588L587.5664400630459,16.943048616798023L588.9685326004134,30.996342343397316L589.6695788690971,21.627433323217588L590.0201020034392,19.285240970007806L590.3706251377811,16.943048616798023L591.0716714064648,21.627433323217588L591.7727176751486,16.943048616798023L593.5253333468581,16.943048616798023L594.5769027498837,19.285240970007806L595.2779490185676,16.943048616798023L596.3295184215933,19.285240970007806L597.381087824619,16.943048616798023L598.7831803619865,19.285240970007806L599.8347497650124,26.311957636977752L601.2368423023798,21.627433323217588L601.5873654367217,16.943048616798023L601.9378885710636,19.285240970007806L604.3915505114569,21.627433323217588L605.0925967801408,16.943048616798023L605.7936430488246,21.627433323217588L606.8452124518502,19.285240970007806L607.1957355861921,16.943048616798023L609.2988743922435,16.943048616798023L609.6493975265854,21.627433323217588L611.051490063953,19.285240970007806L612.4535826013206,16.943048616798023L613.5051520043463,21.627433323217588L613.8556751386882,21.627433323217588L614.20619827303,16.943048616798023L614.556721407372,16.943048616798023L615.2577676760559,23.96976528376797L616.3093370790815,19.285240970007806L618.7629990194748,23.96976528376797L619.1135221538167,30.996342343397316L620.8661378255263,19.285240970007806L621.56718409421,16.943048616798023L621.9177072285519,19.285240970007806L622.2682303628937,19.285240970007806L625.4229385719709,19.285240970007806L626.8250311093385,19.285240970007806L627.1755542436804,21.627433323217588L627.5260773780223,16.943048616798023L627.8766005123642,23.96976528376797L628.577646781048,21.627433323217588L630.3302624527576,19.285240970007806L630.6807855870994,35.68086665715748L631.3818318557832,16.943048616798023L631.732354990125,33.3385346966071L632.0828781244669,16.943048616798023L633.1344475274927,16.943048616798023L633.8354937961765,19.285240970007806L634.1860169305183,21.627433323217588L634.5365400648602,16.943048616798023L637.6912482739373,23.96976528376797L638.7428176769631,23.96976528376797L641.8975258860402,19.285240970007806L644.0006646920915,19.285240970007806L644.3511878264334,21.627433323217588L646.4543266324848,19.285240970007806L646.8048497668267,30.996342343397316L647.1553729011686,16.943048616798023L647.8564191698525,19.285240970007806L649.9595579759037,16.943048616798023L652.0626967819552,30.996342343397316L652.4132199162971,33.3385346966071L655.2174049910323,26.311957636977752L655.5679281253742,19.285240970007806L656.6194975283998,26.311957636977752L657.6710669314256,16.943048616798023L659.0731594687932,16.943048616798023L659.7742057374769,16.943048616798023L661.1762982748446,21.627433323217588L663.2794370808961,16.943048616798023L664.6815296182635,19.285240970007806L665.0320527526054,30.996342343397316L666.0836221556312,16.943048616798023L666.784668424315,19.285240970007806L667.8362378273406,28.654149990187534L669.2383303647083,26.311957636977752L669.939376633392,23.96976528376797L670.6404229020759,16.943048616798023L670.9909460364178,16.943048616798023L671.3414691707596,19.285240970007806L673.795131111153,19.285240970007806L674.4961773798367,23.96976528376797L674.8467005141786,16.943048616798023L676.94983932023,19.285240970007806L677.3003624545719,16.943048616798023L677.6508855889138,19.285240970007806L678.3519318575977,21.627433323217588L679.0529781262815,19.285240970007806L683.2592557383842,19.285240970007806L686.4139639474613,19.285240970007806L687.8160564848289,35.68086665715748L689.5686721565384,21.627433323217588L689.9191952908802,16.943048616798023L691.6718109625898,19.285240970007806L692.0223340969317,19.285240970007806L692.3728572312735,21.627433323217588L693.7749497686412,21.627433323217588L694.1254729029831,19.285240970007806L696.2286117090345,23.96976528376797L697.630704246402,19.285240970007806L697.9812273807439,16.943048616798023L698.3317505150859,19.285240970007806L699.0327967837696,16.943048616798023L699.3833199181115,16.943048616798023L701.1359355898211,28.654149990187534L702.1875049928467,16.943048616798023L702.8885512615306,16.943048616798023L703.9401206645563,19.285240970007806L704.9916900675819,19.285240970007806L706.0432594706077,16.943048616798023L706.7443057392915,19.285240970007806L708.8474445453429,26.311957636977752L709.1979676796848,28.654149990187534L709.8990139483685,23.96976528376797L710.6000602170523,19.285240970007806L713.7547684261294,30.996342343397316L714.1052915604713,16.943048616798023L714.4558146948132,19.285240970007806L714.8063378291552,16.943048616798023L719.7136617099417,21.627433323217588L721.1157542473094,23.96976528376797L722.5178467846769,26.311957636977752L722.8683699190187,16.943048616798023L723.9199393220446,23.96976528376797L724.2704624563864,16.943048616798023L725.322031859412,19.285240970007806L726.0230781280958,16.943048616798023L726.7241243967796,26.311957636977752L728.4767400684891,28.654149990187534L729.5283094715148,19.285240970007806L730.2293557401987,19.285240970007806L730.5798788745406,16.943048616798023L731.2809251432244,23.96976528376797L732.33249454625,21.627433323217588L733.3840639492757,19.285240970007806L734.0851102179596,21.627433323217588L735.1366796209852,19.285240970007806L736.188249024011,19.285240970007806L736.5387721583529,38.02305901036726L737.5903415613785,21.627433323217588L738.6419109644041,19.285240970007806L741.4460960391394,16.943048616798023L741.7966191734813,26.311957636977752L742.4976654421652,23.96976528376797L744.2502811138746,19.285240970007806L746.0028967855841,19.285240970007806L746.3534199199261,19.285240970007806L746.7039430542679,23.96976528376797L747.4049893229517,16.943048616798023L747.7555124572935,19.285240970007806L748.4565587259774,28.654149990187534L749.1576049946613,16.943048616798023L750.2091743976869,16.943048616798023L750.5596975320287,21.627433323217588L751.9617900693964,21.627433323217588L753.7144057411058,16.943048616798023L754.4154520097898,19.285240970007806L756.5185908158411,16.943048616798023L756.869113950183,33.3385346966071L757.2196370845248,16.943048616798023L757.5701602188668,19.285240970007806L757.9206833532087,19.285240970007806L758.9722527562344,16.943048616798023L759.6732990249182,16.943048616798023L760.7248684279439,26.311957636977752L761.0753915622857,16.943048616798023L762.1269609653115,16.943048616798023L762.8280072339952,16.943048616798023L763.5290535026791,16.943048616798023L763.879576637021,16.943048616798023L764.2300997713629,23.96976528376797L765.6321923087304,23.96976528376797L767.0342848460981,21.627433323217588L767.38480798044,16.943048616798023L767.7353311147818,30.996342343397316L769.1374236521494,21.627433323217588L769.4879467864914,19.285240970007806L770.1889930551752,16.943048616798023L770.539516189517,19.285240970007806L771.2405624582008,16.943048616798023L771.5910855925428,21.627433323217588L771.9416087268846,26.311957636977752L772.6426549955685,26.311957636977752L772.9931781299103,16.943048616798023L773.6942243985941,19.285240970007806L774.7457938016198,16.943048616798023L775.4468400703036,16.943048616798023L775.7973632046455,16.943048616798023L777.9005020106969,21.627433323217588L778.2510251450387,16.943048616798023L778.6015482793807,19.285240970007806L780.0036408167483,16.943048616798023L780.704687085432,23.96976528376797L781.4057333541158,21.627433323217588L782.8078258914835,19.285240970007806L785.2614878318768,19.285240970007806L786.3130572349024,19.285240970007806L787.0141035035863,19.285240970007806L787.7151497722701,19.285240970007806L788.065672906612,16.943048616798023L789.4677654439796,21.627433323217588L790.1688117126633,23.96976528376797L790.5193348470052,19.285240970007806L790.8698579813472,30.996342343397316L791.9214273843729,21.627433323217588L792.2719505187148,19.285240970007806L793.3235199217404,16.943048616798023L793.6740430560823,21.627433323217588L794.7256124591081,23.96976528376797L795.7771818621337,28.654149990187534L797.1792743995014,19.285240970007806L799.2824132055528,19.285240970007806L799.6329363398946,16.943048616798023L800.6845057429204,19.285240970007806L801.0350288772622,21.627433323217588L801.736075145946,19.285240970007806L802.4371214146298,16.943048616798023L802.7876445489717,21.627433323217588L803.4886908176555,19.285240970007806L803.8392139519974,26.311957636977752L804.5402602206813,21.627433323217588L804.8907833550231,28.654149990187534L805.241306489365,16.943048616798023L805.5918296237069,21.627433323217588L806.2928758923907,16.943048616798023L806.9939221610746,16.943048616798023L807.3444452954164,28.654149990187534L808.7465378327839,21.627433323217588L809.0970609671259,16.943048616798023L809.7981072358098,16.943048616798023L810.8496766388354,16.943048616798023L811.5507229075191,23.96976528376797L812.602292310545,16.943048616798023L816.8085699226476,30.996342343397316L818.2106624600153,16.943048616798023L819.2622318630409,16.943048616798023L821.0148475347504,16.943048616798023L821.7158938034343,16.943048616798023L822.76746320646,26.311957636977752L824.8706020125114,21.627433323217588L825.2211251468533,19.285240970007806L825.922171415537,16.943048616798023L826.9737408185626,16.943048616798023L828.0253102215885,21.627433323217588L828.3758333559304,30.996342343397316L828.7263564902722,16.943048616798023L831.8810646993493,21.627433323217588L832.2315878336913,16.943048616798023L832.5821109680331,23.96976528376797L832.932634102375,16.943048616798023L833.6336803710589,21.627433323217588L834.3347266397426,21.627433323217588L835.3862960427683,19.285240970007806L837.1389117144779,23.96976528376797L837.8399579831616,19.285240970007806L838.1904811175035,26.311957636977752L838.5410042518454,19.285240970007806L838.8915273861872,16.943048616798023L841.6957124609224,21.627433323217588L844.8504206699996,21.627433323217588L846.6030363417091,16.943048616798023L849.4072214164443,16.943048616798023L849.7577445507862,26.311957636977752L850.8093139538119,23.96976528376797L852.2114064911796,16.943048616798023L853.2629758942052,21.627433323217588L854.6650684315728,45.04963606999661L855.7166378345985,21.627433323217588L856.7682072376241,16.943048616798023L857.118730371966,16.943048616798023L857.469253506308,35.68086665715748L858.1702997749918,21.627433323217588L860.974484849727,16.943048616798023L861.6755311184107,16.943048616798023L862.3765773870946,19.285240970007806L863.0776236557783,16.943048616798023L864.8302393274879,16.943048616798023L866.5828549991973,21.627433323217588L869.3870400739324,23.96976528376797L869.7375632082743,19.285240970007806L870.0880863426164,16.943048616798023L871.4901788799839,19.285240970007806L872.5417482830096,19.285240970007806L873.5933176860353,26.311957636977752L876.3975027607705,16.943048616798023L877.0985490294543,21.627433323217588L878.5006415668219,21.627433323217588L878.8511647011637,21.627433323217588L879.2016878355057,16.943048616798023L879.5522109698476,21.627433323217588L880.2532572385314,16.943048616798023L880.9543035072152,16.943048616798023L882.0058729102408,21.627433323217588L883.0574423132666,21.627433323217588L883.4079654476085,21.627433323217588L884.1090117162922,28.654149990187534L884.810057984976,23.96976528376797L887.2637199253693,16.943048616798023L888.665812462737,16.943048616798023L889.3668587314207,16.943048616798023L890.0679050001045,19.285240970007806L890.7689512687883,16.943048616798023L891.1194744031302,16.943048616798023L891.820520671814,21.627433323217588L892.8720900748398,16.943048616798023L893.5731363435235,19.285240970007806L894.6247057465492,21.627433323217588L895.3257520152331,26.311957636977752L896.3773214182587,23.96976528376797L896.7278445526006,23.96976528376797L897.0783676869424,16.943048616798023L900.5835990303616,28.654149990187534L900.9341221647035,21.627433323217588L901.6351684333872,16.943048616798023L901.9856915677291,16.943048616798023L902.336214702071,16.943048616798023L902.6867378364128,23.96976528376797L903.7383072394387,30.996342343397316L904.0888303737805,19.285240970007806L904.7898766424643,19.285240970007806L905.84144604549,16.943048616798023L906.5424923141738,16.943048616798023L907.2435385828576,28.654149990187534L907.9445848515414,21.627433323217588L911.0992930606185,21.627433323217588L911.4498161949604,16.943048616798023L912.5013855979861,16.943048616798023L913.2024318666699,21.627433323217588L913.9034781353537,28.654149990187534L914.6045244040374,16.943048616798023L915.3055706727212,19.285240970007806L915.6560938070633,21.627433323217588L916.7076632100889,21.627433323217588L918.8108020161403,21.627433323217588L919.1613251504822,16.943048616798023L920.5634176878498,16.943048616798023L921.6149870908755,19.285240970007806L922.6665564939011,40.365251363577045L923.367602762585,16.943048616798023L923.7181258969268,19.285240970007806L925.1202184342944,23.96976528376797L926.522310971662,16.943048616798023L927.5738803746876,35.68086665715748L927.9244035090297,19.285240970007806L928.2749266433716,19.285240970007806L928.6254497777135,21.627433323217588L929.6770191807391,19.285240970007806L931.0791117181068,19.285240970007806L931.7801579867905,21.627433323217588L933.1822505241581,16.943048616798023L933.5327736585,16.943048616798023L934.2338199271838,19.285240970007806L934.5843430615257,45.04963606999661L936.3369587332352,21.627433323217588L937.3885281362609,21.627433323217588L937.7390512706028,16.943048616798023L938.4400975392866,26.311957636977752L939.1411438079704,28.654149990187534L939.8421900766542,19.285240970007806L940.1927132109961,21.627433323217588L941.2442826140218,16.943048616798023L941.5948057483637,21.627433323217588L942.2958520170474,21.627433323217588L943.3474214200733,26.311957636977752L943.6979445544151,16.943048616798023L944.3989908230989,19.285240970007806L946.5021296291503,19.285240970007806L947.5536990321759,19.285240970007806L948.6052684352017,47.39196803054699L948.9557915695435,26.311957636977752L950.3578841069111,16.943048616798023L952.4610229129626,21.627433323217588L957.0178236594072,16.943048616798023L958.4199161967749,23.96976528376797L959.1209624654587,19.285240970007806L960.8735781371681,16.943048616798023L961.9251475401938,35.68086665715748L962.6261938088776,19.285240970007806L964.0282863462452,16.943048616798023L965.7809020179546,23.96976528376797L967.1829945553222,16.943048616798023L968.58508709269,16.943048616798023L969.6366564957156,21.627433323217588L972.7913647047926,23.96976528376797L974.8945035108441,26.311957636977752L978.399734854263,16.943048616798023L978.750257988605,23.96976528376797L979.1007811229468,30.996342343397316L980.1523505259726,16.943048616798023L980.5028736603144,16.943048616798023L982.2554893320239,16.943048616798023L982.9565356007078,21.627433323217588L984.3586281380753,16.943048616798023L984.7091512724172,16.943048616798023L985.0596744067591,21.627433323217588L985.410197541101,28.654149990187534L985.7607206754429,23.96976528376797L986.1112438097849,16.943048616798023L986.4617669441268,19.285240970007806L989.265952018862,16.943048616798023L990.3175214218876,33.3385346966071L992.420660227939,16.943048616798023L993.8227527653066,30.996342343397316L997.3279841087256,16.943048616798023L997.6785072430675,16.943048616798023L998.0290303774094,21.627433323217588L1000.4826923178026,16.943048616798023L1002.2353079895122,28.654149990187534L1003.2868773925378,23.96976528376797L1003.9879236612218,26.311957636977752L1004.3384467955636,21.627433323217588L1004.6889699299055,23.96976528376797L1005.0394930642474,21.627433323217588L1006.441585601615,19.285240970007806L1009.2457706763502,16.943048616798023L1009.596293810692,26.311957636977752L1010.6478632137178,16.943048616798023L1011.3489094824016,23.96976528376797L1011.6994326167435,26.311957636977752L1012.4004788854272,30.996342343397316L1014.1530945571368,16.943048616798023L1016.6067564975301,26.311957636977752L1017.3078027662139,19.285240970007806L1018.3593721692395,19.285240970007806L1019.0604184379234,16.943048616798023L1020.8130341096328,23.96976528376797L1021.8646035126585,33.3385346966071L1022.9161729156842,16.943048616798023L1026.0708811247614,16.943048616798023L1026.4214042591032,30.996342343397316L1027.4729736621289,16.943048616798023L1028.5245430651546,23.96976528376797L1029.2255893338383,26.311957636977752L1029.5761124681803,21.627433323217588L1031.6792512742318,21.627433323217588L1032.7308206772575,23.96976528376797L1033.0813438115993,23.96976528376797L1033.782390080283,19.285240970007806L1034.8339594833087,16.943048616798023L1035.5350057519927,16.943048616798023L1036.2360520206764,16.943048616798023L1037.2876214237021,21.627433323217588L1037.638144558044,21.627433323217588L1037.988667692386,16.943048616798023L1040.4423296327793,16.943048616798023L1042.1949453044886,23.96976528376797L1042.8959915731725,16.943048616798023L1043.2465147075143,16.943048616798023L1043.5970378418563,47.39196803054699L1044.9991303792237,19.285240970007806L1045.3496535135657,23.96976528376797L1047.1022691852752,28.654149990187534L1047.4527923196172,16.943048616798023L1048.8548848569847,21.627433323217588L1049.9064542600104,19.285240970007806L1050.2569773943524,16.943048616798023L1050.958023663036,23.96976528376797L1053.4116856034295,19.285240970007806L1053.7622087377713,26.311957636977752L1055.514824409481,26.311957636977752L1059.7211020215836,21.627433323217588L1061.473717693293,23.96976528376797L1062.1747639619769,16.943048616798023L1062.5252870963188,23.96976528376797L1063.5768564993446,23.96976528376797L1063.9273796336863,26.311957636977752L1067.0820878427635,21.627433323217588L1069.185226648815,16.943048616798023L1070.5873191861824,21.627433323217588L1070.9378423205244,16.943048616798023" fill="none"></path></g></g></g></g></g></g><g transform="translate(49, 378)" clip-path="url(#clip_1)"><clipPath id="clip_1"><rect width="1079" height="21"></rect></clipPath><g><g><line x1="19.36843929482773" y1="0" x2="19.36843929482773" y2="5" style="visibility: inherit;" fill="rgb(0, 0, 0)" stroke="rgb(204, 204, 204)" stroke-width="1px"></line><line x1="89.4730661632075" y1="0" x2="89.4730661632075" y2="5" style="visibility: inherit;" fill="rgb(0, 0, 0)" stroke="rgb(204, 204, 204)" stroke-width="1px"></line><line x1="159.57769303158727" y1="0" x2="159.57769303158727" y2="5" style="visibility: inherit;" fill="rgb(0, 0, 0)" stroke="rgb(204, 204, 204)" stroke-width="1px"></line><line x1="229.68231989996704" y1="0" x2="229.68231989996704" y2="5" style="visibility: inherit;" fill="rgb(0, 0, 0)" stroke="rgb(204, 204, 204)" stroke-width="1px"></line><line x1="299.7869467683468" y1="0" x2="299.7869467683468" y2="5" style="visibility: inherit;" fill="rgb(0, 0, 0)" stroke="rgb(204, 204, 204)" stroke-width="1px"></line><line x1="369.8915736367266" y1="0" x2="369.8915736367266" y2="5" style="visibility: inherit;" fill="rgb(0, 0, 0)" stroke="rgb(204, 204, 204)" stroke-width="1px"></line><line x1="439.99620050510634" y1="0" x2="439.99620050510634" y2="5" style="visibility: inherit;" fill="rgb(0, 0, 0)" stroke="rgb(204, 204, 204)" stroke-width="1px"></line><line x1="510.1008273734862" y1="0" x2="510.1008273734862" y2="5" style="visibility: inherit;" fill="rgb(0, 0, 0)" stroke="rgb(204, 204, 204)" stroke-width="1px"></line><line x1="580.2054542418659" y1="0" x2="580.2054542418659" y2="5" style="visibility: inherit;" fill="rgb(0, 0, 0)" stroke="rgb(204, 204, 204)" stroke-width="1px"></line><line x1="650.3100811102456" y1="0" x2="650.3100811102456" y2="5" style="visibility: inherit;" fill="rgb(0, 0, 0)" stroke="rgb(204, 204, 204)" stroke-width="1px"></line><line x1="720.4147079786254" y1="0" x2="720.4147079786254" y2="5" style="visibility: inherit;" fill="rgb(0, 0, 0)" stroke="rgb(204, 204, 204)" stroke-width="1px"></line><line x1="790.5193348470052" y1="0" x2="790.5193348470052" y2="5" style="visibility: inherit;" fill="rgb(0, 0, 0)" stroke="rgb(204, 204, 204)" stroke-width="1px"></line><line x1="860.623961715385" y1="0" x2="860.623961715385" y2="5" style="visibility: inherit;" fill="rgb(0, 0, 0)" stroke="rgb(204, 204, 204)" stroke-width="1px"></line><line x1="930.7285885837649" y1="0" x2="930.7285885837649" y2="5" style="visibility: inherit;" fill="rgb(0, 0, 0)" stroke="rgb(204, 204, 204)" stroke-width="1px"></line><line x1="1000.8332154521446" y1="0" x2="1000.8332154521446" y2="5" style="visibility: inherit;" fill="rgb(0, 0, 0)" stroke="rgb(204, 204, 204)" stroke-width="1px"></line><line x1="1070.9378423205244" y1="0" x2="1070.9378423205244" y2="5" style="visibility: inherit;" fill="rgb(0, 0, 0)" stroke="rgb(204, 204, 204)" stroke-width="1px"></line></g><g transform="translate(0, 8)"><text style="text-anchor: middle; visibility: inherit; font-family: &quot;Helvetica Neue&quot;, sans-serif; font-size: 12px; font-weight: 200;" x="19.36843929482773" y="0" dx="0em" dy="0.95em" fill="rgb(50, 49, 63)" stroke="none" stroke-width="1px">0</text><text style="text-anchor: middle; visibility: inherit; font-family: &quot;Helvetica Neue&quot;, sans-serif; font-size: 12px; font-weight: 200;" x="89.4730661632075" y="0" dx="0em" dy="0.95em" fill="rgb(50, 49, 63)" stroke="none" stroke-width="1px">200</text><text style="text-anchor: middle; visibility: inherit; font-family: &quot;Helvetica Neue&quot;, sans-serif; font-size: 12px; font-weight: 200;" x="159.57769303158727" y="0" dx="0em" dy="0.95em" fill="rgb(50, 49, 63)" stroke="none" stroke-width="1px">400</text><text style="text-anchor: middle; visibility: inherit; font-family: &quot;Helvetica Neue&quot;, sans-serif; font-size: 12px; font-weight: 200;" x="229.68231989996704" y="0" dx="0em" dy="0.95em" fill="rgb(50, 49, 63)" stroke="none" stroke-width="1px">600</text><text style="text-anchor: middle; visibility: inherit; font-family: &quot;Helvetica Neue&quot;, sans-serif; font-size: 12px; font-weight: 200;" x="299.7869467683468" y="0" dx="0em" dy="0.95em" fill="rgb(50, 49, 63)" stroke="none" stroke-width="1px">800</text><text style="text-anchor: middle; visibility: inherit; font-family: &quot;Helvetica Neue&quot;, sans-serif; font-size: 12px; font-weight: 200;" x="369.8915736367266" y="0" dx="0em" dy="0.95em" fill="rgb(50, 49, 63)" stroke="none" stroke-width="1px">1k</text><text style="text-anchor: middle; visibility: inherit; font-family: &quot;Helvetica Neue&quot;, sans-serif; font-size: 12px; font-weight: 200;" x="439.99620050510634" y="0" dx="0em" dy="0.95em" fill="rgb(50, 49, 63)" stroke="none" stroke-width="1px">1.2k</text><text style="text-anchor: middle; visibility: inherit; font-family: &quot;Helvetica Neue&quot;, sans-serif; font-size: 12px; font-weight: 200;" x="510.1008273734862" y="0" dx="0em" dy="0.95em" fill="rgb(50, 49, 63)" stroke="none" stroke-width="1px">1.4k</text><text style="text-anchor: middle; visibility: inherit; font-family: &quot;Helvetica Neue&quot;, sans-serif; font-size: 12px; font-weight: 200;" x="580.2054542418659" y="0" dx="0em" dy="0.95em" fill="rgb(50, 49, 63)" stroke="none" stroke-width="1px">1.6k</text><text style="text-anchor: middle; visibility: inherit; font-family: &quot;Helvetica Neue&quot;, sans-serif; font-size: 12px; font-weight: 200;" x="650.3100811102456" y="0" dx="0em" dy="0.95em" fill="rgb(50, 49, 63)" stroke="none" stroke-width="1px">1.8k</text><text style="text-anchor: middle; visibility: inherit; font-family: &quot;Helvetica Neue&quot;, sans-serif; font-size: 12px; font-weight: 200;" x="720.4147079786254" y="0" dx="0em" dy="0.95em" fill="rgb(50, 49, 63)" stroke="none" stroke-width="1px">2k</text><text style="text-anchor: middle; visibility: inherit; font-family: &quot;Helvetica Neue&quot;, sans-serif; font-size: 12px; font-weight: 200;" x="790.5193348470052" y="0" dx="0em" dy="0.95em" fill="rgb(50, 49, 63)" stroke="none" stroke-width="1px">2.2k</text><text style="text-anchor: middle; visibility: inherit; font-family: &quot;Helvetica Neue&quot;, sans-serif; font-size: 12px; font-weight: 200;" x="860.623961715385" y="0" dx="0em" dy="0.95em" fill="rgb(50, 49, 63)" stroke="none" stroke-width="1px">2.4k</text><text style="text-anchor: middle; visibility: inherit; font-family: &quot;Helvetica Neue&quot;, sans-serif; font-size: 12px; font-weight: 200;" x="930.7285885837649" y="0" dx="0em" dy="0.95em" fill="rgb(50, 49, 63)" stroke="none" stroke-width="1px">2.6k</text><text style="text-anchor: middle; visibility: inherit; font-family: &quot;Helvetica Neue&quot;, sans-serif; font-size: 12px; font-weight: 200;" x="1000.8332154521446" y="0" dx="0em" dy="0.95em" fill="rgb(50, 49, 63)" stroke="none" stroke-width="1px">2.8k</text><text style="text-anchor: middle; visibility: inherit; font-family: &quot;Helvetica Neue&quot;, sans-serif; font-size: 12px; font-weight: 200;" x="1070.9378423205244" y="0" dx="0em" dy="0.95em" fill="rgb(50, 49, 63)" stroke="none" stroke-width="1px">3k</text></g><line x1="0" y1="0" x2="1079.4159988403321" y2="0" fill="rgb(0, 0, 0)" stroke="rgb(204, 204, 204)" stroke-width="1px"></line></g></g></g></g></svg>