<svg viewBox="0 0 1129.4000244140625 400" xmlns="http://www.w3.org/2000/svg"><g><g><g><g><g><line x1="39.98800086975098" y1="364.67066041524777" x2="34.98800086975098" y2="364.67066041524777" style="visibility: inherit;" fill="rgb(0, 0, 0)" stroke="rgb(204, 204, 204)" stroke-width="1px"></line><line x1="39.98800086975098" y1="332.90115298754495" x2="34.98800086975098" y2="332.90115298754495" style="visibility: inherit;" fill="rgb(0, 0, 0)" stroke="rgb(204, 204, 204)" stroke-width="1px"></line><line x1="39.98800086975098" y1="301.131645559842" x2="34.98800086975098" y2="301.131645559842" style="visibility: inherit;" fill="rgb(0, 0, 0)" stroke="rgb(204, 204, 204)" stroke-width="1px"></line><line x1="39.98800086975098" y1="269.3621381321392" x2="34.98800086975098" y2="269.3621381321392" style="visibility: inherit;" fill="rgb(0, 0, 0)" stroke="rgb(204, 204, 204)" stroke-width="1px"></line><line x1="39.98800086975098" y1="237.59263070443626" x2="34.98800086975098" y2="237.59263070443626" style="visibility: inherit;" fill="rgb(0, 0, 0)" stroke="rgb(204, 204, 204)" stroke-width="1px"></line><line x1="39.98800086975098" y1="205.82312327673344" x2="34.98800086975098" y2="205.82312327673344" style="visibility: inherit;" fill="rgb(0, 0, 0)" stroke="rgb(204, 204, 204)" stroke-width="1px"></line><line x1="39.98800086975098" y1="174.0536158490305" x2="34.98800086975098" y2="174.0536158490305" style="visibility: inherit;" fill="rgb(0, 0, 0)" stroke="rgb(204, 204, 204)" stroke-width="1px"></line><line x1="39.98800086975098" y1="142.2841084213276" x2="34.98800086975098" y2="142.2841084213276" style="visibility: inherit;" fill="rgb(0, 0, 0)" stroke="rgb(204, 204, 204)" stroke-width="1px"></line><line x1="39.98800086975098" y1="110.51460099362481" x2="34.98800086975098" y2="110.51460099362481" style="visibility: inherit;" fill="rgb(0, 0, 0)" stroke="rgb(204, 204, 204)" stroke-width="1px"></line><line x1="39.98800086975098" y1="78.74509356592188" x2="34.98800086975098" y2="78.74509356592188" style="visibility: inherit;" fill="rgb(0, 0, 0)" stroke="rgb(204, 204, 204)" stroke-width="1px"></line><line x1="39.98800086975098" y1="46.97558613821906" x2="34.98800086975098" y2="46.97558613821906" style="visibility: inherit;" fill="rgb(0, 0, 0)" stroke="rgb(204, 204, 204)" stroke-width="1px"></line><line x1="39.98800086975098" y1="15.206078710516124" x2="34.98800086975098" y2="15.206078710516124" style="visibility: inherit;" fill="rgb(0, 0, 0)" stroke="rgb(204, 204, 204)" stroke-width="1px"></line></g><g transform="translate(29.988000869750977, 0)"><text style="text-anchor: end; visibility: inherit; font-family: &quot;Helvetica Neue&quot;, sans-serif; font-size: 12px; font-weight: 200;" x="0" y="364.67066041524777" dx="0em" dy="0.3em" fill="rgb(50, 49, 63)" stroke="none" stroke-width="1px">0.9</text><text style="text-anchor: end; visibility: inherit; font-family: &quot;Helvetica Neue&quot;, sans-serif; font-size: 12px; font-weight: 200;" x="0" y="332.90115298754495" dx="0em" dy="0.3em" fill="rgb(50, 49, 63)" stroke="none" stroke-width="1px">1</text><text style="text-anchor: end; visibility: inherit; font-family: &quot;Helvetica Neue&quot;, sans-serif; font-size: 12px; font-weight: 200;" x="0" y="301.131645559842" dx="0em" dy="0.3em" fill="rgb(50, 49, 63)" stroke="none" stroke-width="1px">1.1</text><text style="text-anchor: end; visibility: inherit; font-family: &quot;Helvetica Neue&quot;, sans-serif; font-size: 12px; font-weight: 200;" x="0" y="269.3621381321392" dx="0em" dy="0.3em" fill="rgb(50, 49, 63)" stroke="none" stroke-width="1px">1.2</text><text style="text-anchor: end; visibility: inherit; font-family: &quot;Helvetica Neue&quot;, sans-serif; font-size: 12px; font-weight: 200;" x="0" y="237.59263070443626" dx="0em" dy="0.3em" fill="rgb(50, 49, 63)" stroke="none" stroke-width="1px">1.3</text><text style="text-anchor: end; visibility: inherit; font-family: &quot;Helvetica Neue&quot;, sans-serif; font-size: 12px; font-weight: 200;" x="0" y="205.82312327673344" dx="0em" dy="0.3em" fill="rgb(50, 49, 63)" stroke="none" stroke-width="1px">1.4</text><text style="text-anchor: end; visibility: inherit; font-family: &quot;Helvetica Neue&quot;, sans-serif; font-size: 12px; font-weight: 200;" x="0" y="174.0536158490305" dx="0em" dy="0.3em" fill="rgb(50, 49, 63)" stroke="none" stroke-width="1px">1.5</text><text style="text-anchor: end; visibility: inherit; font-family: &quot;Helvetica Neue&quot;, sans-serif; font-size: 12px; font-weight: 200;" x="0" y="142.2841084213276" dx="0em" dy="0.3em" fill="rgb(50, 49, 63)" stroke="none" stroke-width="1px">1.6</text><text style="text-anchor: end; visibility: inherit; font-family: &quot;Helvetica Neue&quot;, sans-serif; font-size: 12px; font-weight: 200;" x="0" y="110.51460099362481" dx="0em" dy="0.3em" fill="rgb(50, 49, 63)" stroke="none" stroke-width="1px">1.7</text><text style="text-anchor: end; visibility: inherit; font-family: &quot;Helvetica Neue&quot;, sans-serif; font-size: 12px; font-weight: 200;" x="0" y="78.74509356592188" dx="0em" dy="0.3em" fill="rgb(50, 49, 63)" stroke="none" stroke-width="1px">1.8</text><text style="text-anchor: end; visibility: inherit; font-family: &quot;Helvetica Neue&quot;, sans-serif; font-size: 12px; font-weight: 200;" x="0" y="46.97558613821906" dx="0em" dy="0.3em" fill="rgb(50, 49, 63)" stroke="none" stroke-width="1px">1.9</text><text style="text-anchor: end; visibility: inherit; font-family: &quot;Helvetica Neue&quot;, sans-serif; font-size: 12px; font-weight: 200;" x="0" y="15.206078710516124" dx="0em" dy="0.3em" fill="rgb(50, 49, 63)" stroke="none" stroke-width="1px">2</text></g><line x1="39.98800086975098" y1="0" x2="39.98800086975098" y2="378.60799980163574" fill="rgb(0, 0, 0)" stroke="rgb(204, 204, 204)" stroke-width="1px"></line></g></g><g transform="translate(39, 0)" clip-path="url(#clip_0)"><clipPath id="clip_0"><rect width="1089" height="378"></rect></clipPath><g><g><g><line x1="15.558737922154767" y1="0" x2="15.558737922154767" y2="378.60799980163574" fill="rgb(0, 0, 0)" stroke="rgb(60, 60, 60)" stroke-width="1px" opacity="0.25"></line><line x1="86.05806293353491" y1="0" x2="86.05806293353491" y2="378.60799980163574" fill="rgb(0, 0, 0)" stroke="rgb(60, 60, 60)" stroke-width="1px" opacity="0.25"></line><line x1="156.55738794491506" y1="0" x2="156.55738794491506" y2="378.60799980163574" fill="rgb(0, 0, 0)" stroke="rgb(60, 60, 60)" stroke-width="1px" opacity="0.25"></line><line x1="227.0567129562952" y1="0" x2="227.0567129562952" y2="378.60799980163574" fill="rgb(0, 0, 0)" stroke="rgb(60, 60, 60)" stroke-width="1px" opacity="0.25"></line><line x1="297.5560379676753" y1="0" x2="297.5560379676753" y2="378.60799980163574" fill="rgb(0, 0, 0)" stroke="rgb(60, 60, 60)" stroke-width="1px" opacity="0.25"></line><line x1="368.0553629790555" y1="0" x2="368.0553629790555" y2="378.60799980163574" fill="rgb(0, 0, 0)" stroke="rgb(60, 60, 60)" stroke-width="1px" opacity="0.25"></line><line x1="438.5546879904356" y1="0" x2="438.5546879904356" y2="378.60799980163574" fill="rgb(0, 0, 0)" stroke="rgb(60, 60, 60)" stroke-width="1px" opacity="0.25"></line><line x1="509.05401300181575" y1="0" x2="509.05401300181575" y2="378.60799980163574" fill="rgb(0, 0, 0)" stroke="rgb(60, 60, 60)" stroke-width="1px" opacity="0.25"></line><line x1="579.5533380131959" y1="0" x2="579.5533380131959" y2="378.60799980163574" fill="rgb(0, 0, 0)" stroke="rgb(60, 60, 60)" stroke-width="1px" opacity="0.25"></line><line x1="650.0526630245761" y1="0" x2="650.0526630245761" y2="378.60799980163574" fill="rgb(0, 0, 0)" stroke="rgb(60, 60, 60)" stroke-width="1px" opacity="0.25"></line><line x1="720.5519880359562" y1="0" x2="720.5519880359562" y2="378.60799980163574" fill="rgb(0, 0, 0)" stroke="rgb(60, 60, 60)" stroke-width="1px" opacity="0.25"></line><line x1="791.0513130473363" y1="0" x2="791.0513130473363" y2="378.60799980163574" fill="rgb(0, 0, 0)" stroke="rgb(60, 60, 60)" stroke-width="1px" opacity="0.25"></line><line x1="861.5506380587165" y1="0" x2="861.5506380587165" y2="378.60799980163574" fill="rgb(0, 0, 0)" stroke="rgb(60, 60, 60)" stroke-width="1px" opacity="0.25"></line><line x1="932.0499630700966" y1="0" x2="932.0499630700966" y2="378.60799980163574" fill="rgb(0, 0, 0)" stroke="rgb(60, 60, 60)" stroke-width="1px" opacity="0.25"></line><line x1="1002.5492880814768" y1="0" x2="1002.5492880814768" y2="378.60799980163574" fill="rgb(0, 0, 0)" stroke="rgb(60, 60, 60)" stroke-width="1px" opacity="0.25"></line><line x1="1073.0486130928568" y1="0" x2="1073.0486130928568" y2="378.60799980163574" fill="rgb(0, 0, 0)" stroke="rgb(60, 60, 60)" stroke-width="1px" opacity="0.25"></line></g><g><line x1="0" y1="364.67066041524777" x2="1089.4119991302491" y2="364.67066041524777" fill="rgb(0, 0, 0)" stroke="rgb(60, 60, 60)" stroke-width="1px" opacity="0.25"></line><line x1="0" y1="332.90115298754495" x2="1089.4119991302491" y2="332.90115298754495" fill="rgb(0, 0, 0)" stroke="rgb(60, 60, 60)" stroke-width="1px" opacity="0.25"></line><line x1="0" y1="301.131645559842" x2="1089.4119991302491" y2="301.131645559842" fill="rgb(0, 0, 0)" stroke="rgb(60, 60, 60)" stroke-width="1px" opacity="0.25"></line><line x1="0" y1="269.3621381321392" x2="1089.4119991302491" y2="269.3621381321392" fill="rgb(0, 0, 0)" stroke="rgb(60, 60, 60)" stroke-width="1px" opacity="0.25"></line><line x1="0" y1="237.59263070443626" x2="1089.4119991302491" y2="237.59263070443626" fill="rgb(0, 0, 0)" stroke="rgb(60, 60, 60)" stroke-width="1px" opacity="0.25"></line><line x1="0" y1="205.82312327673344" x2="1089.4119991302491" y2="205.82312327673344" fill="rgb(0, 0, 0)" stroke="rgb(60, 60, 60)" stroke-width="1px" opacity="0.25"></line><line x1="0" y1="174.0536158490305" x2="1089.4119991302491" y2="174.0536158490305" fill="rgb(0, 0, 0)" stroke="rgb(60, 60, 60)" stroke-width="1px" opacity="0.25"></line><line x1="0" y1="142.2841084213276" x2="1089.4119991302491" y2="142.2841084213276" fill="rgb(0, 0, 0)" stroke="rgb(60, 60, 60)" stroke-width="1px" opacity="0.25"></line><line x1="0" y1="110.51460099362481" x2="1089.4119991302491" y2="110.51460099362481" fill="rgb(0, 0, 0)" stroke="rgb(60, 60, 60)" stroke-width="1px" opacity="0.25"></line><line x1="0" y1="78.74509356592188" x2="1089.4119991302491" y2="78.74509356592188" fill="rgb(0, 0, 0)" stroke="rgb(60, 60, 60)" stroke-width="1px" opacity="0.25"></line><line x1="0" y1="46.97558613821906" x2="1089.4119991302491" y2="46.97558613821906" fill="rgb(0, 0, 0)" stroke="rgb(60, 60, 60)" stroke-width="1px" opacity="0.25"></line><line x1="0" y1="15.206078710516124" x2="1089.4119991302491" y2="15.206078710516124" fill="rgb(0, 0, 0)" stroke="rgb(60, 60, 60)" stroke-width="1px" opacity="0.25"></line></g></g></g><g><g><line x1="0" y1="650.5962272645737" x2="1089.4119991302491" y2="650.5962272645737" fill="rgb(0, 0, 0)" stroke="rgb(153, 153, 153)" stroke-width="1.5px"></line></g></g><g><g><line x1="15.558737922154767" y1="0" x2="15.558737922154767" y2="378.60799980163574" fill="rgb(0, 0, 0)" stroke="rgb(153, 153, 153)" stroke-width="1.5px"></line></g></g><g><g><g><g><g><path style="fill: none;" stroke="rgb(0, 153, 136)" stroke-width="2px" d="M17.67371767249617,346.2443447437808L18.02621429755307,352.5982401697687L19.788697422837576,344.33817990320483L20.846187298008275,335.12502774830193L21.19868392306518,336.39579168461785L22.256173798235878,334.80731782812086L22.961167048349683,31.408527195666977L24.371153548577286,335.4427187323809L28.601113049260093,335.7604097164599L30.011099549487696,337.3488835729569L30.716092799601494,335.12502774830193L31.4210860497153,26.96077767415295L31.773582674772197,335.7604097164599L32.478575924886,29.50234341898897L34.59355567522741,335.4427187323809L34.94605230028431,334.80731782812086L35.2985489253412,19.971500280007092L35.65104555039811,22.513066024843056L36.00354217545501,335.12502774830193L38.82351517591022,335.7604097164599L39.88100505108091,334.80731782812086L40.938494926251614,334.80731782812086L41.290991551308515,334.80731782812086L41.64348817636542,335.12502774830193L41.99598480142232,335.12502774830193L43.75846792670682,335.7604097164599L46.57844092716203,335.12502774830193L46.93093755221893,336.39579168461785L49.04591730256033,335.4427187323809L51.86589030301554,19.971500280007092L52.92338017818624,335.4427187323809L53.275876803243136,335.4427187323809L55.74335317864145,20.28921020018811L56.80084305381215,335.4427187323809L57.50583630392595,334.80731782812086L60.32580930438116,334.80731782812086L61.38329917955186,25.054631769679077L61.735795804608756,334.80731782812086L64.90826543012086,335.12502774830193L65.61325868023467,335.7604097164599L65.96575530529157,335.7604097164599L66.31825193034847,336.7135016047989L68.78572830574677,336.39579168461785L70.54821143103128,334.80731782812086L71.25320468114508,334.80731782812086L71.60570130620198,334.80731782812086L73.01568780642958,23.78382996115903L74.77817093171409,336.7135016047989L75.13066755677099,336.39579168461785L76.18815743194169,334.80731782812086L78.3031371822831,335.4427187323809L78.65563380734,335.4427187323809L79.3606270574538,335.4427187323809L80.4181169326245,335.7604097164599L81.12311018273829,336.07810070053887L81.4756068077952,337.0311925888779L82.18060005790899,336.07810070053887L82.8855933080228,336.07810070053887L83.23808993307969,334.80731782812086L85.705566308478,335.7604097164599L88.5255393089332,335.12502774830193L88.8780359339901,335.4427187323809L89.23053255904702,335.7604097164599L90.64051905927462,334.80731782812086L94.16548530984362,335.12502774830193L94.51798193490052,335.7604097164599L95.22297518501432,334.80731782812086L96.63296168524192,19.336118311849077L97.69045156041263,334.80731782812086L98.04294818546953,21.24230208852714L98.39544481052643,335.4427187323809L99.45293468569713,336.7135016047989L103.68289418637994,335.7604097164599L105.79787393672134,335.12502774830193L106.85536381189205,336.39579168461785L107.56035706200585,336.39579168461785L107.91285368706275,335.4427187323809L108.61784693717655,334.80731782812086L110.02783343740415,336.07810070053887L111.43781993763176,335.12502774830193L112.14281318774556,334.80731782812086L113.90529631303005,335.12502774830193L118.84024906382668,334.80731782812086L120.60273218911117,335.12502774830193L120.95522881416808,335.4427187323809L122.36521531439568,335.12502774830193L122.71771193945257,336.07810070053887L124.12769843968019,334.80731782812086L124.48019506473709,335.4427187323809L125.18518831485088,334.80731782812086L126.24267819002158,335.7604097164599L128.00516131530608,335.12502774830193L128.357657940363,335.12502774830193L128.71015456541988,335.7604097164599L130.4726376907044,336.7135016047989L130.8251343157613,336.07810070053887L131.17763094081818,20.60688224816505L132.2351208159889,20.28921020018811L135.40759044150101,335.4427187323809L136.11258369161482,336.07810070053887L138.22756344195622,336.7135016047989L140.3425431922976,335.4427187323809L140.6950398173545,335.7604097164599L142.81001956769592,334.80731782812086L143.8675094428666,335.7604097164599L145.27749594309424,21.24230208852714L146.6874824433218,335.7604097164599L147.39247569343564,334.80731782812086L148.80246219366322,335.12502774830193L149.15495881872013,335.12502774830193L149.50745544377705,335.12502774830193L150.21244869389085,335.12502774830193L151.97493181917534,335.7604097164599L153.73741494445983,336.07810070053887L154.08991156951674,337.0311925888779L154.44240819457366,335.4427187323809L159.72985757042716,336.07810070053887L162.19733394582545,335.12502774830193L164.31231369616685,335.12502774830193L164.66481032122377,335.7604097164599L165.36980357133757,334.80731782812086L166.07479682145134,336.7135016047989L167.48478332167898,335.4427187323809L170.65725294719107,337.0311925888779L171.36224619730487,335.7604097164599L171.71474282236179,335.4427187323809L172.77223269753247,335.7604097164599L174.88721244787388,335.12502774830193L177.70718544832908,336.7135016047989L178.059682073386,335.7604097164599L179.1171719485567,335.4427187323809L179.46966857361357,334.80731782812086L182.6421381991257,334.80731782812086L182.9946348241826,335.4427187323809L186.8720976998085,336.39579168461785L187.92958757497922,335.7604097164599L188.28208420003614,336.39579168461785L188.9870774501499,336.07810070053887L189.6920707002637,336.39579168461785L194.62702345106035,335.12502774830193L196.38950657634484,334.80731782812086L197.09449982645864,335.4427187323809L198.15198970162933,335.4427187323809L198.85698295174313,335.12502774830193L200.61946607702765,336.07810070053887L200.97196270208454,335.7604097164599L203.08694245242594,335.4427187323809L203.79193570253977,334.80731782812086L204.14443232759666,335.7604097164599L204.84942557771046,335.4427187323809L205.20192220276735,334.80731782812086L206.25941207793807,334.80731782812086L206.96440532805187,335.12502774830193L208.72688845333636,335.12502774830193L209.07938507839327,335.12502774830193L212.25185470390537,334.80731782812086L212.9568479540192,20.28921020018811L214.36683445424677,339.89044931779284L214.71933107930369,337.0311925888779L215.0718277043606,335.12502774830193L216.48181420458818,335.12502774830193L217.89180070481578,335.12502774830193L218.2442973298727,335.7604097164599L219.3017872050434,336.39579168461785L220.00678045515718,334.80731782812086L220.3592770802141,336.07810070053887L220.71177370527099,335.12502774830193L221.0642703303279,336.07810070053887L221.41676695538482,335.4427187323809L221.76926358044167,334.80731782812086L222.47425683055548,335.4427187323809L222.8267534556124,21.24230208852714L224.58923658089688,334.80731782812086L224.9417332059538,336.39579168461785L226.3517197061814,335.7604097164599L227.40920958135212,334.80731782812086L228.11420283146592,21.877684056685098L230.22918258180732,20.28921020018811L230.9341758319211,335.12502774830193L232.69665895720559,336.07810070053887L234.10664545743322,337.0311925888779L234.45914208249013,334.80731782812086L235.1641353326039,20.924592168346067L239.39409483328672,335.7604097164599L241.86157120868504,336.39579168461785L242.21406783374192,334.80731782812086L242.91906108385575,335.4427187323809L243.27155770891264,336.07810070053887L243.62405433396953,335.4427187323809L243.9765509590264,335.7604097164599L244.68154420914024,335.12502774830193L245.73903408431096,334.80731782812086L247.14902058453853,336.39579168461785L247.50151720959545,335.12502774830193L248.91150370982305,334.80731782812086L249.96899358499377,335.7604097164599L251.37898008522134,335.7604097164599L252.43646996039203,335.12502774830193L252.78896658544895,335.4427187323809L253.14146321050586,334.80731782812086L253.49395983556275,336.07810070053887L253.84645646061966,335.12502774830193L254.55144971073344,336.39579168461785L254.90394633579035,21.24230208852714L255.25644296084727,335.12502774830193L256.31393283601795,335.7604097164599L256.66642946107487,334.80731782812086L257.0189260861317,335.4427187323809L257.72391933624556,334.80731782812086L258.4289125863594,337.3488835729569L258.7814092114163,336.7135016047989L261.24888558681454,335.7604097164599L262.3063754619853,334.80731782812086L263.7163619622129,334.80731782812086L264.7738518373836,19.65382823203015L265.4788450874974,335.4427187323809L266.1838383376112,335.12502774830193L267.5938248378388,21.24230208852714L269.0038113380664,334.80731782812086L270.0613012132371,335.4427187323809L270.413797838294,21.559974136504025L270.7662944633509,334.80731782812086L271.1187910884078,336.39579168461785L273.2337708387492,335.4427187323809L275.34875058909057,20.924592168346067L276.0537438392044,335.4427187323809L276.40624046426126,335.4427187323809L277.8162269644889,335.7604097164599L278.8737168396596,337.0311925888779L279.2262134647165,22.83077594502413L280.2837033398872,335.4427187323809L280.63619996494407,335.4427187323809L280.988696590001,335.12502774830193L281.6936898401148,20.28921020018811L282.39868309022864,335.12502774830193L284.51366284056996,335.7604097164599L285.5711527157407,335.4427187323809L285.9236493407976,335.12502774830193L286.9811392159683,335.12502774830193L287.3336358410252,334.80731782812086L287.68613246608214,336.39579168461785L288.391125716196,335.12502774830193L288.7436223412528,335.4427187323809L290.8586020915942,334.80731782812086L292.26858859182187,336.7135016047989L292.6210852168788,336.7135016047989L293.3260784669925,337.98426554111484L294.03107171710633,335.4427187323809L294.73606496722016,334.80731782812086L295.088561592277,334.80731782812086L295.44105821733393,336.07810070053887L295.79355484239085,336.07810070053887L296.14605146744776,335.4427187323809L297.2035413426184,335.12502774830193L297.9085345927322,334.80731782812086L298.61352784284605,335.12502774830193L299.67101771801674,337.98426554111484L300.3760109681306,335.12502774830193L300.7285075931875,335.7604097164599L301.08100421824435,334.80731782812086L303.1959839685857,336.07810070053887L303.54848059364264,337.0311925888779L304.25347384375647,336.39579168461785L305.31096371892716,334.80731782812086L306.72095021915476,335.7604097164599L307.77844009432545,335.12502774830193L308.8359299694962,20.924592168346067L309.18842659455305,335.7604097164599L309.8934198446669,21.877684056685098L310.59841309478065,335.12502774830193L311.3034063448944,335.12502774830193L313.065889470179,335.12502774830193L314.1233793453497,20.60688224816505L314.82837259546346,335.12502774830193L320.11582197131696,336.39579168461785L321.52580847154456,335.4427187323809L322.2308017216584,335.7604097164599L322.5832983467153,335.12502774830193L323.99328484694286,335.12502774830193L324.6982780970567,335.12502774830193L325.0507747221136,334.80731782812086L326.1082645972843,335.7604097164599L326.8132578473981,335.7604097164599L327.51825109751195,24.101539881340045L328.5757409726826,334.80731782812086L329.2807342227964,335.7604097164599L329.6332308478533,335.12502774830193L330.3382240979671,334.80731782812086L331.74821059819476,336.07810070053887L333.1581970984223,336.39579168461785L335.62567347382065,336.7135016047989L335.9781700988775,336.07810070053887L336.3306667239344,334.80731782812086L336.6831633489913,336.07810070053887L337.3881565991051,337.98426554111484L338.4456464742758,335.4427187323809L338.7981430993327,336.07810070053887L339.15063972438963,335.7604097164599L340.2081295995603,335.12502774830193L340.56062622461724,336.07810070053887L340.91312284967415,334.80731782812086L341.265619474731,337.3488835729569L344.0855924751862,337.3488835729569L344.43808910024313,336.7135016047989L345.4955789754138,335.12502774830193L347.96305535081217,335.12502774830193L349.02054522598286,334.80731782812086L351.84051822643806,334.80731782812086L352.193014851495,335.12502774830193L352.89800810160875,335.4427187323809L353.25050472666567,335.12502774830193L353.6030013517226,334.80731782812086L354.6604912268932,335.4427187323809L355.01298785195013,335.12502774830193L355.71798110206396,337.66657455703586L356.42297435217773,335.4427187323809L358.1854574774623,20.60688224816505L358.5379541025191,335.4427187323809L359.94794060274677,334.80731782812086L360.3004372278037,335.7604097164599L360.65293385286054,335.12502774830193L361.00543047791746,24.101539881340045L362.0629203530882,336.07810070053887L362.4154169781451,335.7604097164599L362.767913603202,334.80731782812086L363.82540347837266,336.07810070053887L364.1779001034296,338.3019754612959L366.9978731038848,335.7604097164599L368.4078596041124,336.7135016047989L369.11285285422616,335.12502774830193L369.81784610434,336.7135016047989L370.1703427293969,335.12502774830193L371.2278326045676,335.12502774830193L372.2853224797383,337.66657455703586L372.6378191047952,336.39579168461785L372.99031572985206,336.7135016047989L373.342812354909,335.4427187323809L374.4003022300797,336.07810070053887L377.22027523053487,336.39579168461785L377.9252684806487,22.513066024843056L378.6302617307625,335.4427187323809L379.3352549808763,335.12502774830193L379.6877516059332,335.12502774830193L380.7452414811039,335.12502774830193L381.4502347312177,336.07810070053887L382.1552279813315,335.12502774830193L383.917711106616,21.877684056685098L386.3851874820143,335.4427187323809L386.73768410707123,335.12502774830193L387.7951739822419,334.80731782812086L388.50016723235575,336.07810070053887L390.6151469826971,334.80731782812086L390.96764360775404,335.7604097164599L391.6726368578678,335.12502774830193L392.37763010798164,335.4427187323809L393.7876166082092,335.4427187323809L395.19760310843685,335.4427187323809L395.9025963585506,335.7604097164599L397.66507948383514,335.7604097164599L398.017576108892,335.7604097164599L398.3700727339489,335.7604097164599L400.83754910934726,20.28921020018811L401.1900457344042,334.80731782812086L403.30502548474556,337.66657455703586L404.71501198497316,334.80731782812086L405.0675086100301,335.4427187323809L405.420005235087,334.80731782812086L408.59247486059905,335.12502774830193L409.2974681107129,336.07810070053887L410.3549579858836,334.80731782812086L412.46993773622495,334.80731782812086L412.82243436128186,335.4427187323809L414.23242086150947,335.4427187323809L415.2899107366802,335.12502774830193L415.64240736173707,335.4427187323809L415.99490398679393,334.80731782812086L417.0523938619647,336.39579168461785L420.92985673759057,338.93735742945387L421.9873466127613,21.877684056685098L423.044836487932,335.4427187323809L423.3973331129889,335.7604097164599L423.74982973804583,334.80731782812086L424.80731961321646,335.12502774830193L425.1598162382734,334.80731782812086L425.5123128633303,335.12502774830193L430.7997622391838,335.12502774830193L431.85725211435454,337.98426554111484L432.5622453644683,20.60688224816505L432.91474198952517,335.4427187323809L433.619735239639,335.4427187323809L433.9722318646959,336.7135016047989L435.0297217398666,335.12502774830193L436.08721161503735,335.4427187323809L436.4397082400942,335.4427187323809L437.14470149020804,336.07810070053887L437.8496947403218,334.80731782812086L438.5546879904356,334.80731782812086L439.2596812405494,335.4427187323809L440.31717111572016,336.07810070053887L441.02216436583393,20.28921020018811L441.7271576159477,334.80731782812086L442.43215086606153,22.19535610466204L443.1371441161753,336.39579168461785L443.84213736628914,334.80731782812086L447.3671036168581,336.07810070053887L448.7770901170857,335.4427187323809L450.1870766173134,20.28921020018811L450.53957324237024,19.336118311849077L450.8920698674271,334.80731782812086L451.5970631175409,335.7604097164599L452.6545529927117,334.80731782812086L453.71204286788236,335.12502774830193L454.4170361179962,335.4427187323809L455.4745259931668,337.98426554111484L457.58950574350825,337.0311925888779L458.2944989936221,335.7604097164599L458.9994922437359,22.19535610466204L459.3519888687927,335.12502774830193L460.40947874396346,337.0311925888779L460.7619753690204,335.4427187323809L461.11447199407723,335.7604097164599L462.171961869248,20.28921020018811L464.9919348697032,334.80731782812086L466.7544179949877,336.07810070053887L467.4594112451015,334.80731782812086L469.57439099544285,334.80731782812086L470.9843774956705,335.7604097164599L471.3368741207274,335.4427187323809L471.6893707457843,335.12502774830193L472.0418673708412,336.07810070053887L474.1568471211826,335.12502774830193L475.2143369963533,335.4427187323809L477.68181337175156,335.7604097164599L478.3868066218654,335.7604097164599L479.44429649703613,20.924592168346067L479.796793122093,337.0311925888779L480.85428299726374,334.80731782812086L481.2067796223206,335.4427187323809L482.9692627476051,334.80731782812086L483.32175937266203,335.4427187323809L483.6742559977189,335.4427187323809L484.73174587288963,335.12502774830193L485.78923574806026,21.24230208852714L486.1417323731172,335.4427187323809L486.4942289981741,334.80731782812086L486.846725623231,24.101539881340045L487.1992222482879,335.7604097164599L489.31420199862936,337.0311925888779L491.42918174897073,336.7135016047989L493.54416149931217,336.07810070053887L494.9541479995397,21.877684056685098L495.65914124965354,335.12502774830193L497.42162437493806,22.513066024843056L498.8316108751656,335.4427187323809L501.29908725056396,335.12502774830193L502.0040805006778,336.39579168461785L503.0615703758484,335.7604097164599L503.76656362596225,22.19535610466204L504.1190602510191,336.39579168461785L505.17655012618985,335.4427187323809L505.52904675124677,335.7604097164599L506.23404000136054,336.7135016047989L506.58653662641746,335.7604097164599L507.64402650158814,335.7604097164599L513.6364691275554,335.12502774830193L513.9889657526123,336.07810070053887L514.3414623776692,337.0311925888779L514.6939590027262,22.19535610466204L516.1039455029537,335.12502774830193L517.1614353781245,335.12502774830193L518.5714218783521,335.7604097164599L518.923918503409,336.39579168461785L519.2764151284659,335.4427187323809L520.6864016286935,336.39579168461785L521.0388982537504,335.12502774830193L521.3913948788073,335.7604097164599L522.096388128921,23.78382996115903L522.8013813790349,336.07810070053887L523.5063746291487,335.12502774830193L524.2113678792625,22.83077594502413L527.0313408797177,335.12502774830193L528.7938240050022,335.12502774830193L529.1463206300591,335.4427187323809L532.3187902555712,335.7604097164599L532.6712868806281,335.4427187323809L536.548749756254,334.80731782812086L538.3112328815384,335.4427187323809L539.3687227567092,335.12502774830193L539.7212193817661,335.12502774830193L540.7787092569368,335.7604097164599L541.4837025070507,335.4427187323809L541.8361991321076,336.39579168461785L544.6561721325627,334.80731782812086L545.0086687576196,334.80731782812086L545.3611653826765,334.80731782812086L545.7136620077334,335.4427187323809L546.7711518829041,335.4427187323809L547.4761451330179,336.7135016047989L547.8286417580749,334.80731782812086L548.1811383831317,335.4427187323809L551.0011113835869,335.12502774830193L552.7635945088714,335.12502774830193L553.1160911339283,335.12502774830193L554.173581009099,20.28921020018811L556.6410573844973,336.39579168461785L557.3460506346112,335.4427187323809L560.8710168851802,336.07810070053887L562.6335000104647,336.07810070053887L562.9859966355215,336.39579168461785L563.6909898856353,335.4427187323809L564.0434865106923,335.4427187323809L566.1584662610337,335.12502774830193L566.5109628860906,19.971500280007092L568.625942636432,335.4427187323809L568.9784392614888,335.4427187323809L572.1509088870009,334.80731782812086L573.5608953872286,335.4427187323809L574.2658886373424,335.12502774830193L575.67587513757,334.80731782812086L578.8483447630821,336.39579168461785L579.5533380131959,337.66657455703586L580.6108278883665,335.4427187323809L581.3158211384804,336.39579168461785L581.6683177635373,336.07810070053887L583.4308008888218,337.66657455703586L584.4882907639925,335.12502774830193L586.2507738892771,335.4427187323809L586.9557671393909,337.0311925888779L588.3657536396183,335.7604097164599L589.0707468897322,335.4427187323809L589.4232435147891,335.12502774830193L589.775740139846,335.4427187323809L590.4807333899598,335.4427187323809L591.1857266400737,334.80731782812086L592.9482097653581,335.4427187323809L594.0056996405289,335.7604097164599L594.7106928906427,20.60688224816505L595.7681827658133,335.7604097164599L596.8256726409841,335.12502774830193L598.2356591412116,335.4427187323809L599.2931490163824,334.80731782812086L600.70313551661,336.07810070053887L601.0556321416668,334.80731782812086L601.4081287667237,335.12502774830193L603.875605142122,20.28921020018811L604.5805983922359,335.4427187323809L605.2855916423497,336.07810070053887L606.3430815175203,335.7604097164599L606.6955781425772,334.80731782812086L608.8105578929186,335.12502774830193L609.1630545179756,335.7604097164599L610.5730410182031,335.12502774830193L611.9830275184307,335.12502774830193L613.0405173936015,335.12502774830193L613.3930140186584,335.7604097164599L613.7455106437153,341.7966141583688L614.0980072687721,335.4427187323809L614.8030005188859,335.4427187323809L615.8604903940567,335.4427187323809L618.327966769455,334.80731782812086L618.6804633945119,335.12502774830193L620.4429465197964,335.7604097164599L621.1479397699102,19.971500280007092L621.5004363949671,335.4427187323809L621.852933020024,25.054631769679077L625.025402645536,335.4427187323809L626.4353891457637,336.07810070053887L626.7878857708206,335.4427187323809L627.1403823958775,20.28921020018811L627.4928790209343,335.4427187323809L628.1978722710481,334.80731782812086L629.9603553963327,337.0311925888779L630.3128520213895,335.4427187323809L631.0178452715033,335.12502774830193L631.3703418965604,21.24230208852714L631.7228385216172,20.60688224816505L632.7803283967878,335.4427187323809L633.4853216469016,335.4427187323809L633.8378182719587,334.80731782812086L634.1903148970155,336.07810070053887L637.3627845225276,335.12502774830193L638.4202743976983,21.877684056685098L641.5927440232105,336.07810070053887L643.7077237735518,335.12502774830193L644.0602203986087,336.07810070053887L646.1752001489501,334.80731782812086L646.527696774007,334.80731782812086L646.880193399064,335.12502774830193L647.5851866491778,335.7604097164599L649.700166399519,335.12502774830193L651.8151461498605,338.6196664453749L652.1676427749175,334.80731782812086L654.9876157753725,334.80731782812086L655.3401124004296,335.4427187323809L656.3976022756002,335.4427187323809L657.455092150771,335.4427187323809L658.8650786509985,335.7604097164599L659.5700719011123,335.12502774830193L660.98005840134,335.12502774830193L663.0950381516814,335.4427187323809L664.505024651909,335.7604097164599L664.8575212769658,335.7604097164599L665.9150111521366,335.12502774830193L666.6200044022504,335.12502774830193L667.677494277421,334.80731782812086L669.0874807776487,336.07810070053887L669.7924740277625,336.07810070053887L670.4974672778764,335.12502774830193L670.8499639029332,335.4427187323809L671.2024605279902,335.4427187323809L673.6699369033884,334.80731782812086L674.3749301535022,336.07810070053887L674.7274267785591,335.4427187323809L676.8424065289005,336.39579168461785L677.1949031539574,334.80731782812086L677.5473997790143,335.7604097164599L678.2523930291281,336.07810070053887L678.957386279242,337.0311925888779L683.1873457799247,334.80731782812086L686.3598154054367,20.28921020018811L687.7698019056644,335.4427187323809L689.5322850309489,336.07810070053887L689.8847816560059,335.12502774830193L691.6472647812903,20.924592168346067L691.9997614063473,334.80731782812086L692.3522580314041,337.3488835729569L693.7622445316317,337.66657455703586L694.1147411566885,335.4427187323809L696.22972090703,335.4427187323809L697.6397074072577,334.80731782812086L697.9922040323145,335.12502774830193L698.3447006573714,336.39579168461785L699.0496939074852,334.80731782812086L699.4021905325421,335.7604097164599L701.1646736578267,335.12502774830193L702.2221635329973,335.7604097164599L702.9271567831112,336.7135016047989L703.9846466582818,336.07810070053887L705.0421365334525,334.80731782812086L706.0996264086233,335.4427187323809L706.804619658737,334.80731782812086L708.9195994090785,336.07810070053887L709.2720960341353,335.4427187323809L709.9770892842491,335.7604097164599L710.682082534363,335.7604097164599L713.8545521598751,335.12502774830193L714.207048784932,336.39579168461785L714.5595454099888,335.12502774830193L714.9120420350458,334.80731782812086L719.8469947858424,334.80731782812086L721.25698128607,336.07810070053887L722.6669677862976,334.80731782812086L723.0194644113544,334.80731782812086L724.0769542865252,335.4427187323809L724.4294509115821,336.7135016047989L725.4869407867527,337.98426554111484L726.1919340368665,335.12502774830193L726.8969272869804,335.4427187323809L728.6594104122648,334.80731782812086L729.7169002874356,335.4427187323809L730.4218935375494,337.0311925888779L730.7743901626063,335.4427187323809L731.47938341272,336.07810070053887L732.5368732878908,335.12502774830193L733.5943631630615,335.12502774830193L734.2993564131754,334.80731782812086L735.356846288346,335.4427187323809L736.4143361635167,20.924592168346067L736.7668327885737,335.4427187323809L737.8243226637443,335.4427187323809L738.881812538915,334.80731782812086L741.7017855393701,335.7604097164599L742.0542821644271,334.80731782812086L742.759275414541,334.80731782812086L744.5217585398254,335.12502774830193L746.2842416651099,335.12502774830193L746.6367382901668,20.924592168346067L746.9892349152237,335.4427187323809L747.6942281653374,334.80731782812086L748.0467247903945,334.80731782812086L748.7517180405083,335.4427187323809L749.4567112906221,335.4427187323809L750.5142011657928,20.60688224816505L750.8666977908496,335.4427187323809L752.2766842910772,336.07810070053887L754.0391674163618,335.4427187323809L754.7441606664755,334.80731782812086L756.8591404168169,336.39579168461785L757.2116370418739,336.39579168461785L757.5641336669307,335.7604097164599L757.9166302919876,335.7604097164599L758.2691269170446,20.28921020018811L759.3266167922152,335.4427187323809L760.031610042329,335.7604097164599L761.0890999174998,335.12502774830193L761.4415965425567,337.3488835729569L762.4990864177274,335.7604097164599L763.2040796678411,336.07810070053887L763.9090729179549,335.7604097164599L764.2615695430119,336.7135016047989L764.6140661680687,336.07810070053887L766.0240526682963,43.48093607948488L767.434039168524,337.98426554111484L767.7865357935808,334.80731782812086L768.1390324186377,337.3488835729569L769.5490189188654,334.80731782812086L769.9015155439222,335.7604097164599L770.606508794036,335.7604097164599L770.959005419093,335.4427187323809L771.6639986692069,335.12502774830193L772.0164952942637,335.12502774830193L772.3689919193205,32.36161908400595L773.0739851694343,335.12502774830193L773.4264817944913,335.4427187323809L774.131475044605,334.80731782812086L775.1889649197758,334.80731782812086L775.8939581698896,334.80731782812086L776.2464547949464,335.7604097164599L778.3614345452878,336.07810070053887L778.7139311703448,335.7604097164599L779.0664277954016,336.7135016047989L780.4764142956293,336.07810070053887L781.1814075457431,337.98426554111484L781.886400795857,334.80731782812086L783.2963872960845,335.12502774830193L785.7638636714828,335.4427187323809L786.8213535466534,336.07810070053887L787.5263467967673,335.12502774830193L788.2313400468811,335.4427187323809L788.583836671938,335.7604097164599L789.9938231721655,335.4427187323809L790.6988164222794,334.80731782812086L791.0513130473363,336.39579168461785L791.4038096723932,334.80731782812086L792.461299547564,336.7135016047989L792.8137961726208,334.80731782812086L793.8712860477915,334.80731782812086L794.2237826728484,335.4427187323809L795.281272548019,19.65382823203015L796.3387624231899,335.4427187323809L797.7487489234175,21.559974136504025L799.8637286737588,21.24230208852714L800.2162252988157,335.12502774830193L801.2737151739864,335.4427187323809L801.6262117990434,335.4427187323809L802.3312050491572,334.80731782812086L803.0361982992708,335.4427187323809L803.3886949243279,337.0311925888779L804.0936881744417,336.39579168461785L804.4461847994985,337.0311925888779L805.1511780496123,19.971500280007092L805.5036746746692,20.28921020018811L805.8561712997262,334.80731782812086L806.2086679247831,29.50234341898897L806.9136611748968,334.80731782812086L807.6186544250106,336.07810070053887L807.9711510500675,335.4427187323809L809.3811375502952,335.4427187323809L809.733634175352,23.148447993001014L810.4386274254658,336.39579168461785L811.4961173006365,21.877684056685098L812.2011105507503,337.3488835729569L813.258600425921,335.4427187323809L817.4885599266038,336.07810070053887L818.8985464268314,335.4427187323809L819.9560363020022,19.971500280007092L821.7185194272867,335.7604097164599L822.4235126774005,335.4427187323809L823.4810025525711,336.07810070053887L825.5959823029126,335.12502774830193L825.9484789279694,335.12502774830193L826.6534721780832,334.80731782812086L827.710962053254,337.0311925888779L828.7684519284247,336.39579168461785L829.1209485534815,336.7135016047989L829.4734451785384,336.39579168461785L832.6459148040506,335.4427187323809L832.9984114291076,335.7604097164599L833.3509080541644,336.39579168461785L833.7034046792212,335.4427187323809L834.408397929335,334.80731782812086L835.1133911794489,334.80731782812086L836.1708810546196,334.80731782812086L837.9333641799041,20.28921020018811L838.6383574300179,334.80731782812086L838.9908540550748,19.65382823203015L839.3433506801317,20.60688224816505L839.6958473051885,335.7604097164599L842.5158203056438,337.66657455703586L845.688289931156,336.39579168461785L847.4507730564404,334.80731782812086L850.2707460568956,335.4427187323809L850.6232426819524,334.80731782812086L851.6807325571233,335.7604097164599L853.0907190573508,335.4427187323809L854.1482089325215,336.07810070053887L855.5581954327491,19.971500280007092L856.6156853079198,335.12502774830193L857.6731751830906,335.4427187323809L858.0256718081474,335.12502774830193L858.3781684332043,335.12502774830193L859.0831616833182,334.80731782812086L861.9031346837734,335.4427187323809L862.6081279338871,336.7135016047989L863.3131211840009,336.07810070053887L864.0181144341148,334.80731782812086L865.7805975593992,335.4427187323809L867.5430806846838,336.07810070053887L870.363053685139,337.0311925888779L870.7155503101959,334.80731782812086L871.0680469352527,334.80731782812086L872.4780334354804,335.12502774830193L873.535523310651,336.07810070053887L874.5930131858219,334.80731782812086L877.412986186277,335.7604097164599L878.1179794363908,336.07810070053887L879.5279659366183,334.80731782812086L879.8804625616754,334.80731782812086L880.2329591867322,335.4427187323809L880.5854558117892,337.0311925888779L881.2904490619028,21.877684056685098L881.9954423120166,20.924592168346067L883.0529321871874,335.12502774830193L884.1104220623581,19.65382823203015L884.462918687415,335.12502774830193L885.1679119375289,336.07810070053887L885.8729051876426,336.39579168461785L888.340381563041,335.4427187323809L889.7503680632685,335.12502774830193L890.4553613133822,335.4427187323809L891.1603545634961,336.7135016047989L891.8653478136099,335.4427187323809L892.2178444386668,335.7604097164599L892.9228376887806,335.12502774830193L893.9803275639513,334.80731782812086L894.6853208140651,19.336118311849077L895.7428106892357,334.80731782812086L896.4478039393496,336.07810070053887L897.5052938145203,335.7604097164599L897.8577904395772,335.4427187323809L898.2102870646341,335.12502774830193L901.7352533152031,335.12502774830193L902.0877499402601,334.80731782812086L902.7927431903739,335.7604097164599L903.1452398154307,335.12502774830193L903.4977364404875,337.0311925888779L903.8502330655446,335.4427187323809L904.9077229407152,335.12502774830193L905.2602195657722,335.7604097164599L905.9652128158859,335.7604097164599L907.0227026910567,334.80731782812086L907.7276959411704,336.7135016047989L908.4326891912842,334.80731782812086L909.137682441398,334.80731782812086L912.3101520669102,335.4427187323809L912.662648691967,335.12502774830193L913.7201385671377,335.4427187323809L914.4251318172516,335.12502774830193L915.1301250673654,334.80731782812086L915.8351183174792,335.7604097164599L916.5401115675929,334.80731782812086L916.8926081926498,337.3488835729569L917.9500980678205,336.07810070053887L920.065077818162,334.80731782812086L920.4175744432189,334.80731782812086L921.8275609434464,335.7604097164599L922.8850508186172,21.559974136504025L923.9425406937878,334.80731782812086L924.6475339439016,335.4427187323809L925.0000305689586,335.12502774830193L926.4100170691861,336.39579168461785L927.8200035694138,336.7135016047989L928.8774934445845,336.07810070053887L929.2299900696414,336.7135016047989L929.5824866946982,336.07810070053887L929.9349833197552,335.7604097164599L930.9924731949259,335.7604097164599L932.4024596951534,334.80731782812086L933.1074529452673,334.80731782812086L934.5174394454949,335.12502774830193L934.8699360705517,334.80731782812086L935.5749293206655,334.80731782812086L935.9274259457226,335.4427187323809L937.689909071007,335.12502774830193L938.7473989461777,335.12502774830193L939.0998955712346,335.12502774830193L939.8048888213484,335.4427187323809L940.5098820714622,336.7135016047989L941.2148753215761,335.7604097164599L941.5673719466329,334.80731782812086L942.6248618218035,336.07810070053887L942.9773584468605,335.12502774830193L943.6823516969744,335.12502774830193L944.739841572145,336.39579168461785L945.0923381972019,335.4427187323809L945.7973314473157,335.12502774830193L947.9123111976571,336.07810070053887L948.9698010728279,336.7135016047989L950.0272909479985,335.4427187323809L950.3797875730555,334.80731782812086L951.789774073283,335.12502774830193L953.9047538236244,336.39579168461785L958.4872099493641,337.98426554111484L959.8971964495918,335.4427187323809L960.6021896997056,336.07810070053887L962.3646728249901,335.7604097164599L963.4221627001608,334.80731782812086L964.1271559502746,335.12502774830193L965.5371424505021,335.7604097164599L967.2996255757866,335.4427187323809L968.7096120760142,336.07810070053887L970.1195985762419,336.07810070053887L971.1770884514126,334.80731782812086L974.3495580769247,335.4427187323809L976.4645378272661,334.80731782812086L979.989504077835,335.12502774830193L980.342000702892,337.66657455703586L980.6944973279489,335.4427187323809L981.7519872031196,335.12502774830193L982.1044838281765,335.4427187323809L983.866966953461,335.4427187323809L984.5719602035748,335.4427187323809L985.9819467038024,335.4427187323809L986.3344433288593,334.80731782812086L986.6869399539162,335.4427187323809L987.0394365789731,335.4427187323809L987.39193320403,335.12502774830193L987.7444298290868,336.39579168461785L988.0969264541438,19.336118311849077L990.9168994545989,335.12502774830193L991.9743893297697,335.4427187323809L994.0893690801112,335.12502774830193L995.4993555803387,335.4427187323809L999.0243218309078,335.4427187323809L999.3768184559646,337.0311925888779L999.7293150810216,336.07810070053887L1002.1967914564198,335.7604097164599L1003.9592745817042,335.12502774830193L1005.0167644568751,336.39579168461785L1005.7217577069889,334.80731782812086L1006.0742543320457,335.12502774830193L1006.4267509571026,334.80731782812086L1006.7792475821595,334.80731782812086L1008.1892340823871,334.80731782812086L1011.0092070828424,335.12502774830193L1011.3617037078992,335.4427187323809L1012.41919358307,337.98426554111484L1013.1241868331837,335.4427187323809L1013.4766834582407,337.3488835729569L1014.1816767083544,334.80731782812086L1015.944159833639,336.39579168461785L1018.4116362090372,335.12502774830193L1019.116629459151,335.4427187323809L1020.1741193343219,334.80731782812086L1020.8791125844356,335.12502774830193L1022.64159570972,337.0311925888779L1023.6990855848908,334.80731782812086L1024.7565754600614,335.7604097164599L1027.9290450855735,336.7135016047989L1028.2815417106306,335.12502774830193L1029.3390315858012,334.80731782812086L1030.3965214609718,334.80731782812086L1031.1015147110857,335.7604097164599L1031.4540113361425,336.07810070053887L1033.568991086484,337.0311925888779L1034.6264809616546,336.07810070053887L1034.9789775867116,335.7604097164599L1035.6839708368254,335.12502774830193L1036.741460711996,22.513066024843056L1037.44645396211,335.12502774830193L1038.1514472122237,334.80731782812086L1039.2089370873944,335.12502774830193L1039.5614337124514,336.07810070053887L1039.9139303375082,335.4427187323809L1042.3814067129065,335.4427187323809L1044.143889838191,337.3488835729569L1044.8488830883048,20.28921020018811L1045.2013797133616,335.4427187323809L1045.5538763384186,335.12502774830193L1046.9638628386463,335.4427187323809L1047.316359463703,335.7604097164599L1049.0788425889875,20.60688224816505L1049.4313392140446,336.39579168461785L1050.8413257142722,335.12502774830193L1051.8988155894428,24.41924980152112L1052.2513122144996,335.12502774830193L1052.9563054646135,335.7604097164599L1055.4237818400118,336.39579168461785L1055.7762784650688,334.80731782812086L1057.5387615903533,335.12502774830193L1061.768721091036,336.39579168461785L1063.5312042163205,336.39579168461785L1064.2361974664343,19.65382823203015L1064.5886940914913,335.4427187323809L1065.646183966662,336.07810070053887L1065.9986805917188,336.39579168461785L1069.1711502172311,335.12502774830193L1071.2861299675724,336.39579168461785L1072.6961164678,19.336118311849077L1073.0486130928568,334.80731782812086" fill="none"></path></g></g></g></g></g></g><g transform="translate(39, 378)" clip-path="url(#clip_1)"><clipPath id="clip_1"><rect width="1089" height="21"></rect></clipPath><g><g><line x1="15.558737922154767" y1="0" x2="15.558737922154767" y2="5" style="visibility: inherit;" fill="rgb(0, 0, 0)" stroke="rgb(204, 204, 204)" stroke-width="1px"></line><line x1="86.05806293353491" y1="0" x2="86.05806293353491" y2="5" style="visibility: inherit;" fill="rgb(0, 0, 0)" stroke="rgb(204, 204, 204)" stroke-width="1px"></line><line x1="156.55738794491506" y1="0" x2="156.55738794491506" y2="5" style="visibility: inherit;" fill="rgb(0, 0, 0)" stroke="rgb(204, 204, 204)" stroke-width="1px"></line><line x1="227.0567129562952" y1="0" x2="227.0567129562952" y2="5" style="visibility: inherit;" fill="rgb(0, 0, 0)" stroke="rgb(204, 204, 204)" stroke-width="1px"></line><line x1="297.5560379676753" y1="0" x2="297.5560379676753" y2="5" style="visibility: inherit;" fill="rgb(0, 0, 0)" stroke="rgb(204, 204, 204)" stroke-width="1px"></line><line x1="368.0553629790555" y1="0" x2="368.0553629790555" y2="5" style="visibility: inherit;" fill="rgb(0, 0, 0)" stroke="rgb(204, 204, 204)" stroke-width="1px"></line><line x1="438.5546879904356" y1="0" x2="438.5546879904356" y2="5" style="visibility: inherit;" fill="rgb(0, 0, 0)" stroke="rgb(204, 204, 204)" stroke-width="1px"></line><line x1="509.05401300181575" y1="0" x2="509.05401300181575" y2="5" style="visibility: inherit;" fill="rgb(0, 0, 0)" stroke="rgb(204, 204, 204)" stroke-width="1px"></line><line x1="579.5533380131959" y1="0" x2="579.5533380131959" y2="5" style="visibility: inherit;" fill="rgb(0, 0, 0)" stroke="rgb(204, 204, 204)" stroke-width="1px"></line><line x1="650.0526630245761" y1="0" x2="650.0526630245761" y2="5" style="visibility: inherit;" fill="rgb(0, 0, 0)" stroke="rgb(204, 204, 204)" stroke-width="1px"></line><line x1="720.5519880359562" y1="0" x2="720.5519880359562" y2="5" style="visibility: inherit;" fill="rgb(0, 0, 0)" stroke="rgb(204, 204, 204)" stroke-width="1px"></line><line x1="791.0513130473363" y1="0" x2="791.0513130473363" y2="5" style="visibility: inherit;" fill="rgb(0, 0, 0)" stroke="rgb(204, 204, 204)" stroke-width="1px"></line><line x1="861.5506380587165" y1="0" x2="861.5506380587165" y2="5" style="visibility: inherit;" fill="rgb(0, 0, 0)" stroke="rgb(204, 204, 204)" stroke-width="1px"></line><line x1="932.0499630700966" y1="0" x2="932.0499630700966" y2="5" style="visibility: inherit;" fill="rgb(0, 0, 0)" stroke="rgb(204, 204, 204)" stroke-width="1px"></line><line x1="1002.5492880814768" y1="0" x2="1002.5492880814768" y2="5" style="visibility: inherit;" fill="rgb(0, 0, 0)" stroke="rgb(204, 204, 204)" stroke-width="1px"></line><line x1="1073.0486130928568" y1="0" x2="1073.0486130928568" y2="5" style="visibility: inherit;" fill="rgb(0, 0, 0)" stroke="rgb(204, 204, 204)" stroke-width="1px"></line></g><g transform="translate(0, 8)"><text style="text-anchor: middle; visibility: inherit; font-family: &quot;Helvetica Neue&quot;, sans-serif; font-size: 12px; font-weight: 200;" x="15.558737922154767" y="0" dx="0em" dy="0.95em" fill="rgb(50, 49, 63)" stroke="none" stroke-width="1px">0</text><text style="text-anchor: middle; visibility: inherit; font-family: &quot;Helvetica Neue&quot;, sans-serif; font-size: 12px; font-weight: 200;" x="86.05806293353491" y="0" dx="0em" dy="0.95em" fill="rgb(50, 49, 63)" stroke="none" stroke-width="1px">200</text><text style="text-anchor: middle; visibility: inherit; font-family: &quot;Helvetica Neue&quot;, sans-serif; font-size: 12px; font-weight: 200;" x="156.55738794491506" y="0" dx="0em" dy="0.95em" fill="rgb(50, 49, 63)" stroke="none" stroke-width="1px">400</text><text style="text-anchor: middle; visibility: inherit; font-family: &quot;Helvetica Neue&quot;, sans-serif; font-size: 12px; font-weight: 200;" x="227.0567129562952" y="0" dx="0em" dy="0.95em" fill="rgb(50, 49, 63)" stroke="none" stroke-width="1px">600</text><text style="text-anchor: middle; visibility: inherit; font-family: &quot;Helvetica Neue&quot;, sans-serif; font-size: 12px; font-weight: 200;" x="297.5560379676753" y="0" dx="0em" dy="0.95em" fill="rgb(50, 49, 63)" stroke="none" stroke-width="1px">800</text><text style="text-anchor: middle; visibility: inherit; font-family: &quot;Helvetica Neue&quot;, sans-serif; font-size: 12px; font-weight: 200;" x="368.0553629790555" y="0" dx="0em" dy="0.95em" fill="rgb(50, 49, 63)" stroke="none" stroke-width="1px">1k</text><text style="text-anchor: middle; visibility: inherit; font-family: &quot;Helvetica Neue&quot;, sans-serif; font-size: 12px; font-weight: 200;" x="438.5546879904356" y="0" dx="0em" dy="0.95em" fill="rgb(50, 49, 63)" stroke="none" stroke-width="1px">1.2k</text><text style="text-anchor: middle; visibility: inherit; font-family: &quot;Helvetica Neue&quot;, sans-serif; font-size: 12px; font-weight: 200;" x="509.05401300181575" y="0" dx="0em" dy="0.95em" fill="rgb(50, 49, 63)" stroke="none" stroke-width="1px">1.4k</text><text style="text-anchor: middle; visibility: inherit; font-family: &quot;Helvetica Neue&quot;, sans-serif; font-size: 12px; font-weight: 200;" x="579.5533380131959" y="0" dx="0em" dy="0.95em" fill="rgb(50, 49, 63)" stroke="none" stroke-width="1px">1.6k</text><text style="text-anchor: middle; visibility: inherit; font-family: &quot;Helvetica Neue&quot;, sans-serif; font-size: 12px; font-weight: 200;" x="650.0526630245761" y="0" dx="0em" dy="0.95em" fill="rgb(50, 49, 63)" stroke="none" stroke-width="1px">1.8k</text><text style="text-anchor: middle; visibility: inherit; font-family: &quot;Helvetica Neue&quot;, sans-serif; font-size: 12px; font-weight: 200;" x="720.5519880359562" y="0" dx="0em" dy="0.95em" fill="rgb(50, 49, 63)" stroke="none" stroke-width="1px">2k</text><text style="text-anchor: middle; visibility: inherit; font-family: &quot;Helvetica Neue&quot;, sans-serif; font-size: 12px; font-weight: 200;" x="791.0513130473363" y="0" dx="0em" dy="0.95em" fill="rgb(50, 49, 63)" stroke="none" stroke-width="1px">2.2k</text><text style="text-anchor: middle; visibility: inherit; font-family: &quot;Helvetica Neue&quot;, sans-serif; font-size: 12px; font-weight: 200;" x="861.5506380587165" y="0" dx="0em" dy="0.95em" fill="rgb(50, 49, 63)" stroke="none" stroke-width="1px">2.4k</text><text style="text-anchor: middle; visibility: inherit; font-family: &quot;Helvetica Neue&quot;, sans-serif; font-size: 12px; font-weight: 200;" x="932.0499630700966" y="0" dx="0em" dy="0.95em" fill="rgb(50, 49, 63)" stroke="none" stroke-width="1px">2.6k</text><text style="text-anchor: middle; visibility: inherit; font-family: &quot;Helvetica Neue&quot;, sans-serif; font-size: 12px; font-weight: 200;" x="1002.5492880814768" y="0" dx="0em" dy="0.95em" fill="rgb(50, 49, 63)" stroke="none" stroke-width="1px">2.8k</text><text style="text-anchor: middle; visibility: inherit; font-family: &quot;Helvetica Neue&quot;, sans-serif; font-size: 12px; font-weight: 200;" x="1073.0486130928568" y="0" dx="0em" dy="0.95em" fill="rgb(50, 49, 63)" stroke="none" stroke-width="1px">3k</text></g><line x1="0" y1="0" x2="1089.4119991302491" y2="0" fill="rgb(0, 0, 0)" stroke="rgb(204, 204, 204)" stroke-width="1px"></line></g></g></g></g></svg>