<svg viewBox="0 0 1112.5999755859375 400" xmlns="http://www.w3.org/2000/svg"><g><g><g><g><g><line x1="39.98800086975098" y1="368.2410888663729" x2="34.98800086975098" y2="368.2410888663729" style="visibility: inherit;" fill="rgb(0, 0, 0)" stroke="rgb(204, 204, 204)" stroke-width="1px"></line><line x1="39.98800086975098" y1="332.7862242822038" x2="34.98800086975098" y2="332.7862242822038" style="visibility: inherit;" fill="rgb(0, 0, 0)" stroke="rgb(204, 204, 204)" stroke-width="1px"></line><line x1="39.98800086975098" y1="297.3313596980348" x2="34.98800086975098" y2="297.3313596980348" style="visibility: inherit;" fill="rgb(0, 0, 0)" stroke="rgb(204, 204, 204)" stroke-width="1px"></line><line x1="39.98800086975098" y1="261.87649511386576" x2="34.98800086975098" y2="261.87649511386576" style="visibility: inherit;" fill="rgb(0, 0, 0)" stroke="rgb(204, 204, 204)" stroke-width="1px"></line><line x1="39.98800086975098" y1="226.42163052969673" x2="34.98800086975098" y2="226.42163052969673" style="visibility: inherit;" fill="rgb(0, 0, 0)" stroke="rgb(204, 204, 204)" stroke-width="1px"></line><line x1="39.98800086975098" y1="190.9667659455277" x2="34.98800086975098" y2="190.9667659455277" style="visibility: inherit;" fill="rgb(0, 0, 0)" stroke="rgb(204, 204, 204)" stroke-width="1px"></line><line x1="39.98800086975098" y1="155.51190136135867" x2="34.98800086975098" y2="155.51190136135867" style="visibility: inherit;" fill="rgb(0, 0, 0)" stroke="rgb(204, 204, 204)" stroke-width="1px"></line><line x1="39.98800086975098" y1="120.05703677718964" x2="34.98800086975098" y2="120.05703677718964" style="visibility: inherit;" fill="rgb(0, 0, 0)" stroke="rgb(204, 204, 204)" stroke-width="1px"></line><line x1="39.98800086975098" y1="84.60217219302058" x2="34.98800086975098" y2="84.60217219302058" style="visibility: inherit;" fill="rgb(0, 0, 0)" stroke="rgb(204, 204, 204)" stroke-width="1px"></line><line x1="39.98800086975098" y1="49.14730760885152" x2="34.98800086975098" y2="49.14730760885152" style="visibility: inherit;" fill="rgb(0, 0, 0)" stroke="rgb(204, 204, 204)" stroke-width="1px"></line><line x1="39.98800086975098" y1="13.692443024682461" x2="34.98800086975098" y2="13.692443024682461" style="visibility: inherit;" fill="rgb(0, 0, 0)" stroke="rgb(204, 204, 204)" stroke-width="1px"></line></g><g transform="translate(29.988000869750977, 0)"><text style="text-anchor: end; visibility: inherit; font-family: &quot;Helvetica Neue&quot;, sans-serif; font-size: 12px; font-weight: 200;" x="0" y="368.2410888663729" dx="0em" dy="0.3em" fill="rgb(50, 49, 63)" stroke="none" stroke-width="1px">0</text><text style="text-anchor: end; visibility: inherit; font-family: &quot;Helvetica Neue&quot;, sans-serif; font-size: 12px; font-weight: 200;" x="0" y="332.7862242822038" dx="0em" dy="0.3em" fill="rgb(50, 49, 63)" stroke="none" stroke-width="1px">50</text><text style="text-anchor: end; visibility: inherit; font-family: &quot;Helvetica Neue&quot;, sans-serif; font-size: 12px; font-weight: 200;" x="0" y="297.3313596980348" dx="0em" dy="0.3em" fill="rgb(50, 49, 63)" stroke="none" stroke-width="1px">100</text><text style="text-anchor: end; visibility: inherit; font-family: &quot;Helvetica Neue&quot;, sans-serif; font-size: 12px; font-weight: 200;" x="0" y="261.87649511386576" dx="0em" dy="0.3em" fill="rgb(50, 49, 63)" stroke="none" stroke-width="1px">150</text><text style="text-anchor: end; visibility: inherit; font-family: &quot;Helvetica Neue&quot;, sans-serif; font-size: 12px; font-weight: 200;" x="0" y="226.42163052969673" dx="0em" dy="0.3em" fill="rgb(50, 49, 63)" stroke="none" stroke-width="1px">200</text><text style="text-anchor: end; visibility: inherit; font-family: &quot;Helvetica Neue&quot;, sans-serif; font-size: 12px; font-weight: 200;" x="0" y="190.9667659455277" dx="0em" dy="0.3em" fill="rgb(50, 49, 63)" stroke="none" stroke-width="1px">250</text><text style="text-anchor: end; visibility: inherit; font-family: &quot;Helvetica Neue&quot;, sans-serif; font-size: 12px; font-weight: 200;" x="0" y="155.51190136135867" dx="0em" dy="0.3em" fill="rgb(50, 49, 63)" stroke="none" stroke-width="1px">300</text><text style="text-anchor: end; visibility: inherit; font-family: &quot;Helvetica Neue&quot;, sans-serif; font-size: 12px; font-weight: 200;" x="0" y="120.05703677718964" dx="0em" dy="0.3em" fill="rgb(50, 49, 63)" stroke="none" stroke-width="1px">350</text><text style="text-anchor: end; visibility: inherit; font-family: &quot;Helvetica Neue&quot;, sans-serif; font-size: 12px; font-weight: 200;" x="0" y="84.60217219302058" dx="0em" dy="0.3em" fill="rgb(50, 49, 63)" stroke="none" stroke-width="1px">400</text><text style="text-anchor: end; visibility: inherit; font-family: &quot;Helvetica Neue&quot;, sans-serif; font-size: 12px; font-weight: 200;" x="0" y="49.14730760885152" dx="0em" dy="0.3em" fill="rgb(50, 49, 63)" stroke="none" stroke-width="1px">450</text><text style="text-anchor: end; visibility: inherit; font-family: &quot;Helvetica Neue&quot;, sans-serif; font-size: 12px; font-weight: 200;" x="0" y="13.692443024682461" dx="0em" dy="0.3em" fill="rgb(50, 49, 63)" stroke="none" stroke-width="1px">500</text></g><line x1="39.98800086975098" y1="0" x2="39.98800086975098" y2="378.60799980163574" fill="rgb(0, 0, 0)" stroke="rgb(204, 204, 204)" stroke-width="1px"></line></g></g><g transform="translate(39, 0)" clip-path="url(#clip_0)"><clipPath id="clip_0"><rect width="1072" height="378"></rect></clipPath><g><g><g><line x1="14.440385251072572" y1="0" x2="14.440385251072572" y2="378.60799980163574" fill="rgb(0, 0, 0)" stroke="rgb(60, 60, 60)" stroke-width="1px" opacity="0.25"></line><line x1="118.76542158387899" y1="0" x2="118.76542158387899" y2="378.60799980163574" fill="rgb(0, 0, 0)" stroke="rgb(60, 60, 60)" stroke-width="1px" opacity="0.25"></line><line x1="223.09045791668538" y1="0" x2="223.09045791668538" y2="378.60799980163574" fill="rgb(0, 0, 0)" stroke="rgb(60, 60, 60)" stroke-width="1px" opacity="0.25"></line><line x1="327.4154942494918" y1="0" x2="327.4154942494918" y2="378.60799980163574" fill="rgb(0, 0, 0)" stroke="rgb(60, 60, 60)" stroke-width="1px" opacity="0.25"></line><line x1="431.7405305822982" y1="0" x2="431.7405305822982" y2="378.60799980163574" fill="rgb(0, 0, 0)" stroke="rgb(60, 60, 60)" stroke-width="1px" opacity="0.25"></line><line x1="536.0655669151046" y1="0" x2="536.0655669151046" y2="378.60799980163574" fill="rgb(0, 0, 0)" stroke="rgb(60, 60, 60)" stroke-width="1px" opacity="0.25"></line><line x1="640.390603247911" y1="0" x2="640.390603247911" y2="378.60799980163574" fill="rgb(0, 0, 0)" stroke="rgb(60, 60, 60)" stroke-width="1px" opacity="0.25"></line><line x1="744.7156395807175" y1="0" x2="744.7156395807175" y2="378.60799980163574" fill="rgb(0, 0, 0)" stroke="rgb(60, 60, 60)" stroke-width="1px" opacity="0.25"></line><line x1="849.0406759135238" y1="0" x2="849.0406759135238" y2="378.60799980163574" fill="rgb(0, 0, 0)" stroke="rgb(60, 60, 60)" stroke-width="1px" opacity="0.25"></line><line x1="953.3657122463302" y1="0" x2="953.3657122463302" y2="378.60799980163574" fill="rgb(0, 0, 0)" stroke="rgb(60, 60, 60)" stroke-width="1px" opacity="0.25"></line><line x1="1057.6907485791367" y1="0" x2="1057.6907485791367" y2="378.60799980163574" fill="rgb(0, 0, 0)" stroke="rgb(60, 60, 60)" stroke-width="1px" opacity="0.25"></line></g><g><line x1="0" y1="368.2410888663729" x2="1072.611999130249" y2="368.2410888663729" fill="rgb(0, 0, 0)" stroke="rgb(60, 60, 60)" stroke-width="1px" opacity="0.25"></line><line x1="0" y1="332.7862242822038" x2="1072.611999130249" y2="332.7862242822038" fill="rgb(0, 0, 0)" stroke="rgb(60, 60, 60)" stroke-width="1px" opacity="0.25"></line><line x1="0" y1="297.3313596980348" x2="1072.611999130249" y2="297.3313596980348" fill="rgb(0, 0, 0)" stroke="rgb(60, 60, 60)" stroke-width="1px" opacity="0.25"></line><line x1="0" y1="261.87649511386576" x2="1072.611999130249" y2="261.87649511386576" fill="rgb(0, 0, 0)" stroke="rgb(60, 60, 60)" stroke-width="1px" opacity="0.25"></line><line x1="0" y1="226.42163052969673" x2="1072.611999130249" y2="226.42163052969673" fill="rgb(0, 0, 0)" stroke="rgb(60, 60, 60)" stroke-width="1px" opacity="0.25"></line><line x1="0" y1="190.9667659455277" x2="1072.611999130249" y2="190.9667659455277" fill="rgb(0, 0, 0)" stroke="rgb(60, 60, 60)" stroke-width="1px" opacity="0.25"></line><line x1="0" y1="155.51190136135867" x2="1072.611999130249" y2="155.51190136135867" fill="rgb(0, 0, 0)" stroke="rgb(60, 60, 60)" stroke-width="1px" opacity="0.25"></line><line x1="0" y1="120.05703677718964" x2="1072.611999130249" y2="120.05703677718964" fill="rgb(0, 0, 0)" stroke="rgb(60, 60, 60)" stroke-width="1px" opacity="0.25"></line><line x1="0" y1="84.60217219302058" x2="1072.611999130249" y2="84.60217219302058" fill="rgb(0, 0, 0)" stroke="rgb(60, 60, 60)" stroke-width="1px" opacity="0.25"></line><line x1="0" y1="49.14730760885152" x2="1072.611999130249" y2="49.14730760885152" fill="rgb(0, 0, 0)" stroke="rgb(60, 60, 60)" stroke-width="1px" opacity="0.25"></line><line x1="0" y1="13.692443024682461" x2="1072.611999130249" y2="13.692443024682461" fill="rgb(0, 0, 0)" stroke="rgb(60, 60, 60)" stroke-width="1px" opacity="0.25"></line></g></g></g><g><g><line x1="0" y1="368.2410888663729" x2="1072.611999130249" y2="368.2410888663729" fill="rgb(0, 0, 0)" stroke="rgb(153, 153, 153)" stroke-width="1.5px"></line></g></g><g><g><line x1="14.440385251072572" y1="0" x2="14.440385251072572" y2="378.60799980163574" fill="rgb(0, 0, 0)" stroke="rgb(153, 153, 153)" stroke-width="1.5px"></line></g></g><g><g><g><g><g><path style="fill: none;" stroke="rgb(187, 187, 187)" stroke-width="2px" d="M17.570136341056763,350.51365657428835L18.091761522720795,352.6409484493385L20.17826224937692,359.02282407448894L20.699887431040956,359.7319213661723L21.74313779436902,353.35004574102186L22.26476297603305,340.586294490721L22.786388157697086,352.6409484493385L23.829638521025146,351.22275386597175L24.35126370268918,359.02282407448894L24.872888884353213,344.8408782408213L25.394514066017244,350.51365657428835L27.48101479267337,346.96817011587143L32.175641427649666,308.6769163649689L32.697266609313694,358.31372678280553L33.74051697264176,360.4410186578557L35.305392517633855,348.38636469923824L35.82701769929789,352.6409484493385L36.87026806262595,351.22275386597175L37.91351842595401,341.2953917824044L38.435143607618045,352.6409484493385L39.478393970946115,355.477337616072L40.52164433427417,349.0954619909216L41.043269515938206,345.5499755325047L42.6081450609303,352.6409484493385L43.12977024259434,356.1864349077554L43.65139542425837,350.51365657428835L44.173020605922396,346.2590728241881L44.69464578758643,357.6046294911222L46.25952133257852,349.0954619909216L46.781146514242565,359.7319213661723L47.82439687757063,332.7862242822038L48.867647240898684,338.4590026156709L49.38927242256272,346.96817011587143L49.91089760422675,354.05914303270526L50.43252278589078,349.0954619909216L51.99739833088288,346.96817011587143L52.51902351254691,342.71358636577116L53.040648694210944,360.4410186578557L53.56227387587497,330.6589324071537L54.60552423920304,351.22275386597175L56.17039978419513,339.87719719903765L58.7785256925153,314.34969469843594L59.30015087417933,294.4949705313013L59.82177605584336,310.0951109483357L60.34340123750739,332.7862242822038L60.86502641917142,354.05914303270526L61.38665160083546,344.8408782408213L63.99477750915562,344.1317809491379L68.16777896246788,354.76824032438867L69.73265450745997,343.42268365745457L70.254279689124,348.38636469923824L73.90565596077222,315.05879199011935L75.47053150576433,347.67726740755484L76.51378186909238,331.36802969883706L77.03540705075642,332.7862242822038L77.55703223242045,274.6402463641666L79.64353295907657,359.7319213661723L80.16515814074062,332.07712699052047L80.68678332240465,327.1134459487368L82.25165886739673,283.85851115605055L82.77328404906078,353.35004574102186L84.33815959405287,327.1134459487368L86.424660320709,268.2583707390162L87.46791068403707,357.6046294911222L88.51116104736512,321.4406676152698L89.03278622902916,323.5679594903199L89.55441141069318,339.87719719903765L90.07603659235723,340.586294490721L92.16253731901335,341.2953917824044L93.20578768234141,351.9318511576551L94.77066322733351,318.6042784485362L95.29228840899754,307.25872178160216L95.81391359066157,353.35004574102186L96.85716395398964,337.04080803230414L97.37878913565368,323.5679594903199L97.9004143173177,305.84052719823535L99.4652898623098,336.33171074062074L100.50854022563786,341.2953917824044L101.0301654073019,283.85851115605055L102.07341577062996,317.18608386516945L102.59504095229399,340.586294490721L104.15991649728609,331.36802969883706L106.76804240560625,325.69525136537004L107.28966758727029,337.7499053239875L107.81129276893431,352.6409484493385L108.85454313226236,329.24073782378696L109.37616831392641,302.2950407398185L110.41941867725447,322.1497649069531L111.46266904058254,358.31372678280553L111.98429422224658,339.87719719903765L112.5059194039106,339.16809990735425L113.02754458557463,322.1497649069531L114.0707949489027,323.5679594903199L114.59242013056672,337.7499053239875L118.24379640221494,359.7319213661723L120.33029712887108,303.00413803150184L122.41679785552721,323.5679594903199L122.93842303719124,332.7862242822038L123.46004821885528,335.6226134489374L125.54654894551139,283.85851115605055L127.1114244905035,346.96817011587143L128.6763000354956,343.42268365745457L129.19792521715962,345.5499755325047L130.76280076215173,312.9315001150692L131.28442594381576,273.93114907248327L132.32767630714383,346.96817011587143L132.84930148880784,295.91316511466806L133.37092667047187,339.87719719903765L134.41417703379994,341.2953917824044L134.93580221546398,308.6769163649689L135.97905257879202,304.42233261486865L136.50067776045606,324.2770567820033L137.02230294212012,276.7675382392168L138.5871784871122,317.89518115685286L140.1520540321043,334.913516157254L142.76017994042448,312.9315001150692L143.80343030375252,271.0947599057497L144.8466806670806,313.6405974067526L145.3683058487446,267.54927344733284L147.97643175706477,338.4590026156709L149.54130730205688,300.1677488647683L150.0629324837209,342.0044890740878L150.58455766538492,320.73157032358637L151.10618284704896,300.1677488647683L152.14943321037705,342.0044890740878L154.23593393703317,286.69490032278406L155.2791843003612,272.51295448911645L156.3224346636893,357.6046294911222L157.36568502701735,298.0404569897182L159.9738109353375,305.84052719823535L161.0170612986656,278.8948301142669L163.1035620253217,310.804208240019L165.71168793364185,284.56760844773396L166.75493829696995,236.34899261326407L167.27656347863396,291.6585813645678L168.84143902362607,339.87719719903765L169.8846893869541,299.4586515730849L170.40631456861814,327.8225432404202L170.9279397502822,284.56760844773396L171.97119011361025,291.6585813645678L172.49281529527428,320.022473031903L173.01444047693832,271.0947599057497L175.10094120359443,316.4769865734861L175.6225663852585,310.0951109483357L176.66581674858654,301.5859434481351L178.23069229357864,306.54962448991876L180.31719302023478,289.53128948951763L180.83881820189882,322.85886219863653L181.36044338356285,125.72981511065666L181.88206856522686,278.18573282258353L182.92531892855493,309.38601365665227L184.490194473547,295.91316511466806L185.01181965521104,287.40399761446747L185.5334448368751,327.1134459487368L187.09832038186718,208.6941982376122L187.61994556353122,303.71323532318524L188.66319592685926,276.05844094753337L191.79294701684347,297.3313596980348L192.83619738017154,300.87684615645173L194.40107292516362,171.11204177839303L194.92269810682768,283.85851115605055L195.96594847015572,201.6032253207784L196.48757365181976,292.36767865625114L199.0956995601399,293.7858732396179L199.61732474180397,264.0037869889159L200.66057510513204,215.785171154446L201.70382546846008,217.91246302949617L202.22545065012412,215.785171154446L202.74707583178815,231.3853115714804L204.31195137678023,306.54962448991876L204.8335765584443,246.2763546968314L206.39845210343637,209.40329552929558L206.9200772851004,98.07502073500484L207.96332764842845,130.69349615244033L208.48495283009248,177.49391740354346L209.52820319342058,346.96817011587143L211.6147039200767,137.07537177759073L212.13632910174073,191.67586323721108L212.65795428340476,344.1317809491379L213.7012046467328,168.27565261165952L214.22282982839687,262.58559240554916L215.78770537338895,266.84017615564943L216.30933055505298,101.6205071934217L216.83095573671702,191.67586323721108L217.35258091838105,264.0037869889159L218.3958312817091,265.4219815722827L218.91745646337313,256.9128140720821L219.4390816450372,304.42233261486865L219.96070682670123,226.42163052969673L224.65533346167751,212.9487819877125L225.17695864334152,258.33100865544884L226.2202090066696,274.6402463641666L227.78508455166167,199.47593344572826L231.43646082330991,149.8391230278916L231.95808600497395,96.65682615163803L234.0445867316301,152.6755121946251L234.5662119132941,203.02141990414515L235.08783709495813,244.14906282178126L236.1310874582862,289.53128948951763L237.17433782161424,279.6039274059503L239.26083854827039,162.60287427819244L243.9554651832467,155.51190136135867L244.4770903649107,193.8031551122612L244.99871554657474,208.6941982376122L245.52034072823878,39.219945525284174L246.56359109156682,185.29398761206065L247.08521627323086,180.33030657027697L248.650091818223,164.0210688615592L250.21496736321507,251.9491330302984L253.86634363486328,256.9128140720821L254.38796881652732,298.0404569897182L254.90959399819135,130.69349615244033L255.4312191798554,281.73121928100045L256.47446954318343,88.85675594312085L256.99609472484747,85.31126948470398L257.5177199065115,73.96571281776988L258.5609702698396,200.18503073741164L259.0825954515036,93.11133969322117L259.60422063316764,112.25696656867245L260.6474709964957,164.0210688615592L261.6907213598238,151.25731761125834L262.2123465414878,81.76578302628707L264.2988472681439,159.76648511145893L267.95022353979215,249.8218411552483L269.5150990847842,67.58383719261946L270.0367242664483,112.9660638603558L271.07997462977636,153.3846094863085L272.1232249931044,211.53058740434574L273.68810053809653,13.692443024682461L279.42597753640086,212.23968469602912L280.99085308139297,59.78376698410227L281.51247826305695,201.6032253207784L282.03410344472104,122.89342594392315L283.0773538080491,239.89447907168096L284.1206041713771,170.40294448670963L284.6422293530412,142.7481501110578L285.6854797163693,137.78446906927414L288.2936056246894,144.16634469442457L288.81523080635344,193.09405782057783L291.9449818963376,205.1487117791953L292.98823225966566,178.2030146952268L293.5098574413297,305.131429906552L294.0314826229938,145.58453927779132L294.55310780465777,13.692443024682461L295.07473298632186,13.692443024682461L295.59635816798584,155.51190136135867L296.1179833496499,80.34758844292031L296.6396085313139,78.92939385955356L297.16123371297795,206.56690636256207L297.682858894642,162.60287427819244L298.72610925797,132.1116907358071L300.29098480296216,200.18503073741164L300.8126099846262,254.78552219703198L301.33423516629017,261.1673978221824L302.37748552961824,207.27600365424544L304.46398625627444,13.692443024682461L305.5072366196025,183.16669573701049L306.5504869829305,90.984047818171L308.63698770958666,205.1487117791953L309.1586128912507,216.4942684461294L309.68023807291473,239.89447907168096L310.72348843624275,13.692443024682461L311.7667387995708,18.656124066466134L312.8099891628989,137.78446906927414L313.853239526227,13.692443024682461L314.374864707891,147.00273386115808L315.9397402528831,199.47593344572826L316.98299061621117,178.2030146952268L317.5046157978752,78.92939385955356L318.02624097953924,149.13002573620824L318.5478661612033,13.692443024682461L319.0694913428673,122.18432865223974L319.59111652453134,290.9494840728844L320.6343668878594,129.27530156907355L321.1559920695234,293.0767759479345L323.76411797784357,79.6384911512369L324.28574315950766,13.692443024682461L325.3289935228357,269.67656532238294L325.8506187044997,149.13002573620824L326.37224388616374,250.53093844693169L327.9371194311558,13.692443024682461L328.9803697944839,13.692443024682461L330.023620157812,32.838069900133746L331.06687052114006,20.07431864983289L332.1101208844681,142.0390528193744L333.15337124779614,157.63919323640877L333.67499642946024,197.34864157067813L334.1966216111242,183.8757930286939L335.7614971561163,145.58453927779132L337.84799788277246,235.6398953215807L338.3696230644365,186.7121821954274L339.41287342776457,251.24003573861506L339.93449860942854,168.27565261165952L340.9777489727566,182.45759844532714L343.0642496994128,237.76718719663083L345.67237560773293,217.2033657378128L349.3237518793811,190.9667659455277L349.8453770610452,153.3846094863085L350.8886274243733,231.3853115714804L351.41025260603726,148.42092844452483L351.9318777877013,181.74850115364373L352.4535029693654,225.71253323801335L352.97512815102937,59.074669692418865L353.49675333269346,13.692443024682461L354.5400036960215,13.692443024682461L355.0616288776855,13.692443024682461L357.14812960434165,92.40224240153776L357.6697547860057,73.96571281776988L358.7130051493337,115.09335573540596L359.75625551266177,78.22029656787015L361.3211310576539,181.74850115364373L362.36438142098194,88.1476586514375L362.88600660264603,22.20161052488305L363.40763178431,116.51155031877272L364.9725073293021,13.692443024682461L365.49413251096615,61.91105885915238L366.0157576926302,30.001680733400235L366.53738287429417,13.692443024682461L367.05900805595826,13.692443024682461L368.10225841928633,44.89272385875125L368.62388360095036,33.54716719181715L369.14550878261434,13.692443024682461L370.1887591459424,141.32995552769103L370.71038432760645,13.692443024682461L371.2320095092705,51.27459948390168L371.7536346909345,13.692443024682461L372.2752598725986,13.692443024682461L372.7968850542626,13.692443024682461L373.84013541759066,129.27530156907355L374.3617605992547,141.32995552769103L375.92663614424674,110.8387719853057L378.01313687090294,103.03870177678846L379.578012415895,132.82078802749047L380.0996375975591,178.91211198691022L380.62126277922306,169.69384719502628L381.6645131425512,154.80280406967526L382.18613832421516,133.52988531917384L382.7077635058792,13.692443024682461L383.22938868754323,39.219945525284174L384.2726390508713,144.16634469442457L384.79426423253534,121.47523136055639L385.3158894141993,155.51190136135867L387.4023901408555,13.692443024682461L389.48889086751166,154.09370677799188L390.01051604917564,13.692443024682461L391.05376641250376,58.36557240073546L391.57539159416774,13.692443024682461L392.09701677583183,15.819734899732623L392.6186419574958,13.692443024682461L393.14026713915985,13.692443024682461L393.6618923208239,13.692443024682461L395.226767865816,13.692443024682461L395.74839304748,13.692443024682461L398.87814413746423,13.692443024682461L399.92139450079225,13.692443024682461L400.44301968245634,13.692443024682461L400.9646448641203,13.692443024682461L401.4862700457844,13.692443024682461L402.5295204091124,13.692443024682461L404.0943959541045,13.692443024682461L404.61602113576856,13.692443024682461L406.18089668076067,13.692443024682461L406.7025218624247,13.692443024682461L407.22414704408874,13.692443024682461L408.2673974074168,13.692443024682461L409.3106477707448,13.692443024682461L410.875523315737,254.78552219703198L411.39714849740096,13.692443024682461L412.44039886072903,13.692443024682461L414.00527440572114,13.692443024682461L414.5268995873851,13.692443024682461L415.0485247690492,213.65787927939587L416.0917751323773,13.692443024682461L416.6134003140413,32.1289726084504L417.1350254957053,13.692443024682461L418.17827585903336,57.65647510905211L418.69990104069745,13.692443024682461L419.22152622236143,13.692443024682461L421.8296521306816,13.692443024682461L423.9161528573377,13.692443024682461L424.4377780390018,107.29328552688878L425.48102840232985,118.63884219382288L426.52427876565787,59.074669692418865L427.56752912898594,13.692443024682461L428.08915431065003,13.692443024682461L428.610779492314,281.73121928100045L429.13240467397804,61.20196156746903L429.65402985564214,13.692443024682461L430.1756550373061,13.692443024682461L431.2189054006342,110.8387719853057L432.26215576396226,13.692443024682461L433.30540612729027,147.00273386115808L434.87028167228243,13.692443024682461L435.91353203561044,13.692443024682461L436.43515721727454,13.692443024682461L436.9567823989385,13.692443024682461L439.0432831255947,13.692443024682461L440.0865334889228,13.692443024682461L440.60815867058676,13.692443024682461L441.65140903391483,13.692443024682461L443.21628457890694,13.692443024682461L444.259534942235,154.80280406967526L444.78116012389904,13.692443024682461L445.302785305563,13.692443024682461L446.8676608505552,13.692443024682461L448.43253639554723,13.692443024682461L448.95416157721127,27.87438885835013L449.99741194053934,13.692443024682461L451.0406623038674,13.692443024682461L452.0839126671955,13.692443024682461L454.69203857551565,13.692443024682461L455.73528893884367,13.692443024682461L456.25691412050776,13.692443024682461L456.77853930217174,13.692443024682461L457.30016448383583,13.692443024682461L458.86504002882793,13.692443024682461L461.9947911188121,13.692443024682461L463.03804148214016,13.692443024682461L463.5596666638042,116.51155031877272L464.08129184546823,13.692443024682461L464.60291702713226,13.692443024682461L465.12454220879624,13.692443024682461L467.2110429354524,13.692443024682461L468.2542932987805,76.09300469281999L468.7759184804445,134.9480799025406L470.3407940254366,15.110637608049274L470.86241920710063,13.692443024682461L471.38404438876466,13.692443024682461L471.90566957042864,13.692443024682461L472.42729475209273,13.692443024682461L473.4705451154208,13.692443024682461L473.99217029708484,13.692443024682461L474.5137954787488,13.692443024682461L475.0354206604129,13.692443024682461L476.078671023741,13.692443024682461L477.64354656873303,13.692443024682461L478.68679693206116,13.692443024682461L479.20842211372513,13.692443024682461L480.2516724770532,13.692443024682461L480.77329765871724,13.692443024682461L482.3381732037093,13.692443024682461L482.8597983853734,13.692443024682461L483.9030487487014,144.87544198610792L484.4246739303655,35.674459066867314L488.07605020201373,13.692443024682461L488.5976753836777,13.692443024682461L489.11930056534175,13.692443024682461L489.6409257470058,13.692443024682461L490.1625509286698,13.692443024682461L490.68417611033385,13.692443024682461L491.2058012919979,13.692443024682461L492.24905165532596,209.40329552929558L492.77067683699,13.692443024682461L493.292302018654,13.692443024682461L494.85717756364613,13.692443024682461L495.3788027453101,13.692443024682461L495.90042792697415,13.692443024682461L496.4220531086382,13.692443024682461L497.4653034719663,13.692443024682461L500.59505456195046,13.692443024682461L501.11667974361444,13.692443024682461L501.63830492527853,13.692443024682461L502.6815552886066,13.692443024682461L504.7680560152627,13.692443024682461L506.3329315602548,13.692443024682461L507.89780710524695,13.692443024682461L509.98430783190304,13.692443024682461L511.5491833768951,57.65647510905211L512.0708085585592,13.692443024682461L512.5924337402232,13.692443024682461L513.6356841035513,13.692443024682461L514.1573092852153,13.692443024682461L514.6789344668794,13.692443024682461L516.2438100118715,13.692443024682461L516.7654351935355,13.692443024682461L517.8086855568636,13.692443024682461L518.8519359201916,13.692443024682461L519.3735611018556,13.692443024682461L520.4168114651836,13.692443024682461L521.4600618285118,13.692443024682461L521.9816870101757,299.4586515730849L523.0249373735038,13.692443024682461L524.0681877368319,81.76578302628707L524.5898129184959,168.98474990334287L525.11143810016,171.11204177839303L525.633063281824,159.05738781977553L527.1979388268161,13.692443024682461L527.7195640084801,13.692443024682461L528.2411891901442,91.69314510985441L529.8060647351363,13.692443024682461L530.3276899168003,13.692443024682461L534.5006913701125,13.692443024682461L536.0655669151046,13.692443024682461L536.5871920967686,13.692443024682461L537.6304424600967,13.692443024682461L538.6736928234247,13.692443024682461L539.1953180050888,13.692443024682461L540.7601935500809,13.692443024682461L541.2818187317448,13.692443024682461L542.325069095073,13.692443024682461L542.8466942767369,13.692443024682461L543.3683194584011,212.9487819877125L543.8899446400651,13.692443024682461L545.4548201850572,122.18432865223974L549.6278216383694,36.38355635855066L550.1494468200334,13.692443024682461L550.6710720016976,13.692443024682461L551.7143223650255,13.692443024682461L552.7575727283537,13.692443024682461L553.2791979100176,13.692443024682461L553.8008230916817,13.692443024682461L554.8440734550097,127.85710698570679L555.8873238183378,13.692443024682461L556.4089490000018,120.05703677718964L556.9305741816659,39.92904281696758L558.495449726658,65.4565453175693L559.017074908322,110.12967469362229L559.538700089986,121.47523136055639L562.1468259983062,13.692443024682461L563.1900763616343,13.692443024682461L563.7117015432982,13.692443024682461L564.7549519066264,13.692443024682461L565.2765770882903,13.692443024682461L566.3198274516185,13.692443024682461L569.4495785416026,13.692443024682461L569.9712037232667,13.692443024682461L571.0144540865947,13.692443024682461L572.0577044499228,13.692443024682461L574.1442051765789,13.692443024682461L575.1874555399071,13.692443024682461L576.230705903235,13.692443024682461L577.2739562665631,13.692443024682461L578.3172066298912,13.692443024682461L579.3604569932193,13.692443024682461L579.8820821748833,13.692443024682461L580.4037073565472,56.238280525685354L580.9253325382114,13.692443024682461L581.4469577198754,13.692443024682461L583.5334584465315,13.692443024682461L584.5767088098595,13.692443024682461L585.0983339915236,13.692443024682461L588.2280850815077,13.692443024682461L589.2713354448358,13.692443024682461L590.314585808164,13.692443024682461L590.8362109898279,13.692443024682461L591.357836171492,13.692443024682461L594.4875872614762,272.51295448911645L596.0524628064683,13.692443024682461L597.0957131697963,13.692443024682461L598.6605887147884,13.692443024682461L600.2254642597806,13.692443024682461L600.7470894414446,13.692443024682461L601.7903398047727,13.692443024682461L602.3119649864367,13.692443024682461L602.8335901681006,13.692443024682461L603.3552153497646,13.692443024682461L604.3984657130927,13.692443024682461L604.9200908947568,13.692443024682461L605.9633412580849,13.692443024682461L606.4849664397489,13.692443024682461L607.0065916214129,13.692443024682461L608.571467166405,13.692443024682461L609.0930923480691,13.692443024682461L610.1363427113971,13.692443024682461L614.3093441647094,13.692443024682461L614.8309693463734,13.692443024682461L615.3525945280375,13.692443024682461L615.8742197097015,13.692443024682461L617.4390952546936,13.692443024682461L617.9607204363576,13.692443024682461L618.4823456180216,13.692443024682461L620.0472211630137,13.692443024682461L620.5688463446778,13.692443024682461L621.0904715263418,13.692443024682461L622.655347071334,13.692443024682461L628.9148492513023,13.692443024682461L630.4797247962944,13.692443024682461L631.5229751596224,13.692443024682461L632.0446003412865,13.692443024682461L633.0878507046145,13.692443024682461L633.6094758862786,13.692443024682461L635.1743514312707,13.692443024682461L636.7392269762628,13.692443024682461L637.2608521579267,13.692443024682461L637.7824773395909,13.692443024682461L638.3041025212549,13.692443024682461L638.8257277029188,13.692443024682461L639.347352884583,13.692443024682461L639.868978066247,13.692443024682461L640.390603247911,13.692443024682461L641.4338536112391,13.692443024682461L642.4771039745671,13.692443024682461L642.9987291562312,13.692443024682461L644.0419795195592,13.692443024682461L645.0852298828873,13.692443024682461L646.1284802462153,13.692443024682461L646.6501054278793,13.692443024682461L647.1717306095435,13.692443024682461L647.6933557912074,13.692443024682461L648.2149809728714,13.692443024682461L648.7366061545356,13.692443024682461L650.8231068811916,13.692443024682461L653.4312327895118,13.692443024682461L653.9528579711758,13.692443024682461L654.9961083345039,13.692443024682461L655.5177335161679,13.692443024682461L657.604234242824,13.692443024682461L658.1258594244881,13.692443024682461L658.6474846061521,13.692443024682461L659.6907349694801,13.692443024682461L661.2556105144722,13.692443024682461L662.8204860594643,13.692443024682461L663.8637364227925,13.692443024682461L664.9069867861205,13.692443024682461L665.4286119677845,13.692443024682461L666.4718623311126,13.692443024682461L666.9934875127766,13.692443024682461L668.5583630577687,13.692443024682461L669.0799882394327,13.692443024682461L669.6016134210968,13.692443024682461L670.6448637844248,13.692443024682461L671.1664889660889,13.692443024682461L671.6881141477529,13.692443024682461L672.731364511081,13.692443024682461L673.252989692745,13.692443024682461L673.774614874409,13.692443024682461L674.2962400560731,13.692443024682461L674.817865237737,13.692443024682461L675.3394904194012,13.692443024682461L677.9476163277213,13.692443024682461L678.4692415093853,13.692443024682461L679.5124918727134,13.692443024682461L681.5989925993695,13.692443024682461L682.1206177810335,13.692443024682461L683.1638681443617,13.692443024682461L685.2503688710177,13.692443024682461L686.2936192343459,13.692443024682461L687.3368695976739,13.692443024682461L688.380119961002,13.692443024682461L688.901745142666,13.692443024682461L689.42337032433,13.692443024682461L689.944995505994,13.692443024682461L690.9882458693221,13.692443024682461L692.5531214143142,13.692443024682461L693.0747465959782,13.692443024682461L694.1179969593063,13.692443024682461L694.6396221409703,13.692443024682461L695.1612473226344,13.692443024682461L696.2044976859625,13.692443024682461L698.2909984126186,13.692443024682461L699.3342487759465,13.692443024682461L699.8558739576107,13.692443024682461L700.8991243209387,13.692443024682461L701.4207495026028,13.692443024682461L702.9856250475948,13.692443024682461L703.507250229259,13.692443024682461L706.115376137579,13.692443024682461L706.637001319243,13.692443024682461L707.1586265009072,13.692443024682461L707.6802516825711,13.692443024682461L708.7235020458992,13.692443024682461L709.7667524092273,13.692443024682461L710.2883775908913,13.692443024682461L710.8100027725552,13.692443024682461L711.3316279542194,13.692443024682461L711.8532531358834,13.692443024682461L712.3748783175474,13.692443024682461L713.9397538625395,13.692443024682461L715.5046294075316,13.692443024682461L716.5478797708597,13.692443024682461L717.5911301341877,13.692443024682461L718.1127553158517,13.692443024682461L718.6343804975158,13.692443024682461L719.1560056791799,13.692443024682461L719.6776308608438,13.692443024682461L721.7641315875,13.692443024682461L723.8506323141561,13.692443024682461L724.8938826774842,13.692443024682461L725.4155078591482,13.692443024682461L726.9803834041403,13.692443024682461L727.5020085858043,13.692443024682461L728.0236337674684,13.692443024682461L729.5885093124606,13.692443024682461L731.1533848574526,13.692443024682461L731.6750100391166,13.692443024682461L732.1966352207806,13.692443024682461L733.2398855841086,13.692443024682461L733.7615107657728,13.692443024682461L734.2831359474368,13.692443024682461L735.8480114924289,13.692443024682461L736.8912618557569,13.692443024682461L737.412887037421,13.692443024682461L737.934512219085,13.692443024682461L738.456137400749,13.692443024682461L738.977762582413,13.692443024682461L739.4993877640771,13.692443024682461L740.5426381274051,13.692443024682461L741.0642633090692,13.692443024682461L742.6291388540612,13.692443024682461L745.2372647623814,13.692443024682461L751.4967669423498,13.692443024682461L752.0183921240138,13.692443024682461L752.5400173056779,13.692443024682461L753.0616424873419,13.692443024682461L755.1481432139981,13.692443024682461L756.7130187589902,13.692443024682461L757.2346439406541,13.692443024682461L758.2778943039823,13.692443024682461L758.7995194856462,13.692443024682461L759.3211446673103,13.692443024682461L759.8427698489744,13.692443024682461L760.8860202123024,13.692443024682461L761.9292705756305,13.692443024682461L762.4508957572945,13.692443024682461L762.9725209389585,13.692443024682461L764.0157713022866,13.692443024682461L764.5373964839506,13.692443024682461L765.0590216656146,13.692443024682461L766.1022720289427,13.692443024682461L767.1455223922708,13.692443024682461L770.275273482255,13.692443024682461L771.3185238455831,13.692443024682461L773.9266497539032,13.692443024682461L774.4482749355672,13.692443024682461L776.5347756622233,13.692443024682461L779.1429015705436,13.692443024682461L779.6645267522075,13.692443024682461L781.7510274788636,13.692443024682461L783.8375282055198,13.692443024682461L785.4024037505119,13.692443024682461L786.967279295504,13.692443024682461L787.488904477168,13.692443024682461L788.010529658832,13.692443024682461L789.5754052038242,13.692443024682461L790.0970303854882,13.692443024682461L791.6619059304802,13.692443024682461L792.7051562938084,13.692443024682461L793.2267814754723,13.692443024682461L793.7484066571365,13.692443024682461L797.3997829287846,13.692443024682461L797.9214081104487,13.692443024682461L798.4430332921127,13.692443024682461L798.9646584737767,13.692443024682461L800.0079088371048,13.692443024682461L800.5295340187688,13.692443024682461L801.0511592004328,13.692443024682461L801.572784382097,13.692443024682461L802.0944095637609,13.692443024682461L802.6160347454249,13.692443024682461L803.1376599270891,13.692443024682461L803.659285108753,13.692443024682461L804.180910290417,13.692443024682461L805.7457858354092,13.692443024682461L806.7890361987371,13.692443024682461L809.3971621070574,13.692443024682461L809.9187872887214,13.692443024682461L810.4404124703854,13.692443024682461L811.4836628337135,13.692443024682461L815.1350391053618,13.692443024682461L816.1782894686897,13.692443024682461L818.7864153770099,13.692443024682461L819.308040558674,13.692443024682461L821.3945412853301,13.692443024682461L822.4377916486582,13.692443024682461L822.9594168303222,13.692443024682461L824.0026671936503,13.692443024682461L824.5242923753143,13.692443024682461L825.5675427386424,13.692443024682461L826.0891679203064,13.692443024682461L829.2189190102905,13.692443024682461L829.7405441919547,13.692443024682461L830.2621693736187,13.692443024682461L832.8702952819388,13.692443024682461L833.3919204636029,13.692443024682461L838.0865470985791,13.692443024682461L838.6081722802431,13.692443024682461L840.1730478252352,13.692443024682461L840.6946730068993,13.692443024682461L841.2162981885633,13.692443024682461L842.2595485518914,13.692443024682461L843.3027989152195,13.692443024682461L844.3460492785475,13.692443024682461L845.9109248235396,13.692443024682461L846.4325500052037,13.692443024682461L847.4758003685317,13.692443024682461L847.9974255501957,13.692443024682461L849.0406759135238,13.692443024682461L850.0839262768518,13.692443024682461L850.605551458516,13.692443024682461L851.6488018218439,13.692443024682461L852.170427003508,13.692443024682461L854.2569277301642,13.692443024682461L854.7785529118282,13.692443024682461L855.8218032751563,13.692443024682461L856.3434284568203,13.692443024682461L856.8650536384843,13.692443024682461L857.3866788201483,13.692443024682461L858.4299291834764,13.692443024682461L858.9515543651404,13.692443024682461L859.4731795468044,13.692443024682461L859.9948047284685,13.692443024682461L862.0813054551246,13.692443024682461L863.1245558184527,13.692443024682461L863.6461810001167,13.692443024682461L864.1678061817807,13.692443024682461L865.2110565451087,13.692443024682461L866.2543069084369,13.692443024682461L867.297557271765,13.692443024682461L868.340807635093,13.692443024682461L868.862432816757,13.692443024682461L869.3840579984211,13.692443024682461L870.427308361749,13.692443024682461L870.9489335434132,13.692443024682461L871.4705587250772,13.692443024682461L871.9921839067412,13.692443024682461L872.5138090884052,13.692443024682461L873.0354342700693,13.692443024682461L874.0786846333973,13.692443024682461L874.6003098150613,13.692443024682461L876.1651853600534,13.692443024682461L876.6868105417176,13.692443024682461L877.7300609050455,13.692443024682461L878.2516860867096,13.692443024682461L879.8165616317017,13.692443024682461L880.3381868133658,13.692443024682461L880.8598119950298,13.692443024682461L881.3814371766938,13.692443024682461L881.9030623583578,13.692443024682461L882.9463127216859,13.692443024682461L885.032813448342,13.692443024682461L886.0760638116701,13.692443024682461L886.5976889933341,13.692443024682461L887.1193141749982,13.692443024682461L888.6841897199903,13.692443024682461L889.2058149016542,13.692443024682461L890.2490652649824,13.692443024682461L892.3355659916385,13.692443024682461L892.8571911733025,13.692443024682461L893.3788163549665,13.692443024682461L893.9004415366306,13.692443024682461L894.9436918999586,13.692443024682461L897.0301926266147,13.692443024682461L897.5518178082789,13.692443024682461L898.5950681716068,13.692443024682461L899.116693353271,13.692443024682461L899.6383185349349,13.692443024682461L900.159943716599,13.692443024682461L901.203194079927,13.692443024682461L902.7680696249191,13.692443024682461L903.2896948065832,13.692443024682461L903.8113199882472,13.692443024682461L904.3329451699112,13.692443024682461L904.8545703515753,13.692443024682461L906.4194458965673,13.692443024682461L906.9410710782314,13.692443024682461L909.0275718048875,13.692443024682461L909.5491969865516,13.692443024682461L910.5924473498796,13.692443024682461L911.1140725315437,13.692443024682461L911.6356977132076,13.692443024682461L913.7221984398637,13.692443024682461L915.2870739848559,13.692443024682461L916.330324348184,13.692443024682461L917.895199893176,13.692443024682461L918.4168250748401,13.692443024682461L918.9384502565041,13.692443024682461L919.4600754381681,13.692443024682461L919.9817006198322,13.692443024682461L921.0249509831602,13.692443024682461L921.5465761648243,13.692443024682461L922.0682013464883,13.692443024682461L923.6330768914804,13.692443024682461L924.1547020731444,13.692443024682461L925.1979524364724,13.692443024682461L925.7195776181366,13.692443024682461L926.2412027998006,13.692443024682461L927.8060783447927,13.692443024682461L928.8493287081207,13.692443024682461L929.3709538897848,13.692443024682461L929.8925790714488,13.692443024682461L930.4142042531128,13.692443024682461L934.065580524761,13.692443024682461L934.587205706425,13.692443024682461L936.1520812514171,13.692443024682461L938.7602071597374,13.692443024682461L940.8467078863935,13.692443024682461L941.8899582497215,13.692443024682461L942.9332086130496,13.692443024682461L943.9764589763777,13.692443024682461L944.4980841580417,13.692443024682461L945.0197093397057,13.692443024682461L945.5413345213698,13.692443024682461L947.6278352480258,13.692443024682461L948.14946042969,13.692443024682461L948.671085611354,13.692443024682461L949.714335974682,13.692443024682461L950.2359611563461,13.692443024682461L950.7575863380101,13.692443024682461L952.8440870646662,13.692443024682461L953.8873374279943,13.692443024682461L954.9305877913223,13.692443024682461L955.9738381546505,13.692443024682461L956.4954633363144,13.692443024682461L957.5387136996426,13.692443024682461L959.6252144262986,13.692443024682461L960.6684647896267,13.692443024682461L961.1900899712906,13.692443024682461L962.7549655162828,13.692443024682461L964.3198410612749,13.692443024682461L966.406341787931,13.692443024682461L967.4495921512591,13.692443024682461L967.9712173329232,13.692443024682461L969.5360928779153,13.692443024682461L971.6225936045713,13.692443024682461L972.1442187862353,13.692443024682461L972.6658439678995,13.692443024682461L973.1874691495634,13.692443024682461L974.7523446945556,13.692443024682461L975.2739698762196,13.692443024682461L975.7955950578836,13.692443024682461L976.8388454212117,13.692443024682461L977.3604706028757,13.692443024682461L977.8820957845397,13.692443024682461L978.9253461478678,13.692443024682461L979.4469713295318,13.692443024682461L981.0118468745239,13.692443024682461L981.533472056188,13.692443024682461L982.576722419516,13.692443024682461L983.619972782844,13.692443024682461L984.1415979645082,13.692443024682461L984.6632231461722,13.692443024682461L988.3145994178204,13.692443024682461L988.8362245994844,13.692443024682461L989.3578497811484,13.692443024682461L989.8794749628125,13.692443024682461L993.0092260527966,13.692443024682461L993.5308512344608,13.692443024682461L994.0524764161247,13.692443024682461L994.5741015977887,13.692443024682461L995.0957267794528,13.692443024682461L996.1389771427808,13.692443024682461L997.703852687773,13.692443024682461L999.268728232765,13.692443024682461L1001.3552289594212,13.692443024682461L1001.8768541410852,13.692443024682461L1002.3984793227492,13.692443024682461L1002.9201045044133,13.692443024682461L1003.4417296860773,13.692443024682461L1004.4849800494053,13.692443024682461L1005.0066052310694,13.692443024682461L1007.0931059577256,13.692443024682461L1008.6579815027177,13.692443024682461L1009.1796066843816,13.692443024682461L1010.7444822293738,13.692443024682461L1011.2661074110378,13.692443024682461L1011.7877325927018,13.692443024682461L1012.3093577743659,13.692443024682461L1012.8309829560299,13.692443024682461L1013.8742333193579,13.692443024682461L1014.395858501022,13.692443024682461L1014.917483682686,13.692443024682461L1015.43910886435,13.692443024682461L1015.9607340460142,13.692443024682461L1018.0472347726702,13.692443024682461L1018.5688599543342,13.692443024682461L1019.0904851359983,13.692443024682461L1020.6553606809904,13.692443024682461L1021.6986110443185,13.692443024682461L1022.2202362259825,13.692443024682461L1022.7418614076465,13.692443024682461L1023.7851117709746,13.692443024682461L1024.3067369526386,13.692443024682461L1024.8283621343026,13.692443024682461L1025.8716124976306,13.692443024682461L1026.3932376792948,13.692443024682461L1027.9581132242868,13.692443024682461L1029.0013635876148,13.692443024682461L1030.044613950943,13.692443024682461L1030.566239132607,13.692443024682461L1031.609489495935,13.692443024682461L1033.1743650409271,13.692443024682461L1034.2176154042552,13.692443024682461L1034.7392405859193,13.692443024682461L1035.2608657675833,13.692443024682461L1036.3041161309113,13.692443024682461L1037.3473664942394,13.692443024682461L1037.8689916759035,13.692443024682461L1038.3906168575675,13.692443024682461L1040.4771175842236,13.692443024682461L1040.9987427658875,13.692443024682461L1042.0419931292156,13.692443024682461L1043.0852434925437,13.692443024682461L1045.693369400864,13.692443024682461L1047.77987012752,13.692443024682461L1048.301495309184,13.692443024682461L1048.823120490848,13.692443024682461L1049.344745672512,13.692443024682461L1055.6042478524805,13.692443024682461L1056.6474982158086,13.692443024682461L1057.6907485791367,13.692443024682461" fill="none"></path></g></g></g></g></g></g><g transform="translate(39, 378)" clip-path="url(#clip_1)"><clipPath id="clip_1"><rect width="1072" height="21"></rect></clipPath><g><g><line x1="14.440385251072572" y1="0" x2="14.440385251072572" y2="5" style="visibility: inherit;" fill="rgb(0, 0, 0)" stroke="rgb(204, 204, 204)" stroke-width="1px"></line><line x1="118.76542158387899" y1="0" x2="118.76542158387899" y2="5" style="visibility: inherit;" fill="rgb(0, 0, 0)" stroke="rgb(204, 204, 204)" stroke-width="1px"></line><line x1="223.09045791668538" y1="0" x2="223.09045791668538" y2="5" style="visibility: inherit;" fill="rgb(0, 0, 0)" stroke="rgb(204, 204, 204)" stroke-width="1px"></line><line x1="327.4154942494918" y1="0" x2="327.4154942494918" y2="5" style="visibility: inherit;" fill="rgb(0, 0, 0)" stroke="rgb(204, 204, 204)" stroke-width="1px"></line><line x1="431.7405305822982" y1="0" x2="431.7405305822982" y2="5" style="visibility: inherit;" fill="rgb(0, 0, 0)" stroke="rgb(204, 204, 204)" stroke-width="1px"></line><line x1="536.0655669151046" y1="0" x2="536.0655669151046" y2="5" style="visibility: inherit;" fill="rgb(0, 0, 0)" stroke="rgb(204, 204, 204)" stroke-width="1px"></line><line x1="640.390603247911" y1="0" x2="640.390603247911" y2="5" style="visibility: inherit;" fill="rgb(0, 0, 0)" stroke="rgb(204, 204, 204)" stroke-width="1px"></line><line x1="744.7156395807175" y1="0" x2="744.7156395807175" y2="5" style="visibility: inherit;" fill="rgb(0, 0, 0)" stroke="rgb(204, 204, 204)" stroke-width="1px"></line><line x1="849.0406759135238" y1="0" x2="849.0406759135238" y2="5" style="visibility: inherit;" fill="rgb(0, 0, 0)" stroke="rgb(204, 204, 204)" stroke-width="1px"></line><line x1="953.3657122463302" y1="0" x2="953.3657122463302" y2="5" style="visibility: inherit;" fill="rgb(0, 0, 0)" stroke="rgb(204, 204, 204)" stroke-width="1px"></line><line x1="1057.6907485791367" y1="0" x2="1057.6907485791367" y2="5" style="visibility: inherit;" fill="rgb(0, 0, 0)" stroke="rgb(204, 204, 204)" stroke-width="1px"></line></g><g transform="translate(0, 8)"><text style="text-anchor: middle; visibility: inherit; font-family: &quot;Helvetica Neue&quot;, sans-serif; font-size: 12px; font-weight: 200;" x="14.440385251072572" y="0" dx="0em" dy="0.95em" fill="rgb(50, 49, 63)" stroke="none" stroke-width="1px">0</text><text style="text-anchor: middle; visibility: inherit; font-family: &quot;Helvetica Neue&quot;, sans-serif; font-size: 12px; font-weight: 200;" x="118.76542158387899" y="0" dx="0em" dy="0.95em" fill="rgb(50, 49, 63)" stroke="none" stroke-width="1px">200</text><text style="text-anchor: middle; visibility: inherit; font-family: &quot;Helvetica Neue&quot;, sans-serif; font-size: 12px; font-weight: 200;" x="223.09045791668538" y="0" dx="0em" dy="0.95em" fill="rgb(50, 49, 63)" stroke="none" stroke-width="1px">400</text><text style="text-anchor: middle; visibility: inherit; font-family: &quot;Helvetica Neue&quot;, sans-serif; font-size: 12px; font-weight: 200;" x="327.4154942494918" y="0" dx="0em" dy="0.95em" fill="rgb(50, 49, 63)" stroke="none" stroke-width="1px">600</text><text style="text-anchor: middle; visibility: inherit; font-family: &quot;Helvetica Neue&quot;, sans-serif; font-size: 12px; font-weight: 200;" x="431.7405305822982" y="0" dx="0em" dy="0.95em" fill="rgb(50, 49, 63)" stroke="none" stroke-width="1px">800</text><text style="text-anchor: middle; visibility: inherit; font-family: &quot;Helvetica Neue&quot;, sans-serif; font-size: 12px; font-weight: 200;" x="536.0655669151046" y="0" dx="0em" dy="0.95em" fill="rgb(50, 49, 63)" stroke="none" stroke-width="1px">1k</text><text style="text-anchor: middle; visibility: inherit; font-family: &quot;Helvetica Neue&quot;, sans-serif; font-size: 12px; font-weight: 200;" x="640.390603247911" y="0" dx="0em" dy="0.95em" fill="rgb(50, 49, 63)" stroke="none" stroke-width="1px">1.2k</text><text style="text-anchor: middle; visibility: inherit; font-family: &quot;Helvetica Neue&quot;, sans-serif; font-size: 12px; font-weight: 200;" x="744.7156395807175" y="0" dx="0em" dy="0.95em" fill="rgb(50, 49, 63)" stroke="none" stroke-width="1px">1.4k</text><text style="text-anchor: middle; visibility: inherit; font-family: &quot;Helvetica Neue&quot;, sans-serif; font-size: 12px; font-weight: 200;" x="849.0406759135238" y="0" dx="0em" dy="0.95em" fill="rgb(50, 49, 63)" stroke="none" stroke-width="1px">1.6k</text><text style="text-anchor: middle; visibility: inherit; font-family: &quot;Helvetica Neue&quot;, sans-serif; font-size: 12px; font-weight: 200;" x="953.3657122463302" y="0" dx="0em" dy="0.95em" fill="rgb(50, 49, 63)" stroke="none" stroke-width="1px">1.8k</text><text style="text-anchor: middle; visibility: inherit; font-family: &quot;Helvetica Neue&quot;, sans-serif; font-size: 12px; font-weight: 200;" x="1057.6907485791367" y="0" dx="0em" dy="0.95em" fill="rgb(50, 49, 63)" stroke="none" stroke-width="1px">2k</text></g><line x1="0" y1="0" x2="1072.611999130249" y2="0" fill="rgb(0, 0, 0)" stroke="rgb(204, 204, 204)" stroke-width="1px"></line></g></g></g></g></svg>