<svg viewBox="0 0 1112.5999755859375 400" xmlns="http://www.w3.org/2000/svg"><g><g><g><g><g><line x1="39.98800086975098" y1="368.2410888663729" x2="34.98800086975098" y2="368.2410888663729" style="visibility: inherit;" fill="rgb(0, 0, 0)" stroke="rgb(204, 204, 204)" stroke-width="1px"></line><line x1="39.98800086975098" y1="332.7862242822038" x2="34.98800086975098" y2="332.7862242822038" style="visibility: inherit;" fill="rgb(0, 0, 0)" stroke="rgb(204, 204, 204)" stroke-width="1px"></line><line x1="39.98800086975098" y1="297.3313596980348" x2="34.98800086975098" y2="297.3313596980348" style="visibility: inherit;" fill="rgb(0, 0, 0)" stroke="rgb(204, 204, 204)" stroke-width="1px"></line><line x1="39.98800086975098" y1="261.87649511386576" x2="34.98800086975098" y2="261.87649511386576" style="visibility: inherit;" fill="rgb(0, 0, 0)" stroke="rgb(204, 204, 204)" stroke-width="1px"></line><line x1="39.98800086975098" y1="226.42163052969673" x2="34.98800086975098" y2="226.42163052969673" style="visibility: inherit;" fill="rgb(0, 0, 0)" stroke="rgb(204, 204, 204)" stroke-width="1px"></line><line x1="39.98800086975098" y1="190.9667659455277" x2="34.98800086975098" y2="190.9667659455277" style="visibility: inherit;" fill="rgb(0, 0, 0)" stroke="rgb(204, 204, 204)" stroke-width="1px"></line><line x1="39.98800086975098" y1="155.51190136135867" x2="34.98800086975098" y2="155.51190136135867" style="visibility: inherit;" fill="rgb(0, 0, 0)" stroke="rgb(204, 204, 204)" stroke-width="1px"></line><line x1="39.98800086975098" y1="120.05703677718964" x2="34.98800086975098" y2="120.05703677718964" style="visibility: inherit;" fill="rgb(0, 0, 0)" stroke="rgb(204, 204, 204)" stroke-width="1px"></line><line x1="39.98800086975098" y1="84.60217219302058" x2="34.98800086975098" y2="84.60217219302058" style="visibility: inherit;" fill="rgb(0, 0, 0)" stroke="rgb(204, 204, 204)" stroke-width="1px"></line><line x1="39.98800086975098" y1="49.14730760885152" x2="34.98800086975098" y2="49.14730760885152" style="visibility: inherit;" fill="rgb(0, 0, 0)" stroke="rgb(204, 204, 204)" stroke-width="1px"></line><line x1="39.98800086975098" y1="13.692443024682461" x2="34.98800086975098" y2="13.692443024682461" style="visibility: inherit;" fill="rgb(0, 0, 0)" stroke="rgb(204, 204, 204)" stroke-width="1px"></line></g><g transform="translate(29.988000869750977, 0)"><text style="text-anchor: end; visibility: inherit; font-family: &quot;Helvetica Neue&quot;, sans-serif; font-size: 12px; font-weight: 200;" x="0" y="368.2410888663729" dx="0em" dy="0.3em" fill="rgb(50, 49, 63)" stroke="none" stroke-width="1px">0</text><text style="text-anchor: end; visibility: inherit; font-family: &quot;Helvetica Neue&quot;, sans-serif; font-size: 12px; font-weight: 200;" x="0" y="332.7862242822038" dx="0em" dy="0.3em" fill="rgb(50, 49, 63)" stroke="none" stroke-width="1px">50</text><text style="text-anchor: end; visibility: inherit; font-family: &quot;Helvetica Neue&quot;, sans-serif; font-size: 12px; font-weight: 200;" x="0" y="297.3313596980348" dx="0em" dy="0.3em" fill="rgb(50, 49, 63)" stroke="none" stroke-width="1px">100</text><text style="text-anchor: end; visibility: inherit; font-family: &quot;Helvetica Neue&quot;, sans-serif; font-size: 12px; font-weight: 200;" x="0" y="261.87649511386576" dx="0em" dy="0.3em" fill="rgb(50, 49, 63)" stroke="none" stroke-width="1px">150</text><text style="text-anchor: end; visibility: inherit; font-family: &quot;Helvetica Neue&quot;, sans-serif; font-size: 12px; font-weight: 200;" x="0" y="226.42163052969673" dx="0em" dy="0.3em" fill="rgb(50, 49, 63)" stroke="none" stroke-width="1px">200</text><text style="text-anchor: end; visibility: inherit; font-family: &quot;Helvetica Neue&quot;, sans-serif; font-size: 12px; font-weight: 200;" x="0" y="190.9667659455277" dx="0em" dy="0.3em" fill="rgb(50, 49, 63)" stroke="none" stroke-width="1px">250</text><text style="text-anchor: end; visibility: inherit; font-family: &quot;Helvetica Neue&quot;, sans-serif; font-size: 12px; font-weight: 200;" x="0" y="155.51190136135867" dx="0em" dy="0.3em" fill="rgb(50, 49, 63)" stroke="none" stroke-width="1px">300</text><text style="text-anchor: end; visibility: inherit; font-family: &quot;Helvetica Neue&quot;, sans-serif; font-size: 12px; font-weight: 200;" x="0" y="120.05703677718964" dx="0em" dy="0.3em" fill="rgb(50, 49, 63)" stroke="none" stroke-width="1px">350</text><text style="text-anchor: end; visibility: inherit; font-family: &quot;Helvetica Neue&quot;, sans-serif; font-size: 12px; font-weight: 200;" x="0" y="84.60217219302058" dx="0em" dy="0.3em" fill="rgb(50, 49, 63)" stroke="none" stroke-width="1px">400</text><text style="text-anchor: end; visibility: inherit; font-family: &quot;Helvetica Neue&quot;, sans-serif; font-size: 12px; font-weight: 200;" x="0" y="49.14730760885152" dx="0em" dy="0.3em" fill="rgb(50, 49, 63)" stroke="none" stroke-width="1px">450</text><text style="text-anchor: end; visibility: inherit; font-family: &quot;Helvetica Neue&quot;, sans-serif; font-size: 12px; font-weight: 200;" x="0" y="13.692443024682461" dx="0em" dy="0.3em" fill="rgb(50, 49, 63)" stroke="none" stroke-width="1px">500</text></g><line x1="39.98800086975098" y1="0" x2="39.98800086975098" y2="378.60799980163574" fill="rgb(0, 0, 0)" stroke="rgb(204, 204, 204)" stroke-width="1px"></line></g></g><g transform="translate(39, 0)" clip-path="url(#clip_0)"><clipPath id="clip_0"><rect width="1072" height="378"></rect></clipPath><g><g><g><line x1="14.440385251072572" y1="0" x2="14.440385251072572" y2="378.60799980163574" fill="rgb(0, 0, 0)" stroke="rgb(60, 60, 60)" stroke-width="1px" opacity="0.25"></line><line x1="118.76542158387899" y1="0" x2="118.76542158387899" y2="378.60799980163574" fill="rgb(0, 0, 0)" stroke="rgb(60, 60, 60)" stroke-width="1px" opacity="0.25"></line><line x1="223.09045791668538" y1="0" x2="223.09045791668538" y2="378.60799980163574" fill="rgb(0, 0, 0)" stroke="rgb(60, 60, 60)" stroke-width="1px" opacity="0.25"></line><line x1="327.4154942494918" y1="0" x2="327.4154942494918" y2="378.60799980163574" fill="rgb(0, 0, 0)" stroke="rgb(60, 60, 60)" stroke-width="1px" opacity="0.25"></line><line x1="431.7405305822982" y1="0" x2="431.7405305822982" y2="378.60799980163574" fill="rgb(0, 0, 0)" stroke="rgb(60, 60, 60)" stroke-width="1px" opacity="0.25"></line><line x1="536.0655669151046" y1="0" x2="536.0655669151046" y2="378.60799980163574" fill="rgb(0, 0, 0)" stroke="rgb(60, 60, 60)" stroke-width="1px" opacity="0.25"></line><line x1="640.390603247911" y1="0" x2="640.390603247911" y2="378.60799980163574" fill="rgb(0, 0, 0)" stroke="rgb(60, 60, 60)" stroke-width="1px" opacity="0.25"></line><line x1="744.7156395807175" y1="0" x2="744.7156395807175" y2="378.60799980163574" fill="rgb(0, 0, 0)" stroke="rgb(60, 60, 60)" stroke-width="1px" opacity="0.25"></line><line x1="849.0406759135238" y1="0" x2="849.0406759135238" y2="378.60799980163574" fill="rgb(0, 0, 0)" stroke="rgb(60, 60, 60)" stroke-width="1px" opacity="0.25"></line><line x1="953.3657122463302" y1="0" x2="953.3657122463302" y2="378.60799980163574" fill="rgb(0, 0, 0)" stroke="rgb(60, 60, 60)" stroke-width="1px" opacity="0.25"></line><line x1="1057.6907485791367" y1="0" x2="1057.6907485791367" y2="378.60799980163574" fill="rgb(0, 0, 0)" stroke="rgb(60, 60, 60)" stroke-width="1px" opacity="0.25"></line></g><g><line x1="0" y1="368.2410888663729" x2="1072.611999130249" y2="368.2410888663729" fill="rgb(0, 0, 0)" stroke="rgb(60, 60, 60)" stroke-width="1px" opacity="0.25"></line><line x1="0" y1="332.7862242822038" x2="1072.611999130249" y2="332.7862242822038" fill="rgb(0, 0, 0)" stroke="rgb(60, 60, 60)" stroke-width="1px" opacity="0.25"></line><line x1="0" y1="297.3313596980348" x2="1072.611999130249" y2="297.3313596980348" fill="rgb(0, 0, 0)" stroke="rgb(60, 60, 60)" stroke-width="1px" opacity="0.25"></line><line x1="0" y1="261.87649511386576" x2="1072.611999130249" y2="261.87649511386576" fill="rgb(0, 0, 0)" stroke="rgb(60, 60, 60)" stroke-width="1px" opacity="0.25"></line><line x1="0" y1="226.42163052969673" x2="1072.611999130249" y2="226.42163052969673" fill="rgb(0, 0, 0)" stroke="rgb(60, 60, 60)" stroke-width="1px" opacity="0.25"></line><line x1="0" y1="190.9667659455277" x2="1072.611999130249" y2="190.9667659455277" fill="rgb(0, 0, 0)" stroke="rgb(60, 60, 60)" stroke-width="1px" opacity="0.25"></line><line x1="0" y1="155.51190136135867" x2="1072.611999130249" y2="155.51190136135867" fill="rgb(0, 0, 0)" stroke="rgb(60, 60, 60)" stroke-width="1px" opacity="0.25"></line><line x1="0" y1="120.05703677718964" x2="1072.611999130249" y2="120.05703677718964" fill="rgb(0, 0, 0)" stroke="rgb(60, 60, 60)" stroke-width="1px" opacity="0.25"></line><line x1="0" y1="84.60217219302058" x2="1072.611999130249" y2="84.60217219302058" fill="rgb(0, 0, 0)" stroke="rgb(60, 60, 60)" stroke-width="1px" opacity="0.25"></line><line x1="0" y1="49.14730760885152" x2="1072.611999130249" y2="49.14730760885152" fill="rgb(0, 0, 0)" stroke="rgb(60, 60, 60)" stroke-width="1px" opacity="0.25"></line><line x1="0" y1="13.692443024682461" x2="1072.611999130249" y2="13.692443024682461" fill="rgb(0, 0, 0)" stroke="rgb(60, 60, 60)" stroke-width="1px" opacity="0.25"></line></g></g></g><g><g><line x1="0" y1="368.2410888663729" x2="1072.611999130249" y2="368.2410888663729" fill="rgb(0, 0, 0)" stroke="rgb(153, 153, 153)" stroke-width="1.5px"></line></g></g><g><g><line x1="14.440385251072572" y1="0" x2="14.440385251072572" y2="378.60799980163574" fill="rgb(0, 0, 0)" stroke="rgb(153, 153, 153)" stroke-width="1.5px"></line></g></g><g><g><g><g><g><path style="fill: none;" stroke="rgb(51, 187, 238)" stroke-width="2px" d="M17.570136341056763,359.7319213661723L18.091761522720795,358.31372678280553L20.17826224937692,354.05914303270526L20.699887431040956,345.5499755325047L21.74313779436902,361.85921324122245L22.26476297603305,361.1501159495391L22.786388157697086,360.4410186578557L23.829638521025146,360.4410186578557L24.35126370268918,350.51365657428835L24.872888884353213,354.05914303270526L25.394514066017244,361.1501159495391L27.48101479267337,355.477337616072L32.175641427649666,359.7319213661723L32.697266609313694,357.6046294911222L33.74051697264176,342.71358636577116L35.305392517633855,324.98615407368663L35.82701769929789,354.76824032438867L36.87026806262595,339.16809990735425L37.91351842595401,359.7319213661723L38.435143607618045,356.1864349077554L39.478393970946115,356.8955321994388L40.52164433427417,333.4953215738872L41.043269515938206,358.31372678280553L42.6081450609303,346.2590728241881L43.12977024259434,350.51365657428835L43.65139542425837,357.6046294911222L44.173020605922396,357.6046294911222L44.69464578758643,353.35004574102186L46.25952133257852,349.0954619909216L46.781146514242565,354.76824032438867L47.82439687757063,351.22275386597175L48.867647240898684,359.7319213661723L49.38927242256272,348.38636469923824L49.91089760422675,351.22275386597175L50.43252278589078,342.71358636577116L51.99739833088288,340.586294490721L52.51902351254691,354.05914303270526L53.040648694210944,359.02282407448894L53.56227387587497,347.67726740755484L54.60552423920304,356.8955321994388L56.17039978419513,341.2953917824044L58.7785256925153,350.51365657428835L59.30015087417933,328.53164053210355L59.82177605584336,351.9318511576551L60.34340123750739,346.2590728241881L60.86502641917142,352.6409484493385L61.38665160083546,351.22275386597175L63.99477750915562,344.8408782408213L68.16777896246788,358.31372678280553L69.73265450745997,354.05914303270526L70.254279689124,332.07712699052047L73.90565596077222,345.5499755325047L75.47053150576433,334.913516157254L76.51378186909238,346.96817011587143L77.03540705075642,339.16809990735425L77.55703223242045,351.9318511576551L79.64353295907657,356.8955321994388L80.16515814074062,333.4953215738872L80.68678332240465,355.477337616072L82.25165886739673,339.87719719903765L82.77328404906078,331.36802969883706L84.33815959405287,316.4769865734861L86.424660320709,334.913516157254L87.46791068403707,338.4590026156709L88.51116104736512,351.9318511576551L89.03278622902916,351.22275386597175L89.55441141069318,340.586294490721L90.07603659235723,344.8408782408213L92.16253731901335,346.2590728241881L93.20578768234141,344.1317809491379L94.77066322733351,290.240386781201L95.29228840899754,334.913516157254L95.81391359066157,306.54962448991876L96.85716395398964,337.7499053239875L97.37878913565368,311.51330553170243L97.9004143173177,349.804559282605L99.4652898623098,346.2590728241881L100.50854022563786,324.2770567820033L101.0301654073019,312.2224028233858L102.07341577062996,338.4590026156709L102.59504095229399,350.51365657428835L104.15991649728609,298.7495542814016L106.76804240560625,346.96817011587143L107.28966758727029,295.20406782298465L107.81129276893431,354.05914303270526L108.85454313226236,339.16809990735425L109.37616831392641,288.8221921978342L110.41941867725447,296.6222624063514L111.46266904058254,232.80350615484716L111.98429422224658,341.2953917824044L112.5059194039106,309.38601365665227L113.02754458557463,315.05879199011935L114.0707949489027,233.51260344653053L114.59242013056672,300.87684615645173L118.24379640221494,336.33171074062074L120.33029712887108,109.42057740193889L122.41679785552721,212.9487819877125L122.93842303719124,307.25872178160216L123.46004821885528,262.58559240554916L125.54654894551139,271.0947599057497L127.1114244905035,110.12967469362229L128.6763000354956,273.93114907248327L129.19792521715962,212.9487819877125L130.76280076215173,246.98545198851477L131.28442594381576,175.3666255284933L132.32767630714383,243.43996553009788L132.84930148880784,266.84017615564943L133.37092667047187,152.6755121946251L134.41417703379994,273.22205178079986L134.93580221546398,96.65682615163803L135.97905257879202,289.53128948951763L136.50067776045606,277.4766355309001L137.02230294212012,253.36732761366517L138.5871784871122,240.60357636336434L140.1520540321043,240.60357636336434L142.76017994042448,274.6402463641666L143.80343030375252,244.85816011346463L144.8466806670806,268.2583707390162L145.3683058487446,236.34899261326407L147.97643175706477,207.27600365424544L149.54130730205688,250.53093844693169L150.0629324837209,252.65823032198182L150.58455766538492,242.02177094673112L151.10618284704896,273.93114907248327L152.14943321037705,246.98545198851477L154.23593393703317,265.4219815722827L155.2791843003612,198.76683615404488L156.3224346636893,242.7308682384145L157.36568502701735,253.36732761366517L159.9738109353375,228.54892240474686L161.0170612986656,256.9128140720821L163.1035620253217,259.04010594713225L165.71168793364185,237.05808990494745L166.75493829696995,159.76648511145893L167.27656347863396,157.63919323640877L168.84143902362607,196.63954427899472L169.8846893869541,218.62156032117954L170.40631456861814,142.7481501110578L170.9279397502822,154.09370677799188L171.97119011361025,168.98474990334287L172.49281529527428,215.785171154446L173.01444047693832,244.14906282178126L175.10094120359443,259.04010594713225L175.6225663852585,297.3313596980348L176.66581674858654,222.16704677959643L178.23069229357864,304.42233261486865L180.31719302023478,296.6222624063514L180.83881820189882,278.18573282258353L181.36044338356285,293.7858732396179L181.88206856522686,268.2583707390162L182.92531892855493,298.0404569897182L184.490194473547,268.2583707390162L185.01181965521104,277.4766355309001L185.5334448368751,160.47558240314228L187.09832038186718,178.91211198691022L187.61994556353122,13.692443024682461L188.66319592685926,184.58489032037724L191.79294701684347,239.89447907168096L192.83619738017154,220.0397549045463L194.40107292516362,238.4762844883142L194.92269810682768,222.87614407127984L195.96594847015572,253.36732761366517L196.48757365181976,203.02141990414515L199.0956995601399,219.33065761286292L199.61732474180397,191.67586323721108L200.66057510513204,220.74885219622968L201.70382546846008,225.00343594632997L202.22545065012412,233.51260344653053L202.74707583178815,193.8031551122612L204.31195137678023,220.74885219622968L204.8335765584443,238.4762844883142L206.39845210343637,168.98474990334287L206.9200772851004,207.27600365424544L207.96332764842845,56.947377817368704L208.48495283009248,147.00273386115808L209.52820319342058,69.71112906766956L211.6147039200767,13.692443024682461L212.13632910174073,66.87473990093605L212.65795428340476,100.20231261005495L213.7012046467328,13.692443024682461L214.22282982839687,95.94772885995468L215.78770537338895,129.98439886075695L216.30933055505298,35.674459066867314L216.83095573671702,176.78482011186006L217.35258091838105,13.692443024682461L218.3958312817091,51.27459948390168L218.91745646337313,127.85710698570679L219.4390816450372,46.31091844211801L219.96070682670123,35.674459066867314L224.65533346167751,177.49391740354346L225.17695864334152,123.60252323560653L226.2202090066696,99.4932153183716L227.78508455166167,198.76683615404488L231.43646082330991,270.38566261406635L231.95808600497395,124.3116205272899L234.0445867316301,13.692443024682461L234.5662119132941,13.692443024682461L235.08783709495813,13.692443024682461L236.1310874582862,13.692443024682461L237.17433782161424,24.328902399933213L239.26083854827039,51.27459948390168L243.9554651832467,142.7481501110578L244.4770903649107,116.51155031877272L244.99871554657474,64.74744802588589L245.52034072823878,13.692443024682461L246.56359109156682,271.8038571974331L247.08521627323086,107.29328552688878L248.650091818223,13.692443024682461L250.21496736321507,13.692443024682461L253.86634363486328,13.692443024682461L254.38796881652732,13.692443024682461L254.90959399819135,13.692443024682461L255.4312191798554,13.692443024682461L256.47446954318343,13.692443024682461L256.99609472484747,13.692443024682461L257.5177199065115,13.692443024682461L258.5609702698396,13.692443024682461L259.0825954515036,13.692443024682461L259.60422063316764,13.692443024682461L260.6474709964957,13.692443024682461L261.6907213598238,13.692443024682461L262.2123465414878,13.692443024682461L264.2988472681439,13.692443024682461L267.95022353979215,13.692443024682461L269.5150990847842,13.692443024682461L270.0367242664483,13.692443024682461L271.07997462977636,13.692443024682461L272.1232249931044,13.692443024682461L273.68810053809653,13.692443024682461L279.42597753640086,13.692443024682461L280.99085308139297,13.692443024682461L281.51247826305695,92.40224240153776L282.03410344472104,86.72946406807074L283.0773538080491,268.2583707390162L284.1206041713771,226.42163052969673L284.6422293530412,181.03940386196038L285.6854797163693,212.9487819877125L288.2936056246894,13.692443024682461L288.81523080635344,13.692443024682461L291.9449818963376,47.729113025484764L292.98823225966566,100.20231261005495L293.5098574413297,171.82113907007638L294.0314826229938,162.60287427819244L294.55310780465777,156.22099865304202L295.07473298632186,161.1846796948257L295.59635816798584,161.1846796948257L296.1179833496499,153.3846094863085L296.6396085313139,179.62120927859357L297.16123371297795,161.1846796948257L297.682858894642,162.60287427819244L298.72610925797,157.63919323640877L300.29098480296216,176.0757228201767L300.8126099846262,153.3846094863085L301.33423516629017,137.78446906927414L302.37748552961824,166.14836073660936L304.46398625627444,126.43891240234004L305.5072366196025,61.91105885915238L306.5504869829305,15.819734899732623L308.63698770958666,13.692443024682461L309.1586128912507,13.692443024682461L309.68023807291473,13.692443024682461L310.72348843624275,13.692443024682461L311.7667387995708,13.692443024682461L312.8099891628989,14.401540316365868L313.853239526227,13.692443024682461L314.374864707891,13.692443024682461L315.9397402528831,13.692443024682461L316.98299061621117,37.09265365023407L317.5046157978752,78.92939385955356L318.02624097953924,55.52918323400195L318.5478661612033,28.58348615003348L319.0694913428673,67.58383719261946L319.59111652453134,96.65682615163803L320.6343668878594,103.74779906847186L321.1559920695234,144.16634469442457L323.76411797784357,151.96641490294175L324.28574315950766,205.8578090708787L325.3289935228357,210.11239282097898L325.8506187044997,221.45794948791306L326.37224388616374,189.5485713621609L327.9371194311558,215.07607386276263L328.9803697944839,198.0577388623615L330.023620157812,237.05808990494745L331.06687052114006,235.6398953215807L332.1101208844681,197.34864157067813L333.15337124779614,222.16704677959643L333.67499642946024,226.42163052969673L334.1966216111242,239.89447907168096L335.7614971561163,221.45794948791306L337.84799788277246,188.83947407047756L338.3696230644365,205.8578090708787L339.41287342776457,224.2943386546466L339.93449860942854,212.23968469602912L340.9777489727566,219.33065761286292L343.0642496994128,200.18503073741164L345.67237560773293,225.71253323801335L349.3237518793811,216.4942684461294L349.8453770610452,225.00343594632997L350.8886274243733,173.94843094512655L351.41025260603726,193.09405782057783L351.9318777877013,195.93044698731134L352.4535029693654,152.6755121946251L352.97512815102937,173.94843094512655L353.49675333269346,160.47558240314228L354.5400036960215,180.33030657027697L355.0616288776855,137.78446906927414L357.14812960434165,33.54716719181715L357.6697547860057,13.692443024682461L358.7130051493337,13.692443024682461L359.75625551266177,13.692443024682461L361.3211310576539,13.692443024682461L362.36438142098194,123.60252323560653L362.88600660264603,115.80245302708931L363.40763178431,73.96571281776988L364.9725073293021,20.783415941516296L365.49413251096615,13.692443024682461L366.0157576926302,75.38390740113664L366.53738287429417,13.692443024682461L367.05900805595826,88.85675594312085L368.10225841928633,126.43891240234004L368.62388360095036,120.76613406887299L369.14550878261434,138.49356636095752L370.1887591459424,149.8391230278916L370.71038432760645,128.56620427739017L371.2320095092705,168.98474990334287L371.7536346909345,115.09335573540596L372.2752598725986,161.1846796948257L372.7968850542626,163.31197156987585L373.84013541759066,109.42057740193889L374.3617605992547,69.71112906766956L375.92663614424674,65.4565453175693L378.01313687090294,149.8391230278916L379.578012415895,142.0390528193744L380.0996375975591,168.27565261165952L380.62126277922306,156.22099865304202L381.6645131425512,120.76613406887299L382.18613832421516,133.52988531917384L382.7077635058792,108.00238281857213L383.22938868754323,157.63919323640877L384.2726390508713,82.47488031797042L384.79426423253534,134.23898261085722L385.3158894141993,165.43926344492596L387.4023901408555,54.8200859423186L389.48889086751166,13.692443024682461L390.01051604917564,41.347237400334336L391.05376641250376,13.692443024682461L391.57539159416774,13.692443024682461L392.09701677583183,13.692443024682461L392.6186419574958,13.692443024682461L393.14026713915985,13.692443024682461L393.6618923208239,13.692443024682461L395.226767865816,13.692443024682461L395.74839304748,13.692443024682461L398.87814413746423,13.692443024682461L399.92139450079225,13.692443024682461L400.44301968245634,13.692443024682461L400.9646448641203,28.58348615003348L401.4862700457844,13.692443024682461L402.5295204091124,13.692443024682461L404.0943959541045,13.692443024682461L404.61602113576856,13.692443024682461L406.18089668076067,13.692443024682461L406.7025218624247,13.692443024682461L407.22414704408874,13.692443024682461L408.2673974074168,13.692443024682461L409.3106477707448,13.692443024682461L410.875523315737,13.692443024682461L411.39714849740096,13.692443024682461L412.44039886072903,13.692443024682461L414.00527440572114,13.692443024682461L414.5268995873851,13.692443024682461L415.0485247690492,13.692443024682461L416.0917751323773,13.692443024682461L416.6134003140413,13.692443024682461L417.1350254957053,13.692443024682461L418.17827585903336,13.692443024682461L418.69990104069745,13.692443024682461L419.22152622236143,13.692443024682461L421.8296521306816,13.692443024682461L423.9161528573377,13.692443024682461L424.4377780390018,13.692443024682461L425.48102840232985,13.692443024682461L426.52427876565787,13.692443024682461L427.56752912898594,13.692443024682461L428.08915431065003,13.692443024682461L428.610779492314,109.42057740193889L429.13240467397804,75.38390740113664L429.65402985564214,264.0037869889159L430.1756550373061,295.91316511466806L431.2189054006342,228.54892240474686L432.26215576396226,237.05808990494745L433.30540612729027,251.9491330302984L434.87028167228243,235.6398953215807L435.91353203561044,243.43996553009788L436.43515721727454,245.567257405148L436.9567823989385,235.6398953215807L439.0432831255947,244.14906282178126L440.0865334889228,235.6398953215807L440.60815867058676,240.60357636336434L441.65140903391483,261.87649511386576L443.21628457890694,234.9307980298973L444.259534942235,243.43996553009788L444.78116012389904,243.43996553009788L445.302785305563,218.62156032117954L446.8676608505552,229.96711698811364L448.43253639554723,191.67586323721108L448.95416157721127,203.73051719582855L449.99741194053934,211.53058740434574L451.0406623038674,170.40294448670963L452.0839126671955,172.5302363617598L454.69203857551565,121.47523136055639L455.73528893884367,119.34793948550623L456.25691412050776,183.16669573701049L456.77853930217174,155.51190136135867L457.30016448383583,195.22134969562796L458.86504002882793,88.1476586514375L461.9947911188121,173.94843094512655L463.03804148214016,108.71148011025554L463.5596666638042,205.8578090708787L464.08129184546823,237.05808990494745L464.60291702713226,212.23968469602912L465.12454220879624,163.31197156987585L467.2110429354524,224.2943386546466L468.2542932987805,186.003084903744L468.7759184804445,208.6941982376122L470.3407940254366,238.4762844883142L470.86241920710063,192.38496052889445L471.38404438876466,176.0757228201767L471.90566957042864,222.87614407127984L472.42729475209273,178.91211198691022L473.4705451154208,132.82078802749047L473.99217029708484,137.78446906927414L474.5137954787488,210.82149011266236L475.0354206604129,217.91246302949617L476.078671023741,225.00343594632997L477.64354656873303,166.14836073660936L478.68679693206116,191.67586323721108L479.20842211372513,181.03940386196038L480.2516724770532,237.76718719663083L480.77329765871724,120.05703677718964L482.3381732037093,34.25626448350056L482.8597983853734,130.69349615244033L483.9030487487014,86.72946406807074L484.4246739303655,122.18432865223974L488.07605020201373,13.692443024682461L488.5976753836777,175.3666255284933L489.11930056534175,90.984047818171L489.6409257470058,28.58348615003348L490.1625509286698,151.25731761125834L490.68417611033385,156.22099865304202L491.2058012919979,164.0210688615592L492.24905165532596,82.47488031797042L492.77067683699,140.62085823600765L493.292302018654,195.93044698731134L494.85717756364613,164.7301661532426L495.3788027453101,195.22134969562796L495.90042792697415,210.11239282097898L496.4220531086382,158.34829052809218L497.4653034719663,197.34864157067813L500.59505456195046,249.8218411552483L501.11667974361444,226.42163052969673L501.63830492527853,229.96711698811364L502.6815552886066,164.7301661532426L504.7680560152627,217.2033657378128L506.3329315602548,232.80350615484716L507.89780710524695,159.05738781977553L509.98430783190304,249.11274386356493L511.5491833768951,252.65823032198182L512.0708085585592,162.60287427819244L512.5924337402232,225.00343594632997L513.6356841035513,203.02141990414515L514.1573092852153,182.45759844532714L514.6789344668794,231.3853115714804L516.2438100118715,134.23898261085722L516.7654351935355,212.23968469602912L517.8086855568636,181.74850115364373L518.8519359201916,164.0210688615592L519.3735611018556,237.76718719663083L520.4168114651836,154.09370677799188L521.4600618285118,211.53058740434574L521.9816870101757,219.33065761286292L523.0249373735038,183.16669573701049L524.0681877368319,198.76683615404488L524.5898129184959,177.49391740354346L525.11143810016,174.65752823680995L525.633063281824,184.58489032037724L527.1979388268161,190.9667659455277L527.7195640084801,223.58524136296322L528.2411891901442,172.5302363617598L529.8060647351363,212.23968469602912L530.3276899168003,255.49461948871533L534.5006913701125,249.11274386356493L536.0655669151046,258.33100865544884L536.5871920967686,266.84017615564943L537.6304424600967,198.0577388623615L538.6736928234247,253.36732761366517L539.1953180050888,294.4949705313013L540.7601935500809,264.71288428059927L541.2818187317448,278.8948301142669L542.325069095073,265.4219815722827L542.8466942767369,218.62156032117954L543.3683194584011,160.47558240314228L543.8899446400651,273.93114907248327L545.4548201850572,273.93114907248327L549.6278216383694,198.0577388623615L550.1494468200334,253.36732761366517L550.6710720016976,275.34934365585L551.7143223650255,209.40329552929558L552.7575727283537,257.6219113637655L553.2791979100176,260.458300530499L553.8008230916817,215.07607386276263L554.8440734550097,237.05808990494745L555.8873238183378,263.2946896972325L556.4089490000018,279.6039274059503L556.9305741816659,256.20371678039874L558.495449726658,276.7675382392168L559.017074908322,271.0947599057497L559.538700089986,243.43996553009788L562.1468259983062,256.20371678039874L563.1900763616343,251.24003573861506L563.7117015432982,258.33100865544884L564.7549519066264,281.73121928100045L565.2765770882903,276.05844094753337L566.3198274516185,178.91211198691022L569.4495785416026,222.87614407127984L569.9712037232667,298.0404569897182L571.0144540865947,276.05844094753337L572.0577044499228,282.4403165726838L574.1442051765789,280.3130246976337L575.1874555399071,287.40399761446747L576.230705903235,246.2763546968314L577.2739562665631,296.6222624063514L578.3172066298912,285.27670573941737L579.3604569932193,204.43961448751193L579.8820821748833,290.9494840728844L580.4037073565472,222.87614407127984L580.9253325382114,240.60357636336434L581.4469577198754,281.02212198931704L583.5334584465315,264.71288428059927L584.5767088098595,263.2946896972325L585.0983339915236,281.02212198931704L588.2280850815077,259.04010594713225L589.2713354448358,277.4766355309001L590.314585808164,293.7858732396179L590.8362109898279,277.4766355309001L591.357836171492,301.5859434481351L594.4875872614762,281.02212198931704L596.0524628064683,285.9858030311007L597.0957131697963,207.98510094592882L598.6605887147884,281.02212198931704L600.2254642597806,295.91316511466806L600.7470894414446,275.34934365585L601.7903398047727,281.73121928100045L602.3119649864367,276.05844094753337L602.8335901681006,266.131078863966L603.3552153497646,288.8221921978342L604.3984657130927,308.6769163649689L604.9200908947568,244.85816011346463L605.9633412580849,270.38566261406635L606.4849664397489,277.4766355309001L607.0065916214129,275.34934365585L608.571467166405,292.36767865625114L609.0930923480691,292.36767865625114L610.1363427113971,283.1494138643672L614.3093441647094,242.7308682384145L614.8309693463734,297.3313596980348L615.3525945280375,243.43996553009788L615.8742197097015,248.40364657188155L617.4390952546936,278.8948301142669L617.9607204363576,281.02212198931704L618.4823456180216,195.93044698731134L620.0472211630137,298.0404569897182L620.5688463446778,279.6039274059503L621.0904715263418,306.54962448991876L622.655347071334,247.69454928019815L628.9148492513023,261.1673978221824L630.4797247962944,287.40399761446747L631.5229751596224,243.43996553009788L632.0446003412865,306.54962448991876L633.0878507046145,298.7495542814016L633.6094758862786,271.8038571974331L635.1743514312707,265.4219815722827L636.7392269762628,288.8221921978342L637.2608521579267,196.63954427899472L637.7824773395909,284.56760844773396L638.3041025212549,304.42233261486865L638.8257277029188,246.2763546968314L639.347352884583,276.05844094753337L639.868978066247,299.4586515730849L640.390603247911,246.2763546968314L641.4338536112391,276.7675382392168L642.4771039745671,285.9858030311007L642.9987291562312,276.7675382392168L644.0419795195592,201.6032253207784L645.0852298828873,251.24003573861506L646.1284802462153,298.7495542814016L646.6501054278793,266.84017615564943L647.1717306095435,288.1130949061509L647.6933557912074,197.34864157067813L648.2149809728714,283.1494138643672L648.7366061545356,282.4403165726838L650.8231068811916,285.9858030311007L653.4312327895118,282.4403165726838L653.9528579711758,242.02177094673112L654.9961083345039,299.4586515730849L655.5177335161679,247.69454928019815L657.604234242824,305.131429906552L658.1258594244881,234.2217007382139L658.6474846061521,219.33065761286292L659.6907349694801,261.87649511386576L661.2556105144722,115.09335573540596L662.8204860594643,252.65823032198182L663.8637364227925,243.43996553009788L664.9069867861205,171.82113907007638L665.4286119677845,288.8221921978342L666.4718623311126,222.16704677959643L666.9934875127766,249.8218411552483L668.5583630577687,256.20371678039874L669.0799882394327,268.2583707390162L669.6016134210968,230.67621427979702L670.6448637844248,239.18538177999758L671.1664889660889,255.49461948871533L671.6881141477529,220.74885219622968L672.731364511081,284.56760844773396L673.252989692745,207.98510094592882L673.774614874409,271.0947599057497L674.2962400560731,144.87544198610792L674.817865237737,233.51260344653053L675.3394904194012,252.65823032198182L677.9476163277213,296.6222624063514L678.4692415093853,177.49391740354346L679.5124918727134,215.07607386276263L681.5989925993695,178.2030146952268L682.1206177810335,180.33030657027697L683.1638681443617,276.7675382392168L685.2503688710177,256.20371678039874L686.2936192343459,259.7492032388156L687.3368695976739,274.6402463641666L688.380119961002,235.6398953215807L688.901745142666,255.49461948871533L689.42337032433,129.27530156907355L689.944995505994,169.69384719502628L690.9882458693221,277.4766355309001L692.5531214143142,187.4212794871108L693.0747465959782,242.02177094673112L694.1179969593063,192.38496052889445L694.6396221409703,167.56655531997612L695.1612473226344,215.07607386276263L696.2044976859625,227.1307278213801L698.2909984126186,224.2943386546466L699.3342487759465,230.67621427979702L699.8558739576107,71.12932365103632L700.8991243209387,217.2033657378128L701.4207495026028,256.9128140720821L702.9856250475948,216.4942684461294L703.507250229259,227.83982511306348L706.115376137579,206.56690636256207L706.637001319243,210.11239282097898L707.1586265009072,113.67516115203921L707.6802516825711,161.1846796948257L708.7235020458992,212.9487819877125L709.7667524092273,79.6384911512369L710.2883775908913,152.6755121946251L710.8100027725552,105.87509094352203L711.3316279542194,112.9660638603558L711.8532531358834,95.23863156827127L712.3748783175474,13.692443024682461L713.9397538625395,13.692443024682461L715.5046294075316,88.85675594312085L716.5478797708597,13.692443024682461L717.5911301341877,13.692443024682461L718.1127553158517,13.692443024682461L718.6343804975158,13.692443024682461L719.1560056791799,13.692443024682461L719.6776308608438,13.692443024682461L721.7641315875,13.692443024682461L723.8506323141561,13.692443024682461L724.8938826774842,13.692443024682461L725.4155078591482,13.692443024682461L726.9803834041403,13.692443024682461L727.5020085858043,13.692443024682461L728.0236337674684,13.692443024682461L729.5885093124606,13.692443024682461L731.1533848574526,13.692443024682461L731.6750100391166,13.692443024682461L732.1966352207806,13.692443024682461L733.2398855841086,13.692443024682461L733.7615107657728,13.692443024682461L734.2831359474368,13.692443024682461L735.8480114924289,13.692443024682461L736.8912618557569,13.692443024682461L737.412887037421,13.692443024682461L737.934512219085,13.692443024682461L738.456137400749,13.692443024682461L738.977762582413,13.692443024682461L739.4993877640771,13.692443024682461L740.5426381274051,13.692443024682461L741.0642633090692,13.692443024682461L742.6291388540612,13.692443024682461L745.2372647623814,13.692443024682461L751.4967669423498,13.692443024682461L752.0183921240138,13.692443024682461L752.5400173056779,13.692443024682461L753.0616424873419,13.692443024682461L755.1481432139981,13.692443024682461L756.7130187589902,13.692443024682461L757.2346439406541,13.692443024682461L758.2778943039823,13.692443024682461L758.7995194856462,13.692443024682461L759.3211446673103,13.692443024682461L759.8427698489744,13.692443024682461L760.8860202123024,13.692443024682461L761.9292705756305,13.692443024682461L762.4508957572945,13.692443024682461L762.9725209389585,13.692443024682461L764.0157713022866,13.692443024682461L764.5373964839506,13.692443024682461L765.0590216656146,13.692443024682461L766.1022720289427,13.692443024682461L767.1455223922708,13.692443024682461L770.275273482255,13.692443024682461L771.3185238455831,13.692443024682461L773.9266497539032,13.692443024682461L774.4482749355672,13.692443024682461L776.5347756622233,13.692443024682461L779.1429015705436,13.692443024682461L779.6645267522075,13.692443024682461L781.7510274788636,13.692443024682461L783.8375282055198,13.692443024682461L785.4024037505119,13.692443024682461L786.967279295504,13.692443024682461L787.488904477168,13.692443024682461L788.010529658832,13.692443024682461L789.5754052038242,13.692443024682461L790.0970303854882,13.692443024682461L791.6619059304802,13.692443024682461L792.7051562938084,13.692443024682461L793.2267814754723,13.692443024682461L793.7484066571365,13.692443024682461L797.3997829287846,13.692443024682461L797.9214081104487,13.692443024682461L798.4430332921127,13.692443024682461L798.9646584737767,13.692443024682461L800.0079088371048,13.692443024682461L800.5295340187688,13.692443024682461L801.0511592004328,13.692443024682461L801.572784382097,13.692443024682461L802.0944095637609,13.692443024682461L802.6160347454249,13.692443024682461L803.1376599270891,13.692443024682461L803.659285108753,13.692443024682461L804.180910290417,13.692443024682461L805.7457858354092,13.692443024682461L806.7890361987371,13.692443024682461L809.3971621070574,13.692443024682461L809.9187872887214,13.692443024682461L810.4404124703854,13.692443024682461L811.4836628337135,13.692443024682461L815.1350391053618,13.692443024682461L816.1782894686897,13.692443024682461L818.7864153770099,13.692443024682461L819.308040558674,13.692443024682461L821.3945412853301,13.692443024682461L822.4377916486582,13.692443024682461L822.9594168303222,13.692443024682461L824.0026671936503,13.692443024682461L824.5242923753143,13.692443024682461L825.5675427386424,13.692443024682461L826.0891679203064,13.692443024682461L829.2189190102905,13.692443024682461L829.7405441919547,13.692443024682461L830.2621693736187,13.692443024682461L832.8702952819388,13.692443024682461L833.3919204636029,13.692443024682461L838.0865470985791,13.692443024682461L838.6081722802431,13.692443024682461L840.1730478252352,13.692443024682461L840.6946730068993,13.692443024682461L841.2162981885633,13.692443024682461L842.2595485518914,13.692443024682461L843.3027989152195,13.692443024682461L844.3460492785475,13.692443024682461L845.9109248235396,13.692443024682461L846.4325500052037,13.692443024682461L847.4758003685317,13.692443024682461L847.9974255501957,13.692443024682461L849.0406759135238,13.692443024682461L850.0839262768518,13.692443024682461L850.605551458516,13.692443024682461L851.6488018218439,13.692443024682461L852.170427003508,13.692443024682461L854.2569277301642,13.692443024682461L854.7785529118282,13.692443024682461L855.8218032751563,13.692443024682461L856.3434284568203,13.692443024682461L856.8650536384843,13.692443024682461L857.3866788201483,13.692443024682461L858.4299291834764,13.692443024682461L858.9515543651404,13.692443024682461L859.4731795468044,13.692443024682461L859.9948047284685,13.692443024682461L862.0813054551246,13.692443024682461L863.1245558184527,13.692443024682461L863.6461810001167,13.692443024682461L864.1678061817807,13.692443024682461L865.2110565451087,13.692443024682461L866.2543069084369,13.692443024682461L867.297557271765,13.692443024682461L868.340807635093,13.692443024682461L868.862432816757,13.692443024682461L869.3840579984211,13.692443024682461L870.427308361749,13.692443024682461L870.9489335434132,13.692443024682461L871.4705587250772,13.692443024682461L871.9921839067412,13.692443024682461L872.5138090884052,13.692443024682461L873.0354342700693,13.692443024682461L874.0786846333973,13.692443024682461L874.6003098150613,13.692443024682461L876.1651853600534,13.692443024682461L876.6868105417176,13.692443024682461L877.7300609050455,13.692443024682461L878.2516860867096,13.692443024682461L879.8165616317017,13.692443024682461L880.3381868133658,13.692443024682461L880.8598119950298,13.692443024682461L881.3814371766938,13.692443024682461L881.9030623583578,13.692443024682461L882.9463127216859,13.692443024682461L885.032813448342,13.692443024682461L886.0760638116701,13.692443024682461L886.5976889933341,13.692443024682461L887.1193141749982,13.692443024682461L888.6841897199903,13.692443024682461L889.2058149016542,13.692443024682461L890.2490652649824,13.692443024682461L892.3355659916385,13.692443024682461L892.8571911733025,13.692443024682461L893.3788163549665,13.692443024682461L893.9004415366306,13.692443024682461L894.9436918999586,13.692443024682461L897.0301926266147,13.692443024682461L897.5518178082789,13.692443024682461L898.5950681716068,13.692443024682461L899.116693353271,13.692443024682461L899.6383185349349,13.692443024682461L900.159943716599,13.692443024682461L901.203194079927,13.692443024682461L902.7680696249191,13.692443024682461L903.2896948065832,13.692443024682461L903.8113199882472,13.692443024682461L904.3329451699112,13.692443024682461L904.8545703515753,13.692443024682461L906.4194458965673,13.692443024682461L906.9410710782314,13.692443024682461L909.0275718048875,13.692443024682461L909.5491969865516,13.692443024682461L910.5924473498796,13.692443024682461L911.1140725315437,13.692443024682461L911.6356977132076,13.692443024682461L913.7221984398637,13.692443024682461L915.2870739848559,13.692443024682461L916.330324348184,13.692443024682461L917.895199893176,13.692443024682461L918.4168250748401,13.692443024682461L918.9384502565041,13.692443024682461L919.4600754381681,13.692443024682461L919.9817006198322,13.692443024682461L921.0249509831602,13.692443024682461L921.5465761648243,13.692443024682461L922.0682013464883,13.692443024682461L923.6330768914804,13.692443024682461L924.1547020731444,13.692443024682461L925.1979524364724,13.692443024682461L925.7195776181366,13.692443024682461L926.2412027998006,13.692443024682461L927.8060783447927,13.692443024682461L928.8493287081207,13.692443024682461L929.3709538897848,13.692443024682461L929.8925790714488,13.692443024682461L930.4142042531128,13.692443024682461L934.065580524761,13.692443024682461L934.587205706425,13.692443024682461L936.1520812514171,13.692443024682461L938.7602071597374,13.692443024682461L940.8467078863935,13.692443024682461L941.8899582497215,13.692443024682461L942.9332086130496,13.692443024682461L943.9764589763777,13.692443024682461L944.4980841580417,13.692443024682461L945.0197093397057,13.692443024682461L945.5413345213698,13.692443024682461L947.6278352480258,13.692443024682461L948.14946042969,13.692443024682461L948.671085611354,13.692443024682461L949.714335974682,13.692443024682461L950.2359611563461,13.692443024682461L950.7575863380101,13.692443024682461L952.8440870646662,13.692443024682461L953.8873374279943,13.692443024682461L954.9305877913223,13.692443024682461L955.9738381546505,13.692443024682461L956.4954633363144,13.692443024682461L957.5387136996426,13.692443024682461L959.6252144262986,13.692443024682461L960.6684647896267,13.692443024682461L961.1900899712906,13.692443024682461L962.7549655162828,13.692443024682461L964.3198410612749,13.692443024682461L966.406341787931,13.692443024682461L967.4495921512591,13.692443024682461L967.9712173329232,13.692443024682461L969.5360928779153,13.692443024682461L971.6225936045713,356.1864349077554L972.1442187862353,350.51365657428835L972.6658439678995,342.0044890740878L973.1874691495634,329.9498351154703L974.7523446945556,144.16634469442457L975.2739698762196,13.692443024682461L975.7955950578836,173.23933365344314L976.8388454212117,339.87719719903765L977.3604706028757,246.98545198851477L977.8820957845397,237.05808990494745L978.9253461478678,351.9318511576551L979.4469713295318,337.7499053239875L981.0118468745239,349.0954619909216L981.533472056188,350.51365657428835L982.576722419516,337.7499053239875L983.619972782844,354.05914303270526L984.1415979645082,349.804559282605L984.6632231461722,349.0954619909216L988.3145994178204,349.0954619909216L988.8362245994844,351.9318511576551L989.3578497811484,349.0954619909216L989.8794749628125,333.4953215738872L993.0092260527966,351.22275386597175L993.5308512344608,353.35004574102186L994.0524764161247,349.804559282605L994.5741015977887,351.9318511576551L995.0957267794528,341.2953917824044L996.1389771427808,353.35004574102186L997.703852687773,331.36802969883706L999.268728232765,351.9318511576551L1001.3552289594212,300.87684615645173L1001.8768541410852,13.692443024682461L1002.3984793227492,13.692443024682461L1002.9201045044133,13.692443024682461L1003.4417296860773,103.03870177678846L1004.4849800494053,233.51260344653053L1005.0066052310694,245.567257405148L1007.0931059577256,271.8038571974331L1008.6579815027177,283.85851115605055L1009.1796066843816,282.4403165726838L1010.7444822293738,290.240386781201L1011.2661074110378,290.240386781201L1011.7877325927018,296.6222624063514L1012.3093577743659,293.7858732396179L1012.8309829560299,298.0404569897182L1013.8742333193579,315.7678892818027L1014.395858501022,306.54962448991876L1014.917483682686,312.9315001150692L1015.43910886435,318.6042784485362L1015.9607340460142,324.2770567820033L1018.0472347726702,322.85886219863653L1018.5688599543342,322.1497649069531L1019.0904851359983,322.85886219863653L1020.6553606809904,329.9498351154703L1021.6986110443185,329.9498351154703L1022.2202362259825,327.1134459487368L1022.7418614076465,328.53164053210355L1023.7851117709746,337.04080803230414L1024.3067369526386,334.913516157254L1024.8283621343026,334.913516157254L1025.8716124976306,326.40434865705345L1026.3932376792948,329.9498351154703L1027.9581132242868,329.9498351154703L1029.0013635876148,333.4953215738872L1030.044613950943,328.53164053210355L1030.566239132607,338.4590026156709L1031.609489495935,330.6589324071537L1033.1743650409271,339.87719719903765L1034.2176154042552,344.8408782408213L1034.7392405859193,338.4590026156709L1035.2608657675833,337.7499053239875L1036.3041161309113,334.2044188655706L1037.3473664942394,337.04080803230414L1037.8689916759035,335.6226134489374L1038.3906168575675,339.87719719903765L1040.4771175842236,339.87719719903765L1040.9987427658875,349.0954619909216L1042.0419931292156,339.16809990735425L1043.0852434925437,339.87719719903765L1045.693369400864,341.2953917824044L1047.77987012752,345.5499755325047L1048.301495309184,339.87719719903765L1048.823120490848,345.5499755325047L1049.344745672512,344.1317809491379L1055.6042478524805,343.42268365745457L1056.6474982158086,343.42268365745457L1057.6907485791367,344.1317809491379" fill="none"></path></g></g></g></g></g></g><g transform="translate(39, 378)" clip-path="url(#clip_1)"><clipPath id="clip_1"><rect width="1072" height="21"></rect></clipPath><g><g><line x1="14.440385251072572" y1="0" x2="14.440385251072572" y2="5" style="visibility: inherit;" fill="rgb(0, 0, 0)" stroke="rgb(204, 204, 204)" stroke-width="1px"></line><line x1="118.76542158387899" y1="0" x2="118.76542158387899" y2="5" style="visibility: inherit;" fill="rgb(0, 0, 0)" stroke="rgb(204, 204, 204)" stroke-width="1px"></line><line x1="223.09045791668538" y1="0" x2="223.09045791668538" y2="5" style="visibility: inherit;" fill="rgb(0, 0, 0)" stroke="rgb(204, 204, 204)" stroke-width="1px"></line><line x1="327.4154942494918" y1="0" x2="327.4154942494918" y2="5" style="visibility: inherit;" fill="rgb(0, 0, 0)" stroke="rgb(204, 204, 204)" stroke-width="1px"></line><line x1="431.7405305822982" y1="0" x2="431.7405305822982" y2="5" style="visibility: inherit;" fill="rgb(0, 0, 0)" stroke="rgb(204, 204, 204)" stroke-width="1px"></line><line x1="536.0655669151046" y1="0" x2="536.0655669151046" y2="5" style="visibility: inherit;" fill="rgb(0, 0, 0)" stroke="rgb(204, 204, 204)" stroke-width="1px"></line><line x1="640.390603247911" y1="0" x2="640.390603247911" y2="5" style="visibility: inherit;" fill="rgb(0, 0, 0)" stroke="rgb(204, 204, 204)" stroke-width="1px"></line><line x1="744.7156395807175" y1="0" x2="744.7156395807175" y2="5" style="visibility: inherit;" fill="rgb(0, 0, 0)" stroke="rgb(204, 204, 204)" stroke-width="1px"></line><line x1="849.0406759135238" y1="0" x2="849.0406759135238" y2="5" style="visibility: inherit;" fill="rgb(0, 0, 0)" stroke="rgb(204, 204, 204)" stroke-width="1px"></line><line x1="953.3657122463302" y1="0" x2="953.3657122463302" y2="5" style="visibility: inherit;" fill="rgb(0, 0, 0)" stroke="rgb(204, 204, 204)" stroke-width="1px"></line><line x1="1057.6907485791367" y1="0" x2="1057.6907485791367" y2="5" style="visibility: inherit;" fill="rgb(0, 0, 0)" stroke="rgb(204, 204, 204)" stroke-width="1px"></line></g><g transform="translate(0, 8)"><text style="text-anchor: middle; visibility: inherit; font-family: &quot;Helvetica Neue&quot;, sans-serif; font-size: 12px; font-weight: 200;" x="14.440385251072572" y="0" dx="0em" dy="0.95em" fill="rgb(50, 49, 63)" stroke="none" stroke-width="1px">0</text><text style="text-anchor: middle; visibility: inherit; font-family: &quot;Helvetica Neue&quot;, sans-serif; font-size: 12px; font-weight: 200;" x="118.76542158387899" y="0" dx="0em" dy="0.95em" fill="rgb(50, 49, 63)" stroke="none" stroke-width="1px">200</text><text style="text-anchor: middle; visibility: inherit; font-family: &quot;Helvetica Neue&quot;, sans-serif; font-size: 12px; font-weight: 200;" x="223.09045791668538" y="0" dx="0em" dy="0.95em" fill="rgb(50, 49, 63)" stroke="none" stroke-width="1px">400</text><text style="text-anchor: middle; visibility: inherit; font-family: &quot;Helvetica Neue&quot;, sans-serif; font-size: 12px; font-weight: 200;" x="327.4154942494918" y="0" dx="0em" dy="0.95em" fill="rgb(50, 49, 63)" stroke="none" stroke-width="1px">600</text><text style="text-anchor: middle; visibility: inherit; font-family: &quot;Helvetica Neue&quot;, sans-serif; font-size: 12px; font-weight: 200;" x="431.7405305822982" y="0" dx="0em" dy="0.95em" fill="rgb(50, 49, 63)" stroke="none" stroke-width="1px">800</text><text style="text-anchor: middle; visibility: inherit; font-family: &quot;Helvetica Neue&quot;, sans-serif; font-size: 12px; font-weight: 200;" x="536.0655669151046" y="0" dx="0em" dy="0.95em" fill="rgb(50, 49, 63)" stroke="none" stroke-width="1px">1k</text><text style="text-anchor: middle; visibility: inherit; font-family: &quot;Helvetica Neue&quot;, sans-serif; font-size: 12px; font-weight: 200;" x="640.390603247911" y="0" dx="0em" dy="0.95em" fill="rgb(50, 49, 63)" stroke="none" stroke-width="1px">1.2k</text><text style="text-anchor: middle; visibility: inherit; font-family: &quot;Helvetica Neue&quot;, sans-serif; font-size: 12px; font-weight: 200;" x="744.7156395807175" y="0" dx="0em" dy="0.95em" fill="rgb(50, 49, 63)" stroke="none" stroke-width="1px">1.4k</text><text style="text-anchor: middle; visibility: inherit; font-family: &quot;Helvetica Neue&quot;, sans-serif; font-size: 12px; font-weight: 200;" x="849.0406759135238" y="0" dx="0em" dy="0.95em" fill="rgb(50, 49, 63)" stroke="none" stroke-width="1px">1.6k</text><text style="text-anchor: middle; visibility: inherit; font-family: &quot;Helvetica Neue&quot;, sans-serif; font-size: 12px; font-weight: 200;" x="953.3657122463302" y="0" dx="0em" dy="0.95em" fill="rgb(50, 49, 63)" stroke="none" stroke-width="1px">1.8k</text><text style="text-anchor: middle; visibility: inherit; font-family: &quot;Helvetica Neue&quot;, sans-serif; font-size: 12px; font-weight: 200;" x="1057.6907485791367" y="0" dx="0em" dy="0.95em" fill="rgb(50, 49, 63)" stroke="none" stroke-width="1px">2k</text></g><line x1="0" y1="0" x2="1072.611999130249" y2="0" fill="rgb(0, 0, 0)" stroke="rgb(204, 204, 204)" stroke-width="1px"></line></g></g></g></g></svg>