<svg viewBox="0 0 1129.4000244140625 400" xmlns="http://www.w3.org/2000/svg"><g><g><g><g><g><line x1="39.98800086975098" y1="367.06082896616016" x2="34.98800086975098" y2="367.06082896616016" style="visibility: inherit;" fill="rgb(0, 0, 0)" stroke="rgb(204, 204, 204)" stroke-width="1px"></line><line x1="39.98800086975098" y1="331.7196017684788" x2="34.98800086975098" y2="331.7196017684788" style="visibility: inherit;" fill="rgb(0, 0, 0)" stroke="rgb(204, 204, 204)" stroke-width="1px"></line><line x1="39.98800086975098" y1="296.3783745707975" x2="34.98800086975098" y2="296.3783745707975" style="visibility: inherit;" fill="rgb(0, 0, 0)" stroke="rgb(204, 204, 204)" stroke-width="1px"></line><line x1="39.98800086975098" y1="261.0371473731162" x2="34.98800086975098" y2="261.0371473731162" style="visibility: inherit;" fill="rgb(0, 0, 0)" stroke="rgb(204, 204, 204)" stroke-width="1px"></line><line x1="39.98800086975098" y1="225.69592017543488" x2="34.98800086975098" y2="225.69592017543488" style="visibility: inherit;" fill="rgb(0, 0, 0)" stroke="rgb(204, 204, 204)" stroke-width="1px"></line><line x1="39.98800086975098" y1="190.35469297775356" x2="34.98800086975098" y2="190.35469297775356" style="visibility: inherit;" fill="rgb(0, 0, 0)" stroke="rgb(204, 204, 204)" stroke-width="1px"></line><line x1="39.98800086975098" y1="155.0134657800722" x2="34.98800086975098" y2="155.0134657800722" style="visibility: inherit;" fill="rgb(0, 0, 0)" stroke="rgb(204, 204, 204)" stroke-width="1px"></line><line x1="39.98800086975098" y1="119.67223858239095" x2="34.98800086975098" y2="119.67223858239095" style="visibility: inherit;" fill="rgb(0, 0, 0)" stroke="rgb(204, 204, 204)" stroke-width="1px"></line><line x1="39.98800086975098" y1="84.3310113847096" x2="34.98800086975098" y2="84.3310113847096" style="visibility: inherit;" fill="rgb(0, 0, 0)" stroke="rgb(204, 204, 204)" stroke-width="1px"></line><line x1="39.98800086975098" y1="48.989784187028306" x2="34.98800086975098" y2="48.989784187028306" style="visibility: inherit;" fill="rgb(0, 0, 0)" stroke="rgb(204, 204, 204)" stroke-width="1px"></line><line x1="39.98800086975098" y1="13.648556989346957" x2="34.98800086975098" y2="13.648556989346957" style="visibility: inherit;" fill="rgb(0, 0, 0)" stroke="rgb(204, 204, 204)" stroke-width="1px"></line></g><g transform="translate(29.988000869750977, 0)"><text style="text-anchor: end; visibility: inherit; font-family: &quot;Helvetica Neue&quot;, sans-serif; font-size: 12px; font-weight: 200;" x="0" y="367.06082896616016" dx="0em" dy="0.3em" fill="rgb(50, 49, 63)" stroke="none" stroke-width="1px">0</text><text style="text-anchor: end; visibility: inherit; font-family: &quot;Helvetica Neue&quot;, sans-serif; font-size: 12px; font-weight: 200;" x="0" y="331.7196017684788" dx="0em" dy="0.3em" fill="rgb(50, 49, 63)" stroke="none" stroke-width="1px">50</text><text style="text-anchor: end; visibility: inherit; font-family: &quot;Helvetica Neue&quot;, sans-serif; font-size: 12px; font-weight: 200;" x="0" y="296.3783745707975" dx="0em" dy="0.3em" fill="rgb(50, 49, 63)" stroke="none" stroke-width="1px">100</text><text style="text-anchor: end; visibility: inherit; font-family: &quot;Helvetica Neue&quot;, sans-serif; font-size: 12px; font-weight: 200;" x="0" y="261.0371473731162" dx="0em" dy="0.3em" fill="rgb(50, 49, 63)" stroke="none" stroke-width="1px">150</text><text style="text-anchor: end; visibility: inherit; font-family: &quot;Helvetica Neue&quot;, sans-serif; font-size: 12px; font-weight: 200;" x="0" y="225.69592017543488" dx="0em" dy="0.3em" fill="rgb(50, 49, 63)" stroke="none" stroke-width="1px">200</text><text style="text-anchor: end; visibility: inherit; font-family: &quot;Helvetica Neue&quot;, sans-serif; font-size: 12px; font-weight: 200;" x="0" y="190.35469297775356" dx="0em" dy="0.3em" fill="rgb(50, 49, 63)" stroke="none" stroke-width="1px">250</text><text style="text-anchor: end; visibility: inherit; font-family: &quot;Helvetica Neue&quot;, sans-serif; font-size: 12px; font-weight: 200;" x="0" y="155.0134657800722" dx="0em" dy="0.3em" fill="rgb(50, 49, 63)" stroke="none" stroke-width="1px">300</text><text style="text-anchor: end; visibility: inherit; font-family: &quot;Helvetica Neue&quot;, sans-serif; font-size: 12px; font-weight: 200;" x="0" y="119.67223858239095" dx="0em" dy="0.3em" fill="rgb(50, 49, 63)" stroke="none" stroke-width="1px">350</text><text style="text-anchor: end; visibility: inherit; font-family: &quot;Helvetica Neue&quot;, sans-serif; font-size: 12px; font-weight: 200;" x="0" y="84.3310113847096" dx="0em" dy="0.3em" fill="rgb(50, 49, 63)" stroke="none" stroke-width="1px">400</text><text style="text-anchor: end; visibility: inherit; font-family: &quot;Helvetica Neue&quot;, sans-serif; font-size: 12px; font-weight: 200;" x="0" y="48.989784187028306" dx="0em" dy="0.3em" fill="rgb(50, 49, 63)" stroke="none" stroke-width="1px">450</text><text style="text-anchor: end; visibility: inherit; font-family: &quot;Helvetica Neue&quot;, sans-serif; font-size: 12px; font-weight: 200;" x="0" y="13.648556989346957" dx="0em" dy="0.3em" fill="rgb(50, 49, 63)" stroke="none" stroke-width="1px">500</text></g><line x1="39.98800086975098" y1="0" x2="39.98800086975098" y2="378.60799980163574" fill="rgb(0, 0, 0)" stroke="rgb(204, 204, 204)" stroke-width="1px"></line></g></g><g transform="translate(39, 0)" clip-path="url(#clip_0)"><clipPath id="clip_0"><rect width="1089" height="378"></rect></clipPath><g><g><g><line x1="9.302852320436456" y1="0" x2="9.302852320436456" y2="378.60799980163574" fill="rgb(0, 0, 0)" stroke="rgb(60, 60, 60)" stroke-width="1px" opacity="0.25"></line><line x1="80.03101107186468" y1="0" x2="80.03101107186468" y2="378.60799980163574" fill="rgb(0, 0, 0)" stroke="rgb(60, 60, 60)" stroke-width="1px" opacity="0.25"></line><line x1="150.75916982329292" y1="0" x2="150.75916982329292" y2="378.60799980163574" fill="rgb(0, 0, 0)" stroke="rgb(60, 60, 60)" stroke-width="1px" opacity="0.25"></line><line x1="221.48732857472118" y1="0" x2="221.48732857472118" y2="378.60799980163574" fill="rgb(0, 0, 0)" stroke="rgb(60, 60, 60)" stroke-width="1px" opacity="0.25"></line><line x1="292.2154873261494" y1="0" x2="292.2154873261494" y2="378.60799980163574" fill="rgb(0, 0, 0)" stroke="rgb(60, 60, 60)" stroke-width="1px" opacity="0.25"></line><line x1="362.9436460775777" y1="0" x2="362.9436460775777" y2="378.60799980163574" fill="rgb(0, 0, 0)" stroke="rgb(60, 60, 60)" stroke-width="1px" opacity="0.25"></line><line x1="433.67180482900585" y1="0" x2="433.67180482900585" y2="378.60799980163574" fill="rgb(0, 0, 0)" stroke="rgb(60, 60, 60)" stroke-width="1px" opacity="0.25"></line><line x1="504.39996358043413" y1="0" x2="504.39996358043413" y2="378.60799980163574" fill="rgb(0, 0, 0)" stroke="rgb(60, 60, 60)" stroke-width="1px" opacity="0.25"></line><line x1="575.1281223318624" y1="0" x2="575.1281223318624" y2="378.60799980163574" fill="rgb(0, 0, 0)" stroke="rgb(60, 60, 60)" stroke-width="1px" opacity="0.25"></line><line x1="645.8562810832906" y1="0" x2="645.8562810832906" y2="378.60799980163574" fill="rgb(0, 0, 0)" stroke="rgb(60, 60, 60)" stroke-width="1px" opacity="0.25"></line><line x1="716.5844398347189" y1="0" x2="716.5844398347189" y2="378.60799980163574" fill="rgb(0, 0, 0)" stroke="rgb(60, 60, 60)" stroke-width="1px" opacity="0.25"></line><line x1="787.312598586147" y1="0" x2="787.312598586147" y2="378.60799980163574" fill="rgb(0, 0, 0)" stroke="rgb(60, 60, 60)" stroke-width="1px" opacity="0.25"></line><line x1="858.0407573375753" y1="0" x2="858.0407573375753" y2="378.60799980163574" fill="rgb(0, 0, 0)" stroke="rgb(60, 60, 60)" stroke-width="1px" opacity="0.25"></line><line x1="928.7689160890036" y1="0" x2="928.7689160890036" y2="378.60799980163574" fill="rgb(0, 0, 0)" stroke="rgb(60, 60, 60)" stroke-width="1px" opacity="0.25"></line><line x1="999.4970748404318" y1="0" x2="999.4970748404318" y2="378.60799980163574" fill="rgb(0, 0, 0)" stroke="rgb(60, 60, 60)" stroke-width="1px" opacity="0.25"></line><line x1="1070.22523359186" y1="0" x2="1070.22523359186" y2="378.60799980163574" fill="rgb(0, 0, 0)" stroke="rgb(60, 60, 60)" stroke-width="1px" opacity="0.25"></line></g><g><line x1="0" y1="367.06082896616016" x2="1089.4119991302491" y2="367.06082896616016" fill="rgb(0, 0, 0)" stroke="rgb(60, 60, 60)" stroke-width="1px" opacity="0.25"></line><line x1="0" y1="331.7196017684788" x2="1089.4119991302491" y2="331.7196017684788" fill="rgb(0, 0, 0)" stroke="rgb(60, 60, 60)" stroke-width="1px" opacity="0.25"></line><line x1="0" y1="296.3783745707975" x2="1089.4119991302491" y2="296.3783745707975" fill="rgb(0, 0, 0)" stroke="rgb(60, 60, 60)" stroke-width="1px" opacity="0.25"></line><line x1="0" y1="261.0371473731162" x2="1089.4119991302491" y2="261.0371473731162" fill="rgb(0, 0, 0)" stroke="rgb(60, 60, 60)" stroke-width="1px" opacity="0.25"></line><line x1="0" y1="225.69592017543488" x2="1089.4119991302491" y2="225.69592017543488" fill="rgb(0, 0, 0)" stroke="rgb(60, 60, 60)" stroke-width="1px" opacity="0.25"></line><line x1="0" y1="190.35469297775356" x2="1089.4119991302491" y2="190.35469297775356" fill="rgb(0, 0, 0)" stroke="rgb(60, 60, 60)" stroke-width="1px" opacity="0.25"></line><line x1="0" y1="155.0134657800722" x2="1089.4119991302491" y2="155.0134657800722" fill="rgb(0, 0, 0)" stroke="rgb(60, 60, 60)" stroke-width="1px" opacity="0.25"></line><line x1="0" y1="119.67223858239095" x2="1089.4119991302491" y2="119.67223858239095" fill="rgb(0, 0, 0)" stroke="rgb(60, 60, 60)" stroke-width="1px" opacity="0.25"></line><line x1="0" y1="84.3310113847096" x2="1089.4119991302491" y2="84.3310113847096" fill="rgb(0, 0, 0)" stroke="rgb(60, 60, 60)" stroke-width="1px" opacity="0.25"></line><line x1="0" y1="48.989784187028306" x2="1089.4119991302491" y2="48.989784187028306" fill="rgb(0, 0, 0)" stroke="rgb(60, 60, 60)" stroke-width="1px" opacity="0.25"></line><line x1="0" y1="13.648556989346957" x2="1089.4119991302491" y2="13.648556989346957" fill="rgb(0, 0, 0)" stroke="rgb(60, 60, 60)" stroke-width="1px" opacity="0.25"></line></g></g></g><g><g><line x1="0" y1="367.06082896616016" x2="1089.4119991302491" y2="367.06082896616016" fill="rgb(0, 0, 0)" stroke="rgb(153, 153, 153)" stroke-width="1.5px"></line></g></g><g><g><line x1="9.302852320436456" y1="0" x2="9.302852320436456" y2="378.60799980163574" fill="rgb(0, 0, 0)" stroke="rgb(153, 153, 153)" stroke-width="1.5px"></line></g></g><g><g><g><g><g><path style="fill: none;" stroke="rgb(204, 51, 17)" stroke-width="2px" d="M11.424697082979304,348.68339082336587L11.778337876736444,357.872109894763L13.54654184552215,359.28575898267025L14.607464226793574,357.872109894763L14.961105020550713,357.872109894763L16.02202740182214,358.5789344387166L16.72930898933642,357.872109894763L18.143872164364986,361.4062326145311L22.38756168945068,358.5789344387166L23.802124864479243,357.872109894763L24.509406451993527,360.6994080705775L25.216688039507808,355.75163626290214L25.57032883326495,357.16528535080937L26.277610420779233,357.872109894763L28.39945518332208,358.5789344387166L28.75309597707922,359.9925835266239L29.10673677083636,360.6994080705775L29.4603775645935,353.63116263104126L29.814018358350644,359.28575898267025L32.643144708407775,357.16528535080937L33.7040670896792,355.0448117189485L34.764989470950624,360.6994080705775L35.11863026470776,357.872109894763L35.4722710584649,353.63116263104126L35.82591185222204,359.28575898267025L37.594115821007755,359.28575898267025L40.42324217106488,359.28575898267025L40.776882964822015,357.16528535080937L42.89872772736487,357.872109894763L45.727854077421995,360.6994080705775L46.78877645869342,359.9925835266239L47.142417252450564,359.28575898267025L49.61790280875055,360.6994080705775L50.678825190021975,360.6994080705775L51.386106777536256,358.5789344387166L54.21523312759338,357.16528535080937L55.27615550886481,358.5789344387166L55.62979630262195,360.6994080705775L58.81256344643622,358.5789344387166L59.5198450339505,352.217513543134L59.87348582770764,355.0448117189485L60.227126621464784,357.16528535080937L62.70261217776477,359.9925835266239L64.47081614655048,359.28575898267025L65.17809773406476,359.9925835266239L65.5317385278219,357.16528535080937L66.94630170285046,359.28575898267025L68.71450567163616,358.5789344387166L69.06814646539331,356.4584608068557L70.12906884666474,359.9925835266239L72.25091360920759,359.9925835266239L72.60455440296474,357.872109894763L73.31183599047901,359.9925835266239L74.37275837175042,359.28575898267025L75.08003995926471,357.872109894763L75.43368075302185,347.9765662794122L76.14096234053613,361.4062326145311L76.84824392805042,344.4424435596441L77.20188472180756,355.75163626290214L79.67737027810755,357.16528535080937L82.50649662816468,360.6994080705775L82.86013742192182,359.28575898267025L83.21377821567897,336.6673735761542L84.62834139070752,358.5789344387166L88.16474932827894,356.4584608068557L88.51839012203608,357.872109894763L89.22567170955037,360.6994080705775L90.64023488457892,359.28575898267025L91.70115726585034,359.28575898267025L92.05479805960749,357.872109894763L92.40843885336463,354.33798717499485L93.46936123463605,352.217513543134L97.71305075972175,359.9925835266239L99.8348955222646,359.9925835266239L100.89581790353601,355.0448117189485L101.6030994910503,351.5106889991804L101.95674028480744,359.28575898267025L102.66402187232173,360.6994080705775L104.07858504735029,353.63116263104126L105.49314822237885,357.872109894763L106.20042980989314,351.5106889991804L107.96863377867884,354.33798717499485L112.91960489127882,353.63116263104126L114.68780886006454,356.4584608068557L115.04144965382167,355.0448117189485L116.45601282885022,340.2014962959223L116.80965362260737,355.0448117189485L118.22421679763593,356.4584608068557L118.57785759139308,352.9243380870876L119.28513917890736,352.9243380870876L120.34606156017878,359.28575898267025L122.11426552896448,352.217513543134L122.46790632272163,353.63116263104126L122.82154711647877,347.9765662794122L124.58975108526448,334.54689994429333L124.94339187902162,348.68339082336587L125.29703267277877,349.39021536731946L126.35795505405018,336.6673735761542L129.54072219786445,342.32196992778324L130.24800378537873,316.16946180149904L132.36984854792158,323.2377072410353L134.49169331046443,358.5789344387166L134.84533410422156,345.85609264755135L136.9671788667644,331.01277722452517L138.02810124803582,344.4424435596441L139.4426644230644,350.80386445522674L140.85722759809298,354.33798717499485L141.56450918560725,346.562917191505L142.97907236063583,349.39021536731946L143.33271315439296,333.1332508563861L143.6863539481501,345.1492681035977L144.3936355356644,339.4946717519687L146.16183950445009,345.85609264755135L147.9300434732358,345.1492681035977L148.28368426699294,344.4424435596441L148.63732506075007,346.562917191505L153.9419369671072,354.33798717499485L156.41742252340717,347.2697417354586L158.53926728595002,340.90832083987596L158.89290807970715,343.7356190156905L159.60018966722146,345.1492681035977L160.30747125473573,291.4306027631221L161.7220344297643,331.01277722452517L164.9048015735786,345.85609264755135L165.61208316109287,347.9765662794122L165.96572395485,350.0970399112731L167.02664633612142,352.217513543134L169.14849109866427,347.9765662794122L171.9776174487214,355.0448117189485L172.33125824247853,335.96054903220056L173.39218062374997,334.54689994429333L173.7458214175071,309.10121636196277L176.92858856132136,290.01695367521484L177.2822293550785,331.7196017684788L181.1722780864071,347.2697417354586L182.23320046767853,343.7356190156905L182.58684126143567,335.253724488247L183.29412284894994,331.7196017684788L184.0014044364642,325.3581808728962L188.9523755490642,330.3059526805716L190.7205795178499,344.4424435596441L191.42786110536417,347.9765662794122L192.4887834866356,328.89230359266435L193.19606507414989,335.96054903220056L194.96426904293557,344.4424435596441L195.3179098366927,341.6151453838296L197.43975459923558,311.9285145377773L198.14703618674986,320.4104090652208L198.500676980507,337.37419812010785L199.2079585680213,346.562917191505L199.56159936177843,331.7196017684788L200.62252174304984,316.16946180149904L201.32980333056415,345.85609264755135L203.09800729934986,347.2697417354586L203.451648093107,331.7196017684788L206.63441523692123,328.1854790487107L207.34169682443553,318.99675997731356L208.75625999946408,336.6673735761542L209.10990079322124,323.2377072410353L209.46354158697838,302.0329709224265L210.87810476200696,347.9765662794122L212.2926679370355,322.53088269708167L212.64630873079267,314.7558127135918L213.70723111206408,325.3581808728962L214.41451269957835,333.1332508563861L214.76815349333552,337.37419812010785L215.12179428709265,347.9765662794122L215.47543508084976,341.6151453838296L215.8290758746069,337.37419812010785L216.18271666836404,350.80386445522674L216.88999825587834,322.53088269708167L217.24363904963548,316.8762863454527L219.0118430184212,294.96472548289023L219.36548381217833,289.31012913126125L220.7800469872069,342.32196992778324L221.8409693684783,338.08102266406144L222.54825095599261,340.90832083987596L224.67009571853546,326.7718299608034L225.37737730604974,317.58311088940627L227.14558127483542,331.01277722452517L228.560144449864,323.2377072410353L228.91378524362113,287.1896554994004L229.6210668311354,319.7035845212672L233.86475635622114,265.98491918079156L236.34024191252112,217.92085019194496L236.69388270627823,328.1854790487107L237.4011642937925,343.02879447173683L237.75480508754967,314.7558127135918L238.1084458813068,335.253724488247L238.46208667506394,270.2258664445133L239.16936826257822,311.22168999382365L240.23029064384966,340.90832083987596L241.64485381887823,316.8762863454527L241.99849461263537,315.4626372575454L243.41305778766394,298.4988482026584L244.47398016893536,262.45079646102346L245.88854334396393,295.6715500268439L246.94946572523537,338.08102266406144L247.30310651899248,323.2377072410353L247.65674731274962,323.2377072410353L248.01038810650675,338.08102266406144L248.3640289002639,332.42642631243245L249.0713104877782,311.22168999382365L249.42495128153533,290.7237782191685L249.77859207529247,328.89230359266435L250.8395144565639,304.860269098241L251.19315525032104,330.3059526805716L251.54679604407818,229.230042895203L252.25407763159245,327.47865450475706L252.96135921910675,318.99675997731356L253.3150000128639,232.76416561497112L255.79048556916388,198.12976296124344L256.8514079504353,343.02879447173683L258.26597112546386,330.3059526805716L259.32689350673525,335.96054903220056L260.0341750942496,304.860269098241L260.74145668176385,227.81639380729575L262.1560198567924,329.59912813661794L263.570583031821,337.37419812010785L264.6315054130924,306.9807427301019L264.98514620684955,337.37419812010785L265.3387870006067,280.82823460381775L265.6924277943638,289.31012913126125L267.8142725569067,297.08519911475116L269.9361173194495,147.945220340536L270.6433989069638,350.0970399112731L270.99703970072096,313.3421636256845L272.4116028757495,315.4626372575454L273.47252525702095,268.8122173566061L273.82616605077806,329.59912813661794L274.8870884320495,284.36235732358585L275.24072922580666,275.1736382521887L275.59437001956377,232.0573410710175L276.30165160707804,257.50302465334806L277.0089331945923,265.2780946368379L279.1307779571352,340.90832083987596L280.19170033840663,287.896480043354L280.54534113216374,283.6555327796322L281.6062635134352,261.7439719170698L281.9599043071923,311.22168999382365L282.3135451009495,311.22168999382365L283.0208266884638,288.6033045873076L283.3744674822209,321.8240581531281L285.4963122447637,268.10539281265244L286.9108754197923,177.63185118658828L287.2645162135494,348.68339082336587L287.9717978010637,299.9124972905656L288.679079388578,225.69592017543488L289.38636097609225,280.82823460381775L289.7400017698494,311.22168999382365L290.0936425636066,280.1214100598641L290.44728335736374,307.68756727405554L290.80092415112085,288.6033045873076L291.8618465323923,351.5106889991804L292.56912811990657,318.2899354333599L293.27640970742084,287.1896554994004L294.3373320886923,188.23421934589268L295.04461367620655,244.07335831822917L295.39825446996366,262.45079646102346L295.7518952637208,217.21402564799135L297.8737400262637,239.12558651055377L298.2273808200208,256.7962001093944L298.9346624075351,285.0691818675395L299.9955847888065,241.24606014241465L301.41014796383513,276.58728734009594L302.4710703451065,198.12976296124344L303.53199272637795,166.3226584833303L303.88563352013506,287.896480043354L304.59291510764933,280.82823460381775L305.30019669516366,189.6478684337999L306.00747828267794,272.3463400763742L307.7756822514636,280.1214100598641L308.83660463273503,223.57544654357397L309.54388622024936,318.99675997731356L314.84849812660644,260.3303228291626L316.263061301635,251.84842830171905L316.9703428891493,275.1736382521887L317.32398368290643,230.64369198311024L318.738546857935,203.78435931287245L319.44582844544925,195.30246478542892L319.7994692392064,290.7237782191685L320.86039162047786,249.02113012590453L321.56767320799213,97.05385317587485L322.2749547955064,237.71193742264654L323.33587717677784,13.648556989346957L324.0431587642921,277.2941118840496L324.3967995580492,274.46681370823507L325.10408114556355,173.3909039228665L326.5186443205921,201.66388568101158L327.93320749562065,218.6276747358986L330.40869305192064,215.80037656008412L330.7623338456778,306.9807427301019L331.1159746394349,181.87279845031003L331.4696154331921,227.81639380729575L332.1768970207064,244.07335831822917L333.2378194019778,103.41527407145753L333.59146019573495,166.3226584833303L333.94510098949206,197.42293841728983L335.0060233707635,193.18199115356805L335.3596641645206,128.15413310983445L335.7133049582778,148.6520448844896L336.06694575203494,249.02113012590453L338.89607210209203,201.66388568101158L339.24971289584914,126.03365947797354L340.31063527712064,95.64020408796762L342.78612083342057,221.45497291171313L343.84704321469206,83.62418684075601L346.67616956474916,109.77669496704016L347.02981035850627,73.72864322540522L347.7370919460206,13.648556989346957L348.0907327397777,190.35469297775356L348.4443735335349,130.27460674169532L349.50529591480625,251.1416037577654L349.8589367085634,138.04967672518524L350.5662182960777,162.0817112196085L351.273499883592,13.648556989346957L353.0417038523777,13.648556989346957L353.39534464613484,112.60399314285468L354.8099078211634,200.25023659310432L355.16354861492056,97.05385317587485L355.5171894086777,180.45914936240277L355.87083020243483,72.31499413749799L356.93175258370627,26.371398780512266L357.2853933774634,156.4271148679795L357.63903417122054,168.44313211519113L358.6999565524919,186.1137457140318L359.0535973462491,202.3707102249652L361.8827236963062,97.7606777198285L363.2972868713348,116.84494040657643L364.00456845884906,46.16248601121379L364.71185004636334,109.06987042308651L365.0654908401205,133.1019049175098L366.1264132213919,171.27043029100565L367.1873356026634,189.6478684337999L367.5409763964205,142.29062398890696L367.89461719017766,24.957749692604978L368.24825798393476,48.28295964307466L369.30918036520615,133.80872946146346L372.1383067152633,170.563605747052L372.84558830277757,92.81290591215316L373.55286989029184,89.98560773633858L374.2601514778062,13.648556989346957L374.61379227156334,56.058029626564576L375.6747146528347,115.43129131866914L376.381996240349,170.563605747052L377.08927782786327,13.648556989346957L378.85748179664904,60.298976890286326L381.33296735294897,105.5357477033184L381.6866081467061,13.648556989346957L382.7475305279776,61.00580143423991L383.45481211549185,163.49536030751574L385.5766568780347,136.63602763727795L385.93029767179183,128.8609576537881L386.6375792593061,133.80872946146346L387.3448608468204,165.61583393937664L388.75942402184893,155.72029032402585L390.17398719687753,54.64438053865729L390.8812687843918,13.648556989346957L392.64947275317746,204.49118385682607L393.0031135469346,280.1214100598641L393.3567543406918,95.64020408796762L395.8322398969918,82.91736229680237L396.1858806907489,143.70427307681422L398.30772545329177,109.06987042308651L399.7222886283203,145.11792216472145L400.0759294220775,13.648556989346957L400.4295702158346,89.27878319238499L403.61233735964885,142.99744853286057L404.3196189471631,37.680591483770286L405.3805413284346,13.648556989346957L407.50238609097744,51.81708236284277L407.85602688473455,13.648556989346957L409.27059005976315,13.648556989346957L410.3315124410346,29.905521500280372L410.6851532347917,63.83309961005443L411.03879402854886,13.648556989346957L412.09971640982025,53.23073145075L415.9897651411488,89.98560773633858L417.0506875224203,90.69243228029222L418.11160990369166,156.4271148679795L418.4652506974488,149.35886942844323L418.81889149120593,172.68407937891288L419.87981387247737,84.3310113847096L420.23345466623454,165.61583393937664L420.5870954599917,188.9410438898463L425.8917073663488,106.242572247272L426.95262974762016,98.46750226378214L427.65991133513444,60.298976890286326L428.01355212889166,13.648556989346957L428.72083371640593,13.648556989346957L429.07447451016304,13.648556989346957L430.1353968914345,13.648556989346957L431.19631927270586,13.648556989346957L431.5499600664631,152.89299214821136L432.25724165397736,79.3832395770342L432.9645232414916,22.837276060744102L433.67180482900585,13.648556989346957L434.3790864165201,13.648556989346957L435.4400087977916,13.648556989346957L436.1472903853059,13.648556989346957L436.85457197282017,13.648556989346957L437.56185356033444,13.648556989346957L438.2691351478487,13.648556989346957L438.976416735363,13.648556989346957L442.5128246729344,13.648556989346957L443.92738784796296,13.648556989346957L445.3419510229915,13.648556989346957L445.6955918167487,13.648556989346957L446.0492326105058,13.648556989346957L446.75651419802006,13.648556989346957L447.81743657929155,13.648556989346957L448.87835896056293,13.648556989346957L449.5856405480772,13.648556989346957L450.6465629293487,13.648556989346957L452.7684076918915,13.648556989346957L453.47568927940574,13.648556989346957L454.18297086692,13.648556989346957L454.53661166067724,13.648556989346957L455.5975340419486,13.648556989346957L455.9511748357058,13.648556989346957L456.3048156294629,13.648556989346957L457.36573801073433,13.648556989346957L460.1948643607915,13.648556989346957L461.96306832957714,106.242572247272L462.67034991709147,13.648556989346957L464.7921946796343,13.648556989346957L466.2067578546629,14.355381533300601L466.56039864842,22.13045151679046L466.91403944217717,53.23073145075L467.2676802359343,92.81290591215316L469.3895249984771,13.648556989346957L470.4504473797486,13.648556989346957L472.9259329360485,13.648556989346957L473.63321452356286,13.648556989346957L474.69413690483424,13.648556989346957L475.0477776985914,13.648556989346957L476.1087000798628,13.648556989346957L476.46234087361995,114.72446677471555L478.23054484240566,13.648556989346957L478.58418563616283,13.648556989346957L478.93782642991994,13.648556989346957L479.9987488111914,29.905521500280372L481.05967119246276,13.648556989346957L481.41331198622,13.648556989346957L481.7669527799771,13.648556989346957L482.12059357373425,13.648556989346957L482.47423436749136,13.648556989346957L484.5960791300342,13.648556989346957L486.71792389257706,13.648556989346957L488.83976865511994,13.648556989346957L490.2543318301485,13.648556989346957L490.96161341766276,13.648556989346957L492.7298173864485,13.648556989346957L494.144380561477,13.648556989346957L496.619866117777,13.648556989346957L497.3271477052913,13.648556989346957L498.3880700865627,13.648556989346957L499.095351674077,13.648556989346957L499.4489924678341,13.648556989346957L500.5099148491056,13.648556989346957L500.8635556428627,13.648556989346957L501.570837230377,13.648556989346957L501.92447802413415,13.648556989346957L502.9854004054055,13.648556989346957L508.99729389927694,13.648556989346957L509.3509346930341,13.648556989346957L509.7045754867912,13.648556989346957L510.0582162805484,13.648556989346957L511.4727794555769,13.648556989346957L512.5337018368483,13.648556989346957L513.948265011877,13.648556989346957L514.3019058056341,13.648556989346957L514.6555465993912,13.648556989346957L516.0701097744197,13.648556989346957L516.423750568177,13.648556989346957L516.7773913619341,13.648556989346957L517.4846729494483,13.648556989346957L518.1919545369626,13.648556989346957L518.8992361244769,13.648556989346957L519.6065177119912,13.648556989346957L522.4356440620484,13.648556989346957L524.203848030834,13.648556989346957L524.5574888245911,13.648556989346957L527.7402559684054,13.648556989346957L528.0938967621626,13.648556989346957L531.9839454934911,13.648556989346957L533.7521494622769,13.648556989346957L534.8130718435483,13.648556989346957L535.1667126373054,13.648556989346957L536.2276350185768,13.648556989346957L536.9349166060912,13.648556989346957L537.2885573998483,13.648556989346957L540.1176837499054,13.648556989346957L540.4713245436625,13.648556989346957L540.8249653374197,13.648556989346957L541.1786061311768,13.648556989346957L542.2395285124483,13.648556989346957L542.9468100999625,13.648556989346957L543.3004508937196,13.648556989346957L543.6540916874768,13.648556989346957L546.4832180375339,13.648556989346957L548.2514220063197,13.648556989346957L548.6050628000768,13.648556989346957L549.6659851813481,13.648556989346957L552.1414707376482,13.648556989346957L552.8487523251624,13.648556989346957L556.385160262734,13.648556989346957L558.1533642315195,13.648556989346957L558.5070050252767,13.648556989346957L559.214286612791,13.648556989346957L559.567927406548,13.648556989346957L561.689772169091,13.648556989346957L562.043412962848,13.648556989346957L564.165257725391,13.648556989346957L564.5188985191481,13.648556989346957L567.7016656629623,13.648556989346957L569.1162288379909,13.648556989346957L569.8235104255052,13.648556989346957L571.2380736005339,13.648556989346957L574.420840744348,13.648556989346957L575.1281223318624,13.648556989346957L576.1890447131337,13.648556989346957L576.8963263006481,13.648556989346957L577.2499670944052,13.648556989346957L579.018171063191,13.648556989346957L580.0790934444623,13.648556989346957L581.847297413248,13.648556989346957L582.5545790007623,13.648556989346957L583.9691421757908,13.648556989346957L584.6764237633051,13.648556989346957L585.0300645570624,13.648556989346957L585.3837053508194,13.648556989346957L586.0909869383337,13.648556989346957L586.798268525848,164.909009395423L588.5664724946337,13.648556989346957L589.6273948759051,13.648556989346957L590.3346764634194,13.648556989346957L591.3955988446909,13.648556989346957L592.4565212259622,13.648556989346957L593.8710844009908,13.648556989346957L594.9320067822622,13.648556989346957L596.3465699572907,13.648556989346957L596.700210751048,13.648556989346957L597.0538515448051,13.648556989346957L599.529337101105,13.648556989346957L600.2366186886194,13.648556989346957L600.9439002761336,13.648556989346957L602.004822657405,13.648556989346957L602.3584634511623,13.648556989346957L604.480308213705,13.648556989346957L604.8339490074621,13.648556989346957L606.2485121824908,13.648556989346957L607.6630753575193,13.648556989346957L608.7239977387907,13.648556989346957L609.0776385325479,13.648556989346957L609.4312793263051,13.648556989346957L609.7849201200622,13.648556989346957L610.4922017075764,13.648556989346957L611.5531240888479,13.648556989346957L614.0286096451479,13.648556989346957L614.382250438905,13.648556989346957L616.1504544076907,13.648556989346957L616.857735995205,13.648556989346957L617.2113767889622,13.648556989346957L617.5650175827193,13.648556989346957L620.7477847265336,13.648556989346957L622.1623479015622,13.648556989346957L622.5159886953193,13.648556989346957L622.8696294890764,13.648556989346957L623.2232702828336,13.648556989346957L623.9305518703478,13.648556989346957L625.6987558391336,13.648556989346957L626.0523966328907,13.648556989346957L626.7596782204049,13.648556989346957L627.1133190141621,13.648556989346957L627.4669598079192,13.648556989346957L628.5278821891907,13.648556989346957L629.2351637767049,13.648556989346957L629.5888045704621,13.648556989346957L629.9424453642192,13.648556989346957L633.1252125080335,13.648556989346957L634.186134889305,13.648556989346957L637.3689020331192,13.648556989346957L639.4907467956621,13.648556989346957L639.8443875894193,13.648556989346957L641.966232351962,13.648556989346957L642.3198731457192,13.648556989346957L642.6735139394764,13.648556989346957L643.3807955269906,13.648556989346957L645.5026402895334,13.648556989346957L647.6244850520764,13.648556989346957L647.9781258458335,13.648556989346957L650.8072521958906,13.648556989346957L651.1608929896477,13.648556989346957L652.2218153709192,13.648556989346957L653.2827377521905,13.648556989346957L654.6973009272191,13.648556989346957L655.4045825147334,13.648556989346957L656.819145689762,13.648556989346957L658.9409904523048,13.648556989346957L660.3555536273334,13.648556989346957L660.7091944210905,13.648556989346957L661.7701168023619,13.648556989346957L662.4773983898762,13.648556989346957L663.5383207711476,13.648556989346957L664.9528839461761,13.648556989346957L665.6601655336905,13.648556989346957L666.3674471212047,13.648556989346957L666.7210879149619,13.648556989346957L667.0747287087191,13.648556989346957L669.550214265019,13.648556989346957L670.2574958525332,13.648556989346957L670.6111366462904,13.648556989346957L672.7329814088333,13.648556989346957L673.0866222025904,13.648556989346957L673.4402629963475,13.648556989346957L674.147544583862,13.648556989346957L674.8548261713762,13.648556989346957L679.0985156964618,13.648556989346957L682.2812828402762,13.648556989346957L683.6958460153047,13.648556989346957L685.4640499840904,13.648556989346957L685.8176907778476,13.648556989346957L687.5858947466332,13.648556989346957L687.9395355403904,13.648556989346957L688.2931763341475,13.648556989346957L689.7077395091761,13.648556989346957L690.0613803029332,13.648556989346957L692.183225065476,13.648556989346957L693.5977882405047,13.648556989346957L693.9514290342618,13.648556989346957L694.305069828019,13.648556989346957L695.0123514155332,13.648556989346957L695.3659922092903,13.648556989346957L697.1341961780761,13.648556989346957L698.1951185593475,13.648556989346957L698.9024001468617,13.648556989346957L699.9633225281332,13.648556989346957L701.0242449094046,13.648556989346957L702.085167290676,13.648556989346957L702.7924488781904,13.648556989346957L704.9142936407331,13.648556989346957L705.2679344344904,13.648556989346957L705.9752160220046,13.648556989346957L706.6824976095189,13.648556989346957L709.8652647533331,13.648556989346957L710.2189055470902,13.648556989346957L710.5725463408475,13.648556989346957L710.9261871346046,13.648556989346957L715.8771582472045,13.648556989346957L717.2917214222331,13.648556989346957L718.7062845972616,13.648556989346957L719.0599253910189,13.648556989346957L720.1208477722903,13.648556989346957L720.4744885660474,13.648556989346957L721.5354109473188,13.648556989346957L722.242692534833,13.648556989346957L722.9499741223474,13.648556989346957L724.7181780911332,13.648556989346957L725.7791004724045,13.648556989346957L726.4863820599187,13.648556989346957L726.8400228536759,13.648556989346957L727.5473044411902,13.648556989346957L728.6082268224617,13.648556989346957L729.669149203733,13.648556989346957L730.3764307912472,13.648556989346957L731.4373531725188,13.648556989346957L732.4982755537902,13.648556989346957L732.8519163475473,13.648556989346957L733.9128387288188,13.648556989346957L734.9737611100901,13.648556989346957L737.8028874601473,13.648556989346957L738.1565282539044,13.648556989346957L738.8638098414186,13.648556989346957L740.6320138102044,13.648556989346957L742.4002177789902,13.648556989346957L742.7538585727472,13.648556989346957L743.1074993665044,13.648556989346957L743.8147809540187,13.648556989346957L744.1684217477758,13.648556989346957L744.8757033352902,13.648556989346957L745.5829849228044,13.648556989346957L746.6439073040758,13.648556989346957L746.9975480978329,13.648556989346957L748.4121112728615,13.648556989346957L750.1803152416472,13.648556989346957L750.8875968291615,13.648556989346957L753.0094415917043,13.648556989346957L753.3630823854616,13.648556989346957L753.7167231792185,13.648556989346957L754.0703639729758,13.648556989346957L754.4240047667329,13.648556989346957L755.4849271480043,13.648556989346957L756.1922087355186,13.648556989346957L757.2531311167901,13.648556989346957L757.6067719105472,13.648556989346957L758.6676942918186,13.648556989346957L759.3749758793329,13.648556989346957L760.0822574668472,13.648556989346957L760.4358982606043,13.648556989346957L760.7895390543614,13.648556989346957L762.20410222939,13.648556989346957L763.6186654044186,13.648556989346957L763.9723061981757,13.648556989346957L764.3259469919329,13.648556989346957L765.7405101669615,13.648556989346957L766.0941509607185,13.648556989346957L766.8014325482329,13.648556989346957L767.15507334199,13.648556989346957L767.8623549295042,13.648556989346957L768.2159957232615,13.648556989346957L768.5696365170186,13.648556989346957L769.2769181045328,13.648556989346957L769.63055889829,13.648556989346957L770.3378404858042,13.648556989346957L771.3987628670757,13.648556989346957L772.10604445459,13.648556989346957L772.4596852483471,13.648556989346957L774.58153001089,13.648556989346957L774.9351708046471,13.648556989346957L775.2888115984043,13.648556989346957L776.7033747734329,13.648556989346957L777.4106563609471,13.648556989346957L778.1179379484614,13.648556989346957L779.53250112349,13.648556989346957L782.00798667979,13.648556989346957L783.0689090610614,13.648556989346957L783.7761906485756,13.648556989346957L784.4834722360899,13.648556989346957L784.837113029847,13.648556989346957L786.2516762048757,13.648556989346957L786.9589577923899,13.648556989346957L787.312598586147,13.648556989346957L787.6662393799043,13.648556989346957L788.7271617611756,13.648556989346957L789.0808025549328,13.648556989346957L790.1417249362042,13.648556989346957L790.4953657299613,13.648556989346957L791.5562881112328,13.648556989346957L792.6172104925041,13.648556989346957L794.0317736675328,13.648556989346957L796.1536184300755,13.648556989346957L796.5072592238326,13.648556989346957L797.5681816051041,13.648556989346957L797.9218223988613,13.648556989346957L798.6291039863756,13.648556989346957L799.3363855738899,13.648556989346957L799.690026367647,13.648556989346957L800.3973079551612,13.648556989346957L800.7509487489184,13.648556989346957L801.4582303364327,13.648556989346957L801.8118711301898,13.648556989346957L802.165511923947,13.648556989346957L802.5191527177042,13.648556989346957L803.2264343052184,13.648556989346957L803.9337158927327,13.648556989346957L804.2873566864897,13.648556989346957L805.7019198615184,13.648556989346957L806.0555606552755,13.648556989346957L806.7628422427898,13.648556989346957L807.8237646240613,13.648556989346957L808.5310462115755,13.648556989346957L809.591968592847,13.648556989346957L813.8356581179326,13.648556989346957L815.2502212929611,13.648556989346957L816.3111436742327,13.648556989346957L818.0793476430183,13.648556989346957L818.7866292305326,13.648556989346957L819.8475516118041,13.648556989346957L821.969396374347,13.648556989346957L822.323037168104,13.648556989346957L823.0303187556183,13.648556989346957L824.0912411368897,13.648556989346957L825.1521635181612,13.648556989346957L825.5058043119183,13.648556989346957L825.8594451056755,13.648556989346957L829.0422122494897,13.648556989346957L829.3958530432468,13.648556989346957L829.749493837004,13.648556989346957L830.1031346307611,13.648556989346957L830.8104162182753,13.648556989346957L831.5176978057898,13.648556989346957L832.5786201870611,13.648556989346957L834.3468241558469,13.648556989346957L835.0541057433611,13.648556989346957L835.4077465371183,13.648556989346957L835.7613873308753,13.648556989346957L836.1150281246325,13.648556989346957L838.9441544746896,13.648556989346957L842.126921618504,13.648556989346957L843.8951255872897,13.648556989346957L846.7242519373467,13.648556989346957L847.0778927311039,13.648556989346957L848.1388151123753,13.648556989346957L849.5533782874038,13.648556989346957L850.6143006686754,13.648556989346957L852.0288638437039,13.648556989346957L853.0897862249753,13.648556989346957L854.1507086062468,13.648556989346957L854.5043494000039,13.648556989346957L854.8579901937611,13.648556989346957L855.5652717812753,13.648556989346957L858.3943981313324,13.648556989346957L859.1016797188466,13.648556989346957L859.808961306361,13.648556989346957L860.5162428938752,13.648556989346957L862.284446862661,13.648556989346957L864.0526508314467,13.648556989346957L866.8817771815038,13.648556989346957L867.2354179752609,13.648556989346957L867.589058769018,13.648556989346957L869.0036219440466,13.648556989346957L870.064544325318,13.648556989346957L871.1254667065896,13.648556989346957L873.9545930566467,13.648556989346957L874.6618746441609,13.648556989346957L876.0764378191894,13.648556989346957L876.4300786129467,13.648556989346957L876.7837194067037,13.648556989346957L877.1373602004609,13.648556989346957L877.8446417879752,13.648556989346957L878.5519233754894,13.648556989346957L879.6128457567609,13.648556989346957L880.6737681380324,13.648556989346957L881.0274089317894,13.648556989346957L881.7346905193037,13.648556989346957L882.441972106818,13.648556989346957L884.9174576631181,13.648556989346957L886.3320208381466,13.648556989346957L887.0393024256608,13.648556989346957L887.746584013175,13.648556989346957L888.4538656006895,13.648556989346957L888.8075063944466,13.648556989346957L889.5147879819608,13.648556989346957L890.5757103632322,13.648556989346957L891.2829919507466,13.648556989346957L892.343914332018,13.648556989346957L893.0511959195323,13.648556989346957L894.1121183008037,13.648556989346957L894.4657590945609,13.648556989346957L894.8193998883179,13.648556989346957L898.3558078258894,13.648556989346957L898.7094486196464,13.648556989346957L899.4167302071608,13.648556989346957L899.770371000918,13.648556989346957L900.1240117946751,13.648556989346957L900.4776525884322,13.648556989346957L901.5385749697036,13.648556989346957L901.8922157634607,13.648556989346957L902.5994973509751,13.648556989346957L903.6604197322465,13.648556989346957L904.3677013197607,13.648556989346957L905.0749829072751,13.648556989346957L905.7822644947893,13.648556989346957L908.9650316386036,13.648556989346957L909.3186724323608,13.648556989346957L910.3795948136321,13.648556989346957L911.0868764011464,13.648556989346957L911.7941579886608,13.648556989346957L912.501439576175,13.648556989346957L913.2087211636893,13.648556989346957L913.5623619574465,13.648556989346957L914.6232843387179,13.648556989346957L916.7451291012607,13.648556989346957L917.0987698950179,13.648556989346957L918.5133330700464,13.648556989346957L919.5742554513179,13.648556989346957L920.6351778325892,13.648556989346957L921.3424594201035,13.648556989346957L921.6961002138607,13.648556989346957L923.1106633888893,13.648556989346957L924.5252265639178,13.648556989346957L925.5861489451893,13.648556989346957L925.9397897389464,13.648556989346957L926.2934305327035,13.648556989346957L926.6470713264607,13.648556989346957L927.707993707732,13.648556989346957L929.1225568827606,13.648556989346957L929.8298384702749,13.648556989346957L931.2444016453036,13.648556989346957L931.5980424390606,13.648556989346957L932.3053240265749,13.648556989346957L932.6589648203321,13.648556989346957L934.4271687891177,13.648556989346957L935.4880911703892,13.648556989346957L935.8417319641463,13.648556989346957L936.5490135516607,13.648556989346957L937.2562951391749,13.648556989346957L937.9635767266892,13.648556989346957L938.3172175204464,13.648556989346957L939.3781399017178,13.648556989346957L939.731780695475,13.648556989346957L940.4390622829892,13.648556989346957L941.4999846642605,13.648556989346957L941.8536254580177,13.648556989346957L942.560907045532,13.648556989346957L944.6827518080748,13.648556989346957L945.7436741893463,13.648556989346957L946.8045965706177,13.648556989346957L947.1582373643748,13.648556989346957L948.5728005394034,13.648556989346957L950.6946453019464,13.648556989346957L955.2919756207891,13.648556989346957L956.7065387958177,13.648556989346957L957.413820383332,13.648556989346957L959.1820243521177,13.648556989346957L960.2429467333891,13.648556989346957L960.9502283209033,13.648556989346957L962.364791495932,13.648556989346957L964.1329954647176,13.648556989346957L965.5475586397463,13.648556989346957L966.9621218147748,13.648556989346957L968.0230441960462,13.648556989346957L971.2058113398605,13.648556989346957L973.3276561024034,13.648556989346957L976.8640640399747,13.648556989346957L977.2177048337319,13.648556989346957L977.571345627489,13.648556989346957L978.6322680087604,13.648556989346957L978.9859088025175,13.648556989346957L980.7541127713033,13.648556989346957L981.4613943588175,13.648556989346957L982.8759575338461,13.648556989346957L983.2295983276033,13.648556989346957L983.5832391213603,13.648556989346957L983.9368799151175,13.648556989346957L984.2905207088747,13.648556989346957L984.6441615026318,13.648556989346957L984.997802296389,13.648556989346957L987.826928646446,13.648556989346957L988.8878510277176,13.648556989346957L991.0096957902604,13.648556989346957L992.4242589652889,13.648556989346957L995.9606669028603,13.648556989346957L996.3143076966174,13.648556989346957L996.6679484903747,13.648556989346957L999.1434340466745,13.648556989346957L1000.9116380154603,13.648556989346957L1001.9725603967318,13.648556989346957L1002.6798419842461,13.648556989346957L1003.0334827780031,13.648556989346957L1003.3871235717603,13.648556989346957L1003.7407643655175,13.648556989346957L1005.1553275405461,13.648556989346957L1007.9844538906032,13.648556989346957L1008.3380946843603,13.648556989346957L1009.3990170656317,13.648556989346957L1010.1062986531459,13.648556989346957L1010.4599394469031,13.648556989346957L1011.1672210344174,13.648556989346957L1012.9354250032031,13.648556989346957L1015.4109105595031,13.648556989346957L1016.1181921470175,13.648556989346957L1017.1791145282888,13.648556989346957L1017.886396115803,13.648556989346957L1019.6546000845888,13.648556989346957L1020.7155224658602,13.648556989346957L1021.7764448471316,13.648556989346957L1024.959211990946,13.648556989346957L1025.312852784703,13.648556989346957L1026.3737751659744,13.648556989346957L1027.4346975472458,13.648556989346957L1028.1419791347603,13.648556989346957L1028.4956199285173,13.648556989346957L1030.6174646910601,13.648556989346957L1031.6783870723316,13.648556989346957L1032.0320278660888,13.648556989346957L1032.739309453603,13.648556989346957L1033.8002318348745,13.648556989346957L1034.5075134223887,13.648556989346957L1035.2147950099031,13.648556989346957L1036.2757173911743,13.648556989346957L1036.6293581849316,13.648556989346957L1036.9829989786886,13.648556989346957L1039.4584845349887,13.648556989346957L1041.2266885037743,13.648556989346957L1041.9339700912888,13.648556989346957L1042.287610885046,13.648556989346957L1042.641251678803,13.648556989346957L1044.0558148538314,13.648556989346957L1044.4094556475886,13.648556989346957L1046.1776596163745,13.648556989346957L1046.5313004101315,13.648556989346957L1047.94586358516,13.648556989346957L1049.0067859664316,13.648556989346957L1049.3604267601886,13.648556989346957L1050.067708347703,13.648556989346957L1052.543193904003,13.648556989346957L1052.8968346977601,13.648556989346957L1054.6650386665458,13.648556989346957L1058.9087281916313,13.648556989346957L1060.6769321604172,13.648556989346957L1061.3842137479314,13.648556989346957L1061.7378545416886,13.648556989346957L1062.79877692296,13.648556989346957L1063.152417716717,13.648556989346957L1066.3351848605314,13.648556989346957L1068.4570296230743,13.648556989346957L1069.8715927981027,13.648556989346957L1070.22523359186,13.648556989346957" fill="none"></path></g></g></g></g></g></g><g transform="translate(39, 378)" clip-path="url(#clip_1)"><clipPath id="clip_1"><rect width="1089" height="21"></rect></clipPath><g><g><line x1="9.302852320436456" y1="0" x2="9.302852320436456" y2="5" style="visibility: inherit;" fill="rgb(0, 0, 0)" stroke="rgb(204, 204, 204)" stroke-width="1px"></line><line x1="80.03101107186468" y1="0" x2="80.03101107186468" y2="5" style="visibility: inherit;" fill="rgb(0, 0, 0)" stroke="rgb(204, 204, 204)" stroke-width="1px"></line><line x1="150.75916982329292" y1="0" x2="150.75916982329292" y2="5" style="visibility: inherit;" fill="rgb(0, 0, 0)" stroke="rgb(204, 204, 204)" stroke-width="1px"></line><line x1="221.48732857472118" y1="0" x2="221.48732857472118" y2="5" style="visibility: inherit;" fill="rgb(0, 0, 0)" stroke="rgb(204, 204, 204)" stroke-width="1px"></line><line x1="292.2154873261494" y1="0" x2="292.2154873261494" y2="5" style="visibility: inherit;" fill="rgb(0, 0, 0)" stroke="rgb(204, 204, 204)" stroke-width="1px"></line><line x1="362.9436460775777" y1="0" x2="362.9436460775777" y2="5" style="visibility: inherit;" fill="rgb(0, 0, 0)" stroke="rgb(204, 204, 204)" stroke-width="1px"></line><line x1="433.67180482900585" y1="0" x2="433.67180482900585" y2="5" style="visibility: inherit;" fill="rgb(0, 0, 0)" stroke="rgb(204, 204, 204)" stroke-width="1px"></line><line x1="504.39996358043413" y1="0" x2="504.39996358043413" y2="5" style="visibility: inherit;" fill="rgb(0, 0, 0)" stroke="rgb(204, 204, 204)" stroke-width="1px"></line><line x1="575.1281223318624" y1="0" x2="575.1281223318624" y2="5" style="visibility: inherit;" fill="rgb(0, 0, 0)" stroke="rgb(204, 204, 204)" stroke-width="1px"></line><line x1="645.8562810832906" y1="0" x2="645.8562810832906" y2="5" style="visibility: inherit;" fill="rgb(0, 0, 0)" stroke="rgb(204, 204, 204)" stroke-width="1px"></line><line x1="716.5844398347189" y1="0" x2="716.5844398347189" y2="5" style="visibility: inherit;" fill="rgb(0, 0, 0)" stroke="rgb(204, 204, 204)" stroke-width="1px"></line><line x1="787.312598586147" y1="0" x2="787.312598586147" y2="5" style="visibility: inherit;" fill="rgb(0, 0, 0)" stroke="rgb(204, 204, 204)" stroke-width="1px"></line><line x1="858.0407573375753" y1="0" x2="858.0407573375753" y2="5" style="visibility: inherit;" fill="rgb(0, 0, 0)" stroke="rgb(204, 204, 204)" stroke-width="1px"></line><line x1="928.7689160890036" y1="0" x2="928.7689160890036" y2="5" style="visibility: inherit;" fill="rgb(0, 0, 0)" stroke="rgb(204, 204, 204)" stroke-width="1px"></line><line x1="999.4970748404318" y1="0" x2="999.4970748404318" y2="5" style="visibility: inherit;" fill="rgb(0, 0, 0)" stroke="rgb(204, 204, 204)" stroke-width="1px"></line><line x1="1070.22523359186" y1="0" x2="1070.22523359186" y2="5" style="visibility: inherit;" fill="rgb(0, 0, 0)" stroke="rgb(204, 204, 204)" stroke-width="1px"></line></g><g transform="translate(0, 8)"><text style="text-anchor: middle; visibility: inherit; font-family: &quot;Helvetica Neue&quot;, sans-serif; font-size: 12px; font-weight: 200;" x="9.302852320436456" y="0" dx="0em" dy="0.95em" fill="rgb(50, 49, 63)" stroke="none" stroke-width="1px">0</text><text style="text-anchor: middle; visibility: inherit; font-family: &quot;Helvetica Neue&quot;, sans-serif; font-size: 12px; font-weight: 200;" x="80.03101107186468" y="0" dx="0em" dy="0.95em" fill="rgb(50, 49, 63)" stroke="none" stroke-width="1px">200</text><text style="text-anchor: middle; visibility: inherit; font-family: &quot;Helvetica Neue&quot;, sans-serif; font-size: 12px; font-weight: 200;" x="150.75916982329292" y="0" dx="0em" dy="0.95em" fill="rgb(50, 49, 63)" stroke="none" stroke-width="1px">400</text><text style="text-anchor: middle; visibility: inherit; font-family: &quot;Helvetica Neue&quot;, sans-serif; font-size: 12px; font-weight: 200;" x="221.48732857472118" y="0" dx="0em" dy="0.95em" fill="rgb(50, 49, 63)" stroke="none" stroke-width="1px">600</text><text style="text-anchor: middle; visibility: inherit; font-family: &quot;Helvetica Neue&quot;, sans-serif; font-size: 12px; font-weight: 200;" x="292.2154873261494" y="0" dx="0em" dy="0.95em" fill="rgb(50, 49, 63)" stroke="none" stroke-width="1px">800</text><text style="text-anchor: middle; visibility: inherit; font-family: &quot;Helvetica Neue&quot;, sans-serif; font-size: 12px; font-weight: 200;" x="362.9436460775777" y="0" dx="0em" dy="0.95em" fill="rgb(50, 49, 63)" stroke="none" stroke-width="1px">1k</text><text style="text-anchor: middle; visibility: inherit; font-family: &quot;Helvetica Neue&quot;, sans-serif; font-size: 12px; font-weight: 200;" x="433.67180482900585" y="0" dx="0em" dy="0.95em" fill="rgb(50, 49, 63)" stroke="none" stroke-width="1px">1.2k</text><text style="text-anchor: middle; visibility: inherit; font-family: &quot;Helvetica Neue&quot;, sans-serif; font-size: 12px; font-weight: 200;" x="504.39996358043413" y="0" dx="0em" dy="0.95em" fill="rgb(50, 49, 63)" stroke="none" stroke-width="1px">1.4k</text><text style="text-anchor: middle; visibility: inherit; font-family: &quot;Helvetica Neue&quot;, sans-serif; font-size: 12px; font-weight: 200;" x="575.1281223318624" y="0" dx="0em" dy="0.95em" fill="rgb(50, 49, 63)" stroke="none" stroke-width="1px">1.6k</text><text style="text-anchor: middle; visibility: inherit; font-family: &quot;Helvetica Neue&quot;, sans-serif; font-size: 12px; font-weight: 200;" x="645.8562810832906" y="0" dx="0em" dy="0.95em" fill="rgb(50, 49, 63)" stroke="none" stroke-width="1px">1.8k</text><text style="text-anchor: middle; visibility: inherit; font-family: &quot;Helvetica Neue&quot;, sans-serif; font-size: 12px; font-weight: 200;" x="716.5844398347189" y="0" dx="0em" dy="0.95em" fill="rgb(50, 49, 63)" stroke="none" stroke-width="1px">2k</text><text style="text-anchor: middle; visibility: inherit; font-family: &quot;Helvetica Neue&quot;, sans-serif; font-size: 12px; font-weight: 200;" x="787.312598586147" y="0" dx="0em" dy="0.95em" fill="rgb(50, 49, 63)" stroke="none" stroke-width="1px">2.2k</text><text style="text-anchor: middle; visibility: inherit; font-family: &quot;Helvetica Neue&quot;, sans-serif; font-size: 12px; font-weight: 200;" x="858.0407573375753" y="0" dx="0em" dy="0.95em" fill="rgb(50, 49, 63)" stroke="none" stroke-width="1px">2.4k</text><text style="text-anchor: middle; visibility: inherit; font-family: &quot;Helvetica Neue&quot;, sans-serif; font-size: 12px; font-weight: 200;" x="928.7689160890036" y="0" dx="0em" dy="0.95em" fill="rgb(50, 49, 63)" stroke="none" stroke-width="1px">2.6k</text><text style="text-anchor: middle; visibility: inherit; font-family: &quot;Helvetica Neue&quot;, sans-serif; font-size: 12px; font-weight: 200;" x="999.4970748404318" y="0" dx="0em" dy="0.95em" fill="rgb(50, 49, 63)" stroke="none" stroke-width="1px">2.8k</text><text style="text-anchor: middle; visibility: inherit; font-family: &quot;Helvetica Neue&quot;, sans-serif; font-size: 12px; font-weight: 200;" x="1070.22523359186" y="0" dx="0em" dy="0.95em" fill="rgb(50, 49, 63)" stroke="none" stroke-width="1px">3k</text></g><line x1="0" y1="0" x2="1089.4119991302491" y2="0" fill="rgb(0, 0, 0)" stroke="rgb(204, 204, 204)" stroke-width="1px"></line></g></g></g></g></svg>