<svg viewBox="0 0 1112.5999755859375 400" xmlns="http://www.w3.org/2000/svg"><g><g><g><g><g><line x1="49.98400115966797" y1="365.1966117144388" x2="44.98400115966797" y2="365.1966117144388" style="visibility: inherit;" fill="rgb(0, 0, 0)" stroke="rgb(204, 204, 204)" stroke-width="1px"></line><line x1="49.98400115966797" y1="320.62446696512427" x2="44.98400115966797" y2="320.62446696512427" style="visibility: inherit;" fill="rgb(0, 0, 0)" stroke="rgb(204, 204, 204)" stroke-width="1px"></line><line x1="49.98400115966797" y1="276.0523222158098" x2="44.98400115966797" y2="276.0523222158098" style="visibility: inherit;" fill="rgb(0, 0, 0)" stroke="rgb(204, 204, 204)" stroke-width="1px"></line><line x1="49.98400115966797" y1="231.48017746649532" x2="44.98400115966797" y2="231.48017746649532" style="visibility: inherit;" fill="rgb(0, 0, 0)" stroke="rgb(204, 204, 204)" stroke-width="1px"></line><line x1="49.98400115966797" y1="186.90803271718084" x2="44.98400115966797" y2="186.90803271718084" style="visibility: inherit;" fill="rgb(0, 0, 0)" stroke="rgb(204, 204, 204)" stroke-width="1px"></line><line x1="49.98400115966797" y1="142.33588796786634" x2="44.98400115966797" y2="142.33588796786634" style="visibility: inherit;" fill="rgb(0, 0, 0)" stroke="rgb(204, 204, 204)" stroke-width="1px"></line><line x1="49.98400115966797" y1="97.76374321855184" x2="44.98400115966797" y2="97.76374321855184" style="visibility: inherit;" fill="rgb(0, 0, 0)" stroke="rgb(204, 204, 204)" stroke-width="1px"></line><line x1="49.98400115966797" y1="53.19159846923736" x2="44.98400115966797" y2="53.19159846923736" style="visibility: inherit;" fill="rgb(0, 0, 0)" stroke="rgb(204, 204, 204)" stroke-width="1px"></line><line x1="49.98400115966797" y1="8.61945371992283" x2="44.98400115966797" y2="8.61945371992283" style="visibility: inherit;" fill="rgb(0, 0, 0)" stroke="rgb(204, 204, 204)" stroke-width="1px"></line></g><g transform="translate(39.98400115966797, 0)"><text style="text-anchor: end; visibility: inherit; font-family: &quot;Helvetica Neue&quot;, sans-serif; font-size: 12px; font-weight: 200;" x="0" y="365.1966117144388" dx="0em" dy="0.3em" fill="rgb(50, 49, 63)" stroke="none" stroke-width="1px">-500</text><text style="text-anchor: end; visibility: inherit; font-family: &quot;Helvetica Neue&quot;, sans-serif; font-size: 12px; font-weight: 200;" x="0" y="320.62446696512427" dx="0em" dy="0.3em" fill="rgb(50, 49, 63)" stroke="none" stroke-width="1px">-400</text><text style="text-anchor: end; visibility: inherit; font-family: &quot;Helvetica Neue&quot;, sans-serif; font-size: 12px; font-weight: 200;" x="0" y="276.0523222158098" dx="0em" dy="0.3em" fill="rgb(50, 49, 63)" stroke="none" stroke-width="1px">-300</text><text style="text-anchor: end; visibility: inherit; font-family: &quot;Helvetica Neue&quot;, sans-serif; font-size: 12px; font-weight: 200;" x="0" y="231.48017746649532" dx="0em" dy="0.3em" fill="rgb(50, 49, 63)" stroke="none" stroke-width="1px">-200</text><text style="text-anchor: end; visibility: inherit; font-family: &quot;Helvetica Neue&quot;, sans-serif; font-size: 12px; font-weight: 200;" x="0" y="186.90803271718084" dx="0em" dy="0.3em" fill="rgb(50, 49, 63)" stroke="none" stroke-width="1px">-100</text><text style="text-anchor: end; visibility: inherit; font-family: &quot;Helvetica Neue&quot;, sans-serif; font-size: 12px; font-weight: 200;" x="0" y="142.33588796786634" dx="0em" dy="0.3em" fill="rgb(50, 49, 63)" stroke="none" stroke-width="1px">0</text><text style="text-anchor: end; visibility: inherit; font-family: &quot;Helvetica Neue&quot;, sans-serif; font-size: 12px; font-weight: 200;" x="0" y="97.76374321855184" dx="0em" dy="0.3em" fill="rgb(50, 49, 63)" stroke="none" stroke-width="1px">100</text><text style="text-anchor: end; visibility: inherit; font-family: &quot;Helvetica Neue&quot;, sans-serif; font-size: 12px; font-weight: 200;" x="0" y="53.19159846923736" dx="0em" dy="0.3em" fill="rgb(50, 49, 63)" stroke="none" stroke-width="1px">200</text><text style="text-anchor: end; visibility: inherit; font-family: &quot;Helvetica Neue&quot;, sans-serif; font-size: 12px; font-weight: 200;" x="0" y="8.61945371992283" dx="0em" dy="0.3em" fill="rgb(50, 49, 63)" stroke="none" stroke-width="1px">300</text></g><line x1="49.98400115966797" y1="0" x2="49.98400115966797" y2="378.60799980163574" fill="rgb(0, 0, 0)" stroke="rgb(204, 204, 204)" stroke-width="1px"></line></g></g><g transform="translate(49, 0)" clip-path="url(#clip_0)"><clipPath id="clip_0"><rect width="1062" height="378"></rect></clipPath><g><g><g><line x1="13.891103557085051" y1="0" x2="13.891103557085051" y2="378.60799980163574" fill="rgb(0, 0, 0)" stroke="rgb(60, 60, 60)" stroke-width="1px" opacity="0.25"></line><line x1="82.15910603540647" y1="0" x2="82.15910603540647" y2="378.60799980163574" fill="rgb(0, 0, 0)" stroke="rgb(60, 60, 60)" stroke-width="1px" opacity="0.25"></line><line x1="150.4271085137279" y1="0" x2="150.4271085137279" y2="378.60799980163574" fill="rgb(0, 0, 0)" stroke="rgb(60, 60, 60)" stroke-width="1px" opacity="0.25"></line><line x1="218.6951109920493" y1="0" x2="218.6951109920493" y2="378.60799980163574" fill="rgb(0, 0, 0)" stroke="rgb(60, 60, 60)" stroke-width="1px" opacity="0.25"></line><line x1="286.9631134703707" y1="0" x2="286.9631134703707" y2="378.60799980163574" fill="rgb(0, 0, 0)" stroke="rgb(60, 60, 60)" stroke-width="1px" opacity="0.25"></line><line x1="355.23111594869215" y1="0" x2="355.23111594869215" y2="378.60799980163574" fill="rgb(0, 0, 0)" stroke="rgb(60, 60, 60)" stroke-width="1px" opacity="0.25"></line><line x1="423.49911842701357" y1="0" x2="423.49911842701357" y2="378.60799980163574" fill="rgb(0, 0, 0)" stroke="rgb(60, 60, 60)" stroke-width="1px" opacity="0.25"></line><line x1="491.76712090533493" y1="0" x2="491.76712090533493" y2="378.60799980163574" fill="rgb(0, 0, 0)" stroke="rgb(60, 60, 60)" stroke-width="1px" opacity="0.25"></line><line x1="560.0351233836564" y1="0" x2="560.0351233836564" y2="378.60799980163574" fill="rgb(0, 0, 0)" stroke="rgb(60, 60, 60)" stroke-width="1px" opacity="0.25"></line><line x1="628.3031258619778" y1="0" x2="628.3031258619778" y2="378.60799980163574" fill="rgb(0, 0, 0)" stroke="rgb(60, 60, 60)" stroke-width="1px" opacity="0.25"></line><line x1="696.5711283402993" y1="0" x2="696.5711283402993" y2="378.60799980163574" fill="rgb(0, 0, 0)" stroke="rgb(60, 60, 60)" stroke-width="1px" opacity="0.25"></line><line x1="764.8391308186208" y1="0" x2="764.8391308186208" y2="378.60799980163574" fill="rgb(0, 0, 0)" stroke="rgb(60, 60, 60)" stroke-width="1px" opacity="0.25"></line><line x1="833.1071332969422" y1="0" x2="833.1071332969422" y2="378.60799980163574" fill="rgb(0, 0, 0)" stroke="rgb(60, 60, 60)" stroke-width="1px" opacity="0.25"></line><line x1="901.3751357752635" y1="0" x2="901.3751357752635" y2="378.60799980163574" fill="rgb(0, 0, 0)" stroke="rgb(60, 60, 60)" stroke-width="1px" opacity="0.25"></line><line x1="969.643138253585" y1="0" x2="969.643138253585" y2="378.60799980163574" fill="rgb(0, 0, 0)" stroke="rgb(60, 60, 60)" stroke-width="1px" opacity="0.25"></line><line x1="1037.9111407319065" y1="0" x2="1037.9111407319065" y2="378.60799980163574" fill="rgb(0, 0, 0)" stroke="rgb(60, 60, 60)" stroke-width="1px" opacity="0.25"></line></g><g><line x1="0" y1="365.1966117144388" x2="1062.615998840332" y2="365.1966117144388" fill="rgb(0, 0, 0)" stroke="rgb(60, 60, 60)" stroke-width="1px" opacity="0.25"></line><line x1="0" y1="320.62446696512427" x2="1062.615998840332" y2="320.62446696512427" fill="rgb(0, 0, 0)" stroke="rgb(60, 60, 60)" stroke-width="1px" opacity="0.25"></line><line x1="0" y1="276.0523222158098" x2="1062.615998840332" y2="276.0523222158098" fill="rgb(0, 0, 0)" stroke="rgb(60, 60, 60)" stroke-width="1px" opacity="0.25"></line><line x1="0" y1="231.48017746649532" x2="1062.615998840332" y2="231.48017746649532" fill="rgb(0, 0, 0)" stroke="rgb(60, 60, 60)" stroke-width="1px" opacity="0.25"></line><line x1="0" y1="186.90803271718084" x2="1062.615998840332" y2="186.90803271718084" fill="rgb(0, 0, 0)" stroke="rgb(60, 60, 60)" stroke-width="1px" opacity="0.25"></line><line x1="0" y1="142.33588796786634" x2="1062.615998840332" y2="142.33588796786634" fill="rgb(0, 0, 0)" stroke="rgb(60, 60, 60)" stroke-width="1px" opacity="0.25"></line><line x1="0" y1="97.76374321855184" x2="1062.615998840332" y2="97.76374321855184" fill="rgb(0, 0, 0)" stroke="rgb(60, 60, 60)" stroke-width="1px" opacity="0.25"></line><line x1="0" y1="53.19159846923736" x2="1062.615998840332" y2="53.19159846923736" fill="rgb(0, 0, 0)" stroke="rgb(60, 60, 60)" stroke-width="1px" opacity="0.25"></line><line x1="0" y1="8.61945371992283" x2="1062.615998840332" y2="8.61945371992283" fill="rgb(0, 0, 0)" stroke="rgb(60, 60, 60)" stroke-width="1px" opacity="0.25"></line></g></g></g><g><g><line x1="0" y1="142.33588796786634" x2="1062.615998840332" y2="142.33588796786634" fill="rgb(0, 0, 0)" stroke="rgb(153, 153, 153)" stroke-width="1.5px"></line></g></g><g><g><line x1="13.891103557085051" y1="0" x2="13.891103557085051" y2="378.60799980163574" fill="rgb(0, 0, 0)" stroke="rgb(153, 153, 153)" stroke-width="1.5px"></line></g></g><g><g><g><g><g><path style="fill: none;" stroke="rgb(255, 112, 67)" stroke-width="2px" d="M15.939143631434693,350.66710998112666L16.280483643826297,268.256631247225L17.987183705784336,355.0207154391649L19.011203742959157,289.93360447950874L19.352543755350762,250.00805957235735L20.376563792525584,195.9557849936918L21.0592438173088,234.25720381162793L22.424603866875227,276.40350740658675L26.520684015574513,148.9528240344973L27.886044065140943,263.0981617825456L28.568724089924157,271.07208420030344L29.251404114707366,217.58972042507622L29.592744127098978,193.04020182194398L30.27542415188219,223.4711542127006L32.323464226231835,160.43972905446165L32.66480423862344,172.31181491118826L33.00614425101505,127.46889859924678L33.347484263406656,197.75462972800858L33.68882427579826,320.90063525578756L36.41954437493112,184.64691588927602L37.44356441210594,294.7936522267641L38.46758444928076,232.3011534437955L38.80892446167236,325.69973092155436L39.15026447406398,233.19691508144473L39.491604486455586,242.60664600480519L41.19830454841362,222.55795437633049L43.92902464754648,211.6218369713281L44.27036465993808,216.79267096224567L46.318404734287725,186.73109689080667L49.04912483342058,202.57183350769677L50.07314487059541,276.5514600489324L50.41448488298701,340.51399762383835L52.80386496972826,184.9771704807692L53.82788500690308,188.98241323339292L54.5105650316863,163.33945869999323L57.24128513081916,277.1075100688321L58.26530516799397,244.81925009032463L58.60664518038558,164.48064394136432L61.67870529191004,317.7489188779204L62.36138531669326,223.0739795134406L62.70272532908486,165.09343611880234L63.04406534147647,167.20292767280563L65.43344542821772,321.4165991823717L67.14014549017575,205.33181612194224L67.82282551495896,191.92370822661667L68.16416552735058,161.07386330194112L69.52952557691701,200.215228259339L71.23622563887504,212.7598426659355L71.57756565126665,239.8388012385623L72.60158568844147,255.3248874687908L74.6496257627911,192.83223906009215L74.99096577518272,200.05015027207162L75.67364579996593,187.52944537702086L76.69766583714076,164.27810171164217L77.38034586192397,282.43837557921245L77.72168587431558,244.94630953981905L78.40436589909879,175.08208089379022L79.087045923882,147.13338705908174L79.42838593627361,231.93149627652642L81.81776602301485,271.343192420823L84.54848612214772,276.7462727494633L84.88982613453933,223.51100226508194L85.23116614693093,162.84457839900767L86.59652619649736,278.0440719225993L90.00992632041343,268.68261570069006L90.35126633280504,190.7513770293009L91.03394635758826,297.88531427752304L92.39930640715468,140.72562436248216L93.4233264443295,220.61605044115777L93.76466645672112,173.52554142695752L94.10600646911271,266.70765128034486L95.13002650628754,199.03911561175454L99.22610665498684,220.74744903682378L101.27414672933647,189.8679289091182L102.29816676651129,188.57165659854567L102.9808467912945,188.66257123247763L103.32218680368611,249.062261730344L104.00486682846932,253.05909823740654L105.37022687803577,140.03542828695566L106.73558692760218,130.59541749408507L107.4182669523854,224.22984507928086L109.12496701434343,239.91964674097852L113.90372718782594,256.9424640317314L115.61042724978397,172.262968911495L115.95176726217558,241.73704846640683L117.317127311742,173.28747328810178L117.65846732413361,209.92291161942472L119.02382737370004,175.41170297651544L119.36516738609166,216.74124051812421L120.04784741087487,224.32627886230097L121.07186744804969,153.14364434955206L122.77856751000772,228.42513291258243L123.11990752239932,219.53127069943247L123.46124753479093,154.75903603677537L125.16794759674896,165.24001492489936L125.50928760914057,183.61998349514062L125.85062762153217,125.11938186985034L126.874647658707,246.05799470827597L129.94670777023146,227.74165618003275L130.62938779501468,177.22595916102784L132.67742786936432,174.93111533333482L134.72546794371397,161.28551399798033L135.06680795610558,110.46316584639834L137.11484803045522,244.17730810020416L138.13886806763006,230.89851424207814L139.50422811719648,206.10684339777663L140.8695881667629,261.3139157586634L141.55226819154612,124.06047547737776L142.91762824111254,248.68551774440598L143.25896825350412,177.89130397556272L143.60030826589576,162.28455989667677L144.28298829067896,167.34146919678935L145.98968835263702,198.44504365349718L147.69638841459502,124.375519253177L148.03772842698666,276.7246178256227L148.37906843937824,226.80263230288912L153.49916862525234,221.307552553774L155.88854871199362,172.03847930764172L157.93658878634324,165.9699130401984L158.27792879873488,158.99855442608572L158.96060882351807,132.7465832144933L159.6432888483013,165.2249214293801L161.00864889786772,230.78145931298874L164.08070900939217,63.57412107654693L164.76338903417536,242.6224383204955L165.104729046567,221.6283841248585L166.12874908374184,163.70287919478687L168.17678915809148,151.34351589448312L170.90750925722432,171.74681455216353L171.2488492696159,167.94222160383518L172.27286930679074,173.58886031544878L172.61420931918238,223.52123122408202L175.6862694307068,162.23762672591891L176.0276094430984,135.41409627741893L179.7823495794061,139.16810340186908L180.8063696165809,162.99093786738675L181.1477096289725,142.3716518050241L181.83038965375573,216.19222970870663L182.51306967853893,154.36081905828215L187.29182985202144,169.28517034101512L188.99852991397947,84.09560280731552L189.6812099387627,162.3341404226812L190.70522997593753,163.40793627558656L191.38791000072072,226.96312630188118L193.09461006267875,209.3483896230329L193.43595007507037,253.6610085435679L195.48399014942,215.51989329187649L196.16667017420323,224.52537629964706L196.50801018659484,140.7432500184387L197.19069021137807,156.88310674785083L197.53203022376965,144.04646584857082L198.5560502609445,195.11540868025614L199.23873028572768,150.6272014150636L200.94543034768571,82.33375983592418L201.28677036007733,151.18240723979315L204.3588304716018,93.25168751297065L205.04151049638503,136.32733564558708L206.40687054595145,141.51686706114052L206.74821055834303,148.51926775395992L207.08955057073464,169.16201136225646L208.4549106203011,140.62887942595526L209.8202706698675,137.2288748767673L210.16161068225912,94.35356199435466L211.18563071943393,142.87586565517324L211.86831074421715,141.82099124042568L212.20965075660877,227.16259780355242L212.55099076900035,158.79036722563882L212.892330781392,162.69689100227438L213.23367079378357,173.655834832572L213.5750108061752,201.09768680935247L214.2576908309584,138.66993516048018L214.59903084335,218.99578741624575L216.30573090530805,136.23220683697397L216.64707091769964,122.20072797005167L218.01243096726608,156.1429074111252L219.0364510044409,145.75000494386626L219.71913102922412,94.89095980676916L221.76717110357376,159.24258038946545L222.44985112835695,167.29314518685894L224.156551190315,149.8014646190799L225.52191123988143,152.695014551931L225.86325125227305,37.302876200601816L226.54593127705627,68.99174230568065L230.64201142575556,111.55100951500498L233.0313915124968,24.981231336464646L233.3727315248884,159.6093028520746L234.05541154967162,23.179955184034498L234.39675156206323,145.25071025877097L234.7380915744548,54.84825455240036L235.07943158684645,129.27344441393717L235.76211161162965,68.28515519900708L236.78613164880446,26.185636849368507L238.1514916983709,46.20160124997858L238.49283171076252,57.10445413472206L239.85819176032894,121.63737179376511L240.88221179750377,135.726305240736L242.2475718470702,66.55590343208951L243.271591884245,89.86057676818587L243.6129318966366,68.98646459811147L243.9542719090282,25.93909445325602L244.29561192141983,126.62121782971667L244.63695193381142,159.5970420436721L245.31963195859467,58.79842143402499L245.66097197098625,61.63390383142206L246.00231198337787,66.18547093149192L247.02633202055267,130.48059759933835L247.3676720329443,121.5238636745949L247.7090120453359,23.458476679361297L248.3916920701191,68.50373118593848L249.07437209490232,77.95660872891102L249.41571210729393,80.42929633911285L251.80509219403515,45.045375222152245L252.82911223121,41.39324239128746L254.19447228077644,61.0868721623429L255.21849231795127,58.80013532875108L255.90117234273447,67.93923411346026L256.5838523675177,36.24048590902834L257.94921241708414,61.87731768954245L259.31457246665053,67.42624909913809L260.3385925038254,55.219884058838375L260.679932516217,69.46889195765476L261.02127252860856,48.90563744352278L261.3626125410002,56.342729946523434L263.4106526153498,44.42706729621085L265.45869268969943,160.86077415854254L266.1413727144827,40.47373787074645L266.4827127268743,43.46717062972465L267.84807277644074,14.53458050148771L268.87209281361555,64.20942512518855L269.2134328260072,50.62933265491972L270.237452863182,42.7817011544974L270.5787928755736,65.04179306148154L270.92013288796517,53.69510265320969L271.6028129127484,39.20755053366918L272.28549293753156,137.05305826785684L274.33353301188123,168.62873165800326L275.35755304905604,26.667118846344636L275.6988930614477,44.87481549222923L276.7229130986225,35.42820182641037L277.0642531110141,42.95967415922763L277.4055931234057,48.88517952552263L278.08827314818893,60.211289594742425L278.4296131605805,66.37575405310395L280.4776532349302,46.173294782320056L281.84301328449664,27.93876072139932L282.1843532968882,116.32535742507929L282.86703332167144,60.5217765869445L283.54971334645467,36.822176338123654L284.23239337123783,39.82107723741842L284.5737333836295,111.3894443318091L284.9150733960211,40.35230978963767L285.25641340841264,33.190882290753734L285.5977534208043,40.17128305978042L286.6217734579791,16.155680070254107L287.3044534827623,145.90460998017602L287.98713350754554,53.245001252527686L289.01115354472034,40.14603031724897L289.69383356950357,60.72364210029667L290.03517358189515,193.68643875063398L290.3765135942868,53.23670382567923L292.4245536686364,117.34137734267495L292.76589368102805,73.55391242907575L293.44857370581127,135.88553974814238L294.4725937429861,85.6722907389339L295.83795379255247,52.310302919216554L296.8619738297273,59.66853586130895L297.88599386690214,75.70112326939187L298.2273338792937,155.47734920989575L298.91001390407695,49.176528026616836L299.5926939288602,72.56143816045494L300.2753739536434,100.61362709246669L301.9820740156014,86.0024603158077L303.00609405277623,61.41812312517487L303.6887740775595,100.09571123022221L308.80887426343355,133.41912791714088L310.174234313,203.8459374061278L310.8569143377832,50.611261947430876L311.1982543501748,61.384226096147984L312.5636143997412,92.84739538977874L313.2462944245245,79.09430156971916L313.58763443691606,161.03836969836286L314.61165447409087,158.25178260913825L315.2943344988741,28.948843217979743L315.9770145236573,147.8101531626531L317.0010345608321,131.80661652522113L317.68371458561535,163.88798492608052L318.025054598007,181.92569654086893L318.70773462279016,153.29047479892233L320.0730946723566,119.07515698821913L321.438454721923,124.94003672916381L323.8278348086643,172.46298110614532L324.1691748210559,164.63866741551806L324.5105148334475,170.55414105672986L324.8518548458391,173.80520891935316L325.5345348706223,156.28504080277645L326.55855490779715,145.6117246273005L326.89989492018873,40.799058213732565L327.24123493258037,138.60622520473993L328.2652549697551,150.9631196804978L328.60659498214676,142.51076675925708L328.9479349945384,169.51737927230533L329.28927500693,179.71584692901638L332.0199951060629,151.95066310119637L332.36133511845446,168.11968962172645L333.38535515562927,176.08132912728075L335.7747352423705,178.22636019275674L336.79875527954533,36.55703274329761L339.5294753786782,187.3255259104653L339.8708153910698,181.4089436786172L340.55349541585304,178.23985371313987L340.8948354282447,184.83278845243615L341.2361754406362,187.04612366368198L342.26019547781107,190.5034097881681L342.60153549020265,190.38219934448492L343.2842155149859,179.71295303137376L343.9668955397691,191.57136343643185L345.67359560172713,200.09215429519966L346.0149356141187,196.18731720861197L347.38029566368516,198.02042283452647L347.7216356760768,149.5720110116028L348.0629756884684,176.86076696156695L348.40431570085997,192.42389684043442L349.42833573803483,204.93770194897883L349.7696757504264,183.5612111884922L350.111015762818,194.8912217284477L351.1350357999928,189.79426544174456L351.47637581238445,179.8234754371124L354.2070959115173,187.3906777141497L355.57245596108373,196.3608150437797L356.25513598586696,207.81283516484032L356.9378160106501,228.85786412623904L357.27915602304176,201.17567582055858L358.3031760602166,211.72041992392533L359.32719609739144,228.39622114083417L359.6685361097831,197.37899773329164L360.0098761221746,201.487482239653L360.35121613456624,222.03267284746568L361.37523617174105,268.5990973386415L364.1059562708739,187.444818424336L364.7886362956571,163.56372726583626L365.47131632044034,233.58877806728782L366.15399634522356,193.06870212293458L366.4953363576152,208.49308134185472L367.51935639479,213.6290525376696L368.20203641957323,266.9550234191422L368.8847164443564,208.6135640603963L370.59141650631443,222.97630111639322L372.9807965930557,152.33396086414L373.3221366054473,244.2975119707943L374.34615664262213,181.1165886044299L375.02883666740536,181.90026016675967L377.076876741755,183.71539370214373L377.4182167541466,48.68461303555415L378.10089677892984,215.1574317619891L378.783576803713,156.63722066459977L380.14893685327945,229.26671643361283L381.51429690284584,213.53563847392877L382.1969769276291,170.63906215999768L383.90367698958715,217.77992873382317L384.24501700197874,134.41175096134555L384.5863570143703,190.78282223670573L386.9757371011116,29.402630852556683L387.31707711350316,206.59338546489644L389.36511718785283,36.25664548787421L390.7304772374193,173.68533490548614L391.0718172498109,232.84155397256538L391.41315726220245,219.95998242188622L394.4852173737269,135.5237676868179L395.1678973985102,213.17436034754272L396.19191743568496,201.63994405740894L398.2399575100346,243.4273975435103L398.5812975224262,212.79169254292844L399.94665757199266,44.07819450308017L400.9706776091675,222.51329109590924L401.3120176215591,36.915148325843916L401.6533576339507,216.23057470261787L402.67737767112556,64.03951150637266L406.4321178074332,48.03110225603268L407.456137844608,154.1814220586778L408.4801578817829,178.82799165096662L408.82149789417446,194.00957931878L409.16283790656604,168.73995118362052L410.18685794374085,194.42244091560232L410.5281979561325,121.9677828121579L410.8695379685241,41.1155914456628L415.98963815439816,215.603472864451L417.01365819157303,98.34871521195407L417.69633821635625,215.71495083451111L418.03767822874784,167.96803544285433L418.72035825353106,171.7631441602481L419.06169826592264,213.50815494778558L420.08571830309745,62.435605294223365L421.1097383402723,132.5834316585004L421.4510783526639,54.17417023499638L422.1337583774471,207.40356118495453L422.81643840223035,169.45274265721417L423.49911842701357,146.86486923401372L424.1817984517968,205.21924316358493L425.2058184889716,196.1113583465159L425.88849851375477,145.32564639499626L426.57117853853805,36.06494772299624L427.2538585633212,24.335609913618725L427.93653858810444,183.2117330912718L428.6192186128876,158.09302460867332L432.0326187368037,162.0155923442724L433.3979787863702,169.98714795502758L434.76333883593657,70.35749196377003L435.1046788483282,151.5093071544068L435.44601886071985,45.245730875864695L436.128698885503,160.66968849892388L437.1527189226779,165.23586111059797L438.1767389598527,184.10163892194026L438.85941898463585,135.34818189259903L439.8834390218107,173.53268605556764L441.93147909616033,160.28808847792862L442.61415912094355,75.32687531267788L443.2968391457268,145.97749726407497L443.63817915811836,57.83129512430929L444.66219919529317,159.07415112590337L445.0035392076848,165.7592570152056L445.3448792200764,156.1741290300812L446.3688992572512,171.2257531490032L449.0996193563841,161.58396292008257L450.8063194183421,139.87831808235023L451.48899944312535,131.13073329847168L453.53703951747497,71.0269718893901L454.9023995670414,39.2656189192694L455.243739579433,49.75448461363038L455.58507959182464,56.38127217435152L455.9264196042162,163.4636939638329L457.9744596785659,133.41486613427293L458.9984797157407,80.85900783349012L461.38785980248196,111.98258793042322L462.0705398272651,92.5076531667662L463.09455986443993,44.654552815249986L463.43589987683157,42.9754324690702L464.4599199140064,111.19481186227125L464.801259926398,40.3575942983764L466.50795998835605,152.99808401859488L466.8493000007477,141.2416760666608L467.1906400131393,32.46753710231411L468.2146600503141,83.92578440487324L469.2386800874889,122.14621319554021L469.5800200998805,125.9870070690798L469.92136011227217,53.15333508936072L470.2627001246637,24.19844392617614L470.60404013705534,127.8129646657994L472.652080211405,113.14738683246469L474.7001202857546,127.61928095941346L476.7481603601043,35.65848262613372L478.1135204096707,53.209703182573946L478.79620043445385,37.91711022598406L480.50290049641194,36.95056881684951L481.86826054597833,59.53356665163028L484.25764063271964,110.9289881504904L484.9403206575028,63.084021997753496L485.9643406946776,53.036803850326464L486.64702071946084,58.00246695949164L486.9883607318525,165.436614632729L488.0123807690273,27.308401123018996L488.35372078141893,5.458093283636742L489.0364008062021,61.8841052567513L489.37774081859374,95.3580097219646L490.40176085576854,162.03671847718067L496.20454106642586,76.35456603721786L496.54588107881744,151.3136179531504L496.8872210912091,47.70180322886097L497.2285611036007,68.19579463231685L498.5939211531671,33.04173264256764L499.6179411903419,94.16168739906851L500.98330123990837,48.417748744832465L501.3246412523,120.54411779478312L501.6659812646916,88.83162782727953L503.03134131425804,138.7157554898708L503.37268132664957,21.313156564179508L503.7140213390412,153.6044847969503L504.39670136382443,50.31330951070561L505.07938138860766,16.503532687952543L505.7620614133909,112.23119788207822L506.44474143817405,155.82915075666298L509.17546153730694,117.34638810433944L510.882161599265,70.87877440494066L511.2235016116566,85.50642041541425L514.2955617231811,102.03524835839232L514.6369017355727,105.21823311325608L518.3916418718803,167.34157971579452L520.0983419338384,153.46986754779573L521.1223619710132,33.24669268806406L521.4637019834048,174.06388120135438L522.4877220205797,131.06109697361666L523.1704020453628,116.5094378800635L523.5117420577544,170.91316459541076L526.2424621568873,72.62892616587908L526.5838021692789,98.59813790337012L526.9251421816705,86.14033702546817L527.2664821940622,179.45929321132937L528.2905022312369,182.24075391900723L528.9731822560202,159.795488269034L529.3145222684118,75.31625868701354L529.6558622808034,180.7986645333271L532.3865823799363,161.52862180347108L534.0932824418942,171.97861201269603L534.4346224542859,186.4629879860577L535.4586424914606,154.69819702473058L537.848022578202,54.44081008712294L538.5307026029851,163.57607308885812L541.9441027269012,161.49421298643568L543.6508027888592,178.56645607658575L543.9921428012509,163.98823926609418L544.6748228260341,179.88804574080046L545.0161628384258,173.94169478984105L547.0642029127754,93.90837443867105L547.4055429251669,117.07644968498204L549.4535829995166,159.22358982379527L549.7949230119082,166.72143547407512L552.8669831234326,170.46526677366228L554.2323431729991,94.05122960444055L554.9150231977824,166.9428628513395L556.2803832473487,182.50078303433324L559.3524433588732,182.7318595708937L560.0351233836564,9.979361173370535L561.0591434208312,173.5688954822408L561.7418234456144,182.34836882476415L562.0831634580061,185.61958175158847L563.7898635199641,195.78025700941404L564.813883557139,99.87262606788056L566.520583619097,173.93704959103982L567.2032636438801,13.594563653590114L568.5686236934466,195.19692069728808L569.2513037182298,201.6227575019613L569.5926437306214,193.2845304373686L569.933983743013,142.8379130037303L570.6166637677962,154.30400463831734L571.2993437925794,196.90227655499905L573.0060438545374,199.37457989912141L574.0300638917123,112.23927087033161L574.7127439164955,57.25986085889224L575.7367639536703,176.03633599013642L576.7607839908451,172.61548033033378L578.1261440404116,187.79833641626783L579.1501640775864,190.9318970720268L580.5155241271528,178.37452367135842L580.8568641395444,195.20039949551185L581.198204151936,185.94053234314006L583.5875842386773,187.12832940000783L584.2702642634605,2.030643889957389L584.9529442882437,171.6779697134146L585.9769643254185,170.94008702506625L586.3183043378102,190.88385701092503L588.3663444121598,195.8842740964801L588.7076844245513,185.20839664305967L590.0730444741179,171.5309862377295L591.4384045236842,183.52560366532398L592.4624245608591,181.47291207880025L592.8037645732506,188.2507162087484L593.1451045856422,186.93052418487582L593.4864445980339,187.4715402194898L594.1691246228172,190.65381425213585L595.193144659992,180.20141982947564L597.5825247467332,176.07896572086284L597.9238647591249,186.97331374308663L599.6305648210829,184.7566595611014L600.3132448458659,158.4620373651277L600.6545848582576,174.98312387686784L600.9959248706492,172.97354150352368L604.0679849821738,178.39278821217937L605.4333450317401,159.64243304923497L605.7746850441317,179.44937370554374L606.1160250565234,185.58983683657058L606.4573650689149,157.47664821488348L607.1400450936982,173.50741631011232L608.8467451556562,161.72404830955367L609.1880851680478,15.72872985071325L609.8707651928311,179.58717900292388L610.2121052052225,175.75902510298914L610.5534452176142,181.43619936558053L611.5774652547891,194.65897199014023L612.2601452795723,189.30677121088803L612.6014852919639,169.3834506415675L612.9428253043554,153.49441296869418L616.0148854158799,199.29758725925407L617.0389054530548,199.2363767333227L620.1109655645791,184.62263231340512L622.1590056389289,170.76300497354677L622.5003456513205,181.03226430378984L624.5483857256701,22.176782675714833L624.8897257380618,183.79927932734793L625.2310657504534,180.02176693586708L625.9137457752365,20.91800861344484L627.9617858495861,187.30433346615396L630.0098259239359,169.435654718725L630.3511659363274,26.776876120509144L633.0818860354603,169.9111618882533L633.4232260478519,153.75600210228524L634.4472460850267,144.50758769435902L635.4712661222017,156.56369577105565L636.836626171768,149.2278654563811L637.5193061965513,133.3411108511104L638.8846662461176,195.40510449715023L640.9327063204673,98.70288611616252L642.2980663700337,139.95187719427864L642.6394063824254,89.83262056075915L643.6634264196001,160.31822105961072L644.3461064443834,68.6111896647958L645.3701264815583,67.35066090078243L646.7354865311246,182.34018701779794L647.4181665559079,37.22839659288246L648.100846580691,76.9774035420782L648.4421865930826,170.77408067815557L648.7835266054742,122.91315728136689L651.1729066922155,165.2389658444966L651.8555867169987,69.72607818410978L652.1969267293903,168.78068338804306L654.24496680374,171.73308639143102L654.5863068161316,131.28499827630404L654.9276468285232,162.60596106571094L655.6103268533063,166.4530732257605L656.2930068780896,46.05475719826916L660.3890870267888,43.17034038597478L663.4611471383133,152.95506067018087L664.8265071878798,194.2939566210876L666.5332072498378,202.50055725083445L666.8745472622295,82.07562144573251L668.5812473241875,157.5679726192807L668.9225873365791,162.48338188665622L669.2639273489706,48.52145297809932L670.6292873985371,115.12488638875891L670.9706274109287,121.07886485136629L673.0186674852785,173.58472180377885L674.3840275348448,199.11044627797324L674.7253675472364,167.01593801754723L675.066707559628,177.2094697254589L675.7493875844112,168.96399871145323L676.0907275968028,3.647757973368698L677.7974276587609,185.9892593223662L678.8214476959357,182.34298569906693L679.5041277207189,173.55095739755816L680.5281477578937,177.02295105119165L681.5521677950685,177.56729965888414L682.5761878322434,179.36918451598885L683.2588678570265,3.06497935714566L685.3069079313761,189.55208599589707L685.6482479437678,153.04955952046458L686.330927968551,169.96558314668346L687.0136079933342,161.1699587267762L690.0856681048588,151.5064234585185L690.4270081172504,57.4185593491236L690.7683481296418,168.63925476758627L691.1096881420335,183.01180931182563L695.888448315516,153.35759554119085L697.2538083650825,197.2401858628184L698.6191684146488,115.17102722326445L698.9605084270405,216.9865791072267L699.9845284642154,158.15978828954056L700.3258684766071,177.2904988594529L701.3498885137818,146.47286129824468L702.0325685385651,143.60228295315136L702.7152485633482,180.63848338813426L704.4219486253063,142.03941167717073L705.445968662481,203.58188879959894L706.1286486872643,34.0694845776336L706.469988699656,210.84688450835876L707.1526687244391,154.68339002847856L708.176688761614,142.52337353730977L709.2007087987888,203.9303263178785L709.883388823572,187.0024329505061L710.9074088607467,153.96296169162878L711.9314288979217,201.7850742143922L712.2727689103133,165.6210504488221L713.296788947488,185.15236520773905L714.3208089846629,198.7315463212885L717.0515290837957,194.54049221603051L717.3928690961874,182.17252118551764L718.0755491209705,48.54590318262416L719.7822491829286,179.5569001960965L721.4889492448866,193.96987749154394L721.8302892572783,187.74307351310614L722.1716292696699,194.56556812815373L722.8543092944531,223.37526452324434L723.1956493068446,9.939927992331661L723.8783293316279,198.2287154531014L724.5610093564111,162.33880432469866L725.585029393586,156.50476023633806L725.9263694059775,79.23453488462792L727.291729455544,190.19264734859934L728.998429517502,30.776596323460012L729.6811095422852,199.16084294432338L731.7291496166349,55.19054381340857L732.0704896290265,152.60097393044558L732.411829641418,195.41678890643357L732.7531696538097,172.37720815639162L733.0945096662012,146.5795848257177L734.118529703376,150.723337646916L734.8012097281593,54.28073095947332L735.8252297653341,38.19527125932484L736.1665697777257,185.43586855975977L737.1905898149006,172.2148540375282L737.8732698396839,16.021424983377983L738.5559498644669,129.25102435852241L738.8972898768586,142.22795682765076L739.2386298892502,13.214949574102832L740.6039899388167,175.6848005391278L741.969349988383,189.2999292343228L742.3106900007747,52.28794747491253L742.6520300131663,38.12408341766667L744.0173900627326,7.4041255287250465L744.3587300751243,140.89564722508393L745.0414100999076,44.38060170585936L745.3827501122992,39.198572989865966L746.0654301370823,28.428206887916133L746.4067701494739,8.541580328599082L746.7481101618656,30.682481739255763L747.4307901866488,30.730348370534045L747.7721301990405,173.20410455178327L748.4548102238235,137.64317024514492L749.4788302609985,134.10136768697905L750.1615102857816,143.97890313654995L750.5028502981733,133.77733956620702L752.5508903725229,17.80088298389842L752.8922303849145,111.9554240592488L753.2335703973062,18.970724953159674L754.5989304468725,140.6697350078441L755.2816104716558,72.90363220508948L755.9642904964389,34.80097076602209L757.3296505460054,136.83281174365524L759.7190306327466,164.72145125125547L760.7430506699214,67.95152382683341L761.4257306947047,33.68979568528124L762.1084107194879,28.83537250524205L762.4497507318795,188.7649832435304L763.8151107814459,46.41738195622577L764.4977908062291,119.08385058319374L764.8391308186208,142.0043617170701L765.1804708310124,20.725195456761014L766.2044908681871,66.656227484091L766.5458308805788,169.45431712796454L767.5698509177536,21.95295618589239L767.9111909301452,23.71900228006433L768.93521096732,64.94684193342295L769.9592310044948,69.05916229940925L771.3245910540613,112.96362263186438L773.372631128411,132.54479591459102L773.7139711408025,150.0167870965288L774.7379911779774,41.40510363097911L775.079331190369,115.98540946668788L775.7620112151521,45.86208686614589L776.4446912399354,66.73467897482635L776.786031252327,20.62596639305667L777.4687112771102,143.67086403404372L777.8100512895018,57.481000886743175L778.492731314285,53.00081206107882L778.8340713266766,116.15244279020033L779.1754113390683,54.77108848270956L779.5167513514598,37.102996628757694L780.1994313762431,31.140071227610065L780.8821114010263,44.72487010720607L781.2234514134179,28.35630492345541L782.5888114629844,126.68387700476177L782.930151475376,83.80010559279702L783.6128315001591,125.46223222734628L784.636851537334,96.7192740087371L785.3195315621172,62.4658568963726L786.343551599292,122.17973105936477L790.4396317479913,35.91039794618911L791.8049917975577,120.91715684360992L792.8290118347326,69.28121368397962L794.5357118966906,64.52292503550046L795.2183919214738,133.18970321463436L796.2424119586486,167.53266197482836L798.2904520329982,119.85723877716703L798.6317920453898,117.56598596699536L799.314472070173,102.03604069464467L800.3384921073479,38.69276320941685L801.3625121445226,88.39956652882347L801.7038521569143,98.49329447420399L802.0451921693059,120.36990753710529L805.1172522808304,102.48497569474915L805.458592293222,95.72294347698266L805.7999323056135,74.9522328881302L806.1412723180052,145.86067655026187L806.8239523427885,101.99427131186604L807.5066323675716,59.83668117604242L808.5306524047464,140.91906875271462L810.2373524667045,27.195800959983444L810.9200324914876,130.88448505294218L811.2613725038793,94.48347453447445L811.6027125162709,98.7973917676158L811.9440525286625,123.32888557115365L814.6747726277954,71.63162986804883L817.7468327393199,161.27974320561887L819.4535328012779,151.31643108690466L822.1842529004108,69.29261924531153L822.5255929128024,7.79350608768317L823.5496129499771,71.6202787160733L824.9149729995436,53.146391095252284L825.9389930367184,75.00566967726826L827.3043530862848,96.80466949358095L828.3283731234598,88.83474956410208L829.3523931606345,146.80850411631218L829.6937331730261,32.965246689831645L830.0350731854177,114.91931763858793L830.7177532102008,103.2873606750901L833.4484733093337,72.08980425698422L834.131153334117,31.680811814857293L834.8138333589002,33.30143530175536L835.4965133836835,53.31280211175101L837.2032134456414,12.351337064906659L838.9099135075994,45.34804767054379L841.6406336067323,43.1405172575071L841.981973619124,20.408247353488377L842.3233136315155,124.70632473940356L843.688673681082,27.809674523379613L844.7126937182568,44.23426094069657L845.7367137554317,40.25435934580838L848.4674338545644,27.132998960377904L849.1501138793477,50.94124789272689L850.515473928914,57.432835004004744L850.8568139413057,112.47797151795532L851.1981539536973,75.64627183698775L851.5394939660889,65.38863910608688L852.2221739908721,80.67593395159895L852.9048540156554,48.08281154810555L853.9288740528302,54.26622406482761L854.952894090005,31.79985268545471L855.2942341023967,120.33132280196747L855.9769141271798,67.40727383609936L856.659594151963,20.81325700006761L859.0489742387043,64.53586085998057L860.4143342882707,50.94709689853812L861.0970143130539,168.14784136277777L861.7796943378372,140.12458588124224L862.4623743626204,83.52618848925414L862.803714375012,151.85536936422173L863.4863943997952,144.55206181725225L864.51041443697,140.30603045795357L865.1930944617533,8.915331799935984L866.217114498928,74.51836587915903L866.8997945237113,36.510199889790556L867.9238145608861,154.2598182899106L868.2651545732776,61.355436745451584L868.6064945856693,19.73663186063027L872.0198947095853,172.024332874982L872.361234721977,58.86280810613522L873.0439147467602,174.1152878413824L873.3852547591518,24.099609330305555L873.7265947715433,71.60499648809906L874.067934783935,93.30498827871776L875.0919548211099,127.28878322610896L875.4332948335015,131.05971888663697L876.1159748582846,148.15989863085136L877.1399948954595,30.201394210113335L877.8226749202427,128.89800115167515L878.5053549450259,87.73113398331378L879.1880349698091,144.80140948326667L882.2600950813336,15.39666954870512L882.6014350937252,167.6540560500894L883.6254551308999,176.72132258232574L884.3081351556832,65.39436569084626L884.9908151804665,165.06268973156853L885.6734952052497,82.7893361780923L886.3561752300328,46.29695364704054L886.6975152424245,142.54761402139547L887.7215352795993,22.454909703207875L889.7695753539489,148.29353268593314L890.1109153663406,168.7284129994825L891.4762754159069,172.0267914977736L892.5002954530818,163.55690569277968L893.5243154902565,169.39136890321367L894.2069955150398,177.29055666939408L894.5483355274314,13.656427091798093L895.9136955769978,170.29551978350025L897.2790556265644,172.42256515610674L898.3030756637392,161.89750363741172L898.6444156761307,152.17959471891066L898.9857556885223,44.9638155969335L899.3270957009139,165.43252883012306L900.3511157380888,163.70370553688699L901.7164757876551,163.76140325874684L902.3991558124384,107.24348198065388L903.7645158620048,168.0400071193029L904.1058558743964,163.5882352803022L904.7885358991797,184.4291526421056L905.1298759115713,161.28347534740828L906.8365759735293,172.08503671378205L907.8605960107041,8.148268693642251L908.2019360230958,162.6751476632296L908.8846160478789,112.40938172306443L909.5672960726621,162.0959600645279L910.2499760974454,31.78727732296062L910.591316109837,163.86827173614583L911.6153361470118,21.104292647362627L911.9566761594034,37.481978199477L912.6393561841867,167.32449857847487L913.6633762213614,170.16444084280303L914.004716233753,4.10757144416516L914.6873962585363,165.08190473583383L916.7354363328859,200.58294029211737L917.7594563700607,165.10931684969677L918.7834764072356,72.7667110597506L919.1248164196271,185.12990774589178L920.4901764691936,160.5271971957252L922.5382165435433,150.4127817928722L926.9756367046341,90.47141700996366L928.3409967542005,151.17812420327036L929.0236767789837,168.66366586538618L930.7303768409419,145.99565978735274L931.7543968781166,94.2027154543664L932.4370769028999,21.63349164988705L933.8024369524662,93.38365400629391L935.5091370144243,90.77677932091143L936.8744970639907,18.61026296711941L938.2398571135572,19.301901103126568L939.2638771507319,124.48236562677499L942.3359372622565,108.96635425053557L944.3839773366061,129.88384513013293L947.7973774605222,153.67455044563306L948.1387174729138,127.71180577023588L948.4800574853055,90.7118791605003L949.5040775224802,134.52606671939952L949.8454175348718,166.62130525540576L951.5521175968298,125.36417296480423L952.2347976216131,83.23252759051366L953.6001576711794,150.53226473949027L953.9414976835711,110.4274325015935L954.2828376959627,125.03381295518307L954.6241777083543,76.11670193344855L954.9655177207459,22.141838266577565L955.3068577331375,17.409815734892447L955.6481977455292,58.610158259768696L958.3789178446619,63.759099285911475L959.4029378818368,40.6629396064003L961.4509779561864,17.277383361455122L962.8163380057529,107.68358226151571L966.2297381296688,34.837955526023734L966.5710781420605,26.233530685325036L966.9124181544521,76.40756075033534L969.3017982411934,85.21521133829572L971.0084983031514,114.86648275295482L972.0325183403263,20.69562397156659L972.7151983651095,146.68400488207945L973.056538377501,63.675234064216L973.3978783898926,56.98913350386732L973.7392184022843,78.94575722562286L975.1045784518507,125.78666331741405L977.8352985509836,89.6225460357627L978.1766385633751,0.08384991387964646L979.20065860055,40.85151563445578L979.8833386253333,80.22362217081388L980.2246786377248,126.30477471328297L980.907358662508,71.9140620358657L982.6140587244661,57.05899511746367L985.0034388112073,110.68765204966684L985.6861188359906,52.21584147536538L986.7101388731653,43.805882475550675L987.3928188979486,31.67997527100289L989.0995189599066,125.49570928415358L990.1235389970814,154.38709367653817L991.1475590342562,52.5328303856553L994.2196191457807,57.34667098700203L994.5609591581723,25.000165792486087L995.5849791953472,108.59196686984586L996.6089992325219,28.46642265960594L997.2916792573052,19.825278304518008L997.6330192696969,71.27376592877579L999.6810593440464,55.02862836998099L1000.7050793812213,80.52487997593943L1001.0464193936128,55.40808602256868L1001.729099418396,34.597010492449215L1002.7531194555709,145.74794546471253L1003.4357994803541,33.92651719256651L1004.1184795051373,71.28791916260508L1005.1424995423122,152.99112982273212L1005.4838395547038,162.59006503218504L1005.8251795670953,112.80233289603518L1008.2145596538365,27.302579321885958L1009.9212597157946,198.41481925602616L1010.6039397405779,181.11296358106085L1010.9452797529694,113.01677717246622L1011.2866197653611,21.986445144746426L1012.6519798149275,17.351040027659224L1012.9933198273192,39.609662882020984L1014.7000198892772,40.950064581205254L1015.0413599016688,51.100204827401114L1016.4067199512352,86.41077873137203L1017.43073998841,57.07697060857885L1017.7720800008016,74.89449095866826L1018.4547600255848,148.64731124767331L1020.844140112326,59.91961463750988L1021.1854801247177,74.56136967421065L1022.8921801866758,166.55824141077258L1026.988260335375,41.037833674221304L1028.694960397333,174.47359385667602L1029.3776404221162,198.4039849929363L1029.7189804345078,30.35193809805679L1030.7430004716828,161.13347385273633L1031.0843404840743,59.495622926722376L1034.1564005955986,48.04833641966712L1036.2044406699483,168.39214107323178L1037.569800719515,142.03810540097737L1037.9111407319065,58.05885545621351" fill="none"></path></g></g></g></g></g></g><g transform="translate(49, 378)" clip-path="url(#clip_1)"><clipPath id="clip_1"><rect width="1062" height="21"></rect></clipPath><g><g><line x1="13.891103557085051" y1="0" x2="13.891103557085051" y2="5" style="visibility: inherit;" fill="rgb(0, 0, 0)" stroke="rgb(204, 204, 204)" stroke-width="1px"></line><line x1="82.15910603540647" y1="0" x2="82.15910603540647" y2="5" style="visibility: inherit;" fill="rgb(0, 0, 0)" stroke="rgb(204, 204, 204)" stroke-width="1px"></line><line x1="150.4271085137279" y1="0" x2="150.4271085137279" y2="5" style="visibility: inherit;" fill="rgb(0, 0, 0)" stroke="rgb(204, 204, 204)" stroke-width="1px"></line><line x1="218.6951109920493" y1="0" x2="218.6951109920493" y2="5" style="visibility: inherit;" fill="rgb(0, 0, 0)" stroke="rgb(204, 204, 204)" stroke-width="1px"></line><line x1="286.9631134703707" y1="0" x2="286.9631134703707" y2="5" style="visibility: inherit;" fill="rgb(0, 0, 0)" stroke="rgb(204, 204, 204)" stroke-width="1px"></line><line x1="355.23111594869215" y1="0" x2="355.23111594869215" y2="5" style="visibility: inherit;" fill="rgb(0, 0, 0)" stroke="rgb(204, 204, 204)" stroke-width="1px"></line><line x1="423.49911842701357" y1="0" x2="423.49911842701357" y2="5" style="visibility: inherit;" fill="rgb(0, 0, 0)" stroke="rgb(204, 204, 204)" stroke-width="1px"></line><line x1="491.76712090533493" y1="0" x2="491.76712090533493" y2="5" style="visibility: inherit;" fill="rgb(0, 0, 0)" stroke="rgb(204, 204, 204)" stroke-width="1px"></line><line x1="560.0351233836564" y1="0" x2="560.0351233836564" y2="5" style="visibility: inherit;" fill="rgb(0, 0, 0)" stroke="rgb(204, 204, 204)" stroke-width="1px"></line><line x1="628.3031258619778" y1="0" x2="628.3031258619778" y2="5" style="visibility: inherit;" fill="rgb(0, 0, 0)" stroke="rgb(204, 204, 204)" stroke-width="1px"></line><line x1="696.5711283402993" y1="0" x2="696.5711283402993" y2="5" style="visibility: inherit;" fill="rgb(0, 0, 0)" stroke="rgb(204, 204, 204)" stroke-width="1px"></line><line x1="764.8391308186208" y1="0" x2="764.8391308186208" y2="5" style="visibility: inherit;" fill="rgb(0, 0, 0)" stroke="rgb(204, 204, 204)" stroke-width="1px"></line><line x1="833.1071332969422" y1="0" x2="833.1071332969422" y2="5" style="visibility: inherit;" fill="rgb(0, 0, 0)" stroke="rgb(204, 204, 204)" stroke-width="1px"></line><line x1="901.3751357752635" y1="0" x2="901.3751357752635" y2="5" style="visibility: inherit;" fill="rgb(0, 0, 0)" stroke="rgb(204, 204, 204)" stroke-width="1px"></line><line x1="969.643138253585" y1="0" x2="969.643138253585" y2="5" style="visibility: inherit;" fill="rgb(0, 0, 0)" stroke="rgb(204, 204, 204)" stroke-width="1px"></line><line x1="1037.9111407319065" y1="0" x2="1037.9111407319065" y2="5" style="visibility: inherit;" fill="rgb(0, 0, 0)" stroke="rgb(204, 204, 204)" stroke-width="1px"></line></g><g transform="translate(0, 8)"><text style="text-anchor: middle; visibility: hidden; font-family: &quot;Helvetica Neue&quot;, sans-serif; font-size: 12px; font-weight: 200;" x="13.891103557085051" y="0" dx="0em" dy="0.95em" fill="rgb(50, 49, 63)" stroke="none" stroke-width="1px">0</text><text style="text-anchor: middle; visibility: hidden; font-family: &quot;Helvetica Neue&quot;, sans-serif; font-size: 12px; font-weight: 200;" x="82.15910603540647" y="0" dx="0em" dy="0.95em" fill="rgb(50, 49, 63)" stroke="none" stroke-width="1px">200</text><text style="text-anchor: middle; visibility: hidden; font-family: &quot;Helvetica Neue&quot;, sans-serif; font-size: 12px; font-weight: 200;" x="150.4271085137279" y="0" dx="0em" dy="0.95em" fill="rgb(50, 49, 63)" stroke="none" stroke-width="1px">400</text><text style="text-anchor: middle; visibility: hidden; font-family: &quot;Helvetica Neue&quot;, sans-serif; font-size: 12px; font-weight: 200;" x="218.6951109920493" y="0" dx="0em" dy="0.95em" fill="rgb(50, 49, 63)" stroke="none" stroke-width="1px">600</text><text style="text-anchor: middle; visibility: hidden; font-family: &quot;Helvetica Neue&quot;, sans-serif; font-size: 12px; font-weight: 200;" x="286.9631134703707" y="0" dx="0em" dy="0.95em" fill="rgb(50, 49, 63)" stroke="none" stroke-width="1px">800</text><text style="text-anchor: middle; visibility: hidden; font-family: &quot;Helvetica Neue&quot;, sans-serif; font-size: 12px; font-weight: 200;" x="355.23111594869215" y="0" dx="0em" dy="0.95em" fill="rgb(50, 49, 63)" stroke="none" stroke-width="1px">1k</text><text style="text-anchor: middle; visibility: hidden; font-family: &quot;Helvetica Neue&quot;, sans-serif; font-size: 12px; font-weight: 200;" x="423.49911842701357" y="0" dx="0em" dy="0.95em" fill="rgb(50, 49, 63)" stroke="none" stroke-width="1px">1.2k</text><text style="text-anchor: middle; visibility: hidden; font-family: &quot;Helvetica Neue&quot;, sans-serif; font-size: 12px; font-weight: 200;" x="491.76712090533493" y="0" dx="0em" dy="0.95em" fill="rgb(50, 49, 63)" stroke="none" stroke-width="1px">1.4k</text><text style="text-anchor: middle; visibility: hidden; font-family: &quot;Helvetica Neue&quot;, sans-serif; font-size: 12px; font-weight: 200;" x="560.0351233836564" y="0" dx="0em" dy="0.95em" fill="rgb(50, 49, 63)" stroke="none" stroke-width="1px">1.6k</text><text style="text-anchor: middle; visibility: hidden; font-family: &quot;Helvetica Neue&quot;, sans-serif; font-size: 12px; font-weight: 200;" x="628.3031258619778" y="0" dx="0em" dy="0.95em" fill="rgb(50, 49, 63)" stroke="none" stroke-width="1px">1.8k</text><text style="text-anchor: middle; visibility: hidden; font-family: &quot;Helvetica Neue&quot;, sans-serif; font-size: 12px; font-weight: 200;" x="696.5711283402993" y="0" dx="0em" dy="0.95em" fill="rgb(50, 49, 63)" stroke="none" stroke-width="1px">2k</text><text style="text-anchor: middle; visibility: hidden; font-family: &quot;Helvetica Neue&quot;, sans-serif; font-size: 12px; font-weight: 200;" x="764.8391308186208" y="0" dx="0em" dy="0.95em" fill="rgb(50, 49, 63)" stroke="none" stroke-width="1px">2.2k</text><text style="text-anchor: middle; visibility: hidden; font-family: &quot;Helvetica Neue&quot;, sans-serif; font-size: 12px; font-weight: 200;" x="833.1071332969422" y="0" dx="0em" dy="0.95em" fill="rgb(50, 49, 63)" stroke="none" stroke-width="1px">2.4k</text><text style="text-anchor: middle; visibility: hidden; font-family: &quot;Helvetica Neue&quot;, sans-serif; font-size: 12px; font-weight: 200;" x="901.3751357752635" y="0" dx="0em" dy="0.95em" fill="rgb(50, 49, 63)" stroke="none" stroke-width="1px">2.6k</text><text style="text-anchor: middle; visibility: hidden; font-family: &quot;Helvetica Neue&quot;, sans-serif; font-size: 12px; font-weight: 200;" x="969.643138253585" y="0" dx="0em" dy="0.95em" fill="rgb(50, 49, 63)" stroke="none" stroke-width="1px">2.8k</text><text style="text-anchor: middle; visibility: hidden; font-family: &quot;Helvetica Neue&quot;, sans-serif; font-size: 12px; font-weight: 200;" x="1037.9111407319065" y="0" dx="0em" dy="0.95em" fill="rgb(50, 49, 63)" stroke="none" stroke-width="1px">3k</text></g><line x1="0" y1="0" x2="1062.615998840332" y2="0" fill="rgb(0, 0, 0)" stroke="rgb(204, 204, 204)" stroke-width="1px"></line></g></g></g></g></svg>