<svg viewBox="0 0 1129.4000244140625 400" xmlns="http://www.w3.org/2000/svg"><g><g><g><g><g><line x1="49.98400115966797" y1="378.60799980163574" x2="44.98400115966797" y2="378.60799980163574" style="visibility: inherit;" fill="rgb(0, 0, 0)" stroke="rgb(204, 204, 204)" stroke-width="1px"></line><line x1="49.98400115966797" y1="344.18909072875977" x2="44.98400115966797" y2="344.18909072875977" style="visibility: inherit;" fill="rgb(0, 0, 0)" stroke="rgb(204, 204, 204)" stroke-width="1px"></line><line x1="49.98400115966797" y1="309.7701816558838" x2="44.98400115966797" y2="309.7701816558838" style="visibility: inherit;" fill="rgb(0, 0, 0)" stroke="rgb(204, 204, 204)" stroke-width="1px"></line><line x1="49.98400115966797" y1="275.3512725830078" x2="44.98400115966797" y2="275.3512725830078" style="visibility: inherit;" fill="rgb(0, 0, 0)" stroke="rgb(204, 204, 204)" stroke-width="1px"></line><line x1="49.98400115966797" y1="240.93236351013184" x2="44.98400115966797" y2="240.93236351013184" style="visibility: inherit;" fill="rgb(0, 0, 0)" stroke="rgb(204, 204, 204)" stroke-width="1px"></line><line x1="49.98400115966797" y1="206.51345443725586" x2="44.98400115966797" y2="206.51345443725586" style="visibility: inherit;" fill="rgb(0, 0, 0)" stroke="rgb(204, 204, 204)" stroke-width="1px"></line><line x1="49.98400115966797" y1="172.0945453643799" x2="44.98400115966797" y2="172.0945453643799" style="visibility: inherit;" fill="rgb(0, 0, 0)" stroke="rgb(204, 204, 204)" stroke-width="1px"></line><line x1="49.98400115966797" y1="137.6756362915039" x2="44.98400115966797" y2="137.6756362915039" style="visibility: inherit;" fill="rgb(0, 0, 0)" stroke="rgb(204, 204, 204)" stroke-width="1px"></line><line x1="49.98400115966797" y1="103.25672721862793" x2="44.98400115966797" y2="103.25672721862793" style="visibility: inherit;" fill="rgb(0, 0, 0)" stroke="rgb(204, 204, 204)" stroke-width="1px"></line><line x1="49.98400115966797" y1="68.83781814575195" x2="44.98400115966797" y2="68.83781814575195" style="visibility: inherit;" fill="rgb(0, 0, 0)" stroke="rgb(204, 204, 204)" stroke-width="1px"></line><line x1="49.98400115966797" y1="34.41890907287598" x2="44.98400115966797" y2="34.41890907287598" style="visibility: inherit;" fill="rgb(0, 0, 0)" stroke="rgb(204, 204, 204)" stroke-width="1px"></line><line x1="49.98400115966797" y1="0" x2="44.98400115966797" y2="0" style="visibility: inherit;" fill="rgb(0, 0, 0)" stroke="rgb(204, 204, 204)" stroke-width="1px"></line></g><g transform="translate(39.98400115966797, 0)"><text style="text-anchor: end; visibility: hidden; font-family: &quot;Helvetica Neue&quot;, sans-serif; font-size: 12px; font-weight: 200;" x="0" y="378.60799980163574" dx="0em" dy="0.3em" fill="rgb(50, 49, 63)" stroke="none" stroke-width="1px">-600</text><text style="text-anchor: end; visibility: inherit; font-family: &quot;Helvetica Neue&quot;, sans-serif; font-size: 12px; font-weight: 200;" x="0" y="344.18909072875977" dx="0em" dy="0.3em" fill="rgb(50, 49, 63)" stroke="none" stroke-width="1px">-500</text><text style="text-anchor: end; visibility: inherit; font-family: &quot;Helvetica Neue&quot;, sans-serif; font-size: 12px; font-weight: 200;" x="0" y="309.7701816558838" dx="0em" dy="0.3em" fill="rgb(50, 49, 63)" stroke="none" stroke-width="1px">-400</text><text style="text-anchor: end; visibility: inherit; font-family: &quot;Helvetica Neue&quot;, sans-serif; font-size: 12px; font-weight: 200;" x="0" y="275.3512725830078" dx="0em" dy="0.3em" fill="rgb(50, 49, 63)" stroke="none" stroke-width="1px">-300</text><text style="text-anchor: end; visibility: inherit; font-family: &quot;Helvetica Neue&quot;, sans-serif; font-size: 12px; font-weight: 200;" x="0" y="240.93236351013184" dx="0em" dy="0.3em" fill="rgb(50, 49, 63)" stroke="none" stroke-width="1px">-200</text><text style="text-anchor: end; visibility: inherit; font-family: &quot;Helvetica Neue&quot;, sans-serif; font-size: 12px; font-weight: 200;" x="0" y="206.51345443725586" dx="0em" dy="0.3em" fill="rgb(50, 49, 63)" stroke="none" stroke-width="1px">-100</text><text style="text-anchor: end; visibility: inherit; font-family: &quot;Helvetica Neue&quot;, sans-serif; font-size: 12px; font-weight: 200;" x="0" y="172.0945453643799" dx="0em" dy="0.3em" fill="rgb(50, 49, 63)" stroke="none" stroke-width="1px">0</text><text style="text-anchor: end; visibility: inherit; font-family: &quot;Helvetica Neue&quot;, sans-serif; font-size: 12px; font-weight: 200;" x="0" y="137.6756362915039" dx="0em" dy="0.3em" fill="rgb(50, 49, 63)" stroke="none" stroke-width="1px">100</text><text style="text-anchor: end; visibility: inherit; font-family: &quot;Helvetica Neue&quot;, sans-serif; font-size: 12px; font-weight: 200;" x="0" y="103.25672721862793" dx="0em" dy="0.3em" fill="rgb(50, 49, 63)" stroke="none" stroke-width="1px">200</text><text style="text-anchor: end; visibility: inherit; font-family: &quot;Helvetica Neue&quot;, sans-serif; font-size: 12px; font-weight: 200;" x="0" y="68.83781814575195" dx="0em" dy="0.3em" fill="rgb(50, 49, 63)" stroke="none" stroke-width="1px">300</text><text style="text-anchor: end; visibility: inherit; font-family: &quot;Helvetica Neue&quot;, sans-serif; font-size: 12px; font-weight: 200;" x="0" y="34.41890907287598" dx="0em" dy="0.3em" fill="rgb(50, 49, 63)" stroke="none" stroke-width="1px">400</text><text style="text-anchor: end; visibility: hidden; font-family: &quot;Helvetica Neue&quot;, sans-serif; font-size: 12px; font-weight: 200;" x="0" y="0" dx="0em" dy="0.3em" fill="rgb(50, 49, 63)" stroke="none" stroke-width="1px">500</text></g><line x1="49.98400115966797" y1="0" x2="49.98400115966797" y2="378.60799980163574" fill="rgb(0, 0, 0)" stroke="rgb(204, 204, 204)" stroke-width="1px"></line></g></g><g transform="translate(49, 0)" clip-path="url(#clip_0)"><clipPath id="clip_0"><rect width="1079" height="378"></rect></clipPath><g><g><g><line x1="0" y1="0" x2="0" y2="378.60799980163574" fill="rgb(0, 0, 0)" stroke="rgb(60, 60, 60)" stroke-width="1px" opacity="0.25"></line><line x1="89.95133323669434" y1="0" x2="89.95133323669434" y2="378.60799980163574" fill="rgb(0, 0, 0)" stroke="rgb(60, 60, 60)" stroke-width="1px" opacity="0.25"></line><line x1="179.90266647338868" y1="0" x2="179.90266647338868" y2="378.60799980163574" fill="rgb(0, 0, 0)" stroke="rgb(60, 60, 60)" stroke-width="1px" opacity="0.25"></line><line x1="269.85399971008303" y1="0" x2="269.85399971008303" y2="378.60799980163574" fill="rgb(0, 0, 0)" stroke="rgb(60, 60, 60)" stroke-width="1px" opacity="0.25"></line><line x1="359.80533294677736" y1="0" x2="359.80533294677736" y2="378.60799980163574" fill="rgb(0, 0, 0)" stroke="rgb(60, 60, 60)" stroke-width="1px" opacity="0.25"></line><line x1="449.75666618347174" y1="0" x2="449.75666618347174" y2="378.60799980163574" fill="rgb(0, 0, 0)" stroke="rgb(60, 60, 60)" stroke-width="1px" opacity="0.25"></line><line x1="539.7079994201661" y1="0" x2="539.7079994201661" y2="378.60799980163574" fill="rgb(0, 0, 0)" stroke="rgb(60, 60, 60)" stroke-width="1px" opacity="0.25"></line><line x1="629.6593326568604" y1="0" x2="629.6593326568604" y2="378.60799980163574" fill="rgb(0, 0, 0)" stroke="rgb(60, 60, 60)" stroke-width="1px" opacity="0.25"></line><line x1="719.6106658935547" y1="0" x2="719.6106658935547" y2="378.60799980163574" fill="rgb(0, 0, 0)" stroke="rgb(60, 60, 60)" stroke-width="1px" opacity="0.25"></line><line x1="809.5619991302491" y1="0" x2="809.5619991302491" y2="378.60799980163574" fill="rgb(0, 0, 0)" stroke="rgb(60, 60, 60)" stroke-width="1px" opacity="0.25"></line><line x1="899.5133323669435" y1="0" x2="899.5133323669435" y2="378.60799980163574" fill="rgb(0, 0, 0)" stroke="rgb(60, 60, 60)" stroke-width="1px" opacity="0.25"></line><line x1="989.4646656036377" y1="0" x2="989.4646656036377" y2="378.60799980163574" fill="rgb(0, 0, 0)" stroke="rgb(60, 60, 60)" stroke-width="1px" opacity="0.25"></line><line x1="1079.4159988403321" y1="0" x2="1079.4159988403321" y2="378.60799980163574" fill="rgb(0, 0, 0)" stroke="rgb(60, 60, 60)" stroke-width="1px" opacity="0.25"></line></g><g><line x1="0" y1="378.60799980163574" x2="1079.4159988403321" y2="378.60799980163574" fill="rgb(0, 0, 0)" stroke="rgb(60, 60, 60)" stroke-width="1px" opacity="0.25"></line><line x1="0" y1="344.18909072875977" x2="1079.4159988403321" y2="344.18909072875977" fill="rgb(0, 0, 0)" stroke="rgb(60, 60, 60)" stroke-width="1px" opacity="0.25"></line><line x1="0" y1="309.7701816558838" x2="1079.4159988403321" y2="309.7701816558838" fill="rgb(0, 0, 0)" stroke="rgb(60, 60, 60)" stroke-width="1px" opacity="0.25"></line><line x1="0" y1="275.3512725830078" x2="1079.4159988403321" y2="275.3512725830078" fill="rgb(0, 0, 0)" stroke="rgb(60, 60, 60)" stroke-width="1px" opacity="0.25"></line><line x1="0" y1="240.93236351013184" x2="1079.4159988403321" y2="240.93236351013184" fill="rgb(0, 0, 0)" stroke="rgb(60, 60, 60)" stroke-width="1px" opacity="0.25"></line><line x1="0" y1="206.51345443725586" x2="1079.4159988403321" y2="206.51345443725586" fill="rgb(0, 0, 0)" stroke="rgb(60, 60, 60)" stroke-width="1px" opacity="0.25"></line><line x1="0" y1="172.0945453643799" x2="1079.4159988403321" y2="172.0945453643799" fill="rgb(0, 0, 0)" stroke="rgb(60, 60, 60)" stroke-width="1px" opacity="0.25"></line><line x1="0" y1="137.6756362915039" x2="1079.4159988403321" y2="137.6756362915039" fill="rgb(0, 0, 0)" stroke="rgb(60, 60, 60)" stroke-width="1px" opacity="0.25"></line><line x1="0" y1="103.25672721862793" x2="1079.4159988403321" y2="103.25672721862793" fill="rgb(0, 0, 0)" stroke="rgb(60, 60, 60)" stroke-width="1px" opacity="0.25"></line><line x1="0" y1="68.83781814575195" x2="1079.4159988403321" y2="68.83781814575195" fill="rgb(0, 0, 0)" stroke="rgb(60, 60, 60)" stroke-width="1px" opacity="0.25"></line><line x1="0" y1="34.41890907287598" x2="1079.4159988403321" y2="34.41890907287598" fill="rgb(0, 0, 0)" stroke="rgb(60, 60, 60)" stroke-width="1px" opacity="0.25"></line><line x1="0" y1="0" x2="1079.4159988403321" y2="0" fill="rgb(0, 0, 0)" stroke="rgb(60, 60, 60)" stroke-width="1px" opacity="0.25"></line></g></g></g><g><g><line x1="0" y1="172.0945453643799" x2="1079.4159988403321" y2="172.0945453643799" fill="rgb(0, 0, 0)" stroke="rgb(153, 153, 153)" stroke-width="1.5px"></line></g></g><g><g><line x1="89.95133323669434" y1="0" x2="89.95133323669434" y2="378.60799980163574" fill="rgb(0, 0, 0)" stroke="rgb(153, 153, 153)" stroke-width="1.5px"></line></g></g><g><g><g><g><g><path style="fill: none;" stroke="rgb(255, 112, 67)" stroke-width="2px" d="M91.66040856819154,267.47281076584653L92.2001165676117,283.10193279110433L93.63933789939881,244.36896556434132L93.8192405658722,280.2895825579403L94.08909456558229,270.09744212661093L95.07855923118592,260.2549427058756L96.42782922973633,263.323345527936L96.69768322944643,251.79994625980777L98.4967098941803,203.1817020393123L99.57612589302063,216.10608573117042L101.37515255775452,219.36949297622303L103.98374122161867,189.11185719614164L104.25359522132874,170.73028900085572L105.06315722045899,161.60671842545062L106.5023785522461,136.9802212593503L106.68228121871948,146.00229138926278L110.64013988113403,159.3844976691212L111.08989654731752,167.20226392963224L112.43916654586793,173.55795593592316L112.97887454528811,182.52025489171584L113.42863121147157,169.39404483702216L114.05829054412844,182.34915047566093L114.5979985435486,182.15477803035094L117.7462952068329,194.94198289465098L117.92619787330628,202.17348934707542L118.64580853919983,215.0609927695676L120.53478653717042,209.92599289415185L121.25439720306397,188.22806501197635L123.05342386779786,151.21798297418647L127.91079586257935,122.2891025200579L128.00074719581605,137.18215705274912L129.52991986083984,166.2106128856636L129.79977386054992,172.91308375461304L130.06962786026003,146.50173466714574L131.41889785881042,139.58177103419615L131.6887518585205,146.1330462305433L131.77870319175722,162.7279143365388L132.67821652412414,173.62628773996062L134.38729185562136,169.47609761359493L136.27626985359194,180.49671340569608L137.80544251861573,142.23825145487368L138.2551991847992,122.65466335716107L140.68388518218995,102.13765883594948L141.58339851455688,92.95278318622798L142.12310651397704,88.26585582005526L142.75276584663393,110.5061552046372L142.84271717987062,132.7042834273359L145.81111117668152,206.14628491257824L145.99101384315492,204.8386223248359L147.07042984199526,211.28441668440087L147.7000891746521,210.17557337748053L147.7900405078888,211.04253262146895L147.9699431743622,227.75567703623827L148.2397971740723,220.7687232190201L148.4196998405457,221.0844497660923L149.499115839386,207.08774137687382L150.39862917175296,221.40272350421603L154.26653650093078,171.14029134628836L154.98614716682437,134.7701985031723L155.7057578327179,117.47492523394033L156.51531983184816,115.5961701107122L157.6846871639252,145.69428266654273L158.04449249687195,158.50921187003755L158.85405449600222,135.19468232593414L159.21385982894898,150.51464596670593L159.39376249542238,125.17062104032988L159.57366516189578,148.21993344970392L160.20332449455262,117.15759705127942L160.65308116073612,100.13375964195689L160.8329838272095,90.3038838447045L161.28274049339296,87.20476759083033L161.46264315986636,87.01443836104255L161.82244849281312,90.35156490962225L162.1822538257599,85.226514896259L162.72196182518007,125.03572638316942L162.8119131584168,120.50189195677126L164.88079382286074,165.90954373099882L165.2405991558075,190.48083901919182L168.2089931526184,186.7094687945055L168.8386524852753,194.46747521604655L169.37836048469546,169.07537142983534L170.63767915000915,189.11553110740897L170.99748448295597,186.7539734200437L171.6271438156128,197.2196775455017L171.8070464820862,190.03395293559996L172.52665714797973,197.3820636123768L173.78597581329348,193.54151320043496L173.87592714653016,202.1437109739517L174.77544047889708,191.5024851078638L175.0452944786072,175.22878729154948L175.85485647773743,146.5940466835225L176.57446714363098,159.67077948379278L177.38402914276125,167.42384336582776L177.47398047599793,170.99784404105282L178.0136884754181,187.19709563468135L178.1036398086548,193.96378892556163L178.55339647483825,200.8166392441586L180.17252047309876,186.4506958732446L180.44237447280884,169.08578271654045L181.2519364719391,166.82871149154124L183.95047646903993,134.54878030650963L185.11984380111699,113.80599682007801L185.65955180053712,100.88664448782038L185.9294058002472,99.25555926964068L186.1093084667206,129.99545037028597L186.46911379966735,109.53370986236405L187.0088217990875,139.05367518160455L187.45857846527102,160.72709677498796L188.35809179763794,160.50957040487646L188.8977997970581,132.7919456074162L189.3475564632416,116.2195539725422L190.24706979560852,104.21487973956499L194.0250257915497,105.03170010224761L194.3848311244965,98.97442872854651L194.47478245773317,99.96440645665245L194.56473379096985,98.54107237972937L196.18385778923036,91.32088398931575L197.3532251213074,105.62190304858842L198.52259245338442,99.47760321779032L200.86132711753845,127.66620277344524L201.9407431163788,154.21083442234433L202.93020778198243,175.54660397380704L203.2000617816925,184.34568900653338L203.46991578140262,190.3233871739871L205.2689424461365,189.302504239404L205.80865044555668,186.01378067077871L206.43830977821352,150.32567467869805L206.97801777763368,129.89795832513389L208.4172391094208,159.45519593586982L208.68709310913087,165.37289500279527L209.67655777473453,172.66572684788355L209.9464117744446,182.95143144964837L210.2162657741547,185.51017861669933L210.30621710739138,188.26586185089894L214.6238811027527,200.62023198181276L214.89373510246278,211.32562550565095L215.16358910217286,205.02518477548605L215.25354043540955,208.01583175483708L217.23246976661684,207.21530875494125L218.3118857654572,201.06565701300428L219.2113990978241,167.57668160833668L219.57120443077088,139.98020494156663L221.81998776168822,138.05580404961188L221.90993909492497,123.54808608601763L222.89940376052857,116.45569161051452L223.61901442642213,114.73146574735716L223.97881975936892,126.68348827548456L224.1587224258423,121.86399320343241L227.03716508941653,112.80513425363915L227.3969704223633,99.48163588770865L229.64575375328064,141.34662890224118L231.08497508506775,140.98166578394077L231.17492641830447,125.73440271285077L232.5241964168549,114.47781575761974L232.88400174980166,159.31826927916975L234.32322308158876,153.9613947036355L234.41317441482548,117.35672452319199L236.39210374603275,111.82780505353833L236.84186041221622,135.5036422964927L237.29161707839967,163.36381000895537L237.56147107810975,131.4606942049056L238.01122774429322,145.9379499325348L238.28108174400333,158.08135965717236L239.36049774284365,128.83667412260309L240.0801084087372,113.53134609419027L240.70976774139407,111.09388389890944L241.33942707405092,110.86247236928017L242.14898907318116,129.32307923497365L242.50879440612795,105.05065579977202L242.68869707260134,99.9149761408429L242.86859973907474,100.28283106912465L243.13845373878482,90.08509284845752L243.76811307144166,120.39830967730535L244.57767507057193,143.01734433453134L245.47718840293885,144.92189532515508L245.83699373588564,124.86903333645685L246.016896402359,125.97716261038849L246.2867504020691,105.68423603258856L246.7365070682526,127.1436008882562L247.00636106796267,110.53863166496114L247.09631240119936,121.97117666396008L248.89533906593326,117.81736978900847L249.7049010650635,114.69619861928635L250.24460906448365,103.45715463680784L250.87426839714053,98.14004326619727L250.96421973037724,92.80167806459929L251.77378172950748,96.94790678315331L252.40344106216432,87.23277212246381L254.2924190601349,83.41805091730396L254.6522243930817,111.81192000222791L255.55173772544862,116.64165083262839L255.9115430583954,104.00839169357579L256.7211050575257,133.465303960987L257.8904723896027,115.81047280682839L258.1603263893128,147.29320524664732L258.70003438873294,167.33724134980633L258.8799370552063,135.60752853486406L261.93828238525396,137.69617272217332L262.4779903846741,123.73092496346783L264.0071630496979,111.8680290561357L264.90667638206486,103.85006019721294L265.1765303817749,93.1835497572983L265.3564330482483,92.11933625137499L266.9755570465088,90.20305558293916L268.23487571182255,85.18398702512718L268.4147783782959,84.58776058951366L270.0339023765564,85.99866932287296L270.3937077095032,118.52546036591343L271.1133183753967,102.94940597896237L272.64249104042057,92.54641458247016L273.1821990398407,87.40303662495785L275.34103103752136,135.8399832154422L276.5103983695984,148.79398774520513L276.7802523693085,138.03484459739292L276.8702037025452,117.18694583894313L277.0501063690186,156.82176473634487L277.230009035492,184.93329173904598L277.58981436843874,154.92468517186552L277.94961970138553,137.50105525760264L278.5792790340424,122.5896626505272L279.9285490325928,144.0481429178148L282.9868943626404,124.91885828047052L283.3466996955872,140.76624352551877L283.976359028244,163.47175336882154L284.7859210273743,145.48810803147362L285.8653370262146,166.67722910658458L286.76485035858155,147.0882758347758L286.9447530250549,165.53779710592474L287.12465569152835,145.02221977814614L287.5744123577118,163.75711974607148L287.8442663574219,185.02583016310052L288.56387702331546,155.95818925483266L288.92368235626225,153.784252404478L290.7227090209961,130.77333065184428L291.17246568717957,133.10007661260173L291.26241702041625,133.99599647652107L291.4423196868897,147.95477656908315L291.7121736865997,164.99748423843968L292.0719790195465,167.43518776820315L292.1619303527832,174.00219476663784L292.7915896854401,183.43055145030567L293.0614436851502,193.25846921690137L293.5112003513336,164.7988964244076L295.22027568283085,135.67169330547074L296.11978901519774,145.36519034311073L296.65949701461795,163.33607218279008L297.1992050140381,166.79255597537122L297.5590103469849,166.32828110115702L298.6384263458252,187.75396752709864L298.7283776790619,198.58255633913842L300.9771610099793,198.79502851190074L301.78672300910955,207.6515331130073L304.9350196723938,199.49655739621164L305.02497100563056,187.8325165398611L305.20487367210393,161.87531373111767L309.16273233451847,143.24723236774582L309.88234300041205,125.99257510793544L310.5120023330689,124.79498780001828L310.69190499954226,133.95182626464538L310.8718076660156,133.2524772312678L311.3215643321991,154.76196025198476L313.5703476631165,169.09522817852587L313.6602989963532,177.58305389076898L314.5598123287201,194.07365309041862L314.73971499519354,201.49315864922718L315.18947166137696,174.6791131589961L316.4487903266907,142.3715717917846L316.9884983261109,157.16945489746018L317.7980603252411,165.10048339239435L319.14733032379155,172.30264404626172L319.5071356567383,181.30281577418148L319.6870383232117,146.77761889879733L321.9358216541291,119.28647121472113L323.0152376529694,120.25819746827324L323.9147509853363,103.79828377282763L324.45445898475646,124.95223784477813L325.9836316497803,135.36190484994177L326.52333964920047,159.84494165279008L326.61329098243715,124.52116201160669L327.8726096477509,137.55355443599527L328.41231764717105,124.73885767213923L328.86207431335447,116.80821809435503L330.9309549777985,102.31064764153882L331.5606143104553,95.56470362823956L332.0103709766388,92.74024816193167L333.1797383087158,95.6673502254485L333.80939764137275,96.6517949863661L335.1586676399231,95.57084066626584L336.23808363876344,132.82861202909206L336.50793763847355,161.6601696439639L337.7672563037873,172.32198435728913L340.91555296707156,154.61478067079963L341.00550430030825,171.43669860304877L341.09545563354493,182.5526208803386L342.71457963180546,151.12572732147518L344.06384963035583,157.13135797602249L348.38151362571716,131.0087095680185L349.19107562484743,111.43675718062826L350.0006376239777,104.77327037677111L350.54034562339785,97.33386072909485L352.42932362136844,97.42075919928612L352.6092262878418,100.54165280032964L352.6991776210785,97.95518174006173L356.92689028320314,110.41771148783482L357.64650094909666,149.3296771698606L359.71538161354067,153.28379469543086L360.52494361267094,164.95676532488687L360.8847489456177,155.8418422779054L361.24455427856446,150.30718401658615L362.32397027740484,182.36057277506947L362.5938242771149,197.19772481667403L363.3134349430085,215.42731157953892L363.5832889427185,242.66355692980238L365.74212094039916,235.04770761838674L366.101926273346,233.09036524874907L366.2818289398194,235.46752610073852L368.8004662704468,206.4741826028555L370.8693469348908,156.12911705203956L372.2186169334412,123.4625957799494L372.9382275993347,111.34546326298363L373.3879842655182,100.5865662533518L373.83774093170166,126.16923012209764L374.3774489311219,113.61808778346108L375.816670262909,103.73444543291589L377.43579426116946,91.67491080280564L377.52574559440615,84.72312772369975L378.155404927063,86.11893244077294L378.42525892677315,92.11415698668907L380.5840909244538,83.42570825921626L380.85394492416384,85.66852225912913L381.4836042568207,81.92457173935497L381.7534582565308,83.92815259985434L381.8434095897675,83.59403583075681L382.02331225624084,102.1325731208567L382.1132635894775,105.43605786474433L384.3620469203949,92.04796688353633L385.17160891952517,132.48018623465407L387.33044091720586,153.68520120699245L388.0500515830994,176.3963224916972L389.30937024841313,142.30452145717692L389.3993215816498,116.17461137236916L390.92849424667367,134.83066670703406L393.5370829105377,149.0852519445748L393.71698557701114,162.9169997813795L394.61649890937804,128.9453888807019L396.1456715744019,159.01969930262862L396.59542824058536,162.95371514640746L398.5743575717927,142.24934028148107L399.2939682376862,141.27551329761948L400.28343290328985,122.88727438435231L400.4633355697632,134.19670945914092L401.09299490242006,154.13530950021317L401.6327029018402,136.7187507970433L402.26236223449706,164.48876710595383L402.8020702339172,170.00933535947888L403.0719242336274,187.51736377497483L404.6010968986512,161.9120556722379L405.6805128974915,171.55616770763731L405.95036689720155,183.19005236436806L406.5800262298584,195.25997137058545L408.01924756164556,153.6878392418916L408.1991502281189,127.82276694141268L408.7388582275391,135.66733828870215L409.0986635604859,136.32387790569325L410.537884892273,175.5874839032387L412.0670575572968,192.8764007239492L413.8660842220307,189.15338564985845L415.4852082202912,156.18590689929326L415.6651108867646,138.46487096401603L415.84501355323795,139.53649630801073L416.11486755294806,124.68422133928055L416.3847215526581,112.27102304038749L417.9138942176819,133.3600587865111L418.90335888328553,119.51265794760229L420.1626775485993,110.9738344509625L422.8612175457001,92.29088540802252L423.0411202121735,92.97920632713027L425.1999522098542,103.5717152287026L425.5597575428009,101.64339927602987L425.73966020927435,146.0555182944471L426.2793682086945,166.49600698613176L426.54922220840456,172.21918060218127L426.7291248748779,137.79966442262557L427.53868687400825,153.27815182567917L428.1683462066651,129.19804411964174L429.3377135387421,151.31479099904433L430.0573242046356,166.47386712360688L431.2266915367127,143.6435614215589L431.4065942031861,129.7599528669949L431.67644820289615,124.86790496530455L433.11566953468326,110.63595251993456L433.56542620086674,101.28304147394266L433.7453288673401,98.4088811978196L434.64484219970706,117.52428614512951L435.00464753265385,115.98287328236188L437.61323619651796,112.22540096242L438.06299286270144,137.63760907697974L438.6926521953583,127.99905818674085L442.6505108577729,150.91903675432926L443.3701215236664,165.07471735027246L443.9997808563233,138.50601288604926L444.3595861892701,149.13828195169648L445.3490508548737,116.39690802982972L445.8887588542939,133.77119351703413L446.42846685371404,107.97581359758016L448.4073961849213,140.30999317148286L449.39686085052494,115.16278794283619L449.8466175167084,108.59336798637588L450.65617951583863,101.56168252002868L450.7461308490753,91.2064896944434L451.82554684791563,118.17420571900686L452.8150115135193,106.29791354088275L453.08486551322943,132.3286269135917L453.9843788455963,152.49379509698196L458.21209150772097,125.38013433359313L458.66184817390445,101.93607029466432L458.75179950714113,100.33806008541478L459.6513128395081,106.50140166288548L466.2177601657868,89.51849638488784L467.2072248313904,117.27410369240454L467.2971761646271,108.19466671755248L467.47707883110047,100.54987277890234L467.6569814975739,95.67162282483577L467.92683549728395,89.97524436297539L468.01678683052063,86.79088765410359L470.265570161438,89.43584193849972L470.7153268276215,87.96838475619444L470.9851808273316,116.19837161168618L471.7047914932251,102.60859281692564L472.6942561588288,100.45519692080529L473.503818157959,87.27447814362944L473.7736721576691,87.77575094650746L473.8636234909058,86.22205008881707L475.2128934894562,86.99867309900606L476.65211482124334,101.76730140558305L477.1918228206635,98.73517846780118L477.5516281536103,94.17759133575123L478.3611901527405,88.60995359708045L478.54109281921393,93.46085829581261L479.35065481834414,106.00123160579733L479.71046015129093,102.24522737434614L480.6999248168946,107.1805873113733L483.0386594810486,105.35352146354114L483.84822148017884,110.2283295774701L485.1974914787293,111.43597221063396L485.82715081138616,134.2235880775851L486.3668588108063,116.21180294592773L486.7266641437531,116.77912844086546L486.8166154769898,141.58801515797745L488.52569080848696,119.9841065279615L488.79554480819706,131.5707472050119L492.033792804718,154.61054232900295L492.5735008041382,172.6518421466049L493.92277080268866,150.07681821505867L494.102673469162,169.81478858286107L495.6318461341858,177.8106500187875L495.7217974674225,150.3022766942854L497.4308727989197,128.8800348745765L497.5208241321564,105.2080632438973L497.7906781318665,97.30021345374422L498.6002401309967,118.70763931537363L499.58970479660036,102.8795788289545L501.83848812751773,124.91664058861173L502.10834212722784,138.04384292979174L503.0978067928315,115.55969162601127L503.3676607925415,121.00857662420299L503.54756345901495,137.07414608787096L503.7274661254883,127.5261228538885L504.80688212432864,104.76085883200733L506.3360547893525,92.47312425006322L508.225032787323,81.36949733974376L508.85469211997986,116.13389136149709L509.5743027858735,108.75715808591389L509.93410811882023,121.66331360266798L510.5637674514771,109.5066529830662L510.6537187847138,104.74684253231499L510.7436701179505,104.96753539549229L511.6431834503174,130.78867239419304L513.9819181144715,130.29853498750967L514.4316747806549,110.5365951307802L515.8708961124421,106.23210066511228L516.8603607780457,106.10122270361569L517.2201661109925,105.58023924389772L517.3101174442291,90.92425298796564L518.0297281101227,93.15148849624177L518.5694361095428,98.37930914159546L518.8392901092529,98.77403407152775L519.6488521083833,103.2761705929309L520.00865744133,99.81539306710528L520.6383167739868,91.5182441380262L520.7282681072236,80.94881187504808L521.2679761066437,83.46962269224815L521.8076841060639,85.7964885799982L521.9875867725373,86.29630929886343L522.2574407722474,97.67834681631876L525.4057374355317,121.40389810466189L526.485153434372,141.06483608005752L528.1942287658692,153.30924101592535L528.3741314323426,133.7457495432024L530.2631094303132,151.3089439513528L532.0621360950471,136.0078517836367L534.2209680927277,121.16418934992743L534.4908220924377,112.84858225475153L535.6601894245149,103.46754303223139L536.3798000904084,156.42485497663986L537.1893620895386,122.47606398643717L537.4592160892487,135.81176034154194L537.639118755722,120.36583263049255L537.7290700889588,126.29113365174183L541.6869287513733,117.27631490745961L542.2266367507934,104.25103898669852L542.4964907505037,100.97163628435976L543.1261500831604,93.63073889337232L544.2955174152374,94.32700278625038L544.4754200817108,96.58582376544433L544.5653714149475,91.70960725352228L545.1950307476044,88.48109840890237L546.8141547458649,122.58582944310717L548.8830354103088,106.89710628381471L549.3327920764924,92.91755815777515L551.1318187412262,104.98467006670097L551.3117214076997,95.45526553253421L551.8514294071198,104.69368041521261L554.1901640712738,111.38764848253277L554.6399207374574,97.78292790517622L556.1690934024812,99.57761002226755L557.7882174007417,95.8417757051597L558.5078280666352,120.10166876038699L560.5767087310792,108.31782563133095L560.936514064026,100.99688354786633L561.2963193969728,93.79822379448228L561.3862707302094,100.61906417413502L563.7250053943634,94.6747902413261L565.7938860588074,138.34955787276556L568.4024747226715,158.18074162870923L569.3919393882752,138.01967535235912L570.8311607200624,130.2888372858571L572.090479385376,107.54606115126069L572.1804307186127,100.72124645133295L573.9794573833466,87.86161144882885L576.1382893810272,90.94089293795707L577.5775107128144,87.2241772051076L579.2865860443115,81.46966530230452L579.5564400440217,81.19957793793668L580.0061967102051,82.53541264322303L583.3343960399628,83.97978457697684L583.9640553726197,106.59549871777602L584.3238607055664,138.5566551919806L584.8635687049865,125.9469803540961L585.4032767044068,114.67955107684583L585.8530333705902,108.22448915682463L586.1228873703004,145.08188161491907L586.3027900367738,127.5190363914804L588.4616220344544,124.68983079488524L589.1812327003479,109.88654072125507L590.7104053653718,97.02701973584237L591.1601620315552,94.48713502798557L591.3400646980285,120.31116523661319L592.4194806968688,108.3422926737897L592.5993833633423,106.63591247710258L593.1390913627625,95.16381391933197L594.2185073616029,88.93785756638943L594.6682640277863,91.69384093223641L595.5677773601532,92.59782925646203L596.4672906925201,95.70616563683228L598.9859280231476,93.53660440338246L599.1658306896211,88.88326034732472L599.5256360225678,83.950404067009L600.8749060211181,85.42038046873665L604.5629106838227,94.54912882128036L604.8327646835328,96.72428972001035L606.4518886817932,89.81304130355187L608.0710126800537,84.5192292107177L609.6001853450775,84.27644800604367L609.8700393447876,119.27321176242992L610.3197960109711,104.68811538954691L610.7695526771546,98.27656994111175L612.3886766754151,95.34293393379454L612.4786280086518,92.63342793525021L614.0078006736755,102.9246978988686L614.2776546733858,95.32974442809541L614.9073140060425,92.44442905090727L617.3360000034332,128.6062711619827L617.5159026699067,156.70392896872607L618.1455620025636,159.45675182502285L619.7646860008241,164.35078824056382L620.5742479999542,137.08410634978367L621.3838099990845,129.8870102010505L622.2833233314515,145.12920459129023L623.2727879970552,155.01018823386562L623.6325933300019,159.51153992225113L623.7225446632385,164.51285208936997L625.4316199947358,175.48458675451585L625.8813766609193,187.75840136309006L626.0612793273926,191.41030204453094L626.4210846603395,168.11080900643142L627.2306466594696,144.26359663497269L628.8497706577301,124.16016217263311L630.6487973224641,111.32942845112211L631.0985539886475,106.2120499782153L631.9081159877778,101.09645214454457L632.4478239871979,107.00233095948823L632.5377753204345,92.56609021115327L632.8975806533814,85.31996880621875L633.1674346530915,79.90938299425426L635.1463639842988,80.97352929333925L636.7654879825592,79.90488248546342L637.125293315506,84.32262860530147L637.5750499816895,84.35623691216398L639.0142713134766,87.76852097785019L639.1941739799499,118.94565700550504L640.0936873123169,107.35495589450005L640.6333953117371,114.48881922227713L640.8132979782105,105.92361974049322L641.3530059776306,100.1221013799356L641.532908644104,96.54144049603127L641.7128113105774,95.67897529880486L642.7922273094179,90.80155470174049L642.9721299758912,95.5417185527956L643.1520326423646,92.9660267176202L645.2209133068085,136.8837284395329L646.0304753059388,149.37562728446434L646.3003293056489,163.04857948121702L647.739550637436,167.90961084856175L648.7290153030395,133.70459885653293L648.9089179695129,144.6443515326778L649.4486259689331,117.18742862860972L650.6179933010102,103.63239204469033L651.0677499671937,96.08734083180474L651.6974092998505,126.74942706158348L652.2371172992706,112.37199125946466L653.4064846313477,102.56133594046821L655.7452192955018,99.97491387436389L657.8140999599458,132.56986823615622L658.1739052928925,151.94366579763036L658.2638566261293,159.57118262369426L658.8935159587861,161.47520268690687L660.4226886238099,130.22295934042992L661.4121532894135,110.8096748183691L662.4016179550172,98.99589333505304L663.031277287674,132.37839837785046L663.5709852870942,125.129661828059L665.7298172847749,113.16690658771302L670.677140612793,153.12767448130265L671.0369459457398,168.61971608259265L672.2063132778169,159.65827030830957L673.5555832763672,133.9635332570291L674.2751939422608,117.19849713163393L674.3651452754975,105.63036072928548L674.7249506084443,129.73986135710416L675.6244639408112,164.13159476956153L676.5239772731782,178.6255881737425L676.6139286064149,187.97764854292475L676.7038799396515,195.01791700442L677.4234906055451,200.08246787337728L679.222517270279,151.6488366434105L681.3813492679596,167.42665879330096L682.0110086006165,185.38783981782416L682.2808626003266,196.74141234765582L683.1803759326936,193.66547654743468L683.9899379318239,199.52197151515924L684.2597919315339,203.90801719295334L685.1593052639008,208.5988461696149L685.6090619300843,184.26206681014574L688.8473099266052,148.78000813992372L689.6568719257356,168.27108436216562L689.8367745922089,177.55458580137912L690.1965799251557,173.78413922413574L690.7362879245759,180.8473053924894L691.0061419242859,193.32728421389572L691.6358012569428,199.47266905531566L692.3554119228363,201.2998092098428L692.6252659225465,208.69189244291894L693.34487658844,203.1300378806343L693.7046819213869,206.90549185257933L694.0644872543336,219.18906539236116L696.1333679187776,216.1690906803292L696.4931732517243,217.60686026020835L697.1228325843812,217.34599712638132L697.4826379173279,220.8346504495904L698.4721025829316,220.03369812392194L699.5515185817719,202.7630518870353L700.990739913559,197.52227945068717L703.2395232444763,196.10117413694542L704.5887932430269,206.96491071782404L705.8481119083406,171.89302256556624L706.567722574234,164.38854435779623L707.2873332401276,168.06638654904475L707.8270412395478,178.52427986571075L707.9169925727846,184.039891600162L710.2557272369386,153.06215278308645L711.5150459022523,168.3291598734618L713.7638292331696,130.1064958624856L715.2930018981933,131.4433229476035L716.3724178970338,114.23521613110711L716.6422718967439,99.5944397765586L717.181979896164,134.39611849774454L718.8011038944245,118.06306563466774L718.9810065608979,110.50050973813512L720.6001305591584,145.64282607498086L720.9599358921052,126.8840237076954L722.8489138900757,118.19673375102866L723.2087192230225,115.03048007737135L723.8383785556794,111.26872264626712L725.0077458877564,98.78179987529222L725.5474538871766,97.92750806292122L726.8067725524903,87.81432615881715L727.8861885513306,85.30661087711132L729.2354585498811,89.74786074710642L729.9550692157746,127.51709833883231L730.0450205490113,156.71428802472988L732.0239498802187,179.66278519974324L732.3837552131654,197.21284213974107L733.6430738784791,154.47668329678805L734.7224898773194,128.52030806396328L734.812441210556,117.86268919743117L735.442100543213,109.69763613634814L736.7014192085267,102.43455571001772L737.2411272079469,131.80647674027588L737.8707865406037,153.902160859356L738.0506892070771,131.20167927444533L738.8602512062073,167.92000621914013L739.0401538726807,183.03628521305149L739.1301052059174,195.64736243366292L740.8391805374147,201.6912435425787L741.1090345371247,214.187773554582L741.918596536255,216.9215841277525L743.0879638683319,234.54836361530872L745.2467958660127,204.23076566457382L746.6860171977997,157.83483113811025L747.6754818634033,180.663572457994L749.294605861664,202.42812873833503L750.1941191940308,208.85280769650868L750.2840705272675,214.80762910350103L750.8237785266876,216.54426283670065L751.4534378593446,215.11002890425758L751.8132431922913,214.6830192237809L751.903194525528,215.98234641715277L751.9931458587647,218.98049736447012L753.972075189972,165.47546220090086L754.0620265232087,195.9912158253454L754.4218318561554,205.93108099614653L754.6017345226288,219.6138419164587L755.411296521759,225.101614685803L755.7711018547059,240.12029040277466L758.37969051857,237.2036283428443L758.4696418518067,224.76354730168285L759.2792038509369,217.96840060693833L759.549057850647,204.28237468841743L760.1787171833039,209.19988721406096L761.0782305156708,174.93443007687335L761.1681818489076,190.9894724810752L761.348084515381,189.00500161371673L761.7978411815644,195.34969177069766L762.3375491809846,193.16260512135554L762.6973545139314,197.58946885585647L762.8772571804047,198.06107942820842L764.3164785121918,149.234879425774L764.856186511612,127.04508317908167L764.9461378448487,127.72287759451493L765.6657485107423,161.01928346521242L767.3748238422394,168.31874785355782L768.9039965072633,175.26385149556697L771.2427311714173,177.47340501654793L773.3116118358613,179.2108904383056L774.4809791679384,189.4370564434865L774.7508331676484,189.1399605508278L777.539324497986,185.70146811883302L777.6292758312227,150.66352801104955L779.0684971630097,162.066611241376L779.1584484962464,186.12731596386655L780.0579618286133,210.01318191734046L780.3278158283234,199.6744627609697L780.5077184947968,188.4632611564324L781.4971831604005,181.91709027550652L782.0368911598207,191.57386912016935L782.3067451595307,195.45287906133086L782.6665504924774,193.28908846192718L784.285674490738,214.52380669389564L784.3756258239747,204.0509693753107L784.7354311569214,214.2541302584846L785.0052851566314,223.56336785814872L785.185187823105,216.88528934672507L786.4445064884187,214.7151666210844L786.8043118213654,214.95785515688468L787.793776486969,204.58472482023686L788.0636304866791,201.4439546619581L789.862657151413,190.11148568860102L790.5822678173066,198.26107258824675L791.4817811496735,200.83961462013127L791.5717324829102,197.99701215363368L792.5611971485138,173.61345721014024L794.6300778129578,145.75476663507598L795.0798344791414,129.97053988347716L796.609007144165,109.72970171124018L800.5668658065797,106.98296813687455L800.6568171398163,107.48877570550502L801.0166224727631,138.50992397821435L801.3764278057098,161.13971510426154L802.9955518039704,169.01564508815426L803.5352598033905,187.12298662028147L807.4031671325685,142.66092870069062L808.122777798462,115.27432885388146L808.8423884643555,104.90611587343739L808.9323397975921,93.60708401855914L810.461512462616,96.16169811956354L811.6308797946931,123.29709915507257L811.9906851276398,110.30025390972577L812.9801497932434,94.98529613962893L814.0595657920838,92.75212602331618L814.3294197917938,82.98780722291355L814.5093224582673,86.41655936731553L814.869127791214,98.78925505096521L815.5887384571076,101.41673632431025L820.9858184513092,140.41376156536882L821.5255264507294,165.57217286182643L821.6154777839661,187.0371517957058L823.1446504489899,183.5225707270267L823.7743097816468,148.56746491923204L825.8431904460907,176.3338858598479L826.2029957790376,182.2920441379976L827.1924604446411,185.77311166599364L827.4623144443513,146.3379515956559L828.991487109375,162.01171026174026L829.5311951087951,168.99571123577442L830.7005624408722,191.85498703863152L832.4995891056061,195.6413663994705L833.3091511047364,202.19948000025656L834.7483724365235,193.76207368426876L834.9282751029968,186.41556054967182L835.7378371021272,180.96543139398014L836.5473991012574,182.09487590919537L837.2670097671509,153.34092621143586L839.0660364318849,144.42518097453922L839.2459390983582,115.05748630346397L839.5157930980683,107.87156648892363L839.6956957645417,133.82322962611704L840.2354037639618,148.5892282694081L841.3148197628021,161.34635039372185L841.4047710960389,163.95344804765577L842.0344304286957,126.45674861965264L842.3042844284058,151.73999654693614L842.7540410945894,138.98211927784013L843.3837004272461,111.5747982094345L843.5636030937195,96.68525110409388L848.1511210887909,89.73102991585841L849.1405857543946,85.1340847133855L849.4104397541047,90.85067050400897L849.8601964202882,95.09932618184001L851.2994177520752,105.38445037121846L851.6592230850221,102.43682844799002L851.7491744182588,95.1734054828608L851.9290770847322,92.043979804971L852.8285904170991,92.00628465523448L853.1883957500459,90.32105664507196L853.5482010829926,91.11387618555807L854.3577630821228,93.55927893122129L854.4477144153595,88.31204403268657L854.8974710815431,82.37606221519832L855.2572764144899,88.64345041350202L855.3472277477265,83.90698318962802L856.6964977462769,84.40854765954782L859.4849890766145,88.92596261111004L860.5644050754548,82.67247291404067L861.1940644081116,115.96675893779707L861.6438210742951,134.17080634924366L862.9031397396088,114.9211601389955L863.7127017387392,110.42131649872834L865.0619717372895,114.89911234208375L866.0514364028932,105.61076894592082L866.6810957355499,98.21336259527942L866.7710470687867,84.95019514517645L867.580609067917,92.15160783437443L870.9987597309113,87.46456541034775L871.2686137306215,82.71339380795717L871.4485163970949,75.91608537661591L871.7183703968049,78.32852311795273L871.8083217300416,78.38449189822569L872.1681270629884,103.65958582211022L875.0465697265626,93.36222544372936L876.3058883918762,90.74633960367242L878.7345743892671,89.98511176772553L879.2742823886872,91.00475599966268L879.6340877216339,95.27192997304371L881.2532117198945,128.04203034551074L881.7029683860779,146.79296863951882L883.0522383846285,118.83883727248377L883.3220923843385,111.89789641431042L883.5919463840486,104.51969933120125L885.4809243820191,122.11737199019473L886.4703890476228,142.33538781578136L887.6397563796999,119.48950512681449L887.7297077129365,104.6648120928781L888.6292210453034,94.76041295373335L888.8990750450135,88.60984427230034L889.2588803779603,82.42006813999006L890.7880530429841,102.54240930311846L890.9679557094574,97.6494386565738L891.2378097091675,93.22747980463555L893.1267877071382,90.7309492455775L893.3066903736116,86.47094628045346L893.7564470397949,91.0523945015978L894.7459117053986,88.82713429020379L895.4655223712922,87.06545659601886L895.8253277042389,84.14777167859489L897.3545003692628,111.62552529540898L897.8942083686829,101.10370083588117L898.7937217010499,108.43902033280432L898.9736243675233,102.68152023941036L899.5133323669435,98.28923434503929L899.963089033127,93.47289977412271L900.4128456993103,90.73035992988548L900.6826996990205,96.82834557984216L902.0319696975708,88.5983672644644L902.1219210308076,84.97648372644164L904.5506070281983,94.26970984173437L905.2702176940919,93.8748966068012L906.1697310264589,96.20494758701756L907.1591956920624,96.11751204952827L909.048173690033,86.43802157445185L910.5773463550569,123.6046308723904L910.6672976882935,108.95431464592713L913.5457403518678,133.54258311169502L913.6356916851045,153.25214310498524L914.1753996845246,177.2476911270071L918.8528690128327,149.07536126343174L919.0327716793062,136.59009319028505L919.6624310119629,127.95613759354535L919.932285011673,104.891920891805L920.56194434433,98.46261123073691L922.9906303417206,127.5262115755005L924.8796083396912,124.31863882003793L925.7791216720582,112.68081317578293L927.2183430038452,101.23411065108007L927.3982456703186,93.30470210881379L927.578148336792,115.70107844787401L928.0279050029756,108.00556097600105L930.9063476665498,138.384606181885L931.3561043327333,126.29108271726798L932.345568998337,143.74588455544017L932.4355203315736,149.4653173729509L932.5254716648103,123.8715158026742L932.7953256645203,110.43173775688922L934.2345469963075,104.71139140607437L936.6632329936982,102.609450738762L936.9330869934083,90.96720373755971L938.7321136581422,92.65314459255023L939.2718216575623,88.89407132985036L939.361772990799,88.04107972657545L941.7005076549531,116.04687623305819L942.3301669876099,102.76766684413764L942.9598263202669,92.34942030816933L945.9282203170777,95.5829504458925L946.1980743167878,102.18029123776552L947.907149648285,96.93596309387846L947.9971009815216,97.33254161168878L948.8066629806519,84.24593501612082L949.4363223133089,92.8830100511783L949.7061763130189,92.51921694442865L950.3358356456757,102.2161810880823L950.6056896453858,113.32047210604509L952.314764976883,103.8016908116877L952.584618976593,94.42727529901384L953.5740836421967,88.50037751992636L954.5635483078004,84.37515194099683L955.4630616401673,123.87403192017592L955.6429643066407,143.23193235058807L955.7329156398773,161.15591465720317L956.0027696395875,125.46273488032128L958.1616016372682,117.4760073487376L958.6113583034517,123.55151962369925L958.7013096366883,132.64052859932917L959.061114969635,120.81850079754594L960.7701903011323,126.82867598403033L960.8601416343689,124.13267044837883L961.6697036334992,105.1659105169881L962.3893142993927,123.63828853607933L963.468730298233,122.3632726449452L966.7969296279908,103.85135236611183L967.0667836277009,122.48031321421968L967.876345626831,108.61217513577935L967.9662969600679,123.55128788200801L968.506004959488,102.14617761032684L968.6859076259614,94.75192463792581L969.4954696250917,88.18874170066107L972.6437662883759,90.58250279673405L973.0935229545594,121.47647507854316L975.1624036190034,109.76943475539969L975.4322576187134,96.25353151053633L975.7021116184236,93.27511025751068L976.5116736175537,94.05170635793354L979.0303109481813,101.48819012140808L981.1891429458619,95.80130363293006L982.0886562782289,84.89330336910746L987.035979606247,118.28445552231261L987.5756876056672,123.68969540964508L987.935492938614,142.71558755765201L988.205346938324,149.5763611517697L989.1948116039276,154.21405790025844L989.4646656036377,175.36722060006974" fill="none"></path></g></g></g></g><g opacity="0.2"><g><g><g><path style="fill: none;" stroke="rgb(255, 112, 67)" stroke-width="2px" d="M91.66040856819154,267.47281076584653L92.2001165676117,292.4637768842338L93.63933789939881,207.27049082158047L93.8192405658722,322.41450906048067L94.08909456558229,256.8327692910412L95.07855923118592,246.68631795469352L96.42782922973633,267.6951030548813L96.69768322944643,235.06295635589166L98.4967098941803,131.76108110384013L99.57612589302063,235.2204243354345L101.37515255775452,224.21527016550797L103.98374122161867,144.07503718958483L104.25359522132874,143.3311200732754L105.06315722045899,147.99566058552432L106.5023785522461,100.22216910076645L106.68228121871948,159.4729692284146L110.64013988113403,179.36888602837647L111.08989654731752,178.87825271453553L112.43916654586793,183.05093424874292L112.97887454528811,195.90703830811384L113.42863121147157,149.7872573413994L114.05829054412844,201.70063153383816L114.5979985435486,181.8644348445683L117.7462952068329,214.04292429315203L117.92619787330628,212.97561564469666L118.64580853919983,234.31184937652668L120.53478653717042,202.25551932507355L121.25439720306397,155.81647876540887L123.05342386779786,95.93362849044235L127.91079586257935,79.07615162538423L128.00074719581605,159.4288847065094L129.52991986083984,209.57231576277948L129.79977386054992,182.9250033246534L130.06962786026003,107.0493721025606L131.41889785881042,129.24496778251546L131.6887518585205,155.91911550480162L131.77870319175722,187.51675697728248L132.67821652412414,189.90590277903146L134.38729185562136,163.2766864489337L136.27626985359194,196.95892997848335L137.80544251861573,85.08907768957232L138.2551991847992,93.40137342762665L140.68388518218995,71.49006356739147L141.58339851455688,79.23273203235118L142.12310651397704,81.26468501734837L142.75276584663393,143.72794904523542L142.84271717987062,165.86308343887833L145.81111117668152,315.85141929696255L145.99101384315492,202.88528095316158L147.07042984199526,220.91292247325737L147.7000891746521,208.51922140531008L147.7900405078888,212.3375665046279L147.9699431743622,252.72119699738573L148.2397971740723,210.33185205566102L148.4196998405457,221.5560712167059L149.499115839386,186.17994006730507L150.39862917175296,242.7859511707374L154.26653650093078,96.05999991837683L154.98614716682437,80.44180545323763L155.7057578327179,91.6398412232939L156.51531983184816,112.78975036304735L157.6846871639252,190.65380740704646L158.04449249687195,177.65171210169157L158.85405449600222,100.36824043835861L159.21385982894898,173.39908043259675L159.39376249542238,87.31258879369852L159.57366516189578,182.65020310859424L160.20332449455262,70.7577479174733L160.65308116073612,74.70413717765712L160.8329838272095,75.62035366377154L161.28274049339296,82.57541438367161L161.46264315986636,86.73013110756904L161.82244849281312,95.33644970413417L162.1822538257599,77.57089155958909L162.72196182518007,184.50135650950202L162.8119131584168,113.72940611783736L164.88079382286074,233.7379312939971L165.2405991558075,227.18459432499628L168.2089931526184,181.07592574067235L168.8386524852753,206.05611822478238L169.37836048469546,131.14552063696624L170.63767915000915,219.05083197241302L170.99748448295597,183.22635981722124L171.6271438156128,212.85298620173447L171.8070464820862,179.30016480260457L172.52665714797973,208.35841846372176L173.78597581329348,187.80463116364402L173.87592714653016,214.99337797229717L174.77544047889708,175.60698811587713L175.0452944786072,150.9196975360076L175.85485647773743,103.8204565982154L176.57446714363098,179.20435291861048L177.38402914276125,179.0051033791419L177.47398047599793,176.3365632541695L178.0136884754181,211.39498018476485L178.1036398086548,204.07164249473195L178.55339647483825,211.0531912163271L180.17252047309876,164.99134405484685L180.44237447280884,143.14667303857087L181.2519364719391,163.45717617040785L183.95047646903993,86.3301299827342L185.11984380111699,82.82114068947322L185.65955180053712,81.58816058003401L185.9294058002472,96.81910030283353L186.1093084667206,175.9136418148908L186.46911379966735,78.96866606125371L187.0088217990875,183.14958347643005L187.45857846527102,193.1021080828101L188.35809179763794,160.1846369991488L188.8977997970581,91.38831155834225L189.3475564632416,91.46428567007445L190.24706979560852,86.28271049878356L194.0250257915497,106.2518382499955L194.3848311244965,89.92628520523755L194.47478245773317,101.44320111783804L194.56473379096985,96.41494491819088L196.18385778923036,80.53561504702725L197.3532251213074,126.98427316455928L198.52259245338442,90.29945958026394L200.86132711753845,169.77336270820163L201.9407431163788,193.86229167344297L202.93020778198243,207.41724228135354L203.2000617816925,197.48945941701487L203.46991578140262,199.25266698023347L205.2689424461365,187.77754444435334L205.80865044555668,181.10119858198436L206.43830977821352,97.01601011696152L206.97801777763368,99.38373863489716L208.4172391094208,203.60678029704403L208.68709310913087,174.21255021747942L209.67655777473453,183.55950808281594L209.9464117744446,198.3158630118855L210.2162657741547,189.33234707820446L210.30621710739138,192.38220663215964L214.6238811027527,219.0747649205095L214.89373510246278,227.3169739365214L215.16358910217286,195.61380323591308L215.25354043540955,212.48315729257098L217.23246976661684,206.01951504686747L218.3118857654572,191.87951887479917L219.2113990978241,117.55200263727454L219.57120443077088,98.75753780093015L221.81998776168822,135.1812002234749L221.90993909492497,101.87695626010014L222.89940376052857,105.86131682042384L223.61901442642213,112.15587649042135L223.97881975936892,144.53700821151523L224.1587224258423,114.66479732273615L227.03716508941653,99.27332250569361L227.3969704223633,79.5794525430893L229.64575375328064,203.88311472694187L231.08497508506775,140.4364964376515L231.17492641830447,102.95856585603553L232.5241964168549,97.66311354768607L232.88400174980166,226.29939561185924L234.32322308158876,145.95947981399704L234.41317441482548,62.677927919487104L236.39210374603275,103.5688954218113L236.84186041221622,170.86979319058173L237.29161707839967,204.98036975899305L237.56147107810975,83.80491772952956L238.01122774429322,167.56357631869417L238.28108174400333,176.2207672009576L239.36049774284365,85.15196929665046L240.0801084087372,90.66877380237162L240.70976774139407,107.45288675433778L241.33942707405092,110.51679779010823L242.14898907318116,156.89889846826642L242.50879440612795,68.7933449826005L242.68869707260134,92.24347460543504L242.86859973907474,100.83232010164534L243.13845373878482,74.85206243903201L243.76811307144166,165.67914977825248L244.57767507057193,176.8048798948266L245.47718840293885,147.76684805179744L245.83699373588564,94.91475819623184L246.016896402359,127.63244798466536L246.2867504020691,75.37136067073794L246.7365070682526,159.19886160781957L247.00636106796267,85.73470008203412L247.09631240119936,139.0487189442602L248.89533906593326,111.6125560281705L249.7049010650635,110.03390053783107L250.24460906448365,86.66865751584874L250.87426839714053,90.19752528366428L250.96421973037724,84.82741184076582L251.77378172950748,103.14140055475906L252.40344106216432,72.72063830263102L254.2924190601349,77.71975166071849L254.6522243930817,154.22570449566794L255.55173772544862,123.85613653689245L255.9115430583954,85.13726395219794L256.7211050575257,177.46702577689544L257.8904723896027,89.4382936014893L258.1603263893128,194.32102751959377L258.70003438873294,197.2783326859465L258.8799370552063,88.21077547713242L261.93828238525396,140.81611753064774L262.4779903846741,102.87011846106236L264.0071630496979,94.14764339904855L264.90667638206486,91.87309424585459L265.1765303817749,77.25028353907163L265.3564330482483,90.52965074003322L266.9755570465088,87.34058146724561L268.23487571182255,77.68667513951777L268.4147783782959,83.69713805851L270.0339023765564,88.10623623380116L270.3937077095032,167.1128614501559L271.1133183753967,79.68243196952682L272.64249104042057,77.00678404257286L273.1821990398407,79.7200356360554L275.34103103752136,208.1934271249188L276.5103983695984,168.14423391310538L276.7802523693085,121.96320682796767L276.8702037025452,86.04507213243079L277.0501063690186,216.02689321400976L277.230009035492,226.92532334657213L277.58981436843874,110.0988613969501L277.94961970138553,111.47423650786834L278.5792790340424,100.31553753422253L279.9285490325928,176.10208226969817L282.9868943626404,96.34419120373929L283.3466996955872,164.43852223320934L283.976359028244,197.3884625861241L284.7859210273743,118.62475751508606L285.8653370262146,198.32880896691248L286.76485035858155,117.82697157090178L286.9447530250549,193.09705705958606L287.12465569152835,114.37675638827233L287.5744123577118,191.74266857596507L287.8442663574219,216.79629784340068L288.56387702331546,112.53794759884153L288.92368235626225,150.53690035120505L290.7227090209961,96.40040763481784L291.17246568717957,136.57568965622704L291.26241702041625,135.33429073708874L291.4423196868897,168.8059218943816L291.7121736865997,190.4552944477777L292.0719790195465,171.07654540991976L292.1619303527832,183.81176382414995L292.7915896854401,197.5143061972309L293.0614436851502,207.93907455902314L293.5112003513336,122.28696599372489L295.22027568283085,92.162479668954L296.11978901519774,159.84500262626878L296.65949701461795,190.18035702560286L297.1992050140381,171.95573251341636L297.5590103469849,165.63476327159515L298.6384263458252,219.75892056734563L298.7283776790619,214.7579296518861L300.9771610099793,199.11241213156316L301.78672300910955,220.88107489870018L304.9350196723938,187.31493531551192L305.02497100563056,170.40917371453935L305.20487367210393,123.10133746568812L309.16273233451847,115.42124549328264L309.88234300041205,100.21816189440318L310.5120023330689,123.00607309317942L310.69190499954226,147.62999643998614L310.8718076660156,132.20781371258153L311.3215643321991,186.89208576173397L313.5703476631165,190.505770542611L313.6602989963532,190.26187583997998L314.5598123287201,218.70674266795018L314.73971499519354,212.5761607183701L315.18947166137696,134.6252147833143L316.4487903266907,94.11167832804466L316.9884983261109,179.2740234268859L317.7980603252411,176.9475808199893L319.14733032379155,183.0609837761036L319.5071356567383,194.74696256975236L319.6870383232117,95.2050679552683L321.9358216541291,78.2211408836447L323.0152376529694,121.709728704876L323.9147509853363,79.21103114546622L324.45445898475646,156.5512864460209L325.9836316497803,150.9115071843384L326.52333964920047,196.41685947051096L326.61329098243715,71.75571561492632L327.8726096477509,157.0208937432491L328.41231764717105,105.59670465081814L328.86207431335447,104.96170161781453L330.9309549777985,80.65467581800539L331.5606143104553,85.48784461585484L332.0103709766388,88.52117378707277L333.1797383087158,100.03975455474165L333.80939764137275,98.1223246915772L335.1586676399231,93.95614830282432L336.23808363876344,188.4829887032389L336.50793763847355,204.72775820084237L337.7672563037873,188.24823626073493L340.91555296707156,128.16436917901112L341.00550430030825,196.56470070134617L341.09545563354493,199.15720303519294L342.71457963180546,104.18131524726283L344.06384963035583,166.10236237022156L348.38151362571716,91.98759636005241L349.19107562484743,82.2008482528309L350.0006376239777,94.81958310617159L350.54034562339785,86.22112661697992L352.42932362136844,97.55056514353697L352.6092262878418,105.20353625924503L352.6991776210785,94.09160028095823L356.92689028320314,129.03380953999468L357.64650094909666,207.45503239064215L359.71538161354067,159.19031937826526L360.52494361267094,182.39344713796456L360.8847489456177,142.22628391096805L361.24455427856446,142.03970197536358L362.32397027740484,230.2408218182903L362.5938242771149,219.3609519311905L363.3134349430085,242.6580409335441L363.5832889427185,283.3481229268294L365.74212094039916,223.67141400856636L366.101926273346,230.1665545768963L366.2818289398194,239.0184471739098L368.8004662704468,163.16492386162875L370.8693469348908,80.92539070555881L372.2186169334412,74.6664704882237L372.9382275993347,93.24530770771554L373.3879842655182,84.51529615666982L373.83774093170166,164.38373300832905L374.3774489311219,94.86962329258006L375.816670262909,88.97060062499423L377.43579426116946,73.66079298875064L377.52574559440615,74.33879339855162L378.155404927063,88.203937491962L378.42525892677315,101.06961709393045L380.5840909244538,70.44720255408845L380.85394492416384,89.01876062807628L381.4836042568207,76.33198729709898L381.7534582565308,86.92103273810642L381.8434095897675,83.09494369936175L382.02331225624084,129.8248021402328L382.1132635894775,110.37068968915497L384.3620469203949,72.04929731310347L385.17160891952517,192.87644406836864L387.33044091720586,185.36052282402653L388.0500515830994,210.32141388705406L389.30937024841313,91.37936230586115L389.3993215816498,77.14265092149668L390.92849424667367,162.69844013711952L393.5370829105377,170.3782608156145L393.71698557701114,183.57838869471124L394.61649890937804,78.19976561510117L396.1456715744019,203.94366923463386L396.59542824058536,168.83021262876053L398.5743575717927,111.32185762788782L399.2939682376862,139.82084406237482L400.28343290328985,95.41955590792583L400.4633355697632,151.0903543713563L401.09299490242006,183.91890407528126L401.6327029018402,110.70249477909124L402.26236223449706,205.9706617918327L402.8020702339172,178.25577023195152L403.0719242336274,213.67025410136398L404.6010968986512,123.66372760854864L405.6805128974915,185.9622103739821L405.95036689720155,200.56834889649195L406.5800262298584,213.28960100830167L408.01924756164556,91.58881892995242L408.1991502281189,89.18641205865254L408.7388582275391,147.3852890044787L409.0986635604859,137.3045941914231L410.537884892273,234.238107326006L412.0670575572968,218.70198969054678L413.8660842220307,183.59207385589238L415.4852082202912,106.94022168336176L415.6651108867646,111.99379733501092L415.84501355323795,141.13725336799283L416.11486755294806,102.49840411666372L416.3847215526581,93.7286146088739L417.9138942176819,164.86213462673072L418.90335888328553,98.82788711840931L420.1626775485993,98.21883376645565L422.8612175457001,64.38293908203491L423.0411202121735,94.0073964282413L425.1999522098542,119.39444049563986L425.5597575428009,98.76294726692515L425.73966020927435,212.39681328704538L426.2793682086945,197.02930555550614L426.54922220840456,180.76826039273897L426.7291248748779,86.38497566563336L427.53868687400825,176.39938363223555L428.1683462066651,93.22800792034889L429.3377135387421,184.352026362541L430.0573242046356,189.1179733545619L431.2266915367127,109.54043644518299L431.4065942031861,109.0210961982072L431.67644820289615,117.56033216452516L433.11566953468326,89.37675173495546L433.56542620086674,87.31198482419421L433.7453288673401,94.11555948859836L434.64484219970706,146.0782202185424L435.00464753265385,113.68036379408818L437.61323619651796,106.61261812041192L438.06299286270144,175.59749102366632L438.6926521953583,113.60132256765587L442.6505108577729,185.1561119712506L443.3701215236664,186.21998587139453L443.9997808563233,98.81859649186055L444.3595861892701,165.02039958342382L445.3490508548737,67.48897042584434L445.8887588542939,159.72430325976595L446.42846685371404,69.44356279520377L448.4073961849213,188.60967787165174L449.39686085052494,77.59875818732661L449.8466175167084,98.78019453520454L450.65617951583863,91.05799275857748L450.7461308490753,75.73825901482837L451.82554684791563,158.457651850462L452.8150115135193,88.55751699550547L453.08486551322943,171.21241072968317L453.9843788455963,182.61582936593643L458.21209150772097,84.87868097381784L458.66184817390445,66.91613423651376L458.75179950714113,97.95100742870534L459.6513128395081,115.70798920628937L466.2177601657868,64.15001692972436L467.2072248313904,158.73447470787198L467.2971761646271,94.63211622394562L467.47707883110047,89.13034268101853L467.6569814975739,88.38466092337472L467.92683549728395,81.46619025161783L468.01678683052063,82.03420518873145L470.265570161438,93.38678362516629L470.7153268276215,85.77634771828718L470.9851808273316,158.3673544706376L471.7047914932251,82.30864893148538L472.6942561588288,97.23852823807186L473.503818157959,67.5855740350799L473.7736721576691,88.52453500866193L473.8636234909058,83.90118521660622L475.2128934894562,88.15876582494911L476.65211482124334,123.82817012288899L477.1918228206635,94.20589757071542L477.5516281536103,87.36962452253937L478.3611901527405,80.29320794754489L478.54109281921393,100.70697279591377L479.35065481834414,124.73360969228324L479.71046015129093,96.63463751240289L480.6999248168946,114.55285814000001L483.0386594810486,102.62431337662969L483.84822148017884,117.51015017658091L485.1974914787293,113.23990721628275L485.82715081138616,168.26294444741987L486.3668588108063,89.30641817320253L486.7266641437531,117.62657974128382L486.8166154769898,178.64667636383786L488.52569080848696,87.71293129260101L488.79554480819706,148.8784723061422L492.033792804718,189.02659539451568L492.5735008041382,199.6013149414766L493.92277080268866,116.35502436220037L494.102673469162,199.29868945646115L495.6318461341858,189.7545926624781L495.7217974674225,109.21121529434345L497.4308727989197,96.88022726857741L497.5208241321564,69.84768666839403L497.7906781318665,85.4877395776802L498.6002401309967,150.6853153530693L499.58970479660036,79.23616678066264L501.83848812751773,157.83484506251372L502.10834212722784,157.6528060279633L503.0978067928315,81.97364017722197L503.3676607925415,129.14793351676374L503.54756345901495,161.0723408727515L503.7274661254883,113.26361433230369L504.80688212432864,70.75489087912257L506.3360547893525,74.11812920122406L508.225032787323,64.78328158093734L508.85469211997986,168.06374677055004L509.5743027858735,97.73804778148917L509.93410811882023,140.9420845616098L510.5637674514771,91.3474517083992L510.6537187847138,97.63680148493353L510.7436701179505,105.29719879959015L511.6431834503174,169.35939823514494L513.9819181144715,129.5663845969777L514.4316747806549,81.01688945950593L515.8708961124421,99.80219496701989L516.8603607780457,105.90572170876169L517.2201661109925,104.80201208087766L517.3101174442291,69.03164508945366L518.0297281101227,96.47845625049962L518.5694361095428,106.18844771158763L518.8392901092529,99.36366058781073L519.6488521083833,110.00130719223381L520.00865744133,94.64580269810392L520.6383167739868,79.12424860556149L520.7282681072236,65.16055769668424L521.2679761066437,87.23512313988613L521.8076841060639,89.27228076643775L521.9875867725373,87.04292428789165L522.2574407722474,114.68044275885183L525.4057374355317,156.8443101288952L526.485153434372,170.43366861687025L528.1942287658692,171.59951173060085L528.3741314323426,104.52247923856135L530.2631094303132,177.54423933908868L532.0621360950471,113.15160687475407L534.2209680927277,98.99123723573314L534.4908220924377,100.42701454899014L535.6601894245149,89.45446948038705L536.3798000904084,235.53066508811287L537.1893620895386,71.76452831778039L537.4592160892487,155.7321646226086L537.639118755722,97.29323737134399L537.7290700889588,135.14214440418158L541.6869287513733,103.81028890290821L542.2266367507934,84.7943300676564L542.4964907505037,96.07297738485619L543.1261500831604,82.66515900010182L544.2955174152374,95.36705782823032L544.4754200817108,99.959972809178L544.5653714149475,84.42568283795788L545.1950307476044,83.65846300259989L546.8141547458649,173.53030298297912L548.8830354103088,83.46183153963472L549.3327920764924,72.03539025877836L551.1318187412262,123.01010655908641L551.3117214076997,81.2205689839908L551.8514294071198,118.49370663647045L554.1901640712738,121.38686761551219L554.6399207374574,77.46066449909995L556.1690934024812,102.258444406651L557.7882174007417,90.26131496713583L558.5078280666352,156.34026212717282L560.5767087310792,90.71552629391311L560.936514064026,90.06111220623222L561.2963193969728,83.04511358930262L561.3862707302094,110.80780080109747L563.7250053943634,85.79543840653173L565.7938860588074,203.58942273868132L568.4024747226715,187.80388145367235L569.3919393882752,107.90376837097836L570.8311607200624,118.74077743090777L572.090479385376,73.57368483050436L572.1804307186127,90.5265731215157L573.9794573833466,68.65233123311833L576.1382893810272,95.54061765613125L577.5775107128144,81.67227515030243L579.2865860443115,72.8737734574691L579.5564400440217,80.79613072782115L580.0061967102051,84.53083655461086L583.3343960399628,86.13733766505288L583.9640553726197,140.37807420490515L584.3238607055664,186.2991308230243L584.8635687049865,107.11108203017386L585.4032767044068,97.84865297940706L585.8530333705902,98.58213980497271L586.1228873703004,200.13818605980325L586.3027900367738,101.28426260384992L588.4616220344544,120.46366083887403L589.1812327003479,87.77389544917418L590.7104053653718,77.81790983493903L591.1601620315552,90.6931426588929L591.3400646980285,158.8862128549871L592.4194806968688,90.46360273580649L592.5993833633423,104.08698046259991L593.1390913627625,78.02718789413336L594.2185073616029,79.63773822620863L594.6682640277863,95.81063403982319L595.5677773601532,93.94817590536752L596.4672906925201,100.3492915516498L598.9859280231476,90.29578849605957L599.1658306896211,81.93225513640562L599.5256360225678,76.58187311461717L600.8749060211181,87.61618062992085L604.5629106838227,108.18533895388305L604.8327646835328,99.97347021462195L606.4518886817932,79.48925626250798L608.0710126800537,76.61151488750653L609.6001853450775,83.91378979756553L609.8700393447876,171.55017308431366L610.3197960109711,82.90140035873162L610.7695526771546,88.69922399694042L612.3886766754151,90.96076942411133L612.4786280086518,88.58606111946949L614.0078006736755,118.29744280711657L614.2776546733858,83.98466430591799L614.9073140060425,88.1344442356064L617.3360000034332,182.62358643513514L617.5159026699067,198.6752432486246L618.1455620025636,163.56882387220924L619.7646860008241,171.6613314149005L620.5742479999542,96.3540752959749L621.3838099990845,119.1362356546885L622.2833233314515,167.8974700270847L623.2727879970552,169.77006155531862L623.6325933300019,166.23550416500154L623.7225446632385,171.98364008962977L625.4316199947358,191.87378641641706L625.8813766609193,206.09260323475087L626.0612793273926,196.86538560608474L626.4210846603395,133.3068281340583L627.2306466594696,108.64145147162168L628.8497706577301,94.1303436116819L630.6487973224641,92.16331997435134L631.0985539886475,98.56788612467125L631.9081159877778,93.45494814861246L632.4478239871979,115.82432948854375L632.5377753204345,71.00173058957557L632.8975806533814,74.49596201929671L633.1674346530915,71.82723610805289L635.1463639842988,82.56311441341882L636.7654879825592,78.30857466023241L637.125293315506,90.921705726955L637.5750499816895,84.40643984436002L639.0142713134766,92.86567348494748L639.1941739799499,165.5169898747452L640.0936873123169,90.04116545686412L640.6333953117371,125.14513875678705L640.8132979782105,93.12921951708034L641.3530059776306,91.45599290618497L641.532908644104,91.19277249239354L641.7128113105774,94.39065446803522L642.7922273094179,83.51583166522789L642.9721299758912,102.6224121856684L643.1520326423646,89.11854689400411L645.2209133068085,202.48647988947226L646.0304753059388,168.0355958832523L646.3003293056489,183.47276493222662L647.739550637436,175.17085221773746L648.7290153030395,82.61032907292889L648.9089179695129,160.9857776000363L649.4486259689331,76.17322209609904L650.6179933010102,83.38434487818739L651.0677499671937,84.8168029851251L651.6974092998505,172.55139626766197L652.2371172992706,90.89547244283341L653.4064846313477,87.906516648501L655.7452192955018,96.11140560105588L657.8140999599458,181.25908934018022L658.1739052928925,180.8835778657676L658.2638566261293,170.96490476537068L658.8935159587861,164.3193623324539L660.4226886238099,83.5394337430742L661.4121532894135,81.81077848741029L662.4016179550172,81.34887311433909L663.031277287674,182.24403558641822L663.5709852870942,114.30174862774703L665.7298172847749,95.29735449552538L670.677140612793,212.8196943522757L671.0369459457398,191.7611946840209L672.2063132778169,146.2719710095675L673.5555832763672,95.58161930761008L674.2751939422608,92.1554631188867L674.3651452754975,88.35027667689957L674.7249506084443,165.75380369142692L675.6244639408112,215.5047825851773L676.5239772731782,200.27621672512512L676.6139286064149,201.9474344809301L676.7038799396515,205.5344277486486L677.4234906055451,207.6477196701488L679.222517270279,79.30034510538036L681.3813492679596,190.9950265433867L682.0110086006165,212.2176339168001L682.2808626003266,213.70098827126975L683.1803759326936,189.07074950421156L683.9899379318239,208.27020215273282L684.2597919315339,210.45974128521934L685.1593052639008,215.60584506492728L685.6090619300843,147.90862332804596L688.8473099266052,95.77812997667439L689.6568719257356,197.38618325773393L689.8367745922089,191.42196076918177L690.1965799251557,168.1519758830665L690.7362879245759,191.39801994322215L691.0061419242859,211.96944709175702L691.6358012569428,208.65243344436936L692.3554119228363,204.02912829353792L692.6252659225465,219.7339319855938L693.34487658844,194.8219309409622L693.7046819213869,212.54513506752963L694.0644872543336,237.53784481961628L696.1333679187776,211.6579563848002L696.4931732517243,219.75455097927974L697.1228325843812,216.95632875440526L697.4826379173279,226.04588072540648L698.4721025829316,218.83726310378376L699.5515185817719,176.96475488979067L700.990739913559,189.69379394103L703.2395232444763,193.9783759251466L704.5887932430269,223.19278655808913L705.8481119083406,119.50384300645788L706.567722574234,153.17861306988044L707.2873332401276,173.56022064519905L707.8270412395478,194.145921004571L707.9169925727846,192.27892259501562L710.2557272369386,106.78867260496105L711.5150459022523,191.13448966681548L713.7638292331696,73.01079575631417L715.2930018981933,133.440229241832L716.3724178970338,88.53033836781191L716.6422718967439,77.72455190530047L717.181979896164,186.38166850769562L718.8011038944245,93.66531335291455L718.9810065608979,99.20382399742925L720.6001305591584,198.13720883251355L720.9599358921052,98.86277029621414L722.8489138900757,105.21995897785325L723.2087192230225,110.30083930300549L723.8383785556794,105.64953885267255L725.0077458877564,80.12926436453421L725.5474538871766,96.65139635316996L726.8067725524903,72.70760306515552L727.8861885513306,81.56067208972524L729.2354585498811,96.38204696188711L729.9550692157746,183.93548566412863L730.0450205490113,200.32804518645716L732.0239498802187,213.94246053099764L732.3837552131654,223.42851322966308L733.6430738784791,90.63887993786307L734.7224898773194,89.74756800296075L734.812441210556,101.94270490552907L735.442100543213,97.50096086555334L736.7014192085267,91.58521612056148L737.2411272079469,175.68124157101067L737.8707865406037,186.90793339633592L738.0506892070771,97.29248109648643L738.8602512062073,222.7685793859037L739.0401538726807,205.61646256305875L739.1301052059174,214.4853555886411L740.8391805374147,210.71938514916357L741.1090345371247,232.85466003136506L741.918596536255,221.005256280693L743.0879638683319,260.8786402064463L745.2467958660127,158.94338119452345L746.6860171977997,88.53018081054995L747.6754818634033,214.76436061412969L749.294605861664,234.93927390522848L750.1941191940308,218.44977202555106L750.2840705272675,223.70273639225022L750.8237785266876,219.13838654290157L751.4534378593446,212.9676196136506L751.8132431922913,214.04516685818103L751.903194525528,217.92323666361102L751.9931458587647,223.4590320713108L753.972075189972,85.55148199397314L754.0620265232087,241.57459842146082L754.4218318561554,220.77890951811628L754.6017345226288,240.05267930116446L755.411296521759,233.29906079262904L755.7711018547059,262.5546713366051L758.37969051857,232.84681893162661L758.4696418518067,206.18098235491053L759.2792038509369,207.81804432227014L759.549057850647,183.8386601617491L760.1787171833039,216.5454981937629L761.0782305156708,123.74986941558805L761.1681818489076,214.97194230680324L761.348084515381,186.04066732556785L761.7978411815644,204.82717158125016L762.3375491809846,189.89561035089187L762.6973545139314,204.2021655565199L762.8772571804047,198.76555507119804L764.3164785121918,76.2999821652798L764.856186511612,93.8987291846459L764.9461378448487,128.7353435666958L765.6657485107423,210.75630869351122L767.3748238422394,179.22243655335552L768.9039965072633,185.63820830744598L771.2427311714173,180.77396002669147L773.3116118358613,181.80628636756467L774.4809791679384,204.71255129910583L774.7508331676484,188.69616893062184L777.539324497986,180.5651664560778L777.6292758312227,98.32505887249022L779.0684971630097,179.10014454552945L779.1584484962464,222.06836865407064L780.0579618286133,245.6930664712828L780.3278158283234,184.2308398815032L780.5077184947968,171.71635402147513L781.4971831604005,172.13864549327553L782.0368911598207,205.99883303027673L782.3067451595307,201.2472106193252L782.6665504924774,190.0568925291521L784.285674490738,246.2434980179582L784.3756258239747,188.40700540066638L784.7354311569214,229.49526085454738L785.0052851566314,237.46918661674923L785.185187823105,206.90980548552122L786.4445064884187,211.47351197605008L786.8043118213654,215.3203749397883L787.793776486969,189.08969970389757L788.0636304866791,196.75238028587583L789.862657151413,173.1834335313918L790.5822678173066,210.4346450393385L791.4817811496735,204.6913519695049L791.5717324829102,193.75083041440158L792.5611971485138,137.19014197035824L794.6300778129578,104.14041338204987L795.0798344791414,106.39260515976724L796.609007144165,79.49463421705065L800.5668658065797,102.8799920494805L800.6568171398163,108.24433364468132L801.0166224727631,184.84824770727388L801.3764278057098,194.94331830750903L802.9955518039704,180.7804382561137L803.5352598033905,214.1711102555538L807.4031671325685,76.24503669611471L808.122777798462,74.365168484209L808.8423884643555,89.41843613456967L808.9323397975921,76.72897907822977L810.461512462616,99.97769274924326L811.6308797946931,163.83102738517226L811.9906851276398,90.88601375520517L812.9801497932434,72.10833927108035L814.0595657920838,89.41629335580654L814.3294197917938,68.40220382779836L814.5093224582673,91.53831132366673L814.869127791214,117.27116206968378L815.5887384571076,105.34157742838437L820.9858184513092,198.666175828197L821.5255264507294,203.15294185578676L821.6154777839661,219.10079863209918L823.1446504489899,178.272610477304L823.7743097816468,96.35273080733924L825.8431904460907,217.81040990829905L826.2029957790376,191.19213593004656L827.1924604446411,190.97301054197777L827.4623144443513,87.43106660280728L828.991487109375,185.42463156095363L829.5311951087951,179.42817154362083L830.7005624408722,226.0013865546201L832.4995891056061,201.29732958436463L833.3091511047364,211.99576440641832L834.7483724365235,181.15856649405256L834.9282751029968,175.44159205185744L835.7378371021272,172.8242160217624L836.5473991012574,183.7820012573598L837.2670097671509,110.38926569034373L839.0660364318849,131.10714756580825L839.2459390983582,71.18903466263089L839.5157930980683,97.13748676595685L839.6956957645417,172.58893092082738L840.2354037639618,170.64616888619446L841.3148197628021,180.40250039986643L841.4047710960389,167.8478408025346L842.0344304286957,70.44546942420652L842.3042844284058,189.50724220390074L842.7540410945894,119.92484126240743L843.3837004272461,70.63468519204065L843.5636030937195,74.4437580464903L848.1511210887909,79.34305362719749L849.1405857543946,78.26732616904309L849.4104397541047,99.38990962765848L849.8601964202882,101.44582182029586L851.2994177520752,120.7480149334072L851.6592230850221,98.0337722584294L851.7491744182588,84.3235542207351L851.9290770847322,87.36935142328525L852.8285904170991,91.9499769377976L853.1883957500459,87.80372103886913L853.5482010829926,92.29816273107224L854.3577630821228,97.21213739668832L854.4477144153595,80.47390511941393L854.8974710815431,73.50909685690539L855.2572764144899,98.00545921844957L855.3472277477265,76.83181145122273L856.6964977462769,85.1577674038918L859.4849890766145,95.67392160359333L860.5644050754548,73.33122521193462L861.1940644081116,165.70061761168736L861.6438210742951,161.3633858990106L862.9031397396088,86.16670108677937L863.7127017387392,103.69960492635931L865.0619717372895,121.58788967417814L866.0514364028932,91.73616122945793L866.6810957355499,87.1633715627753L866.7710470687867,65.13813204639416L867.580609067917,102.90883028033363L870.9987597309113,80.46322273705096L871.2686137306215,75.61625717495974L871.4485163970949,65.76249996421336L871.7183703968049,81.93213959441346L871.8083217300416,78.46809613608986L872.1681270629884,141.4146513094091L875.0465697265626,77.98038288350455L876.3058883918762,86.83881935879936L878.7345743892671,88.84801582325628L879.2742823886872,92.52786546332936L879.6340877216339,101.64608760410425L881.2532117198945,176.99287853281183L881.7029683860779,174.80247496897223L883.0522383846285,77.08191784890778L883.3220923843385,101.52975782566733L883.5919463840486,93.49840244146964L885.4809243820191,148.40416980250666L886.4703890476228,172.53636407395192L887.6397563796999,85.36311178344505L887.7297077129365,82.52019581525235L888.6292210453034,79.9655623693252L888.8990750450135,79.42233644143153L889.2588803779603,73.1739935682848L890.7880530429841,132.6004700430532L890.9679557094574,90.34048749128652L891.2378097091675,86.62210984874775L893.1267877071382,87.00171781197218L893.3066903736116,80.10750045474447L893.7564470397949,97.89600418854417L894.7459117053986,85.50311716645052L895.4655223712922,84.43392308276003L895.8253277042389,79.78943435805382L897.3545003692628,152.67084802975228L897.8942083686829,85.3865615559381L898.7937217010499,119.39626815987896L898.9736243675233,94.08116473830569L899.5133323669435,91.7281888320012L899.963089033127,86.27842494125741L900.4128456993103,86.63364829223428L900.6826996990205,105.9373066878822L902.0319696975708,76.30470888313954L902.1219210308076,79.56623874071693L904.5506070281983,108.15161119599941L905.2702176940919,93.28513818354696L906.1697310264589,99.68549755497168L907.1591956920624,95.98690385263035L909.048173690033,71.97913181243001L910.5773463550569,179.12283279125617L910.6672976882935,87.0701764423074L913.5457403518678,170.27169236604652L913.6356916851045,182.6936055388527L914.1753996845246,213.09141498035154L918.8528690128327,106.99250443479917L919.0327716793062,117.94002941019801L919.6624310119629,115.05903185178204L919.932285011673,70.43938771389367L920.56194434433,88.8587297170717L922.9906303417206,170.94041757678073L924.8796083396912,119.52727702322477L925.7791216720582,95.29662973212021L927.2183430038452,84.13542034610003L927.3982456703186,81.46002451076521L927.578148336792,149.15601467504865L928.0279050029756,96.51026180978693L930.9063476665498,183.7637784470333L931.3561043327333,108.22619355191739L932.345568998337,169.8192668523606L932.4355203315736,158.00880928738704L932.5254716648103,85.64037580118861L932.7953256645203,90.35585982814808L934.2345469963075,96.16653488702667L936.6632329936982,99.46964410604352L936.9330869934083,73.57641582304552L938.7321136581422,95.1715450218253L939.2718216575623,83.27889705464537L939.361772990799,86.76691022442651L941.7005076549531,157.88097126393885L942.3301669876099,82.93164084921648L942.9598263202669,76.78700216591238L945.9282203170777,100.41308648703006L946.1980743167878,112.03517187200981L947.907149648285,89.10216619066574L947.9971009815216,97.92493695375452L948.8066629806519,64.69761244568389L949.4363223133089,105.78477550254843L949.7061763130189,91.97579532112928L950.3358356456757,116.70117241488651L950.6056896453858,129.9076798859946L952.314764976883,89.5828628931838L952.584618976593,80.42409601698984L953.5740836421967,79.64698158557877L954.5635483078004,78.21303193656087L955.4630616401673,182.87609951999707L955.6429643066407,172.14809783142817L955.7329156398773,187.9301425915235L956.0027696395875,72.14549127345788L958.1616016372682,105.54570861702024L958.6113583034517,132.62691077756972L958.7013096366883,146.21737741828753L959.061114969635,103.15916251009418L960.7701903011323,135.80646884364177L960.8601416343689,120.10547015946298L961.6697036334992,76.83401725289065L962.3893142993927,151.2316911132256L963.468730298233,120.45869778512133L966.7969296279908,76.1988829221687L967.0667836277009,150.307613832715L967.876345626831,87.89642773182482L967.9662969600679,145.8668203882199L968.506004959488,70.1719605212071L968.6859076259614,83.70664401331686L969.4954696250917,78.38488489412356L972.6437662883759,94.15822074323688L973.0935229545594,167.62482768902615L975.1624036190034,92.28186080636482L975.4322576187134,76.06394037918187L975.7021116184236,88.82604708902596L976.5116736175537,95.21175888699423L979.0303109481813,112.59655364839358L981.1891429458619,87.30642830475466L982.0886562782289,68.59930796254946L987.035979606247,168.163009486826L987.5756876056672,131.76385673760552L987.935492938614,171.1358104919567L988.205346938324,159.82474864023976L989.1948116039276,161.141689701617L989.4646656036377,206.9650870768452" fill="none"></path></g></g></g></g></g></g><g transform="translate(49, 378)" clip-path="url(#clip_1)"><clipPath id="clip_1"><rect width="1079" height="21"></rect></clipPath><g><g><line x1="0" y1="0" x2="0" y2="5" style="visibility: inherit;" fill="rgb(0, 0, 0)" stroke="rgb(204, 204, 204)" stroke-width="1px"></line><line x1="89.95133323669434" y1="0" x2="89.95133323669434" y2="5" style="visibility: inherit;" fill="rgb(0, 0, 0)" stroke="rgb(204, 204, 204)" stroke-width="1px"></line><line x1="179.90266647338868" y1="0" x2="179.90266647338868" y2="5" style="visibility: inherit;" fill="rgb(0, 0, 0)" stroke="rgb(204, 204, 204)" stroke-width="1px"></line><line x1="269.85399971008303" y1="0" x2="269.85399971008303" y2="5" style="visibility: inherit;" fill="rgb(0, 0, 0)" stroke="rgb(204, 204, 204)" stroke-width="1px"></line><line x1="359.80533294677736" y1="0" x2="359.80533294677736" y2="5" style="visibility: inherit;" fill="rgb(0, 0, 0)" stroke="rgb(204, 204, 204)" stroke-width="1px"></line><line x1="449.75666618347174" y1="0" x2="449.75666618347174" y2="5" style="visibility: inherit;" fill="rgb(0, 0, 0)" stroke="rgb(204, 204, 204)" stroke-width="1px"></line><line x1="539.7079994201661" y1="0" x2="539.7079994201661" y2="5" style="visibility: inherit;" fill="rgb(0, 0, 0)" stroke="rgb(204, 204, 204)" stroke-width="1px"></line><line x1="629.6593326568604" y1="0" x2="629.6593326568604" y2="5" style="visibility: inherit;" fill="rgb(0, 0, 0)" stroke="rgb(204, 204, 204)" stroke-width="1px"></line><line x1="719.6106658935547" y1="0" x2="719.6106658935547" y2="5" style="visibility: inherit;" fill="rgb(0, 0, 0)" stroke="rgb(204, 204, 204)" stroke-width="1px"></line><line x1="809.5619991302491" y1="0" x2="809.5619991302491" y2="5" style="visibility: inherit;" fill="rgb(0, 0, 0)" stroke="rgb(204, 204, 204)" stroke-width="1px"></line><line x1="899.5133323669435" y1="0" x2="899.5133323669435" y2="5" style="visibility: inherit;" fill="rgb(0, 0, 0)" stroke="rgb(204, 204, 204)" stroke-width="1px"></line><line x1="989.4646656036377" y1="0" x2="989.4646656036377" y2="5" style="visibility: inherit;" fill="rgb(0, 0, 0)" stroke="rgb(204, 204, 204)" stroke-width="1px"></line><line x1="1079.4159988403321" y1="0" x2="1079.4159988403321" y2="5" style="visibility: inherit;" fill="rgb(0, 0, 0)" stroke="rgb(204, 204, 204)" stroke-width="1px"></line></g><g transform="translate(0, 8)"><text style="text-anchor: middle; visibility: hidden; font-family: &quot;Helvetica Neue&quot;, sans-serif; font-size: 12px; font-weight: 200;" x="0" y="0" dx="0em" dy="0.95em" fill="rgb(50, 49, 63)" stroke="none" stroke-width="1px">-1k</text><text style="text-anchor: middle; visibility: inherit; font-family: &quot;Helvetica Neue&quot;, sans-serif; font-size: 12px; font-weight: 200;" x="89.95133323669434" y="0" dx="0em" dy="0.95em" fill="rgb(50, 49, 63)" stroke="none" stroke-width="1px">0</text><text style="text-anchor: middle; visibility: inherit; font-family: &quot;Helvetica Neue&quot;, sans-serif; font-size: 12px; font-weight: 200;" x="179.90266647338868" y="0" dx="0em" dy="0.95em" fill="rgb(50, 49, 63)" stroke="none" stroke-width="1px">1k</text><text style="text-anchor: middle; visibility: inherit; font-family: &quot;Helvetica Neue&quot;, sans-serif; font-size: 12px; font-weight: 200;" x="269.85399971008303" y="0" dx="0em" dy="0.95em" fill="rgb(50, 49, 63)" stroke="none" stroke-width="1px">2k</text><text style="text-anchor: middle; visibility: inherit; font-family: &quot;Helvetica Neue&quot;, sans-serif; font-size: 12px; font-weight: 200;" x="359.80533294677736" y="0" dx="0em" dy="0.95em" fill="rgb(50, 49, 63)" stroke="none" stroke-width="1px">3k</text><text style="text-anchor: middle; visibility: inherit; font-family: &quot;Helvetica Neue&quot;, sans-serif; font-size: 12px; font-weight: 200;" x="449.75666618347174" y="0" dx="0em" dy="0.95em" fill="rgb(50, 49, 63)" stroke="none" stroke-width="1px">4k</text><text style="text-anchor: middle; visibility: inherit; font-family: &quot;Helvetica Neue&quot;, sans-serif; font-size: 12px; font-weight: 200;" x="539.7079994201661" y="0" dx="0em" dy="0.95em" fill="rgb(50, 49, 63)" stroke="none" stroke-width="1px">5k</text><text style="text-anchor: middle; visibility: inherit; font-family: &quot;Helvetica Neue&quot;, sans-serif; font-size: 12px; font-weight: 200;" x="629.6593326568604" y="0" dx="0em" dy="0.95em" fill="rgb(50, 49, 63)" stroke="none" stroke-width="1px">6k</text><text style="text-anchor: middle; visibility: inherit; font-family: &quot;Helvetica Neue&quot;, sans-serif; font-size: 12px; font-weight: 200;" x="719.6106658935547" y="0" dx="0em" dy="0.95em" fill="rgb(50, 49, 63)" stroke="none" stroke-width="1px">7k</text><text style="text-anchor: middle; visibility: inherit; font-family: &quot;Helvetica Neue&quot;, sans-serif; font-size: 12px; font-weight: 200;" x="809.5619991302491" y="0" dx="0em" dy="0.95em" fill="rgb(50, 49, 63)" stroke="none" stroke-width="1px">8k</text><text style="text-anchor: middle; visibility: inherit; font-family: &quot;Helvetica Neue&quot;, sans-serif; font-size: 12px; font-weight: 200;" x="899.5133323669435" y="0" dx="0em" dy="0.95em" fill="rgb(50, 49, 63)" stroke="none" stroke-width="1px">9k</text><text style="text-anchor: middle; visibility: inherit; font-family: &quot;Helvetica Neue&quot;, sans-serif; font-size: 12px; font-weight: 200;" x="989.4646656036377" y="0" dx="0em" dy="0.95em" fill="rgb(50, 49, 63)" stroke="none" stroke-width="1px">10k</text><text style="text-anchor: middle; visibility: hidden; font-family: &quot;Helvetica Neue&quot;, sans-serif; font-size: 12px; font-weight: 200;" x="1079.4159988403321" y="0" dx="0em" dy="0.95em" fill="rgb(50, 49, 63)" stroke="none" stroke-width="1px">11k</text></g><line x1="0" y1="0" x2="1079.4159988403321" y2="0" fill="rgb(0, 0, 0)" stroke="rgb(204, 204, 204)" stroke-width="1px"></line></g></g></g></g></svg>