<svg viewBox="0 0 1129.4000244140625 400" xmlns="http://www.w3.org/2000/svg"><g><g><g><g><g><line x1="49.98400115966797" y1="375.2871262801643" x2="44.98400115966797" y2="375.2871262801643" style="visibility: inherit;" fill="rgb(0, 0, 0)" stroke="rgb(204, 204, 204)" stroke-width="1px"></line><line x1="49.98400115966797" y1="330.30963379744077" x2="44.98400115966797" y2="330.30963379744077" style="visibility: inherit;" fill="rgb(0, 0, 0)" stroke="rgb(204, 204, 204)" stroke-width="1px"></line><line x1="49.98400115966797" y1="285.3321413147172" x2="44.98400115966797" y2="285.3321413147172" style="visibility: inherit;" fill="rgb(0, 0, 0)" stroke="rgb(204, 204, 204)" stroke-width="1px"></line><line x1="49.98400115966797" y1="240.35464883199364" x2="44.98400115966797" y2="240.35464883199364" style="visibility: inherit;" fill="rgb(0, 0, 0)" stroke="rgb(204, 204, 204)" stroke-width="1px"></line><line x1="49.98400115966797" y1="195.3771563492701" x2="44.98400115966797" y2="195.3771563492701" style="visibility: inherit;" fill="rgb(0, 0, 0)" stroke="rgb(204, 204, 204)" stroke-width="1px"></line><line x1="49.98400115966797" y1="150.39966386654655" x2="44.98400115966797" y2="150.39966386654655" style="visibility: inherit;" fill="rgb(0, 0, 0)" stroke="rgb(204, 204, 204)" stroke-width="1px"></line><line x1="49.98400115966797" y1="105.42217138382296" x2="44.98400115966797" y2="105.42217138382296" style="visibility: inherit;" fill="rgb(0, 0, 0)" stroke="rgb(204, 204, 204)" stroke-width="1px"></line><line x1="49.98400115966797" y1="60.444678901099394" x2="44.98400115966797" y2="60.444678901099394" style="visibility: inherit;" fill="rgb(0, 0, 0)" stroke="rgb(204, 204, 204)" stroke-width="1px"></line><line x1="49.98400115966797" y1="15.467186418375888" x2="44.98400115966797" y2="15.467186418375888" style="visibility: inherit;" fill="rgb(0, 0, 0)" stroke="rgb(204, 204, 204)" stroke-width="1px"></line></g><g transform="translate(39.98400115966797, 0)"><text style="text-anchor: end; visibility: hidden; font-family: &quot;Helvetica Neue&quot;, sans-serif; font-size: 12px; font-weight: 200;" x="0" y="375.2871262801643" dx="0em" dy="0.3em" fill="rgb(50, 49, 63)" stroke="none" stroke-width="1px">-500</text><text style="text-anchor: end; visibility: inherit; font-family: &quot;Helvetica Neue&quot;, sans-serif; font-size: 12px; font-weight: 200;" x="0" y="330.30963379744077" dx="0em" dy="0.3em" fill="rgb(50, 49, 63)" stroke="none" stroke-width="1px">-400</text><text style="text-anchor: end; visibility: inherit; font-family: &quot;Helvetica Neue&quot;, sans-serif; font-size: 12px; font-weight: 200;" x="0" y="285.3321413147172" dx="0em" dy="0.3em" fill="rgb(50, 49, 63)" stroke="none" stroke-width="1px">-300</text><text style="text-anchor: end; visibility: inherit; font-family: &quot;Helvetica Neue&quot;, sans-serif; font-size: 12px; font-weight: 200;" x="0" y="240.35464883199364" dx="0em" dy="0.3em" fill="rgb(50, 49, 63)" stroke="none" stroke-width="1px">-200</text><text style="text-anchor: end; visibility: inherit; font-family: &quot;Helvetica Neue&quot;, sans-serif; font-size: 12px; font-weight: 200;" x="0" y="195.3771563492701" dx="0em" dy="0.3em" fill="rgb(50, 49, 63)" stroke="none" stroke-width="1px">-100</text><text style="text-anchor: end; visibility: inherit; font-family: &quot;Helvetica Neue&quot;, sans-serif; font-size: 12px; font-weight: 200;" x="0" y="150.39966386654655" dx="0em" dy="0.3em" fill="rgb(50, 49, 63)" stroke="none" stroke-width="1px">0</text><text style="text-anchor: end; visibility: inherit; font-family: &quot;Helvetica Neue&quot;, sans-serif; font-size: 12px; font-weight: 200;" x="0" y="105.42217138382296" dx="0em" dy="0.3em" fill="rgb(50, 49, 63)" stroke="none" stroke-width="1px">100</text><text style="text-anchor: end; visibility: inherit; font-family: &quot;Helvetica Neue&quot;, sans-serif; font-size: 12px; font-weight: 200;" x="0" y="60.444678901099394" dx="0em" dy="0.3em" fill="rgb(50, 49, 63)" stroke="none" stroke-width="1px">200</text><text style="text-anchor: end; visibility: inherit; font-family: &quot;Helvetica Neue&quot;, sans-serif; font-size: 12px; font-weight: 200;" x="0" y="15.467186418375888" dx="0em" dy="0.3em" fill="rgb(50, 49, 63)" stroke="none" stroke-width="1px">300</text></g><line x1="49.98400115966797" y1="0" x2="49.98400115966797" y2="378.60799980163574" fill="rgb(0, 0, 0)" stroke="rgb(204, 204, 204)" stroke-width="1px"></line></g></g><g transform="translate(49, 0)" clip-path="url(#clip_0)"><clipPath id="clip_0"><rect width="1079" height="378"></rect></clipPath><g><g><g><line x1="2.5978531830826106" y1="0" x2="2.5978531830826106" y2="378.60799980163574" fill="rgb(0, 0, 0)" stroke="rgb(60, 60, 60)" stroke-width="1px" opacity="0.25"></line><line x1="109.73662550456099" y1="0" x2="109.73662550456099" y2="378.60799980163574" fill="rgb(0, 0, 0)" stroke="rgb(60, 60, 60)" stroke-width="1px" opacity="0.25"></line><line x1="216.87539782603938" y1="0" x2="216.87539782603938" y2="378.60799980163574" fill="rgb(0, 0, 0)" stroke="rgb(60, 60, 60)" stroke-width="1px" opacity="0.25"></line><line x1="324.01417014751775" y1="0" x2="324.01417014751775" y2="378.60799980163574" fill="rgb(0, 0, 0)" stroke="rgb(60, 60, 60)" stroke-width="1px" opacity="0.25"></line><line x1="431.1529424689961" y1="0" x2="431.1529424689961" y2="378.60799980163574" fill="rgb(0, 0, 0)" stroke="rgb(60, 60, 60)" stroke-width="1px" opacity="0.25"></line><line x1="538.2917147904745" y1="0" x2="538.2917147904745" y2="378.60799980163574" fill="rgb(0, 0, 0)" stroke="rgb(60, 60, 60)" stroke-width="1px" opacity="0.25"></line><line x1="645.4304871119529" y1="0" x2="645.4304871119529" y2="378.60799980163574" fill="rgb(0, 0, 0)" stroke="rgb(60, 60, 60)" stroke-width="1px" opacity="0.25"></line><line x1="752.5692594334313" y1="0" x2="752.5692594334313" y2="378.60799980163574" fill="rgb(0, 0, 0)" stroke="rgb(60, 60, 60)" stroke-width="1px" opacity="0.25"></line><line x1="859.7080317549097" y1="0" x2="859.7080317549097" y2="378.60799980163574" fill="rgb(0, 0, 0)" stroke="rgb(60, 60, 60)" stroke-width="1px" opacity="0.25"></line><line x1="966.8468040763881" y1="0" x2="966.8468040763881" y2="378.60799980163574" fill="rgb(0, 0, 0)" stroke="rgb(60, 60, 60)" stroke-width="1px" opacity="0.25"></line><line x1="1073.9855763978665" y1="0" x2="1073.9855763978665" y2="378.60799980163574" fill="rgb(0, 0, 0)" stroke="rgb(60, 60, 60)" stroke-width="1px" opacity="0.25"></line></g><g><line x1="0" y1="375.2871262801643" x2="1079.4159988403321" y2="375.2871262801643" fill="rgb(0, 0, 0)" stroke="rgb(60, 60, 60)" stroke-width="1px" opacity="0.25"></line><line x1="0" y1="330.30963379744077" x2="1079.4159988403321" y2="330.30963379744077" fill="rgb(0, 0, 0)" stroke="rgb(60, 60, 60)" stroke-width="1px" opacity="0.25"></line><line x1="0" y1="285.3321413147172" x2="1079.4159988403321" y2="285.3321413147172" fill="rgb(0, 0, 0)" stroke="rgb(60, 60, 60)" stroke-width="1px" opacity="0.25"></line><line x1="0" y1="240.35464883199364" x2="1079.4159988403321" y2="240.35464883199364" fill="rgb(0, 0, 0)" stroke="rgb(60, 60, 60)" stroke-width="1px" opacity="0.25"></line><line x1="0" y1="195.3771563492701" x2="1079.4159988403321" y2="195.3771563492701" fill="rgb(0, 0, 0)" stroke="rgb(60, 60, 60)" stroke-width="1px" opacity="0.25"></line><line x1="0" y1="150.39966386654655" x2="1079.4159988403321" y2="150.39966386654655" fill="rgb(0, 0, 0)" stroke="rgb(60, 60, 60)" stroke-width="1px" opacity="0.25"></line><line x1="0" y1="105.42217138382296" x2="1079.4159988403321" y2="105.42217138382296" fill="rgb(0, 0, 0)" stroke="rgb(60, 60, 60)" stroke-width="1px" opacity="0.25"></line><line x1="0" y1="60.444678901099394" x2="1079.4159988403321" y2="60.444678901099394" fill="rgb(0, 0, 0)" stroke="rgb(60, 60, 60)" stroke-width="1px" opacity="0.25"></line><line x1="0" y1="15.467186418375888" x2="1079.4159988403321" y2="15.467186418375888" fill="rgb(0, 0, 0)" stroke="rgb(60, 60, 60)" stroke-width="1px" opacity="0.25"></line></g></g></g><g><g><line x1="0" y1="150.39966386654655" x2="1079.4159988403321" y2="150.39966386654655" fill="rgb(0, 0, 0)" stroke="rgb(153, 153, 153)" stroke-width="1.5px"></line></g></g><g><g><line x1="2.5978531830826106" y1="0" x2="2.5978531830826106" y2="378.60799980163574" fill="rgb(0, 0, 0)" stroke="rgb(153, 153, 153)" stroke-width="1.5px"></line></g></g><g><g><g><g><g><path style="fill: none;" stroke="rgb(0, 119, 187)" stroke-width="2px" d="M5.812016352726962,192.02528448974368L6.347710214334354,251.70215942780732L8.490485660763921,273.5287751577329L9.026179522371311,280.7379391734773L10.097567245586095,428.2473824723353L11.16895496880088,444.2871952273253L12.240342692015664,139.79887909111605L12.776036553623056,240.35954216575524L13.311730415230448,309.828334837906L13.84742427683784,233.0534036674699L15.990199723267407,171.95854801156148L20.811444477733932,200.1705542349199L21.347138339341328,172.83983707887901L22.41852606255611,322.10192772141403L24.025607647378287,192.61106732736334L24.56130150898568,210.91438323511912L25.632689232200462,202.24576355166334L26.704076955415246,263.06152246037607L27.239770817022638,251.9135885066213L28.31115854023742,172.03051707816914L29.382546263452205,151.93634599642866L29.9182401250596,282.14321129273424L31.525321709881776,248.42547196008823L32.061015571489165,239.46283360667206L32.59670943309656,253.02709302670866L33.13240329470395,264.8668675085252L33.66809715631134,233.22464976006464L35.27517874113352,238.50448825865035L35.810872602740915,197.00985181709063L36.8822603259557,196.17724730288884L37.95364804917048,159.06146513893333L38.489341910777874,168.07287898048958L39.025035772385266,162.23005831481652L39.56072963399265,225.37042356537378L41.167811218814826,143.55915987605667L41.70350508042222,184.34368728631938L42.23919894202961,250.0362297822299L42.77489280363701,241.07385222360045L43.84628052685179,236.3120482537594L45.45336211167397,172.51084102390305L48.13183141971093,207.9573066415639L48.66752528131832,154.56835743735056L49.20321914292571,223.67498979379184L49.7389130045331,162.4429106125489L50.274606866140495,172.32449800151568L50.81030072774789,164.77964734348697L53.488770035784846,152.6877507884112L57.77432092864398,153.38329606083653L59.38140251346616,128.52780195687768L59.917096375073555,176.1117290108815L63.6669534063253,163.92087413134257L65.27403499114747,41.01686048257886L66.34542271436226,133.4853701607769L66.88111657596964,74.39623916849894L67.41681043757703,17.365813643927538L69.55958588400661,153.1958927017505L70.095279745614,57.889521389005665L70.63097360722139,39.85514324204917L72.23805519204356,101.8559467986629L72.77374905365096,142.35340263167234L74.38083063847313,78.51864295147396L76.5236060849027,72.69331097830872L77.59499380811748,62.938192761234006L78.66638153133226,80.63071012090575L79.20207539293966,101.95789010819328L79.73776925454705,51.95894499335162L80.27346311615443,219.0010736670803L82.416238562584,54.037101977487225L83.48762628579878,104.48001247013059L85.09470787062097,56.90078658530865L85.63040173222835,51.621112799219816L86.16609559383575,47.97774099833123L87.23748331705053,196.85754766163765L87.77317717865792,123.29001318614255L88.30887104026532,36.30864297839105L89.91595262508748,49.19176818266334L90.98734034830227,89.8179271008039L91.52303420990967,37.23449192338148L92.59442193312445,120.4281936041973L93.13011579473184,18.11218087147904L94.73719737955402,86.01233407954572L97.41566668759097,134.41328315924395L97.95136054919837,32.25630377377843L98.48705441080575,54.13986198648132L99.55844213402054,180.76862656200348L100.09413599562794,172.21500022194587L101.16552371884272,176.93896664289315L102.2369114420575,208.03684218849722L102.77260530366489,153.13910828291878L103.3082991652723,171.41579631375305L103.84399302687969,193.85928951235084L104.91538075009447,168.652201999872L105.45107461170187,182.01501975197345L109.2009316429536,194.41520105235833L111.34370708938317,191.15818986499625L113.48648253581274,121.57402295179833L114.02217639742013,174.86542504018064L114.55787025902752,193.13119507742257L116.70064570545709,146.37042902113245L118.30772729027926,229.5486923368756L119.91480887510144,199.77456823485667L120.45050273670883,38.289420561764075L122.05758432153101,245.6243026078553L122.5932781831384,126.5094579139286L123.66466590635318,193.47808302737266L124.20035976796058,45.931449019322145L124.73605362956796,173.5582546546153L125.80744135278275,301.27669534234207L126.34313521439014,182.09840545352148L127.41452293760493,180.18496439778121L127.95021679921231,63.496595577756864L128.4859106608197,173.3079637210675L130.09299224564188,67.1004569684552L131.70007383046408,180.7164435840841L134.37854313850102,88.0218402675838L135.44993086171579,166.68786649834945L136.52131858493058,152.8345660285871L137.05701244653798,217.84849110710698L139.73548175457492,93.19531223979567L141.34256333939712,189.44325825159552L141.8782572010045,157.63062312029015L142.4139510626119,194.3871553182533L142.94964492421929,157.96515162783078L144.02103264743405,166.3295550504383L146.16380809386362,28.34902137475592L147.23519581707842,31.64257128434366L148.3065835402932,138.64820788240868L149.377971263508,99.17064239345751L152.05644057154495,124.53588135502875L153.12782829475972,101.93310774043277L155.27060374118932,139.36318279538452L157.94907304922629,33.38886690235955L159.02046077244106,203.1676696912596L159.55615463404845,143.4143977514181L161.16323621887062,50.00238701004133L162.23462394208542,138.18977954635187L162.7703178036928,137.00211922968518L163.3060116653002,165.73049398351247L164.377399388515,185.8961471790948L164.91309325012236,27.051677119082854L165.44878711172976,238.98243588346563L167.59156255815932,84.27020431509686L168.12725641976672,167.48897317903234L169.1986441429815,76.80526924377295L170.8057257278037,35.6475213309983L172.94850117423326,174.42998524984793L173.48419503584063,174.94038981532543L174.01988889744803,160.56625277414685L174.55558275905543,174.34066303539137L175.6269704822702,144.88026390940544L177.2340520670924,52.43547883590196L177.76974592869976,134.73242048497926L178.30543979030716,61.00907313469651L179.91252137512933,65.39630716057974L180.44821523673673,64.88820342279308L181.51960295995153,158.2742869587683L184.73376612959586,152.0054357041471L185.80515385281066,69.13955650176695L187.41223543763283,119.94040097618279L187.9479292992402,151.57371845913784L189.019317022455,125.13690181436542L189.5550108840624,164.77191014552133L192.23348019209934,198.42894262853417L192.76917405370673,205.45113393974162L193.84056177692153,197.90296415332517L194.9119495001363,176.51424174363382L195.4476433617437,62.66126301282543L195.9833372233511,190.4547474004351L197.59041880817327,222.34166958359077L198.12611266978067,188.38687465282376L199.73319425460284,142.55275365192566L200.26888811621023,136.60384012282935L201.340275839425,69.72604279900872L201.8759697010324,50.35330698465475L202.94735742424717,156.58110211328312L205.09013287067674,178.4166607881242L205.62582673228414,174.51391313003154L206.16152059389154,155.17257477751872L207.2329083171063,149.5150667160152L207.7686021787137,103.967821803515L209.37568376353587,185.4842492655304L209.91137762514327,198.78358236036894L210.44707148675067,156.05162950265841L210.98276534835807,177.14203141522466L212.05415307157284,188.41698958767088L212.58984693318024,195.75148265599296L213.12554079478764,196.14347437800672L213.661234656395,176.4515960906519L218.48247941086154,153.7675981970908L219.01817327246894,160.46543156850146L220.0895609956837,148.1218939950239L221.69664258050588,161.4351489418289L225.44649961175767,143.82846781103515L225.98219347336504,168.06695447786723L228.1249689197946,159.4065652719902L228.660662781402,158.78331377283956L229.1963566430094,155.71576570865219L230.26774436622418,28.43944853554575L231.33913208943898,23.350916739071238L233.48190753586854,50.558497577649234L238.30315229033508,50.533131853128964L238.83884615194245,51.588204614946335L239.37454001354985,29.84979929012337L239.91023387515725,167.48523969576962L240.98162159837202,27.009442089673257L241.51731545997941,150.90833873633733L243.12439704480158,24.943302254789558L244.73147862962375,144.1770264775878L248.48133566087552,127.77700293370691L249.0170295224829,154.4617459869254L249.55272338409029,161.41807631995127L250.08841724569768,148.52524809122056L251.15980496891245,123.04258756373852L251.69549883051985,128.16741444520372L252.23119269212725,80.04824555379622L253.30258041534202,58.445178997247126L253.83827427694942,25.567850864853142L254.37396813855682,39.72292028517472L255.4453558617716,27.196761376755717L256.5167435849864,53.62242454053791L257.0524374465938,41.26319488469102L259.1952128930234,42.66923566226683L262.9450699242751,45.769365059366635L264.55215150909726,79.17512519687114L265.08784537070466,39.38263112963108L266.15923309391945,71.39173223886155L267.23062081713425,67.34751198774126L268.8377024019564,94.89143917646874L274.7303348796377,71.31112606069848L276.3374164644599,171.86641195861645L276.87311032606726,41.93594248915559L277.40880418767466,133.33588155956755L278.48019191088946,138.64915154775542L279.55157963410426,34.61887119888945L280.0872734957116,158.33573415675986L281.1586612189264,42.25390623835068L283.8371305269634,50.99700342248127L284.37282438857073,85.85478657627522L287.5869875582151,29.8581859014231L288.65837528142987,146.42255108974305L289.1940691430373,139.2211285613523L289.72976300464467,33.520115310294045L290.26545686625207,144.59109782402126L290.80115072785946,102.17337523224302L291.33684458946686,164.45300787824505L291.87253845107426,43.59432967497986L292.40823231268166,29.456973711094122L292.943926174289,44.32133632112664L293.47962003589646,19.037714117517112L294.5510077591112,25.01385410762191L296.15808934393334,20.88097049203259L296.6937832055408,44.73136063003898L297.22947706714814,96.7768482241454L298.30086479036294,125.99611254407964L300.4436402367925,124.42765323428907L301.5150279600073,54.42043599888348L302.58641568322207,179.21769369133455L304.7291911296516,53.812056665597424L305.26488499125907,101.50957014375518L305.8005788528664,94.42581753683703L306.8719665760812,104.60734552475373L307.943354299296,58.31500808356304L309.01474202251075,177.30761894724935L310.08612974572554,154.3034221044378L310.621823607333,118.40851298796622L312.22890519215514,163.5447145402143L313.3002929153699,12.258779143636275L313.83598677697734,48.3686861096877L314.3716806385847,171.37572999888573L314.90737450019213,163.26812451133057L315.4430683617995,162.51680561434148L315.9787622234069,150.72297205907105L317.0501499466217,118.49301393037854L317.585843808229,51.11803279258817L320.264313116266,13.116876348241362L320.8000069778734,30.521043893053843L321.87139470108815,61.813508380420615L322.4070885626956,197.6936282958258L322.94278242430295,200.77099305325197L324.54986400912514,169.54883849723782L325.62125173233994,179.5903522840264L326.69263945555474,93.97402488392294L327.7640271787695,168.23196380039764L328.8354149019843,153.14350404767941L329.9068026251991,168.85783525770185L330.4424964868065,76.8737621903943L330.9781903484139,157.1266127454144L332.5852719332361,44.675461326408595L334.7280473796656,126.24657676890018L335.263741241273,174.29055955274518L336.33512896448775,138.19473893668774L336.8708228260952,172.91212184443904L337.94221054931,162.6680974742407L340.08498599573954,111.45620095356219L342.7634553037765,28.909606631862516L346.5133123350283,83.20318303423454L347.0490061966356,44.97799014204139L348.1203939198504,45.355421965632615L348.6560877814578,38.61926419979699L349.19178164306516,25.489406538211654L349.7274755046726,148.1985901816105L350.26316936627995,152.3357046349942L350.79886322788735,127.65970533110752L351.87025095110215,24.34841562020665L352.40594481270955,36.85377957589395L354.5487202591391,68.39338830181595L355.0844141207465,43.82706157005765L356.1558018439613,61.55633726861754L357.2271895671761,36.32122289534061L358.8342711519982,44.660191105343245L359.905658875213,165.9987917676312L360.4413527368204,65.21950888423584L360.9770465984278,194.46216470303267L362.58412818325,33.88598294399981L363.11982204485736,37.52111912004415L363.65551590646476,58.80031286657248L364.19120976807216,171.43747316464516L364.72690362967955,97.20341927597394L365.79829135289435,179.20872715478538L366.3339852145017,174.066281183419L366.86967907610915,160.6730293660077L367.9410667993239,195.67169317729358L368.4767606609313,193.41321718719317L369.0124545225387,214.42598503849973L369.5481483841461,184.65355610259456L370.0838422457535,185.36301400480235L370.61953610736083,164.61130345077225L371.6909238305756,186.78600644351584L372.226617692183,162.4560919016876L373.8336992770052,102.16343071524363L375.97647472343476,180.01326534582003L377.58355630825696,178.3867363021016L378.1192501698643,187.08951667110924L378.65494403147176,207.37744315930104L379.72633175468656,182.87797940674702L380.2620256162939,204.39078008349284L380.7977194779013,196.23247403049024L381.3334133395087,242.84453215417605L382.40480106272344,235.64619798510188L382.9404949243309,190.94955746711898L383.47618878593823,204.72521165086602L385.61896423236783,179.81043220043722L387.76173967879737,219.11108788895802L388.2974335404048,199.4157901015377L389.36882126361957,218.88248066932312L389.90451512522696,172.23673712426915L390.44020898683436,188.20671006482476L390.9759028484417,178.31362454254682L391.51159671004916,193.37762213031425L392.0472905716565,194.57597417535948L393.6543721564787,170.98086610270755L394.19006601808616,163.52301624238245L397.4042291877305,65.40030143862919L398.4756169109453,110.44657854635403L399.01131077255263,45.30768279361877L399.54700463416003,49.48450346775218L400.08269849576743,45.253780629013136L401.15408621898223,18.33749384117624L402.7611678038044,33.48717281091706L403.29686166541177,135.99421257765283L404.90394325023397,25.26888395696551L405.4396371118413,35.0984316335701L405.97533097344876,157.05372188933845L407.04671869666356,162.68463563838108L408.1181064198783,159.30468801903405L409.72518800470044,136.2646773605587L410.2608818663079,143.8912485797372L411.3322695895227,127.52044434650165L412.93935117434484,95.64273062137494L413.47504503595223,67.79175531788144L414.0107388975596,167.26813489883378L415.0821266207744,163.90242804744665L415.61782048238183,124.88725428900858L416.1535143439892,65.13759186911835L417.22490206720397,146.5479419095071L417.76059592881137,110.03037408729813L418.2962897904187,78.51728407337464L420.9747590984557,215.49500345838672L423.1175345448853,52.08374216182477L423.65322840649264,103.44471207096007L424.72461612970744,159.29858936726137L425.79600385292224,72.46220561913765L426.867391576137,78.59129488864164L427.40308543774444,164.83992954371413L427.9387792993518,208.61927244050318L428.47447316095923,93.9899573864862L429.0101670225666,155.8211070713084L429.545860884174,168.8511626858228L430.6172486073888,168.98142110302084L431.6886363306036,152.71106146716957L432.7600240538183,161.34791051203348L434.3671056386405,171.29393480238576L435.43849336185525,175.8259528287861L435.9741872234627,123.66320023142862L436.50988108507005,150.04040132728576L438.65265653149964,214.3344529313766L439.7240442547144,262.4360747946003L440.25973811632184,224.80493811148486L441.3311258395366,138.17854649721534L442.9382074243588,209.29360540275027L444.0095951475735,206.1895297687459L444.545289009181,195.61090740292232L445.0809828707883,249.32331978060822L446.6880644556105,203.89359541164555L448.29514604043266,179.8567747477379L448.8308399020401,152.11182850302205L449.90222762525485,186.6744411789591L450.97361534846965,203.49213615257125L452.04500307168445,162.67280464856574L454.7234723797214,202.66450046535883L455.7948601029362,151.97286112702062L456.3305539645436,235.47055269623615L456.8662478261509,208.50807777906445L457.4019416877584,224.83026952090162L459.0090232725805,178.3644246217944L462.22318644222486,208.57289900960936L463.2945741654397,220.51833655817765L463.83026802704705,144.5249164285606L464.3659618886544,161.8397411698544L464.90165575026185,216.45142029759074L465.4373496118692,235.39190934199428L467.58012505829885,164.27151357998477L468.6515127815136,130.83712778312582L469.187206643121,150.43795478699013L470.7942882279432,86.65596875018582L471.3299820895505,172.76306732928919L471.865675951158,178.81910660642464L472.4013698127653,163.57092956354666L472.9370636743727,154.63066251293003L474.0084513975875,191.80337900982576L474.5441452591949,29.393024084178478L475.0798391208023,202.06356407802576L475.61553298240966,179.60736571235054L476.68692070562446,190.36154414777067L478.29400229044666,161.76622020269014L479.36539001366145,207.40369764500244L479.9010838752688,185.24858686061222L480.9724715984836,15.590034488969252L481.508165460091,177.06223678925977L483.1152470449132,79.37760489668773L483.6509409065206,40.226075785034084L484.7223286297354,45.032894307669665L485.25802249134273,51.87298565903973L489.0078795225945,138.11757284765233L489.54357338420186,131.2480820313435L490.07926724580926,174.1359597168669L490.61496110741666,24.8700326457585L491.15065496902406,36.996660803920975L491.6863488306314,212.34123269146804L492.22204269223886,26.22657731802036L493.29343041545366,158.49882183349328L493.829124277061,141.8586466112765L494.3648181386684,169.41290436191798L495.97189972349054,192.17947254437976L496.507593585098,205.59716529427158L497.04328744670534,204.9232166611839L497.5789813083128,167.6362982129649L498.65036903152753,154.87319565945006L501.8645322011719,46.85144380765246L502.40022606277927,174.97119619950846L502.93591992438667,27.355626580001285L504.00730764760146,90.47733299302075L506.15008309403106,81.59474491309072L507.7571646788532,69.4788916974328L509.3642462636754,83.5677535570274L511.50702171010494,52.97903007562235L513.1141032949271,72.91728565896875L513.6497971565345,157.8646135217894L514.1854910181419,53.171654477708614L515.2568787413567,118.22409675864134L515.792572602964,154.77712795351948L516.3282664645715,6.691606557255454L517.9353480493936,118.84206030033988L518.4710419110011,160.57940832695792L519.5424296342159,80.73392995228699L520.6138173574307,150.33467035005413L521.149511219038,149.9512337720731L522.2208989422528,141.43923883730727L523.2922866654675,155.51825226219222L523.8279805270749,138.14098432702724L524.8993682502897,130.80253987453517L525.9707559735045,66.75331851824939L526.5064498351119,102.76336167004365L527.0421436967193,144.25449153696266L527.5778375583267,172.23113175210952L529.1849191431489,185.19142476117244L529.7206130047563,76.4434370662409L530.2563068663636,181.47201755390932L531.8633884511858,169.4713155311258L532.3990823127932,171.86149632003756L536.6846332056524,171.00230446363025L538.2917147904745,192.7084947692708L538.8274086520819,174.84757432333075L539.8987963752967,168.6759995241615L540.9701840985115,180.59070618177452L541.5058779601189,134.96834883194973L543.1129595449411,162.1224881861868L543.6486534065485,191.57325163110497L544.7200411297632,158.76701066715827L545.2557349913707,150.47651128756888L545.7914288529781,133.69583326942683L546.3271227145854,71.5045259841242L547.9342042994076,39.93438367909221L552.2197551922668,158.6803487311019L552.755449053874,109.70894108113743L553.2911429154815,75.2139680853258L554.3625306386964,58.66298382229468L555.4339183619111,92.77129766317921L555.9696122235185,161.67686967827316L556.5053060851259,162.81212053733728L557.5766938083407,184.54272861276343L558.6480815315555,184.21541056634948L559.1837753931628,208.00745473384467L559.7194692547702,123.98177822097662L561.3265508395923,187.8395212996336L561.8622447011998,161.18900670429647L562.3979385628072,154.41429291708712L565.0764078708442,28.342762299874266L566.147795594059,30.287618832885073L566.6834894556663,72.92214467762687L567.7548771788811,73.04850661482044L568.2905710404884,131.41995265882227L569.3619587637033,56.674306902091814L572.5761219333476,44.49806596726347L573.1118157949551,37.21371069669118L574.1832035181698,25.932057647548618L575.2545912413846,38.996126392669794L577.3973666878142,25.275554813089343L578.4687544110288,30.068715924524895L579.5401421342438,30.766506691536676L580.6115298574584,180.2318010825725L581.6829175806733,36.340700148097255L582.754305303888,31.850589441867953L583.2899991654955,36.07206092869859L583.8256930271028,39.34279815746771L584.3613868887103,13.549548625475381L584.8970807503176,101.98581573943596L587.0398561967471,132.1041769496583L588.111243919962,121.94795806634107L588.6469377815694,19.494530501586155L591.8611009512138,160.22622612914506L592.9324886744286,31.601310803873957L594.0038763976432,61.91421634622435L594.5395702592507,42.85594414050661L595.0752641208582,145.43707622088027L598.2894272905024,155.99799027753352L599.8965088753246,156.510814057809L600.9678965985394,168.73018478837116L602.5749781833615,170.40470693586946L604.1820597681836,69.39594522920981L604.7177536297911,156.68603341045232L605.7891413530059,61.39266108785881L606.3248352146134,83.26641204397629L606.8605290762207,86.73444052891011L607.396222937828,160.11612011436543L608.467610661043,87.37934485838042L609.0033045226503,105.25483378151887L610.0746922458651,164.46457378388573L610.6103861074726,179.93319105176147L611.1460799690798,147.7292532886148L612.753161553902,69.28272597666353L613.2888554155094,159.50365642588315L614.3602431387242,216.34676609488247L618.6457940315834,139.27248711890968L619.1814878931908,34.598954712807824L619.717181754798,63.19132155384267L620.2528756164055,147.43742091968733L621.8599572012276,102.619996599057L622.3956510628351,30.267757250968998L622.9313449244424,104.57448538162515L624.5384265092646,134.5276382417167L625.074120370872,210.90533777383186L625.6098142324795,170.50789588365754L627.2168958173016,174.82259979099058L633.6452221565903,155.2462720385273L635.2523037414124,175.97855037837414L636.3236914646274,169.57700433420518L636.8593853262346,128.44017662429005L637.9307730494495,164.7679407459219L638.4664669110568,85.6186643489699L640.073548495879,82.53454637917145L641.6806300807011,41.1130594437804L642.2163239423086,66.8296284454521L642.752017803916,157.651409494246L643.2877116655233,91.214167484815L643.8234055271307,22.188417114181334L644.3590993887382,144.19748085291712L644.8947932503456,164.92999124865148L645.4304871119529,106.04681950768679L646.5018748351678,72.67263269692893L647.5732625583825,12.784664968065783L648.1089564199899,102.1112168537311L649.1803441432047,124.57094109629276L650.2517318664194,58.71053082972884L651.3231195896343,88.9262285468343L651.8588134512415,93.25844859875792L652.394507312849,119.28651638412191L652.9302011744564,145.0159273843463L653.4658950360638,153.91276995827758L654.0015888976711,146.70379810711293L656.1443643441007,104.08113027533045L658.8228336521377,138.10320682956464L659.3585275137451,43.6760613885383L660.4299152369598,40.578286007539816L660.9656090985673,68.23172984914402L663.1083845449969,79.73807819612045L663.6440784066043,87.487279584985L664.1797722682117,100.0571147571614L665.2511599914264,154.17246408806682L666.8582415762487,53.137504086687784L668.4653231610708,123.27032832700962L669.5367108842855,79.88671749851773L670.6080986075003,133.20025454442415L671.1437924691077,106.27959601239911L672.2151801923225,110.36574245699734L672.7508740539299,41.96911146821583L674.3579556387521,78.66174379616348L674.8936495003595,107.06819826936015L675.429343361967,133.76943573496197L676.5007310851817,23.67649844124719L677.0364249467891,119.226231610262L677.5721188083965,89.43760594549644L678.6435065316113,63.3132156645583L679.1792003932186,80.31731028047858L679.714894254826,70.52618865679307L680.2505881164334,77.44304975775299L680.7862819780407,211.02703971996775L681.3219758396482,210.2323568266634L684.0004451476852,175.00256706714433L684.5361390092925,192.38001687235794L685.6075267325074,62.32693782227318L687.7503021789369,103.57232307792168L688.2859960405443,75.09412601780059L689.357383763759,133.59146216632257L691.5001592101886,128.11373018150542L692.5715469334035,179.94368117890681L693.6429346566182,172.50202547380934L694.714322379833,188.93207988053373L695.2500162414403,193.74695902098563L695.7857101030478,201.3544596213842L696.3214039646551,189.01062715248574L697.3927916878699,151.01461229022757L698.9998732726922,74.38833296864846L699.5355671342994,191.78436157945623L700.6069548575143,145.74227861201584L701.1426487191218,155.89787724983702L701.678342580729,149.1379690357445L702.7497303039439,149.48518137065753L704.8925057503734,85.38101166804768L705.9638934735882,77.50593561645951L706.4995873351955,110.55037143996401L707.5709750584105,50.53352304530904L708.1066689200177,25.77891620356985L709.71375050484,90.45512425802411L710.2494443664473,134.18666964712338L712.9279136744843,15.026607941291388L713.4636075360917,46.30610131952841L713.9993013976991,57.20295166084418L714.5349952593065,142.79063624404142L715.6063829825213,65.68401185149287L716.677770705736,67.66555123016406L717.2134645673434,165.7028016949737L717.7491584289509,79.67416288430837L718.2848522905583,58.72553339298673L718.8205461521655,205.32426413901598L719.356240013773,120.07728392411491L720.9633215985951,88.33371651741476L722.5704031834174,51.950908396107764L723.6417909066321,51.929042812146236L724.713178629847,39.34614731157109L725.2488724914542,51.85827820567209L725.7845663530617,137.0276247882523L726.3202602146691,28.802804303674066L726.8559540762765,43.779116507422714L728.9987295227061,53.31608674841465L731.1415049691357,45.39616085652881L732.2128926923504,54.99630520309688L732.7485865539578,46.835260804833524L734.35566813878,46.03363939759788L734.8913620003874,28.51636927159103L735.4270558619947,46.19849601791759L737.034137446817,10.569954460991823L738.6412190316391,39.80870804396898L739.1769128932465,43.02622941020286L739.7126067548539,46.83109495126649L740.7839944780686,54.43541797307927L741.3196883396761,39.03536914505264L741.8553822012835,115.91172889846638L743.4624637861057,77.47211465043245L744.5338515093205,94.53268163221185L745.0695453709278,152.66318546368046L745.6052392325353,86.21110088516161L746.1409330941426,92.3746493816181L746.6766269557501,74.40024717258979L747.2123208173574,55.1694386263851L748.2837085405722,55.166885582683335L748.8194024021797,23.25413442110988L750.4264839870018,15.514019671656854L753.1049532950387,86.61681521707214L759.5332796343274,20.98224122553404L760.0689734959348,53.69871387867846L760.6046673575422,131.24323159146127L761.1403612191496,18.086554352172016L763.2831366655791,40.63316958410604L764.8902182504013,132.84665284447084L765.4259121120087,38.57024164291158L766.4972998352234,169.20952560638926L767.0329936968309,156.6418994690018L767.5686875584383,74.59903456726784L768.1043814200457,28.004127132320207L769.1757691432605,162.09093459062467L770.2471568664753,81.25160074093435L770.7828507280826,34.22640249693683L771.31854458969,37.34535029680575L772.3899323129049,48.51756561780962L772.9256261745122,46.651771083303686L773.4613200361196,33.28947663653088L774.5327077593345,89.09191559265912L775.6040954825492,52.99192569152433L778.8182586521935,36.5514429248409L779.8896463754082,136.92313186653053L782.5681156834453,37.25530060215459L783.1038095450527,153.26850195950817L785.2465849914822,45.49683450722904L787.9250542995192,148.22985016856816L788.4607481611265,51.83339975562171L790.6035236075561,47.10887571424229L792.7462990539857,20.45212778035119L794.3533806388078,19.2791826379505L795.9604622236301,172.91777697349875L796.4961560852374,48.09211323835575L797.0318499468448,33.71270539727681L798.6389315316669,135.7466925887141L799.1746253932744,25.55168158807561L800.7817069780965,44.144599811969044L801.8530947013114,16.24519217137066L802.3887885629188,25.211605186173756L802.9244824245261,53.8789573914155L806.674339455778,96.20279085739776L807.2100333173852,90.25797712529419L807.7457271789926,167.6473545393183L808.2814210406001,166.22768894989082L809.3528087638148,89.8846905662079L809.8885026254222,53.9434766490495L810.4241964870297,117.90108868922925L810.959890348637,27.59406164528366L811.4955842102445,65.10246692915763L812.0312780718518,16.865485708598044L812.5669719334592,54.43112172211886L813.1026657950666,37.5741290919583L813.6383596566741,60.3709014285364L815.2454412414962,37.03244459386923L816.3168289647109,153.62729038735822L818.995298272748,37.72353018965367L819.5309921343553,126.42994295605737L820.0666859959628,81.55654533985478L821.1380737191774,126.43232270848631L824.8879307504292,37.481986175992574L825.959318473644,111.33048070880437L828.637787781681,53.47490391051531L829.1734816432884,162.1028453630557L831.3162570897179,72.04292309529632L832.3876448129328,100.50226743754479L832.9233386745401,62.374560322935054L833.9947263977549,178.7852444622734L834.5304202593622,54.769660807383104L835.601807982577,78.97372985432571L836.1375018441844,112.4199337728362L839.3516650138289,38.567764092437585L839.8873588754361,58.674369573641854L840.4230527370436,46.321275458304L843.1015220450805,135.27629257091758L843.637215906688,55.25997559550615L848.4584606611544,158.14144718790817L848.9941545227618,66.35401424767605L850.601236107584,33.5189211446916L851.1369299691914,30.394379982949317L851.6726238307988,55.376777344859704L852.7440115540136,59.77149892633054L853.8153992772284,46.25518456892888L854.8867870004432,45.526270003026525L856.4938685852654,152.61398468272617L857.0295624468727,57.5823874864808L858.1009501700876,51.694149065546924L858.6366440316949,57.96735490680453L859.7080317549097,107.93718365631139L860.7794194781245,45.474090456617546L861.3151133397319,25.14292007497272L862.3865010629466,46.03866312875289L862.9221949245541,51.013248192486515L865.0649703709837,41.27830039325954L865.6006642325909,61.57276047716107L866.6720519558058,126.46173246795615L867.2077458174132,67.7318205580774L867.7434396790205,124.35651974045206L868.279133540628,150.59326254948598L869.3505212638428,86.36198439532893L869.8862151254501,34.59962728883676L870.4219089870575,63.600714464850284L870.9576028486649,131.70310545125375L873.1003782950945,56.853733715365195L874.1717660183092,145.628744089456L874.7074598799167,28.061845136437L875.2431537415241,42.350578747980705L876.3145414647388,21.215378038833364L877.3859291879536,43.03909757402204L878.4573169111685,29.331531418674786L879.5287046343832,143.74358897354534L880.0643984959906,22.916665967075403L880.6000923575979,140.33139716717793L881.6714800808128,162.4522872145851L882.2071739424202,127.22847943548678L882.7428678040276,143.7988873339253L883.2785616656349,125.97345428122694L883.8142555272424,38.31012629522667L884.3499493888497,36.756564887628315L885.4213371120645,134.55326304526852L885.9570309736719,142.53961611454395L887.564112558494,34.8783620116904L888.0998064201015,21.383384785656006L889.1711941433163,115.94114037369138L889.7068880049236,150.5115092683488L891.3139695897459,23.310424916920397L891.8496634513532,44.08346402354192L892.3853573129607,45.44368041188011L892.921051174568,50.52908267091385L893.4567450361754,96.8495310449062L894.5281327593901,19.25155211659802L896.6709082058197,136.29411886149927L897.7422959290345,39.40968515724444L898.2779897906419,168.19202616716856L898.8136836522493,35.256500726414004L900.4207652370715,37.70831487275393L900.9564590986789,84.77619424250679L902.0278468218937,21.522786462186332L904.1706222683233,20.26729290676343L904.7063161299305,28.037742207726126L905.242009991538,52.41027096085787L905.7777038531455,123.19516795577479L906.8490915763601,30.00184265078957L908.9918670227897,30.052725086285648L909.5275608843972,16.5389431835236L910.598948607612,144.0796084723338L911.1346424692193,38.531870494158056L911.6703363308267,143.2996278851316L912.2060301924341,33.37799587756513L913.2774179156488,36.7690075441638L914.8844995004711,85.9447127365537L915.4201933620784,131.0453638415575L915.9558872236859,42.96022087707621L916.4915810852932,15.99621550628757L917.0272749469007,35.17715048103969L918.6343565317228,34.319012098310395L919.1700503933303,88.40253888902987L921.3128258397599,39.54224440213329L921.8485197013671,86.00868295253144L922.919907424582,42.29900314739359L923.4556012861893,42.051845182797024L923.9912951477967,27.90829191121594L926.1340705942263,125.74952421020146L927.7411521790485,27.3444535822959L928.8125399022632,58.63390520357376L930.4196214870854,101.51882835868429L930.9553153486928,158.61899246813468L931.4910092103003,23.52486686182317L932.0267030719076,16.4089301193157L932.562396933515,40.98884563206701L933.6337846567297,165.67785976198184L934.1694785183372,52.60461798114068L934.7051723799445,37.172278640703894L936.3122539647668,61.89828041215071L936.8479478263741,140.13014766382247L937.9193355495889,64.97419020918778L938.4550294111964,159.6667492498821L938.9907232728036,60.40987652311179L940.5978048576259,63.53137050366172L941.6691925808407,11.278286827804266L942.204886442448,52.0213367145675L942.7405803040555,160.50159110883322L943.2762741656629,54.795843231367144L947.0261311969147,17.817482762469012L947.5618250585219,59.85832986427175L949.1689066433441,34.27208276273956L951.8473759513812,42.75443320128056L953.9901513978107,18.090713342718345L955.0615391210255,156.00455733046923L956.1329268442403,32.77720704517719L957.2043145674551,39.59756721202456L957.7400084290624,58.23484113872502L958.2757022906699,31.788781077411898L958.8113961522772,88.94991283128218L960.9541715987067,124.80308277159003L961.4898654603141,107.93233150067402L962.0255593219216,68.24384994370644L963.0969470451363,22.86880326068888L963.6326409067437,140.61157398225683L964.1683347683512,67.96704372967054L966.3111102147807,77.46680267240794L967.3824979379955,76.33963387809985L968.4538856612103,181.98085563491125L969.525273384425,71.39670792887159L970.0609672460324,75.09722810315856L971.1323549692472,234.11574436821235L973.2751304156768,215.26997187253832L974.3465181388916,219.79360157188373L974.882212000499,218.72732149725746L976.4892935853211,206.41072149451065L978.0963751701432,206.27082568048968L980.2391506165728,154.64665978525122L981.3105383397876,77.97225042118231L981.8462322013951,175.163091405645L983.4533137862172,22.615214645693072L985.5960892326468,165.22580631428104L986.1317830942543,54.98609989131069L986.6674769558615,92.31398714161946L987.203170817469,100.29220066834046L988.8102524022911,72.48223877657131L989.3459462638986,103.13052984617269L989.8816401255059,88.87353427387251L990.9530278487207,50.425821661408406L991.4887217103282,100.65513779220584L992.0244155719355,164.07357291048604L993.0958032951503,127.95441888191417L993.6314971567576,122.00223083406468L995.2385787415798,74.85626058323658L995.7742726031872,88.63123532793395L996.845660326402,137.79092308787935L997.9170480496168,152.76198701101438L998.4527419112242,76.84466984563198L998.9884357728316,41.26693523097447L1002.7382928040834,23.138053288930223L1003.2739866656908,29.943136371691537L1003.809680527298,87.84032023299585L1004.3453743889055,28.627907084064987L1007.5595375585499,30.792695978541417L1008.0952314201572,39.01946066306181L1008.6309252817646,154.04262946239723L1009.166619143372,36.998568723676556L1009.7023130049795,23.09227694083762L1010.7737007281942,72.3719088557412L1012.3807823130163,38.19442949220638L1013.9878638978386,45.43212308501535L1016.1306393442682,32.48357956739687L1016.6663332058756,44.971792834346104L1017.2020270674828,43.43102409733916L1017.7377209290903,27.855103500763505L1018.2734147906978,96.51041546590284L1019.3448025139124,62.6011017733382L1019.8804963755199,58.44496624360528L1022.0232718219495,53.83313986519869L1023.6303534067716,42.740714022894224L1024.166047268379,13.169241196209384L1025.7731288532011,35.970309783747894L1026.3088227148087,171.32070744615027L1026.844516576416,46.66746681165267L1027.3802104380234,147.66309226774692L1027.9159042996307,23.416252696168954L1028.9872920228456,59.77766191892232L1029.522985884453,53.262623817134056L1030.0586797460603,36.8750343510128L1030.5943736076679,35.70410007367826L1031.130067469275,36.41860229610319L1033.2728429157046,40.80015374084388L1033.8085367773122,39.696820217439154L1034.3442306389195,34.71569469497507L1035.9513122237415,132.52946461661531L1037.0226999469564,41.81432976228888L1037.5583938085638,54.28533743633426L1038.0940876701711,38.32798387509729L1039.165475393386,48.76754428391541L1039.7011692549934,95.07500439122634L1040.2368631166007,139.9635778619596L1041.3082508398156,52.705957344849196L1041.843944701423,37.803285353249464L1043.4510262862452,59.61272980537484L1044.52241400946,25.59043020296781L1045.5938017326748,15.1929538371038L1046.1294955942822,101.61106735693988L1047.2008833174968,23.72431996950951L1048.807964902319,31.205616482190635L1049.8793526255338,53.36049049236652L1050.4150464871411,141.49072436074763L1050.9507403487487,161.5631906033397L1052.0221280719634,44.973110534321165L1053.093515795178,43.7433121284123L1053.6292096567856,52.4249303730806L1054.164903518393,25.887228396313105L1056.3076789648226,83.39949287843865L1056.84337282643,67.07183130910073L1057.9147605496448,44.84747607732214L1058.9861482728595,53.404173619144615L1061.6646175808964,64.27090216259245L1063.807393027326,156.54987365332684L1064.3430868889334,83.52989713482663L1064.878780750541,109.69517386160612L1065.414474612148,149.9665384959027L1071.8428009514369,108.62980656873344L1072.9141886746518,34.139297038167456L1073.9855763978665,51.941025646294634" fill="none"></path></g></g></g></g></g></g><g transform="translate(49, 378)" clip-path="url(#clip_1)"><clipPath id="clip_1"><rect width="1079" height="21"></rect></clipPath><g><g><line x1="2.5978531830826106" y1="0" x2="2.5978531830826106" y2="5" style="visibility: inherit;" fill="rgb(0, 0, 0)" stroke="rgb(204, 204, 204)" stroke-width="1px"></line><line x1="109.73662550456099" y1="0" x2="109.73662550456099" y2="5" style="visibility: inherit;" fill="rgb(0, 0, 0)" stroke="rgb(204, 204, 204)" stroke-width="1px"></line><line x1="216.87539782603938" y1="0" x2="216.87539782603938" y2="5" style="visibility: inherit;" fill="rgb(0, 0, 0)" stroke="rgb(204, 204, 204)" stroke-width="1px"></line><line x1="324.01417014751775" y1="0" x2="324.01417014751775" y2="5" style="visibility: inherit;" fill="rgb(0, 0, 0)" stroke="rgb(204, 204, 204)" stroke-width="1px"></line><line x1="431.1529424689961" y1="0" x2="431.1529424689961" y2="5" style="visibility: inherit;" fill="rgb(0, 0, 0)" stroke="rgb(204, 204, 204)" stroke-width="1px"></line><line x1="538.2917147904745" y1="0" x2="538.2917147904745" y2="5" style="visibility: inherit;" fill="rgb(0, 0, 0)" stroke="rgb(204, 204, 204)" stroke-width="1px"></line><line x1="645.4304871119529" y1="0" x2="645.4304871119529" y2="5" style="visibility: inherit;" fill="rgb(0, 0, 0)" stroke="rgb(204, 204, 204)" stroke-width="1px"></line><line x1="752.5692594334313" y1="0" x2="752.5692594334313" y2="5" style="visibility: inherit;" fill="rgb(0, 0, 0)" stroke="rgb(204, 204, 204)" stroke-width="1px"></line><line x1="859.7080317549097" y1="0" x2="859.7080317549097" y2="5" style="visibility: inherit;" fill="rgb(0, 0, 0)" stroke="rgb(204, 204, 204)" stroke-width="1px"></line><line x1="966.8468040763881" y1="0" x2="966.8468040763881" y2="5" style="visibility: inherit;" fill="rgb(0, 0, 0)" stroke="rgb(204, 204, 204)" stroke-width="1px"></line><line x1="1073.9855763978665" y1="0" x2="1073.9855763978665" y2="5" style="visibility: inherit;" fill="rgb(0, 0, 0)" stroke="rgb(204, 204, 204)" stroke-width="1px"></line></g><g transform="translate(0, 8)"><text style="text-anchor: middle; visibility: inherit; font-family: &quot;Helvetica Neue&quot;, sans-serif; font-size: 12px; font-weight: 200;" x="2.5978531830826106" y="0" dx="0em" dy="0.95em" fill="rgb(50, 49, 63)" stroke="none" stroke-width="1px">0</text><text style="text-anchor: middle; visibility: inherit; font-family: &quot;Helvetica Neue&quot;, sans-serif; font-size: 12px; font-weight: 200;" x="109.73662550456099" y="0" dx="0em" dy="0.95em" fill="rgb(50, 49, 63)" stroke="none" stroke-width="1px">200</text><text style="text-anchor: middle; visibility: inherit; font-family: &quot;Helvetica Neue&quot;, sans-serif; font-size: 12px; font-weight: 200;" x="216.87539782603938" y="0" dx="0em" dy="0.95em" fill="rgb(50, 49, 63)" stroke="none" stroke-width="1px">400</text><text style="text-anchor: middle; visibility: inherit; font-family: &quot;Helvetica Neue&quot;, sans-serif; font-size: 12px; font-weight: 200;" x="324.01417014751775" y="0" dx="0em" dy="0.95em" fill="rgb(50, 49, 63)" stroke="none" stroke-width="1px">600</text><text style="text-anchor: middle; visibility: inherit; font-family: &quot;Helvetica Neue&quot;, sans-serif; font-size: 12px; font-weight: 200;" x="431.1529424689961" y="0" dx="0em" dy="0.95em" fill="rgb(50, 49, 63)" stroke="none" stroke-width="1px">800</text><text style="text-anchor: middle; visibility: inherit; font-family: &quot;Helvetica Neue&quot;, sans-serif; font-size: 12px; font-weight: 200;" x="538.2917147904745" y="0" dx="0em" dy="0.95em" fill="rgb(50, 49, 63)" stroke="none" stroke-width="1px">1k</text><text style="text-anchor: middle; visibility: inherit; font-family: &quot;Helvetica Neue&quot;, sans-serif; font-size: 12px; font-weight: 200;" x="645.4304871119529" y="0" dx="0em" dy="0.95em" fill="rgb(50, 49, 63)" stroke="none" stroke-width="1px">1.2k</text><text style="text-anchor: middle; visibility: inherit; font-family: &quot;Helvetica Neue&quot;, sans-serif; font-size: 12px; font-weight: 200;" x="752.5692594334313" y="0" dx="0em" dy="0.95em" fill="rgb(50, 49, 63)" stroke="none" stroke-width="1px">1.4k</text><text style="text-anchor: middle; visibility: inherit; font-family: &quot;Helvetica Neue&quot;, sans-serif; font-size: 12px; font-weight: 200;" x="859.7080317549097" y="0" dx="0em" dy="0.95em" fill="rgb(50, 49, 63)" stroke="none" stroke-width="1px">1.6k</text><text style="text-anchor: middle; visibility: inherit; font-family: &quot;Helvetica Neue&quot;, sans-serif; font-size: 12px; font-weight: 200;" x="966.8468040763881" y="0" dx="0em" dy="0.95em" fill="rgb(50, 49, 63)" stroke="none" stroke-width="1px">1.8k</text><text style="text-anchor: middle; visibility: inherit; font-family: &quot;Helvetica Neue&quot;, sans-serif; font-size: 12px; font-weight: 200;" x="1073.9855763978665" y="0" dx="0em" dy="0.95em" fill="rgb(50, 49, 63)" stroke="none" stroke-width="1px">2k</text></g><line x1="0" y1="0" x2="1079.4159988403321" y2="0" fill="rgb(0, 0, 0)" stroke="rgb(204, 204, 204)" stroke-width="1px"></line></g></g></g></g></svg>